g Cylinder.002
v -0.02129899 -0.01399219 0.01
v -0.01666666 -0.01666666 0.05999999
v -0.02129899 -0.01934114 0.009999999
v -0.01666666 -0.01131772 0.009999999
v -0.01666666 -0.01666666 0.05999999
v -0.01666666 -0.01666666 0.05999999
v -0.01666666 -0.02201561 0.009999999
v -0.01203434 -0.01399219 0.009999999
v -0.01666666 -0.01666666 0.05999999
v -0.01666666 -0.01666666 0.05999999
v -0.01203434 -0.01934114 0.01
v -0.01666666 -0.01666666 0.05999999
v 0.02129899 -0.01399219 0.01
v 0.02129899 -0.01934114 0.009999999
v 0.01666666 -0.01666666 0.05999999
v 0.01666666 -0.01131772 0.009999999
v 0.01666666 -0.01666666 0.05999999
v 0.01666666 -0.02201561 0.009999999
v 0.01666666 -0.01666666 0.05999999
v 0.01203434 -0.01399219 0.009999999
v 0.01666666 -0.01666666 0.05999999
v 0.01203434 -0.01934114 0.01
v 0.01666666 -0.01666666 0.05999999
v 0.01666666 -0.01666666 0.05999999
v -0.02129899 0.01399219 0.01
v -0.02129899 0.01934114 0.009999999
v -0.01666666 0.01666666 0.05999999
v -0.01666666 0.01131772 0.009999999
v -0.01666666 0.01666666 0.05999999
v -0.01666666 0.02201561 0.009999999
v -0.01666666 0.01666666 0.05999999
v -0.01203434 0.01399219 0.009999999
v -0.01666666 0.01666666 0.05999999
v -0.01203434 0.01934114 0.01
v -0.01666666 0.01666666 0.05999999
v -0.01666666 0.01666666 0.05999999
v 0.02129899 0.01399219 0.01
v 0.01666666 0.01666666 0.05999999
v 0.02129899 0.01934114 0.009999999
v 0.01666666 0.01131772 0.009999999
v 0.01666666 0.01666666 0.05999999
v 0.01666666 0.01666666 0.05999999
v 0.01666666 0.02201561 0.009999999
v 0.01203434 0.01399219 0.009999999
v 0.01666666 0.01666666 0.05999999
v 0.01666666 0.01666666 0.05999999
v 0.01203434 0.01934114 0.01
v 0.01666666 0.01666666 0.05999999
vt 0.1387939 0.314209
vt 0.1387939 0.314209
vt 0.1387939 0.185791
vt 0.25 0.378418
vt 0.25 0.378418
vt 0.1387939 0.185791
vt 0.25 0.1216431
vt 0.361084 0.314209
vt 0.361084 0.314209
vt 0.25 0.1216431
vt 0.361084 0.185791
vt 0.361084 0.185791
vt 0.1387939 0.314209
vt 0.1387939 0.185791
vt 0.1387939 0.314209
vt 0.25 0.378418
vt 0.25 0.378418
vt 0.25 0.1216431
vt 0.1387939 0.185791
vt 0.361084 0.314209
vt 0.361084 0.314209
vt 0.361084 0.185791
vt 0.25 0.1216431
vt 0.361084 0.185791
vt 0.1387939 0.314209
vt 0.1387939 0.185791
vt 0.1387939 0.314209
vt 0.25 0.378418
vt 0.25 0.378418
vt 0.25 0.1216431
vt 0.1387939 0.185791
vt 0.361084 0.314209
vt 0.361084 0.314209
vt 0.361084 0.185791
vt 0.25 0.1216431
vt 0.361084 0.185791
vt 0.1387939 0.314209
vt 0.1387939 0.314209
vt 0.1387939 0.185791
vt 0.25 0.378418
vt 0.25 0.378418
vt 0.1387939 0.185791
vt 0.25 0.1216431
vt 0.361084 0.314209
vt 0.361084 0.314209
vt 0.25 0.1216431
vt 0.361084 0.185791
vt 0.361084 0.185791
vn -0.8613281 0.4970703 0.1063843
vn 0 0 1
vn -0.8613281 -0.4970703 0.1063843
vn 0 0.9941406 0.1063843
vn 0 0 1
vn 0 0 1
vn 0 -0.9941406 0.1063843
vn 0.8613281 0.4970703 0.1063843
vn 0 0 1
vn 0 0 1
vn 0.8613281 -0.4970703 0.1063843
vn 0 0 1
vn 0.8613281 0.4970703 0.1063843
vn 0.8613281 -0.4970703 0.1063843
vn 0 0 1
vn 0 0.9941406 0.1063843
vn 0 0 1
vn 0 -0.9941406 0.1063843
vn 0 0 1
vn -0.8613281 0.4970703 0.1063843
vn 0 0 1
vn -0.8613281 -0.4970703 0.1063843
vn 0 0 1
vn 0 0 1
vn -0.8613281 -0.4970703 0.1063843
vn -0.8613281 0.4970703 0.1063843
vn 0 0 1
vn 0 -0.9941406 0.1063843
vn 0 0 1
vn 0 0.9941406 0.1063843
vn 0 0 1
vn 0.8613281 -0.4970703 0.1063843
vn 0 0 1
vn 0.8613281 0.4970703 0.1063843
vn 0 0 1
vn 0 0 1
vn 0.8613281 -0.4970703 0.1063843
vn 0 0 1
vn 0.8613281 0.4970703 0.1063843
vn 0 -0.9941406 0.1063843
vn 0 0 1
vn 0 0 1
vn 0 0.9941406 0.1063843
vn -0.8613281 -0.4970703 0.1063843
vn 0 0 1
vn 0 0 1
vn -0.8613281 0.4970703 0.1063843
vn 0 0 1
g Cylinder.002_0
f 3/3/3 2/2/2 1/1/1
f 1/1/1 5/5/5 4/4/4
f 7/7/7 6/6/6 3/3/3
f 4/4/4 9/9/9 8/8/8
f 11/11/11 10/10/10 7/7/7
f 8/8/8 12/12/12 11/11/11
f 15/15/15 14/14/14 13/13/13
f 17/17/17 13/13/13 16/16/16
f 19/19/19 18/18/18 14/14/14
f 21/21/21 16/16/16 20/20/20
f 23/23/23 22/22/22 18/18/18
f 24/24/24 20/20/20 22/22/22
f 27/27/27 26/26/26 25/25/25
f 29/29/29 25/25/25 28/28/28
f 31/31/31 30/30/30 26/26/26
f 33/33/33 28/28/28 32/32/32
f 35/35/35 34/34/34 30/30/30
f 36/36/36 32/32/32 34/34/34
f 39/39/39 38/38/38 37/37/37
f 37/37/37 41/41/41 40/40/40
f 43/43/43 42/42/42 39/39/39
f 40/40/40 45/45/45 44/44/44
f 47/47/47 46/46/46 43/43/43
f 44/44/44 48/48/48 47/47/47
