g Cylinder_sh_5
v -0.9844495 -0.5723141 0.05021788
v -0.8660252 -0.9893066 0.5502176
v -1 -0.9893066 0.05021793
v 0.8660254 -0.1553215 0.5502174
v 1 -0.1553216 0.05021742
v 0.8660254 -0.9893067 -0.4497824
v 0.8525582 -0.5723141 0.5424422
v 0.9844495 -0.5723141 0.05021746
v 0.8660254 -0.9893066 0.5502175
v 1 -0.9893066 0.05021751
v -0.8797348 -0.5723141 0.4410177
v -0.9273384 -0.1553215 0.3213943
v -0.8654173 -0.9704838 0.5498667
v 0.8777292 0.5954586 0.4323916
v -0.8604983 -0.9893066 0.5557445
v 0.8588508 0.1577456 0.5460751
v 0.7971731 -0.1553215 0.6190697
v 0.6071595 -0.9893066 0.8090833
v 0.6840508 -0.572314 0.7109495
v 0.9386999 -0.1553216 -0.1785577
v 0.9810995 0.5589151 0.05021733
v 0.8609228 -0.9893067 -0.454885
v 0.8656164 -0.9766427 -0.4495463
v 0.884822 -0.5723141 -0.3215974
v 0.977499 0.5954585 0.06004541
v -0.993046 -0.3417948 0.05021786
v -0.9383624 -0.5723141 -0.1217821
v -0.876682 -0.9893067 -0.4100121
v -0.2278898 -0.9893067 -0.8090833
v 0.8976805 0.8083516 0.3789576
v 0.9635791 0.874727 0.1395757
v -0.9746314 -0.1681681 0.1431066
v -0.958858 -0.1553216 0.2037615
v -0.9285048 -0.1306685 0.3146065
v 0.3595123 0.8567398 -0.06234552
v 0.4462086 0.9273283 0.2692406
v 0.5302457 0.9893068 0.03309739
v -0.9844495 -0.5723141 0.05021788
v -0.9844495 -0.5723141 0.05021788
v -0.9844495 -0.5723141 0.05021788
v -0.9844495 -0.5723141 0.05021788
v -0.8660252 -0.9893066 0.5502176
v -0.8660252 -0.9893066 0.5502176
v -0.8660252 -0.9893066 0.5502176
v -0.8660252 -0.9893066 0.5502176
v -0.8660252 -0.9893066 0.5502176
v -1 -0.9893066 0.05021793
v -1 -0.9893066 0.05021793
v -1 -0.9893066 0.05021793
v 0.8660254 -0.1553215 0.5502174
v 0.8660254 -0.1553215 0.5502174
v 0.8660254 -0.1553215 0.5502174
v 0.8660254 -0.1553215 0.5502174
v 1 -0.1553216 0.05021742
v 1 -0.1553216 0.05021742
v 1 -0.1553216 0.05021742
v 1 -0.1553216 0.05021742
v 1 -0.1553216 0.05021742
v 0.8660254 -0.9893067 -0.4497824
v 0.8660254 -0.9893067 -0.4497824
v 0.8660254 -0.9893067 -0.4497824
v 0.8660254 -0.9893067 -0.4497824
v 0.8660254 -0.9893067 -0.4497824
v 0.8525582 -0.5723141 0.5424422
v 0.8525582 -0.5723141 0.5424422
v 0.8525582 -0.5723141 0.5424422
v 0.8525582 -0.5723141 0.5424422
v 0.8525582 -0.5723141 0.5424422
v 0.9844495 -0.5723141 0.05021746
v 0.9844495 -0.5723141 0.05021746
v 0.9844495 -0.5723141 0.05021746
v 0.9844495 -0.5723141 0.05021746
v 0.9844495 -0.5723141 0.05021746
v 0.8660254 -0.9893066 0.5502175
v 0.8660254 -0.9893066 0.5502175
v 0.8660254 -0.9893066 0.5502175
v 0.8660254 -0.9893066 0.5502175
v 0.8660254 -0.9893066 0.5502175
v 1 -0.9893066 0.05021751
v 1 -0.9893066 0.05021751
v 1 -0.9893066 0.05021751
v -0.8797348 -0.5723141 0.4410177
v -0.8797348 -0.5723141 0.4410177
v -0.8797348 -0.5723141 0.4410177
v -0.8797348 -0.5723141 0.4410177
v -0.8797348 -0.5723141 0.4410177
v -0.8797348 -0.5723141 0.4410177
v -0.8797348 -0.5723141 0.4410177
v -0.9273384 -0.1553215 0.3213943
v -0.9273384 -0.1553215 0.3213943
v -0.9273384 -0.1553215 0.3213943
v -0.9273384 -0.1553215 0.3213943
v -0.9273384 -0.1553215 0.3213943
v -0.9273384 -0.1553215 0.3213943
v -0.9273384 -0.1553215 0.3213943
v -0.8654173 -0.9704838 0.5498667
v -0.8654173 -0.9704838 0.5498667
v 0.8777292 0.5954586 0.4323916
v 0.8777292 0.5954586 0.4323916
v 0.8777292 0.5954586 0.4323916
v 0.8777292 0.5954586 0.4323916
v -0.8604983 -0.9893066 0.5557445
v -0.8604983 -0.9893066 0.5557445
v -0.8604983 -0.9893066 0.5557445
v -0.8604983 -0.9893066 0.5557445
v 0.8588508 0.1577456 0.5460751
v 0.8588508 0.1577456 0.5460751
v 0.8588508 0.1577456 0.5460751
v 0.8588508 0.1577456 0.5460751
v 0.8588508 0.1577456 0.5460751
v 0.8588508 0.1577456 0.5460751
v 0.8588508 0.1577456 0.5460751
v 0.7971731 -0.1553215 0.6190697
v 0.7971731 -0.1553215 0.6190697
v 0.7971731 -0.1553215 0.6190697
v 0.7971731 -0.1553215 0.6190697
v 0.6071595 -0.9893066 0.8090833
v 0.6071595 -0.9893066 0.8090833
v 0.6071595 -0.9893066 0.8090833
v 0.6071595 -0.9893066 0.8090833
v 0.6071595 -0.9893066 0.8090833
v 0.6071595 -0.9893066 0.8090833
v 0.6840508 -0.572314 0.7109495
v 0.6840508 -0.572314 0.7109495
v 0.6840508 -0.572314 0.7109495
v 0.6840508 -0.572314 0.7109495
v 0.6840508 -0.572314 0.7109495
v 0.9386999 -0.1553216 -0.1785577
v 0.9386999 -0.1553216 -0.1785577
v 0.9386999 -0.1553216 -0.1785577
v 0.9386999 -0.1553216 -0.1785577
v 0.9386999 -0.1553216 -0.1785577
v 0.9810995 0.5589151 0.05021733
v 0.9810995 0.5589151 0.05021733
v 0.9810995 0.5589151 0.05021733
v 0.9810995 0.5589151 0.05021733
v 0.8609228 -0.9893067 -0.454885
v 0.8609228 -0.9893067 -0.454885
v 0.8609228 -0.9893067 -0.454885
v 0.8609228 -0.9893067 -0.454885
v 0.8609228 -0.9893067 -0.454885
v 0.8656164 -0.9766427 -0.4495463
v 0.8656164 -0.9766427 -0.4495463
v 0.884822 -0.5723141 -0.3215974
v 0.884822 -0.5723141 -0.3215974
v 0.884822 -0.5723141 -0.3215974
v 0.884822 -0.5723141 -0.3215974
v 0.884822 -0.5723141 -0.3215974
v 0.884822 -0.5723141 -0.3215974
v 0.977499 0.5954585 0.06004541
v 0.977499 0.5954585 0.06004541
v 0.977499 0.5954585 0.06004541
v 0.977499 0.5954585 0.06004541
v 0.977499 0.5954585 0.06004541
v 0.977499 0.5954585 0.06004541
v -0.993046 -0.3417948 0.05021786
v -0.993046 -0.3417948 0.05021786
v -0.993046 -0.3417948 0.05021786
v -0.993046 -0.3417948 0.05021786
v -0.9383624 -0.5723141 -0.1217821
v -0.9383624 -0.5723141 -0.1217821
v -0.9383624 -0.5723141 -0.1217821
v -0.9383624 -0.5723141 -0.1217821
v -0.876682 -0.9893067 -0.4100121
v -0.876682 -0.9893067 -0.4100121
v -0.876682 -0.9893067 -0.4100121
v -0.876682 -0.9893067 -0.4100121
v -0.876682 -0.9893067 -0.4100121
v -0.876682 -0.9893067 -0.4100121
v -0.2278898 -0.9893067 -0.8090833
v -0.2278898 -0.9893067 -0.8090833
v -0.2278898 -0.9893067 -0.8090833
v -0.2278898 -0.9893067 -0.8090833
v -0.2278898 -0.9893067 -0.8090833
v -0.2278898 -0.9893067 -0.8090833
v 0.8976805 0.8083516 0.3789576
v 0.8976805 0.8083516 0.3789576
v 0.8976805 0.8083516 0.3789576
v 0.8976805 0.8083516 0.3789576
v 0.9635791 0.874727 0.1395757
v 0.9635791 0.874727 0.1395757
v -0.9746314 -0.1681681 0.1431066
v -0.9746314 -0.1681681 0.1431066
v -0.9746314 -0.1681681 0.1431066
v -0.9746314 -0.1681681 0.1431066
v -0.9746314 -0.1681681 0.1431066
v -0.9746314 -0.1681681 0.1431066
v -0.958858 -0.1553216 0.2037615
v -0.958858 -0.1553216 0.2037615
v -0.958858 -0.1553216 0.2037615
v -0.9285048 -0.1306685 0.3146065
v -0.9285048 -0.1306685 0.3146065
v -0.9285048 -0.1306685 0.3146065
v -0.9285048 -0.1306685 0.3146065
v 0.3595123 0.8567398 -0.06234552
v 0.3595123 0.8567398 -0.06234552
v 0.3595123 0.8567398 -0.06234552
v 0.3595123 0.8567398 -0.06234552
v 0.3595123 0.8567398 -0.06234552
v 0.3595123 0.8567398 -0.06234552
v 0.3595123 0.8567398 -0.06234552
v 0.4462086 0.9273283 0.2692406
v 0.4462086 0.9273283 0.2692406
v 0.4462086 0.9273283 0.2692406
v 0.4462086 0.9273283 0.2692406
v 0.4462086 0.9273283 0.2692406
v 0.5302457 0.9893068 0.03309739
v 0.5302457 0.9893068 0.03309739
v 0.5302457 0.9893068 0.03309739
v 0.5302457 0.9893068 0.03309739
vt 0.05757263 0.9427153
vt 0.05757263 0.9427153
vt 0.05757263 0.9427153
vt 0.05757263 0.9427153
vt 0.05757263 0.9427153
vt 0.05757263 0.9427153
vt 0.05757263 0.9427153
vt 0.05757263 0.9427153
vt 0.05757263 0.9427153
vt 0.05757263 0.9427153
vt 0.05757263 0.9427153
vt 0.298242 0.3831657
vt 0.05757263 0.9427153
vt 0.6864774 0.503767
vt 0.05757263 0.9427153
vt 0.6681399 0.4334432
vt 0.6521627 0.3831491
vt -0.1542188 0.01971958
vt 0.05757263 0.9427153
vt 0.7890488 0.3832287
vt 0.7511559 0.4979277
vt 0.05757263 0.9427153
vt 0.05757263 0.9427153
vt 0.05757263 0.9427153
vt 0.2482853 0.4222507
vt 0.05757263 0.9427153
vt 0.05757263 0.9427153
vt 0.05757263 0.9427153
vt -0.05788412 0.01971956
vt 0.6960412 0.5379595
vt 0.2447496 0.4931851
vt -0.2475569 0.2282892
vt 0.2787271 0.3831705
vt 0.2971211 0.3871228
vt 0.09131635 0.4886163
vt -0.1133372 0.5065458
vt -0.1346827 0.004348448
vt 0.05757263 0.9427153
vt 0.05757263 0.9427153
vt 0.05757263 0.9427153
vt 0.05757263 0.9427153
vt 0.05757263 0.9427153
vt 0.05757263 0.9427153
vt 0.05757263 0.9427153
vt 0.05757263 0.9427153
vt 0.05757263 0.9427153
vt 0.05757263 0.9427153
vt 0.05757263 0.9427153
vt 0.05757263 0.9427153
vt 0.05757263 0.9427153
vt 0.668085 0.3831517
vt 0.668085 0.3831517
vt 0.05757263 0.9427153
vt 0.7510694 0.3831819
vt 0.7510694 0.3831819
vt 0.05757263 0.9427153
vt 0.7510694 0.3831819
vt 0.05757263 0.9427153
vt 0.05757263 0.9427153
vt 0.05757263 0.9427153
vt 0.05757263 0.9427153
vt 0.05757263 0.9427153
vt 0.05757263 0.9427153
vt 0.05757263 0.9427153
vt 0.05757263 0.9427153
vt 0.05757263 0.9427153
vt 0.05757263 0.9427153
vt 0.05757263 0.9427153
vt 0.05757263 0.9427153
vt 0.05757263 0.9427153
vt 0.05757263 0.9427153
vt 0.05757263 0.9427153
vt 0.05757263 0.9427153
vt 0.05757263 0.9427153
vt 0.05757263 0.9427153
vt 0.05757263 0.9427153
vt 0.05757263 0.9427153
vt 0.05757263 0.9427161
vt 0.05757263 0.9427153
vt 0.05757263 0.9427153
vt 0.05757263 0.9427153
vt 0.05757263 0.9427153
vt 0.05757263 0.9427153
vt 0.05757263 0.9427153
vt 0.2234531 0.1256359
vt 0.2234531 0.1256359
vt 0.2234531 0.1256359
vt 0.2234531 0.1256359
vt 0.05757263 0.9427152
vt 0.2355444 0.2315522
vt 0.2355444 0.2315522
vt 0.2355444 0.2315522
vt 0.2355444 0.2315522
vt 0.05757263 0.9427153
vt 0.05757263 0.9427153
vt 0.05757263 0.9427153
vt 0.2198164 0.02450056
vt -0.2229437 0.4222507
vt 0.6864774 0.503767
vt 0.6864774 0.503767
vt -0.2229437 0.4222507
vt 0.218567 0.01971957
vt 0.218567 0.01971957
vt 0.05757264 0.9427153
vt 0.05757264 0.9427153
vt 0.6681399 0.4334432
vt -0.2181485 0.3110714
vt 0.6671834 0.4334368
vt 0.6671834 0.4334368
vt -0.2181485 0.3110714
vt -0.2181485 0.3110714
vt -0.2181485 0.3110714
vt -0.2024824 0.2315522
vt 0.05757263 0.9427153
vt 0.05757263 0.9427153
vt -0.2024824 0.2315522
vt -0.1542188 0.01971958
vt 0.05757264 0.9427153
vt 0.0575726 0.9427152
vt 0.0575726 0.9427152
vt 0.0575726 0.9427152
vt 0.0575726 0.9427152
vt -0.1737493 0.1256359
vt -0.1737493 0.1256359
vt -0.1737493 0.1256359
vt 0.05757263 0.9427153
vt 0.05757263 0.9427153
vt 0.2384303 0.2315522
vt 0.05757263 0.9427153
vt 0.2384303 0.2315522
vt 0.2384303 0.2315522
vt 0.2384303 0.2315522
vt 0.2491998 0.4129687
vt 0.7511559 0.4979277
vt 0.7511559 0.4979277
vt 0.7511559 0.4979277
vt 0.05757263 0.9427153
vt 0.2186748 0.01971954
vt 0.2186748 0.01971954
vt 0.05757266 0.9427152
vt 0.05757266 0.9427152
vt 0.05757263 0.9427153
vt 0.219867 0.0229362
vt 0.05757263 0.9427152
vt 0.05757263 0.9427152
vt 0.05757263 0.9427153
vt 0.2247453 0.1256358
vt 0.2247453 0.1256358
vt 0.2247453 0.1256358
vt 0.7494969 0.5037978
vt 0.7494969 0.5037978
vt 0.2482853 0.4222507
vt 0.2482853 0.4222507
vt 0.2482853 0.4222507
vt 0.7494969 0.5037978
vt 0.05757263 0.9427153
vt 0.05757263 0.9427153
vt 0.05757263 0.9427153
vt -0.2522342 0.1841879
vt 0.05757263 0.9427153
vt 0.05757263 0.9427153
vt -0.2383445 0.1256359
vt -0.2383445 0.1256359
vt 0.05757263 0.9427153
vt 0.05757263 0.9427153
vt 0.05757263 0.9427153
vt 0.05757263 0.9427153
vt -0.2226777 0.01971958
vt -0.2226777 0.01971958
vt -0.05788412 0.01971956
vt -0.05788412 0.01971956
vt -0.05788412 0.01971956
vt 0.05757264 0.9427155
vt 0.05757264 0.9427155
vt -0.05788412 0.01971956
vt -0.2280113 0.4763257
vt -0.2280113 -0.08350022
vt -0.2280113 -0.08350022
vt 0.6960412 0.5379595
vt -0.2447496 -0.02269711
vt 0.7367187 0.5486385
vt 0.2475569 -0.02359391
vt 0.05757263 0.9427153
vt 0.05757263 0.9427153
vt -0.2475569 0.2282892
vt -0.2475569 0.2282892
vt -0.2475569 0.2282892
vt 0.2435504 -0.03900029
vt 0.2435504 -0.03900029
vt 0.05757263 0.9427153
vt 0.2358407 -0.06715497
vt 0.2358407 -0.06715497
vt 0.2358407 0.2378141
vt 0.2358407 0.2378141
vt -0.09131631 0.028591
vt -0.09131631 0.028591
vt -0.09131631 0.028591
vt -0.09131631 0.028591
vt 0.09131635 0.4886163
vt 0.09131635 0.4886163
vt 0.09131635 0.4886163
vt -0.1133372 -0.05563204
vt -0.1133372 -0.05563204
vt -0.1133372 0.5065458
vt -0.1133372 0.5065458
vt -0.1133372 -0.05563204
vt 0.1346827 0.5222884
vt 0.1346827 0.5222884
vt -0.1346827 0.004348448
vt -0.1346827 0.004348448
vn -1 0 0
vn -0.864835 0.05240043 0.4993141
vn -0.9986261 0.05240185 -6.246788E-09
vn 0.8659994 -0.007538066 0.4999883
vn 0.9999716 -0.007538088 8.986101E-10
vn 0.8648482 0.0524011 -0.4992912
vn 0.8660316 5.960337E-08 0.4999893
vn 1 0 0
vn 0 -1 1.192093E-07
vn 0.9986261 0.05240185 -6.246788E-09
vn -0.9138901 4.200621E-08 0.4059616
vn -0.9597746 -0.007801968 0.2806633
vn -0.8649403 0.05003808 0.4993742
vn 0.9168627 4.739066E-08 0.3992028
vn -0.8610281 0.05250487 0.5058398
vn 0.8660188 -0.00439478 0.4999922
vn 0.8128157 -0.007699735 0.5824701
vn -0.1644936 0.2545974 0.9529544
vn 0.7219763 8.248303E-08 0.6919178
vn 0.9715324 -0.007802018 -0.2367782
vn 0.9999999 -0.0003669086 4.373891E-11
vn 0.8613358 0.05249762 -0.5053164
vn 0.8649191 0.05081174 -0.4993327
vn 0.9219152 -4.618069E-08 -0.3873917
vn 0.2974164 0.2751793 -0.9142318
vn -0.9999914 -0.004167189 4.967677E-10
vn -0.9841309 -3.412414E-08 -0.1774443
vn 0 -1 1.192093E-07
vn -0.4664903 0.455212 -0.758399
vn 0.9393637 0.002204378 0.3429155
vn 0.297407 0.2751806 -0.9142345
vn -0.4664903 0.455212 -0.758399
vn -0.9873905 -0.007762613 0.1581135
vn -0.9617923 -0.007546831 0.2736763
vn -0.4664903 0.455212 -0.758399
vn -0.1644935 0.2545975 0.9529544
vn -0.6100657 0.792298 -0.009158284
vn -1 0 0
vn -1 0 0
vn -1 0 0
vn -1 0 0
vn -0.864835 0.05240043 0.4993141
vn -0.864835 0.05240043 0.4993141
vn -0.864835 0.05240043 0.4993141
vn 0 -1 1.192093E-07
vn 0 -1 1.192093E-07
vn 0 -1 1.192093E-07
vn -0.9986261 0.05240185 -6.246788E-09
vn -0.9986261 0.05240185 -6.246788E-09
vn 0.8659994 -0.007538066 0.4999883
vn 0.8659994 -0.007538066 0.4999883
vn 0.8659994 -0.007538066 0.4999883
vn 0.8659994 -0.007538066 0.4999883
vn 0.9999716 -0.007538088 8.986101E-10
vn 0.9999716 -0.007538088 8.986101E-10
vn 0.9999716 -0.007538088 8.986101E-10
vn 0.9999716 -0.007538088 8.986101E-10
vn 0.9999716 -0.007538088 8.986101E-10
vn 0 -1 1.192093E-07
vn 0.8648482 0.0524011 -0.4992912
vn 0.8648482 0.0524011 -0.4992912
vn 0.8648482 0.0524011 -0.4992912
vn 0 -1 1.192093E-07
vn 0.8660316 5.960337E-08 0.4999893
vn 0.8660316 5.960337E-08 0.4999893
vn 0.8660316 5.960337E-08 0.4999893
vn 0.8660316 5.960337E-08 0.4999893
vn 0.8660316 5.960337E-08 0.4999893
vn 1 0 0
vn 1 0 0
vn 1 0 0
vn 1 0 0
vn 1 0 0
vn 0.8648482 0.05240122 0.4992912
vn 0 -1 1.192093E-07
vn 0.8648482 0.05240122 0.4992912
vn 0.8648482 0.05240122 0.4992912
vn 0 -1 1.192093E-07
vn 0.9986261 0.05240185 -6.246788E-09
vn 0 -1 1.192093E-07
vn 0.9986261 0.05240185 -6.246788E-09
vn -0.9138901 4.200621E-08 0.4059616
vn -0.9138901 4.823561E-08 0.4059616
vn -0.9138901 4.823561E-08 0.4059616
vn -0.1644924 0.2545974 0.9529546
vn -0.1644936 0.2545975 0.9529544
vn -0.1644936 0.2545974 0.9529544
vn -0.1644936 0.2545973 0.9529544
vn -0.9584768 -0.007801035 0.2850638
vn -0.1644936 0.2545974 0.9529544
vn -0.1644936 0.2545969 0.9529545
vn -0.1644936 0.2545974 0.9529544
vn -0.1644936 0.2545975 0.9529544
vn -0.9597746 -0.007801969 0.2806633
vn -0.9597746 -0.007801969 0.2806633
vn -0.8649402 0.05003807 0.4993743
vn -0.1644924 0.2545974 0.9529546
vn -0.1644935 0.2545975 0.9529544
vn 0.9168627 4.942873E-08 0.3992028
vn 0.9168627 4.942873E-08 0.3992028
vn -0.1644937 0.2545972 0.9529544
vn -0.1644924 0.2545974 0.9529546
vn -0.1644936 0.2545973 0.9529544
vn 0 -1 1.192093E-07
vn 0 -1 1.192093E-07
vn 0.8660188 -0.004394779 0.4999922
vn -0.1644936 0.2545974 0.9529544
vn 0.8630543 -0.004387724 0.5050921
vn 0.8630543 -0.004387724 0.5050921
vn -0.1644936 0.2545969 0.9529545
vn -0.1644936 0.2545973 0.9529544
vn -0.1644937 0.2545972 0.9529544
vn -0.1644936 0.2545974 0.9529544
vn 0.8139772 -0.007697182 0.5808457
vn 0.8139772 -0.007697182 0.5808457
vn -0.1644936 0.2545974 0.9529544
vn -0.1644936 0.2545973 0.9529544
vn 0.6188065 0.05387483 0.7836939
vn 0 -1 1.192093E-07
vn 0 -1 1.192093E-07
vn 0 -1 1.192093E-07
vn 0 -1 1.192093E-07
vn -0.1644936 0.2545974 0.9529544
vn -0.1644936 0.2545975 0.9529544
vn -0.1644936 0.2545974 0.9529544
vn 0.7192606 8.928563E-08 0.6947404
vn 0.7192606 8.928563E-08 0.6947404
vn 0.2974164 0.2751793 -0.9142318
vn 0.9706084 -0.007802615 -0.2405378
vn 0.297407 0.2751806 -0.9142345
vn 0.2974069 0.2751806 -0.9142345
vn 0.297407 0.2751805 -0.9142346
vn 0.2974164 0.2751793 -0.9142318
vn 0.9999999 -0.000366907 4.373873E-11
vn 0.9999999 -0.000366907 4.373873E-11
vn 0.9999999 -0.000366907 4.373873E-11
vn 0 -1 1.192093E-07
vn 0.2974069 0.2751807 -0.9142345
vn 0.2974159 0.2751795 -0.914232
vn 0 -1 1.192093E-07
vn 0 -1 1.192093E-07
vn 0.8649191 0.05081175 -0.4993326
vn 0.2974159 0.2751795 -0.914232
vn 0.9219152 -4.618069E-08 -0.3873917
vn 0.9219152 -4.618069E-08 -0.3873917
vn 0.9219152 -4.618069E-08 -0.3873917
vn 0.297407 0.2751805 -0.9142346
vn 0.2974069 0.2751807 -0.9142345
vn 0.2974159 0.2751795 -0.914232
vn 0.9999495 1.186361E-09 0.01005359
vn 0.9999495 2.549958E-09 0.01005358
vn 0.2974069 0.2751806 -0.9142345
vn 0.2974069 0.2751805 -0.9142346
vn 0.297407 0.2751806 -0.9142345
vn 0.9999495 1.186361E-09 0.01005359
vn -0.9999914 -0.004167189 4.967677E-10
vn -0.9999914 -0.00416719 4.967678E-10
vn -0.9999853 -0.004171028 0.003480486
vn -0.4664897 0.4552121 -0.7583992
vn -0.9836135 -1.826916E-08 -0.1802901
vn -0.9836135 -1.826916E-08 -0.1802901
vn -0.4664924 0.4552111 -0.7583981
vn -0.4664897 0.4552121 -0.7583992
vn -0.8804106 0.0528245 -0.471261
vn 0 -1 1.192093E-07
vn 0 -1 1.192093E-07
vn 0 -1 1.192093E-07
vn -0.4664903 0.455212 -0.7583989
vn -0.4664924 0.4552111 -0.7583981
vn 0.297407 0.2751806 -0.9142345
vn 0.297407 0.2751805 -0.9142346
vn 0.2974069 0.2751807 -0.9142345
vn 0 -1 1.192093E-07
vn 0 -1 1.192093E-07
vn -0.4664903 0.455212 -0.7583989
vn -0.1644935 0.2545975 0.9529544
vn 0.1720897 0.936048 0.306919
vn 0.1720893 0.936048 0.3069195
vn 0.9393637 0.002204378 0.3429155
vn 0.1720893 0.936048 0.3069195
vn 0.9960152 0.002859805 0.08913775
vn -0.6100651 0.7922984 -0.009158065
vn -0.995442 -0.00745888 0.09507674
vn -0.995442 -0.00745888 0.09507674
vn -0.4664903 0.455212 -0.7583989
vn -0.4664924 0.4552111 -0.7583981
vn -0.4664897 0.4552121 -0.7583992
vn -0.6100651 0.7922984 -0.009158065
vn -0.6100652 0.7922984 -0.009158267
vn -0.9873905 -0.007762613 0.1581135
vn -0.6100652 0.7922984 -0.009158267
vn -0.6100652 0.7922983 -0.00915849
vn -0.1644936 0.2545969 0.9529545
vn -0.1644936 0.2545973 0.9529544
vn -0.6100651 0.7922984 -0.009158065
vn -0.6100652 0.7922984 -0.009158267
vn -0.6100652 0.7922983 -0.00915849
vn -0.6100657 0.792298 -0.009158284
vn 0.297407 0.2751806 -0.9142345
vn 0.2974069 0.2751806 -0.9142345
vn 0.2974069 0.2751805 -0.9142346
vn -0.6100652 0.7922983 -0.00915849
vn -0.6100657 0.792298 -0.009158284
vn -0.1644936 0.2545973 0.9529544
vn -0.1644937 0.2545972 0.9529544
vn 0.1720897 0.936048 0.306919
vn 0.2974069 0.2751805 -0.9142346
vn 0.297407 0.2751806 -0.9142345
vn 0.1720897 0.936048 0.306919
vn 0.1720893 0.936048 0.3069195
g Cylinder_sh_5_0
f 1/1/1 3/3/3 2/2/2
f 5/5/5 4/4/4 8/8/8
f 50/50/50 7/7/7 69/69/69
f 70/70/70 10/10/10 6/6/6
f 71/71/71 64/64/64 79/79/79
f 59/59/59 80/80/80 9/9/9
f 65/65/65 74/74/74 81/81/81
f 11/11/11 38/38/38 42/42/42
f 13/13/13 82/82/82 43/43/43
f 15/15/15 96/96/96 44/44/44
f 16/16/16 51/51/51 54/54/54
f 20/20/20 21/21/21 55/55/55
f 22/22/22 23/23/23 60/60/60
f 56/56/56 72/72/72 24/24/24
f 144/144/144 73/73/73 61/61/61
f 142/142/142 145/145/145 62/62/62
f 63/63/63 75/75/75 137/137/137
f 45/45/45 47/47/47 28/28/28
f 26/26/26 39/39/39 83/83/83
f 30/30/30 14/14/14 150/150/150
f 34/34/34 33/33/33 12/12/12
f 156/156/156 84/84/84 89/89/89
f 52/52/52 106/106/106 17/17/17
f 108/108/108 57/57/57 134/134/134
f 99/99/99 109/109/109 135/135/135
f 136/136/136 151/151/151 100/100/100
f 114/114/114 19/19/19 66/66/66
f 67/67/67 53/53/53 115/115/115
f 126/126/126 118/118/118 76/76/76
f 77/77/77 68/68/68 127/127/127
f 58/58/58 146/146/146 129/129/129
f 40/40/40 157/157/157 27/27/27
f 160/160/160 164/164/164 48/48/48
f 49/49/49 41/41/41 161/161/161
f 104/104/104 46/46/46 165/165/165
f 183/183/183 158/158/158 94/94/94
f 95/95/95 190/190/190 184/184/184
f 119/119/119 105/105/105 166/166/166
f 120/120/120 167/167/167 173/173/173
f 121/121/121 174/174/174 140/140/140
f 141/141/141 78/78/78 122/122/122
f 179/179/179 155/155/155 181/181/181
g Cylinder_sh_5_1
f 25/25/25 133/133/133 128/128/128
f 98/98/98 176/176/176 36/36/36
f 32/32/32 35/35/35 29/29/29
f 195/195/195 182/182/182 188/188/188
f 196/196/196 189/189/189 191/191/191
f 197/197/197 192/192/192 202/202/202
f 203/203/203 37/37/37 198/198/198
f 107/107/107 90/90/90 113/113/113
f 193/193/193 91/91/91 110/110/110
f 204/204/204 194/194/194 111/111/111
f 112/112/112 101/101/101 205/205/205
f 85/85/85 97/97/97 102/102/102
f 123/123/123 116/116/116 92/92/92
f 93/93/93 86/86/86 124/124/124
f 18/18/18 125/125/125 87/87/87
f 88/88/88 103/103/103 117/117/117
f 130/130/130 170/170/170 199/199/199
f 152/152/152 131/131/131 200/200/200
f 153/153/153 201/201/201 207/207/207
f 208/208/208 31/31/31 154/154/154
f 171/171/171 132/132/132 147/147/147
f 138/138/138 172/172/172 148/148/148
f 149/149/149 143/143/143 139/139/139
f 185/185/185 175/175/175 168/168/168
f 186/186/186 169/169/169 162/162/162
f 163/163/163 159/159/159 187/187/187
f 209/209/209 206/206/206 177/177/177
f 178/178/178 180/180/180 210/210/210
