g Cylinder
v 0.3033476 -4.647798 -0.3033476
v 0.4289982 -4.647798 0
v 0.4289982 4.647798 0
v 0.3033476 4.647798 -0.3033476
v 2.626857E-17 -4.647798 -0.4289982
v 0.3033476 -4.647798 -0.3033476
v 0.3033476 4.647798 -0.3033476
v 2.626857E-17 4.647798 -0.4289982
v -0.3033476 -4.647798 -0.3033476
v 2.626857E-17 -4.647798 -0.4289982
v 2.626857E-17 4.647798 -0.4289982
v -0.3033476 4.647798 -0.3033476
v -0.4289982 -4.647798 -5.253713E-17
v -0.3033476 -4.647798 -0.3033476
v -0.3033476 4.647798 -0.3033476
v -0.4289982 4.647798 -5.253713E-17
v -0.3033476 -4.647798 0.3033476
v -0.4289982 -4.647798 -5.253713E-17
v -0.4289982 4.647798 -5.253713E-17
v -0.3033476 4.647798 0.3033476
v -7.88057E-17 -4.647798 0.4289982
v -0.3033476 -4.647798 0.3033476
v -0.3033476 4.647798 0.3033476
v -7.88057E-17 4.647798 0.4289982
v 0.3033476 -4.647798 0.3033476
v -7.88057E-17 -4.647798 0.4289982
v -7.88057E-17 4.647798 0.4289982
v 0.3033476 4.647798 0.3033476
v 0.4289982 -4.647798 0
v 0.3033476 -4.647798 0.3033476
v 0.3033476 4.647798 0.3033476
v 0.4289982 4.647798 0
v 0.3033476 -4.647798 -0.3033476
v 0 -4.647798 0
v 0.4289982 -4.647798 0
v 2.626857E-17 -4.647798 -0.4289982
v 0.3033476 -4.647798 0.3033476
v -0.3033476 -4.647798 -0.3033476
v -7.88057E-17 -4.647798 0.4289982
v -0.4289982 -4.647798 -5.253713E-17
v -0.3033476 -4.647798 0.3033476
v 0.3033476 4.647798 -0.3033476
v 0.4289982 4.647798 0
v 0 4.647798 0
v 2.626857E-17 4.647798 -0.4289982
v 0.3033476 4.647798 0.3033476
v -0.3033476 4.647798 -0.3033476
v -7.88057E-17 4.647798 0.4289982
v -0.4289982 4.647798 -5.253713E-17
v -0.3033476 4.647798 0.3033476
vt 0.125 0
vt 0 0
vt 0 1
vt 0.125 1
vt 0.25 0
vt 0.125 0
vt 0.125 1
vt 0.25 1
vt 0.375 0
vt 0.25 0
vt 0.25 1
vt 0.375 1
vt 0.5 0
vt 0.375 0
vt 0.375 1
vt 0.5 1
vt 0.625 0
vt 0.5 0
vt 0.5 1
vt 0.625 1
vt 0.75 0
vt 0.625 0
vt 0.625 1
vt 0.75 1
vt 0.875 0
vt 0.75 0
vt 0.75 1
vt 0.875 1
vt 1 0
vt 0.875 0
vt 0.875 1
vt 1 1
vt 0.1464466 0.8535534
vt 0.5 0.5
vt 0 0.5
vt 0.5 1
vt 0.1464466 0.1464466
vt 0.8535534 0.8535534
vt 0.5 0
vt 1 0.5
vt 0.8535534 0.1464466
vt 0.8535534 0.8535534
vt 1 0.5
vt 0.5 0.5
vt 0.5 1
vt 0.8535534 0.1464466
vt 0.1464466 0.8535534
vt 0.5 0
vt 0 0.5
vt 0.1464466 0.1464466
vn 0.9238795 0 -0.3826834
vn 0.9238795 0 -0.3826834
vn 0.9238795 0 -0.3826834
vn 0.9238795 0 -0.3826834
vn 0.3826834 0 -0.9238795
vn 0.3826834 0 -0.9238795
vn 0.3826834 0 -0.9238795
vn 0.3826834 0 -0.9238795
vn -0.3826834 0 -0.9238795
vn -0.3826834 0 -0.9238795
vn -0.3826834 0 -0.9238795
vn -0.3826834 0 -0.9238795
vn -0.9238795 0 -0.3826834
vn -0.9238795 0 -0.3826834
vn -0.9238795 0 -0.3826834
vn -0.9238795 0 -0.3826834
vn -0.9238795 0 0.3826834
vn -0.9238795 0 0.3826834
vn -0.9238795 0 0.3826834
vn -0.9238795 0 0.3826834
vn -0.3826834 0 0.9238795
vn -0.3826834 0 0.9238795
vn -0.3826834 0 0.9238795
vn -0.3826834 0 0.9238795
vn 0.3826834 0 0.9238795
vn 0.3826834 0 0.9238795
vn 0.3826834 0 0.9238795
vn 0.3826834 0 0.9238795
vn 0.9238795 0 0.3826834
vn 0.9238795 0 0.3826834
vn 0.9238795 0 0.3826834
vn 0.9238795 0 0.3826834
vn 0 -1 -1.500839E-06
vn 0 -1 0
vn 0 -1 -7.504194E-07
vn 0 -1 0
vn 0 -1 7.504194E-07
vn 0 -1 -7.504194E-07
vn 0 -1 0
vn 0 -1 7.504194E-07
vn 0 -1 1.500839E-06
vn 0 1 -1.500839E-06
vn 0 1 -7.504194E-07
vn 0 1 0
vn 0 1 0
vn 0 1 7.504194E-07
vn 0 1 -7.504194E-07
vn 0 1 0
vn 0 1 7.504194E-07
vn 0 1 1.500839E-06
g Cylinder_0
f 3/3/3 2/2/2 1/1/1
f 4/4/4 3/3/3 1/1/1
f 7/7/7 6/6/6 5/5/5
f 8/8/8 7/7/7 5/5/5
f 11/11/11 10/10/10 9/9/9
f 12/12/12 11/11/11 9/9/9
f 15/15/15 14/14/14 13/13/13
f 16/16/16 15/15/15 13/13/13
f 19/19/19 18/18/18 17/17/17
f 20/20/20 19/19/19 17/17/17
f 23/23/23 22/22/22 21/21/21
f 24/24/24 23/23/23 21/21/21
f 27/27/27 26/26/26 25/25/25
f 28/28/28 27/27/27 25/25/25
f 31/31/31 30/30/30 29/29/29
f 32/32/32 31/31/31 29/29/29
f 35/35/35 34/34/34 33/33/33
f 33/33/33 34/34/34 36/36/36
f 37/37/37 34/34/34 35/35/35
f 36/36/36 34/34/34 38/38/38
f 39/39/39 34/34/34 37/37/37
f 38/38/38 34/34/34 40/40/40
f 41/41/41 34/34/34 39/39/39
f 40/40/40 34/34/34 41/41/41
f 44/44/44 43/43/43 42/42/42
f 44/44/44 42/42/42 45/45/45
f 44/44/44 46/46/46 43/43/43
f 44/44/44 45/45/45 47/47/47
f 44/44/44 48/48/48 46/46/46
f 44/44/44 47/47/47 49/49/49
f 44/44/44 50/50/50 48/48/48
f 44/44/44 49/49/49 50/50/50
