g Cylinder_sh_1
v 0.6805658 1.236751 -0.3990029
v 0.1883411 1.236751 -0.5308942
v 0.1883411 0.8197588 -0.5464447
v 0.688341 0.8197588 -0.41247
v -0.3116595 0.8197588 -0.4124697
v -0.3017258 0.06897843 -0.3952639
v 0.1883411 0.06897843 -0.526577
v -0.6604788 0.06897855 -0.03651032
v 0.1883411 -0.6818017 -0.5464444
v -0.6776847 -0.6818016 -0.04644397
v -0.3116595 -0.6818017 -0.4124695
v -0.811659 -0.6818016 0.4535559
v -0.3038843 -1.098794 -0.3990023
v -0.6642175 -1.098794 -0.03866869
v -0.6776847 -1.515787 -0.04644385
v -0.3116595 -1.515787 -0.4124694
v 0.1883411 1.456435 -0.5390866
v -0.0325233 1.236751 -0.4717137
v -0.30846 0.9913529 -0.4069279
v -0.3991543 0.8197588 -0.3249748
v -0.6645869 0.2482352 -0.03888211
v -0.6894909 0.06897855 0.07176453
v -0.8086315 -0.5674002 0.4535559
v -0.7893604 -0.6818016 0.5367749
v 0.4624876 0.06897843 -0.4531196
v 0.6878098 0.7796055 -0.4115499
v 0.7005703 0.8197588 -0.4002407
v 0.2243052 -0.6818017 -0.5368079
v 0.1883411 -0.795239 -0.5422142
v 0.09226865 -1.098794 -0.5051513
v -0.03980619 -1.515787 -0.4853124
v 0.6840698 1.42467 -0.4050719
v 0.6013867 1.515787 -0.4306248
v 0.7746679 1.236751 -0.3049008
v 0.811659 1.169006 -0.2713608
v 0.7091479 0.8421546 0.05734763
v -0.804705 -0.8682747 0.453556
v -0.7500213 -1.098794 0.281556
v -0.6883409 -1.515787 -0.006673992
v -0.7862904 -0.6946481 0.5464447
v -0.03954875 -1.515787 -0.4057453
v 0.5478534 0.3302598 0.3409925
v 0.6805658 1.236751 -0.3990029
v 0.6805658 1.236751 -0.3990029
v 0.6805658 1.236751 -0.3990029
v 0.6805658 1.236751 -0.3990029
v 0.6805658 1.236751 -0.3990029
v 0.1883411 1.236751 -0.5308942
v 0.1883411 1.236751 -0.5308942
v 0.1883411 1.236751 -0.5308942
v 0.1883411 1.236751 -0.5308942
v 0.1883411 1.236751 -0.5308942
v 0.1883411 1.236751 -0.5308942
v 0.1883411 0.8197588 -0.5464447
v 0.1883411 0.8197588 -0.5464447
v 0.1883411 0.8197588 -0.5464447
v 0.1883411 0.8197588 -0.5464447
v 0.1883411 0.8197588 -0.5464447
v 0.688341 0.8197588 -0.41247
v 0.688341 0.8197588 -0.41247
v 0.688341 0.8197588 -0.41247
v 0.688341 0.8197588 -0.41247
v 0.688341 0.8197588 -0.41247
v 0.688341 0.8197588 -0.41247
v -0.3116595 0.8197588 -0.4124697
v -0.3116595 0.8197588 -0.4124697
v -0.3116595 0.8197588 -0.4124697
v -0.3116595 0.8197588 -0.4124697
v -0.3116595 0.8197588 -0.4124697
v -0.3116595 0.8197588 -0.4124697
v -0.3017258 0.06897843 -0.3952639
v -0.3017258 0.06897843 -0.3952639
v -0.3017258 0.06897843 -0.3952639
v -0.3017258 0.06897843 -0.3952639
v -0.3017258 0.06897843 -0.3952639
v 0.1883411 0.06897843 -0.526577
v 0.1883411 0.06897843 -0.526577
v 0.1883411 0.06897843 -0.526577
v 0.1883411 0.06897843 -0.526577
v 0.1883411 0.06897843 -0.526577
v 0.1883411 0.06897843 -0.526577
v -0.6604788 0.06897855 -0.03651032
v -0.6604788 0.06897855 -0.03651032
v -0.6604788 0.06897855 -0.03651032
v -0.6604788 0.06897855 -0.03651032
v -0.6604788 0.06897855 -0.03651032
v -0.6604788 0.06897855 -0.03651032
v 0.1883411 -0.6818017 -0.5464444
v 0.1883411 -0.6818017 -0.5464444
v 0.1883411 -0.6818017 -0.5464444
v 0.1883411 -0.6818017 -0.5464444
v 0.1883411 -0.6818017 -0.5464444
v -0.6776847 -0.6818016 -0.04644397
v -0.6776847 -0.6818016 -0.04644397
v -0.6776847 -0.6818016 -0.04644397
v -0.6776847 -0.6818016 -0.04644397
v -0.6776847 -0.6818016 -0.04644397
v -0.3116595 -0.6818017 -0.4124695
v -0.3116595 -0.6818017 -0.4124695
v -0.3116595 -0.6818017 -0.4124695
v -0.3116595 -0.6818017 -0.4124695
v -0.3116595 -0.6818017 -0.4124695
v -0.811659 -0.6818016 0.4535559
v -0.811659 -0.6818016 0.4535559
v -0.811659 -0.6818016 0.4535559
v -0.811659 -0.6818016 0.4535559
v -0.811659 -0.6818016 0.4535559
v -0.811659 -0.6818016 0.4535559
v -0.811659 -0.6818016 0.4535559
v -0.3038843 -1.098794 -0.3990023
v -0.3038843 -1.098794 -0.3990023
v -0.3038843 -1.098794 -0.3990023
v -0.3038843 -1.098794 -0.3990023
v -0.3038843 -1.098794 -0.3990023
v -0.3038843 -1.098794 -0.3990023
v -0.6642175 -1.098794 -0.03866869
v -0.6642175 -1.098794 -0.03866869
v -0.6642175 -1.098794 -0.03866869
v -0.6642175 -1.098794 -0.03866869
v -0.6642175 -1.098794 -0.03866869
v -0.6776847 -1.515787 -0.04644385
v -0.6776847 -1.515787 -0.04644385
v -0.6776847 -1.515787 -0.04644385
v -0.6776847 -1.515787 -0.04644385
v -0.3116595 -1.515787 -0.4124694
v -0.3116595 -1.515787 -0.4124694
v -0.3116595 -1.515787 -0.4124694
v 0.1883411 1.456435 -0.5390866
v 0.1883411 1.456435 -0.5390866
v -0.0325233 1.236751 -0.4717137
v -0.0325233 1.236751 -0.4717137
v -0.0325233 1.236751 -0.4717137
v -0.0325233 1.236751 -0.4717137
v -0.0325233 1.236751 -0.4717137
v -0.0325233 1.236751 -0.4717137
v -0.30846 0.9913529 -0.4069279
v -0.30846 0.9913529 -0.4069279
v -0.3991543 0.8197588 -0.3249748
v -0.3991543 0.8197588 -0.3249748
v -0.3991543 0.8197588 -0.3249748
v -0.3991543 0.8197588 -0.3249748
v -0.3991543 0.8197588 -0.3249748
v -0.3991543 0.8197588 -0.3249748
v -0.3991543 0.8197588 -0.3249748
v -0.6645869 0.2482352 -0.03888211
v -0.6645869 0.2482352 -0.03888211
v -0.6894909 0.06897855 0.07176453
v -0.6894909 0.06897855 0.07176453
v -0.6894909 0.06897855 0.07176453
v -0.6894909 0.06897855 0.07176453
v -0.6894909 0.06897855 0.07176453
v -0.6894909 0.06897855 0.07176453
v -0.6894909 0.06897855 0.07176453
v -0.8086315 -0.5674002 0.4535559
v -0.8086315 -0.5674002 0.4535559
v -0.7893604 -0.6818016 0.5367749
v -0.7893604 -0.6818016 0.5367749
v -0.7893604 -0.6818016 0.5367749
v 0.4624876 0.06897843 -0.4531196
v 0.4624876 0.06897843 -0.4531196
v 0.4624876 0.06897843 -0.4531196
v 0.4624876 0.06897843 -0.4531196
v 0.4624876 0.06897843 -0.4531196
v 0.6878098 0.7796055 -0.4115499
v 0.6878098 0.7796055 -0.4115499
v 0.6878098 0.7796055 -0.4115499
v 0.7005703 0.8197588 -0.4002407
v 0.7005703 0.8197588 -0.4002407
v 0.7005703 0.8197588 -0.4002407
v 0.7005703 0.8197588 -0.4002407
v 0.2243052 -0.6818017 -0.5368079
v 0.2243052 -0.6818017 -0.5368079
v 0.2243052 -0.6818017 -0.5368079
v 0.1883411 -0.795239 -0.5422142
v 0.1883411 -0.795239 -0.5422142
v 0.1883411 -0.795239 -0.5422142
v 0.1883411 -0.795239 -0.5422142
v 0.09226865 -1.098794 -0.5051513
v 0.09226865 -1.098794 -0.5051513
v 0.09226865 -1.098794 -0.5051513
v 0.09226865 -1.098794 -0.5051513
v 0.09226865 -1.098794 -0.5051513
v -0.03980619 -1.515787 -0.4853124
v -0.03980619 -1.515787 -0.4853124
v -0.03980619 -1.515787 -0.4853124
v 0.6840698 1.42467 -0.4050719
v 0.6840698 1.42467 -0.4050719
v 0.6840698 1.42467 -0.4050719
v 0.6013867 1.515787 -0.4306248
v 0.6013867 1.515787 -0.4306248
v 0.6013867 1.515787 -0.4306248
v 0.6013867 1.515787 -0.4306248
v 0.6013867 1.515787 -0.4306248
v 0.6013867 1.515787 -0.4306248
v 0.7746679 1.236751 -0.3049008
v 0.7746679 1.236751 -0.3049008
v 0.7746679 1.236751 -0.3049008
v 0.811659 1.169006 -0.2713608
v 0.811659 1.169006 -0.2713608
v 0.811659 1.169006 -0.2713608
v 0.811659 1.169006 -0.2713608
v 0.811659 1.169006 -0.2713608
v 0.7091479 0.8421546 0.05734763
v 0.7091479 0.8421546 0.05734763
v 0.7091479 0.8421546 0.05734763
v 0.7091479 0.8421546 0.05734763
v 0.7091479 0.8421546 0.05734763
v -0.804705 -0.8682747 0.453556
v -0.804705 -0.8682747 0.453556
v -0.7500213 -1.098794 0.281556
v -0.7500213 -1.098794 0.281556
v -0.7500213 -1.098794 0.281556
v -0.7500213 -1.098794 0.281556
v -0.7500213 -1.098794 0.281556
v -0.6883409 -1.515787 -0.006673992
v -0.6883409 -1.515787 -0.006673992
v -0.6883409 -1.515787 -0.006673992
v -0.6883409 -1.515787 -0.006673992
v -0.7862904 -0.6946481 0.5464447
v -0.7862904 -0.6946481 0.5464447
v -0.7862904 -0.6946481 0.5464447
v -0.7862904 -0.6946481 0.5464447
v -0.7862904 -0.6946481 0.5464447
v -0.7862904 -0.6946481 0.5464447
v -0.7862904 -0.6946481 0.5464447
v -0.03954875 -1.515787 -0.4057453
v -0.03954875 -1.515787 -0.4057453
v -0.03954875 -1.515787 -0.4057453
v -0.03954875 -1.515787 -0.4057453
v -0.03954875 -1.515787 -0.4057453
v -0.03954875 -1.515787 -0.4057453
v 0.5478534 0.3302598 0.3409925
v 0.5478534 0.3302598 0.3409925
v 0.5478534 0.3302598 0.3409925
v 0.5478534 0.3302598 0.3409925
v 0.5478534 0.3302598 0.3409925
v 0.5478534 0.3302598 0.3409925
v 0.5478534 0.3302598 0.3409925
v 0.5478534 0.3302598 0.3409925
v 0.5478534 0.3302598 0.3409925
vt 0.05757263 0.9427153
vt 0.05757263 0.9427153
vt 0.05757263 0.9427153
vt 0.05757263 0.9427153
vt 0.05757263 0.9427153
vt 0.08785981 0.5032824
vt 0.9985946 0.5046568
vt 0.1705309 0.5035688
vt 0.004970342 0.3840687
vt 0.1703477 0.3832362
vt 0.08754379 0.383424
vt 0.2532548 0.3831769
vt 0.05757263 0.9427153
vt 0.05757263 0.9427153
vt 0.05757263 0.9427153
vt 0.05757263 0.9427153
vt 0.05757263 0.9427153
vt 0.05757263 0.9427152
vt 0.05757263 0.9427153
vt 0.05757263 0.9427153
vt 0.1705229 0.5323696
vt 0.1888427 0.5035937
vt 0.2532788 0.4015389
vt 0.2670605 0.3831735
vt 0.9527894 0.5043998
vt 0.917012 0.6176455
vt 0.9142624 0.6240619
vt 0.05757263 0.9427153
vt 0.05757263 0.9427153
vt 0.05757263 0.9427152
vt 0.05757263 0.9427152
vt 0.05757263 0.9427153
vt -0.1049138 0.7897408
vt 0.05757263 0.9427153
vt 0.05757263 0.9427153
vt -0.1322852 0.6186379
vt 0.05757263 0.9427153
vt 0.05757263 0.9427153
vt 0.05757263 0.9427153
vt 0.05757263 0.9427153
vt 0.05788413 0.01971956
vt -0.09131631 0.4886163
vt 0.05757263 0.9427153
vt 0.05757263 0.9427153
vt 0.05757263 0.9427153
vt 0.05757263 0.9427153
vt 0.05757263 0.9427153
vt 0.05757263 0.9427153
vt 0.05757263 0.9427153
vt 0.05757263 0.9427153
vt 0.05757263 0.9427153
vt 0.05757263 0.9427153
vt 0.05757263 0.9427153
vt 0.05757263 0.9427153
vt 0.05757263 0.9427153
vt 0.004194468 0.6225551
vt 0.9996023 0.6234108
vt 0.004194468 0.6225551
vt 0.9170289 0.6240557
vt 0.9170289 0.6240557
vt 0.9170289 0.6240557
vt 0.9170289 0.6240557
vt 0.05757263 0.9427153
vt 0.05757263 0.9427153
vt 0.08743486 0.6238486
vt 0.08743486 0.6238486
vt 0.05757263 0.9427153
vt 0.05757263 0.9427153
vt 0.05757263 0.9427153
vt 0.08743486 0.6238486
vt 0.08785981 0.5032824
vt 0.08785981 0.5032824
vt 0.08785981 0.5032824
vt 0.08785981 0.5032824
vt 0.08785981 0.5032824
vt 0.00597775 0.5028228
vt 0.00597775 0.5028228
vt 0.00597775 0.5028228
vt 0.9985946 0.5046568
vt 0.9985946 0.5046568
vt 0.9985946 0.5046568
vt 0.1705309 0.5035688
vt 0.1705309 0.5035688
vt 0.1705309 0.5035688
vt 0.1705309 0.5035688
vt 0.1705309 0.5035688
vt 0.1705309 0.5035688
vt 0.05757263 0.9427153
vt 0.05757263 0.9427153
vt 0.05757263 0.9427153
vt 0.05757263 0.9427153
vt 1.000378 0.3849246
vt 0.1703477 0.3832362
vt 0.1703477 0.3832362
vt 0.05757263 0.9427153
vt 0.05757263 0.9427153
vt 0.05757263 0.9427153
vt 0.08754379 0.383424
vt 0.08754379 0.383424
vt 0.05757263 0.9427153
vt 0.05757263 0.9427153
vt 0.05757263 0.9427153
vt 0.2532548 0.3831769
vt 0.2532548 0.3831769
vt 0.2532548 0.3831769
vt 0.05757263 0.9427153
vt 0.05757263 0.9427153
vt 0.05757263 0.9427153
vt 0.05757263 0.9427153
vt 0.05757263 0.9427153
vt 0.05757263 0.9427153
vt 0.05757263 0.9427153
vt 0.05757263 0.9427153
vt 0.05757263 0.9427153
vt 0.05757263 0.9427153
vt 0.05757263 0.9427153
vt 0.05757263 0.9427153
vt 0.05757263 0.9427153
vt 0.05757263 0.9427153
vt 0.05757263 0.9427153
vt 0.05757263 0.9427153
vt 0.05757263 0.9427153
vt 0.05757263 0.9427153
vt 0.05757263 0.9427153
vt 0.05757263 0.9427153
vt 0.05757263 0.9427153
vt 0.05757263 0.9427153
vt 0.05757263 0.9427153
vt 1.85663E-11 0.7746654
vt 0.05757263 0.9427153
vt 0.05757263 0.9427153
vt 0.05609966 0.7188656
vt 0.05609966 0.7188656
vt 0.05609966 0.7188656
vt 0.05609966 0.7188656
vt 0.05757263 0.9427153
vt 0.1261877 0.6565344
vt 0.1072902 0.6239315
vt 0.1072902 0.6239315
vt 0.1492241 0.6129494
vt 0.1492241 0.6129494
vt 0.1492241 0.6129494
vt 0.1492241 0.6129494
vt 0.1492241 0.6129494
vt 0.1705229 0.5323696
vt 0.2166441 0.4677821
vt 0.1888427 0.5035936
vt 0.1888427 0.5035936
vt 0.2229698 0.4222507
vt 0.2229698 0.4222507
vt 0.2229698 0.4222507
vt 0.2229698 0.4222507
vt 0.2229698 0.4222507
vt 0.2532788 0.4015389
vt 0.2532316 0.2606102
vt 0.2483367 0.2315522
vt 0.05757263 0.9427153
vt 0.2483367 0.2315522
vt 0.9527894 0.5043998
vt -0.230296 0.4222507
vt 0.9527894 0.5043998
vt -0.230296 0.4222507
vt -0.230296 0.4222507
vt 0.917012 0.6176454
vt -0.2197372 0.6027504
vt -0.2197372 0.6027504
vt -0.2168647 0.6129494
vt -0.2168647 0.6129494
vt -0.2168647 0.6129494
vt 0.05757263 0.9427153
vt 0.9943693 0.3848909
vt 0.9943693 0.3848909
vt -0.2515528 0.2315522
vt 0.05757263 0.9427153
vt -0.252926 0.202739
vt -0.252926 0.202739
vt -0.252926 0.202739
vt 0.05757263 0.9427152
vt -0.243512 0.1256359
vt 0.05757263 0.9427153
vt -0.243512 0.1256359
vt -0.243512 0.1256359
vt 0.05757263 0.9427152
vt -0.238473 0.01971956
vt 0.05757263 0.9427153
vt 0.05757263 0.9427153
vt 0.05757263 0.9427152
vt -0.1259153 0.7665971
vt -0.1049138 0.7897408
vt -0.1049138 0.7897408
vt 0.05757264 0.9427153
vt 0.05757264 0.9427153
vt -0.1049138 0.7897408
vt -0.1049138 0.7897408
vt -0.1489273 0.7188656
vt 0.05757263 0.9427153
vt -0.1489273 0.7188656
vt -0.1583231 0.7016584
vt -0.1583231 0.7016584
vt -0.1841291 0.7016584
vt 0.05757263 0.9427153
vt 0.05757263 0.9427153
vt -0.1322852 0.6186379
vt -0.1322852 0.6186379
vt -0.1322852 0.6186379
vt -0.100637 0.6186379
vt -0.100637 0.6186379
vt 0.05757263 0.9427153
vt 0.2522342 0.1841879
vt 0.05757263 0.9427153
vt 0.05757263 0.9427153
vt 0.05757263 0.9427153
vt 0.2383445 0.1256359
vt 0.2383445 0.1256359
vt 0.05757263 0.9427153
vt 0.2226777 0.01971956
vt 0.2226777 0.01971956
vt 0.05757263 0.9427152
vt 0.2475569 0.2282892
vt 0.2475569 0.2282892
vt 0.2475569 0.2282892
vt 0.05757263 0.9427153
vt 0.2475569 0.2282892
vt 0.2475569 0.2282892
vt 0.2475569 0.2282892
vt -0.2182629 0.01971956
vt -0.2182629 0.01971956
vt 0.05788413 0.01971956
vt 0.05757263 0.9427153
vt 0.05757263 0.9427153
vt 0.05757263 0.9427153
vt -0.09131631 0.4886163
vt -0.09131631 0.4886163
vt -0.02859105 0.4886163
vt -0.02859105 0.4886163
vt -0.02859105 0.4886163
vt -0.09131631 0.4886163
vt -0.02859105 0.4886163
vt -0.02859105 0.4886163
vt -0.02859105 0.4886163
vn 0.4999893 -1.03239E-07 -0.8660316
vn 0 -1.192093E-07 -1
vn 0 0.007537969 -0.9999716
vn 0.4999883 0.007538022 -0.8659993
vn -0.4999883 0.007538022 -0.8659993
vn -0.4999893 -1.03239E-07 -0.8660316
vn 0 -1.192093E-07 -1
vn -0.8660316 -5.960337E-08 -0.4999893
vn 0 -0.007538207 -0.9999716
vn -0.8659994 -0.007538185 -0.4999883
vn -0.4999883 -0.007538229 -0.8659993
vn -0.9999716 -0.007538088 8.986101E-10
vn -0.4999893 -1.03239E-07 -0.8660316
vn -0.8660316 -5.960337E-08 -0.4999893
vn -0.8648482 0.0524011 -0.4992912
vn -0.4993142 0.05240026 -0.864835
vn -5.962379E-08 -0.02761639 -0.9996186
vn -0.2321742 -1.204201E-07 -0.9726743
vn -0.4999922 0.004436082 -0.8660185
vn -0.602341 0.007728718 -0.7982014
vn -0.8660284 0.001799757 -0.4999916
vn -0.917026 -4.774196E-08 -0.3988273
vn -0.9999796 -0.006389482 7.616857E-10
vn -0.9963677 -0.00768222 0.08480829
vn 0.2894172 -1.139074E-07 -0.957203
vn 0.4999892 0.007134881 -0.8660023
vn 0.5144476 0.007570849 -0.8574884
vn 0.03628934 -0.007606542 -0.9993123
vn 1.996274E-08 -0.0054876 -0.999985
vn -0.09970865 -1.192498E-07 -0.9950167
vn -0.2309302 0.05422167 -0.9714583
vn 0.4998448 -0.02362285 -0.8657928
vn -0.2857549 0.5317823 0.797215
vn 0.611604 -9.431411E-08 -0.791164
vn 0.652345 0.001264231 -0.7579212
vn -0.285755 0.5317822 0.797215
vn -0.9999818 -0.00416231 0.004361503
vn -0.9836135 -2.181273E-08 -0.1802902
vn -0.8841796 0.05292133 -0.4641399
vn -0.995442 -0.007458879 0.09507674
vn 0.4664903 -0.4552119 0.758399
vn -0.285755 0.5317823 0.797215
vn 0.4999893 -1.03239E-07 -0.8660316
vn 0.4999893 -1.03239E-07 -0.8660316
vn 0.4999893 -1.03239E-07 -0.8660316
vn 0.4999893 -1.03239E-07 -0.8660316
vn 0.4999893 -1.03239E-07 -0.8660316
vn 0 -1.192093E-07 -1
vn 0 -1.192093E-07 -1
vn 0 -1.192093E-07 -1
vn 0 -1.192093E-07 -1
vn 0 -1.192093E-07 -1
vn 0 -1.192093E-07 -1
vn 0 0.007537969 -0.9999716
vn 0 0.007537969 -0.9999716
vn 0 0.007537969 -0.9999716
vn 0 0.007537969 -0.9999716
vn 0 0.007537969 -0.9999716
vn 0.4999883 0.007538022 -0.8659993
vn 0.4999883 0.007538022 -0.8659993
vn 0.4999883 0.007538022 -0.8659993
vn 0.4999883 0.007538022 -0.8659993
vn 0.4999883 0.007538022 -0.8659993
vn 0.4999883 0.007538022 -0.8659993
vn -0.4999883 0.007538022 -0.8659993
vn -0.4999883 0.007538022 -0.8659993
vn -0.4999883 0.007538022 -0.8659993
vn -0.4999883 0.007538022 -0.8659993
vn -0.4999883 0.007538022 -0.8659993
vn -0.4999883 0.007538022 -0.8659993
vn -0.4999893 -1.03239E-07 -0.8660316
vn -0.4999893 -1.03239E-07 -0.8660316
vn -0.4999893 -1.03239E-07 -0.8660316
vn -0.4999893 -1.03239E-07 -0.8660316
vn -0.4999893 -1.03239E-07 -0.8660316
vn 0 -1.192093E-07 -1
vn 0 -1.192093E-07 -1
vn 0 -1.192093E-07 -1
vn 0 -1.192093E-07 -1
vn 0 -1.192093E-07 -1
vn 0 -1.192093E-07 -1
vn -0.8660316 -5.960337E-08 -0.4999893
vn -0.8660316 -5.960337E-08 -0.4999893
vn -0.8660316 -5.960337E-08 -0.4999893
vn -0.8660316 -5.960337E-08 -0.4999893
vn -0.8660316 -5.960337E-08 -0.4999893
vn -0.8660316 -5.960337E-08 -0.4999893
vn 0 -0.007538207 -0.9999716
vn 0 -0.007538207 -0.9999716
vn 0 -0.007538207 -0.9999716
vn 0 -0.007538207 -0.9999716
vn 0 -0.007538207 -0.9999716
vn -0.8659994 -0.007538185 -0.4999883
vn -0.8659994 -0.007538185 -0.4999883
vn -0.8659994 -0.007538185 -0.4999883
vn -0.8659994 -0.007538185 -0.4999883
vn -0.8659994 -0.007538185 -0.4999883
vn -0.4999883 -0.007538229 -0.8659993
vn -0.4999883 -0.007538229 -0.8659993
vn -0.4999883 -0.007538229 -0.8659993
vn -0.4999883 -0.007538229 -0.8659993
vn -0.4999883 -0.007538229 -0.8659993
vn -0.9999716 -0.007538088 8.986101E-10
vn -0.9999716 -0.007538088 8.986101E-10
vn -0.9999716 -0.007538088 8.986101E-10
vn -0.9999716 -0.007538088 8.986101E-10
vn -0.9999406 -0.007522001 0.007881942
vn -0.9999406 -0.007522001 0.007881942
vn -0.9999716 -0.007538088 8.986101E-10
vn -0.4999893 -1.03239E-07 -0.8660316
vn -0.4999893 -1.03239E-07 -0.8660316
vn -0.4999893 -1.03239E-07 -0.8660316
vn -0.4999893 -1.03239E-07 -0.8660316
vn -0.4999893 -1.03239E-07 -0.8660316
vn -0.4999893 -1.03239E-07 -0.8660316
vn -0.8660316 -5.960337E-08 -0.4999893
vn -0.8660316 -5.960337E-08 -0.4999893
vn -0.8660316 -5.960337E-08 -0.4999893
vn -0.8660316 -5.960337E-08 -0.4999893
vn -0.8660316 -5.960337E-08 -0.4999893
vn -0.8648482 0.0524011 -0.4992912
vn -0.8648482 0.0524011 -0.4992912
vn 0 -1 1.192093E-07
vn 0 -1 1.192093E-07
vn -0.4993142 0.05240026 -0.864835
vn 0 -1 1.192093E-07
vn 0 -1 1.192093E-07
vn 1.994165E-08 -0.02761639 -0.9996186
vn -0.2857547 0.5317819 0.7972153
vn -0.2321741 -1.159518E-07 -0.9726743
vn -0.2321741 -1.159518E-07 -0.9726743
vn -0.285754 0.5317816 0.7972158
vn -0.285755 0.5317822 0.797215
vn -0.2857549 0.5317823 0.797215
vn -0.2857547 0.5317819 0.7972153
vn -0.4999923 0.004436081 -0.8660185
vn -0.285754 0.5317816 0.7972158
vn -0.6023411 0.007728719 -0.7982014
vn -0.6023411 0.007728719 -0.7982014
vn -0.285754 0.5317816 0.7972158
vn -0.2857569 0.5317825 0.7972141
vn -0.285755 0.5317822 0.797215
vn -0.285755 0.5317823 0.797215
vn -0.2857551 0.5317823 0.797215
vn -0.8660284 0.001799756 -0.4999917
vn -0.2857569 0.5317825 0.7972141
vn -0.917026 -4.926908E-08 -0.3988274
vn -0.917026 -4.926908E-08 -0.3988274
vn -0.2857569 0.5317825 0.7972141
vn -0.2857551 0.5317822 0.797215
vn -0.2857551 0.5317823 0.797215
vn -0.285755 0.5317823 0.797215
vn -0.2857577 0.531782 0.7972142
vn -0.9999796 -0.006389482 9.761732E-08
vn -0.2857551 0.5317822 0.797215
vn -0.2857551 0.5317822 0.797215
vn -0.9963677 -0.007682221 0.08480823
vn -0.2857577 0.531782 0.7972142
vn 0.2894172 -1.139074E-07 -0.957203
vn 0.9532776 -0.3020801 -0.003084317
vn 0.2894173 -1.1434E-07 -0.957203
vn 0.9532776 -0.3020802 -0.003084311
vn 0.9532775 -0.3020802 -0.003081705
vn 0.499989 0.007134877 -0.8660024
vn 0.9532774 -0.3020807 -0.003084518
vn 0.9532776 -0.3020801 -0.003084317
vn 0.9532774 -0.3020807 -0.003084518
vn 0.9532775 -0.3020803 -0.003084432
vn 0.9532776 -0.3020801 -0.003084443
vn 0.5146772 0.007571356 -0.8573506
vn 0.03703132 -0.00760783 -0.9992852
vn 0.03703132 -0.00760783 -0.9992852
vn 0.9532775 -0.3020802 -0.003081705
vn -8.940556E-08 -0.005487598 -0.999985
vn 0.9532776 -0.3020801 -0.003084427
vn 0.9532776 -0.3020802 -0.003084311
vn 0.9532775 -0.3020802 -0.003081705
vn -0.09970865 -1.192498E-07 -0.9950167
vn 0.9532776 -0.3020801 -0.003084427
vn -0.09970862 -1.186152E-07 -0.9950167
vn 0.9532776 -0.3020801 -0.003084284
vn 0.9532776 -0.3020802 -0.003084119
vn -0.2309302 0.05422167 -0.9714583
vn 0.9532776 -0.3020802 -0.003084119
vn 0 -1 1.192093E-07
vn 0.4958059 -0.02365164 -0.8681113
vn 0.4998448 -0.02362286 -0.8657928
vn 0.4174593 0.5759329 0.7028721
vn 0.417462 0.5759336 0.7028698
vn 0.4174665 0.5759345 0.7028663
vn 0.420767 -0.03577107 -0.9064632
vn 0.420767 -0.03577107 -0.9064632
vn -0.2857547 0.5317819 0.7972153
vn 0.4174593 0.5759329 0.7028721
vn 0.4174665 0.5759345 0.7028663
vn 0.6097665 -9.448304E-08 -0.7925811
vn 0.4174593 0.5759329 0.7028721
vn 0.417462 0.5759336 0.7028698
vn 0.4174665 0.5759345 0.7028663
vn 0.9532776 -0.3020801 -0.003084443
vn 0.652345 0.001264231 -0.7579212
vn 0.652345 0.001264231 -0.7579212
vn -0.2857549 0.5317823 0.797215
vn 0.417462 0.5759336 0.7028698
vn -0.285755 0.5317823 0.797215
vn 0.9532775 -0.3020803 -0.003084432
vn 0.9532776 -0.3020801 -0.003084443
vn -0.9999914 -0.004167189 4.967677E-10
vn 0.4664901 -0.455212 0.758399
vn -0.9836135 -2.181273E-08 -0.1802902
vn -0.9836135 -2.181273E-08 -0.1802902
vn -0.9825391 4.508742E-07 -0.1860564
vn 0.4664938 -0.4552105 0.7583976
vn 0.4664901 -0.455212 0.758399
vn -0.8841796 0.05292133 -0.4641399
vn 0.4664903 -0.455212 0.7583989
vn 0.4664938 -0.4552105 0.7583976
vn 0 -1 1.192093E-07
vn -0.285755 0.5317823 0.797215
vn -0.2857577 0.531782 0.7972142
vn 0.4664903 -0.4552119 0.758399
vn -0.9953195 -0.007460468 0.09635094
vn 0.4664903 -0.455212 0.7583989
vn 0.4664938 -0.4552105 0.7583976
vn 0.4664901 -0.455212 0.758399
vn 0.9532776 -0.3020801 -0.003084284
vn 0.9532776 -0.3020802 -0.003084119
vn 0.4664903 -0.455212 0.7583989
vn 0 -1 1.192093E-07
vn 0 -1 1.192093E-07
vn 0 -1 1.192093E-07
vn -0.2857551 0.5317823 0.797215
vn -0.285755 0.5317823 0.797215
vn 0.9532774 -0.3020807 -0.003084518
vn 0.9532776 -0.3020801 -0.003084317
vn 0.9532776 -0.3020801 -0.003084427
vn 0.4664903 -0.4552119 0.758399
vn 0.9532776 -0.3020802 -0.003084311
vn 0.9532776 -0.3020801 -0.003084284
vn 0.9532775 -0.3020803 -0.003084432
g Cylinder_sh_1_0
f 2/2/2 1/1/1 3/3/3
f 43/43/43 4/4/4 54/54/54
f 48/48/48 55/55/55 5/5/5
f 65/65/65 56/56/56 6/6/6
f 57/57/57 59/59/59 7/7/7
f 58/58/58 76/76/76 71/71/71
f 66/66/66 72/72/72 8/8/8
f 82/82/82 73/73/73 10/10/10
f 74/74/74 77/77/77 11/11/11
f 83/83/83 93/93/93 12/12/12
f 75/75/75 98/98/98 94/94/94
f 78/78/78 9/9/9 99/99/99
f 100/100/100 88/88/88 13/13/13
f 95/95/95 101/101/101 14/14/14
f 102/102/102 110/110/110 116/116/116
f 117/117/117 111/111/111 15/15/15
f 112/112/112 16/16/16 121/121/121
f 18/18/18 17/17/17 49/49/49
f 130/130/130 50/50/50 67/67/67
f 19/19/19 131/131/131 68/68/68
f 20/20/20 136/136/136 69/69/69
f 138/138/138 70/70/70 84/84/84
f 21/21/21 139/139/139 85/85/85
f 22/22/22 145/145/145 86/86/86
f 147/147/147 87/87/87 103/103/103
f 23/23/23 148/148/148 104/104/104
f 24/24/24 154/154/154 105/105/105
f 25/25/25 60/60/60 26/26/26
f 79/79/79 61/61/61 159/159/159
f 62/62/62 27/27/27 164/164/164
f 89/89/89 28/28/28 29/29/29
f 30/30/30 90/90/90 174/174/174
f 113/113/113 91/91/91 178/178/178
f 32/32/32 44/44/44 51/51/51
f 35/35/35 45/45/45 34/34/34
f 96/96/96 118/118/118 38/38/38
f 119/119/119 122/122/122 39/39/39
f 40/40/40 157/157/157 106/106/106
f 191/191/191 186/186/186 52/52/52
f 53/53/53 128/128/128 192/192/192
f 80/80/80 161/161/161 171/171/171
f 172/172/172 92/92/92 81/81/81
f 114/114/114 180/180/180 31/31/31
f 183/183/183 125/125/125 115/115/115
f 63/63/63 46/46/46 201/201/201
f 202/202/202 170/170/170 64/64/64
f 47/47/47 187/187/187 196/196/196
f 107/107/107 97/97/97 210/210/210
f 211/211/211 37/37/37 108/108/108
f 120/120/120 215/215/215 212/212/212
f 109/109/109 208/208/208 222/222/222
f 229/229/229 218/218/218 123/123/123
f 230/230/230 124/124/124 126/126/126
f 127/127/127 185/185/185 231/231/231
g Cylinder_sh_1_1
f 132/132/132 137/137/137 140/140/140
f 141/141/141 146/146/146 149/149/149
f 150/150/150 155/155/155 156/156/156
f 133/133/133 142/142/142 36/36/36
f 134/134/134 203/203/203 33/33/33
f 189/189/189 204/204/204 198/198/198
f 190/190/190 199/199/199 195/195/195
f 205/205/205 143/143/143 42/42/42
f 232/232/232 144/144/144 151/151/151
f 219/219/219 233/233/233 152/152/152
f 153/153/153 158/158/158 220/220/220
f 165/165/165 167/167/167 234/234/234
f 160/160/160 166/166/166 235/235/235
f 236/236/236 179/179/179 175/175/175
f 41/41/41 237/237/237 221/221/221
f 135/135/135 193/193/193 129/129/129
f 162/162/162 238/238/238 176/176/176
f 177/177/177 173/173/173 163/163/163
f 181/181/181 239/239/239 226/226/226
f 227/227/227 184/184/184 182/182/182
f 206/206/206 240/240/240 168/168/168
f 169/169/169 200/200/200 207/207/207
f 194/194/194 197/197/197 188/188/188
f 216/216/216 228/228/228 223/223/223
f 213/213/213 217/217/217 224/224/224
f 225/225/225 209/209/209 214/214/214
