g machine2_sh_2
v -0.3215886 -0.2934283 0.1705869
v 0.3215886 -0.2934283 0.1705869
v -0.3215886 -0.2934283 0.07927245
v 0.3215886 -0.2934283 -0.1705869
v 0.3215886 0.2934283 0.1705869
v -0.3215886 0.07012886 0.1705869
v -0.3215886 0.04957026 0.1531989
v 0.3215886 -0.04721352 -0.1175202
v -0.3215886 -0.2934283 0.1705869
v -0.3215886 -0.2934283 0.1705869
v -0.3215886 -0.2934283 0.1705869
v 0.3215886 -0.2934283 0.1705869
v 0.3215886 -0.2934283 0.1705869
v 0.3215886 -0.2934283 0.1705869
v 0.3215886 -0.2934283 0.1705869
v 0.3215886 -0.2934283 0.1705869
v -0.3215886 -0.2934283 0.07927245
v -0.3215886 -0.2934283 0.07927245
v -0.3215886 -0.2934283 0.07927245
v -0.3215886 -0.2934283 0.07927245
v 0.3215886 -0.2934283 -0.1705869
v 0.3215886 -0.2934283 -0.1705869
v 0.3215886 0.2934283 0.1705869
v 0.3215886 0.2934283 0.1705869
v 0.3215886 0.2934283 0.1705869
v -0.3215886 0.07012886 0.1705869
v -0.3215886 0.07012886 0.1705869
v -0.3215886 0.07012886 0.1705869
v -0.3215886 0.04957026 0.1531989
v -0.3215886 0.04957026 0.1531989
v -0.3215886 0.04957026 0.1531989
v -0.3215886 0.04957026 0.1531989
v 0.3215886 -0.04721352 -0.1175202
v 0.3215886 -0.04721352 -0.1175202
v 0.3215886 -0.04721352 -0.1175202
v 0.3215886 -0.04721352 -0.1175202
vt 0.2729394 0.004882813
vt 0.702569 0.6650171
vt 0.2279065 0.004882813
vt 0.7028363 0.620321
vt 0.5643963 0.004882813
vt 0.2729387 0.184176
vt 0.264365 0.1740373
vt 0.09265917 0.05600125
vt 0.2729394 0.004882813
vt 0.6181419 0.6650171
vt 0.5643963 0.004882813
vt 0.702569 0.6650171
vt 0.3737708 0.004882813
vt 0.5643957 0.009394705
vt 0.3151624 0.3232183
vt 0.3151624 0.3232183
vt 0.6182131 0.6530547
vt 0.6182131 0.6530547
vt -0.07070816 -0.006537434
vt -0.07070816 -0.006537434
vt 0.09265917 -0.006537434
vt 0.4834135 0.3232183
vt 0.09265918 0.1425245
vt 0.09265918 0.1425245
vt 0.3151207 0.6126461
vt 0.5643957 0.009394705
vt 0.3737708 0.004882813
vt -0.07070816 0.08580627
vt 0.264365 0.1740373
vt -0.07070816 0.08058438
vt -0.07070816 0.08058438
vt -0.07070816 0.08058438
vt 0.09265917 0.05600125
vt 0.09265917 0.05600125
vt 0.4572287 0.4446473
vt 0.4572287 0.4446473
vn -1 0 0
vn 0 -1 0
vn -1 0 0
vn 0 -1 0
vn 0 0 1
vn -1 0 0
vn -1 0 0
vn -0.3550187 0.1969671 -0.913874
vn -1 0 0
vn 0 -1 0
vn 0 0 1
vn 0 -1 0
vn 0 0 1
vn 0 0 1
vn 1 1.184333E-07 0
vn 1 1.184333E-07 0
vn 0 -1 0
vn 0 -1 0
vn -0.3550187 0.1969671 -0.913874
vn -0.3550187 0.1969672 -0.913874
vn -0.3550187 0.1969672 -0.913874
vn 1 1.087514E-08 0
vn -0.2187703 0.6301316 -0.7450327
vn -0.2187703 0.6301317 -0.7450327
vn 1 1.184333E-07 0
vn 0 0 1
vn 0 0 1
vn -0.2187703 0.6301317 -0.7450327
vn -1 0 0
vn -0.3550187 0.1969671 -0.913874
vn -0.2187703 0.6301316 -0.7450327
vn -0.2187703 0.6301317 -0.7450327
vn -0.3550187 0.1969672 -0.913874
vn -0.2187703 0.6301316 -0.7450327
vn 1 2.76033E-08 0
vn 1 2.76033E-08 0
g machine2_sh_2_0
f 1/1/1 6/6/6 7/7/7
f 9/9/9 29/29/29 3/3/3
f 17/17/17 4/4/4 2/2/2
f 12/12/12 10/10/10 18/18/18
f 13/13/13 5/5/5 26/26/26
f 27/27/27 11/11/11 14/14/14
f 35/35/35 25/25/25 15/15/15
f 16/16/16 22/22/22 36/36/36
f 19/19/19 30/30/30 8/8/8
f 33/33/33 21/21/21 20/20/20
f 23/23/23 34/34/34 31/31/31
f 32/32/32 28/28/28 24/24/24
