g rock big.002
v -0.01131129 0.004351032 0.00247786
v -0.01000788 0.01032387 0.0008329811
v -0.01000707 0.008125085 0.005411603
v -0.00408937 0.001401941 0.02359553
v -0.0006042675 -0.005294684 0.00242971
v -0.009578922 -0.001256183 0.002078744
v 0.00572758 0.008877963 0.00272908
v 0.005683691 0.0188666 -0.001289079
v 0.008298497 0.0122448 -0.003593093
v 0.00572758 0.008877963 0.00272908
v 0.008298497 0.0122448 -0.003593093
v 0.009477809 -0.0006263756 -0.001769351
v -0.009578922 -0.001256183 0.002078744
v -0.009431021 -0.0004243475 -0.004015758
v -0.01131129 0.004351032 0.00247786
v 0.007635319 0.01714851 -0.01015248
v -0.0008036642 0.01960579 -0.01099896
v 0.0005525016 -0.009827816 -0.009944643
v 0.004218491 -0.001508904 0.02475504
v 0.009477809 -0.0006263756 -0.001769351
v 0.006891258 -0.003527605 0.001978908
v 0.0007559088 -0.00180456 0.02314296
v 0.004218491 -0.001508904 0.02475504
v -0.0006042675 -0.005294684 0.00242971
v -0.001441596 0.01245494 0.003382722
v 0.00264192 0.007924129 0.0231681
v -0.0006590126 0.01011307 0.02153566
v -0.0006042675 -0.005294684 0.00242971
v 0.006891258 -0.003527605 0.001978908
v 0.00501889 -0.007342155 0.001627878
v 0.00501889 -0.007342155 0.001627878
v 0.006512939 -0.007507175 -5.6957E-05
v 0.0003613373 -0.008578897 -0.0009644958
v -0.0008036642 0.01960579 -0.01099896
v 0.007635319 0.01714851 -0.01015248
v 0.0007667118 0.02112523 -0.002029445
v -0.009431021 -0.0004243475 -0.004015758
v -0.01008014 0.01525379 -0.00329353
v -0.01131129 0.004351032 0.00247786
v -0.01000707 0.008125085 0.005411603
v -0.004801949 0.008663852 0.02286094
v -0.01131129 0.004351032 0.00247786
v 0.007635319 0.01714851 -0.01015248
v 0.0005525016 -0.009827816 -0.009944643
v 0.01026204 -0.009888745 -0.009992371
v 0.004218491 -0.001508904 0.02475504
v 0.006891258 -0.003527605 0.001978908
v -0.0006042675 -0.005294684 0.00242971
v 0.0007559088 -0.00180456 0.02314296
v -0.0006042675 -0.005294684 0.00242971
v -0.00408937 0.001401941 0.02359553
v 0.00572758 0.008877963 0.00272908
v 0.00264192 0.007924129 0.0231681
v -0.001441596 0.01245494 0.003382722
v -0.0006042675 -0.005294684 0.00242971
v 0.00501889 -0.007342155 0.001627878
v -0.001007766 -0.008494189 0.003002163
v 0.00501889 -0.007342155 0.001627878
v 0.0003613373 -0.008578897 -0.0009644958
v -0.001007766 -0.008494189 0.003002163
v -0.01000788 0.01032387 0.0008329811
v -0.001441596 0.01245494 0.003382722
v -0.01000707 0.008125085 0.005411603
v 0.004423345 -0.009513668 -0.002427711
v 0.0005525016 -0.009827816 -0.009944643
v 0.0003613373 -0.008578897 -0.0009644958
v -0.008260242 -0.005620172 -0.001721784
v -0.008654879 -0.005639632 -0.009873871
v -0.009431021 -0.0004243475 -0.004015758
v 0.007635319 0.01714851 -0.01015248
v 0.008298497 0.0122448 -0.003593093
v 0.005683691 0.0188666 -0.001289079
v -0.004039666 -0.006488547 -0.003892425
v -0.008654879 -0.005639632 -0.009873871
v -0.008260242 -0.005620172 -0.001721784
v -0.004039666 -0.006488547 -0.003892425
v -0.008260242 -0.005620172 -0.001721784
v 0.0003613373 -0.008578897 -0.0009644958
v 0.01026204 -0.009888745 -0.009992371
v 0.009248871 -0.009519011 -0.002988405
v 0.009477809 -0.0006263756 -0.001769351
v 0.009248871 -0.009519011 -0.002988405
v 0.006512939 -0.007507175 -5.6957E-05
v 0.009477809 -0.0006263756 -0.001769351
v 0.007635319 0.01714851 -0.01015248
v 0.005683691 0.0188666 -0.001289079
v 0.0007667118 0.02112523 -0.002029445
v -0.01008014 0.01525379 -0.00329353
v -0.009262621 0.01862614 -0.01038279
v -0.009641838 0.01965439 -0.002458306
v 0.005683691 0.0188666 -0.001289079
v 0.00572758 0.008877963 0.00272908
v -0.001441596 0.01245494 0.003382722
v 0.0007667118 0.02112523 -0.002029445
v 0.006512939 -0.007507175 -5.6957E-05
v 0.00501889 -0.007342155 0.001627878
v 0.006891258 -0.003527605 0.001978908
v 0.009477809 -0.0006263756 -0.001769351
v -0.007733982 -0.006292691 0.003272674
v -0.001007766 -0.008494189 0.003002163
v 0.0003613373 -0.008578897 -0.0009644958
v -0.008260242 -0.005620172 -0.001721784
v -0.007733982 -0.006292691 0.003272674
v -0.009578922 -0.001256183 0.002078744
v -0.0006042675 -0.005294684 0.00242971
v -0.001007766 -0.008494189 0.003002163
v -0.00408937 0.001401941 0.02359553
v -0.009578922 -0.001256183 0.002078744
v -0.01131129 0.004351032 0.00247786
v -0.004801949 0.008663852 0.02286094
v -0.009578922 -0.001256183 0.002078744
v -0.007733982 -0.006292691 0.003272674
v -0.008260242 -0.005620172 -0.001721784
v -0.009431021 -0.0004243475 -0.004015758
v -0.008654879 -0.005639632 -0.009873871
v 0.0005525016 -0.009827816 -0.009944643
v -0.0008036642 0.01960579 -0.01099896
v -0.009262621 0.01862614 -0.01038279
v 0.009477809 -0.0006263756 -0.001769351
v 0.004218491 -0.001508904 0.02475504
v 0.00264192 0.007924129 0.0231681
v 0.00572758 0.008877963 0.00272908
v 0.0007559088 -0.00180456 0.02314296
v -0.0006590126 0.01011307 0.02153566
v 0.00264192 0.007924129 0.0231681
v 0.004218491 -0.001508904 0.02475504
v -0.00408937 0.001401941 0.02359553
v -0.004801949 0.008663852 0.02286094
v -0.0006590126 0.01011307 0.02153566
v 0.0007559088 -0.00180456 0.02314296
v -0.0006590126 0.01011307 0.02153566
v -0.004801949 0.008663852 0.02286094
v -0.01000707 0.008125085 0.005411603
v -0.001441596 0.01245494 0.003382722
v 0.0007667118 0.02112523 -0.002029445
v -0.009641838 0.01965439 -0.002458306
v -0.009262621 0.01862614 -0.01038279
v -0.0008036642 0.01960579 -0.01099896
v -0.001441596 0.01245494 0.003382722
v -0.01000788 0.01032387 0.0008329811
v -0.009641838 0.01965439 -0.002458306
v 0.0007667118 0.02112523 -0.002029445
v -0.008654879 -0.005639632 -0.009873871
v -0.004039666 -0.006488547 -0.003892425
v 0.0003613373 -0.008578897 -0.0009644958
v 0.0005525016 -0.009827816 -0.009944643
v 0.0005525016 -0.009827816 -0.009944643
v 0.004423345 -0.009513668 -0.002427711
v 0.009248871 -0.009519011 -0.002988405
v 0.01026204 -0.009888745 -0.009992371
v 0.004423345 -0.009513668 -0.002427711
v 0.0003613373 -0.008578897 -0.0009644958
v 0.006512939 -0.007507175 -5.6957E-05
v 0.009248871 -0.009519011 -0.002988405
v -0.009262621 0.01862614 -0.01038279
v -0.01008014 0.01525379 -0.00329353
v -0.009431021 -0.0004243475 -0.004015758
v -0.008654879 -0.005639632 -0.009873871
v 0.01026204 -0.009888745 -0.009992371
v 0.009477809 -0.0006263756 -0.001769351
v 0.008298497 0.0122448 -0.003593093
v 0.007635319 0.01714851 -0.01015248
v -0.01000788 0.01032387 0.0008329811
v -0.01131129 0.004351032 0.00247786
v -0.01008014 0.01525379 -0.00329353
v -0.009641838 0.01965439 -0.002458306
vt 0.6060021 0.1875
vt 0.5625 0.2527353
vt 0.625 0.2490303
vt 0.8125 0.625
vt 0.7615695 0.6875
vt 0.875 0.6579574
vt 0.625 0.5083259
vt 0.5604607 0.5
vt 0.5031153 0.5625
vt 0.625 0.5083259
vt 0.5031153 0.5625
vt 0.5160097 0.6252939
vt 0.625 0.09204257
vt 0.4857999 0.1230208
vt 0.6060021 0.1875
vt 0.3754449 0.5015389
vt 0.2528722 0.499361
vt 0.2644021 0.7509029
vt 0.6875 0.625
vt 0.5160097 0.6252939
vt 0.625 0.6875
vt 0.75 0.625
vt 0.6875 0.625
vt 0.7615695 0.6875
vt 0.7405404 0.5
vt 0.6875 0.5625
vt 0.75 0.5625
vt 0.7615695 0.6875
vt 0.625 0.6875
vt 0.625 0.7632738
vt 0.625 0.7632738
vt 0.5625 0.75
vt 0.5080066 0.8738843
vt 0.3752942 0.3778587
vt 0.3754449 0.5015389
vt 0.5330271 0.4134315
vt 0.4857999 0.1230208
vt 0.4845954 0.1875
vt 0.6060021 0.1875
vt 0.8759698 0.5
vt 0.8125 0.5625
vt 0.875 0.5625
vt 0.3754449 0.5015389
vt 0.2644021 0.7509029
vt 0.3750007 0.7485741
vt 0.6875 0.625
vt 0.625 0.6875
vt 0.7615695 0.6875
vt 0.75 0.625
vt 0.7615695 0.6875
vt 0.8125 0.625
vt 0.625 0.5083259
vt 0.6875 0.5625
vt 0.7405404 0.5
vt 0.7615695 0.6875
vt 0.6382738 0.75
vt 0.7690216 0.75
vt 0.625 0.7632738
vt 0.5080066 0.8738843
vt 0.625 0.8940216
vt 0.5625 0.2527353
vt 0.6229712 0.3841526
vt 0.625 0.2490303
vt 0.4871577 0.8125
vt 0.375 0.8603971
vt 0.5080066 0.8738843
vt 0.5193925 0
vt 0.375 0.004764543
vt 0.4857999 0.1230208
vt 0.3754449 0.5015389
vt 0.5031153 0.5625
vt 0.5604607 0.5
vt 0.4608916 0.9375
vt 0.375 1.00156
vt 0.5193925 1
vt 0.4608916 0.9375
vt 0.5193925 1
vt 0.5080066 0.8738843
vt 0.3750007 0.7485741
vt 0.4754861 0.7509145
vt 0.5160097 0.6252939
vt 0.4754861 0.7509145
vt 0.5625 0.75
vt 0.5160097 0.6252939
vt 0.3754449 0.5015389
vt 0.5604607 0.5
vt 0.5330271 0.4134315
vt 0.4845954 0.1875
vt 0.3750029 0.2507197
vt 0.4983519 0.2508361
vt 0.5604607 0.5
vt 0.625 0.5083259
vt 0.6229712 0.3841526
vt 0.5330271 0.4134315
vt 0.5625 0.75
vt 0.625 0.7632738
vt 0.625 0.6875
vt 0.5160097 0.6252939
vt 0.625 1
vt 0.625 0.8940216
vt 0.5080066 0.8738843
vt 0.5193925 1
vt 0.875 0.75
vt 0.875 0.6579574
vt 0.7615695 0.6875
vt 0.7690216 0.75
vt 0.8125 0.625
vt 0.875 0.6579574
vt 0.875 0.5625
vt 0.8125 0.5625
vt 0.625 0.09204257
vt 0.625 0
vt 0.5193925 0
vt 0.4857999 0.1230208
vt 0.1235064 0.7452353
vt 0.2644021 0.7509029
vt 0.2528722 0.499361
vt 0.1264184 0.5007052
vt 0.5160097 0.6252939
vt 0.6875 0.625
vt 0.6875 0.5625
vt 0.625 0.5083259
vt 0.75 0.625
vt 0.75 0.5625
vt 0.6875 0.5625
vt 0.6875 0.625
vt 0.8125 0.625
vt 0.8125 0.5625
vt 0.75 0.5625
vt 0.75 0.625
vt 0.75 0.5625
vt 0.8125 0.5625
vt 0.8759698 0.5
vt 0.7405404 0.5
vt 0.5330271 0.4134315
vt 0.4983519 0.2508361
vt 0.3750029 0.2507197
vt 0.3752942 0.3778587
vt 0.6229712 0.3841526
vt 0.5625 0.2527353
vt 0.4983519 0.2508361
vt 0.5330271 0.4134315
vt 0.375 1.00156
vt 0.4608916 0.9375
vt 0.5080066 0.8738843
vt 0.375 0.8603971
vt 0.375 0.8603971
vt 0.4871577 0.8125
vt 0.4754861 0.7509145
vt 0.3750007 0.7485741
vt 0.4871577 0.8125
vt 0.5080066 0.8738843
vt 0.5625 0.75
vt 0.4754861 0.7509145
vt 0.3750029 0.2507197
vt 0.4845954 0.1875
vt 0.4857999 0.1230208
vt 0.375 0.004764543
vt 0.3750007 0.7485741
vt 0.5160097 0.6252939
vt 0.5031153 0.5625
vt 0.3754449 0.5015389
vt 0.5625 0.2527353
vt 0.6060021 0.1875
vt 0.4845954 0.1875
vt 0.4983519 0.2508361
vn -0.9631851 0.2422771 0.1165177
vn -0.9631851 0.2422771 0.1165177
vn -0.9631851 0.2422771 0.1165177
vn -0.4078143 -0.8877025 0.2137094
vn -0.4078143 -0.8877025 0.2137094
vn -0.4078143 -0.8877025 0.2137094
vn 0.8715063 0.1863063 0.4536153
vn 0.8715063 0.1863063 0.4536153
vn 0.8715063 0.1863063 0.4536153
vn 0.887801 0.1433125 0.4373452
vn 0.887801 0.1433125 0.4373452
vn 0.887801 0.1433125 0.4373452
vn -0.9548047 -0.2905188 -0.06282378
vn -0.9548047 -0.2905188 -0.06282378
vn -0.9548047 -0.2905188 -0.06282378
vn 0.09067664 -0.03147673 -0.9953828
vn 0.09067664 -0.03147673 -0.9953828
vn 0.09067664 -0.03147673 -0.9953828
vn 0.8242782 -0.5472414 0.1452319
vn 0.8242782 -0.5472414 0.1452319
vn 0.8242782 -0.5472414 0.1452319
vn 0.007058711 -0.9861509 0.1657
vn 0.007058711 -0.9861509 0.1657
vn 0.007058711 -0.9861509 0.1657
vn 0.5202532 0.8495516 0.08717012
vn 0.5202532 0.8495516 0.08717012
vn 0.5202532 0.8495516 0.08717012
vn 0.09130199 -0.1356016 0.9865476
vn 0.09130199 -0.1356016 0.9865476
vn 0.09130199 -0.1356016 0.9865476
vn 0.1365988 -0.9668295 0.2158275
vn 0.1365988 -0.9668295 0.2158275
vn 0.1365988 -0.9668295 0.2158275
vn 0.2926745 0.9330257 -0.2092959
vn 0.2926745 0.9330257 -0.2092959
vn 0.2926745 0.9330257 -0.2092959
vn -0.9654867 -0.02804588 -0.2589379
vn -0.9654867 -0.02804588 -0.2589379
vn -0.9654867 -0.02804588 -0.2589379
vn -0.9532809 0.1110466 0.2809344
vn -0.9532809 0.1110466 0.2809344
vn -0.9532809 0.1110466 0.2809344
vn -0.004955605 -0.006403092 -0.9999672
vn -0.004955605 -0.006403092 -0.9999672
vn -0.004955605 -0.006403092 -0.9999672
vn 0.2344272 -0.9655336 0.1130874
vn 0.2344272 -0.9655336 0.1130874
vn 0.2344272 -0.9655336 0.1130874
vn -0.5320138 -0.8285503 0.1745441
vn -0.5320138 -0.8285503 0.1745441
vn -0.5320138 -0.8285503 0.1745441
vn 0.4517451 0.8853993 0.1095188
vn 0.4517451 0.8853993 0.1095188
vn 0.4517451 0.8853993 0.1095188
vn 0.1926339 0.1492324 0.9698566
vn 0.1926339 0.1492324 0.9698566
vn 0.1926339 0.1492324 0.9698566
vn 0.2072252 -0.9739273 0.09232244
vn 0.2072252 -0.9739273 0.09232244
vn 0.2072252 -0.9739273 0.09232244
vn -0.3329668 0.8499821 0.4082445
vn -0.3329668 0.8499821 0.4082445
vn -0.3329668 0.8499821 0.4082445
vn -0.1769458 -0.975345 0.1318798
vn -0.1769458 -0.975345 0.1318798
vn -0.1769458 -0.975345 0.1318798
vn -0.9787462 -0.199413 0.04785648
vn -0.9787462 -0.199413 0.04785648
vn -0.9787462 -0.199413 0.04785648
vn 0.9365035 0.3196124 0.1442539
vn 0.9365035 0.3196124 0.1442539
vn 0.9365035 0.3196124 0.1442539
vn -0.19568 -0.9805966 0.01181348
vn -0.19568 -0.9805966 0.01181348
vn -0.19568 -0.9805966 0.01181348
vn -0.3004712 -0.9298791 -0.2122306
vn -0.3004712 -0.9298791 -0.2122306
vn -0.3004712 -0.9298791 -0.2122306
vn 0.9883373 -0.04537171 0.1453643
vn 0.9883373 -0.04537171 0.1453643
vn 0.9883373 -0.04537171 0.1453643
vn 0.6850731 -0.1162212 0.7191436
vn 0.6850731 -0.1162212 0.7191436
vn 0.6850731 -0.1162212 0.7191436
vn 0.4260802 0.9010659 -0.0808455
vn 0.4260802 0.9010659 -0.0808455
vn 0.4260802 0.9010659 -0.0808455
vn -0.9919487 0.110531 -0.06181042
vn -0.9919487 0.110531 -0.06181042
vn -0.9919487 0.110531 -0.06181042
vn 0.1982365 0.4237037 0.8838425
vn 0.1982365 0.4237037 0.8838425
vn 0.1982365 0.4237037 0.8838425
vn 0.1982365 0.4237037 0.8838425
vn 0.8282103 -0.3156356 0.4630787
vn 0.8282103 -0.3156356 0.4630787
vn 0.8282103 -0.3156356 0.4630787
vn 0.8282103 -0.3156356 0.4630787
vn -0.3147388 -0.9447505 -0.09157482
vn -0.3147388 -0.9447505 -0.09157482
vn -0.3147388 -0.9447505 -0.09157482
vn -0.3147388 -0.9447505 -0.09157482
vn 0.08362544 0.2229381 0.9712391
vn 0.08362544 0.2229381 0.9712391
vn 0.08362544 0.2229381 0.9712391
vn 0.08362544 0.2229381 0.9712391
vn -0.9393644 -0.1707127 0.2974081
vn -0.9393644 -0.1707127 0.2974081
vn -0.9393644 -0.1707127 0.2974081
vn -0.9393644 -0.1707127 0.2974081
vn -0.9586447 -0.2845445 -0.005892662
vn -0.9586447 -0.2845445 -0.005892662
vn -0.9586447 -0.2845445 -0.005892662
vn -0.9586447 -0.2845445 -0.005892662
vn -0.04440155 -0.03069231 -0.9985422
vn -0.04440155 -0.03069231 -0.9985422
vn -0.04440155 -0.03069231 -0.9985422
vn -0.04440155 -0.03069231 -0.9985422
vn 0.9539354 0.2408197 0.1789223
vn 0.9539354 0.2408197 0.1789223
vn 0.9539354 0.2408197 0.1789223
vn 0.9539354 0.2408197 0.1789223
vn -0.413418 0.07780143 0.9072114
vn -0.413418 0.07780143 0.9072114
vn -0.413418 0.07780143 0.9072114
vn -0.413418 0.07780143 0.9072114
vn 0.2187391 0.1421393 0.9653754
vn 0.2187391 0.1421393 0.9653754
vn 0.2187391 0.1421393 0.9653754
vn 0.2187391 0.1421393 0.9653754
vn -0.3868569 0.9153833 0.111423
vn -0.3868569 0.9153833 0.111423
vn -0.3868569 0.9153833 0.111423
vn -0.3868569 0.9153833 0.111423
vn -0.1289039 0.9818698 -0.1389811
vn -0.1289039 0.9818698 -0.1389811
vn -0.1289039 0.9818698 -0.1389811
vn -0.1289039 0.9818698 -0.1389811
vn -0.2212329 0.4499699 0.8652071
vn -0.2212329 0.4499699 0.8652071
vn -0.2212329 0.4499699 0.8652071
vn -0.2212329 0.4499699 0.8652071
vn -0.4403986 -0.8845184 0.1538711
vn -0.4403986 -0.8845184 0.1538711
vn -0.4403986 -0.8845184 0.1538711
vn -0.4403986 -0.8845184 0.1538711
vn -0.002563995 -0.9988657 0.04754757
vn -0.002563995 -0.9988657 0.04754757
vn -0.002563995 -0.9988657 0.04754757
vn -0.002563995 -0.9988657 0.04754757
vn 0.05694112 -0.786261 0.6152651
vn 0.05694112 -0.786261 0.6152651
vn 0.05694112 -0.786261 0.6152651
vn 0.05694112 -0.786261 0.6152651
vn -0.9925637 -0.03060256 -0.1178165
vn -0.9925637 -0.03060256 -0.1178165
vn -0.9925637 -0.03060256 -0.1178165
vn -0.9925637 -0.03060256 -0.1178165
vn 0.9953843 0.09395698 -0.01955259
vn 0.9953843 0.09395698 -0.01955259
vn 0.9953843 0.09395698 -0.01955259
vn 0.9953843 0.09395698 -0.01955259
vn -0.9566405 0.1785814 0.2301032
vn -0.9566405 0.1785814 0.2301032
vn -0.9566405 0.1785814 0.2301032
vn -0.9566405 0.1785814 0.2301032
g rock big.002_0
f 3/3/3 2/2/2 1/1/1
f 6/6/6 5/5/5 4/4/4
f 9/9/9 8/8/8 7/7/7
f 12/12/12 11/11/11 10/10/10
f 15/15/15 14/14/14 13/13/13
f 18/18/18 17/17/17 16/16/16
f 21/21/21 20/20/20 19/19/19
f 24/24/24 23/23/23 22/22/22
f 27/27/27 26/26/26 25/25/25
f 30/30/30 29/29/29 28/28/28
f 33/33/33 32/32/32 31/31/31
f 36/36/36 35/35/35 34/34/34
f 39/39/39 38/38/38 37/37/37
f 42/42/42 41/41/41 40/40/40
f 45/45/45 44/44/44 43/43/43
f 48/48/48 47/47/47 46/46/46
f 51/51/51 50/50/50 49/49/49
f 54/54/54 53/53/53 52/52/52
f 57/57/57 56/56/56 55/55/55
f 60/60/60 59/59/59 58/58/58
f 63/63/63 62/62/62 61/61/61
f 66/66/66 65/65/65 64/64/64
f 69/69/69 68/68/68 67/67/67
f 72/72/72 71/71/71 70/70/70
f 75/75/75 74/74/74 73/73/73
f 78/78/78 77/77/77 76/76/76
f 81/81/81 80/80/80 79/79/79
f 84/84/84 83/83/83 82/82/82
f 87/87/87 86/86/86 85/85/85
f 90/90/90 89/89/89 88/88/88
f 93/93/93 92/92/92 91/91/91
f 94/94/94 93/93/93 91/91/91
f 97/97/97 96/96/96 95/95/95
f 98/98/98 97/97/97 95/95/95
f 101/101/101 100/100/100 99/99/99
f 102/102/102 101/101/101 99/99/99
f 105/105/105 104/104/104 103/103/103
f 106/106/106 105/105/105 103/103/103
f 109/109/109 108/108/108 107/107/107
f 110/110/110 109/109/109 107/107/107
f 113/113/113 112/112/112 111/111/111
f 114/114/114 113/113/113 111/111/111
f 117/117/117 116/116/116 115/115/115
f 118/118/118 117/117/117 115/115/115
f 121/121/121 120/120/120 119/119/119
f 122/122/122 121/121/121 119/119/119
f 125/125/125 124/124/124 123/123/123
f 126/126/126 125/125/125 123/123/123
f 129/129/129 128/128/128 127/127/127
f 130/130/130 129/129/129 127/127/127
f 133/133/133 132/132/132 131/131/131
f 134/134/134 133/133/133 131/131/131
f 137/137/137 136/136/136 135/135/135
f 138/138/138 137/137/137 135/135/135
f 141/141/141 140/140/140 139/139/139
f 142/142/142 141/141/141 139/139/139
f 145/145/145 144/144/144 143/143/143
f 146/146/146 145/145/145 143/143/143
f 149/149/149 148/148/148 147/147/147
f 150/150/150 149/149/149 147/147/147
f 153/153/153 152/152/152 151/151/151
f 154/154/154 153/153/153 151/151/151
f 157/157/157 156/156/156 155/155/155
f 158/158/158 157/157/157 155/155/155
f 161/161/161 160/160/160 159/159/159
f 162/162/162 161/161/161 159/159/159
f 165/165/165 164/164/164 163/163/163
f 166/166/166 165/165/165 163/163/163
