g samurai.003
v -0.00269062 -0.003914851 0.01346727
v -0.001200293 -0.004178033 0.0139398
v 0 -0.00436937 0.01382482
v 0 -0.00436937 0.01382482
v 0.001200293 -0.004178033 0.0139398
v 0.00269062 -0.003914851 0.01346727
v 0 -0.003872026 0.01377344
v -0.001101688 -0.003690454 0.01388943
v -0.002592015 -0.003427272 0.0134169
v 0.002592015 -0.003427272 0.0134169
v 0.001101688 -0.003690454 0.01388943
v 0 -0.003872026 0.01377344
v 0 -0.00436937 0.01382482
v 0 -0.004555563 0.01230513
v -0.00145666 -0.004262473 0.01249631
v -0.00269062 -0.003914851 0.01346727
v -0.00269062 -0.003914851 0.01346727
v -0.001927025 -0.003981475 0.01443257
v -0.001200293 -0.004178033 0.0139398
v -0.00306859 -0.003548316 0.01628134
v -0.002227399 -0.003715903 0.01642005
v -0.00278696 -0.003461579 0.01766689
v -0.002126431 -0.003674185 0.01701958
v -0.001758907 -0.003714638 0.01734577
v -0.002130934 -0.003648883 0.0175515
v -0.001615573 -0.003685974 0.01792186
v -0.002186703 -0.003543025 0.01804281
v 0.00145666 -0.004262473 0.01249631
v 0 -0.004555563 0.01230513
v 0 -0.00436937 0.01382482
v 0.00269062 -0.003914851 0.01346727
v 0.001200293 -0.004178033 0.0139398
v 0.001927025 -0.003981475 0.01443257
v 0.00269062 -0.003914851 0.01346727
v 0.00306859 -0.003548316 0.01628134
v 0.002227399 -0.003715903 0.01642005
v 0.00278696 -0.003461579 0.01766689
v 0.002126431 -0.003674185 0.01701958
v 0.001758907 -0.003714638 0.01734577
v 0.002130934 -0.003648883 0.0175515
v 0.001615573 -0.003685974 0.01792186
v 0.002186703 -0.003543025 0.01804281
v -0.001358055 -0.003774894 0.01244594
v 0 -0.004058218 0.01225375
v 0 -0.003872026 0.01377344
v -0.002592015 -0.003427272 0.0134169
v -0.001101688 -0.003690454 0.01388943
v -0.00182842 -0.003493896 0.01438219
v -0.002592015 -0.003427272 0.0134169
v -0.002969984 -0.003060737 0.01623097
v -0.002128794 -0.003228324 0.01636968
v -0.002688354 -0.002974001 0.01761652
v -0.002027826 -0.003186606 0.01696921
v -0.001660302 -0.003227059 0.0172954
v -0.002032329 -0.003161304 0.01750113
v -0.001516968 -0.003198395 0.01787149
v -0.002088097 -0.003055446 0.01799244
v 0 -0.003872026 0.01377344
v 0 -0.004058218 0.01225375
v 0.001358055 -0.003774894 0.01244594
v 0.002592015 -0.003427272 0.0134169
v 0.002592015 -0.003427272 0.0134169
v 0.00182842 -0.003493896 0.01438219
v 0.001101688 -0.003690454 0.01388943
v 0.002969984 -0.003060737 0.01623097
v 0.002128794 -0.003228324 0.01636968
v 0.002688354 -0.002974001 0.01761652
v 0.002027826 -0.003186606 0.01696921
v 0.001660302 -0.003227059 0.0172954
v 0.002032329 -0.003161304 0.01750113
v 0.001516968 -0.003198395 0.01787149
v 0.002088097 -0.003055446 0.01799244
v 0 -0.004555563 0.01230513
v 0 -0.004058218 0.01225375
v -0.001358055 -0.003774894 0.01244594
v -0.00145666 -0.004262473 0.01249631
v -0.00145666 -0.004262473 0.01249631
v -0.001358055 -0.003774894 0.01244594
v -0.002592015 -0.003427272 0.0134169
v -0.00269062 -0.003914851 0.01346727
v -0.00269062 -0.003914851 0.01346727
v -0.002592015 -0.003427272 0.0134169
v -0.002969984 -0.003060737 0.01623097
v -0.00306859 -0.003548316 0.01628134
v -0.00306859 -0.003548316 0.01628134
v -0.002969984 -0.003060737 0.01623097
v -0.002688354 -0.002974001 0.01761652
v -0.00278696 -0.003461579 0.01766689
v -0.00278696 -0.003461579 0.01766689
v -0.002688354 -0.002974001 0.01761652
v -0.002088097 -0.003055446 0.01799244
v -0.002186703 -0.003543025 0.01804281
v -0.002186703 -0.003543025 0.01804281
v -0.002088097 -0.003055446 0.01799244
v -0.001516968 -0.003198395 0.01787149
v -0.001615573 -0.003685974 0.01792186
v -0.001615573 -0.003685974 0.01792186
v -0.001516968 -0.003198395 0.01787149
v -0.002032329 -0.003161304 0.01750113
v -0.002130934 -0.003648883 0.0175515
v -0.002130934 -0.003648883 0.0175515
v -0.002032329 -0.003161304 0.01750113
v -0.001660302 -0.003227059 0.0172954
v -0.001758907 -0.003714638 0.01734577
v -0.001758907 -0.003714638 0.01734577
v -0.001660302 -0.003227059 0.0172954
v -0.002027826 -0.003186606 0.01696921
v -0.002126431 -0.003674185 0.01701958
v -0.002126431 -0.003674185 0.01701958
v -0.002027826 -0.003186606 0.01696921
v -0.002128794 -0.003228324 0.01636968
v -0.002227399 -0.003715903 0.01642005
v -0.002227399 -0.003715903 0.01642005
v -0.002128794 -0.003228324 0.01636968
v -0.00182842 -0.003493896 0.01438219
v -0.001927025 -0.003981475 0.01443257
v -0.001927025 -0.003981475 0.01443257
v -0.00182842 -0.003493896 0.01438219
v -0.001101688 -0.003690454 0.01388943
v -0.001200293 -0.004178033 0.0139398
v -0.001200293 -0.004178033 0.0139398
v -0.001101688 -0.003690454 0.01388943
v 0 -0.003872026 0.01377344
v 0 -0.00436937 0.01382482
v 0.00145666 -0.004262473 0.01249631
v 0.001358055 -0.003774894 0.01244594
v 0 -0.004058218 0.01225375
v 0 -0.004555563 0.01230513
v 0.00269062 -0.003914851 0.01346727
v 0.002592015 -0.003427272 0.0134169
v 0.001358055 -0.003774894 0.01244594
v 0.00145666 -0.004262473 0.01249631
v 0.00306859 -0.003548316 0.01628134
v 0.002969984 -0.003060737 0.01623097
v 0.002592015 -0.003427272 0.0134169
v 0.00269062 -0.003914851 0.01346727
v 0.00278696 -0.003461579 0.01766689
v 0.002688354 -0.002974001 0.01761652
v 0.002969984 -0.003060737 0.01623097
v 0.00306859 -0.003548316 0.01628134
v 0.002186703 -0.003543025 0.01804281
v 0.002088097 -0.003055446 0.01799244
v 0.002688354 -0.002974001 0.01761652
v 0.00278696 -0.003461579 0.01766689
v 0.001615573 -0.003685974 0.01792186
v 0.001516968 -0.003198395 0.01787149
v 0.002088097 -0.003055446 0.01799244
v 0.002186703 -0.003543025 0.01804281
v 0.002130934 -0.003648883 0.0175515
v 0.002032329 -0.003161304 0.01750113
v 0.001516968 -0.003198395 0.01787149
v 0.001615573 -0.003685974 0.01792186
v 0.001758907 -0.003714638 0.01734577
v 0.001660302 -0.003227059 0.0172954
v 0.002032329 -0.003161304 0.01750113
v 0.002130934 -0.003648883 0.0175515
v 0.002126431 -0.003674185 0.01701958
v 0.002027826 -0.003186606 0.01696921
v 0.001660302 -0.003227059 0.0172954
v 0.001758907 -0.003714638 0.01734577
v 0.002227399 -0.003715903 0.01642005
v 0.002128794 -0.003228324 0.01636968
v 0.002027826 -0.003186606 0.01696921
v 0.002126431 -0.003674185 0.01701958
v 0.001927025 -0.003981475 0.01443257
v 0.00182842 -0.003493896 0.01438219
v 0.002128794 -0.003228324 0.01636968
v 0.002227399 -0.003715903 0.01642005
v 0.001200293 -0.004178033 0.0139398
v 0.001101688 -0.003690454 0.01388943
v 0.00182842 -0.003493896 0.01438219
v 0.001927025 -0.003981475 0.01443257
v 0 -0.00436937 0.01382482
v 0 -0.003872026 0.01377344
v 0.001101688 -0.003690454 0.01388943
v 0.001200293 -0.004178033 0.0139398
vt 0.6020508 0.4460449
vt 0.6025391 0.4458008
vt 0.6030273 0.4458008
vt 0.6030273 0.4458008
vt 0.6025391 0.4458008
vt 0.6020508 0.4460449
vt 0.6030273 0.4458008
vt 0.6025391 0.4458008
vt 0.6020508 0.4460449
vt 0.6020508 0.4460449
vt 0.6025391 0.4458008
vt 0.6030273 0.4458008
vt 0.6030273 0.4458008
vt 0.6030273 0.4455566
vt 0.6025391 0.4455566
vt 0.6020508 0.4460449
vt 0.6020508 0.4460449
vt 0.6020508 0.4460449
vt 0.6025391 0.4458008
vt 0.6020508 0.4467773
vt 0.6020508 0.4467773
vt 0.6020508 0.4470215
vt 0.6020508 0.4470215
vt 0.6020508 0.4470215
vt 0.6020508 0.4470215
vt 0.6025391 0.4472656
vt 0.6020508 0.4472656
vt 0.6025391 0.4455566
vt 0.6030273 0.4455566
vt 0.6030273 0.4458008
vt 0.6020508 0.4460449
vt 0.6025391 0.4458008
vt 0.6020508 0.4460449
vt 0.6020508 0.4460449
vt 0.6020508 0.4467773
vt 0.6020508 0.4467773
vt 0.6020508 0.4470215
vt 0.6020508 0.4470215
vt 0.6020508 0.4470215
vt 0.6020508 0.4470215
vt 0.6025391 0.4472656
vt 0.6020508 0.4472656
vt 0.6025391 0.4455566
vt 0.6030273 0.4455566
vt 0.6030273 0.4458008
vt 0.6020508 0.4460449
vt 0.6025391 0.4458008
vt 0.6020508 0.4460449
vt 0.6020508 0.4460449
vt 0.6020508 0.4467773
vt 0.6020508 0.4467773
vt 0.6020508 0.4470215
vt 0.6020508 0.4470215
vt 0.6020508 0.4470215
vt 0.6020508 0.4470215
vt 0.6025391 0.4472656
vt 0.6020508 0.4472656
vt 0.6030273 0.4458008
vt 0.6030273 0.4455566
vt 0.6025391 0.4455566
vt 0.6020508 0.4460449
vt 0.6020508 0.4460449
vt 0.6020508 0.4460449
vt 0.6025391 0.4458008
vt 0.6020508 0.4467773
vt 0.6020508 0.4467773
vt 0.6020508 0.4470215
vt 0.6020508 0.4470215
vt 0.6020508 0.4470215
vt 0.6020508 0.4470215
vt 0.6025391 0.4472656
vt 0.6020508 0.4472656
vt 0.6030273 0.4455566
vt 0.6030273 0.4455566
vt 0.6025391 0.4455566
vt 0.6025391 0.4455566
vt 0.6025391 0.4455566
vt 0.6025391 0.4455566
vt 0.6020508 0.4460449
vt 0.6020508 0.4460449
vt 0.6020508 0.4460449
vt 0.6020508 0.4460449
vt 0.6020508 0.4467773
vt 0.6020508 0.4467773
vt 0.6020508 0.4467773
vt 0.6020508 0.4467773
vt 0.6020508 0.4470215
vt 0.6020508 0.4470215
vt 0.6020508 0.4470215
vt 0.6020508 0.4470215
vt 0.6020508 0.4472656
vt 0.6020508 0.4472656
vt 0.6020508 0.4472656
vt 0.6020508 0.4472656
vt 0.6025391 0.4472656
vt 0.6025391 0.4472656
vt 0.6025391 0.4472656
vt 0.6025391 0.4472656
vt 0.6020508 0.4470215
vt 0.6020508 0.4470215
vt 0.6020508 0.4470215
vt 0.6020508 0.4470215
vt 0.6020508 0.4470215
vt 0.6020508 0.4470215
vt 0.6020508 0.4470215
vt 0.6020508 0.4470215
vt 0.6020508 0.4470215
vt 0.6020508 0.4470215
vt 0.6020508 0.4470215
vt 0.6020508 0.4470215
vt 0.6020508 0.4467773
vt 0.6020508 0.4467773
vt 0.6020508 0.4467773
vt 0.6020508 0.4467773
vt 0.6020508 0.4460449
vt 0.6020508 0.4460449
vt 0.6020508 0.4460449
vt 0.6020508 0.4460449
vt 0.6025391 0.4458008
vt 0.6025391 0.4458008
vt 0.6025391 0.4458008
vt 0.6025391 0.4458008
vt 0.6030273 0.4458008
vt 0.6030273 0.4458008
vt 0.6025391 0.4455566
vt 0.6025391 0.4455566
vt 0.6030273 0.4455566
vt 0.6030273 0.4455566
vt 0.6020508 0.4460449
vt 0.6020508 0.4460449
vt 0.6025391 0.4455566
vt 0.6025391 0.4455566
vt 0.6020508 0.4467773
vt 0.6020508 0.4467773
vt 0.6020508 0.4460449
vt 0.6020508 0.4460449
vt 0.6020508 0.4470215
vt 0.6020508 0.4470215
vt 0.6020508 0.4467773
vt 0.6020508 0.4467773
vt 0.6020508 0.4472656
vt 0.6020508 0.4472656
vt 0.6020508 0.4470215
vt 0.6020508 0.4470215
vt 0.6025391 0.4472656
vt 0.6025391 0.4472656
vt 0.6020508 0.4472656
vt 0.6020508 0.4472656
vt 0.6020508 0.4470215
vt 0.6020508 0.4470215
vt 0.6025391 0.4472656
vt 0.6025391 0.4472656
vt 0.6020508 0.4470215
vt 0.6020508 0.4470215
vt 0.6020508 0.4470215
vt 0.6020508 0.4470215
vt 0.6020508 0.4470215
vt 0.6020508 0.4470215
vt 0.6020508 0.4470215
vt 0.6020508 0.4470215
vt 0.6020508 0.4467773
vt 0.6020508 0.4467773
vt 0.6020508 0.4470215
vt 0.6020508 0.4470215
vt 0.6020508 0.4460449
vt 0.6020508 0.4460449
vt 0.6020508 0.4467773
vt 0.6020508 0.4467773
vt 0.6025391 0.4458008
vt 0.6025391 0.4458008
vt 0.6020508 0.4460449
vt 0.6020508 0.4460449
vt 0.6030273 0.4458008
vt 0.6030273 0.4458008
vt 0.6025391 0.4458008
vt 0.6025391 0.4458008
vn -0.1972656 -0.9750977 0.100769
vn -0.1972656 -0.9750977 0.100769
vn -0.1972656 -0.9750977 0.100769
vn 0.1972656 -0.9750977 0.100769
vn 0.1972656 -0.9750977 0.100769
vn 0.1972656 -0.9750977 0.100769
vn 0.1992188 0.9746094 -0.100769
vn 0.1992188 0.9746094 -0.100769
vn 0.1992188 0.9746094 -0.100769
vn -0.1992188 0.9746094 -0.100769
vn -0.1992188 0.9746094 -0.100769
vn -0.1992188 0.9746094 -0.100769
vn -0.1972656 -0.9750977 0.100769
vn -0.1972656 -0.9750977 0.100769
vn -0.1972656 -0.9750977 0.100769
vn -0.1972656 -0.9750977 0.100769
vn -0.1972656 -0.9750977 0.100769
vn -0.1972656 -0.9750977 0.100769
vn -0.1972656 -0.9750977 0.100769
vn -0.1972656 -0.9750977 0.100769
vn -0.1972656 -0.9750977 0.100769
vn -0.1972656 -0.9750977 0.100769
vn -0.1972656 -0.9750977 0.100769
vn -0.1972656 -0.9750977 0.100769
vn -0.1972656 -0.9750977 0.100769
vn -0.1972656 -0.9750977 0.100769
vn -0.1972656 -0.9750977 0.100769
vn 0.1972656 -0.9750977 0.100769
vn 0.1972656 -0.9750977 0.100769
vn 0.1972656 -0.9750977 0.100769
vn 0.1972656 -0.9750977 0.100769
vn 0.1972656 -0.9750977 0.100769
vn 0.1972656 -0.9750977 0.100769
vn 0.1972656 -0.9750977 0.100769
vn 0.1972656 -0.9750977 0.100769
vn 0.1972656 -0.9750977 0.100769
vn 0.1972656 -0.9750977 0.100769
vn 0.1972656 -0.9750977 0.100769
vn 0.1972656 -0.9750977 0.100769
vn 0.1972656 -0.9750977 0.100769
vn 0.1972656 -0.9750977 0.100769
vn 0.1972656 -0.9750977 0.100769
vn 0.1992188 0.9746094 -0.100769
vn 0.1992188 0.9746094 -0.100769
vn 0.1992188 0.9746094 -0.100769
vn 0.1992188 0.9746094 -0.100769
vn 0.1992188 0.9746094 -0.100769
vn 0.1992188 0.9746094 -0.100769
vn 0.1992188 0.9746094 -0.100769
vn 0.1992188 0.9746094 -0.100769
vn 0.1992188 0.9746094 -0.100769
vn 0.1992188 0.9746094 -0.100769
vn 0.1992188 0.9746094 -0.100769
vn 0.1992188 0.9746094 -0.100769
vn 0.1992188 0.9746094 -0.100769
vn 0.1992188 0.9746094 -0.100769
vn 0.1992188 0.9746094 -0.100769
vn -0.1992188 0.9746094 -0.100769
vn -0.1992188 0.9746094 -0.100769
vn -0.1992188 0.9746094 -0.100769
vn -0.1992188 0.9746094 -0.100769
vn -0.1992188 0.9746094 -0.100769
vn -0.1992188 0.9746094 -0.100769
vn -0.1992188 0.9746094 -0.100769
vn -0.1992188 0.9746094 -0.100769
vn -0.1992188 0.9746094 -0.100769
vn -0.1992188 0.9746094 -0.100769
vn -0.1992188 0.9746094 -0.100769
vn -0.1992188 0.9746094 -0.100769
vn -0.1992188 0.9746094 -0.100769
vn -0.1992188 0.9746094 -0.100769
vn -0.1992188 0.9746094 -0.100769
vn -0.1518555 -0.08648682 -0.984375
vn -0.1518555 -0.08648682 -0.984375
vn -0.1518555 -0.08648682 -0.984375
vn -0.1518555 -0.08648682 -0.984375
vn -0.6103516 0.04177856 -0.7910156
vn -0.6103516 0.04177856 -0.7910156
vn -0.6103516 0.04177856 -0.7910156
vn -0.6103516 0.04177856 -0.7910156
vn -0.9716797 0.180542 -0.1540527
vn -0.9716797 0.180542 -0.1540527
vn -0.9716797 0.180542 -0.1540527
vn -0.9716797 0.180542 -0.1540527
vn -0.9599609 0.2128906 0.1817627
vn -0.9599609 0.2128906 0.1817627
vn -0.9599609 0.2128906 0.1817627
vn -0.9599609 0.2128906 0.1817627
vn -0.5029297 0.1888428 0.84375
vn -0.5029297 0.1888428 0.84375
vn -0.5029297 0.1888428 0.84375
vn -0.5029297 0.1888428 0.84375
vn 0.2202148 0.05606079 0.9736328
vn 0.2202148 0.05606079 0.9736328
vn 0.2202148 0.05606079 0.9736328
vn 0.2202148 0.05606079 0.9736328
vn 0.5629883 -0.1967773 -0.8027344
vn 0.5629883 -0.1967773 -0.8027344
vn 0.5629883 -0.1967773 -0.8027344
vn 0.5629883 -0.1967773 -0.8027344
vn 0.4829102 -0.007205963 0.8754883
vn 0.4829102 -0.007205963 0.8754883
vn 0.4829102 -0.007205963 0.8754883
vn 0.4829102 -0.007205963 0.8754883
vn 0.6367188 -0.2055664 -0.7431641
vn 0.6367188 -0.2055664 -0.7431641
vn 0.6367188 -0.2055664 -0.7431641
vn 0.6367188 -0.2055664 -0.7431641
vn 0.9663086 -0.2106934 -0.1480713
vn 0.9663086 -0.2106934 -0.1480713
vn 0.9663086 -0.2106934 -0.1480713
vn 0.9663086 -0.2106934 -0.1480713
vn 0.9692383 -0.1783447 0.1702881
vn 0.9692383 -0.1783447 0.1702881
vn 0.9692383 -0.1783447 0.1702881
vn 0.9692383 -0.1783447 0.1702881
vn 0.5561523 -0.02664185 0.8305664
vn 0.5561523 -0.02664185 0.8305664
vn 0.5561523 -0.02664185 0.8305664
vn 0.5561523 -0.02664185 0.8305664
vn 0.1139526 0.09082031 0.9892578
vn 0.1139526 0.09082031 0.9892578
vn 0.1139526 0.09082031 0.9892578
vn 0.1139526 0.09082031 0.9892578
vn 0.1518555 -0.08648682 -0.984375
vn 0.1518555 -0.08648682 -0.984375
vn 0.1518555 -0.08648682 -0.984375
vn 0.1518555 -0.08648682 -0.984375
vn 0.6103516 0.04177856 -0.7910156
vn 0.6103516 0.04177856 -0.7910156
vn 0.6103516 0.04177856 -0.7910156
vn 0.6103516 0.04177856 -0.7910156
vn 0.9716797 0.180542 -0.1540527
vn 0.9716797 0.180542 -0.1540527
vn 0.9716797 0.180542 -0.1540527
vn 0.9716797 0.180542 -0.1540527
vn 0.9599609 0.2128906 0.1817627
vn 0.9599609 0.2128906 0.1817627
vn 0.9599609 0.2128906 0.1817627
vn 0.9599609 0.2128906 0.1817627
vn 0.5029297 0.1888428 0.84375
vn 0.5029297 0.1888428 0.84375
vn 0.5029297 0.1888428 0.84375
vn 0.5029297 0.1888428 0.84375
vn -0.2202148 0.05606079 0.9736328
vn -0.2202148 0.05606079 0.9736328
vn -0.2202148 0.05606079 0.9736328
vn -0.2202148 0.05606079 0.9736328
vn -0.5629883 -0.1967773 -0.8027344
vn -0.5629883 -0.1967773 -0.8027344
vn -0.5629883 -0.1967773 -0.8027344
vn -0.5629883 -0.1967773 -0.8027344
vn -0.4829102 -0.007205963 0.8754883
vn -0.4829102 -0.007205963 0.8754883
vn -0.4829102 -0.007205963 0.8754883
vn -0.4829102 -0.007205963 0.8754883
vn -0.6367188 -0.2055664 -0.7431641
vn -0.6367188 -0.2055664 -0.7431641
vn -0.6367188 -0.2055664 -0.7431641
vn -0.6367188 -0.2055664 -0.7431641
vn -0.9663086 -0.2106934 -0.1480713
vn -0.9663086 -0.2106934 -0.1480713
vn -0.9663086 -0.2106934 -0.1480713
vn -0.9663086 -0.2106934 -0.1480713
vn -0.9692383 -0.1783447 0.1702881
vn -0.9692383 -0.1783447 0.1702881
vn -0.9692383 -0.1783447 0.1702881
vn -0.9692383 -0.1783447 0.1702881
vn -0.5561523 -0.02664185 0.8305664
vn -0.5561523 -0.02664185 0.8305664
vn -0.5561523 -0.02664185 0.8305664
vn -0.5561523 -0.02664185 0.8305664
vn -0.1139526 0.09082031 0.9892578
vn -0.1139526 0.09082031 0.9892578
vn -0.1139526 0.09082031 0.9892578
vn -0.1139526 0.09082031 0.9892578
g samurai.003_0
f 3/3/3 2/2/2 1/1/1
f 6/6/6 5/5/5 4/4/4
f 9/9/9 8/8/8 7/7/7
f 12/12/12 11/11/11 10/10/10
f 15/15/15 14/14/14 13/13/13
f 13/13/13 16/16/16 15/15/15
f 19/19/19 18/18/18 17/17/17
f 18/18/18 20/20/20 17/17/17
f 18/18/18 21/21/21 20/20/20
f 21/21/21 22/22/22 20/20/20
f 21/21/21 23/23/23 22/22/22
f 23/23/23 24/24/24 22/22/22
f 24/24/24 25/25/25 22/22/22
f 25/25/25 26/26/26 22/22/22
f 26/26/26 27/27/27 22/22/22
f 30/30/30 29/29/29 28/28/28
f 28/28/28 31/31/31 30/30/30
f 34/34/34 33/33/33 32/32/32
f 34/34/34 35/35/35 33/33/33
f 35/35/35 36/36/36 33/33/33
f 35/35/35 37/37/37 36/36/36
f 37/37/37 38/38/38 36/36/36
f 37/37/37 39/39/39 38/38/38
f 37/37/37 40/40/40 39/39/39
f 37/37/37 41/41/41 40/40/40
f 37/37/37 42/42/42 41/41/41
f 45/45/45 44/44/44 43/43/43
f 43/43/43 46/46/46 45/45/45
f 49/49/49 48/48/48 47/47/47
f 49/49/49 50/50/50 48/48/48
f 50/50/50 51/51/51 48/48/48
f 50/50/50 52/52/52 51/51/51
f 52/52/52 53/53/53 51/51/51
f 52/52/52 54/54/54 53/53/53
f 52/52/52 55/55/55 54/54/54
f 52/52/52 56/56/56 55/55/55
f 52/52/52 57/57/57 56/56/56
f 60/60/60 59/59/59 58/58/58
f 58/58/58 61/61/61 60/60/60
f 64/64/64 63/63/63 62/62/62
f 63/63/63 65/65/65 62/62/62
f 63/63/63 66/66/66 65/65/65
f 66/66/66 67/67/67 65/65/65
f 66/66/66 68/68/68 67/67/67
f 68/68/68 69/69/69 67/67/67
f 69/69/69 70/70/70 67/67/67
f 70/70/70 71/71/71 67/67/67
f 71/71/71 72/72/72 67/67/67
f 75/75/75 74/74/74 73/73/73
f 76/76/76 75/75/75 73/73/73
f 79/79/79 78/78/78 77/77/77
f 80/80/80 79/79/79 77/77/77
f 83/83/83 82/82/82 81/81/81
f 84/84/84 83/83/83 81/81/81
f 87/87/87 86/86/86 85/85/85
f 88/88/88 87/87/87 85/85/85
f 91/91/91 90/90/90 89/89/89
f 92/92/92 91/91/91 89/89/89
f 95/95/95 94/94/94 93/93/93
f 96/96/96 95/95/95 93/93/93
f 99/99/99 98/98/98 97/97/97
f 100/100/100 99/99/99 97/97/97
f 103/103/103 102/102/102 101/101/101
f 104/104/104 103/103/103 101/101/101
f 107/107/107 106/106/106 105/105/105
f 108/108/108 107/107/107 105/105/105
f 111/111/111 110/110/110 109/109/109
f 112/112/112 111/111/111 109/109/109
f 115/115/115 114/114/114 113/113/113
f 116/116/116 115/115/115 113/113/113
f 119/119/119 118/118/118 117/117/117
f 120/120/120 119/119/119 117/117/117
f 123/123/123 122/122/122 121/121/121
f 124/124/124 123/123/123 121/121/121
f 127/127/127 126/126/126 125/125/125
f 128/128/128 127/127/127 125/125/125
f 131/131/131 130/130/130 129/129/129
f 132/132/132 131/131/131 129/129/129
f 135/135/135 134/134/134 133/133/133
f 136/136/136 135/135/135 133/133/133
f 139/139/139 138/138/138 137/137/137
f 140/140/140 139/139/139 137/137/137
f 143/143/143 142/142/142 141/141/141
f 144/144/144 143/143/143 141/141/141
f 147/147/147 146/146/146 145/145/145
f 148/148/148 147/147/147 145/145/145
f 151/151/151 150/150/150 149/149/149
f 152/152/152 151/151/151 149/149/149
f 155/155/155 154/154/154 153/153/153
f 156/156/156 155/155/155 153/153/153
f 159/159/159 158/158/158 157/157/157
f 160/160/160 159/159/159 157/157/157
f 163/163/163 162/162/162 161/161/161
f 164/164/164 163/163/163 161/161/161
f 167/167/167 166/166/166 165/165/165
f 168/168/168 167/167/167 165/165/165
f 171/171/171 170/170/170 169/169/169
f 172/172/172 171/171/171 169/169/169
f 175/175/175 174/174/174 173/173/173
f 176/176/176 175/175/175 173/173/173
