g screw.001
v -0.001471105 0.0006495601 -2.22847E-10
v -0.001471105 0.0004593084 -0.0004593088
v 0.0001551419 0.0004593084 -0.0004593088
v 0.0001551419 0.0006495601 -2.22847E-10
v -0.001471105 0.0004593084 -0.0004593088
v -0.001471105 -2.12537E-11 -0.0006495597
v 0.0001551419 -7.713306E-11 -0.0006495597
v 0.0001551419 0.0004593084 -0.0004593088
v -0.001471105 -2.12537E-11 -0.0006495597
v -0.001471105 -0.0004593084 -0.0004593088
v 0.0001551419 -0.0004593084 -0.0004593088
v 0.0001551419 -7.713306E-11 -0.0006495597
v -0.001471105 -0.0004593084 -0.0004593088
v -0.001471105 -0.0006495601 -2.22847E-10
v 0.0001551419 -0.0006495601 -2.22847E-10
v 0.0001551419 -0.0004593084 -0.0004593088
v -0.001471105 -0.0006495601 -2.22847E-10
v -0.001471105 -0.0004593083 0.0004593084
v 0.0001551419 -0.0004593084 0.0004593096
v 0.0001551419 -0.0006495601 -2.22847E-10
v -0.001471105 -0.0004593083 0.0004593084
v -0.001471105 1.59992E-11 0.0006495605
v 0.0001551419 -3.988015E-11 0.0006495605
v 0.0001551419 -0.0004593084 0.0004593096
v -0.001471105 1.59992E-11 0.0006495605
v -0.001471105 0.0004593084 0.0004593084
v 0.0001551419 0.0004593083 0.0004593096
v 0.0001551419 -3.988015E-11 0.0006495605
v -0.001471105 0.0004593084 0.0004593084
v -0.001471105 0.0006495601 -2.22847E-10
v 0.0001551419 0.0006495601 -2.22847E-10
v 0.0001551419 0.0004593083 0.0004593096
v -0.001471105 -0.0004593083 0.0004593084
v -0.001471105 -0.0006495601 -2.22847E-10
v -0.001471105 -0.0004593084 -0.0004593088
v -0.001471105 -2.12537E-11 -0.0006495597
v -0.001471105 1.59992E-11 0.0006495605
v -0.001471105 0.0004593084 -0.0004593088
v -0.001471105 0.0004593084 0.0004593084
v -0.001471105 0.0006495601 -2.22847E-10
v 0.000926488 -0.0004593085 -0.0004593088
v 0.000926488 -0.0006495601 -2.22847E-10
v 0.000926488 -0.0004593084 0.0004593096
v 0.000926488 -1.050727E-10 -0.0006495597
v 0.000926488 -6.781983E-11 0.0006495605
v 0.000926488 0.0004593083 -0.0004593088
v 0.000926488 0.0004593083 0.0004593096
v 0.000926488 0.0006495601 -2.22847E-10
v 0.0001551419 -0.0007356231 0.0007356224
v 0.000926488 -0.0007356231 0.0007356236
v 0.000926488 -0.001040328 -2.22847E-10
v 0.0001551419 -0.001040328 -2.22847E-10
v 0.0001551419 0.001040328 -2.22847E-10
v 0.000926488 0.001040328 -2.22847E-10
v 0.000926488 0.0007356232 0.0007356236
v 0.0001551419 0.0007356232 0.0007356224
v 0.0001551419 0.0007356232 -0.0007356228
v 0.000926488 0.0007356232 -0.0007356228
v 0.000926488 0.001040328 -2.22847E-10
v 0.0001551419 0.001040328 -2.22847E-10
v 0.0001551419 -0.0007356233 -0.0007356228
v 0.000926488 -0.0007356232 -0.0007356228
v 0.000926488 -1.14386E-10 -0.001040329
v 0.0001551419 -8.644628E-11 -0.001040329
v 0.0001551419 -3.988015E-11 0.001040329
v 0.000926488 -7.713306E-11 0.001040329
v 0.000926488 -0.0007356231 0.0007356236
v 0.0001551419 -0.0007356231 0.0007356224
v 0.0001551419 -0.001040328 -2.22847E-10
v 0.000926488 -0.001040328 -2.22847E-10
v 0.000926488 -0.0007356232 -0.0007356228
v 0.0001551419 -0.0007356233 -0.0007356228
v 0.0001551419 0.0007356232 0.0007356224
v 0.000926488 0.0007356232 0.0007356236
v 0.000926488 -7.713306E-11 0.001040329
v 0.0001551419 -3.988015E-11 0.001040329
v 0.0001551419 -8.644628E-11 -0.001040329
v 0.000926488 -1.14386E-10 -0.001040329
v 0.000926488 0.0007356232 -0.0007356228
v 0.0001551419 0.0007356232 -0.0007356228
v 0.0001551419 0.0006495601 -2.22847E-10
v 0.0001551419 0.001040328 -2.22847E-10
v 0.0001551419 0.0007356232 0.0007356224
v 0.0001551419 0.0004593083 0.0004593096
v 0.0001551419 -3.988015E-11 0.001040329
v 0.0001551419 -3.988015E-11 0.0006495605
v 0.0001551419 -0.0007356231 0.0007356224
v 0.0001551419 -0.0004593084 0.0004593096
v 0.0001551419 -0.001040328 -2.22847E-10
v 0.0001551419 -0.0006495601 -2.22847E-10
v 0.0001551419 -0.0007356233 -0.0007356228
v 0.0001551419 -0.0004593084 -0.0004593088
v 0.0001551419 -8.644628E-11 -0.001040329
v 0.0001551419 -7.713306E-11 -0.0006495597
v 0.0001551419 0.0007356232 -0.0007356228
v 0.0001551419 0.0004593084 -0.0004593088
v 0.0001551419 0.001040328 -2.22847E-10
v 0.0001551419 0.0006495601 -2.22847E-10
v 0.000926488 0.0004593083 -0.0004593088
v 0.000926488 0.0007356232 -0.0007356228
v 0.000926488 -1.14386E-10 -0.001040329
v 0.000926488 -1.050727E-10 -0.0006495597
v 0.000926488 0.0006495601 -2.22847E-10
v 0.000926488 -0.0007356232 -0.0007356228
v 0.000926488 0.001040328 -2.22847E-10
v 0.000926488 -0.0004593085 -0.0004593088
v 0.000926488 0.0004593083 0.0004593096
v 0.000926488 -0.001040328 -2.22847E-10
v 0.000926488 0.0007356232 0.0007356236
v 0.000926488 -0.0006495601 -2.22847E-10
v 0.000926488 -6.781983E-11 0.0006495605
v 0.000926488 -0.0007356231 0.0007356236
v 0.000926488 -7.713306E-11 0.001040329
v 0.000926488 -0.0004593084 0.0004593096
vt 0.8969704 0.7198193
vt 0.8963606 0.7198193
vt 0.8963606 0.7222586
vt 0.8969704 0.7222586
vt 0.8963606 0.7198193
vt 0.8957508 0.7198193
vt 0.8957508 0.7222586
vt 0.8963606 0.7222586
vt 0.8957508 0.7198193
vt 0.895141 0.7198193
vt 0.895141 0.7222586
vt 0.8957508 0.7222586
vt 0.895141 0.7198193
vt 0.8945311 0.7198193
vt 0.8945311 0.7222586
vt 0.895141 0.7222586
vt 0.8945311 0.7198193
vt 0.8939214 0.7198193
vt 0.8939214 0.7222586
vt 0.8945311 0.7222586
vt 0.8939214 0.7198193
vt 0.8933115 0.7198193
vt 0.8933115 0.7222586
vt 0.8939214 0.7222586
vt 0.8933115 0.7198193
vt 0.8927017 0.7198193
vt 0.8927017 0.7222586
vt 0.8933115 0.7222586
vt 0.8927017 0.7198193
vt 0.8920919 0.7198193
vt 0.8920919 0.7222586
vt 0.8927017 0.7222586
vt 0.8949229 0.7177718
vt 0.8957508 0.7174288
vt 0.8965787 0.7177718
vt 0.8969216 0.7185997
vt 0.8945799 0.7185997
vt 0.8965787 0.7194276
vt 0.8949229 0.7194276
vt 0.8957508 0.7197706
vt 0.8941394 0.7177718
vt 0.8933115 0.7174288
vt 0.8924836 0.7177718
vt 0.8944824 0.7185997
vt 0.8921406 0.7185997
vt 0.8941394 0.7194276
vt 0.8924836 0.7194276
vt 0.8933115 0.7197706
vt 0.8939214 0.7222586
vt 0.8939214 0.7222586
vt 0.8945311 0.7222586
vt 0.8945311 0.7222586
vt 0.8920919 0.7222586
vt 0.8920919 0.7222586
vt 0.8927017 0.7222586
vt 0.8927017 0.7222586
vt 0.8963606 0.7222586
vt 0.8963606 0.7222586
vt 0.8969704 0.7222586
vt 0.8969704 0.7222586
vt 0.895141 0.7222586
vt 0.895141 0.7222586
vt 0.8957508 0.7222586
vt 0.8957508 0.7222586
vt 0.8933115 0.7222586
vt 0.8933115 0.7222586
vt 0.8939214 0.7222586
vt 0.8939214 0.7222586
vt 0.8945311 0.7222586
vt 0.8945311 0.7222586
vt 0.895141 0.7222586
vt 0.895141 0.7222586
vt 0.8927017 0.7222586
vt 0.8927017 0.7222586
vt 0.8933115 0.7222586
vt 0.8933115 0.7222586
vt 0.8957508 0.7222586
vt 0.8957508 0.7222586
vt 0.8963606 0.7222586
vt 0.8963606 0.7222586
vt 0.8920919 0.7222586
vt 0.8920919 0.7222586
vt 0.8927017 0.7222586
vt 0.8927017 0.7222586
vt 0.8933115 0.7222586
vt 0.8933115 0.7222586
vt 0.8939214 0.7222586
vt 0.8939214 0.7222586
vt 0.8945311 0.7222586
vt 0.8945311 0.7222586
vt 0.895141 0.7222586
vt 0.895141 0.7222586
vt 0.8957508 0.7222586
vt 0.8957508 0.7222586
vt 0.8963606 0.7222586
vt 0.8963606 0.7222586
vt 0.8969704 0.7222586
vt 0.8969704 0.7222586
vt 0.8941394 0.7194276
vt 0.8941394 0.7194276
vt 0.8944824 0.7185997
vt 0.8944824 0.7185997
vt 0.8933115 0.7197706
vt 0.8941394 0.7177718
vt 0.8933115 0.7197706
vt 0.8941394 0.7177718
vt 0.8924836 0.7194276
vt 0.8933115 0.7174288
vt 0.8924836 0.7194276
vt 0.8933115 0.7174288
vt 0.8921406 0.7185997
vt 0.8924836 0.7177718
vt 0.8921406 0.7185997
vt 0.8924836 0.7177718
vn 0 0.9238796 -0.3826832
vn 0 0.9238796 -0.3826832
vn 0 0.9238796 -0.3826832
vn 0 0.9238796 -0.3826832
vn 0 0.3826818 -0.9238801
vn 0 0.3826818 -0.9238801
vn 0 0.3826818 -0.9238801
vn 0 0.3826818 -0.9238801
vn 0 -0.3826819 -0.9238801
vn 0 -0.3826819 -0.9238801
vn 0 -0.3826819 -0.9238801
vn 0 -0.3826819 -0.9238801
vn 0 -0.9238796 -0.3826832
vn 0 -0.9238796 -0.3826832
vn 0 -0.9238796 -0.3826832
vn 0 -0.9238796 -0.3826832
vn -1.723537E-07 -0.9238798 0.3826829
vn -1.723537E-07 -0.9238798 0.3826829
vn -1.723537E-07 -0.9238798 0.3826829
vn -1.723537E-07 -0.9238798 0.3826829
vn -3.616746E-07 -0.382683 0.9238797
vn -3.616746E-07 -0.382683 0.9238797
vn -3.616746E-07 -0.382683 0.9238797
vn -3.616746E-07 -0.382683 0.9238797
vn -3.091453E-07 0.382683 0.9238797
vn -3.091453E-07 0.382683 0.9238797
vn -3.091453E-07 0.382683 0.9238797
vn -3.091453E-07 0.382683 0.9238797
vn -1.079929E-07 0.9238798 0.3826829
vn -1.079929E-07 0.9238798 0.3826829
vn -1.079929E-07 0.9238798 0.3826829
vn -1.079929E-07 0.9238798 0.3826829
vn -1 0 0
vn -1 0 0
vn -1 0 0
vn -1 0 0
vn -1 0 0
vn -1 0 0
vn -1 0 0
vn -1 0 0
vn 1 0 0
vn 1 0 0
vn 1 0 0
vn 1 0 0
vn 1 0 0
vn 1 0 0
vn 1 0 0
vn 1 0 0
vn -3.032779E-07 -0.9238794 0.3826835
vn -3.032779E-07 -0.9238794 0.3826835
vn -3.032779E-07 -0.9238794 0.3826835
vn -3.032779E-07 -0.9238794 0.3826835
vn -3.032779E-07 0.9238795 0.3826835
vn -3.032779E-07 0.9238795 0.3826835
vn -3.032779E-07 0.9238795 0.3826835
vn -3.032779E-07 0.9238795 0.3826835
vn 0 0.9238794 -0.3826837
vn 0 0.9238794 -0.3826837
vn 0 0.9238794 -0.3826837
vn 0 0.9238794 -0.3826837
vn 0 -0.3826845 -0.9238791
vn 0 -0.3826845 -0.9238791
vn 0 -0.3826845 -0.9238791
vn 0 -0.3826845 -0.9238791
vn -7.581946E-07 -0.3826839 0.9238793
vn -7.581946E-07 -0.3826839 0.9238793
vn -7.581946E-07 -0.3826839 0.9238793
vn -7.581946E-07 -0.3826839 0.9238793
vn 0 -0.9238794 -0.3826837
vn 0 -0.9238794 -0.3826837
vn 0 -0.9238794 -0.3826837
vn 0 -0.9238794 -0.3826837
vn -6.823751E-07 0.3826838 0.9238794
vn -6.823751E-07 0.3826838 0.9238794
vn -6.823751E-07 0.3826838 0.9238794
vn -6.823751E-07 0.3826838 0.9238794
vn 0 0.3826844 -0.9238791
vn 0 0.3826844 -0.9238791
vn 0 0.3826844 -0.9238791
vn 0 0.3826844 -0.9238791
vn -1 0 0
vn -1 0 0
vn -1 0 0
vn -1 0 0
vn -1 0 0
vn -1 0 0
vn -1 0 0
vn -1 0 0
vn -1 0 0
vn -1 0 0
vn -1 0 0
vn -1 0 0
vn -1 0 0
vn -1 0 0
vn -1 0 0
vn -1 0 0
vn -1 0 0
vn -1 0 0
vn 1 0 0
vn 1 0 0
vn 1 0 0
vn 1 0 0
vn 1 0 0
vn 1 0 0
vn 1 0 0
vn 1 0 0
vn 1 -1.99452E-07 0
vn 1 0 0
vn 1 -1.99452E-07 0
vn 1 0 0
vn 1 0 0
vn 1 0 0
vn 1 0 0
vn 1 0 0
g screw.001_0
f 3/3/3 2/2/2 1/1/1
f 4/4/4 3/3/3 1/1/1
f 7/7/7 6/6/6 5/5/5
f 8/8/8 7/7/7 5/5/5
f 11/11/11 10/10/10 9/9/9
f 12/12/12 11/11/11 9/9/9
f 15/15/15 14/14/14 13/13/13
f 16/16/16 15/15/15 13/13/13
f 19/19/19 18/18/18 17/17/17
f 20/20/20 19/19/19 17/17/17
f 23/23/23 22/22/22 21/21/21
f 24/24/24 23/23/23 21/21/21
f 27/27/27 26/26/26 25/25/25
f 28/28/28 27/27/27 25/25/25
f 31/31/31 30/30/30 29/29/29
f 32/32/32 31/31/31 29/29/29
f 35/35/35 34/34/34 33/33/33
f 33/33/33 36/36/36 35/35/35
f 33/33/33 37/37/37 36/36/36
f 37/37/37 38/38/38 36/36/36
f 37/37/37 39/39/39 38/38/38
f 39/39/39 40/40/40 38/38/38
f 43/43/43 42/42/42 41/41/41
f 41/41/41 44/44/44 43/43/43
f 44/44/44 45/45/45 43/43/43
f 44/44/44 46/46/46 45/45/45
f 46/46/46 47/47/47 45/45/45
f 46/46/46 48/48/48 47/47/47
f 51/51/51 50/50/50 49/49/49
f 52/52/52 51/51/51 49/49/49
f 55/55/55 54/54/54 53/53/53
f 56/56/56 55/55/55 53/53/53
f 59/59/59 58/58/58 57/57/57
f 60/60/60 59/59/59 57/57/57
f 63/63/63 62/62/62 61/61/61
f 64/64/64 63/63/63 61/61/61
f 67/67/67 66/66/66 65/65/65
f 68/68/68 67/67/67 65/65/65
f 71/71/71 70/70/70 69/69/69
f 72/72/72 71/71/71 69/69/69
f 75/75/75 74/74/74 73/73/73
f 76/76/76 75/75/75 73/73/73
f 79/79/79 78/78/78 77/77/77
f 80/80/80 79/79/79 77/77/77
f 83/83/83 82/82/82 81/81/81
f 84/84/84 83/83/83 81/81/81
f 85/85/85 83/83/83 84/84/84
f 86/86/86 85/85/85 84/84/84
f 87/87/87 85/85/85 86/86/86
f 88/88/88 87/87/87 86/86/86
f 89/89/89 87/87/87 88/88/88
f 90/90/90 89/89/89 88/88/88
f 91/91/91 89/89/89 90/90/90
f 92/92/92 91/91/91 90/90/90
f 93/93/93 91/91/91 92/92/92
f 94/94/94 93/93/93 92/92/92
f 95/95/95 93/93/93 94/94/94
f 96/96/96 95/95/95 94/94/94
f 97/97/97 95/95/95 96/96/96
f 98/98/98 97/97/97 96/96/96
f 101/101/101 100/100/100 99/99/99
f 102/102/102 101/101/101 99/99/99
f 99/99/99 100/100/100 103/103/103
f 104/104/104 101/101/101 102/102/102
f 100/100/100 105/105/105 103/103/103
f 106/106/106 104/104/104 102/102/102
f 103/103/103 105/105/105 107/107/107
f 108/108/108 104/104/104 106/106/106
f 105/105/105 109/109/109 107/107/107
f 110/110/110 108/108/108 106/106/106
f 107/107/107 109/109/109 111/111/111
f 112/112/112 108/108/108 110/110/110
f 109/109/109 113/113/113 111/111/111
f 114/114/114 112/112/112 110/110/110
f 111/111/111 113/113/113 114/114/114
f 113/113/113 112/112/112 114/114/114
