g pCylinder9
v 0.3278347 0.1892754 0.03971022
v 0.3727999 0.06573448 0.03971022
v 0.3727999 -0.06573479 0.03971022
v 0.3278345 -0.1892756 0.03971022
v 0.2433277 -0.2899869 0.03971022
v 0.2433279 0.2899868 0.03971022
v 0.1294721 0.3557214 0.03971022
v 0.1294718 -0.3557215 0.03971022
v 0 -0.3785509 0.03971022
v 7.629394E-08 0.3785509 0.03971022
v -0.129472 0.3557214 0.03971022
v -0.129472 -0.3557215 0.03971022
v -0.2433278 0.2899868 0.03971022
v -0.2433279 -0.2899869 0.03971022
v -0.3278347 0.1892754 0.03971022
v -0.3278347 -0.1892754 0.03971022
v -0.3727999 0.06573479 0.03971022
v -0.3727999 -0.06573479 0.03971022
v -0.3278347 0.1892754 -0.03971025
v -0.3727999 0.06573448 -0.03971025
v -0.3727999 -0.06573479 -0.03971025
v -0.3278345 -0.1892756 -0.03971025
v -0.2433277 -0.2899869 -0.03971025
v -0.2433279 0.2899868 -0.03971025
v -0.1294721 0.3557214 -0.03971025
v -0.1294718 -0.3557215 -0.03971025
v 0 -0.3785509 -0.03971025
v -7.629394E-08 0.3785509 -0.03971025
v 0.129472 0.3557214 -0.03971025
v 0.1294721 -0.3557215 -0.03971025
v 0.2433277 0.2899868 -0.03971025
v 0.2433279 -0.2899869 -0.03971025
v 0.3278347 0.1892754 -0.03971025
v 0.3278347 -0.1892754 -0.03971025
v 0.3727999 0.06573479 -0.03971025
v 0.3727999 -0.06573479 -0.03971025
v 0.1294721 0.3557214 -0.03971025
v 7.629394E-08 0.3785509 0.03971022
v 7.629394E-08 0.3785509 -0.03971025
v -0.129472 0.3557214 -0.03971025
v 0.1294721 0.3557214 0.03971022
v -0.129472 0.3557214 0.03971022
v 0.2433279 0.2899868 -0.03971025
v -0.2433278 0.2899868 0.03971022
v 0.2433279 0.2899868 0.03971022
v -0.2433278 0.2899868 -0.03971025
v 0.3278347 0.1892754 -0.03971025
v -0.3278347 0.1892754 0.03971022
v 0.3278347 0.1892754 0.03971022
v -0.3278347 0.1892754 -0.03971025
v 0.3727999 0.06573448 -0.03971025
v -0.3727999 0.06573479 0.03971022
v 0.3727999 0.06573448 0.03971022
v -0.3727999 0.06573479 -0.03971025
v 0.3727999 -0.06573479 -0.03971025
v -0.3727999 -0.06573479 0.03971022
v 0.3727999 -0.06573479 0.03971022
v -0.3727999 -0.06573479 -0.03971025
v 0.3278345 -0.1892756 -0.03971025
v -0.3278347 -0.1892754 0.03971022
v 0.3278345 -0.1892756 0.03971022
v -0.3278347 -0.1892754 -0.03971025
v 0.2433277 -0.2899869 -0.03971025
v -0.2433279 -0.2899869 0.03971022
v 0.2433277 -0.2899869 0.03971022
v -0.2433279 -0.2899869 -0.03971025
v 0.1294718 -0.3557215 -0.03971025
v -0.129472 -0.3557215 0.03971022
v 0.1294718 -0.3557215 0.03971022
v -0.129472 -0.3557215 -0.03971025
v 0 -0.3785509 -0.03971025
v 0 -0.3785509 0.03971022
vt 0.5961914 0.09033203
vt 0.5961914 0.08776855
vt 0.5961914 0.08496094
vt 0.5961914 0.08233643
vt 0.5961914 0.0802002
vt 0.5961914 0.09246826
vt 0.5961914 0.09387207
vt 0.5961914 0.07879639
vt 0.5961914 0.07830811
vt 0.5961914 0.09436035
vt 0.5961914 0.09387207
vt 0.5961914 0.07879639
vt 0.5961914 0.09246826
vt 0.5961914 0.0802002
vt 0.5961914 0.09033203
vt 0.5961914 0.08233643
vt 0.5961914 0.08776855
vt 0.5961914 0.08496094
vt 0.5961914 0.09033203
vt 0.5961914 0.08776855
vt 0.5961914 0.08496094
vt 0.5961914 0.08233643
vt 0.5961914 0.0802002
vt 0.5961914 0.09246826
vt 0.5961914 0.09387207
vt 0.5961914 0.07879639
vt 0.5961914 0.07830811
vt 0.5961914 0.09436035
vt 0.5961914 0.09387207
vt 0.5961914 0.07879639
vt 0.5961914 0.09246826
vt 0.5961914 0.0802002
vt 0.5961914 0.09033203
vt 0.5961914 0.08233643
vt 0.5961914 0.08776855
vt 0.5961914 0.08496094
vt 0.637207 0.08337402
vt 0.637207 0.08349609
vt 0.6376953 0.08343506
vt 0.6376953 0.08355713
vt 0.637207 0.08343506
vt 0.6376953 0.08361816
vt 0.637207 0.08331299
vt 0.6376953 0.0836792
vt 0.637207 0.08343506
vt 0.6376953 0.0836792
vt 0.637207 0.08337402
vt 0.6376953 0.0838623
vt 0.637207 0.08343506
vt 0.6376953 0.0838623
vt 0.6367188 0.08343506
vt 0.6376953 0.08392334
vt 0.6367188 0.08349609
vt 0.6376953 0.08398438
vt 0.6367188 0.08355713
vt 0.637207 0.08404541
vt 0.6367188 0.08355713
vt 0.637207 0.08410645
vt 0.6367188 0.0836792
vt 0.637207 0.08410645
vt 0.6367188 0.0836792
vt 0.637207 0.08416748
vt 0.6367188 0.08380127
vt 0.637207 0.08410645
vt 0.6367188 0.08380127
vt 0.637207 0.08416748
vt 0.6367188 0.08398438
vt 0.637207 0.08410645
vt 0.6367188 0.08392334
vt 0.637207 0.08416748
vt 0.6367188 0.08410645
vt 0.6367188 0.08404541
vn 0 0 1
vn 1.072884E-06 0 1
vn 1.072884E-06 0 1
vn 0 0 1
vn 0 0 1
vn 0 0 1
vn -2.980232E-07 0 1
vn -2.980232E-07 0 1
vn -1.192093E-07 0 1
vn -1.192093E-07 0 1
vn 1.788139E-07 0 1
vn 1.788139E-07 0 1
vn 0 0 1
vn 0 0 1
vn -1.788139E-07 0 1
vn -1.788139E-07 0 1
vn -1.072884E-06 0 1
vn -1.072884E-06 0 1
vn 1.132488E-06 0 -1
vn -1.072884E-06 0 -1
vn -1.072884E-06 0 -1
vn 1.132488E-06 0 -1
vn -1.788139E-07 0 -1
vn -1.788139E-07 0 -1
vn -4.768372E-07 0 -1
vn -4.768372E-07 0 -1
vn 0 0 -1
vn 0 0 -1
vn 4.172325E-07 0 -1
vn 4.172325E-07 0 -1
vn 3.576279E-07 0 -1
vn 3.576279E-07 0 -1
vn 0 0 -1
vn 0 0 -1
vn -2.145767E-06 0 -1
vn -2.145767E-06 0 -1
vn 0.342041 0.9394531 0
vn 0 1 0
vn 0 1 0
vn -0.342041 0.9394531 0
vn 0.342041 0.9394531 0
vn -0.342041 0.9394531 0
vn 0.6425781 0.7661133 0
vn -0.6425781 0.7661133 0
vn 0.6425781 0.7661133 0
vn -0.6425781 0.7661133 0
vn 0.8662109 0.5 0
vn -0.8662109 0.5 0
vn 0.8662109 0.5 0
vn -0.8662109 0.5 0
vn 0.9848633 0.1737061 0
vn -0.9848633 0.1737061 0
vn 0.9848633 0.1737061 0
vn -0.9848633 0.1737061 0
vn 0.9848633 -0.1737061 0
vn -0.9848633 -0.1737061 0
vn 0.9848633 -0.1737061 0
vn -0.9848633 -0.1737061 0
vn 0.8662109 -0.5 0
vn -0.8662109 -0.5 0
vn 0.8662109 -0.5 0
vn -0.8662109 -0.5 0
vn 0.6425781 -0.7661133 0
vn -0.6425781 -0.7661133 0
vn 0.6425781 -0.7661133 0
vn -0.6425781 -0.7661133 0
vn 0.342041 -0.9394531 0
vn -0.342041 -0.9394531 0
vn 0.342041 -0.9394531 0
vn -0.342041 -0.9394531 0
vn 0 -1 0
vn 0 -1 0
g pCylinder9_0
f 3/3/3 2/2/2 1/1/1
f 4/4/4 3/3/3 1/1/1
f 4/4/4 1/1/1 5/5/5
f 1/1/1 6/6/6 5/5/5
f 6/6/6 7/7/7 5/5/5
f 7/7/7 8/8/8 5/5/5
f 8/8/8 7/7/7 9/9/9
f 7/7/7 10/10/10 9/9/9
f 10/10/10 11/11/11 9/9/9
f 11/11/11 12/12/12 9/9/9
f 11/11/11 13/13/13 12/12/12
f 13/13/13 14/14/14 12/12/12
f 13/13/13 15/15/15 14/14/14
f 15/15/15 16/16/16 14/14/14
f 15/15/15 17/17/17 16/16/16
f 17/17/17 18/18/18 16/16/16
f 21/21/21 20/20/20 19/19/19
f 22/22/22 21/21/21 19/19/19
f 22/22/22 19/19/19 23/23/23
f 19/19/19 24/24/24 23/23/23
f 24/24/24 25/25/25 23/23/23
f 25/25/25 26/26/26 23/23/23
f 26/26/26 25/25/25 27/27/27
f 25/25/25 28/28/28 27/27/27
f 28/28/28 29/29/29 27/27/27
f 29/29/29 30/30/30 27/27/27
f 29/29/29 31/31/31 30/30/30
f 31/31/31 32/32/32 30/30/30
f 31/31/31 33/33/33 32/32/32
f 33/33/33 34/34/34 32/32/32
f 33/33/33 35/35/35 34/34/34
f 35/35/35 36/36/36 34/34/34
f 39/39/39 38/38/38 37/37/37
f 39/39/39 40/40/40 38/38/38
f 38/38/38 41/41/41 37/37/37
f 40/40/40 42/42/42 38/38/38
f 37/37/37 41/41/41 43/43/43
f 44/44/44 42/42/42 40/40/40
f 41/41/41 45/45/45 43/43/43
f 46/46/46 44/44/44 40/40/40
f 43/43/43 45/45/45 47/47/47
f 48/48/48 44/44/44 46/46/46
f 45/45/45 49/49/49 47/47/47
f 50/50/50 48/48/48 46/46/46
f 47/47/47 49/49/49 51/51/51
f 52/52/52 48/48/48 50/50/50
f 49/49/49 53/53/53 51/51/51
f 54/54/54 52/52/52 50/50/50
f 51/51/51 53/53/53 55/55/55
f 56/56/56 52/52/52 54/54/54
f 53/53/53 57/57/57 55/55/55
f 58/58/58 56/56/56 54/54/54
f 55/55/55 57/57/57 59/59/59
f 60/60/60 56/56/56 58/58/58
f 57/57/57 61/61/61 59/59/59
f 62/62/62 60/60/60 58/58/58
f 59/59/59 61/61/61 63/63/63
f 64/64/64 60/60/60 62/62/62
f 61/61/61 65/65/65 63/63/63
f 66/66/66 64/64/64 62/62/62
f 63/63/63 65/65/65 67/67/67
f 68/68/68 64/64/64 66/66/66
f 65/65/65 69/69/69 67/67/67
f 70/70/70 68/68/68 66/66/66
f 67/67/67 69/69/69 71/71/71
f 72/72/72 68/68/68 70/70/70
f 71/71/71 72/72/72 70/70/70
f 69/69/69 72/72/72 71/71/71
