g box5_sh_1
v -0.09866314 0.1714868 -0.1041963
v -0.09866314 0.1509084 -0.1247747
v -0.1192416 0.1509084 -0.1041963
v -0.09866314 -0.1509084 -0.1247747
v -0.1192416 -0.1509084 -0.1041963
v -0.09866314 -0.1714869 -0.1041963
v -0.09866314 0.1714869 0.09457073
v -0.1192416 0.1509084 0.1174331
v -0.1192415 0.1367095 0.1247747
v 0.1190172 0.1714868 -0.1041963
v 0.1148358 0.1509084 -0.1247747
v 0.05448522 -0.1509084 -0.1247747
v 0.05043701 -0.1714869 -0.1041963
v 0.1192416 0.1714869 -0.03485161
v -0.1192416 -0.0421375 0.08901249
v -0.1192416 -0.1509084 0.04781565
v -0.09866314 -0.1714869 0.02736386
v -0.01811469 0.1034028 0.08193266
v 0.05056567 -0.1714869 -0.06442662
v 0.1063492 0.1063426 0.006488491
v -0.09866314 0.1714868 -0.1041963
v -0.09866314 0.1714868 -0.1041963
v -0.09866314 0.1714868 -0.1041963
v -0.09866314 0.1714868 -0.1041963
v -0.09866314 0.1714868 -0.1041963
v -0.09866314 0.1509084 -0.1247747
v -0.09866314 0.1509084 -0.1247747
v -0.09866314 0.1509084 -0.1247747
v -0.09866314 0.1509084 -0.1247747
v -0.09866314 0.1509084 -0.1247747
v -0.1192416 0.1509084 -0.1041963
v -0.1192416 0.1509084 -0.1041963
v -0.1192416 0.1509084 -0.1041963
v -0.1192416 0.1509084 -0.1041963
v -0.1192416 0.1509084 -0.1041963
v -0.09866314 -0.1509084 -0.1247747
v -0.09866314 -0.1509084 -0.1247747
v -0.09866314 -0.1509084 -0.1247747
v -0.09866314 -0.1509084 -0.1247747
v -0.1192416 -0.1509084 -0.1041963
v -0.1192416 -0.1509084 -0.1041963
v -0.1192416 -0.1509084 -0.1041963
v -0.1192416 -0.1509084 -0.1041963
v -0.1192416 -0.1509084 -0.1041963
v -0.09866314 -0.1714869 -0.1041963
v -0.09866314 -0.1714869 -0.1041963
v -0.09866314 -0.1714869 -0.1041963
v -0.09866314 -0.1714869 -0.1041963
v -0.09866314 -0.1714869 -0.1041963
v -0.09866314 0.1714869 0.09457073
v -0.09866314 0.1714869 0.09457073
v -0.09866314 0.1714869 0.09457073
v -0.09866314 0.1714869 0.09457073
v -0.1192416 0.1509084 0.1174331
v -0.1192416 0.1509084 0.1174331
v -0.1192416 0.1509084 0.1174331
v -0.1192416 0.1509084 0.1174331
v -0.1192415 0.1367095 0.1247747
v -0.1192415 0.1367095 0.1247747
v 0.1190172 0.1714868 -0.1041963
v 0.1190172 0.1714868 -0.1041963
v 0.1148358 0.1509084 -0.1247747
v 0.1148358 0.1509084 -0.1247747
v 0.1148358 0.1509084 -0.1247747
v 0.1148358 0.1509084 -0.1247747
v 0.1148358 0.1509084 -0.1247747
v 0.05448522 -0.1509084 -0.1247747
v 0.05448522 -0.1509084 -0.1247747
v 0.05448522 -0.1509084 -0.1247747
v 0.05448522 -0.1509084 -0.1247747
v 0.05448522 -0.1509084 -0.1247747
v 0.05043701 -0.1714869 -0.1041963
v 0.05043701 -0.1714869 -0.1041963
v 0.05043701 -0.1714869 -0.1041963
v 0.1192416 0.1714869 -0.03485161
v 0.1192416 0.1714869 -0.03485161
v 0.1192416 0.1714869 -0.03485161
v 0.1192416 0.1714869 -0.03485161
v 0.1192416 0.1714869 -0.03485161
v -0.1192416 -0.0421375 0.08901249
v -0.1192416 -0.0421375 0.08901249
v -0.1192416 -0.0421375 0.08901249
v -0.1192416 -0.0421375 0.08901249
v -0.1192416 -0.0421375 0.08901249
v -0.1192416 -0.0421375 0.08901249
v -0.1192416 -0.0421375 0.08901249
v -0.1192416 -0.1509084 0.04781565
v -0.1192416 -0.1509084 0.04781565
v -0.1192416 -0.1509084 0.04781565
v -0.09866314 -0.1714869 0.02736386
v -0.09866314 -0.1714869 0.02736386
v -0.09866314 -0.1714869 0.02736386
v -0.01811469 0.1034028 0.08193266
v -0.01811469 0.1034028 0.08193266
v -0.01811469 0.1034028 0.08193266
v -0.01811469 0.1034028 0.08193266
v -0.01811469 0.1034028 0.08193266
v -0.01811469 0.1034028 0.08193266
v 0.05056567 -0.1714869 -0.06442662
v 0.05056567 -0.1714869 -0.06442662
v 0.05056567 -0.1714869 -0.06442662
v 0.05056567 -0.1714869 -0.06442662
v 0.05056567 -0.1714869 -0.06442662
v 0.05056567 -0.1714869 -0.06442662
v 0.1063492 0.1063426 0.006488491
v 0.1063492 0.1063426 0.006488491
v 0.1063492 0.1063426 0.006488491
v 0.1063492 0.1063426 0.006488491
vt 0.2017692 0.250322
vt 0.186773 0.2653181
vt 0.2017692 0.250322
vt 0.4793505 0.4999982
vt 0.4793506 0.4850021
vt 0.4689987 0.4850021
vt 0.3466169 0.2653182
vt 0.04355774 0.03833082
vt 0.04355774 0.03472427
vt 0.2017692 0.4239485
vt 0.186773 0.4209014
vt 0.30656 0.6265969
vt 0.3104231 0.01512494
vt 0.2523028 0.424112
vt 0.04355774 -0.01070295
vt 0.1867731 0.1259007
vt 0.2017692 0.1109964
vt 0.01787147 0.02626436
vt 0.00042662 -0.04355774
vt -0.01374243 0.02701108
vt 0.2017692 0.2653181
vt 0.2017692 0.2653181
vt 0.2017692 0.2653181
vt 0.2017691 0.2653181
vt 0.2017692 0.2653181
vt 0.186773 0.2653181
vt 0.4904214 0.5149944
vt 0.4793506 0.4850021
vt 0.4583889 0.5149945
vt 0.4583889 0.5149945
vt 0.4904214 0.4850021
vt 0.2017692 0.250322
vt 0.2017692 0.250322
vt 0.4583889 0.4850022
vt 0.4583889 0.4850022
vt 0.4904214 0.4850021
vt 0.30656 0.5149932
vt 0.2017692 0.0001288013
vt 0.2017692 0.0001288013
vt 0.1867731 0.01512494
vt 0.4793506 0.4850021
vt 0.4904214 0.5149944
vt 0.306561 0.485002
vt 0.306561 0.485002
vt 0.2017692 0.01512494
vt 0.2017691 0.01512494
vt 0.2017692 0.01512494
vt 0.2017692 0.01512494
vt 0.2017692 0.01512494
vt 0.03833082 0.04355774
vt 0.03833082 0.04355774
vt 0.3466169 0.2653182
vt 0.3466169 0.2653182
vt -0.03650932 0.6765046
vt 0.04355774 0.03833082
vt 0.3632774 0.250322
vt 0.4583888 0.3234935
vt 0.04355774 0.03472427
vt -0.02429354 0.6818545
vt 0.2017692 0.4239473
vt -0.03833082 0.04355774
vt 0.1867732 0.4209006
vt -0.04355774 0.03833081
vt -0.04355774 0.03833081
vt 0.458389 0.6705778
vt -0.04355774 0.03833081
vt 0.30656 0.6265969
vt -0.04355774 -0.03833082
vt -0.04355774 -0.03833082
vt 0.3133731 0.0001288067
vt -0.04355774 -0.03833082
vt 0.3104231 0.01512494
vt -0.03833081 -0.04355774
vt 0.3104231 0.01512494
vt 0.2523028 0.424112
vt -0.01701709 0.04355774
vt -0.01701709 0.04355774
vt -0.02071723 0.04355774
vt -0.02071723 0.04355774
vt 0.04355774 -0.01070295
vt 0.1295744 0.6557934
vt 0.3612778 0.3442049
vt 0.3612778 0.3442049
vt 0.3612778 0.3442049
vt 0.04355774 -0.01070295
vt 0.04355774 -0.01070295
vt 0.306561 0.374228
vt 0.186773 0.1259011
vt 0.04355774 -0.03833082
vt 0.03833082 -0.04355774
vt 0.03833082 -0.04355774
vt 0.2017692 0.1109969
vt 0.01787147 0.02626436
vt 0.01787147 0.02626436
vt 0.01787147 0.02626436
vt 0.01787147 0.02626436
vt 0.01787147 0.02626436
vt 0.01787147 0.02626436
vt 0.00042662 -0.04355774
vt -0.02822931 -0.04355774
vt -0.02822931 -0.04355774
vt 0.00042662 -0.04355774
vt 0.3105169 0.04410629
vt 0.3105169 0.04410629
vt -0.01374243 0.02701108
vt -0.01021683 0.02701108
vt -0.01021683 0.02701108
vt -0.01021683 0.02701108
vn -0.5773503 0.5773503 -0.5773504
vn -0.5773503 0.5773503 -0.5773504
vn -0.5773503 0.5773503 -0.5773504
vn -0.5773503 -0.5773504 -0.5773503
vn -0.5773503 -0.5773504 -0.5773503
vn -0.5773503 -0.5773504 -0.5773503
vn 0 1 -1.192093E-07
vn 0.466628 0.4062198 0.7856485
vn 0.466628 0.4062198 0.7856485
vn 0 1 -1.192093E-07
vn 0 0.7071067 -0.7071069
vn 0 -1.192093E-07 -1
vn 0 -0.7071068 -0.7071067
vn 0 1 -1.192093E-07
vn 0.4986163 -0.3070242 0.8106281
vn -0.7071067 -0.7071068 8.42937E-08
vn -0.7071067 -0.7071069 8.42937E-08
vn 0.466628 0.4062198 0.7856485
vn 0.4986163 -0.3070242 0.810628
vn 0.4666281 0.4062199 0.7856486
vn 0 0.7071067 -0.7071069
vn 0 1 -1.192093E-07
vn 0 1 -1.192093E-07
vn -0.7071067 0.7071068 -8.42937E-08
vn 0 0.7071067 -0.7071069
vn 0 0.7071067 -0.7071069
vn -0.7071068 -8.42937E-08 -0.7071068
vn -0.7071068 -8.42937E-08 -0.7071068
vn 0 -1.192093E-07 -1
vn 0 -1.192093E-07 -1
vn -0.7071068 -8.429368E-08 -0.7071067
vn -0.7071067 0.7071068 -8.42937E-08
vn -0.7071067 0.7071068 -8.42937E-08
vn -1 0 0
vn -1 0 0
vn -0.7071068 -8.429368E-08 -0.7071067
vn 0 -1.192093E-07 -1
vn 0 -0.7071069 -0.7071068
vn 0 -0.7071069 -0.7071068
vn -0.7071067 -0.7071068 8.42937E-08
vn -0.7071068 -8.42937E-08 -0.7071068
vn -0.7071068 -8.42937E-08 -0.7071068
vn -1 0 0
vn -1 0 0
vn -0.7071067 -0.7071068 8.42937E-08
vn 0 -0.7071068 -0.7071067
vn -0.7071067 -0.7071068 8.42937E-08
vn 0 -1 1.192093E-07
vn 0 -1 1.192093E-07
vn 0.4666281 0.4062198 0.7856485
vn 0.4666281 0.4062198 0.7856485
vn -0.7071067 0.7071068 -8.42937E-08
vn -0.7071067 0.7071068 -8.42937E-08
vn -1 0 0
vn 0.4666281 0.4062198 0.7856485
vn -0.7071068 0.7071068 -8.42937E-08
vn -1 0 0
vn 0.3310594 -0.1850215 0.9252928
vn -1 0 0
vn 0 0.7071067 -0.7071069
vn 0.980584 -0.1960743 -0.003172581
vn 0 0.7071067 -0.7071069
vn 0.980584 -0.1960743 -0.003172581
vn 0.9805838 -0.196075 -0.003172408
vn 0 -1.192093E-07 -1
vn 0.9805837 -0.1960753 -0.003172504
vn 0 -1.192093E-07 -1
vn 0.9805837 -0.1960753 -0.003172504
vn 0.9805837 -0.1960751 -0.003172785
vn 0 -0.7071068 -0.7071066
vn 0.9805839 -0.1960743 -0.003172491
vn 0 -0.7071068 -0.7071067
vn 0.9805839 -0.1960743 -0.003172491
vn 0 -1 1.192093E-07
vn 0 1 -1.192093E-07
vn 0.4666281 0.4062198 0.7856485
vn 0.4666281 0.4062199 0.7856486
vn 0.980584 -0.1960743 -0.003172581
vn 0.9805838 -0.196075 -0.003172408
vn 0.3310594 -0.1850215 0.9252928
vn -1 0 0
vn -1 0 0
vn -1 0 0
vn -1 0 0
vn 0.4986164 -0.3070241 0.8106281
vn 0.4986159 -0.3070243 0.8106283
vn -1 0 0
vn -0.7071067 -0.7071069 8.42937E-08
vn 0.4986159 -0.3070243 0.8106283
vn 0.4986164 -0.3070241 0.8106281
vn 0.4986159 -0.3070243 0.8106283
vn 0 -1 1.192093E-07
vn 0.4666281 0.4062198 0.7856485
vn 0.4666281 0.4062199 0.7856486
vn 0.4986163 -0.3070242 0.810628
vn 0.4986163 -0.3070242 0.8106281
vn 0.3310594 -0.1850215 0.9252928
vn 0.4666281 0.4062198 0.7856485
vn 0.4986163 -0.3070242 0.8106281
vn 0.9805837 -0.1960751 -0.003172785
vn 0.9805839 -0.1960743 -0.003172491
vn 0.4986164 -0.3070241 0.8106281
vn 0 -1 1.192093E-07
vn 0 -1 1.192093E-07
vn 0.4986163 -0.3070242 0.810628
vn 0.9805838 -0.196075 -0.003172408
vn 0.9805837 -0.1960753 -0.003172504
vn 0.9805837 -0.1960751 -0.003172785
g box5_sh_1_0
f 1/1/1 2/2/2 3/3/3
f 4/4/4 6/6/6 5/5/5
f 11/11/11 26/26/26 21/21/21
f 22/22/22 7/7/7 14/14/14
f 10/10/10 23/23/23 75/75/75
f 16/16/16 40/40/40 45/45/45
f 41/41/41 31/31/31 27/27/27
f 28/28/28 36/36/36 42/42/42
f 81/81/81 59/59/59 54/54/54
f 32/32/32 56/56/56 52/52/52
f 53/53/53 24/24/24 33/33/33
f 62/62/62 25/25/25 60/60/60
f 29/29/29 65/65/65 12/12/12
f 67/67/67 37/37/37 30/30/30
f 38/38/38 70/70/70 13/13/13
f 72/72/72 46/46/46 39/39/39
f 82/82/82 57/57/57 34/34/34
f 83/83/83 35/35/35 43/43/43
f 84/84/84 44/44/44 87/87/87
f 88/88/88 47/47/47 17/17/17
f 103/103/103 92/92/92 48/48/48
f 49/49/49 74/74/74 104/104/104
f 8/8/8 9/9/9 18/18/18
f 76/76/76 50/50/50 93/93/93
f 94/94/94 20/20/20 77/77/77
f 19/19/19 105/105/105 95/95/95
f 99/99/99 96/96/96 15/15/15
f 58/58/58 80/80/80 97/97/97
f 55/55/55 98/98/98 51/51/51
f 63/63/63 61/61/61 78/78/78
f 64/64/64 79/79/79 106/106/106
f 68/68/68 66/66/66 107/107/107
f 108/108/108 100/100/100 69/69/69
f 71/71/71 101/101/101 73/73/73
f 90/90/90 102/102/102 85/85/85
f 86/86/86 89/89/89 91/91/91
