g box6_sh_5
v 0.06284151 0.08390239 -0.1262418
v -0.1323315 0.08390239 -0.1262418
v -0.1323315 0.08390242 -0.1343267
v 0.06284151 0.08390242 -0.1343267
v 0.06284151 0.09990236 -0.1262417
v 0.0628415 0.09990239 -0.1343267
v -0.1158511 0.09990236 -0.1262417
v -0.1331955 0.08390239 -0.1262478
v -0.1373411 0.08390242 -0.1343267
v 0.1880362 0.08390242 -0.1343267
v 0.2652545 0.04622297 -0.1343267
v 0.1845158 0.08390239 -0.127091
v 0.1516146 0.09990236 -0.1268614
v 0.06284151 0.1378842 -0.1043862
v 0.1552468 0.09990239 -0.1343267
v 0.0628415 0.1399359 -0.1130278
v -0.0164969 0.1719451 -0.08478682
v -0.2652498 -0.03411238 -0.1343267
v -0.1323315 -0.06729776 -0.1262418
v 0.06284151 -0.119536 -0.1343268
v 0.06284151 -0.1178323 -0.1262418
v -0.1323315 -0.0690015 -0.1343267
v 0.2652545 -0.1719451 -0.1343268
v -0.2652545 -0.03458489 -0.1343267
v 0.2652545 -0.01755905 0.1343268
v 0.2652545 -0.124719 0.08978017
v 0.06284151 0.08390239 -0.1262418
v 0.06284151 0.08390239 -0.1262418
v 0.06284151 0.08390239 -0.1262418
v 0.06284151 0.08390239 -0.1262418
v 0.06284151 0.08390239 -0.1262418
v 0.06284151 0.08390239 -0.1262418
v 0.06284151 0.08390239 -0.1262418
v -0.1323315 0.08390239 -0.1262418
v -0.1323315 0.08390239 -0.1262418
v -0.1323315 0.08390239 -0.1262418
v -0.1323315 0.08390239 -0.1262418
v -0.1323315 0.08390242 -0.1343267
v -0.1323315 0.08390242 -0.1343267
v -0.1323315 0.08390242 -0.1343267
v -0.1323315 0.08390242 -0.1343267
v 0.06284151 0.08390242 -0.1343267
v 0.06284151 0.08390242 -0.1343267
v 0.06284151 0.08390242 -0.1343267
v 0.06284151 0.08390242 -0.1343267
v 0.06284151 0.08390242 -0.1343267
v 0.06284151 0.09990236 -0.1262417
v 0.06284151 0.09990236 -0.1262417
v 0.06284151 0.09990236 -0.1262417
v 0.06284151 0.09990236 -0.1262417
v 0.06284151 0.09990236 -0.1262417
v 0.06284151 0.09990236 -0.1262417
v 0.0628415 0.09990239 -0.1343267
v 0.0628415 0.09990239 -0.1343267
v 0.0628415 0.09990239 -0.1343267
v -0.1158511 0.09990236 -0.1262417
v -0.1158511 0.09990236 -0.1262417
v -0.1158511 0.09990236 -0.1262417
v -0.1331955 0.08390239 -0.1262478
v -0.1331955 0.08390239 -0.1262478
v -0.1373411 0.08390242 -0.1343267
v -0.1373411 0.08390242 -0.1343267
v 0.1880362 0.08390242 -0.1343267
v 0.2652545 0.04622297 -0.1343267
v 0.2652545 0.04622297 -0.1343267
v 0.2652545 0.04622297 -0.1343267
v 0.1845158 0.08390239 -0.127091
v 0.1845158 0.08390239 -0.127091
v 0.1516146 0.09990236 -0.1268614
v 0.1516146 0.09990236 -0.1268614
v 0.1516146 0.09990236 -0.1268614
v 0.06284151 0.1378842 -0.1043862
v 0.1552468 0.09990239 -0.1343267
v 0.0628415 0.1399359 -0.1130278
v 0.0628415 0.1399359 -0.1130278
v -0.0164969 0.1719451 -0.08478682
v -0.2652498 -0.03411238 -0.1343267
v -0.1323315 -0.06729776 -0.1262418
v -0.1323315 -0.06729776 -0.1262418
v -0.1323315 -0.06729776 -0.1262418
v 0.06284151 -0.119536 -0.1343268
v 0.06284151 -0.119536 -0.1343268
v 0.06284151 -0.1178323 -0.1262418
v 0.06284151 -0.1178323 -0.1262418
v -0.1323315 -0.0690015 -0.1343267
v -0.1323315 -0.0690015 -0.1343267
v -0.1323315 -0.0690015 -0.1343267
v 0.2652545 -0.1719451 -0.1343268
v 0.2652545 -0.1719451 -0.1343268
v 0.2652545 -0.01755905 0.1343268
vt 0.6325 0.9874
vt 0.6649894 0.4481855
vt 0.659102 0.4477727
vt 0.8152 0.4494
vt 0.6325 0.9701
vt 0.6325 0.961
vt 0.6147596 0.9701002
vt 0.6334307 0.9874
vt 0.6638 0.4491
vt 0.9173374 0.4495
vt 0.9485321 0.4179573
vt 0.8188 0.4522
vt 0.7280804 0.9701
vt 0.6222854 0.9090422
vt 0.7319278 0.9609997
vt 0.6314812 0.9115744
vt 0.1445937 0.8773803
vt 0.5425663 0.2972431
vt 0.6648756 0.3274092
vt 0.8197 0.4457
vt 0.82 0.4495
vt 0.6428719 0.2523479
vt 0.9788775 0.2429691
vt 0.5425148 0.2966366
vt 0.3874005 0.2062899
vt 0.3038291 0.2411704
vt 0.8197 0.4457
vt 0.8152 0.4494
vt 0.4223754 0.9874001
vt 0.4223754 0.9874001
vt 0.6325 0.9874
vt 0.8150989 0.4477682
vt 0.8150989 0.4477682
vt 0.6325 0.9874
vt 0.6325 0.9874
vt 0.6578 0.4491
vt 0.6646989 0.4477682
vt 0.6638 0.4491
vt 0.6578 0.4491
vt 0.6597369 0.4491
vt 0.659102 0.4477727
vt 0.82 0.4495
vt 0.8190251 0.4495
vt 0.82 0.4495
vt 0.8196968 0.4479191
vt 0.8196968 0.4479191
vt 0.6325 0.9701
vt 0.4223753 0.9700998
vt 0.23 0.9669
vt 0.6233 0.9559
vt 0.6233 0.9559
vt 0.23 0.9669
vt 0.6309144 0.9600677
vt 0.6325 0.961
vt 0.6325 0.961
vt 0.6147596 0.9701002
vt 0.6147596 0.9701002
vt 0.03764082 0.9669001
vt 0.6589 0.4491
vt 0.6589 0.4491
vt 0.6558006 0.4491
vt 0.6558006 0.4491
vt 0.899353 0.4479198
vt 0.9485321 0.4179573
vt 0.9784659 0.417716
vt 0.4363686 0.4169165
vt 0.9141541 0.4524003
vt 0.7635035 0.9873999
vt 0.7280798 0.9701
vt 0.7280804 0.9701
vt 0.7281584 0.9711106
vt 0.23 0.919704
vt 0.7319286 0.961
vt 0.6314812 0.9115744
vt 0.6325 0.9121734
vt 0.1445937 0.8773803
vt 0.5425663 0.2972431
vt 0.6647596 0.3272426
vt 0.6647596 0.3272426
vt 0.6648756 0.3274092
vt 0.8199271 0.2854271
vt 0.8177948 0.2929688
vt 0.8151799 0.2869602
vt 0.8152 0.4494
vt 0.6428719 0.2523479
vt 0.658987 0.3256245
vt 0.6428719 0.2523479
vt 0.2664625 0.4168342
vt 0.2664625 0.4168342
vt 0.3874005 0.2062899
vn -0.006980066 1.629167E-07 -0.9999757
vn 1 0 0
vn 1 0 0
vn -1 0 0
vn -0.006980066 1.629167E-07 -0.9999757
vn 0 -1 -1.629207E-07
vn 0.006980066 1.629167E-07 -0.9999757
vn 0.006980066 1.629167E-07 -0.9999757
vn 0 1 1.629207E-07
vn 0 0.7071051 -0.7071086
vn 0 1.629207E-07 -1
vn 0 1 1.567853E-06
vn -0.006980066 1.629167E-07 -0.9999757
vn -1 3.445975E-07 5.614206E-14
vn 0 -1 -1.629207E-07
vn -1 3.445975E-07 5.614206E-14
vn 0 0.4987456 -0.8667485
vn 0 -0.912747 -0.4085254
vn 1 0 0
vn -1 0 0
vn -1 0 0
vn 0 -0.9153733 -0.4026062
vn 0.8013726 9.745352E-08 -0.5981655
vn 0 -0.9127933 -0.4084219
vn 1 0 0
vn 1 0 0
vn -1 0 0
vn 0 1 1.431241E-06
vn 0.006980065 1.629167E-07 -0.9999756
vn 0.006980065 1.629167E-07 -0.9999756
vn -0.006980066 1.629167E-07 -0.9999757
vn 0 1.629207E-07 -1
vn 0 1.629207E-07 -1
vn 0.006980066 1.629167E-07 -0.9999757
vn 0.006980066 1.629167E-07 -0.9999757
vn 0 0.7071076 -0.707106
vn 0 1.629207E-07 -1
vn 0 1 1.629207E-07
vn 0 0.7071076 -0.707106
vn 0 0.7071076 -0.707106
vn 1 0 0
vn 0 0.7071073 -0.7071062
vn 0 0.7071081 -0.7071055
vn -1 0 0
vn 0 1.629207E-07 -1
vn 0 1.629207E-07 -1
vn 0 -1 -1.629207E-07
vn 0.006980066 1.629167E-07 -0.9999757
vn 0 0.4987456 -0.8667485
vn -1 3.445975E-07 5.614206E-14
vn -1 3.445975E-07 5.614206E-14
vn 0 0.4987456 -0.8667485
vn -1 3.445976E-07 5.614207E-14
vn 0 -1 -1.629207E-07
vn 0 0.46969 -0.8828315
vn 0.006980066 1.629167E-07 -0.9999757
vn 0.006980066 1.629167E-07 -0.9999757
vn 0 0.4987456 -0.8667484
vn 0 0.7071069 -0.7071067
vn 0 0.7071069 -0.7071067
vn 0 0.7071076 -0.707106
vn 0 0.7071076 -0.707106
vn 0 1.629207E-07 -1
vn 0 1.629207E-07 -1
vn 0.7210037 1.128928E-07 -0.6929312
vn 1 0 0
vn 0 0.9986847 0.05127148
vn -0.006980066 1.629167E-07 -0.9999756
vn 0 -1 -1.629207E-07
vn -0.006980066 1.629167E-07 -0.9999757
vn 0 -1 -1.629207E-07
vn 0 0.4987455 -0.8667484
vn 0 0.46969 -0.8828315
vn -1 3.445975E-07 5.614206E-14
vn 0 0.46969 -0.8828315
vn 0 0.4987456 -0.8667485
vn 0 -0.912747 -0.4085254
vn 0 1.629207E-07 -1
vn 0 1.629207E-07 -1
vn 1 0 0
vn 0 1.629207E-07 -1
vn -0.8866562 7.533929E-08 -0.4624293
vn 0 1.629207E-07 -1
vn -1 0 0
vn 0 -0.9153733 -0.4026062
vn 1 0 0
vn 0 -0.9153733 -0.4026062
vn 1 0 0
vn 1 0 0
vn 1 0 0
g box6_sh_5_0
f 1/1/1 5/5/5 13/13/13
f 69/69/69 47/47/47 6/6/6
f 3/3/3 2/2/2 19/19/19
f 4/4/4 21/21/21 27/27/27
f 28/28/28 12/12/12 42/42/42
f 34/34/34 8/8/8 7/7/7
f 29/29/29 35/35/35 56/56/56
f 57/57/57 48/48/48 30/30/30
f 59/59/59 36/36/36 38/38/38
f 60/60/60 39/39/39 9/9/9
f 22/22/22 18/18/18 61/61/61
f 62/62/62 40/40/40 85/85/85
f 49/49/49 58/58/58 17/17/17
f 10/10/10 43/43/43 67/67/67
f 68/68/68 31/31/31 70/70/70
f 16/16/16 53/53/53 50/50/50
f 51/51/51 14/14/14 74/74/74
f 71/71/71 54/54/54 15/15/15
f 73/73/73 55/55/55 75/75/75
f 72/72/72 52/52/52 76/76/76
f 32/32/32 83/83/83 78/78/78
f 79/79/79 37/37/37 33/33/33
f 84/84/84 44/44/44 20/20/20
f 86/86/86 41/41/41 80/80/80
f 11/11/11 81/81/81 45/45/45
f 46/46/46 63/63/63 64/64/64
f 82/82/82 65/65/65 23/23/23
f 88/88/88 66/66/66 25/25/25
f 24/24/24 77/77/77 87/87/87
f 26/26/26 89/89/89 90/90/90
