g box6_sh_6
v 0.0418022 -0.182361 0.237418
v 0.0418022 -0.2 0.244305
v 0.0418022 -0.179865 0.239644
v 0.0418022 -0.195748 0.25
v -0.1548558 -0.2 0.244305
v -0.1548558 -0.1999999 -0.244305
v -0.1606118 -0.195748 0.25
v -0.1606118 -0.1957479 -0.25
v 0.0418022 0.07200003 0.239644
v 0.0418022 0.07200003 0.25
v -0.1538928 0.088 0.243281
v 0.0418022 0.088 0.239644
v -0.1606118 0.07200003 0.25
v -0.1538928 0.07200003 0.243281
v -0.1606118 0.088 0.25
v 0.04180221 0.088 0.25
v -0.1272488 0.2 0.190413
v -0.1538928 0.08800003 -0.05943941
v -0.1606118 -0.008649394 -0.25
v -0.1538928 0.07200009 -0.08984939
v 0.1387825 0.088 0.239644
v 0.0418022 0.1283914 0.2173094
v -0.1606118 0.08800006 -0.06630548
v -0.1606118 0.07200009 -0.09671544
v 0.04180221 0.132996 0.226061
v -0.1272488 0.2 0.1806581
v -0.1538928 0.07200009 -0.08984933
v -0.1177029 0.2 0.190413
v 0.07651387 -0.182361 0.237418
v 0.07672754 -0.179865 0.239644
v 0.1606118 0.07626319 0.239644
v 0.0418022 -0.1834343 0.02514934
v 0.0418022 -0.1999999 0.03445262
v -0.1451096 -0.1999999 -0.244305
v -0.1473271 -0.1957479 -0.25
v 0.1074284 -0.1829408 0.1227462
v -0.09112081 -0.04648724 -0.25
v -0.09111609 -0.04601462 -0.25
v 0.0418022 -0.182361 0.237418
v 0.0418022 -0.182361 0.237418
v 0.0418022 -0.182361 0.237418
v 0.0418022 -0.182361 0.237418
v 0.0418022 -0.182361 0.237418
v 0.0418022 -0.2 0.244305
v 0.0418022 -0.2 0.244305
v 0.0418022 -0.2 0.244305
v 0.0418022 -0.2 0.244305
v 0.0418022 -0.179865 0.239644
v 0.0418022 -0.179865 0.239644
v 0.0418022 -0.179865 0.239644
v 0.0418022 -0.179865 0.239644
v 0.0418022 -0.179865 0.239644
v 0.0418022 -0.195748 0.25
v 0.0418022 -0.195748 0.25
v 0.0418022 -0.195748 0.25
v 0.0418022 -0.195748 0.25
v 0.0418022 -0.195748 0.25
v -0.1548558 -0.2 0.244305
v -0.1548558 -0.2 0.244305
v -0.1548558 -0.2 0.244305
v -0.1548558 -0.2 0.244305
v -0.1548558 -0.1999999 -0.244305
v -0.1548558 -0.1999999 -0.244305
v -0.1548558 -0.1999999 -0.244305
v -0.1548558 -0.1999999 -0.244305
v -0.1548558 -0.1999999 -0.244305
v -0.1606118 -0.195748 0.25
v -0.1606118 -0.195748 0.25
v -0.1606118 -0.195748 0.25
v -0.1606118 -0.195748 0.25
v -0.1606118 -0.195748 0.25
v -0.1606118 -0.195748 0.25
v -0.1606118 -0.1957479 -0.25
v -0.1606118 -0.1957479 -0.25
v -0.1606118 -0.1957479 -0.25
v -0.1606118 -0.1957479 -0.25
v -0.1606118 -0.1957479 -0.25
v -0.1606118 -0.1957479 -0.25
v 0.0418022 0.07200003 0.239644
v 0.0418022 0.07200003 0.239644
v 0.0418022 0.07200003 0.239644
v 0.0418022 0.07200003 0.239644
v 0.0418022 0.07200003 0.239644
v 0.0418022 0.07200003 0.239644
v 0.0418022 0.07200003 0.239644
v 0.0418022 0.07200003 0.25
v 0.0418022 0.07200003 0.25
v 0.0418022 0.07200003 0.25
v 0.0418022 0.07200003 0.25
v 0.0418022 0.07200003 0.25
v -0.1538928 0.088 0.243281
v -0.1538928 0.088 0.243281
v -0.1538928 0.088 0.243281
v -0.1538928 0.088 0.243281
v -0.1538928 0.088 0.243281
v -0.1538928 0.088 0.243281
v 0.0418022 0.088 0.239644
v 0.0418022 0.088 0.239644
v 0.0418022 0.088 0.239644
v 0.0418022 0.088 0.239644
v 0.0418022 0.088 0.239644
v -0.1606118 0.07200003 0.25
v -0.1606118 0.07200003 0.25
v -0.1606118 0.07200003 0.25
v -0.1606118 0.07200003 0.25
v -0.1538928 0.07200003 0.243281
v -0.1538928 0.07200003 0.243281
v -0.1538928 0.07200003 0.243281
v -0.1538928 0.07200003 0.243281
v -0.1606118 0.088 0.25
v -0.1606118 0.088 0.25
v -0.1606118 0.088 0.25
v -0.1606118 0.088 0.25
v 0.04180221 0.088 0.25
v 0.04180221 0.088 0.25
v 0.04180221 0.088 0.25
v 0.04180221 0.088 0.25
v 0.04180221 0.088 0.25
v -0.1272488 0.2 0.190413
v -0.1272488 0.2 0.190413
v -0.1272488 0.2 0.190413
v -0.1272488 0.2 0.190413
v -0.1538928 0.08800003 -0.05943941
v -0.1538928 0.08800003 -0.05943941
v -0.1606118 -0.008649394 -0.25
v -0.1538928 0.07200009 -0.08984939
v 0.1387825 0.088 0.239644
v 0.1387825 0.088 0.239644
v 0.0418022 0.1283914 0.2173094
v -0.1606118 0.08800006 -0.06630548
v -0.1606118 0.08800006 -0.06630548
v -0.1606118 0.07200009 -0.09671544
v -0.1606118 0.07200009 -0.09671544
v -0.1606118 0.07200009 -0.09671544
v 0.04180221 0.132996 0.226061
v 0.04180221 0.132996 0.226061
v -0.1272488 0.2 0.1806581
v -0.1538928 0.07200009 -0.08984933
v -0.1177029 0.2 0.190413
v -0.1177029 0.2 0.190413
v 0.07651387 -0.182361 0.237418
v 0.07651387 -0.182361 0.237418
v 0.07672754 -0.179865 0.239644
v 0.07672754 -0.179865 0.239644
v 0.1606118 0.07626319 0.239644
v 0.0418022 -0.1834343 0.02514934
v 0.0418022 -0.1834343 0.02514934
v 0.0418022 -0.1999999 0.03445262
v 0.0418022 -0.1999999 0.03445262
v 0.0418022 -0.1999999 0.03445262
v -0.1451096 -0.1999999 -0.244305
v -0.1473271 -0.1957479 -0.25
v -0.1473271 -0.1957479 -0.25
v 0.1074284 -0.1829408 0.1227462
v -0.09112081 -0.04648724 -0.25
v -0.09111609 -0.04601462 -0.25
vt 0.2127 0.1873
vt 0.2153 0.1944
vt 0.214 0.1869
vt 0.2178 0.1937
vt 0.2153 0.2732
vt 0.0238 0.2729
vt 0.2176 0.2761
vt 0.0209 0.2741
vt 0.6325 0.9874
vt 0.6643 0.2227
vt 0.8432 0.9701
vt 0.6325 0.9701
vt 0.6556 0.2188
vt 0.8432 0.9874
vt 0.8503 0.961
vt 0.6325 0.961
vt 0.8144 0.8244
vt 0.2687 0.7827507
vt 0.5007826 0.3833191
vt 0.2515 0.8154944
vt 0.1256026 0.9667
vt 0.23 0.9165899
vt 0.2759 0.7901345
vt 0.4649 0.0252
vt 0.6325001 0.906121
vt 0.4017 0.5242047
vt 0.4718 0.2936181
vt 0.4119828 0.5137
vt 0.2127 0.1733372
vt 0.214 0.1728298
vt 0.757025 0.2236001
vt 0.1273998 0.187438
vt 0.1331389 0.1943141
vt 0.02380991 0.2689997
vt 0.0238 0.2729
vt 0.1665855 0.1608784
vt 0.5551178 0.3529086
vt 0.5532322 0.3532915
vt 0.2127 0.1873
vt 0.2127 0.1873
vt 0.2127 0.1873
vt 0.2127 0.1873
vt 0.2127 0.1873
vt 0.2153 0.1944
vt 0.2153 0.1944
vt 0.2153 0.1944
vt 0.2153 0.1944
vt 0.214 0.1869
vt 0.657 0.2188
vt 0.657 0.2227
vt 0.214 0.1869
vt 0.6653 0.0266
vt 0.2178 0.1937
vt 0.2178 0.1937
vt 0.657 0.2227
vt 0.218 0.1951
vt 0.6556 0.2188
vt 0.2153 0.2732
vt 0.2153 0.2732
vt 0.2178 0.1937
vt 0.2153 0.2732
vt 0.0209 0.2751
vt 0.2168 0.2761
vt 0.0238 0.2729
vt 0.0238 0.2729
vt 0.0209 0.2741
vt 0.2153 0.2732
vt 0.657 0.2188
vt 0.6572 0.0133
vt 0.0238 0.2729
vt 0.4687 0.0267
vt 0.4649 0.0266
vt 0.2176 0.2761
vt 0.5005 0.2334
vt 0.4687 0.0267
vt 0.4649 0.0252
vt 0.5004288 0.2334
vt 0.5004288 0.2334
vt 0.6325 0.9874
vt 0.657 0.2188
vt 0.6556 0.2256
vt 0.6643901 0.219483
vt 0.6643901 0.219483
vt 0.6643901 0.219483
vt 0.6643901 0.219483
vt 0.6643 0.2227
vt 0.6572 0.0133
vt 0.657 0.2188
vt 0.5021 0.2256
vt 0.6643 0.2227
vt 0.8432 0.9701
vt 0.8432 0.9701
vt 0.8432 0.9701
vt 0.2687 0.4568
vt 0.2687 0.4568
vt 0.2687 0.4568
vt 0.6325 0.9701
vt 0.23 0.9667
vt 0.6233 0.9559
vt 0.6233 0.9559
vt 0.6643325 0.2317361
vt 0.6556 0.2227
vt 0.4649 0.0266
vt 0.4687 0.0250278
vt 0.4687 0.0250278
vt 0.2515 0.4568
vt 0.5021 0.2227
vt 0.657 0.2227
vt 0.4718 0.02567285
vt 0.8503 0.961
vt 0.2759 0.4496
vt 0.2759 0.4496
vt 0.2759 0.4496
vt 0.6325 0.961
vt 0.6325 0.961
vt 0.6325 0.961
vt 0.6325 0.961
vt 0.6332417 0.9613416
vt 0.4017 0.5137
vt 0.4017 0.5137
vt 0.8144 0.8244
vt 0.4017 0.5137
vt 0.2687 0.7827522
vt 0.2687 0.7826127
vt 0.4649 0.0266
vt 0.2515 0.815502
vt 0.7399597 0.2324318
vt 0.7399597 0.2324318
vt 0.6222211 0.9060695
vt 0.2759 0.790168
vt 0.2758999 0.7900856
vt 0.4649 0.0252
vt 0.4687 0.0267
vt 0.4687 0.3038999
vt 0.6329437 0.9063253
vt 0.6329437 0.9063253
vt 0.4017 0.5242048
vt 0.4718 0.2936181
vt 0.8041285 0.8244
vt 0.8041285 0.8244
vt 0.2127 0.1733372
vt 0.2126822 0.1732854
vt 0.6925355 0.02685052
vt 0.6925355 0.02685052
vt 0.757025 0.2236001
vt 0.1244388 0.1871576
vt 0.1273998 0.187438
vt 0.1331385 0.1943143
vt 0.133253 0.1943711
vt 0.133253 0.1943711
vt 0.0209 0.2751
vt 0.0238 0.2729
vt 0.5108408 0.2334
vt 0.1665855 0.1608784
vt 0.5551178 0.3529086
vt 0.5551223 0.353287
vn 1 2.497278E-07 4.068582E-14
vn 1 2.497278E-07 4.068582E-14
vn 1 2.497278E-07 4.068582E-14
vn 1 2.497278E-07 4.068582E-14
vn 0 -0.8012989 0.5982642
vn -0.5941705 -0.8043391 -1.310435E-07
vn -0.5941736 -0.8043368 -1.310431E-07
vn 0 -0.8012978 -0.5982657
vn 0.01858188 -1.628925E-07 0.9998274
vn 1 0 0
vn 0.01858188 -1.628925E-07 0.9998274
vn 0.01858188 -1.628925E-07 0.9998274
vn 0 -1.629207E-07 1
vn 0.01858188 -1.628925E-07 0.9998274
vn 0 -1 -1.629207E-07
vn 0 -1 -1.629207E-07
vn 0 0.4696897 0.8828316
vn 0 -1 -1.629207E-07
vn -0.7071068 1.152023E-07 -0.7071068
vn -1 0 0
vn 0 0.4839017 0.8751224
vn 0 0.4839018 0.8751224
vn -0.9583827 0.2854867 4.651168E-08
vn -0.7071068 -1.152023E-07 0.7071068
vn 0 0.4696897 0.8828316
vn 0 1 1.629207E-07
vn 6.53276E-07 1 1.629207E-07
vn 0 1 1.629207E-07
vn 0 -0.665589 0.7463185
vn 0 -0.665589 0.7463185
vn 0 -1.629207E-07 1
vn 1 -3.90431E-07 -6.360928E-14
vn 0 -1 -1.629207E-07
vn 0 -1 -1.629207E-07
vn 0 -0.8012978 -0.5982657
vn 0 -0.9999872 0.0050565
vn 0 1.629207E-07 -1
vn 0.9059596 6.897477E-08 -0.4233641
vn 1 2.497278E-07 4.068582E-14
vn 0 -0.665589 0.7463185
vn 1 -3.90431E-07 -6.360928E-14
vn 0 -0.9999872 0.0050565
vn 0 -0.9999872 0.0050565
vn 0 -0.8012989 0.5982642
vn 1 -3.90431E-07 -6.360928E-14
vn 0 -1 -1.629207E-07
vn 1 -3.90431E-07 -6.360928E-14
vn 0 -0.665589 0.7463185
vn 1 0 0
vn 1 0 0
vn 0 -0.665589 0.7463185
vn 0 -1.629207E-07 1
vn 0 -0.8012989 0.5982642
vn 1 2.497278E-07 4.068582E-14
vn 1 0 0
vn 0 -0.8012989 0.5982642
vn 0 -1.629207E-07 1
vn -0.5941736 -0.8043368 -1.310431E-07
vn 0 -1 -1.629207E-07
vn 0 -0.8012989 0.5982642
vn 0 -1 -1.629207E-07
vn 0 -0.8012978 -0.5982657
vn -0.5941705 -0.8043391 -1.310435E-07
vn 0 -1 -1.629207E-07
vn 0 -1 -1.629207E-07
vn 0 -0.8012978 -0.5982657
vn 0 -0.8012989 0.5982642
vn 0 -1.629207E-07 1
vn 0 -1.629207E-07 1
vn -0.5941705 -0.8043391 -1.310435E-07
vn -0.7071068 0.7071068 1.152023E-07
vn -1 0 0
vn -0.5941736 -0.8043368 -1.310431E-07
vn -0.7071068 1.152023E-07 -0.7071068
vn -0.7071068 0.7071068 1.152023E-07
vn -0.7071068 -1.152023E-07 0.7071068
vn 0 1.629207E-07 -1
vn 0 1.629207E-07 -1
vn 0.01858188 -1.628925E-07 0.9998274
vn 1 0 0
vn 0 1 -7.163173E-07
vn 0 -1.629207E-07 1
vn 0 -1.629207E-07 1
vn 0 -1.629207E-07 1
vn 0 -1.629207E-07 1
vn 1 0 0
vn 0 -1.629207E-07 1
vn 0 -1.629207E-07 1
vn 0 1 -4.081783E-06
vn 0 1 1.629207E-07
vn 0 -1 -1.629207E-07
vn 0.01858188 -1.628925E-07 0.9998274
vn 0 -1 -1.629207E-07
vn 0 -1 -1.629207E-07
vn -1 0 0
vn -1 0 0
vn 0 -1 -1.629207E-07
vn 0 0.4839017 0.8751224
vn 1 -6.244505E-07 -1.017359E-13
vn 1 -6.244505E-07 -1.017359E-13
vn 0 -1.629207E-07 1
vn 0 0.7071069 0.7071066
vn -1 0 0
vn -0.7071068 0.7071068 1.152023E-07
vn -0.7071068 0.7071068 1.152023E-07
vn -1 0 0
vn 0 0.7071099 0.7071037
vn 0 0.7071066 0.7071069
vn 0 1 1.629207E-07
vn 0 0.4696897 0.8828316
vn 0 -1 -1.629207E-07
vn -0.9583827 0.2854867 4.651168E-08
vn 0 -1 -1.629207E-07
vn 0 -1 -1.629207E-07
vn 0 0.4696897 0.8828316
vn 0 0.4696897 0.8828316
vn 0 0.4696897 0.8828316
vn 1 -6.244505E-07 -1.017359E-13
vn -0.9583827 0.2854867 4.651168E-08
vn 0 1 1.629207E-07
vn 0 0.4696897 0.8828316
vn -0.9583827 0.2854867 4.651168E-08
vn -1 0 0
vn 0 -1 -1.629207E-07
vn -1 0 0
vn -1 0 0
vn 0 -1.629207E-07 1
vn 0 -1.629207E-07 1
vn 1 -6.244504E-07 -1.017359E-13
vn 0 -1 -1.629207E-07
vn -0.9583827 0.2854867 4.651168E-08
vn -0.7071068 -1.152023E-07 0.7071068
vn -0.7071068 0.7071068 1.152023E-07
vn -0.7071077 0.7071059 1.152022E-07
vn 1 -6.244505E-07 -1.017359E-13
vn 1 -6.244505E-07 -1.017359E-13
vn -0.9583827 0.2854867 4.651168E-08
vn 6.53276E-07 1 1.629207E-07
vn 0 0.4696897 0.8828316
vn 0 0.4696897 0.8828316
vn 0 -0.665589 0.7463185
vn 0 -0.9999872 0.0050565
vn 0 -1.629207E-07 1
vn 0 -1.629207E-07 1
vn 0 -1.629207E-07 1
vn 1 -3.90431E-07 -6.360928E-14
vn 0 -0.9999872 0.0050565
vn 1 -3.90431E-07 -6.360929E-14
vn 0 -1 -1.629207E-07
vn 0 -1 -1.629207E-07
vn 0 -0.8012978 -0.5982657
vn 0 -0.8012978 -0.5982657
vn 0 1.629207E-07 -1
vn 0 -0.9999872 0.0050565
vn 0 1.629207E-07 -1
vn 0 1.629207E-07 -1
g box6_sh_6_0
f 2/2/2 1/1/1 4/4/4
f 44/44/44 53/53/53 5/5/5
f 39/39/39 3/3/3 54/54/54
f 6/6/6 58/58/58 7/7/7
f 9/9/9 12/12/12 11/11/11
f 91/91/91 97/97/97 16/16/16
f 14/14/14 79/79/79 92/92/92
f 15/15/15 93/93/93 114/114/114
f 110/110/110 115/115/115 17/17/17
f 18/18/18 94/94/94 111/111/111
f 20/20/20 106/106/106 95/95/95
f 98/98/98 21/21/21 22/22/22
f 23/23/23 112/112/112 119/119/119
f 120/120/120 28/28/28 26/26/26
f 139/139/139 116/116/116 25/25/25
f 121/121/121 117/117/117 140/140/140
f 48/48/48 40/40/40 29/29/29
f 32/32/32 41/41/41 45/45/45
f 33/33/33 46/46/46 59/59/59
f 10/10/10 55/55/55 49/49/49
f 62/62/62 8/8/8 35/35/35
f 60/60/60 56/56/56 67/67/67
f 86/86/86 50/50/50 80/80/80
f 68/68/68 57/57/57 87/87/87
f 88/88/88 13/13/13 69/69/69
f 63/63/63 70/70/70 73/73/73
f 107/107/107 102/102/102 89/89/89
f 90/90/90 81/81/81 108/108/108
f 38/38/38 74/74/74 19/19/19
f 126/126/126 96/96/96 123/123/123
f 124/124/124 113/113/113 130/130/130
f 71/71/71 103/103/103 24/24/24
f 75/75/75 72/72/72 132/132/132
f 133/133/133 125/125/125 76/76/76
f 135/135/135 118/118/118 99/99/99
f 100/100/100 129/129/129 136/136/136
f 27/27/27 134/134/134 104/104/104
f 105/105/105 109/109/109 138/138/138
f 131/131/131 122/122/122 137/137/137
f 30/30/30 51/51/51 141/141/141
f 82/82/82 52/52/52 143/143/143
f 83/83/83 144/144/144 31/31/31
f 84/84/84 145/145/145 127/127/127
f 128/128/128 101/101/101 85/85/85
f 146/146/146 47/47/47 148/148/148
f 149/149/149 61/61/61 64/64/64
f 65/65/65 34/34/34 150/150/150
f 151/151/151 66/66/66 152/152/152
f 77/77/77 156/156/156 37/37/37
f 155/155/155 153/153/153 78/78/78
f 42/42/42 147/147/147 36/36/36
f 154/154/154 142/142/142 43/43/43
