g Cube.018
v -0.01544105 -0.00660985 0.002373819
v -0.0188312 -0.00660985 0.005763969
v -0.01544105 -0.01 0.005763969
v -0.01544105 -0.01 0.01898367
v -0.0188312 -0.00660985 0.01898367
v -0.01544105 -0.00660985 0.02237382
v -0.01544105 0.00660985 0.002373819
v -0.01544105 0.01 0.005763969
v -0.0188312 0.00660985 0.005763969
v -0.01544105 0.00660985 0.02237382
v -0.0188312 0.00660985 0.01898367
v -0.01544105 0.01 0.01898367
v -0.002221346 -0.00660985 0.002373819
v -0.002221346 -0.01 0.005763969
v 0.001168804 -0.00660985 0.005763969
v -0.002221346 -0.00660985 0.02237382
v 0.001168804 -0.00660985 0.01898367
v -0.002221346 -0.01 0.01898367
v -0.002221346 0.00660985 0.002373819
v 0.001168804 0.00660985 0.005763969
v -0.002221346 0.01 0.005763969
v -0.002221346 0.00660985 0.02237382
v -0.002221346 0.01 0.01898367
v 0.001168804 0.00660985 0.01898367
v -0.002221346 -0.01 0.005763969
v -0.01544105 -0.01 0.005763969
v -0.01544105 -0.01 0.01898367
v -0.002221346 -0.01 0.01898367
v 0.001168804 0.00660985 0.005763969
v 0.001168804 -0.00660985 0.005763969
v 0.001168804 -0.00660985 0.01898367
v 0.001168804 0.00660985 0.01898367
v -0.002221346 0.00660985 0.02237382
v -0.002221346 -0.00660985 0.02237382
v -0.01544105 -0.00660985 0.02237382
v -0.01544105 0.00660985 0.02237382
v -0.0188312 0.00660985 0.01898367
v -0.01979872 0.003034715 0.01652674
v -0.01979872 0.003034715 0.008220896
v -0.0188312 0.00660985 0.005763969
v -0.01544105 0.01 0.005763969
v -0.002221346 0.01 0.005763969
v -0.002221346 0.01 0.01898367
v -0.01544105 0.01 0.01898367
v -0.01544105 0.00660985 0.002373819
v -0.0188312 0.00660985 0.005763969
v -0.0188312 -0.00660985 0.005763969
v -0.01544105 -0.00660985 0.002373819
v -0.01544105 -0.01 0.005763969
v -0.0188312 -0.00660985 0.005763969
v -0.0188312 -0.00660985 0.01898367
v -0.01544105 -0.01 0.01898367
v -0.01544105 -0.00660985 0.02237382
v -0.0188312 -0.00660985 0.01898367
v -0.0188312 0.00660985 0.01898367
v -0.01544105 0.00660985 0.02237382
v -0.01544105 0.01 0.01898367
v -0.0188312 0.00660985 0.01898367
v -0.0188312 0.00660985 0.005763969
v -0.01544105 0.01 0.005763969
v -0.002221346 0.00660985 0.002373819
v -0.002221346 0.01 0.005763969
v -0.01544105 0.01 0.005763969
v -0.01544105 0.00660985 0.002373819
v -0.01544105 0.00660985 0.02237382
v -0.01544105 0.01 0.01898367
v -0.002221346 0.01 0.01898367
v -0.002221346 0.00660985 0.02237382
v 0.001168804 0.00660985 0.01898367
v -0.002221346 0.01 0.01898367
v -0.002221346 0.01 0.005763969
v 0.001168804 0.00660985 0.005763969
v -0.002221346 -0.00660985 0.002373819
v 0.001168804 -0.00660985 0.005763969
v 0.001168804 0.00660985 0.005763969
v -0.002221346 0.00660985 0.002373819
v -0.002221346 0.00660985 0.02237382
v 0.001168804 0.00660985 0.01898367
v 0.001168804 -0.00660985 0.01898367
v -0.002221346 -0.00660985 0.02237382
v -0.002221346 -0.01 0.01898367
v 0.001168804 -0.00660985 0.01898367
v 0.001168804 -0.00660985 0.005763969
v -0.002221346 -0.01 0.005763969
v -0.01544105 -0.00660985 0.002373819
v -0.01544105 -0.01 0.005763969
v -0.002221346 -0.01 0.005763969
v -0.002221346 -0.00660985 0.002373819
v -0.002221346 -0.00660985 0.02237382
v -0.002221346 -0.01 0.01898367
v -0.01544105 -0.01 0.01898367
v -0.01544105 -0.00660985 0.02237382
v -0.01544105 0.00660985 0.002373819
v -0.01544105 -0.00660985 0.002373819
v -0.002221346 -0.00660985 0.002373819
v -0.002221346 0.00660985 0.002373819
v -0.01979872 -0.003034715 0.01652674
v -0.01597452 -0.003034715 0.01652674
v -0.01597452 0.003034715 0.01652674
v -0.01979872 0.003034715 0.01652674
v -0.0188312 -0.00660985 0.01898367
v -0.01979872 -0.003034715 0.01652674
v -0.01979872 0.003034715 0.01652674
v -0.0188312 0.00660985 0.01898367
v -0.0188312 -0.00660985 0.005763969
v -0.01979872 -0.003034715 0.008220896
v -0.01979872 -0.003034715 0.01652674
v -0.0188312 -0.00660985 0.01898367
v -0.0188312 0.00660985 0.005763969
v -0.01979872 0.003034715 0.008220896
v -0.01979872 -0.003034715 0.008220896
v -0.0188312 -0.00660985 0.005763969
v -0.01597452 -0.003034715 0.008220896
v -0.01597452 0.003034715 0.008220896
v -0.01597452 0.003034715 0.01652674
v -0.01597452 -0.003034715 0.01652674
v -0.01979872 0.003034715 0.008220896
v -0.01597452 0.003034715 0.008220896
v -0.01597452 -0.003034715 0.008220896
v -0.01979872 -0.003034715 0.008220896
v -0.01979872 0.003034715 0.01652674
v -0.01597452 0.003034715 0.01652674
v -0.01597452 0.003034715 0.008220896
v -0.01979872 0.003034715 0.008220896
v -0.01979872 -0.003034715 0.008220896
v -0.01597452 -0.003034715 0.008220896
v -0.01597452 -0.003034715 0.01652674
v -0.01979872 -0.003034715 0.01652674
vt 0 0.788336
vt 0.07300162 0.788336
vt 0.07300156 0.8613377
vt 0.3576672 0.8613377
vt 0.3576672 0.788336
vt 0.4306688 0.788336
vt 0 0.5036704
vt 0.07300162 0.4306688
vt 0.07300162 0.5036705
vt 0.4306688 0.5036705
vt 0.3576672 0.5036705
vt 0.3576672 0.4306688
vt 0 0.07300156
vt 0.07300162 0
vt 0.07300162 0.07300162
vt 0.4306688 0.07300162
vt 0.3576672 0.07300162
vt 0.3576672 0
vt 0 0.3576672
vt 0.07300162 0.3576672
vt 0.07300156 0.4306688
vt 0.4306688 0.3576672
vt 0.3576672 0.4306688
vt 0.3576672 0.3576672
vt 0.4306688 0.5036704
vt 0.7153344 0.5036705
vt 0.7153344 0.788336
vt 0.4306688 0.788336
vt 0.07300162 0.3576672
vt 0.07300162 0.07300162
vt 0.3576672 0.07300162
vt 0.3576672 0.3576672
vt 1 0
vt 1 0.2846656
vt 0.7153344 0.2846656
vt 0.7153344 0
vt 0.3576672 0.5036705
vt 0.2982222 0.5239934
vt 0.1324466 0.5239934
vt 0.07300162 0.5036705
vt 0.4306688 0.07300156
vt 0.7153344 0.07300162
vt 0.7153344 0.3576672
vt 0.4306688 0.3576672
vt 0 0.5036704
vt 0.07300162 0.5036705
vt 0.07300162 0.788336
vt 0 0.788336
vt 0.07300156 0.8613377
vt 0.07300162 0.788336
vt 0.3576672 0.788336
vt 0.3576672 0.8613377
vt 0.4306688 0.788336
vt 0.3576672 0.788336
vt 0.3576672 0.5036705
vt 0.4306688 0.5036705
vt 0.3576672 0.4306688
vt 0.3576672 0.5036705
vt 0.07300162 0.5036705
vt 0.07300162 0.4306688
vt 0.7153344 0
vt 0.7153344 0.07300162
vt 0.4306688 0.07300156
vt 0.4306688 0
vt 0.4306688 0.4306688
vt 0.4306688 0.3576672
vt 0.7153344 0.3576672
vt 0.7153344 0.4306688
vt 0.3576672 0.3576672
vt 0.3576672 0.4306688
vt 0.07300156 0.4306688
vt 0.07300162 0.3576672
vt 0 0.07300156
vt 0.07300162 0.07300162
vt 0.07300162 0.3576672
vt 0 0.3576672
vt 0.4306688 0.3576672
vt 0.3576672 0.3576672
vt 0.3576672 0.07300162
vt 0.4306688 0.07300162
vt 0.3576672 0
vt 0.3576672 0.07300162
vt 0.07300162 0.07300162
vt 0.07300162 0
vt 0.7153344 0.4306688
vt 0.7153344 0.5036705
vt 0.4306688 0.5036704
vt 0.4306688 0.4306688
vt 0.4306688 0.8613377
vt 0.4306688 0.788336
vt 0.7153344 0.788336
vt 0.7153344 0.8613377
vt 1 0.2846656
vt 1 0.5693313
vt 0.7153344 0.5693313
vt 0.7153344 0.2846656
vt 0.9681237 0.8133509
vt 0.9246168 0.8133509
vt 0.9246168 0.5693313
vt 0.9681237 0.5693313
vt 0.3576672 0.788336
vt 0.2982222 0.7680131
vt 0.2982222 0.5239934
vt 0.3576672 0.5036705
vt 0.07300162 0.788336
vt 0.1324466 0.7680131
vt 0.2982222 0.7680131
vt 0.3576672 0.788336
vt 0.07300162 0.5036705
vt 0.1324466 0.5239934
vt 0.1324466 0.7680131
vt 0.07300162 0.788336
vt 0.88111 0.5693312
vt 0.88111 0.8133509
vt 0.7153344 0.8133509
vt 0.7153344 0.5693312
vt 0.88111 0.5693313
vt 0.9246168 0.5693313
vt 0.9246168 0.8133509
vt 0.88111 0.8133509
vt 0.8023481 0.9791265
vt 0.7588412 0.9791265
vt 0.7588412 0.8133509
vt 0.8023481 0.8133509
vt 0.7153344 0.8133509
vt 0.7588413 0.8133509
vt 0.7588412 0.9791265
vt 0.7153344 0.9791265
vn -0.5773503 -0.57735 -0.5773504
vn -0.5773503 -0.57735 -0.5773504
vn -0.5773503 -0.57735 -0.5773504
vn -0.5773501 -0.5773501 0.5773506
vn -0.5773501 -0.5773501 0.5773506
vn -0.5773501 -0.5773501 0.5773506
vn -0.5773503 0.57735 -0.5773504
vn -0.5773503 0.57735 -0.5773504
vn -0.5773503 0.57735 -0.5773504
vn -0.5773501 0.5773501 0.5773506
vn -0.5773501 0.5773501 0.5773506
vn -0.5773501 0.5773501 0.5773506
vn 0.5773502 -0.5773502 -0.5773503
vn 0.5773502 -0.5773502 -0.5773503
vn 0.5773502 -0.5773502 -0.5773503
vn 0.57735 -0.5773503 0.5773504
vn 0.57735 -0.5773503 0.5773504
vn 0.57735 -0.5773503 0.5773504
vn 0.5773502 0.5773502 -0.5773503
vn 0.5773502 0.5773502 -0.5773503
vn 0.5773502 0.5773502 -0.5773503
vn 0.57735 0.5773503 0.5773504
vn 0.57735 0.5773503 0.5773504
vn 0.57735 0.5773503 0.5773504
vn 0 -1 0
vn 0 -1 0
vn 0 -1 0
vn 0 -1 0
vn 1 0 0
vn 1 0 0
vn 1 0 0
vn 1 0 0
vn 0 0 1
vn 0 0 1
vn 0 0 1
vn 0 0 1
vn -0.965277 0.2612287 0
vn -0.965277 0.2612287 0
vn -0.965277 0.2612287 0
vn -0.965277 0.2612287 0
vn 0 1 0
vn 0 1 0
vn 0 1 0
vn 0 1 0
vn -0.7071068 0 -0.7071068
vn -0.7071068 0 -0.7071068
vn -0.7071068 0 -0.7071068
vn -0.7071068 0 -0.7071068
vn -0.7071069 -0.7071066 0
vn -0.7071069 -0.7071066 0
vn -0.7071069 -0.7071066 0
vn -0.7071069 -0.7071066 0
vn -0.7071066 0 0.7071069
vn -0.7071066 0 0.7071069
vn -0.7071066 0 0.7071069
vn -0.7071066 0 0.7071069
vn -0.7071069 0.7071066 0
vn -0.7071069 0.7071066 0
vn -0.7071069 0.7071066 0
vn -0.7071069 0.7071066 0
vn 0 0.7071068 -0.7071068
vn 0 0.7071068 -0.7071068
vn 0 0.7071068 -0.7071068
vn 0 0.7071068 -0.7071068
vn 0 0.7071068 0.7071068
vn 0 0.7071068 0.7071068
vn 0 0.7071068 0.7071068
vn 0 0.7071068 0.7071068
vn 0.7071068 0.7071068 0
vn 0.7071068 0.7071068 0
vn 0.7071068 0.7071068 0
vn 0.7071068 0.7071068 0
vn 0.7071068 0 -0.7071068
vn 0.7071068 0 -0.7071068
vn 0.7071068 0 -0.7071068
vn 0.7071068 0 -0.7071068
vn 0.7071066 0 0.7071069
vn 0.7071066 0 0.7071069
vn 0.7071066 0 0.7071069
vn 0.7071066 0 0.7071069
vn 0.7071068 -0.7071068 0
vn 0.7071068 -0.7071068 0
vn 0.7071068 -0.7071068 0
vn 0.7071068 -0.7071068 0
vn 0 -0.7071068 -0.7071068
vn 0 -0.7071068 -0.7071068
vn 0 -0.7071068 -0.7071068
vn 0 -0.7071068 -0.7071068
vn 0 -0.7071068 0.7071068
vn 0 -0.7071068 0.7071068
vn 0 -0.7071068 0.7071068
vn 0 -0.7071068 0.7071068
vn 0 0 -1
vn 0 0 -1
vn 0 0 -1
vn 0 0 -1
vn 0 0 -1
vn 0 0 -1
vn 0 0 -1
vn 0 0 -1
vn -0.9304547 0 0.3664072
vn -0.9304547 0 0.3664072
vn -0.9304547 0 0.3664072
vn -0.9304547 0 0.3664072
vn -0.9652771 -0.2612284 0
vn -0.9652771 -0.2612284 0
vn -0.9652771 -0.2612284 0
vn -0.9652771 -0.2612284 0
vn -0.9304546 0 -0.3664074
vn -0.9304546 0 -0.3664074
vn -0.9304546 0 -0.3664074
vn -0.9304546 0 -0.3664074
vn -1 0 0
vn -1 0 0
vn -1 0 0
vn -1 0 0
vn 0 0 1
vn 0 0 1
vn 0 0 1
vn 0 0 1
vn 0 -1 0
vn 0 -1 0
vn 0 -1 0
vn 0 -1 0
vn 0 1 0
vn 0 1 0
vn 0 1 0
vn 0 1 0
g Cube.018_0
f 3/3/3 2/2/2 1/1/1
f 6/6/6 5/5/5 4/4/4
f 9/9/9 8/8/8 7/7/7
f 12/12/12 11/11/11 10/10/10
f 15/15/15 14/14/14 13/13/13
f 18/18/18 17/17/17 16/16/16
f 21/21/21 20/20/20 19/19/19
f 24/24/24 23/23/23 22/22/22
f 27/27/27 26/26/26 25/25/25
f 28/28/28 27/27/27 25/25/25
f 31/31/31 30/30/30 29/29/29
f 32/32/32 31/31/31 29/29/29
f 35/35/35 34/34/34 33/33/33
f 36/36/36 35/35/35 33/33/33
f 39/39/39 38/38/38 37/37/37
f 40/40/40 39/39/39 37/37/37
f 43/43/43 42/42/42 41/41/41
f 44/44/44 43/43/43 41/41/41
f 47/47/47 46/46/46 45/45/45
f 48/48/48 47/47/47 45/45/45
f 51/51/51 50/50/50 49/49/49
f 52/52/52 51/51/51 49/49/49
f 55/55/55 54/54/54 53/53/53
f 56/56/56 55/55/55 53/53/53
f 59/59/59 58/58/58 57/57/57
f 60/60/60 59/59/59 57/57/57
f 63/63/63 62/62/62 61/61/61
f 64/64/64 63/63/63 61/61/61
f 67/67/67 66/66/66 65/65/65
f 68/68/68 67/67/67 65/65/65
f 71/71/71 70/70/70 69/69/69
f 72/72/72 71/71/71 69/69/69
f 75/75/75 74/74/74 73/73/73
f 76/76/76 75/75/75 73/73/73
f 79/79/79 78/78/78 77/77/77
f 80/80/80 79/79/79 77/77/77
f 83/83/83 82/82/82 81/81/81
f 84/84/84 83/83/83 81/81/81
f 87/87/87 86/86/86 85/85/85
f 88/88/88 87/87/87 85/85/85
f 91/91/91 90/90/90 89/89/89
f 92/92/92 91/91/91 89/89/89
f 95/95/95 94/94/94 93/93/93
f 96/96/96 95/95/95 93/93/93
f 99/99/99 98/98/98 97/97/97
f 100/100/100 99/99/99 97/97/97
f 103/103/103 102/102/102 101/101/101
f 104/104/104 103/103/103 101/101/101
f 107/107/107 106/106/106 105/105/105
f 108/108/108 107/107/107 105/105/105
f 111/111/111 110/110/110 109/109/109
f 112/112/112 111/111/111 109/109/109
f 115/115/115 114/114/114 113/113/113
f 116/116/116 115/115/115 113/113/113
f 119/119/119 118/118/118 117/117/117
f 120/120/120 119/119/119 117/117/117
f 123/123/123 122/122/122 121/121/121
f 124/124/124 123/123/123 121/121/121
f 127/127/127 126/126/126 125/125/125
f 128/128/128 127/127/127 125/125/125
