g Cube
v 0.01 0.0088 0.0088
v 0.0088 0.0088 0.01
v 0.0088 0.01 0.0088
v 0.0088 0.0088 -0.01
v 0.01 0.0088 -0.0088
v 0.0088 0.01 -0.0088
v 0.0088 -0.01 0.0088
v 0.0088 -0.0088 0.01
v 0.01 -0.0088 0.0088
v 0.01 -0.0088 -0.0088
v 0.0088 -0.0088 -0.01
v 0.0088 -0.01 -0.0088
v -0.01 0.0088 0.0088
v -0.0088 0.01 0.0088
v -0.0088 0.0088 0.01
v -0.01 0.0088 -0.0088
v -0.0088 0.0088 -0.01
v -0.0088 0.01 -0.0088
v -0.01 -0.0088 0.0088
v -0.0088 -0.0088 0.01
v -0.0088 -0.01 0.0088
v -0.01 -0.0088 -0.0088
v -0.0088 -0.01 -0.0088
v -0.0088 -0.0088 -0.01
v -0.0088 0.01 0.007516661
v 0.0088 0.01 0.0088
v -0.0088 0.01 0.0088
v 0.0088 0.01 0.007516661
v 0.0088 0.01 0.005116659
v -0.0088 0.01 0.005116659
v 0.0088 -0.01 -0.0088
v -0.0088 -0.01 -0.0088
v -0.0088 -0.01 -0.007516661
v 0.0088 -0.01 -0.007516661
v 0.0088 -0.01 -0.005116659
v -0.0088 -0.01 -0.005116659
v -0.01 -0.0088 -0.0088
v -0.01 0.0088 -0.0088
v -0.01 0.0088 -0.007516661
v -0.01 -0.0088 -0.007516661
v -0.01 -0.0088 -0.005116659
v -0.01 0.0088 -0.005116659
v 0.0088 -0.01 0.007516661
v -0.0088 -0.01 0.0088
v 0.0088 -0.01 0.0088
v -0.0088 -0.01 0.007516661
v -0.0088 -0.01 0.005116659
v 0.0088 -0.01 0.005116659
v 0.0088 0.0088 0.01
v 0.0088 -0.0088 0.01
v -0.0088 -0.0088 0.01
v -0.0088 0.0088 0.01
v -0.0088 0.01 -0.0088
v 0.0088 0.01 -0.0088
v 0.0088 0.01 -0.007516661
v -0.0088 0.01 -0.007516661
v -0.0088 0.01 -0.005116659
v 0.0088 0.01 -0.005116659
v 0.01 0.0088 -0.0088
v 0.01 -0.0088 -0.0088
v 0.01 -0.0088 -0.007516661
v 0.01 0.0088 -0.007516661
v 0.01 0.0088 -0.005116659
v 0.01 -0.0088 -0.005116659
v 0.0088 -0.01 -0.005116659
v -0.0088 -0.01 -0.005116659
v -0.0088 -0.01 0.005116659
v 0.0088 -0.01 0.005116659
v -0.0088 0.0088 -0.01
v -0.0088 -0.0088 -0.01
v 0.0088 -0.0088 -0.01
v 0.0088 0.0088 -0.01
v -0.0088 0.01 -0.005116659
v 0.0088 0.01 -0.005116659
v 0.0088 0.01 0.005116659
v -0.0088 0.01 0.005116659
v 0.01 0.0088 -0.005116659
v 0.01 -0.0088 -0.005116659
v 0.01 -0.0088 0.005116659
v 0.01 0.0088 0.005116659
v -0.01 -0.0088 0.007516661
v -0.01 0.0088 0.0088
v -0.01 -0.0088 0.0088
v -0.01 0.0088 0.007516661
v -0.01 0.0088 0.005116659
v -0.01 -0.0088 0.005116659
v -0.01 -0.0088 -0.005116659
v -0.01 0.0088 -0.005116659
v -0.01 0.0088 0.005116659
v -0.01 -0.0088 0.005116659
v 0.01 0.0088 0.007516661
v 0.0088 0.01 0.007516661
v 0.0088 0.01 0.005116659
v 0.01 0.0088 0.005116659
v 0.01 0.0088 -0.007516661
v 0.01 0.0088 -0.005116659
v 0.0088 0.01 -0.005116659
v 0.0088 0.01 -0.007516661
v -0.0088 -0.01 -0.007516661
v -0.01 -0.0088 -0.007516661
v -0.01 -0.0088 -0.005116659
v -0.0088 -0.01 -0.005116659
v -0.0088 -0.01 0.007516661
v -0.0088 -0.01 0.005116659
v -0.01 -0.0088 0.005116659
v -0.01 -0.0088 0.007516661
v 0.0088 -0.01 0.007516661
v 0.01 -0.0088 0.005116659
v 0.0088 -0.01 0.005116659
v 0.01 -0.0088 0.007516661
v 0.0088 -0.01 0.0088
v 0.01 -0.0088 0.0088
v 0.0088 -0.01 -0.007516661
v 0.0088 -0.01 -0.005116659
v 0.01 -0.0088 -0.005116659
v 0.01 -0.0088 -0.007516661
v 0.01 -0.0088 -0.0088
v 0.0088 -0.01 -0.0088
v -0.01 0.0088 0.007516661
v -0.01 0.0088 0.005116659
v -0.0088 0.01 0.005116659
v -0.0088 0.01 0.007516661
v -0.0088 0.01 0.0088
v -0.01 0.0088 0.0088
v -0.0088 0.01 0.007516661
v -0.01 0.0088 -0.007516661
v -0.0088 0.01 -0.007516661
v -0.0088 0.01 -0.005116659
v -0.01 0.0088 -0.005116659
v -0.0088 0.01 -0.007516661
v -0.01 0.0088 -0.0088
v -0.0088 0.01 -0.0088
v -0.0088 0.0088 -0.01
v -0.01 0.0088 -0.0088
v -0.01 -0.0088 -0.0088
v -0.0088 -0.0088 -0.01
v 0.0088 0.0088 -0.01
v 0.0088 0.01 -0.0088
v -0.0088 0.01 -0.0088
v -0.0088 0.0088 -0.01
v 0.01 0.0088 -0.007516661
v 0.0088 0.01 -0.007516661
v 0.0088 0.01 -0.0088
v 0.01 0.0088 -0.0088
v -0.0088 -0.01 0.007516661
v -0.01 -0.0088 0.007516661
v -0.01 -0.0088 0.0088
v -0.0088 -0.01 0.0088
v 0.0088 -0.0088 0.01
v 0.0088 -0.01 0.0088
v -0.0088 -0.01 0.0088
v -0.0088 -0.0088 0.01
v 0.0088 0.0088 0.01
v 0.01 0.0088 0.0088
v 0.01 -0.0088 0.0088
v 0.0088 -0.0088 0.01
v -0.0088 -0.0088 -0.01
v -0.0088 -0.01 -0.0088
v 0.0088 -0.01 -0.0088
v 0.0088 -0.0088 -0.01
v -0.0088 -0.0088 0.01
v -0.01 -0.0088 0.0088
v -0.01 0.0088 0.0088
v -0.0088 0.0088 0.01
v -0.0088 0.0088 0.01
v -0.0088 0.01 0.0088
v 0.0088 0.01 0.0088
v 0.0088 0.0088 0.01
v 0.0088 -0.0088 -0.01
v 0.01 -0.0088 -0.0088
v 0.01 0.0088 -0.0088
v 0.0088 0.0088 -0.01
v 0.01 0.0088 0.0088
v 0.0088 0.01 0.0088
v 0.0088 0.01 0.007516661
v 0.01 0.0088 0.007516661
v 0.01 0.0088 0.005116659
v 0.0088 0.01 0.005116659
v 0.0088 0.01 -0.005116659
v 0.01 0.0088 -0.005116659
v -0.0088 -0.01 -0.0088
v -0.01 -0.0088 -0.0088
v -0.01 -0.0088 -0.007516661
v -0.0088 -0.01 -0.007516661
v -0.0088 -0.01 -0.005116659
v -0.01 -0.0088 -0.005116659
v -0.01 -0.0088 0.005116659
v -0.0088 -0.01 0.005116659
v 0.0088 -0.01 0.005116659
v 0.01 -0.0088 0.005116659
v 0.01 -0.0088 -0.005116659
v 0.0088 -0.01 -0.005116659
v -0.0088 0.01 0.005116659
v -0.01 0.0088 0.005116659
v -0.01 0.0088 -0.005116659
v -0.0088 0.01 -0.005116659
v 0.01 0.0088 0.007516661
v 0.01 0.0088 0.005116659
v 0.01 -0.0088 0.005116659
v 0.01 -0.0088 0.007516661
v 0.01 -0.0088 0.0088
v 0.01 0.0088 0.0088
vt 0.458389 0.749934
vt 0.4687409 0.7349379
vt 0.458389 0.749934
vt 0.4217125 0.01512495
vt 0.4367086 0.01512495
vt 0.4217125 0.0001288137
vt 0.4583891 0.01512495
vt 0.468741 0.01512499
vt 0.4583892 0.0001288874
vt 0.4793508 0.0001288109
vt 0.468999 0.01512486
vt 0.468999 0.01512486
vt 0.2017692 0.250322
vt 0.186773 0.2653181
vt 0.2017692 0.250322
vt 0.4793506 0.4850021
vt 0.4689987 0.4850021
vt 0.4793505 0.4999982
vt 0.4583889 0.2650594
vt 0.4687408 0.2650594
vt 0.4583889 0.2500633
vt 0.186773 0.2350682
vt 0.2017692 0.2500644
vt 0.186773 0.2350682
vt 0.447318 0.5149944
vt 0.458389 0.7349378
vt 0.4583889 0.5149945
vt 0.4473182 0.7349379
vt 0.4369662 0.7349379
vt 0.4369662 0.5149945
vt 0.4793508 0.01512487
vt 0.4793507 0.2350671
vt 0.4904214 0.2350671
vt 0.4904216 0.01512489
vt 0.5007734 0.01512489
vt 0.5007733 0.2350671
vt 0.4793506 0.2650593
vt 0.4793506 0.4850021
vt 0.4904214 0.4850021
vt 0.4904214 0.2650593
vt 0.5007733 0.2650593
vt 0.5007733 0.4850021
vt 0.4473183 0.01512491
vt 0.4583889 0.2350672
vt 0.4583891 0.01512495
vt 0.4473182 0.2350672
vt 0.4369663 0.2350672
vt 0.4369665 0.01512487
vt 0.2017692 0.4852614
vt 0.4217125 0.4852614
vt 0.4217125 0.2653182
vt 0.2017692 0.2653181
vt 0.4793506 0.5149943
vt 0.4793506 0.7349378
vt 0.4904214 0.7349378
vt 0.4904214 0.5149944
vt 0.5007733 0.5149944
vt 0.5007733 0.7349378
vt 0.4793505 0.7649301
vt 0.4793506 0.9848741
vt 0.4904214 0.984874
vt 0.4904214 0.7649302
vt 0.5007733 0.7649301
vt 0.5007734 0.9848741
vt 0.1688111 0.9848752
vt 0.1688111 0.7649318
vt 0.0178331 0.7649317
vt 0.01783312 0.9848752
vt 0.2017692 0.01512494
vt 0.2017692 0.2350682
vt 0.4217125 0.2350683
vt 0.4217125 0.01512495
vt 0.1688111 0.4850039
vt 0.1688111 0.2650606
vt 0.01783316 0.2650605
vt 0.0178331 0.4850039
vt 0.1688111 0.2350683
vt 0.1688112 0.01512505
vt 0.01783323 0.01512495
vt 0.01783317 0.2350683
vt 0.447318 0.2650594
vt 0.4583889 0.4850022
vt 0.4583889 0.2650594
vt 0.4473181 0.4850022
vt 0.4369662 0.4850022
vt 0.4369663 0.2650594
vt 0.1688111 0.7349395
vt 0.1688111 0.5149962
vt 0.0178331 0.5149962
vt 0.0178331 0.7349395
vt 0.4473181 0.749934
vt 0.4473181 0.749934
vt 0.4369662 0.7349379
vt 0.4369662 0.749934
vt 0.4904214 0.7499339
vt 0.5007733 0.749934
vt 0.5007733 0.7349378
vt 0.4904214 0.7499339
vt 0.4904214 0.2500632
vt 0.4904214 0.2500632
vt 0.5007733 0.2650593
vt 0.5007733 0.2500632
vt 0.4473181 0.2500633
vt 0.4369663 0.2500633
vt 0.4369663 0.2650594
vt 0.4473181 0.2500633
vt 0.4473183 0.01512491
vt 0.4369666 0.0001288004
vt 0.4369665 0.01512487
vt 0.4473184 0.0001288425
vt 0.4583891 0.01512495
vt 0.4583892 0.0001288874
vt 0.4904216 0.01512489
vt 0.5007734 0.01512489
vt 0.5007734 0.0001288327
vt 0.4904216 0.0001288222
vt 0.4793508 0.0001288109
vt 0.4793508 0.01512487
vt 0.4473181 0.4850022
vt 0.4369662 0.4850022
vt 0.4369662 0.4999984
vt 0.4473181 0.4999983
vt 0.4583889 0.5149945
vt 0.4583889 0.4850022
vt 0.447318 0.5149944
vt 0.4904214 0.4850021
vt 0.4904214 0.4999982
vt 0.5007733 0.4999982
vt 0.5007733 0.4850021
vt 0.4904214 0.5149944
vt 0.4793506 0.4850021
vt 0.4793506 0.5149943
vt 0.2017692 0.01512494
vt 0.1867731 0.01512494
vt 0.186773 0.2350682
vt 0.2017692 0.2350682
vt 0.4217125 0.01512495
vt 0.4217125 0.0001288137
vt 0.2017692 0.0001288013
vt 0.2017692 0.01512494
vt 0.4904214 0.7649302
vt 0.4904214 0.7349378
vt 0.4793506 0.7349378
vt 0.4793505 0.7649301
vt 0.4473182 0.2350672
vt 0.447318 0.2650594
vt 0.4583889 0.2650594
vt 0.4583889 0.2350672
vt 0.4217125 0.4852614
vt 0.4367086 0.4852614
vt 0.4367086 0.2653182
vt 0.4217125 0.2653182
vt 0.2017692 0.4852614
vt 0.2017692 0.5002576
vt 0.4217125 0.5002576
vt 0.4217125 0.4852614
vt 0.2017692 0.2350682
vt 0.2017692 0.2500644
vt 0.4217125 0.2500644
vt 0.4217125 0.2350683
vt 0.4217125 0.2653182
vt 0.4217125 0.250322
vt 0.2017692 0.250322
vt 0.2017692 0.2653181
vt 0.2017692 0.2653181
vt 0.186773 0.2653181
vt 0.186773 0.4852614
vt 0.2017692 0.4852614
vt 0.4217125 0.2350683
vt 0.4367086 0.2350683
vt 0.4367086 0.01512495
vt 0.4217125 0.01512495
vt 0.458389 0.7649302
vt 0.458389 0.7349378
vt 0.4473182 0.7349379
vt 0.4473181 0.7649301
vt 0.01783317 0.2350683
vt 0.01783316 0.2650605
vt 0.1688111 0.2650606
vt 0.1688111 0.2350683
vt 0.4793507 0.2350671
vt 0.4793506 0.2650593
vt 0.4904214 0.2650593
vt 0.4904214 0.2350671
vt 0.1688111 0.7649318
vt 0.1688111 0.7349395
vt 0.0178331 0.7349395
vt 0.0178331 0.7649317
vt 0.01783312 0.9848752
vt 0.01783311 0.9998713
vt 0.1688111 0.9998713
vt 0.1688111 0.9848752
vt 0.0178331 0.4850039
vt 0.0178331 0.5149962
vt 0.1688111 0.5149962
vt 0.1688111 0.4850039
vt 0.4473181 0.7649301
vt 0.4369662 0.7649302
vt 0.4369663 0.9848741
vt 0.4473182 0.9848741
vt 0.4583891 0.9848741
vt 0.458389 0.7649302
vn 0.5773503 0.5773503 0.5773503
vn 0.5773503 0.5773503 0.5773503
vn 0.5773503 0.5773503 0.5773503
vn 0.5773503 0.5773503 -0.5773503
vn 0.5773503 0.5773503 -0.5773503
vn 0.5773503 0.5773503 -0.5773503
vn 0.5773503 -0.5773503 0.5773503
vn 0.5773503 -0.5773503 0.5773503
vn 0.5773503 -0.5773503 0.5773503
vn 0.5773503 -0.5773503 -0.5773503
vn 0.5773503 -0.5773503 -0.5773503
vn 0.5773503 -0.5773503 -0.5773503
vn -0.5773503 0.5773503 0.5773503
vn -0.5773503 0.5773503 0.5773503
vn -0.5773503 0.5773503 0.5773503
vn -0.5773503 0.5773503 -0.5773503
vn -0.5773503 0.5773503 -0.5773503
vn -0.5773503 0.5773503 -0.5773503
vn -0.5773503 -0.5773503 0.5773503
vn -0.5773503 -0.5773503 0.5773503
vn -0.5773503 -0.5773503 0.5773503
vn -0.5773503 -0.5773503 -0.5773503
vn -0.5773503 -0.5773503 -0.5773503
vn -0.5773503 -0.5773503 -0.5773503
vn 0 1 0
vn 0 1 0
vn 0 1 0
vn 0 1 0
vn 0 1 0
vn 0 1 0
vn 0 -1 0
vn 0 -1 0
vn 0 -1 0
vn 0 -1 0
vn 0 -1 0
vn 0 -1 0
vn -1 0 0
vn -1 0 0
vn -1 0 0
vn -1 0 0
vn -1 0 0
vn -1 0 0
vn 0 -1 0
vn 0 -1 0
vn 0 -1 0
vn 0 -1 0
vn 0 -1 0
vn 0 -1 0
vn 0 0 1
vn 0 0 1
vn 0 0 1
vn 0 0 1
vn 0 1 0
vn 0 1 0
vn 0 1 0
vn 0 1 0
vn 0 1 0
vn 0 1 0
vn 1 0 0
vn 1 0 0
vn 1 0 0
vn 1 0 0
vn 1 0 0
vn 1 0 0
vn 0 -1 0
vn 0 -1 0
vn 0 -1 0
vn 0 -1 0
vn 0 0 -1
vn 0 0 -1
vn 0 0 -1
vn 0 0 -1
vn 0 1 0
vn 0 1 0
vn 0 1 0
vn 0 1 0
vn 1 0 0
vn 1 0 0
vn 1 0 0
vn 1 0 0
vn -1 0 0
vn -1 0 0
vn -1 0 0
vn -1 0 0
vn -1 0 0
vn -1 0 0
vn -1 0 0
vn -1 0 0
vn -1 0 0
vn -1 0 0
vn 0.7071068 0.7071066 0
vn 0.7071068 0.7071066 0
vn 0.7071068 0.7071066 0
vn 0.7071068 0.7071066 0
vn 0.7071068 0.7071066 0
vn 0.7071068 0.7071066 0
vn 0.7071068 0.7071066 0
vn 0.7071068 0.7071066 0
vn -0.7071068 -0.7071066 0
vn -0.7071068 -0.7071066 0
vn -0.7071068 -0.7071066 0
vn -0.7071068 -0.7071066 0
vn -0.7071068 -0.7071066 0
vn -0.7071068 -0.7071066 0
vn -0.7071068 -0.7071066 0
vn -0.7071068 -0.7071066 0
vn 0.7071068 -0.7071066 0
vn 0.7071068 -0.7071066 0
vn 0.7071068 -0.7071066 0
vn 0.7071068 -0.7071066 0
vn 0.7071068 -0.7071068 0
vn 0.7071068 -0.7071068 0
vn 0.7071068 -0.7071066 0
vn 0.7071068 -0.7071066 0
vn 0.7071068 -0.7071066 0
vn 0.7071068 -0.7071066 0
vn 0.7071068 -0.7071068 0
vn 0.7071068 -0.7071068 0
vn -0.7071068 0.7071066 0
vn -0.7071068 0.7071066 0
vn -0.7071068 0.7071066 0
vn -0.7071068 0.7071066 0
vn -0.7071068 0.7071068 0
vn -0.7071068 0.7071068 0
vn -0.7071068 0.7071068 0
vn -0.7071068 0.7071066 0
vn -0.7071068 0.7071066 0
vn -0.7071068 0.7071066 0
vn -0.7071068 0.7071066 0
vn -0.7071068 0.7071068 0
vn -0.7071068 0.7071068 0
vn -0.7071068 0.7071068 0
vn -0.7071068 0 -0.7071068
vn -0.7071068 0 -0.7071068
vn -0.7071068 0 -0.7071068
vn -0.7071068 0 -0.7071068
vn 0 0.7071068 -0.7071068
vn 0 0.7071068 -0.7071068
vn 0 0.7071068 -0.7071068
vn 0 0.7071068 -0.7071068
vn 0.7071068 0.7071068 0
vn 0.7071068 0.7071068 0
vn 0.7071068 0.7071068 0
vn 0.7071068 0.7071068 0
vn -0.7071068 -0.7071068 0
vn -0.7071068 -0.7071068 0
vn -0.7071068 -0.7071068 0
vn -0.7071068 -0.7071068 0
vn 0 -0.7071068 0.7071068
vn 0 -0.7071068 0.7071068
vn 0 -0.7071068 0.7071068
vn 0 -0.7071068 0.7071068
vn 0.7071068 0 0.7071068
vn 0.7071068 0 0.7071068
vn 0.7071068 0 0.7071068
vn 0.7071068 0 0.7071068
vn 0 -0.7071068 -0.7071068
vn 0 -0.7071068 -0.7071068
vn 0 -0.7071068 -0.7071068
vn 0 -0.7071068 -0.7071068
vn -0.7071068 0 0.7071068
vn -0.7071068 0 0.7071068
vn -0.7071068 0 0.7071068
vn -0.7071068 0 0.7071068
vn 0 0.7071068 0.7071068
vn 0 0.7071068 0.7071068
vn 0 0.7071068 0.7071068
vn 0 0.7071068 0.7071068
vn 0.7071068 0 -0.7071068
vn 0.7071068 0 -0.7071068
vn 0.7071068 0 -0.7071068
vn 0.7071068 0 -0.7071068
vn 0.7071068 0.7071068 0
vn 0.7071068 0.7071068 0
vn 0.7071068 0.7071068 0
vn 0.7071068 0.7071068 0
vn 0.7071068 0.7071066 0
vn 0.7071068 0.7071066 0
vn 0.7071068 0.7071066 0
vn 0.7071068 0.7071066 0
vn -0.7071068 -0.7071068 0
vn -0.7071068 -0.7071068 0
vn -0.7071068 -0.7071068 0
vn -0.7071068 -0.7071068 0
vn -0.7071068 -0.7071066 0
vn -0.7071068 -0.7071066 0
vn -0.7071068 -0.7071066 0
vn -0.7071068 -0.7071066 0
vn 0.7071068 -0.7071066 0
vn 0.7071068 -0.7071066 0
vn 0.7071068 -0.7071066 0
vn 0.7071068 -0.7071066 0
vn -0.7071068 0.7071066 0
vn -0.7071068 0.7071066 0
vn -0.7071068 0.7071066 0
vn -0.7071068 0.7071066 0
vn 1 0 0
vn 1 0 0
vn 1 0 0
vn 1 0 0
vn 1 0 0
vn 1 0 0
g Cube_0
f 3/3/3 2/2/2 1/1/1
f 6/6/6 5/5/5 4/4/4
f 9/9/9 8/8/8 7/7/7
f 12/12/12 11/11/11 10/10/10
f 15/15/15 14/14/14 13/13/13
f 18/18/18 17/17/17 16/16/16
f 21/21/21 20/20/20 19/19/19
f 24/24/24 23/23/23 22/22/22
f 27/27/27 26/26/26 25/25/25
f 26/26/26 28/28/28 25/25/25
f 28/28/28 29/29/29 25/25/25
f 29/29/29 30/30/30 25/25/25
f 33/33/33 32/32/32 31/31/31
f 34/34/34 33/33/33 31/31/31
f 33/33/33 34/34/34 35/35/35
f 36/36/36 33/33/33 35/35/35
f 39/39/39 38/38/38 37/37/37
f 40/40/40 39/39/39 37/37/37
f 39/39/39 40/40/40 41/41/41
f 42/42/42 39/39/39 41/41/41
f 45/45/45 44/44/44 43/43/43
f 44/44/44 46/46/46 43/43/43
f 46/46/46 47/47/47 43/43/43
f 47/47/47 48/48/48 43/43/43
f 51/51/51 50/50/50 49/49/49
f 52/52/52 51/51/51 49/49/49
f 55/55/55 54/54/54 53/53/53
f 56/56/56 55/55/55 53/53/53
f 55/55/55 56/56/56 57/57/57
f 58/58/58 55/55/55 57/57/57
f 61/61/61 60/60/60 59/59/59
f 62/62/62 61/61/61 59/59/59
f 61/61/61 62/62/62 63/63/63
f 64/64/64 61/61/61 63/63/63
f 67/67/67 66/66/66 65/65/65
f 68/68/68 67/67/67 65/65/65
f 71/71/71 70/70/70 69/69/69
f 72/72/72 71/71/71 69/69/69
f 75/75/75 74/74/74 73/73/73
f 76/76/76 75/75/75 73/73/73
f 79/79/79 78/78/78 77/77/77
f 80/80/80 79/79/79 77/77/77
f 83/83/83 82/82/82 81/81/81
f 82/82/82 84/84/84 81/81/81
f 84/84/84 85/85/85 81/81/81
f 85/85/85 86/86/86 81/81/81
f 89/89/89 88/88/88 87/87/87
f 90/90/90 89/89/89 87/87/87
f 93/93/93 92/92/92 91/91/91
f 94/94/94 93/93/93 91/91/91
f 97/97/97 96/96/96 95/95/95
f 98/98/98 97/97/97 95/95/95
f 101/101/101 100/100/100 99/99/99
f 102/102/102 101/101/101 99/99/99
f 105/105/105 104/104/104 103/103/103
f 106/106/106 105/105/105 103/103/103
f 109/109/109 108/108/108 107/107/107
f 108/108/108 110/110/110 107/107/107
f 107/107/107 110/110/110 111/111/111
f 110/110/110 112/112/112 111/111/111
f 115/115/115 114/114/114 113/113/113
f 116/116/116 115/115/115 113/113/113
f 117/117/117 116/116/116 113/113/113
f 118/118/118 117/117/117 113/113/113
f 121/121/121 120/120/120 119/119/119
f 122/122/122 121/121/121 119/119/119
f 119/119/119 124/124/124 123/123/123
f 125/125/125 119/119/119 123/123/123
f 128/128/128 127/127/127 126/126/126
f 129/129/129 128/128/128 126/126/126
f 131/131/131 126/126/126 130/130/130
f 132/132/132 131/131/131 130/130/130
f 135/135/135 134/134/134 133/133/133
f 136/136/136 135/135/135 133/133/133
f 139/139/139 138/138/138 137/137/137
f 140/140/140 139/139/139 137/137/137
f 143/143/143 142/142/142 141/141/141
f 144/144/144 143/143/143 141/141/141
f 147/147/147 146/146/146 145/145/145
f 148/148/148 147/147/147 145/145/145
f 151/151/151 150/150/150 149/149/149
f 152/152/152 151/151/151 149/149/149
f 155/155/155 154/154/154 153/153/153
f 156/156/156 155/155/155 153/153/153
f 159/159/159 158/158/158 157/157/157
f 160/160/160 159/159/159 157/157/157
f 163/163/163 162/162/162 161/161/161
f 164/164/164 163/163/163 161/161/161
f 167/167/167 166/166/166 165/165/165
f 168/168/168 167/167/167 165/165/165
f 171/171/171 170/170/170 169/169/169
f 172/172/172 171/171/171 169/169/169
f 175/175/175 174/174/174 173/173/173
f 176/176/176 175/175/175 173/173/173
f 179/179/179 178/178/178 177/177/177
f 180/180/180 179/179/179 177/177/177
f 183/183/183 182/182/182 181/181/181
f 184/184/184 183/183/183 181/181/181
f 187/187/187 186/186/186 185/185/185
f 188/188/188 187/187/187 185/185/185
f 191/191/191 190/190/190 189/189/189
f 192/192/192 191/191/191 189/189/189
f 195/195/195 194/194/194 193/193/193
f 196/196/196 195/195/195 193/193/193
f 199/199/199 198/198/198 197/197/197
f 200/200/200 199/199/199 197/197/197
f 201/201/201 200/200/200 197/197/197
f 202/202/202 201/201/201 197/197/197
