g grass_short_flower
v -0.0072363 0 -0.0178431
v 0.03276264 0 -0.01813478
v 0.02877531 0.4130771 -0.01806465
v 0.007975872 0.4130771 -0.01791298
v -0.03956449 0 0.005880407
v -0.008694586 0 -0.01955676
v -0.02220557 0.3999999 -0.01184632
v -0.03825792 0.3999999 0.00138101
vt 0 0.125
vt 1 0.125
vt 0.9999997 0.9999993
vt -2.980232E-07 0.9999993
vt 0 0.125
vt 0 0.125
vt -2.980232E-07 0.9999993
vt -2.980232E-07 0.9999993
vn -0.007291811 9.93712E-05 -0.9999734
vn -0.007291811 9.93712E-05 -0.9999734
vn -0.007291811 9.93712E-05 -0.9999734
vn -0.007291811 9.93712E-05 -0.9999734
vn -0.6359153 -0.006603635 -0.7717307
vn -0.6359153 -0.006603635 -0.7717307
vn -0.6359153 -0.006603635 -0.7717307
vn -0.6359153 -0.006603635 -0.7717307
g grass_short_flower_0
f 3/3/3 2/2/2 1/1/1
f 4/4/4 3/3/3 1/1/1
f 7/7/7 6/6/6 5/5/5
f 8/8/8 7/7/7 5/5/5
