g grass_short
v 0.01195349 0.4 -0.02563411
v 0.02563429 0.4 0.0119536
v -0.01195342 0.4 0.0256344
v -0.02563422 0.4 -0.0119533
v 0.01195342 0 -0.02563423
v 0.02563423 0 0.01195348
v 0.02563429 0.4 0.0119536
v 0.01195349 0.4 -0.02563411
v -0.02563429 0 -0.01195342
v 0.01195342 0 -0.02563423
v 0.01195349 0.4 -0.02563411
v -0.02563422 0.4 -0.0119533
vt 1 0
vt 1 0
vt 0 0
vt 0 0
vt 1 0.125
vt 1 0.125
vt 1 0.875
vt 1 0.875
vt 0 0.125
vt 1 0.125
vt 1 0.875
vt 0 0.875
vn 0 1 0
vn 0 1 0
vn 0 1 0
vn 0 1 0
vn 0.9396926 0 -0.3420202
vn 0.9396926 0 -0.3420202
vn 0.9396926 0 -0.3420202
vn 0.9396926 0 -0.3420202
vn -0.3420201 3.371645E-07 -0.9396926
vn -0.3420201 3.371645E-07 -0.9396926
vn -0.3420201 3.371645E-07 -0.9396926
vn -0.3420201 3.371645E-07 -0.9396926
g grass_short_0
f 3/3/3 2/2/2 1/1/1
f 4/4/4 3/3/3 1/1/1
f 7/7/7 6/6/6 5/5/5
f 8/8/8 7/7/7 5/5/5
f 11/11/11 10/10/10 9/9/9
f 12/12/12 11/11/11 9/9/9
