g lily pad
v 0.00161246 4.602044E-06 -0.005666203
v 0.001764424 1.326897E-05 -0.01
v 0.009420203 -0.002914832 -0.01
v 0.009419211 -0.002919819 0.01
v 0.008944386 -0.002762732 -0.005666203
v 0.008944386 -0.002762732 0.01
v 0.009420203 -0.002914832 -0.01
v 0.008944386 -0.002762732 -0.005666203
v 0.00161246 4.602044E-06 -0.005666203
v 0 0.01 -0.01
v 0.003826834 0.009238794 -0.01
v 0.003826834 0.009238794 0.01
v 0 0.01 0.01
v 0.003826834 0.009238794 -0.01
v 0.007071068 0.007071068 -0.01
v 0.007071068 0.007071068 0.01
v 0.003826834 0.009238794 0.01
v 0.007071068 0.007071068 -0.01
v 0.009238794 0.003826834 -0.01
v 0.009238794 0.003826834 0.01
v 0.007071068 0.007071068 0.01
v 0.009238794 0.003826834 -0.01
v 0.009520475 0.002410736 -0.01
v 0.009521093 0.002407625 0.01
v 0.009238794 0.003826834 0.01
v 0.009238794 -0.003826835 -0.01
v 0.007071068 -0.007071068 -0.01
v 0.007071068 -0.007071068 0.01
v 0.009238794 -0.003826835 0.01
v 0.007071068 -0.007071068 -0.01
v 0.003826835 -0.009238794 -0.01
v 0.003826835 -0.009238794 0.01
v 0.007071068 -0.007071068 0.01
v 0.003826835 -0.009238794 -0.01
v 1.509958E-09 -0.01 -0.01
v 1.509958E-09 -0.01 0.01
v 0.003826835 -0.009238794 0.01
v 1.509958E-09 -0.01 -0.01
v -0.003826832 -0.009238796 -0.01
v -0.003826832 -0.009238796 0.01
v 1.509958E-09 -0.01 0.01
v -0.003826832 -0.009238796 -0.01
v -0.007071066 -0.00707107 -0.01
v -0.007071066 -0.00707107 0.01
v -0.003826832 -0.009238796 0.01
v -0.007071066 -0.00707107 -0.01
v -0.009238794 -0.003826836 -0.01
v -0.009238794 -0.003826836 0.01
v -0.007071066 -0.00707107 0.01
v -0.009238794 -0.003826836 -0.01
v -0.01 1.192488E-10 -0.01
v -0.01 1.192488E-10 0.01
v -0.009238794 -0.003826836 0.01
v -0.01 1.192488E-10 -0.01
v -0.009238794 0.003826836 -0.01
v -0.009238794 0.003826836 0.01
v -0.01 1.192488E-10 0.01
v -0.009238794 0.003826836 -0.01
v -0.007071065 0.00707107 -0.01
v -0.007071065 0.00707107 0.01
v -0.009238794 0.003826836 0.01
v -0.007071065 0.00707107 -0.01
v -0.00382683 0.009238797 -0.01
v -0.00382683 0.009238797 0.01
v -0.007071065 0.00707107 0.01
v -0.00382683 0.009238797 -0.01
v 0 0.01 -0.01
v 0 0.01 0.01
v -0.00382683 0.009238797 0.01
v 0.009238794 -0.003826835 -0.01
v 0.009420203 -0.002914832 -0.01
v 0.001764424 1.326897E-05 -0.01
v 0.007071068 -0.007071068 -0.01
v 0.003826835 -0.009238794 -0.01
v 1.509958E-09 -0.01 -0.01
v 0 0.01 -0.01
v -0.003826832 -0.009238796 -0.01
v -0.00382683 0.009238797 -0.01
v -0.007071065 0.00707107 -0.01
v -0.007071066 -0.00707107 -0.01
v -0.009238794 0.003826836 -0.01
v -0.009238794 -0.003826836 -0.01
v -0.01 1.192488E-10 -0.01
v 0.003826834 0.009238794 -0.01
v 0.007071068 0.007071068 -0.01
v 0.009238794 0.003826834 -0.01
v 0.009520475 0.002410736 -0.01
v 0.009420203 -0.002914832 -0.01
v 0.009238794 -0.003826835 -0.01
v 0.009238794 -0.003826835 0.01
v 0.009419211 -0.002919819 0.01
v 0.006723878 -0.006688334 0.01
v 0.006723878 -0.006688334 -0.005666203
v 0.008773776 -0.003620446 -0.005666203
v 0.008773776 -0.003620446 0.01
v 0 0.01 0.01
v 3.716826E-05 0.009454812 0.01
v -0.003581649 0.008734985 0.01
v -0.00382683 0.009238797 0.01
v -0.006649539 0.006685087 0.01
v -0.007071065 0.00707107 0.01
v -0.008699439 0.003617199 0.01
v -0.009238794 0.003826836 0.01
v -0.009419268 -1.62421E-06 0.01
v -0.01 1.192488E-10 0.01
v -0.008699439 -0.003620447 0.01
v -0.009238794 -0.003826836 0.01
v -0.00664954 -0.006688336 0.01
v -0.007071066 -0.00707107 0.01
v -0.003581651 -0.008738233 0.01
v -0.003826832 -0.009238796 0.01
v 3.716968E-05 -0.00945806 0.01
v 1.509958E-09 -0.01 0.01
v 0.00365599 -0.008738232 0.01
v 0.003826835 -0.009238794 0.01
v 0.006723878 -0.006688334 0.01
v 0.007071068 -0.007071068 0.01
v 0.008773776 -0.003620446 0.01
v 0.009238794 -0.003826835 0.01
v 0.008944386 -0.002762732 0.01
v 0.009419211 -0.002919819 0.01
v 0.003826834 0.009238794 0.01
v 3.716826E-05 0.009454812 0.01
v 0 0.01 0.01
v 0.00365599 0.008734983 0.01
v 0.007071068 0.007071068 0.01
v 0.006723878 0.006685086 0.01
v 0.009238794 0.003826834 0.01
v 0.008773776 0.003617197 0.01
v 0.009521093 0.002407625 0.01
v 0.009040729 0.002275131 0.01
v 0.008773776 0.003617197 -0.005666203
v 0.009040729 0.002275131 -0.005666203
v 0.00161246 4.602044E-06 -0.005666203
v 0.006723878 0.006685086 -0.005666203
v 0.00365599 0.008734983 -0.005666203
v 3.716826E-05 0.009454812 -0.005666203
v 3.716968E-05 -0.00945806 -0.005666203
v 0.00365599 -0.008738232 -0.005666203
v 0.006723878 -0.006688334 -0.005666203
v 0.008773776 -0.003620446 -0.005666203
v 0.008944386 -0.002762732 -0.005666203
v -0.003581651 -0.008738233 -0.005666203
v -0.003581649 0.008734985 -0.005666203
v -0.006649539 0.006685087 -0.005666203
v -0.00664954 -0.006688336 -0.005666203
v -0.008699439 0.003617199 -0.005666203
v -0.008699439 -0.003620447 -0.005666203
v -0.009419268 -1.62421E-06 -0.005666203
v -0.006649539 0.006685087 0.01
v -0.006649539 0.006685087 -0.005666203
v -0.008699439 0.003617199 -0.005666203
v -0.008699439 0.003617199 0.01
v 0.00365599 -0.008738232 0.01
v 0.00365599 -0.008738232 -0.005666203
v 0.006723878 -0.006688334 -0.005666203
v 0.006723878 -0.006688334 0.01
v -0.003581649 0.008734985 0.01
v -0.003581649 0.008734985 -0.005666203
v -0.006649539 0.006685087 -0.005666203
v -0.006649539 0.006685087 0.01
v 3.716968E-05 -0.00945806 0.01
v 3.716968E-05 -0.00945806 -0.005666203
v 0.00365599 -0.008738232 -0.005666203
v 0.00365599 -0.008738232 0.01
v 3.716826E-05 0.009454812 0.01
v 3.716826E-05 0.009454812 -0.005666203
v -0.003581649 0.008734985 -0.005666203
v -0.003581649 0.008734985 0.01
v -0.003581651 -0.008738233 0.01
v -0.003581651 -0.008738233 -0.005666203
v 3.716968E-05 -0.00945806 -0.005666203
v 3.716968E-05 -0.00945806 0.01
v 0.00365599 0.008734983 0.01
v 0.00365599 0.008734983 -0.005666203
v 3.716826E-05 0.009454812 -0.005666203
v 3.716826E-05 0.009454812 0.01
v 0.008773776 -0.003620446 0.01
v 0.008773776 -0.003620446 -0.005666203
v 0.008944386 -0.002762732 -0.005666203
v 0.008944386 -0.002762732 0.01
v -0.00664954 -0.006688336 0.01
v -0.00664954 -0.006688336 -0.005666203
v -0.003581651 -0.008738233 -0.005666203
v -0.003581651 -0.008738233 0.01
v 0.006723878 0.006685086 0.01
v 0.006723878 0.006685086 -0.005666203
v 0.00365599 0.008734983 -0.005666203
v 0.00365599 0.008734983 0.01
v -0.008699439 -0.003620447 0.01
v -0.008699439 -0.003620447 -0.005666203
v -0.00664954 -0.006688336 -0.005666203
v -0.00664954 -0.006688336 0.01
v 0.008773776 0.003617197 0.01
v 0.008773776 0.003617197 -0.005666203
v 0.006723878 0.006685086 -0.005666203
v 0.006723878 0.006685086 0.01
v -0.009419268 -1.62421E-06 0.01
v -0.009419268 -1.62421E-06 -0.005666203
v -0.008699439 -0.003620447 -0.005666203
v -0.008699439 -0.003620447 0.01
v 0.009040729 0.002275131 0.01
v 0.009040729 0.002275131 -0.005666203
v 0.008773776 0.003617197 -0.005666203
v 0.008773776 0.003617197 0.01
v -0.008699439 0.003617199 0.01
v -0.008699439 0.003617199 -0.005666203
v -0.009419268 -1.62421E-06 -0.005666203
v -0.009419268 -1.62421E-06 0.01
v 0.009040729 0.002275131 -0.005666203
v 0.009040729 0.002275131 0.01
v 0.009521093 0.002407625 0.01
v 0.009520475 0.002410736 -0.01
v 0.001764424 1.326897E-05 -0.01
v 0.00161246 4.602044E-06 -0.005666203
vt 0.3308288 0.2493833
vt 0.8309745 0.2495858
vt 0.7023949 0.5
vt 0.7023134 1
vt 0.4760611 0.1799244
vt 0.7023134 1
vt 0.7023949 0.5
vt 0.4760611 0.1799244
vt 0.3308288 0.2493833
vt 1 0.5
vt 0.9375 0.5
vt 0.9375 1
vt 1 1
vt 0.9375 0.5
vt 0.875 0.5
vt 0.875 1
vt 0.9375 1
vt 0.875 0.5
vt 0.8125 0.5
vt 0.8125 1
vt 0.875 1
vt 0.8125 0.5
vt 0.7893722 0.5
vt 0.7893214 1
vt 0.8125 1
vt 0.6875 0.5
vt 0.625 0.5
vt 0.625 1
vt 0.6875 1
vt 0.625 0.5
vt 0.5625 0.5
vt 0.5625 1
vt 0.625 1
vt 0.5625 0.5
vt 0.5 0.5
vt 0.5 1
vt 0.5625 1
vt 0.5 0.5
vt 0.4375 0.5
vt 0.4375 1
vt 0.5 1
vt 0.4375 0.5
vt 0.375 0.5
vt 0.375 1
vt 0.4375 1
vt 0.375 0.5
vt 0.3125 0.5
vt 0.3125 1
vt 0.375 1
vt 0.3125 0.5
vt 0.25 0.5
vt 0.25 1
vt 0.3125 1
vt 0.25 0.5
vt 0.1875 0.5
vt 0.1875 1
vt 0.25 1
vt 0.1875 0.5
vt 0.125 0.5
vt 0.125 1
vt 0.1875 1
vt 0.125 0.5
vt 0.0625 0.5
vt 0.0625 1
vt 0.125 1
vt 0.0625 0.5
vt 0 0.5
vt 0 1
vt 0.0625 1
vt 0.9717311 0.1581559
vt 0.9760849 0.180044
vt 0.8309745 0.2495858
vt 0.9197056 0.08029439
vt 0.841844 0.02826892
vt 0.7500001 0.01000001
vt 0.75 0.49
vt 0.658156 0.02826889
vt 0.6581561 0.4717311
vt 0.5802944 0.4197057
vt 0.5802944 0.08029433
vt 0.5282689 0.3418441
vt 0.5282689 0.1581559
vt 0.51 0.25
vt 0.841844 0.4717311
vt 0.9197056 0.4197056
vt 0.9717311 0.341844
vt 0.9784913 0.3078576
vt 0.7023949 0.5
vt 0.6875 0.5
vt 0.6875 1
vt 0.7023134 1
vt 0.625 1
vt 0.625 1
vt 0.6875 1
vt 0.6875 1
vt 0 1
vt 0 1
vt 0.0625 1
vt 0.0625 1
vt 0.125 1
vt 0.125 1
vt 0.1875 1
vt 0.1875 1
vt 0.25 1
vt 0.25 1
vt 0.3125 1
vt 0.3125 1
vt 0.375 1
vt 0.375 1
vt 0.4375 1
vt 0.4375 1
vt 0.5 1
vt 0.5 1
vt 0.5625 1
vt 0.5625 1
vt 0.625 1
vt 0.625 1
vt 0.6875 1
vt 0.6875 1
vt 0.7023134 1
vt 0.7023134 1
vt 0.9375 1
vt 1 1
vt 1 1
vt 0.9375 1
vt 0.875 1
vt 0.875 1
vt 0.8125 1
vt 0.8125 1
vt 0.7893214 1
vt 0.7893214 1
vt 0.4717311 0.341844
vt 0.4785062 0.307783
vt 0.3308288 0.2493833
vt 0.4197056 0.4197056
vt 0.341844 0.4717311
vt 0.25 0.49
vt 0.25 0.01000001
vt 0.341844 0.02826892
vt 0.4197056 0.08029439
vt 0.4717311 0.1581559
vt 0.4760611 0.1799244
vt 0.158156 0.02826889
vt 0.1581561 0.4717311
vt 0.08029443 0.4197057
vt 0.08029442 0.08029433
vt 0.02826893 0.3418441
vt 0.02826892 0.1581559
vt 0.01000001 0.25
vt 0.125 1
vt 0.125 1
vt 0.1875 1
vt 0.1875 1
vt 0.5625 1
vt 0.5625 1
vt 0.625 1
vt 0.625 1
vt 0.0625 1
vt 0.0625 1
vt 0.125 1
vt 0.125 1
vt 0.5 1
vt 0.5 1
vt 0.5625 1
vt 0.5625 1
vt 0 1
vt 0 1
vt 0.0625 1
vt 0.0625 1
vt 0.4375 1
vt 0.4375 1
vt 0.5 1
vt 0.5 1
vt 0.9375 1
vt 0.9375 1
vt 1 1
vt 1 1
vt 0.6875 1
vt 0.6875 1
vt 0.7023134 1
vt 0.7023134 1
vt 0.375 1
vt 0.375 1
vt 0.4375 1
vt 0.4375 1
vt 0.875 1
vt 0.875 1
vt 0.9375 1
vt 0.9375 1
vt 0.3125 1
vt 0.3125 1
vt 0.375 1
vt 0.375 1
vt 0.8125 1
vt 0.8125 1
vt 0.875 1
vt 0.875 1
vt 0.25 1
vt 0.25 1
vt 0.3125 1
vt 0.3125 1
vt 0.7893214 1
vt 0.7893214 1
vt 0.8125 1
vt 0.8125 1
vt 0.1875 1
vt 0.1875 1
vt 0.25 1
vt 0.25 1
vt 0.4785062 0.307783
vt 0.7893214 1
vt 0.7893214 1
vt 0.7893722 0.5
vt 0.8309745 0.2495858
vt 0.3308288 0.2493833
vn 0.3460175 0.9381923 0.008194702
vn 0.3460175 0.9381923 0.008194702
vn 0.3460175 0.9381923 0.008194702
vn 0.3460175 0.9381923 0.008194702
vn 0.3460175 0.9381923 0.008194702
vn 0.3460175 0.9381923 0.008194702
vn 0.3460175 0.9381923 0.008194702
vn 0.3460175 0.9381923 0.008194702
vn 0.3460175 0.9381923 0.008194702
vn 0.1950904 0.9807853 0
vn 0.1950904 0.9807853 0
vn 0.1950904 0.9807853 0
vn 0.1950904 0.9807853 0
vn 0.5555702 0.8314696 0
vn 0.5555702 0.8314696 0
vn 0.5555702 0.8314696 0
vn 0.5555702 0.8314696 0
vn 0.8314696 0.5555702 0
vn 0.8314696 0.5555702 0
vn 0.8314696 0.5555702 0
vn 0.8314696 0.5555702 0
vn 0.9807853 0.1950904 0
vn 0.9807853 0.1950904 0
vn 0.9807853 0.1950904 0
vn 0.9807853 0.1950904 0
vn 0.8314695 -0.5555702 0
vn 0.8314695 -0.5555702 0
vn 0.8314695 -0.5555702 0
vn 0.8314695 -0.5555702 0
vn 0.5555702 -0.8314696 0
vn 0.5555702 -0.8314696 0
vn 0.5555702 -0.8314696 0
vn 0.5555702 -0.8314696 0
vn 0.1950904 -0.9807853 0
vn 0.1950904 -0.9807853 0
vn 0.1950904 -0.9807853 0
vn 0.1950904 -0.9807853 0
vn -0.1950901 -0.9807854 0
vn -0.1950901 -0.9807854 0
vn -0.1950901 -0.9807854 0
vn -0.1950901 -0.9807854 0
vn -0.5555699 -0.8314698 0
vn -0.5555699 -0.8314698 0
vn -0.5555699 -0.8314698 0
vn -0.5555699 -0.8314698 0
vn -0.8314695 -0.5555704 0
vn -0.8314695 -0.5555704 0
vn -0.8314695 -0.5555704 0
vn -0.8314695 -0.5555704 0
vn -0.9807853 -0.1950903 0
vn -0.9807853 -0.1950903 0
vn -0.9807853 -0.1950903 0
vn -0.9807853 -0.1950903 0
vn -0.9807853 0.1950904 0
vn -0.9807853 0.1950904 0
vn -0.9807853 0.1950904 0
vn -0.9807853 0.1950904 0
vn -0.8314695 0.5555705 0
vn -0.8314695 0.5555705 0
vn -0.8314695 0.5555705 0
vn -0.8314695 0.5555705 0
vn -0.5555699 0.8314698 0
vn -0.5555699 0.8314698 0
vn -0.5555699 0.8314698 0
vn -0.5555699 0.8314698 0
vn -0.19509 0.9807854 0
vn -0.19509 0.9807854 0
vn -0.19509 0.9807854 0
vn -0.19509 0.9807854 0
vn 0 0 -1
vn 0 0 -1
vn 0 0 -1
vn 0 0 -1
vn 0 0 -1
vn 0 0 -1
vn 0 0 -1
vn 0 0 -1
vn 0 0 -1
vn 0 0 -1
vn 0 0 -1
vn 0 0 -1
vn 0 0 -1
vn 0 0 -1
vn 0 0 -1
vn 0 0 -1
vn 0 0 -1
vn 0 0 -1
vn 0.9807854 -0.1950902 0
vn 0.9807854 -0.1950902 0
vn 0.9807854 -0.1950902 0
vn 0.9807854 -0.1950902 0
vn -0.8314695 0.5555704 0
vn -0.8314695 0.5555704 0
vn -0.8314695 0.5555704 0
vn -0.8314695 0.5555704 0
vn 0 0 1
vn 0 0 1
vn 0 0 1
vn 0 0 1
vn 0 0 1
vn 0 0 1
vn 0 0 1
vn 0 0 1
vn 0 0 1
vn 0 0 1
vn 0 0 1
vn 0 0 1
vn 0 0 1
vn 0 0 1
vn 0 0 1
vn 0 0 1
vn 0 0 1
vn 0 0 1
vn 0 0 1
vn 0 0 1
vn 0 0 1
vn 0 0 1
vn 0 0 1
vn 0 0 1
vn 0 0 1
vn 0 0 1
vn 0 0 1
vn 0 0 1
vn 0 0 1
vn 0 0 1
vn 0 0 1
vn 0 0 1
vn 0 0 1
vn 0 0 1
vn 0 0 1
vn 0 0 1
vn 0 0 1
vn 0 0 1
vn 0 0 1
vn 0 0 1
vn 0 0 1
vn 0 0 1
vn 0 0 1
vn 0 0 1
vn 0 0 1
vn 0 0 1
vn 0 0 1
vn 0 0 1
vn 0 0 1
vn 0 0 1
vn 0 0 1
vn 0 0 1
vn 0 0 1
vn 0 0 1
vn 0.8314695 -0.5555705 0
vn 0.8314695 -0.5555705 0
vn 0.8314695 -0.5555705 0
vn 0.8314695 -0.5555705 0
vn -0.5555702 0.8314695 0
vn -0.5555702 0.8314695 0
vn -0.5555702 0.8314695 0
vn -0.5555702 0.8314695 0
vn 0.55557 -0.8314698 0
vn 0.55557 -0.8314698 0
vn 0.55557 -0.8314698 0
vn 0.55557 -0.8314698 0
vn -0.1950904 0.9807853 0
vn -0.1950904 0.9807853 0
vn -0.1950904 0.9807853 0
vn -0.1950904 0.9807853 0
vn 0.1950901 -0.9807854 0
vn 0.1950901 -0.9807854 0
vn 0.1950901 -0.9807854 0
vn 0.1950901 -0.9807854 0
vn 0.1950901 0.9807854 0
vn 0.1950901 0.9807854 0
vn 0.1950901 0.9807854 0
vn 0.1950901 0.9807854 0
vn -0.1950905 -0.9807853 0
vn -0.1950905 -0.9807853 0
vn -0.1950905 -0.9807853 0
vn -0.1950905 -0.9807853 0
vn -0.9807853 0.1950905 0
vn -0.9807853 0.1950905 0
vn -0.9807853 0.1950905 0
vn -0.9807853 0.1950905 0
vn 0.5555699 0.8314699 0
vn 0.5555699 0.8314699 0
vn 0.5555699 0.8314699 0
vn 0.5555699 0.8314699 0
vn -0.5555702 -0.8314696 0
vn -0.5555702 -0.8314696 0
vn -0.5555702 -0.8314696 0
vn -0.5555702 -0.8314696 0
vn 0.8314695 0.5555704 0
vn 0.8314695 0.5555704 0
vn 0.8314695 0.5555704 0
vn 0.8314695 0.5555704 0
vn -0.8314696 -0.5555702 0
vn -0.8314696 -0.5555702 0
vn -0.8314696 -0.5555702 0
vn -0.8314696 -0.5555702 0
vn 0.9807853 0.1950903 0
vn 0.9807853 0.1950903 0
vn 0.9807853 0.1950903 0
vn 0.9807853 0.1950903 0
vn -0.9807853 -0.1950903 0
vn -0.9807853 -0.1950903 0
vn -0.9807853 -0.1950903 0
vn -0.9807853 -0.1950903 0
vn 0.9807853 -0.1950905 0
vn 0.9807853 -0.1950905 0
vn 0.9807853 -0.1950905 0
vn 0.9807853 -0.1950905 0
vn 0.2886772 -0.9574165 0.004358184
vn 0.2886772 -0.9574165 0.004358184
vn 0.2886772 -0.9574165 0.004358184
vn 0.2886772 -0.9574165 0.004358184
vn 0.2886772 -0.9574165 0.004358184
vn 0.2886772 -0.9574165 0.004358184
g lily pad_0
f 3/3/3 2/2/2 1/1/1
f 5/5/5 4/4/4 3/3/3
f 5/5/5 6/6/6 4/4/4
f 9/9/9 8/8/8 7/7/7
f 12/12/12 11/11/11 10/10/10
f 13/13/13 12/12/12 10/10/10
f 16/16/16 15/15/15 14/14/14
f 17/17/17 16/16/16 14/14/14
f 20/20/20 19/19/19 18/18/18
f 21/21/21 20/20/20 18/18/18
f 24/24/24 23/23/23 22/22/22
f 25/25/25 24/24/24 22/22/22
f 28/28/28 27/27/27 26/26/26
f 29/29/29 28/28/28 26/26/26
f 32/32/32 31/31/31 30/30/30
f 33/33/33 32/32/32 30/30/30
f 36/36/36 35/35/35 34/34/34
f 37/37/37 36/36/36 34/34/34
f 40/40/40 39/39/39 38/38/38
f 41/41/41 40/40/40 38/38/38
f 44/44/44 43/43/43 42/42/42
f 45/45/45 44/44/44 42/42/42
f 48/48/48 47/47/47 46/46/46
f 49/49/49 48/48/48 46/46/46
f 52/52/52 51/51/51 50/50/50
f 53/53/53 52/52/52 50/50/50
f 56/56/56 55/55/55 54/54/54
f 57/57/57 56/56/56 54/54/54
f 60/60/60 59/59/59 58/58/58
f 61/61/61 60/60/60 58/58/58
f 64/64/64 63/63/63 62/62/62
f 65/65/65 64/64/64 62/62/62
f 68/68/68 67/67/67 66/66/66
f 69/69/69 68/68/68 66/66/66
f 72/72/72 71/71/71 70/70/70
f 70/70/70 73/73/73 72/72/72
f 73/73/73 74/74/74 72/72/72
f 74/74/74 75/75/75 72/72/72
f 72/72/72 75/75/75 76/76/76
f 75/75/75 77/77/77 76/76/76
f 77/77/77 78/78/78 76/76/76
f 77/77/77 79/79/79 78/78/78
f 77/77/77 80/80/80 79/79/79
f 80/80/80 81/81/81 79/79/79
f 80/80/80 82/82/82 81/81/81
f 82/82/82 83/83/83 81/81/81
f 72/72/72 76/76/76 84/84/84
f 72/72/72 84/84/84 85/85/85
f 72/72/72 85/85/85 86/86/86
f 86/86/86 87/87/87 72/72/72
f 90/90/90 89/89/89 88/88/88
f 91/91/91 90/90/90 88/88/88
f 94/94/94 93/93/93 92/92/92
f 95/95/95 94/94/94 92/92/92
f 98/98/98 97/97/97 96/96/96
f 99/99/99 98/98/98 96/96/96
f 100/100/100 98/98/98 99/99/99
f 101/101/101 100/100/100 99/99/99
f 102/102/102 100/100/100 101/101/101
f 103/103/103 102/102/102 101/101/101
f 104/104/104 102/102/102 103/103/103
f 105/105/105 104/104/104 103/103/103
f 106/106/106 104/104/104 105/105/105
f 107/107/107 106/106/106 105/105/105
f 108/108/108 106/106/106 107/107/107
f 109/109/109 108/108/108 107/107/107
f 110/110/110 108/108/108 109/109/109
f 111/111/111 110/110/110 109/109/109
f 112/112/112 110/110/110 111/111/111
f 113/113/113 112/112/112 111/111/111
f 114/114/114 112/112/112 113/113/113
f 115/115/115 114/114/114 113/113/113
f 116/116/116 114/114/114 115/115/115
f 117/117/117 116/116/116 115/115/115
f 118/118/118 116/116/116 117/117/117
f 119/119/119 118/118/118 117/117/117
f 120/120/120 118/118/118 119/119/119
f 121/121/121 120/120/120 119/119/119
f 124/124/124 123/123/123 122/122/122
f 123/123/123 125/125/125 122/122/122
f 122/122/122 125/125/125 126/126/126
f 125/125/125 127/127/127 126/126/126
f 126/126/126 127/127/127 128/128/128
f 127/127/127 129/129/129 128/128/128
f 128/128/128 129/129/129 130/130/130
f 129/129/129 131/131/131 130/130/130
f 134/134/134 133/133/133 132/132/132
f 132/132/132 135/135/135 134/134/134
f 135/135/135 136/136/136 134/134/134
f 136/136/136 137/137/137 134/134/134
f 137/137/137 138/138/138 134/134/134
f 134/134/134 138/138/138 139/139/139
f 134/134/134 139/139/139 140/140/140
f 134/134/134 140/140/140 141/141/141
f 141/141/141 142/142/142 134/134/134
f 137/137/137 143/143/143 138/138/138
f 137/137/137 144/144/144 143/143/143
f 144/144/144 145/145/145 143/143/143
f 145/145/145 146/146/146 143/143/143
f 145/145/145 147/147/147 146/146/146
f 147/147/147 148/148/148 146/146/146
f 147/147/147 149/149/149 148/148/148
f 152/152/152 151/151/151 150/150/150
f 153/153/153 152/152/152 150/150/150
f 156/156/156 155/155/155 154/154/154
f 157/157/157 156/156/156 154/154/154
f 160/160/160 159/159/159 158/158/158
f 161/161/161 160/160/160 158/158/158
f 164/164/164 163/163/163 162/162/162
f 165/165/165 164/164/164 162/162/162
f 168/168/168 167/167/167 166/166/166
f 169/169/169 168/168/168 166/166/166
f 172/172/172 171/171/171 170/170/170
f 173/173/173 172/172/172 170/170/170
f 176/176/176 175/175/175 174/174/174
f 177/177/177 176/176/176 174/174/174
f 180/180/180 179/179/179 178/178/178
f 181/181/181 180/180/180 178/178/178
f 184/184/184 183/183/183 182/182/182
f 185/185/185 184/184/184 182/182/182
f 188/188/188 187/187/187 186/186/186
f 189/189/189 188/188/188 186/186/186
f 192/192/192 191/191/191 190/190/190
f 193/193/193 192/192/192 190/190/190
f 196/196/196 195/195/195 194/194/194
f 197/197/197 196/196/196 194/194/194
f 200/200/200 199/199/199 198/198/198
f 201/201/201 200/200/200 198/198/198
f 204/204/204 203/203/203 202/202/202
f 205/205/205 204/204/204 202/202/202
f 208/208/208 207/207/207 206/206/206
f 209/209/209 208/208/208 206/206/206
f 212/212/212 211/211/211 210/210/210
f 213/213/213 212/212/212 210/210/210
f 210/210/210 214/214/214 213/213/213
f 214/214/214 210/210/210 215/215/215
