g machine2_sh_4
v 0.3179012 -0.1114298 -0.2358537
v 0.3215886 -0.1200236 -0.2623039
v 0.3179012 -0.1114298 -0.07434447
v 0.3215886 -0.1114298 -0.07434447
v 0.3215886 -0.1200236 -0.2737935
v 0.3215886 -0.1114298 -0.2358537
v -0.108155 -0.1200236 -0.2623039
v -0.108155 -0.1200236 -0.2737935
v -0.3174974 -0.1613263 -0.2418642
v -0.3215886 -0.1613263 -0.2157649
v -0.3215886 -0.1613263 -0.2418642
v -0.1596693 0.04369245 -0.3103921
v -0.3174974 -0.1613263 -0.2157649
v -0.2854097 0.04369245 -0.3103921
v -0.108155 -0.1714993 -0.2623039
v -0.3215886 -0.1714993 -0.3103921
v -0.140744 -0.1613263 -0.3103921
v -0.1596693 0.04369245 -0.303978
v 0.3215886 -0.1714993 -0.2623039
v -0.2854097 0.04369245 -0.303978
v -0.108155 -0.1714993 -0.3103921
v -0.2953934 -0.1714993 -0.2185899
v -0.2953934 -0.1714993 -0.2737935
v -0.1596693 0.02491747 -0.279075
v -0.140744 -0.1714993 -0.2737935
v -0.2854097 0.02491747 -0.279075
v -0.1596693 0.02491747 -0.2383043
v -0.2854097 0.02491747 -0.2383043
v 0.3179012 0.0465721 -0.2358537
v 0.3179012 0.06330034 -0.07434447
v 0.3215886 0.06290624 -0.07434447
v -0.3174974 0.1138624 -0.2418642
v -0.3215886 0.1170029 -0.2157649
v 0.3215886 0.0422484 -0.2737935
v -0.3174974 0.1165656 -0.2157649
v 0.3215886 0.046178 -0.2358537
v -0.3215886 0.1142997 -0.2418642
v -0.108155 0.08818036 -0.2737935
v -0.3215886 0.107202 -0.3103921
v -0.108155 0.08438972 -0.3103921
v -0.2854097 0.1033351 -0.3103921
v -0.1596693 0.08989564 -0.3103921
v -0.2854097 0.1116811 -0.2298122
v -0.1596693 0.09810401 -0.2311411
v -0.3215886 -0.1714993 0.2364657
v 0.3215886 -0.1714993 -0.01339361
v -0.3215886 0.1714993 0.3103921
v 0.3215886 0.07471554 0.03967306
v 0.3179012 -0.1114298 -0.2358537
v 0.3179012 -0.1114298 -0.2358537
v 0.3179012 -0.1114298 -0.2358537
v 0.3179012 -0.1114298 -0.2358537
v 0.3215886 -0.1200236 -0.2623039
v 0.3215886 -0.1200236 -0.2623039
v 0.3215886 -0.1200236 -0.2623039
v 0.3215886 -0.1200236 -0.2623039
v 0.3215886 -0.1200236 -0.2623039
v 0.3179012 -0.1114298 -0.07434447
v 0.3179012 -0.1114298 -0.07434447
v 0.3179012 -0.1114298 -0.07434447
v 0.3215886 -0.1114298 -0.07434447
v 0.3215886 -0.1114298 -0.07434447
v 0.3215886 -0.1114298 -0.07434447
v 0.3215886 -0.1114298 -0.07434447
v 0.3215886 -0.1114298 -0.07434447
v 0.3215886 -0.1200236 -0.2737935
v 0.3215886 -0.1200236 -0.2737935
v 0.3215886 -0.1200236 -0.2737935
v 0.3215886 -0.1200236 -0.2737935
v 0.3215886 -0.1114298 -0.2358537
v 0.3215886 -0.1114298 -0.2358537
v 0.3215886 -0.1114298 -0.2358537
v 0.3215886 -0.1114298 -0.2358537
v 0.3215886 -0.1114298 -0.2358537
v 0.3215886 -0.1114298 -0.2358537
v -0.108155 -0.1200236 -0.2623039
v -0.108155 -0.1200236 -0.2623039
v -0.108155 -0.1200236 -0.2623039
v -0.108155 -0.1200236 -0.2623039
v -0.108155 -0.1200236 -0.2737935
v -0.108155 -0.1200236 -0.2737935
v -0.108155 -0.1200236 -0.2737935
v -0.108155 -0.1200236 -0.2737935
v -0.108155 -0.1200236 -0.2737935
v -0.3174974 -0.1613263 -0.2418642
v -0.3174974 -0.1613263 -0.2418642
v -0.3215886 -0.1613263 -0.2157649
v -0.3215886 -0.1613263 -0.2157649
v -0.3215886 -0.1613263 -0.2157649
v -0.3215886 -0.1613263 -0.2157649
v -0.3215886 -0.1613263 -0.2418642
v -0.3215886 -0.1613263 -0.2418642
v -0.3215886 -0.1613263 -0.2418642
v -0.3215886 -0.1613263 -0.2418642
v -0.3215886 -0.1613263 -0.2418642
v -0.3215886 -0.1613263 -0.2418642
v -0.3215886 -0.1613263 -0.2418642
v -0.1596693 0.04369245 -0.3103921
v -0.1596693 0.04369245 -0.3103921
v -0.1596693 0.04369245 -0.3103921
v -0.1596693 0.04369245 -0.3103921
v -0.1596693 0.04369245 -0.3103921
v -0.1596693 0.04369245 -0.3103921
v -0.3174974 -0.1613263 -0.2157649
v -0.3174974 -0.1613263 -0.2157649
v -0.3174974 -0.1613263 -0.2157649
v -0.3174974 -0.1613263 -0.2157649
v -0.2854097 0.04369245 -0.3103921
v -0.2854097 0.04369245 -0.3103921
v -0.2854097 0.04369245 -0.3103921
v -0.2854097 0.04369245 -0.3103921
v -0.2854097 0.04369245 -0.3103921
v -0.108155 -0.1714993 -0.2623039
v -0.108155 -0.1714993 -0.2623039
v -0.108155 -0.1714993 -0.2623039
v -0.108155 -0.1714993 -0.2623039
v -0.108155 -0.1714993 -0.2623039
v -0.108155 -0.1714993 -0.2623039
v -0.108155 -0.1714993 -0.2623039
v -0.3215886 -0.1714993 -0.3103921
v -0.3215886 -0.1714993 -0.3103921
v -0.3215886 -0.1714993 -0.3103921
v -0.3215886 -0.1714993 -0.3103921
v -0.3215886 -0.1714993 -0.3103921
v -0.3215886 -0.1714993 -0.3103921
v -0.3215886 -0.1714993 -0.3103921
v -0.140744 -0.1613263 -0.3103921
v -0.140744 -0.1613263 -0.3103921
v -0.140744 -0.1613263 -0.3103921
v -0.1596693 0.04369245 -0.303978
v -0.1596693 0.04369245 -0.303978
v -0.1596693 0.04369245 -0.303978
v -0.1596693 0.04369245 -0.303978
v -0.1596693 0.04369245 -0.303978
v 0.3215886 -0.1714993 -0.2623039
v 0.3215886 -0.1714993 -0.2623039
v 0.3215886 -0.1714993 -0.2623039
v 0.3215886 -0.1714993 -0.2623039
v -0.2854097 0.04369245 -0.303978
v -0.2854097 0.04369245 -0.303978
v -0.2854097 0.04369245 -0.303978
v -0.2854097 0.04369245 -0.303978
v -0.108155 -0.1714993 -0.3103921
v -0.108155 -0.1714993 -0.3103921
v -0.108155 -0.1714993 -0.3103921
v -0.108155 -0.1714993 -0.3103921
v -0.108155 -0.1714993 -0.3103921
v -0.108155 -0.1714993 -0.3103921
v -0.2953934 -0.1714993 -0.2185899
v -0.2953934 -0.1714993 -0.2185899
v -0.2953934 -0.1714993 -0.2185899
v -0.2953934 -0.1714993 -0.2737935
v -0.2953934 -0.1714993 -0.2737935
v -0.2953934 -0.1714993 -0.2737935
v -0.1596693 0.02491747 -0.279075
v -0.1596693 0.02491747 -0.279075
v -0.140744 -0.1714993 -0.2737935
v -0.140744 -0.1714993 -0.2737935
v -0.140744 -0.1714993 -0.2737935
v -0.140744 -0.1714993 -0.2737935
v -0.2854097 0.02491747 -0.279075
v -0.2854097 0.02491747 -0.279075
v -0.2854097 0.02491747 -0.279075
v -0.2854097 0.02491747 -0.279075
v -0.2854097 0.02491747 -0.279075
v -0.2854097 0.02491747 -0.279075
v -0.1596693 0.02491747 -0.2383043
v -0.1596693 0.02491747 -0.2383043
v -0.1596693 0.02491747 -0.2383043
v -0.1596693 0.02491747 -0.2383043
v -0.1596693 0.02491747 -0.2383043
v -0.2854097 0.02491747 -0.2383043
v -0.2854097 0.02491747 -0.2383043
v -0.2854097 0.02491747 -0.2383043
v 0.3179012 0.0465721 -0.2358537
v 0.3179012 0.0465721 -0.2358537
v 0.3179012 0.0465721 -0.2358537
v 0.3179012 0.0465721 -0.2358537
v 0.3179012 0.0465721 -0.2358537
v 0.3179012 0.06330034 -0.07434447
v 0.3179012 0.06330034 -0.07434447
v 0.3179012 0.06330034 -0.07434447
v 0.3179012 0.06330034 -0.07434447
v 0.3179012 0.06330034 -0.07434447
v 0.3179012 0.06330034 -0.07434447
v 0.3215886 0.06290624 -0.07434447
v 0.3215886 0.06290624 -0.07434447
v 0.3215886 0.06290624 -0.07434447
v -0.3174974 0.1138624 -0.2418642
v -0.3174974 0.1138624 -0.2418642
v -0.3174974 0.1138624 -0.2418642
v -0.3174974 0.1138624 -0.2418642
v -0.3174974 0.1138624 -0.2418642
v -0.3174974 0.1138624 -0.2418642
v -0.3174974 0.1138624 -0.2418642
v -0.3215886 0.1170029 -0.2157649
v -0.3215886 0.1170029 -0.2157649
v -0.3215886 0.1170029 -0.2157649
v -0.3215886 0.1170029 -0.2157649
v 0.3215886 0.0422484 -0.2737935
v 0.3215886 0.0422484 -0.2737935
v 0.3215886 0.0422484 -0.2737935
v 0.3215886 0.0422484 -0.2737935
v -0.3174974 0.1165656 -0.2157649
v -0.3174974 0.1165656 -0.2157649
v -0.3174974 0.1165656 -0.2157649
v -0.3174974 0.1165656 -0.2157649
v -0.3174974 0.1165656 -0.2157649
v 0.3215886 0.046178 -0.2358537
v 0.3215886 0.046178 -0.2358537
v 0.3215886 0.046178 -0.2358537
v -0.3215886 0.1142997 -0.2418642
v -0.3215886 0.1142997 -0.2418642
v -0.108155 0.08818036 -0.2737935
v -0.108155 0.08818036 -0.2737935
v -0.108155 0.08818036 -0.2737935
v -0.108155 0.08818036 -0.2737935
v -0.108155 0.08818036 -0.2737935
v -0.108155 0.08818036 -0.2737935
v -0.108155 0.08818036 -0.2737935
v -0.3215886 0.107202 -0.3103921
v -0.3215886 0.107202 -0.3103921
v -0.3215886 0.107202 -0.3103921
v -0.3215886 0.107202 -0.3103921
v -0.3215886 0.107202 -0.3103921
v -0.108155 0.08438972 -0.3103921
v -0.108155 0.08438972 -0.3103921
v -0.108155 0.08438972 -0.3103921
v -0.108155 0.08438972 -0.3103921
v -0.2854097 0.1033351 -0.3103921
v -0.2854097 0.1033351 -0.3103921
v -0.2854097 0.1033351 -0.3103921
v -0.2854097 0.1033351 -0.3103921
v -0.2854097 0.1033351 -0.3103921
v -0.1596693 0.08989564 -0.3103921
v -0.1596693 0.08989564 -0.3103921
v -0.1596693 0.08989564 -0.3103921
v -0.1596693 0.08989564 -0.3103921
v -0.1596693 0.08989564 -0.3103921
v -0.2854097 0.1116811 -0.2298122
v -0.2854097 0.1116811 -0.2298122
v -0.2854097 0.1116811 -0.2298122
v -0.2854097 0.1116811 -0.2298122
v -0.2854097 0.1116811 -0.2298122
v -0.2854097 0.1116811 -0.2298122
v -0.1596693 0.09810401 -0.2311411
v -0.1596693 0.09810401 -0.2311411
v -0.1596693 0.09810401 -0.2311411
v -0.1596693 0.09810401 -0.2311411
v -0.1596693 0.09810401 -0.2311411
v -0.1596693 0.09810401 -0.2311411
v -0.3215886 -0.1714993 0.2364657
v -0.3215886 -0.1714993 0.2364657
v -0.3215886 -0.1714993 0.2364657
v -0.3215886 -0.1714993 0.2364657
v -0.3215886 -0.1714993 0.2364657
v -0.3215886 -0.1714993 0.2364657
v -0.3215886 -0.1714993 0.2364657
v -0.3215886 -0.1714993 0.2364657
v -0.3215886 -0.1714993 0.2364657
v 0.3215886 -0.1714993 -0.01339361
v 0.3215886 -0.1714993 -0.01339361
v 0.3215886 -0.1714993 -0.01339361
v 0.3215886 -0.1714993 -0.01339361
v 0.3215886 -0.1714993 -0.01339361
v -0.3215886 0.1714993 0.3103921
v -0.3215886 0.1714993 0.3103921
v 0.3215886 0.07471554 0.03967306
v 0.3215886 0.07471554 0.03967306
v 0.3215886 0.07471554 0.03967306
v 0.3215886 0.07471554 0.03967306
v 0.3215886 0.07471554 0.03967306
v 0.3215886 0.07471554 0.03967306
v 0.3215886 0.07471554 0.03967306
v 0.3215886 0.07471554 0.03967306
v 0.3215886 0.07471554 0.03967306
vt 0.8671519 0.5002401
vt 0.9372056 0.03490517
vt 0.8671519 0.479086
vt 0.867635 0.479086
vt 0.9357005 0.03490517
vt 0.867635 0.5002401
vt 0.9372056 0.09119618
vt 0.9357005 0.09119618
vt 0.5934395 0.01704192
vt 0.5929576 0.01323962
vt 0.5929576 0.01704192
vt 0.5403665 0.6768611
vt 0.5934395 0.01323962
vt 0.5323383 0.581412
vt 0.942978 0.009916023
vt 0.8887917 0.004882818
vt 0.6009785 0.581412
vt 0.5877822 0.3089154
vt 0.004882813 0.6803866
vt 0.5853962 0.3089154
vt 0.942978 0.004882813
vt 0.6219793 0.5934388
vt 0.6220133 0.5862067
vt 0.243121 0.6804945
vt 0.6466462 0.5862066
vt 0.9573885 0.6046176
vt 0.587779 0.2753877
vt 0.9372793 0.6046176
vt 0.995061 0.7755458
vt 0.805819 0.09255711
vt 0.9950714 0.3456562
vt 0.9808087 0.5063317
vt 0.9862102 0.8293135
vt 0.8967564 0.5948526
vt 0.9862106 0.8109941
vt 0.8780481 0.5968072
vt 0.9789948 0.5065457
vt 0.8015957 0.09722389
vt 0.8888551 0.1423259
vt 0.9610683 0.004882813
vt 0.6125019 0.581412
vt 0.5402658 0.6973548
vt 0.9332451 0.6474186
vt -0.02958058 -0.06702545
vt 1.158535 0.004882693
vt 0.702654 0.6158012
vt -0.07070816 0.07052428
vt 0.09265917 0.001761472
vt 0.8671519 0.5002401
vt 0.8846626 0.004882813
vt 0.995061 0.8456221
vt 0.8846626 0.004882813
vt 0.8910152 0.5148308
vt 0.8910152 0.5148308
vt 0.004882813 0.6987039
vt 0.8910152 0.5148308
vt 0.6061719 0.3486038
vt 0.805819 0.004882813
vt 0.9934256 0.4229779
vt 0.9934256 0.4229779
vt 0.867635 0.479086
vt 0.995061 0.4229779
vt 0.5134745 0.352842
vt 0.5134745 0.352842
vt 0.5134745 0.352842
vt 0.9357005 0.03490517
vt 0.8966815 0.5148255
vt 0.6109989 0.004882813
vt 0.6109989 0.004882813
vt 0.9934256 0.8456221
vt 0.8779753 0.519081
vt 0.9934256 0.8456221
vt 0.5931274 0.352842
vt 0.5931274 0.352842
vt 0.5931274 0.352842
vt 0.9372056 0.09119618
vt 0.942978 0.004882813
vt 0.1954899 0.698704
vt 0.004882813 0.6803866
vt 0.8015957 0.004882813
vt 0.9393083 0.004882813
vt 0.9610683 0.009916023
vt 0.942978 0.004882813
vt 0.942978 0.03035092
vt 0.9808092 0.3843133
vt 0.2991672 0.4843158
vt 0.9862102 0.8293135
vt 0.9354702 0.009899706
vt 0.988025 0.8109941
vt 0.9354702 0.009899706
vt 0.5929576 0.01704192
vt 0.9789948 0.3843133
vt 0.9225962 0.009899721
vt 0.9225962 0.009899721
vt 0.9225962 0.009899721
vt 0.9789948 0.3843133
vt 0.9225981 0.03026837
vt 0.5403665 0.6768611
vt 0.6009754 0.5859244
vt 0.5877822 0.3080752
vt 0.5853962 0.3089154
vt 0.5403818 0.6768611
vt 0.7084646 0.5906733
vt 0.5934395 0.01323962
vt 0.988025 0.8109941
vt 0.2991672 0.4639516
vt 0.2862928 0.4639516
vt 0.6009785 0.581412
vt 0.5877822 0.3089154
vt 0.6009785 0.581412
vt 0.6125139 0.5859244
vt 0.9728591 0.6138793
vt 0.004882813 0.6987039
vt 0.942978 0.009916023
vt 0.6466978 0.581412
vt 0.6466194 0.5877119
vt 0.6466131 0.5877119
vt 0.6466131 0.5877119
vt 0.702654 0.6158012
vt 0.5323352 0.5859244
vt 0.8887917 0.004882818
vt 0.618606 0.581412
vt 0.6185699 0.5862066
vt 0.6219144 0.581412
vt 0.6126283 0.581412
vt 0.6125019 0.581412
vt 0.5324172 0.5859244
vt 0.5323352 0.5859244
vt 0.5324172 0.5859244
vt 0.2368307 0.6804941
vt 0.2431167 0.6697266
vt 0.7116318 0.5906733
vt 0.7115616 0.5906734
vt 0.7115616 0.5906734
vt 0.1954899 0.698704
vt 0.7025767 0.5877119
vt 0.6061718 0.3232183
vt 0.6061718 0.3232183
vt 0.5877822 0.3080752
vt 0.243121 0.6804945
vt 0.9697016 0.6138793
vt 0.9697016 0.6138793
vt 0.5179887 0.5814121
vt 0.5179887 0.5814121
vt 0.9393083 0.004882813
vt 0.6424347 0.581412
vt 0.6183352 0.581412
vt 0.5179887 0.5814121
vt 0.6219728 0.5900018
vt 0.622098 0.5934387
vt 0.7025767 0.5877119
vt 0.6183352 0.581412
vt 0.6220133 0.5862067
vt 0.6423693 0.5877119
vt 0.587779 0.2807293
vt 0.7238531 0.581412
vt 0.6219144 0.581412
vt 0.6185699 0.5862066
vt 0.621986 0.5934388
vt 0.6423663 0.5862067
vt 0.2431167 0.6697266
vt 0.2368307 0.6804941
vt 0.5853992 0.2807293
vt 0.587779 0.2753877
vt 0.957408 0.6046176
vt 0.957408 0.6046176
vt 0.5853992 0.2807293
vt 0.7439788 0.581412
vt 0.7439788 0.581412
vt 0.7439788 0.581412
vt 0.7986033 0.479086
vt 0.587779 0.2807293
vt 0.8542851 0.4790861
vt 0.8542851 0.4790861
vt 0.8846626 0.08416338
vt 0.09172256 -0.06822248
vt 0.09172256 -0.06822248
vt 0.09172256 -0.06822248
vt 0.995061 0.7755457
vt 0.805819 0.09255712
vt 0.993436 0.3454815
vt 0.09172256 -0.02719904
vt 0.09172256 -0.02719904
vt 0.09172256 -0.02719904
vt 0.09172256 -0.02719904
vt 0.9950714 0.3456562
vt 0.09265917 -0.02719904
vt 0.5134751 0.4388173
vt 0.9808087 0.5063317
vt -0.069669 -0.06974913
vt 0.2862928 0.4639516
vt 0.2991672 0.4639516
vt -0.069669 -0.06974913
vt -0.069669 -0.06974913
vt -0.069669 -0.06974913
vt -0.07070817 -0.06311988
vt -0.07070817 -0.06311988
vt 0.9355332 0.1471593
vt 0.9355332 0.1471593
vt 0.8967564 0.5948526
vt 0.09265916 -0.07785919
vt 0.6109989 0.07685251
vt 0.09265916 -0.07785919
vt 0.9862106 0.8109941
vt -0.069669 -0.06311988
vt 0.2991672 0.4843158
vt -0.069669 -0.06311988
vt -0.069669 -0.06311988
vt 0.8780472 0.5968068
vt 0.09265916 -0.06822248
vt 0.9934256 0.7757428
vt 0.906853 0.009899709
vt -0.07070817 -0.06974913
vt -0.01649594 -0.07785919
vt -0.01649594 -0.07785919
vt -0.01649594 -0.07785919
vt 0.8015957 0.09722389
vt 0.9429779 0.1333615
vt -0.01649594 -0.07785919
vt -0.01649594 -0.07785919
vt 0.9225895 0.009899709
vt -0.07070817 -0.08715526
vt 0.6125139 0.5859244
vt 0.6009785 0.581412
vt -0.07070817 -0.08715526
vt 0.5174364 0.6949124
vt 0.9610683 0.1314858
vt 0.5175724 0.6949124
vt -0.01649594 -0.08715526
vt 0.9729688 0.6433016
vt 0.9729688 0.6433016
vt -0.06151871 -0.08715526
vt 0.9729688 0.6433016
vt -0.06151871 -0.08715526
vt 0.7084363 0.6134645
vt -0.02958058 -0.08715526
vt -0.02958058 -0.08715526
vt 0.7083991 0.6134646
vt 0.7083991 0.6134646
vt -0.06151871 -0.06668792
vt -0.06151871 -0.06668792
vt 0.9333172 0.647419
vt -0.06151871 -0.06668792
vt 0.854285 0.5176489
vt -0.06151871 -0.06668792
vt -0.02958058 -0.06702545
vt -0.02958058 -0.06702545
vt 0.7475206 0.6175136
vt 0.7986033 0.5116144
vt 0.7986033 0.5116144
vt -0.02958058 -0.06702545
vt 1.158535 0.004882693
vt 0.6182687 0.6530544
vt 0.6182687 0.6530544
vt 0.702654 0.6158012
vt 0.6466131 0.5877119
vt 1.158535 0.004882693
vt 1.158535 0.004882693
vt 0.07070816 -0.006537434
vt 0.07070816 -0.006537434
vt 0.7025767 0.5877119
vt -0.09265917 -0.006537434
vt 0.4834148 0.3232181
vt 0.4834148 0.3232181
vt 0.4834148 0.3232181
vt 1.195079 0.1740346
vt 0.07070816 0.08058439
vt 0.09265917 0.001761472
vt 0.09265917 0.001761472
vt 0.09265917 0.001761472
vt 0.09265917 0.001761472
vt 0.09265917 0.001761472
vt -0.09265917 0.05600126
vt -0.09265917 0.05600126
vt 0.4572439 0.4446411
vt 0.4572439 0.4446411
vn 0 1 0
vn 0 -1 0
vn 0 1 0
vn 0 1 0
vn 0 -1 0
vn 0 1 0
vn 0 -1 0
vn 0 -1 0
vn 0 1 0
vn 0 1 0
vn 0 1 0
vn 0 0 -1
vn 0 1 0
vn 0 0 -1
vn 1 0 0
vn -1 0 5.280282E-07
vn 0 0 -1
vn 0 1 0
vn 0 0 -1
vn 0 1 0
vn 1 0 0
vn 0 -1 0
vn 0 -1 0
vn 0 0.1149405 0.9933723
vn 0 -1 0
vn 1 0 0
vn 0 1 0
vn 1 0 0
vn 0 0 1
vn 1 0 0
vn 0 0 -1
vn 0 0 1
vn 0 1.114285E-07 -1
vn 1 0 -1.904195E-06
vn 0 1.114285E-07 -1
vn 1 0 8.252058E-07
vn 0 0 1
vn 0 0 -1
vn -1 0 2.707322E-07
vn 1 0 0
vn 0 0 -1
vn -5.795274E-07 0 -1
vn 1 0 0
vn 0.1057177 0.9891049 -0.1024459
vn -1 0 -2.39664E-06
vn 0 -1 0
vn 0.1057177 0.9891049 -0.102446
vn 0.1057177 0.9891049 -0.102446
vn 0 1 0
vn 1 0 0
vn 0 0 1
vn 1 0 0
vn 1 0 -2.295896E-06
vn 1 0 -2.295896E-06
vn 0 0 -1
vn 1 0 -2.295896E-06
vn 1 0 0
vn 1 0 0
vn 0 0 -1
vn 0 0 -1
vn 0 1 0
vn 0 0 -1
vn 1 0 0
vn 1 0 0
vn 1 0 0
vn 0 -1 0
vn 1 0 -2.295896E-06
vn 0 0 -1
vn 0 0 -1
vn 0 0 1
vn 1 0 9.927338E-07
vn 0 0 1
vn 1 0 0
vn 1 0 0
vn 1 0 0
vn 0 -1 0
vn 1 0 0
vn 0 0 -1
vn 0 0 -1
vn 0 0 -1
vn 1 0 -1.913239E-07
vn 1 0 0
vn 1 0 0
vn 1 0 0
vn 0 0 1
vn -1 0 0
vn 0 1.114285E-07 -1
vn -1 0 1.255748E-08
vn 0 1.114285E-07 -1
vn -1 0 1.255748E-08
vn 0 1 0
vn 0 0 1
vn -1 0 1.521403E-07
vn -1 0 1.521403E-07
vn -1 0 1.521403E-07
vn 0 0 1
vn -1 0 -5.507755E-07
vn 0 0 -1
vn 0 0 -1
vn 0 1 0
vn 0 1 0
vn -1.154491E-06 0 -1
vn -1 0 0
vn 0 1 0
vn 0 1.114285E-07 -1
vn -1 0 0
vn -1 0 0
vn 0 0 -1
vn 0 1 0
vn 0 0 -1
vn 0 0 -1
vn 1 0 0
vn 0 0 -1
vn 1 0 0
vn 0 -1 0
vn 0 -1 0
vn 0 -1 0
vn 0 -1 0
vn 0 -1 0
vn 0 0 -1
vn -1 0 5.280282E-07
vn 0 -1 0
vn 0 -1 0
vn 0 -1 0
vn 0 0 -1
vn 0 0 -1
vn 0 0 -1
vn 0 0 -1
vn 0 0 -1
vn 0 0.1149405 0.9933724
vn 0 0.1149405 0.9933723
vn -1 0 0
vn -1 0 0
vn -1 0 0
vn 0 0 -1
vn 0 -1 0
vn 1 0 0
vn 1 0 0
vn 0 1 0
vn 0 0.1149405 0.9933723
vn 1 0 0
vn 1 0 0
vn 0 0 -1
vn 0 0 -1
vn 1 0 -1.913239E-07
vn 0 -1 0
vn 0 -1 0
vn 0 0 -1
vn 0 -1 0
vn 0 -1 0
vn 0 -1 0
vn 0 -1 0
vn 0 -1 0
vn 0 -1 0
vn 0 1 0
vn -1 0 0
vn 0 -1 0
vn 0 -1 0
vn 0 -1 0
vn 0 -1 0
vn 0 0.1149405 0.9933723
vn 0 0.1149405 0.9933724
vn 0 1 0
vn 0 1 0
vn 1 0 0
vn 1 0 0
vn 0 1 0
vn -1 0 0
vn -1 0 0
vn -1 0 0
vn 0 0.008537843 -0.9999636
vn 0 1 0
vn 0 0.00853784 -0.9999636
vn 0 0.00853784 -0.9999636
vn 1 0 0
vn 0.1057178 0.9891049 -0.102446
vn 0.1057178 0.989105 -0.1024459
vn 0.1057143 0.9891052 -0.1024463
vn 0 0 1
vn 1 0 0
vn 0 0 -1
vn 0.1057177 0.9891049 -0.1024459
vn 0.1057178 0.9891049 -0.102446
vn 0.1057178 0.9891049 -0.1024461
vn 0.1057143 0.9891053 -0.102446
vn 0 0 -1
vn 0.1057143 0.9891053 -0.102446
vn 1 0 0
vn 0 0 1
vn 0.1057171 0.9891049 -0.1024469
vn -1 0 0
vn -1 0 0
vn 0.10572 0.9891047 -0.1024457
vn 0.1057177 0.989105 -0.1024455
vn 0.1057168 0.989105 -0.102446
vn 0.1057177 0.9891049 -0.102446
vn 0.1057136 0.9891065 -0.1024355
vn -1 0 -2.443949E-07
vn -1 0 -2.443949E-07
vn 1 0 -1.904195E-06
vn 0.1057178 0.989105 -0.1024459
vn 0 0 -1
vn 0.1057143 0.9891052 -0.1024463
vn 0 1.114285E-07 -1
vn 0.1057171 0.9891049 -0.1024469
vn -1 0 0
vn 0.1057136 0.9891065 -0.1024355
vn 0.1057175 0.989105 -0.1024455
vn 1 0 -1.894714E-06
vn 0.1057143 0.9891052 -0.1024463
vn 0 0 1
vn -1 0 0
vn 0.10572 0.9891047 -0.1024457
vn 0.1057177 0.9891049 -0.1024459
vn 0.1057178 0.9891049 -0.102446
vn 0.1057178 0.989105 -0.1024459
vn 0 0 -1
vn 1 0 0
vn 0.105717 0.9891051 -0.102445
vn 0.1057177 0.9891049 -0.1024459
vn -1 0 -5.507756E-07
vn 0.10572 0.9891047 -0.1024457
vn 0 0 -1
vn 0 0 -1
vn 0.1057177 0.989105 -0.1024455
vn 0 0 -1
vn 1 0 0
vn -2.699353E-06 0 -1
vn 0.105717 0.9891051 -0.102445
vn 1 0 0
vn 1 0 0
vn 0.1057177 0.989105 -0.1024455
vn 1 0 0
vn 0.1057168 0.989105 -0.102446
vn -1 0 0
vn 0.105717 0.9891051 -0.102445
vn 0.1057177 0.9891049 -0.1024459
vn -1 0 0
vn -1 0 0
vn 0.1057171 0.9891049 -0.1024469
vn 0.1057175 0.989105 -0.1024455
vn 1 0 0
vn 0.1057168 0.989105 -0.102446
vn 0 0.008537841 -0.9999636
vn 0.105718 0.9891049 -0.1024465
vn 0.1057178 0.9891049 -0.1024461
vn 0.1057177 0.9891049 -0.1024459
vn -1 0 0
vn 0 0.008537843 -0.9999636
vn 0 0.008537843 -0.9999636
vn 0.105718 0.9891049 -0.1024465
vn -1 0 -2.39664E-06
vn 0 -1 0
vn 0 -1 0
vn 0 -1 0
vn 0 -1 0
vn -1 0 -2.39664E-06
vn -1 0 -2.39664E-06
vn 0.3550187 -0.1969671 0.913874
vn 0.3550187 -0.1969672 0.913874
vn 0 -1 0
vn 0.3550187 -0.1969672 0.913874
vn 1 0 0
vn 1 0 0
vn 1 0 0
vn -1 0 -3.108661E-06
vn 0.3550187 -0.1969671 0.913874
vn 0.1057136 0.9891065 -0.1024355
vn 0.1057175 0.989105 -0.1024455
vn 0.1057178 0.9891049 -0.1024461
vn 0.1057143 0.9891053 -0.102446
vn 0.105718 0.9891049 -0.1024465
vn 0.3550187 -0.1969671 0.913874
vn 0.3550187 -0.1969672 0.913874
vn 1 0 0
vn 1 0 0
g machine2_sh_4_0
f 5/5/5 2/2/2 7/7/7
f 6/6/6 1/1/1 4/4/4
f 49/49/49 3/3/3 61/61/61
f 8/8/8 66/66/66 76/76/76
f 10/10/10 13/13/13 11/11/11
f 104/104/104 9/9/9 91/91/91
f 30/30/30 58/58/58 50/50/50
f 53/53/53 67/67/67 34/34/34
f 29/29/29 51/51/51 70/70/70
f 36/36/36 71/71/71 54/54/54
f 68/68/68 80/80/80 38/38/38
f 43/43/43 28/28/28 26/26/26
f 35/35/35 105/105/105 87/87/87
f 92/92/92 85/85/85 32/32/32
f 93/93/93 39/39/39 16/16/16
f 81/81/81 77/77/77 15/15/15
f 78/78/78 55/55/55 19/19/19
f 135/135/135 113/113/113 79/79/79
f 120/120/120 14/14/14 17/17/17
f 21/21/21 40/40/40 82/82/82
f 12/12/12 226/226/226 143/143/143
f 127/127/127 98/98/98 144/144/144
f 99/99/99 128/128/128 108/108/108
f 94/94/94 121/121/121 45/45/45
f 88/88/88 95/95/95 252/252/252
f 253/253/253 122/122/122 23/23/23
f 100/100/100 109/109/109 20/20/20
f 139/139/139 18/18/18 101/101/101
f 145/145/145 83/83/83 114/114/114
f 146/146/146 115/115/115 25/25/25
f 123/123/123 147/147/147 157/157/157
f 158/158/158 152/152/152 124/124/124
f 148/148/148 125/125/125 129/129/129
f 161/161/161 24/24/24 130/130/130
f 131/131/131 140/140/140 162/162/162
f 22/22/22 254/254/254 153/153/153
f 149/149/149 154/154/154 159/159/159
f 27/27/27 155/155/155 163/163/163
f 164/164/164 172/172/172 167/167/167
f 175/175/175 180/180/180 52/52/52
f 59/59/59 181/181/181 31/31/31
f 186/186/186 62/62/62 60/60/60
f 37/37/37 96/96/96 189/189/189
f 204/204/204 89/89/89 33/33/33
f 209/209/209 56/56/56 200/200/200
f 106/106/106 206/206/206 191/191/191
f 192/192/192 86/86/86 107/107/107
f 69/69/69 217/217/217 202/202/202
f 179/179/179 72/72/72 211/211/211
f 221/221/221 97/97/97 212/212/212
f 218/218/218 84/84/84 227/227/227
f 110/110/110 126/126/126 223/223/223
f 224/224/224 41/41/41 111/111/111
f 42/42/42 228/228/228 102/102/102
f 235/235/235 103/103/103 132/132/132
f 141/141/141 112/112/112 230/230/230
f 165/165/165 142/142/142 231/231/231
f 168/168/168 248/248/248 238/238/238
f 169/169/169 239/239/239 133/133/133
f 134/134/134 156/156/156 170/170/170
f 242/242/242 166/166/166 233/233/233
f 173/173/173 244/244/244 249/249/249
f 250/250/250 171/171/171 174/174/174
f 150/150/150 160/160/160 116/116/116
f 117/117/117 136/136/136 46/46/46
f 118/118/118 261/261/261 255/255/255
f 256/256/256 151/151/151 119/119/119
f 257/257/257 266/266/266 198/198/198
f 199/199/199 90/90/90 258/258/258
f 275/275/275 263/263/263 63/63/63
f 64/64/64 188/188/188 276/276/276
f 73/73/73 264/264/264 137/137/137
f 138/138/138 57/57/57 74/74/74
f 265/265/265 75/75/75 65/65/65
f 190/190/190 205/205/205 240/240/240
f 214/214/214 44/44/44 182/182/182
f 215/215/215 183/183/183 176/176/176
f 201/201/201 216/216/216 177/177/177
f 210/210/210 203/203/203 178/178/178
f 196/196/196 47/47/47 48/48/48
f 207/207/207 197/197/197 268/268/268
f 241/241/241 208/208/208 269/269/269
f 184/184/184 246/246/246 270/270/270
f 185/185/185 271/271/271 187/187/187
f 222/222/222 213/213/213 193/193/193
f 232/232/232 225/225/225 194/194/194
f 219/219/219 229/229/229 236/236/236
f 237/237/237 247/247/247 220/220/220
f 243/243/243 234/234/234 195/195/195
f 245/245/245 272/272/272 251/251/251
f 273/273/273 267/267/267 259/259/259
f 274/274/274 260/260/260 262/262/262
