g mesh1324040587
v 0.006946936 -0.06284606 0.009482265
v 0.01570901 -0.04383731 -0.008785799
v 0.01570901 -0.04383731 0.01121421
v 0.0180829 0.08136761 0.00813958
v 0.03570902 0.04671812 -0.008785799
v 0.03570902 0.04671812 0.01121421
v 0.01259063 0.06229985 0.0106407
v 0.03570902 0.04671812 0.01121421
v 0.01570903 0.04671812 0.01121421
v 0.01259063 0.06229985 0.0106407
v 0.01570903 0.04671812 0.01121421
v 0.01570903 0.04671812 -0.008785799
v 0.01259063 0.06229985 0.0106407
v 0.01570903 0.04671812 -0.008785799
v 0.0107125 0.06024301 -0.009164408
v 0.03570902 0.04671812 -0.008785799
v 0.0180829 0.08136761 0.00813958
v 0.01620477 0.07931077 -0.01166554
v 0.03570902 0.04671812 0.01121421
v 0.01259063 0.06229985 0.0106407
v 0.0180829 0.08136761 0.00813958
v 0.01898642 -0.08129823 -0.008253872
v 0.03570901 -0.04383731 0.01121421
v 0.03570901 -0.04383731 -0.008785799
v 0.01570901 -0.04383731 -0.008785799
v 0.006946936 -0.06284606 0.009482265
v 0.009529069 -0.06379795 -0.0103275
v 0.01898642 -0.08129823 -0.008253872
v 0.01570901 -0.04383731 -0.008785799
v 0.009529069 -0.06379795 -0.0103275
v 0.01570901 -0.04383731 0.01121421
v 0.01640427 -0.08034635 0.0115559
v 0.006946936 -0.06284606 0.009482265
v 0.03570901 -0.04383731 0.01121421
v 0.01898642 -0.08129823 -0.008253872
v 0.01640427 -0.08034635 0.0115559
v 0.01570903 0.04671812 -0.008785799
v 0.03570901 -0.04383731 -0.008785799
v 0.03570902 0.04671812 -0.008785799
v 0.01570901 -0.04383731 -0.008785799
v 0.01898642 -0.08129823 -0.008253872
v 0.03570901 -0.04383731 0.01121421
v 0.01570903 0.04671812 0.01121421
v 0.03570902 0.04671812 0.01121421
v 0.01570901 -0.04383731 0.01121421
v 0.01640427 -0.08034635 0.0115559
v 0.0107125 0.06024301 -0.009164408
v 0.01570903 0.04671812 -0.008785799
v 0.03570902 0.04671812 -0.008785799
v 0.01620477 0.07931077 -0.01166554
v 0.01570901 -0.04383731 0.01121421
v 0.01570901 -0.04383731 -0.008785799
v 0.01570903 0.04671812 -0.008785799
v 0.01570903 0.04671812 0.01121421
v 0.03570902 0.04671812 -0.008785799
v 0.03570901 -0.04383731 -0.008785799
v 0.03570901 -0.04383731 0.01121421
v 0.03570902 0.04671812 0.01121421
v 0.01259063 0.06229985 0.0106407
v 0.0107125 0.06024301 -0.009164408
v 0.01620477 0.07931077 -0.01166554
v 0.0180829 0.08136761 0.00813958
v 0.01898642 -0.08129823 -0.008253872
v 0.009529069 -0.06379795 -0.0103275
v 0.006946936 -0.06284606 0.009482265
v 0.01640427 -0.08034635 0.0115559
vt -0.06681043 0.118828
vt -0.06591249 0.1214571
vt -0.06776349 0.1206996
vt 0.1636231 -0.0202484
vt 0.1597732 -0.01847189
vt 0.1597298 -0.02047142
vt 0.1617236 0.05898097
vt 0.1592813 0.06032663
vt 0.1601939 0.05854698
vt -0.1438678 0.09650104
vt -0.1426775 0.09544674
vt -0.1414063 0.09699078
vt -0.1564867 0.0659711
vt -0.1541449 0.06687409
vt -0.1553722 0.06763181
vt 0.1392234 -0.07511301
vt 0.1423074 -0.07802273
vt 0.1428992 -0.07611229
vt 0.1572597 0.05972223
vt 0.1597175 0.05840497
vt 0.1611588 0.05979162
vt 0.06551825 0.119126
vt 0.06888431 0.1221738
vt 0.06703593 0.1229377
vt -0.09586927 0.1138539
vt -0.09639548 0.111126
vt -0.09466939 0.1121362
vt -0.1456646 0.06171429
vt -0.1491005 0.0632434
vt -0.1476646 0.06171755
vt 0.1488945 0.06315717
vt 0.1456662 0.0614503
vt 0.1476662 0.06145351
vt 0.08487375 0.1071548
vt 0.0813143 0.1043353
vt 0.08309614 0.1034269
vt -0.1614441 0.05724334
vt -0.1524502 0.05498242
vt -0.1605497 0.05903219
vt -0.1533446 0.05319357
vt -0.1494336 0.05230811
vt 0.1524502 0.05498242
vt 0.1614441 0.05724334
vt 0.1605497 0.05903219
vt 0.1533446 0.05319357
vt 0.149762 0.05194613
vt -0.1597433 0.06025543
vt -0.158316 0.06006501
vt -0.1573801 0.06183252
vt -0.1611844 0.06163992
vt -0.1073805 0.1210849
vt -0.105753 0.1222474
vt -0.1110164 0.1296162
vt -0.1126439 0.1284537
vt 0.1110164 0.1296162
vt 0.105753 0.1222474
vt 0.1073805 0.1210849
vt 0.1126439 0.1284537
vt -0.07075979 0.1423109
vt -0.06882496 0.1428173
vt -0.06933138 0.1447522
vt -0.0712662 0.1442458
vt -0.1458552 -0.02453038
vt -0.1478552 -0.02452311
vt -0.1478625 -0.0265231
vt -0.1458625 -0.02653037
vn -0.9081625 0.4186178 0
vn -0.9081625 0.4186178 0
vn -0.9081625 0.4186178 0
vn 0.8913046 0.4534051 0
vn 0.8913046 0.4534051 0
vn 0.8913046 0.4534051 0
vn 0 0.03678183 0.9993234
vn 0 0.03678183 0.9993234
vn 0 0.03678183 0.9993234
vn -0.9805558 -0.1962406 0
vn -0.9805558 -0.1962406 0
vn -0.9805558 -0.1962406 0
vn -0.9319433 -0.3408253 0.1237728
vn -0.9319433 -0.3408253 0.1237728
vn -0.9319433 -0.3408253 0.1237728
vn 0.8555923 0.500249 -0.1330889
vn 0.8555923 0.500249 -0.1330889
vn 0.8555923 0.500249 -0.1330889
vn 0.05283296 0.1148987 0.9919713
vn 0.05283296 0.1148987 0.9919713
vn 0.05283296 0.1148987 0.9919713
vn 0.9131472 -0.40763 0
vn 0.9131472 -0.40763 0
vn 0.9131472 -0.40763 0
vn -0.9431436 0.3026222 -0.137477
vn -0.9431436 0.3026222 -0.137477
vn -0.9431436 0.3026222 -0.137477
vn 0.2243888 0.005794515 -0.9744824
vn 0.2243888 0.005794515 -0.9744824
vn 0.2243888 0.005794515 -0.9744824
vn -0.2048763 0.005258841 0.9787738
vn -0.2048763 0.005258841 0.9787738
vn -0.2048763 0.005258841 0.9787738
vn 0.8762854 -0.4620736 0.1364247
vn 0.8762854 -0.4620736 0.1364247
vn 0.8762854 -0.4620736 0.1364247
vn 0 0 -1
vn 0 0 -1
vn 0 0 -1
vn 0 0 -1
vn 0 -0.01419792 -0.9998993
vn 0 0 1
vn 0 0 1
vn 0 0 1
vn 0 0 1
vn 0 0.009358619 0.9999563
vn 0 -0.0880129 -0.9961194
vn 0 -0.0880129 -0.9961194
vn 0 -0.0880129 -0.9961194
vn 0 -0.0880129 -0.9961194
vn -1 0 0
vn -1 0 0
vn -1 0 0
vn -1 0 0
vn 1 0 0
vn 1 0 0
vn 1 0 0
vn 1 0 0
vn -0.9569582 0.2836808 0.06128747
vn -0.9569582 0.2836808 0.06128747
vn -0.9569582 0.2836808 0.06128747
vn -0.9569582 0.2836808 0.06128747
vn -0.8716244 -0.4817542 -0.09046425
vn -0.8716244 -0.4817542 -0.09046425
vn -0.8716244 -0.4817542 -0.09046425
vn -0.8716244 -0.4817542 -0.09046425
g mesh1324040587_0
f 3/3/3 2/2/2 1/1/1
f 6/6/6 5/5/5 4/4/4
f 9/9/9 8/8/8 7/7/7
f 12/12/12 11/11/11 10/10/10
f 15/15/15 14/14/14 13/13/13
f 18/18/18 17/17/17 16/16/16
f 21/21/21 20/20/20 19/19/19
f 24/24/24 23/23/23 22/22/22
f 27/27/27 26/26/26 25/25/25
f 30/30/30 29/29/29 28/28/28
f 33/33/33 32/32/32 31/31/31
f 36/36/36 35/35/35 34/34/34
f 39/39/39 38/38/38 37/37/37
f 38/38/38 40/40/40 37/37/37
f 40/40/40 38/38/38 41/41/41
f 44/44/44 43/43/43 42/42/42
f 43/43/43 45/45/45 42/42/42
f 42/42/42 45/45/45 46/46/46
f 49/49/49 48/48/48 47/47/47
f 50/50/50 49/49/49 47/47/47
f 53/53/53 52/52/52 51/51/51
f 54/54/54 53/53/53 51/51/51
f 57/57/57 56/56/56 55/55/55
f 58/58/58 57/57/57 55/55/55
f 61/61/61 60/60/60 59/59/59
f 62/62/62 61/61/61 59/59/59
f 65/65/65 64/64/64 63/63/63
f 66/66/66 65/65/65 63/63/63
