g Sphere007
v 0 -0.001767723 -0.02885534
v -2.562553E-09 0.05685665 -0.02885534
v -0.03768303 0.04314116 -0.02885534
v 0 -0.001767723 -0.02885534
v -0.03768303 0.04314116 -0.02885534
v -0.05773374 0.008412287 -0.02885534
v 0 -0.001767723 -0.02885534
v -0.05773374 0.008412287 -0.02885534
v -0.05077019 -0.03107992 -0.02885534
v 0 -0.001767723 -0.02885534
v -0.05077019 -0.03107992 -0.02885534
v -0.02005071 -0.05685662 -0.02885534
v 0 -0.001767723 -0.02885534
v -0.02005071 -0.05685662 -0.02885534
v 0.02005072 -0.05685661 -0.02885534
v 0 -0.001767723 -0.02885534
v 0.02005072 -0.05685661 -0.02885534
v 0.0507702 -0.03107992 -0.02885534
v 0 -0.001767723 -0.02885534
v 0.0507702 -0.03107992 -0.02885534
v 0.05773374 0.008412275 -0.02885534
v 0 -0.001767723 -0.02885534
v 0.05773374 0.008412275 -0.02885534
v 0.03768305 0.04314114 -0.02885534
v 0 -0.001767723 -0.02885534
v 0.03768305 0.04314114 -0.02885534
v -2.562553E-09 0.05685665 -0.02885534
v 0 -0.001767723 0.02885533
v -0.02422517 0.02710271 0.01513814
v -1.647381E-09 0.03591995 0.01513814
v -0.03711512 0.04246435 -0.01959502
v -2.523934E-09 0.05597315 -0.01959502
v -0.03768303 0.04314116 -0.02885534
v -2.562553E-09 0.05685665 -0.02885534
v -0.05773374 0.008412287 -0.02885534
v -0.05686365 0.008258866 -0.01959502
v -0.05077019 -0.03107992 -0.02885534
v -0.03711512 0.004776669 0.01513814
v 0 -0.001767723 0.02885533
v -0.05000505 -0.03063816 -0.01959502
v -0.02005071 -0.05685662 -0.02885534
v -0.03263848 -0.02061157 0.01513814
v 0 -0.001767723 0.02885533
v -0.01974854 -0.0560264 -0.01959502
v 0.02005072 -0.05685661 -0.02885534
v -0.01288994 -0.03718255 0.01513814
v 0 -0.001767723 0.02885533
v 0.01974854 -0.05602639 -0.01959502
v 0.0507702 -0.03107992 -0.02885534
v 0.01288994 -0.03718255 0.01513814
v 0 -0.001767723 0.02885533
v 0.05000505 -0.03063816 -0.01959502
v 0.05773374 0.008412275 -0.02885534
v 0.03263848 -0.02061157 0.01513814
v 0 -0.001767723 0.02885533
v 0.05686365 0.008258854 -0.01959502
v 0.03768305 0.04314114 -0.02885534
v 0.03711512 0.004776661 0.01513814
v 0 -0.001767723 0.02885533
v 0.03711514 0.04246433 -0.01959502
v -2.562553E-09 0.05685665 -0.02885534
v -2.523934E-09 0.05597315 -0.01959502
v 0.02422518 0.0271027 0.01513814
v 0 -0.001767723 0.02885533
v -1.647381E-09 0.03591995 0.01513814
v 0 -0.001767723 0.02885533
vt 0 0.1111111
vt 0 0.3333333
vt 0.1111111 0.3333333
vt 0.1111111 0.1111111
vt 0.1111111 0.3333333
vt 0.2222222 0.3333333
vt 0.2222222 0.1111111
vt 0.2222222 0.3333333
vt 0.3333333 0.3333333
vt 0.3333333 0.1111111
vt 0.3333333 0.3333333
vt 0.4444444 0.3333333
vt 0.4444444 0.1111111
vt 0.4444444 0.3333333
vt 0.5555556 0.3333333
vt 0.5555556 0.1111111
vt 0.5555556 0.3333333
vt 0.6666667 0.3333333
vt 0.6666667 0.1111111
vt 0.6666667 0.3333333
vt 0.7777777 0.3333333
vt 0.7777777 0.1111111
vt 0.7777777 0.3333333
vt 0.8888888 0.3333333
vt 0.8888888 0.1111111
vt 0.8888888 0.3333333
vt 0.9999999 0.3333333
vt 0 1
vt 0.1111111 0.7777778
vt 0 0.7777778
vt 0.1111111 0.5555556
vt 0 0.5555556
vt 0.1111111 0.3333333
vt 0 0.3333333
vt 0.2222222 0.3333333
vt 0.2222222 0.5555556
vt 0.3333333 0.3333333
vt 0.2222222 0.7777778
vt 0.1111111 1
vt 0.3333333 0.5555556
vt 0.4444444 0.3333333
vt 0.3333333 0.7777778
vt 0.2222222 1
vt 0.4444444 0.5555556
vt 0.5555556 0.3333333
vt 0.4444444 0.7777778
vt 0.3333333 1
vt 0.5555556 0.5555556
vt 0.6666667 0.3333333
vt 0.5555556 0.7777778
vt 0.4444444 1
vt 0.6666667 0.5555556
vt 0.7777777 0.3333333
vt 0.6666667 0.7777778
vt 0.5555556 1
vt 0.7777777 0.5555556
vt 0.8888888 0.3333333
vt 0.7777777 0.7777778
vt 0.6666667 1
vt 0.8888888 0.5555556
vt 0.9999999 0.3333333
vt 0.9999999 0.5555556
vt 0.8888888 0.7777778
vt 0.7777777 1
vt 0.9999999 0.7777778
vt 0.8888888 1
vn 0 0 -1
vn 0 0 -1
vn 0 0 -1
vn 0 0 -1
vn 0 0 -1
vn 0 0 -1
vn 0 0 -1
vn 0 0 -1
vn 0 0 -1
vn 0 0 -1
vn 0 0 -1
vn 0 0 -1
vn 0 0 -1
vn 0 0 -1
vn 0 0 -1
vn 0 0 -1
vn 0 0 -1
vn 0 0 -1
vn 0 0 -1
vn 0 0 -1
vn 0 0 -1
vn 0 0 -1
vn 0 0 -1
vn 0 0 -1
vn 0 0 -1
vn 0 0 -1
vn 0 0 -1
vn 0 0 1
vn -0.4390255 0.5232101 0.7304161
vn 0 0.6830024 0.7304162
vn -0.6148144 0.7327072 0.2917935
vn 0 0.9564813 0.2917935
vn -0.6398819 0.7625815 0.09497666
vn 0 0.9954795 0.09497675
vn -0.980356 0.172863 0.09497703
vn -0.9419503 0.166091 0.2917936
vn -0.8621104 -0.4977399 0.09497683
vn -0.6726261 0.1186021 0.7304161
vn 0 0 1
vn -0.8283371 -0.4782408 0.2917935
vn -0.3404739 -0.9354448 0.09497641
vn -0.5914973 -0.3415013 0.7304162
vn 0 0 1
vn -0.3271358 -0.8987985 0.2917933
vn 0.3404741 -0.9354447 0.09497644
vn -0.2336005 -0.6418123 0.7304162
vn 0 0 1
vn 0.3271359 -0.8987985 0.2917934
vn 0.8621104 -0.4977399 0.09497678
vn 0.2336005 -0.6418123 0.7304162
vn 0 0 1
vn 0.828337 -0.4782407 0.2917936
vn 0.980356 0.1728629 0.09497702
vn 0.5914972 -0.3415013 0.7304162
vn 0 0 1
vn 0.9419503 0.1660909 0.2917936
vn 0.6398821 0.7625812 0.09497669
vn 0.672626 0.1186019 0.7304161
vn 0 0 1
vn 0.6148146 0.732707 0.2917935
vn 0 0.9954795 0.09497675
vn 0 0.9564813 0.2917935
vn 0.4390256 0.52321 0.7304162
vn 0 0 1
vn 0 0.6830024 0.7304162
vn 0 0 1
g Sphere007_0
f 3/3/3 2/2/2 1/1/1
f 6/6/6 5/5/5 4/4/4
f 9/9/9 8/8/8 7/7/7
f 12/12/12 11/11/11 10/10/10
f 15/15/15 14/14/14 13/13/13
f 18/18/18 17/17/17 16/16/16
f 21/21/21 20/20/20 19/19/19
f 24/24/24 23/23/23 22/22/22
f 27/27/27 26/26/26 25/25/25
f 30/30/30 29/29/29 28/28/28
f 31/31/31 29/29/29 30/30/30
f 32/32/32 31/31/31 30/30/30
f 33/33/33 31/31/31 32/32/32
f 34/34/34 33/33/33 32/32/32
f 33/33/33 35/35/35 31/31/31
f 35/35/35 36/36/36 31/31/31
f 31/31/31 36/36/36 29/29/29
f 35/35/35 37/37/37 36/36/36
f 36/36/36 38/38/38 29/29/29
f 29/29/29 38/38/38 39/39/39
f 37/37/37 40/40/40 36/36/36
f 36/36/36 40/40/40 38/38/38
f 37/37/37 41/41/41 40/40/40
f 40/40/40 42/42/42 38/38/38
f 38/38/38 42/42/42 43/43/43
f 41/41/41 44/44/44 40/40/40
f 40/40/40 44/44/44 42/42/42
f 41/41/41 45/45/45 44/44/44
f 44/44/44 46/46/46 42/42/42
f 42/42/42 46/46/46 47/47/47
f 45/45/45 48/48/48 44/44/44
f 44/44/44 48/48/48 46/46/46
f 45/45/45 49/49/49 48/48/48
f 48/48/48 50/50/50 46/46/46
f 46/46/46 50/50/50 51/51/51
f 49/49/49 52/52/52 48/48/48
f 48/48/48 52/52/52 50/50/50
f 49/49/49 53/53/53 52/52/52
f 52/52/52 54/54/54 50/50/50
f 50/50/50 54/54/54 55/55/55
f 53/53/53 56/56/56 52/52/52
f 52/52/52 56/56/56 54/54/54
f 53/53/53 57/57/57 56/56/56
f 56/56/56 58/58/58 54/54/54
f 54/54/54 58/58/58 59/59/59
f 57/57/57 60/60/60 56/56/56
f 56/56/56 60/60/60 58/58/58
f 57/57/57 61/61/61 60/60/60
f 61/61/61 62/62/62 60/60/60
f 60/60/60 63/63/63 58/58/58
f 60/60/60 62/62/62 63/63/63
f 58/58/58 63/63/63 64/64/64
f 62/62/62 65/65/65 63/63/63
f 63/63/63 65/65/65 66/66/66
