g Flag
v -0.0504044 8.014806 -0.804163
v -0.0504044 8.51885 -0.804163
v -1.582698 8.51885 -0.8041629
v -1.091615 8.014806 -0.8041629
v -0.0504044 7.510761 -0.804163
v -1.582698 7.510761 -0.8041628
vt 0.04036677 0.5448847
vt 0.04036677 0.5611832
vt 0.07296377 0.5611832
vt 0.06251681 0.5448847
vt 0.04036677 0.5285861
vt 0.07296377 0.5285861
vn 0 0 -1
vn 0 0 -1
vn 0 0 -1
vn 0 0 -1
vn -1.158044E-07 0 -1
vn -1.158044E-07 0 -1
g Flag_0
f 3/3/3 2/2/2 1/1/1
f 4/4/4 3/3/3 1/1/1
f 4/4/4 1/1/1 5/5/5
f 6/6/6 4/4/4 5/5/5
