g FlagPlace
v 2.01027E-10 16.80335 -0.3158087
v -0.07676192 16.80335 -0.3925706
v -0.07676192 18.88814 -0.3925703
v 2.012759E-10 18.88814 -0.3158084
v -0.07676192 16.80335 -0.3925706
v -1.065586E-07 16.80335 -0.4693326
v -1.065583E-07 18.88814 -0.4693322
v -0.07676192 18.88814 -0.3925703
v -0.07676192 18.88814 -0.3925703
v -1.065583E-07 18.88814 -0.4693322
v 0.07676183 18.88814 -0.3925703
v 2.012759E-10 18.88814 -0.3158084
v -1.065586E-07 16.80335 -0.4693326
v 0.07676183 16.80335 -0.3925707
v 0.07676183 18.88814 -0.3925703
v -1.065583E-07 18.88814 -0.4693322
v 0.07676183 16.80335 -0.3925707
v 2.01027E-10 16.80335 -0.3158087
v 2.012759E-10 18.88814 -0.3158084
v 0.07676183 18.88814 -0.3925703
vt 0.1624756 0.1489258
vt 0.1540527 0.1489258
vt 0.1540527 0.1656494
vt 0.1624756 0.1656494
vt 0.1540527 0.1489258
vt 0.1456299 0.1489258
vt 0.1456299 0.1656494
vt 0.1540527 0.1656494
vt 0.1452637 0.1405029
vt 0.137207 0.1324463
vt 0.1291504 0.1405029
vt 0.137207 0.1485596
vt 0.1456299 0.1489258
vt 0.137207 0.1489258
vt 0.137207 0.1656494
vt 0.1456299 0.1656494
vt 0.137207 0.1489258
vt 0.1289063 0.1489258
vt 0.1289063 0.1656494
vt 0.137207 0.1656494
vn -0.7070313 -1.192093E-07 0.7070313
vn -0.7070313 -1.192093E-07 0.7070313
vn -0.7070313 -1.192093E-07 0.7070313
vn -0.7070313 -1.192093E-07 0.7070313
vn -0.7070313 1.192093E-07 -0.7070313
vn -0.7070313 1.192093E-07 -0.7070313
vn -0.7070313 1.192093E-07 -0.7070313
vn -0.7070313 1.192093E-07 -0.7070313
vn -1.013279E-05 1 0
vn -1.013279E-05 1 0
vn -1.013279E-05 1 0
vn -1.013279E-05 1 0
vn 0.7070313 1.192093E-07 -0.7070313
vn 0.7070313 1.192093E-07 -0.7070313
vn 0.7070313 1.192093E-07 -0.7070313
vn 0.7070313 1.192093E-07 -0.7070313
vn 0.7070313 -1.192093E-07 0.7070313
vn 0.7070313 -1.192093E-07 0.7070313
vn 0.7070313 -1.192093E-07 0.7070313
vn 0.7070313 -1.192093E-07 0.7070313
g FlagPlace_0
f 3/3/3 2/2/2 1/1/1
f 4/4/4 3/3/3 1/1/1
f 7/7/7 6/6/6 5/5/5
f 8/8/8 7/7/7 5/5/5
f 11/11/11 10/10/10 9/9/9
f 12/12/12 11/11/11 9/9/9
f 15/15/15 14/14/14 13/13/13
f 16/16/16 15/15/15 13/13/13
f 19/19/19 18/18/18 17/17/17
f 20/20/20 19/19/19 17/17/17
