g Pants
v 0.003050921 0.000324718 0.003246984
v 0.003105521 1.055294E-09 0.003248341
v 0.003103582 1.06027E-09 0.005584053
v 0.003032058 0.0005024949 0.005549837
v 0.002833108 0.0009001553 0.005437911
v 0.002887116 0.0005933431 0.003242913
v 0.002961337 0.0006013839 0.006400811
v 0.003067999 1.041023E-09 0.006448055
v 0.002195365 0.001145995 0.005022109
v 0.002304706 0.0008135675 0.003228438
v 0.002681657 0.001065522 0.006222805
v 0.002307172 0.001348049 0.007202788
v 0.002901966 0.0007195056 0.007380493
v 0.003066774 1.038203E-09 0.007425288
v 0.002944985 0.0008245488 0.008485736
v 0.003142253 1.096653E-09 0.00850355
v 0.002321718 0.001505095 0.008472563
v 0.001269909 0.001912978 0.008534897
v 0.001982548 0.001257663 0.005503938
v 0.00160344 0.0007876924 0.004657498
v 0.001722294 0.0005900282 0.003213963
v 0.001197423 0.00170593 0.007513694
v 1.433292E-10 0.002043614 0.008572938
v 1.433379E-10 0.001806221 0.007594009
v 1.417651E-10 0.001456686 0.006197993
v 0.0008536719 0.001429558 0.006123818
v 1.191071E-10 0.0009200791 0.005430661
v 0.001552416 0.001358076 0.005892009
v 0.001455348 0.0008480014 0.005127167
v 0.001439949 0.0004251762 0.004559792
v 0.001558492 0.0003224388 0.003209892
v 0.00150389 5.341343E-10 0.003208535
v 0.001385452 4.974453E-10 0.004527223
v 0.001263155 6.415346E-06 0.004949397
v 0.001311203 0.0004590252 0.00499384
v 0.0009719451 3.57463E-10 0.005010271
v 0.0006124235 0.0009112298 0.005379844
v 0.001118668 0.0008846823 0.005227395
v 0.001008626 0.0004744888 0.005064552
v 0.0005527873 0.000487958 0.005198683
v 1.107886E-10 0.0004924477 0.005243392
v 0.0005329087 2.076939E-10 0.005138295
v 1.06694E-10 6.00557E-11 0.005180968
v 0.001558492 -0.0003224377 0.003209892
v 0.00150389 5.341343E-10 0.003208535
v 0.001385452 4.974453E-10 0.004527223
v 0.001439949 -0.0004251751 0.004559792
v 0.001603441 -0.0007876912 0.004657497
v 0.001722295 -0.000590027 0.003213963
v 0.001311203 -0.0004461946 0.00499384
v 0.001263155 6.415346E-06 0.004949397
v 0.002195366 -0.001145993 0.005022109
v 0.002304706 -0.0008135659 0.003228438
v 0.001455348 -0.0008351707 0.005127167
v 0.001008626 -0.000474488 0.005064552
v 0.0009719451 3.57463E-10 0.005010271
v 0.0005329087 2.076939E-10 0.005138295
v 0.001118669 -0.0008846815 0.005227395
v 0.0005527876 -0.0004879576 0.005198683
v 1.06694E-10 6.00557E-11 0.005180968
v 1.101857E-10 -0.0004924476 0.005243393
v 0.0006124242 -0.0009112292 0.005379844
v 1.175926E-10 -0.0009200787 0.005430661
v 0.0008536729 -0.001429557 0.006123817
v 1.402346E-10 -0.001456687 0.006197992
v 1.429831E-10 -0.001806221 0.007594008
v 0.001552416 -0.001358075 0.00589201
v 0.001197424 -0.001705929 0.007513692
v 0.001982548 -0.001257662 0.005503938
v 0.00126991 -0.001912977 0.008534897
v 1.429277E-10 -0.002043614 0.008572938
v 0.002321719 -0.001505094 0.008472562
v 0.002307173 -0.001348048 0.007202788
v 0.002944985 -0.0008245466 0.008485736
v 0.002681658 -0.00106552 0.006222805
v 0.002901966 -0.0007195036 0.007380493
v 0.003142253 1.096653E-09 0.00850355
v 0.003066774 1.038203E-09 0.007425288
v 0.002961338 -0.0006013818 0.006400811
v 0.003067999 1.041023E-09 0.006448055
v 0.002833108 -0.0009001534 0.005437911
v 0.002887117 -0.0005933411 0.003242913
v 0.003032058 -0.0005024928 0.005549837
v 0.003103582 1.06027E-09 0.005584053
v 0.003050921 -0.0003247159 0.003246984
v 0.003105521 1.055294E-09 0.003248341
v -0.00305092 0.000324718 0.003246984
v -0.003103582 1.061019E-09 0.005584053
v -0.003105521 1.056874E-09 0.003248341
v -0.003032058 0.0005024949 0.005549837
v -0.002833108 0.0009001553 0.005437911
v -0.002887116 0.0005933431 0.003242913
v -0.002961337 0.0006013839 0.006400811
v -0.003067999 1.041639E-09 0.006448055
v -0.002195365 0.001145995 0.005022109
v -0.002304705 0.0008135675 0.003228438
v -0.002681657 0.001065522 0.006222805
v -0.002307172 0.001348049 0.007202788
v -0.002901966 0.0007195056 0.007380493
v -0.003066774 1.038796E-09 0.007425288
v -0.002944985 0.0008245487 0.008485736
v -0.003142253 1.097281E-09 0.00850355
v -0.002321718 0.001505095 0.008472563
v -0.001269908 0.001912978 0.008534897
v -0.001982547 0.001257663 0.005503938
v -0.00160344 0.0007876924 0.004657498
v -0.001722294 0.0005900282 0.003213963
v -0.001197423 0.00170593 0.007513694
v 1.433292E-10 0.002043614 0.008572938
v 1.433379E-10 0.001806221 0.007594009
v 1.417651E-10 0.001456686 0.006197993
v -0.0008536716 0.001429558 0.006123818
v 1.191071E-10 0.0009200791 0.005430661
v -0.001552415 0.001358076 0.005892009
v -0.001455347 0.0008480014 0.005127167
v -0.001439948 0.0004251762 0.004559792
v -0.001558491 0.0003224388 0.003209892
v -0.00150389 5.347208E-10 0.003208535
v -0.001385452 4.980013E-10 0.004527223
v -0.001263155 6.415346E-06 0.004949397
v -0.001311203 0.0004590252 0.00499384
v -0.0009719448 3.578269E-10 0.005010271
v -0.0006124232 0.0009112298 0.005379844
v -0.001118668 0.0008846823 0.005227396
v -0.001008625 0.0004744888 0.005064552
v -0.0005527871 0.000487958 0.005198683
v 1.107886E-10 0.0004924477 0.005243392
v -0.0005329085 2.07889E-10 0.005138295
v 1.06694E-10 6.00557E-11 0.005180968
v -0.001558492 -0.0003224377 0.003209892
v -0.001385452 4.980013E-10 0.004527223
v -0.00150389 5.347208E-10 0.003208535
v -0.001439949 -0.0004251751 0.004559792
v -0.001603441 -0.0007876912 0.004657498
v -0.001722294 -0.000590027 0.003213963
v -0.001311203 -0.0004461946 0.00499384
v -0.001263155 6.415346E-06 0.004949397
v -0.002195365 -0.001145993 0.005022109
v -0.002304706 -0.0008135659 0.003228438
v -0.001455348 -0.0008351707 0.005127167
v -0.001008626 -0.000474488 0.005064552
v -0.0009719448 3.578269E-10 0.005010271
v -0.0005329085 2.07889E-10 0.005138295
v -0.001118669 -0.0008846815 0.005227396
v -0.0005527874 -0.0004879576 0.005198683
v 1.06694E-10 6.00557E-11 0.005180968
v 1.101857E-10 -0.0004924476 0.005243393
v -0.0006124239 -0.0009112292 0.005379844
v 1.175926E-10 -0.0009200787 0.005430661
v -0.0008536726 -0.001429557 0.006123817
v 1.402346E-10 -0.001456687 0.006197992
v 1.429831E-10 -0.001806221 0.007594008
v -0.001552416 -0.001358075 0.00589201
v -0.001197424 -0.001705929 0.007513692
v -0.001982548 -0.001257662 0.005503938
v -0.001269909 -0.001912977 0.008534897
v 1.429277E-10 -0.002043614 0.008572938
v -0.002321719 -0.001505094 0.008472562
v -0.002307173 -0.001348048 0.007202788
v -0.002944985 -0.0008245467 0.008485736
v -0.002681658 -0.00106552 0.006222805
v -0.002901966 -0.0007195036 0.007380493
v -0.003142253 1.097281E-09 0.00850355
v -0.003066774 1.038796E-09 0.007425288
v -0.002961338 -0.0006013818 0.006400811
v -0.003067999 1.041639E-09 0.006448055
v -0.002833108 -0.0009001534 0.005437911
v -0.002887117 -0.0005933411 0.003242913
v -0.003032058 -0.0005024928 0.005549837
v -0.003103582 1.061019E-09 0.005584053
v -0.00305092 -0.0003247159 0.003246984
v -0.003105521 1.056874E-09 0.003248341
vt 0.2492676 0.1500244
vt 0.2509766 0.1506348
vt 0.2543945 0.1376953
vt 0.2514648 0.137085
vt 0.2489014 0.137085
vt 0.2476807 0.1495361
vt 0.2521973 0.1322021
vt 0.2556152 0.1330566
vt 0.2442627 0.1385498
vt 0.2442627 0.1491699
vt 0.2489014 0.1323242
vt 0.248291 0.1259766
vt 0.253418 0.1265869
vt 0.2573242 0.1278076
vt 0.255127 0.1204834
vt 0.2595215 0.1220703
vt 0.2502441 0.1188354
vt 0.2442627 0.1165161
vt 0.2435303 0.1352539
vt 0.2397461 0.1408691
vt 0.2408447 0.1496582
vt 0.2423096 0.1221313
vt 0.2375488 0.1141968
vt 0.2359619 0.1196899
vt 0.2335205 0.1274414
vt 0.2380371 0.1295166
vt 0.2314453 0.1323242
vt 0.2415771 0.1322021
vt 0.2388916 0.1385498
vt 0.2374268 0.1422119
vt 0.2392578 0.1501465
vt 0.2375488 0.1507568
vt 0.2351074 0.1434326
vt 0.2342529 0.1419678
vt 0.2365723 0.1402588
vt 0.2330322 0.1403809
vt 0.2346191 0.1341553
vt 0.2371826 0.1363525
vt 0.2351074 0.1384277
vt 0.2327881 0.1364746
vt 0.2301025 0.1346436
vt 0.230957 0.1387939
vt 0.2283936 0.1369629
vt 0.2392578 0.1639404
vt 0.2375488 0.163208
vt 0.2352295 0.1705322
vt 0.2375488 0.1717529
vt 0.2398682 0.1729736
vt 0.2408447 0.1643066
vt 0.2366943 0.173584
vt 0.2344971 0.1719971
vt 0.2443848 0.1751709
vt 0.2442627 0.1647949
vt 0.2391357 0.175293
vt 0.2353516 0.175415
vt 0.2332764 0.1734619
vt 0.2313232 0.1751709
vt 0.2374268 0.1774902
vt 0.2331543 0.1773682
vt 0.2287598 0.177002
vt 0.2304688 0.1793213
vt 0.2348633 0.1796875
vt 0.2318115 0.1815186
vt 0.2382813 0.1842041
vt 0.2338867 0.1862793
vt 0.2364502 0.1938477
vt 0.2418213 0.1815186
vt 0.2426758 0.1914063
vt 0.2436523 0.1784668
vt 0.2446289 0.1968994
vt 0.237915 0.1992188
vt 0.2502441 0.1945801
vt 0.2484131 0.1876221
vt 0.255127 0.1928711
vt 0.2490234 0.1813965
vt 0.253418 0.1868896
vt 0.2595215 0.1912842
vt 0.2573242 0.1856689
vt 0.2521973 0.1813965
vt 0.2556152 0.180542
vt 0.2489014 0.1766357
vt 0.2475586 0.1643066
vt 0.2514648 0.1765137
vt 0.2543945 0.1759033
vt 0.2492676 0.1639404
vt 0.2509766 0.1633301
vt 0.2492676 0.1500244
vt 0.2543945 0.1376953
vt 0.2509766 0.1506348
vt 0.2514648 0.137085
vt 0.2489014 0.137085
vt 0.2476807 0.1495361
vt 0.2521973 0.1322021
vt 0.2556152 0.1330566
vt 0.2442627 0.1385498
vt 0.2442627 0.1491699
vt 0.2489014 0.1323242
vt 0.248291 0.1259766
vt 0.253418 0.1265869
vt 0.2573242 0.1278076
vt 0.255127 0.1204834
vt 0.2595215 0.1220703
vt 0.2502441 0.1188354
vt 0.2442627 0.1165161
vt 0.2435303 0.1352539
vt 0.2397461 0.1408691
vt 0.2408447 0.1496582
vt 0.2423096 0.1221313
vt 0.2375488 0.1141968
vt 0.2359619 0.1196899
vt 0.2335205 0.1274414
vt 0.2380371 0.1295166
vt 0.2314453 0.1323242
vt 0.2415771 0.1322021
vt 0.2388916 0.1385498
vt 0.2374268 0.1422119
vt 0.2392578 0.1501465
vt 0.2375488 0.1507568
vt 0.2351074 0.1434326
vt 0.2342529 0.1419678
vt 0.2365723 0.1402588
vt 0.2330322 0.1403809
vt 0.2346191 0.1341553
vt 0.2371826 0.1363525
vt 0.2351074 0.1384277
vt 0.2327881 0.1364746
vt 0.2301025 0.1346436
vt 0.230957 0.1387939
vt 0.2283936 0.1369629
vt 0.2392578 0.1639404
vt 0.2352295 0.1705322
vt 0.2375488 0.163208
vt 0.2375488 0.1717529
vt 0.2398682 0.1729736
vt 0.2408447 0.1643066
vt 0.2366943 0.173584
vt 0.2344971 0.1719971
vt 0.2443848 0.1751709
vt 0.2442627 0.1647949
vt 0.2391357 0.175293
vt 0.2353516 0.175415
vt 0.2332764 0.1734619
vt 0.2313232 0.1751709
vt 0.2374268 0.1774902
vt 0.2331543 0.1773682
vt 0.2287598 0.177002
vt 0.2304688 0.1793213
vt 0.2348633 0.1796875
vt 0.2318115 0.1815186
vt 0.2382813 0.1842041
vt 0.2338867 0.1862793
vt 0.2364502 0.1938477
vt 0.2418213 0.1815186
vt 0.2426758 0.1914063
vt 0.2436523 0.1784668
vt 0.2446289 0.1968994
vt 0.237915 0.1992188
vt 0.2502441 0.1945801
vt 0.2484131 0.1876221
vt 0.255127 0.1928711
vt 0.2490234 0.1813965
vt 0.253418 0.1868896
vt 0.2595215 0.1912842
vt 0.2573242 0.1856689
vt 0.2521973 0.1813965
vt 0.2556152 0.180542
vt 0.2489014 0.1766357
vt 0.2475586 0.1643066
vt 0.2514648 0.1765137
vt 0.2543945 0.1759033
vt 0.2492676 0.1639404
vt 0.2509766 0.1633301
vn 0.9506564 0.3096901 -0.01855765
vn 0.9999992 7.465881E-07 -0.001356789
vn 0.9996462 6.11299E-07 0.02659869
vn 0.9462861 0.3229666 0.0153331
vn 0.6803505 0.730919 -0.05367113
vn 0.688105 0.7205446 -0.0855977
vn 0.9212142 0.3871772 0.03818545
vn 0.9993975 4.286362E-07 0.03470829
vn 0.04037159 0.9801083 -0.1943137
vn 0.009854348 0.9861648 -0.1654748
vn 0.614363 0.7885311 -0.02786971
vn 0.4959184 0.8625498 -0.1003634
vn 0.8910267 0.453094 -0.02787705
vn 0.9996843 2.660099E-07 -0.02512631
vn 0.8789396 0.4700421 -0.08078106
vn 0.9978668 1.097049E-07 -0.06528386
vn 0.5270177 0.8394709 -0.1324426
vn 0.1924647 0.9624189 -0.1915908
vn 0.06652083 0.9635037 -0.2592981
vn -0.6481207 0.7221668 -0.2416911
vn -0.6738363 0.7217622 -0.1581263
vn 0.1615936 0.9679027 -0.1924886
vn 0 0.9755666 -0.219704
vn 0 0.9750705 -0.221895
vn 0 0.9191115 -0.3939973
vn 0.02885056 0.928268 -0.3707913
vn 0 0.6444911 -0.7646118
vn 0.06822968 0.9439536 -0.3229494
vn -0.4089546 0.7317643 -0.5452312
vn -0.9291716 0.308783 -0.2032072
vn -0.9442309 0.3102829 -0.1102383
vn -0.9955564 -5.62055E-07 -0.09416679
vn -0.9822301 -0.0005806559 -0.1876798
vn -0.6769478 0.001790596 -0.7360287
vn -0.6278555 0.3302533 -0.7047909
vn -0.2467933 -0.0007609515 -0.9690679
vn -0.1137471 0.6546155 -0.7473554
vn -0.1899485 0.6472695 -0.7382152
vn -0.2384067 0.2688043 -0.9332237
vn -0.168896 0.2742579 -0.9467084
vn 0 0.2690194 -0.9631348
vn -0.1793122 -1.883182E-07 -0.9837922
vn 0 -3.407534E-07 -1
vn -0.9442307 -0.3102836 -0.1102383
vn -0.9955564 -5.62055E-07 -0.09416679
vn -0.9822301 -0.0005806559 -0.1876798
vn -0.92969 -0.3095533 -0.1996328
vn -0.650471 -0.7217768 -0.2364862
vn -0.6738359 -0.7217627 -0.1581262
vn -0.6277938 -0.3272181 -0.7062601
vn -0.6769478 0.001790596 -0.7360287
vn 0.03653641 -0.9806519 -0.1923201
vn 0.009855101 -0.9861648 -0.1654747
vn -0.4118792 -0.7271852 -0.5491421
vn -0.2336659 -0.2697637 -0.9341455
vn -0.2467933 -0.0007609515 -0.9690679
vn -0.1793122 -1.883182E-07 -0.9837922
vn -0.1846028 -0.6468068 -0.7399749
vn -0.1688964 -0.2742582 -0.9467082
vn 0 -3.407534E-07 -1
vn 0 -0.2690199 -0.9631346
vn -0.1137469 -0.6546152 -0.7473557
vn 0 -0.644491 -0.764612
vn 0.02885137 -0.9282677 -0.3707917
vn 0 -0.9191114 -0.3939976
vn 0 -0.9750707 -0.2218949
vn 0.06956784 -0.942993 -0.3254601
vn 0.1615943 -0.9679027 -0.1924885
vn 0.06528635 -0.9631164 -0.2610449
vn 0.1924651 -0.9624189 -0.1915908
vn 0 -0.9755666 -0.2197039
vn 0.5270183 -0.8394705 -0.1324426
vn 0.495919 -0.8625494 -0.1003633
vn 0.8789399 -0.4700416 -0.08078087
vn 0.6143634 -0.7885308 -0.02786985
vn 0.891027 -0.4530934 -0.02787702
vn 0.9978668 1.097049E-07 -0.06528386
vn 0.9996843 2.660099E-07 -0.02512631
vn 0.9212145 -0.3871765 0.03818542
vn 0.9993975 4.286362E-07 0.03470829
vn 0.6803507 -0.7309188 -0.05367119
vn 0.688105 -0.7205446 -0.08559769
vn 0.9462863 -0.3229659 0.01533308
vn 0.9996462 6.11299E-07 0.02659869
vn 0.9506566 -0.3096896 -0.01855771
vn 0.9999992 7.465881E-07 -0.001356789
vn -0.9506564 0.3096901 -0.01855774
vn -0.9996462 2.406689E-07 0.02659861
vn -0.9999992 0 -0.001356945
vn -0.9462861 0.3229666 0.01533299
vn -0.6803505 0.7309191 -0.05367118
vn -0.6881052 0.7205445 -0.08559774
vn -0.9212142 0.3871773 0.03818541
vn -0.9993975 4.382684E-07 0.03470828
vn -0.04037146 0.9801083 -0.1943137
vn -0.009854267 0.9861648 -0.1654747
vn -0.6143629 0.7885313 -0.02786978
vn -0.4959182 0.8625498 -0.1003634
vn -0.8910267 0.4530942 -0.02787705
vn -0.9996843 2.805195E-07 -0.02512631
vn -0.8789394 0.4700423 -0.08078109
vn -0.9978668 0 -0.06528386
vn -0.5270175 0.8394709 -0.1324426
vn -0.1924646 0.9624189 -0.1915908
vn -0.06652053 0.9635037 -0.2592982
vn 0.6481207 0.7221669 -0.2416912
vn 0.6738362 0.7217624 -0.1581263
vn -0.1615936 0.9679027 -0.1924886
vn 0 0.9755666 -0.219704
vn 0 0.9750705 -0.221895
vn 0 0.9191115 -0.3939973
vn -0.02885072 0.928268 -0.3707915
vn 0 0.6444911 -0.7646118
vn -0.06822963 0.9439536 -0.3229496
vn 0.4089549 0.7317641 -0.5452312
vn 0.9291716 0.3087831 -0.2032073
vn 0.9442309 0.310283 -0.1102383
vn 0.9955564 -5.525287E-07 -0.09416679
vn 0.9822301 -0.0005806583 -0.1876798
vn 0.676948 0.001790577 -0.7360286
vn 0.6278555 0.3302534 -0.7047908
vn 0.2467934 -0.0007609946 -0.9690678
vn 0.113747 0.6546155 -0.7473555
vn 0.1899484 0.6472699 -0.7382149
vn 0.2384069 0.2688046 -0.9332236
vn 0.1688962 0.274258 -0.9467083
vn 0 0.2690194 -0.9631348
vn 0.1793123 -2.3361E-07 -0.9837922
vn 0 -3.407534E-07 -1
vn 0.9442308 -0.3102834 -0.1102383
vn 0.9822301 -0.0005806583 -0.1876798
vn 0.9955564 -5.525287E-07 -0.09416679
vn 0.92969 -0.3095531 -0.1996328
vn 0.6504709 -0.7217769 -0.2364863
vn 0.6738359 -0.7217625 -0.1581262
vn 0.6277936 -0.3272182 -0.7062601
vn 0.676948 0.001790577 -0.7360286
vn -0.03653637 -0.9806519 -0.1923201
vn -0.009854862 -0.9861648 -0.1654746
vn 0.4118789 -0.7271855 -0.5491422
vn 0.2336658 -0.269764 -0.9341454
vn 0.2467934 -0.0007609946 -0.9690678
vn 0.1793123 -2.3361E-07 -0.9837922
vn 0.1846027 -0.6468071 -0.7399747
vn 0.1688963 -0.2742583 -0.9467082
vn 0 -3.407534E-07 -1
vn 0 -0.2690199 -0.9631346
vn 0.1137469 -0.6546153 -0.7473556
vn 0 -0.644491 -0.764612
vn -0.02885133 -0.9282677 -0.3707918
vn 0 -0.9191114 -0.3939976
vn 0 -0.9750707 -0.2218949
vn -0.06956778 -0.942993 -0.3254603
vn -0.1615943 -0.9679027 -0.1924885
vn -0.06528646 -0.9631164 -0.2610449
vn -0.1924651 -0.9624189 -0.1915908
vn 0 -0.9755666 -0.2197039
vn -0.5270182 -0.8394705 -0.1324426
vn -0.4959189 -0.8625495 -0.1003634
vn -0.8789399 -0.4700418 -0.08078091
vn -0.6143634 -0.7885308 -0.02786985
vn -0.891027 -0.4530934 -0.02787701
vn -0.9978668 0 -0.06528386
vn -0.9996843 2.805195E-07 -0.02512631
vn -0.9212145 -0.3871765 0.03818544
vn -0.9993975 4.382684E-07 0.03470828
vn -0.680351 -0.7309185 -0.05367123
vn -0.6881056 -0.720544 -0.08559775
vn -0.9462863 -0.3229659 0.01533301
vn -0.9996462 2.406689E-07 0.02659861
vn -0.9506566 -0.3096898 -0.01855782
vn -0.9999992 0 -0.001356945
g Pants_0
f 3/3/3 2/2/2 1/1/1
f 4/4/4 3/3/3 1/1/1
f 4/4/4 1/1/1 5/5/5
f 1/1/1 6/6/6 5/5/5
f 4/4/4 7/7/7 3/3/3
f 7/7/7 8/8/8 3/3/3
f 5/5/5 6/6/6 9/9/9
f 6/6/6 10/10/10 9/9/9
f 5/5/5 11/11/11 4/4/4
f 11/11/11 7/7/7 4/4/4
f 11/11/11 12/12/12 7/7/7
f 7/7/7 13/13/13 8/8/8
f 12/12/12 13/13/13 7/7/7
f 13/13/13 14/14/14 8/8/8
f 14/14/14 13/13/13 15/15/15
f 16/16/16 14/14/14 15/15/15
f 15/15/15 13/13/13 17/17/17
f 13/13/13 12/12/12 17/17/17
f 17/17/17 12/12/12 18/18/18
f 19/19/19 11/11/11 5/5/5
f 9/9/9 19/19/19 5/5/5
f 9/9/9 10/10/10 20/20/20
f 10/10/10 21/21/21 20/20/20
f 12/12/12 22/22/22 18/18/18
f 18/18/18 22/22/22 23/23/23
f 22/22/22 24/24/24 23/23/23
f 25/25/25 24/24/24 22/22/22
f 26/26/26 25/25/25 22/22/22
f 26/26/26 22/22/22 12/12/12
f 27/27/27 25/25/25 26/26/26
f 28/28/28 12/12/12 11/11/11
f 28/28/28 26/26/26 12/12/12
f 19/19/19 28/28/28 11/11/11
f 29/29/29 19/19/19 9/9/9
f 20/20/20 29/29/29 9/9/9
f 20/20/20 21/21/21 30/30/30
f 21/21/21 31/31/31 30/30/30
f 30/30/30 31/31/31 32/32/32
f 33/33/33 30/30/30 32/32/32
f 33/33/33 34/34/34 30/30/30
f 30/30/30 35/35/35 20/20/20
f 34/34/34 35/35/35 30/30/30
f 35/35/35 29/29/29 20/20/20
f 34/34/34 36/36/36 35/35/35
f 37/37/37 26/26/26 28/28/28
f 37/37/37 27/27/27 26/26/26
f 38/38/38 28/28/28 19/19/19
f 29/29/29 38/38/38 19/19/19
f 38/38/38 37/37/37 28/28/28
f 35/35/35 39/39/39 29/29/29
f 39/39/39 38/38/38 29/29/29
f 36/36/36 39/39/39 35/35/35
f 38/38/38 39/39/39 37/37/37
f 37/37/37 40/40/40 27/27/27
f 39/39/39 40/40/40 37/37/37
f 39/39/39 36/36/36 40/40/40
f 40/40/40 41/41/41 27/27/27
f 36/36/36 42/42/42 40/40/40
f 40/40/40 42/42/42 41/41/41
f 42/42/42 43/43/43 41/41/41
f 46/46/46 45/45/45 44/44/44
f 47/47/47 46/46/46 44/44/44
f 47/47/47 44/44/44 48/48/48
f 44/44/44 49/49/49 48/48/48
f 47/47/47 50/50/50 46/46/46
f 50/50/50 51/51/51 46/46/46
f 48/48/48 49/49/49 52/52/52
f 49/49/49 53/53/53 52/52/52
f 48/48/48 54/54/54 47/47/47
f 54/54/54 50/50/50 47/47/47
f 50/50/50 55/55/55 51/51/51
f 55/55/55 56/56/56 51/51/51
f 56/56/56 55/55/55 57/57/57
f 58/58/58 55/55/55 50/50/50
f 54/54/54 58/58/58 50/50/50
f 55/55/55 59/59/59 57/57/57
f 55/55/55 58/58/58 59/59/59
f 57/57/57 59/59/59 60/60/60
f 59/59/59 61/61/61 60/60/60
f 59/59/59 62/62/62 61/61/61
f 58/58/58 62/62/62 59/59/59
f 62/62/62 63/63/63 61/61/61
f 62/62/62 64/64/64 63/63/63
f 64/64/64 62/62/62 58/58/58
f 64/64/64 65/65/65 63/63/63
f 66/66/66 65/65/65 64/64/64
f 67/67/67 58/58/58 54/54/54
f 67/67/67 64/64/64 58/58/58
f 68/68/68 66/66/66 64/64/64
f 68/68/68 64/64/64 67/67/67
f 69/69/69 67/67/67 54/54/54
f 69/69/69 54/54/54 48/48/48
f 52/52/52 69/69/69 48/48/48
f 66/66/66 68/68/68 70/70/70
f 71/71/71 66/66/66 70/70/70
f 70/70/70 68/68/68 72/72/72
f 73/73/73 68/68/68 67/67/67
f 68/68/68 73/73/73 72/72/72
f 73/73/73 67/67/67 69/69/69
f 72/72/72 73/73/73 74/74/74
f 75/75/75 69/69/69 52/52/52
f 75/75/75 73/73/73 69/69/69
f 73/73/73 76/76/76 74/74/74
f 76/76/76 73/73/73 75/75/75
f 74/74/74 76/76/76 77/77/77
f 76/76/76 78/78/78 77/77/77
f 78/78/78 76/76/76 79/79/79
f 79/79/79 76/76/76 75/75/75
f 80/80/80 78/78/78 79/79/79
f 81/81/81 75/75/75 52/52/52
f 79/79/79 75/75/75 81/81/81
f 52/52/52 53/53/53 81/81/81
f 53/53/53 82/82/82 81/81/81
f 80/80/80 79/79/79 83/83/83
f 83/83/83 79/79/79 81/81/81
f 81/81/81 82/82/82 83/83/83
f 84/84/84 80/80/80 83/83/83
f 82/82/82 85/85/85 83/83/83
f 84/84/84 83/83/83 86/86/86
f 83/83/83 85/85/85 86/86/86
f 89/89/89 88/88/88 87/87/87
f 88/88/88 90/90/90 87/87/87
f 87/87/87 90/90/90 91/91/91
f 92/92/92 87/87/87 91/91/91
f 93/93/93 90/90/90 88/88/88
f 94/94/94 93/93/93 88/88/88
f 92/92/92 91/91/91 95/95/95
f 96/96/96 92/92/92 95/95/95
f 97/97/97 91/91/91 90/90/90
f 93/93/93 97/97/97 90/90/90
f 98/98/98 97/97/97 93/93/93
f 99/99/99 93/93/93 94/94/94
f 99/99/99 98/98/98 93/93/93
f 100/100/100 99/99/99 94/94/94
f 99/99/99 100/100/100 101/101/101
f 100/100/100 102/102/102 101/101/101
f 99/99/99 101/101/101 103/103/103
f 98/98/98 99/99/99 103/103/103
f 98/98/98 103/103/103 104/104/104
f 97/97/97 105/105/105 91/91/91
f 105/105/105 95/95/95 91/91/91
f 96/96/96 95/95/95 106/106/106
f 107/107/107 96/96/96 106/106/106
f 108/108/108 98/98/98 104/104/104
f 108/108/108 104/104/104 109/109/109
f 110/110/110 108/108/108 109/109/109
f 110/110/110 111/111/111 108/108/108
f 111/111/111 112/112/112 108/108/108
f 108/108/108 112/112/112 98/98/98
f 111/111/111 113/113/113 112/112/112
f 98/98/98 114/114/114 97/97/97
f 112/112/112 114/114/114 98/98/98
f 114/114/114 105/105/105 97/97/97
f 105/105/105 115/115/115 95/95/95
f 115/115/115 106/106/106 95/95/95
f 107/107/107 106/106/106 116/116/116
f 117/117/117 107/107/107 116/116/116
f 117/117/117 116/116/116 118/118/118
f 116/116/116 119/119/119 118/118/118
f 120/120/120 119/119/119 116/116/116
f 121/121/121 116/116/116 106/106/106
f 121/121/121 120/120/120 116/116/116
f 115/115/115 121/121/121 106/106/106
f 122/122/122 120/120/120 121/121/121
f 112/112/112 123/123/123 114/114/114
f 113/113/113 123/123/123 112/112/112
f 114/114/114 124/124/124 105/105/105
f 124/124/124 115/115/115 105/105/105
f 123/123/123 124/124/124 114/114/114
f 125/125/125 121/121/121 115/115/115
f 124/124/124 125/125/125 115/115/115
f 125/125/125 122/122/122 121/121/121
f 125/125/125 124/124/124 123/123/123
f 126/126/126 123/123/123 113/113/113
f 126/126/126 125/125/125 123/123/123
f 122/122/122 125/125/125 126/126/126
f 127/127/127 126/126/126 113/113/113
f 128/128/128 122/122/122 126/126/126
f 128/128/128 126/126/126 127/127/127
f 129/129/129 128/128/128 127/127/127
f 132/132/132 131/131/131 130/130/130
f 131/131/131 133/133/133 130/130/130
f 130/130/130 133/133/133 134/134/134
f 135/135/135 130/130/130 134/134/134
f 136/136/136 133/133/133 131/131/131
f 137/137/137 136/136/136 131/131/131
f 135/135/135 134/134/134 138/138/138
f 139/139/139 135/135/135 138/138/138
f 140/140/140 134/134/134 133/133/133
f 136/136/136 140/140/140 133/133/133
f 141/141/141 136/136/136 137/137/137
f 142/142/142 141/141/141 137/137/137
f 141/141/141 142/142/142 143/143/143
f 141/141/141 144/144/144 136/136/136
f 144/144/144 140/140/140 136/136/136
f 145/145/145 141/141/141 143/143/143
f 144/144/144 141/141/141 145/145/145
f 145/145/145 143/143/143 146/146/146
f 147/147/147 145/145/145 146/146/146
f 148/148/148 145/145/145 147/147/147
f 148/148/148 144/144/144 145/145/145
f 149/149/149 148/148/148 147/147/147
f 150/150/150 148/148/148 149/149/149
f 148/148/148 150/150/150 144/144/144
f 151/151/151 150/150/150 149/149/149
f 151/151/151 152/152/152 150/150/150
f 144/144/144 153/153/153 140/140/140
f 150/150/150 153/153/153 144/144/144
f 152/152/152 154/154/154 150/150/150
f 150/150/150 154/154/154 153/153/153
f 153/153/153 155/155/155 140/140/140
f 140/140/140 155/155/155 134/134/134
f 155/155/155 138/138/138 134/134/134
f 154/154/154 152/152/152 156/156/156
f 152/152/152 157/157/157 156/156/156
f 154/154/154 156/156/156 158/158/158
f 154/154/154 159/159/159 153/153/153
f 159/159/159 154/154/154 158/158/158
f 153/153/153 159/159/159 155/155/155
f 159/159/159 158/158/158 160/160/160
f 155/155/155 161/161/161 138/138/138
f 159/159/159 161/161/161 155/155/155
f 162/162/162 159/159/159 160/160/160
f 159/159/159 162/162/162 161/161/161
f 162/162/162 160/160/160 163/163/163
f 164/164/164 162/162/162 163/163/163
f 162/162/162 164/164/164 165/165/165
f 162/162/162 165/165/165 161/161/161
f 164/164/164 166/166/166 165/165/165
f 161/161/161 167/167/167 138/138/138
f 161/161/161 165/165/165 167/167/167
f 139/139/139 138/138/138 167/167/167
f 168/168/168 139/139/139 167/167/167
f 165/165/165 166/166/166 169/169/169
f 165/165/165 169/169/169 167/167/167
f 168/168/168 167/167/167 169/169/169
f 166/166/166 170/170/170 169/169/169
f 171/171/171 168/168/168 169/169/169
f 169/169/169 170/170/170 172/172/172
f 171/171/171 169/169/169 172/172/172
