g rockSmall
v -0.1115188 1.02 -0.3193135
v -0.1326903 0.3465071 -0.4994387
v 0.02386728 1.02 -0.4176772
v -0.2371426 0.1831509 0.2071393
v -0.1326903 0.4526249 0.1140884
v -0.03229988 0.4526249 0.2860528
v -0.4380098 0.06208146 -0.08012211
v -0.3381544 0.2056275 -0.1837654
v -0.2948976 0.2056275 -0.04380882
v 0.2595051 1.02 -0.2175105
v 0.3634005 0.3599365 -0.1381471
v 0.1232639 1.02 -0.04380882
v -0.1977207 0.2056275 -0.3506038
v -0.2681889 0.2056275 -0.1337248
v -0.2909925 0.2056275 -0.3506038
v -0.2948976 0.2056275 -0.04380882
v -0.3381544 0.2056275 -0.1837654
v -0.1855093 0.2056275 0.04754206
v -0.1570868 0.2056275 -0.05300438
v -0.1570868 0.2056275 -0.05300438
v -0.09062923 0.4526249 -0.03470546
v -0.1855093 0.2056275 0.04754206
v -0.1326903 0.4526249 0.1140884
v -0.2610097 0 0.1036749
v -0.2944366 0 0.2219248
v -0.2371426 0.1831509 0.2071393
v 0.05745428 0.4526249 0.07288352
v -0.09062923 0.4526249 -0.03470546
v 0.05745428 1.02 0.004004643
v -0.164237 1.02 -0.1570635
v -0.1570868 0.2056275 -0.05300438
v -0.2681889 0.2056275 -0.1337248
v 0.3784102 0 -0.1053563
v 0.4709261 0 0.2219248
v 0.2566262 0.4526249 -0.07182335
v 0.329334 0.4526249 0.1853852
v 0.329334 0.4526249 0.1853852
v 0.08824474 0.4526249 0.3867204
v 0.2566262 0.4526249 -0.07182335
v 0.05745428 0.4526249 0.07288352
v -0.03229988 0.4526249 0.2860528
v -0.09062923 0.4526249 -0.03470546
v -0.1326903 0.4526249 0.1140884
v 0.08824474 0 0.5415043
v -0.2944366 0 0.2219248
v 0.08824474 0.4526249 0.3867204
v -0.2371426 0.1831509 0.2071393
v -0.03229988 0.4526249 0.2860528
v 0.3784102 0 -0.1053563
v 0.4093452 0 -0.1278318
v 0.2749348 0 -0.5415043
v 0.08824474 0 0.5415043
v 0.4709261 0 0.2219248
v -0.1600263 0 -0.5415043
v -0.2610097 0 0.1036749
v -0.2944366 0 0.2219248
v -0.1833285 0 -0.4697875
v -0.3583742 0 -0.4697875
v -0.4709261 0 -0.07162768
v 0.4709261 0 0.2219248
v 0.08824474 0 0.5415043
v 0.329334 0.4526249 0.1853852
v 0.08824474 0.4526249 0.3867204
v -0.3583742 0 -0.4697875
v -0.2909925 0.2056275 -0.3506038
v -0.4709261 0 -0.07162768
v -0.3381544 0.2056275 -0.1837654
v -0.4380098 0.06208146 -0.08012211
v 0.4093452 0 -0.1278318
v 0.3784102 0 -0.1053563
v 0.3634005 0.3599365 -0.1381471
v 0.2566262 0.4526249 -0.07182335
v 0.1232639 1.02 -0.04380882
v 0.05745428 0.4526249 0.07288352
v 0.05745428 1.02 0.004004643
v -0.3583742 0 -0.4697875
v -0.1833285 0 -0.4697875
v -0.2909925 0.2056275 -0.3506038
v -0.1977207 0.2056275 -0.3506038
v 0.2749348 0 -0.5415043
v 0.4093452 0 -0.1278318
v 0.194467 1.02 -0.4176772
v 0.2595051 1.02 -0.2175105
v 0.3634005 0.3599365 -0.1381471
v 0.2595051 1.02 -0.2175105
v 0.1232639 1.02 -0.04380882
v 0.194467 1.02 -0.4176772
v 0.02386728 1.02 -0.4176772
v 0.05745428 1.02 0.004004643
v -0.164237 1.02 -0.1570635
v -0.1115188 1.02 -0.3193135
v -0.1600263 0 -0.5415043
v 0.2749348 0 -0.5415043
v -0.1326903 0.3465071 -0.4994387
v 0.194467 1.02 -0.4176772
v 0.02386728 1.02 -0.4176772
v -0.1600263 0 -0.5415043
v -0.1326903 0.3465071 -0.4994387
v -0.1833285 0 -0.4697875
v -0.1115188 1.02 -0.3193135
v -0.1977207 0.2056275 -0.3506038
v -0.2681889 0.2056275 -0.1337248
v -0.164237 1.02 -0.1570635
v -0.2610097 0 0.1036749
v -0.4709261 0 -0.07162768
v -0.1855093 0.2056275 0.04754206
v -0.4380098 0.06208146 -0.08012211
v -0.2948976 0.2056275 -0.04380882
vt -3.837891 36.1875
vt -7.332031 8.945313
vt -10.42188 36.1875
vt 2.335938 0.9052734
vt 1.245117 12.8125
vt 9.085938 12.8125
vt -8.109375 -8.414063
vt -10.84375 -0.8974609
vt -5.078125 -0.8974609
vt 13.04688 38.84375
vt 13.10938 12.36719
vt 4.351563 38.84375
vt 7.785156 -13.80469
vt 10.5625 -5.265625
vt 11.45313 -13.80469
vt 11.60938 -1.724609
vt 13.3125 -7.234375
vt 7.304688 1.87207
vt 6.183594 -2.085938
vt -0.3256836 6.046875
vt -0.3442383 16.14063
vt 3.787109 6.046875
vt 5.742188 16.14063
vt 6.722656 -2.359375
vt 11.5625 -2.359375
vt 10.39063 5.125
vt 3.515625 17.64063
vt -3.689453 17.64063
vt 1.922852 40.09375
vt -8.867188 40.09375
vt -6.230469 7.867188
vt -11.63281 7.867188
vt -0.06109619 -4.15625
vt -13.45313 -4.15625
vt -0.02726746 14.34375
vt -10.54688 14.34375
vt -12.96875 7.296875
vt -3.474609 15.22656
vt -10.10156 -2.828125
vt -2.261719 2.869141
vt 1.271484 11.26563
vt 3.568359 -1.366211
vt 5.222656 4.492188
vt 16.32813 -3.589844
vt -3.296875 -3.589844
vt 12.42969 14.83594
vt -1.938477 3.865234
vt 6.242188 14.83594
vt 14.89844 -4.148438
vt 16.10938 -5.03125
vt 10.82031 -21.3125
vt 3.474609 21.3125
vt 18.54688 8.734375
vt -6.300781 -21.3125
vt -10.27344 4.082031
vt -11.59375 8.734375
vt -7.21875 -18.5
vt -14.10938 -18.5
vt -18.54688 -2.820313
vt 8.632813 -4.71875
vt -11 -4.71875
vt 5.273438 13.70313
vt -7.09375 13.70313
vt -13.96094 -7.957031
vt -10.16406 0.9990234
vt 2.330078 -7.957031
vt -3.339844 0.9990234
vt 1.655273 -5.253906
vt 16 -0.527832
vt 14.49219 -0.527832
vt 14.77344 13.71094
vt 9.835938 17.375
vt 4.941406 39.8125
vt 0.1433105 17.375
vt 1.737305 39.8125
vt 14.10938 -9.273438
vt 7.21875 -9.273438
vt 11.45313 0.08221436
vt 7.785156 0.08221436
vt 16.9375 -1.887695
vt -0.1937256 -1.887695
vt 13.27344 38.53125
vt 4.988281 38.53125
vt 0.7514648 12.375
vt -10.21875 -8.5625
vt -4.851563 -1.724609
vt -7.65625 -16.4375
vt -0.9394531 -16.4375
vt -2.261719 0.1577148
vt 6.464844 -6.183594
vt 4.390625 -12.57031
vt 6.300781 -2.568359
vt -10.82031 -2.568359
vt 5.222656 11.17188
vt -7.65625 37.875
vt -0.9394531 37.875
vt -18.32813 -1.407227
vt -17.09375 12.32031
vt -15.35938 -1.407227
vt -10.60156 39
vt -10.71875 6.738281
vt -1.744141 6.738281
vt -3.882813 39
vt -5.269531 -3.951172
vt -16.03125 -3.951172
vt -4.40625 4.910156
vt -15.25781 -1.275391
vt -10.01563 4.910156
vn -0.5722656 0.2286377 -0.7875977
vn -0.5722656 0.2286377 -0.7875977
vn -0.5722656 0.2286377 -0.7875977
vn -0.7695313 0.4536133 0.4492188
vn -0.7695313 0.4536133 0.4492188
vn -0.7695313 0.4536133 0.4492188
vn -0.7177734 0.659668 0.2219238
vn -0.7177734 0.659668 0.2219238
vn -0.7177734 0.659668 0.2219238
vn 0.7719727 0.1943359 0.6054688
vn 0.605957 0.1077271 0.7880859
vn 0.6650391 0.137085 0.7338867
vn 0 1 0
vn 0 1 0
vn 0 1 0
vn 0 1 0
vn 0 1 0
vn 0 1 0
vn 0 1 0
vn -0.9267578 0.2687988 -0.2619629
vn -0.9267578 0.2687988 -0.2619629
vn -0.9267578 0.2687988 -0.2619629
vn -0.9267578 0.2687988 -0.2619629
vn -0.9267578 0.2687988 -0.2619629
vn -0.9267578 0.2687988 -0.2619629
vn -0.9267578 0.2687988 -0.2619629
vn -0.5849609 0.09771729 0.8051758
vn -0.5849609 0.09771729 0.8051758
vn -0.5849609 0.09771729 0.8051758
vn -0.5849609 0.09771729 0.8051758
vn -0.5849609 0.09771729 0.8051758
vn -0.5849609 0.09771729 0.8051758
vn 0.9267578 0.2687988 -0.2619629
vn 0.9267578 0.2687988 -0.2619629
vn 0.9267578 0.2687988 -0.2619629
vn 0.9267578 0.2687988 -0.2619629
vn 0 1 0
vn 0 1 0
vn 0 1 0
vn 0 1 0
vn 0 1 0
vn 0 1 0
vn 0 1 0
vn -0.6201172 0.2539063 0.7421875
vn -0.6201172 0.2539063 0.7421875
vn -0.6201172 0.2539063 0.7421875
vn -0.6201172 0.2539063 0.7421875
vn -0.6201172 0.2539063 0.7421875
vn 0 -1 0
vn 0 -1 0
vn 0 -1 0
vn 0 -1 0
vn 0 -1 0
vn 0 -1 0
vn 0 -1 0
vn 0 -1 0
vn 0 -1 0
vn 0 -1 0
vn 0 -1 0
vn 0.6201172 0.2539063 0.7421875
vn 0.6201172 0.2539063 0.7421875
vn 0.6201172 0.2539063 0.7421875
vn 0.6201172 0.2539063 0.7421875
vn -0.8701172 0.4274902 -0.2458496
vn -0.8701172 0.4274902 -0.2458496
vn -0.8701172 0.4274902 -0.2458496
vn -0.8701172 0.4274902 -0.2458496
vn -0.8701172 0.4274902 -0.2458496
vn 0.5849609 0.09771729 0.8051758
vn 0.5849609 0.09771729 0.8051758
vn 0.605957 0.1077271 0.7880859
vn 0.5849609 0.09771729 0.8051758
vn 0.6650391 0.137085 0.7338867
vn 0.5849609 0.09771729 0.8051758
vn 0.5849609 0.09771729 0.8051758
vn 0 0.5014648 -0.8652344
vn 0 0.5014648 -0.8652344
vn 0 0.5014648 -0.8652344
vn 0 0.5014648 -0.8652344
vn 0.9453125 0.1118164 -0.3071289
vn 0.9453125 0.1118164 -0.3071289
vn 0.9453125 0.1118164 -0.3071289
vn 0.9453125 0.1118164 -0.3071289
vn 0.9453125 0.1118164 -0.3071289
vn 0 1 0
vn 0 1 0
vn 0 1 0
vn 0 1 0
vn 0 1 0
vn 0 1 0
vn 0 1 0
vn 0 0.1205444 -0.9926758
vn 0 0.1205444 -0.9926758
vn 0 0.1205444 -0.9926758
vn 0 0.1205444 -0.9926758
vn 0 0.1205444 -0.9926758
vn -0.9453125 0.1118164 -0.3071289
vn -0.9453125 0.1118164 -0.3071289
vn -0.9453125 0.1118164 -0.3071289
vn -0.9453125 0.1118164 -0.3071289
vn -0.9453125 0.1118164 -0.3071289
vn -0.9453125 0.1118164 -0.3071289
vn -0.9453125 0.1118164 -0.3071289
vn -0.5854492 0.4064941 0.7011719
vn -0.5854492 0.4064941 0.7011719
vn -0.5854492 0.4064941 0.7011719
vn -0.5854492 0.4064941 0.7011719
vn -0.5854492 0.4064941 0.7011719
g rockSmall_0
f 3/3/3 2/2/2 1/1/1
f 6/6/6 5/5/5 4/4/4
f 9/9/9 8/8/8 7/7/7
f 12/12/12 11/11/11 10/10/10
f 15/15/15 14/14/14 13/13/13
f 16/16/16 14/14/14 15/15/15
f 16/16/16 15/15/15 17/17/17
f 18/18/18 14/14/14 16/16/16
f 14/14/14 18/18/18 19/19/19
f 22/22/22 21/21/21 20/20/20
f 21/21/21 22/22/22 23/23/23
f 23/23/23 22/22/22 24/24/24
f 23/23/23 24/24/24 25/25/25
f 23/23/23 25/25/25 26/26/26
f 29/29/29 28/28/28 27/27/27
f 30/30/30 28/28/28 29/29/29
f 30/30/30 31/31/31 28/28/28
f 31/31/31 30/30/30 32/32/32
f 35/35/35 34/34/34 33/33/33
f 34/34/34 35/35/35 36/36/36
f 39/39/39 38/38/38 37/37/37
f 38/38/38 39/39/39 40/40/40
f 38/38/38 40/40/40 41/41/41
f 41/41/41 40/40/40 42/42/42
f 41/41/41 42/42/42 43/43/43
f 46/46/46 45/45/45 44/44/44
f 45/45/45 46/46/46 47/47/47
f 47/47/47 46/46/46 48/48/48
f 51/51/51 50/50/50 49/49/49
f 49/49/49 52/52/52 51/51/51
f 52/52/52 49/49/49 53/53/53
f 51/51/51 52/52/52 54/54/54
f 54/54/54 52/52/52 55/55/55
f 55/55/55 52/52/52 56/56/56
f 54/54/54 55/55/55 57/57/57
f 55/55/55 58/58/58 57/57/57
f 58/58/58 55/55/55 59/59/59
f 62/62/62 61/61/61 60/60/60
f 61/61/61 62/62/62 63/63/63
f 66/66/66 65/65/65 64/64/64
f 65/65/65 66/66/66 67/67/67
f 67/67/67 66/66/66 68/68/68
f 71/71/71 70/70/70 69/69/69
f 70/70/70 71/71/71 72/72/72
f 72/72/72 71/71/71 73/73/73
f 72/72/72 73/73/73 74/74/74
f 74/74/74 73/73/73 75/75/75
f 78/78/78 77/77/77 76/76/76
f 77/77/77 78/78/78 79/79/79
f 82/82/82 81/81/81 80/80/80
f 81/81/81 82/82/82 83/83/83
f 81/81/81 83/83/83 84/84/84
f 87/87/87 86/86/86 85/85/85
f 86/86/86 87/87/87 88/88/88
f 86/86/86 88/88/88 89/89/89
f 89/89/89 88/88/88 90/90/90
f 90/90/90 88/88/88 91/91/91
f 94/94/94 93/93/93 92/92/92
f 93/93/93 94/94/94 95/95/95
f 95/95/95 94/94/94 96/96/96
f 99/99/99 98/98/98 97/97/97
f 98/98/98 99/99/99 100/100/100
f 100/100/100 99/99/99 101/101/101
f 100/100/100 101/101/101 102/102/102
f 100/100/100 102/102/102 103/103/103
f 106/106/106 105/105/105 104/104/104
f 105/105/105 106/106/106 107/107/107
f 107/107/107 106/106/106 108/108/108
