g Shield_metal
v 0.9534962 0.6647944 0.1227735
v 0.8883289 0.8112695 -0.4298802
v 0.8699846 0.7962748 -0.4298802
v 1.000993 0.7036179 0.1227735
v 0.8618961 0.8061703 0.4099793
v 0.9093928 0.8449939 0.4099793
v 0.7720327 0.9309828 0.4099793
v 0.8195293 0.9698063 0.4099793
v 0.667593 1.043881 0.4099793
v 0.7150897 1.082704 0.4099793
v 0.5472662 1.161776 0.1227736
v 0.5947629 1.200599 0.1227736
v 0.6595044 1.053776 -0.4298801
v 0.6778486 1.068771 -0.4298801
v 0.7720326 0.9309828 -0.4298801
v 0.6778486 1.068771 -0.4298801
v 0.6595044 1.053776 -0.4298801
v 0.8066661 0.959292 -0.4298801
v 0.8699846 0.7962748 -0.4298802
v 0.8883289 0.8112695 -0.4298802
v 0.9534962 0.6647944 0.1227735
v 0.7720327 0.9309828 0.4099793
v 0.8618961 0.8061703 0.4099793
v 0.7868217 0.9430712 0.1227736
v 0.8699846 0.7962748 -0.4298802
v 0.667593 1.043881 0.4099793
v 0.7720326 0.9309828 -0.4298801
v 0.5472662 1.161776 0.1227736
v 0.6595044 1.053776 -0.4298801
v 0.7163996 0.9265442 -0.08967473
v 0.7924142 0.9793479 -0.1106231
v 0.8230475 0.9418712 -0.1106231
v 0.7470328 0.8890675 -0.08967473
v 0.7470328 0.8890675 -0.08967473
v 0.7470328 0.8890675 0.08301792
v 0.7163996 0.9265442 0.08301792
v 0.7163996 0.9265442 -0.08967473
v 0.7470328 0.8890675 0.08301792
v 0.8243985 0.9429755 0.107931
v 0.7937652 0.9804522 0.107931
v 0.7163996 0.9265442 0.08301792
v 0.9524495 0.7422884 0.1154817
v 0.8753473 0.8600544 0.3549592
v 0.8035532 0.9567475 0.3548905
v 0.8168455 0.9676125 0.1231275
v 0.8513183 0.8377168 -0.3740849
v 0.723076 1.046343 0.3549592
v 0.7921627 0.947437 -0.374125
v 0.6230029 1.145333 0.1154817
v 0.6964044 1.027238 -0.3740849
v 0.7114117 1.044019 -0.3756938
v 0.6964044 1.027238 -0.3740849
v 0.6230029 1.145333 0.1154817
v 0.6383518 1.161871 0.1149373
v 0.8095921 0.9616837 -0.3757536
v 0.723076 1.046343 0.3549592
v 0.7921627 0.947437 -0.374125
v 0.7388154 1.062496 0.3558224
v 0.8707494 0.8490857 -0.3756939
v 0.8035532 0.9567475 0.3548905
v 0.8513183 0.8377168 -0.3740849
v 0.8210152 0.9710209 0.3557593
v 0.971711 0.7540402 0.1149373
v 0.8753473 0.8600544 0.3549592
v 0.9524495 0.7422884 0.1154817
v 0.8943091 0.8722656 0.3558224
v 0.971711 0.7540402 0.1149373
v 0.9093928 0.8449939 0.4099793
v 0.8943091 0.8722656 0.3558224
v 1.000993 0.7036179 0.1227735
v 0.8195293 0.9698063 0.4099793
v 0.8707494 0.8490857 -0.3756939
v 0.8210152 0.9710209 0.3557593
v 0.8883289 0.8112695 -0.4298802
v 0.7150897 1.082704 0.4099793
v 0.8095921 0.9616837 -0.3757536
v 0.7388154 1.062496 0.3558224
v 0.8066661 0.959292 -0.4298801
v 0.5947629 1.200599 0.1227736
v 0.7114117 1.044019 -0.3756938
v 0.6383518 1.161871 0.1149373
v 0.6778486 1.068771 -0.4298801
vt 0.9412971 0.715534
vt 0.9577617 0.7162197
vt 0.9580615 0.715534
vt 0.9422644 0.7175505
vt 0.9341822 0.7249149
vt 0.9364973 0.7255701
vt 0.9353077 0.7314178
vt 0.9378252 0.7302738
vt 0.9394662 0.7365425
vt 0.9404952 0.7343677
vt 0.951212 0.7373527
vt 0.9503292 0.7352978
vt 0.9622378 0.7247243
vt 0.9615241 0.7244992
vt 0.9614642 0.7195318
vt 0.9615241 0.7244992
vt 0.9622378 0.7247243
vt 0.9600029 0.7201958
vt 0.9580615 0.715534
vt 0.9577617 0.7162197
vt 0.957835 0.6875012
vt 0.9473829 0.6756962
vt 0.9473681 0.6813155
vt 0.9578545 0.6756962
vt 0.9779853 0.6817825
vt 0.9473681 0.6700768
vt 0.9779778 0.6756962
vt 0.957835 0.6638912
vt 0.9779853 0.6696099
vt 0.2666174 0.1285512
vt 0.2820344 0.1273742
vt 0.2820345 0.1194876
vt 0.2666174 0.1206646
vt 0.2666174 0.1206646
vt 0.2384797 0.1206645
vt 0.2384796 0.1285511
vt 0.2666174 0.1285512
vt 0.2384797 0.1206645
vt 0.2226322 0.1194873
vt 0.2226322 0.1273739
vt 0.2384796 0.1285511
vt 0.3389412 0.1721889
vt 0.3315778 0.1823439
vt 0.3333159 0.187779
vt 0.3434048 0.1832044
vt 0.3594244 0.1702088
vt 0.3362745 0.1926796
vt 0.361913 0.1747919
vt 0.3487239 0.1938218
vt 0.3637303 0.1796841
vt 0.9625066 0.723605
vt 0.9625066 0.723605
vt 0.9478571 0.7374065
vt 0.9478571 0.7374065
vt 0.9607325 0.7188292
vt 0.9357038 0.7362914
vt 0.9607325 0.7188292
vt 0.9357038 0.7362914
vt 0.9583032 0.7143551
vt 0.9328156 0.7315074
vt 0.9583032 0.7143551
vt 0.9328156 0.7315074
vt 0.9383071 0.716288
vt 0.9311187 0.7262015
vt 0.9383071 0.716288
vt 0.9311187 0.7262015
vt 0.9383071 0.716288
vt 0.9286043 0.7257335
vt 0.9311187 0.7262015
vt 0.9369686 0.7141024
vt 0.9305303 0.7325557
vt 0.9583032 0.7143551
vt 0.9328156 0.7315074
vt 0.9594452 0.7121723
vt 0.9344026 0.7384933
vt 0.9607325 0.7188292
vt 0.9357038 0.7362914
vt 0.9626957 0.717939
vt 0.9486655 0.7398423
vt 0.9625066 0.723605
vt 0.9478571 0.7374065
vt 0.9649019 0.7241805
vn 0.6279961 -0.7682889 0.1239077
vn 0.6094601 -0.7456122 -0.2694822
vn 0.6094601 -0.7456122 -0.2694822
vn 0.6267359 -0.766747 0.1389281
vn 0.3269699 -0.4000139 0.8562006
vn 0.3034944 -0.3712941 0.8775146
vn 0 0 1
vn 0 0 1
vn -0.3269698 0.4000138 0.8562008
vn -0.3034942 0.371294 0.8775146
vn -0.6279959 0.7682889 0.1239081
vn -0.6267358 0.7667472 0.1389284
vn -0.6094598 0.7456126 -0.2694823
vn -0.6094598 0.7456126 -0.2694823
vn 0 0 -1
vn 0 0 -1
vn 0 0 -1
vn 0 0 -1
vn 0 0 -1
vn 0 0 -1
vn -0.8426995 -0.5383444 -0.006550663
vn -0.773764 -0.6324708 -0.0356327
vn -0.8431079 -0.536579 -0.03538319
vn -0.7742214 -0.6328447 -0.009419307
vn -0.8418626 -0.5394366 0.01660287
vn -0.6935844 -0.7195058 -0.03538321
vn -0.7741476 -0.6327845 0.01671397
vn -0.6952333 -0.7187544 -0.006550725
vn -0.6961371 -0.7177168 0.01660278
vn 0.1714144 0.1401133 0.9751848
vn 0.1714144 0.1401133 0.9751848
vn 0.1714144 0.1401133 0.9751848
vn 0.1714144 0.1401133 0.9751848
vn 0.7742549 0.6328739 0
vn 0.7742549 0.6328739 0
vn 0.7742549 0.6328739 0
vn 0.7742549 0.6328739 0
vn 0.19832 0.1621055 -0.966639
vn 0.19832 0.1621055 -0.966639
vn 0.19832 0.1621055 -0.966639
vn 0.19832 0.1621055 -0.966639
vn 0.8539876 0.5197361 -0.02407588
vn 0.8405044 0.5404257 0.03863207
vn 0.7736703 0.6323941 0.03888343
vn 0.7741613 0.6327956 -0.01562223
vn 0.8616237 0.5024813 -0.07153401
vn 0.6968366 0.7161888 0.03863221
vn 0.7722225 0.6312109 -0.07242359
vn 0.6792427 0.7335188 -0.02407588
vn 0.6638519 0.7444351 -0.07153411
vn 0.4809548 -0.3655179 0.7969185
vn 0.4878082 -0.3725834 0.7894458
vn 0.7320359 -0.6685643 -0.1309392
vn 0.7316502 -0.6683642 -0.1340787
vn 0.05507166 0.04501448 0.9974673
vn 0.3735063 -0.3215527 -0.8701132
vn 0.05507165 0.04501449 0.9974673
vn 0.3816919 -0.3299924 -0.8633749
vn -0.262528 0.5440577 0.7969192
vn 0.02969956 0.0242753 -0.9992641
vn -0.2680891 0.5521801 0.7894463
vn 0.02969956 0.0242753 -0.9992641
vn -0.5094478 0.8499919 -0.1340777
vn -0.2408186 0.4300111 -0.8701131
vn -0.5095671 0.8504096 -0.1309384
vn -0.2474609 0.4397117 -0.8633752
vn 0.8622521 0.5057237 -0.02765848
vn 0.8341527 0.5501563 0.03895293
vn 0.8341702 0.5501304 0.03894325
vn 0.8622515 0.5057261 -0.02763507
vn 0.7731425 0.6319629 0.05360556
vn 0.8690458 0.4898144 -0.06958
vn 0.7731425 0.631963 0.05360557
vn 0.8690469 0.4898126 -0.06957828
vn 0.7051083 0.708029 0.03895391
vn 0.7728294 0.6317077 -0.0606635
vn 0.7050864 0.7080514 0.03894423
vn 0.7728295 0.6317075 -0.06066348
vn 0.6671554 0.7444057 -0.02763462
vn 0.6529136 0.7542297 -0.06958047
vn 0.6671532 0.7444068 -0.02765804
vn 0.6529122 0.7542311 -0.06957877
g Shield_metal_0
f 3/3/3 2/2/2 1/1/1
f 2/2/2 4/4/4 1/1/1
f 1/1/1 4/4/4 5/5/5
f 4/4/4 6/6/6 5/5/5
f 5/5/5 6/6/6 7/7/7
f 6/6/6 8/8/8 7/7/7
f 7/7/7 8/8/8 9/9/9
f 8/8/8 10/10/10 9/9/9
f 9/9/9 10/10/10 11/11/11
f 10/10/10 12/12/12 11/11/11
f 11/11/11 12/12/12 13/13/13
f 12/12/12 14/14/14 13/13/13
f 17/17/17 16/16/16 15/15/15
f 16/16/16 18/18/18 15/15/15
f 15/15/15 18/18/18 19/19/19
f 18/18/18 20/20/20 19/19/19
f 23/23/23 22/22/22 21/21/21
f 22/22/22 24/24/24 21/21/21
f 25/25/25 21/21/21 24/24/24
f 22/22/22 26/26/26 24/24/24
f 27/27/27 25/25/25 24/24/24
f 26/26/26 28/28/28 24/24/24
f 27/27/27 24/24/24 28/28/28
f 29/29/29 27/27/27 28/28/28
f 32/32/32 31/31/31 30/30/30
f 33/33/33 32/32/32 30/30/30
f 36/36/36 35/35/35 34/34/34
f 37/37/37 36/36/36 34/34/34
f 40/40/40 39/39/39 38/38/38
f 41/41/41 40/40/40 38/38/38
f 44/44/44 43/43/43 42/42/42
f 45/45/45 44/44/44 42/42/42
f 42/42/42 46/46/46 45/45/45
f 47/47/47 44/44/44 45/45/45
f 46/46/46 48/48/48 45/45/45
f 49/49/49 47/47/47 45/45/45
f 45/45/45 48/48/48 49/49/49
f 48/48/48 50/50/50 49/49/49
f 53/53/53 52/52/52 51/51/51
f 54/54/54 53/53/53 51/51/51
f 51/51/51 52/52/52 55/55/55
f 56/56/56 53/53/53 54/54/54
f 52/52/52 57/57/57 55/55/55
f 58/58/58 56/56/56 54/54/54
f 55/55/55 57/57/57 59/59/59
f 60/60/60 56/56/56 58/58/58
f 57/57/57 61/61/61 59/59/59
f 62/62/62 60/60/60 58/58/58
f 59/59/59 61/61/61 63/63/63
f 64/64/64 60/60/60 62/62/62
f 61/61/61 65/65/65 63/63/63
f 66/66/66 64/64/64 62/62/62
f 63/63/63 65/65/65 66/66/66
f 65/65/65 64/64/64 66/66/66
f 69/69/69 68/68/68 67/67/67
f 68/68/68 70/70/70 67/67/67
f 71/71/71 68/68/68 69/69/69
f 67/67/67 70/70/70 72/72/72
f 73/73/73 71/71/71 69/69/69
f 70/70/70 74/74/74 72/72/72
f 75/75/75 71/71/71 73/73/73
f 72/72/72 74/74/74 76/76/76
f 77/77/77 75/75/75 73/73/73
f 74/74/74 78/78/78 76/76/76
f 79/79/79 75/75/75 77/77/77
f 76/76/76 78/78/78 80/80/80
f 81/81/81 79/79/79 77/77/77
f 78/78/78 82/82/82 80/80/80
f 82/82/82 79/79/79 81/81/81
f 80/80/80 82/82/82 81/81/81
