g Tree_02
v -0.570401 0.01589749 -0.05112237
v -0.2852004 0.01589749 -0.6522433
v -0.3439339 0.9168501 -0.08996859
v -0.3439339 0.9168501 -0.08996859
v -0.3386289 1.165783 -0.3408344
v 0.1571784 1.028521 -0.3408344
v 0.4090992 0.9168501 0.2643219
v 0.3019163 0.01596271 -0.3826504
v 0.6403385 0.01589749 0.4428594
v 0.2045496 0.9168501 0.6186122
v -0.04470329 2.489196 0.5347588
v 0.1240572 2.489196 0.3769842
v 0.6403385 0.01589749 0.4428594
v -0.2852005 0.01589749 0.6973407
v -0.2045497 0.5410483 0.5545779
v -0.2045497 0.5410483 0.5545779
v -0.2852005 0.01589749 0.6973407
v -0.570401 0.01589749 -0.05112237
v -0.3439339 0.9168501 -0.08996859
v 0.3123179 0.9168501 -0.08996852
v -0.04470323 2.489196 0.2192096
v 0.2045496 0.9168501 0.6186122
v -0.2045497 0.5410483 0.5545779
v -0.3822241 2.489196 0.5347588
v 0.6403385 0.01589749 0.4428594
v 0.2045496 0.9168501 0.6186122
v -0.4090993 0.9168501 0.2643218
v -0.3439339 0.9168501 -0.08996859
v -0.3822241 2.489196 0.2192096
v 0.4090992 0.9168501 0.2643219
v 0.1240572 2.489196 0.3769842
v -0.04470323 2.489196 0.2192096
v -0.4090993 0.9168501 0.2643218
v -0.5509845 2.489196 0.3769842
v -0.3822241 2.489196 0.5347588
v -0.5509845 2.489196 0.3769842
v -0.3822241 2.489196 0.2192096
v -0.2371373 3.800095 0.8526746
v -0.3822241 2.489196 0.5347588
v -0.5509845 2.489196 0.3769842
v -0.2371373 3.800095 0.8526746
v -0.04470329 2.489196 0.5347588
v -0.151878 3.9865 1.037338
v 0.08093341 3.746126 0.8595756
v -0.04470323 2.489196 0.2192096
v 0.08093341 3.746126 0.8595756
v -0.2371373 3.800095 0.8526746
v -0.3386289 1.165783 -0.3408344
v -0.439133 1.495628 -0.6390929
v 0.0325862 1.219279 -0.50685
v -0.3439339 0.9168501 -0.08996859
v -0.2852004 0.01589749 -0.6522433
v -0.2191512 0.6520571 -0.5018004
v 0.3123179 0.9168501 -0.08996852
v 0.1571784 1.028521 -0.3408344
v 0.1626076 0.9326506 -0.5446833
v 0.3019163 0.01596271 -0.3826504
v 0.1626076 0.9326506 -0.5446833
v -0.2191512 0.6520571 -0.5018004
v -0.469637 1.319202 -0.7282181
v 0.1626076 0.9326506 -0.5446833
v 0.0325862 1.219279 -0.50685
v -0.3386289 1.165783 -0.3408344
v -0.2191512 0.6520571 -0.5018004
v -0.469637 1.319202 -0.7282181
v 0.1571784 1.028521 -0.3408344
v 0.0325862 1.219279 -0.50685
v 0.1626076 0.9326506 -0.5446833
v -0.2979813 2.131938 0.5166606
v -0.4450223 2.010257 0.3788724
v -0.706775 3.084146 0.5975308
v -0.706775 3.084146 0.5975308
v -0.6259518 3.297097 0.587552
v -0.7077984 3.262726 0.7437011
v -0.1788861 2.238572 0.4964797
v -0.7077984 3.262726 0.7437011
v -0.6259518 3.297097 0.587552
v -0.3538721 2.101841 0.2341146
v -0.6259518 3.297097 0.587552
v -0.706775 3.084146 0.5975308
v -0.1788861 2.238572 0.4964797
v -0.2979813 2.131938 0.5166606
v -0.7077984 3.262726 0.7437011
v 0.06928457 2.541963 0.1932747
v 0.1564995 2.725628 0.05688383
v 0.1835995 2.750644 0.1174583
v -0.570401 0.01589749 -0.05112237
v -0.3439339 0.9168501 -0.08996859
v -0.4090993 0.9168501 0.2643218
v -0.3439339 0.9168501 -0.08996859
v 0.1571784 1.028521 -0.3408344
v 0.3123179 0.9168501 -0.08996852
v 0.3123179 0.9168501 -0.08996852
v 0.3019163 0.01596271 -0.3826504
v 0.4090992 0.9168501 0.2643219
v 0.4090992 0.9168501 0.2643219
v 0.6403385 0.01589749 0.4428594
v 0.2045496 0.9168501 0.6186122
v 0.2045496 0.9168501 0.6186122
v 0.1240572 2.489196 0.3769842
v 0.4090992 0.9168501 0.2643219
v -0.2045497 0.5410483 0.5545779
v -0.570401 0.01589749 -0.05112237
v -0.4090993 0.9168501 0.2643218
v -0.2852005 0.01589749 0.6973407
v 0.3019163 0.01596271 -0.3826504
v -0.570401 0.01589749 -0.05112237
v -0.2852004 0.01589749 -0.6522433
v -0.570401 0.01589749 -0.05112237
v 0.3019163 0.01596271 -0.3826504
v 0.3019163 0.01596271 -0.3826504
v -0.2852005 0.01589749 0.6973407
v 0.6403385 0.01589749 0.4428594
v -0.3822241 2.489196 0.5347588
v -0.151878 3.9865 1.037338
v -0.04470329 2.489196 0.5347588
v -0.3439339 0.9168501 -0.08996859
v -0.04470323 2.489196 0.2192096
v -0.3822241 2.489196 0.2192096
v 0.2045496 0.9168501 0.6186122
v -0.3822241 2.489196 0.5347588
v -0.04470329 2.489196 0.5347588
v -0.4090993 0.9168501 0.2643218
v -0.3822241 2.489196 0.2192096
v -0.5509845 2.489196 0.3769842
v 0.4090992 0.9168501 0.2643219
v -0.04470323 2.489196 0.2192096
v 0.3123179 0.9168501 -0.08996852
v -0.4090993 0.9168501 0.2643218
v -0.3822241 2.489196 0.5347588
v -0.2045497 0.5410483 0.5545779
v 0.08093341 3.746126 0.8595756
v -0.151878 3.9865 1.037338
v -0.2371373 3.800095 0.8526746
v 0.1240572 2.489196 0.3769842
v 0.08093341 3.746126 0.8595756
v -0.04470323 2.489196 0.2192096
v -0.3822241 2.489196 0.5347588
v -0.2371373 3.800095 0.8526746
v -0.151878 3.9865 1.037338
v -0.04470329 2.489196 0.5347588
v 0.08093341 3.746126 0.8595756
v 0.1240572 2.489196 0.3769842
v -0.04470323 2.489196 0.2192096
v -0.2371373 3.800095 0.8526746
v -0.3822241 2.489196 0.2192096
v -0.3386289 1.165783 -0.3408344
v 0.0325862 1.219279 -0.50685
v 0.1571784 1.028521 -0.3408344
v -0.3439339 0.9168501 -0.08996859
v -0.2191512 0.6520571 -0.5018004
v -0.3386289 1.165783 -0.3408344
v 0.3123179 0.9168501 -0.08996852
v 0.1626076 0.9326506 -0.5446833
v 0.3019163 0.01596271 -0.3826504
v 0.3019163 0.01596271 -0.3826504
v -0.2191512 0.6520571 -0.5018004
v -0.2852004 0.01589749 -0.6522433
v -0.469637 1.319202 -0.7282181
v 0.0325862 1.219279 -0.50685
v -0.439133 1.495628 -0.6390929
v -0.3386289 1.165783 -0.3408344
v -0.469637 1.319202 -0.7282181
v -0.439133 1.495628 -0.6390929
v -0.2191512 0.6520571 -0.5018004
v 0.1626076 0.9326506 -0.5446833
v -0.469637 1.319202 -0.7282181
v -0.2979813 2.131938 0.5166606
v -0.706775 3.084146 0.5975308
v -0.7077984 3.262726 0.7437011
v -0.1788861 2.238572 0.4964797
v -0.6259518 3.297097 0.587552
v -0.2068312 2.223523 0.3385106
v -0.3538721 2.101841 0.2341146
v -0.706775 3.084146 0.5975308
v -0.409127 2.019039 0.2983031
v -0.409127 2.019039 0.2983031
v -0.706775 3.084146 0.5975308
v -0.4450223 2.010257 0.3788724
v -0.2068312 2.223523 0.3385106
v -0.6259518 3.297097 0.587552
v -0.3538721 2.101841 0.2341146
v 0.04568014 2.237035 0.2771176
v 0.1381324 2.438352 0.1448709
v -0.07927416 2.319051 0.1975267
v -0.07927416 2.319051 0.1975267
v 0.06928457 2.541963 0.1932747
v -0.1237899 2.451756 0.2928302
v 0.1966709 2.458351 0.2744147
v 0.04568014 2.237035 0.2771176
v 0.07839034 2.319051 0.4216108
v 0.1966709 2.458351 0.2744147
v 0.1835995 2.750644 0.1174583
v 0.1564995 2.725628 0.05688383
v 0.1381324 2.438352 0.1448709
v 0.04568014 2.237035 0.2771176
v -0.07927416 2.319051 0.1975267
v 0.1381324 2.438352 0.1448709
v 0.06928457 2.541963 0.1932747
v 0.1564995 2.725628 0.05688383
v 0.1306792 2.541963 0.2805332
v 0.1835995 2.750644 0.1174583
v 0.1966709 2.458351 0.2744147
v 0.07839034 2.319051 0.4216108
v -0.02634787 2.451756 0.4313219
v 0.06928457 2.541963 0.1932747
v 0.1835995 2.750644 0.1174583
v 0.1306792 2.541963 0.2805332
v -0.02634787 2.451756 0.4313219
v -0.1237899 2.451756 0.2928302
vt 0.4307744 0.4307744
vt 0.5692256 0.5692256
vt 0.5692256 0.4307744
vt 0.4307744 0.4307744
vt 0.5692256 0.5692256
vt 0.5692256 0.4307744
vt 0.4307744 0.4307744
vt 0.5692256 0.5692256
vt 0.5692256 0.4307744
vt 0.4307744 0.4307744
vt 0.5692256 0.5692256
vt 0.5692256 0.4307744
vt 0.4307744 0.4307744
vt 0.5692256 0.5692256
vt 0.5692256 0.4307744
vt 0.4307744 0.4307744
vt 0.5692256 0.5692256
vt 0.5692256 0.4307744
vt 0.4307744 0.4307744
vt 0.5692256 0.5692256
vt 0.5692256 0.4307744
vt 0.4307744 0.4307744
vt 0.5692256 0.5692256
vt 0.5692256 0.4307744
vt 0.4307744 0.4307744
vt 0.5692256 0.4307744
vt 0.4307744 0.4307744
vt 0.5692256 0.5692256
vt 0.5692256 0.4307744
vt 0.4307744 0.4307744
vt 0.5692256 0.5692256
vt 0.5692256 0.4307744
vt 0.4307744 0.4307744
vt 0.5692256 0.5692256
vt 0.5692256 0.4307744
vt 0.4307744 0.4307744
vt 0.5692256 0.5692256
vt 0.5692256 0.4307744
vt 0.4307744 0.4307744
vt 0.5692256 0.5692256
vt 0.5692256 0.4307744
vt 0.4307744 0.4307744
vt 0.5692256 0.5692256
vt 0.5692256 0.4307744
vt 0.4307744 0.4307744
vt 0.5692256 0.5692256
vt 0.5692256 0.4307744
vt 0.4307744 0.4307744
vt 0.5692256 0.5692256
vt 0.5692256 0.4307744
vt 0.4307744 0.4307744
vt 0.5692256 0.5692256
vt 0.5692256 0.4307744
vt 0.4307744 0.4307744
vt 0.5692256 0.5692256
vt 0.5692256 0.4307744
vt 0.4307744 0.4307744
vt 0.5692256 0.5692256
vt 0.5692256 0.4307744
vt 0.4307744 0.4307744
vt 0.5692256 0.5692256
vt 0.5692256 0.4307744
vt 0.4307744 0.4307744
vt 0.5692256 0.5692256
vt 0.5692256 0.4307744
vt 0.4307744 0.4307744
vt 0.5692256 0.5692256
vt 0.5692256 0.4307744
vt 0.4813889 0.4525104
vt 0.4800251 0.4307854
vt 0.4379102 0.5528465
vt 0.4379102 0.5528465
vt 0.4307854 0.5692145
vt 0.4334161 0.5682272
vt 0.4752231 0.4612562
vt 0.4334161 0.5682272
vt 0.4307854 0.5692145
vt 0.4798894 0.4472947
vt 0.4307854 0.5692145
vt 0.4379102 0.5528465
vt 0.4752231 0.4612562
vt 0.4813889 0.4525104
vt 0.4334161 0.5682272
vt 0.4956599 0.4469645
vt 0.4948064 0.4462163
vt 0.4948445 0.4462517
vt 0.4307744 0.4307744
vt 0.5692256 0.5692256
vt 0.5692256 0.4307744
vt 0.4307744 0.4307744
vt 0.5692256 0.5692256
vt 0.5692256 0.4307744
vt 0.4307744 0.4307744
vt 0.5692256 0.5692256
vt 0.5692256 0.4307744
vt 0.4307744 0.4307744
vt 0.5692256 0.5692256
vt 0.5692256 0.4307744
vt 0.4307744 0.4307744
vt 0.5692256 0.5692256
vt 0.5692256 0.4307744
vt 0.4307744 0.4307744
vt 0.5692256 0.5692256
vt 0.5692256 0.4307744
vt 0.4307744 0.4307744
vt 0.5692256 0.5692256
vt 0.5692256 0.4307744
vt 0.4307744 0.4307744
vt 0.5692256 0.5692256
vt 0.5692256 0.4307744
vt 0.4307744 0.4307744
vt 0.5692256 0.5692256
vt 0.5692256 0.4307744
vt 0.4307744 0.4307744
vt 0.5692256 0.5692256
vt 0.5692256 0.4307744
vt 0.4307744 0.4307744
vt 0.5692256 0.5692256
vt 0.5692256 0.4307744
vt 0.4307744 0.4307744
vt 0.5692256 0.5692256
vt 0.5692256 0.4307744
vt 0.4307744 0.4307744
vt 0.5692256 0.5692256
vt 0.5692256 0.4307744
vt 0.4307744 0.4307744
vt 0.5692256 0.5692256
vt 0.5692256 0.4307744
vt 0.4307744 0.4307744
vt 0.5692256 0.5692256
vt 0.5692256 0.4307744
vt 0.4307744 0.4307744
vt 0.5692256 0.5692256
vt 0.5692256 0.4307744
vt 0.4307744 0.4307744
vt 0.5692256 0.5692256
vt 0.5692256 0.4307744
vt 0.4307744 0.4307744
vt 0.5692256 0.5692256
vt 0.5692256 0.4307744
vt 0.4307744 0.4307744
vt 0.5692256 0.5692256
vt 0.5692256 0.4307744
vt 0.4307744 0.4307744
vt 0.5692256 0.5692256
vt 0.5692256 0.4307744
vt 0.4307744 0.4307744
vt 0.5692256 0.5692256
vt 0.5692256 0.4307744
vt 0.4307744 0.4307744
vt 0.5692256 0.5692256
vt 0.5692256 0.4307744
vt 0.4307744 0.4307744
vt 0.5692256 0.5692256
vt 0.5692256 0.4307744
vt 0.4307744 0.4307744
vt 0.5692256 0.5692256
vt 0.5692256 0.4307744
vt 0.4307744 0.4307744
vt 0.5692256 0.5692256
vt 0.5692256 0.4307744
vt 0.4307744 0.4307744
vt 0.5692256 0.5692256
vt 0.5692256 0.4307744
vt 0.4307744 0.4307744
vt 0.5692256 0.5692256
vt 0.5692256 0.4307744
vt 0.4813889 0.4525104
vt 0.4379102 0.5528465
vt 0.4334161 0.5682272
vt 0.4752231 0.4612562
vt 0.4307854 0.5692145
vt 0.4739191 0.4582072
vt 0.4798894 0.4472947
vt 0.4379102 0.5528465
vt 0.4813889 0.436834
vt 0.4813889 0.436834
vt 0.4379102 0.5528465
vt 0.4800251 0.4307854
vt 0.4739191 0.4582072
vt 0.4307854 0.5692145
vt 0.4798894 0.4472947
vt 0.4950043 0.4307854
vt 0.4952545 0.4452679
vt 0.5090092 0.4427372
vt 0.5090092 0.4427372
vt 0.4956599 0.4469645
vt 0.5018873 0.4566245
vt 0.4934644 0.4457322
vt 0.4950043 0.4307854
vt 0.481411 0.4425623
vt 0.4934644 0.4457322
vt 0.4948445 0.4462517
vt 0.4948064 0.4462163
vt 0.4952545 0.4452679
vt 0.4950043 0.4307854
vt 0.5090092 0.4427372
vt 0.4952545 0.4452679
vt 0.4956599 0.4469645
vt 0.4948064 0.4462163
vt 0.4939617 0.4469664
vt 0.4948445 0.4462517
vt 0.4934644 0.4457322
vt 0.481411 0.4425623
vt 0.4873645 0.4566245
vt 0.4956599 0.4469645
vt 0.4948445 0.4462517
vt 0.4939617 0.4469664
vt 0.4873645 0.4566245
vt 0.5018873 0.4566245
vn -0.9817254 0.1727416 0.07984634
vn -0.8926523 0.1953283 -0.406225
vn -0.956365 0.09540126 -0.2761603
vn 0.09821513 0.8214031 0.561828
vn 0.2000619 0.6996036 0.6859518
vn 0.1323189 0.7879911 0.6013
vn 0.9711375 0.2060748 -0.1201045
vn 0.8614317 0.1313254 -0.4906006
vn 0.9643169 0.2586765 0.05638759
vn 0.4288183 0.08428769 0.8994501
vn 0.3735636 -0.1368773 0.9174502
vn 0.7518281 0.005816453 0.6593335
vn 0.4128732 0.1269581 0.9018966
vn 0.2588472 0.2161725 0.9414178
vn 0.04218582 0.009666628 0.9990631
vn -0.8805764 0.04106697 0.4721214
vn -0.9085912 0.2336577 0.3462171
vn -0.9817254 0.1727416 0.07984634
vn 0 0.1929403 -0.9812105
vn 0 0.1929403 -0.9812105
vn 0.2521026 0.3069086 -0.9177425
vn 0.1446467 0.002923803 0.9894791
vn -0.3690585 -0.01968071 0.9291978
vn -0.5221841 -0.08892764 0.8481837
vn 0.1410954 0.01642243 0.9898598
vn 0.1446467 0.002923803 0.9894791
vn -0.9906204 0.001943368 0.1366291
vn -0.956365 0.09540126 -0.2761603
vn -0.8149081 0.1407612 -0.5622376
vn 0.8939131 0.1719983 -0.4139275
vn 0.6642091 0.2325434 -0.7104576
vn 0.3768846 0.3190639 -0.8695723
vn -0.9017714 -0.05737966 0.4283876
vn -0.6789998 -0.107144 0.7262779
vn -0.5221841 -0.08892764 0.8481837
vn -0.6696141 0.1965177 -0.7162387
vn -0.5360635 0.2393517 -0.8095348
vn -0.1073741 0.516057 -0.8497976
vn -0.5221841 -0.08892764 0.8481837
vn -0.6789998 -0.107144 0.7262779
vn -0.8092686 -0.05232996 0.5851033
vn 0.3735636 -0.1368773 0.9174502
vn 0.2020342 -0.2986191 0.9327427
vn 0.5353169 -0.2610931 0.8032846
vn 0.2521026 0.3069086 -0.9177425
vn 0.3076159 0.4917934 -0.8145623
vn -0.1073741 0.516057 -0.8497976
vn 0.2000619 0.6996036 0.6859518
vn 0.21021 0.6901774 0.6924356
vn 0.203941 0.7020921 0.6822572
vn -0.956365 0.09540126 -0.2761603
vn -0.8926523 0.1953283 -0.406225
vn -0.9870089 -0.09242253 -0.1314212
vn 0.9286058 0.2514869 -0.2728474
vn 0.8435487 0.4942934 -0.2099994
vn 0.825361 0.3727563 -0.4240659
vn 0.2213329 -0.001360601 -0.9751974
vn 0.1943444 -0.05206876 -0.9795504
vn 0.1826902 -0.09927892 -0.9781451
vn 0.3436102 0.1303135 -0.9300272
vn 0.658799 0.1918679 -0.7274411
vn 0.6335282 0.389238 -0.6686822
vn -0.9811376 -0.1539198 0.1169519
vn -0.9870089 -0.09242253 -0.1314212
vn -0.9534041 -0.1419859 0.2661967
vn 0.8435487 0.4942934 -0.2099994
vn 0.6335282 0.389238 -0.6686822
vn 0.825361 0.3727563 -0.4240659
vn -0.4103001 -0.2989273 0.8615662
vn -0.515666 -0.2898574 0.80627
vn -0.675674 -0.345388 0.6512847
vn -0.7870151 0.07882557 -0.6118772
vn -0.7137977 0.2400843 -0.6579152
vn -0.868136 0.31138 -0.3865001
vn 0.8158582 0.2475023 0.5226069
vn 0.5882663 0.1104269 0.8010921
vn 0.9143391 0.3725046 0.1588218
vn -0.3406392 0.1769197 -0.9233983
vn -0.4071992 0.3192907 -0.8557116
vn -0.7870151 0.07882557 -0.6118772
vn 0.5882663 0.1104269 0.8010921
vn -0.1431943 -0.2137238 0.9663423
vn 0.5882663 0.1104269 0.8010921
vn -0.6363991 0.7673537 0.07851323
vn -0.8396301 0.5186067 0.1614575
vn -0.7739868 0.5425806 0.3264211
vn -0.9817254 0.1727416 0.07984634
vn -0.956365 0.09540126 -0.2761603
vn -0.9995592 0.02846872 -0.008414485
vn 0.09821513 0.8214031 0.561828
vn 0.1323189 0.7879911 0.6013
vn 0 0.9135752 0.4066698
vn 0.9286058 0.2514869 -0.2728474
vn 0.8614317 0.1313254 -0.4906006
vn 0.9711375 0.2060748 -0.1201045
vn 0.9794074 0.2011221 0.01763334
vn 0.8482876 0.2898935 0.4431363
vn 0.7969021 0.1931185 0.5724092
vn 0.6491506 0.171962 0.7409673
vn 0.7518281 0.005816453 0.6593335
vn 0.9794074 0.2011221 0.01763334
vn -0.6311973 -0.01530155 0.7754714
vn -0.9817254 0.1727416 0.07984634
vn -0.9499019 0.004202034 0.3125202
vn 2.289448E-05 -1 -4.79471E-05
vn 4.566948E-05 -1 -1.753843E-05
vn 7.826606E-05 -1 9.195814E-06
vn 9.121948E-05 -1 4.327889E-05
vn 7.826606E-05 -1 9.195814E-06
vn 4.566948E-05 -1 -1.753843E-05
vn 4.566948E-05 -1 -1.753843E-05
vn 2.289448E-05 -1 -4.79471E-05
vn -1.952368E-05 -1 -7.100693E-05
vn -0.4328456 -0.1016899 0.8957142
vn 0.2020342 -0.2986191 0.9327427
vn 0.3735636 -0.1368773 0.9174502
vn 0 0.1929403 -0.9812105
vn 0.2521026 0.3069086 -0.9177425
vn -0.3563823 0.2753657 -0.8928412
vn 0.3167464 0.02969415 0.9480454
vn -0.4328456 -0.1016899 0.8957142
vn 0.3735636 -0.1368773 0.9174502
vn -0.9206197 0.08254649 -0.381635
vn -0.5360635 0.2393517 -0.8095348
vn -0.6696141 0.1965177 -0.7162387
vn 0.9711375 0.2060748 -0.1201045
vn 0.7778971 0.2500988 -0.5764779
vn 0.9286058 0.2514869 -0.2728474
vn -0.9499019 0.004202034 0.3125202
vn -0.5221841 -0.08892764 0.8481837
vn -0.6311973 -0.01530155 0.7754714
vn 0.3076159 0.4917934 -0.8145623
vn 0.1291616 0.6674436 -0.7333733
vn -0.1073741 0.516057 -0.8497976
vn 0.6642091 0.2325434 -0.7104576
vn 0.3076159 0.4917934 -0.8145623
vn 0.3768846 0.3190639 -0.8695723
vn -0.6953355 -0.06214144 0.7159937
vn -0.8092686 -0.05232996 0.5851033
vn -0.9073038 -0.001553907 0.4204728
vn 0.3735636 -0.1368773 0.9174502
vn 0.5353169 -0.2610931 0.8032846
vn 0.7518281 0.005816453 0.6593335
vn 0.2521026 0.3069086 -0.9177425
vn -0.1073741 0.516057 -0.8497976
vn -0.3563823 0.2753657 -0.8928412
vn 0.2000619 0.6996036 0.6859518
vn 0.203941 0.7020921 0.6822572
vn 0.1323189 0.7879911 0.6013
vn -0.956365 0.09540126 -0.2761603
vn -0.9870089 -0.09242253 -0.1314212
vn -0.9811376 -0.1539198 0.1169519
vn 0.9286058 0.2514869 -0.2728474
vn 0.825361 0.3727563 -0.4240659
vn 0.8614317 0.1313254 -0.4906006
vn 0.7523716 0.07438004 -0.6545262
vn 0.1826902 -0.09927892 -0.9781451
vn 0.4112651 0.1691186 -0.8956896
vn 0.3436102 0.1303135 -0.9300272
vn 0.6335282 0.389238 -0.6686822
vn 0.4351951 0.3448856 -0.8316605
vn -0.9811376 -0.1539198 0.1169519
vn -0.9534041 -0.1419859 0.2661967
vn -0.9470984 0.001623681 0.3209392
vn 0.1826902 -0.09927892 -0.9781451
vn 0.1943444 -0.05206876 -0.9795504
vn 0.3436102 0.1303135 -0.9300272
vn -0.675674 -0.345388 0.6512847
vn -0.8835504 -0.3219588 0.3401193
vn -0.8000696 -0.3827143 0.4619724
vn 0.9143391 0.3725046 0.1588218
vn 0.8661813 0.4361055 -0.2440121
vn 0.690429 0.4080991 -0.5972962
vn -0.6257314 0.06284682 -0.7775028
vn -0.7870151 0.07882557 -0.6118772
vn -0.8325489 -0.07860844 -0.5483456
vn -0.8325489 -0.07860844 -0.5483456
vn -0.8970783 -0.01946008 -0.4414428
vn -0.8995851 -0.1346735 -0.4154633
vn 0.690429 0.4080991 -0.5972962
vn 0.3344977 0.3891599 -0.8582923
vn -0.07904671 0.2660864 -0.9607027
vn 0.5079817 -0.6236122 -0.5941907
vn 0.2276622 -0.3711488 -0.9002324
vn -0.1178544 -0.2132926 -0.9698539
vn -0.4504519 0.2840556 -0.8464075
vn -0.7181212 0.269436 -0.6416434
vn -0.5540946 0.3549092 -0.7530064
vn 0.8993667 -0.3721608 -0.2294251
vn 0.8234346 -0.5626736 -0.0731713
vn 0.8196954 -0.5576296 0.1309534
vn 0.8993667 -0.3721608 -0.2294251
vn 0.9241083 -0.1478826 -0.3523557
vn 0.9158032 -0.1616032 -0.3676804
vn 0.6824329 -0.4872259 -0.5448818
vn 0.6688614 -0.6485747 -0.3632841
vn -0.294814 -0.009060601 -0.9555117
vn -0.3531638 -0.2054854 -0.9127163
vn -0.5595044 0.1391017 -0.8170712
vn -0.7184479 -0.1613013 -0.6766199
vn 0.546491 0.3765845 0.7480185
vn 0.5793886 0.4055524 0.7069909
vn 0.5549081 0.3839614 0.7380045
vn 0.5293037 0.3615916 0.7675214
vn 0.5293047 0.3615911 0.767521
vn -0.5698156 0.769866 0.287431
vn -0.7739868 0.5425806 0.3264211
vn -0.5226081 0.7692037 0.3677042
vn -0.3161805 0.9222474 0.2224629
vn -0.3161804 0.9222474 0.222463
g Tree_02_0
f 3/3/3 2/2/2 1/1/1
f 6/6/6 5/5/5 4/4/4
f 9/9/9 8/8/8 7/7/7
f 12/12/12 11/11/11 10/10/10
f 15/15/15 14/14/14 13/13/13
f 18/18/18 17/17/17 16/16/16
f 21/21/21 20/20/20 19/19/19
f 24/24/24 23/23/23 22/22/22
f 26/26/26 23/23/23 25/25/25
f 29/29/29 28/28/28 27/27/27
f 32/32/32 31/31/31 30/30/30
f 35/35/35 34/34/34 33/33/33
f 38/38/38 37/37/37 36/36/36
f 41/41/41 40/40/40 39/39/39
f 44/44/44 43/43/43 42/42/42
f 47/47/47 46/46/46 45/45/45
f 50/50/50 49/49/49 48/48/48
f 53/53/53 52/52/52 51/51/51
f 56/56/56 55/55/55 54/54/54
f 59/59/59 58/58/58 57/57/57
f 62/62/62 61/61/61 60/60/60
f 65/65/65 64/64/64 63/63/63
f 68/68/68 67/67/67 66/66/66
f 71/71/71 70/70/70 69/69/69
f 74/74/74 73/73/73 72/72/72
f 77/77/77 76/76/76 75/75/75
f 80/80/80 79/79/79 78/78/78
f 83/83/83 82/82/82 81/81/81
f 86/86/86 85/85/85 84/84/84
f 89/89/89 88/88/88 87/87/87
f 92/92/92 91/91/91 90/90/90
f 95/95/95 94/94/94 93/93/93
f 98/98/98 97/97/97 96/96/96
f 101/101/101 100/100/100 99/99/99
f 104/104/104 103/103/103 102/102/102
f 107/107/107 106/106/106 105/105/105
f 110/110/110 109/109/109 108/108/108
f 113/113/113 112/112/112 111/111/111
f 116/116/116 115/115/115 114/114/114
f 119/119/119 118/118/118 117/117/117
f 122/122/122 121/121/121 120/120/120
f 125/125/125 124/124/124 123/123/123
f 128/128/128 127/127/127 126/126/126
f 131/131/131 130/130/130 129/129/129
f 134/134/134 133/133/133 132/132/132
f 137/137/137 136/136/136 135/135/135
f 140/140/140 139/139/139 138/138/138
f 143/143/143 142/142/142 141/141/141
f 146/146/146 145/145/145 144/144/144
f 149/149/149 148/148/148 147/147/147
f 152/152/152 151/151/151 150/150/150
f 155/155/155 154/154/154 153/153/153
f 158/158/158 157/157/157 156/156/156
f 161/161/161 160/160/160 159/159/159
f 164/164/164 163/163/163 162/162/162
f 167/167/167 166/166/166 165/165/165
f 170/170/170 169/169/169 168/168/168
f 173/173/173 172/172/172 171/171/171
f 176/176/176 175/175/175 174/174/174
f 179/179/179 178/178/178 177/177/177
f 182/182/182 181/181/181 180/180/180
f 185/185/185 184/184/184 183/183/183
f 188/188/188 187/187/187 186/186/186
f 191/191/191 190/190/190 189/189/189
f 194/194/194 193/193/193 192/192/192
f 195/195/195 194/194/194 192/192/192
f 196/196/196 195/195/195 192/192/192
f 199/199/199 198/198/198 197/197/197
f 200/200/200 198/198/198 199/199/199
f 203/203/203 202/202/202 201/201/201
f 204/204/204 203/203/203 201/201/201
f 205/205/205 204/204/204 201/201/201
f 208/208/208 207/207/207 206/206/206
f 209/209/209 208/208/208 206/206/206
f 210/210/210 209/209/209 206/206/206
