g Water.001
v -3.753791 -0.07765995 -26.82998
v -2.680969 -0.07765995 -27.90281
v 1.759636E-07 -0.07765995 -27.90281
v 2.680967 -0.07765995 -27.90281
v 3.753788 -0.07765995 -26.82998
v -3.81253 -0.07765996 -14.09138
v 3.812527 -0.07765996 -14.09138
v 6.206063 -0.07765996 -13.47415
v -6.206069 -0.07765996 -13.47415
v 11.46732 -0.07765996 -9.958697
v -11.46732 -0.07765996 -9.958694
v 14.98278 -0.07765996 -4.697445
v -14.98278 -0.07765996 -4.697443
v 16.21724 -0.07765996 1.508627
v -16.21724 -0.07765996 1.508628
v 14.98278 -0.07765996 7.714698
v -14.98278 -0.07765996 7.714698
v -11.46732 -0.07765996 12.97595
v 11.46732 -0.07765996 12.97595
v -6.206069 -0.07765996 16.49141
v 6.206067 -0.07765996 16.49141
v -1.648534E-06 -0.07765996 17.72587
vt 0 0
vt 0 0
vt 0 0
vt 0 0
vt 0 0
vt 0 0
vt 0 0
vt 0 0
vt 0 0
vt 0 0
vt 0 0
vt 0 0
vt 0 0
vt 0 0
vt 0 0
vt 0 0
vt 0 0
vt 0 0
vt 0 0
vt 0 0
vt 0 0
vt 0 0
vn 0 1 0
vn 0 1 0
vn 0 1 0
vn 0 1 0
vn 0 1 0
vn 0 1 0
vn 0 1 0
vn 0 1 0
vn 0 1 0
vn 0 1 0
vn 0 1 0
vn 0 1 0
vn 0 1 0
vn 0 1 0
vn 0 1 0
vn 0 1 0
vn 0 1 0
vn 0 1 0
vn 0 1 0
vn 0 1 0
vn 0 1 0
vn 0 1 0
g Water.001_0
f 3/3/3 2/2/2 1/1/1
f 1/1/1 4/4/4 3/3/3
f 1/1/1 5/5/5 4/4/4
f 1/1/1 6/6/6 5/5/5
f 6/6/6 7/7/7 5/5/5
f 6/6/6 8/8/8 7/7/7
f 6/6/6 9/9/9 8/8/8
f 9/9/9 10/10/10 8/8/8
f 9/9/9 11/11/11 10/10/10
f 11/11/11 12/12/12 10/10/10
f 11/11/11 13/13/13 12/12/12
f 13/13/13 14/14/14 12/12/12
f 13/13/13 15/15/15 14/14/14
f 15/15/15 16/16/16 14/14/14
f 15/15/15 17/17/17 16/16/16
f 17/17/17 18/18/18 16/16/16
f 18/18/18 19/19/19 16/16/16
f 18/18/18 20/20/20 19/19/19
f 20/20/20 21/21/21 19/19/19
f 20/20/20 22/22/22 21/21/21
