g Water_collider.001
v 14.9793 -1.79322 -7.92123
v 14.9793 3.961128 -7.92123
v 11.46384 3.961128 -13.18248
v 11.46384 -1.79322 -13.18248
v 11.46384 -1.79322 -13.18248
v 11.46384 3.961128 -13.18248
v 6.202584 3.961128 -16.69794
v 6.202584 -1.79322 -16.69794
v 6.202584 -1.79322 -16.69794
v 6.202584 3.961128 -16.69794
v 3.809048 3.922243 -17.31517
v 3.809048 -1.832105 -17.31517
v 3.868738 3.961127 4.490913
v 3.809048 3.922243 -17.31517
v 6.202584 3.961128 -16.69794
v 11.46384 3.961128 -13.18248
v 14.9793 3.961128 -7.92123
v 16.21376 3.961128 -1.715158
v 14.9793 3.961128 4.490913
v 14.9793 -1.79322 4.490913
v 14.9793 3.961128 4.490913
v 16.21376 3.961128 -1.715158
v 16.21376 -1.79322 -1.715158
v 16.21376 -1.79322 -1.715158
v 16.21376 3.961128 -1.715158
v 14.9793 3.961128 -7.92123
v 14.9793 -1.79322 -7.92123
v 6.202584 -1.79322 -16.69794
v 3.809048 -1.832105 -17.31517
v 3.868738 -1.79322 4.490913
v 11.46384 -1.79322 -13.18248
v 14.9793 -1.79322 -7.92123
v 16.21376 -1.79322 -1.715158
v 14.9793 -1.79322 4.490913
v 3.868738 3.961127 4.490913
v 3.868738 -1.79322 4.490913
v 3.809048 -1.832105 -17.31517
v 3.809048 3.922243 -17.31517
vt 0 0
vt 0 0
vt 0 0
vt 0 0
vt 0 0
vt 0 0
vt 0 0
vt 0 0
vt 0 0
vt 0 0
vt 0 0
vt 0 0
vt 0 0
vt 0 0
vt 0 0
vt 0 0
vt 0 0
vt 0 0
vt 0 0
vt 0 0
vt 0 0
vt 0 0
vt 0 0
vt 0 0
vt 0 0
vt 0 0
vt 0 0
vt 0 0
vt 0 0
vt 0 0
vt 0 0
vt 0 0
vt 0 0
vt 0 0
vt 0 0
vt 0 0
vt 0 0
vt 0 0
vn 0.831543 0 -0.5556641
vn 0.831543 0 -0.5556641
vn 0.831543 0 -0.5556641
vn 0.831543 0 -0.5556641
vn 0.5556641 0 -0.831543
vn 0.5556641 0 -0.831543
vn 0.5556641 0 -0.831543
vn 0.5556641 0 -0.831543
vn 0.2497559 0 -0.9682617
vn 0.2497559 0 -0.9682617
vn 0.2497559 0 -0.9682617
vn 0.2497559 0 -0.9682617
vn -0.001929283 1 -0.000212431
vn -0.001929283 1 -0.000212431
vn -0.001929283 1 -0.000212431
vn -0.001929283 1 -0.000212431
vn -0.001929283 1 -0.000212431
vn -0.001929283 1 -0.000212431
vn -0.001929283 1 -0.000212431
vn 0.980957 0 0.1950684
vn 0.980957 0 0.1950684
vn 0.980957 0 0.1950684
vn 0.980957 0 0.1950684
vn 0.980957 0 -0.1950684
vn 0.980957 0 -0.1950684
vn 0.980957 0 -0.1950684
vn 0.980957 0 -0.1950684
vn 0.001929283 -1 0.000212431
vn 0.001929283 -1 0.000212431
vn 0.001929283 -1 0.000212431
vn 0.001929283 -1 0.000212431
vn 0.001929283 -1 0.000212431
vn 0.001929283 -1 0.000212431
vn 0.001929283 -1 0.000212431
vn -1 0 0.002737045
vn -1 0 0.002737045
vn -1 0 0.002737045
vn -1 0 0.002737045
g Water_collider.001_0
f 3/3/3 2/2/2 1/1/1
f 4/4/4 3/3/3 1/1/1
f 7/7/7 6/6/6 5/5/5
f 8/8/8 7/7/7 5/5/5
f 11/11/11 10/10/10 9/9/9
f 12/12/12 11/11/11 9/9/9
f 15/15/15 14/14/14 13/13/13
f 13/13/13 16/16/16 15/15/15
f 13/13/13 17/17/17 16/16/16
f 13/13/13 18/18/18 17/17/17
f 13/13/13 19/19/19 18/18/18
f 22/22/22 21/21/21 20/20/20
f 23/23/23 22/22/22 20/20/20
f 26/26/26 25/25/25 24/24/24
f 27/27/27 26/26/26 24/24/24
f 30/30/30 29/29/29 28/28/28
f 28/28/28 31/31/31 30/30/30
f 31/31/31 32/32/32 30/30/30
f 32/32/32 33/33/33 30/30/30
f 33/33/33 34/34/34 30/30/30
f 37/37/37 36/36/36 35/35/35
f 38/38/38 37/37/37 35/35/35
