g Water_collider.002
v -6.209548 -1.79322 -16.69794
v -6.209548 3.961128 -16.69794
v -11.4708 3.961128 -13.18248
v -11.4708 -1.79322 -13.18248
v -3.816009 -1.832105 -17.31517
v -3.816009 3.922243 -17.31517
v -6.209548 3.961128 -16.69794
v -6.209548 -1.79322 -16.69794
v -11.4708 -1.79322 -13.18248
v -11.4708 3.961128 -13.18248
v -14.98626 3.961128 -7.921228
v -14.98626 -1.79322 -7.921228
v -14.98626 -1.79322 -7.921228
v -14.98626 3.961128 -7.921228
v -16.22072 3.961128 -1.715158
v -16.22072 -1.79322 -1.715158
v -16.22072 -1.79322 -1.715158
v -16.22072 3.961128 -1.715158
v -14.98626 3.961128 4.490912
v -14.98626 -1.79322 4.490912
v -3.875696 -1.79322 4.490913
v -3.816009 -1.832105 -17.31517
v -6.209548 -1.79322 -16.69794
v -11.4708 -1.79322 -13.18248
v -14.98626 -1.79322 -7.921228
v -16.22072 -1.79322 -1.715158
v -14.98626 -1.79322 4.490912
v -6.209548 3.961128 -16.69794
v -3.816009 3.922243 -17.31517
v -3.875696 3.961127 4.490913
v -11.4708 3.961128 -13.18248
v -14.98626 3.961128 -7.921228
v -16.22072 3.961128 -1.715158
v -14.98626 3.961128 4.490912
v -3.816009 3.922243 -17.31517
v -3.816009 -1.832105 -17.31517
v -3.875696 -1.79322 4.490913
v -3.875696 3.961127 4.490913
vt 0 0
vt 0 0
vt 0 0
vt 0 0
vt 0 0
vt 0 0
vt 0 0
vt 0 0
vt 0 0
vt 0 0
vt 0 0
vt 0 0
vt 0 0
vt 0 0
vt 0 0
vt 0 0
vt 0 0
vt 0 0
vt 0 0
vt 0 0
vt 0 0
vt 0 0
vt 0 0
vt 0 0
vt 0 0
vt 0 0
vt 0 0
vt 0 0
vt 0 0
vt 0 0
vt 0 0
vt 0 0
vt 0 0
vt 0 0
vt 0 0
vt 0 0
vt 0 0
vt 0 0
vn -0.5556641 0 -0.831543
vn -0.5556641 0 -0.831543
vn -0.5556641 0 -0.831543
vn -0.5556641 0 -0.831543
vn -0.2497559 0 -0.9682617
vn -0.2497559 0 -0.9682617
vn -0.2497559 0 -0.9682617
vn -0.2497559 0 -0.9682617
vn -0.831543 0 -0.5556641
vn -0.831543 0 -0.5556641
vn -0.831543 0 -0.5556641
vn -0.831543 0 -0.5556641
vn -0.980957 0 -0.1950684
vn -0.980957 0 -0.1950684
vn -0.980957 0 -0.1950684
vn -0.980957 0 -0.1950684
vn -0.980957 0 0.1950684
vn -0.980957 0 0.1950684
vn -0.980957 0 0.1950684
vn -0.980957 0 0.1950684
vn -0.001929283 -1 0.000212431
vn -0.001929283 -1 0.000212431
vn -0.001929283 -1 0.000212431
vn -0.001929283 -1 0.000212431
vn -0.001929283 -1 0.000212431
vn -0.001929283 -1 0.000212431
vn -0.001929283 -1 0.000212431
vn 0.001929283 1 -0.000212431
vn 0.001929283 1 -0.000212431
vn 0.001929283 1 -0.000212431
vn 0.001929283 1 -0.000212431
vn 0.001929283 1 -0.000212431
vn 0.001929283 1 -0.000212431
vn 0.001929283 1 -0.000212431
vn 1 0 0.002737045
vn 1 0 0.002737045
vn 1 0 0.002737045
vn 1 0 0.002737045
g Water_collider.002_0
f 3/3/3 2/2/2 1/1/1
f 4/4/4 3/3/3 1/1/1
f 7/7/7 6/6/6 5/5/5
f 8/8/8 7/7/7 5/5/5
f 11/11/11 10/10/10 9/9/9
f 12/12/12 11/11/11 9/9/9
f 15/15/15 14/14/14 13/13/13
f 16/16/16 15/15/15 13/13/13
f 19/19/19 18/18/18 17/17/17
f 20/20/20 19/19/19 17/17/17
f 23/23/23 22/22/22 21/21/21
f 21/21/21 24/24/24 23/23/23
f 21/21/21 25/25/25 24/24/24
f 21/21/21 26/26/26 25/25/25
f 21/21/21 27/27/27 26/26/26
f 30/30/30 29/29/29 28/28/28
f 28/28/28 31/31/31 30/30/30
f 31/31/31 32/32/32 30/30/30
f 32/32/32 33/33/33 30/30/30
f 33/33/33 34/34/34 30/30/30
f 37/37/37 36/36/36 35/35/35
f 38/38/38 37/37/37 35/35/35
