g cap005
v 0.3317979 0.192163 0
v 1.327515E-05 0.0002658653 0.1584985
v 0.3831253 0.0006070089 0
v 0.1915692 0.3323917 0
v 1.327515E-05 0.0002658653 0.1584985
v 0.3317979 0.192163 0
v 1.327515E-05 0.383719 0
v 1.327515E-05 0.0002658653 0.1584985
v 0.1915692 0.3323917 0
v -0.1915425 0.3323917 0
v 1.327515E-05 0.0002658653 0.1584985
v 1.327515E-05 0.383719 0
v -0.3317711 0.192163 0
v 1.327515E-05 0.0002658653 0.1584985
v -0.1915425 0.3323917 0
v -0.3830986 0.0006070709 0
v 1.327515E-05 0.0002658653 0.1584985
v -0.3317711 0.192163 0
v -0.1920915 -0.3321276 0
v 1.327515E-05 0.0002658653 0.1584985
v -0.3327214 -0.1914973 0
v 1.312256E-05 -0.3836018 0
v 1.327515E-05 0.0002658653 0.1584985
v -0.1920915 -0.3321276 0
v 0.1921176 -0.3321277 0
v 1.327515E-05 0.0002658653 0.1584985
v 1.312256E-05 -0.3836018 0
v 0.3327476 -0.1914977 0
v 1.327515E-05 0.0002658653 0.1584985
v 0.1921176 -0.3321277 0
v -0.3327214 -0.1914973 0
v 1.327515E-05 0.0002658653 0.1584985
v -0.3830986 0.0006070709 0
v 0.3831253 0.0006070089 0
v 1.327515E-05 0.0002658653 0.1584985
v 0.3327476 -0.1914977 0
v 0.3831253 0.0006070089 0
v 0.4586471 0.0007351255 0.008171692
v 0.3972441 0.2299882 0.008183288
v 0.3317979 0.192163 0
v 0.3317979 0.192163 0
v 0.3972441 0.2299882 0.008183288
v 0.2293547 0.3978778 0.008183307
v 0.1915692 0.3323917 0
v 0.1915692 0.3323917 0
v 0.2293547 0.3978778 0.008183307
v 1.342773E-05 0.4593296 0.008183288
v 1.327515E-05 0.383719 0
v 1.327515E-05 0.383719 0
v 1.342773E-05 0.4593296 0.008183288
v -0.2293278 0.3978778 0.008183288
v -0.1915425 0.3323917 0
v -0.1915425 0.3323917 0
v -0.2293278 0.3978778 0.008183288
v -0.3972171 0.2299882 0.008183288
v -0.3317711 0.192163 0
v -0.3317711 0.192163 0
v -0.3972171 0.2299882 0.008183288
v -0.4586465 0.0007352781 0.008177967
v -0.3830986 0.0006070709 0
v -0.3830986 0.0006070709 0
v -0.4586465 0.0007352781 0.008177967
v -0.3984262 -0.2292898 0.007889881
v -0.3327214 -0.1914973 0
v -0.3327214 -0.1914973 0
v -0.3984262 -0.2292898 0.007889881
v -0.2299753 -0.3977045 0.007878265
v -0.1920915 -0.3321276 0
v -0.1920915 -0.3321276 0
v -0.2299753 -0.3977045 0.007878265
v 1.312256E-05 -0.4593296 0.007878246
v 1.312256E-05 -0.3836018 0
v 1.312256E-05 -0.3836018 0
v 1.312256E-05 -0.4593296 0.007878246
v 0.2300015 -0.3977047 0.007878265
v 0.1921176 -0.3321277 0
v 0.1921176 -0.3321277 0
v 0.2300015 -0.3977047 0.007878265
v 0.3984284 -0.2292762 0.007883415
v 0.3327476 -0.1914977 0
v 0.3327476 -0.1914977 0
v 0.3984284 -0.2292762 0.007883415
v 0.4586471 0.0007351255 0.008171692
v 0.3831253 0.0006070089 0
v 0.3320686 0.1923487 0.1343826
v 0.3684404 0.2133585 0.1425659
v 0.425384 0.0008538389 0.1425535
v 0.3834378 0.0006363296 0.1343826
v 0.3834378 0.0006363296 0.1343826
v 0.425384 0.0008538389 0.1425535
v 0.3706981 -0.2131295 0.1428519
v 0.3340968 -0.1922473 0.1349691
v 0.3340968 -0.1922473 0.1349691
v 0.3706981 -0.2131295 0.1428519
v 0.2139586 -0.3699175 0.1428473
v 0.1928964 -0.3334476 0.1349691
v 0.1928964 -0.3334476 0.1349691
v 0.2139586 -0.3699175 0.1428473
v 1.312256E-05 -0.4272439 0.1428473
v 1.312256E-05 -0.3851303 0.1349691
v 1.312256E-05 -0.3851303 0.1349691
v 1.312256E-05 -0.4272439 0.1428473
v -0.2139323 -0.3699173 0.1428473
v -0.1928703 -0.3334474 0.1349691
v -0.1928703 -0.3334474 0.1349691
v -0.2139323 -0.3699173 0.1428473
v -0.3706715 -0.2131291 0.1428519
v -0.3340704 -0.1922469 0.1349691
v -0.3340704 -0.1922469 0.1349691
v -0.3706715 -0.2131291 0.1428519
v -0.4253573 0.0008539199 0.1425534
v -0.3834113 0.0006363916 0.1343826
v -0.3834113 0.0006363916 0.1343826
v -0.4253573 0.0008539199 0.1425534
v -0.3684135 0.2133585 0.1425659
v -0.3320419 0.1923487 0.1343826
v -0.3320419 0.1923487 0.1343826
v -0.3684135 0.2133585 0.1425659
v -0.2126981 0.3690742 0.1425659
v -0.1916989 0.3326918 0.1343826
v -0.1916989 0.3326918 0.1343826
v -0.2126981 0.3690742 0.1425659
v 1.342773E-05 0.4260701 0.1425659
v 1.342773E-05 0.384061 0.1343826
v 1.342773E-05 0.384061 0.1343826
v 1.342773E-05 0.4260701 0.1425659
v 0.2127248 0.3690742 0.1425659
v 0.1917255 0.3326918 0.1343826
v 0.1917255 0.3326918 0.1343826
v 0.2127248 0.3690742 0.1425659
v 0.3684404 0.2133585 0.1425659
v 0.3320686 0.1923487 0.1343826
v 0.3554407 0.0006363296 0.2497484
v 0.3320686 0.1923487 0.1343826
v 0.3834378 0.0006363296 0.1343826
v 0.3340968 -0.1922473 0.1349691
v 0.3078223 0.17835 0.2497484
v 0.1917255 0.3326918 0.1343826
v 0.3107062 -0.1787426 0.2508383
v 0.1928964 -0.3334476 0.1349691
v 0.1777269 0.3084455 0.2497484
v 1.342773E-05 0.384061 0.1343826
v 0.1793918 -0.3100569 0.2508383
v 1.312256E-05 -0.3851303 0.1349691
v 1.342773E-05 0.3560638 0.2497484
v -0.1916989 0.3326918 0.1343826
v 1.312256E-05 -0.3581211 0.2508383
v -0.1928703 -0.3334474 0.1349691
v -0.1777003 0.3084455 0.2497484
v -0.3320419 0.1923487 0.1343826
v -0.1793657 -0.3100567 0.2508383
v -0.3340704 -0.1922469 0.1349691
v -0.3077957 0.17835 0.2497484
v -0.3834113 0.0006363916 0.1343826
v -0.3106799 -0.1787423 0.2508383
v -0.3554141 0.0006363869 0.2497484
v 0.1429155 0.2481506 0.3663994
v 1.342773E-05 0.2864412 0.3663994
v -0.1428891 0.2481506 0.3663994
v -0.2475009 0.1435388 0.3663994
v -0.2857916 0.0006363773 0.3663994
v -0.2482222 -0.1426823 0.3666719
v 0.2475273 0.1435387 0.3663994
v -0.1433057 -0.2475989 0.3666719
v 0.285818 0.0006363296 0.3663994
v 1.312256E-05 -0.286001 0.3666719
v 0.2482483 -0.1426826 0.3666719
v 0.1433318 -0.247599 0.3666719
v -0.1665024 0.0006363582 0.431398
v -0.1441937 -0.08262147 0.431398
v -0.08324463 -0.1435704 0.431398
v 1.312256E-05 -0.1658792 0.431398
v 1.327515E-05 0.0006363296 0.4766568
v -0.1441934 0.08389411 0.431398
v 0.08327103 -0.1435704 0.431398
v 0.1442198 -0.08262155 0.431398
v -0.08324447 0.1448431 0.431398
v 0.1665288 0.0006363296 0.431398
v 1.342773E-05 0.1671519 0.431398
v 0.1442198 0.08389408 0.431398
v 0.08327087 0.144843 0.431398
v 0.425384 0.0008538389 0.1425535
v 0.4586471 0.0007351255 0.008171692
v 0.3984284 -0.2292762 0.007883415
v 0.3706981 -0.2131295 0.1428519
v 0.3684404 0.2133585 0.1425659
v 0.2300015 -0.3977047 0.007878265
v 0.3972441 0.2299882 0.008183288
v 0.2139586 -0.3699175 0.1428473
v 0.2127248 0.3690742 0.1425659
v 1.312256E-05 -0.4593296 0.007878246
v 0.2293547 0.3978778 0.008183307
v 1.312256E-05 -0.4272439 0.1428473
v 1.342773E-05 0.4260701 0.1425659
v -0.2299753 -0.3977045 0.007878265
v 1.342773E-05 0.4593296 0.008183288
v -0.2139323 -0.3699173 0.1428473
v -0.2126981 0.3690742 0.1425659
v -0.3984262 -0.2292898 0.007889881
v -0.2293278 0.3978778 0.008183288
v -0.3706715 -0.2131291 0.1428519
v -0.3684135 0.2133585 0.1425659
v -0.4586465 0.0007352781 0.008177967
v -0.3972171 0.2299882 0.008183288
v -0.4253573 0.0008539199 0.1425534
vt 0.373291 0.1280518
vt 0.373291 0.1280518
vt 0.373291 0.1280518
vt 0.373291 0.1280518
vt 0.373291 0.1280518
vt 0.373291 0.1280518
vt 0.373291 0.1280518
vt 0.373291 0.1280518
vt 0.373291 0.1280518
vt 0.373291 0.1280518
vt 0.373291 0.1280518
vt 0.373291 0.1280518
vt 0.373291 0.1280518
vt 0.373291 0.1280518
vt 0.373291 0.1280518
vt 0.373291 0.1280518
vt 0.373291 0.1280518
vt 0.373291 0.1280518
vt 0.373291 0.1280518
vt 0.373291 0.1280518
vt 0.373291 0.1280518
vt 0.373291 0.1280518
vt 0.373291 0.1280518
vt 0.373291 0.1280518
vt 0.373291 0.1280518
vt 0.373291 0.1280518
vt 0.373291 0.1280518
vt 0.373291 0.1280518
vt 0.373291 0.1280518
vt 0.373291 0.1280518
vt 0.373291 0.1280518
vt 0.373291 0.1280518
vt 0.373291 0.1280518
vt 0.373291 0.1280518
vt 0.373291 0.1280518
vt 0.373291 0.1280518
vt 0.373291 0.1280518
vt 0.373291 0.1280518
vt 0.373291 0.1280518
vt 0.373291 0.1280518
vt 0.373291 0.1280518
vt 0.373291 0.1280518
vt 0.373291 0.1280518
vt 0.373291 0.1280518
vt 0.373291 0.1280518
vt 0.373291 0.1280518
vt 0.373291 0.1280518
vt 0.373291 0.1280518
vt 0.373291 0.1280518
vt 0.373291 0.1280518
vt 0.373291 0.1280518
vt 0.373291 0.1280518
vt 0.373291 0.1280518
vt 0.373291 0.1280518
vt 0.373291 0.1280518
vt 0.373291 0.1280518
vt 0.373291 0.1280518
vt 0.373291 0.1280518
vt 0.373291 0.1280518
vt 0.373291 0.1280518
vt 0.373291 0.1280518
vt 0.373291 0.1280518
vt 0.373291 0.1280518
vt 0.373291 0.1280518
vt 0.373291 0.1280518
vt 0.373291 0.1280518
vt 0.373291 0.1280518
vt 0.373291 0.1280518
vt 0.373291 0.1280518
vt 0.373291 0.1280518
vt 0.373291 0.1280518
vt 0.373291 0.1280518
vt 0.373291 0.1280518
vt 0.373291 0.1280518
vt 0.373291 0.1280518
vt 0.373291 0.1280518
vt 0.373291 0.1280518
vt 0.373291 0.1280518
vt 0.373291 0.1280518
vt 0.373291 0.1280518
vt 0.373291 0.1280518
vt 0.373291 0.1280518
vt 0.373291 0.1280518
vt 0.373291 0.1280518
vt 0.373291 0.1280518
vt 0.373291 0.1280518
vt 0.373291 0.1280518
vt 0.373291 0.1280518
vt 0.373291 0.1280518
vt 0.373291 0.1280518
vt 0.373291 0.1280518
vt 0.373291 0.1280518
vt 0.373291 0.1280518
vt 0.373291 0.1280518
vt 0.373291 0.1280518
vt 0.373291 0.1280518
vt 0.373291 0.1280518
vt 0.373291 0.1280518
vt 0.373291 0.1280518
vt 0.373291 0.1280518
vt 0.373291 0.1280518
vt 0.373291 0.1280518
vt 0.373291 0.1280518
vt 0.373291 0.1280518
vt 0.373291 0.1280518
vt 0.373291 0.1280518
vt 0.373291 0.1280518
vt 0.373291 0.1280518
vt 0.373291 0.1280518
vt 0.373291 0.1280518
vt 0.373291 0.1280518
vt 0.373291 0.1280518
vt 0.373291 0.1280518
vt 0.373291 0.1280518
vt 0.373291 0.1280518
vt 0.373291 0.1280518
vt 0.373291 0.1280518
vt 0.373291 0.1280518
vt 0.373291 0.1280518
vt 0.373291 0.1280518
vt 0.373291 0.1280518
vt 0.373291 0.1280518
vt 0.373291 0.1280518
vt 0.373291 0.1280518
vt 0.373291 0.1280518
vt 0.373291 0.1280518
vt 0.373291 0.1280518
vt 0.373291 0.1280518
vt 0.373291 0.1280518
vt 0.373291 0.1280518
vt 0.373291 0.1280518
vt 0.373291 0.1280518
vt 0.373291 0.1280518
vt 0.373291 0.1280518
vt 0.373291 0.1280518
vt 0.373291 0.1280518
vt 0.373291 0.1280518
vt 0.373291 0.1280518
vt 0.373291 0.1280518
vt 0.373291 0.1280518
vt 0.373291 0.1280518
vt 0.373291 0.1280518
vt 0.373291 0.1280518
vt 0.373291 0.1280518
vt 0.373291 0.1280518
vt 0.373291 0.1280518
vt 0.373291 0.1280518
vt 0.373291 0.1280518
vt 0.373291 0.1280518
vt 0.373291 0.1280518
vt 0.373291 0.1280518
vt 0.373291 0.1280518
vt 0.373291 0.1280518
vt 0.373291 0.1280518
vt 0.373291 0.1280518
vt 0.373291 0.1280518
vt 0.373291 0.1280518
vt 0.373291 0.1280518
vt 0.373291 0.1280518
vt 0.373291 0.1280518
vt 0.373291 0.1280518
vt 0.373291 0.1280518
vt 0.373291 0.1280518
vt 0.373291 0.1280518
vt 0.373291 0.1280518
vt 0.373291 0.1280518
vt 0.373291 0.1280518
vt 0.373291 0.1280518
vt 0.373291 0.1280518
vt 0.373291 0.1280518
vt 0.373291 0.1280518
vt 0.373291 0.1280518
vt 0.373291 0.1280518
vt 0.373291 0.1280518
vt 0.373291 0.1280518
vt 0.373291 0.1280518
vt 0.373291 0.1280518
vt 0.373291 0.1280518
vt 0.373291 0.1280518
vt 0.373291 0.1280518
vt 0.373291 0.1280518
vt 0.373291 0.1280518
vt 0.373291 0.1280518
vt 0.373291 0.1280518
vt 0.373291 0.1280518
vt 0.373291 0.1280518
vt 0.373291 0.1280518
vt 0.373291 0.1280518
vt 0.373291 0.1280518
vt 0.373291 0.1280518
vt 0.373291 0.1280518
vt 0.373291 0.1280518
vt 0.373291 0.1280518
vt 0.373291 0.1280518
vt 0.373291 0.1280518
vt 0.373291 0.1280518
vt 0.373291 0.1280518
vt 0.373291 0.1280518
vt 0.373291 0.1280518
vt 0.373291 0.1280518
vt 0.373291 0.1280518
vt 0.373291 0.1280518
vt 0.373291 0.1280518
vt 0.373291 0.1280518
vt 0.373291 0.1280518
vn -0.380127 -0.1018677 -0.9194336
vn -0.380127 -0.1018677 -0.9194336
vn -0.380127 -0.1018677 -0.9194336
vn -0.2783203 -0.2783203 -0.9194336
vn -0.2783203 -0.2783203 -0.9194336
vn -0.2783203 -0.2783203 -0.9194336
vn -0.1018066 -0.380127 -0.9194336
vn -0.1018066 -0.380127 -0.9194336
vn -0.1018066 -0.380127 -0.9194336
vn 0.1018066 -0.380127 -0.9194336
vn 0.1018066 -0.380127 -0.9194336
vn 0.1018066 -0.380127 -0.9194336
vn 0.2783203 -0.2783203 -0.9194336
vn 0.2783203 -0.2783203 -0.9194336
vn 0.2783203 -0.2783203 -0.9194336
vn 0.380127 -0.1018677 -0.9194336
vn 0.380127 -0.1018677 -0.9194336
vn 0.380127 -0.1018677 -0.9194336
vn 0.277832 0.277832 -0.9194336
vn 0.277832 0.277832 -0.9194336
vn 0.277832 0.277832 -0.9194336
vn 0.1017456 0.3796387 -0.9194336
vn 0.1017456 0.3796387 -0.9194336
vn 0.1017456 0.3796387 -0.9194336
vn -0.1017456 0.3796387 -0.9194336
vn -0.1017456 0.3796387 -0.9194336
vn -0.1017456 0.3796387 -0.9194336
vn -0.277832 0.277832 -0.9194336
vn -0.277832 0.277832 -0.9194336
vn -0.277832 0.277832 -0.9194336
vn 0.3803711 0.09979248 -0.9194336
vn 0.3803711 0.09979248 -0.9194336
vn 0.3803711 0.09979248 -0.9194336
vn -0.3803711 0.09979248 -0.9194336
vn -0.3803711 0.09979248 -0.9194336
vn -0.3803711 0.09979248 -0.9194336
vn 0.1075439 0.02883911 -0.9936523
vn 0.1075439 0.02883911 -0.9936523
vn 0.1075439 0.02883911 -0.9936523
vn 0.1075439 0.02883911 -0.9936523
vn 0.07873535 0.07873535 -0.9936523
vn 0.07873535 0.07873535 -0.9936523
vn 0.07873535 0.07873535 -0.9936523
vn 0.07873535 0.07873535 -0.9936523
vn 0.02882385 0.1075439 -0.9936523
vn 0.02882385 0.1075439 -0.9936523
vn 0.02882385 0.1075439 -0.9936523
vn 0.02882385 0.1075439 -0.9936523
vn -0.02882385 0.1075439 -0.9936523
vn -0.02882385 0.1075439 -0.9936523
vn -0.02882385 0.1075439 -0.9936523
vn -0.02882385 0.1075439 -0.9936523
vn -0.07873535 0.07873535 -0.9936523
vn -0.07873535 0.07873535 -0.9936523
vn -0.07873535 0.07873535 -0.9936523
vn -0.07873535 0.07873535 -0.9936523
vn -0.1075439 0.02883911 -0.9936523
vn -0.1075439 0.02883911 -0.9936523
vn -0.1075439 0.02883911 -0.9936523
vn -0.1075439 0.02883911 -0.9936523
vn -0.105835 -0.02705383 -0.9941406
vn -0.105835 -0.02705383 -0.9941406
vn -0.105835 -0.02705383 -0.9941406
vn -0.105835 -0.02705383 -0.9941406
vn -0.07574463 -0.07574463 -0.9941406
vn -0.07574463 -0.07574463 -0.9941406
vn -0.07574463 -0.07574463 -0.9941406
vn -0.07574463 -0.07574463 -0.9941406
vn -0.02770996 -0.1034546 -0.9941406
vn -0.02770996 -0.1034546 -0.9941406
vn -0.02770996 -0.1034546 -0.9941406
vn -0.02770996 -0.1034546 -0.9941406
vn 0.02770996 -0.1034546 -0.9941406
vn 0.02770996 -0.1034546 -0.9941406
vn 0.02770996 -0.1034546 -0.9941406
vn 0.02770996 -0.1034546 -0.9941406
vn 0.07574463 -0.07574463 -0.9941406
vn 0.07574463 -0.07574463 -0.9941406
vn 0.07574463 -0.07574463 -0.9941406
vn 0.07574463 -0.07574463 -0.9941406
vn 0.105835 -0.02703857 -0.9941406
vn 0.105835 -0.02703857 -0.9941406
vn 0.105835 -0.02703857 -0.9941406
vn 0.105835 -0.02703857 -0.9941406
vn -0.1907959 -0.05117798 0.9804688
vn -0.1907959 -0.05117798 0.9804688
vn -0.1907959 -0.05117798 0.9804688
vn -0.1907959 -0.05117798 0.9804688
vn -0.1873779 0.05001831 0.980957
vn -0.1873779 0.05001831 0.980957
vn -0.1873779 0.05001831 0.980957
vn -0.1873779 0.05001831 0.980957
vn -0.1345215 0.1345215 0.9819336
vn -0.1345215 0.1345215 0.9819336
vn -0.1345215 0.1345215 0.9819336
vn -0.1345215 0.1345215 0.9819336
vn -0.04922485 0.1837158 0.9819336
vn -0.04922485 0.1837158 0.9819336
vn -0.04922485 0.1837158 0.9819336
vn -0.04922485 0.1837158 0.9819336
vn 0.04922485 0.1837158 0.9819336
vn 0.04922485 0.1837158 0.9819336
vn 0.04922485 0.1837158 0.9819336
vn 0.04922485 0.1837158 0.9819336
vn 0.1345215 0.1345215 0.9819336
vn 0.1345215 0.1345215 0.9819336
vn 0.1345215 0.1345215 0.9819336
vn 0.1345215 0.1345215 0.9819336
vn 0.1873779 0.05001831 0.980957
vn 0.1873779 0.05001831 0.980957
vn 0.1873779 0.05001831 0.980957
vn 0.1873779 0.05001831 0.980957
vn 0.1907959 -0.05117798 0.9804688
vn 0.1907959 -0.05117798 0.9804688
vn 0.1907959 -0.05117798 0.9804688
vn 0.1907959 -0.05117798 0.9804688
vn 0.1397705 -0.1397705 0.9804688
vn 0.1397705 -0.1397705 0.9804688
vn 0.1397705 -0.1397705 0.9804688
vn 0.1397705 -0.1397705 0.9804688
vn 0.05117798 -0.190918 0.9804688
vn 0.05117798 -0.190918 0.9804688
vn 0.05117798 -0.190918 0.9804688
vn 0.05117798 -0.190918 0.9804688
vn -0.05117798 -0.190918 0.9804688
vn -0.05117798 -0.190918 0.9804688
vn -0.05117798 -0.190918 0.9804688
vn -0.05117798 -0.190918 0.9804688
vn -0.1397705 -0.1397705 0.9804688
vn -0.1397705 -0.1397705 0.9804688
vn -0.1397705 -0.1397705 0.9804688
vn -0.1397705 -0.1397705 0.9804688
vn 0.9287109 0.006942749 0.3703613
vn 0.8417969 0.4858398 0.2358398
vn 0.972168 0.007320404 0.2331543
vn 0.8466797 -0.4802246 0.2296143
vn 0.8046875 0.4645996 0.3701172
vn 0.4858398 0.8417969 0.2358398
vn 0.8066406 -0.4577637 0.373291
vn 0.4870605 -0.8432617 0.2270508
vn 0.4645996 0.8046875 0.3701172
vn 1.788139E-07 0.9716797 0.2358398
vn 0.4638672 -0.8032227 0.3737793
vn -3.576279E-07 -0.9741211 0.2270508
vn 2.384186E-07 0.9291992 0.3701172
vn -0.4858398 0.8417969 0.2358398
vn -2.980232E-07 -0.9277344 0.3737793
vn -0.4870605 -0.8432617 0.2270508
vn -0.4645996 0.8046875 0.3701172
vn -0.8417969 0.4858398 0.2358398
vn -0.4638672 -0.8032227 0.3737793
vn -0.8466797 -0.4802246 0.2296143
vn -0.8046875 0.4645996 0.3701172
vn -0.972168 0.007320404 0.2331543
vn -0.8066406 -0.4577637 0.373291
vn -0.9287109 0.006942749 0.3703613
vn 0.3571777 0.6186523 0.699707
vn 2.980232E-07 0.7143555 0.699707
vn -0.3571777 0.6186523 0.699707
vn -0.6186523 0.3571777 0.699707
vn -0.7128906 0.00459671 0.7016602
vn -0.6152344 -0.3498535 0.706543
vn 0.6186523 0.3571777 0.699707
vn -0.3530273 -0.6113281 0.7080078
vn 0.7128906 0.00459671 0.7016602
vn -2.384186E-07 -0.7060547 0.7080078
vn 0.6152344 -0.3498535 0.706543
vn 0.3530273 -0.6113281 0.7080078
vn -0.388916 0.0009174347 0.9213867
vn -0.3359375 -0.1928711 0.921875
vn -0.1934814 -0.3349609 0.9223633
vn -1.788139E-07 -0.3869629 0.9223633
vn 1.192093E-07 0 1
vn -0.3371582 0.1947021 0.9208984
vn 0.1934814 -0.3349609 0.9223633
vn 0.3359375 -0.1928711 0.921875
vn -0.1947021 0.3371582 0.9208984
vn 0.388916 0.0009169579 0.9213867
vn 2.980232E-07 0.3894043 0.9208984
vn 0.3371582 0.1947021 0.9208984
vn 0.1947021 0.3371582 0.9208984
vn 0.9711914 0.004241943 0.2376709
vn 0.9711914 0.003643036 0.2376709
vn 0.84375 -0.4829102 0.2338867
vn 0.8442383 -0.4824219 0.2338867
vn 0.8408203 0.4853516 0.2402344
vn 0.4865723 -0.8422852 0.2313232
vn 0.8408203 0.4853516 0.2402344
vn 0.4865723 -0.8422852 0.2313232
vn 0.4853516 0.8408203 0.2402344
vn -4.172325E-07 -0.9726563 0.2313232
vn 0.4853516 0.8408203 0.2402344
vn -4.768372E-07 -0.9726563 0.2313232
vn 0 0.9707031 0.2402344
vn -0.4863281 -0.8422852 0.2314453
vn 0 0.9707031 0.2402344
vn -0.4863281 -0.8422852 0.2314453
vn -0.4853516 0.8408203 0.2402344
vn -0.84375 -0.4829102 0.2340088
vn -0.4853516 0.8408203 0.2402344
vn -0.8442383 -0.4824219 0.2340088
vn -0.8408203 0.4853516 0.2402344
vn -0.9711914 0.003675461 0.237915
vn -0.8408203 0.4853516 0.2402344
vn -0.9711914 0.004276276 0.237915
g cap005_0
f 3/3/3 2/2/2 1/1/1
f 6/6/6 5/5/5 4/4/4
f 9/9/9 8/8/8 7/7/7
f 12/12/12 11/11/11 10/10/10
f 15/15/15 14/14/14 13/13/13
f 18/18/18 17/17/17 16/16/16
f 21/21/21 20/20/20 19/19/19
f 24/24/24 23/23/23 22/22/22
f 27/27/27 26/26/26 25/25/25
f 30/30/30 29/29/29 28/28/28
f 33/33/33 32/32/32 31/31/31
f 36/36/36 35/35/35 34/34/34
f 39/39/39 38/38/38 37/37/37
f 40/40/40 39/39/39 37/37/37
f 43/43/43 42/42/42 41/41/41
f 44/44/44 43/43/43 41/41/41
f 47/47/47 46/46/46 45/45/45
f 48/48/48 47/47/47 45/45/45
f 51/51/51 50/50/50 49/49/49
f 52/52/52 51/51/51 49/49/49
f 55/55/55 54/54/54 53/53/53
f 56/56/56 55/55/55 53/53/53
f 59/59/59 58/58/58 57/57/57
f 60/60/60 59/59/59 57/57/57
f 63/63/63 62/62/62 61/61/61
f 64/64/64 63/63/63 61/61/61
f 67/67/67 66/66/66 65/65/65
f 68/68/68 67/67/67 65/65/65
f 71/71/71 70/70/70 69/69/69
f 72/72/72 71/71/71 69/69/69
f 75/75/75 74/74/74 73/73/73
f 76/76/76 75/75/75 73/73/73
f 79/79/79 78/78/78 77/77/77
f 80/80/80 79/79/79 77/77/77
f 83/83/83 82/82/82 81/81/81
f 84/84/84 83/83/83 81/81/81
f 87/87/87 86/86/86 85/85/85
f 88/88/88 87/87/87 85/85/85
f 91/91/91 90/90/90 89/89/89
f 92/92/92 91/91/91 89/89/89
f 95/95/95 94/94/94 93/93/93
f 96/96/96 95/95/95 93/93/93
f 99/99/99 98/98/98 97/97/97
f 100/100/100 99/99/99 97/97/97
f 103/103/103 102/102/102 101/101/101
f 104/104/104 103/103/103 101/101/101
f 107/107/107 106/106/106 105/105/105
f 108/108/108 107/107/107 105/105/105
f 111/111/111 110/110/110 109/109/109
f 112/112/112 111/111/111 109/109/109
f 115/115/115 114/114/114 113/113/113
f 116/116/116 115/115/115 113/113/113
f 119/119/119 118/118/118 117/117/117
f 120/120/120 119/119/119 117/117/117
f 123/123/123 122/122/122 121/121/121
f 124/124/124 123/123/123 121/121/121
f 127/127/127 126/126/126 125/125/125
f 128/128/128 127/127/127 125/125/125
f 131/131/131 130/130/130 129/129/129
f 132/132/132 131/131/131 129/129/129
f 135/135/135 134/134/134 133/133/133
f 136/136/136 135/135/135 133/133/133
f 134/134/134 137/137/137 133/133/133
f 134/134/134 138/138/138 137/137/137
f 139/139/139 136/136/136 133/133/133
f 140/140/140 136/136/136 139/139/139
f 138/138/138 141/141/141 137/137/137
f 138/138/138 142/142/142 141/141/141
f 143/143/143 140/140/140 139/139/139
f 144/144/144 140/140/140 143/143/143
f 142/142/142 145/145/145 141/141/141
f 142/142/142 146/146/146 145/145/145
f 147/147/147 144/144/144 143/143/143
f 148/148/148 144/144/144 147/147/147
f 146/146/146 149/149/149 145/145/145
f 146/146/146 150/150/150 149/149/149
f 151/151/151 148/148/148 147/147/147
f 152/152/152 148/148/148 151/151/151
f 150/150/150 153/153/153 149/149/149
f 150/150/150 154/154/154 153/153/153
f 154/154/154 152/152/152 155/155/155
f 155/155/155 152/152/152 151/151/151
f 154/154/154 156/156/156 153/153/153
f 156/156/156 154/154/154 155/155/155
f 157/157/157 141/141/141 145/145/145
f 158/158/158 145/145/145 149/149/149
f 158/158/158 157/157/157 145/145/145
f 159/159/159 149/149/149 153/153/153
f 159/159/159 158/158/158 149/149/149
f 160/160/160 153/153/153 156/156/156
f 160/160/160 159/159/159 153/153/153
f 161/161/161 156/156/156 155/155/155
f 161/161/161 160/160/160 156/156/156
f 162/162/162 155/155/155 151/151/151
f 162/162/162 161/161/161 155/155/155
f 157/157/157 163/163/163 141/141/141
f 163/163/163 137/137/137 141/141/141
f 164/164/164 162/162/162 151/151/151
f 164/164/164 151/151/151 147/147/147
f 163/163/163 165/165/165 137/137/137
f 165/165/165 133/133/133 137/137/137
f 166/166/166 164/164/164 147/147/147
f 166/166/166 147/147/147 143/143/143
f 165/165/165 167/167/167 133/133/133
f 167/167/167 139/139/139 133/133/133
f 168/168/168 143/143/143 139/139/139
f 168/168/168 166/166/166 143/143/143
f 167/167/167 168/168/168 139/139/139
f 169/169/169 161/161/161 162/162/162
f 170/170/170 162/162/162 164/164/164
f 170/170/170 169/169/169 162/162/162
f 171/171/171 164/164/164 166/166/166
f 171/171/171 170/170/170 164/164/164
f 172/172/172 166/166/166 168/168/168
f 172/172/172 171/171/171 166/166/166
f 171/171/171 173/173/173 170/170/170
f 170/170/170 173/173/173 169/169/169
f 172/172/172 173/173/173 171/171/171
f 169/169/169 173/173/173 174/174/174
f 169/169/169 174/174/174 161/161/161
f 175/175/175 173/173/173 172/172/172
f 175/175/175 172/172/172 168/168/168
f 175/175/175 168/168/168 167/167/167
f 174/174/174 160/160/160 161/161/161
f 176/176/176 175/175/175 167/167/167
f 176/176/176 173/173/173 175/175/175
f 176/176/176 167/167/167 165/165/165
f 174/174/174 177/177/177 160/160/160
f 174/174/174 173/173/173 177/177/177
f 177/177/177 159/159/159 160/160/160
f 178/178/178 176/176/176 165/165/165
f 178/178/178 173/173/173 176/176/176
f 178/178/178 165/165/165 163/163/163
f 177/177/177 179/179/179 159/159/159
f 177/177/177 173/173/173 179/179/179
f 179/179/179 158/158/158 159/159/159
f 180/180/180 178/178/178 163/163/163
f 180/180/180 173/173/173 178/178/178
f 180/180/180 163/163/163 157/157/157
f 181/181/181 157/157/157 158/158/158
f 179/179/179 181/181/181 158/158/158
f 179/179/179 173/173/173 181/181/181
f 181/181/181 173/173/173 180/180/180
f 181/181/181 180/180/180 157/157/157
f 184/184/184 183/183/183 182/182/182
f 185/185/185 184/184/184 182/182/182
f 186/186/186 182/182/182 183/183/183
f 187/187/187 184/184/184 185/185/185
f 188/188/188 186/186/186 183/183/183
f 189/189/189 187/187/187 185/185/185
f 190/190/190 186/186/186 188/188/188
f 191/191/191 187/187/187 189/189/189
f 192/192/192 190/190/190 188/188/188
f 193/193/193 191/191/191 189/189/189
f 194/194/194 190/190/190 192/192/192
f 195/195/195 191/191/191 193/193/193
f 196/196/196 194/194/194 192/192/192
f 197/197/197 195/195/195 193/193/193
f 198/198/198 194/194/194 196/196/196
f 199/199/199 195/195/195 197/197/197
f 200/200/200 198/198/198 196/196/196
f 201/201/201 199/199/199 197/197/197
f 202/202/202 198/198/198 200/200/200
f 203/203/203 199/199/199 201/201/201
f 204/204/204 202/202/202 200/200/200
f 205/205/205 203/203/203 201/201/201
f 205/205/205 202/202/202 204/204/204
f 203/203/203 205/205/205 204/204/204
