g cfxr puddle mesh
v -0.4765625 -0.2480469 0
v -0.4765625 -0.08398438 0
v -0.4648438 -0.02929688 0
v -0.4296875 0.03515625 0
v -0.3691406 0.08984375 0
v -0.2382813 0.2011719 0
v -0.1484375 0.3261719 0
v -0.1015625 0.390625 0
v -0.04492188 0.4433594 0
v -0.01367188 0.46875 0
v 0.0859375 0.46875 0
v 0.1054688 0.4511719 0
v 0.140625 0.4140625 0
v 0.1660156 0.3652344 0
v 0.234375 0.1894531 0
v 0.28125 0.1308594 0
v 0.4082031 0.07617188 0
v 0.4550781 0.02539063 0
v 0.4667969 -0.03320313 0
v 0.4667969 -0.1484375 0
v 0.453125 -0.2207031 0
v 0.4179688 -0.3046875 0
v 0.3789063 -0.3574219 0
v 0.3164063 -0.4140625 0
v 0.2832031 -0.4277344 0
v 0.2109375 -0.4316406 0
v -0.03125 -0.3652344 0
v -0.1210938 -0.3789063 0
v -0.2070313 -0.4277344 0
v -0.2734375 -0.4570313 0
v -0.3300781 -0.4570313 0
v -0.3691406 -0.4375 0
v -0.4082031 -0.4003906 0
v -0.4472656 -0.3398438 0
vt 0.9765625 0.2519531
vt 0.9765625 0.4160156
vt 0.9648438 0.4707031
vt 0.9296875 0.5351563
vt 0.8691406 0.5898438
vt 0.7382813 0.7011719
vt 0.6484375 0.8261719
vt 0.6015625 0.890625
vt 0.5449219 0.9433594
vt 0.5136719 0.96875
vt 0.4140625 0.96875
vt 0.3945313 0.9511719
vt 0.359375 0.9140625
vt 0.3339844 0.8652344
vt 0.265625 0.6894531
vt 0.21875 0.6308594
vt 0.09179688 0.5761719
vt 0.04492188 0.5253906
vt 0.03320313 0.4667969
vt 0.03320313 0.3515625
vt 0.046875 0.2792969
vt 0.08203125 0.1953125
vt 0.1210938 0.1425781
vt 0.1835938 0.0859375
vt 0.2167969 0.07226563
vt 0.2890625 0.06835938
vt 0.53125 0.1347656
vt 0.6210938 0.1210938
vt 0.7070313 0.07226563
vt 0.7734375 0.04296875
vt 0.8300781 0.04296875
vt 0.8691406 0.0625
vt 0.9082031 0.09960938
vt 0.9472656 0.1601563
vn 0 0 -1
vn 0 0 -1
vn 0 0 -1
vn 0 0 -1
vn 0 0 -0.9999999
vn 0 0 -0.9999999
vn 0 0 -1
vn 0 0 -1
vn 0 0 -0.9999999
vn 0 0 -1
vn 0 0 -1
vn 0 0 -1
vn 0 0 -1
vn 0 0 -1
vn 0 0 -1
vn 0 0 -1
vn 0 0 -1
vn 0 0 -1
vn 0 0 -1
vn 0 0 -1
vn 0 0 -1
vn 0 0 -0.9999999
vn 0 0 -1
vn 0 0 -1
vn 0 0 -1
vn 0 0 -1
vn 0 0 -1
vn 0 0 -1
vn 0 0 -1
vn 0 0 -1
vn 0 0 -1
vn 0 0 -1
vn 0 0 -1
vn 0 0 -1
g cfxr puddle mesh_0
f 15/15/15 27/27/27 4/4/4
f 4/4/4 14/14/14 15/15/15
f 27/27/27 28/28/28 4/4/4
f 15/15/15 20/20/20 27/27/27
f 4/4/4 6/6/6 14/14/14
f 28/28/28 32/32/32 4/4/4
f 20/20/20 24/24/24 27/27/27
f 15/15/15 16/16/16 20/20/20
f 6/6/6 10/10/10 14/14/14
f 32/32/32 34/34/34 4/4/4
f 28/28/28 30/30/30 32/32/32
f 24/24/24 26/26/26 27/27/27
f 20/20/20 22/22/22 24/24/24
f 16/16/16 18/18/18 20/20/20
f 10/10/10 12/12/12 14/14/14
f 6/6/6 8/8/8 10/10/10
f 34/34/34 2/2/2 4/4/4
f 32/32/32 33/33/33 34/34/34
f 30/30/30 31/31/31 32/32/32
f 28/28/28 29/29/29 30/30/30
f 24/24/24 25/25/25 26/26/26
f 22/22/22 23/23/23 24/24/24
f 20/20/20 21/21/21 22/22/22
f 18/18/18 19/19/19 20/20/20
f 16/16/16 17/17/17 18/18/18
f 12/12/12 13/13/13 14/14/14
f 10/10/10 11/11/11 12/12/12
f 8/8/8 9/9/9 10/10/10
f 6/6/6 7/7/7 8/8/8
f 4/4/4 5/5/5 6/6/6
f 2/2/2 3/3/3 4/4/4
f 34/34/34 1/1/1 2/2/2
