g cowboy-hat004
v 0.3900006 0.104044 0.04652233
v 0.4129165 0.3598396 0.4080046
v 0.5127915 0.4036416 0.04652233
v 0.3140419 0.104044 0.4080046
v 0.262278 -0.1208516 0.04652233
v 0.2102296 -0.0770496 0.4080046
v 0.1713916 -0.2854863 0.04652233
v 0.1380101 -0.209619 0.4080046
v -1.525879E-07 -0.4273221 0.04652233
v 0 -0.3397182 0.4080046
v 0.5127915 0.4036416 0.04652233
v 0.4129165 0.3598396 0.4080046
v 0.2451279 0.4022173 0.4080046
v 0.3066328 0.4780845 0.04652233
v 0 0.3409027 0.4080046
v 0 0.4285066 0.04652233
v -0.2634422 0.4022173 0.4080046
v -0.3249475 0.4780845 0.04652233
v -0.412917 0.3598396 0.4080046
v -0.5127916 0.4036416 0.04652233
v -0.5127916 0.4036416 0.04652233
v -0.412917 0.3598396 0.4080046
v -0.3140417 0.104044 0.4080046
v -0.3900005 0.1040441 0.04652233
v -0.2201456 -0.07704927 0.4080046
v -0.2721941 -0.1208512 0.04652233
v -0.1380106 -0.2096188 0.4080046
v -0.1713919 -0.285486 0.04652233
v 0 -0.3397182 0.4080046
v -1.525879E-07 -0.4273221 0.04652233
v 0.429106 0.3669395 -1.907349E-08
v 0.004578705 0.09584711 0.2842932
v 0.3263539 0.104044 -9.536743E-09
v 0.2484128 -0.08414958 -9.536743E-09
v 0.143421 -0.2219165 -9.536743E-09
v -1.525879E-07 -0.353918 -1.907349E-08
v 0.2550969 0.4145147 -1.907349E-08
v 0.004578705 0.09584711 0.2842932
v 0.429106 0.3669395 -1.907349E-08
v 0 0.3551026 -9.536743E-09
v -0.2734119 0.4145147 -1.907349E-08
v -0.429106 0.3669395 -1.907349E-08
v -0.3263541 0.104044 -9.536743E-09
v 0.004578705 0.09584711 0.2842932
v -0.429106 0.3669395 -1.907349E-08
v -0.228582 -0.08414923 0
v -0.1434215 -0.2219163 -9.536743E-09
v -1.525879E-07 -0.353918 -1.907349E-08
v 0.3140419 0.104044 0.4080046
v 0 0.104044 0.3159965
v 0.4129165 0.3598396 0.4080046
v 0.2102296 -0.0770496 0.4080046
v 0.2451279 0.4022173 0.4080046
v 0.1380101 -0.209619 0.4080046
v 0 0.3409027 0.4080046
v 0 -0.3397182 0.4080046
v -0.2634422 0.4022173 0.4080046
v -0.1380106 -0.2096188 0.4080046
v -0.412917 0.3598396 0.4080046
v -0.2201456 -0.07704927 0.4080046
v -0.3140417 0.104044 0.4080046
v 0.8126053 0.104044 -1.907349E-08
v 0.8126053 0.104044 0.04652235
v 0.819473 0.6052525 0.04652235
v 0.819473 0.6052525 -1.907349E-08
v 0.6185357 -0.3645485 -1.907349E-08
v 0.4674827 0.8422276 0.04652235
v 0.6185357 -0.3645485 0.04652235
v 0.4674827 0.8422276 -1.907349E-08
v 0.3810452 -0.7075812 -1.907349E-08
v 0 0.8817739 0.04652235
v 0.3810452 -0.7075812 0.04652235
v 0 0.8817739 -1.907349E-08
v -1.525879E-07 -0.8817739 -1.907349E-08
v -0.467482 0.8422276 0.04652235
v -1.525879E-07 -0.8817739 0.04652235
v -0.467482 0.8422276 -1.907349E-08
v -0.3810457 -0.7075807 -1.907349E-08
v -0.8194725 0.6052526 0.04652235
v -0.3810457 -0.7075807 0.04652235
v -0.8194725 0.6052526 -1.907349E-08
v -0.6185358 -0.3645476 -1.907349E-08
v -0.8126048 0.1040441 0.04652235
v -0.6185358 -0.3645476 0.04652235
v -0.8126048 0.1040441 -1.907349E-08
v 0.8126053 0.104044 0.04652235
v 0.3900006 0.104044 0.04652233
v 0.5127915 0.4036416 0.04652233
v 0.819473 0.6052525 0.04652235
v 0.6185357 -0.3645485 0.04652235
v 0.3066328 0.4780845 0.04652233
v 0.262278 -0.1208516 0.04652233
v 0.4674827 0.8422276 0.04652235
v 0.3810452 -0.7075812 0.04652235
v 0 0.4285066 0.04652233
v 0.1713916 -0.2854863 0.04652233
v 0 0.8817739 0.04652235
v -1.525879E-07 -0.8817739 0.04652235
v -0.3249475 0.4780845 0.04652233
v -1.525879E-07 -0.4273221 0.04652233
v -0.467482 0.8422276 0.04652235
v -0.3810457 -0.7075807 0.04652235
v -0.5127916 0.4036416 0.04652233
v -0.1713919 -0.285486 0.04652233
v -0.8194725 0.6052526 0.04652235
v -0.6185358 -0.3645476 0.04652235
v -0.3900005 0.1040441 0.04652233
v -0.2721941 -0.1208512 0.04652233
v -0.8126048 0.1040441 0.04652235
v 0.819473 0.6052525 -1.907349E-08
v 0.429106 0.3669395 -1.907349E-08
v 0.3263539 0.104044 -9.536743E-09
v 0.8126053 0.104044 -1.907349E-08
v 0.4674827 0.8422276 -1.907349E-08
v 0.2484128 -0.08414958 -9.536743E-09
v 0.2550969 0.4145147 -1.907349E-08
v 0.6185357 -0.3645485 -1.907349E-08
v 0 0.8817739 -1.907349E-08
v 0.143421 -0.2219165 -9.536743E-09
v 0 0.3551026 -9.536743E-09
v 0.3810452 -0.7075812 -1.907349E-08
v -0.467482 0.8422276 -1.907349E-08
v -1.525879E-07 -0.353918 -1.907349E-08
v -0.2734119 0.4145147 -1.907349E-08
v -1.525879E-07 -0.8817739 -1.907349E-08
v -0.8194725 0.6052526 -1.907349E-08
v -0.1434215 -0.2219163 -9.536743E-09
v -0.429106 0.3669395 -1.907349E-08
v -0.3810457 -0.7075807 -1.907349E-08
v -0.8126048 0.1040441 -1.907349E-08
v -0.228582 -0.08414923 0
v -0.3263541 0.104044 -9.536743E-09
v -0.6185358 -0.3645476 -1.907349E-08
vt 0.6264648 0.3947754
vt 0.6264648 0.3947754
vt 0.6264648 0.3947754
vt 0.6264648 0.3947754
vt 0.6264648 0.3947754
vt 0.6264648 0.3947754
vt 0.6264648 0.3947754
vt 0.6264648 0.3947754
vt 0.6264648 0.3947754
vt 0.6264648 0.3947754
vt 0.6264648 0.3947754
vt 0.6264648 0.3947754
vt 0.6264648 0.3947754
vt 0.6264648 0.3947754
vt 0.6264648 0.3947754
vt 0.6264648 0.3947754
vt 0.6264648 0.3947754
vt 0.6264648 0.3947754
vt 0.6264648 0.3947754
vt 0.6264648 0.3947754
vt 0.6264648 0.3947754
vt 0.6264648 0.3947754
vt 0.6264648 0.3947754
vt 0.6264648 0.3947754
vt 0.6264648 0.3947754
vt 0.6264648 0.3947754
vt 0.6264648 0.3947754
vt 0.6264648 0.3947754
vt 0.6264648 0.3947754
vt 0.6264648 0.3947754
vt 0.6264648 0.3947754
vt 0.6264648 0.3947754
vt 0.6264648 0.3947754
vt 0.6264648 0.3947754
vt 0.6264648 0.3947754
vt 0.6264648 0.3947754
vt 0.6264648 0.3947754
vt 0.6264648 0.3947754
vt 0.6264648 0.3947754
vt 0.6264648 0.3947754
vt 0.6264648 0.3947754
vt 0.6264648 0.3947754
vt 0.6264648 0.3947754
vt 0.6264648 0.3947754
vt 0.6264648 0.3947754
vt 0.6264648 0.3947754
vt 0.6264648 0.3947754
vt 0.6264648 0.3947754
vt 0.6264648 0.3947754
vt 0.6264648 0.3947754
vt 0.6264648 0.3947754
vt 0.6264648 0.3947754
vt 0.6264648 0.3947754
vt 0.6264648 0.3947754
vt 0.6264648 0.3947754
vt 0.6264648 0.3947754
vt 0.6264648 0.3947754
vt 0.6264648 0.3947754
vt 0.6264648 0.3947754
vt 0.6264648 0.3947754
vt 0.6264648 0.3947754
vt 0.6264648 0.3947754
vt 0.6264648 0.3947754
vt 0.6264648 0.3947754
vt 0.6264648 0.3947754
vt 0.6264648 0.3947754
vt 0.6264648 0.3947754
vt 0.6264648 0.3947754
vt 0.6264648 0.3947754
vt 0.6264648 0.3947754
vt 0.6264648 0.3947754
vt 0.6264648 0.3947754
vt 0.6264648 0.3947754
vt 0.6264648 0.3947754
vt 0.6264648 0.3947754
vt 0.6264648 0.3947754
vt 0.6264648 0.3947754
vt 0.6264648 0.3947754
vt 0.6264648 0.3947754
vt 0.6264648 0.3947754
vt 0.6264648 0.3947754
vt 0.6264648 0.3947754
vt 0.6264648 0.3947754
vt 0.6264648 0.3947754
vt 0.6264648 0.3947754
vt 0.6264648 0.3947754
vt 0.6264648 0.3947754
vt 0.6264648 0.3947754
vt 0.6264648 0.3947754
vt 0.6264648 0.3947754
vt 0.6264648 0.3947754
vt 0.6264648 0.3947754
vt 0.6264648 0.3947754
vt 0.6264648 0.3947754
vt 0.6264648 0.3947754
vt 0.6264648 0.3947754
vt 0.6264648 0.3947754
vt 0.6264648 0.3947754
vt 0.6264648 0.3947754
vt 0.6264648 0.3947754
vt 0.6264648 0.3947754
vt 0.6264648 0.3947754
vt 0.6264648 0.3947754
vt 0.6264648 0.3947754
vt 0.6264648 0.3947754
vt 0.6264648 0.3947754
vt 0.6264648 0.3947754
vt 0.6264648 0.3947754
vt 0.6264648 0.3947754
vt 0.6264648 0.3947754
vt 0.6264648 0.3947754
vt 0.6264648 0.3947754
vt 0.6264648 0.3947754
vt 0.6264648 0.3947754
vt 0.6264648 0.3947754
vt 0.6264648 0.3947754
vt 0.6264648 0.3947754
vt 0.6264648 0.3947754
vt 0.6264648 0.3947754
vt 0.6264648 0.3947754
vt 0.6264648 0.3947754
vt 0.6264648 0.3947754
vt 0.6264648 0.3947754
vt 0.6264648 0.3947754
vt 0.6264648 0.3947754
vt 0.6264648 0.3947754
vt 0.6264648 0.3947754
vt 0.6264648 0.3947754
vt 0.6264648 0.3947754
vt 0.6264648 0.3947754
vt 0.6264648 0.3947754
vt 0.6264648 0.3947754
vt 0.6264648 0.3947754
vn 0.8857422 -0.4226074 0.19104
vn 0.9101563 -0.3632813 0.1993408
vn 0.9101563 -0.3632813 0.1993408
vn 0.8828125 -0.4296875 0.1899414
vn 0.8583984 -0.4799805 0.180542
vn 0.8583984 -0.4804688 0.180542
vn 0.7587891 -0.6225586 0.1916504
vn 0.7729492 -0.6049805 0.1905518
vn 0.6474609 -0.7363281 0.1964111
vn 0.6474609 -0.7363281 0.1964111
vn 0.2910156 0.9311523 0.2191162
vn 0.2910156 0.9311523 0.2191162
vn 0.02584839 0.9760742 0.215332
vn 0.0736084 0.9731445 0.2171631
vn -0.005691528 0.9785156 0.2050781
vn -0.00605011 0.9785156 0.2050781
vn -0.0463562 0.9746094 0.2188721
vn -0.09429932 0.9707031 0.2209473
vn -0.3188477 0.9208984 0.2236328
vn -0.3188477 0.9208984 0.2236328
vn -0.9101563 -0.3632813 0.1993408
vn -0.9101563 -0.3632813 0.1993408
vn -0.8911133 -0.4118652 0.1904297
vn -0.8930664 -0.4069824 0.1914063
vn -0.8554688 -0.4846191 0.1831055
vn -0.8544922 -0.4858398 0.1832275
vn -0.7563477 -0.6254883 0.1920166
vn -0.7441406 -0.6396484 0.192749
vn -0.6474609 -0.7363281 0.1964111
vn -0.6474609 -0.7363281 0.1964111
vn -0.6445313 0.2519531 -0.722168
vn -0.5834961 0.3439941 -0.7358398
vn -0.6435547 0.2575684 -0.7207031
vn -0.5927734 0.3459473 -0.7275391
vn -0.4841309 0.4562988 -0.746582
vn -0.4436035 0.4821777 -0.7553711
vn -0.05645752 -0.6396484 -0.7666016
vn 0.0001262426 -0.6904297 -0.7231445
vn -0.15979 -0.5844727 -0.7958984
vn 0.004657745 -0.7387695 -0.6738281
vn 0.07318115 -0.6274414 -0.7749023
vn 0.1733398 -0.5673828 -0.8051758
vn 0.6298828 0.2773438 -0.7255859
vn 0.5839844 0.3461914 -0.734375
vn 0.6347656 0.2480469 -0.7319336
vn 0.605957 0.3459473 -0.7163086
vn 0.5 0.4362793 -0.7480469
vn 0.4389648 0.4768066 -0.7617188
vn -0.2788086 0.1263428 0.9521484
vn -0.001274109 -0.003698349 1
vn -0.1636963 -0.08917236 0.9824219
vn -0.2800293 0.1561279 0.9472656
vn -0.02401733 -0.2766113 0.9604492
vn -0.2193604 0.1844482 0.9580078
vn 0.00349617 -0.3620605 0.9321289
vn 0 0.2030029 0.9790039
vn 0.03057861 -0.2700195 0.9624023
vn 0.2139893 0.1871338 0.9589844
vn 0.1646729 -0.08752441 0.9824219
vn 0.2700195 0.1546631 0.9501953
vn 0.2790527 0.1213379 0.9526367
vn 0.9794922 -0.2017822 0
vn 0.9794922 -0.2017822 0
vn 0.8857422 0.4638672 0
vn 0.8857422 0.4638672 0
vn 0.8779297 -0.4787598 0
vn 0.3320313 0.9433594 0
vn 0.8779297 -0.4787598 0
vn 0.3320313 0.9433594 0
vn 0.6420898 -0.7666016 0
vn 0 1 0
vn 0.6420898 -0.7666016 0
vn 0 1 0
vn -4.172325E-07 -1 0
vn -0.3320313 0.9433594 0
vn -4.172325E-07 -1 0
vn -0.3320313 0.9433594 0
vn -0.6420898 -0.7666016 0
vn -0.8857422 0.4638672 0
vn -0.6420898 -0.7666016 0
vn -0.8857422 0.4638672 0
vn -0.8779297 -0.4785156 0
vn -0.9794922 -0.2017822 0
vn -0.8779297 -0.4785156 0
vn -0.9794922 -0.2017822 0
vn 0 0 1
vn 0 0 1
vn 0 0 1
vn 0 0 1
vn 0 0 1
vn 0 0 1
vn 0 0 1
vn 0 0 1
vn 0 0 1
vn 0 0 1
vn 0 0 1
vn 0 0 1
vn 0 0 1
vn 0 0 1
vn 0 0 1
vn 0 0 1
vn 0 0 1
vn 0 0 1
vn 0 0 1
vn 0 0 1
vn 0 0 1
vn 0 0 1
vn 0 0 1
vn 0 0 1
vn 0 0 -1
vn 0 0 -1
vn 0 0 -1
vn 0 0 -1
vn 0 0 -1
vn 0 0 -1
vn 0 0 -1
vn 0 0 -1
vn 0 0 -1
vn 0 0 -1
vn 0 0 -1
vn 0 0 -1
vn 0 0 -1
vn 0 0 -1
vn 0 0 -1
vn 0 0 -1
vn 0 0 -1
vn 0 0 -1
vn 0 0 -1
vn 0 0 -1
vn 0 0 -1
vn 0 0 -1
vn 0 0 -1
vn 0 0 -1
g cowboy-hat004_0
f 3/3/3 2/2/2 1/1/1
f 2/2/2 4/4/4 1/1/1
f 1/1/1 4/4/4 5/5/5
f 4/4/4 6/6/6 5/5/5
f 5/5/5 6/6/6 7/7/7
f 6/6/6 8/8/8 7/7/7
f 7/7/7 8/8/8 9/9/9
f 8/8/8 10/10/10 9/9/9
f 13/13/13 12/12/12 11/11/11
f 14/14/14 13/13/13 11/11/11
f 15/15/15 13/13/13 14/14/14
f 16/16/16 15/15/15 14/14/14
f 17/17/17 15/15/15 16/16/16
f 18/18/18 17/17/17 16/16/16
f 19/19/19 17/17/17 18/18/18
f 20/20/20 19/19/19 18/18/18
f 23/23/23 22/22/22 21/21/21
f 24/24/24 23/23/23 21/21/21
f 25/25/25 23/23/23 24/24/24
f 26/26/26 25/25/25 24/24/24
f 27/27/27 25/25/25 26/26/26
f 28/28/28 27/27/27 26/26/26
f 29/29/29 27/27/27 28/28/28
f 30/30/30 29/29/29 28/28/28
f 33/33/33 32/32/32 31/31/31
f 34/34/34 32/32/32 33/33/33
f 35/35/35 32/32/32 34/34/34
f 36/36/36 32/32/32 35/35/35
f 39/39/39 38/38/38 37/37/37
f 37/37/37 38/38/38 40/40/40
f 40/40/40 38/38/38 41/41/41
f 41/41/41 38/38/38 42/42/42
f 45/45/45 44/44/44 43/43/43
f 43/43/43 44/44/44 46/46/46
f 46/46/46 44/44/44 47/47/47
f 47/47/47 44/44/44 48/48/48
f 51/51/51 50/50/50 49/49/49
f 49/49/49 50/50/50 52/52/52
f 53/53/53 50/50/50 51/51/51
f 52/52/52 50/50/50 54/54/54
f 55/55/55 50/50/50 53/53/53
f 54/54/54 50/50/50 56/56/56
f 57/57/57 50/50/50 55/55/55
f 56/56/56 50/50/50 58/58/58
f 59/59/59 50/50/50 57/57/57
f 58/58/58 50/50/50 60/60/60
f 61/61/61 50/50/50 59/59/59
f 60/60/60 50/50/50 61/61/61
f 64/64/64 63/63/63 62/62/62
f 65/65/65 64/64/64 62/62/62
f 62/62/62 63/63/63 66/66/66
f 67/67/67 64/64/64 65/65/65
f 63/63/63 68/68/68 66/66/66
f 69/69/69 67/67/67 65/65/65
f 66/66/66 68/68/68 70/70/70
f 71/71/71 67/67/67 69/69/69
f 68/68/68 72/72/72 70/70/70
f 73/73/73 71/71/71 69/69/69
f 70/70/70 72/72/72 74/74/74
f 75/75/75 71/71/71 73/73/73
f 72/72/72 76/76/76 74/74/74
f 77/77/77 75/75/75 73/73/73
f 74/74/74 76/76/76 78/78/78
f 79/79/79 75/75/75 77/77/77
f 76/76/76 80/80/80 78/78/78
f 81/81/81 79/79/79 77/77/77
f 78/78/78 80/80/80 82/82/82
f 83/83/83 79/79/79 81/81/81
f 80/80/80 84/84/84 82/82/82
f 85/85/85 83/83/83 81/81/81
f 82/82/82 84/84/84 85/85/85
f 84/84/84 83/83/83 85/85/85
f 88/88/88 87/87/87 86/86/86
f 89/89/89 88/88/88 86/86/86
f 86/86/86 87/87/87 90/90/90
f 91/91/91 88/88/88 89/89/89
f 87/87/87 92/92/92 90/90/90
f 93/93/93 91/91/91 89/89/89
f 90/90/90 92/92/92 94/94/94
f 95/95/95 91/91/91 93/93/93
f 92/92/92 96/96/96 94/94/94
f 97/97/97 95/95/95 93/93/93
f 94/94/94 96/96/96 98/98/98
f 99/99/99 95/95/95 97/97/97
f 96/96/96 100/100/100 98/98/98
f 101/101/101 99/99/99 97/97/97
f 98/98/98 100/100/100 102/102/102
f 103/103/103 99/99/99 101/101/101
f 100/100/100 104/104/104 102/102/102
f 105/105/105 103/103/103 101/101/101
f 102/102/102 104/104/104 106/106/106
f 107/107/107 103/103/103 105/105/105
f 104/104/104 108/108/108 106/106/106
f 109/109/109 107/107/107 105/105/105
f 106/106/106 108/108/108 109/109/109
f 108/108/108 107/107/107 109/109/109
f 112/112/112 111/111/111 110/110/110
f 113/113/113 112/112/112 110/110/110
f 110/110/110 111/111/111 114/114/114
f 115/115/115 112/112/112 113/113/113
f 111/111/111 116/116/116 114/114/114
f 117/117/117 115/115/115 113/113/113
f 114/114/114 116/116/116 118/118/118
f 119/119/119 115/115/115 117/117/117
f 116/116/116 120/120/120 118/118/118
f 121/121/121 119/119/119 117/117/117
f 118/118/118 120/120/120 122/122/122
f 123/123/123 119/119/119 121/121/121
f 120/120/120 124/124/124 122/122/122
f 125/125/125 123/123/123 121/121/121
f 122/122/122 124/124/124 126/126/126
f 127/127/127 123/123/123 125/125/125
f 124/124/124 128/128/128 126/126/126
f 129/129/129 127/127/127 125/125/125
f 126/126/126 128/128/128 130/130/130
f 131/131/131 127/127/127 129/129/129
f 128/128/128 132/132/132 130/130/130
f 133/133/133 131/131/131 129/129/129
f 130/130/130 132/132/132 133/133/133
f 132/132/132 131/131/131 133/133/133
