g Floor 2
v -0.7283692 0 0.3
v -0.7283692 0 0.1851078
v -0.1851078 0 0.1851078
v -0.1851078 0 0.3
v -0.7283692 0 1.7
v -0.1851078 0 1.7
v -0.7283693 0 1.814892
v -0.1851078 0 1.814892
v -1.271631 0 1.7
v -1.271631 0 0.3
v -1.814892 0 1.7
v -1.814892 0 1.814892
v -1.271631 0 1.814892
v -1.814892 0 0.3
v -1.271631 0 0.1851078
v -1.814892 0 0.1851078
v -0.7283692 0 0.1851078
v 0 0 0
v -0.1851078 0 0.1851078
v -0.6666667 0 0
v -1.271631 0 0.1851078
v -1.333333 0 0
v -1.814892 0 0.1851078
v -2 0 0
v -1.814892 0 0.3
v -2 0 0.3
v -1.814892 0 1.7
v -2 0 1.7
v -1.814892 0 1.814892
v -2 0 2
v -1.271631 0 1.814892
v -1.333333 0 2
v -0.7283693 0 1.814892
v -0.6666666 0 2
v -0.1851078 0 1.814892
v 0 0 2
v -0.1851078 0 1.7
v 0 0 1.7
v -0.1851078 0 0.3
v 0 0 0.3
v -0.1851078 0 0.1851078
v 0 0 0.3
v 0 0 0
v -1.208967 -0.02180579 0.2740222
v -1.208967 -0.02180579 0.2110856
v -0.7910329 -0.02180579 0.2110856
v -0.7910329 -0.02180579 0.2740222
v -1.224985 -0.02180579 1.791326
v -1.224985 -0.02180579 1.723566
v -0.7750154 -0.02180579 1.723566
v -0.7750154 -0.02180579 1.791326
v -0.7750154 -0.02180579 1.791326
v -0.7283693 0 1.814892
v -1.271631 0 1.814892
v -1.224985 -0.02180579 1.791326
v -1.208967 -0.02180579 0.2110856
v -1.271631 0 0.1851078
v -0.7283692 0 0.1851078
v -0.7910329 -0.02180579 0.2110856
v -1.208967 -0.02180579 0.2740222
v -1.271631 0 0.3
v -1.271631 0 0.1851078
v -1.208967 -0.02180579 0.2110856
v -0.7910329 -0.02180579 0.2110856
v -0.7283692 0 0.1851078
v -0.7283692 0 0.3
v -0.7910329 -0.02180579 0.2740222
v -0.7910329 -0.02180579 0.2740222
v -0.7283692 0 0.3
v -1.271631 0 0.3
v -1.208967 -0.02180579 0.2740222
v -1.224985 -0.02180579 1.791326
v -1.271631 0 1.814892
v -1.271631 0 1.7
v -1.224985 -0.02180579 1.723566
v -0.7750154 -0.02180579 1.723566
v -0.7283692 0 1.7
v -0.7283693 0 1.814892
v -0.7750154 -0.02180579 1.791326
v -1.224985 -0.02180579 1.723566
v -1.271631 0 1.7
v -0.7283692 0 1.7
v -0.7750154 -0.02180579 1.723566
vt 0.6894531 0.3027344
vt 0.6894531 0.3144531
vt 0.6972656 0.3144531
vt 0.6972656 0.3027344
vt 0.6894531 0.296875
vt 0.6972656 0.296875
vt 0.6894531 0.2910156
vt 0.6972656 0.2910156
vt 0.6816406 0.296875
vt 0.6816406 0.3027344
vt 0.6738281 0.296875
vt 0.6738281 0.2910156
vt 0.6816406 0.2910156
vt 0.6738281 0.3027344
vt 0.6816406 0.3144531
vt 0.6738281 0.3144531
vt 0.5839844 0.3144531
vt 0.59375 0.3183594
vt 0.5917969 0.3144531
vt 0.5839844 0.3183594
vt 0.5761719 0.3144531
vt 0.5742188 0.3183594
vt 0.5683594 0.3144531
vt 0.5664063 0.3183594
vt 0.5683594 0.3027344
vt 0.5664063 0.3027344
vt 0.5683594 0.296875
vt 0.5664063 0.296875
vt 0.5683594 0.2910156
vt 0.5664063 0.2890625
vt 0.5761719 0.2910156
vt 0.5742188 0.2890625
vt 0.5839844 0.2910156
vt 0.5839844 0.2890625
vt 0.5917969 0.2910156
vt 0.59375 0.2890625
vt 0.5917969 0.296875
vt 0.59375 0.296875
vt 0.5917969 0.3027344
vt 0.59375 0.3027344
vt 0.5917969 0.3144531
vt 0.59375 0.3027344
vt 0.59375 0.3183594
vt 0.265625 0.5644531
vt 0.265625 0.5703125
vt 0.2714844 0.5703125
vt 0.2714844 0.5644531
vt 0.265625 0.5507813
vt 0.265625 0.5546875
vt 0.2714844 0.5546875
vt 0.2714844 0.5507813
vt 0.4589844 0.2949219
vt 0.4589844 0.2949219
vt 0.4511719 0.2949219
vt 0.4511719 0.2949219
vt 0.4511719 0.3164063
vt 0.4511719 0.3183594
vt 0.4589844 0.3183594
vt 0.4589844 0.3164063
vt 0.4511719 0.3085938
vt 0.4511719 0.3066406
vt 0.4511719 0.3183594
vt 0.4511719 0.3164063
vt 0.4589844 0.3164063
vt 0.4589844 0.3183594
vt 0.4589844 0.3066406
vt 0.4589844 0.3085938
vt 0.4589844 0.3085938
vt 0.4589844 0.3066406
vt 0.4511719 0.3066406
vt 0.4511719 0.3085938
vt 0.4511719 0.2949219
vt 0.4511719 0.2949219
vt 0.4511719 0.3007813
vt 0.4511719 0.2988281
vt 0.4589844 0.2988281
vt 0.4589844 0.3007813
vt 0.4589844 0.2949219
vt 0.4589844 0.2949219
vt 0.4511719 0.2988281
vt 0.4511719 0.3007813
vt 0.4589844 0.3007813
vt 0.4589844 0.2988281
vn 0 1 0
vn 0 1 0
vn 0 1 0
vn 0 1 0
vn 0 1 0
vn 0 1 0
vn 0 1 0
vn 0 1 0
vn 0 1 0
vn 0 1 0
vn 0 1 0
vn 0 1 0
vn 0 1 0
vn 0 1 0
vn 0 1 0
vn 0 1 0
vn 0 1 0
vn 0 1 0
vn 0 1 0
vn 0 1 0
vn 0 1 0
vn 0 1 0
vn 0 1 0
vn 0 1 0
vn 0 1 0
vn 0 1 0
vn 0 1 0
vn 0 1 0
vn 0 1 0
vn 0 1 0
vn 0 1 0
vn 0 1 0
vn 0 1 0
vn 0 1 0
vn 0 1 0
vn 0 1 0
vn 0 1 0
vn 0 1 0
vn 0 1 0
vn 0 1 0
vn 0 1 0
vn 0 1 0
vn 0 1 0
vn 0 1 0
vn 0 1 0
vn 0 1 0
vn 0 1 0
vn 0 1 0
vn 0 1 0
vn 0 1 0
vn 0 1 0
vn 0 0.7338867 -0.6791992
vn 0 0.7338867 -0.6791992
vn 0 0.7338867 -0.6791992
vn 0 0.7338867 -0.6791992
vn 0 0.7661133 0.6430664
vn 0 0.7661133 0.6430664
vn 0 0.7661133 0.6430664
vn 0 0.7661133 0.6430664
vn 0.3286133 0.9443359 0
vn 0.3286133 0.9443359 0
vn 0.3286133 0.9443359 0
vn 0.3286133 0.9443359 0
vn -0.3286133 0.9443359 0
vn -0.3286133 0.9443359 0
vn -0.3286133 0.9443359 0
vn -0.3286133 0.9443359 0
vn 0 0.7661133 -0.6430664
vn 0 0.7661133 -0.6430664
vn 0 0.7661133 -0.6430664
vn 0 0.7661133 -0.6430664
vn 0.423584 0.9057617 0
vn 0.423584 0.9057617 0
vn 0.423584 0.9057617 0
vn 0.423584 0.9057617 0
vn -0.423584 0.9057617 0
vn -0.423584 0.9057617 0
vn -0.423584 0.9057617 0
vn -0.423584 0.9057617 0
vn 0 0.7338867 0.6791992
vn 0 0.7338867 0.6791992
vn 0 0.7338867 0.6791992
vn 0 0.7338867 0.6791992
g Floor 2_0
f 3/3/3 2/2/2 1/1/1
f 4/4/4 3/3/3 1/1/1
f 4/4/4 1/1/1 5/5/5
f 6/6/6 4/4/4 5/5/5
f 6/6/6 5/5/5 7/7/7
f 8/8/8 6/6/6 7/7/7
f 5/5/5 1/1/1 9/9/9
f 1/1/1 10/10/10 9/9/9
f 9/9/9 10/10/10 11/11/11
f 9/9/9 11/11/11 12/12/12
f 13/13/13 9/9/9 12/12/12
f 10/10/10 14/14/14 11/11/11
f 10/10/10 15/15/15 14/14/14
f 15/15/15 16/16/16 14/14/14
f 19/19/19 18/18/18 17/17/17
f 18/18/18 20/20/20 17/17/17
f 17/17/17 20/20/20 21/21/21
f 20/20/20 22/22/22 21/21/21
f 21/21/21 22/22/22 23/23/23
f 22/22/22 24/24/24 23/23/23
f 23/23/23 24/24/24 25/25/25
f 24/24/24 26/26/26 25/25/25
f 25/25/25 26/26/26 27/27/27
f 26/26/26 28/28/28 27/27/27
f 27/27/27 28/28/28 29/29/29
f 28/28/28 30/30/30 29/29/29
f 29/29/29 30/30/30 31/31/31
f 30/30/30 32/32/32 31/31/31
f 31/31/31 32/32/32 33/33/33
f 32/32/32 34/34/34 33/33/33
f 33/33/33 34/34/34 35/35/35
f 34/34/34 36/36/36 35/35/35
f 35/35/35 36/36/36 37/37/37
f 36/36/36 38/38/38 37/37/37
f 37/37/37 38/38/38 39/39/39
f 38/38/38 40/40/40 39/39/39
f 39/39/39 42/42/42 41/41/41
f 42/42/42 43/43/43 41/41/41
f 46/46/46 45/45/45 44/44/44
f 47/47/47 46/46/46 44/44/44
f 50/50/50 49/49/49 48/48/48
f 51/51/51 50/50/50 48/48/48
f 54/54/54 53/53/53 52/52/52
f 55/55/55 54/54/54 52/52/52
f 58/58/58 57/57/57 56/56/56
f 59/59/59 58/58/58 56/56/56
f 62/62/62 61/61/61 60/60/60
f 63/63/63 62/62/62 60/60/60
f 66/66/66 65/65/65 64/64/64
f 67/67/67 66/66/66 64/64/64
f 70/70/70 69/69/69 68/68/68
f 71/71/71 70/70/70 68/68/68
f 74/74/74 73/73/73 72/72/72
f 75/75/75 74/74/74 72/72/72
f 78/78/78 77/77/77 76/76/76
f 79/79/79 78/78/78 76/76/76
f 82/82/82 81/81/81 80/80/80
f 83/83/83 82/82/82 80/80/80
