g Floor 2
v -1 0 1
v -1 0 0
v 0 0 0
v 0 0 1
v 0 0 1
v 0 0 2
v -1 0 2
v -1 0 1
v -2 0 1
v -2 0 0
v -1 0 0
v -1 0 2
v -2 0 2
v -2 0 1
v -1 0 1
vt 0.7070313 0.6855469
vt 0.7070313 0.7128906
vt 0.734375 0.7128906
vt 0.734375 0.6855469
vt 0.8398438 0.6640625
vt 0.8398438 0.6640625
vt 0.8125 0.6640625
vt 0.8125 0.6640625
vt 0.8125 0.6640625
vt 0.8125 0.6914063
vt 0.8125 0.6914063
vt 0.7070313 0.6855469
vt 0.7070313 0.6855469
vt 0.7070313 0.6855469
vt 0.7070313 0.6855469
vn 0 1 0
vn 0 1 0
vn 0 1 0
vn 0 1 0
vn 0 1 0
vn 0 1 0
vn 0 1 0
vn 0 1 0
vn 0 1 0
vn 0 1 0
vn 0 1 0
vn 0 1 0
vn 0 1 0
vn 0 1 0
vn 0 1 0
g Floor 2_0
f 3/3/3 2/2/2 1/1/1
f 4/4/4 3/3/3 1/1/1
f 7/7/7 6/6/6 5/5/5
f 8/8/8 7/7/7 5/5/5
f 10/10/10 9/9/9 8/8/8
f 11/11/11 10/10/10 8/8/8
f 14/14/14 13/13/13 12/12/12
f 15/15/15 14/14/14 12/12/12
