g Floor 19
v -1.814892 0 0.3
v -1.814892 0 0.1851078
v -1.571631 0 0.1851078
v -1.571631 0 0.3
v -1.814892 0 0.475
v -0.4283692 0 0.3
v -1.571631 0 0.475
v -0.4283692 0 0.1851078
v -0.1851078 0 0.1851078
v -0.1851078 0 0.3
v -0.4283692 0 0.475
v -1.814892 0 0.65
v -0.1851078 0 0.475
v -1.571631 0 0.65
v -1.814892 0 0.825
v -0.4283692 0 0.65
v -0.1851078 0 0.65
v -1.571631 0 0.825
v -0.4283692 0 0.825
v -1.814892 0 1
v -0.1851078 0 0.825
v -1.571631 0 1
v -1.814892 0 1.175
v -0.4283692 0 1
v -0.1851078 0 1
v -1.571631 0 1.175
v -1.814892 0 1.35
v -1.571631 0 1.35
v -1.814892 0 1.525
v -0.4283692 0 1.175
v -0.1851078 0 1.175
v -0.4283692 0 1.35
v -0.1851078 0 1.35
v -1.571631 0 1.525
v -0.4283692 0 1.525
v -0.1851078 0 1.525
v -1.814892 0 1.7
v -0.4283692 0 1.35
v -1.571631 0 1.35
v -0.4283692 0 1.7
v -1.571631 0 1.7
v -1.814892 0 1.814892
v -1.571631 0 1.814892
v -0.1851078 0 1.7
v -0.4283693 0 1.814892
v -0.1851078 0 1.814892
v -0.4283693 -0.5 1.814892
v -0.4283693 0 1.814892
v -1.571631 0 1.814892
v -1.571631 -0.5 1.814892
v -0.1851078 0 0.3
v 0 0 0.3
v 0 0 0.475
v -0.1851078 0 0.475
v 0 0 0.65
v -0.1851078 0 0.65
v 0 0 0.825
v -0.1851078 0 0.825
v 0 0 1
v -0.1851078 0 1
v 0 0 1.175
v -0.1851078 0 1.175
v 0 0 1.35
v -0.1851078 0 1.35
v 0 0 1.525
v -0.1851078 0 1.525
v 0 0 1.7
v -0.1851078 0 1.7
v 0 0 2
v -0.1851078 0 1.814892
v -0.3666666 0 2
v -0.4283693 0 1.814892
v -1.633333 0 2
v -1.571631 0 1.814892
v -2 0 2
v -1.814892 0 1.814892
v -2 0 1.7
v -1.814892 0 1.7
v -2 0 1.525
v -1.814892 0 1.525
v -2 0 1.35
v -1.814892 0 1.35
v -2 0 1.175
v -1.814892 0 1.175
v -2 0 1
v -1.814892 0 1
v -2 0 0.825
v -1.814892 0 0.825
v -2 0 0.65
v -1.814892 0 0.65
v -2 0 0.475
v -1.814892 0 0.475
v -2 0 0.3
v -1.814892 0 0.3
v -2 0 0
v -1.814892 0 0.1851078
v -1.633333 0 0
v -1.571631 0 0.1851078
v -0.3666667 0 0
v -0.4283692 0 0.1851078
v 0 0 0
v -0.1851078 0 0.1851078
v 0 0 0.3
v -1.542663 -0.01501253 0.4460319
v -1.571631 0 0.475
v -1.571631 0 0.3
v -1.542663 -0.01501253 0.328968
v -0.4573373 -0.01501253 0.328968
v -0.4283692 0 0.3
v -0.4283692 0 0.475
v -0.4573373 -0.01501253 0.4460319
v -1.542663 -0.01501253 0.328968
v -1.571631 0 0.3
v -0.4283692 0 0.3
v -0.4573373 -0.01501253 0.328968
v -0.4573373 -0.01501253 1.671032
v -0.4283692 0 1.7
v -1.571631 0 1.7
v -1.542663 -0.01501253 1.671032
v -0.4573373 -0.01501253 0.678968
v -0.4283692 0 0.65
v -0.4283692 0 0.825
v -0.4573373 -0.01501253 0.796032
v -1.542663 -0.01501253 0.796032
v -1.571631 0 0.825
v -1.571631 0 0.65
v -1.542663 -0.01501253 0.678968
v -1.542663 -0.01501253 0.678968
v -1.571631 0 0.65
v -0.4283692 0 0.65
v -0.4573373 -0.01501253 0.678968
v -0.4573373 -0.01501253 1.321032
v -0.4283692 0 1.35
v -1.571631 0 1.35
v -1.542663 -0.01501253 1.321032
v -0.4573373 -0.01501253 1.203968
v -0.4283692 0 1.175
v -0.4283692 0 1.35
v -0.4573373 -0.01501253 1.321032
v -1.542663 -0.01501253 1.321032
v -1.571631 0 1.35
v -1.571631 0 1.175
v -1.542663 -0.01501253 1.203968
v -1.542663 -0.01501253 1.203968
v -1.571631 0 1.175
v -0.4283692 0 1.175
v -0.4573373 -0.01501253 1.203968
v -0.4573373 -0.01501253 1.553968
v -0.4283692 0 1.525
v -0.4283692 0 1.7
v -0.4573373 -0.01501253 1.671032
v -1.542663 -0.01501253 1.671032
v -1.571631 0 1.7
v -1.571631 0 1.525
v -1.542663 -0.01501253 1.553968
v -1.542663 -0.01501253 1.553968
v -1.571631 0 1.525
v -0.4283692 0 1.525
v -0.4573373 -0.01501253 1.553968
v -0.4573373 -0.01501253 0.796032
v -0.4283692 0 0.825
v -1.571631 0 0.825
v -1.542663 -0.01501253 0.796032
v -0.4573373 -0.01501253 0.4460319
v -0.4283692 0 0.475
v -1.571631 0 0.475
v -1.542663 -0.01501253 0.4460319
v -1.571631 -0.5 1.814892
v -1.571631 -0.5 0.2148922
v -0.4283693 -0.5 0.2148922
v -0.4283693 -0.5 1.814892
v -1.571631 -0.5 0.2148922
v -1.571631 7.450581E-09 0.2148922
v -0.4283693 7.450581E-09 0.2148922
v -0.4283693 -0.5 0.2148922
v -0.4283693 0 1.814892
v -0.4283693 -0.5 1.814892
v -0.4283693 -0.5 0.2148922
v -0.4283693 7.450581E-09 0.2148922
v -1.571631 -0.5 1.814892
v -1.571631 0 1.814892
v -1.571631 7.450581E-09 0.2148922
v -1.571631 -0.5 0.2148922
v -0.5826088 -0.3100176 0.09999995
v -0.5826088 -0.3100176 1.9
v -0.5826088 -0.1599558 1.9
v -0.5826088 -0.1599558 0.09999995
v -0.8425235 -0.3100176 0.09999995
v -0.8425235 -0.3100176 1.9
v -0.7125661 -0.3850485 1.9
v -0.7125661 -0.3850485 0.09999995
v -0.7125661 -0.08492486 0.09999996
v -0.7125661 -0.08492486 1.9
v -0.8425235 -0.1599558 1.9
v -0.8425235 -0.1599558 0.09999995
v -0.5826088 -0.1599558 0.09999995
v -0.5826088 -0.1599558 1.9
v -0.7125661 -0.08492486 1.9
v -0.7125661 -0.08492486 0.09999996
v -0.7125661 -0.3850485 0.09999995
v -0.7125661 -0.3850485 1.9
v -0.5826088 -0.3100176 1.9
v -0.5826088 -0.3100176 0.09999995
v -0.8425235 -0.1599558 0.09999995
v -0.8425235 -0.1599558 1.9
v -0.8425235 -0.3100176 1.9
v -0.8425235 -0.3100176 0.09999995
v -1.147604 -0.3100176 0.09999995
v -1.147604 -0.3100176 1.9
v -1.147604 -0.1599558 1.9
v -1.147604 -0.1599558 0.09999995
v -1.407519 -0.3100176 0.09999995
v -1.407519 -0.3100176 1.9
v -1.277561 -0.3850485 1.9
v -1.277561 -0.3850485 0.09999995
v -1.277561 -0.08492486 0.09999996
v -1.277561 -0.08492486 1.9
v -1.407519 -0.1599558 1.9
v -1.407519 -0.1599558 0.09999995
v -1.147604 -0.1599558 0.09999995
v -1.147604 -0.1599558 1.9
v -1.277561 -0.08492486 1.9
v -1.277561 -0.08492486 0.09999996
v -1.277561 -0.3850485 0.09999995
v -1.277561 -0.3850485 1.9
v -1.147604 -0.3100176 1.9
v -1.147604 -0.3100176 0.09999995
v -1.407519 -0.1599558 0.09999995
v -1.407519 -0.1599558 1.9
v -1.407519 -0.3100176 1.9
v -1.407519 -0.3100176 0.09999995
vt 0.4335938 0.1875
vt 0.4335938 0.1992188
vt 0.4414063 0.1992188
vt 0.4414063 0.1875
vt 0.4335938 0.1855469
vt 0.4492188 0.1875
vt 0.4414063 0.1855469
vt 0.4492188 0.1992188
vt 0.4570313 0.1992188
vt 0.4570313 0.1875
vt 0.4492188 0.1855469
vt 0.4335938 0.1855469
vt 0.4570313 0.1855469
vt 0.4414063 0.1855469
vt 0.4335938 0.1835938
vt 0.4492188 0.1855469
vt 0.4570313 0.1855469
vt 0.4414063 0.1835938
vt 0.4492188 0.1835938
vt 0.4335938 0.1835938
vt 0.4570313 0.1835938
vt 0.4414063 0.1835938
vt 0.4335938 0.1835938
vt 0.4492188 0.1835938
vt 0.4570313 0.1835938
vt 0.4414063 0.1835938
vt 0.4335938 0.1816406
vt 0.4414063 0.1816406
vt 0.4335938 0.1816406
vt 0.4492188 0.1835938
vt 0.4570313 0.1835938
vt 0.4492188 0.1816406
vt 0.4570313 0.1816406
vt 0.4414063 0.1816406
vt 0.4492188 0.1816406
vt 0.4570313 0.1816406
vt 0.4335938 0.1816406
vt 0.4492188 0.1816406
vt 0.4414063 0.1816406
vt 0.4492188 0.1816406
vt 0.4414063 0.1816406
vt 0.4335938 0.1757813
vt 0.4414063 0.1757813
vt 0.4570313 0.1816406
vt 0.4492188 0.1757813
vt 0.4570313 0.1757813
vt 0.06445313 0.1738281
vt 0.06445313 0.1738281
vt 0.06445313 0.1738281
vt 0.06445313 0.1738281
vt 0.2109375 0.1875
vt 0.2128906 0.1875
vt 0.2128906 0.1855469
vt 0.2109375 0.1855469
vt 0.2128906 0.1855469
vt 0.2109375 0.1855469
vt 0.2128906 0.1835938
vt 0.2109375 0.1835938
vt 0.2128906 0.1835938
vt 0.2109375 0.1835938
vt 0.2128906 0.1835938
vt 0.2109375 0.1835938
vt 0.2128906 0.1816406
vt 0.2109375 0.1816406
vt 0.2128906 0.1816406
vt 0.2109375 0.1816406
vt 0.2128906 0.1816406
vt 0.2109375 0.1816406
vt 0.2128906 0.1738281
vt 0.2109375 0.1757813
vt 0.203125 0.1738281
vt 0.203125 0.1757813
vt 0.1933594 0.1738281
vt 0.1953125 0.1757813
vt 0.1855469 0.1738281
vt 0.1875 0.1757813
vt 0.1855469 0.1816406
vt 0.1875 0.1816406
vt 0.1855469 0.1816406
vt 0.1875 0.1816406
vt 0.1855469 0.1816406
vt 0.1875 0.1816406
vt 0.1855469 0.1835938
vt 0.1875 0.1835938
vt 0.1855469 0.1835938
vt 0.1875 0.1835938
vt 0.1855469 0.1835938
vt 0.1875 0.1835938
vt 0.1855469 0.1855469
vt 0.1875 0.1855469
vt 0.1855469 0.1855469
vt 0.1875 0.1855469
vt 0.1855469 0.1875
vt 0.1875 0.1875
vt 0.1855469 0.203125
vt 0.1875 0.1992188
vt 0.1933594 0.203125
vt 0.1953125 0.1992188
vt 0.203125 0.203125
vt 0.203125 0.1992188
vt 0.2128906 0.203125
vt 0.2109375 0.1992188
vt 0.2128906 0.1875
vt 0.2949219 0.2050781
vt 0.2949219 0.2050781
vt 0.2949219 0.2050781
vt 0.2949219 0.2050781
vt 0.3027344 0.2050781
vt 0.3027344 0.2050781
vt 0.3027344 0.2050781
vt 0.3027344 0.2050781
vt 0.2949219 0.2050781
vt 0.2949219 0.2050781
vt 0.3027344 0.2050781
vt 0.3027344 0.2050781
vt 0.3125 0.203125
vt 0.3125 0.203125
vt 0.3046875 0.203125
vt 0.3046875 0.203125
vt 0.2871094 0.1972656
vt 0.2871094 0.1972656
vt 0.2871094 0.1972656
vt 0.2871094 0.1972656
vt 0.2792969 0.1972656
vt 0.2792969 0.1972656
vt 0.2792969 0.1972656
vt 0.2792969 0.1972656
vt 0.2792969 0.1972656
vt 0.2792969 0.1972656
vt 0.2871094 0.1972656
vt 0.2871094 0.1972656
vt 0.3105469 0.1972656
vt 0.3125 0.1972656
vt 0.3046875 0.1972656
vt 0.3046875 0.1972656
vt 0.3105469 0.1972656
vt 0.3125 0.1972656
vt 0.3125 0.1972656
vt 0.3105469 0.1972656
vt 0.3046875 0.1972656
vt 0.3046875 0.1972656
vt 0.3046875 0.1972656
vt 0.3046875 0.1972656
vt 0.3046875 0.1972656
vt 0.3046875 0.1972656
vt 0.3125 0.1972656
vt 0.3105469 0.1972656
vt 0.3125 0.2011719
vt 0.3125 0.203125
vt 0.3125 0.203125
vt 0.3125 0.203125
vt 0.3046875 0.203125
vt 0.3046875 0.203125
vt 0.3046875 0.203125
vt 0.3046875 0.203125
vt 0.3046875 0.203125
vt 0.3046875 0.203125
vt 0.3125 0.203125
vt 0.3125 0.2011719
vt 0.2871094 0.1972656
vt 0.2871094 0.1972656
vt 0.2792969 0.1972656
vt 0.2792969 0.1972656
vt 0.3027344 0.2050781
vt 0.3027344 0.2050781
vt 0.2949219 0.2050781
vt 0.2949219 0.2050781
vt 0.06445313 0.1738281
vt 0.06445313 0.1738281
vt 0.06445313 0.1738281
vt 0.06445313 0.1738281
vt 0.06445313 0.1738281
vt 0.06445313 0.1738281
vt 0.06445313 0.1738281
vt 0.06445313 0.1738281
vt 0.06445313 0.1738281
vt 0.06445313 0.1738281
vt 0.06445313 0.1738281
vt 0.06445313 0.1738281
vt 0.06445313 0.1738281
vt 0.06445313 0.1738281
vt 0.06445313 0.1738281
vt 0.06445313 0.1738281
vt 0.2011719 0.5566406
vt 0.2011719 0.5566406
vt 0.2011719 0.5566406
vt 0.2011719 0.5566406
vt 0.2011719 0.5566406
vt 0.2011719 0.5566406
vt 0.2011719 0.5566406
vt 0.2011719 0.5566406
vt 0.2011719 0.5566406
vt 0.2011719 0.5566406
vt 0.2011719 0.5566406
vt 0.2011719 0.5566406
vt 0.2011719 0.5566406
vt 0.2011719 0.5566406
vt 0.2011719 0.5566406
vt 0.2011719 0.5566406
vt 0.2011719 0.5566406
vt 0.2011719 0.5566406
vt 0.2011719 0.5566406
vt 0.2011719 0.5566406
vt 0.2011719 0.5566406
vt 0.2011719 0.5566406
vt 0.2011719 0.5566406
vt 0.2011719 0.5566406
vt 0.2011719 0.5566406
vt 0.2011719 0.5566406
vt 0.2011719 0.5566406
vt 0.2011719 0.5566406
vt 0.2011719 0.5566406
vt 0.2011719 0.5566406
vt 0.2011719 0.5566406
vt 0.2011719 0.5566406
vt 0.2011719 0.5566406
vt 0.2011719 0.5566406
vt 0.2011719 0.5566406
vt 0.2011719 0.5566406
vt 0.2011719 0.5566406
vt 0.2011719 0.5566406
vt 0.2011719 0.5566406
vt 0.2011719 0.5566406
vt 0.2011719 0.5566406
vt 0.2011719 0.5566406
vt 0.2011719 0.5566406
vt 0.2011719 0.5566406
vt 0.2011719 0.5566406
vt 0.2011719 0.5566406
vt 0.2011719 0.5566406
vt 0.2011719 0.5566406
vn 0 1 0
vn 0 1 0
vn 0 1 0
vn 0 1 0
vn 0 1 0
vn 0 1 0
vn 0 1 0
vn 0 1 0
vn 0 1 0
vn 0 1 0
vn 0 1 0
vn 0 1 0
vn 0 1 0
vn 0 1 0
vn 0 1 0
vn 0 1 0
vn 0 1 0
vn 0 1 0
vn 0 1 0
vn 0 1 0
vn 0 1 0
vn 0 1 0
vn 0 1 0
vn 0 1 0
vn 0 1 0
vn 0 1 0
vn 0 1 0
vn 0 1 0
vn 0 1 0
vn 0 1 0
vn 0 1 0
vn 0 1 0
vn 0 1 0
vn 0 1 0
vn 0 1 0
vn 0 1 0
vn 0 1 0
vn 0 1 0
vn 0 1 0
vn 0 1 0
vn 0 1 0
vn 0 1 0
vn 0 1 0
vn 0 1 0
vn 0 1 0
vn 0 1 0
vn 0 0 -1
vn 0 0 -1
vn 0 0 -1
vn 0 0 -1
vn 0 1 0
vn 0 1 0
vn 0 1 0
vn 0 1 0
vn 0 1 0
vn 0 1 0
vn 0 1 0
vn 0 1 0
vn 0 1 0
vn 0 1 0
vn 0 1 0
vn 0 1 0
vn 0 1 0
vn 0 1 0
vn 0 1 0
vn 0 1 0
vn 0 1 0
vn 0 1 0
vn 0 1 0
vn 0 1 0
vn 0 1 0
vn 0 1 0
vn 0 1 0
vn 0 1 0
vn 0 1 0
vn 0 1 0
vn 0 1 0
vn 0 1 0
vn 0 1 0
vn 0 1 0
vn 0 1 0
vn 0 1 0
vn 0 1 0
vn 0 1 0
vn 0 1 0
vn 0 1 0
vn 0 1 0
vn 0 1 0
vn 0 1 0
vn 0 1 0
vn 0 1 0
vn 0 1 0
vn 0 1 0
vn 0 1 0
vn 0 1 0
vn 0 1 0
vn 0 1 0
vn 0 1 0
vn 0 1 0
vn 0 1 0
vn 0 1 0
vn 0 1 0
vn 0 1 0
vn 0.4602051 0.8876953 0
vn 0.4602051 0.8876953 0
vn 0.4602051 0.8876953 0
vn 0.4602051 0.8876953 0
vn -0.4602051 0.8876953 0
vn -0.4602051 0.8876953 0
vn -0.4602051 0.8876953 0
vn -0.4602051 0.8876953 0
vn 0 0.8876953 0.4602051
vn 0 0.8876953 0.4602051
vn 0 0.8876953 0.4602051
vn 0 0.8876953 0.4602051
vn 0 0.8876953 -0.4602051
vn 0 0.8876953 -0.4602051
vn 0 0.8876953 -0.4602051
vn 0 0.8876953 -0.4602051
vn -0.4602051 0.8876953 0
vn -0.4602051 0.8876953 0
vn -0.4602051 0.8876953 0
vn -0.4602051 0.8876953 0
vn 0.4602051 0.8876953 0
vn 0.4602051 0.8876953 0
vn 0.4602051 0.8876953 0
vn 0.4602051 0.8876953 0
vn 0 0.8876953 0.4602051
vn 0 0.8876953 0.4602051
vn 0 0.8876953 0.4602051
vn 0 0.8876953 0.4602051
vn 0 0.8876953 -0.4602051
vn 0 0.8876953 -0.4602051
vn 0 0.8876953 -0.4602051
vn 0 0.8876953 -0.4602051
vn -0.4602051 0.8876953 0
vn -0.4602051 0.8876953 0
vn -0.4602051 0.8876953 0
vn -0.4602051 0.8876953 0
vn 0.4602051 0.8876953 0
vn 0.4602051 0.8876953 0
vn 0.4602051 0.8876953 0
vn 0.4602051 0.8876953 0
vn 0 0.8876953 0.4602051
vn 0 0.8876953 0.4602051
vn 0 0.8876953 0.4602051
vn 0 0.8876953 0.4602051
vn -0.4602051 0.8876953 0
vn -0.4602051 0.8876953 0
vn -0.4602051 0.8876953 0
vn -0.4602051 0.8876953 0
vn 0.4602051 0.8876953 0
vn 0.4602051 0.8876953 0
vn 0.4602051 0.8876953 0
vn 0.4602051 0.8876953 0
vn 0 0.8876953 0.4602051
vn 0 0.8876953 0.4602051
vn 0 0.8876953 0.4602051
vn 0 0.8876953 0.4602051
vn 0 0.8876953 -0.4602051
vn 0 0.8876953 -0.4602051
vn 0 0.8876953 -0.4602051
vn 0 0.8876953 -0.4602051
vn 0 0.8876953 -0.4602051
vn 0 0.8876953 -0.4602051
vn 0 0.8876953 -0.4602051
vn 0 0.8876953 -0.4602051
vn 0 1 0
vn 0 1 0
vn 0 1 0
vn 0 1 0
vn 0 0 1
vn 0 0 1
vn 0 0 1
vn 0 0 1
vn -1 0 0
vn -1 0 0
vn -1 0 0
vn -1 0 0
vn 1 0 0
vn 1 0 0
vn 1 0 0
vn 1 0 0
vn 1 0 0
vn 1 0 0
vn 1 0 0
vn 1 0 0
vn -0.5 -0.8662109 0
vn -0.5 -0.8662109 0
vn -0.5 -0.8662109 0
vn -0.5 -0.8662109 0
vn -0.5 0.8662109 0
vn -0.5 0.8662109 0
vn -0.5 0.8662109 0
vn -0.5 0.8662109 0
vn 0.5 0.8662109 0
vn 0.5 0.8662109 0
vn 0.5 0.8662109 0
vn 0.5 0.8662109 0
vn 0.5 -0.8662109 0
vn 0.5 -0.8662109 0
vn 0.5 -0.8662109 0
vn 0.5 -0.8662109 0
vn -1 0 0
vn -1 0 0
vn -1 0 0
vn -1 0 0
vn 1 0 0
vn 1 0 0
vn 1 0 0
vn 1 0 0
vn -0.5 -0.8662109 0
vn -0.5 -0.8662109 0
vn -0.5 -0.8662109 0
vn -0.5 -0.8662109 0
vn -0.5 0.8662109 0
vn -0.5 0.8662109 0
vn -0.5 0.8662109 0
vn -0.5 0.8662109 0
vn 0.5 0.8662109 0
vn 0.5 0.8662109 0
vn 0.5 0.8662109 0
vn 0.5 0.8662109 0
vn 0.5 -0.8662109 0
vn 0.5 -0.8662109 0
vn 0.5 -0.8662109 0
vn 0.5 -0.8662109 0
vn -1 0 0
vn -1 0 0
vn -1 0 0
vn -1 0 0
g Floor 19_0
f 3/3/3 2/2/2 1/1/1
f 4/4/4 3/3/3 1/1/1
f 4/4/4 1/1/1 5/5/5
f 4/4/4 6/6/6 3/3/3
f 7/7/7 4/4/4 5/5/5
f 6/6/6 8/8/8 3/3/3
f 9/9/9 8/8/8 6/6/6
f 10/10/10 9/9/9 6/6/6
f 10/10/10 6/6/6 11/11/11
f 7/7/7 5/5/5 12/12/12
f 13/13/13 10/10/10 11/11/11
f 14/14/14 7/7/7 12/12/12
f 11/11/11 7/7/7 14/14/14
f 14/14/14 12/12/12 15/15/15
f 13/13/13 11/11/11 16/16/16
f 16/16/16 11/11/11 14/14/14
f 17/17/17 13/13/13 16/16/16
f 18/18/18 14/14/14 15/15/15
f 17/17/17 16/16/16 19/19/19
f 18/18/18 15/15/15 20/20/20
f 21/21/21 17/17/17 19/19/19
f 22/22/22 18/18/18 20/20/20
f 19/19/19 18/18/18 22/22/22
f 22/22/22 20/20/20 23/23/23
f 21/21/21 19/19/19 24/24/24
f 24/24/24 19/19/19 22/22/22
f 25/25/25 21/21/21 24/24/24
f 26/26/26 22/22/22 23/23/23
f 24/24/24 22/22/22 26/26/26
f 26/26/26 23/23/23 27/27/27
f 28/28/28 26/26/26 27/27/27
f 28/28/28 27/27/27 29/29/29
f 30/30/30 24/24/24 26/26/26
f 25/25/25 24/24/24 30/30/30
f 31/31/31 25/25/25 30/30/30
f 31/31/31 30/30/30 32/32/32
f 33/33/33 31/31/31 32/32/32
f 34/34/34 28/28/28 29/29/29
f 33/33/33 32/32/32 35/35/35
f 36/36/36 33/33/33 35/35/35
f 34/34/34 29/29/29 37/37/37
f 35/35/35 38/38/38 34/34/34
f 38/38/38 39/39/39 34/34/34
f 36/36/36 35/35/35 40/40/40
f 41/41/41 34/34/34 37/37/37
f 41/41/41 37/37/37 42/42/42
f 43/43/43 41/41/41 42/42/42
f 40/40/40 41/41/41 43/43/43
f 44/44/44 36/36/36 40/40/40
f 45/45/45 40/40/40 43/43/43
f 44/44/44 40/40/40 45/45/45
f 46/46/46 44/44/44 45/45/45
f 49/49/49 48/48/48 47/47/47
f 50/50/50 49/49/49 47/47/47
f 53/53/53 52/52/52 51/51/51
f 54/54/54 53/53/53 51/51/51
f 55/55/55 53/53/53 54/54/54
f 56/56/56 55/55/55 54/54/54
f 57/57/57 55/55/55 56/56/56
f 58/58/58 57/57/57 56/56/56
f 59/59/59 57/57/57 58/58/58
f 60/60/60 59/59/59 58/58/58
f 61/61/61 59/59/59 60/60/60
f 62/62/62 61/61/61 60/60/60
f 63/63/63 61/61/61 62/62/62
f 64/64/64 63/63/63 62/62/62
f 65/65/65 63/63/63 64/64/64
f 66/66/66 65/65/65 64/64/64
f 67/67/67 65/65/65 66/66/66
f 68/68/68 67/67/67 66/66/66
f 69/69/69 67/67/67 68/68/68
f 70/70/70 69/69/69 68/68/68
f 71/71/71 69/69/69 70/70/70
f 72/72/72 71/71/71 70/70/70
f 73/73/73 71/71/71 72/72/72
f 74/74/74 73/73/73 72/72/72
f 75/75/75 73/73/73 74/74/74
f 76/76/76 75/75/75 74/74/74
f 77/77/77 75/75/75 76/76/76
f 78/78/78 77/77/77 76/76/76
f 79/79/79 77/77/77 78/78/78
f 80/80/80 79/79/79 78/78/78
f 81/81/81 79/79/79 80/80/80
f 82/82/82 81/81/81 80/80/80
f 83/83/83 81/81/81 82/82/82
f 84/84/84 83/83/83 82/82/82
f 85/85/85 83/83/83 84/84/84
f 86/86/86 85/85/85 84/84/84
f 87/87/87 85/85/85 86/86/86
f 88/88/88 87/87/87 86/86/86
f 89/89/89 87/87/87 88/88/88
f 90/90/90 89/89/89 88/88/88
f 91/91/91 89/89/89 90/90/90
f 92/92/92 91/91/91 90/90/90
f 93/93/93 91/91/91 92/92/92
f 94/94/94 93/93/93 92/92/92
f 95/95/95 93/93/93 94/94/94
f 96/96/96 95/95/95 94/94/94
f 97/97/97 95/95/95 96/96/96
f 98/98/98 97/97/97 96/96/96
f 99/99/99 97/97/97 98/98/98
f 100/100/100 99/99/99 98/98/98
f 101/101/101 99/99/99 100/100/100
f 102/102/102 101/101/101 100/100/100
f 103/103/103 101/101/101 102/102/102
f 51/51/51 103/103/103 102/102/102
f 106/106/106 105/105/105 104/104/104
f 107/107/107 106/106/106 104/104/104
f 110/110/110 109/109/109 108/108/108
f 111/111/111 110/110/110 108/108/108
f 114/114/114 113/113/113 112/112/112
f 115/115/115 114/114/114 112/112/112
f 118/118/118 117/117/117 116/116/116
f 119/119/119 118/118/118 116/116/116
f 122/122/122 121/121/121 120/120/120
f 123/123/123 122/122/122 120/120/120
f 126/126/126 125/125/125 124/124/124
f 127/127/127 126/126/126 124/124/124
f 130/130/130 129/129/129 128/128/128
f 131/131/131 130/130/130 128/128/128
f 134/134/134 133/133/133 132/132/132
f 135/135/135 134/134/134 132/132/132
f 138/138/138 137/137/137 136/136/136
f 139/139/139 138/138/138 136/136/136
f 142/142/142 141/141/141 140/140/140
f 143/143/143 142/142/142 140/140/140
f 146/146/146 145/145/145 144/144/144
f 147/147/147 146/146/146 144/144/144
f 150/150/150 149/149/149 148/148/148
f 151/151/151 150/150/150 148/148/148
f 154/154/154 153/153/153 152/152/152
f 155/155/155 154/154/154 152/152/152
f 158/158/158 157/157/157 156/156/156
f 159/159/159 158/158/158 156/156/156
f 162/162/162 161/161/161 160/160/160
f 163/163/163 162/162/162 160/160/160
f 166/166/166 165/165/165 164/164/164
f 167/167/167 166/166/166 164/164/164
f 170/170/170 169/169/169 168/168/168
f 171/171/171 170/170/170 168/168/168
f 174/174/174 173/173/173 172/172/172
f 175/175/175 174/174/174 172/172/172
f 178/178/178 177/177/177 176/176/176
f 179/179/179 178/178/178 176/176/176
f 182/182/182 181/181/181 180/180/180
f 183/183/183 182/182/182 180/180/180
f 186/186/186 185/185/185 184/184/184
f 187/187/187 186/186/186 184/184/184
f 190/190/190 189/189/189 188/188/188
f 191/191/191 190/190/190 188/188/188
f 194/194/194 193/193/193 192/192/192
f 195/195/195 194/194/194 192/192/192
f 198/198/198 197/197/197 196/196/196
f 199/199/199 198/198/198 196/196/196
f 202/202/202 201/201/201 200/200/200
f 203/203/203 202/202/202 200/200/200
f 206/206/206 205/205/205 204/204/204
f 207/207/207 206/206/206 204/204/204
f 210/210/210 209/209/209 208/208/208
f 211/211/211 210/210/210 208/208/208
f 214/214/214 213/213/213 212/212/212
f 215/215/215 214/214/214 212/212/212
f 218/218/218 217/217/217 216/216/216
f 219/219/219 218/218/218 216/216/216
f 222/222/222 221/221/221 220/220/220
f 223/223/223 222/222/222 220/220/220
f 226/226/226 225/225/225 224/224/224
f 227/227/227 226/226/226 224/224/224
f 230/230/230 229/229/229 228/228/228
f 231/231/231 230/230/230 228/228/228
