g Floor 20
v -0.3 0 0.3
v 0 0 0
v 0 0 0.3
v -0.3 0 0
v -0.7 0 0.3
v -0.7 0 0
v -1 0 0.3
v -1 0 0
v -0.3 0 1
v -0.3 0 0.7
v 0 0 0.7
v 0 0 1
v -0.3 0 0.7
v -0.3 0 0.3
v 0 0 0.3
v 0 0 0.7
v -1 0 0.7
v -1 0 0.3
v -0.7 0 0.3
v -0.7 0 0.7
v -0.3 0 0.3
v -0.3 0 0.7
v -1 0 1
v -1 0 0.7
v -0.7 0 0.7
v -0.7 0 1
v -0.7 0 1
v -0.7 0 0.7
v -0.3 0 0.7
v -0.3 0 1
vt 0.3066406 0.1777344
vt 0.3164063 0.1875
vt 0.3164063 0.1777344
vt 0.3066406 0.1875
vt 0.296875 0.1777344
vt 0.296875 0.1875
vt 0.2890625 0.1777344
vt 0.2890625 0.1875
vt 0.3066406 0.1601563
vt 0.3066406 0.1679688
vt 0.3164063 0.1679688
vt 0.3164063 0.1601563
vt 0.2929688 0.1738281
vt 0.2929688 0.1816406
vt 0.3027344 0.1816406
vt 0.3027344 0.1738281
vt 0.4335938 0.5507813
vt 0.4335938 0.5605469
vt 0.4414063 0.5605469
vt 0.4414063 0.5507813
vt 0.4511719 0.5605469
vt 0.4511719 0.5507813
vt 0.2890625 0.1601563
vt 0.2890625 0.1679688
vt 0.296875 0.1679688
vt 0.296875 0.1601563
vt 0.4277344 0.546875
vt 0.4277344 0.5566406
vt 0.4375 0.5566406
vt 0.4375 0.546875
vn 0 1 0
vn 0 1 0
vn 0 1 0
vn 0 1 0
vn 0 1 0
vn 0 1 0
vn 0 1 0
vn 0 1 0
vn 0 1 0
vn 0 1 0
vn 0 1 0
vn 0 1 0
vn 0 1 0
vn 0 1 0
vn 0 1 0
vn 0 1 0
vn 0 1 0
vn 0 1 0
vn 0 1 0
vn 0 1 0
vn 0 1 0
vn 0 1 0
vn 0 1 0
vn 0 1 0
vn 0 1 0
vn 0 1 0
vn 0 1 0
vn 0 1 0
vn 0 1 0
vn 0 1 0
g Floor 20_0
f 3/3/3 2/2/2 1/1/1
f 2/2/2 4/4/4 1/1/1
f 1/1/1 4/4/4 5/5/5
f 4/4/4 6/6/6 5/5/5
f 5/5/5 6/6/6 7/7/7
f 6/6/6 8/8/8 7/7/7
f 11/11/11 10/10/10 9/9/9
f 12/12/12 11/11/11 9/9/9
f 15/15/15 14/14/14 13/13/13
f 16/16/16 15/15/15 13/13/13
f 19/19/19 18/18/18 17/17/17
f 20/20/20 19/19/19 17/17/17
f 21/21/21 19/19/19 20/20/20
f 22/22/22 21/21/21 20/20/20
f 25/25/25 24/24/24 23/23/23
f 26/26/26 25/25/25 23/23/23
f 29/29/29 28/28/28 27/27/27
f 30/30/30 29/29/29 27/27/27
