g FX_Sphere_03
v -0.02169014 0.4120274 -0.3198839
v 0.4426297 0.07925536 -0.4594383
v 0.4010295 0.4223309 0.1231082
v 0.4426297 0.07925536 -0.4594383
v -0.02169014 0.4120274 -0.3198839
v -0.05516811 0.1781458 -0.6059937
v 0.4010295 0.4223309 0.1231082
v 0.4426297 0.07925536 -0.4594383
v 0.6079969 0.1260586 0.008223975
v 0.4457347 0.1029373 0.3937878
v 0.4010295 0.4223309 0.1231082
v 0.6079969 0.1260586 0.008223975
v -0.006224148 -0.4325757 0.4022405
v 0.4457347 0.1029373 0.3937878
v 0.4432548 -0.3988022 -0.03069316
v -0.4660958 0.3471633 -0.00204991
v -0.4243429 -3.222083E-05 0.4183311
v -0.6079969 -0.001939694 0.01148677
v -0.4441747 0.01446321 -0.4026245
v -0.3371393 -0.451203 -0.009995265
v -0.001898221 -0.337113 -0.5135714
v -0.4660958 0.3471633 -0.00204991
v -0.02169014 0.4120274 -0.3198839
v -0.02118969 0.4667073 0.3686751
v -0.4243429 -3.222083E-05 0.4183311
v -0.4660958 0.3471633 -0.00204991
v -0.02118969 0.4667073 0.3686751
v -0.4243429 -3.222083E-05 0.4183311
v -0.02118969 0.4667073 0.3686751
v 0.01247315 0.127075 0.603299
v -0.3371393 -0.451203 -0.009995265
v -0.006224148 -0.4325757 0.4022405
v 0.4432548 -0.3988022 -0.03069316
v -0.4243429 -3.222083E-05 0.4183311
v -0.3371393 -0.451203 -0.009995265
v -0.6079969 -0.001939694 0.01148677
v -0.4243429 -3.222083E-05 0.4183311
v 0.01247315 0.127075 0.603299
v -0.006224148 -0.4325757 0.4022405
v 0.4457347 0.1029373 0.3937878
v -0.006224148 -0.4325757 0.4022405
v 0.01247315 0.127075 0.603299
v 0.4457347 0.1029373 0.3937878
v 0.6079969 0.1260586 0.008223975
v 0.4432548 -0.3988022 -0.03069316
v 0.4426297 0.07925536 -0.4594383
v 0.4432548 -0.3988022 -0.03069316
v 0.6079969 0.1260586 0.008223975
v -0.001898221 -0.337113 -0.5135714
v 0.4426297 0.07925536 -0.4594383
v -0.05516811 0.1781458 -0.6059937
v -0.4441747 0.01446321 -0.4026245
v -0.001898221 -0.337113 -0.5135714
v -0.05516811 0.1781458 -0.6059937
v -0.4441747 0.01446321 -0.4026245
v -0.6079969 -0.001939694 0.01148677
v -0.3371393 -0.451203 -0.009995265
v -0.02169014 0.4120274 -0.3198839
v 0.4010295 0.4223309 0.1231082
v -0.02118969 0.4667073 0.3686751
v -0.4441747 0.01446321 -0.4026245
v -0.4660958 0.3471633 -0.00204991
v -0.6079969 -0.001939694 0.01148677
v -0.001898221 -0.337113 -0.5135714
v 0.4432548 -0.3988022 -0.03069316
v 0.4426297 0.07925536 -0.4594383
v -0.3371393 -0.451203 -0.009995265
v 0.4432548 -0.3988022 -0.03069316
v -0.001898221 -0.337113 -0.5135714
v -0.3371393 -0.451203 -0.009995265
v -0.4243429 -3.222083E-05 0.4183311
v -0.006224148 -0.4325757 0.4022405
v -0.02118969 0.4667073 0.3686751
v 0.4010295 0.4223309 0.1231082
v 0.4457347 0.1029373 0.3937878
v 0.01247315 0.127075 0.603299
v -0.4441747 0.01446321 -0.4026245
v -0.02169014 0.4120274 -0.3198839
v -0.4660958 0.3471633 -0.00204991
v -0.05516811 0.1781458 -0.6059937
vt 0.316949 0.3072462
vt 0.316949 0.3072462
vt 0.316949 0.3072462
vt 0.316949 0.3072462
vt 0.316949 0.3072462
vt 0.316949 0.3072462
vt 0.316949 0.3072462
vt 0.316949 0.3072462
vt 0.316949 0.3072462
vt 0.316949 0.3072462
vt 0.316949 0.3072462
vt 0.316949 0.3072462
vt 0.316949 0.3072462
vt 0.316949 0.3072462
vt 0.316949 0.3072462
vt 0.316949 0.3072462
vt 0.316949 0.3072462
vt 0.316949 0.3072462
vt 0.316949 0.3072462
vt 0.316949 0.3072462
vt 0.316949 0.3072462
vt 0.316949 0.3072462
vt 0.316949 0.3072462
vt 0.316949 0.3072462
vt 0.316949 0.3072462
vt 0.316949 0.3072462
vt 0.316949 0.3072462
vt 0.316949 0.3072462
vt 0.316949 0.3072462
vt 0.316949 0.3072462
vt 0.316949 0.3072462
vt 0.316949 0.3072462
vt 0.316949 0.3072462
vt 0.316949 0.3072462
vt 0.316949 0.3072462
vt 0.316949 0.3072462
vt 0.316949 0.3072462
vt 0.316949 0.3072462
vt 0.316949 0.3072462
vt 0.316949 0.3072462
vt 0.316949 0.3072462
vt 0.316949 0.3072462
vt 0.316949 0.3072462
vt 0.316949 0.3072462
vt 0.316949 0.3072462
vt 0.316949 0.3072462
vt 0.316949 0.3072462
vt 0.316949 0.3072462
vt 0.316949 0.3072462
vt 0.316949 0.3072462
vt 0.316949 0.3072462
vt 0.316949 0.3072462
vt 0.316949 0.3072462
vt 0.316949 0.3072462
vt 0.316949 0.3072462
vt 0.316949 0.3072462
vt 0.316949 0.3072462
vt 0.316949 0.3072462
vt 0.316949 0.3072462
vt 0.316949 0.3072462
vt 0.316949 0.3072462
vt 0.316949 0.3072462
vt 0.316949 0.3072462
vt 0.316949 0.3072462
vt 0.316949 0.3072462
vt 0.316949 0.3072462
vt 0.316949 0.3072462
vt 0.316949 0.3072462
vt 0.316949 0.3072462
vt 0.316949 0.3072462
vt 0.316949 0.3072462
vt 0.316949 0.3072462
vt 0.316949 0.3072462
vt 0.316949 0.3072462
vt 0.316949 0.3072462
vt 0.316949 0.3072462
vt 0.316949 0.3072462
vt 0.316949 0.3072462
vt 0.316949 0.3072462
vt 0.316949 0.3072462
vn 0.4351765 0.7890502 -0.4336141
vn 0.4351765 0.7890502 -0.4336141
vn 0.4351766 0.7890502 -0.4336141
vn 0.3245718 0.7133533 -0.621112
vn 0.3245718 0.7133533 -0.621112
vn 0.3245717 0.7133533 -0.621112
vn 0.7161065 0.6226025 -0.3155276
vn 0.7161065 0.6226025 -0.3155276
vn 0.7161064 0.6226025 -0.3155276
vn 0.822479 0.4303345 0.3719414
vn 0.822479 0.4303345 0.3719414
vn 0.822479 0.4303345 0.3719414
vn 0.6161067 -0.5105098 0.5998268
vn 0.6161067 -0.5105098 0.5998269
vn 0.6161067 -0.5105098 0.5998269
vn -0.850741 0.3606292 0.3823431
vn -0.850741 0.3606291 0.3823432
vn -0.850741 0.3606291 0.3823431
vn -0.6037114 -0.5904173 -0.5356678
vn -0.6037114 -0.5904173 -0.5356678
vn -0.6037114 -0.5904173 -0.5356678
vn -0.1980127 0.9771346 -0.07745228
vn -0.1980127 0.9771346 -0.07745228
vn -0.1980127 0.9771346 -0.07745226
vn -0.6071526 0.5819908 0.5409736
vn -0.6071526 0.5819908 0.5409736
vn -0.6071526 0.5819908 0.5409737
vn -0.4567176 0.4745511 0.7524695
vn -0.4567176 0.4745511 0.7524695
vn -0.4567176 0.4745511 0.7524695
vn 0.06676844 -0.9977322 -0.008513785
vn 0.06676844 -0.9977322 -0.008513785
vn 0.06676842 -0.9977322 -0.008513784
vn -0.7914178 -0.4943335 0.3595724
vn -0.7914178 -0.4943335 0.3595724
vn -0.7914178 -0.4943335 0.3595724
vn -0.2909448 -0.3148503 0.9034492
vn -0.2909448 -0.3148503 0.9034492
vn -0.2909448 -0.3148503 0.9034492
vn 0.3975601 -0.3219678 0.8592337
vn 0.3975602 -0.3219678 0.8592337
vn 0.3975601 -0.3219678 0.8592337
vn 0.8844976 -0.3038732 0.3540128
vn 0.8844976 -0.3038732 0.3540129
vn 0.8844976 -0.3038732 0.3540129
vn 0.9169472 -0.2657399 -0.2976411
vn 0.9169472 -0.2657399 -0.2976411
vn 0.9169472 -0.2657399 -0.2976411
vn 0.2527197 -0.1454486 -0.9565446
vn 0.2527197 -0.1454487 -0.9565446
vn 0.2527197 -0.1454486 -0.9565446
vn -0.3859236 -0.2013828 -0.9002821
vn -0.3859236 -0.2013828 -0.9002821
vn -0.3859236 -0.2013828 -0.9002821
vn -0.8124338 -0.4735457 -0.3401555
vn -0.8124339 -0.4735457 -0.3401555
vn -0.8124338 -0.4735456 -0.3401555
vn 0.05860498 0.9951449 -0.07906901
vn 0.05860498 0.9951449 -0.07906902
vn 0.05860499 0.9951449 -0.07906902
vn -0.8777606 0.34385 -0.3336218
vn -0.8777606 0.34385 -0.3336218
vn -0.8777606 0.34385 -0.3336218
vn 0.5819463 -0.5425435 -0.605793
vn 0.5819462 -0.5425435 -0.605793
vn 0.5819463 -0.5425435 -0.605793
vn 0.06108239 -0.981456 -0.1816944
vn 0.06108239 -0.981456 -0.1816944
vn 0.06108237 -0.981456 -0.1816944
vn -0.6068735 -0.6057754 0.5145295
vn -0.6068735 -0.6057754 0.5145297
vn -0.6068735 -0.6057754 0.5145296
vn 0.4172799 0.583694 0.6965477
vn 0.4172799 0.583694 0.6965477
vn 0.4172799 0.5836939 0.6965478
vn 0.4172799 0.583694 0.6965477
vn -0.5149945 0.660888 -0.5459008
vn -0.5186689 0.663421 -0.5393099
vn -0.5018618 0.6516817 -0.5687229
vn -0.5434521 0.6799635 -0.4922493
g FX_Sphere_03_0
f 3/3/3 2/2/2 1/1/1
f 6/6/6 5/5/5 4/4/4
f 9/9/9 8/8/8 7/7/7
f 12/12/12 11/11/11 10/10/10
f 15/15/15 14/14/14 13/13/13
f 18/18/18 17/17/17 16/16/16
f 21/21/21 20/20/20 19/19/19
f 24/24/24 23/23/23 22/22/22
f 27/27/27 26/26/26 25/25/25
f 30/30/30 29/29/29 28/28/28
f 33/33/33 32/32/32 31/31/31
f 36/36/36 35/35/35 34/34/34
f 39/39/39 38/38/38 37/37/37
f 42/42/42 41/41/41 40/40/40
f 45/45/45 44/44/44 43/43/43
f 48/48/48 47/47/47 46/46/46
f 51/51/51 50/50/50 49/49/49
f 54/54/54 53/53/53 52/52/52
f 57/57/57 56/56/56 55/55/55
f 60/60/60 59/59/59 58/58/58
f 63/63/63 62/62/62 61/61/61
f 66/66/66 65/65/65 64/64/64
f 69/69/69 68/68/68 67/67/67
f 72/72/72 71/71/71 70/70/70
f 75/75/75 74/74/74 73/73/73
f 76/76/76 75/75/75 73/73/73
f 79/79/79 78/78/78 77/77/77
f 80/80/80 77/77/77 78/78/78
