g IL_ArmChair
v 0.5325287 0 -0.6
v 0.6115479 0 -0.6
v 0.6115479 0.3999999 -0.6
v 0.5325287 0.3999999 -0.6
v 0 0 -0.6
v 0.6115479 1 -0.6
v 0 0.3999999 -0.6
v 0.5325287 1 -0.6
v 0 1 -0.6
v 0.5325287 0 0.5
v 0 0 0.5
v 0 0.3341046 0.5
v 0.4850762 0.3341046 0.5
v 0.6115479 0 0.5
v 0.6115479 0.3341046 0.5
v 0.6115479 0.6215004 0.5
v 0.4850762 0.3999999 0.4341046
v 0.4850762 0.6215004 0.5
v 0.4850762 0.6873959 0.4341046
v 0.6115479 0.6873959 0.4341046
v 0.4850762 0.6873959 -0.35
v 0.6115479 0.6873959 -0.35
v 0 0.3999999 0.4341046
v 0.4850762 0.3999999 -0.35
v 0 0.3999999 -0.35
v -0.4850762 0.3999999 -0.35
v -0.4850762 0.3999999 0.4341046
v 0.5325287 1 -0.6
v 0.6115479 1 -0.6
v 0.6115479 1 -0.4107513
v 0.5325287 1 -0.4107513
v 0.6115479 0.9392487 -0.35
v 0 1 -0.4107513
v 0 1 -0.6
v -0.5325287 1 -0.6
v -0.5325287 1 -0.4107513
v 0 0.9392487 -0.35
v 0.5325287 0.9392487 -0.35
v 0.6115479 0.6873959 -0.35
v 0 0.3999999 -0.35
v 0.4850762 0.6873959 -0.35
v 0.4850762 0.3999999 -0.35
v -0.6115479 1 -0.4107513
v -0.6115479 1 -0.6
v -0.5325287 1 -0.4107513
v -0.6115479 0.9392487 -0.35
v -0.5325287 0.9392487 -0.35
v -0.6115479 0.6873959 -0.35
v -0.4850762 0.6873959 -0.35
v 0 0.9392487 -0.35
v 0 1 -0.4107513
v 0 0.3999999 -0.35
v -0.4850762 0.3999999 -0.35
v 0.6115479 0.9392487 -0.35
v 0.6115479 1 -0.4107513
v 0.6115479 1 -0.6
v 0.6115479 0.6873959 -0.35
v 0.6115479 0.3999999 -0.6
v 0.6115479 0.3999999 -0.35
v 0.6115479 0 -0.6
v 0.6115479 0 -0.35
v 0.6115479 0 0.5
v 0.6115479 0.3341046 0.5
v 0.6115479 0.3999999 0.4341046
v 0.6115479 0.6873959 0.4341046
v 0.6115479 0.6215004 0.5
v 0.4850762 0.3999999 -0.35
v 0.4850762 0.6873959 -0.35
v 0.4850762 0.6873959 0.4341046
v 0.4850762 0.3999999 0.4341046
v 0.4850762 0.6215004 0.5
v 0.4850762 0.3341046 0.5
v 0.5325287 0 0.5
v 0.6115479 0 0.5
v 0.6115479 0 -0.35
v 0.5325287 0 -0.35
v 0.6115479 0 -0.6
v 0.5325287 0 -0.6
v 0 0 -0.6
v 0 0 -0.35
v 0 0 0.5
v -0.5325287 0 0.5
v -0.5325287 0 -0.35
v -0.5325287 0 -0.6
v -0.6115479 0 -0.6
v -0.6115479 0 -0.35
v -0.6115479 0 0.5
v -0.5325287 0 -0.6
v -0.6115479 0.3999999 -0.6
v -0.6115479 0 -0.6
v -0.5325287 0.3999999 -0.6
v 0 0 -0.6
v -0.6115479 1 -0.6
v 0 0.3999999 -0.6
v -0.5325287 1 -0.6
v 0 1 -0.6
v -0.4850762 0.3999999 0.4341046
v 0 0.3999999 0.4341046
v 0 0.3341046 0.5
v -0.4850762 0.3341046 0.5
v -0.5325287 0 0.5
v 0 0 0.5
v -0.6115479 0 0.5
v -0.6115479 0.3341046 0.5
v -0.6115479 0.6215004 0.5
v -0.4850762 0.6215004 0.5
v -0.4850762 0.6873959 0.4341046
v -0.6115479 0.6873959 0.4341046
v -0.4850762 0.6873959 -0.35
v -0.6115479 0.6873959 -0.35
v -0.6115479 0.3341046 0.5
v -0.6115479 0 0.5
v -0.6115479 0 -0.35
v -0.6115479 0.3999999 -0.35
v -0.6115479 0 -0.6
v -0.6115479 0.3999999 -0.6
v -0.6115479 0.6873959 -0.35
v -0.6115479 1 -0.6
v -0.6115479 0.9392487 -0.35
v -0.6115479 1 -0.4107513
v -0.6115479 0.3999999 0.4341046
v -0.6115479 0.6873959 0.4341046
v -0.6115479 0.6215004 0.5
v -0.4850762 0.3999999 -0.35
v -0.4850762 0.6873959 0.4341046
v -0.4850762 0.6873959 -0.35
v -0.4850762 0.3999999 0.4341046
v -0.4850762 0.6215004 0.5
v -0.4850762 0.3341046 0.5
v -0.6027272 0.6129205 -0.3626122
v -0.6410844 0.6129205 -0.3626122
v -0.6410844 0.6129205 0.4214924
v -0.6027272 0.6129205 0.4214924
v -0.6027272 0.6510395 -0.3626122
v -0.6410844 0.6510395 0.4214924
v -0.6410844 0.6510395 -0.3626122
v -0.6027272 0.6510395 0.4214924
v -0.6410844 0.6510395 0.4568292
v -0.6027272 0.6510395 0.4568292
v -0.6410844 0.6129205 0.4214924
v -0.6410844 0.06375778 0.4214924
v -0.6027272 0.06375778 0.4214924
v -0.6027272 0.6129205 0.4214924
v -0.6027272 0.6129205 0.4214924
v -0.6027272 0.6510395 -0.3626122
v -0.6027272 0.6129205 -0.3626122
v -0.6027272 0.6510395 0.4214924
v -0.6027272 0.6510395 0.4568292
v -0.6027272 0.6129205 0.4568292
v -0.6027272 0.06375778 0.4568292
v -0.6027272 0.06375778 0.4214924
v -0.6027272 0.6129205 -0.3626122
v -0.6027272 0.6510395 -0.3626122
v -0.6410844 0.6510395 -0.3626122
v -0.6410844 0.6129205 -0.3626122
v -0.6410844 0.6129205 -0.3626122
v -0.6410844 0.6510395 -0.3626122
v -0.6410844 0.6510395 0.4214924
v -0.6410844 0.6129205 0.4214924
v -0.6410844 0.6129205 0.4568292
v -0.6410844 0.6510395 0.4568292
v -0.6410844 0.06375778 0.4214924
v -0.6410844 0.06375778 0.4568292
v -0.6410844 0.6129205 0.4568292
v -0.6410844 0.6510395 0.4568292
v -0.6027272 0.6510395 0.4568292
v -0.6027272 0.6129205 0.4568292
v -0.6410844 0.06375778 0.4568292
v -0.6027272 0.06375778 0.4568292
v -0.6410844 0.06375778 0.4214924
v -0.6410844 0.06375778 0.4568292
v -0.6027272 0.06375778 0.4568292
v -0.6027272 0.06375778 0.4214924
v 0.6368395 0.6129205 -0.3626122
v 0.5984824 0.6129205 -0.3626122
v 0.5984824 0.6129205 0.4214924
v 0.6368395 0.6129205 0.4214924
v 0.6368395 0.6510395 -0.3626122
v 0.5984824 0.6510395 0.4214924
v 0.5984824 0.6510395 -0.3626122
v 0.6368395 0.6510395 0.4214924
v 0.5984824 0.6510395 0.4568292
v 0.6368395 0.6510395 0.4568292
v 0.5984824 0.6129205 0.4214924
v 0.5984824 0.06375778 0.4214924
v 0.6368395 0.06375778 0.4214924
v 0.6368395 0.6129205 0.4214924
v 0.6368395 0.6129205 0.4214924
v 0.6368395 0.6510395 -0.3626122
v 0.6368395 0.6129205 -0.3626122
v 0.6368395 0.6510395 0.4214924
v 0.6368395 0.6510395 0.4568292
v 0.6368395 0.6129205 0.4568292
v 0.6368395 0.06375778 0.4568292
v 0.6368395 0.06375778 0.4214924
v 0.6368395 0.6129205 -0.3626122
v 0.6368395 0.6510395 -0.3626122
v 0.5984824 0.6510395 -0.3626122
v 0.5984824 0.6129205 -0.3626122
v 0.5984824 0.6129205 -0.3626122
v 0.5984824 0.6510395 -0.3626122
v 0.5984824 0.6510395 0.4214924
v 0.5984824 0.6129205 0.4214924
v 0.5984824 0.6129205 0.4568292
v 0.5984824 0.6510395 0.4568292
v 0.5984824 0.06375778 0.4214924
v 0.5984824 0.06375778 0.4568292
v 0.5984824 0.6129205 0.4568292
v 0.5984824 0.6510395 0.4568292
v 0.6368395 0.6510395 0.4568292
v 0.6368395 0.6129205 0.4568292
v 0.5984824 0.06375778 0.4568292
v 0.6368395 0.06375778 0.4568292
v 0.5984824 0.06375778 0.4214924
v 0.5984824 0.06375778 0.4568292
v 0.6368395 0.06375778 0.4568292
v 0.6368395 0.06375778 0.4214924
vt 0.1360252 0.8030661
vt 0.1390923 0.8030661
vt 0.1390923 0.853408
vt 0.1360252 0.853408
vt 0.1153553 0.8030661
vt 0.1390923 0.9289209
vt 0.1153553 0.853408
vt 0.1360252 0.9289209
vt 0.1153553 0.9289209
vt 0.1360252 0.8030661
vt 0.1153553 0.8030661
vt 0.1153553 0.8451148
vt 0.1356209 0.8451148
vt 0.1390923 0.8030661
vt 0.1390923 0.8451148
vt 0.1390923 0.881285
vt 0.1356209 0.853408
vt 0.1356209 0.881285
vt 0.1356209 0.8895781
vt 0.1390923 0.8895781
vt 0.1356209 0.8895781
vt 0.1390923 0.8895781
vt 0.1153553 0.853408
vt 0.1356209 0.853408
vt 0.1153553 0.853408
vt 0.1356209 0.853408
vt 0.1356209 0.853408
vt 0.1360252 0.9289209
vt 0.1390923 0.9289209
vt 0.1390923 0.9289209
vt 0.1360252 0.9289209
vt 0.1390923 0.921275
vt 0.1153553 0.9289209
vt 0.1153553 0.9289209
vt 0.1360252 0.9289209
vt 0.1360252 0.9289209
vt 0.1153553 0.921275
vt 0.1360252 0.921275
vt 0.1390923 0.8895781
vt 0.1153553 0.853408
vt 0.1356209 0.8895781
vt 0.1356209 0.853408
vt 0.1390923 0.9289209
vt 0.1390923 0.9289209
vt 0.1360252 0.9289209
vt 0.1390923 0.921275
vt 0.1360252 0.921275
vt 0.1390923 0.8895781
vt 0.1356209 0.8895781
vt 0.1153553 0.921275
vt 0.1153553 0.9289209
vt 0.1153553 0.853408
vt 0.1356209 0.853408
vt 0.1390923 0.921275
vt 0.1390923 0.9289209
vt 0.1390923 0.9289209
vt 0.1390923 0.8895781
vt 0.1390923 0.853408
vt 0.1390923 0.853408
vt 0.1390923 0.8030661
vt 0.1390923 0.8030661
vt 0.1390923 0.8030661
vt 0.1390923 0.8451148
vt 0.1390923 0.853408
vt 0.1390923 0.8895781
vt 0.1390923 0.881285
vt 0.1356209 0.853408
vt 0.1356209 0.8895781
vt 0.1356209 0.8895781
vt 0.1356209 0.853408
vt 0.1356209 0.881285
vt 0.1356209 0.8451148
vt 0.1360252 0.8030661
vt 0.1390923 0.8030661
vt 0.1390923 0.8030661
vt 0.1360252 0.8030661
vt 0.1390923 0.8030661
vt 0.1360252 0.8030661
vt 0.1153553 0.8030661
vt 0.1153553 0.8030661
vt 0.1153553 0.8030661
vt 0.1360252 0.8030661
vt 0.1360252 0.8030661
vt 0.1360252 0.8030661
vt 0.1390923 0.8030661
vt 0.1390923 0.8030661
vt 0.1390923 0.8030661
vt 0.1360252 0.8030661
vt 0.1390923 0.853408
vt 0.1390923 0.8030661
vt 0.1360252 0.853408
vt 0.1153553 0.8030661
vt 0.1390923 0.9289209
vt 0.1153553 0.853408
vt 0.1360252 0.9289209
vt 0.1153553 0.9289209
vt 0.1356209 0.853408
vt 0.1153553 0.853408
vt 0.1153553 0.8451148
vt 0.1356209 0.8451148
vt 0.1360252 0.8030661
vt 0.1153553 0.8030661
vt 0.1390923 0.8030661
vt 0.1390923 0.8451148
vt 0.1390923 0.881285
vt 0.1356209 0.881285
vt 0.1356209 0.8895781
vt 0.1390923 0.8895781
vt 0.1356209 0.8895781
vt 0.1390923 0.8895781
vt 0.1390923 0.8451148
vt 0.1390923 0.8030661
vt 0.1390923 0.8030661
vt 0.1390923 0.853408
vt 0.1390923 0.8030661
vt 0.1390923 0.853408
vt 0.1390923 0.8895781
vt 0.1390923 0.9289209
vt 0.1390923 0.921275
vt 0.1390923 0.9289209
vt 0.1390923 0.853408
vt 0.1390923 0.8895781
vt 0.1390923 0.881285
vt 0.1356209 0.853408
vt 0.1356209 0.8895781
vt 0.1356209 0.8895781
vt 0.1356209 0.853408
vt 0.1356209 0.881285
vt 0.1356209 0.8451148
vt 0.2684334 0.9696562
vt 0.2719048 0.9696562
vt 0.2719048 0.9696562
vt 0.2684334 0.9696562
vt 0.2684334 0.9696562
vt 0.2719048 0.9696562
vt 0.2719048 0.9696562
vt 0.2684334 0.9696562
vt 0.2719048 0.9696562
vt 0.2684334 0.9696562
vt 0.2719048 0.9696562
vt 0.2719048 0.9696562
vt 0.2684334 0.9696562
vt 0.2684334 0.9696562
vt 0.2684334 0.9696562
vt 0.2684334 0.9696562
vt 0.2684334 0.9696562
vt 0.2684334 0.9696562
vt 0.2684334 0.9696562
vt 0.2684334 0.9696562
vt 0.2684334 0.9696562
vt 0.2684334 0.9696562
vt 0.2684334 0.9696562
vt 0.2684334 0.9696562
vt 0.2719048 0.9696562
vt 0.2719048 0.9696562
vt 0.2719048 0.9696562
vt 0.2719048 0.9696562
vt 0.2719048 0.9696562
vt 0.2719048 0.9696562
vt 0.2719048 0.9696562
vt 0.2719048 0.9696562
vt 0.2719048 0.9696562
vt 0.2719048 0.9696562
vt 0.2719048 0.9696562
vt 0.2719048 0.9696562
vt 0.2684334 0.9696562
vt 0.2684334 0.9696562
vt 0.2719048 0.9696562
vt 0.2684334 0.9696562
vt 0.2719048 0.9696562
vt 0.2719048 0.9696562
vt 0.2684334 0.9696562
vt 0.2684334 0.9696562
vt 0.2684334 0.9696562
vt 0.2719048 0.9696562
vt 0.2719048 0.9696562
vt 0.2684334 0.9696562
vt 0.2684334 0.9696562
vt 0.2719048 0.9696562
vt 0.2719048 0.9696562
vt 0.2684334 0.9696562
vt 0.2719048 0.9696562
vt 0.2684334 0.9696562
vt 0.2719048 0.9696562
vt 0.2719048 0.9696562
vt 0.2684334 0.9696562
vt 0.2684334 0.9696562
vt 0.2684334 0.9696562
vt 0.2684334 0.9696562
vt 0.2684334 0.9696562
vt 0.2684334 0.9696562
vt 0.2684334 0.9696562
vt 0.2684334 0.9696562
vt 0.2684334 0.9696562
vt 0.2684334 0.9696562
vt 0.2684334 0.9696562
vt 0.2684334 0.9696562
vt 0.2719048 0.9696562
vt 0.2719048 0.9696562
vt 0.2719048 0.9696562
vt 0.2719048 0.9696562
vt 0.2719048 0.9696562
vt 0.2719048 0.9696562
vt 0.2719048 0.9696562
vt 0.2719048 0.9696562
vt 0.2719048 0.9696562
vt 0.2719048 0.9696562
vt 0.2719048 0.9696562
vt 0.2719048 0.9696562
vt 0.2684334 0.9696562
vt 0.2684334 0.9696562
vt 0.2719048 0.9696562
vt 0.2684334 0.9696562
vt 0.2719048 0.9696562
vt 0.2719048 0.9696562
vt 0.2684334 0.9696562
vt 0.2684334 0.9696562
vn 0 0 -1
vn 0 0 -1
vn 0 0 -1
vn 0 0 -1
vn 0 0 -1
vn 0 0 -1
vn 0 0 -1
vn 0 0 -1
vn 0 0 -1
vn 0 0 1
vn 0 0 1
vn 0 0.3826835 0.9238795
vn 0 0.1873656 0.9822902
vn 0 0 1
vn 0 0 1
vn 0 0.3826833 0.9238795
vn 0 0.9238795 0.3826833
vn 0 0.3826833 0.9238795
vn 3.252875E-07 0.9238794 0.3826835
vn 3.252875E-07 0.9238794 0.3826835
vn 6.010528E-07 1 0
vn 6.010528E-07 1 0
vn 0 0.9238795 0.3826833
vn 0 1 0
vn 0 1 0
vn 0 1 0
vn 0 0.9238795 0.3826833
vn 0 1 0
vn 0 1 0
vn 0 0.9238794 0.3826835
vn 0 0.9238795 0.3826835
vn 0 0.3826833 0.9238795
vn 0 0.9238795 0.3826834
vn 0 1 0
vn 0 1 0
vn 0 0.9238795 0.3826834
vn 0 0.3826834 0.9238795
vn 0 0.3826834 0.9238795
vn -1.450299E-07 0 1
vn 0 0 1
vn 0 0 1
vn 0 0 1
vn 0 0.9238794 0.3826835
vn 0 1 0
vn 0 0.9238795 0.3826834
vn 0 0.3826833 0.9238795
vn 0 0.3826834 0.9238795
vn 1.450299E-07 0 1
vn 0 0 1
vn 0 0.3826834 0.9238795
vn 0 0.9238795 0.3826834
vn 0 0 1
vn 0 0 1
vn 1 0 0
vn 1 0 0
vn 1 0 0
vn 1 0 0
vn 1 0 0
vn 1 0 0
vn 1 0 0
vn 1 0 0
vn 1 0 0
vn 1 0 0
vn 1 0 0
vn 1 0 0
vn 1 0 1.967091E-07
vn -1 0 0
vn -1 0 0
vn -1 0 -1.311394E-07
vn -1 0 -2.360509E-07
vn -1 0 -3.934182E-07
vn -1 0 -3.934182E-07
vn 0 -1 0
vn 0 -1 0
vn 0 -1 0
vn 0 -1 0
vn 0 -1 0
vn 0 -1 0
vn 0 -1 0
vn 0 -1 0
vn 0 -1 0
vn 0 -1 0
vn 0 -1 0
vn 0 -1 0
vn 0 -1 0
vn 0 -1 0
vn 0 -1 0
vn 0 0 -1
vn 0 0 -1
vn 0 0 -1
vn 0 0 -1
vn 0 0 -1
vn 0 0 -1
vn 0 0 -1
vn 0 0 -1
vn 0 0 -1
vn 0 0.9238795 0.3826833
vn 0 0.9238795 0.3826833
vn 0 0.3826835 0.9238795
vn 0 0.1873656 0.9822902
vn 0 0 1
vn 0 0 1
vn 0 0 1
vn 0 0 1
vn 0 0.3826833 0.9238795
vn 0 0.3826833 0.9238795
vn -3.252875E-07 0.9238794 0.3826835
vn -3.252875E-07 0.9238794 0.3826835
vn -6.010528E-07 1 0
vn -6.010528E-07 1 0
vn -1 0 0
vn -1 0 0
vn -1 0 0
vn -1 0 0
vn -1 0 0
vn -1 0 0
vn -1 0 0
vn -1 0 0
vn -1 0 0
vn -1 0 0
vn -1 0 0
vn -1 0 0
vn -1 0 0
vn 1 0 0
vn 1 0 -2.622787E-07
vn 1 0 0
vn 1 0 -4.721018E-07
vn 1 0 -7.868364E-07
vn 1 0 -7.868364E-07
vn 0 -1 0
vn 0 -1 0
vn 0 -1 0
vn 0 -1 0
vn 0 1 0
vn 0 1 0
vn 0 1 0
vn 0 1 0
vn 0 1 0
vn 0 1 0
vn 0 0 -1
vn 0 0 -1
vn 0 0 -1
vn 0 0 -1
vn 1 0 0
vn 1 0 0
vn 1 0 0
vn 1 0 0
vn 1 0 0
vn 1 0 0
vn 1 0 0
vn 1 0 0
vn 0 0 -1
vn 0 0 -1
vn 0 0 -1
vn 0 0 -1
vn -1 0 0
vn -1 0 0
vn -1 0 0
vn -1 0 0
vn -1 0 0
vn -1 0 0
vn -1 0 0
vn -1 0 0
vn 0 0 1
vn 0 0 1
vn 0 0 1
vn 0 0 1
vn 0 0 1
vn 0 0 1
vn 0 -1 0
vn 0 -1 0
vn 0 -1 0
vn 0 -1 0
vn 0 -1 0
vn 0 -1 0
vn 0 -1 0
vn 0 -1 0
vn 0 1 0
vn 0 1 0
vn 0 1 0
vn 0 1 0
vn 0 1 0
vn 0 1 0
vn 0 0 -1
vn 0 0 -1
vn 0 0 -1
vn 0 0 -1
vn 1 0 0
vn 1 0 0
vn 1 0 0
vn 1 0 0
vn 1 0 0
vn 1 0 0
vn 1 0 0
vn 1 0 0
vn 0 0 -1
vn 0 0 -1
vn 0 0 -1
vn 0 0 -1
vn -1 0 0
vn -1 0 0
vn -1 0 0
vn -1 0 0
vn -1 0 0
vn -1 0 0
vn -1 0 0
vn -1 0 0
vn 0 0 1
vn 0 0 1
vn 0 0 1
vn 0 0 1
vn 0 0 1
vn 0 0 1
vn 0 -1 0
vn 0 -1 0
vn 0 -1 0
vn 0 -1 0
g IL_ArmChair_0
f 3/3/3 2/2/2 1/1/1
f 4/4/4 3/3/3 1/1/1
f 4/4/4 1/1/1 5/5/5
f 6/6/6 3/3/3 4/4/4
f 7/7/7 4/4/4 5/5/5
f 8/8/8 6/6/6 4/4/4
f 7/7/7 9/9/9 4/4/4
f 9/9/9 8/8/8 4/4/4
f 12/12/12 11/11/11 10/10/10
f 13/13/13 12/12/12 10/10/10
f 10/10/10 14/14/14 13/13/13
f 14/14/14 15/15/15 13/13/13
f 15/15/15 16/16/16 13/13/13
f 12/12/12 13/13/13 17/17/17
f 16/16/16 18/18/18 13/13/13
f 18/18/18 16/16/16 19/19/19
f 16/16/16 20/20/20 19/19/19
f 19/19/19 20/20/20 21/21/21
f 20/20/20 22/22/22 21/21/21
f 23/23/23 12/12/12 17/17/17
f 23/23/23 17/17/17 24/24/24
f 25/25/25 23/23/23 24/24/24
f 23/23/23 25/25/25 26/26/26
f 27/27/27 23/23/23 26/26/26
f 30/30/30 29/29/29 28/28/28
f 31/31/31 30/30/30 28/28/28
f 32/32/32 30/30/30 31/31/31
f 33/33/33 31/31/31 28/28/28
f 34/34/34 33/33/33 28/28/28
f 33/33/33 34/34/34 35/35/35
f 36/36/36 33/33/33 35/35/35
f 31/31/31 33/33/33 37/37/37
f 38/38/38 32/32/32 31/31/31
f 38/38/38 31/31/31 37/37/37
f 39/39/39 32/32/32 38/38/38
f 38/38/38 37/37/37 40/40/40
f 41/41/41 39/39/39 38/38/38
f 41/41/41 38/38/38 40/40/40
f 40/40/40 42/42/42 41/41/41
f 44/44/44 43/43/43 35/35/35
f 43/43/43 45/45/45 35/35/35
f 43/43/43 46/46/46 45/45/45
f 46/46/46 47/47/47 45/45/45
f 46/46/46 48/48/48 47/47/47
f 48/48/48 49/49/49 47/47/47
f 45/45/45 47/47/47 50/50/50
f 51/51/51 45/45/45 50/50/50
f 50/50/50 47/47/47 52/52/52
f 47/47/47 49/49/49 52/52/52
f 53/53/53 52/52/52 49/49/49
f 56/56/56 55/55/55 54/54/54
f 56/56/56 54/54/54 57/57/57
f 57/57/57 58/58/58 56/56/56
f 58/58/58 57/57/57 59/59/59
f 58/58/58 59/59/59 60/60/60
f 59/59/59 61/61/61 60/60/60
f 62/62/62 61/61/61 59/59/59
f 59/59/59 63/63/63 62/62/62
f 59/59/59 57/57/57 64/64/64
f 59/59/59 64/64/64 63/63/63
f 57/57/57 65/65/65 64/64/64
f 64/64/64 65/65/65 63/63/63
f 65/65/65 66/66/66 63/63/63
f 69/69/69 68/68/68 67/67/67
f 70/70/70 69/69/69 67/67/67
f 71/71/71 69/69/69 70/70/70
f 72/72/72 71/71/71 70/70/70
f 75/75/75 74/74/74 73/73/73
f 76/76/76 75/75/75 73/73/73
f 77/77/77 75/75/75 76/76/76
f 78/78/78 77/77/77 76/76/76
f 78/78/78 76/76/76 79/79/79
f 76/76/76 73/73/73 80/80/80
f 76/76/76 80/80/80 79/79/79
f 73/73/73 81/81/81 80/80/80
f 81/81/81 82/82/82 80/80/80
f 80/80/80 83/83/83 79/79/79
f 82/82/82 83/83/83 80/80/80
f 83/83/83 84/84/84 79/79/79
f 85/85/85 84/84/84 83/83/83
f 86/86/86 85/85/85 83/83/83
f 86/86/86 83/83/83 82/82/82
f 87/87/87 86/86/86 82/82/82
f 90/90/90 89/89/89 88/88/88
f 89/89/89 91/91/91 88/88/88
f 88/88/88 91/91/91 92/92/92
f 89/89/89 93/93/93 91/91/91
f 91/91/91 94/94/94 92/92/92
f 93/93/93 95/95/95 91/91/91
f 96/96/96 94/94/94 91/91/91
f 95/95/95 96/96/96 91/91/91
f 99/99/99 98/98/98 97/97/97
f 100/100/100 99/99/99 97/97/97
f 99/99/99 100/100/100 101/101/101
f 102/102/102 99/99/99 101/101/101
f 103/103/103 101/101/101 100/100/100
f 104/104/104 103/103/103 100/100/100
f 105/105/105 104/104/104 100/100/100
f 106/106/106 105/105/105 100/100/100
f 105/105/105 106/106/106 107/107/107
f 108/108/108 105/105/105 107/107/107
f 108/108/108 107/107/107 109/109/109
f 110/110/110 108/108/108 109/109/109
f 113/113/113 112/112/112 111/111/111
f 111/111/111 114/114/114 113/113/113
f 113/113/113 114/114/114 115/115/115
f 114/114/114 116/116/116 115/115/115
f 117/117/117 116/116/116 114/114/114
f 118/118/118 116/116/116 117/117/117
f 117/117/117 119/119/119 118/118/118
f 119/119/119 120/120/120 118/118/118
f 117/117/117 114/114/114 121/121/121
f 111/111/111 121/121/121 114/114/114
f 122/122/122 117/117/117 121/121/121
f 122/122/122 121/121/121 111/111/111
f 123/123/123 122/122/122 111/111/111
f 126/126/126 125/125/125 124/124/124
f 125/125/125 127/127/127 124/124/124
f 125/125/125 128/128/128 127/127/127
f 128/128/128 129/129/129 127/127/127
f 132/132/132 131/131/131 130/130/130
f 133/133/133 132/132/132 130/130/130
f 136/136/136 135/135/135 134/134/134
f 135/135/135 137/137/137 134/134/134
f 135/135/135 138/138/138 137/137/137
f 138/138/138 139/139/139 137/137/137
f 142/142/142 141/141/141 140/140/140
f 143/143/143 142/142/142 140/140/140
f 146/146/146 145/145/145 144/144/144
f 145/145/145 147/147/147 144/144/144
f 147/147/147 148/148/148 144/144/144
f 148/148/148 149/149/149 144/144/144
f 149/149/149 150/150/150 144/144/144
f 150/150/150 151/151/151 144/144/144
f 154/154/154 153/153/153 152/152/152
f 155/155/155 154/154/154 152/152/152
f 158/158/158 157/157/157 156/156/156
f 159/159/159 158/158/158 156/156/156
f 159/159/159 160/160/160 158/158/158
f 160/160/160 161/161/161 158/158/158
f 159/159/159 162/162/162 160/160/160
f 162/162/162 163/163/163 160/160/160
f 166/166/166 165/165/165 164/164/164
f 167/167/167 166/166/166 164/164/164
f 164/164/164 168/168/168 167/167/167
f 168/168/168 169/169/169 167/167/167
f 172/172/172 171/171/171 170/170/170
f 173/173/173 172/172/172 170/170/170
f 176/176/176 175/175/175 174/174/174
f 177/177/177 176/176/176 174/174/174
f 180/180/180 179/179/179 178/178/178
f 179/179/179 181/181/181 178/178/178
f 179/179/179 182/182/182 181/181/181
f 182/182/182 183/183/183 181/181/181
f 186/186/186 185/185/185 184/184/184
f 187/187/187 186/186/186 184/184/184
f 190/190/190 189/189/189 188/188/188
f 189/189/189 191/191/191 188/188/188
f 191/191/191 192/192/192 188/188/188
f 192/192/192 193/193/193 188/188/188
f 193/193/193 194/194/194 188/188/188
f 194/194/194 195/195/195 188/188/188
f 198/198/198 197/197/197 196/196/196
f 199/199/199 198/198/198 196/196/196
f 202/202/202 201/201/201 200/200/200
f 203/203/203 202/202/202 200/200/200
f 203/203/203 204/204/204 202/202/202
f 204/204/204 205/205/205 202/202/202
f 203/203/203 206/206/206 204/204/204
f 206/206/206 207/207/207 204/204/204
f 210/210/210 209/209/209 208/208/208
f 211/211/211 210/210/210 208/208/208
f 208/208/208 212/212/212 211/211/211
f 212/212/212 213/213/213 211/211/211
f 216/216/216 215/215/215 214/214/214
f 217/217/217 216/216/216 214/214/214
