g IL_BrokenGlass_Part1_sh_5
v -0.5911617 -0.4535176 0.15
v -0.2011744 -0.05607283 0.15
v -0.6542925 -0.4739232 0.09690264
v -0.2442353 -0.05602455 0.09690264
v -0.580762 0.4975379 0.15
v -0.6542925 -0.4739232 -0.09955753
v -0.6433577 0.5260767 0.09690264
v -0.2349734 0.8145565 0.15
v -0.5963903 -0.4552077 -0.15
v -0.2442353 -0.05602455 -0.09955753
v -0.6433577 0.5260767 -0.09955753
v -0.2797736 0.8594102 0.09690264
v -0.2797736 0.8594102 -0.09955753
v -0.2047409 -0.05606878 -0.15
v -0.2386838 0.8182712 -0.15
v -0.5859464 0.4999014 -0.15
v -0.03659958 -0.4535176 0.15
v 0.1185445 -0.319089 0.15
v -0.4523173 -0.8137277 0.15
v 0.4220909 -0.05607283 0.15
v -0.4823003 -0.8393834 0.1201801
v -0.5057052 -0.8594102 0.09690264
v -0.5060609 -0.8584871 -0.01642463
v -0.5063218 -0.8578101 -0.09955753
v -0.1797673 -0.57431 -0.15
v -0.04231149 -0.4552077 -0.15
v 0.3037661 -0.1553395 -0.15
v 0.4183343 -0.05606878 -0.15
v -0.4576671 -0.8151038 -0.15
v -0.4780532 -0.8329976 -0.1288648
v 0.6542925 0.1451246 0.15
v 0.6500556 0.1817778 0.15
v 0.6135547 0.4975379 0.15
v 0.5919466 0.6844631 0.15
v 0.5769083 0.8145565 0.15
v 0.562636 0.8594102 0.09690264
v 0.5692161 0.8387311 0.1213823
v 0.5290121 0.8594102 -0.09955753
v 0.5436682 0.8594102 -0.01392478
v 0.5267407 0.83531 -0.1291079
v 0.6072804 0.1076487 -0.15
v 0.5982335 0.1859112 -0.15
v 0.5251347 0.8182712 -0.15
v 0.5619372 0.4999014 -0.15
v 0.5426331 0.6668952 -0.15
v -0.5911617 -0.4535176 0.15
v -0.5911617 -0.4535176 0.15
v -0.5911617 -0.4535176 0.15
v -0.5911617 -0.4535176 0.15
v -0.5911617 -0.4535176 0.15
v -0.2011744 -0.05607283 0.15
v -0.2011744 -0.05607283 0.15
v -0.2011744 -0.05607283 0.15
v -0.2011744 -0.05607283 0.15
v -0.2011744 -0.05607283 0.15
v -0.2011744 -0.05607283 0.15
v -0.2011744 -0.05607283 0.15
v -0.2011744 -0.05607283 0.15
v -0.6542925 -0.4739232 0.09690264
v -0.6542925 -0.4739232 0.09690264
v -0.6542925 -0.4739232 0.09690264
v -0.6542925 -0.4739232 0.09690264
v -0.6542925 -0.4739232 0.09690264
v -0.6542925 -0.4739232 0.09690264
v -0.2442353 -0.05602455 0.09690264
v -0.2442353 -0.05602455 0.09690264
v -0.2442353 -0.05602455 0.09690264
v -0.2442353 -0.05602455 0.09690264
v -0.2442353 -0.05602455 0.09690264
v -0.580762 0.4975379 0.15
v -0.580762 0.4975379 0.15
v -0.580762 0.4975379 0.15
v -0.580762 0.4975379 0.15
v -0.6542925 -0.4739232 -0.09955753
v -0.6542925 -0.4739232 -0.09955753
v -0.6542925 -0.4739232 -0.09955753
v -0.6542925 -0.4739232 -0.09955753
v -0.6542925 -0.4739232 -0.09955753
v -0.6542925 -0.4739232 -0.09955753
v -0.6433577 0.5260767 0.09690264
v -0.6433577 0.5260767 0.09690264
v -0.6433577 0.5260767 0.09690264
v -0.6433577 0.5260767 0.09690264
v -0.6433577 0.5260767 0.09690264
v -0.2349734 0.8145565 0.15
v -0.2349734 0.8145565 0.15
v -0.2349734 0.8145565 0.15
v -0.2349734 0.8145565 0.15
v -0.2349734 0.8145565 0.15
v -0.2349734 0.8145565 0.15
v -0.5963903 -0.4552077 -0.15
v -0.5963903 -0.4552077 -0.15
v -0.5963903 -0.4552077 -0.15
v -0.5963903 -0.4552077 -0.15
v -0.5963903 -0.4552077 -0.15
v -0.5963903 -0.4552077 -0.15
v -0.2442353 -0.05602455 -0.09955753
v -0.2442353 -0.05602455 -0.09955753
v -0.2442353 -0.05602455 -0.09955753
v -0.2442353 -0.05602455 -0.09955753
v -0.2442353 -0.05602455 -0.09955753
v -0.6433577 0.5260767 -0.09955753
v -0.6433577 0.5260767 -0.09955753
v -0.6433577 0.5260767 -0.09955753
v -0.6433577 0.5260767 -0.09955753
v -0.6433577 0.5260767 -0.09955753
v -0.2797736 0.8594102 0.09690264
v -0.2797736 0.8594102 0.09690264
v -0.2797736 0.8594102 0.09690264
v -0.2797736 0.8594102 0.09690264
v -0.2797736 0.8594102 0.09690264
v -0.2797736 0.8594102 0.09690264
v -0.2797736 0.8594102 -0.09955753
v -0.2797736 0.8594102 -0.09955753
v -0.2797736 0.8594102 -0.09955753
v -0.2797736 0.8594102 -0.09955753
v -0.2797736 0.8594102 -0.09955753
v -0.2047409 -0.05606878 -0.15
v -0.2047409 -0.05606878 -0.15
v -0.2047409 -0.05606878 -0.15
v -0.2047409 -0.05606878 -0.15
v -0.2047409 -0.05606878 -0.15
v -0.2386838 0.8182712 -0.15
v -0.2386838 0.8182712 -0.15
v -0.2386838 0.8182712 -0.15
v -0.2386838 0.8182712 -0.15
v -0.5859464 0.4999014 -0.15
v -0.5859464 0.4999014 -0.15
v -0.5859464 0.4999014 -0.15
v -0.5859464 0.4999014 -0.15
v -0.5859464 0.4999014 -0.15
v -0.5859464 0.4999014 -0.15
v -0.5859464 0.4999014 -0.15
v -0.5859464 0.4999014 -0.15
v -0.5859464 0.4999014 -0.15
v -0.5859464 0.4999014 -0.15
v -0.03659958 -0.4535176 0.15
v -0.03659958 -0.4535176 0.15
v -0.03659958 -0.4535176 0.15
v 0.1185445 -0.319089 0.15
v 0.1185445 -0.319089 0.15
v 0.1185445 -0.319089 0.15
v 0.1185445 -0.319089 0.15
v 0.1185445 -0.319089 0.15
v 0.1185445 -0.319089 0.15
v -0.4523173 -0.8137277 0.15
v -0.4523173 -0.8137277 0.15
v -0.4523173 -0.8137277 0.15
v -0.4523173 -0.8137277 0.15
v -0.4523173 -0.8137277 0.15
v 0.4220909 -0.05607283 0.15
v 0.4220909 -0.05607283 0.15
v 0.4220909 -0.05607283 0.15
v 0.4220909 -0.05607283 0.15
v -0.4823003 -0.8393834 0.1201801
v -0.4823003 -0.8393834 0.1201801
v -0.4823003 -0.8393834 0.1201801
v -0.4823003 -0.8393834 0.1201801
v -0.4823003 -0.8393834 0.1201801
v -0.5057052 -0.8594102 0.09690264
v -0.5057052 -0.8594102 0.09690264
v -0.5060609 -0.8584871 -0.01642463
v -0.5060609 -0.8584871 -0.01642463
v -0.5060609 -0.8584871 -0.01642463
v -0.5060609 -0.8584871 -0.01642463
v -0.5060609 -0.8584871 -0.01642463
v -0.5060609 -0.8584871 -0.01642463
v -0.5063218 -0.8578101 -0.09955753
v -0.5063218 -0.8578101 -0.09955753
v -0.1797673 -0.57431 -0.15
v -0.1797673 -0.57431 -0.15
v -0.1797673 -0.57431 -0.15
v -0.04231149 -0.4552077 -0.15
v -0.04231149 -0.4552077 -0.15
v -0.04231149 -0.4552077 -0.15
v -0.04231149 -0.4552077 -0.15
v -0.04231149 -0.4552077 -0.15
v -0.04231149 -0.4552077 -0.15
v 0.3037661 -0.1553395 -0.15
v 0.3037661 -0.1553395 -0.15
v 0.3037661 -0.1553395 -0.15
v 0.4183343 -0.05606878 -0.15
v 0.4183343 -0.05606878 -0.15
v 0.4183343 -0.05606878 -0.15
v 0.4183343 -0.05606878 -0.15
v 0.4183343 -0.05606878 -0.15
v -0.4576671 -0.8151038 -0.15
v -0.4576671 -0.8151038 -0.15
v -0.4576671 -0.8151038 -0.15
v -0.4576671 -0.8151038 -0.15
v -0.4576671 -0.8151038 -0.15
v -0.4780532 -0.8329976 -0.1288648
v -0.4780532 -0.8329976 -0.1288648
v -0.4780532 -0.8329976 -0.1288648
v -0.4780532 -0.8329976 -0.1288648
v 0.6542925 0.1451246 0.15
v 0.6542925 0.1451246 0.15
v 0.6542925 0.1451246 0.15
v 0.6542925 0.1451246 0.15
v 0.6500556 0.1817778 0.15
v 0.6500556 0.1817778 0.15
v 0.6500556 0.1817778 0.15
v 0.6500556 0.1817778 0.15
v 0.6135547 0.4975379 0.15
v 0.6135547 0.4975379 0.15
v 0.6135547 0.4975379 0.15
v 0.6135547 0.4975379 0.15
v 0.6135547 0.4975379 0.15
v 0.5919466 0.6844631 0.15
v 0.5919466 0.6844631 0.15
v 0.5919466 0.6844631 0.15
v 0.5919466 0.6844631 0.15
v 0.5919466 0.6844631 0.15
v 0.5919466 0.6844631 0.15
v 0.5769083 0.8145565 0.15
v 0.5769083 0.8145565 0.15
v 0.5769083 0.8145565 0.15
v 0.562636 0.8594102 0.09690264
v 0.562636 0.8594102 0.09690264
v 0.5692161 0.8387311 0.1213823
v 0.5692161 0.8387311 0.1213823
v 0.5692161 0.8387311 0.1213823
v 0.5692161 0.8387311 0.1213823
v 0.5692161 0.8387311 0.1213823
v 0.5692161 0.8387311 0.1213823
v 0.5290121 0.8594102 -0.09955753
v 0.5290121 0.8594102 -0.09955753
v 0.5290121 0.8594102 -0.09955753
v 0.5290121 0.8594102 -0.09955753
v 0.5436682 0.8594102 -0.01392478
v 0.5436682 0.8594102 -0.01392478
v 0.5436682 0.8594102 -0.01392478
v 0.5436682 0.8594102 -0.01392478
v 0.5267407 0.83531 -0.1291079
v 0.5267407 0.83531 -0.1291079
v 0.5267407 0.83531 -0.1291079
v 0.5267407 0.83531 -0.1291079
v 0.5267407 0.83531 -0.1291079
v 0.6072804 0.1076487 -0.15
v 0.6072804 0.1076487 -0.15
v 0.6072804 0.1076487 -0.15
v 0.6072804 0.1076487 -0.15
v 0.5982335 0.1859112 -0.15
v 0.5982335 0.1859112 -0.15
v 0.5982335 0.1859112 -0.15
v 0.5982335 0.1859112 -0.15
v 0.5982335 0.1859112 -0.15
v 0.5251347 0.8182712 -0.15
v 0.5251347 0.8182712 -0.15
v 0.5251347 0.8182712 -0.15
v 0.5251347 0.8182712 -0.15
v 0.5619372 0.4999014 -0.15
v 0.5619372 0.4999014 -0.15
v 0.5619372 0.4999014 -0.15
v 0.5619372 0.4999014 -0.15
v 0.5426331 0.6668952 -0.15
v 0.5426331 0.6668952 -0.15
v 0.5426331 0.6668952 -0.15
vt 0.4583333 0.9166666
vt 0.5416666 0.9166666
vt 0.4583333 0.8134218
vt 0.5416666 0.8134218
vt 0.5833333 0.9166666
vt 0.4583333 0.4314159
vt 0.5833334 0.8134218
vt 0.625 0.9166666
vt 0.4583333 0.3333333
vt 0.5416666 0.4314159
vt 0.5833334 0.4314159
vt 0.625 0.8134218
vt 0.625 0.4314159
vt 0.5416666 0.3333333
vt 0.625 0.3333333
vt 0.5833333 0.3333333
vt 0 0
vt 0 0
vt 0 0
vt 0 0
vt 0.3949654 0.8752496
vt 0.3930905 0.8304787
vt 0.3302869 0.6730387
vt 0.3305125 0.5112508
vt 0 0
vt 0 0
vt 0 0
vt 0 0
vt 0 0
vt 0.3130837 0.4712632
vt 0 0
vt 0 0
vt 0 0
vt 0 0
vt 0 0
vt 0 0
vt 0 0
vt 0 0
vt 0 0
vt 0 0
vt 0.5539362 0.3782296
vt 0.5598016 0.3803967
vt 0 0
vt 0.5833334 0.373679
vt 0 0
vt 0 0
vt 0 0
vt 0 0
vt 0.4583333 0.9166666
vt 0.4583333 0.9166666
vt 0.5416666 0.9166666
vt 0.5416666 0.9166666
vt 0.5416666 0.9166666
vt 0 0
vt 0 0
vt 0 0
vt 0 0
vt 0 0
vt 0.4583333 0.8134218
vt 0.4583333 0.8134218
vt 0.4583333 0.8134218
vt 0.4583333 0.8134218
vt 0.4583333 0.8134218
vt 0.4583333 0.8134218
vt 0.5416666 0.8134218
vt 0.5416666 0.8134218
vt 0.5416666 0.8134218
vt 0.5416666 0.8134218
vt 0.5416666 0.8134218
vt 0.5833333 0.9166666
vt 0 0
vt 0 0
vt 0 0
vt 0.4583333 0.4314159
vt 0.4583333 0.4314159
vt 0.4583333 0.4314159
vt 0.4583333 0.4314159
vt 0.4583333 0.4314159
vt 0.4583333 0.4314159
vt 0.5833334 0.8134218
vt 0.5833334 0.8134218
vt 0.5833334 0.8134218
vt 0.5833334 0.8134218
vt 0.5833334 0.8134218
vt 0.625 0.9166666
vt 0 0
vt 0 0
vt 0 0
vt 0 0
vt 0 0
vt 0.4583333 0.3333333
vt 0 0
vt 0 0
vt 0 0
vt 0.4583333 0.3333333
vt 0.4583333 0.3333333
vt 0.5416666 0.4314159
vt 0.5416666 0.4314159
vt 0.5416666 0.4314159
vt 0.5416666 0.4314159
vt 0.5416666 0.4314159
vt 0.5833334 0.4314159
vt 0.5833334 0.4314159
vt 0.5833334 0.4314159
vt 0.5833334 0.4314159
vt 0.5833334 0.4314159
vt 0.625 0.8134218
vt 0.625 0.8134218
vt 0 0
vt 0 0
vt 0 0
vt 0 0
vt 0.625 0.4314159
vt 0.625 0.4314159
vt 0 0
vt 0 0
vt 0 0
vt 0.5416666 0.3333333
vt 0 0
vt 0 0
vt 0 0
vt 0.5416666 0.3333333
vt 0 0
vt 0 0
vt 0 0
vt 0 0
vt 0.5833333 0.3333333
vt 0.5833333 0.3333333
vt 0.5833333 0.3333333
vt 0.5833333 0.3333333
vt 0.5833333 0.3333333
vt 0.5833333 0.3333333
vt 0.5833333 0.3333333
vt 0 0
vt 0 0
vt 0 0
vt 0 0
vt 0.1582285 0.07620015
vt 0.1582285 0.07620015
vt 0 0
vt 0 0
vt 0.1188219 0.07620015
vt 0.1188219 0.07620015
vt 0.1188219 0.07620015
vt 0.1188219 0.07620015
vt 0.4109896 0.9166666
vt 0.2638211 0.07620016
vt 0.2638211 0.07620016
vt 0.2638211 0.07620016
vt 0.2638211 0.07620016
vt 0.04172092 0.07620014
vt 0 0
vt 0.04172092 0.07620014
vt 0.04172092 0.07620014
vt 0.3949659 0.87525
vt 0.3949659 0.87525
vt 0.2714368 0.06862587
vt 0.2714368 0.06862587
vt 0.2714368 0.06862587
vt 0.3930904 0.8304788
vt 0.2773816 0.0627134
vt 0.3302871 0.673039
vt 0.3302871 0.673039
vt 0.277472 0.03392821
vt 0.277472 0.03392821
vt 0.277472 0.03392821
vt 0.277472 0.03392821
vt 0.3305124 0.5112505
vt 0.2775382 0.01281241
vt 0 0
vt 0.1945932 -6.287243E-09
vt 0.1945932 -6.287243E-09
vt 0 0
vt 0 0
vt 0.1596794 -7.609602E-09
vt 0.1596794 -7.609602E-09
vt 0.1596794 -7.609602E-09
vt 0.1596794 -7.609602E-09
vt 0 0
vt 0.0717755 -1.093895E-08
vt 0.0717755 -1.093895E-08
vt 0.5416666 0.3635989
vt 0.04267511 -1.204113E-08
vt 0.04267511 -1.204113E-08
vt 0.5416666 0.3635989
vt 0.04267511 -1.204113E-08
vt 0.3170291 0.4275362
vt 0.2651799 -3.613779E-09
vt 0.2651799 -3.613779E-09
vt 0.2651799 -3.613779E-09
vt 0.2651799 -3.613779E-09
vt 0.3130823 0.4712636
vt 0.3130823 0.4712636
vt 0.270358 0.005368346
vt 0.270358 0.005368346
vt 0 0
vt -0.0172584 0.07620014
vt -0.3265721 0.07620014
vt -0.3265721 0.07620014
vt 0 0
vt 0 0
vt -0.3358821 0.07620014
vt -0.3358821 0.07620014
vt 0 0
vt 0 0
vt -0.4160853 0.07620014
vt -0.4160853 0.07620014
vt -0.4160853 0.07620014
vt 0 0
vt -0.4635644 0.07620014
vt -0.4635644 0.07620014
vt -0.4635644 0.07620014
vt -0.4635644 0.07620014
vt -0.4635644 0.07620014
vt 0 0
vt -0.4966082 0.07620014
vt -0.4966082 0.07620014
vt 0 0
vt -0.508001 0.06271338
vt 0 0
vt 0 0
vt -0.5027485 0.06893123
vt -0.5027485 0.06893123
vt -0.5027485 0.06893123
vt -0.5027485 0.06893123
vt 0 0
vt 0 0
vt -0.508001 0.01281239
vt -0.508001 0.01281239
vt 0 0
vt 0 0
vt -0.508001 0.03456315
vt -0.508001 0.03456315
vt 0 0
vt -0.5018796 0.005306576
vt -0.5018796 0.005306576
vt -0.5018796 0.005306576
vt -0.5018796 0.005306576
vt 0.5539362 0.3782296
vt -0.005317288 -1.385884E-08
vt -0.005317288 -1.385884E-08
vt -0.3170532 -1.385884E-08
vt 0.5598016 0.3803967
vt -0.3369319 -1.472776E-08
vt -0.3369319 -1.472776E-08
vt -0.3369319 -1.472776E-08
vt -0.3369319 -1.472776E-08
vt 0 0
vt 0 0
vt -0.4975517 -2.174867E-08
vt -0.4975517 -2.174867E-08
vt 0 0
vt -0.4166856 -1.821391E-08
vt -0.4166856 -1.821391E-08
vt -0.4166856 -1.821391E-08
vt 0 0
vt -0.4591021 -2.006799E-08
vt -0.4591021 -2.006799E-08
vn -0.6175712 0.6059831 0.5013884
vn -0.6175712 0.6059831 0.5013884
vn -0.6175712 0.6059831 0.5013884
vn -0.6175712 0.6059831 0.5013884
vn -0.6857037 -0.4701579 0.5556636
vn -0.7137717 0.7003784 0
vn -0.6857037 -0.4701579 0.5556636
vn -0.4341482 0.4735477 0.7663341
vn -0.6229109 0.6112225 -0.4882509
vn -0.7137717 0.7003784 0
vn -0.8247506 -0.5654967 0
vn -0.6757775 0.7371057 0
vn -0.6757775 0.7371057 0
vn -0.6229109 0.6112225 -0.4882509
vn -0.4430723 0.4832822 -0.7550664
vn -0.6930066 -0.4751654 -0.5421805
vn 0 0 1
vn 0 0 1
vn 0 0 1
vn 0 0 1
vn -0.5835693 -0.224939 0.7802879
vn -0.5835693 -0.2249391 0.7802879
vn -0.9330833 -0.3596604 0
vn -0.9330833 -0.3596604 0
vn 0 0 -1
vn 0 0 -1
vn 0 0 -1
vn 0 0 -1
vn 0 0 -1
vn -0.5960204 -0.2297383 -0.7694024
vn 0 0 1
vn 0 0 1
vn 0 0 1
vn 0 0 1
vn 0 0 1
vn 0 0.763917 0.6453145
vn 0 0.763917 0.6453145
vn 0 1 0
vn 0 1 0
vn 0 0.7749519 -0.6320202
vn 0 0 -1
vn 0 0 -1
vn 0 0.7749519 -0.6320202
vn 0 0 -1
vn 0 0 -1
vn 0 0 1
vn 0 0 1
vn 0 0 1
vn -0.5835693 -0.2249391 0.7802879
vn -0.5835693 -0.2249391 0.7802879
vn -0.6175712 0.6059831 0.5013884
vn -0.6857037 -0.4701579 0.5556636
vn -0.6857037 -0.4701579 0.5556636
vn 0 0 1
vn 0 0 1
vn 0 0 1
vn 0 0 1
vn 0 0 1
vn -0.6175712 0.6059831 0.5013884
vn -0.7137717 0.7003784 0
vn -0.5835693 -0.2249391 0.7802879
vn -0.5835693 -0.2249391 0.7802879
vn -0.9330833 -0.3596604 0
vn -0.9330833 -0.3596604 0
vn -0.7137717 0.7003784 0
vn -0.6857037 -0.4701579 0.5556636
vn -0.7137717 0.7003784 0
vn -0.8247506 -0.5654967 0
vn -0.8247506 -0.5654967 0
vn -0.4341482 0.4735477 0.7663341
vn 0 0 1
vn 0 0 1
vn 0 0 1
vn -0.7137717 0.7003784 0
vn -0.6229109 0.6112225 -0.4882509
vn -0.9330833 -0.3596604 0
vn -0.9330833 -0.3596604 0
vn -0.5960204 -0.2297383 -0.7694024
vn -0.5960204 -0.2297383 -0.7694024
vn -0.6857037 -0.4701579 0.5556636
vn -0.8247506 -0.5654967 0
vn -0.4341482 0.4735477 0.7663341
vn -0.6757775 0.7371057 0
vn -0.4341482 0.4735477 0.7663341
vn -0.4341482 0.4735477 0.7663341
vn 0 0 1
vn 0 0 1
vn 0 0 1
vn 0 0.763917 0.6453145
vn 0 0.763917 0.6453145
vn -0.6229109 0.6112225 -0.4882509
vn 0 0 -1
vn 0 0 -1
vn 0 0 -1
vn -0.5960204 -0.2297383 -0.7694024
vn -0.5960204 -0.2297383 -0.7694024
vn -0.6229109 0.6112225 -0.4882509
vn -0.8247506 -0.5654967 0
vn -0.6229109 0.6112225 -0.4882509
vn -0.6930066 -0.4751654 -0.5421805
vn -0.6930066 -0.4751654 -0.5421805
vn -0.8247506 -0.5654967 0
vn -0.6757775 0.7371057 0
vn -0.6930066 -0.4751654 -0.5421805
vn -0.6757775 0.7371057 0
vn -0.4430723 0.4832822 -0.7550664
vn -0.4341482 0.4735477 0.7663341
vn -0.6757775 0.7371057 0
vn 0 0.763917 0.6453145
vn 0 0.763917 0.6453145
vn 0 1 0
vn 0 1 0
vn -0.4430723 0.4832822 -0.7550664
vn -0.4430723 0.4832822 -0.7550664
vn 0 1 0
vn 0 1 0
vn 0 0.7749519 -0.6320202
vn -0.6930066 -0.4751654 -0.5421805
vn 0 0 -1
vn 0 0 -1
vn 0 0 -1
vn 0 0 -1
vn 0 0.7749519 -0.6320202
vn 0 0 -1
vn 0 0.7749519 -0.6320202
vn 0 0.7749519 -0.6320202
vn -0.4430723 0.4832822 -0.7550664
vn -0.6930066 -0.4751654 -0.5421805
vn -0.4430723 0.4832822 -0.7550664
vn 0 0 -1
vn 0 0 -1
vn 0 0 -1
vn 0 0 -1
vn 0 0 -1
vn 0 0 -1
vn 0 0 -1
vn 0 0 1
vn 0.6548261 -0.755735 -0.008210016
vn 0.6548269 -0.7557343 -0.008210001
vn 0 0 1
vn 0 0 1
vn 0.6548268 -0.7557344 -0.008210044
vn 0.6548265 -0.7557347 -0.008210546
vn 0.6548266 -0.7557346 -0.008210449
vn 0.6548261 -0.755735 -0.008210016
vn -0.5835693 -0.224939 0.7802879
vn 0.6548269 -0.7557343 -0.008210001
vn 0.6548266 -0.7557346 -0.008210845
vn 0.6548266 -0.7557346 -0.008210822
vn 0.6548269 -0.7557343 -0.008210827
vn 0.6548268 -0.7557344 -0.008210044
vn 0 0 1
vn 0.6548267 -0.7557344 -0.008210192
vn 0.6548268 -0.7557344 -0.008210047
vn -0.5835693 -0.224939 0.7802879
vn -0.5835693 -0.224939 0.7802879
vn 0.6548249 -0.755736 -0.008210401
vn 0.6548269 -0.7557343 -0.008210827
vn 0.6548266 -0.7557346 -0.008210894
vn -0.9330833 -0.3596604 0
vn 0.6548249 -0.755736 -0.008210401
vn -0.9330832 -0.3596604 0
vn -0.9330832 -0.3596604 0
vn 0.6548249 -0.755736 -0.008210401
vn 0.6548266 -0.7557346 -0.008209754
vn 0.6548266 -0.7557346 -0.008210894
vn 0.6548322 -0.7557297 -0.008207284
vn -0.5960204 -0.2297383 -0.7694024
vn 0.6548266 -0.7557346 -0.008209754
vn 0 0 -1
vn 0.6548266 -0.7557346 -0.008210845
vn 0.6548266 -0.7557346 -0.008210822
vn 0 0 -1
vn 0 0 -1
vn 0.6548266 -0.7557346 -0.008210449
vn 0.6548261 -0.755735 -0.008210016
vn 0.6548269 -0.7557343 -0.008210001
vn 0.6548266 -0.7557346 -0.008210845
vn 0 0 -1
vn 0.6548265 -0.7557347 -0.008210546
vn 0.6548266 -0.7557346 -0.008210449
vn 0 0 -1
vn 0.6548268 -0.7557344 -0.008210044
vn 0.6548265 -0.7557347 -0.008210546
vn 0 0 -1
vn 0.6548268 -0.7557344 -0.008210047
vn -0.5960205 -0.2297382 -0.7694024
vn 0.6548266 -0.7557346 -0.008210822
vn 0.6548269 -0.7557343 -0.008210827
vn 0.6548266 -0.7557346 -0.008210894
vn 0.6548322 -0.7557297 -0.008207284
vn -0.5960204 -0.2297383 -0.7694024
vn -0.5960204 -0.2297383 -0.7694024
vn 0.6548266 -0.7557346 -0.008209754
vn 0.6548322 -0.7557297 -0.008207284
vn 0 0 1
vn 0.6548267 -0.7557344 -0.008210192
vn 0.9793319 0.1132077 -0.1676102
vn 0.979332 0.1132062 -0.1676104
vn 0 0 1
vn 0 0 1
vn 0.979332 0.1132062 -0.1676104
vn 0.9793318 0.1132079 -0.1676104
vn 0 0 1
vn 0 0 1
vn 0.9793318 0.1132079 -0.1676104
vn 0.9793319 0.1132077 -0.1676102
vn 0.9793318 0.1132081 -0.1676102
vn 0 0 1
vn 0.9793318 0.1132081 -0.1676102
vn 0.9793317 0.1132083 -0.1676103
vn 0.979332 0.1132063 -0.1676103
vn 0.979332 0.1132074 -0.1676098
vn 0.979332 0.1132067 -0.1676101
vn 0 0.7639171 0.6453145
vn 0.979332 0.1132067 -0.1676101
vn 0.9793321 0.1132048 -0.1676103
vn 0 1 0
vn 0.9793316 0.1132097 -0.1676099
vn 0 0.763917 0.6453145
vn 0 0.763917 0.6453145
vn 0.9793321 0.1132048 -0.1676103
vn 0.9793311 0.1132143 -0.1676103
vn 0.9793329 0.1131949 -0.1676124
vn 0.9793316 0.1132097 -0.1676099
vn 0 0.7749519 -0.6320202
vn 0 0.7749519 -0.6320202
vn 0.9793311 0.1132143 -0.1676103
vn 0.9793329 0.1131949 -0.1676124
vn 0 1 0
vn 0 1 0
vn 0.9793329 0.1131949 -0.1676124
vn 0.9793316 0.1132097 -0.1676099
vn 0 0.7749519 -0.6320202
vn 0.979332 0.1132074 -0.1676098
vn 0.979332 0.1132067 -0.1676101
vn 0.9793321 0.1132048 -0.1676103
vn 0.9793311 0.1132143 -0.1676103
vn 0 0 -1
vn 0.6548267 -0.7557344 -0.008210192
vn 0.6548268 -0.7557344 -0.008210047
vn 0.9793319 0.1132077 -0.1676102
vn 0 0 -1
vn 0.9793319 0.1132077 -0.1676102
vn 0.979332 0.1132062 -0.1676104
vn 0.9793318 0.1132079 -0.1676104
vn 0.9793319 0.1132077 -0.1676102
vn 0 0 -1
vn 0 0 -1
vn 0.979332 0.1132063 -0.1676103
vn 0.979332 0.1132074 -0.1676098
vn 0 0 -1
vn 0.9793319 0.1132077 -0.1676102
vn 0.9793318 0.1132081 -0.1676102
vn 0.9793317 0.1132083 -0.1676103
vn 0 0 -1
vn 0.9793317 0.1132083 -0.1676103
vn 0.979332 0.1132063 -0.1676103
g IL_BrokenGlass_Part1_sh_5_0
f 3/3/3 1/1/1 2/2/2
f 4/4/4 59/59/59 51/51/51
f 6/6/6 60/60/60 65/65/65
f 7/7/7 66/66/66 52/52/52
f 5/5/5 80/80/80 53/53/53
f 10/10/10 74/74/74 67/67/67
f 81/81/81 11/11/11 68/68/68
f 82/82/82 70/70/70 8/8/8
f 9/9/9 75/75/75 97/97/97
f 102/102/102 98/98/98 69/69/69
f 103/103/103 83/83/83 12/12/12
f 107/107/107 84/84/84 85/85/85
f 14/14/14 91/91/91 99/99/99
f 104/104/104 16/16/16 100/100/100
f 13/13/13 105/105/105 108/108/108
f 15/15/15 127/127/127 113/113/113
f 128/128/128 118/118/118 101/101/101
f 129/129/129 106/106/106 114/114/114
f 46/46/46 17/17/17 18/18/18
f 47/47/47 19/19/19 137/137/137
f 20/20/20 54/54/54 140/140/140
f 55/55/55 48/48/48 141/141/141
f 21/21/21 146/146/146 49/49/49
f 155/155/155 61/61/61 22/22/22
f 50/50/50 62/62/62 156/156/156
f 23/23/23 160/160/160 63/63/63
f 162/162/162 76/76/76 24/24/24
f 64/64/64 77/77/77 163/163/163
f 26/26/26 25/25/25 92/92/92
f 28/28/28 27/27/27 119/119/119
f 170/170/170 29/29/29 93/93/93
f 30/30/30 168/168/168 78/78/78
f 173/173/173 94/94/94 120/120/120
f 179/179/179 174/174/174 121/121/121
f 182/182/182 122/122/122 130/130/130
f 192/192/192 95/95/95 187/187/187
f 79/79/79 96/96/96 193/193/193
f 32/32/32 56/56/56 31/31/31
f 57/57/57 152/152/152 196/196/196
f 71/71/71 58/58/58 200/200/200
f 34/34/34 35/35/35 86/86/86
f 37/37/37 36/36/36 109/109/109
f 39/39/39 38/38/38 115/115/115
f 41/41/41 185/185/185 131/131/131
f 42/42/42 239/239/239 132/132/132
f 40/40/40 43/43/43 123/123/123
f 44/44/44 243/243/243 133/133/133
f 134/134/134 124/124/124 248/248/248
f 45/45/45 252/252/252 135/135/135
f 33/33/33 72/72/72 201/201/201
f 87/87/87 73/73/73 204/204/204
f 205/205/205 209/209/209 88/88/88
f 220/220/220 110/110/110 89/89/89
f 90/90/90 215/215/215 221/221/221
f 111/111/111 218/218/218 230/230/230
f 231/231/231 116/116/116 112/112/112
f 125/125/125 117/117/117 226/226/226
f 227/227/227 234/234/234 126/126/126
f 256/256/256 136/136/136 249/249/249
f 157/157/157 161/161/161 164/164/164
f 165/165/165 169/169/169 194/194/194
f 183/183/183 151/151/151 142/142/142
f 180/180/180 184/184/184 143/143/143
f 175/175/175 181/181/181 144/144/144
f 176/176/176 145/145/145 138/138/138
f 177/177/177 139/139/139 147/147/147
f 171/171/171 178/178/178 148/148/148
f 188/188/188 172/172/172 149/149/149
f 189/189/189 150/150/150 158/158/158
f 190/190/190 159/159/159 166/166/166
f 167/167/167 195/195/195 191/191/191
f 240/240/240 197/197/197 153/153/153
f 154/154/154 186/186/186 241/241/241
f 198/198/198 242/242/242 244/244/244
f 202/202/202 199/199/199 245/245/245
f 206/206/206 203/203/203 246/246/246
f 207/207/207 247/247/247 253/253/253
f 210/210/210 208/208/208 254/254/254
f 211/211/211 255/255/255 257/257/257
f 212/212/212 258/258/258 250/250/250
f 213/213/213 251/251/251 235/235/235
f 216/216/216 214/214/214 236/236/236
f 222/222/222 217/217/217 237/237/237
f 223/223/223 238/238/238 228/228/228
f 224/224/224 229/229/229 232/232/232
f 233/233/233 219/219/219 225/225/225
