g IL_Boiler_sh_5
v 0.4594966 0.2504024 -0.4949385
v 0.4594966 -0.3970668 -0.4949385
v 0.4594966 -0.3970668 0.4949385
v 0.3713238 -0.308894 0.4949385
v 0.2169532 0.2504024 -0.4949385
v 0.4594966 0.3289932 -0.4949385
v 0.4594966 0.2059285 0.426945
v 0.4594966 0.2504024 0.3692
v -0.4594966 -0.3970668 -0.4949385
v -0.3996451 -0.311554 -0.4949385
v 0.4594966 0.1535613 0.4949385
v -0.3766 -0.3970668 -0.3411581
v 0.07410479 -0.3970668 0.4949385
v 0.3886484 0.05233693 0.4949385
v 0.1185157 -0.3336147 0.4949385
v 0.1358182 -0.308894 0.4949385
v 0.3713238 0.02758443 0.4949385
v 0.2794867 -0.1036277 0.4949385
v 0.4594966 0.3970668 0.1787711
v -0.07181436 0.1568338 -0.4949385
v 0.4594966 0.2504024 -0.4949385
v 0.4594966 0.2504024 -0.4949385
v 0.4594966 0.2504024 -0.4949385
v 0.4594966 0.2504024 -0.4949385
v 0.4594966 0.2504024 -0.4949385
v 0.4594966 0.2504024 -0.4949385
v 0.4594966 -0.3970668 -0.4949385
v 0.4594966 -0.3970668 -0.4949385
v 0.4594966 -0.3970668 -0.4949385
v 0.4594966 -0.3970668 -0.4949385
v 0.4594966 -0.3970668 -0.4949385
v 0.4594966 -0.3970668 0.4949385
v 0.4594966 -0.3970668 0.4949385
v 0.4594966 -0.3970668 0.4949385
v 0.4594966 -0.3970668 0.4949385
v 0.4594966 -0.3970668 0.4949385
v 0.3713238 -0.308894 0.4949385
v 0.3713238 -0.308894 0.4949385
v 0.3713238 -0.308894 0.4949385
v 0.3713238 -0.308894 0.4949385
v 0.3713238 -0.308894 0.4949385
v 0.3713238 -0.308894 0.4949385
v 0.2169532 0.2504024 -0.4949385
v 0.2169532 0.2504024 -0.4949385
v 0.2169532 0.2504024 -0.4949385
v 0.2169532 0.2504024 -0.4949385
v 0.4594966 0.3289932 -0.4949385
v 0.4594966 0.3289932 -0.4949385
v 0.4594966 0.3289932 -0.4949385
v 0.4594966 0.2059285 0.426945
v 0.4594966 0.2059285 0.426945
v 0.4594966 0.2059285 0.426945
v 0.4594966 0.2059285 0.426945
v 0.4594966 0.2059285 0.426945
v 0.4594966 0.2504024 0.3692
v 0.4594966 0.2504024 0.3692
v 0.4594966 0.2504024 0.3692
v 0.4594966 0.2504024 0.3692
v 0.4594966 0.2504024 0.3692
v -0.4594966 -0.3970668 -0.4949385
v -0.4594966 -0.3970668 -0.4949385
v -0.4594966 -0.3970668 -0.4949385
v -0.3996451 -0.311554 -0.4949385
v -0.3996451 -0.311554 -0.4949385
v -0.3996451 -0.311554 -0.4949385
v -0.3996451 -0.311554 -0.4949385
v 0.4594966 0.1535613 0.4949385
v 0.4594966 0.1535613 0.4949385
v 0.4594966 0.1535613 0.4949385
v -0.3766 -0.3970668 -0.3411581
v -0.3766 -0.3970668 -0.3411581
v -0.3766 -0.3970668 -0.3411581
v -0.3766 -0.3970668 -0.3411581
v -0.3766 -0.3970668 -0.3411581
v -0.3766 -0.3970668 -0.3411581
v 0.07410479 -0.3970668 0.4949385
v 0.07410479 -0.3970668 0.4949385
v 0.07410479 -0.3970668 0.4949385
v 0.3886484 0.05233693 0.4949385
v 0.3886484 0.05233693 0.4949385
v 0.3886484 0.05233693 0.4949385
v 0.3886484 0.05233693 0.4949385
v 0.1185157 -0.3336147 0.4949385
v 0.1185157 -0.3336147 0.4949385
v 0.1185157 -0.3336147 0.4949385
v 0.1185157 -0.3336147 0.4949385
v 0.1185157 -0.3336147 0.4949385
v 0.1358182 -0.308894 0.4949385
v 0.1358182 -0.308894 0.4949385
v 0.1358182 -0.308894 0.4949385
v 0.3713238 0.02758443 0.4949385
v 0.3713238 0.02758443 0.4949385
v 0.3713238 0.02758443 0.4949385
v 0.3713238 0.02758443 0.4949385
v 0.2794867 -0.1036277 0.4949385
v 0.2794867 -0.1036277 0.4949385
v 0.2794867 -0.1036277 0.4949385
v 0.2794867 -0.1036277 0.4949385
v 0.4594966 0.3970668 0.1787711
v 0.4594966 0.3970668 0.1787711
v 0.4594966 0.3970668 0.1787711
v 0.4594966 0.3970668 0.1787711
v 0.4594966 0.3970668 0.1787711
v 0.4594966 0.3970668 0.1787711
v -0.07181436 0.1568338 -0.4949385
v -0.07181436 0.1568338 -0.4949385
v -0.07181436 0.1568338 -0.4949385
v -0.07181436 0.1568338 -0.4949385
vt 0.8678578 0.9146224
vt 0.8715198 0.8471622
vt 0.8715198 0.8471622
vt 0.8613677 0.8562234
vt 0.8685576 0.9146224
vt 0.8678578 0.9226988
vt 0.8715198 0.9091292
vt 0.8715198 0.9136996
vt 0.8705094 0.8480851
vt 0.8703366 0.8568728
vt 0.8715198 0.9037477
vt 0.775253 0.8471622
vt 0.8271464 0.8471622
vt 0.8633624 0.8933454
vt 0.8322598 0.8536829
vt 0.8342521 0.8562234
vt 0.8613677 0.8908017
vt 0.8507938 0.8773177
vt 0.1257146 0.04540793
vt 0.8693907 0.9050068
vt 0.8715198 0.9136996
vt 0.8715198 0.9136996
vt 0.8678578 0.9146224
vt 0.8678578 0.9146224
vt 0.8715198 0.9136996
vt 0.8678578 0.9146224
vt 0.8678578 0.848085
vt 0.8715198 0.8471622
vt 0.8715198 0.8471622
vt 0.8715198 0.8471622
vt 0.8715198 0.8471622
vt 0.8715198 0.8471622
vt 0.8715198 0.8471622
vt 0.8715198 0.8471622
vt 0.8715198 0.8471622
vt 0.8715198 0.8471622
vt 0.8613677 0.8562234
vt 0.8613677 0.8562234
vt 0.8613677 0.8562234
vt 0.8613677 0.8562234
vt 0.8613677 0.8562234
vt 0.8613677 0.8562234
vt 0.8685576 0.9146224
vt 0.06410847 -0.1257147
vt 0.8685576 0.9146224
vt 0.06410847 -0.1257147
vt 0.8715198 0.921776
vt 0.1257146 -0.1257147
vt 0.8715198 0.921776
vt 0.8715198 0.9091292
vt 0.8715198 0.9091292
vt 0.1531611 0.1084442
vt 0.1531611 0.1084442
vt 0.1531611 0.1084442
vt 0.8715198 0.9136996
vt 0.8715198 0.9136996
vt 0.1644575 0.09377698
vt 0.1644575 0.09377698
vt 0.1644575 0.09377698
vt 0.8705094 0.8480851
vt 0.7657084 0.8471622
vt -1.020332E-08 -0.1257146
vt 0.8703366 0.8568727
vt 0.8703366 0.8568727
vt 0.02172028 -0.1257146
vt 0.02172028 -0.1257146
vt 0.8715198 0.9037477
vt 0.8715198 0.9037477
vt 0.1398598 0.1257146
vt 0.775253 0.8471622
vt 0.775253 0.8471622
vt -7.575562E-09 -0.08665433
vt -7.575562E-09 -0.08665433
vt -7.575562E-09 -0.08665433
vt -7.575562E-09 -0.08665433
vt 0.8271464 0.8471622
vt 0.8271464 0.8471622
vt 6.711427E-09 0.1257146
vt 0.8633624 0.8933454
vt 0.8633624 0.8933454
vt 0.1141488 0.1257146
vt 0.1141488 0.1257146
vt 0.8322597 0.8536829
vt 0.01611686 0.1257146
vt 0.01611686 0.1257146
vt 0.01611686 0.1257146
vt 0.01611686 0.1257146
vt 0.834252 0.8562235
vt 0.02239594 0.1257146
vt 0.02239594 0.1257146
vt 0.8613678 0.8908017
vt 0.1078616 0.1257146
vt 0.1078616 0.1257146
vt 0.1078616 0.1257146
vt 0.8507938 0.8773177
vt 0.07453369 0.1257146
vt 0.07453369 0.1257146
vt 0.07453369 0.1257146
vt 0.8715198 0.9287716
vt 0.1257146 0.04540793
vt 0.2017103 0.04540794
vt 0.2017103 0.04540794
vt 0.2017103 0.04540794
vt 0.2017103 0.04540794
vt -0.009238633 -0.1257146
vt 0.140691 -0.1257146
vt 0.140691 -0.1257146
vt 0.140691 -0.1257146
vn 0 0 -1
vn 1 0 0
vn 1 0 0
vn 0 -1.259873E-07 1
vn 0 0 -1
vn 0 0 -1
vn 1 0 0
vn 1 0 0
vn 0 0 -1
vn 0 0 -1
vn 1 0 0
vn 0 -1 0
vn 0 -1 0
vn 0 -3.682547E-08 1
vn 0 -1.432117E-07 1
vn 0 -1.259871E-07 1
vn 0 -3.600676E-08 1
vn 0 -7.109524E-08 1
vn -0.3068349 0.946941 -0.09568175
vn 0 0 -1
vn 1 0 0
vn 1 0 0
vn 0 0 -1
vn 0 0 -1
vn 1 0 0
vn 0 0 -1
vn 0 0 -1
vn 1 0 0
vn 1 0 0
vn 0 -1 0
vn 0 -1 0
vn 0 -1 0
vn 0 -1 0
vn 0 -1.874223E-07 1
vn 0 -1.874223E-07 1
vn 0 -1.874223E-07 1
vn 0 -1.259873E-07 1
vn 0 -1.259873E-07 1
vn 0 -1.259873E-07 1
vn 0 -1.259873E-07 1
vn 0 -1.259873E-07 1
vn 0 -1.259873E-07 1
vn 0 0 -1
vn -0.3068349 0.946941 -0.09568175
vn 0 0 -1
vn -0.3068349 0.946941 -0.09568176
vn 1 0 0
vn -0.3068349 0.946941 -0.09568175
vn 1 0 0
vn 1 0 0
vn 1 0 0
vn -0.7494349 0.5245387 0.4039882
vn -0.7494364 0.5245385 0.4039859
vn -0.7494342 0.5245389 0.4039891
vn 1 0 0
vn 1 0 0
vn -0.7494342 0.5245391 0.403989
vn -0.749434 0.5245391 0.4039895
vn -0.7494349 0.5245387 0.4039882
vn 0 0 -1
vn 0 -1 0
vn -0.7494343 0.5245391 0.4039887
vn 0 0 -1
vn 0 0 -1
vn -0.7494343 0.5245391 0.4039887
vn -0.7494345 0.5245389 0.4039887
vn 1 0 0
vn 0 -2.803252E-08 1
vn -0.7494342 0.5245389 0.4039891
vn 0 -1 0
vn 0 -1 0
vn -0.7494343 0.5245391 0.4039887
vn -0.7494344 0.5245392 0.4039887
vn -0.7494345 0.5245389 0.4039887
vn -0.7494345 0.5245389 0.4039888
vn 0 -1.874223E-07 1
vn 0 -1.874223E-07 1
vn -0.7494344 0.5245392 0.4039887
vn 0 -3.682539E-08 1
vn 0 -3.682539E-08 1
vn -0.7494364 0.5245385 0.4039859
vn -0.7494342 0.5245389 0.4039891
vn 0 -1.432119E-07 1
vn -0.7494344 0.5245392 0.4039887
vn -0.7494345 0.5245389 0.4039888
vn -0.7494344 0.5245389 0.4039888
vn -0.7494315 0.5245395 0.4039934
vn 0 -1.259873E-07 1
vn -0.7494315 0.5245395 0.4039934
vn -0.7494347 0.5245388 0.4039884
vn 0 -3.600666E-08 1
vn -0.749434 0.5245391 0.4039895
vn -0.7494349 0.5245387 0.4039882
vn -0.7494364 0.5245385 0.4039859
vn 0 -7.109524E-08 1
vn -0.7494347 0.5245388 0.4039884
vn -0.7494342 0.5245391 0.403989
vn -0.749434 0.5245391 0.4039895
vn 1 0 0
vn -0.3068349 0.946941 -0.09568176
vn -0.7494344 0.5245389 0.4039888
vn -0.7494315 0.5245395 0.4039934
vn -0.7494347 0.5245388 0.4039884
vn -0.7494342 0.5245391 0.403989
vn -0.3068349 0.946941 -0.09568176
vn -0.7494345 0.5245389 0.4039887
vn -0.7494345 0.5245389 0.4039888
vn -0.7494344 0.5245389 0.4039888
g IL_Boiler_sh_5_0
f 5/5/5 6/6/6 1/1/1
f 7/7/7 21/21/21 8/8/8
f 2/2/2 22/22/22 50/50/50
f 10/10/10 23/23/23 9/9/9
f 24/24/24 27/27/27 60/60/60
f 11/11/11 3/3/3 28/28/28
f 51/51/51 67/67/67 29/29/29
f 61/61/61 30/30/30 12/12/12
f 31/31/31 32/32/32 70/70/70
f 33/33/33 13/13/13 71/71/71
f 34/34/34 68/68/68 14/14/14
f 76/76/76 35/35/35 4/4/4
f 15/15/15 77/77/77 37/37/37
f 16/16/16 83/83/83 38/38/38
f 17/17/17 39/39/39 79/79/79
f 40/40/40 36/36/36 80/80/80
f 18/18/18 88/88/88 41/41/41
f 42/42/42 91/91/91 95/95/95
f 55/55/55 25/25/25 47/47/47
f 43/43/43 26/26/26 63/63/63
f 56/56/56 49/49/49 99/99/99
f 20/20/20 45/45/45 64/64/64
g IL_Boiler_sh_5_1
f 19/19/19 48/48/48 44/44/44
f 100/100/100 46/46/46 105/105/105
f 65/65/65 62/62/62 72/72/72
f 73/73/73 78/78/78 84/84/84
f 106/106/106 66/66/66 74/74/74
f 107/107/107 75/75/75 85/85/85
f 101/101/101 108/108/108 86/86/86
f 102/102/102 87/87/87 89/89/89
f 103/103/103 90/90/90 96/96/96
f 57/57/57 104/104/104 97/97/97
f 58/58/58 98/98/98 92/92/92
f 52/52/52 59/59/59 93/93/93
f 53/53/53 94/94/94 81/81/81
f 82/82/82 69/69/69 54/54/54
