g IL_CleaningWheelBarrow_sh_2
v -0.1862856 -0.2219758 0.2695396
v -0.1862856 -0.2219758 -0.2695396
v -0.2508442 0.2219758 -0.2695396
v 0.1443298 -0.2219758 0.2695396
v -0.2508442 0.2219758 0.2695396
v -0.1819596 0.2219758 -0.2006549
v -0.1819596 0.2219758 0.2006549
v -0.1819596 0.1695884 0.2006549
v -0.1819596 0.1695884 -0.2006549
v -0.01767884 0.004429996 -0.2695396
v -0.1251175 0.2219758 -0.2695396
v 0.1443298 -0.2219758 -0.09687063
v 0.09413541 -0.2219758 -0.2695396
v -0.1095376 0.2219758 -0.2159443
v 0.03159128 0.2219758 0.2695396
v 0.1443298 -0.006301343 0.2695396
v 0.2508442 -0.2219758 0.2695396
v -0.105093 0.2219758 -0.2006549
v 0.01526028 0.2219758 0.2133609
v 0.01156671 0.2219758 0.2006549
v -0.088604 0.1885883 -0.2006549
v 0.03319214 0.1781878 0.2006549
v 0.03743911 0.1695884 0.2006549
v -0.07922058 0.1695884 -0.2006549
v -0.03098488 0.1695884 -0.03472392
v -0.1862856 -0.2219758 0.2695396
v -0.1862856 -0.2219758 0.2695396
v -0.1862856 -0.2219758 0.2695396
v -0.1862856 -0.2219758 -0.2695396
v -0.1862856 -0.2219758 -0.2695396
v -0.1862856 -0.2219758 -0.2695396
v -0.1862856 -0.2219758 -0.2695396
v -0.1862856 -0.2219758 -0.2695396
v -0.2508442 0.2219758 -0.2695396
v -0.2508442 0.2219758 -0.2695396
v -0.2508442 0.2219758 -0.2695396
v -0.2508442 0.2219758 -0.2695396
v -0.2508442 0.2219758 -0.2695396
v -0.2508442 0.2219758 -0.2695396
v 0.1443298 -0.2219758 0.2695396
v 0.1443298 -0.2219758 0.2695396
v 0.1443298 -0.2219758 0.2695396
v 0.1443298 -0.2219758 0.2695396
v 0.1443298 -0.2219758 0.2695396
v 0.1443298 -0.2219758 0.2695396
v -0.2508442 0.2219758 0.2695396
v -0.2508442 0.2219758 0.2695396
v -0.2508442 0.2219758 0.2695396
v -0.2508442 0.2219758 0.2695396
v -0.2508442 0.2219758 0.2695396
v -0.1819596 0.2219758 -0.2006549
v -0.1819596 0.2219758 -0.2006549
v -0.1819596 0.2219758 -0.2006549
v -0.1819596 0.2219758 -0.2006549
v -0.1819596 0.2219758 -0.2006549
v -0.1819596 0.2219758 -0.2006549
v -0.1819596 0.2219758 -0.2006549
v -0.1819596 0.2219758 0.2006549
v -0.1819596 0.2219758 0.2006549
v -0.1819596 0.2219758 0.2006549
v -0.1819596 0.2219758 0.2006549
v -0.1819596 0.2219758 0.2006549
v -0.1819596 0.2219758 0.2006549
v -0.1819596 0.2219758 0.2006549
v -0.1819596 0.1695884 0.2006549
v -0.1819596 0.1695884 0.2006549
v -0.1819596 0.1695884 0.2006549
v -0.1819596 0.1695884 0.2006549
v -0.1819596 0.1695884 -0.2006549
v -0.1819596 0.1695884 -0.2006549
v -0.1819596 0.1695884 -0.2006549
v -0.1819596 0.1695884 -0.2006549
v -0.01767884 0.004429996 -0.2695396
v -0.01767884 0.004429996 -0.2695396
v -0.01767884 0.004429996 -0.2695396
v -0.01767884 0.004429996 -0.2695396
v -0.01767884 0.004429996 -0.2695396
v -0.01767884 0.004429996 -0.2695396
v -0.01767884 0.004429996 -0.2695396
v -0.01767884 0.004429996 -0.2695396
v -0.01767884 0.004429996 -0.2695396
v -0.1251175 0.2219758 -0.2695396
v -0.1251175 0.2219758 -0.2695396
v -0.1251175 0.2219758 -0.2695396
v 0.1443298 -0.2219758 -0.09687063
v 0.1443298 -0.2219758 -0.09687063
v 0.1443298 -0.2219758 -0.09687063
v 0.1443298 -0.2219758 -0.09687063
v 0.1443298 -0.2219758 -0.09687063
v 0.09413541 -0.2219758 -0.2695396
v 0.09413541 -0.2219758 -0.2695396
v -0.1095376 0.2219758 -0.2159443
v -0.1095376 0.2219758 -0.2159443
v -0.1095376 0.2219758 -0.2159443
v 0.03159128 0.2219758 0.2695396
v 0.03159128 0.2219758 0.2695396
v 0.03159128 0.2219758 0.2695396
v 0.03159128 0.2219758 0.2695396
v 0.1443298 -0.006301343 0.2695396
v 0.1443298 -0.006301343 0.2695396
v 0.1443298 -0.006301343 0.2695396
v 0.1443298 -0.006301343 0.2695396
v 0.1443298 -0.006301343 0.2695396
v 0.1443298 -0.006301343 0.2695396
v 0.1443298 -0.006301343 0.2695396
v 0.2508442 -0.2219758 0.2695396
v 0.2508442 -0.2219758 0.2695396
v -0.105093 0.2219758 -0.2006549
v -0.105093 0.2219758 -0.2006549
v -0.105093 0.2219758 -0.2006549
v 0.01526028 0.2219758 0.2133609
v 0.01526028 0.2219758 0.2133609
v 0.01526028 0.2219758 0.2133609
v 0.01526028 0.2219758 0.2133609
v 0.01526028 0.2219758 0.2133609
v 0.01156671 0.2219758 0.2006549
v 0.01156671 0.2219758 0.2006549
v -0.088604 0.1885883 -0.2006549
v -0.088604 0.1885883 -0.2006549
v -0.088604 0.1885883 -0.2006549
v -0.088604 0.1885883 -0.2006549
v 0.03319214 0.1781878 0.2006549
v 0.03319214 0.1781878 0.2006549
v 0.03319214 0.1781878 0.2006549
v 0.03743911 0.1695884 0.2006549
v 0.03743911 0.1695884 0.2006549
v 0.03743911 0.1695884 0.2006549
v 0.03743911 0.1695884 0.2006549
v 0.03743911 0.1695884 0.2006549
v 0.03743911 0.1695884 0.2006549
v -0.07922058 0.1695884 -0.2006549
v -0.07922058 0.1695884 -0.2006549
v -0.07922058 0.1695884 -0.2006549
v -0.07922058 0.1695884 -0.2006549
v -0.03098488 0.1695884 -0.03472392
v -0.03098488 0.1695884 -0.03472392
v -0.03098488 0.1695884 -0.03472392
v -0.03098488 0.1695884 -0.03472392
vt 0.2641402 0.8680431
vt 0.2641402 0.8680431
vt 0.2629897 0.9471551
vt 0.2700317 0.8680431
vt 0.2629897 0.9471551
vt 0.2642173 0.9471551
vt 0.2642173 0.9471551
vt 0.2642173 0.9286055
vt 0.2642173 0.9286054
vt 0.2671447 0.9083885
vt 0.2652302 0.9471551
vt 0.2700317 0.8680431
vt 0.2691373 0.8680431
vt 0.2655078 0.9471551
vt 0.2680227 0.9471551
vt 0.2700318 0.9064763
vt 0.2719298 0.8680432
vt 0.265587 0.9471551
vt 0.2677317 0.9471551
vt 0.2676659 0.9471551
vt 0.2658809 0.9353331
vt 0.2680513 0.9316504
vt 0.268127 0.9286054
vt 0.2660481 0.9286054
vt 0.1242896 0.8231921
vt 0.2641402 0.8680431
vt 0.2641402 0.8680431
vt 0.2641402 0.8680431
vt 0.2641402 0.8680431
vt 0.2641402 0.8680431
vt 0.2641402 0.8680431
vt 0.2641402 0.8680431
vt 0.2641402 0.8680431
vt 0.2629897 0.9471551
vt 0.2629897 0.9471551
vt 0.2629897 0.9471551
vt 0.2629897 0.9471551
vt 0.2629897 0.9471551
vt 0.2629897 0.9471551
vt 0.2700317 0.8680431
vt 0.2700317 0.8680431
vt 0.2700317 0.8680431
vt 0.2700317 0.8680431
vt 0.2700317 0.8680431
vt 0.2700317 0.8680431
vt 0.2629897 0.9471551
vt 0.2629897 0.9471551
vt 0.2629897 0.9471551
vt 0.2629897 0.9471551
vt 0.2629897 0.9471551
vt 0.2642173 0.9471551
vt 0.2642173 0.9471551
vt 0.2642173 0.9471551
vt 0.2642173 0.9471551
vt 0.2642173 0.9471551
vt 0.2642173 0.9471551
vt 0.2642173 0.9471551
vt 0.2642173 0.9471551
vt 0.2642173 0.9471551
vt 0.2642173 0.9471551
vt 0.2642173 0.9471551
vt 0.2642173 0.9471551
vt 0.2642173 0.9471551
vt 0.2642173 0.9471551
vt 0.2642173 0.9286055
vt 0.2642173 0.9286055
vt 0.1215992 0.8231922
vt 0.1215992 0.8231922
vt 0.2642173 0.9286054
vt 0.2642173 0.9286054
vt 0.1215992 0.8231921
vt 0.1215992 0.8231921
vt 0.2671447 0.9083885
vt 0.2671447 0.9083885
vt -0.08290723 -0.06846319
vt -0.08290723 -0.06846319
vt -0.08290723 -0.06846319
vt -0.08290723 -0.06846319
vt -0.08290723 -0.06846319
vt -0.08290723 -0.06846319
vt -0.08290723 -0.06846319
vt 0.2652302 0.9471551
vt 0.2652302 0.9471551
vt -0.138164 -0.0684632
vt 0.2700317 0.8680431
vt 0.2700317 0.8680431
vt -0.02540005 -0.02460519
vt -0.02540005 -0.02460519
vt -0.02540005 -0.02460519
vt 0.2691373 0.8680431
vt -0.02540005 -0.06846319
vt 0.2655078 0.9471551
vt -0.138164 -0.05484997
vt -0.138164 -0.05484997
vt 0.2680227 0.9471551
vt 0.2680227 0.9471551
vt -0.138164 0.06846318
vt -0.138164 0.06846318
vt 0.2700318 0.9064763
vt -0.08018146 0.06846319
vt -0.08018146 0.06846319
vt -0.08018146 0.06846319
vt -0.08018146 0.06846319
vt -0.08018146 0.06846319
vt -0.08018146 0.06846319
vt 0.2719298 0.8680431
vt -0.02540005 0.06846319
vt 0.265587 0.9471551
vt -0.138164 -0.05096646
vt -0.138164 -0.05096646
vt 0.2677317 0.9471551
vt 0.2677317 0.9471551
vt -0.138164 0.05419376
vt -0.138164 0.05419376
vt -0.138164 0.05419376
vt 0.2676659 0.9471551
vt -0.138164 0.05096645
vt 0.2658809 0.9353331
vt 0.2658809 0.935333
vt -0.1296835 -0.05096646
vt -0.1296835 -0.05096646
vt 0.2680513 0.9316504
vt -0.1270418 0.05096645
vt -0.1270418 0.05096645
vt 0.268127 0.9286054
vt 0.1255089 0.8231922
vt -0.1248576 0.05096645
vt -0.1248576 0.05096645
vt -0.1248576 0.05096645
vt -0.1248576 0.05096645
vt 0.12343 0.8231921
vt -0.1248576 -0.05096646
vt -0.1248576 -0.05096646
vt -0.1248576 -0.05096646
vt 0.1242896 0.8231921
vt 0.1242896 0.8231922
vt -0.1248576 -0.0088199
vt -0.1248576 -0.0088199
vn -0.9895915 -0.1439047 0
vn -0.9895915 -0.1439047 0
vn -0.9895915 -0.1439047 0
vn 0 -1 0
vn -0.9895915 -0.1439047 0
vn 0 1 0
vn 0 1 0
vn 1 0 0
vn 1 0 0
vn 0 0 -1
vn 0 0 -1
vn 0 -1 0
vn 0 -1 0
vn 0 1 0
vn 0 0 1
vn 0 0 1
vn 0 -1 0
vn 0 1 0
vn 0 1 0
vn 0 1 0
vn 0 0 1
vn 0 0 -1
vn 0 0 -1
vn 0 0 1
vn 0 1 0
vn 0 -1 0
vn -0.9895915 -0.1439047 0
vn 0 0 1
vn 0 -1 0
vn 0 0 -1
vn 0 -1 0
vn 0 -1 0
vn 0 0 -1
vn -0.9895915 -0.1439047 0
vn 0 1 0
vn 0 1 0
vn 0 0 -1
vn 0 0 -1
vn 0 1 0
vn 0 0 1
vn 0 -1 0
vn 0 0 1
vn 0 0 1
vn 0 -1 0
vn 0 0 1
vn 0 0 1
vn 0 1 0
vn 0 0 1
vn 0 1 0
vn 0 1 0
vn 1 0 0
vn 1 0 0
vn 0 1 0
vn 0 1 0
vn 0 1 0
vn 0 0 1
vn 0 0 1
vn 0 1 0
vn 1 0 0
vn 0 1 0
vn 0 1 0
vn 0 0 -1
vn 0 0 -1
vn 0 0 -1
vn 1 0 0
vn 0 0 -1
vn 0 1 0
vn 0 1 0
vn 0 0 1
vn 0 0 1
vn 0 1 0
vn 0 1 0
vn 0 0 -1
vn 0 0 -1
vn 0.867629 0.4284933 -0.252217
vn 0.8676291 0.4284933 -0.2522167
vn 0.8676295 0.4284931 -0.2522156
vn 0.8676277 0.428494 -0.25222
vn 0.867629 0.428493 -0.2522174
vn 0.8676291 0.4284931 -0.2522173
vn 0.8676289 0.4284933 -0.2522173
vn 0 1 0
vn 0 1 0
vn 0.867629 0.4284933 -0.252217
vn 0 -1 0
vn 0 -1 0
vn 0.867629 0.4284931 -0.2522174
vn 0.867629 0.428493 -0.2522174
vn 0.8676291 0.4284931 -0.2522173
vn 0 0 -1
vn 0.867629 0.428493 -0.2522174
vn 0 1 0
vn 0.867629 0.4284933 -0.252217
vn 0.8676291 0.4284933 -0.2522167
vn 0 0 1
vn 0 1 0
vn 0.867629 0.4284932 -0.2522173
vn 0.8676288 0.4284935 -0.2522175
vn 0 0 1
vn 0.867629 0.4284931 -0.2522174
vn 0.8676291 0.4284931 -0.2522173
vn 0.8676289 0.4284933 -0.2522173
vn 0.867629 0.4284931 -0.2522174
vn 0.867629 0.4284932 -0.2522174
vn 0.867629 0.4284932 -0.2522173
vn 0 0 1
vn 0.867629 0.4284931 -0.2522174
vn 0 0 1
vn 0.8676291 0.4284933 -0.2522167
vn 0.8676295 0.4284931 -0.2522156
vn 0 1 0
vn 0 1 0
vn 0.8676293 0.4284929 -0.2522164
vn 0.8676288 0.4284935 -0.2522175
vn 0.8676265 0.4284942 -0.252224
vn 0 0 -1
vn 0.8676293 0.4284929 -0.2522164
vn 0 0 1
vn 0 0 1
vn 0.8676295 0.4284931 -0.2522156
vn 0.8676277 0.428494 -0.25222
vn 0 0 -1
vn 0.8676293 0.4284929 -0.2522164
vn 0.8676265 0.4284942 -0.252224
vn 0 0 -1
vn 0 1 0
vn 0.867629 0.4284932 -0.2522174
vn 0.867629 0.4284932 -0.2522173
vn 0.8676288 0.4284935 -0.2522175
vn 0.8676265 0.4284942 -0.252224
vn 0 1 0
vn 0.8676277 0.428494 -0.25222
vn 0.8676289 0.4284933 -0.2522173
vn 0.867629 0.4284931 -0.2522174
vn 0 1 0
vn 0 1 0
vn 0.867629 0.4284931 -0.2522174
vn 0.867629 0.4284932 -0.2522174
g IL_CleaningWheelBarrow_sh_2_0
f 3/3/3 2/2/2 1/1/1
f 4/4/4 26/26/26 29/29/29
f 5/5/5 34/34/34 27/27/27
f 46/46/46 28/28/28 40/40/40
f 35/35/35 47/47/47 7/7/7
f 6/6/6 36/36/36 58/58/58
f 59/59/59 8/8/8 51/51/51
f 65/65/65 9/9/9 52/52/52
f 10/10/10 37/37/37 11/11/11
f 30/30/30 38/38/38 73/73/73
f 12/12/12 41/41/41 31/31/31
f 13/13/13 85/85/85 32/32/32
f 74/74/74 90/90/90 33/33/33
f 82/82/82 39/39/39 53/53/53
f 14/14/14 83/83/83 54/54/54
f 15/15/15 48/48/48 42/42/42
f 16/16/16 95/95/95 43/43/43
f 86/86/86 17/17/17 44/44/44
f 18/18/18 92/92/92 55/55/55
f 20/20/20 60/60/60 19/19/19
f 61/61/61 49/49/49 111/111/111
f 50/50/50 96/96/96 112/112/112
f 106/106/106 99/99/99 45/45/45
f 108/108/108 56/56/56 21/21/21
f 57/57/57 69/69/69 118/118/118
f 116/116/116 22/22/22 62/62/62
f 23/23/23 66/66/66 63/63/63
f 122/122/122 125/125/125 64/64/64
f 70/70/70 24/24/24 119/119/119
f 131/131/131 71/71/71 25/25/25
f 72/72/72 67/67/67 135/135/135
f 68/68/68 126/126/126 136/136/136
g IL_CleaningWheelBarrow_sh_2_1
f 100/100/100 107/107/107 87/87/87
f 123/123/123 117/117/117 113/113/113
f 75/75/75 84/84/84 93/93/93
f 76/76/76 94/94/94 109/109/109
f 77/77/77 110/110/110 120/120/120
f 78/78/78 121/121/121 132/132/132
f 88/88/88 91/91/91 79/79/79
f 101/101/101 89/89/89 80/80/80
f 102/102/102 81/81/81 133/133/133
f 103/103/103 134/134/134 137/137/137
f 104/104/104 138/138/138 127/127/127
f 97/97/97 105/105/105 128/128/128
f 114/114/114 98/98/98 129/129/129
f 130/130/130 124/124/124 115/115/115
