g IL_Coop_SOD_Laptop
v -0.2952622 0 -0.2553768
v -0.2952622 0.01435321 -0.2742772
v -0.2952622 0.0467182 -0.2952622
v -0.2952622 0.0467182 -0.2553768
v -0.2952622 0 0.1781101
v -0.2952622 0.0467182 0.1781101
v -0.2952622 0.4897642 -0.3654498
v -0.2952622 0.4828515 -0.4005192
v -0.2952622 0.01435321 -0.2742772
v 0.2952622 0.01435321 -0.2742772
v 0.2952622 0.0467182 -0.2952622
v -0.2952622 0.0467182 -0.2952622
v 0.2952622 0 -0.2553768
v 0.2952622 0 0.1781101
v 0.2952622 0.0467182 0.1781101
v 0.2952622 0.0467182 -0.2553768
v 0.2952622 0.01435321 -0.2742772
v 0.2952622 0.0467182 -0.2952622
v 0.2952622 0.4828515 -0.4005192
v 0.2952622 0.4897642 -0.3654498
v 0.2952622 0 0.1781101
v -0.2952622 0 0.1781101
v -0.2952622 0.0467182 0.1781101
v 0.2952622 0.0467182 0.1781101
v -0.2952622 0 -0.2553768
v -0.2952622 0 0.1781101
v 0.2952622 0 0.1781101
v 0.2952622 0 -0.2553768
v 0.07527567 0.0467182 0.00555937
v 0.07527567 0.0467182 0.1340985
v -0.07527567 0.0467182 0.1340985
v -0.07527567 0.0467182 0.00555937
v -0.2952622 0.01435321 -0.2742772
v -0.2952622 0 -0.2553768
v 0.2952622 0 -0.2553768
v 0.2952622 0.01435321 -0.2742772
v 0.2952622 0.4828515 -0.4005192
v 0.2952622 0.4897642 -0.3654498
v -0.2952622 0.4897642 -0.3654498
v -0.2952622 0.4828515 -0.4005192
v 0.2952622 0.0467182 -0.2952622
v 0.2952622 0.4828515 -0.4005192
v -0.2952622 0.4828515 -0.4005192
v -0.2952622 0.0467182 -0.2952622
v -0.2473718 0.09319561 -0.2669239
v -0.2473718 0.4432868 -0.3539027
v 0.2473718 0.4432868 -0.3539027
v 0.2473718 0.09319561 -0.2669239
v 0.2228852 0.0467182 -0.2392857
v -0.2228852 0.0467182 -0.2392857
v -0.2228852 0.0467182 -0.01368405
v 0.2228852 0.0467182 -0.01368405
v 0.2228852 0.0500783 -0.2392857
v 0.2228852 0.0500783 -0.01368405
v -0.2228852 0.0500783 -0.01368405
v -0.2228852 0.0500783 -0.2392857
v 0.2228852 0.0467182 -0.2392857
v 0.2228852 0.0500783 -0.2392857
v -0.2228852 0.0500783 -0.2392857
v -0.2228852 0.0467182 -0.2392857
v -0.2228852 0.0467182 -0.01368405
v -0.2228852 0.0500783 -0.01368405
v 0.2228852 0.0500783 -0.01368405
v 0.2228852 0.0467182 -0.01368405
v -0.2228852 0.0467182 -0.2392857
v -0.2228852 0.0500783 -0.2392857
v -0.2228852 0.0500783 -0.01368405
v -0.2228852 0.0467182 -0.01368405
v 0.2228852 0.0467182 -0.01368405
v 0.2228852 0.0500783 -0.01368405
v 0.2228852 0.0500783 -0.2392857
v 0.2228852 0.0467182 -0.2392857
v 0.2473718 0.09319561 -0.2669239
v 0.2952622 0.0467182 -0.2553768
v -0.2952622 0.0467182 -0.2553768
v -0.2473718 0.09319561 -0.2669239
v 0.2473718 0.4432868 -0.3539027
v -0.2952622 0.4897642 -0.3654498
v 0.2952622 0.4897642 -0.3654498
v -0.2473718 0.4432868 -0.3539027
v 0.07527567 0.0467182 0.00555937
v 0.2952622 0.0467182 -0.2553768
v 0.2952622 0.0467182 0.1781101
v 0.07527567 0.0467182 0.1340985
v -0.07527567 0.0467182 0.00555937
v -0.2952622 0.0467182 0.1781101
v -0.2952622 0.0467182 -0.2553768
v -0.07527567 0.0467182 0.1340985
vt 0.2744141 0.9160156
vt 0.2744141 0.9160156
vt 0.2744141 0.9160156
vt 0.2744141 0.9160156
vt 0.2744141 0.9160156
vt 0.2744141 0.9160156
vt 0.2744141 0.9160156
vt 0.2744141 0.9160156
vt 0.2744141 0.9160156
vt 0.2744141 0.9160156
vt 0.2744141 0.9160156
vt 0.2744141 0.9160156
vt 0.2744141 0.9160156
vt 0.2744141 0.9160156
vt 0.2744141 0.9160156
vt 0.2744141 0.9160156
vt 0.2744141 0.9160156
vt 0.2744141 0.9160156
vt 0.2744141 0.9160156
vt 0.2744141 0.9160156
vt 0.2744141 0.9160156
vt 0.2744141 0.9160156
vt 0.2744141 0.9160156
vt 0.2744141 0.9160156
vt 0.2744141 0.9160156
vt 0.2744141 0.9160156
vt 0.2744141 0.9160156
vt 0.2744141 0.9160156
vt 0.4233398 0.8452148
vt 0.4233398 0.8452148
vt 0.4233398 0.8452148
vt 0.4233398 0.8452148
vt 0.2744141 0.9160156
vt 0.2744141 0.9160156
vt 0.2744141 0.9160156
vt 0.2744141 0.9160156
vt 0.2744141 0.9160156
vt 0.2744141 0.9160156
vt 0.2744141 0.9160156
vt 0.2744141 0.9160156
vt 0.2744141 0.9160156
vt 0.2744141 0.9160156
vt 0.2744141 0.9160156
vt 0.2744141 0.9160156
vt 0.4567871 0.9150391
vt 0.4567871 0.9887695
vt 0.5605469 0.9887695
vt 0.5605469 0.9150391
vt 0.4228516 0.871582
vt 0.4228516 0.871582
vt 0.4228516 0.871582
vt 0.4228516 0.871582
vt 0.4228516 0.871582
vt 0.4228516 0.871582
vt 0.4228516 0.871582
vt 0.4228516 0.871582
vt 0.4228516 0.871582
vt 0.4228516 0.871582
vt 0.4228516 0.871582
vt 0.4228516 0.871582
vt 0.4228516 0.871582
vt 0.4228516 0.871582
vt 0.4228516 0.871582
vt 0.4228516 0.871582
vt 0.4228516 0.871582
vt 0.4228516 0.871582
vt 0.4228516 0.871582
vt 0.4228516 0.871582
vt 0.4228516 0.871582
vt 0.4228516 0.871582
vt 0.4228516 0.871582
vt 0.4228516 0.871582
vt 0.2744141 0.9160156
vt 0.2744141 0.9160156
vt 0.2744141 0.9160156
vt 0.2744141 0.9160156
vt 0.2744141 0.9160156
vt 0.2744141 0.9160156
vt 0.2744141 0.9160156
vt 0.2744141 0.9160156
vt 0.2744141 0.9160156
vt 0.2744141 0.9160156
vt 0.2744141 0.9160156
vt 0.2744141 0.9160156
vt 0.2744141 0.9160156
vt 0.2744141 0.9160156
vt 0.2744141 0.9160156
vt 0.2744141 0.9160156
vn -1 0 8.34465E-07
vn -1 0 8.34465E-07
vn -1 0 8.34465E-07
vn -1 0 8.34465E-07
vn -1 0 0
vn -1 0 0
vn -1 0 -5.960464E-07
vn -1 0 -5.960464E-07
vn 0 -0.5439453 -0.8388672
vn 0 -0.5439453 -0.8388672
vn 0 -0.5439453 -0.8388672
vn 0 -0.5439453 -0.8388672
vn 1 0 0
vn 1 0 0
vn 1 0 0
vn 1 0 0
vn 1 0 0
vn 1 0 -5.960464E-07
vn 1 0 -5.960464E-07
vn 1 0 -5.960464E-07
vn 0 0 1
vn 0 0 1
vn 0 0 1
vn 0 0 1
vn 0 -1 0
vn 0 -1 0
vn 0 -1 0
vn 0 -1 0
vn 0 1 0
vn 0 1 0
vn 0 1 0
vn 0 1 0
vn 0 -0.7963867 -0.6049805
vn 0 -0.7963867 -0.6049805
vn 0 -0.7963867 -0.6049805
vn 0 -0.7963867 -0.6049805
vn 0 0.980957 -0.1933594
vn 0 0.980957 -0.1933594
vn 0 0.980957 -0.1933594
vn 0 0.980957 -0.1933594
vn 0 -0.2346191 -0.972168
vn 0 -0.2346191 -0.972168
vn 0 -0.2346191 -0.972168
vn 0 -0.2346191 -0.972168
vn 0 0.2410889 0.9707031
vn 0 0.2410889 0.9707031
vn 0 0.2410889 0.9707031
vn 0 0.2410889 0.9707031
vn 0 -1 0
vn 0 -1 0
vn 0 -1 0
vn 0 -1 0
vn 0 1 0
vn 0 1 0
vn 0 1 0
vn 0 1 0
vn 0 0 -1
vn 0 0 -1
vn 0 0 -1
vn 0 0 -1
vn 0 0 1
vn 0 0 1
vn 0 0 1
vn 0 0 1
vn -1 0 0
vn -1 0 0
vn -1 0 0
vn -1 0 0
vn 1 0 0
vn 1 0 0
vn 1 0 0
vn 1 0 0
vn 0 0.2410889 0.9707031
vn 0 0.2410889 0.9707031
vn 0 0.2410889 0.9707031
vn 0 0.2410889 0.9707031
vn 0 0.2410889 0.9707031
vn 0 0.2410889 0.9707031
vn 0 0.2410889 0.9707031
vn 0 0.2410889 0.9707031
vn 0 1 0
vn 0 1 0
vn 0 1 0
vn 0 1 0
vn 0 1 0
vn 0 1 0
vn 0 1 0
vn 0 1 0
g IL_Coop_SOD_Laptop_0
f 3/3/3 2/2/2 1/1/1
f 4/4/4 3/3/3 1/1/1
f 4/4/4 1/1/1 5/5/5
f 6/6/6 4/4/4 5/5/5
f 4/4/4 7/7/7 3/3/3
f 7/7/7 8/8/8 3/3/3
f 11/11/11 10/10/10 9/9/9
f 12/12/12 11/11/11 9/9/9
f 15/15/15 14/14/14 13/13/13
f 16/16/16 15/15/15 13/13/13
f 16/16/16 13/13/13 17/17/17
f 18/18/18 16/16/16 17/17/17
f 18/18/18 19/19/19 16/16/16
f 19/19/19 20/20/20 16/16/16
f 23/23/23 22/22/22 21/21/21
f 24/24/24 23/23/23 21/21/21
f 27/27/27 26/26/26 25/25/25
f 28/28/28 27/27/27 25/25/25
f 31/31/31 30/30/30 29/29/29
f 32/32/32 31/31/31 29/29/29
f 35/35/35 34/34/34 33/33/33
f 36/36/36 35/35/35 33/33/33
f 39/39/39 38/38/38 37/37/37
f 40/40/40 39/39/39 37/37/37
f 43/43/43 42/42/42 41/41/41
f 44/44/44 43/43/43 41/41/41
f 47/47/47 46/46/46 45/45/45
f 48/48/48 47/47/47 45/45/45
f 51/51/51 50/50/50 49/49/49
f 52/52/52 51/51/51 49/49/49
f 55/55/55 54/54/54 53/53/53
f 56/56/56 55/55/55 53/53/53
f 59/59/59 58/58/58 57/57/57
f 60/60/60 59/59/59 57/57/57
f 63/63/63 62/62/62 61/61/61
f 64/64/64 63/63/63 61/61/61
f 67/67/67 66/66/66 65/65/65
f 68/68/68 67/67/67 65/65/65
f 71/71/71 70/70/70 69/69/69
f 72/72/72 71/71/71 69/69/69
f 75/75/75 74/74/74 73/73/73
f 76/76/76 75/75/75 73/73/73
f 73/73/73 74/74/74 77/77/77
f 78/78/78 75/75/75 76/76/76
f 74/74/74 79/79/79 77/77/77
f 80/80/80 78/78/78 76/76/76
f 77/77/77 79/79/79 80/80/80
f 79/79/79 78/78/78 80/80/80
f 83/83/83 82/82/82 81/81/81
f 84/84/84 83/83/83 81/81/81
f 81/81/81 82/82/82 85/85/85
f 86/86/86 83/83/83 84/84/84
f 82/82/82 87/87/87 85/85/85
f 88/88/88 86/86/86 84/84/84
f 85/85/85 87/87/87 88/88/88
f 87/87/87 86/86/86 88/88/88
