g IL_ExitDoor
v -1.2 2.4 0.6
v -1.2 2.6 0.3
v -1.2 2.6 0.6
v -1.2 2.4 0.3
v -1.2 1.45 0.6
v -1.2 1.45 0.3
v -1.2 1.3 0.6
v -1.2 1.3 0.3
v -1.2 1.15 0.6
v -1.2 1.15 0.3
v -1.2 0.1999999 0.6
v -1.2 0.1999999 0.3
v -1.2 0 0.6
v -1.2 0 0.3
v 1.1 2.4 0.3
v 1.1 2.6 0.6
v 1.1 2.6 0.3
v 1.1 2.4 0.6
v 1.1 1.45 0.3
v 1.1 1.45 0.6
v 1.1 1.3 0.3
v 1.1 1.3 0.6
v 1.1 1.15 0.3
v 1.1 1.15 0.6
v 1.1 0.1999999 0.3
v 1.1 0.1999999 0.6
v 1.1 0 0.3
v 1.1 0 0.6
v 0.9 0 0.3
v 1.1 0 0.6
v 1.1 0 0.3
v 0.9 0 0.6
v -1 0 0.3
v -0.9999999 0 0.6
v -1.2 0 0.3
v -1.2 0 0.6
v -0.9999999 2.6 0.3
v -1.2 2.6 0.6
v -1.2 2.6 0.3
v -1 2.6 0.6
v 0.9 2.6 0.3
v 0.9 2.6 0.6
v 1.1 2.6 0.3
v 1.1 2.6 0.6
v 1.1 2.4 0.6
v 0.9 2.6 0.6
v 1.1 2.6 0.6
v 0.9 2.4 0.6
v 1.1 1.45 0.6
v -1 2.6 0.6
v 0.9 1.45 0.6
v -1 2.4 0.6
v -1.2 2.6 0.6
v -1.2 2.4 0.6
v -1 1.45 0.6
v 1.1 1.3 0.6
v -1.2 1.45 0.6
v 0.9 1.3 0.6
v 1.1 1.15 0.6
v -1 1.3 0.6
v -1.2 1.3 0.6
v 0.9 1.15 0.6
v 1.1 0.1999999 0.6
v -1 1.15 0.6
v -1.2 1.15 0.6
v 0.9 0.1999999 0.6
v 1.1 0 0.6
v 0.9 0 0.6
v -1 0.1999999 0.6
v -1.2 0.1999999 0.6
v -0.9999999 0 0.6
v -1.2 0 0.6
v -1.2 2.4 0.3
v -0.9999999 2.6 0.3
v -1.2 2.6 0.3
v -1 2.4 0.3
v -1.2 1.45 0.3
v 0.9 2.6 0.3
v -1 1.45 0.3
v 0.9 2.4 0.3
v 1.1 2.6 0.3
v 1.1 2.4 0.3
v 0.9 1.45 0.3
v -1.2 1.3 0.3
v 1.1 1.45 0.3
v -1 1.3 0.3
v -1.2 1.15 0.3
v 0.9 1.3 0.3
v 1.1 1.3 0.3
v -1 1.15 0.3
v -1.2 0.1999999 0.3
v 0.9 1.15 0.3
v 1.1 1.15 0.3
v -1 0.1999999 0.3
v -1.2 0 0.3
v -1 0 0.3
v 0.9 0.1999999 0.3
v 1.1 0.1999999 0.3
v 0.9 0 0.3
v 1.1 0 0.3
v 0.9 0.1999999 0.6
v 0.9 0.1999999 0.3
v 0.9 1.15 0.3
v 0.9 1.15 0.6
v 0.9 0.1999999 0.6
v -1 0.1999999 0.6
v -1 0.1999999 0.3
v 0.9 0.1999999 0.3
v -1 0.1999999 0.3
v -1 0.1999999 0.6
v -1 1.15 0.6
v -1 1.15 0.3
v 0.9 1.15 0.6
v 0.9 1.15 0.3
v -1 1.15 0.3
v -1 1.15 0.6
v -1 1.45 0.3
v 0.9 1.45 0.3
v 0.9 1.45 0.6
v -1 1.45 0.6
v -1 1.45 0.3
v -1 1.45 0.6
v -1 2.4 0.6
v -1 2.4 0.3
v 0.9 2.4 0.6
v 0.9 2.4 0.3
v -1 2.4 0.3
v -1 2.4 0.6
v 0.9 1.45 0.6
v 0.9 1.45 0.3
v 0.9 2.4 0.3
v 0.9 2.4 0.6
v 0.9 0.0999999 0.5617744
v 0.9 0.0999999 0.3382257
v -1 0.0999999 0.3382257
v -1 0.0999999 0.5617744
v 0.9 2.5 0.5617744
v -1 2.5 0.5617744
v -1 2.5 0.3382257
v 0.9 2.5 0.3382257
v 0.9 0.0999999 0.5617744
v 0.9 2.5 0.5617744
v 0.9 2.5 0.3382257
v 0.9 0.0999999 0.3382257
v -1 0.0999999 0.5617744
v -1 2.5 0.5617744
v 0.9 2.5 0.5617744
v 0.9 0.0999999 0.5617744
v -1 0.0999999 0.3382257
v -1 2.5 0.3382257
v -1 2.5 0.5617744
v -1 0.0999999 0.5617744
v 0.9 0.0999999 0.3382257
v 0.9 2.5 0.3382257
v -1 2.5 0.3382257
v -1 0.0999999 0.3382257
v 1.053573 1.473738 0.6560928
v 1.053573 1.473738 0.5837618
v 0.9169303 1.473738 0.5837618
v 0.9169303 1.473738 0.6560928
v 1.053573 1.646341 0.6560928
v 0.9169303 1.646341 0.6560928
v 0.9169303 1.646341 0.5837618
v 1.053573 1.646341 0.5837618
v 1.053573 1.473738 0.6560928
v 1.053573 1.646341 0.6560928
v 1.053573 1.646341 0.5837618
v 1.053573 1.473738 0.5837618
v 0.9598275 1.491239 0.6560928
v 0.9598275 1.54905 0.6560928
v 1.010676 1.54905 0.6560928
v 1.010676 1.491239 0.6560928
v 0.9169303 1.473738 0.5837618
v 0.9169303 1.646341 0.5837618
v 0.9169303 1.646341 0.6560928
v 0.9169303 1.473738 0.6560928
v 1.010676 1.491239 0.6560928
v 1.053573 1.473738 0.6560928
v 0.9169303 1.473738 0.6560928
v 0.9598275 1.491239 0.6560928
v 0.9598275 1.54905 0.6560928
v 1.053573 1.646341 0.6560928
v 1.010676 1.54905 0.6560928
v 0.9169303 1.646341 0.6560928
v 0.9598275 1.491239 0.6560928
v 0.9169303 1.473738 0.6560928
v 0.9598275 1.54905 0.6560928
v 1.010676 1.54905 0.6560928
v 1.053573 1.646341 0.6560928
v 1.053573 1.473738 0.6560928
v 1.010676 1.491239 0.6560928
vt 0.4665527 0.2193604
vt 0.4665527 0.2227783
vt 0.4665527 0.2227783
vt 0.4665527 0.2193604
vt 0.4665527 0.2036133
vt 0.4665527 0.2036133
vt 0.4665527 0.2010498
vt 0.4665527 0.2010498
vt 0.4665527 0.1986084
vt 0.4665527 0.1986084
vt 0.4665527 0.1827393
vt 0.4665527 0.1827393
vt 0.4665527 0.1794434
vt 0.4665527 0.1794434
vt 0.5048828 0.2193604
vt 0.5048828 0.2227783
vt 0.5048828 0.2227783
vt 0.5048828 0.2193604
vt 0.5048828 0.2036133
vt 0.5048828 0.2036133
vt 0.5048828 0.2010498
vt 0.5048828 0.2010498
vt 0.5048828 0.1986084
vt 0.5048828 0.1986084
vt 0.5048828 0.1827393
vt 0.5048828 0.1827393
vt 0.5048828 0.1794434
vt 0.5048828 0.1794434
vt 0.5014648 0.1794434
vt 0.5048828 0.1794434
vt 0.5048828 0.1794434
vt 0.5014648 0.1794434
vt 0.4699707 0.1794434
vt 0.4699707 0.1794434
vt 0.4665527 0.1794434
vt 0.4665527 0.1794434
vt 0.4699707 0.2227783
vt 0.4665527 0.2227783
vt 0.4665527 0.2227783
vt 0.4699707 0.2227783
vt 0.5014648 0.2227783
vt 0.5014648 0.2227783
vt 0.5048828 0.2227783
vt 0.5048828 0.2227783
vt 0.5048828 0.2193604
vt 0.5014648 0.2227783
vt 0.5048828 0.2227783
vt 0.5014648 0.2193604
vt 0.5048828 0.2036133
vt 0.4699707 0.2227783
vt 0.5014648 0.2036133
vt 0.4699707 0.2193604
vt 0.4665527 0.2227783
vt 0.4665527 0.2193604
vt 0.4699707 0.2036133
vt 0.5048828 0.2010498
vt 0.4665527 0.2036133
vt 0.5014648 0.2010498
vt 0.5048828 0.1986084
vt 0.4699707 0.2010498
vt 0.4665527 0.2010498
vt 0.5014648 0.1986084
vt 0.5048828 0.1827393
vt 0.4699707 0.1986084
vt 0.4665527 0.1986084
vt 0.5014648 0.1827393
vt 0.5048828 0.1794434
vt 0.5014648 0.1794434
vt 0.4699707 0.1827393
vt 0.4665527 0.1827393
vt 0.4699707 0.1794434
vt 0.4665527 0.1794434
vt 0.4665527 0.2193604
vt 0.4699707 0.2227783
vt 0.4665527 0.2227783
vt 0.4699707 0.2193604
vt 0.4665527 0.2036133
vt 0.5014648 0.2227783
vt 0.4699707 0.2036133
vt 0.5014648 0.2193604
vt 0.5048828 0.2227783
vt 0.5048828 0.2193604
vt 0.5014648 0.2036133
vt 0.4665527 0.2010498
vt 0.5048828 0.2036133
vt 0.4699707 0.2010498
vt 0.4665527 0.1986084
vt 0.5014648 0.2010498
vt 0.5048828 0.2010498
vt 0.4699707 0.1986084
vt 0.4665527 0.1827393
vt 0.5014648 0.1986084
vt 0.5048828 0.1986084
vt 0.4699707 0.1827393
vt 0.4665527 0.1794434
vt 0.4699707 0.1794434
vt 0.5014648 0.1827393
vt 0.5048828 0.1827393
vt 0.5014648 0.1794434
vt 0.5048828 0.1794434
vt 0.5014648 0.1827393
vt 0.5014648 0.1827393
vt 0.5014648 0.1986084
vt 0.5014648 0.1986084
vt 0.5014648 0.1827393
vt 0.4699707 0.1827393
vt 0.4699707 0.1827393
vt 0.5014648 0.1827393
vt 0.4699707 0.1827393
vt 0.4699707 0.1827393
vt 0.4699707 0.1986084
vt 0.4699707 0.1986084
vt 0.5014648 0.1986084
vt 0.5014648 0.1986084
vt 0.4699707 0.1986084
vt 0.4699707 0.1986084
vt 0.4699707 0.2036133
vt 0.5014648 0.2036133
vt 0.5014648 0.2036133
vt 0.4699707 0.2036133
vt 0.4699707 0.2036133
vt 0.4699707 0.2036133
vt 0.4699707 0.2193604
vt 0.4699707 0.2193604
vt 0.5014648 0.2193604
vt 0.5014648 0.2193604
vt 0.4699707 0.2193604
vt 0.4699707 0.2193604
vt 0.5014648 0.2036133
vt 0.5014648 0.2036133
vt 0.5014648 0.2193604
vt 0.5014648 0.2193604
vt 0.5678711 0.1866455
vt 0.5678711 0.1866455
vt 0.5361328 0.1866455
vt 0.5361328 0.1866455
vt 0.5678711 0.1866455
vt 0.5361328 0.1866455
vt 0.5361328 0.1866455
vt 0.5678711 0.1866455
vt 0.5678711 0.1866455
vt 0.5678711 0.1866455
vt 0.5678711 0.1866455
vt 0.5678711 0.1866455
vt 0.5361328 0.1866455
vt 0.5361328 0.1866455
vt 0.5678711 0.1866455
vt 0.5678711 0.1866455
vt 0.5361328 0.1866455
vt 0.5361328 0.1866455
vt 0.5361328 0.1866455
vt 0.5361328 0.1866455
vt 0.5678711 0.1866455
vt 0.5678711 0.1866455
vt 0.5361328 0.1866455
vt 0.5361328 0.1866455
vt 0.2061768 0.1889648
vt 0.2061768 0.1889648
vt 0.1745605 0.1889648
vt 0.1745605 0.1889648
vt 0.2061768 0.1889648
vt 0.1745605 0.1889648
vt 0.1745605 0.1889648
vt 0.2061768 0.1889648
vt 0.2061768 0.1889648
vt 0.2061768 0.1889648
vt 0.2061768 0.1889648
vt 0.2061768 0.1889648
vt 0.2617188 0.1901855
vt 0.2617188 0.1901855
vt 0.2734375 0.1901855
vt 0.2734375 0.1901855
vt 0.1745605 0.1889648
vt 0.1745605 0.1889648
vt 0.1745605 0.1889648
vt 0.1745605 0.1889648
vt 0.1962891 0.1889648
vt 0.2061768 0.1889648
vt 0.1745605 0.1889648
vt 0.1845703 0.1889648
vt 0.1845703 0.1889648
vt 0.2061768 0.1889648
vt 0.1962891 0.1889648
vt 0.1745605 0.1889648
vt 0.1845703 0.1889648
vt 0.1745605 0.1889648
vt 0.1845703 0.1889648
vt 0.1962891 0.1889648
vt 0.2061768 0.1889648
vt 0.2061768 0.1889648
vt 0.1962891 0.1889648
vn -1 0 0
vn -1 0 0
vn -1 0 0
vn -1 0 0
vn -1 0 0
vn -1 0 0
vn -1 0 0
vn -1 0 0
vn -1 0 0
vn -1 0 0
vn -1 0 0
vn -1 0 0
vn -1 0 0
vn -1 0 0
vn 1 0 0
vn 1 0 0
vn 1 0 0
vn 1 0 0
vn 1 0 0
vn 1 0 0
vn 1 0 0
vn 1 0 0
vn 1 0 0
vn 1 0 0
vn 1 0 0
vn 1 0 0
vn 1 0 0
vn 1 0 0
vn 0 -1 0
vn 0 -1 0
vn 0 -1 0
vn 0 -1 0
vn 0 -1 0
vn 0 -1 0
vn 0 -1 0
vn 0 -1 0
vn 0 1 0
vn 0 1 0
vn 0 1 0
vn 0 1 0
vn 0 1 0
vn 0 1 0
vn 0 1 0
vn 0 1 0
vn 0 0 1
vn 0 0 1
vn 0 0 1
vn 0 0 1
vn 0 0 1
vn 0 0 1
vn 0 0 1
vn 0 0 1
vn 0 0 1
vn 0 0 1
vn 0 0 1
vn 0 0 1
vn 0 0 1
vn 0 0 1
vn 0 0 1
vn 0 0 1
vn 0 0 1
vn 0 0 1
vn 0 0 1
vn 0 0 1
vn 0 0 1
vn 0 0 1
vn 0 0 1
vn 0 0 1
vn 0 0 1
vn 0 0 1
vn 0 0 1
vn 0 0 1
vn 0 0 -1
vn 0 0 -1
vn 0 0 -1
vn 0 0 -1
vn 0 0 -1
vn 0 0 -1
vn 0 0 -1
vn 0 0 -1
vn 0 0 -1
vn 0 0 -1
vn 0 0 -1
vn 0 0 -1
vn 0 0 -1
vn 0 0 -1
vn 0 0 -1
vn 0 0 -1
vn 0 0 -1
vn 0 0 -1
vn 0 0 -1
vn 0 0 -1
vn 0 0 -1
vn 0 0 -1
vn 0 0 -1
vn 0 0 -1
vn 0 0 -1
vn 0 0 -1
vn 0 0 -1
vn 0 0 -1
vn -1 0 0
vn -1 0 0
vn -1 0 0
vn -1 0 0
vn 0 1 0
vn 0 1 0
vn 0 1 0
vn 0 1 0
vn 1 0 0
vn 1 0 0
vn 1 0 0
vn 1 0 0
vn 0 -1 0
vn 0 -1 0
vn 0 -1 0
vn 0 -1 0
vn 0 1 0
vn 0 1 0
vn 0 1 0
vn 0 1 0
vn 1 0 0
vn 1 0 0
vn 1 0 0
vn 1 0 0
vn 0 -1 0
vn 0 -1 0
vn 0 -1 0
vn 0 -1 0
vn -1 0 0
vn -1 0 0
vn -1 0 0
vn -1 0 0
vn 0 -1 0
vn 0 -1 0
vn 0 -1 0
vn 0 -1 0
vn 0 1 0
vn 0 1 0
vn 0 1 0
vn 0 1 0
vn 1 0 0
vn 1 0 0
vn 1 0 0
vn 1 0 0
vn 0 0 1
vn 0 0 1
vn 0 0 1
vn 0 0 1
vn -1 0 0
vn -1 0 0
vn -1 0 0
vn -1 0 0
vn 0 0 -1
vn 0 0 -1
vn 0 0 -1
vn 0 0 -1
vn 0 -1 0
vn 0 -1 0
vn 0 -1 0
vn 0 -1 0
vn 0 1 0
vn 0 1 0
vn 0 1 0
vn 0 1 0
vn 1 0 0
vn 1 0 0
vn 1 0 0
vn 1 0 0
vn 0 0 1
vn 0 0 1
vn 0 0 1
vn 0 0 1
vn -1 0 0
vn -1 0 0
vn -1 0 0
vn -1 0 0
vn 0 -4.529953E-06 1
vn 0 -4.529953E-06 1
vn 0 -4.529953E-06 1
vn 0 -4.529953E-06 1
vn 0 8.34465E-07 1
vn 0 8.34465E-07 1
vn 0 8.34465E-07 1
vn 0 8.34465E-07 1
vn 0 0 1
vn 0 0 1
vn 0 0 1
vn 0 0 1
vn 0 0 1
vn 0 0 1
vn 0 0 1
g IL_ExitDoor_0
f 3/3/3 2/2/2 1/1/1
f 2/2/2 4/4/4 1/1/1
f 1/1/1 4/4/4 5/5/5
f 4/4/4 6/6/6 5/5/5
f 5/5/5 6/6/6 7/7/7
f 6/6/6 8/8/8 7/7/7
f 7/7/7 8/8/8 9/9/9
f 8/8/8 10/10/10 9/9/9
f 9/9/9 10/10/10 11/11/11
f 10/10/10 12/12/12 11/11/11
f 11/11/11 12/12/12 13/13/13
f 12/12/12 14/14/14 13/13/13
f 17/17/17 16/16/16 15/15/15
f 16/16/16 18/18/18 15/15/15
f 15/15/15 18/18/18 19/19/19
f 18/18/18 20/20/20 19/19/19
f 19/19/19 20/20/20 21/21/21
f 20/20/20 22/22/22 21/21/21
f 21/21/21 22/22/22 23/23/23
f 22/22/22 24/24/24 23/23/23
f 23/23/23 24/24/24 25/25/25
f 24/24/24 26/26/26 25/25/25
f 25/25/25 26/26/26 27/27/27
f 26/26/26 28/28/28 27/27/27
f 31/31/31 30/30/30 29/29/29
f 30/30/30 32/32/32 29/29/29
f 29/29/29 32/32/32 33/33/33
f 32/32/32 34/34/34 33/33/33
f 33/33/33 34/34/34 35/35/35
f 34/34/34 36/36/36 35/35/35
f 39/39/39 38/38/38 37/37/37
f 38/38/38 40/40/40 37/37/37
f 37/37/37 40/40/40 41/41/41
f 40/40/40 42/42/42 41/41/41
f 41/41/41 42/42/42 43/43/43
f 42/42/42 44/44/44 43/43/43
f 47/47/47 46/46/46 45/45/45
f 46/46/46 48/48/48 45/45/45
f 45/45/45 48/48/48 49/49/49
f 46/46/46 50/50/50 48/48/48
f 48/48/48 51/51/51 49/49/49
f 50/50/50 52/52/52 48/48/48
f 50/50/50 53/53/53 52/52/52
f 53/53/53 54/54/54 52/52/52
f 52/52/52 54/54/54 55/55/55
f 49/49/49 51/51/51 56/56/56
f 54/54/54 57/57/57 55/55/55
f 51/51/51 58/58/58 56/56/56
f 51/51/51 55/55/55 58/58/58
f 56/56/56 58/58/58 59/59/59
f 55/55/55 57/57/57 60/60/60
f 55/55/55 60/60/60 58/58/58
f 57/57/57 61/61/61 60/60/60
f 58/58/58 62/62/62 59/59/59
f 58/58/58 60/60/60 62/62/62
f 59/59/59 62/62/62 63/63/63
f 60/60/60 61/61/61 64/64/64
f 60/60/60 64/64/64 62/62/62
f 61/61/61 65/65/65 64/64/64
f 62/62/62 66/66/66 63/63/63
f 63/63/63 66/66/66 67/67/67
f 66/66/66 68/68/68 67/67/67
f 64/64/64 65/65/65 69/69/69
f 66/66/66 69/69/69 68/68/68
f 65/65/65 70/70/70 69/69/69
f 69/69/69 71/71/71 68/68/68
f 69/69/69 70/70/70 71/71/71
f 70/70/70 72/72/72 71/71/71
f 75/75/75 74/74/74 73/73/73
f 74/74/74 76/76/76 73/73/73
f 73/73/73 76/76/76 77/77/77
f 74/74/74 78/78/78 76/76/76
f 76/76/76 79/79/79 77/77/77
f 78/78/78 80/80/80 76/76/76
f 78/78/78 81/81/81 80/80/80
f 81/81/81 82/82/82 80/80/80
f 80/80/80 82/82/82 83/83/83
f 77/77/77 79/79/79 84/84/84
f 82/82/82 85/85/85 83/83/83
f 79/79/79 86/86/86 84/84/84
f 79/79/79 83/83/83 86/86/86
f 84/84/84 86/86/86 87/87/87
f 83/83/83 85/85/85 88/88/88
f 83/83/83 88/88/88 86/86/86
f 85/85/85 89/89/89 88/88/88
f 86/86/86 90/90/90 87/87/87
f 86/86/86 88/88/88 90/90/90
f 87/87/87 90/90/90 91/91/91
f 88/88/88 89/89/89 92/92/92
f 88/88/88 92/92/92 90/90/90
f 89/89/89 93/93/93 92/92/92
f 90/90/90 94/94/94 91/91/91
f 91/91/91 94/94/94 95/95/95
f 94/94/94 96/96/96 95/95/95
f 92/92/92 93/93/93 97/97/97
f 94/94/94 97/97/97 96/96/96
f 93/93/93 98/98/98 97/97/97
f 97/97/97 99/99/99 96/96/96
f 97/97/97 98/98/98 99/99/99
f 98/98/98 100/100/100 99/99/99
f 103/103/103 102/102/102 101/101/101
f 104/104/104 103/103/103 101/101/101
f 107/107/107 106/106/106 105/105/105
f 108/108/108 107/107/107 105/105/105
f 111/111/111 110/110/110 109/109/109
f 112/112/112 111/111/111 109/109/109
f 115/115/115 114/114/114 113/113/113
f 116/116/116 115/115/115 113/113/113
f 119/119/119 118/118/118 117/117/117
f 120/120/120 119/119/119 117/117/117
f 123/123/123 122/122/122 121/121/121
f 124/124/124 123/123/123 121/121/121
f 127/127/127 126/126/126 125/125/125
f 128/128/128 127/127/127 125/125/125
f 131/131/131 130/130/130 129/129/129
f 132/132/132 131/131/131 129/129/129
f 135/135/135 134/134/134 133/133/133
f 136/136/136 135/135/135 133/133/133
f 139/139/139 138/138/138 137/137/137
f 140/140/140 139/139/139 137/137/137
f 143/143/143 142/142/142 141/141/141
f 144/144/144 143/143/143 141/141/141
f 147/147/147 146/146/146 145/145/145
f 148/148/148 147/147/147 145/145/145
f 151/151/151 150/150/150 149/149/149
f 152/152/152 151/151/151 149/149/149
f 155/155/155 154/154/154 153/153/153
f 156/156/156 155/155/155 153/153/153
f 159/159/159 158/158/158 157/157/157
f 160/160/160 159/159/159 157/157/157
f 163/163/163 162/162/162 161/161/161
f 164/164/164 163/163/163 161/161/161
f 167/167/167 166/166/166 165/165/165
f 168/168/168 167/167/167 165/165/165
f 171/171/171 170/170/170 169/169/169
f 172/172/172 171/171/171 169/169/169
f 175/175/175 174/174/174 173/173/173
f 176/176/176 175/175/175 173/173/173
f 179/179/179 178/178/178 177/177/177
f 180/180/180 179/179/179 177/177/177
f 183/183/183 182/182/182 181/181/181
f 182/182/182 184/184/184 181/181/181
f 184/184/184 186/186/186 185/185/185
f 187/187/187 184/184/184 185/185/185
f 190/190/190 189/189/189 188/188/188
f 191/191/191 190/190/190 188/188/188
