g IL_Glass_01_sh_7
v -0.3661313 0.1096479 -0.15
v 0.4921174 0.3917873 0.05653012
v 0.4921174 0.356138 -0.15
v 0.4921174 0.4079212 0.15
v -0.04721841 -0.3669803 0.15
v -0.4921174 0.4331691 -0.15
v -0.09513918 0.4348384 -0.15
v 0.4921174 0.4373077 -0.15
v 0.4921174 0.4523469 0.06410006
v 0.4921174 0.4583808 0.15
v -0.3672244 0.4547675 0.15
v -0.1449289 -0.4583808 -0.15
v -0.04866615 -0.4208434 -0.15
v -0.05666927 -0.3873048 0.1109186
v -0.3661313 0.1096479 -0.15
v -0.3661313 0.1096479 -0.15
v -0.3661313 0.1096479 -0.15
v -0.3661313 0.1096479 -0.15
v -0.3661313 0.1096479 -0.15
v -0.3661313 0.1096479 -0.15
v 0.4921174 0.3917873 0.05653012
v 0.4921174 0.3917873 0.05653012
v 0.4921174 0.3917873 0.05653012
v 0.4921174 0.3917873 0.05653012
v 0.4921174 0.3917873 0.05653012
v 0.4921174 0.356138 -0.15
v 0.4921174 0.356138 -0.15
v 0.4921174 0.356138 -0.15
v 0.4921174 0.356138 -0.15
v 0.4921174 0.356138 -0.15
v 0.4921174 0.4079212 0.15
v 0.4921174 0.4079212 0.15
v 0.4921174 0.4079212 0.15
v -0.04721841 -0.3669803 0.15
v -0.04721841 -0.3669803 0.15
v -0.04721841 -0.3669803 0.15
v -0.04721841 -0.3669803 0.15
v -0.04721841 -0.3669803 0.15
v -0.04721841 -0.3669803 0.15
v -0.04721841 -0.3669803 0.15
v -0.4921174 0.4331691 -0.15
v -0.4921174 0.4331691 -0.15
v -0.09513918 0.4348384 -0.15
v -0.09513918 0.4348384 -0.15
v -0.09513918 0.4348384 -0.15
v -0.09513918 0.4348384 -0.15
v -0.09513918 0.4348384 -0.15
v 0.4921174 0.4373077 -0.15
v 0.4921174 0.4373077 -0.15
v 0.4921174 0.4373077 -0.15
v 0.4921174 0.4373077 -0.15
v 0.4921174 0.4523469 0.06410006
v 0.4921174 0.4523469 0.06410006
v 0.4921174 0.4523469 0.06410006
v 0.4921174 0.4583808 0.15
v 0.4921174 0.4583808 0.15
v 0.4921174 0.4583808 0.15
v 0.4921174 0.4583808 0.15
v -0.3672244 0.4547675 0.15
v -0.3672244 0.4547675 0.15
v -0.3672244 0.4547675 0.15
v -0.3672244 0.4547675 0.15
v -0.3672244 0.4547675 0.15
v -0.1449289 -0.4583808 -0.15
v -0.1449289 -0.4583808 -0.15
v -0.1449289 -0.4583808 -0.15
v -0.1449289 -0.4583808 -0.15
v -0.04866615 -0.4208434 -0.15
v -0.04866615 -0.4208434 -0.15
v -0.04866615 -0.4208434 -0.15
v -0.05666927 -0.3873048 0.1109186
v -0.05666927 -0.3873048 0.1109186
vt 0.5177189 0.3927189
vt -0.4196701 -0.02374142
vt -0.4106151 -0.07620017
vt -0.4237681 -1.852349E-08
vt -0.2269427 -9.91998E-09
vt 0.5514191 0.3769706
vt 0.5515929 0.4265929
vt 0.5518501 0.5
vt 0.5534167 0.6784167
vt 0.5540453 0.75
vt 0.5536689 0.8574177
vt 0.4585493 0.4203692
vt 0.4624594 0.432402
vt 0.2217803 -0.009926711
vt 0.5177189 0.3927189
vt 0.5177189 0.3927189
vt 0.3480065 -0.07620017
vt 0.3480065 -0.07620017
vt 0.5177189 0.3927189
vt 0.3480065 -0.07620017
vt -0.4196701 -0.02374142
vt 0.5471084 0.6721084
vt 0.5471084 0.6721084
vt 0.5471077 0.6721077
vt 0.5471077 0.6721077
vt 0.5433949 0.5
vt 0.5433944 0.5
vt 0.5433949 0.5
vt 0.5433949 0.5
vt -0.4106151 -0.07620017
vt 0.548789 0.75
vt 0.5487891 0.75
vt 0.5487891 0.75
vt -0.2269427 -9.91998E-09
vt 0.4680701 0.817417
vt 0.2269427 -9.91998E-09
vt 0.2269427 -9.91998E-09
vt 0.2269427 -9.91998E-09
vt -0.2269427 -9.91998E-09
vt -0.2269427 -9.91998E-09
vt 0.4301811 -0.07620018
vt -0.2499962 -0.07620016
vt 0.5515929 0.4265929
vt -0.1491635 -0.07620016
vt -0.1491635 -0.07620016
vt -0.1491635 -0.07620016
vt -0.1491635 -0.07620016
vt 0.5518501 0.5
vt 0.5518503 0.5
vt 0.5518503 0.5
vt -6.661629E-09 -0.07620018
vt 0.5534168 0.6784159
vt -1.907445E-09 -0.02181865
vt -1.907445E-09 -0.02181865
vt 0.5540453 0.75
vt 0.5540453 0.75
vt 1.819887E-22 -1.908373E-08
vt 1.819887E-22 -1.908373E-08
vt 0.4356671 -1.904361E-08
vt 0.4356671 -1.904361E-08
vt 0.5536689 0.8574177
vt -0.2182733 3.844391E-11
vt -0.2182733 3.844391E-11
vt 0.4585493 0.4203692
vt 0.2037269 -0.07620016
vt 0.2037269 -0.07620016
vt 0.1618101 -0.07620016
vt -0.2132615 -0.07620016
vt -0.2132615 -0.07620016
vt 0.1373593 -0.07620016
vt -0.2217803 -0.009926711
vt 0.1393921 -0.009926711
vn 0 0 -1
vn 0.8168079 -0.5685029 0.09812966
vn 0.8168079 -0.5685029 0.09812966
vn 0.8168079 -0.5685029 0.09812969
vn 0.8168079 -0.5685029 0.09812966
vn 0 0 -1
vn 0 0 -1
vn 0 0 -1
vn 1 0 0
vn 1 0 0
vn 0 0 1
vn 0 0 -1
vn 0 0 -1
vn -0.8609517 -0.3352748 0.3825611
vn 0 0 -1
vn 0 0 -1
vn -0.8609524 -0.3352732 0.3825608
vn -0.8609524 -0.3352733 0.3825609
vn 0 0 -1
vn -0.8609525 -0.3352732 0.3825608
vn 0.8168079 -0.5685029 0.09812969
vn 1 0 0
vn 1 0 0
vn 1 0 0
vn 1 0 0
vn 0 0 -1
vn 1 0 0
vn 0 0 -1
vn 0 0 -1
vn 0.8168078 -0.568503 0.09812939
vn 1 0 0
vn 0 0 1
vn 0 0 1
vn 0.8168079 -0.5685029 0.09812969
vn 0 0 1
vn -0.8609524 -0.3352732 0.3825608
vn -0.8609517 -0.3352748 0.3825611
vn -0.8609525 -0.3352732 0.3825608
vn 0.8168074 -0.5685036 0.09812949
vn 0.8168078 -0.568503 0.09812939
vn -0.8609524 -0.3352733 0.3825609
vn -0.004194614 0.9975332 -0.0700706
vn 0 0 -1
vn -0.004194614 0.9975332 -0.0700706
vn -0.004194419 0.9975333 -0.07007044
vn -0.004194615 0.9975333 -0.07007006
vn -0.004194436 0.9975333 -0.07007055
vn 0 0 -1
vn 1 0 0
vn 1 0 0
vn -0.004194436 0.9975333 -0.07007055
vn 1 0 0
vn -0.004194615 0.9975333 -0.07007006
vn -0.004194436 0.9975333 -0.07007055
vn 1 0 0
vn 0 0 1
vn -0.004194419 0.9975333 -0.07007044
vn -0.004194615 0.9975333 -0.07007006
vn -0.8609524 -0.3352732 0.3825608
vn -0.8609524 -0.3352733 0.3825609
vn 0 0 1
vn -0.004194614 0.9975332 -0.0700706
vn -0.004194419 0.9975333 -0.07007044
vn 0 0 -1
vn -0.8609517 -0.3352748 0.3825611
vn -0.8609525 -0.3352732 0.3825608
vn 0.3602295 -0.9237902 0.1297936
vn 0.8168074 -0.5685036 0.09812949
vn 0.8168078 -0.568503 0.09812939
vn 0.3602295 -0.9237902 0.1297936
vn 0.8168074 -0.5685036 0.09812949
vn 0.3602295 -0.9237902 0.1297936
g IL_Glass_01_sh_7_0
f 1/1/1 6/6/6 7/7/7
f 10/10/10 31/31/31 22/22/22
f 9/9/9 55/55/55 23/23/23
f 11/11/11 35/35/35 32/32/32
f 8/8/8 15/15/15 43/43/43
f 26/26/26 16/16/16 48/48/48
f 49/49/49 52/52/52 24/24/24
f 25/25/25 27/27/27 50/50/50
f 61/61/61 33/33/33 56/56/56
f 12/12/12 28/28/28 13/13/13
f 19/19/19 29/29/29 64/64/64
f 5/5/5 3/3/3 2/2/2
f 21/21/21 4/4/4 34/34/34
f 17/17/17 36/36/36 59/59/59
f 60/60/60 41/41/41 18/18/18
f 44/44/44 42/42/42 62/62/62
f 45/45/45 63/63/63 57/57/57
f 46/46/46 58/58/58 53/53/53
f 54/54/54 51/51/51 47/47/47
f 14/14/14 37/37/37 65/65/65
f 38/38/38 20/20/20 66/66/66
f 68/68/68 39/39/39 71/71/71
f 30/30/30 40/40/40 69/69/69
f 70/70/70 72/72/72 67/67/67
