g IL_GreenCreep_Head
v 0.125 -0.125 0.125
v -0.125 -0.125 0.125
v -0.125 0.125 0.125
v 0.125 0.125 0.125
v -0.125 -0.125 -0.125
v -0.125 -0.125 0.125
v 0.125 -0.125 0.125
v 0.125 -0.125 -0.125
v 0.125 0.125 -0.125
v 0.125 0.125 0.125
v -0.125 0.125 0.125
v -0.125 0.125 -0.125
v 0.125 -0.125 -0.125
v 0.125 -0.125 0.125
v 0.125 0.125 0.125
v 0.125 0.125 -0.125
v -0.125 -0.125 -0.125
v 0.125 -0.125 -0.125
v 0.125 0.125 -0.125
v -0.125 0.125 -0.125
v -0.125 0.125 0.125
v -0.125 -0.125 0.125
v -0.125 -0.125 -0.125
v -0.125 0.125 -0.125
vt 0.5615234 0.5019531
vt 0.1168213 0.5019531
vt 0.1168213 0.9462891
vt 0.5615234 0.9462891
vt 0.1190796 0.4958496
vt 0.1190796 0.056427
vt 0.5585938 0.056427
vt 0.5585938 0.4958496
vt 0.5585938 0.4958496
vt 0.5585938 0.056427
vt 0.1190796 0.056427
vt 0.1190796 0.4958496
vt 0.5600586 0.05838013
vt 0.1167603 0.05838013
vt 0.1167603 0.5014648
vt 0.5600586 0.5014648
vt 0.1168213 0.05569458
vt 0.5615234 0.05569458
vt 0.5615234 0.5004883
vt 0.1168213 0.5004883
vt 0.1167603 0.5014648
vt 0.1167603 0.05838013
vt 0.5600586 0.05838013
vt 0.5600586 0.5014648
vn 0 0 1
vn 0 0 1
vn 0 0 1
vn 0 0 1
vn 0 -1 0
vn 0 -1 0
vn 0 -1 0
vn 0 -1 0
vn 0 1 0
vn 0 1 0
vn 0 1 0
vn 0 1 0
vn 1 0 0
vn 1 0 0
vn 1 0 0
vn 1 0 0
vn 0 0 -1
vn 0 0 -1
vn 0 0 -1
vn 0 0 -1
vn -1 0 0
vn -1 0 0
vn -1 0 0
vn -1 0 0
g IL_GreenCreep_Head_0
f 3/3/3 2/2/2 1/1/1
f 4/4/4 3/3/3 1/1/1
f 7/7/7 6/6/6 5/5/5
f 8/8/8 7/7/7 5/5/5
f 11/11/11 10/10/10 9/9/9
f 12/12/12 11/11/11 9/9/9
f 15/15/15 14/14/14 13/13/13
f 16/16/16 15/15/15 13/13/13
f 19/19/19 18/18/18 17/17/17
f 20/20/20 19/19/19 17/17/17
f 23/23/23 22/22/22 21/21/21
f 24/24/24 23/23/23 21/21/21
