g IL_Sensors_2_sh_4
v -0.4623832 -0.003468633 0.3
v -0.4466213 0.005548 0.3
v -0.4623832 -0.5456545 -0.3
v -0.4623832 -0.3135778 -0.04317659
v -0.1641522 0.1671337 0.3
v -0.1541328 0.172865 0.3
v -0.4554703 -0.5416999 -0.3
v -0.1371697 0.1825688 0.3
v 0.2040319 -0.1644336 -0.3
v -0.1371697 0.1581964 0.2730288
v 0.2428522 -0.1422266 -0.3
v -0.1371697 0.1568446 0.271533
v -0.4392897 0.4948939 0.3
v -0.4623832 0.5089356 0.3
v -0.4623832 0.5122279 0.2462033
v -0.4623832 0.5456544 -0.3
v -0.1937127 0.3455721 0.3
v -0.247608 0.3783427 0.3
v -0.4407589 0.532506 -0.3
v -0.1371697 0.3111914 0.3
v 0.3618684 0.04447305 -0.3
v -0.1371697 0.3126038 0.2769205
v 0.379907 0.03350472 -0.3
v -0.1371697 0.3129334 0.271533
v 0.4623832 -0.01664448 -0.3
v -0.00490129 0.2325084 0.271533
v -0.4623832 -0.003468633 0.3
v -0.4623832 -0.003468633 0.3
v -0.4623832 -0.003468633 0.3
v -0.4623832 -0.003468633 0.3
v -0.4466213 0.005548 0.3
v -0.4466213 0.005548 0.3
v -0.4466213 0.005548 0.3
v -0.4466213 0.005548 0.3
v -0.4623832 -0.5456545 -0.3
v -0.4623832 -0.5456545 -0.3
v -0.4623832 -0.5456545 -0.3
v -0.4623832 -0.3135778 -0.04317659
v -0.4623832 -0.3135778 -0.04317659
v -0.4623832 -0.3135778 -0.04317659
v -0.4623832 -0.3135778 -0.04317659
v -0.4623832 -0.3135778 -0.04317659
v -0.4623832 -0.3135778 -0.04317659
v -0.1641522 0.1671337 0.3
v -0.1641522 0.1671337 0.3
v -0.1641522 0.1671337 0.3
v -0.1641522 0.1671337 0.3
v -0.1641522 0.1671337 0.3
v -0.1641522 0.1671337 0.3
v -0.1541328 0.172865 0.3
v -0.1541328 0.172865 0.3
v -0.1541328 0.172865 0.3
v -0.1541328 0.172865 0.3
v -0.4554703 -0.5416999 -0.3
v -0.4554703 -0.5416999 -0.3
v -0.4554703 -0.5416999 -0.3
v -0.1371697 0.1825688 0.3
v -0.1371697 0.1825688 0.3
v -0.1371697 0.1825688 0.3
v 0.2040319 -0.1644336 -0.3
v 0.2040319 -0.1644336 -0.3
v 0.2040319 -0.1644336 -0.3
v 0.2040319 -0.1644336 -0.3
v 0.2040319 -0.1644336 -0.3
v 0.2040319 -0.1644336 -0.3
v 0.2040319 -0.1644336 -0.3
v 0.2040319 -0.1644336 -0.3
v -0.1371697 0.1581964 0.2730288
v -0.1371697 0.1581964 0.2730288
v -0.1371697 0.1581964 0.2730288
v -0.1371697 0.1581964 0.2730288
v -0.1371697 0.1581964 0.2730288
v 0.2428522 -0.1422266 -0.3
v 0.2428522 -0.1422266 -0.3
v 0.2428522 -0.1422266 -0.3
v 0.2428522 -0.1422266 -0.3
v 0.2428522 -0.1422266 -0.3
v -0.1371697 0.1568446 0.271533
v -0.1371697 0.1568446 0.271533
v -0.1371697 0.1568446 0.271533
v -0.1371697 0.1568446 0.271533
v -0.1371697 0.1568446 0.271533
v -0.4392897 0.4948939 0.3
v -0.4392897 0.4948939 0.3
v -0.4392897 0.4948939 0.3
v -0.4392897 0.4948939 0.3
v -0.4623832 0.5089356 0.3
v -0.4623832 0.5089356 0.3
v -0.4623832 0.5089356 0.3
v -0.4623832 0.5089356 0.3
v -0.4623832 0.5122279 0.2462033
v -0.4623832 0.5122279 0.2462033
v -0.4623832 0.5122279 0.2462033
v -0.4623832 0.5122279 0.2462033
v -0.4623832 0.5456544 -0.3
v -0.4623832 0.5456544 -0.3
v -0.4623832 0.5456544 -0.3
v -0.1937127 0.3455721 0.3
v -0.1937127 0.3455721 0.3
v -0.1937127 0.3455721 0.3
v -0.1937127 0.3455721 0.3
v -0.1937127 0.3455721 0.3
v -0.247608 0.3783427 0.3
v -0.247608 0.3783427 0.3
v -0.247608 0.3783427 0.3
v -0.247608 0.3783427 0.3
v -0.4407589 0.532506 -0.3
v -0.4407589 0.532506 -0.3
v -0.4407589 0.532506 -0.3
v -0.4407589 0.532506 -0.3
v -0.4407589 0.532506 -0.3
v -0.4407589 0.532506 -0.3
v -0.4407589 0.532506 -0.3
v -0.1371697 0.3111914 0.3
v -0.1371697 0.3111914 0.3
v -0.1371697 0.3111914 0.3
v 0.3618684 0.04447305 -0.3
v 0.3618684 0.04447305 -0.3
v 0.3618684 0.04447305 -0.3
v 0.3618684 0.04447305 -0.3
v -0.1371697 0.3126038 0.2769205
v -0.1371697 0.3126038 0.2769205
v -0.1371697 0.3126038 0.2769205
v -0.1371697 0.3126038 0.2769205
v 0.379907 0.03350472 -0.3
v 0.379907 0.03350472 -0.3
v 0.379907 0.03350472 -0.3
v -0.1371697 0.3129334 0.271533
v -0.1371697 0.3129334 0.271533
v -0.1371697 0.3129334 0.271533
v -0.1371697 0.3129334 0.271533
v -0.1371697 0.3129334 0.271533
v -0.1371697 0.3129334 0.271533
v -0.1371697 0.3129334 0.271533
v -0.1371697 0.3129334 0.271533
v -0.1371697 0.3129334 0.271533
v 0.4623832 -0.01664448 -0.3
v 0.4623832 -0.01664448 -0.3
v -0.00490129 0.2325084 0.271533
v -0.00490129 0.2325084 0.271533
v -0.00490129 0.2325084 0.271533
v -0.00490129 0.2325084 0.271533
v -0.00490129 0.2325084 0.271533
v -0.00490129 0.2325084 0.271533
vt 0.2540005 0.1524003
vt 0.249997 0.1524003
vt 0.2540005 -5.560486E-09
vt 0.2540005 0.06523328
vt 0.1782497 0.1524003
vt 0.1757047 0.1524003
vt 0.2522446 -5.604393E-09
vt 0.1713961 0.1524003
vt 0.08473072 -9.793073E-09
vt 0.1713961 0.1455496
vt 0.07487037 -1.003963E-08
vt 0.1713961 0.1451696
vt 0.57906 0.8611955
vt 0.57906 0.8611957
vt 0.57906 0.8611956
vt 0.57906 0.8611956
vt 0.57906 0.8611957
vt 0.57906 0.8611957
vt 0.57906 0.8611957
vt 0.57906 0.8611957
vt 0.57906 0.8611957
vt 0.57906 0.8611957
vt 0.57906 0.8611957
vt 0.8577523 0.8264687
vt 0.57906 0.8611957
vt 0.8577523 0.8264688
vt 0.2540005 0.1524003
vt 0.57906 0.8611957
vt 0.57906 0.8611956
vt 0.57906 0.8611956
vt 0.249997 0.1524003
vt 0.5790601 0.8611957
vt 0.5790601 0.8611957
vt 0.57906 0.8611957
vt 0.57906 0.8611956
vt 0.57906 0.8611957
vt 0.57906 0.8611957
vt 0.2540005 0.06523328
vt 0.2540005 0.06523328
vt 0.57906 0.8611957
vt 0.57906 0.8611957
vt 0.57906 0.8611957
vt 0.57906 0.8611957
vt 0.1782497 0.1524003
vt 0.1782497 0.1524003
vt 0.1782497 0.1524003
vt 0.57906 0.8611956
vt 0.5790601 0.8611957
vt 0.5790601 0.8611957
vt 0.1757047 0.1524003
vt 0.57906 0.8611957
vt 0.57906 0.8611957
vt 0.57906 0.8611957
vt 0.2522446 -5.604393E-09
vt 0.57906 0.8611957
vt 0.57906 0.8611957
vt 0.57906 0.8611957
vt 0.57906 0.8611957
vt 0.5790601 0.8611957
vt 0.08473072 -9.793073E-09
vt 0.08473072 -9.793073E-09
vt 0.08473072 -9.793073E-09
vt 0.08473072 -9.793073E-09
vt 0.08473072 -9.793073E-09
vt 0.57906 0.8611957
vt 0.57906 0.8611957
vt 0.57906 0.8611957
vt 0.1713961 0.1455496
vt 0.1713961 0.1455496
vt 0.57906 0.8611957
vt 0.57906 0.8611957
vt 0.57906 0.8611957
vt 0.57906 0.8611956
vt 0.07487037 -1.003963E-08
vt 0.57906 0.8611957
vt 0.57906 0.8611957
vt 0.07487037 -1.003963E-08
vt 0.1713961 0.1451696
vt 0.1713961 0.1451696
vt 0.8577524 0.8264687
vt 0.1713961 0.1451696
vt 0.5790601 0.8611957
vt 0.57906 0.8611957
vt 0.57906 0.8611957
vt -0.2481347 0.1524003
vt -0.2481347 0.1524003
vt 0.57906 0.8611957
vt 0.57906 0.8611956
vt -0.2540005 0.1524003
vt -0.2540005 0.1524003
vt 0.57906 0.8611957
vt -0.2540005 0.1387359
vt -0.2540005 0.1387359
vt -0.2540005 0.1387359
vt 0.57906 0.8611956
vt 0.57906 0.8611957
vt -0.2540005 4.528452E-09
vt 0.57906 0.8611957
vt 0.57906 0.8611957
vt -0.1857581 0.1524003
vt -0.1857581 0.1524003
vt -0.1857581 0.1524003
vt 0.57906 0.8611957
vt 0.57906 0.8611957
vt -0.1994475 0.1524003
vt -0.1994475 0.1524003
vt 0.57906 0.8611957
vt 0.57906 0.8611957
vt 0.57906 0.8611957
vt -0.2485079 4.194259E-09
vt -0.2485079 4.194259E-09
vt -0.2485079 4.194259E-09
vt -0.2485079 4.194259E-09
vt 0.57906 0.8611957
vt 0.57906 0.8611957
vt -0.1713961 0.1524003
vt 0.57906 0.8611957
vt 0.57906 0.8611957
vt -0.04464018 -8.209936E-09
vt -0.04464018 -8.209936E-09
vt 0.57906 0.8611957
vt 0.57906 0.8611957
vt -0.1713961 0.1465381
vt -0.1713961 0.1465381
vt 0.57906 0.8611957
vt -0.04005836 -8.488714E-09
vt -0.04005836 -8.488714E-09
vt 0.57906 0.8611956
vt 0.57906 0.8611956
vt -0.1713961 0.1451697
vt -0.1713961 0.1451697
vt -0.1713961 0.1451697
vt -0.1713961 0.1451697
vt -0.1713961 0.1451697
vt -0.1713961 0.1451697
vt -0.1713961 0.1451697
vt 0.01910937 -1.143393E-08
vt -0.01910937 -9.763339E-09
vt 0.1377999 0.1451696
vt 0.1377999 0.1451696
vt -0.1377999 0.1451697
vt -0.1377999 0.1451697
vt -0.1377999 0.1451697
vt -0.1377999 0.1451697
vn 0.3906958 -0.6829785 0.6171687
vn 0.3906978 -0.6829758 0.6171703
vn 0.3907007 -0.6829769 0.6171674
vn 0.3907007 -0.6829769 0.6171674
vn 0.3906959 -0.6829783 0.6171688
vn 0.3906988 -0.6829777 0.6171677
vn 0.3907007 -0.6829769 0.6171674
vn 0.3906988 -0.6829777 0.6171677
vn 0.3906958 -0.6829785 0.6171686
vn 0.3906988 -0.6829777 0.6171677
vn 0.3906965 -0.6829782 0.6171686
vn 0.3906965 -0.6829782 0.6171686
vn 0 0 1
vn -1 0 0
vn -1 0 0
vn -1 0 0
vn 0 0 1
vn 0 0 1
vn 0 0 -1
vn 1 0 0
vn 0 0 -1
vn 1 0 0
vn 0 0 -1
vn 0 0 1
vn 0 0 -1
vn 0 0 1
vn 0.3906978 -0.6829758 0.6171703
vn -1 0 0
vn 0 0 1
vn 0 0 1
vn 0.3906959 -0.6829783 0.6171688
vn 0 0 1
vn 0 0 1
vn 0 0 1
vn -1 0 0
vn 0 0 -1
vn 0 0 -1
vn 0.3906958 -0.6829785 0.6171686
vn 0.3906958 -0.6829785 0.6171687
vn -1 0 0
vn -1 0 0
vn -1 0 0
vn -1 0 0
vn 0.3906827 -0.6829882 0.6171662
vn 0.3907287 -0.6829386 0.6171919
vn 0.3906853 -0.6829881 0.6171647
vn 0 0 1
vn 0 0 1
vn 0 0 1
vn 0.3906853 -0.6829881 0.6171647
vn 0 0 1
vn 0 0 1
vn 0 0 1
vn 0.3906958 -0.6829785 0.6171686
vn 0 0 -1
vn 0 0 -1
vn 1 0 0
vn 1 0 0
vn 0 0 1
vn 0.3906958 -0.6829785 0.6171687
vn 0.3906978 -0.6829758 0.6171703
vn 0.3906959 -0.6829783 0.6171688
vn 0.3906965 -0.6829782 0.6171686
vn 0.3906827 -0.6829882 0.6171662
vn 0 0 -1
vn 0 0 -1
vn 0 0 -1
vn 0.3907287 -0.6829386 0.6171919
vn 0.3906853 -0.6829881 0.6171647
vn 1 0 0
vn 1 0 0
vn 1 0 0
vn 0 0 -1
vn 0.390696 -0.6829785 0.6171686
vn 0 0 -1
vn 0 0 -1
vn 0.3906959 -0.6829785 0.6171686
vn 0.3906827 -0.6829882 0.6171662
vn 0.3907287 -0.6829386 0.6171919
vn 0 0 1
vn 0.390696 -0.6829785 0.6171686
vn 1 0 0
vn 0 0 1
vn 0 0 1
vn 0.5188286 0.8532878 0.05212447
vn 0.5188326 0.8532794 0.05222078
vn -1 0 0
vn 0 0 1
vn 0.5188321 0.8532798 0.05222014
vn 0.5188286 0.8532878 0.05212447
vn -1 0 0
vn 0.5188295 0.8532814 0.05221907
vn 0.5188321 0.8532798 0.05221911
vn 0.5188321 0.8532798 0.05222014
vn -1 0 0
vn 0 0 -1
vn 0.5188295 0.8532814 0.05221907
vn 0 0 1
vn 0 0 1
vn 0.5188311 0.8532809 0.05221164
vn 0.5188286 0.8532828 0.05220456
vn 0.5188323 0.8532797 0.05221796
vn 0 0 1
vn 0 0 1
vn 0.5188326 0.8532794 0.05222078
vn 0.5188311 0.8532809 0.05221164
vn 0 0 -1
vn 0 0 -1
vn 0 0 -1
vn 0.5188319 0.8532799 0.05221925
vn 0.5188318 0.85328 0.05221938
vn 0.5188295 0.8532814 0.05221907
vn 0.5188321 0.8532798 0.05221911
vn 0 0 1
vn 0 0 1
vn 0.5188323 0.8532797 0.05221796
vn 0 0 -1
vn 0 0 -1
vn 0.5188331 0.8532792 0.05222018
vn 0.5188319 0.8532799 0.05221925
vn 1 0 0
vn 1 0 0
vn 0.5188286 0.8532828 0.05220456
vn 0.5188323 0.8532797 0.05221796
vn 0 0 -1
vn 0.5188323 0.8532796 0.05221955
vn 0.5188331 0.8532792 0.05222018
vn 1 0 0
vn 1 0 0
vn 0.5188318 0.85328 0.05221938
vn 0.5188321 0.8532798 0.05221911
vn 0.5188321 0.8532798 0.05222014
vn 0.5188286 0.8532878 0.05212447
vn 0.5188326 0.8532794 0.05222078
vn 0.5188311 0.8532809 0.05221164
vn 0.5188286 0.8532828 0.05220456
vn 0.3906959 -0.6829785 0.6171686
vn 0.5188323 0.8532796 0.05221955
vn 0.390696 -0.6829785 0.6171686
vn 0.3906959 -0.6829785 0.6171686
vn 0.5188323 0.8532796 0.05221955
vn 0.5188331 0.8532792 0.05222018
vn 0.5188319 0.8532799 0.05221925
vn 0.5188318 0.85328 0.05221938
g IL_Sensors_2_sh_4_0
f 15/15/15 40/40/40 14/14/14
f 41/41/41 28/28/28 87/87/87
f 13/13/13 32/32/32 18/18/18
f 33/33/33 47/47/47 103/103/103
f 20/20/20 57/57/57 22/22/22
f 58/58/58 70/70/70 121/121/121
f 23/23/23 25/25/25 73/73/73
f 26/26/26 24/24/24 80/80/80
f 83/83/83 88/88/88 29/29/29
f 30/30/30 34/34/34 84/84/84
f 16/16/16 35/35/35 42/42/42
f 43/43/43 91/91/91 95/95/95
f 17/17/17 104/104/104 48/48/48
f 49/49/49 51/51/51 98/98/98
f 36/36/36 96/96/96 19/19/19
f 107/107/107 55/55/55 37/37/37
f 114/114/114 99/99/99 52/52/52
f 53/53/53 59/59/59 115/115/115
f 65/65/65 56/56/56 108/108/108
f 109/109/109 21/21/21 66/66/66
f 75/75/75 67/67/67 117/117/117
f 118/118/118 125/125/125 76/76/76
f 71/71/71 82/82/82 128/128/128
f 129/129/129 122/122/122 72/72/72
g IL_Sensors_2_sh_4_1
f 4/4/4 3/3/3 7/7/7
f 10/10/10 8/8/8 6/6/6
f 38/38/38 54/54/54 9/9/9
f 1/1/1 39/39/39 60/60/60
f 2/2/2 27/27/27 61/61/61
f 5/5/5 31/31/31 62/62/62
f 63/63/63 11/11/11 12/12/12
f 44/44/44 64/64/64 78/78/78
f 45/45/45 79/79/79 68/68/68
f 69/69/69 50/50/50 46/46/46
f 81/81/81 74/74/74 139/139/139
f 140/140/140 77/77/77 137/137/137
f 141/141/141 138/138/138 126/126/126
f 142/142/142 127/127/127 119/119/119
f 143/143/143 120/120/120 110/110/110
f 130/130/130 144/144/144 111/111/111
f 112/112/112 97/97/97 92/92/92
f 131/131/131 113/113/113 93/93/93
f 132/132/132 94/94/94 89/89/89
f 133/133/133 90/90/90 85/85/85
f 134/134/134 86/86/86 105/105/105
f 135/135/135 106/106/106 100/100/100
f 123/123/123 136/136/136 101/101/101
f 102/102/102 116/116/116 124/124/124
