g IL_SqG_Prop3_sh_4
v -0.1158916 -1.05 -0.7373019
v -0.1158916 1.05 0.2626981
v -0.1158916 1.05 -0.7373019
v -0.1158916 -1.05 0.2626981
v -0.2158915 1.05 0.2626981
v 0.2158915 -1.05 -0.7373019
v -0.2158915 -1.05 -0.7373019
v -0.2158915 1.05 -0.7373019
v 0.2158915 1.05 -0.7373019
v 0.2158915 -1.05 -1.887478
v -0.2158915 -1.05 0.2626981
v -0.2158915 -1.05 -1.887478
v -0.1158916 -0.7842394 -1.887478
v -0.1158916 -1.05 -1.887478
v -0.2158915 -0.7842394 -1.887478
v 0.2158915 -0.7842394 -1.887478
v -0.1158916 -0.1637822 1.887478
v -0.1158916 -0.9111801 1.282836
v -0.2158915 -0.1389345 1.854217
v -0.1832767 -0.1470386 1.865065
v -0.1158916 -1.05 1.170531
v -0.2158915 -0.2652571 1.752022
v -0.1791332 -1.05 1.136783
v -0.2158915 -1.05 1.117168
v -0.1158916 -1.05 -0.7373019
v -0.1158916 -1.05 -0.7373019
v -0.1158916 -1.05 -0.7373019
v -0.1158916 -1.05 -0.7373019
v -0.1158916 -1.05 -0.7373019
v -0.1158916 -1.05 -0.7373019
v -0.1158916 -1.05 -0.7373019
v -0.1158916 1.05 0.2626981
v -0.1158916 1.05 0.2626981
v -0.1158916 1.05 0.2626981
v -0.1158916 1.05 0.2626981
v -0.1158916 1.05 0.2626981
v -0.1158916 1.05 0.2626981
v -0.1158916 1.05 -0.7373019
v -0.1158916 1.05 -0.7373019
v -0.1158916 1.05 -0.7373019
v -0.1158916 1.05 -0.7373019
v -0.1158916 1.05 -0.7373019
v -0.1158916 1.05 -0.7373019
v -0.1158916 -1.05 0.2626981
v -0.1158916 -1.05 0.2626981
v -0.1158916 -1.05 0.2626981
v -0.1158916 -1.05 0.2626981
v -0.1158916 -1.05 0.2626981
v -0.1158916 -1.05 0.2626981
v -0.1158916 -1.05 0.2626981
v -0.2158915 1.05 0.2626981
v -0.2158915 1.05 0.2626981
v -0.2158915 1.05 0.2626981
v -0.2158915 1.05 0.2626981
v -0.2158915 1.05 0.2626981
v 0.2158915 -1.05 -0.7373019
v 0.2158915 -1.05 -0.7373019
v 0.2158915 -1.05 -0.7373019
v -0.2158915 -1.05 -0.7373019
v -0.2158915 -1.05 -0.7373019
v -0.2158915 -1.05 -0.7373019
v -0.2158915 -1.05 -0.7373019
v -0.2158915 -1.05 -0.7373019
v -0.2158915 1.05 -0.7373019
v -0.2158915 1.05 -0.7373019
v -0.2158915 1.05 -0.7373019
v -0.2158915 1.05 -0.7373019
v -0.2158915 1.05 -0.7373019
v 0.2158915 1.05 -0.7373019
v 0.2158915 1.05 -0.7373019
v 0.2158915 1.05 -0.7373019
v 0.2158915 1.05 -0.7373019
v 0.2158915 -1.05 -1.887478
v 0.2158915 -1.05 -1.887478
v 0.2158915 -1.05 -1.887478
v 0.2158915 -1.05 -1.887478
v -0.2158915 -1.05 0.2626981
v -0.2158915 -1.05 0.2626981
v -0.2158915 -1.05 0.2626981
v -0.2158915 -1.05 0.2626981
v -0.2158915 -1.05 0.2626981
v -0.2158915 -1.05 0.2626981
v -0.2158915 -1.05 -1.887478
v -0.2158915 -1.05 -1.887478
v -0.2158915 -1.05 -1.887478
v -0.2158915 -1.05 -1.887478
v -0.1158916 -0.7842394 -1.887478
v -0.1158916 -0.7842394 -1.887478
v -0.1158916 -0.7842394 -1.887478
v -0.1158916 -0.7842394 -1.887478
v -0.1158916 -0.7842394 -1.887478
v -0.1158916 -0.7842394 -1.887478
v -0.1158916 -1.05 -1.887478
v -0.1158916 -1.05 -1.887478
v -0.1158916 -1.05 -1.887478
v -0.1158916 -1.05 -1.887478
v -0.2158915 -0.7842394 -1.887478
v -0.2158915 -0.7842394 -1.887478
v -0.2158915 -0.7842394 -1.887478
v 0.2158915 -0.7842394 -1.887478
v 0.2158915 -0.7842394 -1.887478
v 0.2158915 -0.7842394 -1.887478
v -0.1158916 -0.1637822 1.887478
v -0.1158916 -0.1637822 1.887478
v -0.1158916 -0.1637822 1.887478
v -0.1158916 -0.1637822 1.887478
v -0.1158916 -0.9111801 1.282836
v -0.1158916 -0.9111801 1.282836
v -0.1158916 -0.9111801 1.282836
v -0.2158915 -0.1389345 1.854217
v -0.2158915 -0.1389345 1.854217
v -0.2158915 -0.1389345 1.854217
v -0.1832767 -0.1470386 1.865065
v -0.1832767 -0.1470386 1.865065
v -0.1832767 -0.1470386 1.865065
v -0.1158916 -1.05 1.170531
v -0.1158916 -1.05 1.170531
v -0.1158916 -1.05 1.170531
v -0.2158915 -0.2652571 1.752022
v -0.2158915 -0.2652571 1.752022
v -0.2158915 -0.2652571 1.752022
v -0.2158915 -0.2652571 1.752022
v -0.2158915 -0.2652571 1.752022
v -0.2158915 -0.2652571 1.752022
v -0.2158915 -0.2652571 1.752022
v -0.2158915 -0.2652571 1.752022
v -0.1791332 -1.05 1.136783
v -0.1791332 -1.05 1.136783
v -0.1791332 -1.05 1.136783
v -0.1791332 -1.05 1.136783
v -0.2158915 -1.05 1.117168
v -0.2158915 -1.05 1.117168
vt 0.5116265 0.9782355
vt 0.5116265 0.9782355
vt 0.5116265 0.9782355
vt 0.5116265 0.9782355
vt 0.5116265 0.9782355
vt 0.5116265 0.9782355
vt 0.5116265 0.9782355
vt 0.5116265 0.9782355
vt 0.5116265 0.9782355
vt 0.5116265 0.9782355
vt 0.5116265 0.9782355
vt 0.5116265 0.9782355
vt 0.5116265 0.9782355
vt 0.5116265 0.9782355
vt 0.5116265 0.9782355
vt 0.5116265 0.9782355
vt 0.5116265 0.9782355
vt 0.5116265 0.9782355
vt 0.5116265 0.9782355
vt 0.5116265 0.9782355
vt 0.5116265 0.9782355
vt 0.5116265 0.9782355
vt 0.5116264 0.9782354
vt 0.5116265 0.9782355
vt 0.5116265 0.9782355
vt 0.5116265 0.9782355
vt 0.5116265 0.9782355
vt 0.5116265 0.9782355
vt 0.5116265 0.9782355
vt 0.5116265 0.9782355
vt 0.5116265 0.9782355
vt 0.5116265 0.9782355
vt 0.5116265 0.9782355
vt 0.5116265 0.9782355
vt 0.5116265 0.9782355
vt 0.5116265 0.9782355
vt 0.5116265 0.9782355
vt 0.5116265 0.9782355
vt 0.5116265 0.9782355
vt 0.5116265 0.9782355
vt 0.5116265 0.9782355
vt 0.5116265 0.9782355
vt 0.5116265 0.9782355
vt 0.5116265 0.9782355
vt 0.5116265 0.9782355
vt 0.5116265 0.9782355
vt 0.5116265 0.9782355
vt 0.5116265 0.9782355
vt 0.5116265 0.9782355
vt 0.5116265 0.9782355
vt 0.5116265 0.9782355
vt 0.5116265 0.9782355
vt 0.5116265 0.9782355
vt 0.5116265 0.9782355
vt 0.5116265 0.9782355
vt 0.5116265 0.9782355
vt 0.5116265 0.9782355
vt 0.5116265 0.9782355
vt 0.5116265 0.9782355
vt 0.5116265 0.9782355
vt 0.5116265 0.9782355
vt 0.5116265 0.9782355
vt 0.5116265 0.9782355
vt 0.5116265 0.9782355
vt 0.5116265 0.9782355
vt 0.5116265 0.9782355
vt 0.5116265 0.9782355
vt 0.5116265 0.9782355
vt 0.5116265 0.9782355
vt 0.5116265 0.9782355
vt 0.5116265 0.9782355
vt 0.5116265 0.9782355
vt 0.5116265 0.9782355
vt 0.5116265 0.9782355
vt 0.5116265 0.9782355
vt 0.5116265 0.9782355
vt 0.5116265 0.9782355
vt 0.5116265 0.9782355
vt 0.5116265 0.9782355
vt 0.5116265 0.9782355
vt 0.5116265 0.9782355
vt 0.5116265 0.9782355
vt 0.5116265 0.9782355
vt 0.5116265 0.9782355
vt 0.5116265 0.9782355
vt 0.5116265 0.9782355
vt 0.5116265 0.9782355
vt 0.5116265 0.9782355
vt 0.5116265 0.9782355
vt 0.5116265 0.9782355
vt 0.5116265 0.9782355
vt 0.5116265 0.9782355
vt 0.5116265 0.9782355
vt 0.5116265 0.9782355
vt 0.5116265 0.9782355
vt 0.5116265 0.9782355
vt 0.5116265 0.9782355
vt 0.5116265 0.9782355
vt 0.5116265 0.9782355
vt 0.5116265 0.9782355
vt 0.5116265 0.9782355
vt 0.5116265 0.9782355
vt 0.5116265 0.9782355
vt 0.5116265 0.9782355
vt 0.3048006 0.2250998
vt 0.3048006 0.2250998
vt 0.5116265 0.9782355
vt 0.3048006 0.0352603
vt 0.3048006 0.0352603
vt 0.5116265 0.9782355
vt 0.5116265 0.9782355
vt 0.3302006 0.2314111
vt 0.5116265 0.9782355
vt 0.3219165 0.2293527
vt 0.3219165 0.2293527
vt 0.5116265 0.9782355
vt 0.3048006 0
vt 0.3048006 0
vt 0.5116265 0.9782355
vt 0.5116265 0.9782355
vt 0.3302006 0.1993251
vt 0.3302006 0.1993251
vt 0.3302006 0.1993251
vt 0.3302006 0.1993251
vt 0.3302006 0.1993251
vt 0.3302006 0.1993251
vt 0.5116264 0.9782354
vt 0.5116264 0.9782354
vt 0.320864 0
vt 0.320864 0
vt 0.5116265 0.9782355
vt 0.3302006 0
vn 1 0 0
vn 1 0 0
vn 1 0 0
vn 1 0 0
vn 0 0.9489824 0.315329
vn 0 0 1
vn 0 -1 0
vn 0 0.8750008 -0.4841216
vn 0 0 1
vn 0 -1 0
vn 0 -1 0
vn 0 -1 0
vn 0 0.2763934 -0.9610446
vn 0 -1 0
vn -1 0 0
vn 0 0.2763934 -0.9610446
vn 0 0.9257365 0.3781691
vn 1 0 0
vn -1 0 -6.894808E-13
vn 0 0.9260864 0.3773116
vn 1 0 0
vn -1 0 -6.702442E-08
vn 0 -1 0
vn 0 -1 0
vn 1 0 0
vn 0 0 1
vn 0 -1 0
vn 0 -1 0
vn 0 -1 0
vn 0 -1 0
vn 0 -1 0
vn 1 0 0
vn 0 0.9489824 0.315329
vn 0 0.9489824 0.315329
vn 1 0 0
vn 0 0.9489824 0.315329
vn 0 0.9489824 0.315329
vn 0 0.7726848 -0.6347899
vn 0 0 1
vn 0 0.7726848 -0.6347899
vn 0 0 1
vn 0 0.7726848 -0.6347899
vn 0 0.7726848 -0.6347899
vn 0 -1 0
vn 0 -1 0
vn 1 0 0
vn 1 0 0
vn 1 0 0
vn 0 -1 0
vn 0 -1 0
vn 0 0.9489824 0.315329
vn -1 0 0
vn -1 0 0
vn 0 0.9489824 0.315329
vn -1 0 0
vn 0 0 1
vn 0 -1 0
vn 1 0 0
vn 0 -1 0
vn 0 -1 0
vn -1 0 0
vn -1 0 0
vn -1 0 0
vn -1 0 0
vn 0 0.8750008 -0.4841216
vn -1 0 0
vn 0 0.8750008 -0.4841216
vn -1 0 0
vn 0 0.5312527 -0.8472134
vn 1 0 0
vn 0 0.5312527 -0.8472134
vn 1 0 0
vn 1 0 0
vn 0 -1 0
vn 1 0 0
vn 0 0 -1
vn -1 0 0
vn -1 0 0
vn 0 -1 0
vn 0 -1 0
vn -1 0 0
vn -1 0 0
vn 0 -1 0
vn -1 0 0
vn 0 0 -1
vn 0 0 -1
vn 0 0.2763934 -0.9610446
vn 0 0.2763934 -0.9610446
vn 0 0.2763934 -0.9610446
vn 0 0.2763934 -0.9610446
vn 0 0.2763934 -0.9610446
vn 0 0.2763934 -0.9610446
vn 0 -1 0
vn 0 0 -1
vn 0 0 -1
vn 0 0 -1
vn 0 0.2763934 -0.9610446
vn -1 0 0
vn 0 0.2763934 -0.9610446
vn 1 0 0
vn 0 0.2763934 -0.9610446
vn 0 0.2763934 -0.9610446
vn 1 0 0
vn 1 0 0
vn -0.3832004 -0.5809397 0.7180992
vn -0.3832 -0.58094 0.7180992
vn 1 0 0
vn -0.3832 -0.5809398 0.7180995
vn -0.3832004 -0.5809397 0.7180992
vn 0 0.9262553 0.3768968
vn 0 0.9262553 0.3768968
vn -0.3832012 -0.5809395 0.718099
vn 0 0.9260865 0.3773113
vn -0.3832 -0.58094 0.7180992
vn -0.3832012 -0.5809395 0.718099
vn 0 -1 0
vn -0.3832012 -0.5809397 0.7180989
vn -0.3832 -0.5809398 0.7180995
vn -1 0 -6.702358E-08
vn -1 0 -6.702358E-08
vn -0.3832008 -0.5809397 0.7180991
vn -0.3832012 -0.5809397 0.7180989
vn -0.3832 -0.5809398 0.7180995
vn -0.3832004 -0.5809397 0.7180992
vn -0.3832 -0.58094 0.7180992
vn -0.3832012 -0.5809395 0.718099
vn 0 -1 0
vn 0 -1 0
vn -0.3832008 -0.5809397 0.7180991
vn -0.3832012 -0.5809397 0.7180989
vn -1 0 -3.845343E-08
vn -0.3832008 -0.5809397 0.7180991
g IL_SqG_Prop3_sh_4_0
f 3/3/3 2/2/2 1/1/1
f 32/32/32 4/4/4 25/25/25
f 5/5/5 33/33/33 38/38/38
f 26/26/26 6/6/6 39/39/39
f 27/27/27 44/44/44 7/7/7
f 8/8/8 51/51/51 40/40/40
f 56/56/56 9/9/9 41/41/41
f 10/10/10 57/57/57 28/28/28
f 45/45/45 11/11/11 59/59/59
f 60/60/60 12/12/12 29/29/29
f 52/52/52 64/64/64 77/77/77
f 42/42/42 13/13/13 65/65/65
f 43/43/43 69/69/69 87/87/87
f 58/58/58 73/73/73 70/70/70
f 14/14/14 74/74/74 30/30/30
f 66/66/66 61/61/61 78/78/78
f 83/83/83 93/93/93 31/31/31
f 15/15/15 84/84/84 62/62/62
f 88/88/88 97/97/97 67/67/67
f 71/71/71 16/16/16 89/89/89
f 75/75/75 100/100/100 72/72/72
f 101/101/101 76/76/76 94/94/94
f 68/68/68 98/98/98 63/63/63
f 90/90/90 95/95/95 85/85/85
f 99/99/99 91/91/91 86/86/86
f 92/92/92 102/102/102 96/96/96
f 18/18/18 21/21/21 46/46/46
f 20/20/20 17/17/17 34/34/34
f 22/22/22 19/19/19 53/53/53
f 23/23/23 24/24/24 79/79/79
f 47/47/47 35/35/35 103/103/103
f 104/104/104 107/107/107 48/48/48
f 110/110/110 113/113/113 36/36/36
f 37/37/37 54/54/54 111/111/111
f 49/49/49 116/116/116 127/127/127
f 128/128/128 80/80/80 50/50/50
f 119/119/119 55/55/55 81/81/81
f 82/82/82 131/131/131 120/120/120
g IL_SqG_Prop3_sh_4_1
f 121/121/121 132/132/132 129/129/129
f 122/122/122 130/130/130 117/117/117
f 123/123/123 118/118/118 108/108/108
f 124/124/124 109/109/109 105/105/105
f 125/125/125 106/106/106 114/114/114
f 115/115/115 112/112/112 126/126/126
