g IL_SqG_Prop7
v 0.65 0 0.09999996
v 0.65 0 0
v 0.65 1.2 0
v 0.65 1.2 0.09999996
v 0.65 0 0
v 0.85 0 0
v 0.85 1.2 0
v 0.65 1.2 0
v 0.75 1.3 0
v 0.85 0 0
v 0.85 0 0.09999996
v 0.85 1.2 0.09999996
v 0.85 1.2 0
v 0.85 0 0.09999996
v 0.65 0 0.09999996
v 0.65 1.2 0.09999996
v 0.85 1.2 0.09999996
v 0.75 1.3 0.09999996
v 0.65 0 0
v 0.65 0 0.09999996
v 0.85 0 0.09999996
v 0.85 0 0
v 0.65 1.2 0
v 0.75 1.3 0
v 0.75 1.3 0.09999996
v 0.65 1.2 0.09999996
v 0.85 1.2 0.09999996
v 0.75 1.3 0.09999996
v 0.75 1.3 0
v 0.85 1.2 0
v 0.2006513 0 0.09999996
v 0.2006513 0 0
v 0.2006513 1.2 0
v 0.2006513 1.2 0.09999996
v 0.2006513 0 0
v 0.4006512 0 0
v 0.4006512 1.2 0
v 0.2006513 1.2 0
v 0.3006513 1.3 0
v 0.4006512 0 0
v 0.4006512 0 0.09999996
v 0.4006512 1.2 0.09999996
v 0.4006512 1.2 0
v 0.4006512 0 0.09999996
v 0.2006513 0 0.09999996
v 0.2006513 1.2 0.09999996
v 0.4006512 1.2 0.09999996
v 0.3006513 1.3 0.09999996
v 0.2006513 0 0
v 0.2006513 0 0.09999996
v 0.4006512 0 0.09999996
v 0.4006512 0 0
v 0.2006513 1.2 0
v 0.3006513 1.3 0
v 0.3006513 1.3 0.09999996
v 0.2006513 1.2 0.09999996
v 0.4006512 1.2 0.09999996
v 0.3006513 1.3 0.09999996
v 0.3006513 1.3 0
v 0.4006512 1.2 0
v -0.3490505 0 0.09999996
v -0.3490505 0 0
v -0.3490505 1.2 0
v -0.3490505 1.2 0.09999996
v -0.3490505 0 0
v -0.1490506 0 0
v -0.1490506 1.2 0
v -0.3490505 1.2 0
v -0.2490505 1.3 0
v -0.1490506 0 0
v -0.1490506 0 0.09999996
v -0.1490506 1.2 0.09999996
v -0.1490506 1.2 0
v -0.1490506 0 0.09999996
v -0.3490505 0 0.09999996
v -0.3490505 1.2 0.09999996
v -0.1490506 1.2 0.09999996
v -0.2490505 1.3 0.09999996
v -0.3490505 0 0
v -0.3490505 0 0.09999996
v -0.1490506 0 0.09999996
v -0.1490506 0 0
v -0.3490505 1.2 0
v -0.2490505 1.3 0
v -0.2490505 1.3 0.09999996
v -0.3490505 1.2 0.09999996
v -0.1490506 1.2 0.09999996
v -0.2490505 1.3 0.09999996
v -0.2490505 1.3 0
v -0.1490506 1.2 0
v -0.85 0 0.09999996
v -0.85 0 0
v -0.85 1.2 0
v -0.85 1.2 0.09999996
v -0.85 0 0
v -0.65 0 0
v -0.65 1.2 0
v -0.85 1.2 0
v -0.75 1.3 0
v -0.65 0 0
v -0.65 0 0.09999996
v -0.65 1.2 0.09999996
v -0.65 1.2 0
v -0.65 0 0.09999996
v -0.85 0 0.09999996
v -0.85 1.2 0.09999996
v -0.65 1.2 0.09999996
v -0.75 1.3 0.09999996
v -0.85 0 0
v -0.85 0 0.09999996
v -0.65 0 0.09999996
v -0.65 0 0
v -0.85 1.2 0
v -0.75 1.3 0
v -0.75 1.3 0.09999996
v -0.85 1.2 0.09999996
v -0.65 1.2 0.09999996
v -0.75 1.3 0.09999996
v -0.75 1.3 0
v -0.65 1.2 0
v -1 0.2 -0.09999999
v -1 0.2 -3.72529E-08
v 1 0.2 -3.72529E-08
v 1 0.2 -0.09999999
v -1 0.4 -0.09999999
v 1 0.4 -0.09999999
v 1 0.4 -3.72529E-08
v -1 0.4 -3.72529E-08
v 1 0.2 -3.72529E-08
v -1 0.2 -3.72529E-08
v -1 0.4 -3.72529E-08
v 1 0.4 -3.72529E-08
v -1 0.2 -0.09999999
v 1 0.2 -0.09999999
v 1 0.4 -0.09999999
v -1 0.4 -0.09999999
v 1 0.2 -0.09999999
v 1 0.2 -3.72529E-08
v 1 0.4 -3.72529E-08
v 1 0.4 -0.09999999
v -1 0.2 -3.72529E-08
v -1 0.2 -0.09999999
v -1 0.4 -0.09999999
v -1 0.4 -3.72529E-08
v 1 0.8 -3.72529E-08
v -1 0.8 -3.72529E-08
v -1 1 -3.72529E-08
v 1 1 -3.72529E-08
v 1 0.8 -0.1
v 1 1 -0.1
v -1 1 -0.1
v -1 0.8 -0.1
v -1 1 -3.72529E-08
v -1 1 -0.1
v 1 1 -0.1
v 1 1 -3.72529E-08
v -1 0.8 -3.72529E-08
v -1 0.8 -0.1
v -1 1 -0.1
v -1 1 -3.72529E-08
v 1 0.8 -3.72529E-08
v 1 0.8 -0.1
v -1 0.8 -0.1
v -1 0.8 -3.72529E-08
v 1 1 -3.72529E-08
v 1 1 -0.1
v 1 0.8 -0.1
v 1 0.8 -3.72529E-08
vt 0.5175781 0.977539
vt 0.5175781 0.977539
vt 0.5175781 0.977539
vt 0.5175781 0.977539
vt 0.5175781 0.977539
vt 0.5175781 0.977539
vt 0.5175781 0.977539
vt 0.5175781 0.977539
vt 0.5175781 0.977539
vt 0.5175781 0.977539
vt 0.5175781 0.977539
vt 0.5175781 0.977539
vt 0.5175781 0.977539
vt 0.5175781 0.977539
vt 0.5175781 0.977539
vt 0.5175781 0.977539
vt 0.5175781 0.977539
vt 0.5175781 0.977539
vt 0.5175781 0.977539
vt 0.5175781 0.977539
vt 0.5175781 0.977539
vt 0.5175781 0.977539
vt 0.5175781 0.977539
vt 0.5175781 0.977539
vt 0.5175781 0.977539
vt 0.5175781 0.977539
vt 0.5175781 0.977539
vt 0.5175781 0.977539
vt 0.5175781 0.977539
vt 0.5175781 0.977539
vt 0.5742188 0.9804687
vt 0.5742188 0.9804687
vt 0.5742188 0.9804687
vt 0.5742188 0.9804687
vt 0.5742188 0.9804687
vt 0.5742188 0.9804687
vt 0.5742188 0.9804687
vt 0.5742188 0.9804687
vt 0.5742188 0.9804687
vt 0.5742188 0.9804687
vt 0.5742188 0.9804687
vt 0.5742188 0.9804687
vt 0.5742188 0.9804687
vt 0.5742188 0.9804687
vt 0.5742188 0.9804687
vt 0.5742188 0.9804687
vt 0.5742188 0.9804687
vt 0.5742188 0.9804687
vt 0.5742188 0.9804687
vt 0.5742188 0.9804687
vt 0.5742188 0.9804687
vt 0.5742188 0.9804687
vt 0.5742188 0.9804687
vt 0.5742188 0.9804687
vt 0.5742188 0.9804687
vt 0.5742188 0.9804687
vt 0.5742188 0.9804687
vt 0.5742188 0.9804687
vt 0.5742188 0.9804687
vt 0.5742188 0.9804687
vt 0.5175781 0.977539
vt 0.5175781 0.977539
vt 0.5175781 0.977539
vt 0.5175781 0.977539
vt 0.5175781 0.977539
vt 0.5175781 0.977539
vt 0.5175781 0.977539
vt 0.5175781 0.977539
vt 0.5175781 0.977539
vt 0.5175781 0.977539
vt 0.5175781 0.977539
vt 0.5175781 0.977539
vt 0.5175781 0.977539
vt 0.5175781 0.977539
vt 0.5175781 0.977539
vt 0.5175781 0.977539
vt 0.5175781 0.977539
vt 0.5175781 0.977539
vt 0.5175781 0.977539
vt 0.5175781 0.977539
vt 0.5175781 0.977539
vt 0.5175781 0.977539
vt 0.5175781 0.977539
vt 0.5175781 0.977539
vt 0.5175781 0.977539
vt 0.5175781 0.977539
vt 0.5175781 0.977539
vt 0.5175781 0.977539
vt 0.5175781 0.977539
vt 0.5175781 0.977539
vt 0.5449219 0.9814453
vt 0.5449219 0.9814453
vt 0.5449219 0.9814453
vt 0.5449219 0.9814453
vt 0.5449219 0.9814453
vt 0.5449219 0.9814453
vt 0.5449219 0.9814453
vt 0.5449219 0.9814453
vt 0.5449219 0.9814453
vt 0.5449219 0.9814453
vt 0.5449219 0.9814453
vt 0.5449219 0.9814453
vt 0.5449219 0.9814453
vt 0.5449219 0.9814453
vt 0.5449219 0.9814453
vt 0.5449219 0.9814453
vt 0.5449219 0.9814453
vt 0.5449219 0.9814453
vt 0.5449219 0.9814453
vt 0.5449219 0.9814453
vt 0.5449219 0.9814453
vt 0.5449219 0.9814453
vt 0.5449219 0.9814453
vt 0.5449219 0.9814453
vt 0.5449219 0.9814453
vt 0.5449219 0.9814453
vt 0.5449219 0.9814453
vt 0.5449219 0.9814453
vt 0.5449219 0.9814453
vt 0.5449219 0.9814453
vt 0.5175781 0.977539
vt 0.5175781 0.977539
vt 0.5175781 0.977539
vt 0.5175781 0.977539
vt 0.5175781 0.977539
vt 0.5175781 0.977539
vt 0.5175781 0.977539
vt 0.5175781 0.977539
vt 0.5175781 0.977539
vt 0.5175781 0.977539
vt 0.5175781 0.977539
vt 0.5175781 0.977539
vt 0.5175781 0.977539
vt 0.5175781 0.977539
vt 0.5175781 0.977539
vt 0.5175781 0.977539
vt 0.5175781 0.977539
vt 0.5175781 0.977539
vt 0.5175781 0.977539
vt 0.5175781 0.977539
vt 0.5175781 0.977539
vt 0.5175781 0.977539
vt 0.5175781 0.977539
vt 0.5175781 0.977539
vt 0.5175781 0.977539
vt 0.5175781 0.977539
vt 0.5175781 0.977539
vt 0.5175781 0.977539
vt 0.5175781 0.977539
vt 0.5175781 0.977539
vt 0.5175781 0.977539
vt 0.5175781 0.977539
vt 0.5175781 0.977539
vt 0.5175781 0.977539
vt 0.5175781 0.977539
vt 0.5175781 0.977539
vt 0.5175781 0.977539
vt 0.5175781 0.977539
vt 0.5175781 0.977539
vt 0.5175781 0.977539
vt 0.5175781 0.977539
vt 0.5175781 0.977539
vt 0.5175781 0.977539
vt 0.5175781 0.977539
vt 0.5175781 0.977539
vt 0.5175781 0.977539
vt 0.5175781 0.977539
vt 0.5175781 0.977539
vn -1 0 0
vn -1 0 0
vn -1 0 0
vn -1 0 0
vn 0 0 -1
vn 0 0 -1
vn 0 0 -1
vn 0 0 -1
vn 0 0 -1
vn 1 0 0
vn 1 0 0
vn 1 0 0
vn 1 0 0
vn 0 0 1
vn 0 0 1
vn 0 0 1
vn 0 0 1
vn 0 0 1
vn 0 -1 0
vn 0 -1 0
vn 0 -1 0
vn 0 -1 0
vn -0.7071066 0.7071068 0
vn -0.7071066 0.7071068 0
vn -0.7071066 0.7071068 0
vn -0.7071066 0.7071068 0
vn 0.7071066 0.7071068 0
vn 0.7071066 0.7071068 0
vn 0.7071066 0.7071068 0
vn 0.7071066 0.7071068 0
vn -1 0 0
vn -1 0 0
vn -1 0 0
vn -1 0 0
vn 0 0 -1
vn 0 0 -1
vn 0 0 -1
vn 0 0 -1
vn 0 0 -1
vn 1 0 0
vn 1 0 0
vn 1 0 0
vn 1 0 0
vn 0 0 1
vn 0 0 1
vn 0 0 1
vn 0 0 1
vn 0 0 1
vn 0 -1 0
vn 0 -1 0
vn 0 -1 0
vn 0 -1 0
vn -0.7071068 0.7071068 0
vn -0.7071068 0.7071068 0
vn -0.7071068 0.7071068 0
vn -0.7071068 0.7071068 0
vn 0.7071066 0.7071068 0
vn 0.7071066 0.7071068 0
vn 0.7071066 0.7071068 0
vn 0.7071066 0.7071068 0
vn -1 0 0
vn -1 0 0
vn -1 0 0
vn -1 0 0
vn 0 0 -1
vn 0 0 -1
vn 0 0 -1
vn 0 0 -1
vn 0 0 -1
vn 1 0 0
vn 1 0 0
vn 1 0 0
vn 1 0 0
vn 0 0 1
vn 0 0 1
vn 0 0 1
vn 0 0 1
vn 0 0 1
vn 0 -1 0
vn 0 -1 0
vn 0 -1 0
vn 0 -1 0
vn -0.7071066 0.7071068 0
vn -0.7071066 0.7071068 0
vn -0.7071066 0.7071068 0
vn -0.7071066 0.7071068 0
vn 0.7071066 0.7071068 0
vn 0.7071066 0.7071068 0
vn 0.7071066 0.7071068 0
vn 0.7071066 0.7071068 0
vn -1 0 0
vn -1 0 0
vn -1 0 0
vn -1 0 0
vn 0 0 -1
vn 0 0 -1
vn 0 0 -1
vn 0 0 -1
vn 0 0 -1
vn 1 0 0
vn 1 0 0
vn 1 0 0
vn 1 0 0
vn 0 0 1
vn 0 0 1
vn 0 0 1
vn 0 0 1
vn 0 0 1
vn 0 -1 0
vn 0 -1 0
vn 0 -1 0
vn 0 -1 0
vn -0.7071066 0.7071068 0
vn -0.7071066 0.7071068 0
vn -0.7071066 0.7071068 0
vn -0.7071066 0.7071068 0
vn 0.7071066 0.7071068 0
vn 0.7071066 0.7071068 0
vn 0.7071066 0.7071068 0
vn 0.7071066 0.7071068 0
vn 0 -1 0
vn 0 -1 0
vn 0 -1 0
vn 0 -1 0
vn 0 1 0
vn 0 1 0
vn 0 1 0
vn 0 1 0
vn 0 0 1
vn 0 0 1
vn 0 0 1
vn 0 0 1
vn 0 0 -1
vn 0 0 -1
vn 0 0 -1
vn 0 0 -1
vn 1 0 0
vn 1 0 0
vn 1 0 0
vn 1 0 0
vn -1 0 0
vn -1 0 0
vn -1 0 0
vn -1 0 0
vn 0 0 1
vn 0 0 1
vn 0 0 1
vn 0 0 1
vn 0 0 -1
vn 0 0 -1
vn 0 0 -1
vn 0 0 -1
vn 0 1 0
vn 0 1 0
vn 0 1 0
vn 0 1 0
vn -1 0 0
vn -1 0 0
vn -1 0 0
vn -1 0 0
vn 0 -1 0
vn 0 -1 0
vn 0 -1 0
vn 0 -1 0
vn 1 0 0
vn 1 0 0
vn 1 0 0
vn 1 0 0
g IL_SqG_Prop7_0
f 3/3/3 2/2/2 1/1/1
f 4/4/4 3/3/3 1/1/1
f 7/7/7 6/6/6 5/5/5
f 8/8/8 7/7/7 5/5/5
f 8/8/8 9/9/9 7/7/7
f 12/12/12 11/11/11 10/10/10
f 13/13/13 12/12/12 10/10/10
f 16/16/16 15/15/15 14/14/14
f 17/17/17 16/16/16 14/14/14
f 17/17/17 18/18/18 16/16/16
f 21/21/21 20/20/20 19/19/19
f 22/22/22 21/21/21 19/19/19
f 25/25/25 24/24/24 23/23/23
f 26/26/26 25/25/25 23/23/23
f 29/29/29 28/28/28 27/27/27
f 30/30/30 29/29/29 27/27/27
f 33/33/33 32/32/32 31/31/31
f 34/34/34 33/33/33 31/31/31
f 37/37/37 36/36/36 35/35/35
f 38/38/38 37/37/37 35/35/35
f 38/38/38 39/39/39 37/37/37
f 42/42/42 41/41/41 40/40/40
f 43/43/43 42/42/42 40/40/40
f 46/46/46 45/45/45 44/44/44
f 47/47/47 46/46/46 44/44/44
f 47/47/47 48/48/48 46/46/46
f 51/51/51 50/50/50 49/49/49
f 52/52/52 51/51/51 49/49/49
f 55/55/55 54/54/54 53/53/53
f 56/56/56 55/55/55 53/53/53
f 59/59/59 58/58/58 57/57/57
f 60/60/60 59/59/59 57/57/57
f 63/63/63 62/62/62 61/61/61
f 64/64/64 63/63/63 61/61/61
f 67/67/67 66/66/66 65/65/65
f 68/68/68 67/67/67 65/65/65
f 68/68/68 69/69/69 67/67/67
f 72/72/72 71/71/71 70/70/70
f 73/73/73 72/72/72 70/70/70
f 76/76/76 75/75/75 74/74/74
f 77/77/77 76/76/76 74/74/74
f 77/77/77 78/78/78 76/76/76
f 81/81/81 80/80/80 79/79/79
f 82/82/82 81/81/81 79/79/79
f 85/85/85 84/84/84 83/83/83
f 86/86/86 85/85/85 83/83/83
f 89/89/89 88/88/88 87/87/87
f 90/90/90 89/89/89 87/87/87
f 93/93/93 92/92/92 91/91/91
f 94/94/94 93/93/93 91/91/91
f 97/97/97 96/96/96 95/95/95
f 98/98/98 97/97/97 95/95/95
f 98/98/98 99/99/99 97/97/97
f 102/102/102 101/101/101 100/100/100
f 103/103/103 102/102/102 100/100/100
f 106/106/106 105/105/105 104/104/104
f 107/107/107 106/106/106 104/104/104
f 107/107/107 108/108/108 106/106/106
f 111/111/111 110/110/110 109/109/109
f 112/112/112 111/111/111 109/109/109
f 115/115/115 114/114/114 113/113/113
f 116/116/116 115/115/115 113/113/113
f 119/119/119 118/118/118 117/117/117
f 120/120/120 119/119/119 117/117/117
f 123/123/123 122/122/122 121/121/121
f 124/124/124 123/123/123 121/121/121
f 127/127/127 126/126/126 125/125/125
f 128/128/128 127/127/127 125/125/125
f 131/131/131 130/130/130 129/129/129
f 132/132/132 131/131/131 129/129/129
f 135/135/135 134/134/134 133/133/133
f 136/136/136 135/135/135 133/133/133
f 139/139/139 138/138/138 137/137/137
f 140/140/140 139/139/139 137/137/137
f 143/143/143 142/142/142 141/141/141
f 144/144/144 143/143/143 141/141/141
f 147/147/147 146/146/146 145/145/145
f 148/148/148 147/147/147 145/145/145
f 151/151/151 150/150/150 149/149/149
f 152/152/152 151/151/151 149/149/149
f 155/155/155 154/154/154 153/153/153
f 156/156/156 155/155/155 153/153/153
f 159/159/159 158/158/158 157/157/157
f 160/160/160 159/159/159 157/157/157
f 163/163/163 162/162/162 161/161/161
f 164/164/164 163/163/163 161/161/161
f 167/167/167 166/166/166 165/165/165
f 168/168/168 167/167/167 165/165/165
