g IL_SimpleLift 2
v -0.3 0.85 0
v -1.3 0.85 0
v -1.3 2.5 0
v -0.3 2.5 0
v -4.3 2.5 0
v -4.3 2.7 0
v -4.3 2.7 -0.3
v -4.3 2.5 -0.3
v -5.3 0.85 0
v -5.3 0.85 6
v -5.3 2.5 6
v -5.3 2.5 0
v -4.3 0.85 0
v -5.3 0.85 0
v -5.3 2.5 0
v -4.3 2.5 0
v -0.3 2.5 0
v -5.960464E-08 2.7 0
v -5.960464E-08 2.5 0
v -0.3 2.7 0
v -1.3 2.5 0
v -1.3 2.7 0
v -5.960464E-08 2.5 0
v -0.3 2.5 6
v -0.3 2.5 0
v -5.960464E-08 2.5 6
v -0.3 2.5 6.3
v -5.960464E-08 2.5 6.3
v -5.3 2.5 6
v -5.3 2.5 6.3
v -5.6 2.5 6.3
v -5.6 2.5 6
v -5.3 2.5 0
v -5.6 2.5 0
v -0.3 0.85 0
v -0.3 0.85 6
v -0.3 0 6
v -0.3 0 0
v -0.3 0.85 6
v -5.3 0.85 6
v -5.3 0 6
v -0.3 0 6
v -0.3 0 -0.3
v -1.3 0.85 -0.3
v -1.3 0 -0.3
v -0.3 0.85 -0.3
v -5.960464E-08 0 -0.3
v -5.960464E-08 0.85 -0.3
v -5.6 2.5 0
v -5.6 2.7 0
v -5.3 2.7 0
v -5.3 2.5 0
v -4.3 2.7 0
v -4.3 2.5 0
v -4.3 0.85 0
v -4.3 2.5 0
v -4.3 2.5 -0.3
v -4.3 0.85 -0.3
v -1.3 0.85 0
v -1.3 0.85 -0.3
v -1.3 2.5 -0.3
v -1.3 2.5 0
v -4.3 0.85 -0.3
v -4.3 2.5 -0.3
v -5.3 2.5 -0.3
v -5.3 0.85 -0.3
v -5.6 2.5 -0.3
v -5.6 0.85 -0.3
v -5.3 2.7 -0.3
v -4.3 2.5 -0.3
v -4.3 2.7 -0.3
v -5.3 2.5 -0.3
v -5.6 2.5 -0.3
v -5.6 2.7 -0.3
v -0.3 2.5 6
v -5.3 2.5 6
v -5.3 0.85 6
v -0.3 0.85 6
v -0.3 2.5 0
v -0.3 2.5 6
v -0.3 0.85 6
v -0.3 0.85 0
v -5.3 0 0
v -5.3 0 6
v -5.3 0.85 6
v -5.3 0.85 0
v -4.644943 1.093208 -0.03757575
v -4.644943 1.093208 0.01786735
v -4.644943 1.409982 0.01786735
v -4.644943 1.409982 -0.03757575
v -4.644943 1.604896 0.01786735
v -4.644943 1.604896 -0.03757575
v -4.673185 1.438224 0.01786735
v -4.926815 1.438224 0.01786735
v -4.926815 1.576653 0.01786735
v -4.673185 1.576653 0.01786735
v -4.955057 1.409982 -0.03757575
v -4.955057 1.093208 0.01786735
v -4.955057 1.093208 -0.03757575
v -4.955057 1.409982 0.01786735
v -4.955057 1.604896 -0.03757575
v -4.955057 1.604896 0.01786735
v -4.955057 1.093208 -0.03757575
v -4.955057 1.093208 0.01786735
v -4.644943 1.093208 0.01786735
v -4.644943 1.093208 -0.03757575
v -4.644943 1.604896 -0.03757575
v -4.644943 1.604896 0.01786735
v -4.955057 1.604896 0.01786735
v -4.955057 1.604896 -0.03757575
v -4.674906 1.123171 0.01786735
v -4.925095 1.123171 0.01786735
v -4.925095 1.38002 0.01786735
v -4.674906 1.38002 0.01786735
v -0.3 2.7 -0.3
v -1.3 2.7 0
v -1.3 2.7 -0.3
v -0.3 2.7 0
v -5.960464E-08 2.7 -0.3
v -5.960464E-08 2.7 0
v -4.3 0.85 -0.3
v -4.3 0 -0.3
v -4.3 0 0
v -4.3 0.85 0
v -1.3 0.85 0
v -1.3 0 0
v -1.3 0 -0.3
v -1.3 0.85 -0.3
v -5.3 2.7 0
v -5.6 2.7 0
v -5.6 2.7 -0.3
v -5.3 2.7 -0.3
v -4.3 2.7 0
v -4.3 2.7 -0.3
v -1.3 2.7 -0.3
v -1.3 2.5 -0.3
v -0.3 2.5 -0.3
v -0.3 2.7 -0.3
v -5.960464E-08 2.5 -0.3
v -5.960464E-08 2.7 -0.3
v -5.6 0 -0.3
v -5.3 0.85 -0.3
v -5.6 0.85 -0.3
v -5.3 0 -0.3
v -4.3 0.85 -0.3
v -4.3 0 -0.3
v -5.6 2.5 -0.3
v -5.6 2.7 -0.3
v -5.6 2.7 0
v -5.6 2.5 0
v -1.3 2.5 -0.3
v -1.3 2.7 -0.3
v -1.3 2.7 0
v -1.3 2.5 0
v -0.3 0.85 -0.3
v -1.3 2.5 -0.3
v -1.3 0.85 -0.3
v -0.3 2.5 -0.3
v -5.960464E-08 2.5 -0.3
v -5.960464E-08 0.85 -0.3
v -5.960464E-08 2.5 0
v -5.960464E-08 2.7 0
v -5.960464E-08 2.7 -0.3
v -5.960464E-08 2.5 -0.3
v -5.960464E-08 0 0
v -5.960464E-08 0.85 -0.3
v -5.960464E-08 0 -0.3
v -5.960464E-08 0.85 0
v -5.960464E-08 0.85 6
v -5.960464E-08 0 6
v -5.960464E-08 0.85 6.3
v -5.960464E-08 0 6.3
v -5.960464E-08 2.5 0
v -5.960464E-08 2.5 -0.3
v -5.960464E-08 0.85 -0.3
v -5.960464E-08 0.85 0
v -5.960464E-08 2.5 6
v -5.960464E-08 0.85 6
v -5.960464E-08 2.5 6.3
v -5.960464E-08 2.5 6
v -5.960464E-08 0.85 6
v -5.960464E-08 0.85 6.3
v -5.960464E-08 0 6.3
v -0.3 0.85 6.3
v -5.960464E-08 0.85 6.3
v -0.3 0 6.3
v -5.3 0.85 6.3
v -5.3 0 6.3
v -5.6 0.85 6.3
v -5.6 0 6.3
v -0.3 2.5 6.3
v -5.960464E-08 2.5 6.3
v -5.960464E-08 0.85 6.3
v -0.3 0.85 6.3
v -5.3 2.5 6.3
v -5.3 0.85 6.3
v -5.6 2.5 6.3
v -5.6 0.85 6.3
v -5.6 0 6.3
v -5.6 0.85 6
v -5.6 0.85 6.3
v -5.6 0 6
v -5.6 0.85 0
v -5.6 0 0
v -5.6 0.85 -0.3
v -5.6 0 -0.3
v -5.6 2.5 6
v -5.6 2.5 6.3
v -5.6 0.85 6.3
v -5.6 0.85 6
v -5.6 2.5 0
v -5.6 0.85 0
v -5.6 2.5 -0.3
v -5.6 0.85 -0.3
v -5.3 0 0
v -5.3 0.85 0
v -4.3 0.85 0
v -4.3 0 0
v -0.3 0.85 0
v -0.3 0 0
v -1.3 0 0
v -1.3 0.85 0
v -5.3 0 6
v -5.3 0 0
v -0.3 0 0
v -0.3 0 6
v -4.673185 1.576653 0.01786735
v -4.644943 1.604896 0.01786735
v -4.644943 1.409982 0.01786735
v -4.926815 1.576653 0.01786735
v -4.955057 1.604896 0.01786735
v -4.926815 1.438224 0.01786735
v -4.955057 1.409982 0.01786735
v -4.673185 1.438224 0.01786735
v -4.925095 1.38002 0.01786735
v -4.925095 1.123171 0.01786735
v -4.674906 1.38002 0.01786735
v -4.955057 1.093208 0.01786735
v -4.644943 1.093208 0.01786735
v -4.674906 1.123171 0.01786735
vt 0.59375 0.9140625
vt 0.59375 0.9140625
vt 0.59375 0.9140625
vt 0.59375 0.9140625
vt 0.0859375 0.9609375
vt 0.0859375 0.9609375
vt 0.0859375 0.9609375
vt 0.0859375 0.9609375
vt 0.59375 0.9140625
vt 0.59375 0.9140625
vt 0.59375 0.9140625
vt 0.59375 0.9140625
vt 0.59375 0.9140625
vt 0.59375 0.9140625
vt 0.59375 0.9140625
vt 0.59375 0.9140625
vt 0.0390625 0.921875
vt 0.0390625 0.921875
vt 0.0390625 0.921875
vt 0.0390625 0.921875
vt 0.0390625 0.921875
vt 0.0390625 0.921875
vt 0.59375 0.9140625
vt 0.59375 0.9140625
vt 0.59375 0.9140625
vt 0.59375 0.9140625
vt 0.59375 0.9140625
vt 0.59375 0.9140625
vt 0.59375 0.9140625
vt 0.59375 0.9140625
vt 0.59375 0.9140625
vt 0.59375 0.9140625
vt 0.59375 0.9140625
vt 0.59375 0.9140625
vt 0.6953125 0.9375
vt 0.6953125 0.9375
vt 0.6953125 0.9375
vt 0.6953125 0.9375
vt 0.6953125 0.9375
vt 0.6953125 0.9375
vt 0.6953125 0.9375
vt 0.6953125 0.9375
vt 0.6796875 0.921875
vt 0.6796875 0.921875
vt 0.6796875 0.921875
vt 0.6796875 0.921875
vt 0.6796875 0.921875
vt 0.6796875 0.921875
vt 0.0390625 0.921875
vt 0.0390625 0.921875
vt 0.0390625 0.921875
vt 0.0390625 0.921875
vt 0.0390625 0.921875
vt 0.0390625 0.921875
vt 0.578125 0.921875
vt 0.578125 0.921875
vt 0.578125 0.921875
vt 0.578125 0.921875
vt 0.59375 0.9140625
vt 0.59375 0.9140625
vt 0.59375 0.9140625
vt 0.59375 0.9140625
vt 0.5625 0.9296875
vt 0.5625 0.9296875
vt 0.5625 0.9296875
vt 0.5625 0.9296875
vt 0.5625 0.9296875
vt 0.5625 0.9296875
vt 0.0859375 0.9609375
vt 0.0859375 0.9609375
vt 0.0859375 0.9609375
vt 0.0859375 0.9609375
vt 0.0859375 0.9609375
vt 0.0859375 0.9609375
vt 0.5625 0.9375
vt 0.5625 0.9375
vt 0.5625 0.9375
vt 0.5625 0.9375
vt 0.5625 0.9375
vt 0.5625 0.9375
vt 0.5625 0.9375
vt 0.5625 0.9375
vt 0.6953125 0.9375
vt 0.6953125 0.9375
vt 0.6953125 0.9375
vt 0.6953125 0.9375
vt 0.0625 0.6796875
vt 0.0625 0.6796875
vt 0.0625 0.6796875
vt 0.0625 0.6796875
vt 0.0625 0.6796875
vt 0.0625 0.6796875
vt 0.1953125 0.671875
vt 0.1953125 0.671875
vt 0.1953125 0.671875
vt 0.1953125 0.671875
vt 0.0625 0.6796875
vt 0.0625 0.6796875
vt 0.0625 0.6796875
vt 0.0625 0.6796875
vt 0.0625 0.6796875
vt 0.0625 0.6796875
vt 0.0625 0.6796875
vt 0.0625 0.6796875
vt 0.0625 0.6796875
vt 0.0625 0.6796875
vt 0.0625 0.6796875
vt 0.0625 0.6796875
vt 0.0625 0.6796875
vt 0.0625 0.6796875
vt 0.1953125 0.671875
vt 0.1953125 0.671875
vt 0.1953125 0.671875
vt 0.1953125 0.671875
vt 0.0703125 0.9140625
vt 0.0703125 0.9140625
vt 0.0703125 0.9140625
vt 0.0703125 0.9140625
vt 0.0703125 0.9140625
vt 0.0703125 0.9140625
vt 0.6875 0.9375
vt 0.6875 0.9375
vt 0.6875 0.9375
vt 0.6875 0.9375
vt 0.671875 0.9375
vt 0.671875 0.9375
vt 0.671875 0.9375
vt 0.671875 0.9375
vt 0.0859375 0.9609375
vt 0.0859375 0.9609375
vt 0.0859375 0.9609375
vt 0.0859375 0.9609375
vt 0.0859375 0.9609375
vt 0.0859375 0.9609375
vt 0.0703125 0.9140625
vt 0.0703125 0.9140625
vt 0.0703125 0.9140625
vt 0.0703125 0.9140625
vt 0.0703125 0.9140625
vt 0.0703125 0.9140625
vt 0.6796875 0.921875
vt 0.6796875 0.921875
vt 0.6796875 0.921875
vt 0.6796875 0.921875
vt 0.6796875 0.921875
vt 0.6796875 0.921875
vt 0.0859375 0.9609375
vt 0.0859375 0.9609375
vt 0.0859375 0.9609375
vt 0.0859375 0.9609375
vt 0.0703125 0.9140625
vt 0.0703125 0.9140625
vt 0.0703125 0.9140625
vt 0.0703125 0.9140625
vt 0.5625 0.9296875
vt 0.5625 0.9296875
vt 0.5625 0.9296875
vt 0.5625 0.9296875
vt 0.5625 0.9296875
vt 0.5625 0.9296875
vt 0.0703125 0.9140625
vt 0.0703125 0.9140625
vt 0.0703125 0.9140625
vt 0.0703125 0.9140625
vt 0.6796875 0.921875
vt 0.6796875 0.921875
vt 0.6796875 0.921875
vt 0.6796875 0.921875
vt 0.6796875 0.921875
vt 0.6796875 0.921875
vt 0.6796875 0.921875
vt 0.6796875 0.921875
vt 0.5625 0.9296875
vt 0.5625 0.9296875
vt 0.5625 0.9296875
vt 0.5625 0.9296875
vt 0.5625 0.9296875
vt 0.5625 0.9296875
vt 0.5703125 0.9375
vt 0.5703125 0.9375
vt 0.5703125 0.9375
vt 0.5703125 0.9375
vt 0.6796875 0.921875
vt 0.6796875 0.921875
vt 0.6796875 0.921875
vt 0.6796875 0.921875
vt 0.6796875 0.921875
vt 0.6796875 0.921875
vt 0.6796875 0.921875
vt 0.6796875 0.921875
vt 0.5625 0.9296875
vt 0.5625 0.9296875
vt 0.5625 0.9296875
vt 0.5625 0.9296875
vt 0.5625 0.9296875
vt 0.5625 0.9296875
vt 0.5625 0.9296875
vt 0.5625 0.9296875
vt 0.6796875 0.921875
vt 0.6796875 0.921875
vt 0.6796875 0.921875
vt 0.6796875 0.921875
vt 0.6796875 0.921875
vt 0.6796875 0.921875
vt 0.6796875 0.921875
vt 0.6796875 0.921875
vt 0.5625 0.9296875
vt 0.5625 0.9296875
vt 0.5625 0.9296875
vt 0.5625 0.9296875
vt 0.5625 0.9296875
vt 0.5625 0.9296875
vt 0.5625 0.9296875
vt 0.5625 0.9296875
vt 0.6875 0.9375
vt 0.6875 0.9375
vt 0.6875 0.9375
vt 0.6875 0.9375
vt 0.671875 0.9375
vt 0.671875 0.9375
vt 0.671875 0.9375
vt 0.671875 0.9375
vt 0.703125 0.6796875
vt 0.703125 0.6796875
vt 0.703125 0.6796875
vt 0.703125 0.6796875
vt 0.0625 0.6796875
vt 0.0625 0.6796875
vt 0.0625 0.6796875
vt 0.0625 0.6796875
vt 0.0625 0.6796875
vt 0.0625 0.6796875
vt 0.0625 0.6796875
vt 0.0625 0.6796875
vt 0.0625 0.6796875
vt 0.0625 0.6796875
vt 0.0625 0.6796875
vt 0.0625 0.6796875
vt 0.0625 0.6796875
vt 0.0625 0.6796875
vn 0 0 1
vn 0 0 1
vn 0 0 1
vn 0 0 1
vn 1 0 0
vn 1 0 0
vn 1 0 0
vn 1 0 0
vn 1 0 0
vn 1 0 0
vn 1 0 0
vn 1 0 0
vn 0 0 1
vn 0 0 1
vn 0 0 1
vn 0 0 1
vn 0 0 1
vn 0 0 1
vn 0 0 1
vn 0 0 1
vn 0 0 1
vn 0 0 1
vn 0 1 0
vn 0 1 0
vn 0 1 0
vn 0 1 0
vn 0 1 0
vn 0 1 0
vn 0 1 0
vn 0 1 0
vn 0 1 0
vn 0 1 0
vn 0 1 0
vn 0 1 0
vn -1 0 0
vn -1 0 0
vn -1 0 0
vn -1 0 0
vn 0 0 -1
vn 0 0 -1
vn 0 0 -1
vn 0 0 -1
vn 0 0 -1
vn 0 0 -1
vn 0 0 -1
vn 0 0 -1
vn 0 0 -1
vn 0 0 -1
vn 0 0 1
vn 0 0 1
vn 0 0 1
vn 0 0 1
vn 0 0 1
vn 0 0 1
vn 1 0 0
vn 1 0 0
vn 1 0 0
vn 1 0 0
vn -1 0 0
vn -1 0 0
vn -1 0 0
vn -1 0 0
vn 0 0 -1
vn 0 0 -1
vn 0 0 -1
vn 0 0 -1
vn 0 0 -1
vn 0 0 -1
vn 0 0 -1
vn 0 0 -1
vn 0 0 -1
vn 0 0 -1
vn 0 0 -1
vn 0 0 -1
vn 0 0 -1
vn 0 0 -1
vn 0 0 -1
vn 0 0 -1
vn -1 0 0
vn -1 0 0
vn -1 0 0
vn -1 0 0
vn 1 0 0
vn 1 0 0
vn 1 0 0
vn 1 0 0
vn 1 0 0
vn 1 0 0
vn 1 0 0
vn 1 0 0
vn 1 0 0
vn 1 0 0
vn 0 0 1
vn 0 0 1
vn 0 0 1
vn 0 0 1
vn -1 0 0
vn -1 0 0
vn -1 0 0
vn -1 0 0
vn -1 0 0
vn -1 0 0
vn 0 -1 0
vn 0 -1 0
vn 0 -1 0
vn 0 -1 0
vn 0 1 0
vn 0 1 0
vn 0 1 0
vn 0 1 0
vn 0 0 1
vn 0 0 1
vn 0 0 1
vn 0 0 1
vn 0 1 0
vn 0 1 0
vn 0 1 0
vn 0 1 0
vn 0 1 0
vn 0 1 0
vn 1 0 0
vn 1 0 0
vn 1 0 0
vn 1 0 0
vn -1 0 0
vn -1 0 0
vn -1 0 0
vn -1 0 0
vn 0 1 0
vn 0 1 0
vn 0 1 0
vn 0 1 0
vn 0 1 0
vn 0 1 0
vn 0 0 -1
vn 0 0 -1
vn 0 0 -1
vn 0 0 -1
vn 0 0 -1
vn 0 0 -1
vn 0 0 -1
vn 0 0 -1
vn 0 0 -1
vn 0 0 -1
vn 0 0 -1
vn 0 0 -1
vn -1 0 0
vn -1 0 0
vn -1 0 0
vn -1 0 0
vn -1 0 0
vn -1 0 0
vn -1 0 0
vn -1 0 0
vn 0 0 -1
vn 0 0 -1
vn 0 0 -1
vn 0 0 -1
vn 0 0 -1
vn 0 0 -1
vn 1 0 0
vn 1 0 0
vn 1 0 0
vn 1 0 0
vn 1 0 0
vn 1 0 0
vn 1 0 0
vn 1 0 0
vn 1 0 0
vn 1 0 0
vn 1 0 0
vn 1 0 0
vn 1 0 0
vn 1 0 0
vn 1 0 0
vn 1 0 0
vn 1 0 0
vn 1 0 0
vn 1 0 0
vn 1 0 0
vn 1 0 0
vn 1 0 0
vn 0 0 1
vn 0 0 1
vn 0 0 1
vn 0 0 1
vn 0 0 1
vn 0 0 1
vn 0 0 1
vn 0 0 1
vn 0 0 1
vn 0 0 1
vn 0 0 1
vn 0 0 1
vn 0 0 1
vn 0 0 1
vn 0 0 1
vn 0 0 1
vn -1 0 0
vn -1 0 0
vn -1 0 0
vn -1 0 0
vn -1 0 0
vn -1 0 0
vn -1 0 0
vn -1 0 0
vn -1 0 0
vn -1 0 0
vn -1 0 0
vn -1 0 0
vn -1 0 0
vn -1 0 0
vn -1 0 0
vn -1 0 0
vn 0 0 1
vn 0 0 1
vn 0 0 1
vn 0 0 1
vn 0 0 1
vn 0 0 1
vn 0 0 1
vn 0 0 1
vn 0 1 0
vn 0 1 0
vn 0 1 0
vn 0 1 0
vn 0 0 1
vn 0 0 1
vn 0 0 1
vn 0 0 1
vn 0 0 1
vn 0 0 1
vn 0 0 1
vn 0 0 1
vn 0 0 1
vn 0 0 1
vn 0 0 1
vn 0 0 1
vn 0 0 1
vn 0 0 1
g IL_SimpleLift 2_0
f 3/3/3 2/2/2 1/1/1
f 4/4/4 3/3/3 1/1/1
f 7/7/7 6/6/6 5/5/5
f 8/8/8 7/7/7 5/5/5
f 11/11/11 10/10/10 9/9/9
f 12/12/12 11/11/11 9/9/9
f 15/15/15 14/14/14 13/13/13
f 16/16/16 15/15/15 13/13/13
f 19/19/19 18/18/18 17/17/17
f 18/18/18 20/20/20 17/17/17
f 17/17/17 20/20/20 21/21/21
f 20/20/20 22/22/22 21/21/21
f 25/25/25 24/24/24 23/23/23
f 24/24/24 26/26/26 23/23/23
f 24/24/24 27/27/27 26/26/26
f 27/27/27 28/28/28 26/26/26
f 24/24/24 29/29/29 27/27/27
f 29/29/29 30/30/30 27/27/27
f 31/31/31 30/30/30 29/29/29
f 32/32/32 31/31/31 29/29/29
f 32/32/32 29/29/29 33/33/33
f 34/34/34 32/32/32 33/33/33
f 37/37/37 36/36/36 35/35/35
f 38/38/38 37/37/37 35/35/35
f 41/41/41 40/40/40 39/39/39
f 42/42/42 41/41/41 39/39/39
f 45/45/45 44/44/44 43/43/43
f 44/44/44 46/46/46 43/43/43
f 43/43/43 46/46/46 47/47/47
f 46/46/46 48/48/48 47/47/47
f 51/51/51 50/50/50 49/49/49
f 52/52/52 51/51/51 49/49/49
f 53/53/53 51/51/51 52/52/52
f 54/54/54 53/53/53 52/52/52
f 57/57/57 56/56/56 55/55/55
f 58/58/58 57/57/57 55/55/55
f 61/61/61 60/60/60 59/59/59
f 62/62/62 61/61/61 59/59/59
f 65/65/65 64/64/64 63/63/63
f 66/66/66 65/65/65 63/63/63
f 65/65/65 66/66/66 67/67/67
f 66/66/66 68/68/68 67/67/67
f 71/71/71 70/70/70 69/69/69
f 70/70/70 72/72/72 69/69/69
f 69/69/69 72/72/72 73/73/73
f 74/74/74 69/69/69 73/73/73
f 77/77/77 76/76/76 75/75/75
f 78/78/78 77/77/77 75/75/75
f 81/81/81 80/80/80 79/79/79
f 82/82/82 81/81/81 79/79/79
f 85/85/85 84/84/84 83/83/83
f 86/86/86 85/85/85 83/83/83
f 89/89/89 88/88/88 87/87/87
f 90/90/90 89/89/89 87/87/87
f 91/91/91 89/89/89 90/90/90
f 92/92/92 91/91/91 90/90/90
f 95/95/95 94/94/94 93/93/93
f 96/96/96 95/95/95 93/93/93
f 99/99/99 98/98/98 97/97/97
f 98/98/98 100/100/100 97/97/97
f 97/97/97 100/100/100 101/101/101
f 100/100/100 102/102/102 101/101/101
f 105/105/105 104/104/104 103/103/103
f 106/106/106 105/105/105 103/103/103
f 109/109/109 108/108/108 107/107/107
f 110/110/110 109/109/109 107/107/107
f 113/113/113 112/112/112 111/111/111
f 114/114/114 113/113/113 111/111/111
f 117/117/117 116/116/116 115/115/115
f 116/116/116 118/118/118 115/115/115
f 115/115/115 118/118/118 119/119/119
f 118/118/118 120/120/120 119/119/119
f 123/123/123 122/122/122 121/121/121
f 124/124/124 123/123/123 121/121/121
f 127/127/127 126/126/126 125/125/125
f 128/128/128 127/127/127 125/125/125
f 131/131/131 130/130/130 129/129/129
f 132/132/132 131/131/131 129/129/129
f 132/132/132 129/129/129 133/133/133
f 134/134/134 132/132/132 133/133/133
f 137/137/137 136/136/136 135/135/135
f 138/138/138 137/137/137 135/135/135
f 137/137/137 138/138/138 139/139/139
f 138/138/138 140/140/140 139/139/139
f 143/143/143 142/142/142 141/141/141
f 142/142/142 144/144/144 141/141/141
f 142/142/142 145/145/145 144/144/144
f 145/145/145 146/146/146 144/144/144
f 149/149/149 148/148/148 147/147/147
f 150/150/150 149/149/149 147/147/147
f 153/153/153 152/152/152 151/151/151
f 154/154/154 153/153/153 151/151/151
f 157/157/157 156/156/156 155/155/155
f 156/156/156 158/158/158 155/155/155
f 158/158/158 159/159/159 155/155/155
f 159/159/159 160/160/160 155/155/155
f 163/163/163 162/162/162 161/161/161
f 164/164/164 163/163/163 161/161/161
f 167/167/167 166/166/166 165/165/165
f 166/166/166 168/168/168 165/165/165
f 168/168/168 169/169/169 165/165/165
f 169/169/169 170/170/170 165/165/165
f 169/169/169 171/171/171 170/170/170
f 171/171/171 172/172/172 170/170/170
f 175/175/175 174/174/174 173/173/173
f 176/176/176 175/175/175 173/173/173
f 176/176/176 173/173/173 177/177/177
f 178/178/178 176/176/176 177/177/177
f 181/181/181 180/180/180 179/179/179
f 182/182/182 181/181/181 179/179/179
f 185/185/185 184/184/184 183/183/183
f 184/184/184 186/186/186 183/183/183
f 184/184/184 187/187/187 186/186/186
f 187/187/187 188/188/188 186/186/186
f 187/187/187 189/189/189 188/188/188
f 189/189/189 190/190/190 188/188/188
f 193/193/193 192/192/192 191/191/191
f 194/194/194 193/193/193 191/191/191
f 194/194/194 191/191/191 195/195/195
f 196/196/196 194/194/194 195/195/195
f 196/196/196 195/195/195 197/197/197
f 198/198/198 196/196/196 197/197/197
f 201/201/201 200/200/200 199/199/199
f 200/200/200 202/202/202 199/199/199
f 200/200/200 203/203/203 202/202/202
f 203/203/203 204/204/204 202/202/202
f 204/204/204 203/203/203 205/205/205
f 206/206/206 204/204/204 205/205/205
f 209/209/209 208/208/208 207/207/207
f 210/210/210 209/209/209 207/207/207
f 210/210/210 207/207/207 211/211/211
f 212/212/212 210/210/210 211/211/211
f 212/212/212 211/211/211 213/213/213
f 214/214/214 212/212/212 213/213/213
f 217/217/217 216/216/216 215/215/215
f 218/218/218 217/217/217 215/215/215
f 221/221/221 220/220/220 219/219/219
f 222/222/222 221/221/221 219/219/219
f 225/225/225 224/224/224 223/223/223
f 226/226/226 225/225/225 223/223/223
f 229/229/229 228/228/228 227/227/227
f 227/227/227 228/228/228 230/230/230
f 228/228/228 231/231/231 230/230/230
f 230/230/230 231/231/231 232/232/232
f 231/231/231 233/233/233 232/232/232
f 234/234/234 229/229/229 227/227/227
f 232/232/232 233/233/233 234/234/234
f 233/233/233 229/229/229 234/234/234
f 229/229/229 233/233/233 235/235/235
f 235/235/235 233/233/233 236/236/236
f 237/237/237 229/229/229 235/235/235
f 233/233/233 238/238/238 236/236/236
f 239/239/239 229/229/229 237/237/237
f 236/236/236 238/238/238 240/240/240
f 240/240/240 239/239/239 237/237/237
f 238/238/238 239/239/239 240/240/240
