g IL_SqG_Prop1_sh_10
v 0.06318422 -1.501018 -0.1525401
v 1.034234E-08 -1.501018 -0.1651082
v -0.06318419 -1.501018 -0.1525401
v 1.034234E-08 1.501018 -0.1651082
v -0.06318419 1.501018 -0.1525401
v 0.1167492 -1.501018 -0.1167492
v 0.06318422 1.501018 -0.1525401
v -0.1167491 1.501018 -0.1167492
v -0.1167491 -1.501018 -0.1167492
v 0.1167492 1.501018 -0.1167492
v 0.1525401 -1.501018 -0.06318423
v -0.1525401 1.501018 -0.0631842
v -0.1525401 -1.501018 -0.0631842
v 0.1525401 1.501018 -0.06318423
v 0.1651082 -1.501018 -7.705902E-09
v 0.1651082 1.501018 -7.705902E-09
v -0.1651082 1.501018 1.480105E-09
v -0.1651082 -1.501018 1.480105E-09
v 0.1525401 -1.501018 0.0631842
v 0.1525401 1.501018 0.0631842
v -0.1525401 1.501018 0.06318417
v -0.1525401 -1.501018 0.06318417
v -0.1167491 -1.501018 0.1167491
v 0.1167492 -1.501018 0.1167492
v -0.1167491 1.501018 0.1167491
v 0.1167492 1.501018 0.1167492
v -0.06318419 1.501018 0.1525401
v -0.06318419 -1.501018 0.1525401
v 0.06318422 -1.501018 0.1525401
v 0.06318422 1.501018 0.1525401
v 2.477656E-08 1.501018 0.1651082
v 2.477656E-08 -1.501018 0.1651082
v 0.06318422 -1.501018 -0.1525401
v 0.06318422 -1.501018 -0.1525401
v 0.06318422 -1.501018 -0.1525401
v 0.06318422 -1.501018 -0.1525401
v 1.034234E-08 -1.501018 -0.1651082
v 1.034234E-08 -1.501018 -0.1651082
v 1.034234E-08 -1.501018 -0.1651082
v -0.06318419 -1.501018 -0.1525401
v -0.06318419 -1.501018 -0.1525401
v -0.06318419 -1.501018 -0.1525401
v -0.06318419 -1.501018 -0.1525401
v -0.06318419 -1.501018 -0.1525401
v 1.034234E-08 1.501018 -0.1651082
v 1.034234E-08 1.501018 -0.1651082
v 1.034234E-08 1.501018 -0.1651082
v -0.06318419 1.501018 -0.1525401
v -0.06318419 1.501018 -0.1525401
v -0.06318419 1.501018 -0.1525401
v -0.06318419 1.501018 -0.1525401
v -0.06318419 1.501018 -0.1525401
v 0.1167492 -1.501018 -0.1167492
v 0.1167492 -1.501018 -0.1167492
v 0.1167492 -1.501018 -0.1167492
v 0.1167492 -1.501018 -0.1167492
v 0.1167492 -1.501018 -0.1167492
v 0.06318422 1.501018 -0.1525401
v 0.06318422 1.501018 -0.1525401
v 0.06318422 1.501018 -0.1525401
v 0.06318422 1.501018 -0.1525401
v -0.1167491 1.501018 -0.1167492
v -0.1167491 1.501018 -0.1167492
v -0.1167491 1.501018 -0.1167492
v -0.1167491 1.501018 -0.1167492
v -0.1167491 -1.501018 -0.1167492
v -0.1167491 -1.501018 -0.1167492
v -0.1167491 -1.501018 -0.1167492
v -0.1167491 -1.501018 -0.1167492
v -0.1167491 -1.501018 -0.1167492
v 0.1167492 1.501018 -0.1167492
v 0.1167492 1.501018 -0.1167492
v 0.1167492 1.501018 -0.1167492
v 0.1167492 1.501018 -0.1167492
v 0.1167492 1.501018 -0.1167492
v 0.1167492 1.501018 -0.1167492
v 0.1525401 -1.501018 -0.06318423
v 0.1525401 -1.501018 -0.06318423
v 0.1525401 -1.501018 -0.06318423
v 0.1525401 -1.501018 -0.06318423
v 0.1525401 -1.501018 -0.06318423
v -0.1525401 1.501018 -0.0631842
v -0.1525401 1.501018 -0.0631842
v -0.1525401 1.501018 -0.0631842
v -0.1525401 1.501018 -0.0631842
v -0.1525401 1.501018 -0.0631842
v -0.1525401 1.501018 -0.0631842
v -0.1525401 -1.501018 -0.0631842
v -0.1525401 -1.501018 -0.0631842
v -0.1525401 -1.501018 -0.0631842
v -0.1525401 -1.501018 -0.0631842
v -0.1525401 -1.501018 -0.0631842
v 0.1525401 1.501018 -0.06318423
v 0.1525401 1.501018 -0.06318423
v 0.1525401 1.501018 -0.06318423
v 0.1525401 1.501018 -0.06318423
v 0.1651082 -1.501018 -7.705902E-09
v 0.1651082 -1.501018 -7.705902E-09
v 0.1651082 -1.501018 -7.705902E-09
v 0.1651082 -1.501018 -7.705902E-09
v 0.1651082 -1.501018 -7.705902E-09
v 0.1651082 1.501018 -7.705902E-09
v 0.1651082 1.501018 -7.705902E-09
v 0.1651082 1.501018 -7.705902E-09
v 0.1651082 1.501018 -7.705902E-09
v 0.1651082 1.501018 -7.705902E-09
v -0.1651082 1.501018 1.480105E-09
v -0.1651082 1.501018 1.480105E-09
v -0.1651082 1.501018 1.480105E-09
v -0.1651082 1.501018 1.480105E-09
v -0.1651082 1.501018 1.480105E-09
v -0.1651082 -1.501018 1.480105E-09
v -0.1651082 -1.501018 1.480105E-09
v -0.1651082 -1.501018 1.480105E-09
v -0.1651082 -1.501018 1.480105E-09
v -0.1651082 -1.501018 1.480105E-09
v 0.1525401 -1.501018 0.0631842
v 0.1525401 -1.501018 0.0631842
v 0.1525401 -1.501018 0.0631842
v 0.1525401 -1.501018 0.0631842
v 0.1525401 -1.501018 0.0631842
v 0.1525401 -1.501018 0.0631842
v 0.1525401 1.501018 0.0631842
v 0.1525401 1.501018 0.0631842
v 0.1525401 1.501018 0.0631842
v 0.1525401 1.501018 0.0631842
v 0.1525401 1.501018 0.0631842
v 0.1525401 1.501018 0.0631842
v -0.1525401 1.501018 0.06318417
v -0.1525401 1.501018 0.06318417
v -0.1525401 1.501018 0.06318417
v -0.1525401 1.501018 0.06318417
v -0.1525401 -1.501018 0.06318417
v -0.1525401 -1.501018 0.06318417
v -0.1525401 -1.501018 0.06318417
v -0.1525401 -1.501018 0.06318417
v -0.1167491 -1.501018 0.1167491
v -0.1167491 -1.501018 0.1167491
v -0.1167491 -1.501018 0.1167491
v -0.1167491 -1.501018 0.1167491
v -0.1167491 -1.501018 0.1167491
v 0.1167492 -1.501018 0.1167492
v 0.1167492 -1.501018 0.1167492
v 0.1167492 -1.501018 0.1167492
v 0.1167492 -1.501018 0.1167492
v 0.1167492 -1.501018 0.1167492
v -0.1167491 1.501018 0.1167491
v -0.1167491 1.501018 0.1167491
v -0.1167491 1.501018 0.1167491
v -0.1167491 1.501018 0.1167491
v -0.1167491 1.501018 0.1167491
v 0.1167492 1.501018 0.1167492
v 0.1167492 1.501018 0.1167492
v 0.1167492 1.501018 0.1167492
v 0.1167492 1.501018 0.1167492
v 0.1167492 1.501018 0.1167492
v -0.06318419 1.501018 0.1525401
v -0.06318419 1.501018 0.1525401
v -0.06318419 1.501018 0.1525401
v -0.06318419 1.501018 0.1525401
v -0.06318419 1.501018 0.1525401
v -0.06318419 -1.501018 0.1525401
v -0.06318419 -1.501018 0.1525401
v -0.06318419 -1.501018 0.1525401
v -0.06318419 -1.501018 0.1525401
v -0.06318419 -1.501018 0.1525401
v 0.06318422 -1.501018 0.1525401
v 0.06318422 -1.501018 0.1525401
v 0.06318422 -1.501018 0.1525401
v 0.06318422 -1.501018 0.1525401
v 0.06318422 1.501018 0.1525401
v 0.06318422 1.501018 0.1525401
v 0.06318422 1.501018 0.1525401
v 0.06318422 1.501018 0.1525401
v 2.477656E-08 1.501018 0.1651082
v 2.477656E-08 1.501018 0.1651082
v 2.477656E-08 1.501018 0.1651082
v 2.477656E-08 -1.501018 0.1651082
v 2.477656E-08 -1.501018 0.1651082
v 2.477656E-08 -1.501018 0.1651082
vt 0.544894 0.9812741
vt 0.544894 0.9812741
vt 0.544894 0.9812741
vt 0.544894 0.9812741
vt 0.544894 0.9812741
vt 0.544894 0.9812741
vt 0.544894 0.9812741
vt 0.544894 0.9812741
vt 0.544894 0.9812741
vt 0.544894 0.9812741
vt 0.544894 0.9812741
vt 0.544894 0.9812741
vt 0.544894 0.9812741
vt 0.544894 0.9812741
vt 0.544894 0.9812741
vt 0.544894 0.9812741
vt 0.544894 0.9812741
vt 0.544894 0.9812741
vt 0.544894 0.9812741
vt 0.544894 0.9812741
vt 0.544894 0.9812741
vt 0.544894 0.9812741
vt 0.544894 0.9812741
vt 0.544894 0.9812741
vt 0.544894 0.9812741
vt 0.544894 0.9812741
vt 0.544894 0.9812741
vt 0.544894 0.9812741
vt 0.544894 0.9812741
vt 0.544894 0.9812741
vt 0.544894 0.9812741
vt 0.544894 0.9812741
vt 0.544894 0.9812741
vt 0.544894 0.9812741
vt 0.544894 0.9812741
vt 0.544894 0.9812741
vt 0.544894 0.9812741
vt 0.544894 0.9812741
vt 0.544894 0.9812741
vt 0.544894 0.9812741
vt 0.544894 0.9812741
vt 0.544894 0.9812741
vt 0.544894 0.9812741
vt 0.544894 0.9812741
vt 0.544894 0.9812741
vt 0.544894 0.9812741
vt 0.544894 0.9812741
vt 0.544894 0.9812741
vt 0.544894 0.9812741
vt 0.544894 0.9812741
vt 0.544894 0.9812741
vt 0.544894 0.9812741
vt 0.544894 0.9812741
vt 0.544894 0.9812741
vt 0.544894 0.9812741
vt 0.544894 0.9812741
vt 0.544894 0.9812741
vt 0.544894 0.9812741
vt 0.544894 0.9812741
vt 0.544894 0.9812741
vt 0.544894 0.9812741
vt 0.544894 0.9812741
vt 0.544894 0.9812741
vt 0.544894 0.9812741
vt 0.544894 0.9812741
vt 0.544894 0.9812741
vt 0.544894 0.9812741
vt 0.544894 0.9812741
vt 0.544894 0.9812741
vt 0.544894 0.9812741
vt 0.544894 0.9812741
vt 0.544894 0.9812741
vt 0.544894 0.9812741
vt 0.544894 0.9812741
vt 0.544894 0.9812741
vt 0.544894 0.9812741
vt 0.544894 0.9812741
vt 0.544894 0.9812741
vt 0.544894 0.9812741
vt 0.544894 0.9812741
vt 0.544894 0.9812741
vt 0.544894 0.9812741
vt 0.544894 0.9812741
vt 0.544894 0.9812741
vt 0.544894 0.9812741
vt 0.544894 0.9812741
vt 0.544894 0.9812741
vt 0.544894 0.9812741
vt 0.544894 0.9812741
vt 0.544894 0.9812741
vt 0.544894 0.9812741
vt 0.544894 0.9812741
vt 0.544894 0.9812741
vt 0.544894 0.9812741
vt 0.544894 0.9812741
vt 0.544894 0.9812741
vt 0.544894 0.9812741
vt 0.544894 0.9812741
vt 0.544894 0.9812741
vt 0.544894 0.9812741
vt 0.544894 0.9812741
vt 0.544894 0.9812741
vt 0.544894 0.9812741
vt 0.544894 0.9812741
vt 0.544894 0.9812741
vt 0.544894 0.9812741
vt 0.544894 0.9812741
vt 0.544894 0.9812741
vt 0.544894 0.9812741
vt 0.544894 0.9812741
vt 0.544894 0.9812741
vt 0.544894 0.9812741
vt 0.544894 0.9812741
vt 0.544894 0.9812741
vt 0.544894 0.9812741
vt 0.544894 0.9812741
vt 0.544894 0.9812741
vt 0.544894 0.9812741
vt 0.544894 0.9812741
vt 0.544894 0.9812741
vt 0.544894 0.9812741
vt 0.544894 0.9812741
vt 0.544894 0.9812741
vt 0.544894 0.9812741
vt 0.544894 0.9812741
vt 0.544894 0.9812741
vt 0.544894 0.9812741
vt 0.544894 0.9812741
vt 0.544894 0.9812741
vt 0.544894 0.9812741
vt 0.544894 0.9812741
vt 0.544894 0.9812741
vt 0.544894 0.9812741
vt 0.544894 0.9812741
vt 0.544894 0.9812741
vt 0.544894 0.9812741
vt 0.544894 0.9812741
vt 0.544894 0.9812741
vt 0.544894 0.9812741
vt 0.544894 0.9812741
vt 0.544894 0.9812741
vt 0.544894 0.9812741
vt 0.544894 0.9812741
vt 0.544894 0.9812741
vt 0.544894 0.9812741
vt 0.544894 0.9812741
vt 0.544894 0.9812741
vt 0.544894 0.9812741
vt 0.544894 0.9812741
vt 0.544894 0.9812741
vt 0.544894 0.9812741
vt 0.544894 0.9812741
vt 0.544894 0.9812741
vt 0.544894 0.9812741
vt 0.544894 0.9812741
vt 0.544894 0.9812741
vt 0.544894 0.9812741
vt 0.544894 0.9812741
vt 0.544894 0.9812741
vt 0.544894 0.9812741
vt 0.544894 0.9812741
vt 0.544894 0.9812741
vt 0.544894 0.9812741
vt 0.544894 0.9812741
vt 0.544894 0.9812741
vt 0.544894 0.9812741
vt 0.544894 0.9812741
vt 0.544894 0.9812741
vt 0.544894 0.9812741
vt 0.544894 0.9812741
vt 0.544894 0.9812741
vt 0.544894 0.9812741
vt 0.544894 0.9812741
vt 0.544894 0.9812741
vt 0.544894 0.9812741
vt 0.544894 0.9812741
vt 0.544894 0.9812741
vt 0.544894 0.9812741
vt 0.544894 0.9812741
vt 0.544894 0.9812741
vn 0.2855407 -0.6657225 -0.6894057
vn 0 -0.665721 -0.7462008
vn -0.2855407 -0.6657225 -0.6894057
vn 0 0.665721 -0.7462008
vn -0.2855407 0.6657225 -0.6894057
vn 0.5276469 -0.6657159 -0.5276469
vn 0.2855407 0.6657225 -0.6894057
vn -0.5276469 0.6657159 -0.5276469
vn -0.5276469 -0.6657159 -0.5276469
vn 0.5276469 0.6657159 -0.5276469
vn 0.6894057 -0.6657225 -0.2855407
vn -0.6894057 0.6657225 -0.2855407
vn -0.6894057 -0.6657225 -0.2855407
vn 0.6894057 0.6657225 -0.2855407
vn 0.7462008 -0.665721 0
vn 0.7462008 0.665721 0
vn -0.7462008 0.665721 0
vn -0.7462008 -0.665721 0
vn 0.6894057 -0.6657225 0.2855407
vn 0.6894057 0.6657225 0.2855407
vn -0.6894057 0.6657225 0.2855407
vn -0.6894057 -0.6657225 0.2855407
vn -0.5276469 -0.6657159 0.5276469
vn 0.5276469 -0.6657159 0.5276469
vn -0.5276469 0.6657159 0.5276469
vn 0.5276469 0.6657159 0.5276469
vn -0.2855407 0.6657225 0.6894057
vn -0.2855407 -0.6657225 0.6894057
vn 0.2855407 -0.6657225 0.6894057
vn 0.2855407 0.6657225 0.6894057
vn 0 0.665721 0.7462008
vn 0 -0.665721 0.7462008
vn 0.2855407 -0.6657225 -0.6894057
vn 0.2855407 -0.6657225 -0.6894057
vn 0.2855407 -0.6657225 -0.6894057
vn 0.2855407 -0.6657225 -0.6894057
vn 0 -0.665721 -0.7462008
vn 0 -0.665721 -0.7462008
vn 0 -0.665721 -0.7462008
vn -0.2855407 -0.6657225 -0.6894057
vn -0.2855407 -0.6657225 -0.6894057
vn -0.2855407 -0.6657225 -0.6894057
vn -0.2855407 -0.6657225 -0.6894057
vn -0.2855407 -0.6657225 -0.6894057
vn 0 0.665721 -0.7462008
vn 0 0.665721 -0.7462008
vn 0 0.665721 -0.7462008
vn -0.2855407 0.6657225 -0.6894057
vn -0.2855407 0.6657225 -0.6894057
vn -0.2855407 0.6657225 -0.6894057
vn -0.2855407 0.6657225 -0.6894057
vn -0.2855407 0.6657225 -0.6894057
vn 0.5276469 -0.6657159 -0.5276469
vn 0.5276469 -0.6657159 -0.5276469
vn 0.5276469 -0.6657159 -0.5276469
vn 0.5276469 -0.6657159 -0.5276469
vn 0.5276469 -0.6657159 -0.5276469
vn 0.2855407 0.6657225 -0.6894057
vn 0.2855407 0.6657225 -0.6894057
vn 0.2855407 0.6657225 -0.6894057
vn 0.2855407 0.6657225 -0.6894057
vn -0.5276469 0.6657159 -0.5276469
vn -0.5276469 0.6657159 -0.5276469
vn -0.5276469 0.6657159 -0.5276469
vn -0.5276469 0.6657159 -0.5276469
vn -0.5276469 -0.6657159 -0.5276469
vn -0.5276469 -0.6657159 -0.5276469
vn -0.5276469 -0.6657159 -0.5276469
vn -0.5276469 -0.6657159 -0.5276469
vn -0.5276469 -0.6657159 -0.5276469
vn 0.5276469 0.6657159 -0.5276469
vn 0.5276469 0.6657159 -0.5276469
vn 0.5276469 0.6657159 -0.5276469
vn 0.5276469 0.6657159 -0.5276469
vn 0.5276469 0.6657159 -0.5276469
vn 0.5276469 0.6657159 -0.5276469
vn 0.6894057 -0.6657225 -0.2855407
vn 0.6894057 -0.6657225 -0.2855407
vn 0.6894057 -0.6657225 -0.2855407
vn 0.6894057 -0.6657225 -0.2855407
vn 0.6894057 -0.6657225 -0.2855407
vn -0.6894057 0.6657225 -0.2855407
vn -0.6894057 0.6657225 -0.2855407
vn -0.6894057 0.6657225 -0.2855407
vn -0.6894057 0.6657225 -0.2855407
vn -0.6894057 0.6657225 -0.2855407
vn -0.6894057 0.6657225 -0.2855407
vn -0.6894057 -0.6657225 -0.2855407
vn -0.6894057 -0.6657225 -0.2855407
vn -0.6894057 -0.6657225 -0.2855407
vn -0.6894057 -0.6657225 -0.2855407
vn -0.6894057 -0.6657225 -0.2855407
vn 0.6894057 0.6657225 -0.2855407
vn 0.6894057 0.6657225 -0.2855407
vn 0.6894057 0.6657225 -0.2855407
vn 0.6894057 0.6657225 -0.2855407
vn 0.7462008 -0.665721 0
vn 0.7462008 -0.665721 0
vn 0.7462008 -0.665721 0
vn 0.7462008 -0.665721 0
vn 0.7462008 -0.665721 0
vn 0.7462008 0.665721 0
vn 0.7462008 0.665721 0
vn 0.7462008 0.665721 0
vn 0.7462008 0.665721 0
vn 0.7462008 0.665721 0
vn -0.7462008 0.665721 0
vn -0.7462008 0.665721 0
vn -0.7462008 0.665721 0
vn -0.7462008 0.665721 0
vn -0.7462008 0.665721 0
vn -0.7462008 -0.665721 0
vn -0.7462008 -0.665721 0
vn -0.7462008 -0.665721 0
vn -0.7462008 -0.665721 0
vn -0.7462008 -0.665721 0
vn 0.6894057 -0.6657225 0.2855407
vn 0.6894057 -0.6657225 0.2855407
vn 0.6894057 -0.6657225 0.2855407
vn 0.6894057 -0.6657225 0.2855407
vn 0.6894057 -0.6657225 0.2855407
vn 0.6894057 -0.6657225 0.2855407
vn 0.6894057 0.6657225 0.2855407
vn 0.6894057 0.6657225 0.2855407
vn 0.6894057 0.6657225 0.2855407
vn 0.6894057 0.6657225 0.2855407
vn 0.6894057 0.6657225 0.2855407
vn 0.6894057 0.6657225 0.2855407
vn -0.6894057 0.6657225 0.2855407
vn -0.6894057 0.6657225 0.2855407
vn -0.6894057 0.6657225 0.2855407
vn -0.6894057 0.6657225 0.2855407
vn -0.6894057 -0.6657225 0.2855407
vn -0.6894057 -0.6657225 0.2855407
vn -0.6894057 -0.6657225 0.2855407
vn -0.6894057 -0.6657225 0.2855407
vn -0.5276469 -0.6657159 0.5276469
vn -0.5276469 -0.6657159 0.5276469
vn -0.5276469 -0.6657159 0.5276469
vn -0.5276469 -0.6657159 0.5276469
vn -0.5276469 -0.6657159 0.5276469
vn 0.5276469 -0.6657159 0.5276469
vn 0.5276469 -0.6657159 0.5276469
vn 0.5276469 -0.6657159 0.5276469
vn 0.5276469 -0.6657159 0.5276469
vn 0.5276469 -0.6657159 0.5276469
vn -0.5276469 0.6657159 0.5276469
vn -0.5276469 0.6657159 0.5276469
vn -0.5276469 0.6657159 0.5276469
vn -0.5276469 0.6657159 0.5276469
vn -0.5276469 0.6657159 0.5276469
vn 0.5276469 0.6657159 0.5276469
vn 0.5276469 0.6657159 0.5276469
vn 0.5276469 0.6657159 0.5276469
vn 0.5276469 0.6657159 0.5276469
vn 0.5276469 0.6657159 0.5276469
vn -0.2855407 0.6657225 0.6894057
vn -0.2855407 0.6657225 0.6894057
vn -0.2855407 0.6657225 0.6894057
vn -0.2855407 0.6657225 0.6894057
vn -0.2855407 0.6657225 0.6894057
vn -0.2855407 -0.6657225 0.6894057
vn -0.2855407 -0.6657225 0.6894057
vn -0.2855407 -0.6657225 0.6894057
vn -0.2855407 -0.6657225 0.6894057
vn -0.2855407 -0.6657225 0.6894057
vn 0.2855407 -0.6657225 0.6894057
vn 0.2855407 -0.6657225 0.6894057
vn 0.2855407 -0.6657225 0.6894057
vn 0.2855407 -0.6657225 0.6894057
vn 0.2855407 0.6657225 0.6894057
vn 0.2855407 0.6657225 0.6894057
vn 0.2855407 0.6657225 0.6894057
vn 0.2855407 0.6657225 0.6894057
vn 0 0.665721 0.7462008
vn 0 0.665721 0.7462008
vn 0 0.665721 0.7462008
vn 0 -0.665721 0.7462008
vn 0 -0.665721 0.7462008
vn 0 -0.665721 0.7462008
g IL_SqG_Prop1_sh_10_0
f 3/3/3 2/2/2 1/1/1
f 37/37/37 4/4/4 33/33/33
f 40/40/40 5/5/5 38/38/38
f 34/34/34 6/6/6 41/41/41
f 45/45/45 7/7/7 35/35/35
f 48/48/48 46/46/46 39/39/39
f 8/8/8 49/49/49 42/42/42
f 53/53/53 9/9/9 43/43/43
f 36/36/36 58/58/58 54/54/54
f 59/59/59 47/47/47 50/50/50
f 51/51/51 62/62/62 10/10/10
f 66/66/66 63/63/63 44/44/44
f 55/55/55 11/11/11 67/67/67
f 60/60/60 71/71/71 56/56/56
f 52/52/52 72/72/72 61/61/61
f 64/64/64 12/12/12 73/73/73
f 82/82/82 65/65/65 68/68/68
f 77/77/77 13/13/13 69/69/69
f 57/57/57 74/74/74 78/78/78
f 83/83/83 14/14/14 75/75/75
f 88/88/88 84/84/84 70/70/70
f 79/79/79 15/15/15 89/89/89
f 76/76/76 93/93/93 80/80/80
f 85/85/85 16/16/16 94/94/94
f 17/17/17 86/86/86 90/90/90
f 97/97/97 18/18/18 91/91/91
f 81/81/81 95/95/95 98/98/98
f 96/96/96 102/102/102 99/99/99
f 87/87/87 107/107/107 103/103/103
f 112/112/112 108/108/108 92/92/92
f 100/100/100 19/19/19 113/113/113
f 101/101/101 104/104/104 117/117/117
f 109/109/109 20/20/20 105/105/105
f 21/21/21 110/110/110 114/114/114
f 118/118/118 22/22/22 115/115/115
f 106/106/106 123/123/123 119/119/119
f 111/111/111 129/129/129 124/124/124
f 133/133/133 130/130/130 116/116/116
f 120/120/120 23/23/23 134/134/134
f 121/121/121 125/125/125 24/24/24
f 131/131/131 25/25/25 126/126/126
f 147/147/147 132/132/132 135/135/135
f 137/137/137 148/148/148 136/136/136
f 122/122/122 142/142/142 138/138/138
f 127/127/127 26/26/26 143/143/143
f 149/149/149 152/152/152 128/128/128
f 27/27/27 150/150/150 139/139/139
f 144/144/144 28/28/28 140/140/140
f 145/145/145 153/153/153 29/29/29
f 151/151/151 157/157/157 154/154/154
f 162/162/162 158/158/158 141/141/141
f 146/146/146 167/167/167 163/163/163
f 155/155/155 30/30/30 168/168/168
f 159/159/159 171/171/171 156/156/156
f 31/31/31 160/160/160 164/164/164
f 169/169/169 32/32/32 165/165/165
f 170/170/170 172/172/172 178/178/178
f 161/161/161 175/175/175 173/173/173
f 179/179/179 176/176/176 166/166/166
f 174/174/174 177/177/177 180/180/180
