g IL_SqG_Prop7_sh_5
v -0.09999996 -0.65 0.04999998
v -0.09999996 -0.65 -0.04999998
v -0.09999996 0.5500001 -0.04999998
v 0.1 -0.65 0.04999998
v 0.1 0.5500001 -0.04999998
v -0.09999996 0.5500001 0.04999998
v 0.1 -0.65 -0.04999998
v 0 0.65 -0.04999998
v 0 0.65 0.04999998
v 0.1 0.5500001 0.04999998
v -0.09999996 -0.65 0.04999998
v -0.09999996 -0.65 0.04999998
v -0.09999996 -0.65 0.04999998
v -0.09999996 -0.65 -0.04999998
v -0.09999996 -0.65 -0.04999998
v -0.09999996 -0.65 -0.04999998
v -0.09999996 -0.65 -0.04999998
v -0.09999996 0.5500001 -0.04999998
v -0.09999996 0.5500001 -0.04999998
v -0.09999996 0.5500001 -0.04999998
v -0.09999996 0.5500001 -0.04999998
v -0.09999996 0.5500001 -0.04999998
v 0.1 -0.65 0.04999998
v 0.1 -0.65 0.04999998
v 0.1 -0.65 0.04999998
v 0.1 -0.65 0.04999998
v 0.1 0.5500001 -0.04999998
v 0.1 0.5500001 -0.04999998
v 0.1 0.5500001 -0.04999998
v 0.1 0.5500001 -0.04999998
v -0.09999996 0.5500001 0.04999998
v -0.09999996 0.5500001 0.04999998
v -0.09999996 0.5500001 0.04999998
v -0.09999996 0.5500001 0.04999998
v 0.1 -0.65 -0.04999998
v 0.1 -0.65 -0.04999998
v 0.1 -0.65 -0.04999998
v 0 0.65 -0.04999998
v 0 0.65 -0.04999998
v 0 0.65 -0.04999998
v 0 0.65 0.04999998
v 0 0.65 0.04999998
v 0 0.65 0.04999998
v 0.1 0.5500001 0.04999998
v 0.1 0.5500001 0.04999998
v 0.1 0.5500001 0.04999998
v 0.1 0.5500001 0.04999998
v 0.1 0.5500001 0.04999998
vt 0.5449219 0.9814453
vt 0.5449219 0.9814453
vt 0.5449219 0.9814453
vt 0.5449219 0.9814453
vt 0.5449219 0.9814453
vt 0.5449219 0.9814453
vt 0.5449219 0.9814453
vt 0.5449219 0.9814453
vt 0.5449219 0.9814453
vt 0.5449219 0.9814453
vt 0.5449219 0.9814453
vt 0.5449219 0.9814453
vt 0.5449219 0.9814453
vt 0.5449219 0.9814453
vt 0.5449219 0.9814453
vt 0.5449219 0.9814453
vt 0.5449219 0.9814453
vt 0.5449219 0.9814453
vt 0.5449219 0.9814453
vt 0.5449219 0.9814453
vt 0.5449219 0.9814453
vt 0.5449219 0.9814453
vt 0.5449219 0.9814453
vt 0.5449219 0.9814453
vt 0.5449219 0.9814453
vt 0.5449219 0.9814453
vt 0.5449219 0.9814453
vt 0.5449219 0.9814453
vt 0.5449219 0.9814453
vt 0.5449219 0.9814453
vt 0.5449219 0.9814453
vt 0.5449219 0.9814453
vt 0.5449219 0.9814453
vt 0.5449219 0.9814453
vt 0.5449219 0.9814453
vt 0.5449219 0.9814453
vt 0.5449219 0.9814453
vt 0.5449219 0.9814453
vt 0.5449219 0.9814453
vt 0.5449219 0.9814453
vt 0.5449219 0.9814453
vt 0.5449219 0.9814453
vt 0.5449219 0.9814453
vt 0.5449219 0.9814453
vt 0.5449219 0.9814453
vt 0.5449219 0.9814453
vt 0.5449219 0.9814453
vt 0.5449219 0.9814453
vn -1 0 0
vn -1 0 0
vn -1 0 0
vn 0 -1 0
vn 0 0 -1
vn -1 0 0
vn 0 -1 0
vn 0 0 -1
vn -0.7071067 0.7071069 0
vn 0 0 1
vn 0 -1 0
vn -1 0 0
vn 0 0 1
vn 0 -1 0
vn 0 0 -1
vn 0 -1 0
vn 0 0 -1
vn 0 0 -1
vn -1 0 0
vn 0 0 -1
vn -0.7071067 0.7071069 0
vn -0.7071067 0.7071069 0
vn 0 0 1
vn 0 -1 0
vn 0 0 1
vn 1 0 0
vn 0 0 -1
vn 0 0 -1
vn 1 0 0
vn 0.7071067 0.7071069 0
vn 0 0 1
vn -0.7071067 0.7071069 0
vn 0 0 1
vn 0 0 1
vn 0 0 -1
vn 1 0 0
vn 1 0 0
vn 0.7071067 0.7071069 0
vn -0.7071067 0.7071069 0
vn 0.7071067 0.7071069 0
vn -0.7071067 0.7071069 0
vn 0 0 1
vn 0.7071067 0.7071069 0
vn 1 0 0
vn 1 0 0
vn 0.7071067 0.7071069 0
vn 0 0 1
vn 0.7071067 0.7071069 0
g IL_SqG_Prop7_sh_5_0
f 3/3/3 2/2/2 1/1/1
f 4/4/4 11/11/11 14/14/14
f 18/18/18 5/5/5 15/15/15
f 6/6/6 19/19/19 12/12/12
f 31/31/31 13/13/13 23/23/23
f 7/7/7 24/24/24 16/16/16
f 27/27/27 35/35/35 17/17/17
f 20/20/20 8/8/8 28/28/28
f 32/32/32 9/9/9 21/21/21
f 10/10/10 33/33/33 25/25/25
f 44/44/44 26/26/26 36/36/36
f 29/29/29 45/45/45 37/37/37
f 30/30/30 38/38/38 46/46/46
f 41/41/41 39/39/39 22/22/22
f 47/47/47 42/42/42 34/34/34
f 40/40/40 43/43/43 48/48/48
