g IL_Table_sh_6
v -0.1028569 -0.004150867 0.004666731
v -0.0193802 -0.004150867 0.1141635
v -0.1028569 0.004150987 0.004666731
v -0.0193802 0.004150987 0.1141635
v 0.05301346 -0.004150867 -0.1141635
v 0.05301346 0.004150987 -0.1141635
v 0.1015744 -0.004150867 0.02195181
v 0.09855163 -0.004150867 -0.003187329
v 0.1018593 -0.002306342 0.0217346
v 0.0912362 -0.004150867 -0.06402656
v 0.1028569 0.004150987 0.02097411
v 0.09201276 -0.0002723932 -0.06300794
v 0.09289838 0.004150987 -0.06184627
v 0.09994513 0.004150987 -0.003241658
v -0.1028569 -0.004150867 0.004666731
v -0.1028569 -0.004150867 0.004666731
v -0.1028569 -0.004150867 0.004666731
v -0.1028569 -0.004150867 0.004666731
v -0.1028569 -0.004150867 0.004666731
v -0.0193802 -0.004150867 0.1141635
v -0.0193802 -0.004150867 0.1141635
v -0.0193802 -0.004150867 0.1141635
v -0.1028569 0.004150987 0.004666731
v -0.1028569 0.004150987 0.004666731
v -0.1028569 0.004150987 0.004666731
v -0.1028569 0.004150987 0.004666731
v -0.1028569 0.004150987 0.004666731
v -0.0193802 0.004150987 0.1141635
v -0.0193802 0.004150987 0.1141635
v -0.0193802 0.004150987 0.1141635
v -0.0193802 0.004150987 0.1141635
v -0.0193802 0.004150987 0.1141635
v 0.05301346 -0.004150867 -0.1141635
v 0.05301346 -0.004150867 -0.1141635
v 0.05301346 -0.004150867 -0.1141635
v 0.05301346 -0.004150867 -0.1141635
v 0.05301346 0.004150987 -0.1141635
v 0.05301346 0.004150987 -0.1141635
v 0.05301346 0.004150987 -0.1141635
v 0.05301346 0.004150987 -0.1141635
v 0.1015744 -0.004150867 0.02195181
v 0.1015744 -0.004150867 0.02195181
v 0.1015744 -0.004150867 0.02195181
v 0.1015744 -0.004150867 0.02195181
v 0.09855163 -0.004150867 -0.003187329
v 0.09855163 -0.004150867 -0.003187329
v 0.09855163 -0.004150867 -0.003187329
v 0.09855163 -0.004150867 -0.003187329
v 0.09855163 -0.004150867 -0.003187329
v 0.09855163 -0.004150867 -0.003187329
v 0.09855163 -0.004150867 -0.003187329
v 0.1018593 -0.002306342 0.0217346
v 0.1018593 -0.002306342 0.0217346
v 0.1018593 -0.002306342 0.0217346
v 0.1018593 -0.002306342 0.0217346
v 0.0912362 -0.004150867 -0.06402656
v 0.0912362 -0.004150867 -0.06402656
v 0.1028569 0.004150987 0.02097411
v 0.1028569 0.004150987 0.02097411
v 0.09201276 -0.0002723932 -0.06300794
v 0.09201276 -0.0002723932 -0.06300794
v 0.09201276 -0.0002723932 -0.06300794
v 0.09201276 -0.0002723932 -0.06300794
v 0.09289838 0.004150987 -0.06184627
v 0.09289838 0.004150987 -0.06184627
v 0.09289838 0.004150987 -0.06184627
v 0.09289838 0.004150987 -0.06184627
v 0.09994513 0.004150987 -0.003241658
v 0.09994513 0.004150987 -0.003241658
v 0.09994513 0.004150987 -0.003241658
v 0.09994513 0.004150987 -0.003241658
v 0.09994513 0.004150987 -0.003241658
vt 0.2373856 0.8579984
vt 0.2373856 0.8579984
vt 0.2373856 0.8579984
vt 0.2373856 0.8579984
vt 0.2373856 0.8579984
vt 0.2373856 0.8579984
vt 0.2373856 0.8579984
vt 0.2373856 0.8579984
vt 0.2373856 0.8579984
vt 0.2373856 0.8579984
vt 0.2373856 0.8579984
vt 0.2373856 0.8579984
vt 0.2373856 0.8579984
vt 0.2373856 0.8579983
vt 0.2373856 0.8579984
vt 0.2373856 0.8579984
vt 0.2373856 0.8579984
vt 0.2373856 0.8579984
vt 0.2373856 0.8579984
vt 0.2373856 0.8579984
vt 0.2373856 0.8579984
vt 0.2373856 0.8579984
vt 0.2373856 0.8579984
vt 0.2373856 0.8579984
vt 0.2373856 0.8579984
vt 0.2373856 0.8579984
vt 0.2373856 0.8579984
vt 0.2373856 0.8579984
vt 0.2373856 0.8579984
vt 0.2373856 0.8579984
vt 0.2373856 0.8579984
vt 0.2373856 0.8579984
vt 0.2373856 0.8579984
vt 0.2373856 0.8579984
vt 0.2373856 0.8579984
vt 0.2373856 0.8579984
vt 0.2373856 0.8579984
vt 0.2373856 0.8579984
vt 0.2373856 0.8579984
vt 0.2373856 0.8579984
vt 0.2373856 0.8579984
vt 0.2373856 0.8579984
vt 0.2373856 0.8579984
vt -0.2846366 -0.04185921
vt 0.2373856 0.8579983
vt 0.2373856 0.8579983
vt -0.2846366 -0.04824456
vt -0.2846366 -0.04824456
vt -0.2846366 -0.04824456
vt -0.2846366 -0.04824456
vt -0.2846366 -0.04824456
vt 0.2373856 0.8579984
vt -0.2851051 -0.04191438
vt -0.2851051 -0.04191438
vt -0.2851051 -0.04191438
vt 0.2373856 0.8579984
vt -0.2846366 -0.06369776
vt 0.2373856 0.8579984
vt -0.2867453 -0.04210754
vt 0.2373856 0.8579984
vt 0.2373856 0.8579984
vt -0.2856217 -0.06343903
vt -0.2856217 -0.06343903
vt 0.2373856 0.8579984
vt 0.2373856 0.8579984
vt -0.2867453 -0.06314397
vt -0.2867453 -0.06314397
vt 0.2373856 0.8579984
vt 0.2373856 0.8579984
vt -0.2867453 -0.04825836
vt -0.2867453 -0.04825836
vt -0.2867453 -0.04825836
vn -0.795256 0 0.6062737
vn -0.795256 0 0.6062737
vn -0.795256 0 0.6062737
vn -0.795256 0 0.6062737
vn -0.6062772 0 -0.7952533
vn -0.6062772 0 -0.7952533
vn 0 -1 0
vn 0 -1 0
vn 0.6062772 0 0.7952534
vn 0 -1 0
vn 0.6062772 0 0.7952533
vn 0.795256 0 -0.6062737
vn -2.760818E-07 1 0
vn -2.760818E-07 1 0
vn -0.6062772 0 -0.7952533
vn -0.6062772 0 -0.7952533
vn 0 -1 0
vn 0 -1 0
vn 0 -1 0
vn -0.795256 0 0.6062737
vn 0 -1 0
vn 0.6062772 0 0.7952533
vn -0.6062772 0 -0.7952533
vn -0.795256 0 0.6062737
vn -2.760818E-07 1 0
vn -2.760818E-07 1 0
vn -2.760818E-07 1 0
vn 0.6062772 0 0.7952533
vn 0.6062772 0 0.7952533
vn 0.6062772 0 0.7952533
vn -2.760818E-07 1 0
vn -2.760818E-07 1 0
vn 0 -1 0
vn 0 -1 0
vn 0.795256 0 -0.6062737
vn 0.795256 0 -0.6062737
vn -0.6062772 0 -0.7952533
vn -2.760818E-07 1 0
vn 0.795256 0 -0.6062737
vn 0.795256 0 -0.6062737
vn 0 -1 0
vn 0.6062772 0 0.7952534
vn 0.6062772 0 0.7952534
vn 0.9792202 -0.1651185 -0.1177438
vn 0 -1 0
vn 0 -1 0
vn 0.9792171 -0.165138 -0.1177429
vn 0.9792182 -0.1651313 -0.1177427
vn 0.9792174 -0.1651358 -0.1177432
vn 0.9792202 -0.1651185 -0.1177438
vn 0.9792175 -0.1651358 -0.1177422
vn 0.6062772 0 0.7952533
vn 0.9792202 -0.1651185 -0.1177438
vn 0.9792175 -0.1651358 -0.1177422
vn 0.9792175 -0.1651361 -0.1177422
vn 0.795256 0 -0.6062737
vn 0.9792171 -0.165138 -0.1177429
vn -2.760818E-07 1 0
vn 0.9792175 -0.1651361 -0.1177422
vn 0.7952561 0 -0.6062737
vn 0.7952561 0 -0.6062737
vn 0.9792171 -0.165138 -0.1177429
vn 0.9792182 -0.1651313 -0.1177427
vn -2.760818E-07 1 0
vn 0.7952561 0 -0.6062737
vn 0.9792182 -0.1651313 -0.1177427
vn 0.9792174 -0.1651358 -0.1177432
vn -2.760818E-07 1 0
vn -2.760818E-07 1 0
vn 0.9792174 -0.1651358 -0.1177432
vn 0.9792175 -0.1651358 -0.1177422
vn 0.9792175 -0.1651361 -0.1177422
g IL_Table_sh_6_0
f 3/3/3 1/1/1 2/2/2
f 23/23/23 6/6/6 15/15/15
f 4/4/4 24/24/24 20/20/20
f 37/37/37 5/5/5 16/16/16
f 7/7/7 21/21/21 17/17/17
f 8/8/8 41/41/41 18/18/18
f 9/9/9 28/28/28 42/42/42
f 29/29/29 22/22/22 43/43/43
f 45/45/45 33/33/33 10/10/10
f 19/19/19 34/34/34 46/46/46
f 52/52/52 11/11/11 30/30/30
f 12/12/12 56/56/56 35/35/35
f 13/13/13 38/38/38 25/25/25
f 14/14/14 64/64/64 26/26/26
f 68/68/68 31/31/31 58/58/58
f 27/27/27 32/32/32 69/69/69
f 60/60/60 39/39/39 65/65/65
f 36/36/36 40/40/40 61/61/61
g IL_Table_sh_6_1
f 47/47/47 57/57/57 62/62/62
f 48/48/48 63/63/63 66/66/66
f 49/49/49 67/67/67 70/70/70
f 53/53/53 44/44/44 50/50/50
f 54/54/54 51/51/51 71/71/71
f 72/72/72 59/59/59 55/55/55
