g IL_Table_2_sh_1
v -0.01904851 -0.1824125 -0.3982359
v 0.01904851 -0.1824125 -0.3982359
v 0.01904851 -0.1824125 0.3982359
v -0.01904851 -0.1824125 0.3982359
v -0.01904851 0.1615085 -0.3982359
v 0.004875481 0.16171 -0.3982359
v -0.01904851 0.1693355 -0.09536242
v 0.01904851 0.1618294 -0.3982359
v -0.01904851 0.1820914 0.3982359
v 0.01904851 0.1744711 0.09094045
v -0.004030824 0.182218 0.3982359
v 0.01904851 0.1824125 0.3982359
v -0.01904851 -0.1824125 -0.3982359
v -0.01904851 -0.1824125 -0.3982359
v -0.01904851 -0.1824125 -0.3982359
v -0.01904851 -0.1824125 -0.3982359
v -0.01904851 -0.1824125 -0.3982359
v 0.01904851 -0.1824125 -0.3982359
v 0.01904851 -0.1824125 -0.3982359
v 0.01904851 -0.1824125 -0.3982359
v 0.01904851 -0.1824125 -0.3982359
v 0.01904851 -0.1824125 0.3982359
v 0.01904851 -0.1824125 0.3982359
v 0.01904851 -0.1824125 0.3982359
v 0.01904851 -0.1824125 0.3982359
v 0.01904851 -0.1824125 0.3982359
v -0.01904851 -0.1824125 0.3982359
v -0.01904851 -0.1824125 0.3982359
v -0.01904851 -0.1824125 0.3982359
v -0.01904851 -0.1824125 0.3982359
v -0.01904851 0.1615085 -0.3982359
v -0.01904851 0.1615085 -0.3982359
v -0.01904851 0.1615085 -0.3982359
v 0.004875481 0.16171 -0.3982359
v 0.004875481 0.16171 -0.3982359
v 0.004875481 0.16171 -0.3982359
v -0.01904851 0.1693355 -0.09536242
v -0.01904851 0.1693355 -0.09536242
v -0.01904851 0.1693355 -0.09536242
v -0.01904851 0.1693355 -0.09536242
v -0.01904851 0.1693355 -0.09536242
v -0.01904851 0.1693355 -0.09536242
v 0.01904851 0.1618294 -0.3982359
v 0.01904851 0.1618294 -0.3982359
v 0.01904851 0.1618294 -0.3982359
v 0.01904851 0.1618294 -0.3982359
v -0.01904851 0.1820914 0.3982359
v -0.01904851 0.1820914 0.3982359
v -0.01904851 0.1820914 0.3982359
v 0.01904851 0.1744711 0.09094045
v 0.01904851 0.1744711 0.09094045
v 0.01904851 0.1744711 0.09094045
v 0.01904851 0.1744711 0.09094045
v -0.004030824 0.182218 0.3982359
v -0.004030824 0.182218 0.3982359
v -0.004030824 0.182218 0.3982359
v -0.004030824 0.182218 0.3982359
v 0.01904851 0.1824125 0.3982359
v 0.01904851 0.1824125 0.3982359
v 0.01904851 0.1824125 0.3982359
vt 0.1360518 0.8364534
vt 0.1368966 0.8364534
vt 0.1368966 0.8364534
vt 0.1360518 0.8364534
vt 0.1360518 0.8517143
vt 0.1365823 0.8517232
vt 0.1360518 0.8520621
vt 0.1368966 0.851729
vt 0.1360518 0.8526281
vt 0.1368966 0.8522899
vt 0.1363848 0.8526337
vt 0.1368966 0.8526413
vt 0.1360518 0.8364534
vt 0.1360518 0.8364534
vt 0.1360518 0.8364534
vt 0.1360518 0.8364534
vt 0.1360518 0.8364534
vt 0.1368966 0.8364534
vt 0.1368966 0.8364534
vt 0.1368966 0.8364534
vt 0.1368966 0.8364534
vt 0.1368966 0.8364534
vt 0.1368966 0.8364534
vt 0.1368966 0.8364534
vt 0.1368966 0.8364534
vt 0.1368966 0.8364534
vt 0.1360518 0.8364534
vt 0.1360518 0.8364534
vt 0.1360518 0.8364534
vt 0.1360518 0.8364534
vt 0.1360518 0.8517143
vt 0.1360518 0.8517147
vt 0.1980781 -0.1009639
vt 0.1365823 0.8517237
vt 0.2041548 -0.1009639
vt 0.2041548 -0.1009639
vt 0.1360518 0.8520621
vt 0.1980781 -0.02403391
vt 0.1980781 -0.02403391
vt 0.1980781 -0.02403391
vt 0.1980781 -0.02403391
vt 0.1980781 -0.02403391
vt 0.1368966 0.851729
vt 0.1368966 0.851729
vt 0.2077548 -0.1009639
vt 0.2077548 -0.1009639
vt 0.1360518 0.8526281
vt 0.1360518 0.8526281
vt 0.1980782 0.1013403
vt 0.1368966 0.85229
vt 0.2077548 0.02328711
vt 0.2077548 0.02328711
vt 0.2077548 0.02328711
vt 0.1363848 0.8526334
vt 0.2018927 0.1013403
vt 0.2018927 0.1013403
vt 0.2018927 0.1013403
vt 0.1368966 0.8526413
vt 0.1368966 0.8526424
vt 0.2077548 0.1013403
vn 0 -1 0
vn 0 -1 0
vn 0 -1 0
vn 0 -1 0
vn 0 0 -1
vn 0 0 -1
vn -1 0 0
vn 0 0 -1
vn -1 0 0
vn 1 0 0
vn 0 0 1
vn 0 0 1
vn 0 -1 0
vn 0 0 -1
vn -1 0 0
vn -1 0 0
vn -1 0 0
vn 0 0 -1
vn 0 0 -1
vn 0 0 -1
vn 1 0 0
vn 0 -1 0
vn 1 0 0
vn 1 0 0
vn 0 0 1
vn 1 0 0
vn -1 0 0
vn 0 0 1
vn 0 0 1
vn 0 0 1
vn 0 0 -1
vn -1 0 0
vn -0.008420374 0.9996308 -0.02583307
vn 0 0 -1
vn -0.008420374 0.9996308 -0.02583307
vn -0.008422623 0.9996307 -0.02583325
vn -1 0 0
vn -0.008420374 0.9996308 -0.02583307
vn -0.008422997 0.9996308 -0.0258332
vn -0.008422395 0.9996308 -0.02583321
vn -0.008422359 0.9996308 -0.02583322
vn -0.008422623 0.9996307 -0.02583325
vn 1 0 0
vn 1 0 0
vn -0.008422359 0.9996308 -0.02583322
vn -0.008422623 0.9996307 -0.02583325
vn -1 0 0
vn 0 0 1
vn -0.008422997 0.9996308 -0.0258332
vn 1 0 0
vn -0.008423923 0.9996307 -0.02583333
vn -0.008422395 0.9996308 -0.02583321
vn -0.008422359 0.9996308 -0.02583322
vn 0 0 1
vn -0.008423923 0.9996307 -0.02583333
vn -0.008422997 0.9996308 -0.0258332
vn -0.008422395 0.9996308 -0.02583321
vn 0 0 1
vn 1 0 0
vn -0.008423923 0.9996307 -0.02583333
g IL_Table_2_sh_1_0
f 2/2/2 3/3/3 1/1/1
f 22/22/22 4/4/4 13/13/13
f 6/6/6 18/18/18 5/5/5
f 19/19/19 14/14/14 31/31/31
f 7/7/7 32/32/32 15/15/15
f 34/34/34 8/8/8 20/20/20
f 37/37/37 16/16/16 9/9/9
f 17/17/17 27/27/27 47/47/47
f 10/10/10 23/23/23 43/43/43
f 24/24/24 21/21/21 44/44/44
f 11/11/11 48/48/48 28/28/28
f 54/54/54 29/29/29 12/12/12
f 30/30/30 25/25/25 58/58/58
f 50/50/50 59/59/59 26/26/26
g IL_Table_2_sh_1_1
f 55/55/55 60/60/60 51/51/51
f 35/35/35 33/33/33 38/38/38
f 39/39/39 49/49/49 56/56/56
f 40/40/40 57/57/57 52/52/52
f 41/41/41 53/53/53 45/45/45
f 46/46/46 36/36/36 42/42/42
