g IL_Terminal_1_sh_2
v 0.3628456 0.5343404 -0.2692374
v 0.4628456 -0.4610611 0.1020501
v 0.4628456 0.4861647 -0.2692374
v 0.4143031 0.5343405 -0.2692374
v 0.3628456 0.5343404 -0.1692375
v 0.3628456 0.5343404 -0.1464925
v 0.3332941 0.4538866 -0.1301253
v 0.4628456 0.4862243 -0.08828223
v 0.3628456 0.5040642 -0.1098399
v 0.4628456 0.4861791 -0.1692375
v 0.4143031 0.5343404 -0.1692375
v 0.4143031 0.5343404 -0.1464925
v 0.3628456 -0.5164409 0.2283995
v 0.4169946 -0.5292714 0.2576723
v 0.4383883 -0.5343404 0.2692374
v 0.4628456 -0.4610611 0.0557496
v -0.4071691 0.5343404 -0.2242385
v -0.3749441 0.5343404 -0.2692374
v -0.4600778 0.516544 -0.124948
v -0.4628456 0.5343404 -0.1464925
v 0.3622826 -0.443629 0.09762657
v 0.3332941 -0.3719834 0.03581187
v 0.3643573 -0.4467409 0.09917283
v 0.3769388 -0.4610611 0.1020501
v -0.4465571 0.5343404 -0.1692375
v -0.4581369 0.5040642 -0.1098399
v -0.4560851 0.5343404 -0.1559328
v -0.420507 0.4753826 -0.1214351
v 0.3628456 -0.4447732 0.09847414
v -0.3923047 0.4538866 -0.1301253
v 0.3628456 -0.4841126 0.1546423
v 0.3455816 -0.5123503 0.2190667
v 0.3628456 -0.1872318 -0.2692374
v 0.4628456 -0.2850337 -0.2692374
v 0.3890487 -0.2128589 -0.2692374
v 0.37632 -0.2004101 -0.2692374
v 0.4628456 -0.34661 -0.1813202
v -0.1251499 0.1498137 -0.06902969
v 0.4628456 -0.3550726 -0.1692375
v 0.4628456 -0.4098827 -0.09098101
v 0.3628456 0.5343404 -0.2692374
v 0.3628456 0.5343404 -0.2692374
v 0.3628456 0.5343404 -0.2692374
v 0.3628456 0.5343404 -0.2692374
v 0.4628456 -0.4610611 0.1020501
v 0.4628456 -0.4610611 0.1020501
v 0.4628456 -0.4610611 0.1020501
v 0.4628456 -0.4610611 0.1020501
v 0.4628456 -0.4610611 0.1020501
v 0.4628456 -0.4610611 0.1020501
v 0.4628456 -0.4610611 0.1020501
v 0.4628456 -0.4610611 0.1020501
v 0.4628456 -0.4610611 0.1020501
v 0.4628456 -0.4610611 0.1020501
v 0.4628456 0.4861647 -0.2692374
v 0.4628456 0.4861647 -0.2692374
v 0.4628456 0.4861647 -0.2692374
v 0.4628456 0.4861647 -0.2692374
v 0.4628456 0.4861647 -0.2692374
v 0.4628456 0.4861647 -0.2692374
v 0.4143031 0.5343405 -0.2692374
v 0.4143031 0.5343405 -0.2692374
v 0.4143031 0.5343405 -0.2692374
v 0.4143031 0.5343405 -0.2692374
v 0.4143031 0.5343405 -0.2692374
v 0.4143031 0.5343405 -0.2692374
v 0.3628456 0.5343404 -0.1692375
v 0.3628456 0.5343404 -0.1692375
v 0.3628456 0.5343404 -0.1692375
v 0.3628456 0.5343404 -0.1692375
v 0.3628456 0.5343404 -0.1692375
v 0.3628456 0.5343404 -0.1692375
v 0.3628456 0.5343404 -0.1692375
v 0.3628456 0.5343404 -0.1464925
v 0.3628456 0.5343404 -0.1464925
v 0.3628456 0.5343404 -0.1464925
v 0.3628456 0.5343404 -0.1464925
v 0.3628456 0.5343404 -0.1464925
v 0.3628456 0.5343404 -0.1464925
v 0.3332941 0.4538866 -0.1301253
v 0.3332941 0.4538866 -0.1301253
v 0.3332941 0.4538866 -0.1301253
v 0.3332941 0.4538866 -0.1301253
v 0.3332941 0.4538866 -0.1301253
v 0.3332941 0.4538866 -0.1301253
v 0.4628456 0.4862243 -0.08828223
v 0.4628456 0.4862243 -0.08828223
v 0.4628456 0.4862243 -0.08828223
v 0.4628456 0.4862243 -0.08828223
v 0.4628456 0.4862243 -0.08828223
v 0.4628456 0.4862243 -0.08828223
v 0.3628456 0.5040642 -0.1098399
v 0.3628456 0.5040642 -0.1098399
v 0.3628456 0.5040642 -0.1098399
v 0.3628456 0.5040642 -0.1098399
v 0.3628456 0.5040642 -0.1098399
v 0.3628456 0.5040642 -0.1098399
v 0.4628456 0.4861791 -0.1692375
v 0.4628456 0.4861791 -0.1692375
v 0.4628456 0.4861791 -0.1692375
v 0.4628456 0.4861791 -0.1692375
v 0.4628456 0.4861791 -0.1692375
v 0.4143031 0.5343404 -0.1692375
v 0.4143031 0.5343404 -0.1692375
v 0.4143031 0.5343404 -0.1692375
v 0.4143031 0.5343404 -0.1692375
v 0.4143031 0.5343404 -0.1692375
v 0.4143031 0.5343404 -0.1464925
v 0.4143031 0.5343404 -0.1464925
v 0.4143031 0.5343404 -0.1464925
v 0.3628456 -0.5164409 0.2283995
v 0.3628456 -0.5164409 0.2283995
v 0.3628456 -0.5164409 0.2283995
v 0.3628456 -0.5164409 0.2283995
v 0.4169946 -0.5292714 0.2576723
v 0.4169946 -0.5292714 0.2576723
v 0.4169946 -0.5292714 0.2576723
v 0.4383883 -0.5343404 0.2692374
v 0.4383883 -0.5343404 0.2692374
v 0.4628456 -0.4610611 0.0557496
v 0.4628456 -0.4610611 0.0557496
v 0.4628456 -0.4610611 0.0557496
v 0.4628456 -0.4610611 0.0557496
v 0.4628456 -0.4610611 0.0557496
v -0.4071691 0.5343404 -0.2242385
v -0.4071691 0.5343404 -0.2242385
v -0.4071691 0.5343404 -0.2242385
v -0.4071691 0.5343404 -0.2242385
v -0.4071691 0.5343404 -0.2242385
v -0.4071691 0.5343404 -0.2242385
v -0.3749441 0.5343404 -0.2692374
v -0.3749441 0.5343404 -0.2692374
v -0.4600778 0.516544 -0.124948
v -0.4600778 0.516544 -0.124948
v -0.4600778 0.516544 -0.124948
v -0.4600778 0.516544 -0.124948
v -0.4600778 0.516544 -0.124948
v -0.4628456 0.5343404 -0.1464925
v -0.4628456 0.5343404 -0.1464925
v -0.4628456 0.5343404 -0.1464925
v 0.3622826 -0.443629 0.09762657
v 0.3622826 -0.443629 0.09762657
v 0.3622826 -0.443629 0.09762657
v 0.3332941 -0.3719834 0.03581187
v 0.3332941 -0.3719834 0.03581187
v 0.3332941 -0.3719834 0.03581187
v 0.3332941 -0.3719834 0.03581187
v 0.3643573 -0.4467409 0.09917283
v 0.3643573 -0.4467409 0.09917283
v 0.3643573 -0.4467409 0.09917283
v 0.3643573 -0.4467409 0.09917283
v 0.3769388 -0.4610611 0.1020501
v 0.3769388 -0.4610611 0.1020501
v 0.3769388 -0.4610611 0.1020501
v -0.4465571 0.5343404 -0.1692375
v -0.4465571 0.5343404 -0.1692375
v -0.4465571 0.5343404 -0.1692375
v -0.4465571 0.5343404 -0.1692375
v -0.4465571 0.5343404 -0.1692375
v -0.4581369 0.5040642 -0.1098399
v -0.4581369 0.5040642 -0.1098399
v -0.4581369 0.5040642 -0.1098399
v -0.4560851 0.5343404 -0.1559328
v -0.4560851 0.5343404 -0.1559328
v -0.4560851 0.5343404 -0.1559328
v -0.420507 0.4753826 -0.1214351
v -0.420507 0.4753826 -0.1214351
v -0.420507 0.4753826 -0.1214351
v -0.420507 0.4753826 -0.1214351
v -0.420507 0.4753826 -0.1214351
v 0.3628456 -0.4447732 0.09847414
v 0.3628456 -0.4447732 0.09847414
v 0.3628456 -0.4447732 0.09847414
v 0.3628456 -0.4447732 0.09847414
v 0.3628456 -0.4447732 0.09847414
v -0.3923047 0.4538866 -0.1301253
v -0.3923047 0.4538866 -0.1301253
v -0.3923047 0.4538866 -0.1301253
v -0.3923047 0.4538866 -0.1301253
v 0.3628456 -0.4841126 0.1546423
v 0.3628456 -0.4841126 0.1546423
v 0.3628456 -0.4841126 0.1546423
v 0.3628456 -0.4841126 0.1546423
v 0.3455816 -0.5123503 0.2190667
v 0.3455816 -0.5123503 0.2190667
v 0.3455816 -0.5123503 0.2190667
v 0.3628456 -0.1872318 -0.2692374
v 0.3628456 -0.1872318 -0.2692374
v 0.3628456 -0.1872318 -0.2692374
v 0.3628456 -0.1872318 -0.2692374
v 0.3628456 -0.1872318 -0.2692374
v 0.4628456 -0.2850337 -0.2692374
v 0.4628456 -0.2850337 -0.2692374
v 0.3890487 -0.2128589 -0.2692374
v 0.3890487 -0.2128589 -0.2692374
v 0.3890487 -0.2128589 -0.2692374
v 0.3890487 -0.2128589 -0.2692374
v 0.37632 -0.2004101 -0.2692374
v 0.37632 -0.2004101 -0.2692374
v 0.37632 -0.2004101 -0.2692374
v 0.37632 -0.2004101 -0.2692374
v 0.4628456 -0.34661 -0.1813202
v 0.4628456 -0.34661 -0.1813202
v 0.4628456 -0.34661 -0.1813202
v 0.4628456 -0.34661 -0.1813202
v -0.1251499 0.1498137 -0.06902969
v -0.1251499 0.1498137 -0.06902969
v -0.1251499 0.1498137 -0.06902969
v -0.1251499 0.1498137 -0.06902969
v -0.1251499 0.1498137 -0.06902969
v -0.1251499 0.1498137 -0.06902969
v -0.1251499 0.1498137 -0.06902969
v -0.1251499 0.1498137 -0.06902969
v 0.4628456 -0.3550726 -0.1692375
v 0.4628456 -0.3550726 -0.1692375
v 0.4628456 -0.3550726 -0.1692375
v 0.4628456 -0.3550726 -0.1692375
v 0.4628456 -0.3550726 -0.1692375
v 0.4628456 -0.3550726 -0.1692375
v 0.4628456 -0.4098827 -0.09098101
v 0.4628456 -0.4098827 -0.09098101
v 0.4628456 -0.4098827 -0.09098101
v 0.4628456 -0.4098827 -0.09098101
v 0.4628456 -0.4098827 -0.09098101
v 0.4628456 -0.4098827 -0.09098101
v 0.4628456 -0.4098827 -0.09098101
v 0.4628456 -0.4098827 -0.09098101
v 0.4628456 -0.4098827 -0.09098101
vt 0.2573943 0.7085013
vt 0.2573943 0.7085013
vt 0.2361334 0.8503574
vt 0.2573943 0.7085013
vt 0.2573943 0.7085013
vt 0.2361334 0.8503574
vt 0.07673027 0.8593802
vt 0.2573943 0.7085013
vt 0.2361334 0.8503574
vt 0.2573943 0.7085013
vt 0.2573943 0.7085013
vt 0.2361334 0.8503574
vt 0.2573943 0.7085013
vt 0.2573943 0.7085013
vt 0.2573943 0.7085013
vt 0.2573943 0.7085014
vt 0.2573943 0.7085013
vt 0.2573943 0.7085013
vt 0.2361334 0.8503573
vt 0.2361334 0.8503573
vt 0.07673027 0.8593802
vt 0.0767303 0.8593802
vt 0.2573943 0.7085013
vt 0.2573943 0.7085013
vt 0.2573943 0.7085013
vt 0.2361334 0.8503574
vt 0.2573943 0.7085013
vt 0.07673028 0.8593802
vt 0.07673027 0.8593802
vt 0.07673027 0.8593802
vt 0.3685974 0.7060472
vt 0.3671851 0.6959445
vt 0.2573943 0.7085013
vt 0.2573943 0.7085013
vt 0.2573943 0.7085013
vt 0.2573943 0.7085013
vt 0.2573943 0.7085013
vt 0.2069113 0.6743133
vt 0.2573943 0.7085013
vt 0.2573943 0.7085013
vt 0.2573943 0.7085013
vt 0.2573943 0.7085013
vt 0.2573943 0.7085013
vt 0.2573943 0.7085013
vt 0.2573943 0.7085013
vt 0.2573943 0.7085013
vt 0.2573943 0.7085013
vt 0.2573943 0.7085013
vt 0.2573943 0.7085013
vt 0.2573943 0.7085013
vt 0.2573943 0.7085013
vt 0.2573943 0.7085013
vt 0.2573943 0.7085013
vt 0.2573943 0.7085013
vt 0.2573943 0.7085013
vt 0.2573943 0.7085013
vt 0.2573943 0.7085013
vt 0.2573943 0.7085013
vt 0.2573943 0.7085013
vt 0.2573943 0.7085013
vt 0.2361334 0.8503574
vt 0.2573943 0.7085013
vt 0.2361334 0.8503574
vt 0.2573943 0.7085013
vt 0.2573943 0.7085013
vt 0.2573943 0.7085013
vt 0.2573943 0.7085013
vt 0.2573943 0.7085013
vt 0.2573943 0.7085013
vt 0.2573943 0.7085013
vt 0.2573943 0.7085013
vt 0.2573943 0.7085013
vt 0.2573943 0.7085013
vt 0.2573943 0.7085013
vt 0.2573943 0.7085013
vt 0.2361334 0.8503574
vt 0.2361334 0.8503574
vt 0.2361334 0.8503574
vt 0.2573943 0.7085013
vt 0.07673027 0.8593802
vt 0.07673027 0.8593802
vt 0.07673027 0.8593802
vt 0.07673027 0.8593802
vt 0.2469334 0.7108364
vt 0.2469334 0.7108364
vt 0.2361334 0.8503574
vt 0.2361334 0.8503574
vt 0.2361334 0.8503574
vt 0.2573943 0.7085013
vt 0.2573943 0.7085013
vt 0.2573943 0.7085013
vt 0.2361334 0.8503574
vt 0.2361334 0.8503574
vt 0.07673027 0.8593802
vt 0.07673027 0.8593802
vt 0.2573943 0.7085013
vt 0.07673027 0.8593802
vt 0.2361334 0.8503574
vt 0.2361334 0.8503574
vt 0.2361334 0.8503574
vt 0.2573943 0.7085013
vt 0.2573943 0.7085013
vt 0.2573943 0.7085013
vt 0.2361334 0.8503574
vt 0.2361334 0.8503574
vt 0.2573943 0.7085013
vt 0.2361334 0.8503574
vt 0.2361334 0.8503574
vt 0.2573943 0.7085013
vt 0.2361334 0.8503574
vt -0.1778004 0.1264
vt 0.3685974 0.694481
vt 0.2573943 0.7085013
vt -0.1778004 0.1264
vt 0.2573943 0.7085013
vt -0.1915542 0.1338353
vt -0.1915542 0.1338353
vt 0.2573943 0.7085013
vt -0.1969882 0.1367729
vt -0.2032004 0.08254687
vt -0.2032004 0.08254687
vt -0.2032004 0.08254687
vt 0.2573943 0.7085013
vt -0.2032004 0.08254687
vt 0.2573943 0.7085013
vt 0.2573943 0.7085013
vt 0.01778379 0.01142973
vt 0.01778379 0.01142973
vt 0.01778379 0.01142973
vt 0.01778379 0.01142973
vt 0.2573943 0.7085013
vt 0.009598619 -2.158552E-08
vt 0.2361334 0.8503573
vt 0.03122262 0.03664957
vt 0.03122262 0.03664957
vt 0.03122262 0.03664957
vt 0.03122262 0.03664957
vt 0.2573943 0.7085013
vt 0.2573943 0.7085013
vt 0.03192564 0.03117726
vt 0.07673027 0.8593802
vt -0.1776574 0.09318364
vt -0.1776574 0.09318364
vt 0.2469334 0.6116387
vt -0.1702943 0.07748266
vt -0.1702943 0.07748266
vt -0.1702943 0.07748266
vt 0.2573943 0.7085013
vt 0.2573943 0.7085013
vt -0.1781843 0.09357639
vt -0.1781843 0.09357639
vt 0.2573943 0.7085013
vt -0.18138 0.09430721
vt -0.18138 0.09430721
vt 0.2573943 0.7085013
vt 0.02778835 0.02540002
vt 0.02778835 0.02540002
vt 0.02778835 0.02540002
vt 0.02778835 0.02540002
vt 0.2361334 0.8503574
vt 0.07673027 0.8593803
vt 0.03072964 0.04048704
vt 0.2573943 0.7085013
vt 0.03020846 0.02877942
vt 0.03020846 0.02877942
vt 0.07673028 0.8593802
vt 0.07673028 0.8593802
vt 0.02117161 0.03754186
vt 0.02117161 0.03754186
vt 0.02117161 0.03754186
vt 0.07673027 0.8593802
vt 0.2573943 0.7085014
vt 0.2573943 0.7085014
vt -0.1778004 0.09339892
vt -0.1778004 0.09339892
vt 0.1835887 0.7108364
vt 0.01400823 0.03533454
vt 0.01400823 0.03533454
vt 0.01400823 0.03533454
vt 0.2573943 0.7085013
vt 0.2573943 0.7085013
vt -0.1778004 0.1076657
vt -0.1778004 0.1076657
vt -0.1734153 0.1240295
vt -0.1734153 0.1240295
vt -0.1734153 0.1240295
vt 0.2573943 0.7085013
vt 0.2573943 0.7085013
vt -0.1778004 -1.357412E-08
vt -0.1778004 -1.357412E-08
vt -0.1778004 -1.357412E-08
vt 0.2573943 0.7085013
vt -0.2032004 -1.248825E-08
vt 0.2573943 0.7085013
vt -0.1844559 -1.328958E-08
vt -0.1844559 -1.328958E-08
vt -0.1844559 -1.328958E-08
vt 0.2573943 0.7085013
vt 0.2573943 0.7085013
vt -0.1812229 -1.34278E-08
vt -0.1812229 -1.34278E-08
vt 0.2573943 0.7085013
vt -0.2032004 0.022331
vt -0.2032004 0.022331
vt -0.2032004 0.022331
vt 0.2069113 0.6743133
vt -0.05384923 0.05085285
vt -0.05384923 0.05085285
vt -0.05384923 0.05085285
vt -0.05384923 0.05085285
vt -0.05384923 0.05085285
vt -0.05384923 0.05085285
vt -0.05384923 0.05085285
vt 0.2573943 0.7085013
vt 0.2573943 0.7085013
vt 0.2573943 0.7085013
vt -0.2032004 0.02540003
vt -0.2032004 0.02540003
vt -0.2032004 0.02540003
vt 0.2573943 0.7085013
vt -0.2032004 0.04527721
vt -0.2032004 0.04527721
vt -0.2032004 0.04527721
vt -0.2032004 0.04527721
vt -0.2032004 0.04527721
vt -0.2032004 0.04527721
vt -0.2032004 0.04527721
vt -0.2032004 0.04527721
vn 0 1 0
vn 0.9970229 -0.06760798 0.03707384
vn 0.9231501 0.3844397 -2.833204E-05
vn 0.3808952 0.9246182 -2.822084E-05
vn 0 1 0
vn 3.642655E-05 0.940993 0.3384262
vn -0.3626058 -0.03183553 0.9313987
vn 0.6378152 0.4417612 0.6309033
vn -0.1281287 0.4623058 0.8774146
vn 0.9231386 0.3844675 -9.786988E-05
vn 0.380855 0.9246348 -9.763948E-05
vn 0.3038809 0.9169788 0.2584694
vn 0 0.9158858 0.401439
vn 0 0.9158857 0.401439
vn 0 0.9158857 0.401439
vn 0.9976227 -0.06042442 0.03313462
vn 0 1 0
vn 0 1 0
vn 0.08075762 0.7071317 0.7024549
vn -6.542625E-06 0.940993 0.3384262
vn -0.3911049 0.1853375 0.9014915
vn -0.4999545 0.1588215 0.8513643
vn -0.3793007 0.1950209 0.9044876
vn -0.3506298 0.1928132 0.9164507
vn 0 1 0
vn 0.02232323 0.4660318 0.8844863
vn -2.16197E-05 0.9796197 0.200861
vn 0.1623858 0.1916669 0.9679332
vn -0.3874891 0.1943003 0.9011657
vn 0.03197008 -0.03414293 0.9989055
vn 0 0.9158858 0.401439
vn 0 0.9158858 0.401439
vn 0 0 -1
vn 0 0 -1
vn 0 0 -1
vn 0 0 -1
vn 0.9996281 0.02429287 0.01238603
vn -0.07135428 0.04226927 0.996555
vn 0.99971 0.02058631 0.01249679
vn 0.9996797 -0.01554747 0.01996808
vn 0 1 0
vn 0 1 0
vn 0 0 -1
vn 0 0 -1
vn 0 0.9158857 0.401439
vn 0 0.9158857 0.401439
vn 0.9970229 -0.06760798 0.03707384
vn -0.08679315 0.2050424 0.9748972
vn -0.08679315 0.2050424 0.9748972
vn 0 0.9158857 0.401439
vn 0 0.9158857 0.401439
vn 0.9970229 -0.06760798 0.03707384
vn 0.9970229 -0.06760798 0.03707384
vn 0.9970229 -0.06760798 0.03707384
vn 0 0 -1
vn 0.9231501 0.3844397 -2.833204E-05
vn 0 0 -1
vn 0.9231501 0.3844397 -2.833204E-05
vn 0 0 -1
vn 0.9231501 0.3844397 -2.833204E-05
vn 0.3808952 0.9246182 -2.822084E-05
vn 0.3808952 0.9246182 -2.822084E-05
vn 0.3808952 0.9246182 -2.822084E-05
vn 0 0 -1
vn 0 0 -1
vn 0 0 -1
vn 0 1 0
vn 0 1 0
vn 0 1 0
vn 0 1 0
vn 0 1 0
vn 0 1 0
vn 0 1 0
vn 3.642655E-05 0.940993 0.3384262
vn 3.642655E-05 0.940993 0.3384262
vn 3.642655E-05 0.940993 0.3384262
vn 3.642655E-05 0.940993 0.3384262
vn 3.642655E-05 0.940993 0.3384262
vn 3.642655E-05 0.940993 0.3384262
vn -0.3626058 -0.03183553 0.9313987
vn -0.3626058 -0.03183553 0.9313987
vn -0.3626058 -0.03183553 0.9313987
vn -0.3626058 -0.03183553 0.9313987
vn -0.3626058 -0.03183553 0.9313987
vn -0.3626058 -0.03183553 0.9313987
vn 0.6378152 0.4417612 0.6309033
vn 0.6378152 0.4417612 0.6309033
vn 0.6378152 0.4417612 0.6309033
vn 0.6378152 0.4417612 0.6309033
vn 0.6378152 0.4417612 0.6309033
vn 0.6378152 0.4417612 0.6309033
vn -0.1281287 0.4623058 0.8774146
vn -0.1281287 0.4623058 0.8774146
vn -0.1281287 0.4623058 0.8774146
vn -0.1281287 0.4623058 0.8774146
vn -0.1281287 0.4623058 0.8774146
vn -0.1281287 0.4623058 0.8774146
vn 0.9231386 0.3844675 -9.786988E-05
vn 0.9231386 0.3844675 -9.786988E-05
vn 0.9231386 0.3844675 -9.786988E-05
vn 0.9231386 0.3844675 -9.786988E-05
vn 0.9231386 0.3844675 -9.786988E-05
vn 0.380855 0.9246348 -9.763948E-05
vn 0.380855 0.9246348 -9.763948E-05
vn 0.380855 0.9246348 -9.763948E-05
vn 0.380855 0.9246348 -9.763948E-05
vn 0.380855 0.9246348 -9.763948E-05
vn 0.3038809 0.9169788 0.2584694
vn 0.3038809 0.9169788 0.2584694
vn 0.3038809 0.9169788 0.2584694
vn -0.04564378 -0.9432293 -0.3289911
vn 0 0.9158857 0.401439
vn 0 0.9158858 0.401439
vn -0.04564302 -0.9432295 -0.3289908
vn 0 0.9158858 0.401439
vn -0.04564299 -0.9432294 -0.328991
vn -0.04564378 -0.9432293 -0.3289911
vn 0.9951099 -0.08660745 0.04749254
vn -0.04564299 -0.9432294 -0.328991
vn -0.04564299 -0.9432294 -0.328991
vn -0.04564378 -0.9432293 -0.3289911
vn -0.04564302 -0.9432295 -0.3289908
vn 0.9976226 -0.06042453 0.03313468
vn -0.04564272 -0.9432295 -0.3289905
vn 0 1 0
vn 0 1 0
vn -0.6252081 -0.6392599 -0.4477293
vn -0.6252077 -0.6392594 -0.4477307
vn -0.6252069 -0.6392593 -0.4477319
vn -0.6252083 -0.6392586 -0.447731
vn 0 0 -1
vn -0.6252081 -0.6392599 -0.4477293
vn 0.08075611 0.7071384 0.7024484
vn -0.6252072 -0.639259 -0.4477319
vn -0.6252077 -0.6392593 -0.4477309
vn -0.6252035 -0.6392632 -0.4477312
vn -0.6252041 -0.6392627 -0.447731
vn -6.540712E-06 0.9409929 0.3384262
vn -6.540712E-06 0.9409929 0.3384262
vn -0.6252041 -0.6392627 -0.447731
vn -0.3911037 0.185337 0.9014921
vn -0.6251746 -0.6392989 -0.4477203
vn -0.6252074 -0.6392596 -0.4477307
vn -0.4999565 0.1588246 0.8513626
vn -0.6252074 -0.6392596 -0.4477307
vn -0.6252075 -0.6392595 -0.4477309
vn -0.6252077 -0.6392592 -0.4477311
vn -0.3793007 0.1950209 0.9044876
vn -0.3793008 0.1950209 0.9044876
vn -0.6252108 -0.6392561 -0.447731
vn -0.6251846 -0.6392871 -0.4477234
vn 0 0.9158858 0.401439
vn -0.6252034 -0.6392642 -0.4477298
vn -0.6252108 -0.6392561 -0.447731
vn 0 1 0
vn -0.6252083 -0.6392586 -0.447731
vn -0.6252098 -0.6392586 -0.4477289
vn -0.6252077 -0.6392593 -0.4477309
vn -0.6252035 -0.6392632 -0.4477312
vn 0.02232323 0.4660318 0.8844863
vn 0.02232325 0.4660318 0.8844863
vn -0.6252072 -0.639259 -0.4477319
vn -2.163011E-05 0.9795999 0.2009577
vn -0.6252035 -0.6392632 -0.4477312
vn -0.6252041 -0.6392627 -0.447731
vn 0.1623808 0.1916721 0.967933
vn 0.1623808 0.1916721 0.967933
vn -0.6252072 -0.639259 -0.4477319
vn -0.6252098 -0.6392586 -0.4477289
vn -0.6252077 -0.6392593 -0.4477309
vn -0.3874891 0.1943003 0.9011657
vn -0.3874888 0.1943006 0.9011657
vn -0.3874888 0.1943006 0.9011657
vn -0.6251846 -0.6392871 -0.4477234
vn -0.6251746 -0.6392989 -0.4477203
vn 0.0319895 -0.03414289 0.9989048
vn -0.6252069 -0.6392593 -0.4477319
vn -0.6252083 -0.6392586 -0.447731
vn -0.6252098 -0.6392586 -0.4477289
vn 0 0.9158858 0.401439
vn 0 0.9158858 0.401439
vn -0.625212 -0.6392552 -0.4477307
vn -0.6252034 -0.6392642 -0.4477298
vn -0.04564302 -0.9432295 -0.3289908
vn -0.04564272 -0.9432295 -0.3289905
vn -0.625212 -0.6392552 -0.4477307
vn 0 0 -1
vn 0 0 -1
vn -0.6252081 -0.6392599 -0.4477293
vn -0.625208 -0.6392528 -0.4477396
vn -0.6252077 -0.6392594 -0.4477307
vn 0.9973838 0.07228769 -5.327383E-06
vn -0.6252078 -0.6392595 -0.4477304
vn 0 0 -1
vn -0.6252078 -0.6392595 -0.4477304
vn -0.6252078 -0.6392595 -0.4477304
vn -0.6252075 -0.6392623 -0.4477268
vn 0 0 -1
vn 0 0 -1
vn -0.6252075 -0.6392623 -0.4477268
vn -0.625208 -0.6392528 -0.4477396
vn 0.9996281 0.0242927 0.01238604
vn -0.6252078 -0.6392595 -0.4477304
vn -0.6252079 -0.6392589 -0.4477312
vn -0.6252078 -0.6392595 -0.4477304
vn -0.07135411 0.04226925 0.996555
vn -0.6252077 -0.6392592 -0.4477311
vn -0.6252079 -0.6392589 -0.4477312
vn -0.6252078 -0.6392595 -0.4477304
vn -0.6252075 -0.6392623 -0.4477268
vn -0.625208 -0.6392528 -0.4477396
vn -0.6252077 -0.6392594 -0.4477307
vn -0.6252069 -0.6392593 -0.4477319
vn 0.99971 0.02058637 0.01249678
vn 0.99971 0.02058631 0.01249679
vn 0.99971 0.02058637 0.01249678
vn -0.6252075 -0.6392595 -0.4477309
vn -0.6252077 -0.6392592 -0.4477311
vn -0.6252079 -0.6392589 -0.4477312
vn 0.9996797 -0.01554747 0.01996808
vn -0.04564272 -0.9432295 -0.3289905
vn -0.625212 -0.6392552 -0.4477307
vn -0.6252034 -0.6392642 -0.4477298
vn -0.6252108 -0.6392561 -0.447731
vn -0.6251846 -0.6392871 -0.4477234
vn -0.6251746 -0.6392989 -0.4477203
vn -0.6252074 -0.6392596 -0.4477307
vn -0.6252075 -0.6392595 -0.4477309
g IL_Terminal_1_sh_2_0
f 1/1/1 5/5/5 4/4/4
f 10/10/10 8/8/8 2/2/2
f 98/98/98 3/3/3 61/61/61
f 67/67/67 11/11/11 62/62/62
f 6/6/6 9/9/9 12/12/12
f 68/68/68 74/74/74 103/103/103
f 92/92/92 86/86/86 108/108/108
f 99/99/99 104/104/104 87/87/87
f 105/105/105 100/100/100 63/63/63
f 75/75/75 109/109/109 106/106/106
f 107/107/107 110/110/110 88/88/88
f 14/14/14 45/45/45 13/13/13
f 115/115/115 15/15/15 46/46/46
f 118/118/118 16/16/16 47/47/47
f 17/17/17 41/41/41 18/18/18
f 69/69/69 42/42/42 125/125/125
f 20/20/20 19/19/19 76/76/76
f 22/22/22 21/21/21 7/7/7
f 24/24/24 48/48/48 23/23/23
f 49/49/49 89/89/89 148/148/148
f 126/126/126 25/25/25 70/70/70
f 26/26/26 93/93/93 77/77/77
f 133/133/133 160/160/160 78/78/78
f 138/138/138 79/79/79 71/71/71
f 27/27/27 139/139/139 72/72/72
f 94/94/94 161/161/161 28/28/28
f 29/29/29 95/95/95 80/80/80
f 141/141/141 171/171/171 81/81/81
f 149/149/149 90/90/90 172/172/172
f 91/91/91 96/96/96 173/173/173
f 155/155/155 163/163/163 73/73/73
f 30/30/30 82/82/82 166/166/166
f 83/83/83 97/97/97 167/167/167
f 31/31/31 32/32/32 112/112/112
f 33/33/33 131/131/131 43/43/43
f 180/180/180 50/50/50 152/152/152
f 113/113/113 51/51/51 181/181/181
f 55/55/55 34/34/34 35/35/35
f 187/187/187 44/44/44 64/64/64
f 37/37/37 192/192/192 56/56/56
f 36/36/36 65/65/65 57/57/57
f 38/38/38 144/144/144 84/84/84
f 58/58/58 101/101/101 39/39/39
f 214/214/214 102/102/102 52/52/52
f 188/188/188 66/66/66 198/198/198
f 199/199/199 59/59/59 194/194/194
f 206/206/206 85/85/85 176/176/176
f 202/202/202 60/60/60 215/215/215
f 40/40/40 216/216/216 53/53/53
f 54/54/54 123/123/123 220/220/220
g IL_Terminal_1_sh_2_1
f 120/120/120 119/119/119 116/116/116
f 121/121/121 117/117/117 111/111/111
f 122/122/122 114/114/114 184/184/184
f 221/221/221 124/124/124 185/185/185
f 222/222/222 186/186/186 182/182/182
f 223/223/223 183/183/183 153/153/153
f 224/224/224 154/154/154 150/150/150
f 225/225/225 151/151/151 174/174/174
f 226/226/226 175/175/175 142/142/142
f 227/227/227 143/143/143 145/145/145
f 168/168/168 162/162/162 134/134/134
f 195/195/195 193/193/193 203/203/203
f 127/127/127 132/132/132 189/189/189
f 217/217/217 228/228/228 146/146/146
f 218/218/218 147/147/147 207/207/207
f 204/204/204 219/219/219 208/208/208
f 196/196/196 205/205/205 209/209/209
f 200/200/200 197/197/197 210/210/210
f 190/190/190 201/201/201 211/211/211
f 128/128/128 191/191/191 212/212/212
f 129/129/129 213/213/213 177/177/177
f 156/156/156 130/130/130 178/178/178
f 157/157/157 179/179/179 169/169/169
f 158/158/158 170/170/170 135/135/135
f 164/164/164 159/159/159 136/136/136
f 137/137/137 140/140/140 165/165/165
