g IL_Terminal_1_sh_5
v -0.6307664 -0.04999998 -0.2488781
v -0.6307664 -0.04999998 -0.348878
v -0.7155983 -0.04999998 -0.2488781
v -0.7296287 -0.04999998 -0.3477403
v -0.6307664 -0.04999998 0.348878
v -0.7297901 -0.04999998 -0.348878
v -0.6307664 0.01291953 -0.348878
v -0.6307664 0.003902137 -0.2488781
v -0.5724086 0.04999998 -0.348878
v -0.5655484 0.04534156 -0.2488781
v -0.5589448 0.04999998 -0.2540082
v -0.5582169 0.04999998 -0.2488781
v 0.5984128 -0.04999998 -0.2488781
v 0.6025025 -0.04999998 -0.2607874
v 0.632754 -0.04999998 -0.348878
v 0.7268527 0.04697277 -0.348878
v 0.7297901 0.04999998 -0.348878
v 0.6094851 -0.03858938 -0.2488781
v 0.7287983 0.04999998 -0.3459898
v 0.6954488 0.04999998 -0.2488781
v -0.6307664 -0.04999998 -0.2488781
v -0.6307664 -0.04999998 -0.2488781
v -0.6307664 -0.04999998 -0.2488781
v -0.6307664 -0.04999998 -0.2488781
v -0.6307664 -0.04999998 -0.2488781
v -0.6307664 -0.04999998 -0.348878
v -0.6307664 -0.04999998 -0.348878
v -0.6307664 -0.04999998 -0.348878
v -0.6307664 -0.04999998 -0.348878
v -0.6307664 -0.04999998 -0.348878
v -0.6307664 -0.04999998 -0.348878
v -0.6307664 -0.04999998 -0.348878
v -0.6307664 -0.04999998 -0.348878
v -0.7155983 -0.04999998 -0.2488781
v -0.7155983 -0.04999998 -0.2488781
v -0.7155983 -0.04999998 -0.2488781
v -0.7155983 -0.04999998 -0.2488781
v -0.7296287 -0.04999998 -0.3477403
v -0.7296287 -0.04999998 -0.3477403
v -0.7296287 -0.04999998 -0.3477403
v -0.7296287 -0.04999998 -0.3477403
v -0.6307664 -0.04999998 0.348878
v -0.6307664 -0.04999998 0.348878
v -0.7297901 -0.04999998 -0.348878
v -0.7297901 -0.04999998 -0.348878
v -0.6307664 0.01291953 -0.348878
v -0.6307664 0.01291953 -0.348878
v -0.6307664 0.01291953 -0.348878
v -0.6307664 0.01291953 -0.348878
v -0.6307664 0.01291953 -0.348878
v -0.6307664 0.01291953 -0.348878
v -0.6307664 0.003902137 -0.2488781
v -0.6307664 0.003902137 -0.2488781
v -0.6307664 0.003902137 -0.2488781
v -0.6307664 0.003902137 -0.2488781
v -0.6307664 0.003902137 -0.2488781
v -0.5724086 0.04999998 -0.348878
v -0.5724086 0.04999998 -0.348878
v -0.5724086 0.04999998 -0.348878
v -0.5724086 0.04999998 -0.348878
v -0.5724086 0.04999998 -0.348878
v -0.5724086 0.04999998 -0.348878
v -0.5655484 0.04534156 -0.2488781
v -0.5655484 0.04534156 -0.2488781
v -0.5655484 0.04534156 -0.2488781
v -0.5655484 0.04534156 -0.2488781
v -0.5655484 0.04534156 -0.2488781
v -0.5655484 0.04534156 -0.2488781
v -0.5655484 0.04534156 -0.2488781
v -0.5589448 0.04999998 -0.2540082
v -0.5589448 0.04999998 -0.2540082
v -0.5589448 0.04999998 -0.2540082
v -0.5589448 0.04999998 -0.2540082
v -0.5582169 0.04999998 -0.2488781
v -0.5582169 0.04999998 -0.2488781
v 0.5984128 -0.04999998 -0.2488781
v 0.5984128 -0.04999998 -0.2488781
v 0.5984128 -0.04999998 -0.2488781
v 0.5984128 -0.04999998 -0.2488781
v 0.5984128 -0.04999998 -0.2488781
v 0.6025025 -0.04999998 -0.2607874
v 0.6025025 -0.04999998 -0.2607874
v 0.6025025 -0.04999998 -0.2607874
v 0.6025025 -0.04999998 -0.2607874
v 0.632754 -0.04999998 -0.348878
v 0.632754 -0.04999998 -0.348878
v 0.7268527 0.04697277 -0.348878
v 0.7268527 0.04697277 -0.348878
v 0.7268527 0.04697277 -0.348878
v 0.7268527 0.04697277 -0.348878
v 0.7268527 0.04697277 -0.348878
v 0.7268527 0.04697277 -0.348878
v 0.7268527 0.04697277 -0.348878
v 0.7297901 0.04999998 -0.348878
v 0.7297901 0.04999998 -0.348878
v 0.6094851 -0.03858938 -0.2488781
v 0.6094851 -0.03858938 -0.2488781
v 0.6094851 -0.03858938 -0.2488781
v 0.6094851 -0.03858938 -0.2488781
v 0.7287983 0.04999998 -0.3459898
v 0.7287983 0.04999998 -0.3459898
v 0.7287983 0.04999998 -0.3459898
v 0.7287983 0.04999998 -0.3459898
v 0.6954488 0.04999998 -0.2488781
v 0.6954488 0.04999998 -0.2488781
v 0.6954488 0.04999998 -0.2488781
v 0.6954488 0.04999998 -0.2488781
v 0.6954488 0.04999998 -0.2488781
vt 0.2573943 0.7085013
vt 0.2573943 0.7085013
vt 0.2573943 0.7085013
vt 0.2573943 0.7085014
vt 0.2573943 0.7085013
vt -0.2029524 1.774266E-08
vt -0.1778004 1.484522E-08
vt -0.1778004 0.02540006
vt 0.2573943 0.7085013
vt -0.161235 0.02540005
vt -0.1595576 0.024097
vt -0.1593728 0.02540005
vt 0.2573943 0.7085014
vt 0.2573943 0.7085013
vt 0.2573943 0.7085013
vt 0.2573943 0.7085013
vt 0.2573943 0.7085014
vt -0.002898294 0.02540004
vt 0.2573943 0.7085014
vt 0.2573943 0.7085013
vt 0.2573943 0.7085013
vt 0.2573943 0.7085013
vt 0.2573943 0.7085013
vt 0.2573943 0.7085013
vt 0.2573943 0.7085013
vt 0.2573943 0.7085013
vt 0.2573943 0.7085013
vt 0.2573943 0.7085013
vt 0.2573943 0.7085013
vt 0.2573943 0.7085013
vt 0.2573943 0.7085013
vt 0.2573943 0.7085013
vt 0.2573943 0.7085013
vt -0.1993477 0.02540006
vt 0.2573943 0.7085013
vt -0.1993477 0.02540006
vt -0.1993477 0.02540006
vt -0.2029114 0.0002890045
vt 0.2573943 0.7085013
vt -0.2029114 0.0002890045
vt 0.2573943 0.7085013
vt -0.1778003 0.1772304
vt 0.2573943 0.7085013
vt 0.2573943 0.7085013
vt 0.2573943 0.7085013
vt -0.1778004 1.484522E-08
vt -0.1778004 1.484522E-08
vt 0.2573943 0.7085013
vt -0.1778004 1.484522E-08
vt 0.2573943 0.7085013
vt -0.1778004 1.484522E-08
vt -0.1778004 0.02540006
vt 0.2573943 0.7085013
vt -0.1778004 0.02540006
vt 0.2573943 0.7085013
vt 0.2573943 0.7085013
vt -0.1629774 1.313767E-08
vt 0.2573943 0.7085013
vt -0.1629774 1.313767E-08
vt 0.2573943 0.7085013
vt 0.2573943 0.7085013
vt 0.2573943 0.7085013
vt -0.161235 0.02540005
vt 0.2573943 0.7085013
vt -0.161235 0.02540005
vt 0.2573943 0.7085013
vt -0.161235 0.02540005
vt 0.2573943 0.7085013
vt 0.2573943 0.7085013
vt 0.2573943 0.7085013
vt -0.1595576 0.024097
vt 0.2573943 0.7085013
vt 0.2573943 0.7085013
vt 0.2573943 0.7085013
vt 0.2573943 0.7085013
vt 0.2573943 0.7085013
vt 0.2573943 0.7085014
vt 0.2573943 0.7085013
vt 4.765054E-09 0.02540004
vt 0.2573943 0.7085013
vt 4.942688E-09 0.02237506
vt 0.2573943 0.7085013
vt 4.942688E-09 0.02237506
vt 4.942688E-09 0.02237506
vt 6.256606E-09 -6.061981E-23
vt 0.2573943 0.7085013
vt -0.02463112 -1.076661E-09
vt -0.02463112 -1.076661E-09
vt 0.2573943 0.7085013
vt 0.2573943 0.7085013
vt -0.02463112 -1.076661E-09
vt -0.02463112 -1.076661E-09
vt -0.02463112 -1.076661E-09
vt -0.02540003 -1.110271E-09
vt 0.2573943 0.7085013
vt 0.2573943 0.7085013
vt -0.002898294 0.02540004
vt 0.2573943 0.7085013
vt -0.002898294 0.02540004
vt -0.02540003 0.0007336119
vt 0.2573943 0.7085014
vt 0.2573943 0.7085013
vt -0.02540003 0.0007336119
vt -0.02540004 0.02540004
vt 0.2573943 0.7085013
vt 0.2573943 0.7085013
vt 0.2573943 0.7085013
vt -0.02540004 0.02540004
vn 0 -1 0
vn 0 -1 0
vn 0 -1 0
vn 0 -1 0
vn 0 -1 0
vn -0.5347489 0.8415961 0.07589194
vn -0.534749 0.8415962 0.07589024
vn -0.5347492 0.8415962 0.0758901
vn 0 0 -1
vn -0.5347492 0.8415962 0.07589008
vn -0.534741 0.8416014 0.07588936
vn -0.5347501 0.841597 0.07587364
vn 0 -1 0
vn 0 -1 0
vn 0 -1 0
vn 0 0 -1
vn 0 0 -1
vn 0.6968127 -0.6761596 0.2392913
vn 0 1 0
vn 0 0 1
vn 0 -1 0
vn 0 -1 0
vn 1 0 0
vn 0 -1 0
vn 0 0 1
vn 0 -1 0
vn 0 -1 0
vn 0 0 -1
vn 0 -1 0
vn 0 0 -1
vn 0 -1 0
vn 0 0 -1
vn 0 0 -1
vn -0.534749 0.8415962 0.07589024
vn 0 -1 0
vn -0.5347492 0.8415962 0.0758901
vn -0.5347492 0.8415961 0.07589017
vn -0.534749 0.8415962 0.07589024
vn 0 -1 0
vn -0.5347489 0.8415961 0.07589194
vn 0 -1 0
vn -0.5347492 0.8415961 0.07589017
vn 1 0 0
vn 0 -1 0
vn 0 0 -1
vn -0.5347489 0.8415961 0.07589194
vn -0.5347492 0.8415962 0.0758901
vn 0 0 -1
vn -0.5347492 0.8415962 0.07589008
vn 0 0 -1
vn -0.5347486 0.8415964 0.07588964
vn -0.5347492 0.8415961 0.07589017
vn 1 0 0
vn -0.5347492 0.8415962 0.07589008
vn 0 0 1
vn 0 0 1
vn -0.5347486 0.8415964 0.07588964
vn 0 0 -1
vn -0.534741 0.8416014 0.07588936
vn 0 0 -1
vn 0 1 0
vn 0 1 0
vn -0.5347486 0.8415964 0.07588964
vn 0 0 1
vn -0.534741 0.8416014 0.07588936
vn 0 0 1
vn -0.5347501 0.841597 0.07587364
vn 0 0 1
vn 0 0 1
vn 0 1 0
vn -0.5347501 0.841597 0.07587364
vn 0 1 0
vn 0 1 0
vn 0 1 0
vn 0 0 1
vn 0 0 1
vn 0 -1 0
vn 0 0 1
vn 0.6968127 -0.6761596 0.2392913
vn 0 0 1
vn 0.6968127 -0.6761596 0.2392913
vn 0 -1 0
vn 0.6968114 -0.6761603 0.2392931
vn 0.6968118 -0.6761593 0.2392946
vn 0.6968118 -0.6761593 0.2392946
vn 0 0 -1
vn 0.6968114 -0.6761603 0.2392931
vn 0.6968118 -0.6761593 0.2392946
vn 0 0 -1
vn 0 0 -1
vn 0.6968121 -0.6761588 0.239295
vn 0.6968099 -0.6761597 0.2392993
vn 0.696813 -0.6761578 0.2392953
vn 0.6968099 -0.6761597 0.2392993
vn 0 1 0
vn 0 0 1
vn 0.6968114 -0.6761603 0.2392931
vn 0 0 1
vn 0.6968121 -0.6761588 0.239295
vn 0.6968099 -0.6761597 0.2392993
vn 0 1 0
vn 0 1 0
vn 0.696813 -0.6761578 0.2392953
vn 0.6968121 -0.6761588 0.239295
vn 0 1 0
vn 0 1 0
vn 0 0 1
vn 0.696813 -0.6761578 0.2392953
g IL_Terminal_1_sh_5_0
f 1/1/1 3/3/3 4/4/4
f 21/21/21 5/5/5 35/35/35
f 2/2/2 22/22/22 39/39/39
f 53/53/53 43/43/43 23/23/23
f 13/13/13 24/24/24 26/26/26
f 44/44/44 27/27/27 41/41/41
f 45/45/45 48/48/48 28/28/28
f 55/55/55 25/25/25 76/76/76
f 14/14/14 77/77/77 29/29/29
f 50/50/50 9/9/9 30/30/30
f 64/64/64 56/56/56 78/78/78
f 15/15/15 82/82/82 31/31/31
f 32/32/32 58/58/58 16/16/16
f 80/80/80 96/96/96 66/66/66
f 89/89/89 86/86/86 33/33/33
f 90/90/90 60/60/60 17/17/17
f 61/61/61 70/70/70 19/19/19
f 20/20/20 68/68/68 98/98/98
f 95/95/95 62/62/62 101/101/101
f 105/105/105 102/102/102 72/72/72
f 73/73/73 74/74/74 106/106/106
f 75/75/75 69/69/69 107/107/107
g IL_Terminal_1_sh_5_1
f 7/7/7 38/38/38 34/34/34
f 46/46/46 6/6/6 40/40/40
f 47/47/47 36/36/36 8/8/8
f 37/37/37 42/42/42 52/52/52
f 49/49/49 54/54/54 10/10/10
f 57/57/57 51/51/51 63/63/63
f 18/18/18 79/79/79 81/81/81
f 65/65/65 11/11/11 59/59/59
f 97/97/97 83/83/83 87/87/87
f 84/84/84 85/85/85 88/88/88
f 67/67/67 12/12/12 71/71/71
f 104/104/104 99/99/99 91/91/91
f 92/92/92 94/94/94 100/100/100
f 93/93/93 103/103/103 108/108/108
