g IL_UB_CompTable.001_sh_3
v 0.8261583 0.3568253 0.3381964
v 0.8261583 0.4568252 0.3381964
v -0.1194882 0.4568252 0.1555028
v 0.9261583 0.3568254 0.3381964
v -0.1194882 0.4858268 0.1555028
v 0.9261583 0.4568252 0.3381964
v -0.1516538 0.4858268 0.1277553
v 0.8261583 0.3568253 0.2231692
v 0.8261583 0.2893131 0.2323851
v 0.8415476 -0.4046705 0.3381964
v 0.8261583 -0.4858269 0.3381964
v 0.8261583 0.4568252 0.2095185
v 0.9219232 0.4568252 0.2784573
v 0.9261583 0.3568254 0.2951566
v 0.9261583 0.4528447 0.2820494
v 0.9261583 0.04152936 0.3381964
v 0.9261583 0.4568252 0.281506
v -0.9261583 0.3568253 0.3381964
v -0.8333745 0.4398019 0.3381964
v -0.04389149 0.3568253 -0.2754341
v -0.814339 0.4568252 0.3381964
v -0.6950585 0.4568252 0.255235
v -0.6029207 0.4568252 0.1911516
v -0.5924656 0.4651839 0.1903807
v -0.1273928 0.4568252 -0.1395855
v -0.1405724 0.4568252 -0.1304188
v -0.566645 0.4858268 0.1884766
v -0.1389903 0.4858268 -0.1089639
v -0.1391751 0.482438 -0.111471
v -0.5486141 0.4858268 0.1759359
v -0.1651125 0.4858268 -0.09079549
v -0.1676403 0.4858268 -0.08903739
v -0.518204 0.4858268 0.1547851
v 0.04634708 0.3568253 -0.3381964
v 0.110939 0.4568252 -0.305349
v 0.8261583 0.3568253 0.3381964
v 0.8261583 0.3568253 0.3381964
v 0.8261583 0.3568253 0.3381964
v 0.8261583 0.3568253 0.3381964
v 0.8261583 0.3568253 0.3381964
v 0.8261583 0.3568253 0.3381964
v 0.8261583 0.3568253 0.3381964
v 0.8261583 0.3568253 0.3381964
v 0.8261583 0.4568252 0.3381964
v 0.8261583 0.4568252 0.3381964
v 0.8261583 0.4568252 0.3381964
v 0.8261583 0.4568252 0.3381964
v 0.8261583 0.4568252 0.3381964
v 0.8261583 0.4568252 0.3381964
v 0.8261583 0.4568252 0.3381964
v 0.8261583 0.4568252 0.3381964
v 0.8261583 0.4568252 0.3381964
v -0.1194882 0.4568252 0.1555028
v -0.1194882 0.4568252 0.1555028
v -0.1194882 0.4568252 0.1555028
v -0.1194882 0.4568252 0.1555028
v -0.1194882 0.4568252 0.1555028
v -0.1194882 0.4568252 0.1555028
v -0.1194882 0.4568252 0.1555028
v -0.1194882 0.4568252 0.1555028
v -0.1194882 0.4568252 0.1555028
v 0.9261583 0.3568254 0.3381964
v 0.9261583 0.3568254 0.3381964
v 0.9261583 0.3568254 0.3381964
v 0.9261583 0.3568254 0.3381964
v 0.9261583 0.3568254 0.3381964
v -0.1194882 0.4858268 0.1555028
v -0.1194882 0.4858268 0.1555028
v -0.1194882 0.4858268 0.1555028
v -0.1194882 0.4858268 0.1555028
v -0.1194882 0.4858268 0.1555028
v 0.9261583 0.4568252 0.3381964
v 0.9261583 0.4568252 0.3381964
v 0.9261583 0.4568252 0.3381964
v 0.9261583 0.4568252 0.3381964
v 0.9261583 0.4568252 0.3381964
v -0.1516538 0.4858268 0.1277553
v -0.1516538 0.4858268 0.1277553
v -0.1516538 0.4858268 0.1277553
v -0.1516538 0.4858268 0.1277553
v -0.1516538 0.4858268 0.1277553
v 0.8261583 0.3568253 0.2231692
v 0.8261583 0.3568253 0.2231692
v 0.8261583 0.3568253 0.2231692
v 0.8261583 0.3568253 0.2231692
v 0.8261583 0.3568253 0.2231692
v 0.8261583 0.3568253 0.2231692
v 0.8261583 0.3568253 0.2231692
v 0.8261583 0.3568253 0.2231692
v 0.8261583 0.2893131 0.2323851
v 0.8261583 0.2893131 0.2323851
v 0.8261583 0.2893131 0.2323851
v 0.8261583 0.2893131 0.2323851
v 0.8261583 0.2893131 0.2323851
v 0.8415476 -0.4046705 0.3381964
v 0.8415476 -0.4046705 0.3381964
v 0.8415476 -0.4046705 0.3381964
v 0.8415476 -0.4046705 0.3381964
v 0.8261583 -0.4858269 0.3381964
v 0.8261583 -0.4858269 0.3381964
v 0.8261583 0.4568252 0.2095185
v 0.8261583 0.4568252 0.2095185
v 0.8261583 0.4568252 0.2095185
v 0.9219232 0.4568252 0.2784573
v 0.9219232 0.4568252 0.2784573
v 0.9219232 0.4568252 0.2784573
v 0.9219232 0.4568252 0.2784573
v 0.9219232 0.4568252 0.2784573
v 0.9261583 0.3568254 0.2951566
v 0.9261583 0.3568254 0.2951566
v 0.9261583 0.3568254 0.2951566
v 0.9261583 0.3568254 0.2951566
v 0.9261583 0.3568254 0.2951566
v 0.9261583 0.4528447 0.2820494
v 0.9261583 0.4528447 0.2820494
v 0.9261583 0.4528447 0.2820494
v 0.9261583 0.4528447 0.2820494
v 0.9261583 0.04152936 0.3381964
v 0.9261583 0.04152936 0.3381964
v 0.9261583 0.04152936 0.3381964
v 0.9261583 0.4568252 0.281506
v 0.9261583 0.4568252 0.281506
v -0.9261583 0.3568253 0.3381964
v -0.9261583 0.3568253 0.3381964
v -0.8333745 0.4398019 0.3381964
v -0.8333745 0.4398019 0.3381964
v -0.8333745 0.4398019 0.3381964
v -0.8333745 0.4398019 0.3381964
v -0.04389149 0.3568253 -0.2754341
v -0.04389149 0.3568253 -0.2754341
v -0.04389149 0.3568253 -0.2754341
v -0.04389149 0.3568253 -0.2754341
v -0.04389149 0.3568253 -0.2754341
v -0.04389149 0.3568253 -0.2754341
v -0.04389149 0.3568253 -0.2754341
v -0.04389149 0.3568253 -0.2754341
v -0.04389149 0.3568253 -0.2754341
v -0.04389149 0.3568253 -0.2754341
v -0.04389149 0.3568253 -0.2754341
v -0.04389149 0.3568253 -0.2754341
v -0.04389149 0.3568253 -0.2754341
v -0.814339 0.4568252 0.3381964
v -0.814339 0.4568252 0.3381964
v -0.814339 0.4568252 0.3381964
v -0.814339 0.4568252 0.3381964
v -0.6950585 0.4568252 0.255235
v -0.6950585 0.4568252 0.255235
v -0.6950585 0.4568252 0.255235
v -0.6029207 0.4568252 0.1911516
v -0.6029207 0.4568252 0.1911516
v -0.6029207 0.4568252 0.1911516
v -0.5924656 0.4651839 0.1903807
v -0.5924656 0.4651839 0.1903807
v -0.5924656 0.4651839 0.1903807
v -0.5924656 0.4651839 0.1903807
v -0.1273928 0.4568252 -0.1395855
v -0.1273928 0.4568252 -0.1395855
v -0.1273928 0.4568252 -0.1395855
v -0.1273928 0.4568252 -0.1395855
v -0.1273928 0.4568252 -0.1395855
v -0.1405724 0.4568252 -0.1304188
v -0.1405724 0.4568252 -0.1304188
v -0.1405724 0.4568252 -0.1304188
v -0.1405724 0.4568252 -0.1304188
v -0.1405724 0.4568252 -0.1304188
v -0.1405724 0.4568252 -0.1304188
v -0.566645 0.4858268 0.1884766
v -0.566645 0.4858268 0.1884766
v -0.566645 0.4858268 0.1884766
v -0.566645 0.4858268 0.1884766
v -0.1389903 0.4858268 -0.1089639
v -0.1389903 0.4858268 -0.1089639
v -0.1389903 0.4858268 -0.1089639
v -0.1391751 0.482438 -0.111471
v -0.1391751 0.482438 -0.111471
v -0.1391751 0.482438 -0.111471
v -0.5486141 0.4858268 0.1759359
v -0.5486141 0.4858268 0.1759359
v -0.5486141 0.4858268 0.1759359
v -0.1651125 0.4858268 -0.09079549
v -0.1651125 0.4858268 -0.09079549
v -0.1651125 0.4858268 -0.09079549
v -0.1651125 0.4858268 -0.09079549
v -0.1651125 0.4858268 -0.09079549
v -0.1676403 0.4858268 -0.08903739
v -0.1676403 0.4858268 -0.08903739
v -0.1676403 0.4858268 -0.08903739
v -0.518204 0.4858268 0.1547851
v -0.518204 0.4858268 0.1547851
v -0.518204 0.4858268 0.1547851
v -0.518204 0.4858268 0.1547851
v 0.04634708 0.3568253 -0.3381964
v 0.04634708 0.3568253 -0.3381964
v 0.04634708 0.3568253 -0.3381964
v 0.110939 0.4568252 -0.305349
v 0.110939 0.4568252 -0.305349
v 0.110939 0.4568252 -0.305349
v 0.110939 0.4568252 -0.305349
vt 0.6168087 0.9224514
vt 0.6168087 0.9224514
vt 0.6168087 0.9224514
vt 0.6168087 0.9224514
vt 0.6112719 0.8553951
vt 0.6168087 0.9224514
vt 0.6112718 0.855395
vt 0.2540005 0.2286004
vt 0.2540005 0.2114523
vt 0.6168087 0.9224515
vt 0.6168087 0.9224515
vt 0.6168087 0.9224514
vt 0.6168087 0.9224514
vt 0.6168087 0.9224514
vt 0.6168088 0.9224514
vt 0.6168087 0.9224514
vt 0.6168087 0.9224514
vt 0.6168087 0.9224514
vt 0.6168087 0.9224514
vt 0.6168088 0.9224514
vt 0.6168087 0.9224514
vt -0.1323893 0.2540005
vt -0.1089863 0.2540005
vt -0.1063307 0.2561236
vt 0.6168087 0.9224514
vt 0.6168087 0.9224515
vt -0.09977222 0.2613669
vt 0.6112719 0.8553951
vt 0.6112719 0.8553951
vt -0.09519237 0.2613669
vt 0.002217224 0.2613669
vt 0.001575178 0.2613669
vt -0.08746818 0.2613669
vt 0.6168087 0.9224514
vt 0.6168087 0.9224514
vt 0.6168087 0.9224514
vt 0.6168087 0.9224514
vt 0.6168087 0.9224514
vt 0.6168087 0.9224514
vt 0.6168087 0.9224514
vt 0.6168087 0.9224514
vt 0.6168087 0.9224514
vt 0.6168087 0.9224514
vt 0.6168087 0.9224514
vt 0.6168087 0.9224514
vt 0.6168087 0.9224514
vt 0.6168087 0.9224514
vt 0.6168087 0.9224514
vt 0.6168087 0.9224514
vt 0.6168087 0.9224514
vt 0.6168087 0.9224514
vt 0.6168087 0.9224514
vt 0.6168087 0.9224514
vt 0.6168087 0.9224514
vt 0.6168087 0.9224514
vt 0.6168087 0.9224514
vt 0.6112719 0.8553951
vt 0.6112719 0.8553951
vt 0.6112719 0.8553951
vt 0.6112719 0.8553951
vt 0.6112719 0.8553951
vt 0.6168087 0.9224514
vt 0.6168087 0.9224514
vt 0.6168087 0.9224514
vt 0.6168087 0.9224514
vt 0.6168087 0.9224514
vt 0.6112719 0.8553951
vt 0.6112719 0.8553951
vt 0.6112719 0.8553951
vt 0.6112719 0.8553951
vt 0.6112719 0.8553951
vt 0.6168087 0.9224514
vt 0.6168087 0.9224514
vt 0.6168087 0.9224514
vt 0.6168087 0.9224514
vt 0.6168087 0.9224514
vt 0.6112718 0.855395
vt 0.6112718 0.855395
vt 0.5903552 0.8621622
vt 0.6112718 0.855395
vt 0.6112718 0.855395
vt 0.2540005 0.2286004
vt 0.6168087 0.9224515
vt 0.6168087 0.9224514
vt 0.2540005 0.2286004
vt 0.2540005 0.2286004
vt 0.2540005 0.2286004
vt 0.6168087 0.9224514
vt 0.2540005 0.2286004
vt 0.2540005 0.2114523
vt 0.6168087 0.9224514
vt 0.2540005 0.2114523
vt 0.6168088 0.9224514
vt 0.2540005 0.2114523
vt 0.6168087 0.9224515
vt 0.6168087 0.9224515
vt 0.2579094 0.03518011
vt 0.2579094 0.03518011
vt 0.2540005 0.01456636
vt 0.6168087 0.9224515
vt 0.6168087 0.9224514
vt 0.2540005 0.2540005
vt 0.2540005 0.2540005
vt 0.6168087 0.9224514
vt 0.6168087 0.9224515
vt 0.2783248 0.2540005
vt 0.2783248 0.2540005
vt 0.2783248 0.2540005
vt 0.6168087 0.9224514
vt 0.6168087 0.9224514
vt 0.2794006 0.2286005
vt 0.2794006 0.2286005
vt 0.2794006 0.2286005
vt 0.2794006 0.2529894
vt 0.6168087 0.9224514
vt 0.2794006 0.2529894
vt 0.2794006 0.2529894
vt 0.6168087 0.9224514
vt 0.2794006 0.1485151
vt 0.2794006 0.1485151
vt 0.2794006 0.2540005
vt 0.6168087 0.9224514
vt 0.6168087 0.9224514
vt -0.1910888 0.2286004
vt 0.6168087 0.9224514
vt 0.6168087 0.9224514
vt -0.1675217 0.2496765
vt -0.1675217 0.2496765
vt 0.03300743 0.2286004
vt 0.03300743 0.2286004
vt 0.6168087 0.9224515
vt 0.03300743 0.2286004
vt 0.6168087 0.9224515
vt 0.03300743 0.2286004
vt 0.03300743 0.2286004
vt 0.03300743 0.2286004
vt 0.03300743 0.2286004
vt 0.03300743 0.2286004
vt 0.03300743 0.2286004
vt 0.03300743 0.2286004
vt 0.03300743 0.2286004
vt -0.1626866 0.2540005
vt 0.6168087 0.9224514
vt -0.1626866 0.2540005
vt 0.6168087 0.9224514
vt 0.6168087 0.9224514
vt -0.1323893 0.2540005
vt 0.6168087 0.9224514
vt 0.6168087 0.9224514
vt -0.1089863 0.2540005
vt 0.6112719 0.8553951
vt 0.6112719 0.8553951
vt -0.1063307 0.2561236
vt 0.6112719 0.8553951
vt 0.6112719 0.8553951
vt 0.6168087 0.9224514
vt 0.6168087 0.9224514
vt 0.01179806 0.2540005
vt 0.01179806 0.2540005
vt 0.01179806 0.2540005
vt 0.6112719 0.8553951
vt 0.008450438 0.2540005
vt 0.008450438 0.2540005
vt 0.008450438 0.2540005
vt 0.008450438 0.2540005
vt 0.008450438 0.2540005
vt -0.09977222 0.2613669
vt 0.6112719 0.8553951
vt 0.6112719 0.8553951
vt 0.6112719 0.8553951
vt 0.6112719 0.8553951
vt 0.008852294 0.2613669
vt 0.6112718 0.8553951
vt 0.6112719 0.8553951
vt 0.008805336 0.2605061
vt 0.008805336 0.2605061
vt -0.09519237 0.2613669
vt 0.6112719 0.8553951
vt 0.6112718 0.8553951
vt 0.002217224 0.2613669
vt 0.002217224 0.2613669
vt 0.6112718 0.8553951
vt 0.6112718 0.855395
vt 0.6112718 0.855395
vt 0.001575178 0.2613669
vt 0.6112719 0.8553951
vt 0.5903552 0.8621622
vt -0.08746818 0.2613669
vt -0.08746818 0.2613669
vt 0.5903552 0.8621622
vt 0.6112718 0.855395
vt 0.05592807 0.2286004
vt 0.05592807 0.2286004
vt 0.05592807 0.2286004
vt 0.6168087 0.9224514
vt 0.07233445 0.2540005
vt 0.07233445 0.2540005
vt 0.07233445 0.2540005
vn 0 0 1
vn 0 0 1
vn 0 1 0
vn 0 0 1
vn 0.07354137 0 0.9972922
vn 0 0 1
vn -3.633218E-06 1 0
vn 0.5806852 -0.1101133 -0.8066473
vn 0.5806842 -0.1101123 -0.8066481
vn 0 0 1
vn 0 0 1
vn 0 1 0
vn 0 1 0
vn 1 0 0
vn 1 0 0
vn 0 0 1
vn 0 1 0
vn 0 0 1
vn 0 0 1
vn 0 -1 0
vn 0 0 1
vn -0.4812587 0.5381457 -0.691946
vn -0.4812602 0.5381429 -0.6919472
vn -0.4812617 0.5381401 -0.6919484
vn 0 1 0
vn 0 1 0
vn -0.4812596 0.5381439 -0.6919468
vn 0.9972922 0 -0.07354122
vn 0.9972922 0 -0.07354121
vn -0.4812572 0.5381481 -0.6919453
vn -0.4812601 0.5381432 -0.6919471
vn -0.4812648 0.5381389 -0.6919471
vn -0.4812599 0.5381433 -0.691947
vn 0 -1 0
vn 0 1 0
vn 0 0 1
vn 0 0 1
vn 0 0 1
vn 0 0 1
vn -1 0 0
vn 0 -1 0
vn -1 0 0
vn 0 -1 0
vn 0 0 1
vn 0 0 1
vn 0 1 0
vn 0 0 1
vn 0 1 0
vn 0 1 0
vn 0 1 0
vn 0 1 0
vn 0 1 0
vn 0 1 0
vn 0 1 0
vn 0 1 0
vn 0 1 0
vn 0.07354137 0 0.9972922
vn 0.9972922 0 -0.07354122
vn 0.07354137 0 0.9972922
vn 0.9972922 0 -0.07354122
vn 0.9972922 0 -0.07354122
vn 0 0 1
vn 0 0 1
vn 1 0 0
vn 0 0 1
vn 1 0 0
vn 0.07354137 0 0.9972922
vn 0.9972922 0 -0.07354122
vn -3.633218E-06 1 0
vn -3.633218E-06 1 0
vn -3.633218E-06 1 0
vn 0 1 0
vn 1 0 0
vn 0 1 0
vn 1 0 0
vn 1 0 0
vn -3.633218E-06 1 0
vn -3.633218E-06 1 0
vn 0 1 0
vn -3.633218E-06 1 0
vn -3.633218E-06 1 0
vn 0.5806843 -0.1101119 -0.806648
vn -1 0 0
vn 0 -1 0
vn 0.5806845 -0.1101135 -0.8066477
vn 0.5806848 -0.1101128 -0.8066476
vn 0.5806843 -0.1101125 -0.806648
vn 0 -1 0
vn 0.5806845 -0.1101129 -0.8066478
vn 0.5806832 -0.1101125 -0.8066488
vn -1 0 0
vn 0.5806842 -0.1101123 -0.8066481
vn -1 0 0
vn 0.5806843 -0.1101125 -0.806648
vn 0 0 1
vn 0 0 1
vn 0.5806842 -0.1101123 -0.8066481
vn 0.5806832 -0.1101125 -0.8066488
vn 0.5806832 -0.1101125 -0.8066488
vn -1 0 0
vn 0 1 0
vn 0.5806852 -0.1101133 -0.8066473
vn 0.5806845 -0.1101135 -0.8066477
vn 0 1 0
vn 0 1 0
vn 0.5806852 -0.1101133 -0.8066473
vn 0.5806853 -0.1101121 -0.8066474
vn 0.5806848 -0.1101128 -0.8066476
vn 1 0 0
vn 1 0 0
vn 0.5806843 -0.1101119 -0.806648
vn 0.5806842 -0.1101123 -0.8066481
vn 0.5806843 -0.1101125 -0.806648
vn 0.5806853 -0.1101121 -0.8066474
vn 1 0 0
vn 0.5806843 -0.1101119 -0.806648
vn 0.5806848 -0.1101128 -0.8066476
vn 1 0 0
vn 0.5806842 -0.1101123 -0.8066481
vn 0.5806842 -0.1101123 -0.8066481
vn 0.5806853 -0.1101121 -0.8066474
vn 1 0 0
vn 0 -1 0
vn -0.4812605 0.538142 -0.6919476
vn 0 0 1
vn 0 0 1
vn -0.4812605 0.538142 -0.6919476
vn -0.4812596 0.5381438 -0.6919468
vn -0.4812605 0.538142 -0.6919476
vn -0.4812596 0.5381438 -0.6919468
vn 0 -1 0
vn -0.4812587 0.5381457 -0.691946
vn 0 -1 0
vn -0.4812602 0.5381429 -0.6919472
vn -0.4812595 0.5381434 -0.6919472
vn -0.4812617 0.5381401 -0.6919484
vn -0.4812634 0.53814 -0.6919472
vn -0.4812596 0.5381439 -0.6919468
vn -0.4812599 0.5381433 -0.691947
vn -0.4812572 0.5381481 -0.6919453
vn -0.4812607 0.538142 -0.6919475
vn -0.4812596 0.5381438 -0.6919468
vn 0 1 0
vn -0.4812587 0.5381457 -0.691946
vn 0 1 0
vn 0 1 0
vn -0.4812602 0.5381429 -0.6919472
vn 0 1 0
vn 0 1 0
vn -0.4812617 0.5381401 -0.6919484
vn 0.07354137 0 0.9972922
vn 0.07354137 0 0.9972922
vn -0.4812596 0.5381439 -0.6919468
vn 0.07354137 0 0.9972922
vn 0.07354137 0 0.9972922
vn 0 1 0
vn 0 1 0
vn -0.4812603 0.5381425 -0.6919474
vn -0.4812595 0.5381434 -0.6919472
vn -0.4812634 0.53814 -0.6919472
vn 0.9972922 0 -0.07354122
vn -0.4812634 0.53814 -0.6919472
vn -0.4812601 0.5381432 -0.6919471
vn -0.4812599 0.5381433 -0.691947
vn -0.4812648 0.5381389 -0.6919471
vn -0.4812599 0.5381435 -0.6919469
vn -0.4812572 0.5381481 -0.6919453
vn 0.07354137 0 0.9972922
vn -1.188313E-06 1 0
vn -1.188313E-06 1 0
vn 0.9972922 0 -0.07354122
vn -0.4812578 0.5381477 -0.6919451
vn -4.546711E-07 1 0
vn 0.9972922 0 -0.07354121
vn -0.4812601 0.5381432 -0.6919471
vn -0.4812578 0.5381477 -0.6919451
vn -0.4812607 0.538142 -0.6919475
vn -1.352363E-06 1 0
vn -1.352252E-06 1 0
vn -0.4812578 0.5381477 -0.6919451
vn -0.4812648 0.5381389 -0.6919471
vn -3.633218E-06 1 0
vn -3.633218E-06 1 0
vn -3.633218E-06 1 0
vn -0.4812599 0.5381435 -0.6919469
vn -3.633218E-06 1 0
vn 0 1 0
vn -0.4812599 0.5381435 -0.6919469
vn -0.4812607 0.538142 -0.6919475
vn 0 1 0
vn -1.430379E-06 1 0
vn -0.4812603 0.5381425 -0.6919474
vn 0.5806845 -0.1101129 -0.8066478
vn -0.4812595 0.5381434 -0.6919472
vn 0 1 0
vn 0.5806845 -0.1101135 -0.8066477
vn -0.4812603 0.5381425 -0.6919474
vn 0.5806845 -0.1101129 -0.8066478
g IL_UB_CompTable.001_sh_3_0
f 1/1/1 4/4/4 2/2/2
f 62/62/62 6/6/6 44/44/44
f 63/63/63 36/36/36 10/10/10
f 37/37/37 45/45/45 19/19/19
f 46/46/46 72/72/72 13/13/13
f 73/73/73 64/64/64 14/14/14
f 95/95/95 16/16/16 65/65/65
f 96/96/96 38/38/38 11/11/11
f 125/125/125 18/18/18 39/39/39
f 126/126/126 47/47/47 21/21/21
f 12/12/12 48/48/48 104/104/104
f 74/74/74 17/17/17 105/105/105
f 15/15/15 75/75/75 109/109/109
f 66/66/66 118/118/118 110/110/110
f 91/91/91 100/100/100 40/40/40
f 41/41/41 123/123/123 20/20/20
f 143/143/143 49/49/49 3/3/3
f 50/50/50 101/101/101 35/35/35
f 115/115/115 122/122/122 76/76/76
f 83/83/83 93/93/93 42/42/42
f 84/84/84 43/43/43 131/131/131
f 146/146/146 145/145/145 53/53/53
f 54/54/54 51/51/51 25/25/25
f 195/195/195 156/156/156 52/52/52
f 34/34/34 88/88/88 133/133/133
f 149/149/149 148/148/148 55/55/55
f 26/26/26 56/56/56 157/157/157
f 151/151/151 57/57/57 152/152/152
f 161/161/161 29/29/29 58/58/58
f 59/59/59 5/5/5 154/154/154
f 174/174/174 28/28/28 60/60/60
f 67/67/67 168/168/168 155/155/155
f 171/171/171 68/68/68 61/61/61
f 178/178/178 169/169/169 7/7/7
f 170/170/170 69/69/69 77/77/77
f 70/70/70 173/173/173 182/182/182
f 186/186/186 78/78/78 183/183/183
f 187/187/187 190/190/190 79/79/79
f 191/191/191 179/179/179 80/80/80
f 81/81/81 71/71/71 184/184/184
g IL_UB_CompTable.001_sh_3_1
f 119/119/119 97/97/97 9/9/9
f 98/98/98 99/99/99 90/90/90
f 129/129/129 124/124/124 127/127/127
f 130/130/130 128/128/128 142/142/142
f 8/8/8 102/102/102 106/106/106
f 107/107/107 121/121/121 114/114/114
f 82/82/82 116/116/116 111/111/111
f 112/112/112 120/120/120 92/92/92
f 132/132/132 144/144/144 22/22/22
f 103/103/103 85/85/85 196/196/196
f 86/86/86 108/108/108 117/117/117
f 113/113/113 94/94/94 87/87/87
f 134/134/134 147/147/147 23/23/23
f 158/158/158 197/197/197 192/192/192
f 198/198/198 89/89/89 193/193/193
f 159/159/159 194/194/194 135/135/135
f 136/136/136 150/150/150 24/24/24
f 162/162/162 160/160/160 137/137/137
f 138/138/138 153/153/153 27/27/27
f 31/31/31 175/175/175 163/163/163
f 164/164/164 139/139/139 33/33/33
f 140/140/140 167/167/167 30/30/30
f 180/180/180 172/172/172 176/176/176
f 32/32/32 181/181/181 165/165/165
f 166/166/166 188/188/188 185/185/185
f 141/141/141 177/177/177 189/189/189
