g IL_UB_Table_sh_10
v -0.06120378 -0.1635364 0.06120375
v -0.06120378 -0.1635364 -0.06120375
v -0.06120378 0.0272392 -0.06120375
v 0.06120378 -0.1635364 0.06120375
v 0.06120378 0.0272392 -0.06120375
v -0.06120378 0.0272392 0.06120378
v 0.06120378 -0.1635364 -0.06120375
v -0.06120378 0.1635364 -0.06120375
v -0.06120378 0.1635364 0.06120375
v 0.06120378 0.0272392 0.06120378
v 0.06120378 0.1635364 -0.06120375
v 0.06120378 0.1635364 0.06120375
v -0.06120378 -0.1635364 0.06120375
v -0.06120378 -0.1635364 0.06120375
v -0.06120378 -0.1635364 0.06120375
v -0.06120378 -0.1635364 -0.06120375
v -0.06120378 -0.1635364 -0.06120375
v -0.06120378 -0.1635364 -0.06120375
v -0.06120378 -0.1635364 -0.06120375
v -0.06120378 0.0272392 -0.06120375
v -0.06120378 0.0272392 -0.06120375
v -0.06120378 0.0272392 -0.06120375
v -0.06120378 0.0272392 -0.06120375
v -0.06120378 0.0272392 -0.06120375
v 0.06120378 -0.1635364 0.06120375
v 0.06120378 -0.1635364 0.06120375
v 0.06120378 -0.1635364 0.06120375
v 0.06120378 -0.1635364 0.06120375
v 0.06120378 0.0272392 -0.06120375
v 0.06120378 0.0272392 -0.06120375
v 0.06120378 0.0272392 -0.06120375
v 0.06120378 0.0272392 -0.06120375
v 0.06120378 0.0272392 -0.06120375
v -0.06120378 0.0272392 0.06120378
v -0.06120378 0.0272392 0.06120378
v -0.06120378 0.0272392 0.06120378
v -0.06120378 0.0272392 0.06120378
v -0.06120378 0.0272392 0.06120378
v 0.06120378 -0.1635364 -0.06120375
v 0.06120378 -0.1635364 -0.06120375
v 0.06120378 -0.1635364 -0.06120375
v -0.06120378 0.1635364 -0.06120375
v -0.06120378 0.1635364 -0.06120375
v -0.06120378 0.1635364 -0.06120375
v -0.06120378 0.1635364 0.06120375
v -0.06120378 0.1635364 0.06120375
v -0.06120378 0.1635364 0.06120375
v -0.06120378 0.1635364 0.06120375
v 0.06120378 0.0272392 0.06120378
v 0.06120378 0.0272392 0.06120378
v 0.06120378 0.0272392 0.06120378
v 0.06120378 0.0272392 0.06120378
v 0.06120378 0.0272392 0.06120378
v 0.06120378 0.1635364 -0.06120375
v 0.06120378 0.1635364 -0.06120375
v 0.06120378 0.1635364 -0.06120375
v 0.06120378 0.1635364 -0.06120375
v 0.06120378 0.1635364 0.06120375
v 0.06120378 0.1635364 0.06120375
v 0.06120378 0.1635364 0.06120375
vt 0.4820013 0.8576924
vt 0.4820013 0.8576924
vt 0.4820013 0.8576924
vt 0.4790716 0.7629658
vt 0.4820013 0.8576924
vt 0.4820013 0.8576924
vt 0.4790716 0.7629658
vt 0.4790716 0.7629658
vt 0.4790716 0.7629658
vt 0.4820013 0.8576924
vt 0.4790716 0.7629658
vt 0.4790716 0.7629658
vt 0.4790716 0.7629658
vt 0.4820013 0.8576924
vt 0.4820013 0.8576924
vt 0.4790716 0.7629658
vt 0.4820013 0.8576924
vt 0.4790716 0.7629658
vt 0.4820013 0.8576924
vt 0.4820013 0.8576924
vt 0.4820013 0.8576924
vt 0.4790716 0.7629658
vt 0.4790716 0.7629658
vt 0.4790716 0.7629658
vt 0.4820013 0.8576924
vt 0.4790716 0.7629658
vt 0.4820013 0.8576924
vt 0.4820013 0.8576924
vt 0.4820013 0.8576924
vt 0.4790716 0.7629658
vt 0.4820013 0.8576924
vt 0.4790716 0.7629658
vt 0.4790716 0.7629658
vt 0.4820013 0.8576924
vt 0.4790716 0.7629658
vt 0.4820013 0.8576924
vt 0.4790716 0.7629658
vt 0.4790716 0.7629658
vt 0.4820013 0.8576924
vt 0.4820013 0.8576924
vt 0.4820013 0.8576924
vt 0.4790716 0.7629658
vt 0.4790716 0.7629658
vt 0.4790716 0.7629658
vt 0.4790716 0.7629658
vt 0.4790716 0.7629658
vt 0.4790716 0.7629658
vt 0.4790716 0.7629658
vt 0.4820013 0.8576924
vt 0.4820013 0.8576924
vt 0.4790716 0.7629658
vt 0.4790716 0.7629658
vt 0.4790716 0.7629658
vt 0.4790716 0.7629658
vt 0.4790716 0.7629658
vt 0.4790716 0.7629658
vt 0.4790716 0.7629658
vt 0.4790716 0.7629658
vt 0.4790716 0.7629658
vt 0.4790716 0.7629658
vn -1 0 0
vn -1 0 0
vn -1 0 0
vn 0 -1 0
vn 0 0 -1
vn -1 0 0
vn 0 -1 0
vn 0 0 -1
vn -1 0 0
vn 0 0 1
vn 0 0 -1
vn 0 0 1
vn 0 -1 0
vn -1 0 0
vn 0 0 1
vn 0 -1 0
vn 0 0 -1
vn 0 -1 0
vn 0 0 -1
vn 0 0 -1
vn -1 0 0
vn 0 0 -1
vn -1 0 0
vn -1 0 0
vn 0 0 1
vn 0 -1 0
vn 0 0 1
vn 1 0 0
vn 0 0 -1
vn 0 0 -1
vn 1 0 0
vn 0 0 -1
vn 1 0 0
vn 0 0 1
vn -1 0 0
vn 0 0 1
vn 0 0 1
vn 0 0 1
vn 0 0 -1
vn 1 0 0
vn 1 0 0
vn 0 0 -1
vn -1 0 0
vn 0 1 0
vn -1 0 0
vn 0 0 1
vn 0 1 0
vn 0 1 0
vn 1 0 0
vn 1 0 0
vn 0 0 1
vn 1 0 0
vn 1 0 0
vn 1 0 0
vn 0 1 0
vn 0 1 0
vn 1 0 0
vn 0 0 1
vn 0 1 0
vn 1 0 0
g IL_UB_Table_sh_10_0
f 3/3/3 2/2/2 1/1/1
f 4/4/4 13/13/13 16/16/16
f 20/20/20 5/5/5 17/17/17
f 6/6/6 21/21/21 14/14/14
f 34/34/34 15/15/15 25/25/25
f 7/7/7 26/26/26 18/18/18
f 29/29/29 39/39/39 19/19/19
f 22/22/22 8/8/8 30/30/30
f 35/35/35 9/9/9 23/23/23
f 10/10/10 36/36/36 27/27/27
f 49/49/49 28/28/28 40/40/40
f 31/31/31 50/50/50 41/41/41
f 42/42/42 11/11/11 32/32/32
f 45/45/45 43/43/43 24/24/24
f 12/12/12 46/46/46 37/37/37
f 51/51/51 58/58/58 38/38/38
f 33/33/33 54/54/54 52/52/52
f 44/44/44 47/47/47 55/55/55
f 48/48/48 59/59/59 56/56/56
f 57/57/57 60/60/60 53/53/53
