g IL_UB_CompTable_sh_1
v -0.9079595 0.1471821 -0.705282
v -0.8079595 0.1471821 -0.705282
v -0.9079595 0.04718226 -0.705282
v -0.8079595 0.0471822 -0.705282
v -0.9079595 0.1471821 0.6899789
v -0.8084491 0.1471821 0.6983765
v -0.9079595 0.05741507 0.5609418
v -0.8079595 0.1471821 0.6984178
v -0.2595068 0.1197595 0.705282
v -0.9079595 0.04718226 0.5462326
v -0.7992671 0.1471821 0.6991515
v -0.8079595 0.0471822 0.5546715
v -0.7266191 0.1471821 0.705282
v 0.7812535 0.1266428 -0.705282
v 0.9079595 0.1471821 -0.705282
v 0.05068642 0.0471822 -0.09969449
v 0.2910647 0.0471822 -0.705282
v 0.06233257 0.1008654 0.705282
v 0.07554385 0.103007 0.705282
v 0.7975106 0.1471821 -0.4270272
v -0.228465 0.0471822 0.6035743
v 0.3480583 0.1471821 0.705282
v -0.9079595 -0.07825691 0.3659182
v -0.9079595 -0.1471821 -0.705282
v -0.8079595 -0.1146516 -0.4516409
v -0.8079595 -0.05979633 0.4008935
v -0.8867456 -0.1437433 -0.705282
v -0.8079595 -0.1309719 -0.705282
v -0.9079595 0.1471821 -0.705282
v -0.9079595 0.1471821 -0.705282
v -0.9079595 0.1471821 -0.705282
v -0.9079595 0.1471821 -0.705282
v -0.9079595 0.1471821 -0.705282
v -0.8079595 0.1471821 -0.705282
v -0.8079595 0.1471821 -0.705282
v -0.8079595 0.1471821 -0.705282
v -0.8079595 0.1471821 -0.705282
v -0.8079595 0.1471821 -0.705282
v -0.8079595 0.1471821 -0.705282
v -0.8079595 0.1471821 -0.705282
v -0.9079595 0.04718226 -0.705282
v -0.9079595 0.04718226 -0.705282
v -0.9079595 0.04718226 -0.705282
v -0.9079595 0.04718226 -0.705282
v -0.9079595 0.04718226 -0.705282
v -0.9079595 0.04718226 -0.705282
v -0.8079595 0.0471822 -0.705282
v -0.8079595 0.0471822 -0.705282
v -0.8079595 0.0471822 -0.705282
v -0.8079595 0.0471822 -0.705282
v -0.8079595 0.0471822 -0.705282
v -0.8079595 0.0471822 -0.705282
v -0.8079595 0.0471822 -0.705282
v -0.8079595 0.0471822 -0.705282
v -0.9079595 0.1471821 0.6899789
v -0.9079595 0.1471821 0.6899789
v -0.8084491 0.1471821 0.6983765
v -0.8084491 0.1471821 0.6983765
v -0.8084491 0.1471821 0.6983765
v -0.8084491 0.1471821 0.6983765
v -0.9079595 0.05741507 0.5609418
v -0.9079595 0.05741507 0.5609418
v -0.9079595 0.05741507 0.5609418
v -0.9079595 0.05741507 0.5609418
v -0.9079595 0.05741507 0.5609418
v -0.9079595 0.05741507 0.5609418
v -0.8079595 0.1471821 0.6984178
v -0.8079595 0.1471821 0.6984178
v -0.8079595 0.1471821 0.6984178
v -0.2595068 0.1197595 0.705282
v -0.2595068 0.1197595 0.705282
v -0.2595068 0.1197595 0.705282
v -0.2595068 0.1197595 0.705282
v -0.9079595 0.04718226 0.5462326
v -0.9079595 0.04718226 0.5462326
v -0.9079595 0.04718226 0.5462326
v -0.9079595 0.04718226 0.5462326
v -0.9079595 0.04718226 0.5462326
v -0.7992671 0.1471821 0.6991515
v -0.7992671 0.1471821 0.6991515
v -0.7992671 0.1471821 0.6991515
v -0.7992671 0.1471821 0.6991515
v -0.7992671 0.1471821 0.6991515
v -0.7992671 0.1471821 0.6991515
v -0.7992671 0.1471821 0.6991515
v -0.8079595 0.0471822 0.5546715
v -0.8079595 0.0471822 0.5546715
v -0.8079595 0.0471822 0.5546715
v -0.8079595 0.0471822 0.5546715
v -0.8079595 0.0471822 0.5546715
v -0.8079595 0.0471822 0.5546715
v -0.8079595 0.0471822 0.5546715
v -0.8079595 0.0471822 0.5546715
v -0.8079595 0.0471822 0.5546715
v -0.8079595 0.0471822 0.5546715
v -0.7266191 0.1471821 0.705282
v -0.7266191 0.1471821 0.705282
v -0.7266191 0.1471821 0.705282
v 0.7812535 0.1266428 -0.705282
v 0.7812535 0.1266428 -0.705282
v 0.7812535 0.1266428 -0.705282
v 0.7812535 0.1266428 -0.705282
v 0.9079595 0.1471821 -0.705282
v 0.9079595 0.1471821 -0.705282
v 0.9079595 0.1471821 -0.705282
v 0.05068642 0.0471822 -0.09969449
v 0.05068642 0.0471822 -0.09969449
v 0.05068642 0.0471822 -0.09969449
v 0.05068642 0.0471822 -0.09969449
v 0.05068642 0.0471822 -0.09969449
v 0.05068642 0.0471822 -0.09969449
v 0.05068642 0.0471822 -0.09969449
v 0.2910647 0.0471822 -0.705282
v 0.2910647 0.0471822 -0.705282
v 0.2910647 0.0471822 -0.705282
v 0.06233257 0.1008654 0.705282
v 0.06233257 0.1008654 0.705282
v 0.06233257 0.1008654 0.705282
v 0.06233257 0.1008654 0.705282
v 0.07554385 0.103007 0.705282
v 0.07554385 0.103007 0.705282
v 0.07554385 0.103007 0.705282
v 0.7975106 0.1471821 -0.4270272
v 0.7975106 0.1471821 -0.4270272
v 0.7975106 0.1471821 -0.4270272
v 0.7975106 0.1471821 -0.4270272
v 0.7975106 0.1471821 -0.4270272
v -0.228465 0.0471822 0.6035743
v -0.228465 0.0471822 0.6035743
v 0.3480583 0.1471821 0.705282
v 0.3480583 0.1471821 0.705282
v 0.3480583 0.1471821 0.705282
v 0.3480583 0.1471821 0.705282
v 0.3480583 0.1471821 0.705282
v -0.9079595 -0.07825691 0.3659182
v -0.9079595 -0.07825691 0.3659182
v -0.9079595 -0.07825691 0.3659182
v -0.9079595 -0.07825691 0.3659182
v -0.9079595 -0.1471821 -0.705282
v -0.9079595 -0.1471821 -0.705282
v -0.9079595 -0.1471821 -0.705282
v -0.8079595 -0.1146516 -0.4516409
v -0.8079595 -0.1146516 -0.4516409
v -0.8079595 -0.1146516 -0.4516409
v -0.8079595 -0.1146516 -0.4516409
v -0.8079595 -0.1146516 -0.4516409
v -0.8079595 -0.1146516 -0.4516409
v -0.8079595 -0.05979633 0.4008935
v -0.8079595 -0.05979633 0.4008935
v -0.8079595 -0.05979633 0.4008935
v -0.8867456 -0.1437433 -0.705282
v -0.8867456 -0.1437433 -0.705282
v -0.8867456 -0.1437433 -0.705282
v -0.8867456 -0.1437433 -0.705282
v -0.8079595 -0.1309719 -0.705282
v -0.8079595 -0.1309719 -0.705282
vt 0.6217303 0.9230666
vt 0.6217303 0.9230666
vt 0.6217303 0.9230666
vt 0.6217303 0.9230666
vt 0.6217303 0.9230666
vt 0.6217303 0.9230666
vt 0.6217303 0.9230666
vt 0.6217303 0.9230666
vt 0.1146932 0.179142
vt 0.6217303 0.9230666
vt 0.6217303 0.9230666
vt 0.2540005 0.1408868
vt 0.23334 0.179142
vt 0.6217303 0.9230666
vt 0.6217302 0.9230666
vt 0.6217303 0.9230666
vt 0.6217303 0.9230666
vt 0.6217302 0.9230666
vt 0.6217303 0.9230666
vt 0.6217303 0.9230666
vt 0.1068086 0.1533082
vt 0.6217302 0.9230666
vt 0.6217303 0.9230667
vt 0.6217303 0.9230666
vt 0.6217303 0.9230666
vt 0.6217303 0.9230666
vt 0.6217302 0.9230666
vt 0.6217303 0.9230666
vt 0.6217303 0.9230666
vt 0.6217303 0.9230666
vt 0.6217303 0.9230666
vt 0.6217303 0.9230666
vt 0.6217303 0.9230666
vt 0.6217303 0.9230666
vt 0.6217303 0.9230666
vt 0.6217303 0.9230666
vt 0.6217303 0.9230666
vt 0.6217303 0.9230666
vt 0.6217303 0.9230666
vt 0.6217303 0.9230666
vt 0.6217303 0.9230666
vt 0.6217303 0.9230666
vt 0.6217303 0.9230666
vt 0.6217303 0.9230666
vt 0.6217303 0.9230666
vt 0.6217303 0.9230666
vt 0.6217303 0.9230666
vt 0.6217303 0.9230666
vt 0.6217303 0.9230666
vt 0.6217303 0.9230666
vt 0.6217303 0.9230666
vt 0.6217303 0.9230666
vt 0.6217303 0.9230666
vt 0.6217303 0.9230666
vt 0.6217303 0.9230666
vt 0.2794006 0.175255
vt 0.6217303 0.9230666
vt 0.6217303 0.9230666
vt 0.2541249 0.177388
vt 0.2541249 0.177388
vt 0.6217303 0.9230666
vt 0.2794006 0.1424795
vt 0.2794006 0.1424795
vt 0.2794006 0.1424795
vt 0.2794006 0.1424795
vt 0.2794006 0.1424795
vt 0.6217303 0.9230666
vt 0.2540005 0.1773985
vt 0.2540005 0.1773985
vt 0.6217303 0.9230666
vt 0.6217303 0.9230666
vt 0.1146932 0.179142
vt 0.6217303 0.9230666
vt 0.6217303 0.9230666
vt 0.2794006 0.1387433
vt 0.6217303 0.9230666
vt 0.2794006 0.1387433
vt 0.2794006 0.1387433
vt 0.2517926 0.1775848
vt 0.2517926 0.1775848
vt 0.2517926 0.1775848
vt 0.6217303 0.9230666
vt 0.6217303 0.9230666
vt 0.6217303 0.9230666
vt 0.6217303 0.9230666
vt 0.2540005 0.1408868
vt 0.2540005 0.1408868
vt 0.2540005 0.1408868
vt 0.6217303 0.9230666
vt 0.6217303 0.9230666
vt 0.2540005 0.1408868
vt 0.2540005 0.1408868
vt 0.2540005 0.1408868
vt 0.6217303 0.9230666
vt 0.6217303 0.9230666
vt 0.23334 0.179142
vt 0.6217303 0.9230666
vt 0.6217303 0.9230666
vt 0.6217303 0.9230666
vt 0.6217303 0.9230666
vt -0.1496604 -0.179142
vt -0.1496604 -0.179142
vt 0.6217303 0.9230666
vt 0.6217303 0.9230666
vt -0.1818438 -0.179142
vt 0.6217303 0.9230666
vt 0.6217303 0.9230666
vt 0.03590401 -0.02532246
vt 0.03590401 -0.02532246
vt 0.03590401 -0.02532246
vt 0.03590401 -0.02532246
vt 0.03590401 -0.02532246
vt 0.6217303 0.9230666
vt -0.02515221 -0.179142
vt -0.02515221 -0.179142
vt 0.03294588 0.179142
vt 0.03294588 0.179142
vt 0.03294588 0.179142
vt 0.03294588 0.179142
vt 0.6217303 0.9230666
vt 0.02959021 0.179142
vt 0.02959021 0.179142
vt 0.6217303 0.9230666
vt -0.1537897 -0.1084651
vt -0.1537897 -0.1084651
vt -0.1537897 -0.1084651
vt -0.1537897 -0.1084651
vt 0.6217303 0.9230666
vt 0.1068086 0.1533082
vt 0.6217302 0.9230666
vt 0.6217303 0.9230667
vt 0.6217303 0.9230667
vt -0.03962861 0.179142
vt -0.03962861 0.179142
vt 0.6217303 0.9230667
vt 0.2794006 0.09294339
vt 0.2794006 0.09294339
vt 0.2794006 0.09294339
vt 0.6217303 0.9230666
vt 0.2794006 -0.179142
vt 0.2794006 -0.179142
vt 0.6217303 0.9230666
vt 0.6217303 0.9230666
vt 0.2540005 -0.114717
vt 0.2540005 -0.114717
vt 0.2540005 -0.114717
vt 0.2540005 -0.114717
vt 0.2540005 0.1018272
vt 0.2540005 0.1018272
vt 0.2540005 0.1018272
vt 0.6217303 0.9230667
vt 0.6217303 0.9230667
vt 0.2740122 -0.179142
vt 0.2740122 -0.179142
vt 0.6217303 0.9230666
vt 0.2540005 -0.179142
vn 0 0 -1
vn 0 0 -1
vn 0 0 -1
vn 0 0 -1
vn 0 1 0
vn 0 1 0
vn -1 0 0
vn 0 1 0
vn -0.04813635 -0.8199471 0.5704119
vn -1 0 0
vn 0 1 0
vn -0.04813635 -0.8199471 0.5704119
vn -0.04813635 -0.8199471 0.5704119
vn 0 0 -1
vn 0 0 -1
vn 0 -1 0
vn 0 -1 0
vn 0 0 1
vn 0 0 1
vn 0 1 0
vn -0.04813635 -0.819947 0.570412
vn 0 0 1
vn -1 0 0
vn -1 0 0
vn 1 0 0
vn 1 0 0
vn 0 0 -1
vn 1 0 0
vn 0 1 0
vn -1 0 0
vn 0 1 0
vn -1 0 0
vn -1 0 0
vn 0 0 -1
vn 0 1 0
vn 0 1 0
vn 0 1 0
vn 0 0 -1
vn 0 0 -1
vn 0 1 0
vn 0 0 -1
vn -1 0 0
vn -1 0 0
vn -1 0 0
vn 0 0 -1
vn 0 0 -1
vn 0 0 -1
vn 0 -1 0
vn 0 0 -1
vn 1 0 0
vn 1 0 0
vn 0 -1 0
vn 0 0 -1
vn 0 0 -1
vn -1 0 0
vn -0.0481364 -0.8199473 0.5704116
vn 0 1 0
vn 0 1 0
vn -0.0481964 -0.8199241 0.5704398
vn -0.0481364 -0.8199473 0.5704116
vn -1 0 0
vn -0.04813702 -0.8199458 0.5704136
vn -0.0481373 -0.8199472 0.5704116
vn -0.04814139 -0.8199455 0.5704137
vn -0.0481964 -0.8199241 0.5704398
vn -0.0481364 -0.8199473 0.5704116
vn 0 1 0
vn -0.04814139 -0.8199455 0.5704137
vn -0.0481964 -0.8199241 0.5704398
vn 0 0 1
vn 0 0 1
vn -0.04813627 -0.8199472 0.5704117
vn 0 0 1
vn -1 0 0
vn -0.04813702 -0.8199458 0.5704136
vn -1 0 0
vn -0.04813692 -0.8199471 0.5704118
vn -0.04813676 -0.8199471 0.5704118
vn -0.04813557 -0.8199473 0.5704116
vn -0.0481373 -0.8199472 0.5704116
vn -0.04814139 -0.8199455 0.5704137
vn 0 1 0
vn 0 1 0
vn 0 1 0
vn 0 1 0
vn -0.04813557 -0.8199473 0.5704116
vn -0.04813702 -0.8199458 0.5704136
vn -0.0481373 -0.8199472 0.5704116
vn 1 0 0
vn 1 0 0
vn -0.04813635 -0.819947 0.570412
vn -0.04813627 -0.8199472 0.5704117
vn -0.04813692 -0.8199471 0.5704118
vn 0 -1 0
vn 0 -1 0
vn -0.04813557 -0.8199473 0.5704116
vn 0 0 1
vn 0 1 0
vn 0 0 -1
vn 0 0 -1
vn 0.1596919 -0.9851298 0.06338719
vn 0.1596915 -0.9851298 0.06338721
vn 0 1 0
vn 0 1 0
vn 0.1596919 -0.9851298 0.06338719
vn 0 -1 0
vn 0 -1 0
vn 0.1596918 -0.9851297 0.06338713
vn 0.1596886 -0.9851303 0.06338721
vn 0.1596915 -0.9851298 0.06338707
vn 0.1596916 -0.9851298 0.06338705
vn 0.1596916 -0.9851298 0.06338702
vn 0 0 -1
vn 0.1596916 -0.9851298 0.06338702
vn 0.1596915 -0.9851298 0.06338721
vn -0.04813635 -0.819947 0.570412
vn -0.04813627 -0.8199472 0.5704117
vn 0.1596918 -0.9851297 0.06338713
vn 0.1596886 -0.9851303 0.06338721
vn 0 0 1
vn 0.1596886 -0.9851303 0.06338721
vn 0.1596915 -0.9851298 0.06338707
vn 0 1 0
vn 0.1596919 -0.9851298 0.06338719
vn 0.1596916 -0.9851298 0.06338705
vn 0.1596916 -0.9851298 0.06338702
vn 0.1596915 -0.9851298 0.06338721
vn 0 -1 0
vn 0.1596918 -0.9851297 0.06338713
vn 0 0 1
vn 0 1 0
vn 0 1 0
vn 0.1596915 -0.9851298 0.06338707
vn 0.1596916 -0.9851298 0.06338705
vn -1 0 0
vn -0.04813676 -0.8199471 0.5704118
vn 0.1596907 -0.9851299 0.06338698
vn 0.1596917 -0.9851298 0.0633871
vn 0 0 -1
vn 0.1596917 -0.9851298 0.0633871
vn 0.1596896 -0.9851301 0.06338799
vn 1 0 0
vn 1 0 0
vn 0.1596907 -0.9851299 0.06338698
vn 0.1596917 -0.9851298 0.0633871
vn 0.1596896 -0.9851301 0.06338799
vn 0.159692 -0.9851297 0.06338721
vn -0.04813692 -0.8199471 0.5704118
vn -0.04813676 -0.8199471 0.5704118
vn 0.1596907 -0.9851299 0.06338698
vn 0 0 -1
vn 0 0 -1
vn 0.1596896 -0.9851301 0.06338799
vn 0.159692 -0.9851297 0.06338721
vn 0 0 -1
vn 0.159692 -0.9851297 0.06338721
g IL_UB_CompTable_sh_1_0
f 3/3/3 1/1/1 2/2/2
f 4/4/4 41/41/41 34/34/34
f 29/29/29 5/5/5 6/6/6
f 7/7/7 55/55/55 30/30/30
f 8/8/8 35/35/35 57/57/57
f 36/36/36 31/31/31 58/58/58
f 61/61/61 32/32/32 10/10/10
f 33/33/33 42/42/42 74/74/74
f 11/11/11 37/37/37 67/67/67
f 14/14/14 38/38/38 15/15/15
f 47/47/47 39/39/39 99/99/99
f 17/17/17 16/16/16 48/48/48
f 100/100/100 113/113/113 49/49/49
f 70/70/70 18/18/18 19/19/19
f 103/103/103 40/40/40 82/82/82
f 20/20/20 104/104/104 83/83/83
f 97/97/97 71/71/71 22/22/22
f 23/23/23 43/43/43 24/24/24
f 76/76/76 44/44/44 135/135/135
f 25/25/25 89/89/89 26/26/26
f 50/50/50 90/90/90 142/142/142
f 27/27/27 139/139/139 45/45/45
f 143/143/143 28/28/28 51/51/51
f 94/94/94 52/52/52 106/106/106
f 107/107/107 128/128/128 95/95/95
f 130/130/130 73/73/73 120/120/120
f 131/131/131 123/123/123 84/84/84
f 85/85/85 98/98/98 132/132/132
f 151/151/151 46/46/46 53/53/53
f 54/54/54 155/155/155 152/152/152
g IL_UB_CompTable_sh_1_1
f 12/12/12 9/9/9 13/13/13
f 86/86/86 96/96/96 79/79/79
f 62/62/62 75/75/75 87/87/87
f 63/63/63 88/88/88 80/80/80
f 64/64/64 81/81/81 68/68/68
f 65/65/65 69/69/69 59/59/59
f 60/60/60 56/56/56 66/66/66
f 116/116/116 91/91/91 21/21/21
f 72/72/72 92/92/92 117/117/117
f 93/93/93 77/77/77 148/148/148
f 149/149/149 78/78/78 136/136/136
f 101/101/101 105/105/105 124/124/124
f 118/118/118 129/129/129 108/108/108
f 121/121/121 119/119/119 109/109/109
f 133/133/133 122/122/122 110/110/110
f 125/125/125 134/134/134 111/111/111
f 126/126/126 112/112/112 114/114/114
f 115/115/115 102/102/102 127/127/127
f 144/144/144 150/150/150 137/137/137
f 145/145/145 138/138/138 140/140/140
f 146/146/146 141/141/141 153/153/153
f 154/154/154 156/156/156 147/147/147
