g PolyIcicle02
v 0.004063358 -0.0019675 0.07464254
v 0.03613354 0.000169785 -0.00738647
v 0.007314927 -0.03573949 -0.009158272
v 0.030116 0.02254963 -0.002074914
v 0.002539703 0.03476612 -0.006839952
v 0.02781236 0.007963859 -0.01523115
v 0.001245593 0.001973187 0.07668903
v 0.004063358 -0.0019675 0.07464254
v -0.0007364291 -0.001338193 0.07750204
v 0.03613354 0.000169785 -0.00738647
v 0.030116 0.02254963 -0.002074914
v 0.02781236 0.007963859 -0.01523115
v 0.002539703 0.03476612 -0.006839952
v -0.03734461 0.01368235 -0.005593232
v -0.01985752 0.02732402 -0.01407793
v -0.01894566 -0.03587681 0.001947465
v 0.007314927 -0.03573949 -0.009158272
v -0.01137979 -0.036463 -0.01355334
v -0.03734461 0.01368235 -0.005593232
v 7.162191E-12 2.16916E-17 -0.02411857
v -0.01985752 0.02732402 -0.01407793
v -0.006005404 0.02164911 0.03016108
v -0.03734461 0.01368235 -0.005593232
v 0.002539703 0.03476612 -0.006839952
v 0.01550354 0.01082785 0.0520872
v 0.004063358 -0.0019675 0.07464254
v 0.001245593 0.001973187 0.07668903
v -0.0289795 -0.001369483 0.01997482
v -0.01894566 -0.03587681 0.001947465
v -0.03734461 0.01368235 -0.005593232
v -0.0007364291 -0.001338193 0.07750204
v -0.008485175 -0.02128696 0.0283042
v -0.0289795 -0.001369483 0.01997482
v -0.01894566 -0.03587681 0.001947465
v 0.007314927 -0.03573949 -0.009158272
v 0.03613354 0.000169785 -0.00738647
v 0.02781236 0.007963859 -0.01523115
v 7.162191E-12 2.16916E-17 -0.02411857
v -0.01137979 -0.036463 -0.01355334
v 7.162191E-12 2.16916E-17 -0.02411857
v -0.03734461 0.01368235 -0.005593232
v -0.01894566 -0.03587681 0.001947465
v -0.01137979 -0.036463 -0.01355334
v -0.008485175 -0.02128696 0.0283042
v 0.007314927 -0.03573949 -0.009158272
v -0.01894566 -0.03587681 0.001947465
v 0.004063358 -0.0019675 0.07464254
v -0.0007364291 -0.001338193 0.07750204
v 0.03613354 0.000169785 -0.00738647
v 0.004063358 -0.0019675 0.07464254
v 0.01550354 0.01082785 0.0520872
v 0.030116 0.02254963 -0.002074914
v -0.0007364291 -0.001338193 0.07750204
v -0.006005404 0.02164911 0.03016108
v 0.001245593 0.001973187 0.07668903
v -0.0289795 -0.001369483 0.01997482
v -0.03734461 0.01368235 -0.005593232
v 7.162191E-12 2.16916E-17 -0.02411857
v 0.02781236 0.007963859 -0.01523115
v 0.002539703 0.03476612 -0.006839952
v -0.01985752 0.02732402 -0.01407793
v -0.006005404 0.02164911 0.03016108
v 0.01550354 0.01082785 0.0520872
v 0.001245593 0.001973187 0.07668903
v 0.030116 0.02254963 -0.002074914
v 0.002539703 0.03476612 -0.006839952
vt -0.0002403996 0.4303433
vt 0.4361648 5.184203E-11
vt -0.4361648 5.184207E-11
vt 4.839237E-11 0.4334583
vt 3.44966E-12 -0.4334583
vt -0.05102419 0.4489758
vt 0.4279863 3.350137E-05
vt 0.392964 -0.02129156
vt 0.3879652 0.02205053
vt 0.4361648 5.184203E-11
vt 0.5248653 -0.02058338
vt 0.4489758 -0.05102419
vt 3.44966E-12 -0.4334583
vt -0.004271415 -0.5145354
vt -0.05083418 -0.4491658
vt 0.03293974 0.4670603
vt -0.03042276 0.396994
vt -0.05249048 0.4475095
vt 0.4670603 0.03293974
vt -0.5 1.036835E-10
vt 0.3983316 1.054133E-11
vt 0.1599017 -0.2714997
vt -0.06262719 -0.4601079
vt 3.44966E-12 -0.4334583
vt 0.1213899 0.3105258
vt 0.3624249 0.0209804
vt 0.4279863 3.350137E-05
vt 0.3636511 0.1363489
vt 0.03293974 0.4670603
vt 0.4670603 0.03293974
vt 0.03559382 0.4644062
vt 0.03406088 0.4659391
vt 0.3636511 0.1363489
vt 0.03293974 0.4670603
vt -0.4361648 5.184207E-11
vt 0.4361648 5.184203E-11
vt 0.4489758 -0.05102419
vt 3.140185E-16 -0.5
vt -0.4475095 -0.05249048
vt -0.5 1.036835E-10
vt 0.4670603 0.03293974
vt 0.03293974 0.4670603
vt -0.05249048 0.4475095
vt 0.03406088 0.4659391
vt 0.04644784 0.5060422
vt 0.03293974 0.4670603
vt 0.04996892 0.5068949
vt 0.03559382 0.4644062
vt -0.06074023 0.4553379
vt 0.3624249 0.0209804
vt 0.1213899 0.3105258
vt 4.839237E-11 0.4334583
vt 0.360274 -0.02811403
vt 0.1599017 -0.2714997
vt 0.4279863 3.350137E-05
vt 0.03872913 -0.3565723
vt -0.06262719 -0.4601079
vt -0.5 1.036835E-10
vt -0.05102419 0.4489758
vt 3.44966E-12 -0.4334583
vt -0.05083418 -0.4491658
vt 0.1599017 -0.2714997
vt 0.1213899 0.3105258
vt 0.4279863 3.350137E-05
vt 4.839237E-11 0.4334583
vt 3.44966E-12 -0.4334583
vn 0.7432413 -0.6100337 0.2746841
vn 0.7432413 -0.6100337 0.2746841
vn 0.7432413 -0.6100338 0.2746841
vn 0.3826483 0.5847531 -0.7152929
vn 0.3826483 0.5847531 -0.7152929
vn 0.3826483 0.5847532 -0.7152929
vn 0.5011941 -0.08864812 0.8607821
vn 0.5011941 -0.0886481 0.8607821
vn 0.5011942 -0.08864812 0.8607821
vn 0.793085 0.3341202 -0.5092935
vn 0.793085 0.3341202 -0.5092935
vn 0.793085 0.3341202 -0.5092935
vn -0.4448267 0.8568872 0.2605258
vn -0.4423276 0.8531139 0.2766638
vn -0.4082834 0.7985105 0.4423637
vn 0.026698 -0.9983526 0.05078563
vn 0.026698 -0.9983526 0.05078563
vn 0.026698 -0.9983526 0.05078563
vn -0.4418733 0.008502372 -0.8970373
vn -0.4418733 0.008502371 -0.8970371
vn -0.4418733 0.008502371 -0.8970371
vn -0.4526133 0.8682311 0.2032637
vn -0.4423276 0.8531139 0.2766638
vn -0.4448267 0.8568872 0.2605258
vn 0.7859441 0.2741873 0.5541779
vn 0.7859441 0.2741873 0.5541779
vn 0.7859441 0.2741873 0.5541779
vn -0.9370329 -0.3308662 0.1117897
vn -0.9370329 -0.3308662 0.1117897
vn -0.9370329 -0.3308662 0.1117897
vn -0.7217702 -0.5943499 0.3546773
vn -0.7109791 -0.5465006 0.4425447
vn -0.7103392 -0.544269 0.4463066
vn -0.6889229 -0.4827738 0.5406614
vn 0.3336377 -0.3141996 -0.8887995
vn 0.4637971 -0.3316813 -0.8215106
vn 0.4006312 -0.3239336 -0.8570657
vn 0.3142728 -0.3111151 -0.8969058
vn 0.3142729 -0.3111151 -0.8969058
vn -0.6318548 -0.208674 -0.7464681
vn -0.6318548 -0.208674 -0.7464681
vn -0.6318548 -0.208674 -0.7464682
vn -0.6318548 -0.208674 -0.7464681
vn 0.09961921 -0.9139389 0.3934357
vn 0.09981576 -0.9134592 0.3944986
vn 0.09981576 -0.9134592 0.3944986
vn 0.09449021 -0.9258969 0.3657685
vn 0.09367922 -0.9276907 0.3614059
vn 0.9454484 0.01380679 0.3254791
vn 0.9454484 0.01380679 0.3254792
vn 0.9454484 0.01380679 0.3254791
vn 0.9454484 0.01380679 0.3254792
vn -0.7377967 0.5713112 0.3595267
vn -0.7321607 0.5467476 0.4062114
vn -0.7377967 0.5713112 0.3595266
vn -0.7228708 0.5158175 0.4597719
vn -0.7097994 0.4804888 0.5150878
vn 0.1534379 0.4307786 -0.889318
vn 0.1534378 0.4307786 -0.889318
vn 0.1534378 0.4307786 -0.889318
vn 0.1534378 0.4307786 -0.889318
vn 0.2096729 0.9253246 0.3159297
vn 0.1241038 0.9327162 0.3385834
vn 0.07898642 0.9225098 0.3778053
vn 0.2776395 0.8999206 0.336243
vn 0.3185885 0.86785 0.3812317
g PolyIcicle02_0
f 3/3/3 2/2/2 1/1/1
f 6/6/6 5/5/5 4/4/4
f 9/9/9 8/8/8 7/7/7
f 12/12/12 11/11/11 10/10/10
f 15/15/15 14/14/14 13/13/13
f 18/18/18 17/17/17 16/16/16
f 21/21/21 20/20/20 19/19/19
f 24/24/24 23/23/23 22/22/22
f 27/27/27 26/26/26 25/25/25
f 30/30/30 29/29/29 28/28/28
f 33/33/33 32/32/32 31/31/31
f 34/34/34 32/32/32 33/33/33
f 37/37/37 36/36/36 35/35/35
f 38/38/38 37/37/37 35/35/35
f 39/39/39 38/38/38 35/35/35
f 42/42/42 41/41/41 40/40/40
f 43/43/43 42/42/42 40/40/40
f 46/46/46 45/45/45 44/44/44
f 45/45/45 47/47/47 44/44/44
f 48/48/48 44/44/44 47/47/47
f 51/51/51 50/50/50 49/49/49
f 52/52/52 51/51/51 49/49/49
f 55/55/55 54/54/54 53/53/53
f 54/54/54 56/56/56 53/53/53
f 57/57/57 56/56/56 54/54/54
f 60/60/60 59/59/59 58/58/58
f 61/61/61 60/60/60 58/58/58
f 64/64/64 63/63/63 62/62/62
f 62/62/62 63/63/63 65/65/65
f 66/66/66 62/62/62 65/65/65
