g powerup_coin_1_LOD2
v 0.3634154 -4.844791E-08 0.1234162
v 0.3208843 -3.621713E-08 0.078017
v 0.2562062 0.2310378 0.07801713
v 0.2863615 0.2611746 0.1234164
v 0.2863615 0.2611746 0.1234164
v 0.2562062 0.2310378 0.07801713
v 1.421085E-16 0.3111919 0.07801705
v 1.421085E-16 0.3537229 0.1234163
v -0.2863615 0.2611746 0.1234164
v -0.2562062 0.2310378 0.07801713
v -0.3208843 -3.621713E-08 0.078017
v -0.3634154 -4.844791E-08 0.1234162
v 1.421085E-16 0.3111919 0.07801705
v -0.2562062 0.2310378 0.07801713
v -0.2863615 0.2611746 0.1234164
v 1.421085E-16 0.3537229 0.1234163
v 0.2562062 -0.2310379 0.07801707
v 0.3208843 -3.621713E-08 0.078017
v 0.3634154 -4.844791E-08 0.1234162
v 0.2863615 -0.2611748 0.1234163
v 1.421085E-16 -0.311192 0.07801697
v 0.2562062 -0.2310379 0.07801707
v 0.2863615 -0.2611748 0.1234163
v 1.421085E-16 -0.353723 0.1234162
v -0.4129237 -0.4021339 -0.1234165
v -0.4129237 -0.402134 0.1234164
v 1.421085E-16 -0.5276864 0.1234163
v 1.421085E-16 -0.5276864 -0.1234165
v 0.4129237 -0.402134 0.1234164
v 0.4129237 -0.4021339 -0.1234165
v -0.3208843 -3.621713E-08 0.078017
v -0.2562062 -0.2310379 0.07801707
v -0.2863615 -0.2611748 0.1234163
v -0.3634154 -4.844791E-08 0.1234162
v -0.2863615 -0.2611748 0.1234163
v -0.2562062 -0.2310379 0.07801707
v 1.421085E-16 -0.311192 0.07801697
v 1.421085E-16 -0.353723 0.1234162
v 0.5276862 -5.438992E-09 -0.1234164
v 0.4129237 0.4021339 0.1234165
v 0.4129237 0.402134 -0.1234163
v 0.5276862 -4.565317E-08 0.1234164
v 0.4129237 -0.402134 0.1234164
v 0.4129237 -0.4021339 -0.1234165
v 0.4129237 0.402134 -0.1234163
v 0.4129237 0.4021339 0.1234165
v 1.421085E-16 0.5276862 0.1234164
v 1.421085E-16 0.5276863 -0.1234163
v -0.4129237 0.4021339 0.1234165
v -0.4129237 0.402134 -0.1234163
v -0.5276862 -4.565317E-08 0.1234164
v -0.4129237 0.402134 -0.1234163
v -0.4129237 0.4021339 0.1234165
v -0.5276862 -5.438992E-09 -0.1234164
v -0.4129237 -0.4021339 -0.1234165
v -0.4129237 -0.402134 0.1234164
v 0.2562062 0.2310378 -0.07801705
v 0.3208843 -1.079597E-08 -0.078017
v 0.3634154 -8.23381E-09 -0.1234162
v 0.2863615 0.2611747 -0.1234163
v 1.421085E-16 0.3111919 -0.07801694
v 0.2562062 0.2310378 -0.07801705
v 0.2863615 0.2611747 -0.1234163
v 1.421085E-16 0.353723 -0.1234162
v -0.3208843 -1.079597E-08 -0.078017
v -0.2562062 0.2310378 -0.07801705
v -0.2863615 0.2611747 -0.1234163
v -0.3634154 -8.23381E-09 -0.1234162
v 1.421085E-16 0.3111919 -0.07801694
v 1.421085E-16 0.353723 -0.1234162
v -0.2863615 0.2611747 -0.1234163
v -0.2562062 0.2310378 -0.07801705
v 0.2562062 -0.2310379 -0.07801715
v 0.2863615 -0.2611747 -0.1234164
v 0.3634154 -8.23381E-09 -0.1234162
v 0.3208843 -1.079597E-08 -0.078017
v 1.421085E-16 -0.311192 -0.07801706
v 1.421085E-16 -0.353723 -0.1234163
v 0.2863615 -0.2611747 -0.1234164
v 0.2562062 -0.2310379 -0.07801715
v -0.3208843 -1.079597E-08 -0.078017
v -0.3634154 -8.23381E-09 -0.1234162
v -0.2863615 -0.2611747 -0.1234164
v -0.2562062 -0.2310379 -0.07801715
v 1.421085E-16 -0.311192 -0.07801706
v -0.2562062 -0.2310379 -0.07801715
v -0.2863615 -0.2611747 -0.1234164
v 1.421085E-16 -0.353723 -0.1234163
v 0.4129237 0.4021339 0.1234165
v 1.421085E-16 0.3537229 0.1234163
v 1.421085E-16 0.5276862 0.1234164
v -0.4129237 0.4021339 0.1234165
v 0.2863615 0.2611746 0.1234164
v -0.2863615 0.2611746 0.1234164
v 0.5276862 -4.565317E-08 0.1234164
v 0.3634154 -4.844791E-08 0.1234162
v 0.2863615 -0.2611748 0.1234163
v 0.4129237 -0.402134 0.1234164
v -0.5276862 -4.565317E-08 0.1234164
v -0.3634154 -4.844791E-08 0.1234162
v -0.2863615 -0.2611748 0.1234163
v -0.4129237 -0.402134 0.1234164
v 1.421085E-16 -0.353723 0.1234162
v 1.421085E-16 -0.5276864 0.1234163
v 0.3208843 -3.621713E-08 0.078017
v 1.421085E-16 -3.263294E-08 0.07801691
v 0.2562062 0.2310378 0.07801713
v 0.2562062 -0.2310379 0.07801707
v 1.421085E-16 0.3111919 0.07801705
v 1.421085E-16 -0.311192 0.07801697
v -0.2562062 0.2310378 0.07801713
v -0.2562062 -0.2310379 0.07801707
v -0.3208843 -3.621713E-08 0.078017
v 0.5276862 -5.438992E-09 -0.1234164
v 0.2863615 0.2611747 -0.1234163
v 0.3634154 -8.23381E-09 -0.1234162
v 0.2863615 -0.2611747 -0.1234164
v 0.4129237 0.402134 -0.1234163
v 0.4129237 -0.4021339 -0.1234165
v 1.421085E-16 0.353723 -0.1234162
v 1.421085E-16 0.5276863 -0.1234163
v -0.4129237 0.402134 -0.1234163
v -0.2863615 0.2611747 -0.1234163
v 1.421085E-16 -0.353723 -0.1234163
v 1.421085E-16 -0.5276864 -0.1234165
v -0.4129237 -0.4021339 -0.1234165
v -0.2863615 -0.2611747 -0.1234164
v -0.5276862 -5.438992E-09 -0.1234164
v -0.3634154 -8.23381E-09 -0.1234162
v 0.3208843 -1.079597E-08 -0.078017
v 0.2562062 0.2310378 -0.07801705
v 1.421085E-16 -7.211808E-09 -0.07801691
v 0.2562062 -0.2310379 -0.07801715
v 1.421085E-16 0.3111919 -0.07801694
v 1.421085E-16 -0.311192 -0.07801706
v -0.2562062 0.2310378 -0.07801705
v -0.2562062 -0.2310379 -0.07801715
v -0.3208843 -1.079597E-08 -0.078017
vt 0.09243571 0.3989038
vt 0.09295861 0.3935613
vt 0.08399704 0.3867715
vt 0.08121695 0.3903709
vt 0.08131012 0.3905223
vt 0.08399704 0.3867715
vt 0.08095872 0.3627731
vt 0.07734084 0.3623077
vt 0.08121026 0.335176
vt 0.0839896 0.3387754
vt 0.09295511 0.3320029
vt 0.09243479 0.3266591
vt 0.08095872 0.3627731
vt 0.0839896 0.3387754
vt 0.08130285 0.3350267
vt 0.07734099 0.3632428
vt 0.10192 0.3867948
vt 0.09295861 0.3935613
vt 0.09347857 0.3989023
vt 0.1046982 0.3903943
vt 0.1049553 0.3628012
vt 0.10192 0.3867948
vt 0.104606 0.3905445
vt 0.1085734 0.362335
vt 0.08103584 0.3087386
vt 0.08103584 0.3087386
vt 0.09112526 0.300369
vt 0.09112526 0.300369
vt 0.1012147 0.3087517
vt 0.1012147 0.3087517
vt 0.09295511 0.3320029
vt 0.1019225 0.3387971
vt 0.1040227 0.3347021
vt 0.09276974 0.3261377
vt 0.1046107 0.335047
vt 0.1019225 0.3387971
vt 0.1049553 0.3628012
vt 0.1085733 0.36327
vt 0.1041288 0.3314239
vt 0.101211 0.3540903
vt 0.101211 0.3540903
vt 0.1041288 0.3314239
vt 0.1012147 0.3087517
vt 0.1012147 0.3087517
vt 0.101211 0.3540903
vt 0.101211 0.3540903
vt 0.09112661 0.3624604
vt 0.09112661 0.3624604
vt 0.08104143 0.3540826
vt 0.08104143 0.3540826
vt 0.07812364 0.3314101
vt 0.08104143 0.3540826
vt 0.08104143 0.3540826
vt 0.07812364 0.3314101
vt 0.08103584 0.3087386
vt 0.08103584 0.3087386
vt 0.08399704 0.3867715
vt 0.09295861 0.3935613
vt 0.09243571 0.3989038
vt 0.08121695 0.3903709
vt 0.08095872 0.3627731
vt 0.08399704 0.3867715
vt 0.08131012 0.3905223
vt 0.07734084 0.3623077
vt 0.09295511 0.3320029
vt 0.0839896 0.3387754
vt 0.08121026 0.335176
vt 0.09243479 0.3266591
vt 0.08095872 0.3627731
vt 0.07734099 0.3632428
vt 0.08130285 0.3350267
vt 0.0839896 0.3387754
vt 0.10192 0.3867948
vt 0.1046982 0.3903943
vt 0.09347857 0.3989023
vt 0.09295861 0.3935613
vt 0.1049553 0.3628012
vt 0.1085734 0.362335
vt 0.104606 0.3905445
vt 0.10192 0.3867948
vt 0.09295511 0.3320029
vt 0.09276974 0.3261377
vt 0.1040227 0.3347021
vt 0.1019225 0.3387971
vt 0.1049553 0.3628012
vt 0.1019225 0.3387971
vt 0.1046107 0.335047
vt 0.1085733 0.36327
vt 0.1042133 0.3262158
vt 0.09228154 0.3251162
vt 0.09228149 0.3335365
vt 0.08034957 0.3262154
vt 0.1012425 0.3191377
vt 0.08332039 0.3191372
vt 0.1074285 0.3022652
vt 0.1036531 0.302266
vt 0.1012413 0.285395
vt 0.1042115 0.2783167
vt 0.07713432 0.3022654
vt 0.08090952 0.3022657
vt 0.08332089 0.2853958
vt 0.08035065 0.2783179
vt 0.09228098 0.2794176
vt 0.09228088 0.2709986
vt 0.1112845 0.2809421
vt 0.09236466 0.2809421
vt 0.1077216 0.3048254
vt 0.1077215 0.2570588
vt 0.09236474 0.3128992
vt 0.09236471 0.248985
vt 0.07700785 0.3048256
vt 0.07700785 0.2570587
vt 0.0734448 0.2809421
vt 0.1074285 0.3022652
vt 0.1012425 0.3191377
vt 0.1036531 0.302266
vt 0.1012413 0.285395
vt 0.1042133 0.3262158
vt 0.1042115 0.2783167
vt 0.09228154 0.3251162
vt 0.09228149 0.3335365
vt 0.08034957 0.3262154
vt 0.08332039 0.3191372
vt 0.09228098 0.2794176
vt 0.09228088 0.2709986
vt 0.08035065 0.2783179
vt 0.08332089 0.2853958
vt 0.07713432 0.3022654
vt 0.08090952 0.3022657
vt 0.1112845 0.2809421
vt 0.1077216 0.3048254
vt 0.09236466 0.2809421
vt 0.1077215 0.2570588
vt 0.09236474 0.3128992
vt 0.09236471 0.248985
vt 0.07700785 0.3048256
vt 0.07700785 0.2570587
vt 0.0734448 0.2809421
vn -0.7447373 0 0.6673578
vn -0.7447374 -1.013504E-07 0.6673577
vn -0.4996805 -0.5115381 0.6990338
vn -0.4966056 -0.514601 0.6989769
vn -0.4966056 -0.514601 0.6989769
vn -0.4996805 -0.5115381 0.6990338
vn 0 -0.7410668 0.6714314
vn 0 -0.7410668 0.6714314
vn 0.4966056 -0.5146011 0.6989768
vn 0.4996806 -0.5115382 0.6990337
vn 0.7447374 -1.809828E-07 0.6673576
vn 0.7447373 -1.478187E-07 0.6673577
vn 0 -0.7410668 0.6714314
vn 0.4996806 -0.5115382 0.6990337
vn 0.4966056 -0.5146011 0.6989768
vn 0 -0.7410668 0.6714314
vn -0.4996805 0.5115378 0.699034
vn -0.7447374 -1.013504E-07 0.6673577
vn -0.7447373 0 0.6673578
vn -0.4966056 0.5146007 0.6989771
vn 0 0.7410666 0.6714317
vn -0.4996805 0.5115378 0.699034
vn -0.4966056 0.5146007 0.6989771
vn 0 0.7410666 0.6714317
vn -0.7071069 -0.7071066 -1.57391E-07
vn -0.7071069 -0.7071066 -1.57391E-07
vn 0 -1 -2.39534E-07
vn 0 -1 -2.39534E-07
vn 0.7071069 -0.7071066 -1.57391E-07
vn 0.7071069 -0.7071066 -1.57391E-07
vn 0.7447374 -1.809828E-07 0.6673576
vn 0.4996806 0.5115378 0.699034
vn 0.4966056 0.5146008 0.698977
vn 0.7447373 -1.478187E-07 0.6673577
vn 0.4966056 0.5146008 0.698977
vn 0.4996806 0.5115378 0.699034
vn 0 0.7410666 0.6714317
vn 0 0.7410666 0.6714317
vn 1 0 0
vn 0.7071069 0.7071066 0
vn 0.7071069 0.7071066 0
vn 1 0 0
vn 0.7071069 -0.7071066 -1.57391E-07
vn 0.7071069 -0.7071066 -1.57391E-07
vn 0.7071069 0.7071066 0
vn 0.7071069 0.7071066 0
vn 0 1 0
vn 0 1 0
vn -0.7071069 0.7071066 0
vn -0.7071069 0.7071066 0
vn -1 0 0
vn -0.7071069 0.7071066 0
vn -0.7071069 0.7071066 0
vn -1 0 0
vn -0.7071069 -0.7071066 -1.57391E-07
vn -0.7071069 -0.7071066 -1.57391E-07
vn -0.4996805 -0.5115379 -0.6990339
vn -0.7447374 0 -0.6673576
vn -0.7447374 1.201027E-07 -0.6673576
vn -0.4966056 -0.514601 -0.6989769
vn 0 -0.7410667 -0.6714314
vn -0.4996805 -0.5115379 -0.6990339
vn -0.4966056 -0.514601 -0.6989769
vn 0 -0.7410667 -0.6714314
vn 0.7447374 0 -0.6673577
vn 0.4996806 -0.5115378 -0.6990339
vn 0.4966056 -0.5146009 -0.6989769
vn 0.7447374 1.201027E-07 -0.6673577
vn 0 -0.7410667 -0.6714314
vn 0 -0.7410667 -0.6714314
vn 0.4966056 -0.5146009 -0.6989769
vn 0.4996806 -0.5115378 -0.6990339
vn -0.4996806 0.5115381 -0.6990337
vn -0.4966057 0.5146011 -0.6989768
vn -0.7447374 1.201027E-07 -0.6673576
vn -0.7447374 0 -0.6673576
vn 0 0.7410669 -0.6714312
vn 0 0.7410669 -0.6714312
vn -0.4966057 0.5146011 -0.6989768
vn -0.4996806 0.5115381 -0.6990337
vn 0.7447374 0 -0.6673577
vn 0.7447374 1.201027E-07 -0.6673577
vn 0.4966057 0.5146011 -0.6989767
vn 0.4996806 0.511538 -0.6990337
vn 0 0.7410669 -0.6714312
vn 0.4996806 0.511538 -0.6990337
vn 0.4966057 0.5146011 -0.6989767
vn 0 0.7410669 -0.6714312
vn -4.648226E-07 -5.334938E-07 1
vn 0 -4.920511E-07 1
vn 0 -4.920511E-07 1
vn 4.375612E-07 -5.334939E-07 1
vn -4.770749E-07 -5.377243E-07 1
vn 4.470306E-07 -5.377244E-07 1
vn -6.968743E-07 -1.239545E-07 1
vn -6.968742E-07 -1.239545E-07 1
vn -5.929535E-07 3.58172E-07 1
vn -5.768115E-07 3.599372E-07 1
vn 6.628521E-07 -1.239546E-07 1
vn 6.628521E-07 -1.239546E-07 1
vn 5.899026E-07 3.58172E-07 1
vn 5.740433E-07 3.599372E-07 1
vn 0 3.772293E-07 1
vn 0 3.772293E-07 1
vn -2.637948E-07 -1.238334E-07 1
vn 0 -1.315863E-07 1
vn -3.509891E-07 -5.477808E-07 1
vn -3.629938E-07 2.860077E-07 1
vn 0 -4.596879E-07 1
vn 0 1.838751E-07 1
vn 3.595479E-07 -5.477808E-07 1
vn 3.763485E-07 2.860077E-07 1
vn 2.713384E-07 -1.238334E-07 1
vn -7.18351E-07 1.97199E-07 -1
vn -5.280109E-07 -2.068862E-07 -1
vn -7.18351E-07 1.971991E-07 -1
vn -5.502595E-07 6.675119E-07 -1
vn -5.110406E-07 -2.02724E-07 -1
vn -5.357908E-07 6.691586E-07 -1
vn 0 -1.619506E-07 -1
vn 0 -1.619506E-07 -1
vn 5.275682E-07 -2.02724E-07 -1
vn 5.437116E-07 -2.068863E-07 -1
vn 0 6.852906E-07 -1
vn 0 6.852906E-07 -1
vn 5.385592E-07 6.691586E-07 -1
vn 5.533104E-07 6.675119E-07 -1
vn 7.246238E-07 1.97199E-07 -1
vn 7.246239E-07 1.97199E-07 -1
vn -2.919204E-07 1.960698E-07 -1
vn -3.848772E-07 -2.141091E-07 -1
vn 0 1.935724E-07 -1
vn -3.571649E-07 6.017047E-07 -1
vn 0 -1.225834E-07 -1
vn 0 5.056565E-07 -1
vn 3.715226E-07 -2.141091E-07 -1
vn 3.534021E-07 6.017047E-07 -1
vn 2.843769E-07 1.960698E-07 -1
g powerup_coin_1_LOD2_0
f 3/3/3 2/2/2 1/1/1
f 4/4/4 3/3/3 1/1/1
f 7/7/7 6/6/6 5/5/5
f 8/8/8 7/7/7 5/5/5
f 11/11/11 10/10/10 9/9/9
f 12/12/12 11/11/11 9/9/9
f 15/15/15 14/14/14 13/13/13
f 16/16/16 15/15/15 13/13/13
f 19/19/19 18/18/18 17/17/17
f 20/20/20 19/19/19 17/17/17
f 23/23/23 22/22/22 21/21/21
f 24/24/24 23/23/23 21/21/21
f 27/27/27 26/26/26 25/25/25
f 28/28/28 27/27/27 25/25/25
f 27/27/27 28/28/28 29/29/29
f 28/28/28 30/30/30 29/29/29
f 33/33/33 32/32/32 31/31/31
f 34/34/34 33/33/33 31/31/31
f 37/37/37 36/36/36 35/35/35
f 38/38/38 37/37/37 35/35/35
f 41/41/41 40/40/40 39/39/39
f 40/40/40 42/42/42 39/39/39
f 39/39/39 42/42/42 43/43/43
f 44/44/44 39/39/39 43/43/43
f 47/47/47 46/46/46 45/45/45
f 48/48/48 47/47/47 45/45/45
f 47/47/47 48/48/48 49/49/49
f 48/48/48 50/50/50 49/49/49
f 53/53/53 52/52/52 51/51/51
f 52/52/52 54/54/54 51/51/51
f 51/51/51 54/54/54 55/55/55
f 56/56/56 51/51/51 55/55/55
f 59/59/59 58/58/58 57/57/57
f 60/60/60 59/59/59 57/57/57
f 63/63/63 62/62/62 61/61/61
f 64/64/64 63/63/63 61/61/61
f 67/67/67 66/66/66 65/65/65
f 68/68/68 67/67/67 65/65/65
f 71/71/71 70/70/70 69/69/69
f 72/72/72 71/71/71 69/69/69
f 75/75/75 74/74/74 73/73/73
f 76/76/76 75/75/75 73/73/73
f 79/79/79 78/78/78 77/77/77
f 80/80/80 79/79/79 77/77/77
f 83/83/83 82/82/82 81/81/81
f 84/84/84 83/83/83 81/81/81
f 87/87/87 86/86/86 85/85/85
f 88/88/88 87/87/87 85/85/85
f 91/91/91 90/90/90 89/89/89
f 90/90/90 91/91/91 92/92/92
f 90/90/90 93/93/93 89/89/89
f 94/94/94 90/90/90 92/92/92
f 89/89/89 93/93/93 95/95/95
f 93/93/93 96/96/96 95/95/95
f 96/96/96 97/97/97 95/95/95
f 97/97/97 98/98/98 95/95/95
f 94/94/94 92/92/92 99/99/99
f 100/100/100 94/94/94 99/99/99
f 101/101/101 100/100/100 99/99/99
f 102/102/102 101/101/101 99/99/99
f 97/97/97 103/103/103 98/98/98
f 103/103/103 101/101/101 102/102/102
f 103/103/103 104/104/104 98/98/98
f 104/104/104 103/103/103 102/102/102
f 107/107/107 106/106/106 105/105/105
f 106/106/106 108/108/108 105/105/105
f 109/109/109 106/106/106 107/107/107
f 106/106/106 110/110/110 108/108/108
f 106/106/106 109/109/109 111/111/111
f 110/110/110 106/106/106 112/112/112
f 106/106/106 111/111/111 113/113/113
f 112/112/112 106/106/106 113/113/113
f 116/116/116 115/115/115 114/114/114
f 117/117/117 116/116/116 114/114/114
f 115/115/115 118/118/118 114/114/114
f 119/119/119 117/117/117 114/114/114
f 115/115/115 120/120/120 118/118/118
f 120/120/120 121/121/121 118/118/118
f 121/121/121 120/120/120 122/122/122
f 120/120/120 123/123/123 122/122/122
f 124/124/124 117/117/117 119/119/119
f 125/125/125 124/124/124 119/119/119
f 124/124/124 125/125/125 126/126/126
f 127/127/127 124/124/124 126/126/126
f 122/122/122 123/123/123 128/128/128
f 127/127/127 126/126/126 128/128/128
f 123/123/123 129/129/129 128/128/128
f 129/129/129 127/127/127 128/128/128
f 132/132/132 131/131/131 130/130/130
f 133/133/133 132/132/132 130/130/130
f 132/132/132 134/134/134 131/131/131
f 135/135/135 132/132/132 133/133/133
f 134/134/134 132/132/132 136/136/136
f 132/132/132 135/135/135 137/137/137
f 136/136/136 132/132/132 138/138/138
f 132/132/132 137/137/137 138/138/138
