g Prop_Couch_08
v -1.387387 0 -0.8010044
v 1.192093E-07 0 0
v 0 0 -1.602013
v 1.387387 0 0.8010082
v 1.468495 0.5517005 0.8478374
v 1.468495 0.5517005 -0.8478336
v 1.387387 0 -0.8010044
v 1.468495 0.5517005 -0.8478336
v 0 0.5517005 -1.695671
v 0 0 -1.602013
v 0 0.5517005 -1.695671
v -1.468495 0.5517005 -0.8478336
v -1.387387 0 -0.8010044
v -1.468495 0.5517005 -0.8478336
v -1.468495 0.5517005 0.8478374
v -1.387387 0 0.8010081
v -1.468495 0.5517005 0.8478374
v 5.960464E-08 0.5517005 1.695671
v 5.960464E-08 0 1.602016
v 1.468495 0.5517005 0.8478374
v 5.960464E-08 0.5517005 1.695671
v 0 0 -1.602013
v 1.192093E-07 0 0
v 1.387387 0 -0.8010044
v 1.387387 0 0.8010082
v 5.960464E-08 0 1.602016
v -1.387387 0 0.8010081
v -1.387387 0 -0.8010044
v 1.468495 1.57575 0.8478374
v 1.304185 1.57575 0.7529726
v 1.304185 1.57575 -0.7529707
v 1.468495 1.57575 -0.8478336
v 0 1.57575 -1.505939
v 0 1.57575 -1.695671
v -1.304185 1.57575 -0.7529688
v -1.468495 1.57575 -0.8478336
v -1.304185 1.57575 0.7529706
v -1.468495 1.57575 0.8478374
v 5.960464E-08 0.8403668 1.695671
v 1.304185 0.8403668 0.7529726
v 1.468495 0.8403668 0.8478374
v 5.960464E-08 0.8403668 1.505943
v -1.468495 0.8403668 0.8478374
v -1.304185 0.8403668 0.7529706
v 1.030598 0.8403668 0.7303723
v 5.960464E-08 0.8403668 1.316212
v -1.030598 0.8403668 0.7303706
v 1.192093E-07 0.8403668 0
v 1.030598 0.8403668 -0.5839511
v -1.030598 0.8403668 -0.5839526
v 0 0.8403668 -1.17897
v 1.468495 0.5517005 0.8478374
v 1.468495 0.8403668 -0.8478336
v 1.468495 0.5517005 -0.8478336
v 1.468495 0.8403668 0.8478374
v 1.468495 1.57575 -0.8478336
v 1.468495 1.57575 0.8478374
v 0 1.57575 -1.695671
v 0 0.8403668 -1.695671
v 1.468495 0.5517005 -0.8478336
v 0 0.5517005 -1.695671
v -1.468495 1.57575 -0.8478336
v -1.468495 0.8403668 -0.8478336
v 0 0.5517005 -1.695671
v -1.468495 0.5517005 -0.8478336
v -1.468495 1.57575 0.8478374
v -1.468495 0.8403668 0.8478374
v -1.468495 0.5517005 -0.8478336
v -1.468495 0.5517005 0.8478374
v -1.468495 0.5517005 0.8478374
v -1.468495 0.8403668 0.8478374
v 5.960464E-08 0.8403668 1.695671
v 5.960464E-08 0.5517005 1.695671
v 5.960464E-08 0.5517005 1.695671
v 1.468495 0.8403668 0.8478374
v 1.468495 0.5517005 0.8478374
v 1.030598 0.8403668 -0.5839511
v 1.030598 1.57575 -0.5839511
v 1.030598 1.57575 0.7303723
v 1.030598 0.8403668 0.7303723
v 1.468495 0.8403668 0.8478374
v 1.304185 0.8403668 0.7529726
v 1.304185 1.57575 0.7529726
v 1.468495 1.57575 0.8478374
v 0 0.8403668 -1.17897
v 0 1.57575 -1.17897
v 1.030598 1.57575 -0.5839511
v 1.030598 0.8403668 -0.5839511
v -1.030598 0.8403668 -0.5839526
v -1.030598 1.57575 -0.5839526
v 0 1.57575 -1.17897
v 0 0.8403668 -1.17897
v -1.304185 0.8403668 0.7529706
v -1.468495 0.8403668 0.8478374
v -1.468495 1.57575 0.8478374
v -1.304185 1.57575 0.7529706
v -1.030598 0.8403668 0.7303706
v -1.030598 1.57575 0.7303706
v -1.030598 1.57575 -0.5839526
v -1.030598 0.8403668 -0.5839526
v -1.304185 1.57575 -0.7529688
v -1.030598 1.57575 0.7303706
v -1.304185 1.57575 0.7529706
v -1.030598 1.57575 -0.5839526
v 0 1.57575 -1.505939
v 0 1.57575 -1.17897
v 1.304185 1.57575 -0.7529707
v 1.030598 1.57575 -0.5839511
v 1.304185 1.57575 0.7529726
v 1.030598 1.57575 0.7303723
v 1.304185 0.8403668 0.7529726
v 1.030598 0.8403668 0.7303723
v 1.030598 1.57575 0.7303723
v 1.304185 1.57575 0.7529726
v -1.030598 1.57575 0.7303706
v -1.030598 0.8403668 0.7303706
v -1.304185 0.8403668 0.7529706
v -1.304185 1.57575 0.7529706
vt 0.04885864 0.04641724
vt 0.04885864 0.04641724
vt 0.04885864 0.04641724
vt 0.1098633 0.04641724
vt 0.1098633 0.04641724
vt 0.1098633 0.04641724
vt 0.1098633 0.04641724
vt 0.1098633 0.04641724
vt 0.1098633 0.04641724
vt 0.1098633 0.04641724
vt 0.1098633 0.04641724
vt 0.1098633 0.04641724
vt 0.1098633 0.04641724
vt 0.1098633 0.04641724
vt 0.1098633 0.04641724
vt 0.1098633 0.04641724
vt 0.1098633 0.04641724
vt 0.1098633 0.04641724
vt 0.1098633 0.04641724
vt 0.1098633 0.04641724
vt 0.1098633 0.04641724
vt 0.05227661 0.04641724
vt 0.05227661 0.04641724
vt 0.05227661 0.04641724
vt 0.05227661 0.04641724
vt 0.05227661 0.04641724
vt 0.05227661 0.04641724
vt 0.05227661 0.04641724
vt 0.2331543 0.04641724
vt 0.2331543 0.04641724
vt 0.2331543 0.04641724
vt 0.2331543 0.04641724
vt 0.2331543 0.04641724
vt 0.2331543 0.04641724
vt 0.2331543 0.04641724
vt 0.2331543 0.04641724
vt 0.2331543 0.04641724
vt 0.2331543 0.04641724
vt 0.2629395 0.442627
vt 0.2629395 0.442627
vt 0.2629395 0.442627
vt 0.2629395 0.442627
vt 0.2629395 0.442627
vt 0.2629395 0.442627
vt 0.2629395 0.442627
vt 0.2629395 0.442627
vt 0.2629395 0.442627
vt 0.2629395 0.442627
vt 0.2629395 0.442627
vt 0.2629395 0.442627
vt 0.2629395 0.442627
vt 0.1409912 0.04641724
vt 0.1409912 0.04641724
vt 0.1409912 0.04641724
vt 0.1409912 0.04641724
vt 0.1409912 0.04641724
vt 0.1409912 0.04641724
vt 0.1409912 0.04641724
vt 0.1409912 0.04641724
vt 0.1409912 0.04641724
vt 0.1409912 0.04641724
vt 0.1409912 0.04641724
vt 0.1409912 0.04641724
vt 0.1409912 0.04641724
vt 0.1409912 0.04641724
vt 0.1409912 0.04641724
vt 0.1409912 0.04641724
vt 0.1409912 0.04641724
vt 0.1409912 0.04641724
vt 0.2033691 0.442627
vt 0.2033691 0.442627
vt 0.2033691 0.442627
vt 0.2033691 0.442627
vt 0.2033691 0.442627
vt 0.2033691 0.442627
vt 0.2033691 0.442627
vt 0.1715088 0.442627
vt 0.1715088 0.442627
vt 0.1715088 0.442627
vt 0.1715088 0.442627
vt 0.2033691 0.04641724
vt 0.2033691 0.04641724
vt 0.2033691 0.04641724
vt 0.2033691 0.04641724
vt 0.2033691 0.442627
vt 0.2033691 0.442627
vt 0.2033691 0.442627
vt 0.2033691 0.442627
vt 0.1715088 0.442627
vt 0.1715088 0.442627
vt 0.1715088 0.442627
vt 0.1715088 0.442627
vt 0.2033691 0.04641724
vt 0.2033691 0.04641724
vt 0.2033691 0.04641724
vt 0.2033691 0.04641724
vt 0.2033691 0.442627
vt 0.2033691 0.442627
vt 0.2033691 0.442627
vt 0.2033691 0.442627
vt 0.2629395 0.442627
vt 0.2629395 0.442627
vt 0.2629395 0.442627
vt 0.2629395 0.442627
vt 0.2629395 0.442627
vt 0.2629395 0.442627
vt 0.2629395 0.442627
vt 0.2629395 0.442627
vt 0.2629395 0.442627
vt 0.2629395 0.442627
vt 0.2033691 0.442627
vt 0.2033691 0.442627
vt 0.2033691 0.442627
vt 0.2033691 0.442627
vt 0.2033691 0.442627
vt 0.2033691 0.442627
vt 0.2033691 0.442627
vt 0.2033691 0.442627
vn 0 -1 0
vn 0 -1 0
vn 0 -1 0
vn 0.8540039 -0.1673584 0.4929199
vn 0.9394531 -0.1100464 0.3239746
vn 0.9394531 -0.1100464 -0.3239746
vn 0.8540039 -0.1673584 -0.4929199
vn 0.7504883 -0.1100464 -0.6518555
vn 0.1890869 -0.1100464 -0.9755859
vn 0 -0.1673584 -0.9858398
vn -0.1890869 -0.1100464 -0.9755859
vn -0.7504883 -0.1100464 -0.6518555
vn -0.8540039 -0.1673584 -0.4929199
vn -0.9394531 -0.1100464 -0.3239746
vn -0.9394531 -0.1100464 0.3239746
vn -0.8540039 -0.1673584 0.4929199
vn -0.7504883 -0.1100464 0.6518555
vn -0.1890869 -0.1100464 0.9755859
vn 0 -0.1673584 0.9858398
vn 0.7504883 -0.1100464 0.6518555
vn 0.1890869 -0.1100464 0.9755859
vn 0 -1 0
vn 0 -1 0
vn 0 -1 0
vn 0 -1 0
vn 0 -1 0
vn 0 -1 0
vn 0 -1 0
vn 0 1 0
vn 0 1 0
vn 0 1 0
vn 0 1 0
vn 0 1 0
vn 0 1 0
vn 0 1 0
vn 0 1 0
vn 0 1 0
vn 0 1 0
vn 0 1 0
vn 0 1 0
vn 0 1 0
vn 0 1 0
vn 0 1 0
vn 0 1 0
vn 0 1 0
vn 0 1 0
vn 0 1 0
vn 0 1 0
vn 0 1 0
vn 0 1 0
vn 0 1 0
vn 0.9428711 -0.05511475 0.328125
vn 0.8662109 0 -0.5
vn 0.9428711 -0.05511475 -0.328125
vn 0.9448242 0 0.3273926
vn 0.8662109 0 -0.5
vn 1 0 0
vn 0 0 -1
vn 0 0 -1
vn 0.7558594 -0.05511475 -0.652832
vn 0.1873779 -0.05511475 -0.980957
vn -0.8662109 0 -0.5
vn -0.8662109 0 -0.5
vn -0.1873779 -0.05511475 -0.980957
vn -0.7558594 -0.05511475 -0.652832
vn -1 0 0
vn -0.9448242 0 0.3273926
vn -0.9428711 -0.05511475 -0.328125
vn -0.9428711 -0.05511475 0.328125
vn -0.7558594 -0.05511475 0.652832
vn -0.7558594 0 0.6547852
vn 0 0 1
vn -0.1873779 -0.05511475 0.980957
vn 0.1873779 -0.05511475 0.980957
vn 0.7558594 0 0.6547852
vn 0.7558594 -0.05511475 0.652832
vn -0.8662109 0 0.5
vn -0.8662109 0 0.5
vn -1 0 0
vn -1 0 0
vn 0 0 1
vn -0.2983398 0 0.9545898
vn -0.2983398 0 0.9545898
vn -0.5 0 0.8662109
vn 0 0 1
vn 0 0 1
vn -0.8662109 0 0.5
vn -0.8662109 0 0.5
vn 0.8662109 0 0.5
vn 0.8662109 0 0.5
vn 0 0 1
vn 0 0 1
vn 0.2983398 0 0.9545898
vn 0 0 1
vn 0.5 0 0.8662109
vn 0.2983398 0 0.9545898
vn 1 0 0
vn 1 0 0
vn 0.8662109 0 0.5
vn 0.8662109 0 0.5
vn 0 1 0
vn 0 1 0
vn 0 1 0
vn 0 1 0
vn 0 1 0
vn 0 1 0
vn 0 1 0
vn 0 1 0
vn 0 1 0
vn 0 1 0
vn -0.2983398 0 0.9545898
vn -0.08233643 0 0.996582
vn -0.08233643 0 0.996582
vn -0.2983398 0 0.9545898
vn 0.08233643 0 0.996582
vn 0.08233643 0 0.996582
vn 0.2983398 0 0.9545898
vn 0.2983398 0 0.9545898
g Prop_Couch_08_0
f 3/3/3 2/2/2 1/1/1
f 6/6/6 5/5/5 4/4/4
f 7/7/7 6/6/6 4/4/4
f 9/9/9 8/8/8 7/7/7
f 10/10/10 9/9/9 7/7/7
f 12/12/12 11/11/11 10/10/10
f 13/13/13 12/12/12 10/10/10
f 15/15/15 14/14/14 13/13/13
f 16/16/16 15/15/15 13/13/13
f 18/18/18 17/17/17 16/16/16
f 19/19/19 18/18/18 16/16/16
f 4/4/4 20/20/20 19/19/19
f 20/20/20 21/21/21 19/19/19
f 24/24/24 23/23/23 22/22/22
f 25/25/25 23/23/23 24/24/24
f 26/26/26 23/23/23 25/25/25
f 27/27/27 23/23/23 26/26/26
f 28/28/28 23/23/23 27/27/27
f 31/31/31 30/30/30 29/29/29
f 32/32/32 31/31/31 29/29/29
f 33/33/33 31/31/31 32/32/32
f 34/34/34 33/33/33 32/32/32
f 35/35/35 33/33/33 34/34/34
f 36/36/36 35/35/35 34/34/34
f 37/37/37 35/35/35 36/36/36
f 38/38/38 37/37/37 36/36/36
f 41/41/41 40/40/40 39/39/39
f 40/40/40 42/42/42 39/39/39
f 39/39/39 42/42/42 43/43/43
f 42/42/42 44/44/44 43/43/43
f 40/40/40 45/45/45 42/42/42
f 42/42/42 46/46/46 44/44/44
f 45/45/45 46/46/46 42/42/42
f 46/46/46 47/47/47 44/44/44
f 45/45/45 48/48/48 46/46/46
f 46/46/46 48/48/48 47/47/47
f 49/49/49 48/48/48 45/45/45
f 47/47/47 48/48/48 50/50/50
f 51/51/51 48/48/48 49/49/49
f 50/50/50 48/48/48 51/51/51
f 54/54/54 53/53/53 52/52/52
f 53/53/53 55/55/55 52/52/52
f 53/53/53 56/56/56 55/55/55
f 56/56/56 57/57/57 55/55/55
f 58/58/58 56/56/56 53/53/53
f 59/59/59 58/58/58 53/53/53
f 59/59/59 53/53/53 60/60/60
f 61/61/61 59/59/59 60/60/60
f 62/62/62 58/58/58 59/59/59
f 63/63/63 62/62/62 59/59/59
f 63/63/63 59/59/59 64/64/64
f 65/65/65 63/63/63 64/64/64
f 66/66/66 62/62/62 63/63/63
f 67/67/67 66/66/66 63/63/63
f 67/67/67 63/63/63 68/68/68
f 69/69/69 67/67/67 68/68/68
f 72/72/72 71/71/71 70/70/70
f 73/73/73 72/72/72 70/70/70
f 75/75/75 72/72/72 74/74/74
f 76/76/76 75/75/75 74/74/74
f 79/79/79 78/78/78 77/77/77
f 80/80/80 79/79/79 77/77/77
f 83/83/83 82/82/82 81/81/81
f 84/84/84 83/83/83 81/81/81
f 87/87/87 86/86/86 85/85/85
f 88/88/88 87/87/87 85/85/85
f 91/91/91 90/90/90 89/89/89
f 92/92/92 91/91/91 89/89/89
f 95/95/95 94/94/94 93/93/93
f 96/96/96 95/95/95 93/93/93
f 99/99/99 98/98/98 97/97/97
f 100/100/100 99/99/99 97/97/97
f 103/103/103 102/102/102 101/101/101
f 102/102/102 104/104/104 101/101/101
f 101/101/101 104/104/104 105/105/105
f 104/104/104 106/106/106 105/105/105
f 105/105/105 106/106/106 107/107/107
f 106/106/106 108/108/108 107/107/107
f 107/107/107 108/108/108 109/109/109
f 108/108/108 110/110/110 109/109/109
f 113/113/113 112/112/112 111/111/111
f 114/114/114 113/113/113 111/111/111
f 117/117/117 116/116/116 115/115/115
f 118/118/118 117/117/117 115/115/115
