g Sphere004
v -1.544716 1.689297 7.223737
v -1.542343 1.675137 7.348093
v -1.5314 1.644732 7.332656
v -1.51564 1.690847 7.138964
v -1.596217 1.755768 7.034549
v -1.525658 1.629364 7.314942
v -1.617587 1.703037 7.001082
v -1.636286 1.797704 6.981837
v -1.509715 1.674519 7.067254
v -1.509057 1.61675 7.311944
v -1.507734 1.629188 7.08415
v -1.560196 1.699758 6.871282
v -1.526749 1.725023 6.810492
v -1.66873 1.713963 6.910447
v -1.687659 1.812651 6.898813
v -1.588104 1.749513 6.716561
v -1.568955 1.744455 6.677921
v -1.689433 1.747697 6.774857
v -1.713112 1.843567 6.811886
v -1.610457 1.787011 6.553011
v -1.59189 1.785029 6.504671
v -1.719936 1.783055 6.662844
v -1.744479 1.875953 6.746671
v -1.645139 1.82504 6.417476
v -1.629155 1.824971 6.360579
v -1.75803 1.819668 6.579043
v -1.779346 1.909716 6.705882
v -1.689077 1.863817 6.315985
v -1.677639 1.864363 6.251972
v -1.799491 1.858769 6.527564
v -1.815247 1.944623 6.691278
v -1.735522 1.906726 6.254817
v -1.729172 1.907769 6.185988
v -1.841278 1.900241 6.510849
v -1.850395 1.979722 6.703489
v -1.780958 1.953786 6.237136
v -1.778389 1.956782 6.166756
v -1.882513 1.941791 6.529306
v -1.883637 2.013476 6.742013
v -1.827086 1.999866 6.262001
v -1.827239 2.005814 6.193209
v -1.921369 1.982058 6.582303
v -1.914531 2.043793 6.805227
v -1.870464 2.044804 6.329241
v -1.871312 2.055426 6.265521
v -1.956612 2.019245 6.667723
v -1.943081 2.06838 6.890498
v -1.908098 2.088152 6.436897
v -1.908758 2.103856 6.380985
v -1.98929 2.049625 6.781508
v -1.927396 2.137804 6.937856
v -1.943138 2.123817 6.578668
v -1.945027 2.142614 6.531927
v -2.005822 2.095215 6.893804
v -1.958778 2.16434 7.012467
v -1.977185 2.147588 6.747723
v -1.981773 2.167269 6.711112
v -2.001069 2.159689 6.957532
v -2.019383 2.179296 7.161352
v -2.024346 2.179254 6.885346
v -2.032368 2.198186 6.85973
v -2.036742 2.179135 7.145486
v -2.000084 2.184405 7.321793
v -2.063534 2.201974 7.046482
v -2.074456 2.219648 7.032846
v -2.015414 2.185701 7.335481
v -1.947852 2.189872 7.408142
v -2.034733 2.195078 7.332278
v -2.046791 2.212111 7.331665
v -2.053415 2.103807 7.576142
v -2.00028 2.075595 7.642939
v -2.034426 2.155747 7.577459
v -2.045381 2.173195 7.590618
v -2.0361 2.077344 7.750494
v -1.983511 2.056603 7.763556
v -2.015962 2.145561 7.788089
v -2.024194 2.163909 7.814968
v -2.033797 2.044118 7.926107
v -1.962192 2.030965 7.869326
v -1.989033 2.127149 7.981723
v -1.994072 2.145839 8.02125
v -2.007589 2.015648 8.063464
v -1.937709 1.999129 7.956086
v -1.958664 2.097372 8.149042
v -1.961203 2.114835 8.199171
v -1.979262 1.978209 8.17478
v -1.910447 1.962845 8.0206
v -1.927684 2.055777 8.282835
v -1.928937 2.070078 8.340913
v -1.948837 1.934262 8.256117
v -1.880107 1.924785 8.060616
v -1.895643 2.00554 8.378732
v -1.896429 2.015296 8.442007
v -1.914901 1.887964 8.305182
v -1.846511 1.88769 8.074825
v -1.859816 1.952403 8.434908
v -1.859902 1.957435 8.500935
v -1.876172 1.843569 8.320912
v -1.81039 1.853515 8.062779
v -1.817622 1.902221 8.451065
v -1.815733 1.903561 8.517793
v -1.833068 1.803805 8.303056
v -1.773685 1.823049 8.024848
v -1.769044 1.858501 8.427351
v -1.763539 1.857749 8.492912
v -1.788313 1.76918 8.251952
v -1.739145 1.796192 7.962256
v -1.717586 1.821346 8.363911
v -1.707406 1.819756 8.426271
v -1.746205 1.738558 8.168736
v -1.709433 1.772709 7.877185
v -1.669179 1.788375 8.26132
v -1.654514 1.786202 8.318069
v -1.710938 1.710654 8.055781
v -1.686235 1.752985 7.772807
v -1.629631 1.757052 8.121666
v -1.611915 1.753543 8.170104
v -1.665706 1.698563 7.900002
v -1.599001 1.743609 7.619668
v -1.602098 1.727006 7.949549
v -1.583326 1.72103 7.987082
v -1.622559 1.662229 7.730344
v -1.608527 1.675304 7.531567
v -1.568937 1.683612 7.743895
v -1.541318 1.664112 7.783858
v -1.569546 1.658818 7.539722
v -1.542343 1.675137 7.348093
v -1.5314 1.644732 7.332656
v -1.545382 1.64971 7.541867
v -1.528251 1.638058 7.552675
v -1.525658 1.629364 7.314942
v -1.509057 1.61675 7.311944
vt 0.96875 0.75
vt 1 0.75
vt 1 0.6875
vt 0.96875 0.6875
vt 0.9375 0.75
vt 1 0.625
vt 0.9375 0.6875
vt 0.90625 0.75
vt 0.96875 0.625
vt 1 0.5625
vt 0.96875 0.5625
vt 0.9375 0.625
vt 0.9375 0.5625
vt 0.90625 0.6875
vt 0.875 0.75
vt 0.90625 0.625
vt 0.90625 0.5625
vt 0.875 0.6875
vt 0.84375 0.75
vt 0.875 0.625
vt 0.875 0.5625
vt 0.84375 0.6875
vt 0.8125 0.75
vt 0.84375 0.625
vt 0.84375 0.5625
vt 0.8125 0.6875
vt 0.78125 0.75
vt 0.8125 0.625
vt 0.8125 0.5625
vt 0.78125 0.6875
vt 0.75 0.75
vt 0.78125 0.625
vt 0.78125 0.5625
vt 0.75 0.6875
vt 0.71875 0.75
vt 0.75 0.625
vt 0.75 0.5625
vt 0.71875 0.6875
vt 0.6875 0.75
vt 0.71875 0.625
vt 0.71875 0.5625
vt 0.6875 0.6875
vt 0.65625 0.75
vt 0.6875 0.625
vt 0.6875 0.5625
vt 0.65625 0.6875
vt 0.625 0.75
vt 0.65625 0.625
vt 0.65625 0.5625
vt 0.625 0.6875
vt 0.59375 0.75
vt 0.625 0.625
vt 0.625 0.5625
vt 0.59375 0.6875
vt 0.5625 0.75
vt 0.59375 0.625
vt 0.59375 0.5625
vt 0.5625 0.6875
vt 0.53125 0.75
vt 0.5625 0.625
vt 0.5625 0.5625
vt 0.53125 0.6875
vt 0.5 0.75
vt 0.53125 0.625
vt 0.53125 0.5625
vt 0.5 0.6875
vt 0.46875 0.75
vt 0.5 0.625
vt 0.5 0.5625
vt 0.46875 0.6875
vt 0.4375 0.75
vt 0.46875 0.625
vt 0.46875 0.5625
vt 0.4375 0.6875
vt 0.40625 0.75
vt 0.4375 0.625
vt 0.4375 0.5625
vt 0.40625 0.6875
vt 0.375 0.75
vt 0.40625 0.625
vt 0.40625 0.5625
vt 0.375 0.6875
vt 0.34375 0.75
vt 0.375 0.625
vt 0.375 0.5625
vt 0.34375 0.6875
vt 0.3125 0.75
vt 0.34375 0.625
vt 0.34375 0.5625
vt 0.3125 0.6875
vt 0.28125 0.75
vt 0.3125 0.625
vt 0.3125 0.5625
vt 0.28125 0.6875
vt 0.25 0.75
vt 0.28125 0.625
vt 0.28125 0.5625
vt 0.25 0.6875
vt 0.21875 0.75
vt 0.25 0.625
vt 0.25 0.5625
vt 0.21875 0.6875
vt 0.1875 0.75
vt 0.21875 0.625
vt 0.21875 0.5625
vt 0.1875 0.6875
vt 0.15625 0.75
vt 0.1875 0.625
vt 0.1875 0.5625
vt 0.15625 0.6875
vt 0.125 0.75
vt 0.15625 0.625
vt 0.15625 0.5625
vt 0.125 0.6875
vt 0.09375 0.75
vt 0.125 0.625
vt 0.125 0.5625
vt 0.09375 0.6875
vt 0.0625 0.75
vt 0.09375 0.625
vt 0.09375 0.5625
vt 0.0625 0.6875
vt 0.03125 0.75
vt 0.0625 0.625
vt 0.0625 0.5625
vt 0.03125 0.6875
vt 0 0.75
vt 0 0.6875
vt 0.03125 0.625
vt 0.03125 0.5625
vt 0 0.625
vt 0 0.5625
vn -0.7949219 -0.6015625 -0.07751465
vn -0.7285156 -0.6674805 -0.1538086
vn -0.7719727 -0.6289063 -0.09454346
vn -0.8828125 -0.4682617 0.03244019
vn -0.8466797 -0.3845215 0.3676758
vn -0.8842773 -0.4641113 -0.05004883
vn -0.6508789 -0.7236328 0.2307129
vn -0.8945313 -0.09454346 0.4370117
vn -0.5839844 -0.8095703 -0.05706787
vn -0.8271484 -0.5610352 -0.03250122
vn -0.8701172 -0.484375 -0.08996582
vn -0.348877 -0.9262695 -0.1419678
vn -0.1542969 -0.9658203 -0.2086182
vn -0.7207031 -0.6826172 0.1210327
vn -0.949707 -0.189209 0.2498779
vn -0.1335449 -0.96875 -0.208252
vn -0.3786621 -0.9116211 -0.1612549
vn -0.6396484 -0.7685547 -0.02342224
vn -0.9262695 -0.3322754 0.1791992
vn -0.3371582 -0.9238281 -0.1826172
vn -0.4553223 -0.8803711 -0.1317139
vn -0.6206055 -0.7836914 -0.02960205
vn -0.8588867 -0.4609375 0.2237549
vn -0.376709 -0.9086914 -0.1811523
vn -0.4743652 -0.8725586 -0.1159668
vn -0.6186523 -0.7851563 -0.02685547
vn -0.777832 -0.5761719 0.2521973
vn -0.4731445 -0.8632813 -0.1756592
vn -0.5664063 -0.8188477 -0.09436035
vn -0.6567383 -0.7529297 -0.04403687
vn -0.6767578 -0.6855469 0.2680664
vn -0.6113281 -0.7744141 -0.1627197
vn -0.6650391 -0.7431641 -0.07312012
vn -0.7133789 -0.6982422 -0.05819702
vn -0.5454102 -0.7919922 0.2746582
vn -0.7050781 -0.6928711 -0.1505127
vn -0.7094727 -0.7021484 -0.06130981
vn -0.7607422 -0.6474609 -0.04312134
vn -0.3828125 -0.8847656 0.265625
vn -0.7753906 -0.6103516 -0.1604004
vn -0.7407227 -0.6689453 -0.06130981
vn -0.7929688 -0.6088867 -0.01760864
vn -0.1903076 -0.9541016 0.2314453
vn -0.8681641 -0.4643555 -0.175415
vn -0.8037109 -0.5898438 -0.07672119
vn -0.793457 -0.6083984 -0.005508423
vn -0.2695313 -0.831543 0.4855957
vn -0.9282227 -0.3249512 -0.1806641
vn -0.8779297 -0.4685059 -0.09906006
vn -0.7841797 -0.6171875 0.05990601
vn -0.1647949 -0.824707 0.5415039
vn -0.9521484 -0.2481689 -0.1774902
vn -0.9033203 -0.4128418 -0.1173096
vn -0.7456055 -0.6040039 0.2817383
vn -0.05749512 -0.9672852 0.2463379
vn -0.9521484 -0.2524414 -0.1719971
vn -0.8828125 -0.4501953 -0.1347656
vn -0.4770508 -0.8583984 0.1887207
vn -0.03482056 -0.9980469 0.05609131
vn -0.8759766 -0.46875 -0.1141968
vn -0.8251953 -0.543457 -0.1535645
vn -0.3959961 -0.9155273 0.06958008
vn 0.09741211 -0.9931641 -0.06756592
vn -0.7421875 -0.6699219 -0.009277344
vn -0.831543 -0.5522461 -0.06280518
vn -0.4189453 -0.9003906 -0.1193237
vn 0.2531738 -0.9355469 -0.2454834
vn -0.8652344 -0.5014648 -0.002889633
vn -0.8457031 -0.5336914 0.0004677773
vn -0.7744141 -0.5942383 -0.2161865
vn -0.1228027 -0.9448242 -0.3034668
vn -0.9790039 -0.2042236 -0.009010315
vn -0.8510742 -0.5249023 0.006782532
vn -0.8891602 -0.456543 -0.03762817
vn -0.3261719 -0.934082 -0.1445313
vn -0.9887695 -0.1148071 0.09814453
vn -0.875 -0.4777832 0.07659912
vn -0.9023438 -0.4306641 0.01179504
vn -0.3259277 -0.9321289 -0.1568604
vn -0.9853516 -0.08099365 0.1502686
vn -0.8999023 -0.427002 0.09039307
vn -0.9277344 -0.3679199 0.06262207
vn -0.5004883 -0.847168 -0.178833
vn -0.9765625 -0.09802246 0.192627
vn -0.9116211 -0.4018555 0.08618164
vn -0.9331055 -0.3469238 0.09564209
vn -0.6181641 -0.762207 -0.1928711
vn -0.9624023 -0.1621094 0.2171631
vn -0.9047852 -0.4196777 0.07226563
vn -0.9116211 -0.3859863 0.1419678
vn -0.6762695 -0.7084961 -0.2015381
vn -0.9282227 -0.2841797 0.239502
vn -0.871582 -0.4870605 0.05639648
vn -0.840332 -0.5029297 0.2028809
vn -0.7006836 -0.6831055 -0.2056885
vn -0.8442383 -0.4719238 0.2541504
vn -0.8066406 -0.5893555 0.04483032
vn -0.6855469 -0.6870117 0.2407227
vn -0.7255859 -0.6572266 -0.2037354
vn -0.6884766 -0.6777344 0.2583008
vn -0.7192383 -0.6938477 0.04049683
vn -0.5 -0.8408203 0.2062988
vn -0.7768555 -0.5991211 -0.192749
vn -0.4777832 -0.8388672 0.2609863
vn -0.6152344 -0.7871094 0.04309082
vn -0.3818359 -0.9125977 0.1461182
vn -0.8530273 -0.4936523 -0.1702881
vn -0.2817383 -0.9277344 0.244751
vn -0.512207 -0.8574219 0.05340576
vn -0.3410645 -0.9345703 0.09954834
vn -0.8383789 -0.5224609 -0.1551514
vn -0.1544189 -0.9633789 0.2183838
vn -0.4433594 -0.8935547 0.06848145
vn -0.3571777 -0.9326172 0.0484314
vn -0.8413086 -0.4804688 -0.2475586
vn -0.09442139 -0.9785156 0.1831055
vn -0.4243164 -0.9018555 0.08209229
vn -0.3547363 -0.9345703 0.03096008
vn -0.9379883 -0.3173828 -0.140625
vn -0.1395264 -0.9760742 0.1669922
vn -0.4770508 -0.8745117 0.08837891
vn -0.4282227 -0.9033203 -0.02793884
vn -0.8632813 -0.4890137 -0.1242676
vn -0.2283936 -0.9633789 0.1418457
vn -0.5961914 -0.7988281 0.07995605
vn -0.5976563 -0.8007813 -0.03762817
vn -0.7285156 -0.6674805 -0.1538086
vn -0.7719727 -0.6289063 -0.09454346
vn -0.4626465 -0.8857422 0.0430603
vn -0.6035156 -0.7958984 0.04415894
vn -0.8842773 -0.4641113 -0.05004883
vn -0.8271484 -0.5610352 -0.03250122
g Sphere004_0
f 3/3/3 2/2/2 1/1/1
f 4/4/4 3/3/3 1/1/1
f 4/4/4 1/1/1 5/5/5
f 6/6/6 3/3/3 4/4/4
f 7/7/7 4/4/4 5/5/5
f 7/7/7 5/5/5 8/8/8
f 9/9/9 6/6/6 4/4/4
f 9/9/9 4/4/4 7/7/7
f 10/10/10 6/6/6 9/9/9
f 11/11/11 10/10/10 9/9/9
f 11/11/11 9/9/9 12/12/12
f 12/12/12 9/9/9 7/7/7
f 13/13/13 11/11/11 12/12/12
f 14/14/14 7/7/7 8/8/8
f 12/12/12 7/7/7 14/14/14
f 14/14/14 8/8/8 15/15/15
f 13/13/13 12/12/12 16/16/16
f 16/16/16 12/12/12 14/14/14
f 17/17/17 13/13/13 16/16/16
f 18/18/18 14/14/14 15/15/15
f 16/16/16 14/14/14 18/18/18
f 18/18/18 15/15/15 19/19/19
f 17/17/17 16/16/16 20/20/20
f 20/20/20 16/16/16 18/18/18
f 21/21/21 17/17/17 20/20/20
f 22/22/22 18/18/18 19/19/19
f 20/20/20 18/18/18 22/22/22
f 22/22/22 19/19/19 23/23/23
f 21/21/21 20/20/20 24/24/24
f 24/24/24 20/20/20 22/22/22
f 25/25/25 21/21/21 24/24/24
f 26/26/26 22/22/22 23/23/23
f 24/24/24 22/22/22 26/26/26
f 26/26/26 23/23/23 27/27/27
f 25/25/25 24/24/24 28/28/28
f 28/28/28 24/24/24 26/26/26
f 29/29/29 25/25/25 28/28/28
f 30/30/30 26/26/26 27/27/27
f 28/28/28 26/26/26 30/30/30
f 30/30/30 27/27/27 31/31/31
f 29/29/29 28/28/28 32/32/32
f 32/32/32 28/28/28 30/30/30
f 33/33/33 29/29/29 32/32/32
f 34/34/34 30/30/30 31/31/31
f 32/32/32 30/30/30 34/34/34
f 34/34/34 31/31/31 35/35/35
f 33/33/33 32/32/32 36/36/36
f 36/36/36 32/32/32 34/34/34
f 37/37/37 33/33/33 36/36/36
f 38/38/38 34/34/34 35/35/35
f 36/36/36 34/34/34 38/38/38
f 38/38/38 35/35/35 39/39/39
f 37/37/37 36/36/36 40/40/40
f 40/40/40 36/36/36 38/38/38
f 41/41/41 37/37/37 40/40/40
f 42/42/42 38/38/38 39/39/39
f 40/40/40 38/38/38 42/42/42
f 42/42/42 39/39/39 43/43/43
f 41/41/41 40/40/40 44/44/44
f 44/44/44 40/40/40 42/42/42
f 45/45/45 41/41/41 44/44/44
f 46/46/46 42/42/42 43/43/43
f 44/44/44 42/42/42 46/46/46
f 46/46/46 43/43/43 47/47/47
f 45/45/45 44/44/44 48/48/48
f 48/48/48 44/44/44 46/46/46
f 49/49/49 45/45/45 48/48/48
f 50/50/50 46/46/46 47/47/47
f 48/48/48 46/46/46 50/50/50
f 50/50/50 47/47/47 51/51/51
f 49/49/49 48/48/48 52/52/52
f 52/52/52 48/48/48 50/50/50
f 53/53/53 49/49/49 52/52/52
f 54/54/54 50/50/50 51/51/51
f 52/52/52 50/50/50 54/54/54
f 54/54/54 51/51/51 55/55/55
f 53/53/53 52/52/52 56/56/56
f 56/56/56 52/52/52 54/54/54
f 57/57/57 53/53/53 56/56/56
f 58/58/58 54/54/54 55/55/55
f 56/56/56 54/54/54 58/58/58
f 58/58/58 55/55/55 59/59/59
f 57/57/57 56/56/56 60/60/60
f 60/60/60 56/56/56 58/58/58
f 61/61/61 57/57/57 60/60/60
f 62/62/62 58/58/58 59/59/59
f 60/60/60 58/58/58 62/62/62
f 62/62/62 59/59/59 63/63/63
f 61/61/61 60/60/60 64/64/64
f 64/64/64 60/60/60 62/62/62
f 65/65/65 61/61/61 64/64/64
f 66/66/66 62/62/62 63/63/63
f 64/64/64 62/62/62 66/66/66
f 66/66/66 63/63/63 67/67/67
f 65/65/65 64/64/64 68/68/68
f 68/68/68 64/64/64 66/66/66
f 69/69/69 65/65/65 68/68/68
f 70/70/70 66/66/66 67/67/67
f 68/68/68 66/66/66 70/70/70
f 70/70/70 67/67/67 71/71/71
f 69/69/69 68/68/68 72/72/72
f 72/72/72 68/68/68 70/70/70
f 73/73/73 69/69/69 72/72/72
f 74/74/74 70/70/70 71/71/71
f 72/72/72 70/70/70 74/74/74
f 74/74/74 71/71/71 75/75/75
f 73/73/73 72/72/72 76/76/76
f 76/76/76 72/72/72 74/74/74
f 77/77/77 73/73/73 76/76/76
f 78/78/78 74/74/74 75/75/75
f 76/76/76 74/74/74 78/78/78
f 78/78/78 75/75/75 79/79/79
f 77/77/77 76/76/76 80/80/80
f 80/80/80 76/76/76 78/78/78
f 81/81/81 77/77/77 80/80/80
f 82/82/82 78/78/78 79/79/79
f 80/80/80 78/78/78 82/82/82
f 82/82/82 79/79/79 83/83/83
f 81/81/81 80/80/80 84/84/84
f 84/84/84 80/80/80 82/82/82
f 85/85/85 81/81/81 84/84/84
f 86/86/86 82/82/82 83/83/83
f 84/84/84 82/82/82 86/86/86
f 86/86/86 83/83/83 87/87/87
f 85/85/85 84/84/84 88/88/88
f 88/88/88 84/84/84 86/86/86
f 89/89/89 85/85/85 88/88/88
f 90/90/90 86/86/86 87/87/87
f 88/88/88 86/86/86 90/90/90
f 90/90/90 87/87/87 91/91/91
f 89/89/89 88/88/88 92/92/92
f 92/92/92 88/88/88 90/90/90
f 93/93/93 89/89/89 92/92/92
f 94/94/94 90/90/90 91/91/91
f 92/92/92 90/90/90 94/94/94
f 94/94/94 91/91/91 95/95/95
f 93/93/93 92/92/92 96/96/96
f 96/96/96 92/92/92 94/94/94
f 97/97/97 93/93/93 96/96/96
f 98/98/98 94/94/94 95/95/95
f 96/96/96 94/94/94 98/98/98
f 98/98/98 95/95/95 99/99/99
f 97/97/97 96/96/96 100/100/100
f 100/100/100 96/96/96 98/98/98
f 101/101/101 97/97/97 100/100/100
f 102/102/102 98/98/98 99/99/99
f 100/100/100 98/98/98 102/102/102
f 102/102/102 99/99/99 103/103/103
f 101/101/101 100/100/100 104/104/104
f 104/104/104 100/100/100 102/102/102
f 105/105/105 101/101/101 104/104/104
f 106/106/106 102/102/102 103/103/103
f 104/104/104 102/102/102 106/106/106
f 106/106/106 103/103/103 107/107/107
f 105/105/105 104/104/104 108/108/108
f 108/108/108 104/104/104 106/106/106
f 109/109/109 105/105/105 108/108/108
f 110/110/110 106/106/106 107/107/107
f 108/108/108 106/106/106 110/110/110
f 110/110/110 107/107/107 111/111/111
f 109/109/109 108/108/108 112/112/112
f 112/112/112 108/108/108 110/110/110
f 113/113/113 109/109/109 112/112/112
f 114/114/114 110/110/110 111/111/111
f 112/112/112 110/110/110 114/114/114
f 114/114/114 111/111/111 115/115/115
f 113/113/113 112/112/112 116/116/116
f 116/116/116 112/112/112 114/114/114
f 117/117/117 113/113/113 116/116/116
f 118/118/118 114/114/114 115/115/115
f 116/116/116 114/114/114 118/118/118
f 118/118/118 115/115/115 119/119/119
f 117/117/117 116/116/116 120/120/120
f 120/120/120 116/116/116 118/118/118
f 121/121/121 117/117/117 120/120/120
f 122/122/122 118/118/118 119/119/119
f 120/120/120 118/118/118 122/122/122
f 122/122/122 119/119/119 123/123/123
f 121/121/121 120/120/120 124/124/124
f 124/124/124 120/120/120 122/122/122
f 125/125/125 121/121/121 124/124/124
f 126/126/126 122/122/122 123/123/123
f 124/124/124 122/122/122 126/126/126
f 126/126/126 123/123/123 127/127/127
f 128/128/128 126/126/126 127/127/127
f 125/125/125 124/124/124 129/129/129
f 129/129/129 124/124/124 126/126/126
f 129/129/129 126/126/126 128/128/128
f 130/130/130 125/125/125 129/129/129
f 131/131/131 129/129/129 128/128/128
f 130/130/130 129/129/129 131/131/131
f 132/132/132 130/130/130 131/131/131
