g Wall A-12
v -2 1.8 -1
v 5.960464E-08 2.5 -1
v -2 2.5 -1
v 5.960464E-08 1.8 -1
v -2 0.9 -1
v 5.960464E-08 0.9 -1
v -2 0 -1
v 5.960464E-08 0 -1
v 5.960464E-08 0 -0.09999999
v 5.960464E-08 0 0
v 5.960464E-08 0.7999999 0
v 5.960464E-08 0.9 -0.09999999
v 5.960464E-08 0.9 -0.09999999
v 5.960464E-08 0.7999999 0
v -2 0.7999999 0
v -2 0.9 -0.09999999
v -2 1.8 -0.1952597
v -2 1.8 -0.4371051
v 5.960464E-08 1.8 -0.4371051
v 5.960464E-08 1.8 -0.1952597
v 5.960464E-08 0 -0.55
v 5.960464E-08 0 -0.09999999
v 5.960464E-08 0.9 -0.09999999
v 5.960464E-08 0.9 -0.55
v 5.960464E-08 0 -1
v 5.960464E-08 0.9 -1
v 5.960464E-08 1.8 -1
v 5.960464E-08 1.687105 -0.55
v 5.960464E-08 1.70474 -0.09999999
v 5.960464E-08 1.8 -0.4371051
v 5.960464E-08 1.8 -0.1952597
v 5.960464E-08 1.912895 -0.55
v 5.960464E-08 1.8 -0.662895
v 5.960464E-08 2.5 -1
v 5.960464E-08 2.367631 -0.55
v 5.960464E-08 2.5 -0.6823688
v -2 0 -0.55
v -2 0 -1
v -2 0.9 -1
v -2 0.9 -0.55
v -2 0 -0.09999999
v -2 0.9 -0.09999999
v -2 1.704741 -0.09999999
v -2 1.687105 -0.55
v -2 1.8 -1
v -2 1.8 -0.4371051
v -2 1.8 -0.1952597
v -2 1.8 -0.662895
v -2 1.912895 -0.55
v -2 2.5 -1
v -2 2.367631 -0.55
v -2 2.5 -0.6823688
v -0.1674768 1.067477 -0.09999999
v -0.2355262 1.086677 -0.1388389
v -0.2355262 1.518063 -0.1388389
v -0.1674768 1.537263 -0.09999999
v 5.960464E-08 0.9 -0.09999999
v 5.960464E-08 1.70474 -0.09999999
v -2 0.9 -0.09999999
v -1.832523 1.537264 -0.09999999
v -1.832523 1.067477 -0.09999999
v -2 1.704741 -0.09999999
v -1.764474 1.086677 -0.1388389
v -1.764474 1.518064 -0.1388389
v 5.960464E-08 0 0
v -2 0 0
v -2 0.7999999 0
v 5.960464E-08 0.7999999 0
v -2 0.9 -0.09999999
v -2 0.7999999 0
v -2 0 0
v -2 0 -0.09999999
v 5.960464E-08 1.912895 -0.55
v -2 2.367631 -0.55
v 5.960464E-08 2.367631 -0.55
v -2 1.912895 -0.55
v -2 1.8 -0.4371051
v 5.960464E-08 1.8 -0.4371051
v -1.1 2.285067 -0.1236933
v -0.9 1.702106 -0.1236933
v -1.1 1.702106 -0.1236933
v -0.9 2.285067 -0.1236933
v -0.9 2.402106 -0.2407329
v -1.1 2.402106 -0.2407329
v -1.1 2.402106 -0.5736933
v -0.9 2.402106 -0.5736933
v -1.1 1.702106 -0.1236933
v -0.9 1.702106 -0.1236933
v -0.9 1.702106 -0.5736933
v -1.1 1.702106 -0.5736933
v -1.1 1.702106 -0.5736933
v -0.9 1.702106 -0.5736933
v -0.9 2.402106 -0.5736933
v -1.1 2.402106 -0.5736933
v -0.9 2.402106 -0.5736933
v -0.9 1.702106 -0.5736933
v -0.9 1.702106 -0.1236933
v -0.9 2.285067 -0.1236933
v -0.9 2.402106 -0.2407329
v -1.1 2.285067 -0.1236933
v -1.1 1.702106 -0.1236933
v -1.1 1.702106 -0.5736933
v -1.1 2.402106 -0.5736933
v -1.1 2.402106 -0.2407329
v -2 2.367631 -0.55
v -2 2.5 -0.6823688
v 5.960464E-08 2.5 -0.6823688
v 5.960464E-08 2.367631 -0.55
v 5.960464E-08 2.5 -1
v 5.960464E-08 2.5 -0.6823688
v -2 2.5 -0.6823688
v -2 2.5 -1
v 5.960464E-08 1.8 -0.1952597
v 5.960464E-08 1.70474 -0.09999999
v -2 1.704741 -0.09999999
v -2 1.8 -0.1952597
v -0.2355262 1.086677 -0.1388389
v -1.764474 1.086677 -0.1388389
v -1.764474 1.518064 -0.1388389
v -0.2355262 1.518063 -0.1388389
v -0.1674768 1.537263 -0.09999999
v -0.2355262 1.518063 -0.1388389
v -1.764474 1.518064 -0.1388389
v -1.832523 1.537264 -0.09999999
v -1.832523 1.067477 -0.09999999
v -1.764474 1.086677 -0.1388389
v -0.2355262 1.086677 -0.1388389
v -0.1674768 1.067477 -0.09999999
v 5.960464E-08 2.1 -0.5742598
v 5.960464E-08 2.24411 -0.5145676
v -2 2.24411 -0.5145676
v -2 2.1 -0.5742598
v -2 2.303802 -0.3704578
v 5.960464E-08 1.95589 -0.5145676
v 5.960464E-08 2.303802 -0.3704578
v -2 1.95589 -0.5145676
v -2 2.24411 -0.2263481
v 5.960464E-08 1.896198 -0.3704578
v 5.960464E-08 2.24411 -0.2263481
v -2 1.896198 -0.3704578
v -2 2.1 -0.166656
v 5.960464E-08 1.95589 -0.2263482
v 5.960464E-08 2.1 -0.166656
v -2 1.95589 -0.2263482
vt 0.8046875 0.3300781
vt 0.8046875 0.3300781
vt 0.8046875 0.3300781
vt 0.8046875 0.3300781
vt 0.8046875 0.3300781
vt 0.8046875 0.3300781
vt 0.8046875 0.3300781
vt 0.8046875 0.3300781
vt 0.1875 0.3476563
vt 0.1875 0.3476563
vt 0.1875 0.3476563
vt 0.1875 0.3476563
vt 0.1953125 0.3476563
vt 0.1953125 0.3457031
vt 0.1738281 0.3457031
vt 0.1738281 0.3476563
vt 0.7910156 0.3046875
vt 0.7910156 0.3046875
vt 0.7910156 0.3046875
vt 0.7910156 0.3046875
vt 0.8046875 0.3300781
vt 0.8046875 0.3300781
vt 0.8046875 0.3300781
vt 0.8046875 0.3300781
vt 0.8046875 0.3300781
vt 0.8046875 0.3300781
vt 0.8046875 0.3300781
vt 0.8046875 0.3300781
vt 0.8046875 0.3300781
vt 0.8046875 0.3300781
vt 0.8046875 0.3300781
vt 0.8046875 0.3300781
vt 0.8046875 0.3300781
vt 0.8046875 0.3300781
vt 0.8046875 0.3300781
vt 0.8046875 0.3300781
vt 0.8046875 0.3300781
vt 0.8046875 0.3300781
vt 0.8046875 0.3300781
vt 0.8046875 0.3300781
vt 0.8046875 0.3300781
vt 0.8046875 0.3300781
vt 0.8046875 0.3300781
vt 0.8046875 0.3300781
vt 0.8046875 0.3300781
vt 0.8046875 0.3300781
vt 0.8046875 0.3300781
vt 0.8046875 0.3300781
vt 0.8046875 0.3300781
vt 0.8046875 0.3300781
vt 0.8046875 0.3300781
vt 0.8046875 0.3300781
vt 0.8144531 0.3222656
vt 0.8144531 0.3222656
vt 0.8144531 0.3222656
vt 0.8144531 0.3222656
vt 0.8144531 0.3222656
vt 0.8144531 0.3222656
vt 0.8144531 0.3222656
vt 0.8144531 0.3222656
vt 0.8144531 0.3222656
vt 0.8144531 0.3222656
vt 0.8144531 0.3222656
vt 0.8144531 0.3222656
vt 0.1953125 0.3359375
vt 0.1738281 0.3359375
vt 0.1738281 0.3457031
vt 0.1953125 0.3457031
vt 0.1875 0.3476563
vt 0.1875 0.3476563
vt 0.1875 0.3476563
vt 0.1875 0.3476563
vt 0.6738281 0.3164063
vt 0.6738281 0.3164063
vt 0.6738281 0.3164063
vt 0.6738281 0.3164063
vt 0.6738281 0.3164063
vt 0.6738281 0.3164063
vt 0.1835938 0.328125
vt 0.1835938 0.328125
vt 0.1835938 0.328125
vt 0.1835938 0.328125
vt 0.1835938 0.328125
vt 0.1835938 0.328125
vt 0.1835938 0.328125
vt 0.1835938 0.328125
vt 0.2070313 0.3027344
vt 0.2070313 0.3027344
vt 0.2070313 0.3027344
vt 0.2070313 0.3027344
vt 0.2070313 0.3027344
vt 0.2070313 0.3027344
vt 0.2070313 0.3027344
vt 0.2070313 0.3027344
vt 0.2070313 0.3027344
vt 0.2070313 0.3027344
vt 0.2070313 0.3027344
vt 0.2070313 0.3027344
vt 0.2070313 0.3027344
vt 0.2070313 0.3027344
vt 0.2070313 0.3027344
vt 0.2070313 0.3027344
vt 0.2070313 0.3027344
vt 0.2070313 0.3027344
vt 0.8046875 0.3300781
vt 0.8046875 0.3300781
vt 0.8046875 0.3300781
vt 0.8046875 0.3300781
vt 0.8046875 0.3300781
vt 0.8046875 0.3300781
vt 0.8046875 0.3300781
vt 0.8046875 0.3300781
vt 0.8046875 0.3300781
vt 0.8046875 0.3300781
vt 0.8046875 0.3300781
vt 0.8046875 0.3300781
vt 0.7148438 0.2988281
vt 0.7148438 0.2988281
vt 0.7148438 0.2988281
vt 0.7148438 0.2988281
vt 0.8144531 0.3222656
vt 0.8144531 0.3222656
vt 0.8144531 0.3222656
vt 0.8144531 0.3222656
vt 0.8144531 0.3222656
vt 0.8144531 0.3222656
vt 0.8144531 0.3222656
vt 0.8144531 0.3222656
vt 0.5546875 0.5644531
vt 0.5546875 0.5644531
vt 0.5546875 0.5644531
vt 0.5546875 0.5644531
vt 0.5546875 0.5644531
vt 0.5546875 0.5644531
vt 0.5546875 0.5644531
vt 0.5546875 0.5644531
vt 0.5546875 0.5644531
vt 0.5546875 0.5644531
vt 0.5546875 0.5644531
vt 0.5546875 0.5644531
vt 0.5546875 0.5644531
vt 0.5546875 0.5644531
vt 0.5546875 0.5644531
vt 0.5546875 0.5644531
vn 0 0 -1
vn 0 0 -1
vn 0 0 -1
vn 0 0 -1
vn 0 0 -1
vn 0 0 -1
vn 0 0 -1
vn 0 0 -1
vn 1 0 0
vn 1 0 0
vn 1 0 0
vn 1 0 0
vn 0 0.7070313 0.7070313
vn 0 0.7070313 0.7070313
vn 0 0.7070313 0.7070313
vn 0 0.7070313 0.7070313
vn 1.192093E-07 1 -2.384186E-07
vn 0 0.9238281 0.3825684
vn 0 0.9238281 0.3825684
vn 1.192093E-07 1 -2.384186E-07
vn 1 0 0
vn 1 0 0
vn 1 0 0
vn 1 0 0
vn 1 0 0
vn 1 0 0
vn 1 0 0
vn 1 0 0
vn 1 0 0
vn 1 0 0
vn 1 0 0
vn 1 0 0
vn 1 0 0
vn 1 0 0
vn 1 0 0
vn 1 0 0
vn -1 0 0
vn -1 0 0
vn -1 0 0
vn -1 0 0
vn -1 0 0
vn -1 0 0
vn -1 0 0
vn -1 0 0
vn -1 0 0
vn -1 0 0
vn -1 0 0
vn -1 0 0
vn -1 0 0
vn -1 0 0
vn -1 0 0
vn -1 0 0
vn -0.1116943 0 0.9936523
vn -0.2746582 0 0.9614258
vn -0.2746582 0 0.9614258
vn -0.1116943 0 0.9936523
vn 0 0 1
vn 0 0 1
vn 0 0 1
vn 0.1116943 0 0.9936523
vn 0.1116943 0 0.9936523
vn 0 0 1
vn 0.2746582 0 0.9614258
vn 0.2746582 0 0.9614258
vn 0 0 1
vn 0 0 1
vn 0 0 1
vn 0 0 1
vn -1 0 0
vn -1 0 0
vn -1 0 0
vn -1 0 0
vn 0 0.3825684 0.9238281
vn 0 0 1
vn 0 0 1
vn 0 0.3825684 0.9238281
vn 0 0.9238281 0.3825684
vn 0 0.9238281 0.3825684
vn 0 0.3825684 0.9238281
vn 0 0 1
vn 0 0 1
vn 0 0.3825684 0.9238281
vn 0 0.9238281 0.3825684
vn 0 0.9238281 0.3825684
vn 0 1 0
vn 0 1 0
vn 0 -1 0
vn 0 -1 0
vn 0 -1 0
vn 0 -1 0
vn 0 0 -1
vn 0 0 -1
vn 0 0 -1
vn 0 0 -1
vn 1 0 1.788139E-07
vn 1 0 1.788139E-07
vn 1 0 1.788139E-07
vn 1 0 1.788139E-07
vn 1 0 1.788139E-07
vn -1 0 0
vn -1 0 0
vn -1 0 0
vn -1 0 0
vn -1 0 0
vn 0 0.7070313 0.7070313
vn 0 0.7070313 0.7070313
vn 0 0.7070313 0.7070313
vn 0 0.7070313 0.7070313
vn 0 1 0
vn 0 1 0
vn 0 1 0
vn 0 1 0
vn 1.192093E-07 0.7070313 0.7070313
vn 1.192093E-07 0.7070313 0.7070313
vn 1.192093E-07 0.7070313 0.7070313
vn 1.192093E-07 0.7070313 0.7070313
vn -0.2746582 0 0.9614258
vn 0.2746582 0 0.9614258
vn 0.2746582 0 0.9614258
vn -0.2746582 0 0.9614258
vn -1.192093E-07 -0.8964844 0.4431152
vn -1.192093E-07 -0.8964844 0.4431152
vn -1.192093E-07 -0.8964844 0.4431152
vn -1.192093E-07 -0.8964844 0.4431152
vn 0 0.8964844 0.4431152
vn 0 0.8964844 0.4431152
vn 0 0.8964844 0.4431152
vn 0 0.8964844 0.4431152
vn 0 0 -1
vn 0 0.7070313 -0.7070313
vn 0 0.7070313 -0.7070313
vn 0 0 -1
vn 0 1 0
vn 0 -0.7070313 -0.7070313
vn 0 1 0
vn 0 -0.7070313 -0.7070313
vn 0 0.7070313 0.7070313
vn 0 -1 0
vn 0 0.7070313 0.7070313
vn 0 -1 0
vn 0 -1.192093E-07 1
vn 0 -0.7070313 0.7070313
vn 0 -1.192093E-07 1
vn 0 -0.7070313 0.7070313
g Wall A-12_0
f 3/3/3 2/2/2 1/1/1
f 2/2/2 4/4/4 1/1/1
f 1/1/1 4/4/4 5/5/5
f 4/4/4 6/6/6 5/5/5
f 5/5/5 6/6/6 7/7/7
f 6/6/6 8/8/8 7/7/7
f 11/11/11 10/10/10 9/9/9
f 12/12/12 11/11/11 9/9/9
f 15/15/15 14/14/14 13/13/13
f 16/16/16 15/15/15 13/13/13
f 19/19/19 18/18/18 17/17/17
f 20/20/20 19/19/19 17/17/17
f 23/23/23 22/22/22 21/21/21
f 24/24/24 23/23/23 21/21/21
f 24/24/24 21/21/21 25/25/25
f 26/26/26 24/24/24 25/25/25
f 24/24/24 26/26/26 27/27/27
f 23/23/23 24/24/24 28/28/28
f 27/27/27 28/28/28 24/24/24
f 28/28/28 29/29/29 23/23/23
f 28/28/28 30/30/30 29/29/29
f 30/30/30 31/31/31 29/29/29
f 30/30/30 28/28/28 32/32/32
f 27/27/27 33/33/33 28/28/28
f 28/28/28 33/33/33 32/32/32
f 33/33/33 27/27/27 34/34/34
f 34/34/34 32/32/32 33/33/33
f 34/34/34 35/35/35 32/32/32
f 34/34/34 36/36/36 35/35/35
f 39/39/39 38/38/38 37/37/37
f 40/40/40 39/39/39 37/37/37
f 40/40/40 37/37/37 41/41/41
f 42/42/42 40/40/40 41/41/41
f 40/40/40 42/42/42 43/43/43
f 39/39/39 40/40/40 44/44/44
f 43/43/43 44/44/44 40/40/40
f 44/44/44 45/45/45 39/39/39
f 43/43/43 46/46/46 44/44/44
f 43/43/43 47/47/47 46/46/46
f 48/48/48 44/44/44 46/46/46
f 44/44/44 48/48/48 45/45/45
f 49/49/49 48/48/48 46/46/46
f 45/45/45 48/48/48 49/49/49
f 49/49/49 50/50/50 45/45/45
f 49/49/49 51/51/51 50/50/50
f 51/51/51 52/52/52 50/50/50
f 55/55/55 54/54/54 53/53/53
f 56/56/56 55/55/55 53/53/53
f 53/53/53 57/57/57 56/56/56
f 57/57/57 58/58/58 56/56/56
f 59/59/59 57/57/57 53/53/53
f 56/56/56 58/58/58 60/60/60
f 61/61/61 59/59/59 53/53/53
f 62/62/62 59/59/59 61/61/61
f 58/58/58 62/62/62 60/60/60
f 60/60/60 62/62/62 61/61/61
f 61/61/61 63/63/63 60/60/60
f 63/63/63 64/64/64 60/60/60
f 67/67/67 66/66/66 65/65/65
f 68/68/68 67/67/67 65/65/65
f 71/71/71 70/70/70 69/69/69
f 72/72/72 71/71/71 69/69/69
f 75/75/75 74/74/74 73/73/73
f 74/74/74 76/76/76 73/73/73
f 76/76/76 77/77/77 73/73/73
f 77/77/77 78/78/78 73/73/73
f 81/81/81 80/80/80 79/79/79
f 80/80/80 82/82/82 79/79/79
f 79/79/79 82/82/82 83/83/83
f 84/84/84 79/79/79 83/83/83
f 84/84/84 83/83/83 85/85/85
f 83/83/83 86/86/86 85/85/85
f 89/89/89 88/88/88 87/87/87
f 90/90/90 89/89/89 87/87/87
f 93/93/93 92/92/92 91/91/91
f 94/94/94 93/93/93 91/91/91
f 97/97/97 96/96/96 95/95/95
f 95/95/95 98/98/98 97/97/97
f 95/95/95 99/99/99 98/98/98
f 102/102/102 101/101/101 100/100/100
f 100/100/100 103/103/103 102/102/102
f 100/100/100 104/104/104 103/103/103
f 107/107/107 106/106/106 105/105/105
f 108/108/108 107/107/107 105/105/105
f 111/111/111 110/110/110 109/109/109
f 112/112/112 111/111/111 109/109/109
f 115/115/115 114/114/114 113/113/113
f 116/116/116 115/115/115 113/113/113
f 119/119/119 118/118/118 117/117/117
f 120/120/120 119/119/119 117/117/117
f 123/123/123 122/122/122 121/121/121
f 124/124/124 123/123/123 121/121/121
f 127/127/127 126/126/126 125/125/125
f 128/128/128 127/127/127 125/125/125
f 131/131/131 130/130/130 129/129/129
f 132/132/132 131/131/131 129/129/129
f 131/131/131 133/133/133 130/130/130
f 132/132/132 129/129/129 134/134/134
f 133/133/133 135/135/135 130/130/130
f 136/136/136 132/132/132 134/134/134
f 133/133/133 137/137/137 135/135/135
f 136/136/136 134/134/134 138/138/138
f 137/137/137 139/139/139 135/135/135
f 140/140/140 136/136/136 138/138/138
f 137/137/137 141/141/141 139/139/139
f 140/140/140 138/138/138 142/142/142
f 141/141/141 143/143/143 139/139/139
f 144/144/144 140/140/140 142/142/142
f 144/144/144 142/142/142 143/143/143
f 141/141/141 144/144/144 143/143/143
