g BarWalls.001
v -23.64812 0.9336033 -4.550602
v -22.32986 -5.388521 -4.549078
v -21.10844 -4.353893 -5.21011
v -22.00887 1.053307 -4.940969
v -23.64812 5.531858 -4.550602
v -22.00887 5.411394 -4.940969
v -23.66184 12.00266 -3.832388
v -24.98314 5.602766 4.940971
v -24.96637 5.480776 -3.832388
v -23.66184 12.00266 4.940971
v -22.32986 11.85322 -4.549078
v -14.70168 12.00266 16.36761
v -14.71312 5.421305 16.36761
v 14.71312 5.421305 16.36761
v -22.35884 12.03697 4.441574
v -13.79972 12.03697 15.0463
v 14.70168 12.00266 16.36761
v 23.66184 12.00266 4.940971
v 24.98314 5.602766 4.940971
v 24.96637 5.480776 -3.832388
v 23.66184 12.00266 -3.832388
v 22.32986 11.85322 -4.549078
v 13.79972 12.03697 15.0463
v -20.88657 10.85824 -5.027887
v -23.64812 5.531858 -4.550602
v -22.00887 5.411394 -4.940969
v -12.89852 10.85824 13.725
v -21.05583 10.85824 3.941416
v 22.35883 12.03697 4.441574
v 12.89852 10.85824 13.725
v -22.19491 5.411394 3.960478
v -12.69343 5.42893 13.67011
v 12.69343 5.42893 13.67011
v 21.05583 10.85824 3.941416
v 20.88657 10.85824 -5.027887
v -22.19491 1.05407 3.960478
v -22.00887 1.053307 -4.940969
v -12.69343 1.036533 13.67011
v -21.28151 -4.353893 3.90177
v -21.10844 -4.353893 -5.21011
v 12.69343 1.036533 13.67011
v 22.19491 5.411394 3.960478
v 22.00888 5.411394 -4.940969
v 23.64812 5.531858 -4.550602
v 22.19491 1.05407 3.960478
v 22.00888 1.053307 -4.940969
v 12.84896 -4.373718 13.84089
v 21.28151 -4.353893 3.90177
v 21.10844 -4.353893 -5.21011
v -12.84896 -4.373718 13.84089
v 13.81192 -5.537195 15.01886
v 22.22846 -5.537195 4.450724
v 22.32986 -5.388521 -4.549078
v 23.66184 -5.195623 4.940971
v 23.66184 -5.195623 -3.832388
v 14.70168 -5.195623 16.36761
v -13.81192 -5.537195 15.01886
v -14.70168 -5.195623 16.36761
v -22.22846 -5.537195 4.450724
v -23.66184 -5.195623 4.940971
v -22.32986 -5.388521 -4.549078
v -23.66184 -5.195623 -3.832388
v -23.66184 -5.195623 4.940971
v -23.66184 -5.195623 -3.832388
v -24.96637 0.9839249 -3.832388
v -24.98314 0.8626976 4.940971
v -24.98314 5.602766 4.940971
v -24.96637 5.480776 -3.832388
v -14.71312 5.421305 16.36761
v -14.71312 1.043394 16.36761
v -14.70168 -5.195623 16.36761
v 14.70168 -5.195623 16.36761
v 14.71312 1.043394 16.36761
v 14.71312 5.421305 16.36761
v 23.66184 -5.195623 4.940971
v 24.98314 0.8626976 4.940971
v 24.98314 5.602766 4.940971
v 24.96637 0.9839249 -3.832388
v 23.66184 -5.195623 -3.832388
v 24.96637 5.480776 -3.832388
v -22.32986 11.85322 -4.549078
v -23.66184 12.00266 -3.832388
v -24.96637 5.480776 -3.832388
v -23.64812 5.531858 -4.550602
v -22.32986 -5.388521 -4.549078
v -24.96637 0.9839249 -3.832388
v -23.66184 -5.195623 -3.832388
v -23.64812 0.9336033 -4.550602
v -23.64812 5.531858 -4.550602
v -24.96637 5.480776 -3.832388
v 23.64812 0.9336033 -4.550602
v 21.10844 -4.353893 -5.21011
v 22.32986 -5.388521 -4.549078
v 22.00888 1.053307 -4.940969
v 23.64812 5.531858 -4.550602
v 22.00888 5.411394 -4.940969
v 22.32986 11.85322 -4.549078
v 23.64812 5.531858 -4.550602
v 24.96637 5.480776 -3.832388
v 23.66184 12.00266 -3.832388
v 24.96637 0.9839249 -3.832388
v 22.32986 -5.388521 -4.549078
v 23.66184 -5.195623 -3.832388
v 23.64812 0.9336033 -4.550602
v 23.64812 5.531858 -4.550602
v 24.96637 5.480776 -3.832388
vt 0.9208189 0.9907371
vt 0.9208189 0.9907371
vt 0.9208189 0.9907371
vt 0.9208189 0.9907371
vt 0.9208189 0.9898739
vt 0.9208189 0.9898739
vt 0.9070079 0.9959162
vt 0.9070079 0.9959162
vt 0.9070079 0.9967794
vt 0.9070079 0.9959162
vt 0.9070079 0.9959162
vt 0.9070079 0.9950531
vt 0.9061447 0.9950531
vt 0.9061447 0.9924635
vt 0.9070079 0.9959162
vt 0.9070079 0.9950531
vt 0.9070079 0.9924635
vt 0.9070079 0.9916003
vt 0.9061447 0.9907371
vt 0.9070079 0.9907371
vt 0.9070079 0.9907371
vt 0.9070079 0.9907371
vt 0.9070079 0.9924635
vt 0.9070079 0.9959162
vt 0.9078711 0.9967794
vt 0.9078711 0.9959162
vt 0.9070079 0.9950531
vt 0.9070079 0.9959162
vt 0.9070079 0.9916003
vt 0.9070079 0.9924635
vt 0.9078711 0.9959162
vt 0.9078711 0.9950531
vt 0.9078711 0.9924635
vt 0.9070079 0.9916003
vt 0.9070079 0.9907371
vt 0.9078711 0.9959162
vt 0.9078711 0.9959162
vt 0.9078711 0.9950531
vt 0.9087342 0.9959162
vt 0.9078711 0.9967794
vt 0.9078711 0.9924635
vt 0.9078711 0.9916003
vt 0.9078711 0.9907371
vt 0.9078711 0.9907371
vt 0.9078711 0.9916003
vt 0.9078711 0.9907371
vt 0.9087342 0.9924635
vt 0.9087342 0.9916003
vt 0.9078711 0.9907371
vt 0.9087342 0.9950531
vt 0.9087342 0.9924635
vt 0.9087342 0.9907371
vt 0.9078711 0.9907371
vt 0.9087342 0.9907371
vt 0.9087342 0.9907371
vt 0.9087342 0.9924635
vt 0.9087342 0.9950531
vt 0.9087342 0.9950531
vt 0.9087342 0.9959162
vt 0.9087342 0.9959162
vt 0.9078711 0.9967794
vt 0.9087342 0.9967794
vt 0.9208189 0.9907371
vt 0.9208189 0.9898739
vt 0.9208189 0.9898739
vt 0.9199557 0.9907371
vt 0.9199557 0.9907371
vt 0.9199557 0.9898739
vt 0.9190925 0.9916003
vt 0.9199557 0.9916003
vt 0.9199557 0.9924635
vt 0.9190925 0.9950531
vt 0.9182293 0.9941899
vt 0.9182293 0.9941899
vt 0.9182293 0.9959162
vt 0.9182293 0.9959162
vt 0.9173661 0.9959162
vt 0.9182293 0.9967794
vt 0.9182293 0.9967794
vt 0.9173661 0.9967794
vt 0.1258226 0.9941899
vt 0.1258226 0.9941899
vt 0.1258226 0.9924635
vt 0.1258226 0.9924635
vt 0.1146011 0.9941899
vt 0.1137379 0.9924635
vt 0.1137379 0.9941899
vt 0.1137379 0.9924635
vt 0.1146011 0.9916003
vt 0.1137379 0.9916003
vt 0.9208189 0.9907371
vt 0.9216821 0.9898739
vt 0.9216821 0.9898739
vt 0.9208189 0.9907371
vt 0.9208189 0.9907371
vt 0.9208189 0.9907371
vt 0.1249594 0.9924635
vt 0.1249594 0.9941899
vt 0.1258226 0.9941899
vt 0.1258226 0.9924635
vt 0.1146011 0.9933267
vt 0.1146011 0.9916003
vt 0.1146011 0.9916003
vt 0.1146011 0.9933267
vt 0.1146011 0.9941899
vt 0.1146011 0.9941899
vn -0.3899674 -0.04074043 -0.9199269
vn -0.05924535 -0.7098759 -0.7018306
vn 0.7483319 -0.1176525 -0.6528072
vn 0.5560516 0.04386294 -0.8299896
vn -0.3668938 0.03617167 -0.9295594
vn 0.5868165 -0.03304923 -0.8090453
vn -0.6514686 0.666851 -0.3617986
vn -0.9360435 0.0823189 0.3421201
vn -0.8668225 0.07462776 -0.4930005
vn -0.6053213 0.7591456 0.239341
vn -0.005406797 0.7283807 -0.6851513
vn -0.413041 0.6053213 0.6804287
vn -0.413041 0.02078927 0.9104751
vn 0.4176098 0.02078927 0.9083886
vn 0.3022416 0.9437346 -0.1342196
vn 0.133035 0.9821907 -0.1326767
vn 0.4329922 0.6053213 0.6679101
vn 0.6098901 0.7591456 0.2274467
vn 0.932921 0.0823189 0.3505453
vn 0.8637001 0.07462776 -0.4984505
vn 0.6021989 0.6591598 -0.4504053
vn 0.002284408 0.7206895 -0.6932542
vn -0.1515398 0.9821907 -0.1110725
vn 0.7098759 0.3668938 -0.6012198
vn -0.3668938 0.03617167 -0.9295594
vn 0.5868165 -0.03304923 -0.8090453
vn 0.3176241 0.4822619 -0.8164181
vn 0.8483177 0.4053499 -0.3406591
vn -0.3053641 0.9437346 -0.1269555
vn -0.3899674 0.4822619 -0.7844418
vn 0.932921 -0.0638141 -0.3543814
vn 0.386845 -0.009975612 -0.9220908
vn -0.3976586 -0.009975612 -0.9174792
vn -0.8591313 0.413041 -0.3021431
vn -0.7283807 0.336129 -0.5970585
vn 0.932921 0.05924535 -0.3551737
vn 0.5560516 0.04386294 -0.8299896
vn 0.3945362 0.005406797 -0.9188645
vn 0.8713913 -0.3714625 -0.3204572
vn 0.7483319 -0.1176525 -0.6528072
vn -0.3899674 0.005406797 -0.9208128
vn -0.9360435 -0.0638141 -0.3460496
vn -0.5899389 -0.03304923 -0.8067713
vn 0.3637713 0.03617167 -0.9307857
vn -0.9360435 0.05924535 -0.346861
vn -0.5591741 0.05155408 -0.8274458
vn -0.3207465 -0.4945219 -0.8078179
vn -0.8745137 -0.3714625 -0.3118354
vn -0.7668368 -0.171491 -0.618508
vn 0.3483889 -0.4329922 -0.83135
vn -0.1746135 -0.9713771 -0.1610488
vn -0.2438344 -0.9636859 -0.1088777
vn 0.07919651 -0.7329495 -0.6756575
vn 0.7098759 -0.6714198 0.2127714
vn 0.6560374 -0.6560374 -0.3731352
vn 0.4329922 -0.5637429 0.7033575
vn 0.1561086 -0.9790683 -0.1305963
vn -0.3976586 -0.5252868 0.7522908
vn 0.2484032 -0.9636859 -0.09800718
vn -0.666851 -0.6714198 0.3232725
vn -0.05924535 -0.7098759 -0.7018306
vn -0.6745422 -0.6483462 -0.3530439
vn -0.666851 -0.6714198 0.3232725
vn -0.6745422 -0.6483462 -0.3530439
vn -0.8591313 -0.08688772 -0.5043252
vn -0.9360435 -0.07919651 0.3428563
vn -0.9360435 0.0823189 0.3421201
vn -0.8668225 0.07462776 -0.4930005
vn -0.413041 0.02078927 0.9104751
vn -0.413041 -0.02535802 0.9103593
vn -0.3976586 -0.5252868 0.7522908
vn 0.4329922 -0.5637429 0.7033575
vn 0.4176098 -0.02535802 0.9082726
vn 0.4176098 0.02078927 0.9083886
vn 0.7098759 -0.6714198 0.2127714
vn 0.932921 -0.07150531 0.3529099
vn 0.932921 0.0823189 0.3505453
vn 0.8560089 -0.08688772 -0.5096071
vn 0.6560374 -0.6560374 -0.3731352
vn 0.8637001 0.07462776 -0.4984505
vn -0.005406797 0.7283807 -0.6851513
vn -0.6514686 0.666851 -0.3617986
vn -0.8668225 0.07462776 -0.4930005
vn -0.3668938 0.03617167 -0.9295594
vn -0.05924535 -0.7098759 -0.7018306
vn -0.8591313 -0.08688772 -0.5043252
vn -0.6745422 -0.6483462 -0.3530439
vn -0.3899674 -0.04074043 -0.9199269
vn -0.3668938 0.03617167 -0.9295594
vn -0.8668225 0.07462776 -0.4930005
vn 0.386845 -0.04074043 -0.9212444
vn -0.7668368 -0.171491 -0.618508
vn 0.07919651 -0.7329495 -0.6756575
vn -0.5591741 0.05155408 -0.8274458
vn 0.3637713 0.03617167 -0.9307857
vn -0.5899389 -0.03304923 -0.8067713
vn 0.002284408 0.7206895 -0.6932542
vn 0.3637713 0.03617167 -0.9307857
vn 0.8637001 0.07462776 -0.4984505
vn 0.6021989 0.6591598 -0.4504053
vn 0.8560089 -0.08688772 -0.5096071
vn 0.07919651 -0.7329495 -0.6756575
vn 0.6560374 -0.6560374 -0.3731352
vn 0.386845 -0.04074043 -0.9212444
vn 0.3637713 0.03617167 -0.9307857
vn 0.8637001 0.07462776 -0.4984505
g BarWalls.001_0
f 3/3/3 2/2/2 1/1/1
f 4/4/4 3/3/3 1/1/1
f 4/4/4 1/1/1 5/5/5
f 6/6/6 4/4/4 5/5/5
f 9/9/9 8/8/8 7/7/7
f 8/8/8 10/10/10 7/7/7
f 7/7/7 10/10/10 11/11/11
f 10/10/10 8/8/8 12/12/12
f 8/8/8 13/13/13 12/12/12
f 12/12/12 13/13/13 14/14/14
f 10/10/10 15/15/15 11/11/11
f 12/12/12 16/16/16 10/10/10
f 16/16/16 15/15/15 10/10/10
f 17/17/17 12/12/12 14/14/14
f 16/16/16 12/12/12 17/17/17
f 17/17/17 14/14/14 18/18/18
f 14/14/14 19/19/19 18/18/18
f 19/19/19 20/20/20 18/18/18
f 20/20/20 21/21/21 18/18/18
f 18/18/18 21/21/21 22/22/22
f 23/23/23 16/16/16 17/17/17
f 23/23/23 17/17/17 18/18/18
f 11/11/11 15/15/15 24/24/24
f 25/25/25 11/11/11 24/24/24
f 26/26/26 25/25/25 24/24/24
f 16/16/16 27/27/27 15/15/15
f 27/27/27 16/16/16 23/23/23
f 15/15/15 28/28/28 24/24/24
f 26/26/26 24/24/24 28/28/28
f 27/27/27 28/28/28 15/15/15
f 29/29/29 23/23/23 18/18/18
f 29/29/29 18/18/18 22/22/22
f 30/30/30 27/27/27 23/23/23
f 30/30/30 23/23/23 29/29/29
f 31/31/31 26/26/26 28/28/28
f 28/28/28 27/27/27 32/32/32
f 31/31/31 28/28/28 32/32/32
f 30/30/30 33/33/33 27/27/27
f 33/33/33 32/32/32 27/27/27
f 34/34/34 30/30/30 29/29/29
f 30/30/30 34/34/34 33/33/33
f 29/29/29 22/22/22 35/35/35
f 34/34/34 29/29/29 35/35/35
f 31/31/31 36/36/36 26/26/26
f 36/36/36 37/37/37 26/26/26
f 31/31/31 32/32/32 38/38/38
f 36/36/36 31/31/31 38/38/38
f 36/36/36 39/39/39 37/37/37
f 36/36/36 38/38/38 39/39/39
f 39/39/39 40/40/40 37/37/37
f 33/33/33 41/41/41 32/32/32
f 41/41/41 38/38/38 32/32/32
f 34/34/34 42/42/42 33/33/33
f 42/42/42 34/34/34 35/35/35
f 33/33/33 42/42/42 41/41/41
f 43/43/43 35/35/35 22/22/22
f 43/43/43 42/42/42 35/35/35
f 44/44/44 43/43/43 22/22/22
f 45/45/45 42/42/42 43/43/43
f 42/42/42 45/45/45 41/41/41
f 46/46/46 45/45/45 43/43/43
f 41/41/41 47/47/47 38/38/38
f 41/41/41 45/45/45 47/47/47
f 48/48/48 45/45/45 46/46/46
f 45/45/45 48/48/48 47/47/47
f 49/49/49 48/48/48 46/46/46
f 47/47/47 50/50/50 38/38/38
f 38/38/38 50/50/50 39/39/39
f 47/47/47 48/48/48 51/51/51
f 47/47/47 51/51/51 50/50/50
f 48/48/48 49/49/49 52/52/52
f 48/48/48 52/52/52 51/51/51
f 49/49/49 53/53/53 52/52/52
f 52/52/52 53/53/53 54/54/54
f 53/53/53 55/55/55 54/54/54
f 52/52/52 54/54/54 56/56/56
f 51/51/51 52/52/52 56/56/56
f 51/51/51 57/57/57 50/50/50
f 51/51/51 56/56/56 57/57/57
f 39/39/39 50/50/50 57/57/57
f 56/56/56 58/58/58 57/57/57
f 59/59/59 39/39/39 57/57/57
f 59/59/59 57/57/57 58/58/58
f 40/40/40 39/39/39 59/59/59
f 60/60/60 59/59/59 58/58/58
f 61/61/61 40/40/40 59/59/59
f 61/61/61 59/59/59 60/60/60
f 62/62/62 61/61/61 60/60/60
f 65/65/65 64/64/64 63/63/63
f 66/66/66 65/65/65 63/63/63
f 65/65/65 66/66/66 67/67/67
f 68/68/68 65/65/65 67/67/67
f 67/67/67 66/66/66 69/69/69
f 66/66/66 63/63/63 70/70/70
f 66/66/66 70/70/70 69/69/69
f 63/63/63 71/71/71 70/70/70
f 70/70/70 71/71/71 72/72/72
f 69/69/69 70/70/70 73/73/73
f 73/73/73 70/70/70 72/72/72
f 74/74/74 69/69/69 73/73/73
f 72/72/72 75/75/75 73/73/73
f 73/73/73 76/76/76 74/74/74
f 75/75/75 76/76/76 73/73/73
f 76/76/76 77/77/77 74/74/74
f 78/78/78 76/76/76 75/75/75
f 76/76/76 78/78/78 77/77/77
f 79/79/79 78/78/78 75/75/75
f 78/78/78 80/80/80 77/77/77
f 83/83/83 82/82/82 81/81/81
f 84/84/84 83/83/83 81/81/81
f 87/87/87 86/86/86 85/85/85
f 86/86/86 88/88/88 85/85/85
f 89/89/89 88/88/88 86/86/86
f 90/90/90 89/89/89 86/86/86
f 93/93/93 92/92/92 91/91/91
f 92/92/92 94/94/94 91/91/91
f 91/91/91 94/94/94 95/95/95
f 94/94/94 96/96/96 95/95/95
f 99/99/99 98/98/98 97/97/97
f 100/100/100 99/99/99 97/97/97
f 103/103/103 102/102/102 101/101/101
f 102/102/102 104/104/104 101/101/101
f 104/104/104 105/105/105 101/101/101
f 105/105/105 106/106/106 101/101/101
