g CoffeeScoopFill01
v -0.3634027 0.4232385 -0.2640323
v -0.2180894 -5.930662E-06 -0.3001874
v -0.2640205 0.4232385 -0.3633998
v -0.1388048 0.4232385 -0.427202
v -0.3001903 -5.930662E-06 -0.2181012
v -0.4272049 0.4232385 -0.1388019
v -0.3528894 -5.930662E-06 -0.1146641
v -0.4491899 0.4232385 -5.930662E-06
v -0.3710554 -5.930662E-06 -5.930662E-06
v -0.4272049 0.4232385 0.1388048
v -0.3528894 -5.930662E-06 0.114667
v -0.3634027 0.4232385 0.2640205
v -0.3001903 -5.930662E-06 0.2180894
v -0.2640205 0.4232385 0.3634027
v 0.3528865 -5.930662E-06 -0.1146641
v 0.3710525 -5.930662E-06 -5.930662E-06
v 0.3528865 -5.930662E-06 0.114667
v 0.3001874 -5.930662E-06 -0.2181012
v 0.3001874 -5.930662E-06 0.2180894
v 0.427202 0.4232385 -0.1388019
v 0.3633998 0.4232385 -0.2640323
v 0.449187 0.4232385 -5.930662E-06
v 0.427202 0.4232385 0.1388048
v 0.3633998 0.4232385 0.2640205
v 0.2640323 0.4232385 -0.3633998
v 0.2640323 0.4232385 0.3634027
v 0.2181012 -5.930662E-06 -0.3001874
v 0.1388019 0.4232385 -0.427202
v 0.2181012 -5.930662E-06 0.3001903
v 0.1388019 0.4232385 0.4272049
v 0.1146641 -5.930662E-06 -0.3528865
v 5.930662E-06 0.4232385 -0.449187
v -0.114667 -5.930662E-06 -0.3528865
v 5.930662E-06 -5.930662E-06 -0.3710525
v -0.2180894 -5.930662E-06 0.3001903
v 0.1146641 -5.930662E-06 0.3528894
v -0.114667 -5.930662E-06 0.3528894
v -0.1388048 0.4232385 0.4272049
v 5.930662E-06 0.4232385 0.4491899
v 5.930662E-06 -5.930662E-06 0.3710407
v 0.427202 0.4232385 0.1388048
v 0.3633998 0.4232385 0.2640205
v 0.2291011 0.4862297 0.1664519
v 0.2640323 0.4232385 0.3634027
v 0.2875066 0.4862297 0.09341925
v 0.449187 0.4232385 -5.930662E-06
v 0.1618928 0.4862297 0.2228225
v 0.1388019 0.4232385 0.4272049
v 0.2988751 0.4862297 -5.930662E-06
v 0.427202 0.4232385 -0.1388019
v 5.930662E-06 0.5171355 -5.930662E-06
v 0.08361083 0.4862297 0.2573409
v 0.2873149 0.4862297 -0.09335738
v 5.930662E-06 0.4232385 0.4491899
v 0.3633998 0.4232385 -0.2640323
v 5.930662E-06 0.4862297 0.26781
v -0.1388048 0.4232385 0.4272049
v 0.2337311 0.4862297 -0.1698109
v 0.2640323 0.4232385 -0.3633998
v -0.07703739 0.4862297 0.2371106
v -0.2640205 0.4232385 0.3634027
v 0.1680267 0.4862297 -0.2312686
v 0.1388019 0.4232385 -0.427202
v -0.1456465 0.4862297 0.200469
v -0.3634027 0.4232385 0.2640205
v 0.08371404 0.4862297 -0.2576624
v -0.2010735 0.4862297 0.1460889
v 5.930662E-06 0.4862297 -0.2584587
v 5.930662E-06 0.4232385 -0.449187
v -0.4272049 0.4232385 0.1388048
v -0.1388048 0.4232385 -0.427202
v -0.2204633 0.4862297 0.07162595
v -0.4491899 0.4232385 -5.930662E-06
v -0.07836449 0.4862297 -0.2411921
v -0.2640205 0.4232385 -0.3633998
v -0.2332179 0.4862297 -5.930662E-06
v -0.4272049 0.4232385 -0.1388019
v -0.1424468 0.4862297 -0.196072
v -0.3634027 0.4232385 -0.2640323
v -0.227659 0.4862297 -0.07396752
v -0.1923739 0.4862297 -0.1397603
vt 0 0
vt 0 0
vt 0 0
vt 0 0
vt 0 0
vt 0 0
vt 0 0
vt 0 0
vt 0 0
vt 0 0
vt 0 0
vt 0 0
vt 0 0
vt 0 0
vt 0 0
vt 0 0
vt 0 0
vt 0 0
vt 0 0
vt 0 0
vt 0 0
vt 0 0
vt 0 0
vt 0 0
vt 0 0
vt 0 0
vt 0 0
vt 0 0
vt 0 0
vt 0 0
vt 0 0
vt 0 0
vt 0 0
vt 0 0
vt 0 0
vt 0 0
vt 0 0
vt 0 0
vt 0 0
vt 0 0
vt 0.7897527 0.47941
vt 0.7689087 0.3906303
vt 0.6693212 0.4307742
vt 0.721817 0.3126587
vt 0.694797 0.4855859
vt 0.7820327 0.5697336
vt 0.6361253 0.3852264
vt 0.6531093 0.2532149
vt 0.6878491 0.5465737
vt 0.7465208 0.6531093
vt 0.5002539 0.5002539
vt 0.5921215 0.3512585
vt 0.6662332 0.6029294
vt 0.5697336 0.2177031
vt 0.6870771 0.721817
vt 0.5419417 0.3319586
vt 0.47941 0.2099831
vt 0.6206853 0.6430733
vt 0.6091054 0.7689087
vt 0.4886739 0.3389066
vt 0.3906303 0.230827
vt 0.5697336 0.6716372
vt 0.5210978 0.7897527
vt 0.4400381 0.3512585
vt 0.3126587 0.2779188
vt 0.5126058 0.6747251
vt 0.3968063 0.3767344
vt 0.46011 0.6623732
vt 0.4300022 0.7820327
vt 0.2532149 0.3466265
vt 0.3466265 0.7465208
vt 0.3728744 0.4207382
vt 0.2177031 0.4300022
vt 0.4130183 0.6392133
vt 0.2779188 0.6870771
vt 0.3535745 0.46397
vt 0.2099831 0.5210978
vt 0.3798224 0.6006135
vt 0.230827 0.6091054
vt 0.3458545 0.5110618
vt 0.3574345 0.5581536
vn -0.7977016 -0.1822104 -0.5748665
vn -0.3932935 -0.734383 -0.5531743
vn -0.5799434 -0.1822104 -0.7940183
vn -0.3077456 -0.1822104 -0.9338587
vn -0.548835 -0.734383 -0.3993265
vn -0.9376891 -0.1822104 -0.2958692
vn -0.6421601 -0.734383 -0.2198001
vn -0.9832957 -0.1820149 0
vn -0.6732683 -0.734383 -0.08597321
vn -0.9376891 -0.1822104 0.2958692
vn -0.6421601 -0.734383 0.2198001
vn -0.7977016 -0.1822104 0.5748665
vn -0.548835 -0.734383 0.3993265
vn -0.5799434 -0.1822104 0.7940183
vn 0.6410581 -0.734383 -0.2229937
vn 0.6721663 -0.734383 -0.09420191
vn 0.6410581 -0.734383 0.2229937
vn 0.5477331 -0.734383 -0.4008368
vn 0.5477331 -0.734383 0.4008368
vn 0.9365871 -0.1822104 -0.2993393
vn 0.7965996 -0.1822104 -0.5763926
vn 0.9832495 -0.1822104 -0.00444133
vn 0.9365871 -0.1822104 0.2993393
vn 0.7965996 -0.1822104 0.5763926
vn 0.5788414 -0.1822104 -0.794822
vn 0.5788414 -0.1822104 0.794822
vn 0.3999686 -0.734383 -0.5483673
vn 0.3066437 -0.1822104 -0.9342211
vn 0.3999686 -0.734383 0.5483673
vn 0.3066437 -0.1822104 0.9342211
vn 0.2055416 -0.734383 -0.646865
vn 0.003337562 -0.1822104 -0.9832539
vn -0.2066436 -0.734383 -0.6465138
vn 0.003337562 -0.734383 -0.6787271
vn -0.3932935 -0.734383 0.5531743
vn 0.2055416 -0.734383 0.646865
vn -0.2066436 -0.734383 0.6465138
vn -0.3077456 -0.1822104 0.9338587
vn 0.003337562 -0.1822104 0.9832539
vn 0.003337562 -0.734383 0.6787271
vn 0.3610832 0.9221349 0.1388746
vn 0.2833124 0.929912 0.2345161
vn 0.1822104 0.9687973 0.1680213
vn 0.1977645 0.9376891 0.2857069
vn 0.2522041 0.9610202 0.1132836
vn 0.3913808 0.9202287 0
vn 0.1355479 0.9687973 0.2075054
vn 0.09666252 0.945466 0.3110471
vn 0.2591843 0.9658279 0
vn 0.3610832 0.9221349 -0.1388746
vn -0.01221657 0.9999057 -0.006272086
vn 0.0655542 0.9687973 0.239028
vn 0.2522041 0.9610202 -0.1132836
vn -0.01221657 0.945466 0.3254915
vn 0.2910895 0.929912 -0.2247903
vn -0.01221657 0.9687973 0.2475531
vn -0.1055416 0.9532431 0.2831758
vn 0.1977645 0.9687973 -0.1494021
vn 0.1977645 0.9376891 -0.2857069
vn -0.0822103 0.9765744 0.1988564
vn -0.1755352 0.9532431 0.2459978
vn 0.1355479 0.9687973 -0.2075054
vn 0.08888543 0.945466 -0.3133582
vn -0.1288728 0.9765744 0.1723201
vn -0.2455289 0.9532431 0.1761906
vn 0.05000001 0.9687973 -0.2427587
vn -0.1833123 0.9765744 0.1126896
vn -0.01221657 0.9765744 -0.2148328
vn -0.01221657 0.945466 -0.3254915
vn -0.2766252 0.960978 0
vn -0.1055416 0.9532431 -0.2831758
vn -0.2066436 0.9765744 0.06000696
vn -0.2837835 0.9588884 0
vn -0.0822103 0.9765744 -0.1988564
vn -0.1833123 0.9532431 -0.2402584
vn -0.2144207 0.9765744 0.01805981
vn -0.2688602 0.9610202 -0.06445359
vn -0.1366498 0.9765744 -0.1662203
vn -0.2377518 0.9610202 -0.1411175
vn -0.2066436 0.9765744 -0.06000696
vn -0.1755352 0.9765744 -0.1244579
g CoffeeScoopFill01_0
f 3/3/3 2/2/2 1/1/1
f 2/2/2 3/3/3 4/4/4
f 2/2/2 5/5/5 1/1/1
f 1/1/1 5/5/5 6/6/6
f 5/5/5 7/7/7 6/6/6
f 6/6/6 7/7/7 8/8/8
f 7/7/7 9/9/9 8/8/8
f 8/8/8 9/9/9 10/10/10
f 9/9/9 11/11/11 10/10/10
f 10/10/10 11/11/11 12/12/12
f 11/11/11 13/13/13 12/12/12
f 12/12/12 13/13/13 14/14/14
f 15/15/15 7/7/7 5/5/5
f 16/16/16 9/9/9 7/7/7
f 15/15/15 16/16/16 7/7/7
f 17/17/17 11/11/11 9/9/9
f 16/16/16 17/17/17 9/9/9
f 18/18/18 5/5/5 2/2/2
f 18/18/18 15/15/15 5/5/5
f 19/19/19 13/13/13 11/11/11
f 17/17/17 19/19/19 11/11/11
f 16/16/16 15/15/15 20/20/20
f 20/20/20 15/15/15 21/21/21
f 15/15/15 18/18/18 21/21/21
f 22/22/22 16/16/16 20/20/20
f 17/17/17 16/16/16 22/22/22
f 23/23/23 17/17/17 22/22/22
f 19/19/19 17/17/17 23/23/23
f 24/24/24 19/19/19 23/23/23
f 21/21/21 18/18/18 25/25/25
f 19/19/19 24/24/24 26/26/26
f 18/18/18 27/27/27 25/25/25
f 25/25/25 27/27/27 28/28/28
f 27/27/27 18/18/18 2/2/2
f 29/29/29 19/19/19 26/26/26
f 19/19/19 29/29/29 13/13/13
f 29/29/29 26/26/26 30/30/30
f 27/27/27 31/31/31 28/28/28
f 28/28/28 31/31/31 32/32/32
f 27/27/27 2/2/2 33/33/33
f 31/31/31 27/27/27 33/33/33
f 33/33/33 2/2/2 4/4/4
f 32/32/32 34/34/34 4/4/4
f 31/31/31 34/34/34 32/32/32
f 34/34/34 33/33/33 4/4/4
f 33/33/33 34/34/34 31/31/31
f 29/29/29 35/35/35 13/13/13
f 13/13/13 35/35/35 14/14/14
f 36/36/36 29/29/29 30/30/30
f 29/29/29 36/36/36 35/35/35
f 35/35/35 37/37/37 14/14/14
f 36/36/36 37/37/37 35/35/35
f 37/37/37 38/38/38 14/14/14
f 38/38/38 37/37/37 39/39/39
f 40/40/40 36/36/36 30/30/30
f 39/39/39 40/40/40 30/30/30
f 37/37/37 40/40/40 39/39/39
f 36/36/36 40/40/40 37/37/37
f 43/43/43 42/42/42 41/41/41
f 44/44/44 42/42/42 43/43/43
f 45/45/45 43/43/43 41/41/41
f 45/45/45 41/41/41 46/46/46
f 47/47/47 44/44/44 43/43/43
f 48/48/48 44/44/44 47/47/47
f 49/49/49 45/45/45 46/46/46
f 49/49/49 46/46/46 50/50/50
f 45/45/45 51/51/51 43/43/43
f 47/47/47 43/43/43 51/51/51
f 49/49/49 51/51/51 45/45/45
f 52/52/52 47/47/47 51/51/51
f 52/52/52 48/48/48 47/47/47
f 53/53/53 51/51/51 49/49/49
f 53/53/53 49/49/49 50/50/50
f 54/54/54 48/48/48 52/52/52
f 53/53/53 50/50/50 55/55/55
f 56/56/56 54/54/54 52/52/52
f 56/56/56 52/52/52 51/51/51
f 57/57/57 54/54/54 56/56/56
f 58/58/58 53/53/53 55/55/55
f 58/58/58 51/51/51 53/53/53
f 58/58/58 55/55/55 59/59/59
f 60/60/60 57/57/57 56/56/56
f 60/60/60 56/56/56 51/51/51
f 61/61/61 57/57/57 60/60/60
f 62/62/62 58/58/58 59/59/59
f 62/62/62 51/51/51 58/58/58
f 62/62/62 59/59/59 63/63/63
f 64/64/64 61/61/61 60/60/60
f 64/64/64 60/60/60 51/51/51
f 65/65/65 61/61/61 64/64/64
f 66/66/66 62/62/62 63/63/63
f 66/66/66 51/51/51 62/62/62
f 67/67/67 64/64/64 51/51/51
f 67/67/67 65/65/65 64/64/64
f 68/68/68 51/51/51 66/66/66
f 66/66/66 63/63/63 69/69/69
f 68/68/68 66/66/66 69/69/69
f 70/70/70 65/65/65 67/67/67
f 68/68/68 69/69/69 71/71/71
f 72/72/72 70/70/70 67/67/67
f 72/72/72 67/67/67 51/51/51
f 73/73/73 70/70/70 72/72/72
f 74/74/74 68/68/68 71/71/71
f 74/74/74 51/51/51 68/68/68
f 74/74/74 71/71/71 75/75/75
f 76/76/76 73/73/73 72/72/72
f 76/76/76 72/72/72 51/51/51
f 77/77/77 73/73/73 76/76/76
f 78/78/78 74/74/74 75/75/75
f 78/78/78 51/51/51 74/74/74
f 78/78/78 75/75/75 79/79/79
f 80/80/80 77/77/77 76/76/76
f 80/80/80 76/76/76 51/51/51
f 77/77/77 80/80/80 79/79/79
f 81/81/81 78/78/78 79/79/79
f 81/81/81 51/51/51 78/78/78
f 80/80/80 81/81/81 79/79/79
f 80/80/80 51/51/51 81/81/81
