g EyebrowAR
v 0.1335977 -0.06365098 0.09994514
v 0.1474504 -0.06963274 0.116694
v 0.1445892 -0.07113317 0.1113304
v 0.1373562 -0.06675152 0.09094757
v 0.1494294 -0.07389973 0.1068939
v 0.1341909 -0.05737512 0.1054085
v 0.1555208 -0.07445304 0.113778
v 0.1480835 -0.06437876 0.1141917
v 0.1201088 -0.05473816 0.06986187
v 0.1163154 -0.05042133 0.07958223
v 0.1423111 -0.06500186 0.08295196
v 0.1514183 -0.07219493 0.09801601
v 0.1557751 -0.07091882 0.1004636
v 0.1537961 -0.06665184 0.1102687
v 0.1376952 -0.05121391 0.1039878
v 0.1254226 -0.05183203 0.06183137
v 0.1461843 -0.05923445 0.08202478
v 0.1549077 -0.06543554 0.1008823
v 0.143019 -0.04985804 0.09648569
v 0.1166394 -0.04052152 0.08517517
v 0.1464086 -0.05256479 0.08699961
v 0.1291562 -0.04246061 0.06076461
v 0.1048155 -0.03694243 0.04114944
v 0.120368 -0.0311501 0.08410345
v 0.09938203 -0.04062121 0.04928462
v 0.1256818 -0.02824396 0.07607792
v 0.1294753 -0.03256079 0.06635258
v 0.09570822 -0.03552675 0.0589003
v 0.1088681 -0.02551228 0.03978859
v 0.09634628 -0.0235732 0.06419915
v 0.1003989 -0.01214306 0.06283829
v 0.08051954 -0.0230149 0.02127504
v 0.1058324 -0.008464277 0.05469811
v 0.07490666 -0.02715726 0.02959467
v 0.0714173 -0.02160421 0.0390259
v 0.1095061 -0.01355375 0.04508743
v 0.07253888 -0.008409441 0.04383624
v 0.08505571 -0.01034853 0.01942568
v 0.0522009 -0.01195861 0.001794443
v 0.07707006 0.004256934 0.04198688
v 0.04648334 -0.01660943 0.01024866
v 0.08268294 0.008399308 0.03366725
v 0.08617231 0.002846241 0.02423601
v 0.04309367 -0.01054792 0.01954532
v 0.05700126 0.002048671 -0.0004088432
v 0.04448443 0.003992736 0.02400172
v 0.04928978 0.01800002 0.02179845
v 0.02228214 -0.004267067 -0.01552774
v 0.05500235 0.02265084 0.01334423
v 0.01655959 -0.009456247 -0.006958857
v 0.0131799 -0.002856374 0.002223134
v 0.05839202 0.01658933 0.004047573
v 0.01459557 0.0131249 0.006375477
v 0.02711241 0.01118581 -0.01803508
v -0.006883919 6.471574E-05 -0.02890195
v 0.01943083 0.02858275 0.003868118
v -0.01253669 -0.005603001 -0.02017356
v 0.02515338 0.03377193 -0.00470075
v 0.02853307 0.02717206 -0.01388773
v -0.01598617 0.001480401 -0.01115108
v -0.002243072 0.01680367 -0.03184298
v -0.01475991 0.01874775 -0.007432416
v -0.01011907 0.03548172 -0.01037344
v -0.03608488 0.001610011 -0.0386223
v -0.004466295 0.04115441 -0.01910183
v -0.04153326 -0.00436677 -0.02963971
v -0.04518712 0.003020704 -0.02087143
v -0.001011834 0.03407101 -0.02812432
v -0.0445042 0.02111053 -0.01782572
v -0.03198737 0.01917145 -0.04223628
v -0.06667161 0.0008024722 -0.04556115
v -0.04040171 0.03867199 -0.0214397
v -0.07174115 -0.005229145 -0.03625951
v -0.03495333 0.04464877 -0.03042232
v -0.03129947 0.03726129 -0.03919058
v -0.07577385 0.002213165 -0.02781028
v -0.06358601 0.01849851 -0.05003251
v -0.07610783 0.0204376 -0.02562694
v -0.07302223 0.03812864 -0.03009331
v -0.09911765 -0.002995953 -0.05083507
v -0.06795269 0.04416025 -0.03939994
v -0.1036538 -0.00885807 -0.04140382
v -0.1082199 -0.001585245 -0.0330842
v -0.06391999 0.03671795 -0.04784419
v -0.1099596 0.01619554 -0.03123484
v -0.09744276 0.01425645 -0.0556454
v -0.1315488 -0.008912906 -0.05476807
v -0.1082847 0.03344792 -0.03604018
v -0.135726 -0.01437624 -0.04602972
v -0.1037436 0.03931004 -0.04547142
v -0.09918247 0.03203224 -0.05379105
v -0.1402622 -0.007562026 -0.03777988
v -0.1317531 0.006804168 -0.0588257
v -0.1437416 0.00866349 -0.035442
v -0.1431384 0.02460986 -0.03943981
v -0.1530731 -0.01053795 -0.05525658
v -0.1397687 0.02984889 -0.04824297
v -0.1600169 -0.01374318 -0.0490206
v -0.1598973 -0.009476185 -0.04194219
v -0.1581427 0.0004734695 -0.05722558
v -0.134425 0.02325898 -0.05643299
v -0.1664673 0.001759544 -0.04099008
v -0.1709038 -0.001306102 -0.04973841
v -0.1633468 0.01507893 -0.04235592
v -0.164593 0.01598118 -0.04919507
v -0.1565176 0.01402216 -0.05567032
vt 0.05413723 0.9843133
vt 0.05413723 0.9843133
vt 0.05413723 0.9843133
vt 0.05413723 0.9843133
vt 0.05413723 0.9843133
vt 0.05413723 0.9843133
vt 0.05413723 0.9843133
vt 0.05413723 0.9843133
vt 0.05413723 0.9843133
vt 0.05413723 0.9843133
vt 0.05413723 0.9843133
vt 0.05413723 0.9843133
vt 0.05413723 0.9843133
vt 0.05413723 0.9843133
vt 0.05413723 0.9843133
vt 0.05413723 0.9843133
vt 0.05413723 0.9843133
vt 0.05413723 0.9843133
vt 0.05413723 0.9843133
vt 0.05413723 0.9843133
vt 0.05413723 0.9843133
vt 0.05413723 0.9843133
vt 0.05413723 0.9843133
vt 0.05413723 0.9843133
vt 0.05413723 0.9843133
vt 0.05413723 0.9843133
vt 0.05413723 0.9843133
vt 0.05413723 0.9843133
vt 0.05413723 0.9843133
vt 0.05413723 0.9843133
vt 0.05413723 0.9843133
vt 0.05413723 0.9843133
vt 0.05413723 0.9843133
vt 0.05413723 0.9843133
vt 0.05413723 0.9843133
vt 0.05413723 0.9843133
vt 0.05413723 0.9843133
vt 0.05413723 0.9843133
vt 0.05413723 0.9843133
vt 0.05413723 0.9843133
vt 0.05413723 0.9843133
vt 0.05413723 0.9843133
vt 0.05413723 0.9843133
vt 0.05413723 0.9843133
vt 0.05413723 0.9843133
vt 0.05413723 0.9843133
vt 0.05413723 0.9843133
vt 0.05413723 0.9843133
vt 0.05413723 0.9843133
vt 0.05413723 0.9843133
vt 0.05413723 0.9843133
vt 0.05413723 0.9843133
vt 0.05413723 0.9843133
vt 0.05413723 0.9843133
vt 0.05413723 0.9843133
vt 0.05413723 0.9843133
vt 0.05413723 0.9843133
vt 0.05413723 0.9843133
vt 0.05413723 0.9843133
vt 0.05413723 0.9843133
vt 0.05413723 0.9843133
vt 0.05413723 0.9843133
vt 0.05413723 0.9843133
vt 0.05413723 0.9843133
vt 0.05413723 0.9843133
vt 0.05413723 0.9843133
vt 0.05413723 0.9843133
vt 0.05413723 0.9843133
vt 0.05413723 0.9843133
vt 0.05413723 0.9843133
vt 0.05413723 0.9843133
vt 0.05413723 0.9843133
vt 0.05413723 0.9843133
vt 0.05413723 0.9843133
vt 0.05413723 0.9843133
vt 0.05413723 0.9843133
vt 0.05413723 0.9843133
vt 0.05413723 0.9843133
vt 0.05413723 0.9843133
vt 0.05413723 0.9843133
vt 0.05413723 0.9843133
vt 0.05413723 0.9843133
vt 0.05413723 0.9843133
vt 0.05413723 0.9843133
vt 0.05413723 0.9843133
vt 0.05413723 0.9843133
vt 0.05413723 0.9843133
vt 0.05413723 0.9843133
vt 0.05413723 0.9843133
vt 0.05413723 0.9843133
vt 0.05413723 0.9843133
vt 0.05413723 0.9843133
vt 0.05413723 0.9843133
vt 0.05413723 0.9843133
vt 0.05413723 0.9843133
vt 0.05413723 0.9843133
vt 0.05413723 0.9843133
vt 0.05413723 0.9843133
vt 0.05413723 0.9843133
vt 0.05413723 0.9843133
vt 0.05413723 0.9843133
vt 0.05413723 0.9843133
vt 0.05413723 0.9843133
vt 0.05413723 0.9843133
vt 0.05413723 0.9843133
vt 0.05413723 0.9843133
vn -0.7457923 -0.6076654 0.2730139
vn -0.1668567 -0.2243161 0.9601256
vn -0.6127936 -0.7171937 0.3318389
vn -0.4172073 -0.8971332 -0.1452241
vn -0.1825036 -0.9831912 -0.005247604
vn -0.6675578 0.04168135 0.7433904
vn 0.6076654 -0.5763716 0.5463869
vn 0.2086692 0.5814998 0.7863302
vn -0.4250306 -0.8814863 -0.2057447
vn -0.7692627 -0.5529011 0.3202111
vn 0.2243161 -0.7797814 -0.5844855
vn 0.2086692 -0.8736628 -0.4395117
vn 0.8658394 -0.4199024 -0.2720371
vn 0.7876048 0.4719715 0.3961333
vn 0.0130828 0.6675578 0.744443
vn 0.2321395 -0.7015468 -0.6737532
vn 0.7954283 -0.1147877 -0.5950778
vn 0.9206036 0.3859134 -0.05966479
vn 0.6233123 0.722322 0.2995541
vn -0.7066751 0.04168135 0.7063094
vn 0.8658394 0.464148 -0.1867856
vn 0.7406641 -0.03655314 -0.6708804
vn 0.2477865 -0.6467826 -0.7213002
vn -0.1042691 0.6597343 0.7442302
vn -0.4093838 -0.8971332 -0.1660025
vn 0.5607246 0.7849097 0.2636374
vn 0.8267221 0.4954419 -0.2665855
vn -0.7301455 -0.5372543 0.4221911
vn 0.6780765 -0.02872968 -0.7344296
vn -0.6675578 0.033858 0.7437878
vn -0.1668567 0.651911 0.73971
vn 0.2556099 -0.6389592 -0.7255307
vn 0.4903135 0.8474973 0.2033249
vn -0.3389727 -0.928427 -0.1520551
vn -0.6597343 -0.5372543 0.5254603
vn 0.7719579 0.5032652 -0.3883363
vn -0.5893232 0.04950482 0.8063792
vn 0.6076654 -0.03655314 -0.7933515
vn 0.2634333 -0.6311357 -0.7295688
vn -0.1903271 0.651911 0.7340215
vn -0.2529011 -0.9674922 0
vn 0.412079 0.894438 0.1736998
vn 0.6937234 0.5189121 -0.4994778
vn -0.5658529 -0.5372543 0.6254345
vn 0.5372543 -0.04437661 -0.8422521
vn -0.5267356 0.05732828 0.8480938
vn -0.2137974 0.6440875 0.7344671
vn 0.2634333 -0.6076654 -0.7492301
vn 0.3338444 0.9335553 0.1304698
vn -0.1746802 -0.9831912 -0.05312177
vn -0.4719715 -0.5372543 0.6989998
vn 0.6076654 0.5267356 -0.5943841
vn -0.4485011 0.04950482 0.8924103
vn 0.4668432 -0.04437661 -0.883226
vn 0.239963 -0.599842 -0.7632872
vn -0.2137974 0.6284406 0.7478991
vn -0.09611081 -0.9953706 0
vn 0.2633898 0.9646896 0
vn 0.5137839 0.5267356 -0.6771821
vn -0.3546196 -0.5216074 0.7759966
vn 0.3807852 -0.03655314 -0.9239407
vn -0.3702665 0.04950482 0.9276055
vn -0.2137974 0.6206171 0.7544038
vn 0.2086692 -0.5920185 -0.7784416
vn 0.1690856 0.9856014 0
vn -0.02603453 -0.9988381 0.04055307
vn -0.2372678 -0.5059605 0.8292816
vn 0.4042555 0.5267356 -0.747748
vn -0.2842085 0.06515175 0.9565463
vn 0.2869037 -0.05220008 -0.9565362
vn 0.1930223 -0.599842 -0.7764869
vn -0.2137974 0.6206171 0.7544038
vn 0.05220008 -0.9910147 0.1231466
vn 0.06784695 0.9961429 -0.05564211
vn 0.2790803 0.5110887 -0.8129591
vn -0.1355628 -0.4746667 0.8696633
vn 0.2086692 -0.06784695 -0.97563
vn -0.2059739 0.08079869 0.975216
vn -0.2137974 0.6284406 0.7478991
vn 0.1930223 -0.6076654 -0.7703799
vn -0.04950482 0.9883195 -0.1441317
vn 0.1226112 -0.9831912 0.1352834
vn -0.05732828 -0.4668432 0.88248
vn 0.153905 0.4876184 -0.8593844
vn -0.1590332 0.08079869 0.9839614
vn 0.138258 -0.06784695 -0.9880696
vn 0.1304346 -0.6154888 -0.7772775
vn -0.2294443 0.636264 0.7365619
vn 0.06784695 -0.9910147 0.115268
vn -0.1746802 0.9726725 -0.1529543
vn 0.02872968 0.464148 -0.8852916
vn -0.08862215 -0.5137839 0.8533301
vn 0.03655314 -0.06002349 -0.9975275
vn -0.1903271 0.04168135 0.9808355
vn -0.3389727 0.6284406 0.7001143
vn -0.1120926 -0.584195 -0.8038355
vn -0.3389727 0.9179084 -0.2062565
vn -0.4563245 -0.8814863 -0.1214491
vn -0.37809 -0.5607246 0.7366382
vn -0.3233258 -0.09131736 -0.9418713
vn -0.1199159 0.4485011 -0.8857014
vn -0.6832047 -0.05220008 0.7283587
vn -0.9492022 -0.2008457 -0.2422315
vn -0.6049702 0.5032652 0.6170375
vn -0.7536158 0.6049702 -0.2570493
vn -0.3233258 0.3702665 -0.8708405
g EyebrowAR_0
f 3/3/3 2/2/2 1/1/1
f 1/1/1 4/4/4 3/3/3
f 3/3/3 5/5/5 2/2/2
f 4/4/4 5/5/5 3/3/3
f 2/2/2 6/6/6 1/1/1
f 5/5/5 7/7/7 2/2/2
f 2/2/2 8/8/8 6/6/6
f 2/2/2 7/7/7 8/8/8
f 9/9/9 4/4/4 1/1/1
f 1/1/1 6/6/6 10/10/10
f 10/10/10 9/9/9 1/1/1
f 4/4/4 11/11/11 5/5/5
f 5/5/5 12/12/12 7/7/7
f 11/11/11 12/12/12 5/5/5
f 12/12/12 13/13/13 7/7/7
f 13/13/13 12/12/12 11/11/11
f 7/7/7 14/14/14 8/8/8
f 7/7/7 13/13/13 14/14/14
f 8/8/8 15/15/15 6/6/6
f 8/8/8 14/14/14 15/15/15
f 16/16/16 11/11/11 4/4/4
f 9/9/9 16/16/16 4/4/4
f 17/17/17 13/13/13 11/11/11
f 17/17/17 11/11/11 16/16/16
f 13/13/13 18/18/18 14/14/14
f 18/18/18 13/13/13 17/17/17
f 14/14/14 18/18/18 19/19/19
f 14/14/14 19/19/19 15/15/15
f 6/6/6 15/15/15 20/20/20
f 6/6/6 20/20/20 10/10/10
f 21/21/21 18/18/18 17/17/17
f 18/18/18 21/21/21 19/19/19
f 22/22/22 17/17/17 16/16/16
f 21/21/21 17/17/17 22/22/22
f 23/23/23 16/16/16 9/9/9
f 22/22/22 16/16/16 23/23/23
f 15/15/15 19/19/19 24/24/24
f 15/15/15 24/24/24 20/20/20
f 25/25/25 9/9/9 10/10/10
f 25/25/25 23/23/23 9/9/9
f 19/19/19 21/21/21 26/26/26
f 19/19/19 26/26/26 24/24/24
f 27/27/27 21/21/21 22/22/22
f 21/21/21 27/27/27 26/26/26
f 10/10/10 20/20/20 28/28/28
f 28/28/28 25/25/25 10/10/10
f 29/29/29 22/22/22 23/23/23
f 27/27/27 22/22/22 29/29/29
f 20/20/20 24/24/24 30/30/30
f 20/20/20 30/30/30 28/28/28
f 24/24/24 26/26/26 31/31/31
f 24/24/24 31/31/31 30/30/30
f 32/32/32 23/23/23 25/25/25
f 29/29/29 23/23/23 32/32/32
f 26/26/26 27/27/27 33/33/33
f 26/26/26 33/33/33 31/31/31
f 34/34/34 25/25/25 28/28/28
f 34/34/34 32/32/32 25/25/25
f 28/28/28 30/30/30 35/35/35
f 35/35/35 34/34/34 28/28/28
f 36/36/36 27/27/27 29/29/29
f 27/27/27 36/36/36 33/33/33
f 30/30/30 31/31/31 37/37/37
f 30/30/30 37/37/37 35/35/35
f 38/38/38 29/29/29 32/32/32
f 36/36/36 29/29/29 38/38/38
f 39/39/39 32/32/32 34/34/34
f 32/32/32 39/39/39 38/38/38
f 31/31/31 33/33/33 40/40/40
f 31/31/31 40/40/40 37/37/37
f 41/41/41 34/34/34 35/35/35
f 41/41/41 39/39/39 34/34/34
f 33/33/33 36/36/36 42/42/42
f 33/33/33 42/42/42 40/40/40
f 43/43/43 36/36/36 38/38/38
f 36/36/36 43/43/43 42/42/42
f 44/44/44 35/35/35 37/37/37
f 44/44/44 41/41/41 35/35/35
f 39/39/39 45/45/45 38/38/38
f 38/38/38 45/45/45 43/43/43
f 46/46/46 37/37/37 40/40/40
f 46/46/46 44/44/44 37/37/37
f 40/40/40 42/42/42 47/47/47
f 47/47/47 46/46/46 40/40/40
f 48/48/48 39/39/39 41/41/41
f 39/39/39 48/48/48 45/45/45
f 42/42/42 43/43/43 49/49/49
f 42/42/42 49/49/49 47/47/47
f 50/50/50 41/41/41 44/44/44
f 50/50/50 48/48/48 41/41/41
f 51/51/51 44/44/44 46/46/46
f 51/51/51 50/50/50 44/44/44
f 45/45/45 52/52/52 43/43/43
f 43/43/43 52/52/52 49/49/49
f 53/53/53 46/46/46 47/47/47
f 53/53/53 51/51/51 46/46/46
f 48/48/48 54/54/54 45/45/45
f 45/45/45 54/54/54 52/52/52
f 55/55/55 48/48/48 50/50/50
f 48/48/48 55/55/55 54/54/54
f 47/47/47 49/49/49 56/56/56
f 56/56/56 53/53/53 47/47/47
f 57/57/57 50/50/50 51/51/51
f 57/57/57 55/55/55 50/50/50
f 49/49/49 52/52/52 58/58/58
f 49/49/49 58/58/58 56/56/56
f 54/54/54 59/59/59 52/52/52
f 52/52/52 59/59/59 58/58/58
f 60/60/60 51/51/51 53/53/53
f 60/60/60 57/57/57 51/51/51
f 55/55/55 61/61/61 54/54/54
f 54/54/54 61/61/61 59/59/59
f 62/62/62 53/53/53 56/56/56
f 62/62/62 60/60/60 53/53/53
f 56/56/56 58/58/58 63/63/63
f 63/63/63 62/62/62 56/56/56
f 64/64/64 55/55/55 57/57/57
f 55/55/55 64/64/64 61/61/61
f 58/58/58 59/59/59 65/65/65
f 58/58/58 65/65/65 63/63/63
f 66/66/66 57/57/57 60/60/60
f 66/66/66 64/64/64 57/57/57
f 67/67/67 60/60/60 62/62/62
f 67/67/67 66/66/66 60/60/60
f 61/61/61 68/68/68 59/59/59
f 59/59/59 68/68/68 65/65/65
f 69/69/69 62/62/62 63/63/63
f 69/69/69 67/67/67 62/62/62
f 64/64/64 70/70/70 61/61/61
f 61/61/61 70/70/70 68/68/68
f 71/71/71 64/64/64 66/66/66
f 64/64/64 71/71/71 70/70/70
f 63/63/63 65/65/65 72/72/72
f 72/72/72 69/69/69 63/63/63
f 73/73/73 66/66/66 67/67/67
f 73/73/73 71/71/71 66/66/66
f 65/65/65 68/68/68 74/74/74
f 65/65/65 74/74/74 72/72/72
f 70/70/70 75/75/75 68/68/68
f 68/68/68 75/75/75 74/74/74
f 76/76/76 67/67/67 69/69/69
f 76/76/76 73/73/73 67/67/67
f 71/71/71 77/77/77 70/70/70
f 70/70/70 77/77/77 75/75/75
f 78/78/78 69/69/69 72/72/72
f 78/78/78 76/76/76 69/69/69
f 72/72/72 74/74/74 79/79/79
f 79/79/79 78/78/78 72/72/72
f 80/80/80 71/71/71 73/73/73
f 71/71/71 80/80/80 77/77/77
f 74/74/74 75/75/75 81/81/81
f 74/74/74 81/81/81 79/79/79
f 82/82/82 73/73/73 76/76/76
f 82/82/82 80/80/80 73/73/73
f 83/83/83 76/76/76 78/78/78
f 83/83/83 82/82/82 76/76/76
f 77/77/77 84/84/84 75/75/75
f 75/75/75 84/84/84 81/81/81
f 85/85/85 78/78/78 79/79/79
f 85/85/85 83/83/83 78/78/78
f 80/80/80 86/86/86 77/77/77
f 77/77/77 86/86/86 84/84/84
f 87/87/87 80/80/80 82/82/82
f 86/86/86 80/80/80 87/87/87
f 79/79/79 81/81/81 88/88/88
f 88/88/88 85/85/85 79/79/79
f 89/89/89 82/82/82 83/83/83
f 89/89/89 87/87/87 82/82/82
f 81/81/81 84/84/84 90/90/90
f 81/81/81 90/90/90 88/88/88
f 86/86/86 91/91/91 84/84/84
f 84/84/84 91/91/91 90/90/90
f 83/83/83 85/85/85 92/92/92
f 92/92/92 89/89/89 83/83/83
f 93/93/93 86/86/86 87/87/87
f 91/91/91 86/86/86 93/93/93
f 85/85/85 88/88/88 94/94/94
f 85/85/85 94/94/94 92/92/92
f 88/88/88 90/90/90 95/95/95
f 88/88/88 95/95/95 94/94/94
f 96/96/96 87/87/87 89/89/89
f 93/93/93 87/87/87 96/96/96
f 90/90/90 91/91/91 97/97/97
f 90/90/90 97/97/97 95/95/95
f 98/98/98 89/89/89 92/92/92
f 98/98/98 96/96/96 89/89/89
f 92/92/92 94/94/94 99/99/99
f 99/99/99 98/98/98 92/92/92
f 100/100/100 93/93/93 96/96/96
f 100/100/100 96/96/96 98/98/98
f 101/101/101 91/91/91 93/93/93
f 91/91/91 101/101/101 97/97/97
f 101/101/101 93/93/93 100/100/100
f 94/94/94 95/95/95 102/102/102
f 94/94/94 102/102/102 99/99/99
f 103/103/103 98/98/98 99/99/99
f 103/103/103 100/100/100 98/98/98
f 102/102/102 103/103/103 99/99/99
f 95/95/95 97/97/97 104/104/104
f 95/95/95 104/104/104 102/102/102
f 97/97/97 105/105/105 104/104/104
f 104/104/104 105/105/105 102/102/102
f 97/97/97 101/101/101 105/105/105
f 105/105/105 103/103/103 102/102/102
f 106/106/106 101/101/101 100/100/100
f 106/106/106 100/100/100 103/103/103
f 101/101/101 106/106/106 105/105/105
f 105/105/105 106/106/106 103/103/103
