g EyebrowLeftA
v -0.1335977 -0.06365083 0.09994528
v -0.1445892 -0.07113302 0.1113306
v -0.1474504 -0.0696326 0.1166942
v -0.1373562 -0.06675138 0.09094772
v -0.1494294 -0.07389958 0.1068941
v -0.1341909 -0.05737498 0.1054036
v -0.1201088 -0.05473801 0.06986202
v -0.1163203 -0.05042118 0.07958239
v -0.1423111 -0.06500172 0.08295211
v -0.1254226 -0.05183188 0.06183152
v -0.1555208 -0.07445289 0.1137781
v -0.1480835 -0.06437862 0.1141918
v -0.1514183 -0.07219478 0.09801617
v -0.155775 -0.07092366 0.1004637
v -0.1537961 -0.06665169 0.1102688
v -0.1376952 -0.05121376 0.103988
v -0.1461843 -0.05923431 0.08202493
v -0.1549077 -0.06543539 0.1008824
v -0.1430189 -0.0498579 0.09648582
v -0.1166394 -0.04052137 0.08517534
v -0.1464086 -0.05256464 0.08699977
v -0.1291562 -0.04246046 0.06076476
v -0.120368 -0.03114994 0.08410358
v -0.1256818 -0.02824381 0.07607807
v -0.1048154 -0.03694229 0.04114959
v -0.09938201 -0.04062106 0.04928477
v -0.09570822 -0.0355266 0.05890045
v -0.1294752 -0.03256562 0.06635273
v -0.09634626 -0.02357306 0.0641993
v -0.1088681 -0.02551214 0.03978874
v -0.08051953 -0.02301475 0.02127519
v -0.1003989 -0.01214291 0.06283844
v -0.07490665 -0.02715713 0.02959482
v -0.1058323 -0.008464128 0.05469826
v -0.1095061 -0.0135536 0.04508758
v -0.07141729 -0.02160406 0.03902605
v -0.08505568 -0.01034838 0.01942582
v -0.07253887 -0.008409292 0.04383639
v -0.07707004 0.004257083 0.04198703
v -0.05220088 -0.01195846 0.001794592
v -0.08268294 0.008399457 0.0336674
v -0.04648332 -0.01660928 0.01024881
v -0.04309365 -0.01054777 0.01954547
v -0.08617228 0.00284639 0.02423616
v -0.04448441 0.003992885 0.02400187
v -0.05700125 0.00204882 -0.0004086941
v -0.02228212 -0.004266918 -0.01552759
v -0.04928976 0.01800017 0.0217986
v -0.01655957 -0.009456098 -0.006958708
v -0.05500233 0.02265099 0.01334438
v -0.058392 0.01658948 0.004047722
v -0.01317987 -0.002856225 0.002223283
v -0.02711238 0.01118596 -0.01803493
v -0.01459555 0.01312505 0.006375626
v -0.01943082 0.0285829 0.003868267
v 0.006883949 6.486475E-05 -0.0289018
v -0.02515335 0.03377208 -0.004700601
v 0.0125367 -0.005602852 -0.02017342
v 0.01598619 0.00148055 -0.01115093
v -0.02853306 0.02716722 -0.01388758
v 0.01475993 0.0187429 -0.007432267
v 0.002243102 0.01680382 -0.03184283
v 0.03608489 0.00161016 -0.03862216
v 0.01011908 0.03548187 -0.01037331
v 0.04153328 -0.004366621 -0.02963956
v 0.00446631 0.04115456 -0.01910168
v 0.001011848 0.03407116 -0.02812417
v 0.04518715 0.003020853 -0.0208713
v 0.03198738 0.0191716 -0.04223613
v 0.04450423 0.02111068 -0.01783057
v 0.04040173 0.03867213 -0.02143955
v 0.06667162 0.0008026212 -0.04556598
v 0.03495334 0.04464892 -0.03042217
v 0.07174116 -0.005228996 -0.03625937
v 0.07577386 0.002213314 -0.02781013
v 0.03129949 0.03726144 -0.03919043
v 0.07610784 0.02043775 -0.02562679
v 0.06358603 0.01849367 -0.05003236
v 0.09911768 -0.002995804 -0.05083492
v 0.07302225 0.03812879 -0.03009316
v 0.1036538 -0.008857921 -0.04140368
v 0.06795271 0.0441604 -0.03939979
v 0.06392001 0.0367181 -0.04784404
v 0.1082199 -0.001585096 -0.03308405
v 0.09744279 0.0142566 -0.05564525
v 0.1099596 0.01619567 -0.03123468
v 0.1082847 0.03344807 -0.03604004
v 0.1315488 -0.008912757 -0.05476792
v 0.1037436 0.03931019 -0.04547127
v 0.135726 -0.01437609 -0.04602957
v 0.1402622 -0.007561877 -0.03777973
v 0.09918249 0.03203239 -0.05379589
v 0.1437416 0.008663639 -0.03544186
v 0.1317532 0.006804317 -0.05882555
v 0.1530731 -0.0105378 -0.05525643
v 0.1431384 0.02461001 -0.03943966
v 0.160017 -0.01374303 -0.04902045
v 0.1397687 0.02984904 -0.04824282
v 0.1581427 0.0004736185 -0.05722543
v 0.134425 0.02325913 -0.05643284
v 0.1598973 -0.009476036 -0.04194203
v 0.1664673 0.001759693 -0.04098994
v 0.1709038 -0.001305953 -0.04973826
v 0.1633468 0.01507908 -0.04235578
v 0.164593 0.01597634 -0.04919492
v 0.1565176 0.01402231 -0.05567017
vt 0.05413723 0.9843133
vt 0.05413723 0.9843133
vt 0.05413723 0.9843133
vt 0.05413723 0.9843133
vt 0.05413723 0.9843133
vt 0.05413723 0.9843133
vt 0.05413723 0.9843133
vt 0.05413723 0.9843133
vt 0.05413723 0.9843133
vt 0.05413723 0.9843133
vt 0.05413723 0.9843133
vt 0.05413723 0.9843133
vt 0.05413723 0.9843133
vt 0.05413723 0.9843133
vt 0.05413723 0.9843133
vt 0.05413723 0.9843133
vt 0.05413723 0.9843133
vt 0.05413723 0.9843133
vt 0.05413723 0.9843133
vt 0.05413723 0.9843133
vt 0.05413723 0.9843133
vt 0.05413723 0.9843133
vt 0.05413723 0.9843133
vt 0.05413723 0.9843133
vt 0.05413723 0.9843133
vt 0.05413723 0.9843133
vt 0.05413723 0.9843133
vt 0.05413723 0.9843133
vt 0.05413723 0.9843133
vt 0.05413723 0.9843133
vt 0.05413723 0.9843133
vt 0.05413723 0.9843133
vt 0.05413723 0.9843133
vt 0.05413723 0.9843133
vt 0.05413723 0.9843133
vt 0.05413723 0.9843133
vt 0.05413723 0.9843133
vt 0.05413723 0.9843133
vt 0.05413723 0.9843133
vt 0.05413723 0.9843133
vt 0.05413723 0.9843133
vt 0.05413723 0.9843133
vt 0.05413723 0.9843133
vt 0.05413723 0.9843133
vt 0.05413723 0.9843133
vt 0.05413723 0.9843133
vt 0.05413723 0.9843133
vt 0.05413723 0.9843133
vt 0.05413723 0.9843133
vt 0.05413723 0.9843133
vt 0.05413723 0.9843133
vt 0.05413723 0.9843133
vt 0.05413723 0.9843133
vt 0.05413723 0.9843133
vt 0.05413723 0.9843133
vt 0.05413723 0.9843133
vt 0.05413723 0.9843133
vt 0.05413723 0.9843133
vt 0.05413723 0.9843133
vt 0.05413723 0.9843133
vt 0.05413723 0.9843133
vt 0.05413723 0.9843133
vt 0.05413723 0.9843133
vt 0.05413723 0.9843133
vt 0.05413723 0.9843133
vt 0.05413723 0.9843133
vt 0.05413723 0.9843133
vt 0.05413723 0.9843133
vt 0.05413723 0.9843133
vt 0.05413723 0.9843133
vt 0.05413723 0.9843133
vt 0.05413723 0.9843133
vt 0.05413723 0.9843133
vt 0.05413723 0.9843133
vt 0.05413723 0.9843133
vt 0.05413723 0.9843133
vt 0.05413723 0.9843133
vt 0.05413723 0.9843133
vt 0.05413723 0.9843133
vt 0.05413723 0.9843133
vt 0.05413723 0.9843133
vt 0.05413723 0.9843133
vt 0.05413723 0.9843133
vt 0.05413723 0.9843133
vt 0.05413723 0.9843133
vt 0.05413723 0.9843133
vt 0.05413723 0.9843133
vt 0.05413723 0.9843133
vt 0.05413723 0.9843133
vt 0.05413723 0.9843133
vt 0.05413723 0.9843133
vt 0.05413723 0.9843133
vt 0.05413723 0.9843133
vt 0.05413723 0.9843133
vt 0.05413723 0.9843133
vt 0.05413723 0.9843133
vt 0.05413723 0.9843133
vt 0.05413723 0.9843133
vt 0.05413723 0.9843133
vt 0.05413723 0.9843133
vt 0.05413723 0.9843133
vt 0.05413723 0.9843133
vt 0.05413723 0.9843133
vt 0.05413723 0.9843133
vt 0.05413723 0.9843133
vt 0.05413723 0.9843133
vn 0.7406641 -0.6076654 0.2866348
vn 0.6154888 -0.7171937 0.3268128
vn 0.1695519 -0.2243161 0.9596533
vn 0.4199024 -0.8971332 -0.1372368
vn 0.1773753 -0.9831912 -0.04327905
vn 0.670253 0.04168135 0.7409612
vn 0.4277259 -0.8814863 -0.2000812
vn 0.7641345 -0.5529011 0.3322632
vn -0.2216209 -0.7797814 -0.5855128
vn -0.2372678 -0.7015468 -0.6719643
vn -0.6127936 -0.5763716 0.5406291
vn -0.2137974 0.5814998 0.7849514
vn -0.2059739 -0.8736628 -0.4407811
vn -0.8631442 -0.4199024 -0.280471
vn -0.7849097 0.4719715 0.4014471
vn -0.0103876 0.6675578 0.7444856
vn -0.7927331 -0.1147877 -0.5986634
vn -0.9179084 0.3859134 -0.09227708
vn -0.6206171 0.722322 0.3050988
vn 0.7093703 0.04168135 0.7036026
vn -0.8709677 0.464148 -0.161189
vn -0.7379689 -0.03655314 -0.673844
vn 0.1069642 0.6597343 0.7438477
vn -0.5580295 0.7849097 0.2692952
vn -0.2450913 -0.6467826 -0.7222205
vn 0.4042555 -0.8971332 -0.1781276
vn 0.7328407 -0.5372543 0.4174954
vn -0.8240269 0.4954419 -0.2748037
vn 0.6624296 0.033858 0.7483587
vn -0.6832047 -0.02872968 -0.7296615
vn -0.2529147 -0.6389592 -0.7264746
vn 0.1617284 0.651911 0.7408482
vn 0.3416679 -0.928427 -0.1458983
vn -0.4876184 0.8474973 0.2097061
vn -0.7770862 0.5032652 -0.3779698
vn 0.6624296 -0.5372543 0.5220583
vn -0.6049702 -0.03655314 -0.7954087
vn 0.5920185 0.04950482 0.8044025
vn 0.1930223 0.651911 0.7333174
vn -0.2607382 -0.6311357 -0.7305363
vn -0.4172073 0.894438 0.1609931
vn 0.2554211 -0.9668298 0
vn 0.5685481 -0.5372543 0.6229855
vn -0.6988516 0.5189121 -0.4922769
vn 0.5216074 0.05732828 0.8512574
vn -0.5345591 -0.04437661 -0.8439652
vn -0.2607382 -0.6076654 -0.7501723
vn 0.2086692 0.6440875 0.7359406
vn 0.1695519 -0.9831912 -0.06772912
vn -0.3389727 0.9335553 0.1164988
vn -0.6127936 0.5267356 -0.5890955
vn 0.4746667 -0.5372543 0.6971725
vn -0.464148 -0.04437661 -0.8846453
vn 0.4511963 0.04950482 0.8910506
vn 0.2164926 0.6284406 0.7471234
vn -0.2450913 -0.599842 -0.761656
vn -0.2607382 0.9648491 0.032892
vn 0.09104389 -0.9958469 0
vn 0.3573148 -0.5216074 0.7747592
vn -0.5189121 0.5267356 -0.6732606
vn 0.3651382 0.04950482 0.9296361
vn -0.37809 -0.03655314 -0.9250469
vn -0.2137974 -0.5920185 -0.7770488
vn 0.2164926 0.6206171 0.7536348
vn 0.02090621 -0.9988381 0.04341998
vn -0.174047 0.9847373 0
vn -0.4015604 0.5267356 -0.7491989
vn 0.239963 -0.5059605 0.8285058
vn -0.2842085 -0.05220008 -0.9573405
vn 0.2790803 0.06515175 0.958055
vn 0.2086692 0.6206171 0.7558383
vn -0.1903271 -0.599842 -0.7771519
vn -0.06515175 0.9961429 -0.05877505
vn -0.05732828 -0.9910147 0.1208444
vn 0.1304346 -0.4746667 0.8704472
vn -0.276385 0.5110887 -0.8138794
vn 0.2086692 0.08079869 0.9746429
vn -0.2059739 -0.06784695 -0.9762026
vn -0.1981505 -0.6076654 -0.7690768
vn 0.2086692 0.6284406 0.7493461
vn -0.1277394 -0.9831912 0.130452
vn 0.05220008 0.9883195 -0.1431776
vn -0.1512098 0.4876184 -0.8598627
vn 0.06002349 -0.4668432 0.8823008
vn -0.1355628 -0.06784695 -0.988443
vn 0.153905 0.08079869 0.9847765
vn 0.2321395 0.636264 0.7357169
vn -0.1277394 -0.6154888 -0.777725
vn 0.1695519 0.9726725 -0.15862
vn -0.06515175 -0.9910147 0.1168125
vn 0.09131736 -0.5137839 0.8530459
vn -0.02603453 0.464148 -0.885375
vn 0.1851988 0.04168135 0.9818167
vn -0.033858 -0.06002349 -0.9976226
vn 0.1147877 -0.584195 -0.8034551
vn 0.3338444 0.6284406 0.7025741
vn 0.4511963 -0.8814863 -0.1392978
vn 0.3416679 0.9179084 -0.2017605
vn 0.3181975 -0.09131736 -0.9436162
vn 0.1226112 0.4485011 -0.8853323
vn 0.3729617 -0.5607246 0.7392479
vn 0.6780765 -0.05220008 0.7331353
vn 0.9440739 -0.2008457 -0.2615061
vn 0.6076654 0.5032652 0.6143833
vn 0.7484876 0.6049702 -0.2716201
vn 0.326021 0.3702665 -0.8698351
g EyebrowLeftA_0
f 3/3/3 2/2/2 1/1/1
f 4/4/4 1/1/1 2/2/2
f 5/5/5 2/2/2 3/3/3
f 5/5/5 4/4/4 2/2/2
f 6/6/6 3/3/3 1/1/1
f 4/4/4 7/7/7 1/1/1
f 6/6/6 1/1/1 8/8/8
f 7/7/7 8/8/8 1/1/1
f 9/9/9 4/4/4 5/5/5
f 10/10/10 7/7/7 4/4/4
f 9/9/9 10/10/10 4/4/4
f 11/11/11 5/5/5 3/3/3
f 12/12/12 3/3/3 6/6/6
f 11/11/11 3/3/3 12/12/12
f 13/13/13 9/9/9 5/5/5
f 13/13/13 5/5/5 11/11/11
f 13/13/13 14/14/14 9/9/9
f 14/14/14 13/13/13 11/11/11
f 15/15/15 11/11/11 12/12/12
f 14/14/14 11/11/11 15/15/15
f 16/16/16 12/12/12 6/6/6
f 15/15/15 12/12/12 16/16/16
f 14/14/14 17/17/17 9/9/9
f 9/9/9 17/17/17 10/10/10
f 18/18/18 14/14/14 15/15/15
f 14/14/14 18/18/18 17/17/17
f 18/18/18 15/15/15 19/19/19
f 19/19/19 15/15/15 16/16/16
f 16/16/16 6/6/6 20/20/20
f 20/20/20 6/6/6 8/8/8
f 18/18/18 21/21/21 17/17/17
f 21/21/21 18/18/18 19/19/19
f 17/17/17 22/22/22 10/10/10
f 17/17/17 21/21/21 22/22/22
f 19/19/19 16/16/16 23/23/23
f 23/23/23 16/16/16 20/20/20
f 21/21/21 19/19/19 24/24/24
f 24/24/24 19/19/19 23/23/23
f 10/10/10 22/22/22 25/25/25
f 10/10/10 25/25/25 7/7/7
f 7/7/7 26/26/26 8/8/8
f 25/25/25 26/26/26 7/7/7
f 20/20/20 8/8/8 27/27/27
f 26/26/26 27/27/27 8/8/8
f 21/21/21 28/28/28 22/22/22
f 28/28/28 21/21/21 24/24/24
f 23/23/23 20/20/20 29/29/29
f 29/29/29 20/20/20 27/27/27
f 22/22/22 30/30/30 25/25/25
f 22/22/22 28/28/28 30/30/30
f 25/25/25 31/31/31 26/26/26
f 25/25/25 30/30/30 31/31/31
f 24/24/24 23/23/23 32/32/32
f 32/32/32 23/23/23 29/29/29
f 26/26/26 33/33/33 27/27/27
f 31/31/31 33/33/33 26/26/26
f 28/28/28 24/24/24 34/34/34
f 34/34/34 24/24/24 32/32/32
f 28/28/28 35/35/35 30/30/30
f 35/35/35 28/28/28 34/34/34
f 29/29/29 27/27/27 36/36/36
f 33/33/33 36/36/36 27/27/27
f 30/30/30 37/37/37 31/31/31
f 30/30/30 35/35/35 37/37/37
f 32/32/32 29/29/29 38/38/38
f 38/38/38 29/29/29 36/36/36
f 34/34/34 32/32/32 39/39/39
f 39/39/39 32/32/32 38/38/38
f 31/31/31 40/40/40 33/33/33
f 40/40/40 31/31/31 37/37/37
f 35/35/35 34/34/34 41/41/41
f 41/41/41 34/34/34 39/39/39
f 33/33/33 42/42/42 36/36/36
f 40/40/40 42/42/42 33/33/33
f 36/36/36 43/43/43 38/38/38
f 42/42/42 43/43/43 36/36/36
f 35/35/35 44/44/44 37/37/37
f 44/44/44 35/35/35 41/41/41
f 38/38/38 45/45/45 39/39/39
f 43/43/43 45/45/45 38/38/38
f 46/46/46 40/40/40 37/37/37
f 46/46/46 37/37/37 44/44/44
f 40/40/40 47/47/47 42/42/42
f 47/47/47 40/40/40 46/46/46
f 41/41/41 39/39/39 48/48/48
f 45/45/45 48/48/48 39/39/39
f 42/42/42 49/49/49 43/43/43
f 47/47/47 49/49/49 42/42/42
f 44/44/44 41/41/41 50/50/50
f 50/50/50 41/41/41 48/48/48
f 51/51/51 46/46/46 44/44/44
f 51/51/51 44/44/44 50/50/50
f 43/43/43 52/52/52 45/45/45
f 49/49/49 52/52/52 43/43/43
f 53/53/53 47/47/47 46/46/46
f 53/53/53 46/46/46 51/51/51
f 45/45/45 54/54/54 48/48/48
f 52/52/52 54/54/54 45/45/45
f 50/50/50 48/48/48 55/55/55
f 54/54/54 55/55/55 48/48/48
f 47/47/47 56/56/56 49/49/49
f 56/56/56 47/47/47 53/53/53
f 51/51/51 50/50/50 57/57/57
f 57/57/57 50/50/50 55/55/55
f 49/49/49 58/58/58 52/52/52
f 56/56/56 58/58/58 49/49/49
f 52/52/52 59/59/59 54/54/54
f 58/58/58 59/59/59 52/52/52
f 60/60/60 53/53/53 51/51/51
f 60/60/60 51/51/51 57/57/57
f 54/54/54 61/61/61 55/55/55
f 59/59/59 61/61/61 54/54/54
f 62/62/62 56/56/56 53/53/53
f 62/62/62 53/53/53 60/60/60
f 56/56/56 63/63/63 58/58/58
f 63/63/63 56/56/56 62/62/62
f 57/57/57 55/55/55 64/64/64
f 61/61/61 64/64/64 55/55/55
f 58/58/58 65/65/65 59/59/59
f 63/63/63 65/65/65 58/58/58
f 60/60/60 57/57/57 66/66/66
f 66/66/66 57/57/57 64/64/64
f 67/67/67 62/62/62 60/60/60
f 67/67/67 60/60/60 66/66/66
f 59/59/59 68/68/68 61/61/61
f 65/65/65 68/68/68 59/59/59
f 69/69/69 63/63/63 62/62/62
f 69/69/69 62/62/62 67/67/67
f 61/61/61 70/70/70 64/64/64
f 68/68/68 70/70/70 61/61/61
f 66/66/66 64/64/64 71/71/71
f 70/70/70 71/71/71 64/64/64
f 63/63/63 72/72/72 65/65/65
f 72/72/72 63/63/63 69/69/69
f 67/67/67 66/66/66 73/73/73
f 73/73/73 66/66/66 71/71/71
f 65/65/65 74/74/74 68/68/68
f 72/72/72 74/74/74 65/65/65
f 68/68/68 75/75/75 70/70/70
f 74/74/74 75/75/75 68/68/68
f 76/76/76 69/69/69 67/67/67
f 76/76/76 67/67/67 73/73/73
f 70/70/70 77/77/77 71/71/71
f 75/75/75 77/77/77 70/70/70
f 78/78/78 72/72/72 69/69/69
f 78/78/78 69/69/69 76/76/76
f 72/72/72 79/79/79 74/74/74
f 79/79/79 72/72/72 78/78/78
f 73/73/73 71/71/71 80/80/80
f 77/77/77 80/80/80 71/71/71
f 74/74/74 81/81/81 75/75/75
f 79/79/79 81/81/81 74/74/74
f 76/76/76 73/73/73 82/82/82
f 82/82/82 73/73/73 80/80/80
f 83/83/83 78/78/78 76/76/76
f 83/83/83 76/76/76 82/82/82
f 75/75/75 84/84/84 77/77/77
f 81/81/81 84/84/84 75/75/75
f 85/85/85 79/79/79 78/78/78
f 85/85/85 78/78/78 83/83/83
f 77/77/77 86/86/86 80/80/80
f 84/84/84 86/86/86 77/77/77
f 82/82/82 80/80/80 87/87/87
f 86/86/86 87/87/87 80/80/80
f 79/79/79 88/88/88 81/81/81
f 79/79/79 85/85/85 88/88/88
f 83/83/83 82/82/82 89/89/89
f 89/89/89 82/82/82 87/87/87
f 81/81/81 90/90/90 84/84/84
f 88/88/88 90/90/90 81/81/81
f 86/86/86 84/84/84 91/91/91
f 90/90/90 91/91/91 84/84/84
f 92/92/92 85/85/85 83/83/83
f 92/92/92 83/83/83 89/89/89
f 87/87/87 86/86/86 93/93/93
f 93/93/93 86/86/86 91/91/91
f 85/85/85 94/94/94 88/88/88
f 85/85/85 92/92/92 94/94/94
f 88/88/88 95/95/95 90/90/90
f 88/88/88 94/94/94 95/95/95
f 89/89/89 87/87/87 96/96/96
f 96/96/96 87/87/87 93/93/93
f 90/90/90 97/97/97 91/91/91
f 95/95/95 97/97/97 90/90/90
f 92/92/92 89/89/89 98/98/98
f 98/98/98 89/89/89 96/96/96
f 94/94/94 99/99/99 95/95/95
f 95/95/95 99/99/99 97/97/97
f 92/92/92 100/100/100 94/94/94
f 100/100/100 92/92/92 98/98/98
f 94/94/94 100/100/100 99/99/99
f 93/93/93 91/91/91 101/101/101
f 97/97/97 101/101/101 91/91/91
f 96/96/96 93/93/93 102/102/102
f 102/102/102 93/93/93 101/101/101
f 97/97/97 103/103/103 101/101/101
f 99/99/99 103/103/103 97/97/97
f 103/103/103 102/102/102 101/101/101
f 98/98/98 96/96/96 104/104/104
f 104/104/104 96/96/96 102/102/102
f 105/105/105 98/98/98 104/104/104
f 105/105/105 104/104/104 102/102/102
f 100/100/100 98/98/98 105/105/105
f 103/103/103 105/105/105 102/102/102
f 100/100/100 106/106/106 99/99/99
f 106/106/106 100/100/100 105/105/105
f 106/106/106 105/105/105 103/103/103
f 99/99/99 106/106/106 103/103/103
