g EyebrowAR
v 0.06583083 0.02816594 0.1189811
v 0.1239304 0.04939994 0.1063609
v 0.1305969 0.02653788 0.1180553
v 0.07258251 0.05577387 0.1012054
v -0.01294939 0.02995895 0.1025887
v 0.1488142 0.0539117 0.07807195
v 0.1718838 0.02697948 0.08474916
v -0.006937265 0.05842878 0.08367974
v -0.09227762 0.03129438 0.08677626
v 0.09047525 0.06569123 0.06093472
v 0.1541719 0.0499852 0.04363255
v 0.1708197 0.02730934 0.03845042
v 0.1059951 0.05642296 0.01972768
v 0.1142844 0.02910766 0.001840249
v 0.01724428 0.05890763 -0.004384696
v 0.02181457 0.03064528 -0.02400661
v 0.005406231 0.06867601 0.03977521
v -0.07450725 0.05903532 -0.01913837
v -0.07411353 0.03167213 -0.03868046
v -0.08170053 0.06852704 0.02436712
v -0.1305584 0.05424689 -0.01729217
v -0.1440884 0.03189027 -0.02872586
v -0.1437053 0.05872141 0.01617892
v -0.1695734 0.03259258 0.01310369
v -0.08738279 0.05876398 0.06797904
v -0.150159 0.03174663 0.06026435
v -0.1365918 0.05410856 0.05208147
v -0.1538514 -0.005725458 0.06188177
v -0.150159 0.03174663 0.06026435
v -0.09227762 0.03129438 0.08677626
v -0.09416106 -0.006864041 0.08921304
v -0.01294939 0.02995895 0.1025887
v -0.1742501 -0.005299821 0.01263548
v -0.1695734 0.03259258 0.01310369
v -0.01467855 -0.00843358 0.1048605
v 0.06583083 0.02816594 0.1189811
v -0.1478233 -0.005581811 -0.03117327
v -0.1440884 0.03189027 -0.02872586
v 0.06429321 -0.01001908 0.1209709
v 0.1305969 0.02653788 0.1180553
v -0.07528403 -0.006470323 -0.04175037
v -0.07411353 0.03167213 -0.03868046
v 0.1311928 -0.01103529 0.1197206
v 0.1718838 0.02697948 0.08474916
v 0.02159111 -0.007715315 -0.02724145
v 0.02181457 0.03064528 -0.02400661
v 0.174427 -0.01101933 0.08488217
v 0.1708197 0.02730934 0.03845042
v 0.1149388 -0.009040117 -0.001261592
v 0.1142844 0.02910766 0.001840249
v 0.1735278 -0.01022126 0.03664145
v -0.07615659 -0.04465003 -0.03919655
v 0.01986195 -0.04610252 -0.02496961
v 0.1124435 -0.04720917 0.0004409701
v 0.1690852 -0.04770398 0.03677447
v 0.17016 -0.04890108 0.08294553
v 0.1288625 -0.04848076 0.1163794
v -0.1461687 -0.04313901 -0.02892804
v 0.06399526 -0.0481509 0.1175818
v -0.1717016 -0.04329863 0.01300792
v -0.01489669 -0.04679418 0.1016257
v -0.1522394 -0.04327735 0.06005685
v -0.09432068 -0.04502778 0.08626017
v 0.1211265 -0.07072566 0.1037911
v 0.06942215 -0.075413 0.09882182
v 0.1458294 -0.07498736 0.07523084
v -0.01033172 -0.0750512 0.0820038
v -0.09089431 -0.07243353 0.06706923
v -0.1398959 -0.06602769 0.05163454
v 0.08685201 -0.0847185 0.05819468
v 0.1513681 -0.07014041 0.04106277
v 0.1028347 -0.0747639 0.01734942
v 0.001506329 -0.08482491 0.03784388
v 0.01384982 -0.07457236 -0.006060645
v -0.0857228 -0.08189333 0.02333495
v -0.07801345 -0.07216751 -0.02004817
v -0.14727 -0.07019362 0.01577988
v -0.1338624 -0.06589467 -0.01773909
vt 0.1316739 0.9835036
vt 0.1308404 0.9835036
vt 0.1316739 0.9835036
vt 0.1308404 0.9835036
vt 0.1316739 0.9835036
vt 0.1308404 0.9835036
vt 0.1316739 0.9835036
vt 0.1308404 0.9835036
vt 0.1316739 0.9835036
vt 0.1308404 0.9835036
vt 0.1316739 0.9835036
vt 0.1316739 0.9835036
vt 0.1316739 0.9835036
vt 0.1316739 0.9835036
vt 0.1308404 0.9835036
vt 0.1316739 0.9835036
vt 0.1308404 0.9835036
vt 0.1308404 0.9835036
vt 0.1316739 0.9835036
vt 0.1308404 0.9835036
vt 0.1308404 0.9835036
vt 0.1316739 0.9835036
vt 0.1308404 0.9835036
vt 0.1316739 0.9835036
vt 0.1308404 0.9835036
vt 0.1316739 0.9835036
vt 0.1308404 0.9835036
vt 0.1625131 0.9835036
vt 0.1625131 0.9835036
vt 0.1625131 0.9835036
vt 0.1625131 0.9835036
vt 0.1625131 0.9835036
vt 0.1625131 0.9835036
vt 0.1625131 0.9835036
vt 0.1625131 0.9835036
vt 0.1625131 0.9835036
vt 0.1625131 0.9835036
vt 0.1625131 0.9835036
vt 0.1625131 0.9835036
vt 0.1625131 0.9835036
vt 0.1625131 0.9835036
vt 0.1625131 0.9835036
vt 0.1625131 0.9835036
vt 0.1625131 0.9835036
vt 0.1625131 0.9835036
vt 0.1625131 0.9835036
vt 0.1625131 0.9835036
vt 0.1625131 0.9835036
vt 0.1625131 0.9835036
vt 0.1625131 0.9835036
vt 0.1625131 0.9835036
vt 0.1625131 0.9835036
vt 0.1625131 0.9835036
vt 0.1625131 0.9835036
vt 0.1625131 0.9835036
vt 0.1625131 0.9835036
vt 0.1625131 0.9835036
vt 0.1625131 0.9835036
vt 0.1625131 0.9835036
vt 0.1625131 0.9835036
vt 0.1625131 0.9835036
vt 0.1625131 0.9835036
vt 0.1625131 0.9835036
vt 0.1625131 0.9835036
vt 0.1625131 0.9835036
vt 0.1625131 0.9835036
vt 0.1625131 0.9835036
vt 0.1625131 0.9835036
vt 0.1625131 0.9835036
vt 0.1625131 0.9835036
vt 0.1625131 0.9835036
vt 0.1625131 0.9835036
vt 0.1625131 0.9835036
vt 0.1625131 0.9835036
vt 0.1625131 0.9835036
vt 0.1625131 0.9835036
vt 0.1625131 0.9835036
vt 0.1625131 0.9835036
vn -0.09020132 0.3019332 0.9490522
vn 0.2234756 0.7489228 0.6238376
vn 0.3332626 0.2940913 0.8957937
vn -0.01962394 0.8116582 0.5838029
vn -0.1843043 0.3333009 0.924631
vn 0.490101 0.8430259 0.2216041
vn 0.8508295 0.3333009 0.4062016
vn -0.09804314 0.827342 0.5530758
vn -0.2784074 0.3254589 0.9036403
vn 0.09800488 0.9920223 0.07928897
vn 0.5371525 0.7802904 -0.3203342
vn 0.8273037 0.3489847 -0.4402025
vn 0.2626852 0.827342 -0.4964894
vn 0.3881561 0.3254589 -0.8622131
vn 0.1293726 0.8351839 -0.5345377
vn 0.1999499 0.3411428 -0.9184996
vn 0.01174372 0.9998643 0.01155484
vn -0.003940165 0.827342 -0.5616848
vn 0.01174372 0.3254589 -0.9454832
vn -0.07432142 0.9972343 0
vn -0.3019332 0.7881324 -0.5363615
vn -0.5136651 0.3646685 -0.776637
vn -0.4979813 0.8665516 -0.0332121
vn -0.9136031 0.3881944 -0.120973
vn -0.1843043 0.8195 0.542634
vn -0.6783455 0.3568266 0.6422789
vn -0.4352458 0.7802904 0.449119
vn -0.7253971 0.01962394 0.6880509
vn -0.6783455 0.3568266 0.6422789
vn -0.2784074 0.3254589 0.9036403
vn -0.3097751 0.003940165 0.9508017
vn -0.1843043 0.3333009 0.924631
vn -0.999623 0.02745925 0
vn -0.9136031 0.3881944 -0.120973
vn -0.1999882 -0.003901839 0.9797906
vn -0.09020132 0.3019332 0.9490522
vn -0.5607167 0.01962394 -0.8277752
vn -0.5136651 0.3646685 -0.776637
vn -0.09020132 -0.01174372 0.9958543
vn 0.3332626 0.2940913 0.8957937
vn 0.003901839 0.003940165 -0.9999846
vn 0.01174372 0.3254589 -0.9454832
vn 0.3411045 -0.02742755 0.9396252
vn 0.8508295 0.3333009 0.4062016
vn 0.2077918 0.003940165 -0.9781651
vn 0.1999499 0.3411428 -0.9184996
vn 0.9057229 -0.02742755 0.4229819
vn 0.8273037 0.3489847 -0.4402025
vn 0.4116818 0.003940165 -0.9113192
vn 0.3881561 0.3254589 -0.8622131
vn 0.8743553 -0.01174372 -0.4851443
vn -0.003940165 -0.3175787 -0.9482237
vn 0.192108 -0.3254207 -0.9258488
vn 0.3803141 -0.3175787 -0.8686224
vn 0.8116199 -0.3724722 -0.4500419
vn 0.8429875 -0.3881561 0.3724338
vn 0.3254207 -0.3489464 0.8788275
vn -0.5371909 -0.3332626 -0.7748303
vn -0.09804314 -0.3332626 0.9377226
vn -0.937129 -0.3489464 -0.005074367
vn -0.1921462 -0.3411045 0.920178
vn -0.6861874 -0.3254207 0.6505753
vn -0.2862493 -0.3254207 0.9012007
vn 0.1999499 -0.7724103 0.6028287
vn -0.04314977 -0.8273037 0.5600952
vn 0.4587333 -0.8665133 0.1967701
vn -0.121569 -0.8351457 0.5364258
vn -0.2078301 -0.8194618 0.5341245
vn -0.4587716 -0.7645683 0.4527293
vn 0.06650127 -0.9977863 0
vn 0.5057849 -0.7880941 -0.3508409
vn 0.2391595 -0.8194618 -0.5208503
vn -0.01178199 -0.999826 -0.01446005
vn 0.1058468 -0.8273037 -0.5516929
vn -0.09804314 -0.9919841 -0.0797193
vn -0.03530782 -0.8194618 -0.5720452
vn -0.5293489 -0.8429875 -0.09571714
vn -0.3333009 -0.7724103 -0.5406412
g EyebrowAR_0
f 3/3/3 2/2/2 1/1/1
f 2/2/2 4/4/4 1/1/1
f 1/1/1 4/4/4 5/5/5
f 6/6/6 2/2/2 3/3/3
f 7/7/7 6/6/6 3/3/3
f 4/4/4 8/8/8 5/5/5
f 5/5/5 8/8/8 9/9/9
f 4/4/4 2/2/2 10/10/10
f 2/2/2 6/6/6 10/10/10
f 11/11/11 6/6/6 7/7/7
f 12/12/12 11/11/11 7/7/7
f 6/6/6 11/11/11 13/13/13
f 13/13/13 11/11/11 12/12/12
f 10/10/10 6/6/6 13/13/13
f 14/14/14 13/13/13 12/12/12
f 15/15/15 13/13/13 14/14/14
f 10/10/10 13/13/13 15/15/15
f 16/16/16 15/15/15 14/14/14
f 4/4/4 10/10/10 17/17/17
f 17/17/17 10/10/10 15/15/15
f 8/8/8 4/4/4 17/17/17
f 18/18/18 15/15/15 16/16/16
f 17/17/17 15/15/15 18/18/18
f 19/19/19 18/18/18 16/16/16
f 8/8/8 17/17/17 20/20/20
f 20/20/20 17/17/17 18/18/18
f 21/21/21 18/18/18 19/19/19
f 20/20/20 18/18/18 21/21/21
f 22/22/22 21/21/21 19/19/19
f 23/23/23 21/21/21 22/22/22
f 23/23/23 20/20/20 21/21/21
f 24/24/24 23/23/23 22/22/22
f 25/25/25 8/8/8 20/20/20
f 25/25/25 20/20/20 23/23/23
f 8/8/8 25/25/25 9/9/9
f 9/9/9 25/25/25 26/26/26
f 27/27/27 23/23/23 24/24/24
f 26/26/26 27/27/27 24/24/24
f 27/27/27 25/25/25 23/23/23
f 25/25/25 27/27/27 26/26/26
f 30/30/30 29/29/29 28/28/28
f 31/31/31 30/30/30 28/28/28
f 32/32/32 30/30/30 31/31/31
f 28/28/28 29/29/29 33/33/33
f 29/29/29 34/34/34 33/33/33
f 35/35/35 32/32/32 31/31/31
f 36/36/36 32/32/32 35/35/35
f 33/33/33 34/34/34 37/37/37
f 34/34/34 38/38/38 37/37/37
f 39/39/39 36/36/36 35/35/35
f 40/40/40 36/36/36 39/39/39
f 37/37/37 38/38/38 41/41/41
f 38/38/38 42/42/42 41/41/41
f 43/43/43 40/40/40 39/39/39
f 44/44/44 40/40/40 43/43/43
f 41/41/41 42/42/42 45/45/45
f 42/42/42 46/46/46 45/45/45
f 47/47/47 44/44/44 43/43/43
f 48/48/48 44/44/44 47/47/47
f 45/45/45 46/46/46 49/49/49
f 46/46/46 50/50/50 49/49/49
f 50/50/50 48/48/48 51/51/51
f 51/51/51 48/48/48 47/47/47
f 49/49/49 50/50/50 51/51/51
f 37/37/37 41/41/41 52/52/52
f 41/41/41 45/45/45 53/53/53
f 52/52/52 41/41/41 53/53/53
f 45/45/45 49/49/49 54/54/54
f 53/53/53 45/45/45 54/54/54
f 49/49/49 51/51/51 55/55/55
f 54/54/54 49/49/49 55/55/55
f 51/51/51 47/47/47 56/56/56
f 55/55/55 51/51/51 56/56/56
f 47/47/47 43/43/43 57/57/57
f 56/56/56 47/47/47 57/57/57
f 58/58/58 37/37/37 52/52/52
f 33/33/33 37/37/37 58/58/58
f 57/57/57 43/43/43 59/59/59
f 43/43/43 39/39/39 59/59/59
f 60/60/60 33/33/33 58/58/58
f 28/28/28 33/33/33 60/60/60
f 59/59/59 39/39/39 61/61/61
f 39/39/39 35/35/35 61/61/61
f 62/62/62 28/28/28 60/60/60
f 31/31/31 28/28/28 62/62/62
f 35/35/35 31/31/31 63/63/63
f 61/61/61 35/35/35 63/63/63
f 63/63/63 31/31/31 62/62/62
f 56/56/56 57/57/57 64/64/64
f 57/57/57 59/59/59 65/65/65
f 64/64/64 57/57/57 65/65/65
f 66/66/66 56/56/56 64/64/64
f 64/64/64 65/65/65 66/66/66
f 55/55/55 56/56/56 66/66/66
f 59/59/59 61/61/61 67/67/67
f 65/65/65 59/59/59 67/67/67
f 61/61/61 63/63/63 68/68/68
f 67/67/67 61/61/61 68/68/68
f 63/63/63 62/62/62 69/69/69
f 68/68/68 63/63/63 69/69/69
f 65/65/65 70/70/70 66/66/66
f 65/65/65 67/67/67 70/70/70
f 71/71/71 55/55/55 66/66/66
f 66/66/66 70/70/70 71/71/71
f 54/54/54 55/55/55 71/71/71
f 72/72/72 54/54/54 71/71/71
f 70/70/70 72/72/72 71/71/71
f 53/53/53 54/54/54 72/72/72
f 67/67/67 73/73/73 70/70/70
f 67/67/67 68/68/68 73/73/73
f 70/70/70 73/73/73 72/72/72
f 74/74/74 53/53/53 72/72/72
f 73/73/73 74/74/74 72/72/72
f 52/52/52 53/53/53 74/74/74
f 68/68/68 75/75/75 73/73/73
f 68/68/68 69/69/69 75/75/75
f 73/73/73 75/75/75 74/74/74
f 76/76/76 52/52/52 74/74/74
f 75/75/75 76/76/76 74/74/74
f 58/58/58 52/52/52 76/76/76
f 69/69/69 77/77/77 75/75/75
f 75/75/75 77/77/77 76/76/76
f 69/69/69 62/62/62 77/77/77
f 62/62/62 60/60/60 77/77/77
f 78/78/78 58/58/58 76/76/76
f 77/77/77 78/78/78 76/76/76
f 60/60/60 58/58/58 78/78/78
f 77/77/77 60/60/60 78/78/78
