g GlassRim
v -2.44379E-06 1.075879 -0.6329399
v -2.44379E-06 1.075879 -0.583867
v -0.1509501 1.075879 -0.5634764
v -0.1636225 1.075879 -0.6108284
v -0.2917024 1.075879 -0.5051728
v -0.3162129 1.075879 -0.5476228
v -0.4128464 1.075879 -0.4128677
v -0.4475522 1.075879 -0.4475473
v -0.5051777 1.075879 -0.2916976
v -0.5476277 1.075879 -0.316208
v -0.5634812 1.075879 -0.1509452
v -0.6108333 1.075879 -0.1636437
v -0.5838718 1.075879 2.44379E-06
v -0.6329448 1.075879 2.44379E-06
v -0.5634812 1.075879 0.1509501
v -0.6108333 1.075879 0.1636225
v -0.5051777 1.075879 0.2917024
v -0.5476277 1.075879 0.3162129
v -0.4128464 1.075879 0.4128464
v -0.4475522 1.075879 0.4475522
v -0.2917024 1.075879 0.5051777
v -0.3162129 1.075879 0.5476277
v -0.1509501 1.075879 0.5634812
v -0.1636225 1.075879 0.6108333
v -2.44379E-06 1.075879 0.5838718
v -2.44379E-06 1.075879 0.6329448
v 0.1509452 1.075879 0.5634812
v 0.1636437 1.075879 0.6108333
v 0.2916976 1.075879 0.5051777
v 0.316208 1.075879 0.5476277
v 0.4128677 1.075879 0.4128464
v 0.4475473 1.075879 0.4475522
v 0.5051728 1.075879 0.2917024
v 0.5476228 1.075879 0.3162129
v 0.5634764 1.075879 0.1509501
v 0.6108284 1.075879 0.1636225
v 0.583867 1.075879 2.44379E-06
v 0.6329399 1.075879 2.44379E-06
v 0.5634764 1.075879 -0.1509452
v 0.6108284 1.075879 -0.1636437
v 0.5051728 1.075879 -0.2916976
v 0.5476228 1.075879 -0.316208
v 0.4128677 1.075879 -0.4128677
v 0.4475473 1.075879 -0.4475473
v 0.2916976 1.075879 -0.5051728
v 0.316208 1.075879 -0.5476228
v 0.1509452 1.075879 -0.5634764
v 0.1636437 1.075879 -0.6108284
v -2.44379E-06 1.075879 -0.583867
v -2.44379E-06 1.075879 -0.6329399
vt 0 0
vt 0 1
vt 0 0.9579667
vt 0 0.04203324
vt 0 0.9169111
vt 0 0.08308896
vt 0 0.8748778
vt 0 0.1251222
vt 0 0.8328446
vt 0 0.1671554
vt 0 0.7917889
vt 0 0.2082111
vt 0 0.7497556
vt 0 0.2502444
vt 0 0.7086999
vt 0 0.2913001
vt 0 0.6666667
vt 0 0.3333333
vt 0 0.6246334
vt 0 0.3753666
vt 0 0.5835777
vt 0 0.4164223
vt 0 0.5415445
vt 0 0.4584555
vt 0 0.5004888
vt 0 0.5004888
vt 0 0.4584555
vt 0 0.5415445
vt 0 0.4164223
vt 0 0.5835777
vt 0 0.3753666
vt 0 0.6246334
vt 0 0.3333333
vt 0 0.6666667
vt 0 0.2913001
vt 0 0.7086999
vt 0 0.2502444
vt 0 0.7497556
vt 0 0.2082111
vt 0 0.7917889
vt 0 0.1671554
vt 0 0.8328446
vt 0 0.1251222
vt 0 0.8748778
vt 0 0.08308896
vt 0 0.9169111
vt 0 0.04203324
vt 0 0.9579667
vt 0 0
vt 0 1
vn 0 1 0
vn 0 1 0
vn 0 1 0
vn 0 1 0
vn 0 1 0
vn 0 1 0
vn 0 1 0
vn 0 1 0
vn 0 1 0
vn 0 1 0
vn 0 1 0
vn 0 1 0
vn 0 1 0
vn 0 1 0
vn 0 1 0
vn 0 1 0
vn 0 1 0
vn 0 1 0
vn 0 1 0
vn 0 1 0
vn 0 1 0
vn 0 1 0
vn 0 1 0
vn 0 1 0
vn 0 1 0
vn 0 1 0
vn 0 1 0
vn 0 1 0
vn 0 1 0
vn 0 1 0
vn 0 1 0
vn 0 1 0
vn 0 1 0
vn 0 1 0
vn 0 1 0
vn 0 1 0
vn 0 1 0
vn 0 1 0
vn 0 1 0
vn 0 1 0
vn 0 1 0
vn 0 1 0
vn 0 1 0
vn 0 1 0
vn 0 1 0
vn 0 1 0
vn 0 1 0
vn 0 1 0
vn 0 1 0
vn 0 1 0
g GlassRim_0
f 3/3/3 2/2/2 1/1/1
f 4/4/4 3/3/3 1/1/1
f 5/5/5 3/3/3 4/4/4
f 6/6/6 5/5/5 4/4/4
f 7/7/7 5/5/5 6/6/6
f 8/8/8 7/7/7 6/6/6
f 9/9/9 7/7/7 8/8/8
f 10/10/10 9/9/9 8/8/8
f 11/11/11 9/9/9 10/10/10
f 12/12/12 11/11/11 10/10/10
f 13/13/13 11/11/11 12/12/12
f 14/14/14 13/13/13 12/12/12
f 15/15/15 13/13/13 14/14/14
f 16/16/16 15/15/15 14/14/14
f 17/17/17 15/15/15 16/16/16
f 18/18/18 17/17/17 16/16/16
f 19/19/19 17/17/17 18/18/18
f 20/20/20 19/19/19 18/18/18
f 21/21/21 19/19/19 20/20/20
f 22/22/22 21/21/21 20/20/20
f 23/23/23 21/21/21 22/22/22
f 24/24/24 23/23/23 22/22/22
f 25/25/25 23/23/23 24/24/24
f 26/26/26 25/25/25 24/24/24
f 27/27/27 25/25/25 26/26/26
f 28/28/28 27/27/27 26/26/26
f 29/29/29 27/27/27 28/28/28
f 30/30/30 29/29/29 28/28/28
f 31/31/31 29/29/29 30/30/30
f 32/32/32 31/31/31 30/30/30
f 33/33/33 31/31/31 32/32/32
f 34/34/34 33/33/33 32/32/32
f 35/35/35 33/33/33 34/34/34
f 36/36/36 35/35/35 34/34/34
f 37/37/37 35/35/35 36/36/36
f 38/38/38 37/37/37 36/36/36
f 39/39/39 37/37/37 38/38/38
f 40/40/40 39/39/39 38/38/38
f 41/41/41 39/39/39 40/40/40
f 42/42/42 41/41/41 40/40/40
f 43/43/43 41/41/41 42/42/42
f 44/44/44 43/43/43 42/42/42
f 45/45/45 43/43/43 44/44/44
f 46/46/46 45/45/45 44/44/44
f 47/47/47 45/45/45 46/46/46
f 48/48/48 47/47/47 46/46/46
f 49/49/49 47/47/47 48/48/48
f 50/50/50 49/49/49 48/48/48
