g GlassRim
v 0.4789225 4.897768 -2.211546
v 0.8594791 4.897768 -1.920564
v 0.4518417 4.897768 -2.12822
v 0.9110093 4.897768 -1.991391
v 1.183023 4.897768 -1.59702
v 1.25385 4.897768 -1.64855
v 1.390789 4.897768 -1.189382
v 1.474005 4.897768 -1.216463
v 1.462274 4.897768 -0.7375606
v 1.549875 4.897768 -0.7375606
v 1.390789 4.897768 -0.2856293
v 1.474005 4.897768 -0.2585485
v 1.183023 4.897768 0.1220081
v 1.25385 4.897768 0.1735384
v 0.8594791 4.897768 0.4455523
v 0.9110093 4.897768 0.5163791
v 2.002716E-05 4.897768 -2.287416
v 0.4789225 4.897768 -2.211546
v 0.4518417 4.897768 -2.12822
v 2.002716E-05 4.897768 -2.199814
v -0.4789922 4.897768 -2.211546
v -0.4519114 4.897768 -2.12822
v -0.9109695 4.897768 -1.991391
v -0.8595488 4.897768 -1.920564
v -1.25392 4.897768 -1.64855
v -0.9109695 4.897768 -1.991391
v -0.8595488 4.897768 -1.920564
v -1.182984 4.897768 -1.59702
v -1.474075 4.897768 -1.216463
v -1.390749 4.897768 -1.189382
v -1.549945 4.897768 -0.7375606
v -1.462343 4.897768 -0.7375606
v -1.474075 4.897768 -0.2585485
v -1.390749 4.897768 -0.2856293
v -1.25392 4.897768 0.1735384
v -1.182984 4.897768 0.1220081
v -0.9109695 4.897768 0.5163791
v -0.8595488 4.897768 0.4455523
v -0.4789922 4.897768 0.7365341
v -0.9109695 4.897768 0.5163791
v -0.8595488 4.897768 0.4455523
v -0.4519114 4.897768 0.6532085
v 2.002716E-05 4.897768 0.8124042
v 2.002716E-05 4.897768 0.7248027
v 0.4789225 4.897768 0.7365341
v 0.4518417 4.897768 0.6532085
v 0.9110093 4.897768 0.5163791
v 0.8594791 4.897768 0.4455523
vt 0.5791618 0.5836567
vt 0.6415921 0.5836567
vt 0.5746667 0.5836567
vt 0.6500826 0.5836567
vt 0.6950325 0.5836567
vt 0.7065197 0.5836567
vt 0.7289946 0.5836567
vt 0.742979 0.5836567
vt 0.7409812 0.5836567
vt 0.7554651 0.5836567
vt 0.7289946 0.5836567
vt 0.742979 0.5836567
vt 0.6950325 0.5836567
vt 0.7065197 0.5836567
vt 0.6415921 0.5836567
vt 0.6500826 0.5836567
vt 0.4997503 0.5836567
vt 0.5791618 0.5836567
vt 0.5746667 0.5836567
vt 0.4997503 0.5836567
vt 0.4208383 0.5836567
vt 0.4253333 0.5836567
vt 0.3499174 0.5836567
vt 0.358408 0.5836567
vt 0.2934804 0.5836567
vt 0.3499174 0.5836567
vt 0.358408 0.5836567
vt 0.3049676 0.5836567
vt 0.257021 0.5836567
vt 0.2710055 0.5836567
vt 0.244535 0.5836567
vt 0.2590188 0.5836567
vt 0.257021 0.5836567
vt 0.2710055 0.5836567
vt 0.2934804 0.5836567
vt 0.3049676 0.5836567
vt 0.3499174 0.5836567
vt 0.358408 0.5836567
vt 0.4208383 0.5836567
vt 0.3499174 0.5836567
vt 0.358408 0.5836567
vt 0.4253333 0.5836567
vt 0.4997503 0.5836567
vt 0.4997503 0.5836567
vt 0.5791618 0.5836567
vt 0.5746667 0.5836567
vt 0.6500826 0.5836567
vt 0.6415921 0.5836567
vn 2.058096E-06 0.9999999 0.000345267
vn 2.058096E-06 0.9999999 0.000345267
vn 2.058096E-06 0.9999999 0.000345267
vn 2.058096E-06 0.9999999 0.000345267
vn 2.058096E-06 0.9999999 -0.000345267
vn 2.058096E-06 0.9999999 -0.000345267
vn 2.058096E-06 0.9999999 -0.000345267
vn 2.058096E-06 0.9999999 -0.000345267
vn 2.058096E-06 0.9999999 -0.000345267
vn 2.058096E-06 0.9999999 -0.000345267
vn 2.058096E-06 0.9999999 -0.000345267
vn 2.058096E-06 0.9999999 -0.000345267
vn 2.058096E-06 0.9999999 -0.000345267
vn 2.058096E-06 0.9999999 -0.000345267
vn 2.058096E-06 0.9999999 -0.000345267
vn 2.058096E-06 0.9999999 -0.000345267
vn 2.058096E-06 0.9999999 0.000345267
vn 2.058096E-06 0.9999999 0.000345267
vn 2.058096E-06 0.9999999 0.000345267
vn 2.058096E-06 0.9999999 0.000345267
vn 2.058096E-06 0.9999999 0.000345267
vn 2.058096E-06 0.9999999 0.000345267
vn 2.058096E-06 0.9999999 0.000345267
vn 2.058096E-06 0.9999999 0.000345267
vn 2.058096E-06 0.9999999 0.000345267
vn 2.058096E-06 0.9999999 0.000345267
vn 2.058096E-06 0.9999999 0.000345267
vn 2.058096E-06 0.9999999 0.000345267
vn 2.058096E-06 0.9999999 -0.000345267
vn 2.058096E-06 0.9999999 -0.000345267
vn 2.058096E-06 0.9999999 -0.000345267
vn 2.058096E-06 0.9999999 -0.000345267
vn 2.058096E-06 0.9999999 -0.000345267
vn 2.058096E-06 0.9999999 -0.000345267
vn 2.058096E-06 0.9999999 -0.000345267
vn 2.058096E-06 0.9999999 -0.000345267
vn 2.058096E-06 0.9999999 -0.000345267
vn 2.058096E-06 0.9999999 -0.000345267
vn 2.058096E-06 0.9999999 0.000345267
vn 2.058096E-06 0.9999999 -0.000345267
vn 2.058096E-06 0.9999999 -0.000345267
vn 2.058096E-06 0.9999999 0.000345267
vn 2.058096E-06 0.9999999 -0.000345267
vn 2.058096E-06 0.9999999 -0.000345267
vn 2.058096E-06 0.9999999 -0.000345267
vn 2.058096E-06 0.9999999 -0.000345267
vn 2.058096E-06 0.9999999 -0.000345267
vn 2.058096E-06 0.9999999 -0.000345267
g GlassRim_0
f 3/3/3 2/2/2 1/1/1
f 2/2/2 4/4/4 1/1/1
f 2/2/2 5/5/5 4/4/4
f 5/5/5 6/6/6 4/4/4
f 5/5/5 7/7/7 6/6/6
f 7/7/7 8/8/8 6/6/6
f 7/7/7 9/9/9 8/8/8
f 9/9/9 10/10/10 8/8/8
f 9/9/9 11/11/11 10/10/10
f 11/11/11 12/12/12 10/10/10
f 11/11/11 13/13/13 12/12/12
f 13/13/13 14/14/14 12/12/12
f 13/13/13 15/15/15 14/14/14
f 15/15/15 16/16/16 14/14/14
f 19/19/19 18/18/18 17/17/17
f 20/20/20 19/19/19 17/17/17
f 20/20/20 17/17/17 21/21/21
f 22/22/22 20/20/20 21/21/21
f 22/22/22 21/21/21 23/23/23
f 24/24/24 22/22/22 23/23/23
f 27/27/27 26/26/26 25/25/25
f 28/28/28 27/27/27 25/25/25
f 28/28/28 25/25/25 29/29/29
f 30/30/30 28/28/28 29/29/29
f 30/30/30 29/29/29 31/31/31
f 32/32/32 30/30/30 31/31/31
f 32/32/32 31/31/31 33/33/33
f 34/34/34 32/32/32 33/33/33
f 34/34/34 33/33/33 35/35/35
f 36/36/36 34/34/34 35/35/35
f 36/36/36 35/35/35 37/37/37
f 38/38/38 36/36/36 37/37/37
f 41/41/41 40/40/40 39/39/39
f 42/42/42 41/41/41 39/39/39
f 42/42/42 39/39/39 43/43/43
f 44/44/44 42/42/42 43/43/43
f 44/44/44 43/43/43 45/45/45
f 46/46/46 44/44/44 45/45/45
f 46/46/46 45/45/45 47/47/47
f 48/48/48 46/46/46 47/47/47
