g GlassRimCocktail03
v 9.536743E-09 2.154986 -0.6298891
v 0 2.154986 -0.5977042
v -0.1545237 2.154986 -0.5768241
v -0.1628443 2.154986 -0.6078846
v -0.2986118 2.154986 -0.5171408
v -0.3146912 2.154986 -0.5449876
v -0.422641 2.154986 -0.4226407
v -0.4453992 2.154986 -0.4453988
v -0.5171412 2.154986 -0.2986114
v -0.5449879 2.154986 -0.3146909
v -0.5768244 2.154986 -0.1545233
v -0.6078849 2.154986 -0.162844
v -0.5977046 2.154986 3.558601E-07
v -0.6298895 2.154986 3.510918E-07
v -0.5768244 2.154986 0.154524
v -0.607885 2.154986 0.1628447
v -0.5171412 2.154986 0.2986121
v -0.5449879 2.154986 0.3146916
v -0.422641 2.154986 0.4226413
v -0.4453992 2.154986 0.4453996
v -0.2986118 2.154986 0.5171415
v -0.3146913 2.154986 0.5449883
v -0.1545237 2.154986 0.5768248
v -0.1628443 2.154986 0.6078854
v 4.768371E-09 2.154986 0.597705
v 0 2.154986 0.6298898
v 0.1545236 2.154986 0.5768248
v 0.1628443 2.154986 0.6078854
v 0.2986118 2.154986 0.5171415
v 0.3146912 2.154986 0.5449883
v 0.422641 2.154986 0.4226414
v 0.4453992 2.154986 0.4453995
v 0.5171412 2.154986 0.2986121
v 0.544988 2.154986 0.3146916
v 0.5768244 2.154986 0.154524
v 0.607885 2.154986 0.1628447
v 0.5977046 2.154986 3.463234E-07
v 0.6298895 2.154986 3.510918E-07
v 0.5768245 2.154986 -0.1545233
v 0.6078851 2.154986 -0.162844
v 0.5171412 2.154986 -0.2986114
v 0.544988 2.154986 -0.3146909
v 0.422641 2.154986 -0.4226406
v 0.4453992 2.154986 -0.4453988
v 0.2986118 2.154986 -0.5171408
v 0.3146912 2.154986 -0.5449876
v 0.1545237 2.154986 -0.5768241
v 0.1628443 2.154986 -0.6078846
v 0 2.154986 -0.5977042
v 9.536743E-09 2.154986 -0.6298891
vt 0 0
vt 0 1
vt 0 0.9583073
vt 0 0.04169273
vt 0 0.9166927
vt 0 0.08330727
vt 0 0.875
vt 0 0.125
vt 0 0.8333073
vt 0 0.1666927
vt 0 0.7916927
vt 0 0.2083073
vt 0 0.75
vt 0 0.25
vt 0 0.7083073
vt 0 0.2916927
vt 0 0.6666927
vt 0 0.3333073
vt 0 0.625
vt 0 0.375
vt 0 0.5833073
vt 0 0.4166927
vt 0 0.5416927
vt 0 0.4583073
vt 0 0.5
vt 0 0.5
vt 0 0.4583073
vt 0 0.5416927
vt 0 0.4166927
vt 0 0.5833073
vt 0 0.375
vt 0 0.625
vt 0 0.3333073
vt 0 0.6666927
vt 0 0.2916927
vt 0 0.7083073
vt 0 0.25
vt 0 0.75
vt 0 0.2083073
vt 0 0.7916927
vt 0 0.1666927
vt 0 0.8333073
vt 0 0.125
vt 0 0.875
vt 0 0.08330727
vt 0 0.9166927
vt 0 0.04169273
vt 0 0.9583073
vt 0 0
vt 0 1
vn 0 1 0
vn 0 1 0
vn 0 1 0
vn 0 1 0
vn 0 1 0
vn 0 1 0
vn 0 1 0
vn 0 1 0
vn 2.921433E-06 1 0
vn 2.914829E-06 1 0
vn 0 1 0
vn 0 1 0
vn -5.835329E-06 1 0
vn -5.835328E-06 1 0
vn 0 1 0
vn 0 1 0
vn 2.921431E-06 1 0
vn 2.91483E-06 1 0
vn 1.458829E-06 1 0
vn 1.45883E-06 1 0
vn 1.457315E-06 1 0
vn 1.460616E-06 1 0
vn 7.286583E-07 1 0
vn 7.303092E-07 1 0
vn 0 1 0
vn 0 1 0
vn -7.286584E-07 1 0
vn -7.30309E-07 1 0
vn 0 1 0
vn 0 1 0
vn 0 1 0
vn 0 1 0
vn 0 1 0
vn 0 1 0
vn 2.91463E-06 1 0
vn 2.921237E-06 1 0
vn 0 1 0
vn 0 1 0
vn -2.914635E-06 1 0
vn -2.921232E-06 1 0
vn 0 1 0
vn 0 1 0
vn -1.458831E-06 1 0
vn -1.458832E-06 1 0
vn -1.457318E-06 1 0
vn -1.460618E-06 1 0
vn 0 1 0
vn 0 1 0
vn 0 1 0
vn 0 1 0
g GlassRimCocktail03_0
f 3/3/3 2/2/2 1/1/1
f 4/4/4 3/3/3 1/1/1
f 5/5/5 3/3/3 4/4/4
f 6/6/6 5/5/5 4/4/4
f 7/7/7 5/5/5 6/6/6
f 8/8/8 7/7/7 6/6/6
f 9/9/9 7/7/7 8/8/8
f 10/10/10 9/9/9 8/8/8
f 11/11/11 9/9/9 10/10/10
f 12/12/12 11/11/11 10/10/10
f 13/13/13 11/11/11 12/12/12
f 14/14/14 13/13/13 12/12/12
f 15/15/15 13/13/13 14/14/14
f 16/16/16 15/15/15 14/14/14
f 17/17/17 15/15/15 16/16/16
f 18/18/18 17/17/17 16/16/16
f 19/19/19 17/17/17 18/18/18
f 20/20/20 19/19/19 18/18/18
f 21/21/21 19/19/19 20/20/20
f 22/22/22 21/21/21 20/20/20
f 23/23/23 21/21/21 22/22/22
f 24/24/24 23/23/23 22/22/22
f 25/25/25 23/23/23 24/24/24
f 26/26/26 25/25/25 24/24/24
f 27/27/27 25/25/25 26/26/26
f 28/28/28 27/27/27 26/26/26
f 29/29/29 27/27/27 28/28/28
f 30/30/30 29/29/29 28/28/28
f 31/31/31 29/29/29 30/30/30
f 32/32/32 31/31/31 30/30/30
f 33/33/33 31/31/31 32/32/32
f 34/34/34 33/33/33 32/32/32
f 35/35/35 33/33/33 34/34/34
f 36/36/36 35/35/35 34/34/34
f 37/37/37 35/35/35 36/36/36
f 38/38/38 37/37/37 36/36/36
f 39/39/39 37/37/37 38/38/38
f 40/40/40 39/39/39 38/38/38
f 41/41/41 39/39/39 40/40/40
f 42/42/42 41/41/41 40/40/40
f 43/43/43 41/41/41 42/42/42
f 44/44/44 43/43/43 42/42/42
f 45/45/45 43/43/43 44/44/44
f 46/46/46 45/45/45 44/44/44
f 47/47/47 45/45/45 46/46/46
f 48/48/48 47/47/47 46/46/46
f 49/49/49 47/47/47 48/48/48
f 50/50/50 49/49/49 48/48/48
