g Ground
v -0.9999923 -3.874302E-06 0.8848587
v -0.9999923 -3.874302E-06 -1
v 1 -3.874302E-06 -1
v 1 -3.874302E-06 0.8848587
v -0.9999923 -3.874302E-06 0.9545543
v -0.9999923 -3.874302E-06 0.8848587
v 1 -3.874302E-06 0.8848587
v 1 -3.874302E-06 0.9545543
v -0.9999923 -3.874302E-06 2.954546
v -0.9999923 -3.874302E-06 0.9545543
v 1 -3.874302E-06 0.9545543
v 1 -3.874302E-06 2.954546
vt 0.03204034 0.966919
vt 0.03204034 0.966919
vt 0.03204034 0.966919
vt 0.03204034 0.966919
vt 0.01985035 0.966919
vt 0.01985035 0.966919
vt 0.01985035 0.966919
vt 0.01985035 0.966919
vt 0.007660361 0.9650436
vt 0.007660361 0.9650436
vt 0.007660361 0.9650436
vt 0.007660361 0.9650436
vn 0 1 0
vn 0 1 0
vn 0 1 0
vn 0 1 0
vn 0 1 0
vn 0 1 0
vn 0 1 0
vn 0 1 0
vn 0 1 0
vn 0 1 0
vn 0 1 0
vn 0 1 0
g Ground_0
f 3/3/3 2/2/2 1/1/1
f 4/4/4 3/3/3 1/1/1
f 7/7/7 6/6/6 5/5/5
f 8/8/8 7/7/7 5/5/5
f 11/11/11 10/10/10 9/9/9
f 12/12/12 11/11/11 9/9/9
