g JarBlood
v -0.9425142 3.456449 -3.087521E-05
v -0.9014122 2.902251 -3.087521E-05
v -0.8699062 2.902251 -0.2330558
v -0.9095645 3.456449 -0.243671
v -1.009942 3.798683 -3.087521E-05
v -0.8154714 3.456449 -0.4708363
v -0.7798893 2.902251 -0.4502853
v -0.6373909 2.902251 -0.6373676
v -0.9746146 3.798683 -0.2610799
v -1.081955 4.139388 -3.087521E-05
v -0.8738127 3.798683 -0.5045502
v -0.666434 3.456449 -0.6664108
v -1.044165 4.139388 -0.2796777
v -1.139193 4.426168 -3.087521E-05
v -1.099365 4.426168 -0.294539
v -0.9361451 4.139388 -0.540557
v -0.9856544 4.426168 -0.5690906
v -0.7140751 3.798683 -0.7141367
v -0.765028 4.139388 -0.7650898
v -0.8055357 4.426168 -0.8055124
v -0.5405802 4.139388 -0.9361219
v -0.5691139 4.426168 -0.9856312
v -0.4708595 3.456449 -0.8154483
v -0.4503084 2.902251 -0.7798661
v -0.5045735 3.798683 -0.8737894
v -0.279701 4.139388 -1.044142
v -0.2944773 4.426168 -1.099341
v -0.2436942 3.456449 -0.9095414
v -0.2329941 2.902251 -0.869883
v 3.087521E-05 2.902251 -0.9013889
v -0.2611032 3.798683 -0.9745914
v 3.087521E-05 4.139388 -1.081932
v 3.087521E-05 4.426168 -1.139169
v 3.087521E-05 3.456449 -0.942491
v 3.087521E-05 3.798683 -1.009919
v 0.2796777 4.139388 -1.044142
v 0.294539 4.426168 -1.099341
v 0.243671 3.456449 -0.9095414
v 0.2330558 2.902251 -0.869883
v 0.2610799 3.798683 -0.9745914
v 0.540557 4.139388 -0.9361219
v 0.5690906 4.426168 -0.9856312
v 0.4708363 3.456449 -0.8154483
v 0.4502853 2.902251 -0.7798661
v 0.6373676 2.902251 -0.6373676
v 0.5045502 3.798683 -0.8737894
v 0.7650898 4.139388 -0.7650898
v 0.8055124 4.426168 -0.8055124
v 0.6664108 3.456449 -0.6664108
v 0.7141367 3.798683 -0.7141367
v 0.9361219 4.139388 -0.540557
v 0.9856312 4.426168 -0.5690906
v 0.8154483 3.456449 -0.4708363
v 0.7798661 2.902251 -0.4502853
v 0.8737894 3.798683 -0.5045502
v 1.044142 4.139388 -0.2796777
v 1.099341 4.426168 -0.294539
v 0.9095414 3.456449 -0.243671
v 0.869883 2.902251 -0.2330558
v 0.9013889 2.902251 -3.087521E-05
v 0.9745914 3.798683 -0.2610799
v 1.081932 4.139388 -3.087521E-05
v 1.139169 4.426168 -3.087521E-05
v 0.942491 3.456449 -3.087521E-05
v 1.009919 3.798683 -3.087521E-05
v 1.044142 4.139388 0.279701
v 1.099341 4.426168 0.2944773
v 0.9095414 3.456449 0.2436942
v 0.869883 2.902251 0.2329941
v 0.9745914 3.798683 0.2611032
v 0.9361219 4.139388 0.5405802
v 0.9856312 4.426168 0.5691139
v 0.8154483 3.456449 0.4708595
v 0.7798661 2.902251 0.4503084
v 0.6373676 2.902251 0.6373909
v 0.8737894 3.798683 0.5045735
v 0.7650898 4.139388 0.765028
v 0.8055124 4.426168 0.8055357
v 0.6664108 3.456449 0.666434
v 0.7141367 3.798683 0.7140751
v 0.540557 4.139388 0.9361451
v 0.5690906 4.426168 0.9856544
v 0.4708363 3.456449 0.8154714
v 0.4502853 2.902251 0.7798893
v 0.5045502 3.798683 0.8738127
v 0.2796777 4.139388 1.044165
v 0.294539 4.426168 1.099365
v 0.243671 3.456449 0.9095645
v 0.2330558 2.902251 0.8699062
v 3.087521E-05 2.902251 0.9014122
v 0.2610799 3.798683 0.9746146
v 3.087521E-05 4.139388 1.081955
v 3.087521E-05 4.426168 1.139193
v 3.087521E-05 3.456449 0.9425142
v 3.087521E-05 3.798683 1.009942
v -0.279701 4.139388 1.044165
v -0.2944773 4.426168 1.099365
v -0.2436942 3.456449 0.9095645
v -0.2329941 2.902251 0.8699062
v -0.2611032 3.798683 0.9746146
v -0.5405802 4.139388 0.9361451
v -0.5691139 4.426168 0.9856544
v -0.4708595 3.456449 0.8154714
v -0.4503084 2.902251 0.7798893
v -0.6373909 2.902251 0.6373909
v -0.5045735 3.798683 0.8738127
v -0.765028 4.139388 0.765028
v -0.8055357 4.426168 0.8055357
v -0.666434 3.456449 0.666434
v -0.7140751 3.798683 0.7140751
v -0.9361451 4.139388 0.5405802
v -0.9856544 4.426168 0.5691139
v -1.044165 4.139388 0.279701
v -1.099365 4.426168 0.2944773
v -1.139193 4.426168 -3.087521E-05
v -1.081955 4.139388 -3.087521E-05
v -1.009942 3.798683 -3.087521E-05
v -0.8738127 3.798683 0.5045735
v -0.8154714 3.456449 0.4708595
v -0.7798893 2.902251 0.4503084
v -0.9746146 3.798683 0.2611032
v -0.9425142 3.456449 -3.087521E-05
v -0.9095645 3.456449 0.2436942
v -0.8699062 2.902251 0.2329941
v -0.9014122 2.902251 -3.087521E-05
vt 0.9834623 0.5291005
vt 0.9834623 0.3380404
vt 0.9435394 0.3380404
vt 0.9435394 0.5291005
vt 0.9834623 0.6783365
vt 0.9036164 0.5291005
vt 0.9036164 0.3380404
vt 0.8636934 0.3380404
vt 0.9435394 0.6783365
vt 0.9834623 0.828523
vt 0.9036164 0.6783365
vt 0.8636934 0.5291005
vt 0.9435394 0.828523
vt 0.9834623 0.9948689
vt 0.9435394 0.9948689
vt 0.9036164 0.828523
vt 0.9036164 0.9948689
vt 0.8636934 0.6783365
vt 0.8636934 0.828523
vt 0.8636934 0.9948689
vt 0.8237703 0.828523
vt 0.8237703 0.9948689
vt 0.8237703 0.5291005
vt 0.8237703 0.3380404
vt 0.8237703 0.6783365
vt 0.7838473 0.828523
vt 0.7838473 0.9948689
vt 0.7838473 0.5291005
vt 0.7838473 0.3380404
vt 0.7439243 0.3380404
vt 0.7838473 0.6783365
vt 0.7439243 0.828523
vt 0.7439243 0.9948689
vt 0.7439243 0.5291005
vt 0.7439243 0.6783365
vt 0.7030507 0.828523
vt 0.7030507 0.9948689
vt 0.7030507 0.5291005
vt 0.7030507 0.3380404
vt 0.7030507 0.6783365
vt 0.6631277 0.828523
vt 0.6631277 0.9948689
vt 0.6631277 0.5291005
vt 0.6631277 0.3380404
vt 0.6232047 0.3380404
vt 0.6631277 0.6783365
vt 0.6232047 0.828523
vt 0.6232047 0.9948689
vt 0.6232047 0.5291005
vt 0.6232047 0.6783365
vt 0.5832817 0.828523
vt 0.5832817 0.9948689
vt 0.5832817 0.5291005
vt 0.5832817 0.3380404
vt 0.5832817 0.6783365
vt 0.5433587 0.828523
vt 0.5433587 0.9948689
vt 0.5433587 0.5291005
vt 0.5433587 0.3380404
vt 0.5034357 0.3380404
vt 0.5433587 0.6783365
vt 0.5034357 0.828523
vt 0.5034357 0.9948689
vt 0.5034357 0.5291005
vt 0.5034357 0.6783365
vt 0.4635127 0.828523
vt 0.4635127 0.9948689
vt 0.4635127 0.5291005
vt 0.4635127 0.3380404
vt 0.4635127 0.6783365
vt 0.4226391 0.828523
vt 0.4226391 0.9948689
vt 0.4226391 0.5291005
vt 0.4226391 0.3380404
vt 0.3827161 0.3380404
vt 0.4226391 0.6783365
vt 0.3827161 0.828523
vt 0.3827161 0.9948689
vt 0.3827161 0.5291005
vt 0.3827161 0.6783365
vt 0.3427931 0.828523
vt 0.3427931 0.9948689
vt 0.3427931 0.5291005
vt 0.3427931 0.3380404
vt 0.3427931 0.6783365
vt 0.3028701 0.828523
vt 0.3028701 0.9948689
vt 0.3028701 0.5291005
vt 0.3028701 0.3380404
vt 0.2629471 0.3380404
vt 0.3028701 0.6783365
vt 0.2629471 0.828523
vt 0.2629471 0.9948689
vt 0.2629471 0.5291005
vt 0.2629471 0.6783365
vt 0.2230241 0.828523
vt 0.2230241 0.9948689
vt 0.2230241 0.5291005
vt 0.2230241 0.3380404
vt 0.2230241 0.6783365
vt 0.1831011 0.828523
vt 0.1831011 0.9948689
vt 0.1831011 0.5291005
vt 0.1831011 0.3380404
vt 0.1422275 0.3380404
vt 0.1831011 0.6783365
vt 0.1422275 0.828523
vt 0.1422275 0.9948689
vt 0.1422275 0.5291005
vt 0.1422275 0.6783365
vt 0.1023045 0.828523
vt 0.1023045 0.9948689
vt 0.06238151 0.828523
vt 0.06238151 0.9948689
vt 0.0224585 0.9948689
vt 0.0224585 0.828523
vt 0.0224585 0.6783365
vt 0.1023045 0.6783365
vt 0.1023045 0.5291005
vt 0.1023045 0.3380404
vt 0.06238151 0.6783365
vt 0.0224585 0.5291005
vt 0.06238151 0.5291005
vt 0.06238151 0.3380404
vt 0.0224585 0.3380404
vn -0.9894143 -0.1212325 0.07976186
vn -0.9972357 -0.0743038 0
vn -0.9659499 -0.07430381 -0.24783
vn -0.9581285 -0.1212325 -0.2594081
vn -0.9799754 -0.1991184 0
vn -0.8564496 -0.1212325 -0.5017936
vn -0.864271 -0.07430381 -0.4975083
vn -0.7078419 -0.07430381 -0.702452
vn -0.9424856 -0.1994471 -0.2682196
vn -0.9799754 -0.1991184 0
vn -0.848628 -0.1994471 -0.4899503
vn -0.7000204 -0.1212325 -0.7037571
vn -0.9424856 -0.1994471 -0.2682196
vn -0.9799754 -0.1991184 0
vn -0.950307 -0.1916257 -0.2453491
vn -0.848628 -0.1994471 -0.4899503
vn -0.848628 -0.1916257 -0.4930619
vn -0.692199 -0.1994471 -0.6936003
vn -0.692199 -0.1994471 -0.6936003
vn -0.692199 -0.1994471 -0.6936003
vn -0.4888411 -0.1994471 -0.8492675
vn -0.4888411 -0.1916257 -0.8510664
vn -0.4966625 -0.1212325 -0.8594353
vn -0.4966625 -0.07430381 -0.8647574
vn -0.4888411 -0.1994471 -0.8492675
vn -0.2541974 -0.1994471 -0.9463639
vn -0.2541974 -0.1916257 -0.9479785
vn -0.2620188 -0.1212325 -0.9574178
vn -0.2620188 -0.07430381 -0.9621981
vn -0.00391078 -0.07430381 -0.997228
vn -0.2541974 -0.1994471 -0.9463639
vn -0.00391078 -0.1994471 -0.9799008
vn -0.00391078 -0.1994471 -0.9799008
vn -0.00391078 -0.1212325 -0.9926164
vn -0.00391078 -0.1994471 -0.9799008
vn 0.2541973 -0.1994471 -0.9463639
vn 0.2541973 -0.1916257 -0.9479786
vn 0.2620187 -0.1212325 -0.9574178
vn 0.2620187 -0.07430381 -0.9621981
vn 0.2541973 -0.1994471 -0.9463639
vn 0.488841 -0.1994471 -0.8492675
vn 0.488841 -0.1916257 -0.8510665
vn 0.4966624 -0.1212325 -0.8594353
vn 0.4966624 -0.07430381 -0.8647574
vn 0.7078418 -0.07430381 -0.7024521
vn 0.488841 -0.1994471 -0.8492675
vn 0.6921989 -0.1994471 -0.6936004
vn 0.6921989 -0.1994471 -0.6936004
vn 0.7000203 -0.1212325 -0.7037572
vn 0.6921989 -0.1994471 -0.6936004
vn 0.848628 -0.1994471 -0.4899504
vn 0.848628 -0.1916257 -0.493062
vn 0.8564494 -0.1212325 -0.5017939
vn 0.8642709 -0.07430381 -0.4975085
vn 0.848628 -0.1994471 -0.4899504
vn 0.9424855 -0.1994471 -0.2682201
vn 0.9503069 -0.1916257 -0.2453496
vn 0.9581284 -0.1212325 -0.2594083
vn 0.9659498 -0.07430381 -0.2478303
vn 0.9972357 -0.07430381 -5.709316E-05
vn 0.9424855 -0.1994471 -0.2682201
vn 0.9799755 -0.1991185 0
vn 0.9799755 -0.1991185 0
vn 0.9894142 -0.1212325 -0.07976335
vn 0.9799755 -0.1991185 0
vn 0.9424855 -0.1994471 0.2682201
vn 0.9503069 -0.1916257 0.2453496
vn 0.9581284 -0.1212325 0.2594083
vn 0.9659498 -0.07430381 0.2478303
vn 0.9424855 -0.1994471 0.2682201
vn 0.848628 -0.1994471 0.4899504
vn 0.848628 -0.1916257 0.493062
vn 0.8564494 -0.1212325 0.5017939
vn 0.8642709 -0.07430381 0.4975085
vn 0.7078418 -0.07430381 0.7024521
vn 0.848628 -0.1994471 0.4899504
vn 0.6921989 -0.1994471 0.6936004
vn 0.6921989 -0.1994471 0.6936004
vn 0.7000203 -0.1212325 0.7037572
vn 0.6921989 -0.1994471 0.6936004
vn 0.488841 -0.1994471 0.8492675
vn 0.488841 -0.1916257 0.8510665
vn 0.4966624 -0.1212325 0.8594353
vn 0.4966624 -0.07430381 0.8647574
vn 0.488841 -0.1994471 0.8492675
vn 0.2541973 -0.1994471 0.9463639
vn 0.2541973 -0.1916257 0.9479786
vn 0.2620187 -0.1212325 0.9574178
vn 0.2620187 -0.07430381 0.9621981
vn -0.00391078 -0.07430381 0.997228
vn 0.2541973 -0.1994471 0.9463639
vn -0.00391078 -0.1994471 0.9799008
vn -0.00391078 -0.1994471 0.9799008
vn -0.00391078 -0.1212325 0.9926164
vn -0.00391078 -0.1994471 0.9799008
vn -0.2541974 -0.1994471 0.9463639
vn -0.2541974 -0.1916257 0.9479785
vn -0.2620188 -0.1212325 0.9574178
vn -0.2620188 -0.07430381 0.9621981
vn -0.2541974 -0.1994471 0.9463639
vn -0.4888411 -0.1994471 0.8492675
vn -0.4888411 -0.1916257 0.8510664
vn -0.4966625 -0.1212325 0.8594353
vn -0.4966625 -0.07430381 0.8647574
vn -0.7078419 -0.07430381 0.702452
vn -0.4888411 -0.1994471 0.8492675
vn -0.692199 -0.1994471 0.6936003
vn -0.692199 -0.1994471 0.6936003
vn -0.7000204 -0.1212325 0.7037571
vn -0.692199 -0.1994471 0.6936003
vn -0.848628 -0.1994471 0.4899503
vn -0.848628 -0.1916257 0.4930619
vn -0.9424856 -0.1994471 0.2682196
vn -0.950307 -0.1916257 0.2453491
vn -0.9799754 -0.1991184 0
vn -0.9799754 -0.1991184 0
vn -0.9799754 -0.1991184 0
vn -0.848628 -0.1994471 0.4899503
vn -0.8564496 -0.1212325 0.5017936
vn -0.864271 -0.07430381 0.4975083
vn -0.9424856 -0.1994471 0.2682196
vn -0.9894143 -0.1212325 0.07976186
vn -0.9581285 -0.1212325 0.2594081
vn -0.9659499 -0.07430381 0.24783
vn -0.9972357 -0.0743038 0
g JarBlood_0
f 3/3/3 2/2/2 1/1/1
f 4/4/4 3/3/3 1/1/1
f 4/4/4 1/1/1 5/5/5
f 4/4/4 6/6/6 3/3/3
f 6/6/6 7/7/7 3/3/3
f 8/8/8 7/7/7 6/6/6
f 9/9/9 4/4/4 5/5/5
f 9/9/9 5/5/5 10/10/10
f 11/11/11 6/6/6 4/4/4
f 9/9/9 11/11/11 4/4/4
f 12/12/12 8/8/8 6/6/6
f 12/12/12 6/6/6 11/11/11
f 13/13/13 9/9/9 10/10/10
f 10/10/10 14/14/14 13/13/13
f 14/14/14 15/15/15 13/13/13
f 13/13/13 16/16/16 9/9/9
f 13/13/13 15/15/15 16/16/16
f 16/16/16 11/11/11 9/9/9
f 15/15/15 17/17/17 16/16/16
f 18/18/18 11/11/11 16/16/16
f 18/18/18 12/12/12 11/11/11
f 16/16/16 17/17/17 19/19/19
f 19/19/19 18/18/18 16/16/16
f 17/17/17 20/20/20 19/19/19
f 19/19/19 20/20/20 21/21/21
f 19/19/19 21/21/21 18/18/18
f 20/20/20 22/22/22 21/21/21
f 12/12/12 23/23/23 8/8/8
f 23/23/23 24/24/24 8/8/8
f 18/18/18 25/25/25 12/12/12
f 21/21/21 25/25/25 18/18/18
f 25/25/25 23/23/23 12/12/12
f 21/21/21 22/22/22 26/26/26
f 21/21/21 26/26/26 25/25/25
f 22/22/22 27/27/27 26/26/26
f 23/23/23 28/28/28 24/24/24
f 28/28/28 29/29/29 24/24/24
f 30/30/30 29/29/29 28/28/28
f 25/25/25 31/31/31 23/23/23
f 31/31/31 28/28/28 23/23/23
f 26/26/26 31/31/31 25/25/25
f 26/26/26 27/27/27 32/32/32
f 27/27/27 33/33/33 32/32/32
f 34/34/34 30/30/30 28/28/28
f 34/34/34 28/28/28 31/31/31
f 35/35/35 31/31/31 26/26/26
f 32/32/32 35/35/35 26/26/26
f 35/35/35 34/34/34 31/31/31
f 32/32/32 33/33/33 36/36/36
f 32/32/32 36/36/36 35/35/35
f 33/33/33 37/37/37 36/36/36
f 34/34/34 38/38/38 30/30/30
f 38/38/38 39/39/39 30/30/30
f 35/35/35 40/40/40 34/34/34
f 36/36/36 40/40/40 35/35/35
f 40/40/40 38/38/38 34/34/34
f 36/36/36 37/37/37 41/41/41
f 36/36/36 41/41/41 40/40/40
f 37/37/37 42/42/42 41/41/41
f 38/38/38 43/43/43 39/39/39
f 43/43/43 44/44/44 39/39/39
f 45/45/45 44/44/44 43/43/43
f 40/40/40 46/46/46 38/38/38
f 46/46/46 43/43/43 38/38/38
f 41/41/41 46/46/46 40/40/40
f 41/41/41 42/42/42 47/47/47
f 42/42/42 48/48/48 47/47/47
f 49/49/49 45/45/45 43/43/43
f 49/49/49 43/43/43 46/46/46
f 50/50/50 46/46/46 41/41/41
f 47/47/47 50/50/50 41/41/41
f 50/50/50 49/49/49 46/46/46
f 47/47/47 48/48/48 51/51/51
f 47/47/47 51/51/51 50/50/50
f 48/48/48 52/52/52 51/51/51
f 49/49/49 53/53/53 45/45/45
f 53/53/53 54/54/54 45/45/45
f 50/50/50 55/55/55 49/49/49
f 51/51/51 55/55/55 50/50/50
f 55/55/55 53/53/53 49/49/49
f 51/51/51 52/52/52 56/56/56
f 51/51/51 56/56/56 55/55/55
f 52/52/52 57/57/57 56/56/56
f 53/53/53 58/58/58 54/54/54
f 58/58/58 59/59/59 54/54/54
f 60/60/60 59/59/59 58/58/58
f 55/55/55 61/61/61 53/53/53
f 61/61/61 58/58/58 53/53/53
f 56/56/56 61/61/61 55/55/55
f 56/56/56 57/57/57 62/62/62
f 57/57/57 63/63/63 62/62/62
f 64/64/64 60/60/60 58/58/58
f 64/64/64 58/58/58 61/61/61
f 65/65/65 61/61/61 56/56/56
f 62/62/62 65/65/65 56/56/56
f 65/65/65 64/64/64 61/61/61
f 62/62/62 63/63/63 66/66/66
f 62/62/62 66/66/66 65/65/65
f 63/63/63 67/67/67 66/66/66
f 64/64/64 68/68/68 60/60/60
f 68/68/68 69/69/69 60/60/60
f 65/65/65 70/70/70 64/64/64
f 66/66/66 70/70/70 65/65/65
f 70/70/70 68/68/68 64/64/64
f 66/66/66 67/67/67 71/71/71
f 66/66/66 71/71/71 70/70/70
f 67/67/67 72/72/72 71/71/71
f 68/68/68 73/73/73 69/69/69
f 73/73/73 74/74/74 69/69/69
f 75/75/75 74/74/74 73/73/73
f 70/70/70 76/76/76 68/68/68
f 76/76/76 73/73/73 68/68/68
f 71/71/71 76/76/76 70/70/70
f 71/71/71 72/72/72 77/77/77
f 72/72/72 78/78/78 77/77/77
f 79/79/79 75/75/75 73/73/73
f 79/79/79 73/73/73 76/76/76
f 80/80/80 76/76/76 71/71/71
f 77/77/77 80/80/80 71/71/71
f 80/80/80 79/79/79 76/76/76
f 77/77/77 78/78/78 81/81/81
f 77/77/77 81/81/81 80/80/80
f 78/78/78 82/82/82 81/81/81
f 79/79/79 83/83/83 75/75/75
f 83/83/83 84/84/84 75/75/75
f 80/80/80 85/85/85 79/79/79
f 81/81/81 85/85/85 80/80/80
f 85/85/85 83/83/83 79/79/79
f 81/81/81 82/82/82 86/86/86
f 81/81/81 86/86/86 85/85/85
f 82/82/82 87/87/87 86/86/86
f 83/83/83 88/88/88 84/84/84
f 88/88/88 89/89/89 84/84/84
f 90/90/90 89/89/89 88/88/88
f 85/85/85 91/91/91 83/83/83
f 91/91/91 88/88/88 83/83/83
f 86/86/86 91/91/91 85/85/85
f 86/86/86 87/87/87 92/92/92
f 87/87/87 93/93/93 92/92/92
f 94/94/94 90/90/90 88/88/88
f 94/94/94 88/88/88 91/91/91
f 95/95/95 91/91/91 86/86/86
f 92/92/92 95/95/95 86/86/86
f 95/95/95 94/94/94 91/91/91
f 92/92/92 93/93/93 96/96/96
f 92/92/92 96/96/96 95/95/95
f 93/93/93 97/97/97 96/96/96
f 94/94/94 98/98/98 90/90/90
f 98/98/98 99/99/99 90/90/90
f 95/95/95 100/100/100 94/94/94
f 96/96/96 100/100/100 95/95/95
f 100/100/100 98/98/98 94/94/94
f 96/96/96 97/97/97 101/101/101
f 96/96/96 101/101/101 100/100/100
f 97/97/97 102/102/102 101/101/101
f 98/98/98 103/103/103 99/99/99
f 103/103/103 104/104/104 99/99/99
f 105/105/105 104/104/104 103/103/103
f 100/100/100 106/106/106 98/98/98
f 106/106/106 103/103/103 98/98/98
f 101/101/101 106/106/106 100/100/100
f 101/101/101 102/102/102 107/107/107
f 102/102/102 108/108/108 107/107/107
f 109/109/109 105/105/105 103/103/103
f 109/109/109 103/103/103 106/106/106
f 110/110/110 106/106/106 101/101/101
f 107/107/107 110/110/110 101/101/101
f 110/110/110 109/109/109 106/106/106
f 107/107/107 108/108/108 111/111/111
f 107/107/107 111/111/111 110/110/110
f 108/108/108 112/112/112 111/111/111
f 111/111/111 112/112/112 113/113/113
f 112/112/112 114/114/114 113/113/113
f 113/113/113 114/114/114 115/115/115
f 116/116/116 113/113/113 115/115/115
f 116/116/116 117/117/117 113/113/113
f 111/111/111 118/118/118 110/110/110
f 110/110/110 118/118/118 109/109/109
f 111/111/111 113/113/113 118/118/118
f 109/109/109 119/119/119 105/105/105
f 118/118/118 119/119/119 109/109/109
f 119/119/119 120/120/120 105/105/105
f 117/117/117 121/121/121 113/113/113
f 113/113/113 121/121/121 118/118/118
f 118/118/118 121/121/121 119/119/119
f 117/117/117 122/122/122 121/121/121
f 119/119/119 123/123/123 120/120/120
f 121/121/121 123/123/123 119/119/119
f 122/122/122 123/123/123 121/121/121
f 123/123/123 124/124/124 120/120/120
f 122/122/122 125/125/125 123/123/123
f 125/125/125 124/124/124 123/123/123
