g JarBlood
v -0.9132252 1.088711 -1.063248
v -7.845E-09 0.7923756 -1.270332
v 6.709633E-10 1.088711 -1.316231
v -0.8494823 0.7925192 -1.025625
v -1.391258 1.088711 -0.4125469
v -1.565645E-08 0.5264485 -1.190922
v -1.307302 0.7925805 -0.398936
v -1.400196 1.08871 0.3343345
v -0.7727851 0.5272086 -0.9600821
v -1.324237 0.7925212 0.3195195
v -1.212115 1.08871 0.7442594
v -0.6961952 0.2897471 -0.8833619
v 4.682086E-10 0.2885005 -1.097121
v 2.673059E-10 0.04112087 -1.028561
v -0.6371459 0.04166241 -0.8287271
v -1.093829 0.2902519 -0.3363291
v -1.012279 0.0417255 -0.3138503
v -1.201634 0.5275357 -0.3705615
v -1.122973 0.2895738 0.2897622
v -1.046956 0.04095484 0.275712
v -1.225324 0.5272007 0.3044954
v -1.143542 0.792488 0.7195016
v -0.9180358 1.08871 1.042691
v -0.8594534 0.7924517 1.012787
v -0.787415 0.5267701 0.9669853
v -1.055608 0.5269965 0.6856564
v -1.122973 0.2895738 0.2897622
v -0.965526 0.2890978 0.648303
v -1.046956 0.04095484 0.275712
v -0.7155368 0.2885923 0.914586
v -0.8986952 0.04025061 0.6184197
v -0.662022 0.03963283 0.8745759
v -0.5105736 1.08871 1.245424
v -0.8594534 0.7924517 1.012787
v -0.9180358 1.08871 1.042691
v -0.4724052 0.7923888 1.209614
v 6.709633E-10 1.08871 1.316814
v 6.101916E-10 0.7923317 1.277868
v -0.787415 0.5267701 0.9669853
v -0.428046 0.5264207 1.153302
v 5.849594E-10 0.5261264 1.216794
v 4.67054E-10 0.2874615 1.146242
v -0.3856317 0.2879466 1.088317
v -0.7155368 0.2885923 0.914586
v -0.662022 0.03963283 0.8745759
v -0.3542165 0.03910567 1.038961
v 2.681558E-10 0.03876984 1.092363
v 0.5105736 1.08871 1.245424
v 6.101916E-10 0.7923317 1.277868
v 6.709633E-10 1.08871 1.316814
v 0.4724052 0.7923888 1.209614
v 0.9180358 1.08871 1.042691
v 0.8594534 0.7924519 1.012787
v 5.849594E-10 0.5261264 1.216794
v 0.428046 0.5264207 1.153302
v 0.7874148 0.5267701 0.9669853
v 0.7155367 0.2885923 0.914586
v 0.3856317 0.2879466 1.088316
v 4.67054E-10 0.2874615 1.146242
v 2.681558E-10 0.03876984 1.092363
v 0.3542165 0.03910567 1.038961
v 0.662022 0.03963283 0.8745759
v 0.8594534 0.7924519 1.012787
v 0.9180358 1.08871 1.042691
v 1.212115 1.08871 0.7442594
v 1.143542 0.792488 0.7195017
v 1.400196 1.08871 0.3343345
v 1.055608 0.5269963 0.6856564
v 0.7874148 0.5267701 0.9669853
v 0.7155367 0.2885923 0.914586
v 1.324237 0.7925212 0.3195195
v 1.391258 1.088711 -0.4125469
v 0.965526 0.2890978 0.648303
v 0.662022 0.03963283 0.8745759
v 0.8986952 0.04025061 0.6184197
v 1.225324 0.5272007 0.3044953
v 1.122973 0.2895738 0.2897622
v 1.046956 0.04095484 0.275712
v 1.307302 0.7925804 -0.3989361
v 0.9132252 1.088711 -1.063248
v 1.225324 0.5272007 0.3044953
v 1.093829 0.2902519 -0.3363291
v 1.012279 0.0417255 -0.3138503
v 0.8494823 0.7925192 -1.025625
v 6.709633E-10 1.088711 -1.316231
v -7.845E-09 0.7923756 -1.270332
v 1.201634 0.5275357 -0.3705615
v 0.6961952 0.2897471 -0.8833619
v 0.6371459 0.04166241 -0.8287271
v 0.7727851 0.5272086 -0.9600821
v -1.565645E-08 0.5264485 -1.190922
v 4.682086E-10 0.2885005 -1.097121
v 2.673059E-10 0.04112087 -1.028561
vt 0.2217081 0.9846003
vt 0.01614723 0.8269456
vt 0.01614723 0.9846003
vt 0.2217081 0.8269456
vt 0.4099331 0.9846003
vt 0.01614723 0.6691982
vt 0.4099331 0.8269456
vt 0.5789797 0.9846003
vt 0.2217081 0.6691981
vt 0.5789797 0.8269456
vt 0.6820352 0.9846003
vt 0.2217081 0.5112962
vt 0.01614723 0.5112962
vt 0.01614723 0.3533013
vt 0.2217081 0.3533013
vt 0.4099331 0.5112962
vt 0.4099331 0.3533013
vt 0.409933 0.6691981
vt 0.5789797 0.5112962
vt 0.5789797 0.3533013
vt 0.5789797 0.6691981
vt 0.6820351 0.8269456
vt 0.7761227 0.9846003
vt 0.7761226 0.8269456
vt 0.7761227 0.6691981
vt 0.6820351 0.6691981
vt 0.5789797 0.5112961
vt 0.6820351 0.5112961
vt 0.5789797 0.3533013
vt 0.7761227 0.5112961
vt 0.6820352 0.3533013
vt 0.7761227 0.3533013
vt 0.8749693 0.9846003
vt 0.7761226 0.8269456
vt 0.7761227 0.9846003
vt 0.8749693 0.8269456
vt 0.9807118 0.9846003
vt 0.9807117 0.8269456
vt 0.7761226 0.6691982
vt 0.8749692 0.6691982
vt 0.9807118 0.6691982
vt 0.9807118 0.5112962
vt 0.8749693 0.5112961
vt 0.7761226 0.5112961
vt 0.7761227 0.3533013
vt 0.8749693 0.3533013
vt 0.9807118 0.3533013
vt 0.8749693 0.9846003
vt 0.9807117 0.8269456
vt 0.9807118 0.9846003
vt 0.8749693 0.8269456
vt 0.7761227 0.9846003
vt 0.7761226 0.8269456
vt 0.9807118 0.6691982
vt 0.8749693 0.6691981
vt 0.7761226 0.6691981
vt 0.7761226 0.5112962
vt 0.8749693 0.5112962
vt 0.9807118 0.5112962
vt 0.9807118 0.3533013
vt 0.8749693 0.3533013
vt 0.7761227 0.3533013
vt 0.7761226 0.8269456
vt 0.7761227 0.9846003
vt 0.6820352 0.9846003
vt 0.6820352 0.8269456
vt 0.5789797 0.9846003
vt 0.6820351 0.6691981
vt 0.7761226 0.6691981
vt 0.7761226 0.5112961
vt 0.5789797 0.8269456
vt 0.4099331 0.9846003
vt 0.6820352 0.5112961
vt 0.7761227 0.3533013
vt 0.6820352 0.3533013
vt 0.5789797 0.6691981
vt 0.5789797 0.5112961
vt 0.5789797 0.3533013
vt 0.4099331 0.8269456
vt 0.2217081 0.9846003
vt 0.5789797 0.6691982
vt 0.4099331 0.5112961
vt 0.4099331 0.3533013
vt 0.2217081 0.8269456
vt 0.01614723 0.9846003
vt 0.01614723 0.8269456
vt 0.409933 0.6691982
vt 0.2217081 0.5112961
vt 0.2217081 0.3533013
vt 0.2217081 0.6691982
vt 0.01614723 0.6691982
vt 0.01614723 0.5112962
vt 0.01614723 0.3533013
vn -0.5719136 -0.2177852 -0.7908757
vn 0 -0.2326968 -0.9725494
vn 0 -0.1688744 -0.9856376
vn -0.5466781 -0.2740647 -0.7912217
vn -0.9164895 -0.2643993 -0.3002334
vn 0 -0.3370032 -0.9415035
vn -0.8977016 -0.3157981 -0.3072511
vn -0.9461197 -0.2574038 0.1964704
vn -0.5318369 -0.3698826 -0.7617981
vn -0.9331174 -0.3055455 0.1895621
vn -0.8060385 -0.2315115 0.5447058
vn -0.5402784 -0.356139 -0.7624069
vn 0 -0.3296062 -0.9441185
vn 0 -0.2746717 -0.9615381
vn -0.5450219 -0.2972837 -0.7839474
vn -0.8754101 -0.3740143 -0.3062196
vn -0.8930456 -0.3155701 -0.3207568
vn -0.8674117 -0.3966738 -0.300411
vn -0.9186649 -0.355466 0.1723328
vn -0.9381097 -0.3016625 0.1701468
vn -0.9082454 -0.3789607 0.1774232
vn -0.7944327 -0.2775393 0.5402302
vn -0.5867303 -0.1954195 0.785849
vn -0.575992 -0.2398975 0.7814617
vn -0.5690446 -0.3112557 0.761123
vn -0.7781076 -0.3484739 0.5226035
vn -0.9186649 -0.355466 0.1723328
vn -0.7874772 -0.327216 0.5223116
vn -0.9381097 -0.3016625 0.1701468
vn -0.577209 -0.2951939 0.761374
vn -0.8006277 -0.2779125 0.5308107
vn -0.5833082 -0.2501359 0.7727766
vn -0.3033644 -0.1543608 0.9402887
vn -0.575992 -0.2398975 0.7814617
vn -0.5867303 -0.1954195 0.785849
vn -0.2955136 -0.1990476 0.9343724
vn 0 -0.1340564 0.9909737
vn 0 -0.179836 0.9836966
vn -0.5690446 -0.3112557 0.761123
vn -0.2944651 -0.2729199 0.915863
vn 0 -0.2553039 0.9668608
vn 0 -0.2495573 0.9683601
vn -0.2989728 -0.2637476 0.9170892
vn -0.577209 -0.2951939 0.761374
vn -0.5833082 -0.2501359 0.7727766
vn -0.2994898 -0.2235819 0.9275327
vn 0 -0.2120746 0.9772535
vn 0.3033644 -0.1543609 0.9402886
vn 0 -0.179836 0.9836966
vn 0 -0.1340564 0.9909737
vn 0.2955136 -0.1990476 0.9343724
vn 0.5867303 -0.1954195 0.7858491
vn 0.5759919 -0.2398977 0.7814617
vn 0 -0.2553039 0.9668608
vn 0.2944651 -0.2729199 0.915863
vn 0.5690445 -0.3112559 0.7611231
vn 0.5772089 -0.2951936 0.7613741
vn 0.2989729 -0.2637475 0.9170892
vn 0 -0.2495573 0.9683601
vn 0 -0.2120746 0.9772535
vn 0.2994899 -0.2235816 0.9275329
vn 0.5833082 -0.2501354 0.7727768
vn 0.5759919 -0.2398977 0.7814617
vn 0.5867303 -0.1954195 0.7858491
vn 0.8060385 -0.2315114 0.5447058
vn 0.7944326 -0.2775394 0.5402303
vn 0.9461198 -0.2574037 0.1964704
vn 0.7781076 -0.3484741 0.5226036
vn 0.5690445 -0.3112559 0.7611231
vn 0.5772089 -0.2951936 0.7613741
vn 0.9331174 -0.3055454 0.1895623
vn 0.9164895 -0.2643992 -0.3002334
vn 0.7874772 -0.3272159 0.5223116
vn 0.5833082 -0.2501354 0.7727768
vn 0.8006276 -0.2779125 0.5308107
vn 0.9082454 -0.3789607 0.1774234
vn 0.9186649 -0.355466 0.1723328
vn 0.9381097 -0.3016625 0.1701469
vn 0.8977016 -0.3157981 -0.3072512
vn 0.5719136 -0.2177852 -0.7908757
vn 0.9082454 -0.3789607 0.1774234
vn 0.8754101 -0.3740143 -0.3062195
vn 0.8930456 -0.3155701 -0.3207569
vn 0.546678 -0.2740647 -0.7912217
vn 0 -0.1688744 -0.9856376
vn 0 -0.2326968 -0.9725494
vn 0.8674117 -0.3966738 -0.300411
vn 0.5402784 -0.3561389 -0.7624069
vn 0.5450218 -0.2972837 -0.7839474
vn 0.5318369 -0.3698826 -0.7617981
vn 0 -0.3370032 -0.9415035
vn 0 -0.3296062 -0.9441185
vn 0 -0.2746717 -0.9615381
g JarBlood_0
f 3/3/3 2/2/2 1/1/1
f 2/2/2 4/4/4 1/1/1
f 1/1/1 4/4/4 5/5/5
f 2/2/2 6/6/6 4/4/4
f 4/4/4 7/7/7 5/5/5
f 5/5/5 7/7/7 8/8/8
f 6/6/6 9/9/9 4/4/4
f 4/4/4 9/9/9 7/7/7
f 7/7/7 10/10/10 8/8/8
f 8/8/8 10/10/10 11/11/11
f 12/12/12 9/9/9 6/6/6
f 13/13/13 12/12/12 6/6/6
f 13/13/13 14/14/14 12/12/12
f 14/14/14 15/15/15 12/12/12
f 12/12/12 15/15/15 16/16/16
f 12/12/12 16/16/16 9/9/9
f 15/15/15 17/17/17 16/16/16
f 9/9/9 18/18/18 7/7/7
f 16/16/16 18/18/18 9/9/9
f 7/7/7 18/18/18 10/10/10
f 16/16/16 17/17/17 19/19/19
f 16/16/16 19/19/19 18/18/18
f 17/17/17 20/20/20 19/19/19
f 19/19/19 21/21/21 18/18/18
f 18/18/18 21/21/21 10/10/10
f 10/10/10 22/22/22 11/11/11
f 11/11/11 22/22/22 23/23/23
f 22/22/22 24/24/24 23/23/23
f 24/24/24 22/22/22 25/25/25
f 10/10/10 21/21/21 26/26/26
f 22/22/22 10/10/10 26/26/26
f 22/22/22 26/26/26 25/25/25
f 21/21/21 27/27/27 26/26/26
f 26/26/26 28/28/28 25/25/25
f 27/27/27 28/28/28 26/26/26
f 28/28/28 27/27/27 29/29/29
f 28/28/28 30/30/30 25/25/25
f 31/31/31 28/28/28 29/29/29
f 30/30/30 28/28/28 31/31/31
f 32/32/32 30/30/30 31/31/31
f 35/35/35 34/34/34 33/33/33
f 34/34/34 36/36/36 33/33/33
f 33/33/33 36/36/36 37/37/37
f 36/36/36 38/38/38 37/37/37
f 36/36/36 34/34/34 39/39/39
f 38/38/38 36/36/36 40/40/40
f 40/40/40 36/36/36 39/39/39
f 41/41/41 38/38/38 40/40/40
f 42/42/42 41/41/41 40/40/40
f 43/43/43 40/40/40 39/39/39
f 43/43/43 42/42/42 40/40/40
f 44/44/44 43/43/43 39/39/39
f 43/43/43 44/44/44 45/45/45
f 46/46/46 43/43/43 45/45/45
f 42/42/42 43/43/43 46/46/46
f 47/47/47 42/42/42 46/46/46
f 50/50/50 49/49/49 48/48/48
f 49/49/49 51/51/51 48/48/48
f 48/48/48 51/51/51 52/52/52
f 51/51/51 53/53/53 52/52/52
f 49/49/49 54/54/54 51/51/51
f 51/51/51 55/55/55 53/53/53
f 54/54/54 55/55/55 51/51/51
f 55/55/55 56/56/56 53/53/53
f 57/57/57 56/56/56 55/55/55
f 58/58/58 55/55/55 54/54/54
f 58/58/58 57/57/57 55/55/55
f 59/59/59 58/58/58 54/54/54
f 59/59/59 60/60/60 58/58/58
f 60/60/60 61/61/61 58/58/58
f 58/58/58 61/61/61 57/57/57
f 61/61/61 62/62/62 57/57/57
f 65/65/65 64/64/64 63/63/63
f 66/66/66 65/65/65 63/63/63
f 67/67/67 65/65/65 66/66/66
f 66/66/66 63/63/63 68/68/68
f 63/63/63 69/69/69 68/68/68
f 68/68/68 69/69/69 70/70/70
f 71/71/71 67/67/67 66/66/66
f 67/67/67 71/71/71 72/72/72
f 73/73/73 68/68/68 70/70/70
f 73/73/73 70/70/70 74/74/74
f 75/75/75 73/73/73 74/74/74
f 66/66/66 68/68/68 76/76/76
f 71/71/71 66/66/66 76/76/76
f 76/76/76 68/68/68 73/73/73
f 77/77/77 76/76/76 73/73/73
f 77/77/77 73/73/73 75/75/75
f 78/78/78 77/77/77 75/75/75
f 71/71/71 79/79/79 72/72/72
f 72/72/72 79/79/79 80/80/80
f 79/79/79 71/71/71 81/81/81
f 82/82/82 77/77/77 78/78/78
f 77/77/77 82/82/82 81/81/81
f 83/83/83 82/82/82 78/78/78
f 79/79/79 84/84/84 80/80/80
f 80/80/80 84/84/84 85/85/85
f 84/84/84 86/86/86 85/85/85
f 87/87/87 79/79/79 81/81/81
f 82/82/82 87/87/87 81/81/81
f 84/84/84 79/79/79 87/87/87
f 88/88/88 82/82/82 83/83/83
f 82/82/82 88/88/88 87/87/87
f 89/89/89 88/88/88 83/83/83
f 86/86/86 84/84/84 90/90/90
f 90/90/90 84/84/84 87/87/87
f 88/88/88 90/90/90 87/87/87
f 91/91/91 86/86/86 90/90/90
f 92/92/92 91/91/91 90/90/90
f 88/88/88 92/92/92 90/90/90
f 92/92/92 88/88/88 89/89/89
f 93/93/93 92/92/92 89/89/89
