g JarFlipped
v -0.3727314 -3.687536E-07 1.160021
v -0.6172975 0.3233463 1.13852
v -0.5504637 -3.567717E-07 1.086477
v -0.7136328 -3.397687E-07 0.9821128
v -0.7932479 0.3292054 1.028802
v -0.8558593 -3.178708E-07 0.8477046
v -0.945559 0.3354778 0.8886651
v -0.9773642 1.836077E-07 0.6964569
v -1.075441 0.3422537 0.7312827
v -1.077529 2.103086E-07 0.532568
v -0.8818607 0.6179737 1.083087
v -0.6923598 0.6121415 1.199302
v -1.045578 0.6242852 0.9358672
v -0.4225331 0.3191816 1.217002
v -0.4792941 0.6079671 1.284346
v -0.2151286 0.3177393 1.26567
v -0.1876716 -3.760044E-07 1.204526
v 0.0006550029 -3.784563E-07 1.219576
v -0.2469172 0.6065019 1.339586
v -1.182875 0.3480691 0.5598233
v -1.186045 0.6312932 0.7704811
v -1.256534 0.3439437 0.3253842
v -1.145774 4.846973E-07 0.3117849
v -1.107103 5.926776E-07 -0.3509935
v -1.303692 0.637638 0.58881
v -1.211447 0.2671645 -0.3818422
v -0.9453979 8.835169E-07 -0.6727498
v -1.384905 0.6341829 0.3368717
v -1.026994 0.1820758 -0.7185092
v -0.3635657 1.667118E-06 -1.092248
v -1.327239 0.558427 -0.4225776
v -0.387154 0.05536891 -1.141281
v 0.0006550029 1.67641E-06 -1.149283
v -1.117386 0.4770485 -0.7723522
v -0.0003869869 0.04181589 -1.197472
v 0.3648757 1.667118E-06 -1.092248
v -0.4225554 0.3510784 -1.212068
v 0.3861753 0.05493654 -1.141132
v 0.8296953 1.859678E-06 -0.8107696
v -0.001984321 0.3371831 -1.272155
v 0.8931295 0.1380739 -0.8597013
v 1.040383 1.096766E-06 -0.5182636
v 0.418416 0.3509635 -1.211961
v 1.131586 0.2263775 -0.5578984
v 1.149569 8.025155E-07 -0.1755664
v 0.9669438 0.4347436 -0.9176461
v 1.255765 0.2984526 -0.1955325
v 1.147084 4.846973E-07 0.3117849
v 1.230902 0.5199968 -0.6065019
v 1.253874 0.3443785 0.3253975
v 1.078839 2.103086E-07 0.532568
v 1.374982 0.5889159 -0.2248129
v -0.003789853 0.618329 -1.351011
v 0.4525472 0.6325343 -1.288902
v 1.047919 0.7212913 -0.9834689
v 1.331171 0.8155133 -0.6536033
v -0.4603581 0.6323614 -1.288871
v -1.213938 0.7672049 -0.8300545
v -1.435709 0.8584377 -0.4568254
v -1.485814 0.9453014 0.3506544
v -1.397501 0.9484808 0.614527
v -1.525976 1.267767 0.3638402
v -1.50016 1.267767 -0.4645196
v -1.295132 1.267767 -0.8650091
v -0.5098051 1.267768 -1.385564
v -0.006351613 1.267768 -1.456878
v 0.4971018 1.267768 -1.385564
v -1.433721 1.267767 0.6301064
v 1.128502 1.267768 -1.036038
v 1.40291 1.267767 -0.673125
v -1.308275 1.267767 0.8183686
v 1.480022 0.8934923 -0.2455153
v 1.535094 1.267767 -0.2447416
v -1.273375 0.9407803 0.8025017
v -1.126611 0.9326003 0.9727087
v -1.161415 1.267767 0.9877383
v -0.9911827 1.267767 1.139007
v -0.9558818 0.9253404 1.124607
v -0.7922739 1.267767 1.261315
v -0.757181 0.9186456 1.245946
v -0.5597216 1.267767 1.355523
v -0.529564 0.9138395 1.336834
v -0.292668 1.267767 1.422058
v -0.2752089 0.9122039 1.398164
v -0.006074776 0.9122101 1.421125
v -0.00635162 1.267767 1.447881
v 0.2799647 1.267767 1.422058
v -0.004061684 0.6064666 1.359589
v 0.2630611 0.9122339 1.398158
v -0.001291159 0.3176934 1.282527
v 0.5174042 0.9139031 1.336827
v 0.5470183 1.267767 1.355523
v 0.238794 0.6065266 1.339566
v 0.2125467 0.3177392 1.265666
v 0.1889816 -3.760044E-07 1.204526
v 0.3740413 -3.687536E-07 1.160021
v 0.7449768 0.9187378 1.245943
v 0.7795707 1.267767 1.261315
v 0.4711448 0.6080151 1.284317
v 0.4199421 0.3191841 1.216996
v 0.9436162 0.9254558 1.124611
v 0.9784794 1.267767 1.139007
v 1.148711 1.267767 0.9877381
v 0.6841285 0.6122064 1.199278
v 0.6146746 0.3233573 1.138514
v 0.5517737 -3.567717E-07 1.086477
v 0.7149428 -3.397687E-07 0.9821128
v 1.114282 0.9327312 0.9727171
v 1.295572 1.267767 0.8183686
v 0.8735185 0.6180552 1.083075
v 0.7905788 0.3292378 1.028799
v 1.037127 0.6243905 0.935868
v 0.9428451 0.3355532 0.8886686
v 0.8571693 -3.178708E-07 0.8477046
v 1.260979 0.9409221 0.8025128
v 1.072689 0.3424052 0.7312935
v 0.9786744 1.836077E-07 0.6964569
v 1.177487 0.6314386 0.7704921
v 1.385046 0.9486354 0.6145387
v 1.421018 1.267767 0.6301064
v 1.513273 1.267767 0.3638402
v 1.180111 0.3483407 0.5598409
v 1.295059 0.6378484 0.5888268
v 1.4734 0.9454868 0.3506652
v 1.3764 0.6344891 0.3368827
vn 0.2955225 0.2124142 -0.9314219
vn 0.4418562 0.2626904 -0.8577627
vn 0.4425724 0.2307935 -0.8665242
vn 0.5892097 0.2514105 -0.7678702
vn 0.5853396 0.2860744 -0.7586429
vn 0.7039384 0.2682254 -0.657667
vn 0.6958044 0.3061038 -0.6497359
vn 0.7825394 0.2805966 -0.5557857
vn 0.7714393 0.3228455 -0.5483176
vn 0.8678377 0.295172 -0.3996639
vn 0.581395 0.2822642 -0.7630902
vn 0.4393922 0.2594572 -0.8600096
vn 0.6910456 0.3028408 -0.6563104
vn 0.2964072 0.2430263 -0.9236238
vn 0.2964375 0.2409645 -0.9241542
vn 0.1516632 0.230781 -0.9611132
vn 0.150118 0.1997536 -0.9682785
vn -0.0003062921 0.194676 -0.9808676
vn 0.1537905 0.2301493 -0.9609265
vn 0.8527501 0.3431021 -0.3938252
vn 0.7670447 0.3204362 -0.5558444
vn 0.9233374 0.3614011 -0.1297583
vn 0.9386739 0.3212247 -0.1253237
vn 0.9013216 0.3768041 0.2136303
vn 0.850898 0.3395393 -0.4008561
vn 0.9011033 0.3770457 0.2141251
vn 0.6855015 0.4710299 0.5551745
vn 0.9252366 0.3551712 -0.1333817
vn 0.7129133 0.3910453 0.5820981
vn 0.3245074 0.6307334 0.7048904
vn 0.9042115 0.3642973 0.2229102
vn 0.3534823 0.4471311 0.8216593
vn -0.001114128 0.7211838 0.6927429
vn 0.7151579 0.3391389 0.6111742
vn 0.0003313025 0.4967209 0.8679103
vn -0.2853824 0.6477093 0.7064202
vn 0.3556219 0.2853439 0.8900067
vn -0.3160594 0.4548948 0.8325726
vn -0.6031483 0.5075685 0.6152937
vn -0.000130145 0.2611685 0.9652933
vn -0.6354027 0.3966337 0.6625293
vn -0.8284767 0.4068816 0.3848034
vn -0.3205918 0.2763845 0.9059981
vn -0.8394734 0.3734791 0.3947121
vn -0.9314683 0.3433487 0.1203265
vn -0.6392006 0.3174854 0.7004467
vn -0.9251723 0.3617297 0.114925
vn -0.9395216 0.3054609 -0.1548959
vn -0.8422 0.3498752 0.4102273
vn -0.9241194 0.3476061 -0.158661
vn -0.8705921 0.2856831 -0.4005678
vn -0.9279055 0.3536135 0.1181052
vn 5.386916E-05 0.218374 0.9758651
vn -0.3142045 0.2286981 0.9213971
vn -0.6377867 0.249362 0.7287295
vn -0.8606212 0.2502704 0.4435041
vn 0.349805 0.2329019 0.9074102
vn 0.7220036 0.2549179 0.6432166
vn 0.9370917 0.245727 0.2479462
vn 0.9648541 0.2228629 -0.1392434
vn 0.8810512 0.2073641 -0.425146
vn 0.9799358 0.1357667 -0.1459223
vn 0.9548236 0.154849 0.2536408
vn 0.7344895 0.1647201 0.6583256
vn 0.3495907 0.1625766 0.922689
vn 0.0003283399 0.1607103 0.9870015
vn -0.3129255 0.1616464 0.935921
vn 0.8910705 0.1229604 -0.4368915
vn -0.6443477 0.1644356 0.7468448
vn -0.8749952 0.1591458 0.4572265
vn 0.7931243 0.1139806 -0.5982995
vn -0.9631758 0.2331742 0.1338737
vn -0.9799671 0.1453675 0.1361357
vn 0.7866795 0.1958677 -0.5854667
vn 0.7054127 0.1845029 -0.6843623
vn 0.7104439 0.1054991 -0.6958012
vn 0.5967888 0.09576503 -0.7966632
vn 0.5919467 0.1707733 -0.7876773
vn 0.4519727 0.08501804 -0.887971
vn 0.447066 0.1555787 -0.8808674
vn 0.3087742 0.07703466 -0.9480107
vn 0.3036972 0.1435004 -0.9419001
vn 0.1647561 0.07374062 -0.9835739
vn 0.1603654 0.1367832 -0.9775343
vn 0.0001229065 0.1344861 -0.9909155
vn 3.589274E-05 0.0731582 -0.9973204
vn -0.1646983 0.07350573 -0.9836013
vn 1.647918E-05 0.226131 -0.9740969
vn -0.1601684 0.1356715 -0.9777215
vn -0.0001110501 0.2260828 -0.9741081
vn -0.3035859 0.1413839 -0.9422559
vn -0.3087401 0.07659994 -0.9480569
vn -0.1538241 0.2277859 -0.9614841
vn -0.151935 0.2284956 -0.9616161
vn -0.1507488 0.198008 -0.9685389
vn -0.2962666 0.2089999 -0.9319577
vn -0.4470811 0.1525115 -0.8813959
vn -0.4519716 0.08441407 -0.8880292
vn -0.2966897 0.2364146 -0.9252478
vn -0.2968853 0.2386063 -0.9246221
vn -0.592196 0.1668436 -0.7883318
vn -0.5968375 0.09504151 -0.7967133
vn -0.7105401 0.1047477 -0.6958165
vn -0.4400858 0.2527798 -0.861642
vn -0.4427763 0.2561692 -0.8592592
vn -0.4436072 0.2257307 -0.8673283
vn -0.5906485 0.2447476 -0.7689168
vn -0.705945 0.1799763 -0.6850184
vn -0.7932346 0.1132765 -0.5982869
vn -0.582812 0.273569 -0.7651733
vn -0.5869526 0.2775171 -0.7605729
vn -0.6932634 0.2926548 -0.6585886
vn -0.6981366 0.2960282 -0.6518991
vn -0.7057153 0.2603447 -0.6589283
vn -0.7874064 0.191008 -0.5860946
vn -0.7744464 0.311767 -0.5504853
vn -0.7846941 0.27193 -0.5570539
vn -0.7699649 0.3093034 -0.5581087
vn -0.8819563 0.2021883 -0.4257614
vn -0.8911466 0.1222593 -0.436933
vn -0.9750637 0.1318768 -0.1784916
vn -0.8567346 0.3309472 -0.3955752
vn -0.8547187 0.3275158 -0.4027274
vn -0.9613212 0.2152932 -0.171786
vn -0.924928 0.3430669 -0.1637472
g JarFlipped_0
f 3/3/3 2/2/2 1/1/1
f 3/3/3 4/4/4 2/2/2
f 4/4/4 5/5/5 2/2/2
f 4/4/4 6/6/6 5/5/5
f 6/6/6 7/7/7 5/5/5
f 7/7/7 6/6/6 8/8/8
f 9/9/9 7/7/7 8/8/8
f 8/8/8 10/10/10 9/9/9
f 5/5/5 7/7/7 11/11/11
f 12/12/12 2/2/2 5/5/5
f 11/11/11 12/12/12 5/5/5
f 13/13/13 7/7/7 9/9/9
f 7/7/7 13/13/13 11/11/11
f 2/2/2 14/14/14 1/1/1
f 12/12/12 15/15/15 2/2/2
f 15/15/15 14/14/14 2/2/2
f 1/1/1 14/14/14 16/16/16
f 17/17/17 1/1/1 16/16/16
f 17/17/17 16/16/16 18/18/18
f 15/15/15 19/19/19 14/14/14
f 19/19/19 16/16/16 14/14/14
f 10/10/10 20/20/20 9/9/9
f 21/21/21 13/13/13 9/9/9
f 21/21/21 9/9/9 20/20/20
f 20/20/20 10/10/10 22/22/22
f 10/10/10 23/23/23 22/22/22
f 23/23/23 24/24/24 22/22/22
f 25/25/25 21/21/21 20/20/20
f 20/20/20 22/22/22 25/25/25
f 24/24/24 26/26/26 22/22/22
f 24/24/24 27/27/27 26/26/26
f 22/22/22 28/28/28 25/25/25
f 22/22/22 26/26/26 28/28/28
f 27/27/27 29/29/29 26/26/26
f 27/27/27 30/30/30 29/29/29
f 26/26/26 31/31/31 28/28/28
f 26/26/26 29/29/29 31/31/31
f 30/30/30 32/32/32 29/29/29
f 30/30/30 33/33/33 32/32/32
f 29/29/29 34/34/34 31/31/31
f 29/29/29 32/32/32 34/34/34
f 33/33/33 35/35/35 32/32/32
f 33/33/33 36/36/36 35/35/35
f 32/32/32 37/37/37 34/34/34
f 37/37/37 32/32/32 35/35/35
f 36/36/36 38/38/38 35/35/35
f 36/36/36 39/39/39 38/38/38
f 40/40/40 37/37/37 35/35/35
f 35/35/35 38/38/38 40/40/40
f 39/39/39 41/41/41 38/38/38
f 41/41/41 39/39/39 42/42/42
f 38/38/38 43/43/43 40/40/40
f 43/43/43 38/38/38 41/41/41
f 44/44/44 41/41/41 42/42/42
f 42/42/42 45/45/45 44/44/44
f 46/46/46 43/43/43 41/41/41
f 46/46/46 41/41/41 44/44/44
f 45/45/45 47/47/47 44/44/44
f 45/45/45 48/48/48 47/47/47
f 49/49/49 46/46/46 44/44/44
f 49/49/49 44/44/44 47/47/47
f 48/48/48 50/50/50 47/47/47
f 50/50/50 48/48/48 51/51/51
f 52/52/52 49/49/49 47/47/47
f 52/52/52 47/47/47 50/50/50
f 40/40/40 43/43/43 53/53/53
f 54/54/54 43/43/43 46/46/46
f 43/43/43 54/54/54 53/53/53
f 55/55/55 46/46/46 49/49/49
f 55/55/55 54/54/54 46/46/46
f 56/56/56 49/49/49 52/52/52
f 56/56/56 55/55/55 49/49/49
f 53/53/53 57/57/57 40/40/40
f 57/57/57 37/37/37 40/40/40
f 37/37/37 57/57/57 58/58/58
f 34/34/34 37/37/37 58/58/58
f 34/34/34 58/58/58 59/59/59
f 31/31/31 34/34/34 59/59/59
f 31/31/31 59/59/59 60/60/60
f 28/28/28 31/31/31 60/60/60
f 28/28/28 60/60/60 61/61/61
f 25/25/25 28/28/28 61/61/61
f 60/60/60 59/59/59 62/62/62
f 61/61/61 60/60/60 62/62/62
f 59/59/59 63/63/63 62/62/62
f 59/59/59 58/58/58 63/63/63
f 58/58/58 64/64/64 63/63/63
f 58/58/58 57/57/57 64/64/64
f 57/57/57 65/65/65 64/64/64
f 57/57/57 53/53/53 65/65/65
f 53/53/53 66/66/66 65/65/65
f 53/53/53 54/54/54 66/66/66
f 54/54/54 67/67/67 66/66/66
f 68/68/68 61/61/61 62/62/62
f 67/67/67 54/54/54 55/55/55
f 69/69/69 67/67/67 55/55/55
f 70/70/70 69/69/69 55/55/55
f 56/56/56 70/70/70 55/55/55
f 68/68/68 71/71/71 61/61/61
f 70/70/70 56/56/56 72/72/72
f 73/73/73 70/70/70 72/72/72
f 72/72/72 56/56/56 52/52/52
f 71/71/71 74/74/74 61/61/61
f 61/61/61 74/74/74 25/25/25
f 74/74/74 21/21/21 25/25/25
f 75/75/75 74/74/74 71/71/71
f 74/74/74 75/75/75 21/21/21
f 76/76/76 75/75/75 71/71/71
f 75/75/75 13/13/13 21/21/21
f 76/76/76 77/77/77 75/75/75
f 13/13/13 75/75/75 78/78/78
f 77/77/77 78/78/78 75/75/75
f 11/11/11 13/13/13 78/78/78
f 77/77/77 79/79/79 78/78/78
f 78/78/78 80/80/80 11/11/11
f 79/79/79 80/80/80 78/78/78
f 80/80/80 12/12/12 11/11/11
f 80/80/80 79/79/79 81/81/81
f 80/80/80 82/82/82 12/12/12
f 82/82/82 80/80/80 81/81/81
f 82/82/82 15/15/15 12/12/12
f 81/81/81 83/83/83 82/82/82
f 82/82/82 84/84/84 15/15/15
f 83/83/83 84/84/84 82/82/82
f 84/84/84 19/19/19 15/15/15
f 84/84/84 83/83/83 85/85/85
f 84/84/84 85/85/85 19/19/19
f 83/83/83 86/86/86 85/85/85
f 85/85/85 86/86/86 87/87/87
f 85/85/85 88/88/88 19/19/19
f 19/19/19 88/88/88 16/16/16
f 89/89/89 85/85/85 87/87/87
f 85/85/85 89/89/89 88/88/88
f 88/88/88 90/90/90 16/16/16
f 16/16/16 90/90/90 18/18/18
f 89/89/89 87/87/87 91/91/91
f 87/87/87 92/92/92 91/91/91
f 89/89/89 93/93/93 88/88/88
f 88/88/88 93/93/93 90/90/90
f 89/89/89 91/91/91 93/93/93
f 18/18/18 90/90/90 94/94/94
f 93/93/93 94/94/94 90/90/90
f 95/95/95 18/18/18 94/94/94
f 95/95/95 94/94/94 96/96/96
f 97/97/97 91/91/91 92/92/92
f 98/98/98 97/97/97 92/92/92
f 91/91/91 99/99/99 93/93/93
f 93/93/93 99/99/99 94/94/94
f 91/91/91 97/97/97 99/99/99
f 94/94/94 100/100/100 96/96/96
f 99/99/99 100/100/100 94/94/94
f 97/97/97 98/98/98 101/101/101
f 98/98/98 102/102/102 101/101/101
f 102/102/102 103/103/103 101/101/101
f 97/97/97 104/104/104 99/99/99
f 99/99/99 104/104/104 100/100/100
f 97/97/97 101/101/101 104/104/104
f 96/96/96 100/100/100 105/105/105
f 104/104/104 105/105/105 100/100/100
f 106/106/106 96/96/96 105/105/105
f 106/106/106 105/105/105 107/107/107
f 103/103/103 108/108/108 101/101/101
f 103/103/103 109/109/109 108/108/108
f 101/101/101 110/110/110 104/104/104
f 104/104/104 110/110/110 105/105/105
f 110/110/110 101/101/101 108/108/108
f 105/105/105 111/111/111 107/107/107
f 110/110/110 111/111/111 105/105/105
f 112/112/112 110/110/110 108/108/108
f 111/111/111 110/110/110 112/112/112
f 111/111/111 113/113/113 107/107/107
f 113/113/113 111/111/111 112/112/112
f 113/113/113 114/114/114 107/107/107
f 109/109/109 115/115/115 108/108/108
f 112/112/112 108/108/108 115/115/115
f 113/113/113 116/116/116 114/114/114
f 116/116/116 117/117/117 114/114/114
f 51/51/51 117/117/117 116/116/116
f 113/113/113 112/112/112 118/118/118
f 118/118/118 112/112/112 115/115/115
f 116/116/116 113/113/113 118/118/118
f 119/119/119 115/115/115 109/109/109
f 118/118/118 115/115/115 119/119/119
f 120/120/120 119/119/119 109/109/109
f 120/120/120 121/121/121 119/119/119
f 122/122/122 51/51/51 116/116/116
f 122/122/122 50/50/50 51/51/51
f 116/116/116 118/118/118 123/123/123
f 123/123/123 118/118/118 119/119/119
f 122/122/122 116/116/116 123/123/123
f 121/121/121 124/124/124 119/119/119
f 119/119/119 124/124/124 123/123/123
f 121/121/121 73/73/73 124/124/124
f 73/73/73 72/72/72 124/124/124
f 125/125/125 50/50/50 122/122/122
f 123/123/123 125/125/125 122/122/122
f 124/124/124 125/125/125 123/123/123
f 124/124/124 72/72/72 125/125/125
f 125/125/125 52/52/52 50/50/50
f 72/72/72 52/52/52 125/125/125
