g Lime
v -0.02783632 -3.457069E-06 -0.03118962
v -0.02783632 -0.5143161 -0.03118962
v -0.02794629 -0.5143161 0.02942312
v -0.02794629 -3.457069E-06 0.02942312
v -0.1435158 -0.4955101 -0.03118962
v -0.02783632 -0.5143161 -0.03118962
v -0.02783632 -3.457069E-06 -0.03118962
v -0.02783632 0.5143092 -0.03118962
v 0.1394064 -0.4964528 -0.03118962
v 0.2463192 -0.4484716 -0.03118962
v 0.3468063 -0.3763428 -0.03118962
v -0.1435158 0.4955032 -0.03118962
v 0.1140961 0.4965559 -0.03118962
v -0.2591796 0.4516855 -0.03118962
v 0.4219673 -0.2722265 -0.03118962
v -0.2591796 -0.4516923 -0.03118962
v 0.231111 0.4436572 -0.03118962
v -0.3586297 0.3704443 -0.03118962
v -0.3586297 -0.3704512 -0.03118962
v 0.4784481 -0.1436798 -0.03118962
v 0.344104 0.3602951 -0.03118962
v 0.4240254 0.2510885 -0.03118962
v 0.4934048 -0.009194314 -0.03118962
v 0.4772697 0.1259038 -0.03118962
v -0.4463124 0.2607821 -0.03118962
v -0.4463124 -0.260789 -0.03118962
v -0.4954246 -0.1346931 -0.03118962
v -0.4954246 0.1346863 -0.03118962
v -0.5146234 -3.457069E-06 -0.03118962
v -0.02783632 0.5143092 -0.03118962
v -0.02794629 0.5143092 0.02942312
v -0.1437672 0.4955032 0.02942312
v -0.1435158 0.4955032 -0.03118962
v -0.2596038 0.4516855 0.02942312
v -0.2591796 0.4516855 -0.03118962
v -0.3586297 0.3704443 -0.03118962
v -0.3591482 0.3704443 0.02942312
v -0.4469251 0.2607821 0.02942312
v -0.4463124 0.2607821 -0.03118962
v -0.4954246 0.1346863 -0.03118962
v -0.4961003 0.1346863 0.02942312
v -0.515299 -3.457069E-06 0.02942312
v -0.5146234 -3.457069E-06 -0.03118962
v -0.4954246 -0.1346931 -0.03118962
v -0.4961003 -0.1346931 0.02942312
v -0.4469251 -0.260789 0.02942312
v -0.4463124 -0.260789 -0.03118962
v -0.3586297 -0.3704512 -0.03118962
v -0.3591482 -0.3704512 0.02942312
v -0.2596038 -0.4516923 0.02942312
v -0.2591796 -0.4516923 -0.03118962
v -0.1437672 -0.4955101 0.02942312
v -0.1435158 -0.4955101 -0.03118962
v -0.02794629 -0.5143161 0.02942312
v -0.02783632 -0.5143161 -0.03118962
v -0.02794629 -3.457069E-06 0.02942312
v -0.02794629 -0.5143161 0.02942312
v -0.1437672 -0.4955101 0.02942312
v -0.02794629 0.5143092 0.02942312
v -0.1437672 0.4955032 0.02942312
v -0.2596038 0.4516855 0.02942312
v -0.2596038 -0.4516923 0.02942312
v -0.3591482 0.3704443 0.02942312
v -0.3591482 -0.3704512 0.02942312
v -0.4469251 0.2607821 0.02942312
v -0.4469251 -0.260789 0.02942312
v -0.4961003 0.1346863 0.02942312
v -0.4961003 -0.1346931 0.02942312
v -0.515299 -3.457069E-06 0.02942312
v 0.2465706 -0.4484088 0.02942312
v 0.1395007 -0.4964213 0.02942312
v 0.347199 -0.3762485 0.02942312
v 0.1145046 0.4966501 0.02942312
v 0.42247 -0.2721008 0.02942312
v 0.2316295 0.4437986 0.02942312
v 0.4790451 -0.1435227 0.02942312
v 0.3446853 0.3604522 0.02942312
v 0.4940647 -0.009021521 0.02942312
v 0.4246853 0.251277 0.02942312
v 0.4779296 0.1260767 0.02942312
v 0.1140961 0.4965559 -0.03118962
v -0.02794629 0.5143092 0.02942312
v -0.02783632 0.5143092 -0.03118962
v 0.1145046 0.4966501 0.02942312
v 0.231111 0.4436572 -0.03118962
v 0.2316295 0.4437986 0.02942312
v 0.3446853 0.3604522 0.02942312
v 0.344104 0.3602951 -0.03118962
v 0.4240254 0.2510885 -0.03118962
v 0.4246853 0.251277 0.02942312
v 0.4779296 0.1260767 0.02942312
v 0.4772697 0.1259038 -0.03118962
v 0.4934048 -0.009194314 -0.03118962
v 0.4940647 -0.009021521 0.02942312
v 0.4790451 -0.1435227 0.02942312
v 0.4784481 -0.1436798 -0.03118962
v 0.4219673 -0.2722265 -0.03118962
v 0.42247 -0.2721008 0.02942312
v 0.347199 -0.3762485 0.02942312
v 0.3468063 -0.3763428 -0.03118962
v 0.2463192 -0.4484716 -0.03118962
v 0.2465706 -0.4484088 0.02942312
v 0.1394064 -0.4964528 -0.03118962
v 0.1395007 -0.4964213 0.02942312
v 0.1394064 -0.4964528 -0.03118962
v -0.02783632 -3.457069E-06 -0.03118962
v -0.02794629 -3.457069E-06 0.02942312
v 0.1395007 -0.4964213 0.02942312
vt 0.4913839 0.508779
vt 0.4353328 0.02171404
vt 0.4015088 0.03234443
vt 0.4575599 0.5194095
vt 0.3319281 0.0594036
vt 0.4362992 0.03041163
vt 0.4875183 0.5010479
vt 0.5387375 0.9707178
vt 0.590923 0.03041163
vt 0.6933613 0.0632692
vt 0.791934 0.1193203
vt 0.4305008 0.9649194
vt 0.6663021 0.9407594
vt 0.3212977 0.9368938
vt 0.8711787 0.2072626
vt 0.2304562 0.1106227
vt 0.767774 0.8798763
vt 0.2217586 0.8721451
vt 0.1483123 0.1946994
vt 0.9359274 0.3183985
vt 0.8634475 0.7929004
vt 0.925297 0.6846637
vt 0.9629866 0.4401648
vt 0.9610538 0.5657966
vt 0.1309171 0.7803372
vt 0.07873158 0.3039025
vt 0.04684041 0.423736
vt 0.07293318 0.6701677
vt 0.04200842 0.5493678
vt 0.03717643 0.3000369
vt 0.03331083 0.2990705
vt 0.02751244 0.2768434
vt 0.05167241 0.2816754
vt 0.02268044 0.2526834
vt 0.065202 0.261381
vt 0.07679878 0.2391538
vt 0.02074765 0.227557
vt 0.01978125 0.2014642
vt 0.08742917 0.2149938
vt 0.09612677 0.1908339
vt 0.02171404 0.1753715
vt 0.02557964 0.1512115
vt 0.1009587 0.1666739
vt 0.1057907 0.1415475
vt 0.03137803 0.1260851
vt 0.04007562 0.1028915
vt 0.1077235 0.1164211
vt 0.1067571 0.08936197
vt 0.05070601 0.07776518
vt 0.0623028 0.05650441
vt 0.1048243 0.0642356
vt 0.07583238 0.03524363
vt 0.09999235 0.04104202
vt 0.09032837 0.01688205
vt 0.09419397 0.01784845
vt 0.4855855 0.5058799
vt 0.4295344 0.03621003
vt 0.3261297 0.0661684
vt 0.5416366 0.9745833
vt 0.4343664 0.9707178
vt 0.3232305 0.9426922
vt 0.2246578 0.1183539
vt 0.2236914 0.8798763
vt 0.1425139 0.203397
vt 0.1318835 0.7890348
vt 0.07486598 0.3135665
vt 0.07293318 0.6798317
vt 0.04394122 0.4334
vt 0.04104202 0.5590318
vt 0.6875629 0.0661684
vt 0.5841582 0.03427723
vt 0.787102 0.1212531
vt 0.6701677 0.9436586
vt 0.8673131 0.208229
vt 0.7706732 0.8827755
vt 0.9330282 0.3193649
vt 0.8653803 0.7938668
vt 0.9610538 0.4401648
vt 0.9262634 0.6856301
vt 0.9610538 0.5657966
vt 0.1048243 0.0642356
vt 0.07583238 0.03524363
vt 0.09999235 0.04104202
vt 0.0623028 0.05650441
vt 0.1067571 0.08936197
vt 0.05070601 0.07776518
vt 0.04007562 0.1028915
vt 0.1077235 0.1164211
vt 0.1057907 0.1415475
vt 0.03137803 0.1260851
vt 0.02557964 0.1512115
vt 0.1009587 0.1666739
vt 0.09612677 0.1908339
vt 0.02171404 0.1753715
vt 0.01978125 0.2014642
vt 0.08742917 0.2149938
vt 0.07679878 0.2391538
vt 0.02074765 0.227557
vt 0.02268044 0.2526834
vt 0.065202 0.261381
vt 0.05167241 0.2816754
vt 0.02751244 0.2768434
vt 0.03717643 0.3000369
vt 0.03331083 0.2990705
vt 0.5484015 0.9948778
vt 0.4913839 0.508779
vt 0.4575599 0.5194095
vt 0.5136111 1.005508
vn 0.9999925 0.003893852 0
vn 0.6459447 -0.7633842 0
vn 0.6459447 -0.7633842 0
vn 0.9999925 0.003893852 0
vn -0.003893852 0.003893852 -0.9999849
vn -0.003893852 0.003893852 -0.9999849
vn -0.003893852 0.003893852 -0.9999849
vn -0.003893852 0.003893852 -0.9999849
vn -0.003893852 0.003893852 -0.9999849
vn -0.003893852 0.003893852 -0.9999849
vn -0.003893852 0.003893852 -0.9999849
vn -0.003893852 0.003893852 -0.9999849
vn -0.003893852 0.003893852 -0.9999849
vn -0.003893852 0.003893852 -0.9999849
vn -0.003893852 0.003893852 -0.9999849
vn -0.003893852 0.003893852 -0.9999849
vn -0.003893852 0.003893852 -0.9999849
vn -0.003893852 0.003893852 -0.9999849
vn -0.003893852 0.003893852 -0.9999849
vn -0.003893852 0.003893852 -0.9999849
vn -0.003893852 0.003893852 -0.9999849
vn -0.003893852 0.003893852 -0.9999849
vn -0.003893852 0.003893852 -0.9999849
vn -0.003893852 0.003893852 -0.9999849
vn -0.003893852 0.003893852 -0.9999849
vn -0.003893852 0.003893852 -0.9999849
vn -0.003893852 0.003893852 -0.9999849
vn -0.003893852 0.003893852 -0.9999849
vn -0.003893852 0.003893852 -0.9999849
vn -0.01957712 0.9998083 0
vn -0.01957712 0.9998083 0
vn -0.2544744 0.9670795 0
vn -0.2544744 0.9670795 0
vn -0.4979942 0.8666087 -0.03148089
vn -0.4979942 0.8666087 -0.03148089
vn -0.7097515 0.7019086 -0.05980947
vn -0.7097515 0.7019086 -0.05980947
vn -0.8666087 0.4979942 -0.03148136
vn -0.8666087 0.4979942 -0.03148136
vn -0.9670795 0.2544744 0
vn -0.9670795 0.2544744 0
vn -0.9999374 0.003893852 -0.01048845
vn -0.9999374 0.003893852 -0.01048845
vn -0.967066 -0.2545258 0
vn -0.967066 -0.2545258 0
vn -0.8666087 -0.4980493 -0.03059682
vn -0.8666087 -0.4980493 -0.03059682
vn -0.7097515 -0.7019637 -0.05915891
vn -0.7097515 -0.7019637 -0.05915891
vn -0.4979942 -0.8666638 -0.0299269
vn -0.4979942 -0.8666638 -0.0299269
vn -0.2544609 -0.9670831 0
vn -0.2544609 -0.9670831 0
vn 0.6459447 -0.7633842 0
vn 0.6459447 -0.7633842 0
vn -0.003893852 0.003893852 0.9999849
vn -0.003893852 0.003893852 0.9999849
vn -0.003893852 0.003893852 0.9999849
vn -0.003893852 0.003893852 0.9999849
vn -0.003893852 0.003893852 0.9999849
vn -0.003893852 0.003893852 0.9999849
vn -0.003893852 0.003893852 0.9999849
vn -0.003893852 0.003893852 0.9999849
vn -0.003893852 0.003893852 0.9999849
vn -0.003893852 0.003893852 0.9999849
vn -0.003893852 0.003893852 0.9999849
vn -0.003893852 0.003893852 0.9999849
vn -0.003893852 0.003893852 0.9999849
vn -0.003893852 0.003893852 0.9999849
vn -0.003893852 0.003893852 0.9999849
vn -0.003893852 0.003893852 0.9999849
vn -0.003893852 0.003893852 0.9999849
vn -0.003893852 0.003893852 0.9999849
vn -0.003893852 0.003893852 0.9999849
vn -0.003893852 0.003893852 0.9999849
vn -0.003893852 0.003893852 0.9999849
vn -0.003893852 0.003893852 0.9999849
vn -0.003893852 0.003893852 0.9999849
vn -0.003893852 0.003893852 0.9999849
vn -0.003893852 0.003893852 0.9999849
vn 0.2706063 0.960723 -0.06150987
vn -0.01957712 0.9998083 0
vn -0.01957712 0.9998083 0
vn 0.2706063 0.960723 -0.06150987
vn 0.5041464 0.8636182 0
vn 0.5058922 0.8587658 -0.08120567
vn 0.7098066 0.7019086 -0.0591521
vn 0.7071342 0.7070794 0
vn 0.8666638 0.4979942 -0.0299274
vn 0.8666638 0.4979942 -0.0299274
vn 0.9670831 0.2544609 0
vn 0.9670831 0.2544609 0
vn 0.9999925 0.003893852 0
vn 0.9999925 0.003893852 0
vn 0.9651185 -0.2618133 0
vn 0.9651185 -0.2618133 0
vn 0.8666638 -0.4980493 -0.02899549
vn 0.8666638 -0.4980493 -0.02899549
vn 0.7071068 -0.7071068 0
vn 0.7019637 -0.7098066 -0.05849448
vn 0.4980493 -0.8666638 -0.02899523
vn 0.4980493 -0.8666638 -0.02899523
vn -0.4038799 -0.913721 -0.04466439
vn -0.396037 -0.913721 -0.09093181
vn -0.4038799 -0.913721 -0.04466439
vn -0.9450374 -0.3176635 0.07742285
vn -0.9450374 -0.3176635 0.07742285
vn -0.396037 -0.913721 -0.09093181
g Lime_0
f 3/3/3 2/2/2 1/1/1
f 4/4/4 3/3/3 1/1/1
f 7/7/7 6/6/6 5/5/5
f 5/5/5 8/8/8 7/7/7
f 9/9/9 7/7/7 8/8/8
f 10/10/10 9/9/9 8/8/8
f 11/11/11 10/10/10 8/8/8
f 5/5/5 12/12/12 8/8/8
f 13/13/13 11/11/11 8/8/8
f 14/14/14 12/12/12 5/5/5
f 15/15/15 11/11/11 13/13/13
f 16/16/16 14/14/14 5/5/5
f 17/17/17 15/15/15 13/13/13
f 18/18/18 14/14/14 16/16/16
f 19/19/19 18/18/18 16/16/16
f 20/20/20 15/15/15 17/17/17
f 21/21/21 20/20/20 17/17/17
f 21/21/21 22/22/22 20/20/20
f 22/22/22 23/23/23 20/20/20
f 22/22/22 24/24/24 23/23/23
f 25/25/25 18/18/18 19/19/19
f 26/26/26 25/25/25 19/19/19
f 26/26/26 27/27/27 25/25/25
f 27/27/27 28/28/28 25/25/25
f 27/27/27 29/29/29 28/28/28
f 32/32/32 31/31/31 30/30/30
f 33/33/33 32/32/32 30/30/30
f 32/32/32 33/33/33 34/34/34
f 33/33/33 35/35/35 34/34/34
f 34/34/34 35/35/35 36/36/36
f 37/37/37 34/34/34 36/36/36
f 37/37/37 36/36/36 38/38/38
f 36/36/36 39/39/39 38/38/38
f 38/38/38 39/39/39 40/40/40
f 41/41/41 38/38/38 40/40/40
f 41/41/41 40/40/40 42/42/42
f 40/40/40 43/43/43 42/42/42
f 42/42/42 43/43/43 44/44/44
f 45/45/45 42/42/42 44/44/44
f 45/45/45 44/44/44 46/46/46
f 44/44/44 47/47/47 46/46/46
f 46/46/46 47/47/47 48/48/48
f 49/49/49 46/46/46 48/48/48
f 49/49/49 48/48/48 50/50/50
f 48/48/48 51/51/51 50/50/50
f 52/52/52 50/50/50 51/51/51
f 53/53/53 52/52/52 51/51/51
f 52/52/52 53/53/53 54/54/54
f 53/53/53 55/55/55 54/54/54
f 58/58/58 57/57/57 56/56/56
f 56/56/56 59/59/59 58/58/58
f 59/59/59 60/60/60 58/58/58
f 60/60/60 61/61/61 58/58/58
f 61/61/61 62/62/62 58/58/58
f 61/61/61 63/63/63 62/62/62
f 63/63/63 64/64/64 62/62/62
f 63/63/63 65/65/65 64/64/64
f 65/65/65 66/66/66 64/64/64
f 65/65/65 67/67/67 66/66/66
f 67/67/67 68/68/68 66/66/66
f 67/67/67 69/69/69 68/68/68
f 59/59/59 56/56/56 70/70/70
f 56/56/56 71/71/71 70/70/70
f 70/70/70 72/72/72 59/59/59
f 72/72/72 73/73/73 59/59/59
f 72/72/72 74/74/74 73/73/73
f 74/74/74 75/75/75 73/73/73
f 74/74/74 76/76/76 75/75/75
f 76/76/76 77/77/77 75/75/75
f 76/76/76 78/78/78 77/77/77
f 78/78/78 79/79/79 77/77/77
f 78/78/78 80/80/80 79/79/79
f 83/83/83 82/82/82 81/81/81
f 82/82/82 84/84/84 81/81/81
f 85/85/85 81/81/81 84/84/84
f 86/86/86 85/85/85 84/84/84
f 86/86/86 87/87/87 85/85/85
f 87/87/87 88/88/88 85/85/85
f 89/89/89 88/88/88 87/87/87
f 90/90/90 89/89/89 87/87/87
f 90/90/90 91/91/91 89/89/89
f 91/91/91 92/92/92 89/89/89
f 93/93/93 92/92/92 91/91/91
f 94/94/94 93/93/93 91/91/91
f 94/94/94 95/95/95 93/93/93
f 95/95/95 96/96/96 93/93/93
f 97/97/97 96/96/96 95/95/95
f 98/98/98 97/97/97 95/95/95
f 98/98/98 99/99/99 97/97/97
f 99/99/99 100/100/100 97/97/97
f 101/101/101 100/100/100 99/99/99
f 102/102/102 101/101/101 99/99/99
f 101/101/101 102/102/102 103/103/103
f 102/102/102 104/104/104 103/103/103
f 107/107/107 106/106/106 105/105/105
f 108/108/108 107/107/107 105/105/105
