g Mask
v -1.8284E-15 1.893166 0.6467167
v -0.08433386 1.893166 0.6410189
v -0.1672439 1.893166 0.6243288
v -0.2473062 1.893166 0.5970501
v -0.3232079 1.893166 0.5597264
v -0.3936357 1.893166 0.5129019
v -0.4572978 1.893166 0.4572978
v -0.5129019 1.893166 0.3936357
v -0.5597264 1.893166 0.3232079
v -0.5970501 1.893166 0.2473062
v -0.6243289 1.893166 0.1672439
v -0.6410189 1.893166 0.08433386
v -0.6467167 1.893166 3.868905E-16
v -0.6410189 1.893166 -0.08433386
v -0.6243288 1.893166 -0.1672439
v -0.5970501 1.893166 -0.2473062
v -0.5597264 1.893166 -0.3232079
v -0.5129019 1.893166 -0.3936357
v -0.4572978 1.893166 -0.4572978
v -0.3936357 1.893166 -0.5129019
v -0.3232079 1.893166 -0.5597264
v -0.2473062 1.893166 -0.5970501
v -0.1672439 1.893166 -0.6243289
v -0.08433386 1.893166 -0.6410189
v -3.780975E-16 1.893166 -0.6467167
v 0.08433386 1.893166 -0.6410189
v 0.1672439 1.893166 -0.6243288
v 0.2473062 1.893166 -0.5970501
v 0.3232079 1.893166 -0.5597264
v 0.3936357 1.893166 -0.5129019
v 0.4572978 1.893166 -0.4572978
v 0.5129019 1.893166 -0.3936357
v 0.5597264 1.893166 -0.3232079
v 0.5970501 1.893166 -0.2473062
v 0.6243289 1.893166 -0.1672439
v 0.6410189 1.893166 -0.08433386
v 0.6467167 1.893166 -5.030104E-16
v 0.6410189 1.893166 0.08433386
v 0.6243288 1.893166 0.1672439
v 0.5970501 1.893166 0.2473062
v 0.5597264 1.893166 0.3232079
v 0.5129019 1.893166 0.3936357
v 0.4572978 1.893166 0.4572978
v 0.3936357 1.893166 0.5129019
v 0.3232079 1.893166 0.5597264
v 0.2473062 1.893166 0.5970501
v 0.1672439 1.893166 0.6243289
v 0.08433386 1.893166 0.6410189
vn 0 1 0
vn 0 1 0
vn 0 1 1.749742E-05
vn 0 1 -1.708858E-05
vn 0 1 -7.168809E-07
vn 0 1 -6.868986E-06
vn 0 1 -5.863414E-07
vn 0 1 0
vn 0 1 5.614895E-06
vn 0 1 -3.559772E-06
vn 0 1 2.807777E-06
vn 0 1 8.577145E-07
vn 0 1 0
vn 0 1 0
vn 0 1 0
vn 0 1 -1.771096E-06
vn 0 1 -7.675287E-07
vn 0 1 -3.601062E-07
vn 0 1 6.284697E-07
vn 0 1 1.846469E-07
vn 0 1 0
vn 0 1 0
vn 0 1 -2.074235E-07
vn 0 1 0
vn 0 1 0
vn 0 1 0
vn 0 1 -2.074234E-07
vn 0 1 0
vn 0 1 2.802234E-07
vn 0 1 2.918428E-07
vn 0 1 3.001556E-07
vn 0 1 -1.686983E-07
vn 0 1 -2.260314E-07
vn 0 1 -8.092496E-07
vn 0 1 9.548539E-07
vn 0 1 -1.627741E-06
vn 0 1 6.494274E-07
vn 0 1 -7.93318E-07
vn 0 1 1.109045E-06
vn 0 1 -6.375269E-07
vn 0 1 4.309079E-06
vn 0 1 -1.803502E-06
vn 0 1 -1.172682E-06
vn 0 1 -1.309121E-05
vn 0 1 9.690165E-06
vn 0 1 -1.66938E-05
vn 0 1 3.499462E-05
vn 0 1 0
g Mask_0
f 3/3/3 2/2/2 1/1/1
f 4/4/4 3/3/3 1/1/1
f 5/5/5 4/4/4 1/1/1
f 6/6/6 5/5/5 1/1/1
f 7/7/7 6/6/6 1/1/1
f 8/8/8 7/7/7 1/1/1
f 9/9/9 8/8/8 1/1/1
f 10/10/10 9/9/9 1/1/1
f 11/11/11 10/10/10 1/1/1
f 12/12/12 11/11/11 1/1/1
f 13/13/13 12/12/12 1/1/1
f 14/14/14 13/13/13 1/1/1
f 15/15/15 14/14/14 1/1/1
f 16/16/16 15/15/15 1/1/1
f 17/17/17 16/16/16 1/1/1
f 17/17/17 1/1/1 18/18/18
f 1/1/1 19/19/19 18/18/18
f 1/1/1 20/20/20 19/19/19
f 1/1/1 21/21/21 20/20/20
f 1/1/1 22/22/22 21/21/21
f 1/1/1 23/23/23 22/22/22
f 1/1/1 24/24/24 23/23/23
f 1/1/1 25/25/25 24/24/24
f 1/1/1 26/26/26 25/25/25
f 1/1/1 27/27/27 26/26/26
f 1/1/1 28/28/28 27/27/27
f 1/1/1 29/29/29 28/28/28
f 1/1/1 30/30/30 29/29/29
f 1/1/1 31/31/31 30/30/30
f 1/1/1 32/32/32 31/31/31
f 1/1/1 33/33/33 32/32/32
f 1/1/1 34/34/34 33/33/33
f 1/1/1 35/35/35 34/34/34
f 1/1/1 36/36/36 35/35/35
f 1/1/1 37/37/37 36/36/36
f 1/1/1 38/38/38 37/37/37
f 1/1/1 39/39/39 38/38/38
f 1/1/1 40/40/40 39/39/39
f 1/1/1 41/41/41 40/40/40
f 1/1/1 42/42/42 41/41/41
f 43/43/43 42/42/42 1/1/1
f 44/44/44 43/43/43 1/1/1
f 45/45/45 44/44/44 1/1/1
f 46/46/46 45/45/45 1/1/1
f 47/47/47 46/46/46 1/1/1
f 48/48/48 47/47/47 1/1/1
