g Mask
v 0.08264835 1.893166 0.6282074
v -1.0231E-15 1.893166 0.6337914
v 0.1639013 1.893166 0.6118509
v 0.2423635 1.893166 0.5851173
v 0.3167481 1.893166 0.5485397
v 0.3857685 1.893166 0.502651
v 0.4481582 1.893166 0.4481582
v 0.502651 1.893166 0.3857685
v 0.5485397 1.893166 0.3167482
v 0.5851173 1.893166 0.2423635
v 0.6118509 1.893166 0.1639013
v 0.6282074 1.893166 0.08264835
v 0.6337914 1.893166 -6.068689E-16
v 0.6282074 1.893166 -0.08264835
v 0.6118509 1.893166 -0.1639013
v 0.5851173 1.893166 -0.2423635
v 0.5485397 1.893166 -0.3167481
v 0.502651 1.893166 -0.3857685
v 0.4481582 1.893166 -0.4481582
v 0.3857685 1.893166 -0.502651
v 0.3167482 1.893166 -0.5485397
v 0.2423635 1.893166 -0.5851173
v 0.1639013 1.893166 -0.6118509
v 0.08264835 1.893166 -0.6282074
v -3.706097E-16 1.893166 -0.6337914
v -0.08264835 1.893166 -0.6282074
v -0.1639013 1.893166 -0.6118509
v -0.2423635 1.893166 -0.5851173
v -0.3167481 1.893166 -0.5485397
v -0.3857685 1.893166 -0.502651
v -0.4481582 1.893166 -0.4481582
v -0.502651 1.893166 -0.3857685
v -0.5485397 1.893166 -0.3167482
v -0.5851173 1.893166 -0.2423635
v -0.6118509 1.893166 -0.1639013
v -0.6282074 1.893166 -0.08264835
v -0.6337914 1.893166 3.792285E-16
v -0.6282074 1.893166 0.08264835
v -0.6118509 1.893166 0.1639013
v -0.5851173 1.893166 0.2423635
v -0.5485397 1.893166 0.3167481
v -0.502651 1.893166 0.3857685
v -0.4481582 1.893166 0.4481582
v -0.3857685 1.893166 0.502651
v -0.3167482 1.893166 0.5485397
v -0.2423635 1.893166 0.5851173
v -0.1639013 1.893166 0.6118509
v -0.08264835 1.893166 0.6282074
vn 0 1 0
vn 0 1 1.071432E-07
vn 0 1 1.821844E-05
vn 0 1 4.110492E-07
vn 0 1 0
vn 0 1 0
vn 0 1 0
vn 0 1 7.511252E-06
vn 0 1 -4.792459E-06
vn 0 1 3.706445E-06
vn 0 1 -2.923464E-06
vn 0 1 2.337278E-06
vn 0 1 -1.881562E-06
vn 0 1 1.527715E-06
vn 0 1 -1.255159E-06
vn 0 1 1.03704E-06
vn 0 1 -8.567158E-07
vn 0 1 -7.971781E-07
vn 0 1 0
vn 0 1 0
vn 0 1 5.835388E-07
vn 0 1 1.471812E-07
vn 0 1 -2.159701E-07
vn 0 1 0
vn 0 1 0
vn 0 1 0
vn 0 1 0
vn 0 1 0
vn 0 1 4.116366E-07
vn 0 1 6.283819E-07
vn 0 1 3.003605E-07
vn 0 1 -2.347625E-07
vn 0 1 -8.567168E-07
vn 0 1 1.037038E-06
vn 0 1 -1.255158E-06
vn 0 1 1.527715E-06
vn 0 1 -1.881562E-06
vn 0 1 2.337278E-06
vn 0 1 -2.923466E-06
vn 0 1 3.706446E-06
vn 0 1 -4.792456E-06
vn 0 1 7.511246E-06
vn 0 1 0
vn 0 1 0
vn 0 1 -7.464194E-07
vn 0 1 -1.738162E-05
vn 0 1 3.64369E-05
vn 0 1 0
g Mask_0
f 3/3/3 2/2/2 1/1/1
f 4/4/4 2/2/2 3/3/3
f 5/5/5 2/2/2 4/4/4
f 6/6/6 2/2/2 5/5/5
f 7/7/7 2/2/2 6/6/6
f 8/8/8 2/2/2 7/7/7
f 8/8/8 9/9/9 2/2/2
f 9/9/9 10/10/10 2/2/2
f 10/10/10 11/11/11 2/2/2
f 11/11/11 12/12/12 2/2/2
f 12/12/12 13/13/13 2/2/2
f 13/13/13 14/14/14 2/2/2
f 14/14/14 15/15/15 2/2/2
f 15/15/15 16/16/16 2/2/2
f 16/16/16 17/17/17 2/2/2
f 17/17/17 18/18/18 2/2/2
f 18/18/18 19/19/19 2/2/2
f 19/19/19 20/20/20 2/2/2
f 20/20/20 21/21/21 2/2/2
f 21/21/21 22/22/22 2/2/2
f 22/22/22 23/23/23 2/2/2
f 23/23/23 24/24/24 2/2/2
f 24/24/24 25/25/25 2/2/2
f 25/25/25 26/26/26 2/2/2
f 26/26/26 27/27/27 2/2/2
f 27/27/27 28/28/28 2/2/2
f 28/28/28 29/29/29 2/2/2
f 29/29/29 30/30/30 2/2/2
f 30/30/30 31/31/31 2/2/2
f 2/2/2 31/31/31 32/32/32
f 33/33/33 2/2/2 32/32/32
f 34/34/34 2/2/2 33/33/33
f 35/35/35 2/2/2 34/34/34
f 36/36/36 2/2/2 35/35/35
f 37/37/37 2/2/2 36/36/36
f 38/38/38 2/2/2 37/37/37
f 39/39/39 2/2/2 38/38/38
f 40/40/40 2/2/2 39/39/39
f 41/41/41 2/2/2 40/40/40
f 42/42/42 2/2/2 41/41/41
f 43/43/43 2/2/2 42/42/42
f 44/44/44 2/2/2 43/43/43
f 45/45/45 2/2/2 44/44/44
f 46/46/46 2/2/2 45/45/45
f 47/47/47 2/2/2 46/46/46
f 48/48/48 2/2/2 47/47/47
