g MouthSadA
v 0.07269345 0.01787479 0.003265373
v 0.08254514 -0.003151231 0.01077308
v 0.09261568 0.0004424453 0.01460147
v 0.1039327 -0.0381745 0.03529128
v 0.0869508 -0.03190064 0.02228362
v 0.07108534 -0.02809127 0.01168973
v 0.0673743 0.01011334 0.002859376
v 0.0560731 0.0253825 -0.003021181
v 0.06802136 0.0003631487 -0.01305049
v 0.05428737 -0.02593126 0.006224684
v 0.05216542 0.01682492 -0.002948232
v 0.03496145 0.03138041 -0.0089176
v 0.05307573 0.003531806 -0.0177099
v 0.03691211 -0.0263214 0.001704834
v 0.03616991 0.004762471 -0.02212825
v 0.01870268 -0.02667664 -0.001352802
v 0.03544039 0.01995551 -0.007468082
v 0.01764329 0.03324228 -0.01192766
v 0.01789703 0.02121789 -0.01048449
v -1.564622E-06 0.03376245 -0.01303463
v 0.01829351 0.00516212 -0.02516368
v -1.564622E-06 -0.02683523 -0.002478801
v -1.564622E-06 0.02148115 -0.01158828
v -1.564622E-06 0.005120888 -0.02626748
v -0.01789699 0.02121789 -0.01048449
v -0.01764324 0.03324228 -0.01192766
v -0.01829347 0.00516212 -0.02516368
v -0.01870263 -0.02667664 -0.001352802
v -0.03544035 0.01995551 -0.007468082
v -0.03496139 0.03138041 -0.0089176
v -0.03616986 0.004762471 -0.02212825
v -0.03691208 -0.0263214 0.001704834
v -0.05216537 0.01682492 -0.002948232
v -0.05607306 0.0253825 -0.003021181
v -0.05307568 0.003531806 -0.0177099
v -0.05428732 -0.02593126 0.006224684
v -0.06737427 0.01011334 0.002859376
v -0.07269341 0.01787479 0.003265373
v -0.06802132 0.0003631487 -0.01305049
v -0.0710853 -0.02809127 0.01168973
v -0.08254509 -0.003151231 0.01077308
v -0.09261564 0.0004424453 0.01460147
v -0.08695076 -0.03190064 0.02228362
v -0.1039327 -0.0381745 0.03529128
vt 0.4011903 0.9476467
vt 0.4011903 0.9476467
vt 0.4011903 0.9476467
vt 0.4011903 0.9476467
vt 0.4011903 0.9476467
vt 0.4011903 0.9476467
vt 0.4011903 0.9476467
vt 0.4011903 0.9476467
vt 0.4011903 0.9476467
vt 0.4011903 0.9476467
vt 0.4011903 0.9476467
vt 0.4011903 0.9476467
vt 0.4011903 0.9476467
vt 0.4011903 0.9476467
vt 0.4011903 0.9476467
vt 0.4011903 0.9476467
vt 0.4011903 0.9476467
vt 0.4011903 0.9476467
vt 0.4011903 0.9476467
vt 0.4011903 0.9476467
vt 0.4011903 0.9476467
vt 0.4011903 0.9476467
vt 0.4011903 0.9476467
vt 0.4011903 0.9476467
vt 0.4011903 0.9476467
vt 0.4011903 0.9476467
vt 0.4011903 0.9476467
vt 0.4011903 0.9476467
vt 0.4011903 0.9476467
vt 0.4011903 0.9476467
vt 0.4011903 0.9476467
vt 0.4011903 0.9476467
vt 0.4011903 0.9476467
vt 0.4011903 0.9476467
vt 0.4011903 0.9476467
vt 0.4011903 0.9476467
vt 0.4011903 0.9476467
vt 0.4011903 0.9476467
vt 0.4011903 0.9476467
vt 0.4011903 0.9476467
vt 0.4011903 0.9476467
vt 0.4011903 0.9476467
vt 0.4011903 0.9476467
vt 0.4011903 0.9476467
vn 0.3331893 -0.1496459 -0.9309087
vn 0.563795 -0.1778834 -0.8065313
vn 0.4131954 -0.2625957 -0.8719593
vn 0.5026139 -0.2673019 -0.822149
vn 0.5779138 -0.2720082 -0.7694331
vn 0.5026139 -0.4602578 -0.7318074
vn 0.5167326 0.2739156 -0.8111458
vn 0.2673019 -0.130821 -0.9546914
vn 0.5496763 0.06213486 -0.8330638
vn 0.1590584 -0.6202699 -0.7680922
vn 0.3426017 0.3115655 -0.8863131
vn 0.1920021 -0.1167023 -0.974431
vn 0.3520142 0.09507853 -0.9311531
vn 0.1637647 -0.601445 -0.7819495
vn 0.2390645 0.06684107 -0.9687003
vn 0.09317106 -0.5967387 -0.7970082
vn 0.229652 0.3068593 -0.9236327
vn 0.1072898 -0.1167023 -0.9873548
vn 0.1167023 0.3068593 -0.9445729
vn -0.0009537339 -0.1167023 -0.9931665
vn 0.1214085 0.05272233 -0.9912015
vn -0.0009537339 -0.5967387 -0.8024351
vn -0.0009537339 0.3068593 -0.9517544
vn -0.0009537339 0.04801613 -0.9988461
vn -0.1186097 0.3068593 -0.9443353
vn -0.104491 -0.1167023 -0.9876549
vn -0.1233159 0.05272233 -0.990966
vn -0.09507853 -0.5967387 -0.7967829
vn -0.2315595 0.3068593 -0.9231563
vn -0.1939095 -0.1167023 -0.9740532
vn -0.2409719 0.06684107 -0.9682277
vn -0.1609659 -0.601445 -0.7825305
vn -0.339803 0.3115655 -0.8873899
vn -0.2692094 -0.130821 -0.9541552
vn -0.3492154 0.09507853 -0.9322063
vn -0.1562597 -0.6202699 -0.7686664
vn -0.5139338 0.2739156 -0.8129221
vn -0.3303905 -0.1496459 -0.9319057
vn -0.5515838 0.06213486 -0.8318021
vn -0.5045214 -0.4602578 -0.7304937
vn -0.5609962 -0.1778834 -0.8084806
vn -0.4103966 -0.2625957 -0.8732801
vn -0.5798212 -0.2720082 -0.7679967
vn -0.5045214 -0.2673019 -0.8209798
g MouthSadA_0
f 3/3/3 2/2/2 1/1/1
f 4/4/4 2/2/2 3/3/3
f 4/4/4 5/5/5 2/2/2
f 2/2/2 5/5/5 6/6/6
f 2/2/2 7/7/7 1/1/1
f 1/1/1 7/7/7 8/8/8
f 9/9/9 2/2/2 6/6/6
f 2/2/2 9/9/9 7/7/7
f 6/6/6 10/10/10 9/9/9
f 7/7/7 11/11/11 8/8/8
f 7/7/7 9/9/9 11/11/11
f 8/8/8 11/11/11 12/12/12
f 10/10/10 13/13/13 9/9/9
f 9/9/9 13/13/13 11/11/11
f 13/13/13 10/10/10 14/14/14
f 15/15/15 13/13/13 14/14/14
f 13/13/13 15/15/15 11/11/11
f 14/14/14 16/16/16 15/15/15
f 11/11/11 17/17/17 12/12/12
f 15/15/15 17/17/17 11/11/11
f 12/12/12 17/17/17 18/18/18
f 17/17/17 19/19/19 18/18/18
f 17/17/17 15/15/15 19/19/19
f 18/18/18 19/19/19 20/20/20
f 16/16/16 21/21/21 15/15/15
f 15/15/15 21/21/21 19/19/19
f 16/16/16 22/22/22 21/21/21
f 19/19/19 23/23/23 20/20/20
f 19/19/19 21/21/21 23/23/23
f 22/22/22 24/24/24 21/21/21
f 21/21/21 24/24/24 23/23/23
f 23/23/23 25/25/25 20/20/20
f 23/23/23 24/24/24 25/25/25
f 25/25/25 26/26/26 20/20/20
f 24/24/24 22/22/22 27/27/27
f 24/24/24 27/27/27 25/25/25
f 22/22/22 28/28/28 27/27/27
f 25/25/25 29/29/29 26/26/26
f 25/25/25 27/27/27 29/29/29
f 29/29/29 30/30/30 26/26/26
f 27/27/27 28/28/28 31/31/31
f 27/27/27 31/31/31 29/29/29
f 28/28/28 32/32/32 31/31/31
f 29/29/29 33/33/33 30/30/30
f 29/29/29 31/31/31 33/33/33
f 33/33/33 34/34/34 30/30/30
f 31/31/31 32/32/32 35/35/35
f 31/31/31 35/35/35 33/33/33
f 32/32/32 36/36/36 35/35/35
f 33/33/33 37/37/37 34/34/34
f 33/33/33 35/35/35 37/37/37
f 37/37/37 38/38/38 34/34/34
f 35/35/35 36/36/36 39/39/39
f 35/35/35 39/39/39 37/37/37
f 36/36/36 40/40/40 39/39/39
f 37/37/37 41/41/41 38/38/38
f 39/39/39 41/41/41 37/37/37
f 39/39/39 40/40/40 41/41/41
f 41/41/41 42/42/42 38/38/38
f 40/40/40 43/43/43 41/41/41
f 41/41/41 44/44/44 42/42/42
f 41/41/41 43/43/43 44/44/44
