g MouthSmileA
v -0.04214361 -0.01097215 -0.0004636645
v -0.06140213 -0.00695499 0.002660796
v -0.06130977 -0.0181561 0.007193565
v 0.06130977 -0.0181561 0.007193565
v 0.06140212 -0.00695499 0.002660796
v 0.04214361 -0.01097215 -0.0004636645
v 0.04109315 -0.0354368 0.00999096
v 0.06590796 -0.02673681 0.01228428
v 0.06130977 -0.0181561 0.007193565
v 0.04165494 -0.02336224 0.004553944
v 0.02073415 -0.03868055 0.008097813
v 0.04214361 -0.01097215 -0.0004636645
v 0.02103429 -0.02600956 0.002287552
v 0.02129979 -0.01311541 -0.003041729
v 1.92225E-06 -0.03970792 0.007297456
v 1.92225E-06 -0.02677529 0.001340985
v 1.92225E-06 -0.01368489 -0.00410758
v -0.02129979 -0.01311541 -0.003041729
v -0.0210343 -0.02600956 0.002287552
v -0.02073416 -0.03868055 0.008097813
v -0.04214361 -0.01097215 -0.0004636645
v -0.04165494 -0.02336224 0.004553944
v -0.04109316 -0.0354368 0.00999096
v -0.06130977 -0.0181561 0.007193565
v -0.06590796 -0.02673681 0.01228428
v 0.06130977 -0.0181561 0.007193565
v 0.0747003 -0.002630003 0.005077243
v 0.06140212 -0.00695499 0.002660796
v 0.0791869 -0.008782722 0.008967429
v 0.06590796 -0.02673681 0.01228428
v 0.08543966 -0.01635145 0.01405813
v 0.0747003 -0.002630003 0.005077243
v 0.09701785 0.008097813 0.008898169
v 0.07994877 0.007724568 0.00329569
v 0.0791869 -0.008782722 0.008967429
v 0.08543966 -0.01635145 0.01405813
v 0.1058948 0.001560301 0.01478153
v 0.1221559 0.02211554 0.01188025
v 0.08164568 0.01892951 0.0003366917
v 0.07994877 0.007724568 0.00329569
v 0.09701785 0.008097813 0.008898169
v 0.09888022 0.02301979 0.004854068
v 0.08355036 0.03088094 -0.003603511
v 0.1021971 0.03258555 0.002649248
v 0.1260845 0.03524058 0.008286357
v 0.1221559 0.02211554 0.01188025
v -0.08164568 0.01892951 0.0003366917
v -0.06380703 0.02875693 -0.009406075
v -0.08355036 0.03088094 -0.003603511
v -0.06294511 0.01554726 -0.004276887
v -0.07994878 0.007724568 0.00329569
v -0.04338647 0.02707158 -0.01416972
v -0.06237948 0.004896402 -0.001044691
v -0.07470031 -0.002630003 0.005077243
v -0.06140213 -0.00695499 0.002660796
v -0.04281314 0.01272292 -0.008309439
v -0.02198087 0.02601726 -0.01744809
v -0.04251301 0.001633421 -0.004727088
v -0.04214361 -0.01097215 -0.0004636645
v -0.02166533 0.01118764 -0.01127228
v 1.92225E-06 0.02566326 -0.01867556
v -0.02149989 -0.0001596808 -0.00752832
v -0.02129979 -0.01311541 -0.003041729
v 1.92225E-06 0.01076438 -0.01244203
v 1.92225E-06 -0.0006252676 -0.008663438
v 1.92225E-06 -0.01368489 -0.00410758
v 0.02129979 -0.01311541 -0.003041729
v 0.02149988 -0.0001596808 -0.00752832
v 0.04214361 -0.01097215 -0.0004636645
v 0.02166533 0.01118764 -0.01127228
v 0.02198086 0.02601726 -0.01744809
v 0.04338647 0.02707158 -0.01416972
v 0.04251301 0.001633421 -0.004727088
v 0.06140212 -0.00695499 0.002660796
v 0.04281314 0.01272292 -0.008309439
v 0.06380703 0.02875693 -0.009406075
v 0.06237947 0.004896402 -0.001044691
v 0.0747003 -0.002630003 0.005077243
v 0.07994877 0.007724568 0.00329569
v 0.06294511 0.01554726 -0.004276887
v 0.08355036 0.03088094 -0.003603511
v 0.08164568 0.01892951 0.0003366917
v -0.06590796 -0.02673681 0.01228428
v -0.0791869 -0.008782722 0.008967429
v -0.08543967 -0.01635145 0.01405813
v -0.06130977 -0.0181561 0.007193565
v -0.07470031 -0.002630003 0.005077243
v -0.06140213 -0.00695499 0.002660796
v -0.1058948 0.001560301 0.01478153
v -0.09701785 0.008097813 0.008898169
v -0.1221559 0.02211554 0.01188025
v -0.08543967 -0.01635145 0.01405813
v -0.0791869 -0.008782722 0.008967429
v -0.07470031 -0.002630003 0.005077243
v -0.07994878 0.007724568 0.00329569
v -0.1260845 0.03524058 0.008286357
v -0.1221559 0.02211554 0.01188025
v -0.09701785 0.008097813 0.008898169
v -0.09888022 0.02301979 0.004854068
v -0.1021971 0.03258555 0.002649248
v -0.08164568 0.01892951 0.0003366917
v -0.07994878 0.007724568 0.00329569
v -0.08355036 0.03088094 -0.003603511
vt 0.08870194 0.9826867
vt 0.08870194 0.9826867
vt 0.08870194 0.9826867
vt 0.08870194 0.9826867
vt 0.08870194 0.9826867
vt 0.08870194 0.9826867
vt 0.302767 0.9098695
vt 0.302767 0.9098695
vt 0.302767 0.9098695
vt 0.302767 0.9098695
vt 0.302767 0.9098695
vt 0.302767 0.9098695
vt 0.302767 0.9098695
vt 0.302767 0.9098695
vt 0.302767 0.9098695
vt 0.302767 0.9098695
vt 0.302767 0.9098695
vt 0.302767 0.9098695
vt 0.302767 0.9098695
vt 0.302767 0.9098695
vt 0.302767 0.9098695
vt 0.302767 0.9098695
vt 0.302767 0.9098695
vt 0.302767 0.9098695
vt 0.302767 0.9098695
vt 0.09045658 0.9800547
vt 0.09045658 0.9800547
vt 0.09045658 0.9800547
vt 0.09045658 0.9800547
vt 0.09045658 0.9800547
vt 0.09045658 0.9800547
vt 0.08606999 0.9826867
vt 0.08606999 0.9826867
vt 0.08606999 0.9826867
vt 0.08606999 0.9826867
vt 0.08606999 0.9826867
vt 0.08606999 0.9826867
vt 0.08606999 0.9826867
vt 0.08782463 0.9826867
vt 0.08782463 0.9826867
vt 0.08782463 0.9826867
vt 0.08782463 0.9826867
vt 0.08782463 0.9826867
vt 0.08782463 0.9826867
vt 0.08782463 0.9826867
vt 0.08782463 0.9826867
vt 0.1229173 0.983564
vt 0.1229173 0.983564
vt 0.1229173 0.983564
vt 0.1229173 0.983564
vt 0.1229173 0.983564
vt 0.1229173 0.983564
vt 0.1229173 0.983564
vt 0.1229173 0.983564
vt 0.1229173 0.983564
vt 0.1229173 0.983564
vt 0.1229173 0.983564
vt 0.1229173 0.983564
vt 0.1229173 0.983564
vt 0.1229173 0.983564
vt 0.1229173 0.983564
vt 0.1229173 0.983564
vt 0.1229173 0.983564
vt 0.1229173 0.983564
vt 0.1229173 0.983564
vt 0.1229173 0.983564
vt 0.1229173 0.983564
vt 0.1229173 0.983564
vt 0.1229173 0.983564
vt 0.1229173 0.983564
vt 0.1229173 0.983564
vt 0.1229173 0.983564
vt 0.1229173 0.983564
vt 0.1229173 0.983564
vt 0.1229173 0.983564
vt 0.1229173 0.983564
vt 0.1229173 0.983564
vt 0.1229173 0.983564
vt 0.1229173 0.983564
vt 0.1229173 0.983564
vt 0.1229173 0.983564
vt 0.1229173 0.983564
vt 0.09045658 0.9800547
vt 0.09045658 0.9800547
vt 0.09045658 0.9800547
vt 0.09045658 0.9800547
vt 0.09045658 0.9800547
vt 0.09045658 0.9800547
vt 0.08606999 0.9826867
vt 0.08606999 0.9826867
vt 0.08606999 0.9826867
vt 0.08606999 0.9826867
vt 0.08606999 0.9826867
vt 0.08606999 0.9826867
vt 0.08606999 0.9826867
vt 0.08782463 0.9826867
vt 0.08782463 0.9826867
vt 0.08782463 0.9826867
vt 0.08782463 0.9826867
vt 0.08782463 0.9826867
vt 0.08782463 0.9826867
vt 0.08782463 0.9826867
vt 0.08782463 0.9826867
vn -0.1866608 -0.3490334 -0.9183319
vn -0.2471423 -0.3375131 -0.9082982
vn -0.2471423 -0.3807142 -0.8910541
vn 0.2482307 -0.3807142 -0.8907515
vn 0.2482307 -0.3375131 -0.9080013
vn 0.1848691 -0.3490334 -0.9186943
vn 0.181989 -0.412395 -0.8926424
vn 0.2539909 -0.3864744 -0.8866376
vn 0.2482307 -0.3807142 -0.8907515
vn 0.1877491 -0.3951146 -0.8992412
vn 0.1013469 -0.4152751 -0.9040328
vn 0.1848691 -0.3490334 -0.9186943
vn 0.1042269 -0.3979947 -0.9114478
vn 0.1042269 -0.3547935 -0.929117
vn 0.0005441904 -0.4181552 -0.9083754
vn 0.0005441904 -0.4008747 -0.9161327
vn 0.0005441904 -0.3576736 -0.9338465
vn -0.1031386 -0.3547935 -0.9292384
vn -0.1031386 -0.3979947 -0.9115715
vn -0.1002585 -0.4152751 -0.9041542
vn -0.1866608 -0.3490334 -0.9183319
vn -0.1866608 -0.3951146 -0.8994678
vn -0.1837807 -0.412395 -0.8922752
vn -0.2471423 -0.3807142 -0.8910541
vn -0.2557825 -0.3864744 -0.8861224
vn 0.2482307 -0.3807142 -0.8907515
vn 0.2856717 -0.3259928 -0.9011772
vn 0.2482307 -0.3375131 -0.9080013
vn 0.297192 -0.3490334 -0.8887365
vn 0.2539909 -0.3864744 -0.8866376
vn 0.3029522 -0.3547935 -0.8845007
vn 0.2856717 -0.3259928 -0.9011772
vn 0.3058322 -0.3231127 -0.8955807
vn 0.2914318 -0.3000721 -0.9083084
vn 0.297192 -0.3490334 -0.8887365
vn 0.3029522 -0.3547935 -0.8845007
vn 0.3173525 -0.3547935 -0.8794367
vn 0.2712713 -0.3144725 -0.9096807
vn 0.297192 -0.3144725 -0.9015453
vn 0.2914318 -0.3000721 -0.9083084
vn 0.3058322 -0.3231127 -0.8955807
vn 0.2885518 -0.3087123 -0.9063303
vn 0.3058322 -0.3403931 -0.8891565
vn 0.2770315 -0.3115924 -0.9089355
vn 0.259751 -0.3029522 -0.9169239
vn 0.2712713 -0.3144725 -0.9096807
vn -0.2989837 -0.3144725 -0.9009528
vn -0.2644228 -0.3605537 -0.8944728
vn -0.3076239 -0.3403931 -0.8885381
vn -0.2557825 -0.3288729 -0.9090753
vn -0.2932236 -0.3000721 -0.9077316
vn -0.198181 -0.374954 -0.9056123
vn -0.2471423 -0.3000721 -0.9213455
vn -0.2845833 -0.3259928 -0.9015215
vn -0.2471423 -0.3375131 -0.9082982
vn -0.1924209 -0.3403931 -0.920384
vn -0.1088987 -0.3835943 -0.9170586
vn -0.1866608 -0.3115924 -0.9317016
vn -0.1866608 -0.3490334 -0.9183319
vn -0.1060186 -0.3490334 -0.9310939
vn 0.0005441904 -0.3864744 -0.9223
vn -0.1031386 -0.3202326 -0.9417077
vn -0.1031386 -0.3547935 -0.9292384
vn 0.0005441904 -0.3490334 -0.9371101
vn 0.0005441904 -0.3202326 -0.9473388
vn 0.0005441904 -0.3576736 -0.9338465
vn 0.1042269 -0.3547935 -0.929117
vn 0.1042269 -0.3202326 -0.9415879
vn 0.1848691 -0.3490334 -0.9186943
vn 0.107107 -0.3490334 -0.9309693
vn 0.107107 -0.3835943 -0.9172696
vn 0.1963893 -0.374954 -0.9060026
vn 0.1877491 -0.3115924 -0.9314829
vn 0.2482307 -0.3375131 -0.9080013
vn 0.1935093 -0.3403931 -0.9201558
vn 0.2655112 -0.3605537 -0.8941504
vn 0.2482307 -0.3000721 -0.9210528
vn 0.2856717 -0.3259928 -0.9011772
vn 0.2914318 -0.3000721 -0.9083084
vn 0.2568709 -0.3288729 -0.9087684
vn 0.3058322 -0.3403931 -0.8891565
vn 0.297192 -0.3144725 -0.9015453
vn -0.2557825 -0.3864744 -0.8861224
vn -0.2961036 -0.3490334 -0.8890998
vn -0.3047438 -0.3547935 -0.883885
vn -0.2471423 -0.3807142 -0.8910541
vn -0.2845833 -0.3259928 -0.9015215
vn -0.2471423 -0.3375131 -0.9082982
vn -0.3162642 -0.3547935 -0.8798287
vn -0.3047438 -0.3231127 -0.8959516
vn -0.273063 -0.3144725 -0.9091445
vn -0.3047438 -0.3547935 -0.883885
vn -0.2961036 -0.3490334 -0.8890998
vn -0.2845833 -0.3259928 -0.9015215
vn -0.2932236 -0.3000721 -0.9077316
vn -0.2615427 -0.3029522 -0.9164144
vn -0.273063 -0.3144725 -0.9091445
vn -0.3047438 -0.3231127 -0.8959516
vn -0.2903435 -0.3087123 -0.9057579
vn -0.2788232 -0.3115924 -0.9083875
vn -0.2989837 -0.3144725 -0.9009528
vn -0.2932236 -0.3000721 -0.9077316
vn -0.3076239 -0.3403931 -0.8885381
g MouthSmileA_0
f 3/3/3 2/2/2 1/1/1
f 6/6/6 5/5/5 4/4/4
f 9/9/9 8/8/8 7/7/7
f 10/10/10 9/9/9 7/7/7
f 10/10/10 7/7/7 11/11/11
f 12/12/12 9/9/9 10/10/10
f 13/13/13 10/10/10 11/11/11
f 12/12/12 10/10/10 13/13/13
f 14/14/14 12/12/12 13/13/13
f 13/13/13 11/11/11 15/15/15
f 14/14/14 13/13/13 16/16/16
f 16/16/16 13/13/13 15/15/15
f 17/17/17 14/14/14 16/16/16
f 18/18/18 17/17/17 16/16/16
f 19/19/19 16/16/16 15/15/15
f 19/19/19 18/18/18 16/16/16
f 20/20/20 19/19/19 15/15/15
f 21/21/21 18/18/18 19/19/19
f 22/22/22 19/19/19 20/20/20
f 22/22/22 21/21/21 19/19/19
f 23/23/23 22/22/22 20/20/20
f 24/24/24 21/21/21 22/22/22
f 24/24/24 22/22/22 23/23/23
f 25/25/25 24/24/24 23/23/23
f 28/28/28 27/27/27 26/26/26
f 27/27/27 29/29/29 26/26/26
f 26/26/26 29/29/29 30/30/30
f 29/29/29 31/31/31 30/30/30
f 34/34/34 33/33/33 32/32/32
f 33/33/33 35/35/35 32/32/32
f 35/35/35 33/33/33 36/36/36
f 33/33/33 37/37/37 36/36/36
f 33/33/33 38/38/38 37/37/37
f 41/41/41 40/40/40 39/39/39
f 42/42/42 41/41/41 39/39/39
f 42/42/42 39/39/39 43/43/43
f 44/44/44 42/42/42 43/43/43
f 42/42/42 44/44/44 45/45/45
f 41/41/41 42/42/42 45/45/45
f 46/46/46 41/41/41 45/45/45
f 49/49/49 48/48/48 47/47/47
f 48/48/48 50/50/50 47/47/47
f 47/47/47 50/50/50 51/51/51
f 48/48/48 52/52/52 50/50/50
f 50/50/50 53/53/53 51/51/51
f 51/51/51 53/53/53 54/54/54
f 53/53/53 55/55/55 54/54/54
f 52/52/52 56/56/56 50/50/50
f 50/50/50 56/56/56 53/53/53
f 52/52/52 57/57/57 56/56/56
f 53/53/53 58/58/58 55/55/55
f 56/56/56 58/58/58 53/53/53
f 58/58/58 59/59/59 55/55/55
f 57/57/57 60/60/60 56/56/56
f 56/56/56 60/60/60 58/58/58
f 57/57/57 61/61/61 60/60/60
f 58/58/58 62/62/62 59/59/59
f 60/60/60 62/62/62 58/58/58
f 62/62/62 63/63/63 59/59/59
f 61/61/61 64/64/64 60/60/60
f 60/60/60 64/64/64 62/62/62
f 62/62/62 65/65/65 63/63/63
f 64/64/64 65/65/65 62/62/62
f 65/65/65 66/66/66 63/63/63
f 66/66/66 65/65/65 67/67/67
f 65/65/65 68/68/68 67/67/67
f 65/65/65 64/64/64 68/68/68
f 67/67/67 68/68/68 69/69/69
f 70/70/70 64/64/64 61/61/61
f 64/64/64 70/70/70 68/68/68
f 71/71/71 70/70/70 61/61/61
f 71/71/71 72/72/72 70/70/70
f 68/68/68 73/73/73 69/69/69
f 68/68/68 70/70/70 73/73/73
f 69/69/69 73/73/73 74/74/74
f 72/72/72 75/75/75 70/70/70
f 70/70/70 75/75/75 73/73/73
f 72/72/72 76/76/76 75/75/75
f 73/73/73 77/77/77 74/74/74
f 73/73/73 75/75/75 77/77/77
f 74/74/74 77/77/77 78/78/78
f 77/77/77 79/79/79 78/78/78
f 76/76/76 80/80/80 75/75/75
f 75/75/75 80/80/80 77/77/77
f 77/77/77 80/80/80 79/79/79
f 76/76/76 81/81/81 80/80/80
f 80/80/80 82/82/82 79/79/79
f 81/81/81 82/82/82 80/80/80
f 85/85/85 84/84/84 83/83/83
f 84/84/84 86/86/86 83/83/83
f 84/84/84 87/87/87 86/86/86
f 87/87/87 88/88/88 86/86/86
f 91/91/91 90/90/90 89/89/89
f 89/89/89 90/90/90 92/92/92
f 90/90/90 93/93/93 92/92/92
f 93/93/93 90/90/90 94/94/94
f 90/90/90 95/95/95 94/94/94
f 98/98/98 97/97/97 96/96/96
f 99/99/99 98/98/98 96/96/96
f 100/100/100 99/99/99 96/96/96
f 98/98/98 99/99/99 101/101/101
f 99/99/99 100/100/100 101/101/101
f 102/102/102 98/98/98 101/101/101
f 100/100/100 103/103/103 101/101/101
