g MouthNeutralA
v 0.07518981 -0.01259644 -0.001829036
v 0.09579618 0.004361734 -0.0006709322
v 0.08537981 0.005870879 -0.005136028
v 0.1075019 0.02676595 -0.001979947
v 0.08993677 0.02439397 -0.009259924
v 0.07352647 0.02325555 -0.01399405
v 0.069688 -0.006799363 -0.005470663
v 0.0579987 -0.02034885 -0.003397234
v 0.07035727 0.005723245 -0.009348504
v 0.05615164 0.0217989 -0.01839352
v 0.05395682 -0.01379392 -0.007019177
v 0.03616205 -0.02682504 -0.005319752
v 0.05489839 0.003695741 -0.01266862
v 0.03817971 0.0206408 -0.02200891
v 0.03741201 0.001333602 -0.01550975
v 0.01934494 0.01992888 -0.02449571
v 0.03665745 -0.01763567 -0.009122133
v 0.01824917 -0.02921343 -0.006815769
v 0.01851163 -0.01957131 -0.01088061
v -1.624227E-06 -0.029968 -0.007439114
v 0.01892173 5.411357E-05 -0.01765536
v -1.624227E-06 0.01968939 -0.02542088
v -1.624227E-06 -0.02012576 -0.01161222
v -1.624227E-06 -0.0002706796 -0.01851492
v -0.0185116 -0.01957131 -0.01088061
v -0.01824913 -0.02921343 -0.006815769
v -0.01892168 5.411357E-05 -0.01765536
v -0.0193449 0.01992888 -0.02449571
v -0.0366574 -0.01763567 -0.009122133
v -0.03616201 -0.02682504 -0.005319752
v -0.03741198 0.001333602 -0.01550975
v -0.03817967 0.0206408 -0.02200891
v -0.05395678 -0.01379392 -0.007019177
v -0.05799866 -0.02034885 -0.003397234
v -0.05489836 0.003695741 -0.01266862
v -0.05615161 0.0217989 -0.01839352
v -0.06968797 -0.006799363 -0.005470663
v -0.07518978 -0.01259644 -0.001829036
v -0.07035724 0.005723245 -0.009348504
v -0.07352643 0.02325555 -0.01399405
v -0.08537977 0.005870879 -0.005136028
v -0.09579615 0.004361734 -0.0006709322
v -0.08993673 0.02439397 -0.009259924
v -0.1075019 0.02676595 -0.001979947
vt 0.2686573 0.9857343
vt 0.2686573 0.9857343
vt 0.2686573 0.9857343
vt 0.2686573 0.9857343
vt 0.2686573 0.9857343
vt 0.2686573 0.9857343
vt 0.2686573 0.9857343
vt 0.2686573 0.9857343
vt 0.2686573 0.9857343
vt 0.2686573 0.9857343
vt 0.2686573 0.9857343
vt 0.2686573 0.9857343
vt 0.2686573 0.9857343
vt 0.2686573 0.9857343
vt 0.2686573 0.9857343
vt 0.2686573 0.9857343
vt 0.2686573 0.9857343
vt 0.2686573 0.9857343
vt 0.2686573 0.9857343
vt 0.2686573 0.9857343
vt 0.2686573 0.9857343
vt 0.2686573 0.9857343
vt 0.2686573 0.9857343
vt 0.2686573 0.9857343
vt 0.2686573 0.9857343
vt 0.2686573 0.9857343
vt 0.2686573 0.9857343
vt 0.2686573 0.9857343
vt 0.2686573 0.9857343
vt 0.2686573 0.9857343
vt 0.2686573 0.9857343
vt 0.2686573 0.9857343
vt 0.2686573 0.9857343
vt 0.2686573 0.9857343
vt 0.2686573 0.9857343
vt 0.2686573 0.9857343
vt 0.2686573 0.9857343
vt 0.2686573 0.9857343
vt 0.2686573 0.9857343
vt 0.2686573 0.9857343
vt 0.2686573 0.9857343
vt 0.2686573 0.9857343
vt 0.2686573 0.9857343
vt 0.2686573 0.9857343
vn 0.2778015 -0.3354375 -0.9001711
vn 0.338471 -0.2656675 -0.9026949
vn 0.3081362 -0.2960023 -0.9041209
vn 0.3839732 -0.2717345 -0.8824539
vn 0.3475715 -0.2869019 -0.8926821
vn 0.262634 -0.2899354 -0.9203048
vn 0.2565671 -0.3233036 -0.9108502
vn 0.2201653 -0.3627388 -0.9055097
vn 0.2535336 -0.2960023 -0.9209253
vn 0.2262323 -0.3051028 -0.9250574
vn 0.2110649 -0.3415045 -0.9158746
vn 0.1564623 -0.3839732 -0.9099913
vn 0.2171319 -0.3081362 -0.926232
vn 0.1685962 -0.3172367 -0.9332396
vn 0.1625292 -0.3202702 -0.9332798
vn 0.09275922 -0.3263371 -0.9406911
vn 0.1594958 -0.3536384 -0.9216838
vn 0.08669227 -0.3900402 -0.9167078
vn 0.08972576 -0.3566719 -0.929911
vn -0.001278609 -0.3900402 -0.920797
vn 0.08972576 -0.3263371 -0.9409853
vn -0.001278609 -0.3263371 -0.9452526
vn -0.001278609 -0.3597054 -0.9330651
vn -0.001278609 -0.3263371 -0.9452526
vn -0.08924949 -0.3566719 -0.9299569
vn -0.08621603 -0.3900402 -0.9167527
vn -0.08924949 -0.3263371 -0.9410306
vn -0.09228298 -0.3263371 -0.940738
vn -0.1590195 -0.3536384 -0.921766
vn -0.1559861 -0.3839732 -0.910073
vn -0.162053 -0.3202702 -0.9333627
vn -0.16812 -0.3172367 -0.9333255
vn -0.2105886 -0.3415045 -0.9159842
vn -0.2196891 -0.3627388 -0.9056253
vn -0.2166556 -0.3081362 -0.9263436
vn -0.225756 -0.3051028 -0.9251738
vn -0.2560908 -0.3233036 -0.9109842
vn -0.2773252 -0.3354375 -0.9003179
vn -0.2530574 -0.2960023 -0.9210562
vn -0.2621578 -0.2899354 -0.9204406
vn -0.30766 -0.2960023 -0.9042831
vn -0.3379948 -0.2656675 -0.9028733
vn -0.3470952 -0.2869019 -0.8928674
vn -0.3834969 -0.2717345 -0.882661
g MouthNeutralA_0
f 3/3/3 2/2/2 1/1/1
f 3/3/3 4/4/4 2/2/2
f 5/5/5 4/4/4 3/3/3
f 5/5/5 3/3/3 6/6/6
f 7/7/7 3/3/3 1/1/1
f 7/7/7 1/1/1 8/8/8
f 3/3/3 9/9/9 6/6/6
f 9/9/9 3/3/3 7/7/7
f 10/10/10 6/6/6 9/9/9
f 11/11/11 7/7/7 8/8/8
f 9/9/9 7/7/7 11/11/11
f 11/11/11 8/8/8 12/12/12
f 13/13/13 10/10/10 9/9/9
f 13/13/13 9/9/9 11/11/11
f 10/10/10 13/13/13 14/14/14
f 13/13/13 15/15/15 14/14/14
f 15/15/15 13/13/13 11/11/11
f 16/16/16 14/14/14 15/15/15
f 17/17/17 11/11/11 12/12/12
f 17/17/17 15/15/15 11/11/11
f 17/17/17 12/12/12 18/18/18
f 19/19/19 17/17/17 18/18/18
f 15/15/15 17/17/17 19/19/19
f 19/19/19 18/18/18 20/20/20
f 21/21/21 16/16/16 15/15/15
f 21/21/21 15/15/15 19/19/19
f 22/22/22 16/16/16 21/21/21
f 23/23/23 19/19/19 20/20/20
f 21/21/21 19/19/19 23/23/23
f 24/24/24 22/22/22 21/21/21
f 24/24/24 21/21/21 23/23/23
f 25/25/25 23/23/23 20/20/20
f 24/24/24 23/23/23 25/25/25
f 26/26/26 25/25/25 20/20/20
f 22/22/22 24/24/24 27/27/27
f 27/27/27 24/24/24 25/25/25
f 28/28/28 22/22/22 27/27/27
f 29/29/29 25/25/25 26/26/26
f 27/27/27 25/25/25 29/29/29
f 30/30/30 29/29/29 26/26/26
f 28/28/28 27/27/27 31/31/31
f 31/31/31 27/27/27 29/29/29
f 32/32/32 28/28/28 31/31/31
f 33/33/33 29/29/29 30/30/30
f 31/31/31 29/29/29 33/33/33
f 34/34/34 33/33/33 30/30/30
f 32/32/32 31/31/31 35/35/35
f 35/35/35 31/31/31 33/33/33
f 36/36/36 32/32/32 35/35/35
f 37/37/37 33/33/33 34/34/34
f 35/35/35 33/33/33 37/37/37
f 38/38/38 37/37/37 34/34/34
f 36/36/36 35/35/35 39/39/39
f 39/39/39 35/35/35 37/37/37
f 40/40/40 36/36/36 39/39/39
f 41/41/41 37/37/37 38/38/38
f 41/41/41 39/39/39 37/37/37
f 40/40/40 39/39/39 41/41/41
f 42/42/42 41/41/41 38/38/38
f 43/43/43 40/40/40 41/41/41
f 44/44/44 41/41/41 42/42/42
f 43/43/43 41/41/41 44/44/44
