g MouthSadA
v 0.1196948 -0.02392749 0.03894679
v 0.1196948 -0.02392749 0.003958225
v 0.1123272 -0.03361487 0.003958225
v 0.1123272 -0.03361487 0.03894679
v -0.1138724 -0.03361487 0.003958225
v -0.1138724 -0.03361487 0.03894679
v -0.07897574 -0.03239062 0.03894679
v -0.07897574 -0.03239062 0.003958225
v -0.02939911 -0.03138696 0.003958225
v -0.02939911 -0.03138696 0.03894679
v 0.02785391 -0.03138696 0.003958225
v 0.02785391 -0.03138696 0.03894679
v 0.07743055 -0.03239062 0.003958225
v 0.07743055 -0.03239062 0.03894679
v 0.1123272 -0.03361487 0.03894679
v 0.1123272 -0.03361487 0.003958225
v -0.12124 -0.02392749 0.003958225
v -0.12124 -0.02392749 0.03894679
v -0.1138724 -0.03361487 0.03894679
v -0.1138724 -0.03361487 0.003958225
v 0.1123272 -0.006346807 0.003958225
v 0.1123272 -0.006346807 0.03894679
v 0.07714747 0.01499854 0.03894679
v 0.07714747 0.01499854 0.003958225
v -0.12124 -0.02392749 0.03894679
v -0.07897574 -0.03239062 0.03894679
v -0.1138724 -0.03361487 0.03894679
v -0.08392054 -0.005372554 0.03894679
v -0.1138724 -0.006346807 0.03894679
v -0.07869266 0.01499854 0.03894679
v -0.0312079 0.009675071 0.03894679
v -0.02929249 0.03230716 0.03894679
v 0.02966271 0.009675071 0.03894679
v 0.0277473 0.03230716 0.03894679
v 0.08237535 -0.005372554 0.03894679
v 0.07714747 0.01499854 0.03894679
v 0.07743055 -0.03239062 0.03894679
v 0.02785391 -0.03138696 0.03894679
v 0.1123272 -0.03361487 0.03894679
v 0.1196948 -0.02392749 0.03894679
v 0.1123272 -0.006346807 0.03894679
v -0.02939911 -0.03138696 0.03894679
v -0.08392054 -0.005372554 0.03894679
v -0.0312079 0.009675071 0.03894679
v 0.02966271 0.009675071 0.03894679
v -0.07869266 0.01499854 0.003958225
v -0.07869266 0.01499854 0.03894679
v -0.1138724 -0.006346807 0.03894679
v -0.1138724 -0.006346807 0.003958225
v -0.07869266 0.01499854 0.003958225
v -0.02929249 0.03230716 0.003958225
v -0.02929249 0.03230716 0.03894679
v -0.07869266 0.01499854 0.03894679
v -0.02929249 0.03230716 0.003958225
v 0.0277473 0.03230716 0.003958225
v 0.0277473 0.03230716 0.03894679
v -0.02929249 0.03230716 0.03894679
v 0.0277473 0.03230716 0.003958225
v 0.07714747 0.01499854 0.003958225
v 0.07714747 0.01499854 0.03894679
v 0.0277473 0.03230716 0.03894679
v -0.0312079 0.009675071 0.003958225
v 0.02966271 0.009675071 0.003958225
v 0.0277473 0.03230716 0.003958225
v -0.02929249 0.03230716 0.003958225
v -0.08392054 -0.005372554 0.003958225
v -0.07869266 0.01499854 0.003958225
v -0.07897574 -0.03239062 0.003958225
v -0.02939911 -0.03138696 0.003958225
v -0.1138724 -0.03361487 0.003958225
v -0.12124 -0.02392749 0.003958225
v -0.1138724 -0.006346807 0.003958225
v 0.02785391 -0.03138696 0.003958225
v 0.02966271 0.009675071 0.003958225
v -0.0312079 0.009675071 0.003958225
v 0.02966271 0.009675071 0.003958225
v 0.07714747 0.01499854 0.003958225
v 0.0277473 0.03230716 0.003958225
v 0.08237535 -0.005372554 0.003958225
v 0.1123272 -0.006346807 0.003958225
v 0.1196948 -0.02392749 0.003958225
v 0.07743055 -0.03239062 0.003958225
v 0.1123272 -0.03361487 0.003958225
v 0.02785391 -0.03138696 0.003958225
v 0.08237535 -0.005372554 0.003958225
v 0.02966271 0.009675071 0.003958225
v -0.1138724 -0.006346807 0.003958225
v -0.1138724 -0.006346807 0.03894679
v -0.12124 -0.02392749 0.03894679
v -0.12124 -0.02392749 0.003958225
v 0.1123272 -0.006346807 0.03894679
v 0.1123272 -0.006346807 0.003958225
v 0.1196948 -0.02392749 0.003958225
v 0.1196948 -0.02392749 0.03894679
vt 0.01672506 0.9823952
vt 0.01672506 0.9823952
vt 0.01672506 0.9823952
vt 0.01672506 0.9823952
vt 0.01672506 0.9823952
vt 0.01672506 0.9823952
vt 0.01672506 0.9823952
vt 0.01672506 0.9823952
vt 0.01672506 0.9823952
vt 0.01672506 0.9823952
vt 0.01672506 0.9823952
vt 0.01672506 0.9823952
vt 0.01672506 0.9823952
vt 0.01672506 0.9823952
vt 0.01672506 0.9823952
vt 0.01672506 0.9823952
vt 0.01672506 0.9823952
vt 0.01672506 0.9823952
vt 0.01672506 0.9823952
vt 0.01672506 0.9823952
vt 0.01672506 0.9823952
vt 0.01672506 0.9823952
vt 0.01672506 0.9823952
vt 0.01672506 0.9823952
vt 0.01672506 0.9823952
vt 0.01672506 0.9823952
vt 0.01672506 0.9823952
vt 0.01672506 0.9823952
vt 0.01672506 0.9823952
vt 0.01672506 0.9823952
vt 0.01672506 0.9823952
vt 0.01672506 0.9823952
vt 0.01672506 0.9823952
vt 0.01672506 0.9823952
vt 0.01672506 0.9823952
vt 0.01672506 0.9823952
vt 0.01672506 0.9823952
vt 0.01672506 0.9823952
vt 0.01672506 0.9823952
vt 0.01672506 0.9823952
vt 0.01672506 0.9823952
vt 0.01672506 0.9823952
vt 0.01672506 0.9823952
vt 0.01672506 0.9823952
vt 0.01672506 0.9823952
vt 0.01672506 0.9823952
vt 0.01672506 0.9823952
vt 0.01672506 0.9823952
vt 0.01672506 0.9823952
vt 0.01672506 0.9823952
vt 0.01672506 0.9823952
vt 0.01672506 0.9823952
vt 0.01672506 0.9823952
vt 0.01672506 0.9823952
vt 0.01672506 0.9823952
vt 0.01672506 0.9823952
vt 0.01672506 0.9823952
vt 0.01672506 0.9823952
vt 0.01672506 0.9823952
vt 0.01672506 0.9823952
vt 0.01672506 0.9823952
vt 0.01672506 0.9823952
vt 0.01672506 0.9823952
vt 0.01672506 0.9823952
vt 0.01672506 0.9823952
vt 0.01672506 0.9823952
vt 0.01672506 0.9823952
vt 0.01672506 0.9823952
vt 0.01672506 0.9823952
vt 0.01672506 0.9823952
vt 0.01672506 0.9823952
vt 0.01672506 0.9823952
vt 0.01672506 0.9823952
vt 0.01672506 0.9823952
vt 0.01672506 0.9823952
vt 0.01672506 0.9823952
vt 0.01672506 0.9823952
vt 0.01672506 0.9823952
vt 0.01672506 0.9823952
vt 0.01672506 0.9823952
vt 0.01672506 0.9823952
vt 0.01672506 0.9823952
vt 0.01672506 0.9823952
vt 0.01672506 0.9823952
vt 0.01672506 0.9823952
vt 0.01672506 0.9823952
vt 0.01672506 0.9823952
vt 0.01672506 0.9823952
vt 0.01672506 0.9823952
vt 0.01672506 0.9823952
vt 0.01672506 0.9823952
vt 0.01672506 0.9823952
vt 0.01672506 0.9823952
vt 0.01672506 0.9823952
vn 0.7948022 -0.6068687 0
vn 0.7948022 -0.6068687 0
vn 0.7948022 -0.6068687 0
vn 0.7948022 -0.6068687 0
vn 0.03527218 -0.9993777 0
vn 0.03527218 -0.9993777 0
vn 0.03527218 -0.9993777 0
vn 0.03527218 -0.9993777 0
vn -0.003921509 -0.9999924 0
vn -0.003921509 -0.9999924 0
vn -0.01960405 -0.9998079 0
vn -0.01960405 -0.9998079 0
vn -0.03527213 -0.9993777 0
vn -0.03527213 -0.9993777 0
vn -0.03527213 -0.9993777 0
vn -0.03527213 -0.9993777 0
vn -0.7948022 -0.6068687 0
vn -0.7948022 -0.6068687 0
vn -0.7948022 -0.6068687 0
vn -0.7948022 -0.6068687 0
vn 0.5215647 0.8509738 -0.061756
vn 0.5215647 0.8509738 -0.061756
vn 0.5215647 0.8509738 -0.061756
vn 0.5215647 0.8509738 -0.061756
vn -0.003921509 0.003921509 0.9999846
vn -0.003921509 0.003921509 0.9999846
vn -0.003921509 0.003921509 0.9999846
vn -0.003921509 0.003921509 0.9999846
vn -0.003921509 0.003921509 0.9999846
vn -0.003921509 0.003921509 0.9999846
vn -0.003921509 0.003921509 0.9999846
vn -0.003921509 0.003921509 0.9999846
vn -0.003921509 0.003921509 0.9999846
vn -0.003921509 0.003921509 0.9999846
vn -0.003921509 0.003921509 0.9999846
vn -0.003921509 0.003921509 0.9999846
vn -0.003921509 0.003921509 0.9999846
vn -0.003921509 0.003921509 0.9999846
vn -0.003921509 0.003921509 0.9999846
vn -0.003921509 0.003921509 0.9999846
vn -0.003921509 0.003921509 0.9999846
vn -0.003921509 0.003921509 0.9999846
vn -0.003921509 0.003921509 0.9999846
vn -0.003921509 0.003921509 0.9999846
vn -0.003921509 0.003921509 0.9999846
vn -0.5215646 0.8509738 -0.06175648
vn -0.5215646 0.8509738 -0.06175648
vn -0.5215646 0.8509738 -0.06175648
vn -0.5215646 0.8509738 -0.06175648
vn -0.3326154 0.9430625 0
vn -0.3326154 0.9430625 0
vn -0.3326154 0.9430625 0
vn -0.3326154 0.9430625 0
vn -0.003921509 0.9999923 -0.000345267
vn -0.003921509 0.9999923 -0.000345267
vn -0.003921509 0.9999923 -0.000345267
vn -0.003921509 0.9999923 -0.000345267
vn 0.3326155 0.9430625 0
vn 0.3326155 0.9430625 0
vn 0.3326155 0.9430625 0
vn 0.3326155 0.9430625 0
vn -0.003921509 0.003921509 -0.9999846
vn -0.003921509 0.003921509 -0.9999846
vn -0.003921509 0.003921509 -0.9999846
vn -0.003921509 0.003921509 -0.9999846
vn -0.003921509 0.003921509 -0.9999846
vn -0.003921509 0.003921509 -0.9999846
vn -0.003921509 0.003921509 -0.9999846
vn -0.003921509 0.003921509 -0.9999846
vn -0.003921509 0.003921509 -0.9999846
vn -0.003921509 0.003921509 -0.9999846
vn -0.003921509 0.003921509 -0.9999846
vn -0.003921509 0.003921509 -0.9999846
vn -0.003921509 0.003921509 -0.9999846
vn -0.003921509 0.003921509 -0.9999846
vn -0.003921509 0.003921509 -0.9999846
vn -0.003921509 0.003921509 -0.9999846
vn -0.003921509 0.003921509 -0.9999846
vn -0.003921509 0.003921509 -0.9999846
vn -0.003921509 0.003921509 -0.9999846
vn -0.003921509 0.003921509 -0.9999846
vn -0.003921509 0.003921509 -0.9999846
vn -0.003921509 0.003921509 -0.9999846
vn -0.003921509 0.003921509 -0.9999846
vn -0.003921509 0.003921509 -0.9999846
vn -0.003921509 0.003921509 -0.9999846
vn -0.9215615 0.3882322 -0.0003860202
vn -0.9215615 0.3882322 -0.0003860202
vn -0.9215615 0.3882322 -0.0003860202
vn -0.9215615 0.3882322 -0.0003860202
vn 0.9215616 0.3882322 0
vn 0.9215616 0.3882322 0
vn 0.9215616 0.3882322 0
vn 0.9215616 0.3882322 0
g MouthSadA_0
f 3/3/3 2/2/2 1/1/1
f 4/4/4 3/3/3 1/1/1
f 7/7/7 6/6/6 5/5/5
f 8/8/8 7/7/7 5/5/5
f 7/7/7 8/8/8 9/9/9
f 10/10/10 7/7/7 9/9/9
f 10/10/10 9/9/9 11/11/11
f 12/12/12 10/10/10 11/11/11
f 12/12/12 11/11/11 13/13/13
f 14/14/14 12/12/12 13/13/13
f 15/15/15 14/14/14 13/13/13
f 16/16/16 15/15/15 13/13/13
f 19/19/19 18/18/18 17/17/17
f 20/20/20 19/19/19 17/17/17
f 23/23/23 22/22/22 21/21/21
f 24/24/24 23/23/23 21/21/21
f 27/27/27 26/26/26 25/25/25
f 26/26/26 28/28/28 25/25/25
f 25/25/25 28/28/28 29/29/29
f 28/28/28 30/30/30 29/29/29
f 30/30/30 28/28/28 31/31/31
f 32/32/32 30/30/30 31/31/31
f 32/32/32 31/31/31 33/33/33
f 34/34/34 32/32/32 33/33/33
f 34/34/34 33/33/33 35/35/35
f 36/36/36 34/34/34 35/35/35
f 35/35/35 33/33/33 37/37/37
f 33/33/33 38/38/38 37/37/37
f 37/37/37 39/39/39 35/35/35
f 39/39/39 40/40/40 35/35/35
f 35/35/35 40/40/40 36/36/36
f 40/40/40 41/41/41 36/36/36
f 43/43/43 26/26/26 42/42/42
f 44/44/44 43/43/43 42/42/42
f 44/44/44 42/42/42 38/38/38
f 45/45/45 44/44/44 38/38/38
f 48/48/48 47/47/47 46/46/46
f 49/49/49 48/48/48 46/46/46
f 52/52/52 51/51/51 50/50/50
f 53/53/53 52/52/52 50/50/50
f 56/56/56 55/55/55 54/54/54
f 57/57/57 56/56/56 54/54/54
f 60/60/60 59/59/59 58/58/58
f 61/61/61 60/60/60 58/58/58
f 64/64/64 63/63/63 62/62/62
f 65/65/65 64/64/64 62/62/62
f 65/65/65 62/62/62 66/66/66
f 67/67/67 65/65/65 66/66/66
f 66/66/66 62/62/62 68/68/68
f 62/62/62 69/69/69 68/68/68
f 68/68/68 70/70/70 66/66/66
f 70/70/70 71/71/71 66/66/66
f 66/66/66 71/71/71 67/67/67
f 71/71/71 72/72/72 67/67/67
f 74/74/74 73/73/73 69/69/69
f 75/75/75 74/74/74 69/69/69
f 78/78/78 77/77/77 76/76/76
f 77/77/77 79/79/79 76/76/76
f 79/79/79 77/77/77 80/80/80
f 81/81/81 79/79/79 80/80/80
f 82/82/82 79/79/79 81/81/81
f 83/83/83 82/82/82 81/81/81
f 85/85/85 82/82/82 84/84/84
f 86/86/86 85/85/85 84/84/84
f 89/89/89 88/88/88 87/87/87
f 90/90/90 89/89/89 87/87/87
f 93/93/93 92/92/92 91/91/91
f 94/94/94 93/93/93 91/91/91
