g ShadowGlass
v -0.7682785 -3.933907E-06 -0.5721188
v -0.6872634 -3.933907E-06 -0.6663111
v -0.7503495 -3.933907E-06 -0.5518008
v -0.8276144 -3.933907E-06 -0.4534986
v -0.5968727 -3.933907E-06 -0.7334812
v -0.8619829 -3.933907E-06 -0.3314622
v -0.7277196 -3.933907E-06 -0.530404
v -0.5078948 -3.933907E-06 -0.7753502
v -0.6892413 -3.933907E-06 -0.4997857
v -0.8709988 -3.933907E-06 -0.2247349
v -0.4214597 -3.933907E-06 -0.7991616
v -0.6416185 -3.933907E-06 -0.4653144
v -0.861803 -3.933907E-06 -0.1314416
v -0.3364633 -3.933907E-06 -0.8117479
v -0.5891668 -3.933907E-06 -0.4285057
v -0.841896 -3.933907E-06 -0.04528916
v -0.2528794 -3.933907E-06 -0.8123644
v -0.5328364 -3.933907E-06 -0.387844
v -0.8127933 -3.933907E-06 0.0367021
v -0.1712992 -3.933907E-06 -0.7993671
v -0.4730125 -3.933907E-06 -0.3418395
v -0.7747516 -3.933907E-06 0.115688
v -0.09364897 -3.933907E-06 -0.7744254
v -0.4113136 -3.933907E-06 -0.292727
v -0.7289783 -3.933907E-06 0.1889715
v -0.01625562 -3.933907E-06 -0.7346115
v -0.3431931 -3.933907E-06 -0.2450015
v -0.6751137 -3.933907E-06 0.2534446
v 0.08823693 -3.933907E-06 -0.6548293
v -0.2272957 -3.933907E-06 -0.2195462
v -0.6051181 -3.933907E-06 0.3084136
v -0.0438686 -3.933907E-06 -0.2505241
v 0.2362681 -3.933907E-06 -0.5200779
v 0.3766704 -3.933907E-06 -0.3773125
v -0.1169466 -3.933907E-06 -0.04467267
v -0.2101886 -3.933907E-06 0.1250635
v -0.5130578 -3.933907E-06 0.3554969
v -0.4091046 -3.933907E-06 0.4033765
v -0.03975874 -3.933907E-06 0.07235491
v 0.4582506 -3.933907E-06 -0.2726659
v 0.07526529 -3.933907E-06 0.09834963
v -0.3042524 -3.933907E-06 0.4579089
v 0.4969345 -3.933907E-06 -0.1869244
v 0.1502184 -3.933907E-06 0.1597916
v -0.1964976 -3.933907E-06 0.5065077
v -0.08216715 -3.933907E-06 0.5345317
v 0.2183903 -3.933907E-06 0.2215163
v 0.5189478 -3.933907E-06 -0.09147346
v 0.03619617 -3.933907E-06 0.5379993
v 0.2804745 -3.933907E-06 0.2762541
v 0.5247529 -3.933907E-06 0.01453465
v 0.5105226 -3.933907E-06 0.1241131
v 0.3316163 -3.933907E-06 0.320666
v 0.1528641 -3.933907E-06 0.5175272
v 0.4807777 -3.933907E-06 0.2269104
v 0.3673719 -3.933907E-06 0.353031
v 0.2552761 -3.933907E-06 0.4815405
v 0.3838112 -3.933907E-06 0.3706776
v 0.4410664 -3.933907E-06 0.313705
v 0.3332089 -3.933907E-06 0.4377707
v 0.3925189 -3.933907E-06 0.3835723
vn 0 1 0
vn 0 1 0
vn 0 1 0
vn 0 1 0
vn 0 1 0
vn 0 1 0
vn 0 1 0
vn 0 1 0
vn 0 1 0
vn 0 1 0
vn 0 1 0
vn 0 1 0
vn 0 1 0
vn 0 1 0
vn 0 1 0
vn 0 1 0
vn 0 1 0
vn 0 1 0
vn 0 1 0
vn 0 1 0
vn 0 1 0
vn 0 1 0
vn 0 1 0
vn 0 1 0
vn 0 1 0
vn 0 1 0
vn 0 1 0
vn 0 1 0
vn 0 1 0
vn 0 1 0
vn 0 1 0
vn 0 1 0
vn 0 1 0
vn 0 1 0
vn 0 1 0
vn 0 1 0
vn 0 1 0
vn 0 1 0
vn 0 1 0
vn 0 1 0
vn 0 1 0
vn 0 1 0
vn 0 1 0
vn 0 1 0
vn 0 1 0
vn 0 1 0
vn 0 1 0
vn 0 1 0
vn 0 1 0
vn 0 1 0
vn 0 1 0
vn 0 1 0
vn 0 1 0
vn 0 1 0
vn 0 1 0
vn 0 1 0
vn 0 1 0
vn 0 1 0
vn 0 1 0
vn 0 1 0
vn 0 1 0
g ShadowGlass_0
f 3/3/3 2/2/2 1/1/1
f 4/4/4 3/3/3 1/1/1
f 2/2/2 3/3/3 5/5/5
f 3/3/3 4/4/4 6/6/6
f 3/3/3 7/7/7 5/5/5
f 7/7/7 3/3/3 6/6/6
f 5/5/5 7/7/7 8/8/8
f 7/7/7 6/6/6 9/9/9
f 7/7/7 9/9/9 8/8/8
f 6/6/6 10/10/10 9/9/9
f 8/8/8 9/9/9 11/11/11
f 9/9/9 10/10/10 12/12/12
f 9/9/9 12/12/12 11/11/11
f 10/10/10 13/13/13 12/12/12
f 11/11/11 12/12/12 14/14/14
f 12/12/12 13/13/13 15/15/15
f 12/12/12 15/15/15 14/14/14
f 13/13/13 16/16/16 15/15/15
f 14/14/14 15/15/15 17/17/17
f 15/15/15 16/16/16 18/18/18
f 15/15/15 18/18/18 17/17/17
f 16/16/16 19/19/19 18/18/18
f 17/17/17 18/18/18 20/20/20
f 18/18/18 19/19/19 21/21/21
f 18/18/18 21/21/21 20/20/20
f 19/19/19 22/22/22 21/21/21
f 20/20/20 21/21/21 23/23/23
f 21/21/21 22/22/22 24/24/24
f 21/21/21 24/24/24 23/23/23
f 22/22/22 25/25/25 24/24/24
f 23/23/23 24/24/24 26/26/26
f 24/24/24 25/25/25 27/27/27
f 24/24/24 27/27/27 26/26/26
f 25/25/25 28/28/28 27/27/27
f 26/26/26 27/27/27 29/29/29
f 27/27/27 28/28/28 30/30/30
f 27/27/27 30/30/30 29/29/29
f 28/28/28 31/31/31 30/30/30
f 30/30/30 32/32/32 29/29/29
f 32/32/32 30/30/30 31/31/31
f 32/32/32 33/33/33 29/29/29
f 33/33/33 32/32/32 34/34/34
f 35/35/35 32/32/32 31/31/31
f 32/32/32 35/35/35 34/34/34
f 36/36/36 35/35/35 31/31/31
f 35/35/35 36/36/36 34/34/34
f 37/37/37 36/36/36 31/31/31
f 36/36/36 37/37/37 38/38/38
f 36/36/36 39/39/39 34/34/34
f 39/39/39 36/36/36 38/38/38
f 40/40/40 34/34/34 39/39/39
f 41/41/41 39/39/39 38/38/38
f 41/41/41 40/40/40 39/39/39
f 42/42/42 41/41/41 38/38/38
f 43/43/43 40/40/40 41/41/41
f 44/44/44 41/41/41 42/42/42
f 44/44/44 43/43/43 41/41/41
f 45/45/45 44/44/44 42/42/42
f 44/44/44 45/45/45 46/46/46
f 43/43/43 44/44/44 47/47/47
f 47/47/47 44/44/44 46/46/46
f 48/48/48 43/43/43 47/47/47
f 47/47/47 46/46/46 49/49/49
f 48/48/48 47/47/47 50/50/50
f 50/50/50 47/47/47 49/49/49
f 51/51/51 48/48/48 50/50/50
f 52/52/52 51/51/51 50/50/50
f 53/53/53 50/50/50 49/49/49
f 53/53/53 52/52/52 50/50/50
f 54/54/54 53/53/53 49/49/49
f 55/55/55 52/52/52 53/53/53
f 56/56/56 53/53/53 54/54/54
f 56/56/56 55/55/55 53/53/53
f 57/57/57 56/56/56 54/54/54
f 56/56/56 58/58/58 55/55/55
f 58/58/58 56/56/56 57/57/57
f 58/58/58 59/59/59 55/55/55
f 60/60/60 58/58/58 57/57/57
f 59/59/59 58/58/58 61/61/61
f 58/58/58 60/60/60 61/61/61
