g ShadowGlass
v -0.6799913 -0.01830554 -0.5320472
v -0.6112875 -0.01830554 -0.6119187
v -0.6648105 -0.01830554 -0.5148253
v -0.7303037 -0.01830554 -0.4314682
v -0.5346494 -0.01830554 -0.6688813
v -0.7594501 -0.01830554 -0.3279998
v -0.6455936 -0.01830554 -0.4966863
v -0.4592267 -0.01830554 -0.7043568
v -0.6129616 -0.01830554 -0.4707274
v -0.7670863 -0.01830554 -0.2375108
v -0.3859366 -0.01830554 -0.7245598
v -0.5726016 -0.01830554 -0.4414894
v -0.7592896 -0.01830554 -0.158419
v -0.3138619 -0.01830554 -0.7352231
v -0.5281368 -0.01830554 -0.4103021
v -0.7424118 -0.01830554 -0.08538115
v -0.2430025 -0.01830554 -0.7357505
v -0.4803699 -0.01830554 -0.3758126
v -0.7177371 -0.01830554 -0.01585186
v -0.1738172 -0.01830554 -0.7247203
v -0.4296446 -0.01830554 -0.3368056
v -0.6854721 -0.01830554 0.05110908
v -0.10798 -0.01830554 -0.7036001
v -0.3773372 -0.01830554 -0.2951614
v -0.6466714 -0.01830554 0.1132543
v -0.04237205 -0.01830554 -0.6698215
v -0.3195719 -0.01830554 -0.2547097
v -0.6009912 -0.01830554 0.1679237
v 0.04623652 -0.01830554 -0.6021726
v -0.2213091 -0.01830554 -0.2331309
v -0.5416437 -0.01830554 0.2145442
v -0.06578541 -0.01830554 -0.2593878
v 0.1717194 -0.01830554 -0.4879263
v 0.2907814 -0.01830554 -0.3668692
v -0.1277472 -0.01830554 -0.08485371
v -0.2068161 -0.01830554 0.05906641
v -0.4636067 -0.01830554 0.2544456
v -0.3754796 -0.01830554 0.2950578
v -0.06229979 -0.01830554 0.01437229
v 0.3599438 -0.01830554 -0.2781689
v 0.03522927 -0.01830554 0.03643268
v -0.2865501 -0.01830554 0.3412884
v 0.3927363 -0.01830554 -0.2054751
v 0.0987733 -0.01830554 0.08851087
v -0.1951897 -0.01830554 0.3824739
v -0.09827983 -0.01830554 0.4062312
v 0.1565615 -0.01830554 0.1408413
v 0.4114028 -0.01830554 -0.1245257
v 0.002092779 -0.01830554 0.4091894
v 0.209213 -0.01830554 0.1872782
v 0.4163332 -0.01830554 -0.03465593
v 0.404271 -0.01830554 0.05826378
v 0.252577 -0.01830554 0.2249323
v 0.1010206 -0.01830554 0.39183
v 0.379046 -0.01830554 0.1454276
v 0.2828929 -0.01830554 0.2523587
v 0.1878405 -0.01830554 0.3613078
v 0.2968355 -0.01830554 0.2673103
v 0.3453821 -0.01830554 0.2189929
v 0.25393 -0.01830554 0.3242041
v 0.3042195 -0.01830554 0.2782487
v -0.5778988 -0.003101766 -0.4616923
v -0.5278617 -0.003101766 -0.5205353
v -0.5673961 -0.003101766 -0.4477727
v -0.615186 -0.003101766 -0.386132
v -0.471908 -0.003101766 -0.5619732
v -0.6372005 -0.003101766 -0.3077739
v -0.5535682 -0.003101766 -0.4334403
v -0.4158855 -0.003101766 -0.5880237
v -0.5292833 -0.003101766 -0.4133979
v -0.6429564 -0.003101766 -0.239116
v -0.3606886 -0.003101766 -0.6031587
v -0.4987152 -0.003101766 -0.3906495
v -0.6367189 -0.003101766 -0.1781633
v -0.3062256 -0.003101766 -0.6112307
v -0.4646615 -0.003101766 -0.3656538
v -0.6230746 -0.003101766 -0.1200999
v -0.2530925 -0.003101766 -0.6117811
v -0.4280853 -0.003101766 -0.3377917
v -0.6030551 -0.003101766 -0.06377935
v -0.2020922 -0.003101766 -0.6038008
v -0.3896057 -0.003101766 -0.306742
v -0.5771192 -0.003101766 -0.00970614
v -0.1535684 -0.003101766 -0.5881155
v -0.3505298 -0.003101766 -0.2747062
v -0.5475141 -0.003101766 0.03870296
v -0.1032331 -0.003101766 -0.5615604
v -0.3073034 -0.003101766 -0.2442986
v -0.5143319 -0.003101766 0.07860434
v -0.02838361 -0.003101766 -0.5029466
v -0.2288307 -0.003101766 -0.2241645
v -0.4678261 -0.003101766 0.1127957
v -0.1009399 -0.003101766 -0.2338647
v 0.08421159 -0.003101766 -0.3997993
v 0.1914637 -0.003101766 -0.2922949
v -0.1409559 -0.003101766 -0.09769553
v -0.1968637 -0.003101766 0.01033628
v -0.3999479 -0.003101766 0.1456799
v -0.3197095 -0.003101766 0.1824396
v -0.07736599 -0.003101766 -0.01569134
v 0.2504444 -0.003101766 -0.2198533
v 0.005188525 -0.003101766 0.006483734
v -0.2383015 -0.003101766 0.2251616
v 0.2752566 -0.003101766 -0.1660323
v 0.05816108 -0.003101766 0.0483343
v -0.1589345 -0.003101766 0.262701
v -0.08222753 -0.003101766 0.283225
v 0.1032909 -0.003101766 0.08857965
v 0.2887864 -0.003101766 -0.1060656
v -0.006392002 -0.003101766 0.2855869
v 0.142917 -0.003101766 0.123803
v 0.2922032 -0.003101766 -0.03795815
v 0.2827553 -0.003101766 0.03358918
v 0.1756178 -0.003101766 0.1528575
v 0.06852627 -0.003101766 0.2723324
v 0.2638595 -0.003101766 0.1000915
v 0.1982057 -0.003101766 0.1744364
v 0.1330564 -0.003101766 0.2504324
v 0.2078141 -0.003101766 0.186361
v 0.239804 -0.003101766 0.1539583
v 0.1788512 -0.003101766 0.2256661
v 0.2118731 -0.003101766 0.1951668
vn 0 1 0
vn 0 1 0
vn 0 1 0
vn 0 1 0
vn 0 1 0
vn 0 1 0
vn 0 1 0
vn 0 1 0
vn 0 1 0
vn 0 1 0
vn 0 1 0
vn 0 1 0
vn 0 1 0
vn 0 1 0
vn 0 1 0
vn 0 1 0
vn 0 1 0
vn 0 1 0
vn 0 1 0
vn 0 1 0
vn 0 1 0
vn 0 1 0
vn 0 1 0
vn 0 1 0
vn 0 1 0
vn 0 1 0
vn 0 1 0
vn 0 1 0
vn 0 1 0
vn 0 1 0
vn 0 1 0
vn 0 1 0
vn 0 1 0
vn 0 1 0
vn 0 1 0
vn 0 1 0
vn 0 1 0
vn 0 1 0
vn 0 1 0
vn 0 1 0
vn 0 1 0
vn 0 1 0
vn 0 1 0
vn 0 1 0
vn 0 1 0
vn 0 1 0
vn 0 1 0
vn 0 1 0
vn 0 1 0
vn 0 1 0
vn 0 1 0
vn 0 1 0
vn 0 1 0
vn 0 1 0
vn 0 1 0
vn 0 1 0
vn 0 1 0
vn 0 1 0
vn 0 1 0
vn 0 1 0
vn 0 1 0
vn 0 1 0
vn 0 1 0
vn 0 1 0
vn 0 1 0
vn 0 1 0
vn 0 1 0
vn 0 1 0
vn 0 1 0
vn 0 1 0
vn 0 1 0
vn 0 1 0
vn 0 1 0
vn 0 1 0
vn 0 1 0
vn 0 1 0
vn 0 1 0
vn 0 1 0
vn 0 1 0
vn 0 1 0
vn 0 1 0
vn 0 1 0
vn 0 1 0
vn 0 1 0
vn 0 1 0
vn 0 1 0
vn 0 1 0
vn 0 1 0
vn 0 1 0
vn 0 1 0
vn 0 1 0
vn 0 1 0
vn 0 1 0
vn 0 1 0
vn 0 1 0
vn 0 1 0
vn 0 1 0
vn 0 1 0
vn 0 1 0
vn 0 1 0
vn 0 1 0
vn 0 1 0
vn 0 1 0
vn 0 1 0
vn 0 1 0
vn 0 1 0
vn 0 1 0
vn 0 1 0
vn 0 1 0
vn 0 1 0
vn 0 1 0
vn 0 1 0
vn 0 1 0
vn 0 1 0
vn 0 1 0
vn 0 1 0
vn 0 1 0
vn 0 1 0
vn 0 1 0
vn 0 1 0
vn 0 1 0
vn 0 1 0
g ShadowGlass_0
f 3/3/3 2/2/2 1/1/1
f 4/4/4 3/3/3 1/1/1
f 2/2/2 3/3/3 5/5/5
f 3/3/3 4/4/4 6/6/6
f 3/3/3 7/7/7 5/5/5
f 7/7/7 3/3/3 6/6/6
f 5/5/5 7/7/7 8/8/8
f 7/7/7 6/6/6 9/9/9
f 7/7/7 9/9/9 8/8/8
f 6/6/6 10/10/10 9/9/9
f 8/8/8 9/9/9 11/11/11
f 9/9/9 10/10/10 12/12/12
f 9/9/9 12/12/12 11/11/11
f 10/10/10 13/13/13 12/12/12
f 11/11/11 12/12/12 14/14/14
f 12/12/12 13/13/13 15/15/15
f 12/12/12 15/15/15 14/14/14
f 13/13/13 16/16/16 15/15/15
f 14/14/14 15/15/15 17/17/17
f 15/15/15 16/16/16 18/18/18
f 15/15/15 18/18/18 17/17/17
f 16/16/16 19/19/19 18/18/18
f 17/17/17 18/18/18 20/20/20
f 18/18/18 19/19/19 21/21/21
f 18/18/18 21/21/21 20/20/20
f 19/19/19 22/22/22 21/21/21
f 20/20/20 21/21/21 23/23/23
f 21/21/21 22/22/22 24/24/24
f 21/21/21 24/24/24 23/23/23
f 22/22/22 25/25/25 24/24/24
f 23/23/23 24/24/24 26/26/26
f 24/24/24 25/25/25 27/27/27
f 24/24/24 27/27/27 26/26/26
f 25/25/25 28/28/28 27/27/27
f 26/26/26 27/27/27 29/29/29
f 27/27/27 28/28/28 30/30/30
f 27/27/27 30/30/30 29/29/29
f 28/28/28 31/31/31 30/30/30
f 30/30/30 32/32/32 29/29/29
f 32/32/32 30/30/30 31/31/31
f 32/32/32 33/33/33 29/29/29
f 33/33/33 32/32/32 34/34/34
f 35/35/35 32/32/32 31/31/31
f 32/32/32 35/35/35 34/34/34
f 36/36/36 35/35/35 31/31/31
f 35/35/35 36/36/36 34/34/34
f 37/37/37 36/36/36 31/31/31
f 36/36/36 37/37/37 38/38/38
f 36/36/36 39/39/39 34/34/34
f 39/39/39 36/36/36 38/38/38
f 40/40/40 34/34/34 39/39/39
f 41/41/41 39/39/39 38/38/38
f 41/41/41 40/40/40 39/39/39
f 42/42/42 41/41/41 38/38/38
f 43/43/43 40/40/40 41/41/41
f 44/44/44 41/41/41 42/42/42
f 44/44/44 43/43/43 41/41/41
f 45/45/45 44/44/44 42/42/42
f 44/44/44 45/45/45 46/46/46
f 43/43/43 44/44/44 47/47/47
f 47/47/47 44/44/44 46/46/46
f 48/48/48 43/43/43 47/47/47
f 47/47/47 46/46/46 49/49/49
f 48/48/48 47/47/47 50/50/50
f 50/50/50 47/47/47 49/49/49
f 51/51/51 48/48/48 50/50/50
f 52/52/52 51/51/51 50/50/50
f 53/53/53 50/50/50 49/49/49
f 53/53/53 52/52/52 50/50/50
f 54/54/54 53/53/53 49/49/49
f 55/55/55 52/52/52 53/53/53
f 56/56/56 53/53/53 54/54/54
f 56/56/56 55/55/55 53/53/53
f 57/57/57 56/56/56 54/54/54
f 56/56/56 58/58/58 55/55/55
f 58/58/58 56/56/56 57/57/57
f 58/58/58 59/59/59 55/55/55
f 60/60/60 58/58/58 57/57/57
f 59/59/59 58/58/58 61/61/61
f 58/58/58 60/60/60 61/61/61
g ShadowGlass_1
f 64/64/64 63/63/63 62/62/62
f 65/65/65 64/64/64 62/62/62
f 63/63/63 64/64/64 66/66/66
f 64/64/64 65/65/65 67/67/67
f 64/64/64 68/68/68 66/66/66
f 68/68/68 64/64/64 67/67/67
f 66/66/66 68/68/68 69/69/69
f 68/68/68 67/67/67 70/70/70
f 68/68/68 70/70/70 69/69/69
f 67/67/67 71/71/71 70/70/70
f 69/69/69 70/70/70 72/72/72
f 70/70/70 71/71/71 73/73/73
f 70/70/70 73/73/73 72/72/72
f 71/71/71 74/74/74 73/73/73
f 72/72/72 73/73/73 75/75/75
f 73/73/73 74/74/74 76/76/76
f 73/73/73 76/76/76 75/75/75
f 74/74/74 77/77/77 76/76/76
f 75/75/75 76/76/76 78/78/78
f 76/76/76 77/77/77 79/79/79
f 76/76/76 79/79/79 78/78/78
f 77/77/77 80/80/80 79/79/79
f 78/78/78 79/79/79 81/81/81
f 79/79/79 80/80/80 82/82/82
f 79/79/79 82/82/82 81/81/81
f 80/80/80 83/83/83 82/82/82
f 81/81/81 82/82/82 84/84/84
f 82/82/82 83/83/83 85/85/85
f 82/82/82 85/85/85 84/84/84
f 83/83/83 86/86/86 85/85/85
f 84/84/84 85/85/85 87/87/87
f 85/85/85 86/86/86 88/88/88
f 85/85/85 88/88/88 87/87/87
f 86/86/86 89/89/89 88/88/88
f 87/87/87 88/88/88 90/90/90
f 88/88/88 89/89/89 91/91/91
f 88/88/88 91/91/91 90/90/90
f 89/89/89 92/92/92 91/91/91
f 91/91/91 93/93/93 90/90/90
f 93/93/93 91/91/91 92/92/92
f 93/93/93 94/94/94 90/90/90
f 94/94/94 93/93/93 95/95/95
f 96/96/96 93/93/93 92/92/92
f 93/93/93 96/96/96 95/95/95
f 97/97/97 96/96/96 92/92/92
f 96/96/96 97/97/97 95/95/95
f 98/98/98 97/97/97 92/92/92
f 97/97/97 98/98/98 99/99/99
f 97/97/97 100/100/100 95/95/95
f 100/100/100 97/97/97 99/99/99
f 101/101/101 95/95/95 100/100/100
f 102/102/102 100/100/100 99/99/99
f 102/102/102 101/101/101 100/100/100
f 103/103/103 102/102/102 99/99/99
f 104/104/104 101/101/101 102/102/102
f 105/105/105 102/102/102 103/103/103
f 105/105/105 104/104/104 102/102/102
f 106/106/106 105/105/105 103/103/103
f 105/105/105 106/106/106 107/107/107
f 104/104/104 105/105/105 108/108/108
f 108/108/108 105/105/105 107/107/107
f 109/109/109 104/104/104 108/108/108
f 108/108/108 107/107/107 110/110/110
f 109/109/109 108/108/108 111/111/111
f 111/111/111 108/108/108 110/110/110
f 112/112/112 109/109/109 111/111/111
f 113/113/113 112/112/112 111/111/111
f 114/114/114 111/111/111 110/110/110
f 114/114/114 113/113/113 111/111/111
f 115/115/115 114/114/114 110/110/110
f 116/116/116 113/113/113 114/114/114
f 117/117/117 114/114/114 115/115/115
f 117/117/117 116/116/116 114/114/114
f 118/118/118 117/117/117 115/115/115
f 117/117/117 119/119/119 116/116/116
f 119/119/119 117/117/117 118/118/118
f 119/119/119 120/120/120 116/116/116
f 121/121/121 119/119/119 118/118/118
f 120/120/120 119/119/119 122/122/122
f 119/119/119 121/121/121 122/122/122
