g _group10polySurface20
v 0.1229374 -0.0183158 0.03209678
v 0.137526 -0.006331544 0.00621158
v 0.1131473 -0.01182108 0.02576839
v 0.05302786 0.02252823 0.07034478
v 0.05982719 0.0281257 0.0333158
v 0.003642699 0.02297937 0.05684249
v 0.01057733 0.01325396 0.08693291
v -0.04091257 0.01848275 0.08392988
v 0.01057733 0.01325396 0.08693291
v 0.003642699 0.02297937 0.05684249
v -0.02740896 0.0182409 0.05425497
v -0.0885857 0.03533813 0.04817769
v -0.08519495 0.03183333 0.01238754
v -0.1417982 0.066182 -0.01528429
v 0.05302786 0.02252823 0.07034478
v 0.05373834 0.03569721 0.0754832
v 0.1025915 0.03594505 0.03884562
v 0.01057733 0.01325396 0.08693291
v 0.007311972 0.03837054 0.09456909
v -0.0373136 0.0463441 0.08050647
v -0.04091257 0.01848275 0.08392988
v -0.07797226 0.0556972 0.0414216
v -0.0885857 0.03533813 0.04817769
v -0.1417982 0.066182 -0.01528429
v -0.07522765 0.06072016 0.0337029
v -0.03980376 0.06048555 0.05216805
v 0.007311972 0.03837054 0.09456909
v 0.03904709 0.05695227 0.05289338
v 0.05373834 0.03569721 0.0754832
v 0.08108743 0.04853323 0.0274438
v 0.1025915 0.03594505 0.03884562
v 0.05982719 0.0281257 0.0333158
v 0.08108743 0.04853323 0.0274438
v 0.03904709 0.05695227 0.05289338
v 0.003642699 0.02297937 0.05684249
v -0.03980376 0.06048555 0.05216805
v -0.02740896 0.0182409 0.05425497
v -0.07522765 0.06072016 0.0337029
v -0.08519495 0.03183333 0.01238754
v -0.1417982 0.066182 -0.01528429
v -0.03384728 -0.0066675 0.01607892
v 0.02015492 -0.01418362 0.03602611
v 0.01130497 0.02020077 0.03296535
v 0.003484635 -0.0824705 0.05779851
v -0.05398785 -0.0338958 0.00707222
v -0.06310539 -0.1568934 0.02080618
v 0.05347468 -0.04962757 0.07174069
v 0.08084786 -0.0385884 0.06270264
v 0.06657337 -0.02396017 0.043526
v 0.09512399 -0.02222044 0.03684713
v 0.1082553 -0.02697102 0.04839516
v -0.0206773 -0.07924934 0.07915018
v -0.003945315 -0.04463269 0.09913167
v 0.0464117 -0.0270401 0.1012189
v 0.05347468 -0.04962757 0.07174069
v 0.08756699 -0.01532839 0.08589109
v 0.003484635 -0.0824705 0.05779851
v -0.06310539 -0.1568934 0.02080618
v 0.08084786 -0.0385884 0.06270264
v 0.1082553 -0.02697102 0.04839516
v 0.1165644 -0.009737206 0.05997618
v 0.1229374 -0.0183158 0.03209678
v 0.137526 -0.006331544 0.00621158
v 0.1025915 0.03594505 0.03884562
v 0.1389935 0.02581965 -0.008106444
v 0.07161974 0.02613121 0.06058537
v 0.08756699 -0.01532839 0.08589109
v 0.1062552 0.04712836 0.03571657
v 0.1417982 0.04810523 -0.02443056
v 0.06610346 0.0308766 0.05223703
v 0.06610346 0.0308766 0.05223703
v 0.03137359 0.02587976 0.06254788
v 0.06823855 0.06997665 0.06749457
v 0.06823855 0.06997665 0.06749457
v 0.07400662 0.1014081 0.03865718
v 0.03137359 0.02587976 0.06254788
v -0.02066641 0.09909023 0.06662964
v -0.05263912 0.05317761 0.0401874
v 0.005775821 0.1293941 0.03620166
v -0.08985025 0.08473258 -0.009079948
v -0.06487915 0.1157826 0.005784908
v -0.04984832 0.132964 -0.02375802
v -0.06950444 0.1568933 -0.1012189
v -0.08431749 0.07190347 -0.03214926
v -0.04748715 0.04216298 -0.0005240357
v -0.05263912 0.05317761 0.0401874
v -0.01402648 0.02709486 0.01340823
v 0.03137359 0.02587976 0.06254788
v 0.01130497 0.02020077 0.03296535
v -0.00408491 0.01063398 0.06512649
v 0.01130497 0.02020077 0.03296535
v 0.01648895 -0.002536898 0.09633164
v 0.0464117 -0.0270401 0.1012189
v -0.003945315 -0.04463269 0.09913167
v -0.03583224 -0.01419448 0.06133842
v -0.0206773 -0.07924934 0.07915018
v -0.03384728 -0.0066675 0.01607892
v 0.01130497 0.02020077 0.03296535
v -0.05363573 -0.04580586 0.04703721
v -0.06310539 -0.1568934 0.02080618
v -0.05398785 -0.0338958 0.00707222
v 0.06325555 0.01503822 0.02356827
v 0.1417982 0.04810523 -0.02443056
v 0.07400662 0.1014081 0.03865718
v -0.01402648 0.02709486 0.01340823
v 0.005775821 0.1293941 0.03620166
v -0.04748715 0.04216298 -0.0005240357
v -0.04984832 0.132964 -0.02375802
v -0.08431749 0.07190347 -0.03214926
v -0.06950444 0.1568933 -0.1012189
v 0.09512399 -0.02222044 0.03684713
v 0.1082553 -0.02697102 0.04839516
v 0.1229374 -0.0183158 0.03209678
v 0.1131473 -0.01182108 0.02576839
v 0.06657337 -0.02396017 0.043526
v 0.06657337 0.009995585 0.043526
v 0.01425518 0.05346809 0.03296535
v 0.02015492 -0.01418362 0.03602611
v 0.09512399 -0.02222044 0.03684713
v 0.09159958 0.01173532 0.03684713
v 0.06416471 -0.02396017 0.043526
v 0.06657337 -0.02396017 0.043526
v 0.07154746 0.01169928 0.01189151
v 0.06216127 0.01207788 -0.01995779
v 0.01683445 0.0695071 -0.003712546
v 0.01988993 0.07068443 0.03384607
v 0.01988993 0.07068443 0.03384607
v 0.01683445 0.0695071 -0.003712546
v -0.008121472 0.1277791 -0.04300234
v -0.01296852 0.142218 -0.0130697
v -0.004222518 0.2331434 -0.122669
v 0.08887378 0.04222797 0.03484631
v 0.07154746 0.01169928 0.01189151
v 0.01988993 0.07068443 0.03384607
v 0.05055353 0.1069983 0.04040748
v -0.01296852 0.142218 -0.0130697
v 0.01907911 0.1608689 0.003232963
v -0.004222518 0.2331434 -0.122669
v 0.1076818 0.06456234 0.01191757
v 0.08887378 0.04222797 0.03484631
v 0.05055353 0.1069983 0.04040748
v 0.08397724 0.1063466 0.01219379
v 0.01907911 0.1608689 0.003232963
v 0.04934374 0.1648279 -0.01833187
v -0.004222518 0.2331434 -0.122669
v 0.1076818 0.06456234 0.01191757
v 0.01683445 0.0695071 -0.003712546
v 0.06216127 0.01207788 -0.01995779
v 0.08397724 0.1063466 0.01219379
v -0.008121472 0.1277791 -0.04300234
v 0.04934374 0.1648279 -0.01833187
v -0.004222518 0.2331434 -0.122669
vt 0.826725 0.891248
vt 0.824689 0.889891
vt 0.826091 0.891991
vt 0.956663 0.864873
vt 0.95828 0.866873
vt 0.959418 0.86247
vt 0.957082 0.862177
vt 0.95731 0.860389
vt 0.957082 0.862177
vt 0.959418 0.86247
vt 0.95958 0.859708
vt 0.956985 0.857992
vt 0.958655 0.856686
vt 0.952646 0.84981
vt 0.956663 0.864873
vt 0.955636 0.864817
vt 0.955765 0.868717
vt 0.957082 0.862177
vt 0.955227 0.862009
vt 0.955277 0.860695
vt 0.95731 0.860389
vt 0.954861 0.858847
vt 0.956985 0.857992
vt 0.952646 0.84981
vt 0.952565 0.858783
vt 0.952552 0.86126
vt 0.955227 0.862009
vt 0.953183 0.864685
vt 0.955636 0.864817
vt 0.953696 0.868087
vt 0.955765 0.868717
vt 0.951668 0.866998
vt 0.953696 0.868087
vt 0.953183 0.864685
vt 0.949416 0.862981
vt 0.952552 0.86126
vt 0.948494 0.860787
vt 0.952565 0.858783
vt 0.948495 0.858033
vt 0.952646 0.84981
vt 0.831083 0.903349
vt 0.830163 0.89914
vt 0.827906 0.900647
vt 0.836034 0.898209
vt 0.833629 0.904495
vt 0.844194 0.903636
vt 0.832086 0.895106
vt 0.830175 0.893803
vt 0.828998 0.895518
vt 0.827529 0.893467
vt 0.828207 0.892312
vt 0.837626 0.896525
vt 0.836182 0.894165
vt 0.833468 0.892717
vt 0.832086 0.895106
vt 0.831077 0.891554
vt 0.836034 0.898209
vt 0.844194 0.903636
vt 0.830175 0.893803
vt 0.828207 0.892312
vt 0.828739 0.890731
vt 0.826725 0.891248
vt 0.824689 0.889891
vt 0.828714 0.886796
vt 0.824041 0.887141
vt 0.831716 0.887832
vt 0.831077 0.891554
vt 0.828345 0.885909
vt 0.823061 0.885157
vt 0.83194 0.88713
vt 0.83194 0.88713
vt 0.835292 0.887521
vt 0.831788 0.884307
vt 0.831788 0.884307
vt 0.830072 0.881525
vt 0.835292 0.887521
vt 0.836262 0.880897
vt 0.839916 0.882339
vt 0.834169 0.878236
vt 0.842207 0.877948
vt 0.839274 0.876686
vt 0.838644 0.873775
vt 0.843607 0.869271
vt 0.844198 0.878025
vt 0.842936 0.88296
vt 0.839916 0.882339
vt 0.841233 0.88587
vt 0.835292 0.887521
vt 0.838757 0.887269
vt 0.837666 0.889555
vt 0.838757 0.887269
vt 0.835436 0.891079
vt 0.833468 0.892717
vt 0.836182 0.894165
vt 0.839494 0.891833
vt 0.837626 0.896525
vt 0.842427 0.890076
vt 0.838758 0.887269
vt 0.841071 0.894093
vt 0.844194 0.903636
vt 0.843839 0.892808
vt 0.827499 0.87943
vt 0.823061 0.885157
vt 0.830072 0.881525
vt 0.828652 0.872759
vt 0.834169 0.878236
vt 0.831195 0.871061
vt 0.838644 0.873775
vt 0.835202 0.86929
vt 0.843607 0.869271
vt 0.827529 0.893467
vt 0.828207 0.892312
vt 0.826725 0.891248
vt 0.826091 0.891991
vt 0.873014 0.842487
vt 0.873014 0.847698
vt 0.879252 0.847468
vt 0.878224 0.842487
vt 0.873014 0.842487
vt 0.873014 0.847698
vt 0.878224 0.847806
vt 0.878224 0.842487
vt 0.885304 0.938787
vt 0.888058 0.93823
vt 0.886419 0.93174
vt 0.88375 0.932943
vt 0.88375 0.932943
vt 0.886419 0.93174
vt 0.884389 0.924792
vt 0.882261 0.92632
vt 0.876202 0.916667
vt 0.881319 0.938123
vt 0.885304 0.938787
vt 0.88375 0.932943
vt 0.880207 0.932626
vt 0.882261 0.92632
vt 0.879398 0.927574
vt 0.876202 0.916667
vt 0.877652 0.937716
vt 0.881319 0.938123
vt 0.880207 0.932626
vt 0.877135 0.933781
vt 0.879398 0.927574
vt 0.876621 0.927638
vt 0.876202 0.916667
vt 0.877652 0.937716
vt 0.871033 0.933697
vt 0.871768 0.939918
vt 0.877135 0.933781
vt 0.871079 0.927028
vt 0.876621 0.927638
vt 0.876202 0.916667
vn -0.2218399 -0.8311705 -0.5098457
vn -0.2218401 -0.8311703 -0.5098462
vn -0.2218399 -0.8311705 -0.5098457
vn 0.05190286 -0.9735807 -0.2223663
vn 0.05190285 -0.9735807 -0.2223663
vn 0.05190286 -0.9735807 -0.2223663
vn 0.05190286 -0.9735807 -0.2223663
vn -0.1764779 -0.9822646 -0.06333697
vn 0.03277598 -0.9801215 -0.1956719
vn 0.03150001 -0.9805183 -0.1938851
vn -0.1635361 -0.9840374 -0.07018704
vn -0.3235421 -0.9462031 -0.004486001
vn -0.403582 -0.9148938 0.009539
vn -0.5301648 -0.8472617 0.03275299
vn 0.4332662 -0.2879631 0.8540244
vn 0.4291709 -0.2867529 0.8564958
vn 0.5683571 -0.3255011 0.7556581
vn 0.07920101 -0.174756 0.9814212
vn 0.013584 -0.151459 0.9883702
vn -0.2033871 0.6565081 0.7263821
vn -0.3853171 0.129252 0.9136873
vn -0.4606991 0.5826921 0.6694971
vn -0.5462379 0.3903839 0.7410969
vn -0.5004279 0.5536299 0.6656319
vn -0.247575 0.8549819 0.4557549
vn -0.05179699 0.8944928 0.4440719
vn 0.05815299 0.8914868 0.4492989
vn 0.2100929 0.8632297 0.4590158
vn 0.33838 0.8135831 0.472844
vn 0.3676439 0.8247557 0.4296699
vn 0.3676439 0.8247557 0.4296699
vn -0.420496 0.282448 -0.86221
vn -0.420496 0.282448 -0.86221
vn -0.324826 0.187725 -0.926956
vn -0.108467 0.008557002 -0.9940632
vn 0.434267 0.15674 -0.8870428
vn 0.4110018 0.1536869 -0.8985865
vn 0.558583 0.263214 -0.786577
vn 0.5638539 0.289761 -0.773374
vn 0.5738751 0.348735 -0.74098
vn 0.4279808 -0.2917868 -0.8553905
vn 0.4036821 -0.317727 -0.8579571
vn 0.3472029 0.005880997 -0.9377716
vn 0.494691 -0.242626 -0.8345139
vn 0.4931479 -0.244255 -0.8349519
vn 0.5904963 -0.1326611 -0.7960624
vn 0.3363321 -0.4311061 -0.8372743
vn -0.0004839998 -0.7767777 -0.6297747
vn -0.0008199995 -0.7631366 -0.6462367
vn 0.001358 -0.845268 -0.5343409
vn 0.001358 -0.845268 -0.5343409
vn 0.343517 -0.6891351 0.6380351
vn 0.3027049 -0.6906838 0.6567538
vn 0.3375288 -0.6887455 0.6416416
vn 0.3394118 -0.6886115 0.6407916
vn 0.489547 -0.6675221 0.5610331
vn 0.3381861 -0.6894182 0.6405722
vn 0.432063 -0.6806599 0.5916279
vn 0.4850053 -0.6684824 0.5638273
vn 0.592662 -0.6411771 0.487487
vn 0.7127887 0.2375479 0.6599267
vn 0.844448 -0.426368 0.324219
vn 0.8332739 0.323357 0.448436
vn 0.6838602 0.3931101 0.6146542
vn 0.7904953 0.3706872 0.4875532
vn 0.1965801 0.6493751 0.7346212
vn 0.304366 0.5336069 0.7890659
vn 0.7607981 0.304687 0.57302
vn 0.7712628 0.3899179 0.5031079
vn -0.09509102 0.8062292 0.5839112
vn 0.4023621 -0.3473001 0.8470463
vn -0.142059 0.824699 0.5474401
vn 0.5205928 0.5332428 0.6668097
vn -0.002365001 -0.2521921 0.9676743
vn 0.5229669 0.5322719 0.6657269
vn -0.120853 -0.214113 0.9693039
vn -0.273815 0.2977189 0.9145429
vn -0.5111451 0.014505 0.8593721
vn -0.03968899 0.7607488 0.6478318
vn -0.9359888 0.003731999 0.35201
vn -0.642836 0.571254 0.5103241
vn -0.3336527 0.8545144 0.3980967
vn -0.8490698 0.5024058 0.1633059
vn -0.9117152 -0.4094201 -0.03391801
vn -0.662657 -0.7343909 0.146819
vn -0.5699681 -0.7945951 0.209177
vn -0.3921281 -0.8710162 0.2959161
vn -0.3807301 -0.8636402 0.330409
vn -0.5692378 -0.6449277 0.5099378
vn -0.4996539 0.7426668 0.4458609
vn -0.5326091 0.8441533 0.06109502
vn -0.171527 0.558758 0.8113989
vn 0.1753119 0.4723588 0.8637956
vn -0.6223261 0.197144 0.7575251
vn -0.7499833 0.4574712 0.4777502
vn -0.7347683 -0.04115702 0.6770684
vn -0.7276451 0.6813801 0.07908101
vn -0.5326091 0.8441533 0.06109502
vn -0.9025548 0.112991 0.4154849
vn -0.880401 -0.036595 0.472816
vn -0.9552296 0.2884869 0.06566197
vn -0.08455302 0.196381 -0.9768752
vn -0.5726329 0.209737 -0.7925287
vn -0.03716001 0.192362 -0.9806203
vn 0.1964129 0.1636479 -0.9667685
vn 0.344497 0.05750099 -0.9370248
vn 0.617495 -0.105879 -0.7794161
vn 0.7328088 -0.2517369 -0.6321548
vn 0.7140177 -0.2286029 -0.6617548
vn 0.837176 -0.425342 -0.343832
vn 0.022511 -0.832972 -0.5528569
vn 0.022511 -0.832972 -0.5528569
vn 0.022511 -0.832972 -0.5528569
vn 0.022511 -0.832972 -0.5528569
vn 0.1695301 -0.01984001 -0.9853253
vn 0.1695301 -0.01984001 -0.9853253
vn 0.1695301 -0.01984001 -0.9853253
vn 0.1695301 -0.01984001 -0.9853253
vn -0.20878 -0.036479 -0.977282
vn -0.20878 -0.036479 -0.977282
vn -0.20878 -0.036479 -0.977282
vn -0.20878 -0.036479 -0.977282
vn -0.7377138 -0.6604721 0.1398396
vn -0.7377138 -0.660472 0.1398396
vn -0.7377138 -0.660472 0.1398396
vn -0.7377138 -0.660472 0.1398396
vn -0.8329828 -0.5428029 0.107259
vn -0.854158 -0.5105981 0.098508
vn -0.9738933 -0.2246541 -0.03259101
vn -0.9640555 -0.2656089 -0.006990997
vn -0.9895309 -0.061942 -0.130352
vn -0.142494 -0.312423 0.939195
vn -0.142494 -0.312423 0.939195
vn -0.3371309 -0.05608398 0.9397858
vn -0.4062538 0.04964598 0.9124106
vn -0.5852122 0.4522782 0.6730313
vn -0.576767 0.418505 0.701565
vn -0.6105417 0.6327907 0.4762508
vn 0.5975832 0.3072791 0.7405903
vn 0.5975832 0.3072791 0.7405903
vn 0.5123381 0.5311971 0.6747882
vn 0.5367922 0.4779302 0.6952963
vn 0.3679518 0.7359427 0.5683307
vn 0.3441481 0.7592652 0.5523391
vn 0.2123579 0.8639337 0.4566429
vn 0.1775609 0.2806179 -0.9432527
vn 0.3469229 -0.04249099 -0.9369307
vn 0.1775609 0.2806179 -0.9432527
vn 0.335092 -0.016881 -0.9420342
vn 0.5149079 -0.3798939 -0.7684729
vn 0.508553 -0.370789 -0.7771031
vn 0.5931029 -0.49943 -0.631505
g _group10polySurface20_0
f 3/3/3 2/2/2 1/1/1
f 6/6/6 5/5/5 4/4/4
f 7/7/7 6/6/6 4/4/4
f 10/10/10 9/9/9 8/8/8
f 11/11/11 10/10/10 8/8/8
f 11/11/11 8/8/8 12/12/12
f 13/13/13 11/11/11 12/12/12
f 14/14/14 13/13/13 12/12/12
f 17/17/17 16/16/16 15/15/15
f 18/18/18 15/15/15 16/16/16
f 19/19/19 18/18/18 16/16/16
f 18/18/18 19/19/19 20/20/20
f 21/21/21 18/18/18 20/20/20
f 21/21/21 20/20/20 22/22/22
f 23/23/23 21/21/21 22/22/22
f 24/24/24 23/23/23 22/22/22
f 24/24/24 22/22/22 25/25/25
f 25/25/25 22/22/22 26/26/26
f 22/22/22 20/20/20 26/26/26
f 20/20/20 27/27/27 26/26/26
f 27/27/27 28/28/28 26/26/26
f 28/28/28 27/27/27 29/29/29
f 28/28/28 29/29/29 30/30/30
f 29/29/29 31/31/31 30/30/30
f 34/34/34 33/33/33 32/32/32
f 35/35/35 34/34/34 32/32/32
f 34/34/34 35/35/35 36/36/36
f 36/36/36 35/35/35 37/37/37
f 38/38/38 36/36/36 37/37/37
f 39/39/39 38/38/38 37/37/37
f 40/40/40 38/38/38 39/39/39
f 43/43/43 42/42/42 41/41/41
f 44/44/44 41/41/41 42/42/42
f 44/44/44 45/45/45 41/41/41
f 45/45/45 44/44/44 46/46/46
f 42/42/42 47/47/47 44/44/44
f 48/48/48 47/47/47 42/42/42
f 49/49/49 48/48/48 42/42/42
f 48/48/48 49/49/49 50/50/50
f 51/51/51 48/48/48 50/50/50
f 54/54/54 53/53/53 52/52/52
f 55/55/55 54/54/54 52/52/52
f 54/54/54 55/55/55 56/56/56
f 52/52/52 57/57/57 55/55/55
f 58/58/58 57/57/57 52/52/52
f 55/55/55 59/59/59 56/56/56
f 56/56/56 59/59/59 60/60/60
f 61/61/61 56/56/56 60/60/60
f 62/62/62 61/61/61 60/60/60
f 63/63/63 61/61/61 62/62/62
f 64/64/64 61/61/61 63/63/63
f 65/65/65 64/64/64 63/63/63
f 64/64/64 66/66/66 61/61/61
f 66/66/66 67/67/67 61/61/61
f 65/65/65 68/68/68 64/64/64
f 68/68/68 65/65/65 69/69/69
f 66/66/66 64/64/64 70/70/70
f 68/68/68 71/71/71 64/64/64
f 66/66/66 70/70/70 72/72/72
f 69/69/69 73/73/73 68/68/68
f 71/71/71 68/68/68 74/74/74
f 69/69/69 75/75/75 73/73/73
f 76/76/76 71/71/71 74/74/74
f 77/77/77 73/73/73 75/75/75
f 76/76/76 74/74/74 77/77/77
f 78/78/78 76/76/76 77/77/77
f 79/79/79 77/77/77 75/75/75
f 78/78/78 77/77/77 80/80/80
f 81/81/81 77/77/77 79/79/79
f 77/77/77 81/81/81 80/80/80
f 82/82/82 81/81/81 79/79/79
f 82/82/82 83/83/83 81/81/81
f 81/81/81 83/83/83 80/80/80
f 80/80/80 83/83/83 84/84/84
f 80/80/80 84/84/84 85/85/85
f 86/86/86 80/80/80 85/85/85
f 85/85/85 87/87/87 86/86/86
f 86/86/86 87/87/87 88/88/88
f 87/87/87 89/89/89 88/88/88
f 91/91/91 90/90/90 72/72/72
f 72/72/72 90/90/90 92/92/92
f 72/72/72 92/92/92 66/66/66
f 66/66/66 92/92/92 67/67/67
f 92/92/92 93/93/93 67/67/67
f 93/93/93 92/92/92 94/94/94
f 94/94/94 92/92/92 95/95/95
f 92/92/92 90/90/90 95/95/95
f 96/96/96 94/94/94 95/95/95
f 95/95/95 90/90/90 97/97/97
f 90/90/90 98/98/98 97/97/97
f 99/99/99 96/96/96 95/95/95
f 99/99/99 95/95/95 97/97/97
f 99/99/99 100/100/100 96/96/96
f 101/101/101 99/99/99 97/97/97
f 99/99/99 101/101/101 100/100/100
f 104/104/104 103/103/103 102/102/102
f 104/104/104 102/102/102 105/105/105
f 106/106/106 104/104/104 105/105/105
f 107/107/107 106/106/106 105/105/105
f 108/108/108 106/106/106 107/107/107
f 109/109/109 108/108/108 107/107/107
f 110/110/110 108/108/108 109/109/109
f 113/113/113 112/112/112 111/111/111
f 114/114/114 113/113/113 111/111/111
f 117/117/117 116/116/116 115/115/115
f 118/118/118 117/117/117 115/115/115
f 121/121/121 120/120/120 119/119/119
f 122/122/122 121/121/121 119/119/119
f 125/125/125 124/124/124 123/123/123
f 126/126/126 125/125/125 123/123/123
f 129/129/129 128/128/128 127/127/127
f 130/130/130 129/129/129 127/127/127
f 131/131/131 129/129/129 130/130/130
f 134/134/134 133/133/133 132/132/132
f 135/135/135 134/134/134 132/132/132
f 136/136/136 134/134/134 135/135/135
f 137/137/137 136/136/136 135/135/135
f 138/138/138 136/136/136 137/137/137
f 141/141/141 140/140/140 139/139/139
f 142/142/142 141/141/141 139/139/139
f 143/143/143 141/141/141 142/142/142
f 144/144/144 143/143/143 142/142/142
f 145/145/145 143/143/143 144/144/144
f 148/148/148 147/147/147 146/146/146
f 147/147/147 149/149/149 146/146/146
f 149/149/149 147/147/147 150/150/150
f 151/151/151 149/149/149 150/150/150
f 151/151/151 150/150/150 152/152/152
