g Box004
v 0.1432813 -0.1432902 0
v 0.1432813 0.145483 0
v -0.1438608 -0.1432902 0
v -0.1438608 0.145483 0
v 0.1432813 -0.1432902 0.003461362
v 0.1432813 -0.1432902 0
v -0.1438608 -0.1432902 0
v -0.1438608 -0.1432902 0.003461362
v -0.1434001 -0.1427395 0.004991943
v 0.1429147 -0.1427395 0.004991943
v -0.1420179 -0.1410872 0.006629901
v 0.1418148 -0.1410872 0.006629901
v -0.1397144 -0.1383336 0.008352501
v 0.1399817 -0.1383336 0.008352501
v 0.1432813 0.145483 0.003461362
v 0.1432813 0.145483 0
v 0.1432813 -0.1432902 0
v 0.1432813 -0.1432902 0.003461362
v 0.1429147 -0.1427395 0.004991943
v 0.1429147 0.1450023 0.004991944
v 0.1418148 -0.1410872 0.006629901
v 0.1418148 0.1435599 0.006629902
v 0.1399817 -0.1383336 0.008352501
v 0.1399817 0.1411561 0.008352501
v -0.1438608 0.145483 0.003461362
v -0.1438608 0.145483 0
v 0.1432813 0.145483 0
v 0.1432813 0.145483 0.003461362
v -0.1434001 0.1450023 0.004991944
v 0.1429147 0.1450023 0.004991944
v -0.1420179 0.1435599 0.006629902
v 0.1418148 0.1435599 0.006629902
v -0.1397144 0.1411561 0.008352501
v 0.1399817 0.1411561 0.008352501
v -0.1438608 -0.1432902 0
v -0.1438608 0.145483 0
v -0.1438608 0.145483 0.003461362
v -0.1438608 -0.1432902 0.003461362
v -0.1434001 -0.1427395 0.004991943
v -0.1434001 0.1450023 0.004991944
v -0.1420179 -0.1410872 0.006629901
v -0.1420179 0.1435599 0.006629902
v -0.1397144 -0.1383336 0.008352501
v -0.1397144 0.1411561 0.008352501
v -0.1334243 -0.130814 0.008435093
v 0.1349759 -0.130814 0.003002965
v 0.1349759 -0.130814 0.008435093
v -0.1334243 -0.130814 0.003002965
v 0.1349759 0.134592 0.003002965
v 0.1349759 0.134592 0.008435093
v 0.1349759 -0.130814 0.008435093
v 0.1349759 -0.130814 0.003002965
v 0.1349759 0.134592 0.008435093
v -0.1334243 0.134592 0.003002965
v -0.1334243 0.134592 0.008435093
v 0.1349759 0.134592 0.003002965
v -0.1334243 -0.130814 0.003002965
v -0.1334243 -0.130814 0.008435093
v -0.1334243 0.134592 0.008435093
v -0.1334243 0.134592 0.003002965
v 0.1349759 -0.130814 0.008435093
v 0.1349759 0.134592 0.008435093
v 0.1374153 0.1377907 0.008435094
v -0.1334243 0.134592 0.008435093
v 0.1374153 -0.1344783 0.008435094
v -0.1334243 -0.130814 0.008435093
v -0.1364895 0.1377907 0.008435094
v -0.1364895 -0.1344783 0.008435094
v 0.1399817 0.1411561 0.008352501
v 0.1399817 -0.1383336 0.008352501
v -0.1397144 0.1411561 0.008352501
v -0.1397144 -0.1383336 0.008352501
v -0.1334243 -0.130814 0.003002965
v -0.1196901 -0.11969 0.002799559
v 0.1196901 -0.11969 0.002799559
v -0.1196901 0.11969 0.002799559
v 0.1349759 -0.130814 0.003002965
v -0.1334243 0.134592 0.003002965
v 0.1196901 0.11969 0.002799559
v 0.1349759 0.134592 0.003002965
v 0.1289541 -0.128954 0.006161097
v -0.1196901 -0.11969 0.002799559
v -0.1289541 -0.128954 0.006161097
v 0.1196901 -0.11969 0.002799559
v -0.1196901 0.11969 0.002799559
v -0.1289541 0.128954 0.006161097
v 0.1196901 0.11969 0.002799559
v 0.1289541 0.128954 0.006161097
v -0.1275975 -0.1275973 0.007786674
v 0.1275975 -0.1275973 0.007786674
v 0.1275975 0.1275974 0.007786674
v -0.1275975 0.1275974 0.007786674
v 0.1235276 0.1235275 0.009023238
v -0.1235276 0.1235275 0.009023238
v -0.1235276 -0.1235275 0.009023238
v 0.1235276 -0.1235275 0.009023238
v 0.1167444 0.1167445 0.009951805
v -0.1167444 0.1167445 0.009951805
v -0.1167444 -0.1167445 0.009951805
v 0.1167444 -0.1167445 0.009951805
v 0.107248 0.1072479 0.01065939
v -0.107248 0.1072479 0.01065939
v -0.107248 -0.1072479 0.01065939
v 0.107248 -0.1072479 0.01065939
vt 0.8941607 0.02778959
vt 0.8941607 0.02785808
vt 0.8940923 0.02778959
vt 0.8940923 0.02785808
vt 0.8941607 0.02778959
vt 0.8941607 0.02778959
vt 0.8940923 0.02778959
vt 0.8940923 0.02778959
vt 0.8940925 0.0277898
vt 0.8941606 0.0277898
vt 0.8940931 0.0277904
vt 0.89416 0.0277904
vt 0.8940941 0.02779138
vt 0.894159 0.02779138
vt 0.8941607 0.02785808
vt 0.8941607 0.02785808
vt 0.8941607 0.02778959
vt 0.8941607 0.02778959
vt 0.8941606 0.0277898
vt 0.8941606 0.02785787
vt 0.89416 0.0277904
vt 0.89416 0.02785727
vt 0.894159 0.02779138
vt 0.894159 0.02785629
vt 0.8940923 0.02785808
vt 0.8940923 0.02785808
vt 0.8941607 0.02785808
vt 0.8941607 0.02785808
vt 0.8940925 0.02785787
vt 0.8941606 0.02785787
vt 0.8940931 0.02785727
vt 0.89416 0.02785727
vt 0.8940941 0.02785629
vt 0.894159 0.02785629
vt 0.8940923 0.02778959
vt 0.8940923 0.02785808
vt 0.8940923 0.02785808
vt 0.8940923 0.02778959
vt 0.8940925 0.0277898
vt 0.8940925 0.02785787
vt 0.8940931 0.0277904
vt 0.8940931 0.02785727
vt 0.8940941 0.02779138
vt 0.8940941 0.02785629
vt 0.8940967 0.02779403
vt 0.8941563 0.02779403
vt 0.8941563 0.02779403
vt 0.8940967 0.02779403
vt 0.8941563 0.02785364
vt 0.8941563 0.02785364
vt 0.8941563 0.02779403
vt 0.8941563 0.02779403
vt 0.8941563 0.02785364
vt 0.8940967 0.02785364
vt 0.8940967 0.02785364
vt 0.8941563 0.02785364
vt 0.8940967 0.02779403
vt 0.8940967 0.02779403
vt 0.8940967 0.02785364
vt 0.8940967 0.02785364
vt 0.8941563 0.02779403
vt 0.8941563 0.02785364
vt 0.8941576 0.02785492
vt 0.8940967 0.02785364
vt 0.8941576 0.02779275
vt 0.8940967 0.02779403
vt 0.8940954 0.02785492
vt 0.8940954 0.02779275
vt 0.894159 0.02785629
vt 0.894159 0.02779138
vt 0.8940941 0.02785629
vt 0.8940941 0.02779138
vt 0.8940967 0.02779403
vt 0.8941002 0.02779746
vt 0.8941529 0.02779746
vt 0.8941002 0.02785021
vt 0.8941563 0.02779403
vt 0.8940967 0.02785364
vt 0.8941529 0.02785021
vt 0.8941563 0.02785364
vt 0.8242643 0.09244528
vt 0.8240383 0.09244528
vt 0.8240383 0.09244528
vt 0.8242643 0.09244528
vt 0.8240383 0.09261075
vt 0.8240383 0.09261075
vt 0.8242643 0.09261075
vt 0.8242643 0.09261075
vt 0.8240395 0.09244615
vt 0.8242631 0.09244615
vt 0.8242631 0.09260988
vt 0.8240395 0.09260988
vt 0.8242595 0.09260726
vt 0.824043 0.09260726
vt 0.824043 0.09244877
vt 0.8242595 0.09244877
vt 0.8242536 0.09260291
vt 0.824049 0.09260291
vt 0.824049 0.09245312
vt 0.8242536 0.09245312
vt 0.8242453 0.09259683
vt 0.8240573 0.09259683
vt 0.8240573 0.0924592
vt 0.8242453 0.0924592
vn 0 0 -1
vn 0 0 -1
vn 0 0 -1
vn 0 0 -1
vn 0 -0.9873159 0.1587682
vn 0 -1 0
vn 0 -1 0
vn 0 -0.987874 0.1552576
vn 0 -0.8756666 0.4829164
vn 0 -0.8696433 0.4936807
vn 0 -0.6533394 0.7570651
vn 0 -0.6478111 0.761801
vn 0 -0.5303428 0.8477834
vn 0 -0.5303428 0.8477834
vn 0.9944665 0 0.1050548
vn 1 0 0
vn 1 0 0
vn 0.9946608 0 0.1031989
vn 0.9405992 0 0.3395191
vn 0.9380656 0 0.3464574
vn 0.7981585 0 0.6024475
vn 0.7951084 0 0.6064675
vn 0.6847933 0 0.7287373
vn 0.6847933 0 0.7287374
vn 0 0.990606 0.1367469
vn 0 1 0
vn 0 1 0
vn 0 0.9901675 0.139887
vn 0 0.9001825 0.4355128
vn 0 0.8948715 0.4463239
vn 0 0.7041224 0.7100786
vn 0 0.6985903 0.715522
vn 0 0.5824919 0.8128365
vn 0 0.5824919 0.8128365
vn -1 0 0
vn -1 0 0
vn -0.9914209 0 0.130708
vn -0.9917176 0 0.1284375
vn -0.9114314 0 0.4114519
vn -0.9080348 0 0.4188947
vn -0.7239321 0 0.6898713
vn -0.7204691 0 0.693487
vn -0.5988844 0 0.8008355
vn -0.5988843 0 0.8008354
vn 0 1 0
vn 0 1 0
vn 0 1 0
vn 0 1 0
vn -1 0 0
vn -1 0 0
vn -1 0 0
vn -1 0 0
vn 0 -1 0
vn 0 -1 0
vn 0 -1 0
vn 0 -1 0
vn 1 0 0
vn 1 0 0
vn 1 0 0
vn 1 0 0
vn 0 0 1
vn 0 0 1
vn 0.01274945 0.008678925 0.999881
vn 0 0 1
vn 0.01307781 -0.007357948 0.9998875
vn 0 0 1
vn -0.009688677 0.009118116 0.9999115
vn -0.00996345 -0.007730118 0.9999205
vn 0.01334524 0.01435972 0.9998079
vn 0.01203107 -0.01341078 0.9998376
vn -0.01245563 0.01260153 0.999843
vn -0.01135596 -0.01192085 0.9998645
vn 0.008390886 0.007924256 0.9999334
vn 0.007076033 0.009547551 0.9999294
vn -0.006211933 0.009747999 0.9999332
vn 0.00753272 -0.006706434 0.9999492
vn -0.007976985 0.007322751 0.9999413
vn 0.007020436 -0.007178577 0.9999496
vn -0.006617217 -0.006861263 0.9999546
vn -0.006760797 -0.006713986 0.9999546
vn 0.6970837 -0.6970822 -0.1677816
vn -0.1757374 -0.1757378 -0.9686241
vn -0.6970837 -0.6970822 -0.1677816
vn 0.1757374 -0.1757378 -0.9686241
vn -0.1757374 0.1757378 -0.9686241
vn -0.6970841 0.6970816 -0.1677828
vn 0.1757374 0.1757378 -0.9686241
vn 0.6970841 0.6970816 -0.1677828
vn -0.3723438 -0.3723461 0.8501285
vn 0.3723438 -0.3723461 0.8501285
vn 0.3723436 0.3723485 0.8501276
vn -0.3723436 0.3723485 0.8501276
vn 0.1280984 0.1281004 0.9834537
vn -0.1280984 0.1281004 0.9834537
vn -0.1280983 -0.1281008 0.9834536
vn 0.1280983 -0.1281008 0.9834536
vn 0.06036693 0.06036848 0.9963491
vn -0.06036693 0.06036848 0.9963491
vn -0.06036693 -0.06036848 0.9963491
vn 0.06036693 -0.06036848 0.9963491
vn 0.02789639 0.02789542 0.9992216
vn -0.02789639 0.02789542 0.9992216
vn -0.02789639 -0.02789542 0.9992216
vn 0.02789639 -0.02789542 0.9992216
g Box004_0
f 3/3/3 2/2/2 1/1/1
f 4/4/4 2/2/2 3/3/3
f 7/7/7 6/6/6 5/5/5
f 8/8/8 7/7/7 5/5/5
f 9/9/9 8/8/8 5/5/5
f 5/5/5 10/10/10 9/9/9
f 11/11/11 9/9/9 10/10/10
f 10/10/10 12/12/12 11/11/11
f 13/13/13 11/11/11 12/12/12
f 12/12/12 14/14/14 13/13/13
f 17/17/17 16/16/16 15/15/15
f 18/18/18 17/17/17 15/15/15
f 19/19/19 18/18/18 15/15/15
f 15/15/15 20/20/20 19/19/19
f 21/21/21 19/19/19 20/20/20
f 20/20/20 22/22/22 21/21/21
f 22/22/22 23/23/23 21/21/21
f 22/22/22 24/24/24 23/23/23
f 27/27/27 26/26/26 25/25/25
f 28/28/28 27/27/27 25/25/25
f 28/28/28 25/25/25 29/29/29
f 29/29/29 30/30/30 28/28/28
f 30/30/30 29/29/29 31/31/31
f 31/31/31 32/32/32 30/30/30
f 32/32/32 31/31/31 33/33/33
f 33/33/33 34/34/34 32/32/32
f 37/37/37 36/36/36 35/35/35
f 35/35/35 38/38/38 37/37/37
f 37/37/37 38/38/38 39/39/39
f 39/39/39 40/40/40 37/37/37
f 40/40/40 39/39/39 41/41/41
f 41/41/41 42/42/42 40/40/40
f 42/42/42 41/41/41 43/43/43
f 43/43/43 44/44/44 42/42/42
f 47/47/47 46/46/46 45/45/45
f 46/46/46 48/48/48 45/45/45
f 51/51/51 50/50/50 49/49/49
f 49/49/49 52/52/52 51/51/51
f 55/55/55 54/54/54 53/53/53
f 54/54/54 56/56/56 53/53/53
f 59/59/59 58/58/58 57/57/57
f 57/57/57 60/60/60 59/59/59
f 63/63/63 62/62/62 61/61/61
f 64/64/64 62/62/62 63/63/63
f 61/61/61 65/65/65 63/63/63
f 65/65/65 61/61/61 66/66/66
f 67/67/67 64/64/64 63/63/63
f 66/66/66 64/64/64 67/67/67
f 66/66/66 68/68/68 65/65/65
f 68/68/68 66/66/66 67/67/67
f 69/69/69 63/63/63 65/65/65
f 67/67/67 63/63/63 69/69/69
f 69/69/69 65/65/65 70/70/70
f 70/70/70 65/65/65 68/68/68
f 69/69/69 71/71/71 67/67/67
f 68/68/68 67/67/67 71/71/71
f 68/68/68 72/72/72 70/70/70
f 71/71/71 72/72/72 68/68/68
f 75/75/75 74/74/74 73/73/73
f 73/73/73 74/74/74 76/76/76
f 77/77/77 75/75/75 73/73/73
f 76/76/76 78/78/78 73/73/73
f 79/79/79 75/75/75 77/77/77
f 78/78/78 76/76/76 79/79/79
f 80/80/80 79/79/79 77/77/77
f 79/79/79 80/80/80 78/78/78
f 83/83/83 82/82/82 81/81/81
f 82/82/82 84/84/84 81/81/81
f 85/85/85 82/82/82 83/83/83
f 86/86/86 85/85/85 83/83/83
f 85/85/85 86/86/86 87/87/87
f 84/84/84 87/87/87 88/88/88
f 81/81/81 84/84/84 88/88/88
f 86/86/86 88/88/88 87/87/87
f 89/89/89 83/83/83 81/81/81
f 86/86/86 83/83/83 89/89/89
f 90/90/90 81/81/81 88/88/88
f 81/81/81 90/90/90 89/89/89
f 91/91/91 88/88/88 86/86/86
f 88/88/88 91/91/91 90/90/90
f 86/86/86 92/92/92 91/91/91
f 89/89/89 92/92/92 86/86/86
f 92/92/92 93/93/93 91/91/91
f 90/90/90 91/91/91 93/93/93
f 89/89/89 94/94/94 92/92/92
f 92/92/92 94/94/94 93/93/93
f 95/95/95 89/89/89 90/90/90
f 89/89/89 95/95/95 94/94/94
f 93/93/93 96/96/96 90/90/90
f 90/90/90 96/96/96 95/95/95
f 94/94/94 97/97/97 93/93/93
f 95/95/95 98/98/98 94/94/94
f 94/94/94 98/98/98 97/97/97
f 99/99/99 95/95/95 96/96/96
f 95/95/95 99/99/99 98/98/98
f 93/93/93 100/100/100 96/96/96
f 93/93/93 97/97/97 100/100/100
f 96/96/96 100/100/100 99/99/99
f 98/98/98 101/101/101 97/97/97
f 99/99/99 102/102/102 98/98/98
f 98/98/98 102/102/102 101/101/101
f 99/99/99 103/103/103 102/102/102
f 103/103/103 99/99/99 100/100/100
f 101/101/101 102/102/102 103/103/103
f 97/97/97 101/101/101 104/104/104
f 97/97/97 104/104/104 100/100/100
f 103/103/103 104/104/104 101/101/101
f 100/100/100 104/104/104 103/103/103
