g Collection Numbered - d6 text-12
v -0.05549311 0.06422409 0.03922971
v -0.06238248 -0.06381072 -0.02792539
v -0.006347123 0.06332528 -0.06850395
v 0.0005414629 0.1913603 -0.00134933
v -0.06238248 -0.06381072 -0.02792539
v -0.0005413056 -0.1913603 0.001349645
v 0.05549405 -0.06422402 -0.03922923
v -0.006347123 0.06332528 -0.06850395
v 0.06238263 0.06381088 0.02792555
v 0.0005414629 0.1913603 -0.00134933
v -0.006347123 0.06332528 -0.06850395
v 0.05549405 -0.06422402 -0.03922923
v 0.05549405 -0.06422402 -0.03922923
v -0.0005413056 -0.1913603 0.001349645
v 0.006347594 -0.06332543 0.06850442
v 0.06238263 0.06381088 0.02792555
v 0.06238263 0.06381088 0.02792555
v 0.006347594 -0.06332543 0.06850442
v -0.05549311 0.06422409 0.03922971
v 0.0005414629 0.1913603 -0.00134933
v -0.06238248 -0.06381072 -0.02792539
v -0.05549311 0.06422409 0.03922971
v 0.006347594 -0.06332543 0.06850442
v -0.0005413056 -0.1913603 0.001349645
vt 0.509056 0.9427346
vt 0.5278537 0.8749606
vt 0.5576667 0.928545
vt 0.5600145 0.9906793
vt 0.5278537 0.8749606
vt 0.5533644 0.8146902
vt 0.5833507 0.8728636
vt 0.5576667 0.928545
vt 0.6072096 0.9390255
vt 0.5600145 0.9906793
vt 0.5576667 0.928545
vt 0.5833507 0.8728636
vt 0.5864494 0.8404624
vt 0.6342113 0.7893324
vt 0.6358736 0.8514887
vt 0.6095771 0.9068836
vt 0.6095771 0.9068836
vt 0.6358736 0.8514887
vt 0.6650935 0.9053988
vt 0.6389198 0.9653841
vt 0.684638 0.8378364
vt 0.6650935 0.9053988
vt 0.6358736 0.8514887
vt 0.6342113 0.7893324
vn -0.8780726 0.258472 -0.4027166
vn -0.8780727 0.258472 -0.4027166
vn -0.8780727 0.258472 -0.4027166
vn -0.8780727 0.258472 -0.4027166
vn -0.09295864 -0.2653308 -0.9596657
vn -0.09295865 -0.2653308 -0.9596657
vn -0.09295865 -0.2653308 -0.9596657
vn -0.09295864 -0.2653308 -0.9596657
vn 0.7873093 0.2526337 -0.5624236
vn 0.7873093 0.2526336 -0.5624235
vn 0.7873093 0.2526336 -0.5624236
vn 0.7873093 0.2526336 -0.5624236
vn 0.878072 -0.2584703 0.4027192
vn 0.878072 -0.2584703 0.4027191
vn 0.878072 -0.2584703 0.4027191
vn 0.878072 -0.2584703 0.4027192
vn 0.09296127 0.2653307 0.9596655
vn 0.09296127 0.2653306 0.9596655
vn 0.09296127 0.2653307 0.9596655
vn 0.09296128 0.2653306 0.9596655
vn -0.7873095 -0.252632 0.5624241
vn -0.7873095 -0.252632 0.5624241
vn -0.7873094 -0.2526319 0.5624241
vn -0.7873094 -0.2526319 0.5624241
g Collection Numbered - d6 text-12_0
f 3/3/3 2/2/2 1/1/1
f 4/4/4 3/3/3 1/1/1
f 7/7/7 6/6/6 5/5/5
f 8/8/8 7/7/7 5/5/5
f 11/11/11 10/10/10 9/9/9
f 12/12/12 11/11/11 9/9/9
f 15/15/15 14/14/14 13/13/13
f 16/16/16 15/15/15 13/13/13
f 19/19/19 18/18/18 17/17/17
f 20/20/20 19/19/19 17/17/17
f 23/23/23 22/22/22 21/21/21
f 24/24/24 23/23/23 21/21/21
