g Hanh_lang_6_hit_box
v 1.826631 -0.8961827 -0.93681
v 1.826631 -0.8961827 -0.2806773
v 0.9910449 3.23099 -0.2806775
v 1.026462 3.230991 -0.9368102
v 1.826631 -0.8961827 -0.2806773
v -1.851433 -0.8961827 -0.2806771
v -1.001635 3.23099 -0.2806772
v 0.9910449 3.23099 -0.2806775
v -1.851433 -0.8961827 -0.2806771
v -1.851434 -0.8961827 -0.9368097
v -1.045384 3.230991 -0.93681
v -1.001635 3.23099 -0.2806772
v -1.851434 -0.8961827 -0.9368097
v 1.826631 -0.8961827 -0.93681
v 1.026462 3.230991 -0.9368102
v -1.045384 3.230991 -0.93681
v 1.026462 3.230991 -0.9368102
v 0.9910449 3.23099 -0.2806775
v -1.001635 3.23099 -0.2806772
v -1.045384 3.230991 -0.93681
v -1.851434 -0.8961827 -0.9368097
v -1.851433 -0.8961827 -0.2806771
v 1.826631 -0.8961827 -0.2806773
v 1.826631 -0.8961827 -0.93681
v 0.9905542 1.937222 -0.3350166
v 0.9905542 1.937223 0.4979703
v 3.092712 1.937222 0.4979703
v 3.092712 1.937221 -0.3350166
v 0.9905542 1.937223 0.4979703
v 0.9905542 3.25998 0.4979704
v 3.092712 3.259979 0.4979704
v 3.092712 1.937222 0.4979703
v 0.9905542 3.25998 0.4979704
v 0.9905542 3.259976 -0.3350166
v 3.092712 3.259975 -0.3350166
v 3.092712 3.259979 0.4979704
v 0.9905542 3.259976 -0.3350166
v 0.9905542 1.937222 -0.3350166
v 3.092712 1.937221 -0.3350166
v 3.092712 3.259975 -0.3350166
v 3.092712 1.937221 -0.3350166
v 3.092712 1.937222 0.4979703
v 3.092712 3.259979 0.4979704
v 3.092712 3.259975 -0.3350166
v 0.9905542 3.259976 -0.3350166
v 0.9905542 3.25998 0.4979704
v 0.9905542 1.937223 0.4979703
v 0.9905542 1.937222 -0.3350166
v 3.092712 0.1100829 -0.3350166
v 3.092712 0.1100814 0.4979703
v 0.9136394 0.1100814 0.4979703
v 0.9136394 0.1100829 -0.3350165
v 3.092712 0.1100814 0.4979703
v 3.092712 -0.9251415 0.4979703
v 0.9136394 -0.9251405 0.4979703
v 0.9136394 0.1100814 0.4979703
v 3.092712 -0.9251415 0.4979703
v 3.092712 -0.9251381 -0.3350166
v 0.9136394 -0.9251367 -0.3350166
v 0.9136394 -0.9251405 0.4979703
v 3.092712 -0.9251381 -0.3350166
v 3.092712 0.1100829 -0.3350166
v 0.9136394 0.1100829 -0.3350165
v 0.9136394 -0.9251367 -0.3350166
v 0.9136394 0.1100829 -0.3350165
v 0.9136394 0.1100814 0.4979703
v 0.9136394 -0.9251405 0.4979703
v 0.9136394 -0.9251367 -0.3350166
v 3.092712 -0.9251381 -0.3350166
v 3.092712 -0.9251415 0.4979703
v 3.092712 0.1100814 0.4979703
v 3.092712 0.1100829 -0.3350166
v 0.9137175 -0.8872572 -0.9368102
v 0.9137176 -0.8872572 -0.2806773
v 3.092715 -0.8872577 -0.2806774
v 3.092716 -0.8872577 -0.9368102
v 0.9137176 -0.8872572 -0.2806773
v 0.9905545 3.260036 -0.2806771
v 3.092716 3.260038 -0.2806771
v 3.092715 -0.8872577 -0.2806774
v 0.9905545 3.260036 -0.2806771
v 0.9137174 3.260036 -0.93681
v 3.092716 3.260036 -0.93681
v 3.092716 3.260038 -0.2806771
v 0.9137174 3.260036 -0.93681
v 0.9137175 -0.8872572 -0.9368102
v 3.092716 -0.8872577 -0.9368102
v 3.092716 3.260036 -0.93681
v 3.092716 -0.8872577 -0.9368102
v 3.092715 -0.8872577 -0.2806774
v 3.092716 3.260038 -0.2806771
v 3.092716 3.260036 -0.93681
v 0.9137174 3.260036 -0.93681
v 0.9905545 3.260036 -0.2806771
v 0.9137176 -0.8872572 -0.2806773
v 0.9137175 -0.8872572 -0.9368102
v -3.092722 1.937222 -0.3350166
v -3.092723 1.937223 0.4979703
v -1.001389 1.937222 0.4979703
v -1.001389 1.937221 -0.3350167
v -3.092723 1.937223 0.4979703
v -3.092723 3.25998 0.4979704
v -1.001389 3.259979 0.4979704
v -1.001389 1.937222 0.4979703
v -3.092723 3.25998 0.4979704
v -3.092722 3.259976 -0.3350166
v -1.001389 3.259975 -0.3350167
v -1.001389 3.259979 0.4979704
v -3.092722 3.259976 -0.3350166
v -3.092722 1.937222 -0.3350166
v -1.001389 1.937221 -0.3350167
v -1.001389 3.259975 -0.3350167
v -1.001389 1.937221 -0.3350167
v -1.001389 1.937222 0.4979703
v -1.001389 3.259979 0.4979704
v -1.001389 3.259975 -0.3350167
v -3.092722 3.259976 -0.3350166
v -3.092723 3.25998 0.4979704
v -3.092723 1.937223 0.4979703
v -3.092722 1.937222 -0.3350166
v -0.9136046 0.1100831 -0.3350166
v -0.9136046 0.1100817 0.4979703
v -3.092722 0.1100819 0.4979703
v -3.092722 0.1100833 -0.3350166
v -0.9136046 0.1100817 0.4979703
v -0.9136046 -0.925141 0.4979703
v -3.092722 -0.9251405 0.4979703
v -3.092722 0.1100819 0.4979703
v -0.9136046 -0.925141 0.4979703
v -0.9136046 -0.9251376 -0.3350166
v -3.092722 -0.9251367 -0.3350167
v -3.092722 -0.9251405 0.4979703
v -0.9136046 -0.9251376 -0.3350166
v -0.9136046 0.1100831 -0.3350166
v -3.092722 0.1100833 -0.3350166
v -3.092722 -0.9251367 -0.3350167
v -3.092722 0.1100833 -0.3350166
v -3.092722 0.1100819 0.4979703
v -3.092722 -0.9251405 0.4979703
v -3.092722 -0.9251367 -0.3350167
v -0.9136046 -0.9251376 -0.3350166
v -0.9136046 -0.925141 0.4979703
v -0.9136046 0.1100817 0.4979703
v -0.9136046 0.1100831 -0.3350166
v -3.092644 -0.8872572 -0.93681
v -3.092644 -0.8872572 -0.2806773
v -0.9136008 -0.8872572 -0.2806774
v -0.913601 -0.8872572 -0.9368102
v -3.092644 -0.8872572 -0.2806773
v -3.092644 3.260036 -0.2806771
v -1.001389 3.260038 -0.2806772
v -0.9136008 -0.8872572 -0.2806774
v -3.092644 3.260036 -0.2806771
v -3.092645 3.260036 -0.9368097
v -0.913601 3.260036 -0.9368101
v -1.001389 3.260038 -0.2806772
v -3.092645 3.260036 -0.9368097
v -3.092644 -0.8872572 -0.93681
v -0.913601 -0.8872572 -0.9368102
v -0.913601 3.260036 -0.9368101
v -0.913601 -0.8872572 -0.9368102
v -0.9136008 -0.8872572 -0.2806774
v -1.001389 3.260038 -0.2806772
v -0.913601 3.260036 -0.9368101
v -3.092645 3.260036 -0.9368097
v -3.092644 3.260036 -0.2806771
v -3.092644 -0.8872572 -0.2806773
v -3.092644 -0.8872572 -0.93681
v -0.9135534 -2.069053 -0.3350166
v -0.9135548 -2.069053 0.4979703
v -0.9135543 -0.8960449 0.4979703
v -0.9135531 -0.8960449 -0.3350166
v -0.9135548 -2.069053 0.4979703
v -1.851383 -2.069053 0.4979703
v -1.851383 -0.8960449 0.4979703
v -0.9135543 -0.8960449 0.4979703
v -1.851383 -2.069053 0.4979703
v -1.85138 -2.069053 -0.3350166
v -1.85138 -0.8960449 -0.3350166
v -1.851383 -0.8960449 0.4979703
v -1.85138 -2.069053 -0.3350166
v -0.9135534 -2.069053 -0.3350166
v -0.9135531 -0.8960449 -0.3350166
v -1.85138 -0.8960449 -0.3350166
v -0.9135531 -0.8960449 -0.3350166
v -0.9135543 -0.8960449 0.4979703
v -1.851383 -0.8960449 0.4979703
v -1.85138 -0.8960449 -0.3350166
v -1.85138 -2.069053 -0.3350166
v -1.851383 -2.069053 0.4979703
v -0.9135548 -2.069053 0.4979703
v -0.9135534 -2.069053 -0.3350166
v 0.9135851 -0.8960449 -0.3350166
v 0.9135866 -0.8960449 0.4979703
v 0.9135864 -2.069053 0.4979703
v 0.9135848 -2.069053 -0.3350166
v 0.9135866 -0.8960449 0.4979703
v 1.860229 -0.8960449 0.4979702
v 1.860228 -2.069053 0.4979703
v 0.9135864 -2.069053 0.4979703
v 1.860229 -0.8960449 0.4979702
v 1.860226 -0.8960449 -0.3350166
v 1.860225 -2.069053 -0.3350167
v 1.860228 -2.069053 0.4979703
v 1.860226 -0.8960449 -0.3350166
v 0.9135851 -0.8960449 -0.3350166
v 0.9135848 -2.069053 -0.3350166
v 1.860225 -2.069053 -0.3350167
v 0.9135848 -2.069053 -0.3350166
v 0.9135864 -2.069053 0.4979703
v 1.860228 -2.069053 0.4979703
v 1.860225 -2.069053 -0.3350167
v 1.860226 -0.8960449 -0.3350166
v 1.860229 -0.8960449 0.4979702
v 0.9135866 -0.8960449 0.4979703
v 0.9135851 -0.8960449 -0.3350166
v 1.826631 -2.068975 -0.93681
v 1.826631 -2.068975 -0.2806773
v 1.826632 -0.8960382 -0.2806774
v 1.826631 -0.8960382 -0.9368102
v 1.826631 -2.068975 -0.2806773
v -1.851433 -2.068975 -0.2806771
v -1.851435 -0.8960377 -0.2806771
v 1.826632 -0.8960382 -0.2806774
v -1.851433 -2.068975 -0.2806771
v -1.851434 -2.068975 -0.9368097
v -1.851433 -0.8960377 -0.93681
v -1.851435 -0.8960377 -0.2806771
v -1.851434 -2.068975 -0.9368097
v 1.826631 -2.068975 -0.93681
v 1.826631 -0.8960382 -0.9368102
v -1.851433 -0.8960377 -0.93681
v 1.826631 -0.8960382 -0.9368102
v 1.826632 -0.8960382 -0.2806774
v -1.851435 -0.8960377 -0.2806771
v -1.851433 -0.8960377 -0.93681
v -1.851434 -2.068975 -0.9368097
v -1.851433 -2.068975 -0.2806771
v 1.826631 -2.068975 -0.2806773
v 1.826631 -2.068975 -0.93681
v -1.001738 1.937221 -0.3350166
v -1.001738 1.937223 0.4979703
v 0.9912713 1.937222 0.4979703
v 0.9912713 1.937221 -0.3350167
v -1.001738 1.937223 0.4979703
v -1.001738 3.25998 0.4979704
v 0.9912714 3.259979 0.4979704
v 0.9912713 1.937222 0.4979703
v -1.001738 3.25998 0.4979704
v -1.001738 3.259976 -0.3350166
v 0.9912713 3.259975 -0.3350167
v 0.9912714 3.259979 0.4979704
v -1.001738 3.259976 -0.3350166
v -1.001738 1.937221 -0.3350166
v 0.9912713 1.937221 -0.3350167
v 0.9912713 3.259975 -0.3350167
v 0.9912713 1.937221 -0.3350167
v 0.9912713 1.937222 0.4979703
v 0.9912714 3.259979 0.4979704
v 0.9912713 3.259975 -0.3350167
v -1.001738 3.259976 -0.3350166
v -1.001738 3.25998 0.4979704
v -1.001738 1.937223 0.4979703
v -1.001738 1.937221 -0.3350166
vt 0.8992784 0.3986849
vt 0.8874975 0.3955828
vt 0.8873022 0.4162561
vt 0.8914533 0.405442
vt 0.8067107 0.5526752
vt 0.9658031 0.5525161
vt 0.9656443 0.3934236
vt 0.8065516 0.3935826
vt 0.9080066 0.3956044
vt 0.9052621 0.4073855
vt 0.8978776 0.4123097
vt 0.9086451 0.4167708
vt 0.9052621 0.4073855
vt 0.8992784 0.3986849
vt 0.8914533 0.405442
vt 0.8978776 0.4123097
vt 0.8914533 0.405442
vt 0.8873022 0.4162561
vt 0.9086451 0.4167708
vt 0.8978776 0.4123097
vt 0.9052621 0.4073855
vt 0.9080066 0.3956044
vt 0.8874975 0.3955828
vt 0.8992784 0.3986849
vt 0.5214292 0.222319
vt 0.5214295 0.3952973
vt 0.7924007 0.3952971
vt 0.7924005 0.2223187
vt 0.5247713 0.4832373
vt 0.5241674 0.4824993
vt 0.5223725 0.4822991
vt 0.5207753 0.4833267
vt 0.5241674 0.4824993
vt 0.5232466 0.4810977
vt 0.5214518 0.4808975
vt 0.5223725 0.4822991
vt 0.5232466 0.4810977
vt 0.5248439 0.4800701
vt 0.5208478 0.4801595
vt 0.5214518 0.4808975
vt 0.5208478 0.4801595
vt 0.5207753 0.4833267
vt 0.5223725 0.4822991
vt 0.5214518 0.4808975
vt 0.5232466 0.4810977
vt 0.5241674 0.4824993
vt 0.5247713 0.4832373
vt 0.5248439 0.4800701
vt 0.5214292 0.222319
vt 0.5214295 0.3952973
vt 0.7924007 0.3952971
vt 0.7924005 0.2223187
vt 0.5247713 0.4832373
vt 0.5241674 0.4824993
vt 0.5223725 0.4822991
vt 0.5207753 0.4833267
vt 0.5241674 0.4824993
vt 0.5232466 0.4810977
vt 0.5214518 0.4808975
vt 0.5223725 0.4822991
vt 0.5232466 0.4810977
vt 0.5248439 0.4800701
vt 0.5208478 0.4801595
vt 0.5214518 0.4808975
vt 0.5208478 0.4801595
vt 0.5207753 0.4833267
vt 0.5223725 0.4822991
vt 0.5214518 0.4808975
vt 0.5232466 0.4810977
vt 0.5241674 0.4824993
vt 0.5247713 0.4832373
vt 0.5248439 0.4800701
vt 0.8992784 0.3986849
vt 0.8874975 0.3955828
vt 0.8873022 0.4162561
vt 0.8914533 0.405442
vt 0.8067107 0.5526752
vt 0.9658031 0.5525161
vt 0.9656443 0.3934236
vt 0.8065516 0.3935826
vt 0.9080066 0.3956044
vt 0.9052621 0.4073855
vt 0.8978776 0.4123097
vt 0.9086451 0.4167708
vt 0.9052621 0.4073855
vt 0.8992784 0.3986849
vt 0.8914533 0.405442
vt 0.8978776 0.4123097
vt 0.8914533 0.405442
vt 0.8873022 0.4162561
vt 0.9086451 0.4167708
vt 0.8978776 0.4123097
vt 0.9052621 0.4073855
vt 0.9080066 0.3956044
vt 0.8874975 0.3955828
vt 0.8992784 0.3986849
vt 0.5214292 0.222319
vt 0.5214295 0.3952973
vt 0.7924007 0.3952971
vt 0.7924005 0.2223187
vt 0.5247713 0.4832373
vt 0.5241674 0.4824993
vt 0.5223725 0.4822991
vt 0.5207753 0.4833267
vt 0.5241674 0.4824993
vt 0.5232466 0.4810977
vt 0.5214518 0.4808975
vt 0.5223725 0.4822991
vt 0.5232466 0.4810977
vt 0.5248439 0.4800701
vt 0.5208478 0.4801595
vt 0.5214518 0.4808975
vt 0.5208478 0.4801595
vt 0.5207753 0.4833267
vt 0.5223725 0.4822991
vt 0.5214518 0.4808975
vt 0.5232466 0.4810977
vt 0.5241674 0.4824993
vt 0.5247713 0.4832373
vt 0.5248439 0.4800701
vt 0.5214292 0.222319
vt 0.5214295 0.3952973
vt 0.7924007 0.3952971
vt 0.7924005 0.2223187
vt 0.5247713 0.4832373
vt 0.5241674 0.4824993
vt 0.5223725 0.4822991
vt 0.5207753 0.4833267
vt 0.5241674 0.4824993
vt 0.5232466 0.4810977
vt 0.5214518 0.4808975
vt 0.5223725 0.4822991
vt 0.5232466 0.4810977
vt 0.5248439 0.4800701
vt 0.5208478 0.4801595
vt 0.5214518 0.4808975
vt 0.5208478 0.4801595
vt 0.5207753 0.4833267
vt 0.5223725 0.4822991
vt 0.5214518 0.4808975
vt 0.5232466 0.4810977
vt 0.5241674 0.4824993
vt 0.5247713 0.4832373
vt 0.5248439 0.4800701
vt 0.8992784 0.3986849
vt 0.8874975 0.3955828
vt 0.8873022 0.4162561
vt 0.8914533 0.405442
vt 0.8067107 0.5526752
vt 0.9658031 0.5525161
vt 0.9656443 0.3934236
vt 0.8065516 0.3935826
vt 0.9080066 0.3956044
vt 0.9052621 0.4073855
vt 0.8978776 0.4123097
vt 0.9086451 0.4167708
vt 0.9052621 0.4073855
vt 0.8992784 0.3986849
vt 0.8914533 0.405442
vt 0.8978776 0.4123097
vt 0.8914533 0.405442
vt 0.8873022 0.4162561
vt 0.9086451 0.4167708
vt 0.8978776 0.4123097
vt 0.9052621 0.4073855
vt 0.9080066 0.3956044
vt 0.8874975 0.3955828
vt 0.8992784 0.3986849
vt 0.5214292 0.222319
vt 0.5214295 0.3952973
vt 0.7924007 0.3952971
vt 0.7924005 0.2223187
vt 0.5247713 0.4832373
vt 0.5241674 0.4824993
vt 0.5223725 0.4822991
vt 0.5207753 0.4833267
vt 0.5241674 0.4824993
vt 0.5232466 0.4810977
vt 0.5214518 0.4808975
vt 0.5223725 0.4822991
vt 0.5232466 0.4810977
vt 0.5248439 0.4800701
vt 0.5208478 0.4801595
vt 0.5214518 0.4808975
vt 0.5208478 0.4801595
vt 0.5207753 0.4833267
vt 0.5223725 0.4822991
vt 0.5214518 0.4808975
vt 0.5232466 0.4810977
vt 0.5241674 0.4824993
vt 0.5247713 0.4832373
vt 0.5248439 0.4800701
vt 0.5214292 0.222319
vt 0.5214295 0.3952973
vt 0.7924007 0.3952971
vt 0.7924005 0.2223187
vt 0.5247713 0.4832373
vt 0.5241674 0.4824993
vt 0.5223725 0.4822991
vt 0.5207753 0.4833267
vt 0.5241674 0.4824993
vt 0.5232466 0.4810977
vt 0.5214518 0.4808975
vt 0.5223725 0.4822991
vt 0.5232466 0.4810977
vt 0.5248439 0.4800701
vt 0.5208478 0.4801595
vt 0.5214518 0.4808975
vt 0.5208478 0.4801595
vt 0.5207753 0.4833267
vt 0.5223725 0.4822991
vt 0.5214518 0.4808975
vt 0.5232466 0.4810977
vt 0.5241674 0.4824993
vt 0.5247713 0.4832373
vt 0.5248439 0.4800701
vt 0.8992784 0.3986849
vt 0.8874975 0.3955828
vt 0.8873022 0.4162561
vt 0.8914533 0.405442
vt 0.8067107 0.5526752
vt 0.9658031 0.5525161
vt 0.9656443 0.3934236
vt 0.8065516 0.3935826
vt 0.9080066 0.3956044
vt 0.9052621 0.4073855
vt 0.8978776 0.4123097
vt 0.9086451 0.4167708
vt 0.9052621 0.4073855
vt 0.8992784 0.3986849
vt 0.8914533 0.405442
vt 0.8978776 0.4123097
vt 0.8914533 0.405442
vt 0.8873022 0.4162561
vt 0.9086451 0.4167708
vt 0.8978776 0.4123097
vt 0.9052621 0.4073855
vt 0.9080066 0.3956044
vt 0.8874975 0.3955828
vt 0.8992784 0.3986849
vt 0.5214292 0.222319
vt 0.5214295 0.3952973
vt 0.7924007 0.3952971
vt 0.7924005 0.2223187
vt 0.5247713 0.4832373
vt 0.5241674 0.4824993
vt 0.5223725 0.4822991
vt 0.5207753 0.4833267
vt 0.5241674 0.4824993
vt 0.5232466 0.4810977
vt 0.5214518 0.4808975
vt 0.5223725 0.4822991
vt 0.5232466 0.4810977
vt 0.5248439 0.4800701
vt 0.5208478 0.4801595
vt 0.5214518 0.4808975
vt 0.5208478 0.4801595
vt 0.5207753 0.4833267
vt 0.5223725 0.4822991
vt 0.5214518 0.4808975
vt 0.5232466 0.4810977
vt 0.5241674 0.4824993
vt 0.5247713 0.4832373
vt 0.5248439 0.4800701
vn 0.9805809 0.1943207 0.02646527
vn 0.9805809 0.1943207 0.02646527
vn 0.9805809 0.1943207 0.02646527
vn 0.9805809 0.1943207 0.02646527
vn 0 0 1
vn 0 0 1
vn 0 0 1
vn 0 0 1
vn -0.9799435 0.1965798 0.03267042
vn -0.9799435 0.1965798 0.03267042
vn -0.9799435 0.1965798 0.03267042
vn -0.9799435 0.1965798 0.03267042
vn 0 0 -1
vn 0 0 -1
vn 0 0 -1
vn 0 0 -1
vn 0 1 0
vn 0 1 0
vn 0 1 0
vn 0 1 0
vn 0 -1 0
vn 0 -1 0
vn 0 -1 0
vn 0 -1 0
vn 0 -1 0
vn 0 -1 0
vn 0 -1 0
vn 0 -1 0
vn 0 0 1
vn 0 0 1
vn 0 0 1
vn 0 0 1
vn 0 1 -4.865761E-06
vn 0 1 -4.865761E-06
vn 0 1 -4.865761E-06
vn 0 1 -4.865761E-06
vn 0 0 -1
vn 0 0 -1
vn 0 0 -1
vn 0 0 -1
vn 1 0 0
vn 1 0 0
vn 1 0 0
vn 1 0 0
vn -1 0 0
vn -1 0 0
vn -1 0 0
vn -1 0 0
vn 0 1 0
vn 0 1 0
vn 0 1 0
vn 0 1 0
vn 0 0 1
vn 0 0 1
vn 0 0 1
vn 0 0 1
vn 0 -1 -4.293319E-06
vn 0 -1 -4.293319E-06
vn 0 -1 -4.293319E-06
vn 0 -1 -4.293319E-06
vn 0 0 -1
vn 0 0 -1
vn 0 0 -1
vn 0 0 -1
vn -1 0 0
vn -1 0 0
vn -1 0 0
vn -1 0 0
vn 1 0 0
vn 1 0 0
vn 1 0 0
vn 1 0 0
vn 0 -1 0
vn 0 -1 0
vn 0 -1 0
vn 0 -1 0
vn 0 0 1
vn 0 0 1
vn 0 0 1
vn 0 0 1
vn 0 1 0
vn 0 1 0
vn 0 1 0
vn 0 1 0
vn 0 0 -1
vn 0 0 -1
vn 0 0 -1
vn 0 0 -1
vn 1 0 0
vn 1 0 0
vn 1 0 0
vn 1 0 0
vn -0.9982475 0.009247253 0.05845045
vn -0.9982475 0.009247254 0.05845045
vn -0.9982475 0.009247254 0.05845045
vn -0.9982475 0.009247254 0.05845045
vn 0 -1 0
vn 0 -1 0
vn 0 -1 0
vn 0 -1 0
vn 0 0 1
vn 0 0 1
vn 0 0 1
vn 0 0 1
vn 0 1 -4.865762E-06
vn 0 1 -4.865762E-06
vn 0 1 -4.865761E-06
vn 0 1 -4.865762E-06
vn 0 0 -1
vn 0 0 -1
vn 0 0 -1
vn 0 0 -1
vn 1 0 0
vn 1 0 0
vn 1 0 0
vn 1 0 0
vn -1 0 0
vn -1 0 0
vn -1 0 0
vn -1 0 0
vn 0 1 0
vn 0 1 0
vn 0 1 0
vn 0 1 0
vn 0 0 1
vn 0 0 1
vn 0 0 1
vn 0 0 1
vn 0 -1 -4.293319E-06
vn 0 -1 -4.293319E-06
vn 0 -1 -4.293319E-06
vn 0 -1 -4.293319E-06
vn 0 0 -1
vn 0 0 -1
vn 0 0 -1
vn 0 0 -1
vn -1 0 0
vn -1 0 0
vn -1 0 0
vn -1 0 0
vn 1 0 0
vn 1 0 0
vn 1 0 0
vn 1 0 0
vn 0 -1 0
vn 0 -1 0
vn 0 -1 0
vn 0 -1 0
vn 0 0 1
vn 0 0 1
vn 0 0 1
vn 0 0 1
vn 0 1 0
vn 0 1 0
vn 0 1 0
vn 0 1 0
vn 0 0 -1
vn 0 0 -1
vn 0 0 -1
vn 0 0 -1
vn 0.9977143 0.01055959 0.06674482
vn 0.9977143 0.01055959 0.06674482
vn 0.9977143 0.01055959 0.06674482
vn 0.9977143 0.01055959 0.06674482
vn -1 0 0
vn -1 0 0
vn -1 0 0
vn -1 0 0
vn 1 0 0
vn 1 0 0
vn 1 0 0
vn 1 0 0
vn 0 0 1
vn 0 0 1
vn 0 0 1
vn 0 0 1
vn -1 0 -4.007098E-06
vn -1 0 -4.007098E-06
vn -1 0 -4.007098E-06
vn -1 0 -4.007098E-06
vn 0 0 -1
vn 0 0 -1
vn 0 0 -1
vn 0 0 -1
vn 0 1 0
vn 0 1 0
vn 0 1 0
vn 0 1 0
vn 0 -1 0
vn 0 -1 0
vn 0 -1 0
vn 0 -1 0
vn -1 0 0
vn -1 0 0
vn -1 0 0
vn -1 0 0
vn 0 0 1
vn 0 0 1
vn 0 0 1
vn 0 0 1
vn 1 0 -3.863987E-06
vn 1 0 -3.863987E-06
vn 1 0 -3.863987E-06
vn 1 0 -3.863987E-06
vn 0 0 -1
vn 0 0 -1
vn 0 0 -1
vn 0 0 -1
vn 0 -1 0
vn 0 -1 0
vn 0 -1 0
vn 0 -1 0
vn 0 1 0
vn 0 1 0
vn 0 1 0
vn 0 1 0
vn 1 0 0
vn 1 0 0
vn 1 0 0
vn 1 0 0
vn 0 0 1
vn 0 0 1
vn 0 0 1
vn 0 0 1
vn -1 0 0
vn -1 0 0
vn -1 0 0
vn -1 0 0
vn 0 0 -1
vn 0 0 -1
vn 0 0 -1
vn 0 0 -1
vn 0 1 0
vn 0 1 0
vn 0 1 0
vn 0 1 0
vn 0 -1 0
vn 0 -1 0
vn 0 -1 0
vn 0 -1 0
vn 0 -1 0
vn 0 -1 0
vn 0 -1 0
vn 0 -1 0
vn 0 0 1
vn 0 0 1
vn 0 0 1
vn 0 0 1
vn 0 1 -4.865761E-06
vn 0 1 -4.865761E-06
vn 0 1 -4.865761E-06
vn 0 1 -4.865761E-06
vn 0 0 -1
vn 0 0 -1
vn 0 0 -1
vn 0 0 -1
vn 1 0 0
vn 1 0 0
vn 1 0 0
vn 1 0 0
vn -1 0 0
vn -1 0 0
vn -1 0 0
vn -1 0 0
g Hanh_lang_6_hit_box_0
f 3/3/3 2/2/2 1/1/1
f 4/4/4 3/3/3 1/1/1
f 7/7/7 6/6/6 5/5/5
f 8/8/8 7/7/7 5/5/5
f 11/11/11 10/10/10 9/9/9
f 12/12/12 11/11/11 9/9/9
f 15/15/15 14/14/14 13/13/13
f 16/16/16 15/15/15 13/13/13
f 19/19/19 18/18/18 17/17/17
f 20/20/20 19/19/19 17/17/17
f 23/23/23 22/22/22 21/21/21
f 24/24/24 23/23/23 21/21/21
f 27/27/27 26/26/26 25/25/25
f 28/28/28 27/27/27 25/25/25
f 31/31/31 30/30/30 29/29/29
f 32/32/32 31/31/31 29/29/29
f 35/35/35 34/34/34 33/33/33
f 36/36/36 35/35/35 33/33/33
f 39/39/39 38/38/38 37/37/37
f 40/40/40 39/39/39 37/37/37
f 43/43/43 42/42/42 41/41/41
f 44/44/44 43/43/43 41/41/41
f 47/47/47 46/46/46 45/45/45
f 48/48/48 47/47/47 45/45/45
f 51/51/51 50/50/50 49/49/49
f 52/52/52 51/51/51 49/49/49
f 55/55/55 54/54/54 53/53/53
f 56/56/56 55/55/55 53/53/53
f 59/59/59 58/58/58 57/57/57
f 60/60/60 59/59/59 57/57/57
f 63/63/63 62/62/62 61/61/61
f 64/64/64 63/63/63 61/61/61
f 67/67/67 66/66/66 65/65/65
f 68/68/68 67/67/67 65/65/65
f 71/71/71 70/70/70 69/69/69
f 72/72/72 71/71/71 69/69/69
f 75/75/75 74/74/74 73/73/73
f 76/76/76 75/75/75 73/73/73
f 79/79/79 78/78/78 77/77/77
f 80/80/80 79/79/79 77/77/77
f 83/83/83 82/82/82 81/81/81
f 84/84/84 83/83/83 81/81/81
f 87/87/87 86/86/86 85/85/85
f 88/88/88 87/87/87 85/85/85
f 91/91/91 90/90/90 89/89/89
f 92/92/92 91/91/91 89/89/89
f 95/95/95 94/94/94 93/93/93
f 96/96/96 95/95/95 93/93/93
f 99/99/99 98/98/98 97/97/97
f 100/100/100 99/99/99 97/97/97
f 103/103/103 102/102/102 101/101/101
f 104/104/104 103/103/103 101/101/101
f 107/107/107 106/106/106 105/105/105
f 108/108/108 107/107/107 105/105/105
f 111/111/111 110/110/110 109/109/109
f 112/112/112 111/111/111 109/109/109
f 115/115/115 114/114/114 113/113/113
f 116/116/116 115/115/115 113/113/113
f 119/119/119 118/118/118 117/117/117
f 120/120/120 119/119/119 117/117/117
f 123/123/123 122/122/122 121/121/121
f 124/124/124 123/123/123 121/121/121
f 127/127/127 126/126/126 125/125/125
f 128/128/128 127/127/127 125/125/125
f 131/131/131 130/130/130 129/129/129
f 132/132/132 131/131/131 129/129/129
f 135/135/135 134/134/134 133/133/133
f 136/136/136 135/135/135 133/133/133
f 139/139/139 138/138/138 137/137/137
f 140/140/140 139/139/139 137/137/137
f 143/143/143 142/142/142 141/141/141
f 144/144/144 143/143/143 141/141/141
f 147/147/147 146/146/146 145/145/145
f 148/148/148 147/147/147 145/145/145
f 151/151/151 150/150/150 149/149/149
f 152/152/152 151/151/151 149/149/149
f 155/155/155 154/154/154 153/153/153
f 156/156/156 155/155/155 153/153/153
f 159/159/159 158/158/158 157/157/157
f 160/160/160 159/159/159 157/157/157
f 163/163/163 162/162/162 161/161/161
f 164/164/164 163/163/163 161/161/161
f 167/167/167 166/166/166 165/165/165
f 168/168/168 167/167/167 165/165/165
f 171/171/171 170/170/170 169/169/169
f 172/172/172 171/171/171 169/169/169
f 175/175/175 174/174/174 173/173/173
f 176/176/176 175/175/175 173/173/173
f 179/179/179 178/178/178 177/177/177
f 180/180/180 179/179/179 177/177/177
f 183/183/183 182/182/182 181/181/181
f 184/184/184 183/183/183 181/181/181
f 187/187/187 186/186/186 185/185/185
f 188/188/188 187/187/187 185/185/185
f 191/191/191 190/190/190 189/189/189
f 192/192/192 191/191/191 189/189/189
f 195/195/195 194/194/194 193/193/193
f 196/196/196 195/195/195 193/193/193
f 199/199/199 198/198/198 197/197/197
f 200/200/200 199/199/199 197/197/197
f 203/203/203 202/202/202 201/201/201
f 204/204/204 203/203/203 201/201/201
f 207/207/207 206/206/206 205/205/205
f 208/208/208 207/207/207 205/205/205
f 211/211/211 210/210/210 209/209/209
f 212/212/212 211/211/211 209/209/209
f 215/215/215 214/214/214 213/213/213
f 216/216/216 215/215/215 213/213/213
f 219/219/219 218/218/218 217/217/217
f 220/220/220 219/219/219 217/217/217
f 223/223/223 222/222/222 221/221/221
f 224/224/224 223/223/223 221/221/221
f 227/227/227 226/226/226 225/225/225
f 228/228/228 227/227/227 225/225/225
f 231/231/231 230/230/230 229/229/229
f 232/232/232 231/231/231 229/229/229
f 235/235/235 234/234/234 233/233/233
f 236/236/236 235/235/235 233/233/233
f 239/239/239 238/238/238 237/237/237
f 240/240/240 239/239/239 237/237/237
f 243/243/243 242/242/242 241/241/241
f 244/244/244 243/243/243 241/241/241
f 247/247/247 246/246/246 245/245/245
f 248/248/248 247/247/247 245/245/245
f 251/251/251 250/250/250 249/249/249
f 252/252/252 251/251/251 249/249/249
f 255/255/255 254/254/254 253/253/253
f 256/256/256 255/255/255 253/253/253
f 259/259/259 258/258/258 257/257/257
f 260/260/260 259/259/259 257/257/257
f 263/263/263 262/262/262 261/261/261
f 264/264/264 263/263/263 261/261/261
