g Mesh2706
v 0.04367566 -0.0398629 -1.049042E-05
v -0.04403019 -0.03983191 -1.144409E-05
v -0.04367638 -0.0398629 -1.049042E-05
v 0.04402971 -0.03983191 -1.144409E-05
v -0.04437375 -0.03973988 -1.144409E-05
v 0.04437304 -0.03973988 -1.144409E-05
v -0.04469538 -0.03958979 -1.049042E-05
v 0.04469538 -0.03958979 -1.049042E-05
v -0.04498696 -0.03938594 -1.049042E-05
v 0.04498553 -0.03938594 -1.049042E-05
v -0.04523849 -0.03913477 -1.049042E-05
v 0.04523706 -0.03913477 -1.049042E-05
v -0.0454421 -0.03884366 -1.049042E-05
v 0.04544139 -0.03884366 -1.049042E-05
v -0.04559159 -0.03852168 -1.049042E-05
v 0.04559112 -0.03852168 -1.049042E-05
v -0.04568434 -0.03817859 -1.144409E-05
v 0.04568291 -0.03817859 -1.144409E-05
v -0.04571438 -0.03782454 -1.049042E-05
v 0.04571438 -0.03782454 -1.049042E-05
v -0.04568434 -0.03747061 -1.144409E-05
v 0.04568291 -0.03747061 -1.144409E-05
v -0.04559159 -0.03712752 -1.049042E-05
v 0.04559112 -0.03712752 -1.049042E-05
v -0.0454421 -0.03680542 -1.049042E-05
v 0.04544139 -0.03680542 -1.049042E-05
v 0.004856586 -0.0323948 -1.049042E-05
v -0.01125526 -0.003777534 -1.049042E-05
v -0.001765966 0.03884396 -1.144409E-05
v 0.01608515 -0.008525759 -1.049042E-05
v 0.001159906 -0.01352611 -1.049042E-05
v 0.001764536 0.03884396 -1.144409E-05
v -0.003798723 0.01813301 -1.049042E-05
v 0.001758814 0.0005824268 -1.049042E-05
v -0.001561642 0.03913495 -1.049042E-05
v 0.001561165 0.03913495 -1.049042E-05
v -0.001310349 0.03938612 -1.144409E-05
v 0.001309633 0.03938612 -1.144409E-05
v -0.001019955 0.03958997 -1.049042E-05
v 0.001018763 0.03958997 -1.049042E-05
v -0.0006976128 0.03974006 -1.049042E-05
v 0.0006968975 0.03974006 -1.049042E-05
v -0.00035429 0.03983209 -1.049042E-05
v 0.0003535748 0.03983209 -1.049042E-05
v -2.384186E-07 0.03986296 -1.144409E-05
vt 0.3139648 0.1165161
vt 8.804688 0.1195068
vt 8.773438 0.1165161
vt 0.279541 0.1195068
vt 8.84375 0.128418
vt 0.2463379 0.128418
vt 8.875 0.1429443
vt 0.21521 0.1429443
vt 8.898438 0.1627197
vt 0.1870117 0.1627197
vt 8.921875 0.1870117
vt 0.1627197 0.1870117
vt 8.945313 0.21521
vt 0.1429443 0.21521
vt 8.960938 0.2463379
vt 0.128418 0.2463379
vt 8.96875 0.279541
vt 0.1195068 0.279541
vt 8.96875 0.3139648
vt 0.1165161 0.3139648
vt 8.96875 0.3481445
vt 0.1195068 0.3481445
vt 8.960938 0.3813477
vt 0.128418 0.3813477
vt 8.945313 0.4125977
vt 0.1429443 0.4125977
vt 4.074219 0.8398438
vt 5.632813 3.611328
vt 4.714844 7.738281
vt 2.986328 3.150391
vt 4.429688 2.667969
vt 4.371094 7.738281
vt 4.910156 5.734375
vt 4.375 4.035156
vt 4.695313 7.765625
vt 4.390625 7.765625
vt 4.671875 7.792969
vt 4.417969 7.792969
vt 4.640625 7.8125
vt 4.445313 7.8125
vt 4.609375 7.824219
vt 4.476563 7.824219
vt 4.578125 7.835938
vt 4.507813 7.835938
vt 4.542969 7.835938
vn 0 0 -1
vn 0 0 -1
vn 0 0 -1
vn 0 0 -1
vn 0 0 -1
vn 0 0 -1
vn 0 0 -1
vn 0 0 -1
vn 0 0 -1
vn 0 0 -1
vn 0 0 -1
vn 0 0 -1
vn 0 0 -1
vn 0 0 -1
vn 0 0 -1
vn 0 0 -1
vn 0 0 -1
vn 0 0 -1
vn 0 0 -1
vn 0 0 -1
vn 0 0 -1
vn 0 0 -1
vn 0 0 -1
vn 0 0 -1
vn 0 0 -1
vn 0 0 -1
vn 0 0 -1
vn 0 0 -1
vn 0 0 -1
vn 0 0 -1
vn 0 0 -1
vn 0 0 -1
vn 0 0 -1
vn 0 0 -1
vn 0 0 -1
vn 0 0 -1
vn 0 0 -1
vn 0 0 -1
vn 0 0 -1
vn 0 0 -1
vn 0 0 -1
vn 0 0 -1
vn 0 0 -1
vn 0 0 -1
vn 0 0 -1
g Mesh2706_0
f 3/3/3 2/2/2 1/1/1
f 4/4/4 1/1/1 2/2/2
f 5/5/5 4/4/4 2/2/2
f 6/6/6 4/4/4 5/5/5
f 7/7/7 6/6/6 5/5/5
f 8/8/8 6/6/6 7/7/7
f 9/9/9 8/8/8 7/7/7
f 10/10/10 8/8/8 9/9/9
f 11/11/11 10/10/10 9/9/9
f 12/12/12 10/10/10 11/11/11
f 13/13/13 12/12/12 11/11/11
f 14/14/14 12/12/12 13/13/13
f 15/15/15 14/14/14 13/13/13
f 16/16/16 14/14/14 15/15/15
f 17/17/17 16/16/16 15/15/15
f 18/18/18 16/16/16 17/17/17
f 19/19/19 18/18/18 17/17/17
f 20/20/20 18/18/18 19/19/19
f 21/21/21 20/20/20 19/19/19
f 22/22/22 20/20/20 21/21/21
f 23/23/23 22/22/22 21/21/21
f 24/24/24 22/22/22 23/23/23
f 25/25/25 24/24/24 23/23/23
f 26/26/26 24/24/24 25/25/25
f 27/27/27 26/26/26 25/25/25
f 28/28/28 27/27/27 25/25/25
f 29/29/29 28/28/28 25/25/25
f 27/27/27 30/30/30 26/26/26
f 31/31/31 30/30/30 27/27/27
f 32/32/32 26/26/26 30/30/30
f 33/33/33 32/32/32 30/30/30
f 33/33/33 28/28/28 29/29/29
f 29/29/29 32/32/32 33/33/33
f 34/34/34 28/28/28 33/33/33
f 35/35/35 32/32/32 29/29/29
f 36/36/36 32/32/32 35/35/35
f 37/37/37 36/36/36 35/35/35
f 38/38/38 36/36/36 37/37/37
f 39/39/39 38/38/38 37/37/37
f 40/40/40 38/38/38 39/39/39
f 41/41/41 40/40/40 39/39/39
f 42/42/42 40/40/40 41/41/41
f 43/43/43 42/42/42 41/41/41
f 44/44/44 42/42/42 43/43/43
f 45/45/45 44/44/44 43/43/43
