g Object044
v 0.05766273 -0.03329182 -0.2979464
v 0.06658411 0 -0.2979464
v 0.05766273 0.03329206 -0.2979464
v 0.03329158 -0.05766344 -0.2979464
v 0.03329158 0.0576632 -0.2979464
v -7.152557E-07 -0.06658435 -0.2979464
v -7.152557E-07 0.06658387 -0.2979464
v -0.03329182 -0.05766344 -0.2979464
v -0.03329182 0.0576632 -0.2979464
v -0.05766392 -0.03329182 -0.2979464
v -0.05766392 0.03329206 -0.2979464
v -0.06658435 0 -0.2979464
v 0.05766273 0.03329206 -0.2979464
v 0.05766273 0.03329206 -0.09329164
v 0.03329158 0.0576632 -0.09329164
v 0.06658411 0 -0.09329164
v 0.03329158 0.0576632 -0.2979464
v 0.06658411 0 -0.2979464
v -7.152557E-07 0.06658387 -0.09329164
v -7.152557E-07 0.06658387 -0.2979464
v -0.03329182 0.0576632 -0.09329164
v -0.03329182 0.0576632 -0.2979464
v 0.05766273 -0.03329182 -0.09329164
v 0.05766273 -0.03329182 -0.2979464
v 0.03329158 -0.05766344 -0.2979464
v 0.03329158 -0.05766344 -0.09329164
v -7.152557E-07 -0.06658435 -0.2979464
v -7.152557E-07 -0.06658435 -0.09329164
v -0.03329182 -0.05766344 -0.2979464
v -0.03329182 -0.05766344 -0.09329164
v -0.05766392 0.03329206 -0.09329164
v -0.05766392 0.03329206 -0.2979464
v -0.06658435 0 -0.2979464
v -0.06658435 0 -0.09329164
v -0.05766392 -0.03329182 -0.2979464
v -0.05766392 -0.03329182 -0.09329164
v -0.02189422 0.03792143 0.2726668
v -0.02595782 0.04495907 -0.08316788
v -7.152557E-07 0.05191422 -0.08316788
v -0.04495931 0.02595711 -0.08316788
v -7.152557E-07 0.04378772 0.2726668
v 0.02595663 0.04495907 -0.08316788
v 0.02189374 0.03792143 0.2726668
v 0.04495859 0.02595711 -0.08316788
v 0.03792048 0.02189374 0.2726668
v 0.05191422 0 -0.08316788
v 0.04378772 0 0.2726668
v 0.04495859 -0.02595687 -0.08316788
v 0.03792048 -0.02189398 0.2726668
v 0.02595663 -0.04495883 -0.08316788
v 0.02189374 -0.03792119 0.2726668
v -7.152557E-07 -0.0523653 -0.08316788
v 0.02189374 -0.01264 0.2911736
v 0.02528048 0 0.2911736
v 0.02189374 0.01264024 0.2911736
v -7.152557E-07 0 0.2979476
v 0.01263976 -0.02189398 0.2911736
v 0.01263976 0.02189374 0.2911736
v -7.152557E-07 -0.02528095 0.2911736
v -7.152557E-07 -0.04378748 0.2726668
v -0.02595782 -0.04495883 -0.08316788
v -7.152557E-07 0.02528048 0.2911736
v -0.01264 0.02189374 0.2911736
v -0.01264 -0.02189398 0.2911736
v -0.02189422 -0.03792119 0.2726668
v -0.04495931 -0.02595687 -0.08316788
v -0.02189422 0.01264024 0.2911736
v -0.02189422 -0.01264 0.2911736
v -0.03792167 -0.02189398 0.2726668
v -0.0523653 0 -0.08316788
v -0.02528095 0 0.2911736
v -0.03792167 0.02189374 0.2726668
v -0.04378796 0 0.2726668
v -7.152557E-07 0.06658387 -0.09329164
v -7.152557E-07 0.05191422 -0.08316788
v -0.02595782 0.04495907 -0.08316788
v 0.02595663 0.04495907 -0.08316788
v -0.03329182 0.0576632 -0.09329164
v 0.03329158 0.0576632 -0.09329164
v -0.04495931 0.02595711 -0.08316788
v 0.04495859 0.02595711 -0.08316788
v -0.05766392 0.03329206 -0.09329164
v 0.05766273 0.03329206 -0.09329164
v -0.0523653 0 -0.08316788
v -0.06658435 0 -0.09329164
v -0.05766392 -0.03329182 -0.09329164
v -0.04495931 -0.02595687 -0.08316788
v -0.03329182 -0.05766344 -0.09329164
v -0.02595782 -0.04495883 -0.08316788
v -7.152557E-07 -0.06658435 -0.09329164
v -7.152557E-07 -0.0523653 -0.08316788
v 0.05191422 0 -0.08316788
v 0.06658411 0 -0.09329164
v 0.05766273 -0.03329182 -0.09329164
v 0.04495859 -0.02595687 -0.08316788
v 0.03329158 -0.05766344 -0.09329164
v 0.02595663 -0.04495883 -0.08316788
vt 0.7369943 0.1225826
vt 0.7369943 0.1225825
vt 0.7369943 0.1225824
vt 0.7369941 0.1225827
vt 0.7369941 0.1225823
vt 0.736994 0.1225828
vt 0.736994 0.1225822
vt 0.7369939 0.1225827
vt 0.7369939 0.1225823
vt 0.7369938 0.1225826
vt 0.7369938 0.1225824
vt 0.7369938 0.1225825
vt 0.7369943 0.1225824
vt 0.7369943 0.1225824
vt 0.7369941 0.1225823
vt 0.7369943 0.1225825
vt 0.7369941 0.1225823
vt 0.7369943 0.1225825
vt 0.736994 0.1225822
vt 0.736994 0.1225822
vt 0.7369939 0.1225823
vt 0.7369939 0.1225823
vt 0.7369943 0.1225826
vt 0.7369943 0.1225826
vt 0.7369941 0.1225827
vt 0.7369941 0.1225827
vt 0.736994 0.1225828
vt 0.736994 0.1225828
vt 0.7369939 0.1225827
vt 0.7369939 0.1225827
vt 0.7369938 0.1225824
vt 0.7369938 0.1225824
vt 0.7369938 0.1225825
vt 0.7369938 0.1225825
vt 0.7369938 0.1225826
vt 0.7369938 0.1225826
vt 0.8728418 0.1025943
vt 0.8728418 0.1025943
vt 0.8728418 0.1025943
vt 0.8728417 0.1025943
vt 0.8728418 0.1025943
vt 0.8728419 0.1025943
vt 0.8728419 0.1025943
vt 0.872842 0.1025943
vt 0.872842 0.1025942
vt 0.872842 0.1025942
vt 0.872842 0.1025942
vt 0.872842 0.1025941
vt 0.872842 0.1025942
vt 0.8728419 0.1025941
vt 0.8728419 0.1025941
vt 0.8728418 0.1025941
vt 0.8728419 0.1025942
vt 0.8728419 0.1025942
vt 0.8728419 0.1025942
vt 0.8728418 0.1025942
vt 0.8728418 0.1025942
vt 0.8728418 0.1025942
vt 0.8728418 0.1025941
vt 0.8728418 0.1025941
vt 0.8728418 0.1025941
vt 0.8728418 0.1025943
vt 0.8728418 0.1025942
vt 0.8728418 0.1025942
vt 0.8728418 0.1025941
vt 0.8728417 0.1025941
vt 0.8728418 0.1025942
vt 0.8728418 0.1025942
vt 0.8728418 0.1025942
vt 0.8728417 0.1025942
vt 0.8728418 0.1025942
vt 0.8728418 0.1025942
vt 0.8728417 0.1025942
vt 0.9691995 0.08153769
vt 0.9691995 0.08153766
vt 0.9691995 0.08153763
vt 0.9691997 0.08153763
vt 0.9691995 0.08153766
vt 0.9691997 0.08153766
vt 0.9691994 0.08153754
vt 0.9691997 0.08153754
vt 0.9691994 0.08153754
vt 0.9691998 0.08153754
vt 0.9691994 0.08153746
vt 0.9691994 0.08153743
vt 0.9691994 0.08153728
vt 0.9691994 0.08153734
vt 0.9691995 0.08153716
vt 0.9691995 0.08153725
vt 0.9691995 0.08153713
vt 0.9691995 0.08153722
vt 0.9691997 0.08153746
vt 0.9691998 0.08153743
vt 0.9691998 0.08153728
vt 0.9691997 0.08153734
vt 0.9691997 0.08153716
vt 0.9691997 0.08153725
vn 0 0 -1
vn 0 0 -1
vn 0 0 -1
vn 0 0 -1
vn 0 0 -1
vn 0 0 -1
vn 0 0 -1
vn 0 0 -1
vn 0 0 -1
vn 0 0 -1
vn 0 0 -1
vn 0 0 -1
vn 0.8660198 0.5000098 0
vn 0.7794471 0.4500254 0.4358202
vn 0.4500177 0.7794523 0.4358189
vn 0.9000344 0 0.4358189
vn 0.5000004 0.8660253 0
vn 1 0 0
vn -3.616598E-06 0.9000351 0.4358174
vn -4.488211E-06 1 0
vn -0.4500131 0.7794554 0.4358182
vn -0.4999957 0.8660278 0
vn 0.779448 -0.4500224 0.4358217
vn 0.8660218 -0.5000063 0
vn 0.5000075 -0.8660212 0
vn 0.4509949 -0.7798041 0.4341764
vn -4.468577E-06 -1 0
vn -3.641673E-06 -0.9012179 0.4333663
vn -0.5000028 -0.8660237 0
vn -0.4509905 -0.7798072 0.4341755
vn -0.7798063 0.4509941 0.4341733
vn -0.8660216 0.5000067 0
vn -1 0 0
vn -0.9012171 0 0.4333679
vn -0.8660235 -0.5000032 0
vn -0.7798072 -0.4509911 0.4341749
vn -0.4639944 0.8036582 0.3726159
vn -0.4303276 0.7453408 0.5092008
vn -2.96411E-06 0.8606479 0.5092007
vn -0.7451137 0.4340564 0.5063602
vn -4.271833E-06 0.9279855 0.3726163
vn 0.4303236 0.7453414 0.5092032
vn 0.4639946 0.8036596 0.3726129
vn 0.7453396 0.4303292 0.509201
vn 0.8036575 0.4639978 0.3726132
vn 0.8606433 0 0.5092084
vn 0.9279885 0 0.3726088
vn 0.7453386 -0.4303294 0.5092022
vn 0.8036562 -0.4640005 0.3726127
vn 0.434062 -0.7451085 0.5063629
vn 0.4661702 -0.8024347 0.3725373
vn -3.055992E-06 -0.8612405 0.5081977
vn 0.4597733 -0.2654482 0.8474348
vn 0.5308962 0 0.8474368
vn 0.4597737 0.2654513 0.8474336
vn -5.052778E-06 0 1
vn 0.2654477 -0.4597727 0.8474353
vn 0.2654432 0.4597709 0.8474376
vn -4.885079E-06 -0.5309023 0.8474331
vn -4.320738E-06 -0.9276891 0.3733537
vn -0.434066 -0.7451079 0.5063605
vn -4.890121E-06 0.5308946 0.8474379
vn -0.2654413 0.4597706 0.8474385
vn -0.2654458 -0.4597723 0.8474362
vn -0.46617 -0.8024333 0.3725403
vn -0.7451127 -0.4340567 0.5063614
vn -0.459772 0.265451 0.8474346
vn -0.4597717 -0.2654478 0.8474358
vn -0.8024352 -0.4661656 0.3725418
vn -0.8612415 0 0.5081958
vn -0.5308986 0 0.8474353
vn -0.8024365 0.466163 0.3725423
vn -0.9276881 0 0.373356
vn -3.616598E-06 0.9000351 0.4358174
vn -2.96411E-06 0.8606479 0.5092007
vn -0.4303276 0.7453408 0.5092008
vn 0.4303236 0.7453414 0.5092032
vn -0.4500131 0.7794554 0.4358182
vn 0.4500177 0.7794523 0.4358189
vn -0.7451137 0.4340564 0.5063602
vn 0.7453396 0.4303292 0.509201
vn -0.7798063 0.4509941 0.4341733
vn 0.7794471 0.4500254 0.4358202
vn -0.8612415 0 0.5081958
vn -0.9012171 0 0.4333679
vn -0.7798072 -0.4509911 0.4341749
vn -0.7451127 -0.4340567 0.5063614
vn -0.4509905 -0.7798072 0.4341755
vn -0.434066 -0.7451079 0.5063605
vn -3.641673E-06 -0.9012179 0.4333663
vn -3.055992E-06 -0.8612405 0.5081977
vn 0.8606433 0 0.5092084
vn 0.9000344 0 0.4358189
vn 0.779448 -0.4500224 0.4358217
vn 0.7453386 -0.4303294 0.5092022
vn 0.4509949 -0.7798041 0.4341764
vn 0.434062 -0.7451085 0.5063629
g Object044_0
f 3/3/3 2/2/2 1/1/1
f 1/1/1 4/4/4 3/3/3
f 4/4/4 5/5/5 3/3/3
f 4/4/4 6/6/6 5/5/5
f 6/6/6 7/7/7 5/5/5
f 6/6/6 8/8/8 7/7/7
f 8/8/8 9/9/9 7/7/7
f 8/8/8 10/10/10 9/9/9
f 10/10/10 11/11/11 9/9/9
f 10/10/10 12/12/12 11/11/11
f 15/15/15 14/14/14 13/13/13
f 14/14/14 16/16/16 13/13/13
f 17/17/17 15/15/15 13/13/13
f 16/16/16 18/18/18 13/13/13
f 19/19/19 15/15/15 17/17/17
f 20/20/20 19/19/19 17/17/17
f 21/21/21 19/19/19 20/20/20
f 22/22/22 21/21/21 20/20/20
f 16/16/16 23/23/23 18/18/18
f 23/23/23 24/24/24 18/18/18
f 24/24/24 23/23/23 25/25/25
f 23/23/23 26/26/26 25/25/25
f 25/25/25 26/26/26 27/27/27
f 26/26/26 28/28/28 27/27/27
f 27/27/27 28/28/28 29/29/29
f 28/28/28 30/30/30 29/29/29
f 31/31/31 21/21/21 22/22/22
f 32/32/32 31/31/31 22/22/22
f 31/31/31 32/32/32 33/33/33
f 34/34/34 31/31/31 33/33/33
f 29/29/29 30/30/30 35/35/35
f 34/34/34 33/33/33 35/35/35
f 30/30/30 36/36/36 35/35/35
f 36/36/36 34/34/34 35/35/35
f 39/39/39 38/38/38 37/37/37
f 38/38/38 40/40/40 37/37/37
f 41/41/41 39/39/39 37/37/37
f 39/39/39 41/41/41 42/42/42
f 41/41/41 43/43/43 42/42/42
f 42/42/42 43/43/43 44/44/44
f 43/43/43 45/45/45 44/44/44
f 44/44/44 45/45/45 46/46/46
f 45/45/45 47/47/47 46/46/46
f 46/46/46 47/47/47 48/48/48
f 47/47/47 49/49/49 48/48/48
f 48/48/48 49/49/49 50/50/50
f 49/49/49 51/51/51 50/50/50
f 50/50/50 51/51/51 52/52/52
f 53/53/53 49/49/49 47/47/47
f 49/49/49 53/53/53 51/51/51
f 54/54/54 47/47/47 45/45/45
f 54/54/54 53/53/53 47/47/47
f 55/55/55 54/54/54 45/45/45
f 45/45/45 43/43/43 55/55/55
f 53/53/53 54/54/54 56/56/56
f 56/56/56 54/54/54 55/55/55
f 57/57/57 53/53/53 56/56/56
f 53/53/53 57/57/57 51/51/51
f 56/56/56 55/55/55 58/58/58
f 43/43/43 58/58/58 55/55/55
f 59/59/59 57/57/57 56/56/56
f 51/51/51 57/57/57 59/59/59
f 51/51/51 60/60/60 52/52/52
f 60/60/60 51/51/51 59/59/59
f 52/52/52 60/60/60 61/61/61
f 62/62/62 58/58/58 43/43/43
f 56/56/56 58/58/58 62/62/62
f 41/41/41 62/62/62 43/43/43
f 62/62/62 41/41/41 63/63/63
f 56/56/56 62/62/62 63/63/63
f 41/41/41 37/37/37 63/63/63
f 59/59/59 64/64/64 60/60/60
f 64/64/64 59/59/59 56/56/56
f 60/60/60 65/65/65 61/61/61
f 64/64/64 65/65/65 60/60/60
f 61/61/61 65/65/65 66/66/66
f 63/63/63 37/37/37 67/67/67
f 67/67/67 56/56/56 63/63/63
f 64/64/64 56/56/56 68/68/68
f 64/64/64 68/68/68 65/65/65
f 65/65/65 69/69/69 66/66/66
f 68/68/68 69/69/69 65/65/65
f 66/66/66 69/69/69 70/70/70
f 68/68/68 56/56/56 71/71/71
f 71/71/71 56/56/56 67/67/67
f 68/68/68 71/71/71 69/69/69
f 37/37/37 72/72/72 67/67/67
f 71/71/71 67/67/67 72/72/72
f 40/40/40 72/72/72 37/37/37
f 70/70/70 73/73/73 40/40/40
f 69/69/69 73/73/73 70/70/70
f 71/71/71 73/73/73 69/69/69
f 73/73/73 72/72/72 40/40/40
f 73/73/73 71/71/71 72/72/72
f 76/76/76 75/75/75 74/74/74
f 75/75/75 77/77/77 74/74/74
f 78/78/78 76/76/76 74/74/74
f 77/77/77 79/79/79 74/74/74
f 80/80/80 76/76/76 78/78/78
f 77/77/77 81/81/81 79/79/79
f 82/82/82 80/80/80 78/78/78
f 81/81/81 83/83/83 79/79/79
f 84/84/84 80/80/80 82/82/82
f 85/85/85 84/84/84 82/82/82
f 84/84/84 85/85/85 86/86/86
f 87/87/87 84/84/84 86/86/86
f 87/87/87 86/86/86 88/88/88
f 89/89/89 87/87/87 88/88/88
f 89/89/89 88/88/88 90/90/90
f 91/91/91 89/89/89 90/90/90
f 81/81/81 92/92/92 83/83/83
f 92/92/92 93/93/93 83/83/83
f 93/93/93 92/92/92 94/94/94
f 92/92/92 95/95/95 94/94/94
f 91/91/91 90/90/90 96/96/96
f 94/94/94 95/95/95 96/96/96
f 97/97/97 91/91/91 96/96/96
f 95/95/95 97/97/97 96/96/96
