g Object002
v -0.02431774 -0.09077562 -1.338713
v -0.06644821 -0.06645237 -1.422105
v -0.06070709 -0.06704216 1.461641
v -0.02127743 -0.09098084 1.446187
v -0.08386993 -0.02513973 1.470255
v 0.02432251 -0.09077562 -1.24243
v -0.09077358 -0.02432337 -1.470255
v 0.02384853 -0.09054135 1.428039
v -0.08455849 0.02349898 1.469721
v 0.06645393 -0.06645235 -1.159039
v -0.09077358 0.02432314 -1.470255
v 0.06259155 -0.06584127 1.41205
v -0.06258678 0.0658413 1.460184
v 0.09077644 -0.02432337 -1.110889
v -0.06644821 0.06645238 -1.422105
v 0.08456039 -0.02349927 1.402514
v -0.02384472 0.09054136 1.444199
v 0.09077644 0.02432314 -1.110889
v -0.02431774 0.09077564 -1.338713
v 0.0838728 0.02513947 1.401981
v 0.02128029 0.09098084 1.426048
v 0.06645393 0.06645238 -1.159039
v 0.02432251 0.09077563 -1.24243
v 0.06071186 0.06704222 1.410596
vt 0.9747109 0.04939216
vt 0.9747108 0.04939228
vt 0.9747109 0.04938796
vt 0.9747109 0.04938799
vt 0.9747108 0.04938796
vt 0.9747109 0.04939201
vt 0.9747108 0.04939234
vt 0.9747109 0.04938802
vt 0.9747108 0.04938796
vt 0.9747111 0.0493919
vt 0.9747108 0.04939234
vt 0.9747111 0.04938805
vt 0.9747109 0.04938796
vt 0.9747111 0.04939181
vt 0.9747108 0.04939228
vt 0.9747111 0.04938805
vt 0.9747109 0.04938799
vt 0.9747111 0.04939181
vt 0.9747109 0.04939216
vt 0.9747111 0.04938805
vt 0.9747109 0.04938802
vt 0.9747111 0.0493919
vt 0.9747109 0.04939201
vt 0.9747111 0.04938805
vn -0.4398654 -0.8980636 0.0005786983
vn -0.8214314 -0.570305 0.001602783
vn -0.744898 -0.6671771 0.001357024
vn -0.3222237 -0.9466636 0.000426582
vn -0.9699234 -0.2434015 0.002079479
vn 0.09117518 -0.9958348 9.800607E-05
vn -0.9847573 -0.1739207 0.002136784
vn 0.2108483 -0.9775187 0.0002293173
vn -0.9739875 0.2265927 0.0020179
vn 0.6163119 -0.7875016 0.0008919145
vn -0.9870344 0.1604952 0.002090248
vn 0.6910907 -0.7227671 0.001151883
vn -0.7546393 0.6561387 0.001219111
vn 0.9555719 -0.2947499 0.00223679
vn -0.8284382 0.5600786 0.001462683
vn 0.9654014 -0.2607584 0.002291142
vn -0.3326654 0.9430448 0.0003356994
vn 0.9515275 0.3075549 0.002332748
vn -0.4490096 0.8935268 0.0004537239
vn 0.9626127 0.270871 0.002379836
vn 0.2022036 0.9793434 0.0002933497
vn 0.6074986 0.79432 0.001051814
vn 0.08178199 0.9966503 0.0001244744
vn 0.6843777 0.7291265 0.001319052
g Object002_0
f 3/3/3 2/2/2 1/1/1
f 4/4/4 3/3/3 1/1/1
f 2/2/2 3/3/3 5/5/5
f 4/4/4 1/1/1 6/6/6
f 7/7/7 2/2/2 5/5/5
f 8/8/8 4/4/4 6/6/6
f 7/7/7 5/5/5 9/9/9
f 8/8/8 6/6/6 10/10/10
f 11/11/11 7/7/7 9/9/9
f 12/12/12 8/8/8 10/10/10
f 11/11/11 9/9/9 13/13/13
f 12/12/12 10/10/10 14/14/14
f 15/15/15 11/11/11 13/13/13
f 16/16/16 12/12/12 14/14/14
f 15/15/15 13/13/13 17/17/17
f 16/16/16 14/14/14 18/18/18
f 19/19/19 15/15/15 17/17/17
f 20/20/20 16/16/16 18/18/18
f 19/19/19 17/17/17 21/21/21
f 20/20/20 18/18/18 22/22/22
f 23/23/23 19/19/19 21/21/21
f 24/24/24 20/20/20 22/22/22
f 23/23/23 21/21/21 24/24/24
f 22/22/22 23/23/23 24/24/24
