g Object048
v 0.1407874 -0.1554179 -0.1190097
v 0.1407874 0.1285388 -0.1031549
v 0.1407874 0.1157684 -0.1190097
v 0.1421168 -0.1567466 -0.09231545
v 0.1421168 0.1027777 -0.09231544
v 0.1407874 0.1285388 0.1101358
v 0.1326602 0.09404683 -0.06667352
v 0.1421168 0.1027777 0.1102664
v 0.1333849 0.09404683 0.1094067
v 0.1319442 -0.1465712 -0.06471826
v -0.1319416 -0.1465712 -0.06471826
v -0.1421163 -0.1567452 -0.09231545
v 0.107383 -0.1220102 -0.05328703
v -0.1073787 -0.1220102 -0.05328703
v 0.107383 0.09404683 -0.05328703
v -0.1073787 0.09404683 -0.05328703
v 0.1251833 0.09404683 0.1506259
v 0.1334128 0.1027777 0.1540322
v 0.1321614 0.1285388 0.1535144
v 0.1023266 0.09404683 0.1848409
v 0.1086199 0.1027777 0.1911352
v 0.1076636 0.1285388 0.1901782
v 0.07100034 0.1285388 0.2146761
v 0.06810522 0.09404635 0.2077026
v 0.1000941 0.1442461 0.1826115
v 0.1222765 0.1442461 0.1494193
v 0.07151723 0.1027777 0.2159266
v 0.0268929 0.09404683 0.2159016
v 0.1302922 0.1442461 0.109102
v 0.1302922 0.1442461 -0.105958
v 0.1072352 0.1567457 0.1068311
v 0.1302922 0.1442461 -0.105958
v 0.1005461 0.1567457 0.1404223
v 0.1072352 0.1567461 -0.1081886
v 0.1072352 0.1465733 -0.1357858
v 0.1072352 0.1567457 0.1068311
v 0.1302922 0.1366265 -0.1266272
v 0.1407874 0.1157684 -0.1190097
v 0.1262419 -0.1408691 -0.1407812
v 0.1407874 -0.1554179 -0.1190097
v 0.08347368 0.1567457 0.165987
v -0.1072376 0.1465733 -0.1357858
v -0.1072347 0.1567461 -0.1081886
v 0.04181409 0.1220114 -0.147217
v -0.0834682 0.1567457 0.165987
v -0.1005504 0.1567457 0.1404223
v -0.1072347 0.1567457 0.1068311
v 0.06690526 0.1442461 0.2047897
v 0.02658296 0.1442461 0.2128093
v 0.05790448 0.1567457 0.183069
v 0.1072352 0.1567461 -0.1081886
v 0.02431035 0.1567457 0.1897507
v -0.02431273 0.1567457 0.1897507
v -0.05790687 0.1567457 0.183069
v -0.0834682 0.1567457 0.165987
v -0.02658534 0.1442461 0.2128093
v -0.06690097 0.1442461 0.2047897
v -0.07099605 0.1285391 0.2146761
v -0.1000936 0.1442461 0.1826115
v -0.1005504 0.1567457 0.1404223
v -0.02761817 0.1285391 0.2233045
v 0.02761865 0.1285391 0.2233045
v 0.02774835 0.1027775 0.2246323
v -0.02774978 0.1027775 0.2246323
v 0.02750039 0.09660459 0.222075
v -0.02688861 0.09404683 0.2159016
v -0.07151484 0.1027777 0.2159266
v -0.06810737 0.09404659 0.2077026
v -0.1023242 0.09404683 0.1848409
v -0.1086175 0.102778 0.1911352
v -0.1251857 0.09404683 0.1506259
v -0.1076612 0.1285391 0.1901782
v -0.1334074 0.1027777 0.1540322
v -0.1333845 0.09404683 0.1094067
v -0.1321619 0.1285391 0.1535144
v -0.1333845 0.09404683 -0.06863284
v -0.1421163 0.1027777 -0.09231544
v -0.1421163 0.1027775 0.1102664
v -0.1222761 0.1442461 0.1494193
v -0.1407871 0.1285388 0.1101358
v -0.1302946 0.1442461 0.109102
v -0.1407869 0.1285388 -0.1031549
v -0.1302946 0.1442461 -0.105958
v -0.1407869 0.1157684 -0.1190097
v -0.1407869 -0.1554179 -0.1190097
v -0.1302946 0.1407626 -0.134717
v -0.1407869 -0.1554179 -0.1190097
v -0.1262414 -0.1408691 -0.1407812
v -0.1072347 0.05659127 -0.147217
v -0.1421163 -0.1567452 -0.09231545
v 0.1421168 -0.1567466 -0.09231545
v -0.09645534 0.08824658 -0.147217
v -0.07582736 0.1104934 -0.147217
v -0.0418117 0.1220114 -0.147217
v -0.07582736 0.1104934 -0.2246318
v -0.09645534 0.08824635 -0.2246318
v -0.0418117 0.1220112 -0.2246318
v -0.1072347 0.0565908 -0.2246318
v 0.04181409 0.1220112 -0.2246318
v -0.1072347 -0.05644417 -0.1472171
v -0.1072347 -0.05644417 -0.2246318
v 0.07031775 0.1139936 -0.147217
v 0.07031775 0.1139934 -0.2246318
v -0.09516501 -0.09209085 -0.1472171
v -0.09516501 -0.09209085 -0.2246318
v -0.07124114 -0.113039 -0.2246318
v 0.09516573 0.09223723 -0.147217
v 0.09516573 0.09223723 -0.2246318
v 0.1072352 0.0565908 -0.2246318
v -0.07124114 -0.113039 -0.147217
v -0.0418117 -0.1218634 -0.2246318
v 0.1072352 0.05659127 -0.147217
v 0.1072352 -0.05644417 -0.2246318
v -0.0418117 -0.1218634 -0.147217
v 0.04181409 -0.1218634 -0.2246318
v 0.1072352 -0.05644417 -0.1472171
v 0.09962583 -0.084481 -0.2246318
v 0.04181409 -0.1218634 -0.147217
v 0.07455564 -0.1107793 -0.2246318
v 0.09962583 -0.084481 -0.1472171
v 0.07455564 -0.1107793 -0.147217
v 0.09962583 -0.084481 -0.2246318
v 0.1072352 -0.05644417 -0.2246318
v 0.1072352 0.0565908 -0.2246318
v 0.09516573 0.09223723 -0.2246318
v 0.07455564 -0.1107793 -0.2246318
v 0.07031775 0.1139934 -0.2246318
v 0.04181409 -0.1218634 -0.2246318
v 0.04181409 0.1220112 -0.2246318
v -0.0418117 -0.1218634 -0.2246318
v -0.0418117 0.1220112 -0.2246318
v -0.07124114 -0.113039 -0.2246318
v -0.07582736 0.1104934 -0.2246318
v -0.09516501 -0.09209085 -0.2246318
v -0.09645534 0.08824635 -0.2246318
v -0.1072347 -0.05644417 -0.2246318
v -0.1072347 0.0565908 -0.2246318
vt 0.7514471 0.1299059
vt 0.7514471 0.1299065
vt 0.7514471 0.1299064
vt 0.7514471 0.1299058
vt 0.7514471 0.1299064
vt 0.7514471 0.1299065
vt 0.7514471 0.1299064
vt 0.7514471 0.1299064
vt 0.7514471 0.1299064
vt 0.7514471 0.1299059
vt 0.7514466 0.1299059
vt 0.7514466 0.1299058
vt 0.7514471 0.1299059
vt 0.7514467 0.1299059
vt 0.7514471 0.1299064
vt 0.7514467 0.1299064
vt 0.7514471 0.1299064
vt 0.7514471 0.1299064
vt 0.7514471 0.1299065
vt 0.7514471 0.1299064
vt 0.7514471 0.1299064
vt 0.7514471 0.1299065
vt 0.751447 0.1299065
vt 0.751447 0.1299064
vt 0.7514471 0.1299065
vt 0.7514471 0.1299065
vt 0.751447 0.1299064
vt 0.751447 0.1299064
vt 0.7514471 0.1299065
vt 0.7514471 0.1299065
vt 0.7514471 0.1299065
vt 0.7514471 0.1299065
vt 0.7514471 0.1299065
vt 0.7514471 0.1299065
vt 0.7514471 0.1299065
vt 0.7514471 0.1299065
vt 0.7514471 0.1299065
vt 0.7514471 0.1299064
vt 0.7514471 0.1299059
vt 0.7514471 0.1299059
vt 0.751447 0.1299065
vt 0.7514467 0.1299065
vt 0.7514467 0.1299065
vt 0.751447 0.1299064
vt 0.7514467 0.1299065
vt 0.7514467 0.1299065
vt 0.7514467 0.1299065
vt 0.751447 0.1299065
vt 0.751447 0.1299065
vt 0.751447 0.1299065
vt 0.7514471 0.1299065
vt 0.751447 0.1299065
vt 0.7514468 0.1299065
vt 0.7514467 0.1299065
vt 0.7514467 0.1299065
vt 0.7514468 0.1299065
vt 0.7514467 0.1299065
vt 0.7514467 0.1299065
vt 0.7514467 0.1299065
vt 0.7514467 0.1299065
vt 0.7514468 0.1299065
vt 0.751447 0.1299065
vt 0.751447 0.1299064
vt 0.7514468 0.1299064
vt 0.751447 0.1299064
vt 0.7514468 0.1299064
vt 0.7514467 0.1299064
vt 0.7514467 0.1299064
vt 0.7514467 0.1299064
vt 0.7514467 0.1299064
vt 0.7514466 0.1299064
vt 0.7514467 0.1299065
vt 0.7514466 0.1299064
vt 0.7514466 0.1299064
vt 0.7514466 0.1299065
vt 0.7514466 0.1299064
vt 0.7514466 0.1299064
vt 0.7514466 0.1299064
vt 0.7514466 0.1299065
vt 0.7514466 0.1299065
vt 0.7514466 0.1299065
vt 0.7514466 0.1299065
vt 0.7514466 0.1299065
vt 0.7514466 0.1299064
vt 0.7514466 0.1299059
vt 0.7514466 0.1299065
vt 0.7514466 0.1299059
vt 0.7514466 0.1299059
vt 0.7514467 0.1299063
vt 0.7514466 0.1299058
vt 0.7514471 0.1299058
vt 0.7514467 0.1299064
vt 0.7514467 0.1299064
vt 0.7514468 0.1299064
vt 0.7514467 0.1299064
vt 0.7514467 0.1299064
vt 0.7514468 0.1299064
vt 0.7514467 0.1299063
vt 0.751447 0.1299064
vt 0.7514467 0.1299061
vt 0.7514467 0.1299061
vt 0.751447 0.1299064
vt 0.751447 0.1299064
vt 0.7514467 0.129906
vt 0.7514467 0.129906
vt 0.7514467 0.129906
vt 0.7514471 0.1299064
vt 0.7514471 0.1299064
vt 0.7514471 0.1299063
vt 0.7514467 0.129906
vt 0.7514468 0.1299059
vt 0.7514471 0.1299063
vt 0.7514471 0.1299061
vt 0.7514468 0.1299059
vt 0.751447 0.1299059
vt 0.7514471 0.1299061
vt 0.7514471 0.129906
vt 0.751447 0.1299059
vt 0.751447 0.129906
vt 0.7514471 0.129906
vt 0.751447 0.129906
vt 0.7514471 0.129906
vt 0.7514471 0.1299061
vt 0.7514471 0.1299063
vt 0.7514471 0.1299064
vt 0.751447 0.129906
vt 0.751447 0.1299064
vt 0.751447 0.1299059
vt 0.751447 0.1299064
vt 0.7514468 0.1299059
vt 0.7514468 0.1299064
vt 0.7514467 0.129906
vt 0.7514467 0.1299064
vt 0.7514467 0.129906
vt 0.7514467 0.1299064
vt 0.7514467 0.1299061
vt 0.7514467 0.1299063
vn 0.6487477 -0.6627241 -0.374063
vn 0.9446369 0.3147656 -0.09264897
vn 0.9296829 0.1012064 -0.3541848
vn 0.6948269 -0.6939178 0.188928
vn 0.9991475 -0.03784643 0.01648885
vn 0.9457898 0.3111418 0.09312541
vn 0.7643504 -0.5332217 0.3625507
vn 0.9297966 -0.3564894 0.09161705
vn 0.3947372 -0.9179702 0.03890072
vn 0.5198555 -0.515453 0.6812184
vn -0.5231819 -0.5147356 0.6792113
vn -0.6948496 -0.6938964 0.1889227
vn 0.1748485 -0.1638345 0.9708688
vn -0.1845234 -0.1631915 0.9691851
vn 0.1480859 -0.7642786 0.6276534
vn -0.1549614 -0.7688798 0.6203312
vn 0.3853949 -0.9088371 0.1596434
vn 0.8665984 -0.3466602 0.3589343
vn 0.8784098 0.3098727 0.363834
vn 0.2950148 -0.9088088 0.2950133
vn 0.6632549 -0.3466585 0.6632652
vn 0.6723045 0.3098679 0.6723009
vn 0.3638487 0.3098656 0.8784062
vn 0.1683154 -0.9078993 0.3839125
vn 0.483162 0.7301354 0.4831735
vn 0.6313084 0.7301225 0.2614782
vn 0.3661293 -0.3456153 0.864002
vn 0.04130068 -0.9149409 0.4014692
vn 0.6769381 0.7330154 0.06665909
vn 0.6803304 0.7186496 -0.1438515
vn 0.2578816 0.9658424 0.02540468
vn 0.6803304 0.7186496 -0.1438515
vn 0.2493312 0.9628953 0.1032795
vn 0.2425729 0.9550471 -0.1704208
vn 0.2706667 0.6325607 -0.7256766
vn 0.2578816 0.9658424 0.02540468
vn 0.6712805 0.4516511 -0.5877021
vn 0.9296829 0.1012064 -0.3541848
vn 0.3757448 -0.3910969 -0.8401541
vn 0.6487477 -0.6627241 -0.374063
vn 0.1908877 0.9628756 0.1908729
vn -0.1902464 0.6710131 -0.7166225
vn -0.2143443 0.9655929 -0.1472643
vn 0.08710245 0.8132546 -0.5753521
vn -0.190858 0.9628823 0.1908683
vn -0.2493524 0.9628875 0.1033007
vn -0.2578663 0.9658467 0.02540061
vn 0.2614962 0.7301218 0.6313019
vn 0.06666349 0.7330184 0.6769343
vn 0.1032891 0.9628804 0.2493845
vn 0.2425729 0.9550471 -0.1704208
vn 0.02539434 0.9658454 0.2578716
vn -0.02539713 0.9658448 0.2578739
vn -0.1033091 0.9628763 0.2493923
vn -0.190858 0.9628823 0.1908683
vn -0.06667528 0.7330142 0.6769377
vn -0.2614934 0.7301165 0.631309
vn -0.3638425 0.3098684 0.8784077
vn -0.483157 0.730126 0.4831928
vn -0.2493524 0.9628875 0.1033007
vn -0.09315145 0.3111262 0.9457925
vn 0.09314894 0.3111252 0.945793
vn 0.09323799 -0.3554405 0.930037
vn -0.09797762 -0.3509086 0.9312699
vn 0.07218034 -0.7088025 0.7017043
vn -0.04601897 -0.9154058 0.3998931
vn -0.3589647 -0.3466136 0.8666044
vn -0.1596651 -0.9087998 0.3854737
vn -0.2950569 -0.9087846 0.2950457
vn -0.6632687 -0.3466133 0.663275
vn -0.3855014 -0.9087846 0.1596851
vn -0.6722964 0.3098445 0.6723197
vn -0.8665937 -0.3466317 0.3589732
vn -0.3996321 -0.9158298 0.03937046
vn -0.8784232 0.3098096 0.3638553
vn -0.7791375 -0.5133706 0.3597156
vn -0.9991419 -0.03850011 0.01526878
vn -0.9316711 -0.3515214 0.09176939
vn -0.6313052 0.7301166 0.2615024
vn -0.9458092 0.3110775 0.09314379
vn -0.6769635 0.7329915 0.06666334
vn -0.9510998 0.3028584 -0.06071278
vn -0.6802992 0.7264677 -0.09714761
vn -0.9541427 0.09949299 -0.2823346
vn -0.6634133 -0.6623677 -0.3480687
vn -0.6062751 0.4916718 -0.6250516
vn -0.6634133 -0.6623677 -0.3480687
vn -0.4050967 -0.4027657 -0.820778
vn -0.8000746 0.1128071 -0.5891988
vn -0.6948496 -0.6938964 0.1889227
vn 0.6948269 -0.6939178 0.188928
vn -0.6273513 0.3965981 -0.6701792
vn -0.3999 0.6256291 -0.669827
vn -0.1029442 0.8059568 -0.5829546
vn -0.5436789 0.8392933 0
vn -0.8587707 0.5123601 0
vn -0.1625199 0.9867052 0
vn -0.9865653 0.1633671 0
vn 0.1366729 0.9906161 -3.050844E-06
vn -0.8006477 -0.09258974 -0.5919378
vn -0.9867062 -0.1625142 0
vn 0.3492575 0.6653526 -0.6597918
vn 0.4765094 0.8791693 0
vn -0.580961 -0.3783846 -0.7206312
vn -0.8314708 -0.5555684 0
vn -0.4840248 -0.8750542 0
vn 0.6745968 0.3973112 -0.6221437
vn 0.8314646 0.5555776 0
vn 0.9867064 0.1625126 0
vn -0.3347577 -0.6247405 -0.7054335
vn -0.145144 -0.9894105 0
vn 0.8493291 0.1142863 -0.5153434
vn 0.9912333 -0.1321235 0
vn -0.09018227 -0.7776533 -0.6221916
vn 0.1624876 -0.9867106 0
vn 0.8489038 -0.06440903 -0.5246081
vn 0.8711492 -0.4910185 0
vn 0.1004474 -0.7723489 -0.6272061
vn 0.5378307 -0.8430529 0
vn 0.6173333 -0.3340366 -0.7122635
vn 0.3687559 -0.5935812 -0.7153184
vn 0 0 -1
vn 0 0 -1
vn 0 0 -1
vn 0 0 -1
vn 0 0 -1
vn 0 0 -1
vn 0 0 -1
vn 0 0 -1
vn 0 0 -1
vn 0 0 -1
vn 0 0 -1
vn 0 0 -1
vn 0 0 -1
vn 0 0 -1
vn 0 0 -1
vn 0 0 -1
g Object048_0
f 3/3/3 2/2/2 1/1/1
f 2/2/2 4/4/4 1/1/1
f 5/5/5 4/4/4 2/2/2
f 2/2/2 6/6/6 5/5/5
f 4/4/4 5/5/5 7/7/7
f 6/6/6 8/8/8 5/5/5
f 7/7/7 5/5/5 9/9/9
f 5/5/5 8/8/8 9/9/9
f 10/10/10 4/4/4 7/7/7
f 4/4/4 10/10/10 11/11/11
f 12/12/12 4/4/4 11/11/11
f 10/10/10 7/7/7 13/13/13
f 10/10/10 13/13/13 14/14/14
f 11/11/11 10/10/10 14/14/14
f 7/7/7 15/15/15 13/13/13
f 14/14/14 13/13/13 15/15/15
f 15/15/15 7/7/7 9/9/9
f 16/16/16 14/14/14 15/15/15
f 11/11/11 14/14/14 16/16/16
f 15/15/15 9/9/9 17/17/17
f 9/9/9 8/8/8 18/18/18
f 17/17/17 9/9/9 18/18/18
f 8/8/8 6/6/6 19/19/19
f 18/18/18 8/8/8 19/19/19
f 20/20/20 15/15/15 17/17/17
f 20/20/20 17/17/17 18/18/18
f 21/21/21 20/20/20 18/18/18
f 18/18/18 19/19/19 22/22/22
f 21/21/21 18/18/18 22/22/22
f 22/22/22 23/23/23 21/21/21
f 24/24/24 20/20/20 21/21/21
f 15/15/15 20/20/20 24/24/24
f 25/25/25 22/22/22 19/19/19
f 23/23/23 22/22/22 25/25/25
f 19/19/19 6/6/6 26/26/26
f 26/26/26 25/25/25 19/19/19
f 27/27/27 24/24/24 21/21/21
f 23/23/23 27/27/27 21/21/21
f 28/28/28 15/15/15 24/24/24
f 28/28/28 24/24/24 27/27/27
f 6/6/6 29/29/29 26/26/26
f 6/6/6 2/2/2 29/29/29
f 2/2/2 30/30/30 29/29/29
f 26/26/26 29/29/29 31/31/31
f 29/29/29 32/32/32 31/31/31
f 33/33/33 26/26/26 31/31/31
f 25/25/25 26/26/26 33/33/33
f 32/32/32 34/34/34 31/31/31
f 35/35/35 34/34/34 32/32/32
f 33/33/33 36/36/36 34/34/34
f 37/37/37 32/32/32 2/2/2
f 37/37/37 35/35/35 32/32/32
f 38/38/38 37/37/37 2/2/2
f 39/39/39 37/37/37 38/38/38
f 40/40/40 39/39/39 38/38/38
f 41/41/41 25/25/25 33/33/33
f 41/41/41 33/33/33 34/34/34
f 35/35/35 42/42/42 34/34/34
f 42/42/42 43/43/43 34/34/34
f 35/35/35 44/44/44 42/42/42
f 45/45/45 34/34/34 43/43/43
f 46/46/46 45/45/45 43/43/43
f 47/47/47 46/46/46 43/43/43
f 48/48/48 25/25/25 41/41/41
f 48/48/48 23/23/23 25/25/25
f 48/48/48 49/49/49 23/23/23
f 50/50/50 48/48/48 41/41/41
f 49/49/49 48/48/48 50/50/50
f 50/50/50 41/41/41 51/51/51
f 52/52/52 49/49/49 50/50/50
f 52/52/52 50/50/50 51/51/51
f 52/52/52 51/51/51 53/53/53
f 49/49/49 52/52/52 53/53/53
f 54/54/54 53/53/53 51/51/51
f 55/55/55 54/54/54 51/51/51
f 56/56/56 53/53/53 54/54/54
f 56/56/56 49/49/49 53/53/53
f 57/57/57 54/54/54 55/55/55
f 57/57/57 56/56/56 54/54/54
f 56/56/56 57/57/57 58/58/58
f 59/59/59 57/57/57 55/55/55
f 57/57/57 59/59/59 58/58/58
f 59/59/59 55/55/55 60/60/60
f 49/49/49 56/56/56 61/61/61
f 61/61/61 56/56/56 58/58/58
f 49/49/49 62/62/62 23/23/23
f 62/62/62 49/49/49 61/61/61
f 62/62/62 63/63/63 23/23/23
f 63/63/63 27/27/27 23/23/23
f 62/62/62 61/61/61 64/64/64
f 63/63/63 62/62/62 64/64/64
f 61/61/61 58/58/58 64/64/64
f 27/27/27 63/63/63 65/65/65
f 65/65/65 63/63/63 64/64/64
f 27/27/27 65/65/65 28/28/28
f 66/66/66 28/28/28 65/65/65
f 65/65/65 64/64/64 66/66/66
f 15/15/15 28/28/28 66/66/66
f 66/66/66 64/64/64 67/67/67
f 58/58/58 67/67/67 64/64/64
f 68/68/68 15/15/15 66/66/66
f 68/68/68 66/66/66 67/67/67
f 15/15/15 68/68/68 69/69/69
f 69/69/69 68/68/68 67/67/67
f 16/16/16 15/15/15 69/69/69
f 67/67/67 58/58/58 70/70/70
f 70/70/70 69/69/69 67/67/67
f 16/16/16 69/69/69 71/71/71
f 71/71/71 69/69/69 70/70/70
f 58/58/58 72/72/72 70/70/70
f 59/59/59 72/72/72 58/58/58
f 73/73/73 71/71/71 70/70/70
f 70/70/70 72/72/72 73/73/73
f 74/74/74 16/16/16 71/71/71
f 74/74/74 71/71/71 73/73/73
f 72/72/72 59/59/59 75/75/75
f 72/72/72 75/75/75 73/73/73
f 74/74/74 76/76/76 16/16/16
f 76/76/76 11/11/11 16/16/16
f 11/11/11 76/76/76 77/77/77
f 76/76/76 74/74/74 77/77/77
f 12/12/12 11/11/11 77/77/77
f 78/78/78 74/74/74 73/73/73
f 73/73/73 75/75/75 78/78/78
f 74/74/74 78/78/78 77/77/77
f 59/59/59 79/79/79 75/75/75
f 79/79/79 59/59/59 60/60/60
f 79/79/79 60/60/60 47/47/47
f 75/75/75 80/80/80 78/78/78
f 77/77/77 78/78/78 80/80/80
f 75/75/75 79/79/79 80/80/80
f 81/81/81 79/79/79 47/47/47
f 79/79/79 81/81/81 80/80/80
f 81/81/81 47/47/47 43/43/43
f 82/82/82 77/77/77 80/80/80
f 82/82/82 12/12/12 77/77/77
f 80/80/80 81/81/81 82/82/82
f 83/83/83 81/81/81 43/43/43
f 81/81/81 83/83/83 82/82/82
f 83/83/83 43/43/43 42/42/42
f 12/12/12 82/82/82 84/84/84
f 85/85/85 12/12/12 84/84/84
f 82/82/82 83/83/83 86/86/86
f 84/84/84 82/82/82 86/86/86
f 86/86/86 83/83/83 42/42/42
f 84/84/84 86/86/86 87/87/87
f 86/86/86 88/88/88 87/87/87
f 40/40/40 87/87/87 88/88/88
f 88/88/88 86/86/86 89/89/89
f 89/89/89 86/86/86 42/42/42
f 87/87/87 40/40/40 90/90/90
f 40/40/40 91/91/91 90/90/90
f 39/39/39 40/40/40 88/88/88
f 92/92/92 89/89/89 42/42/42
f 93/93/93 92/92/92 42/42/42
f 94/94/94 93/93/93 42/42/42
f 44/44/44 94/94/94 42/42/42
f 93/93/93 95/95/95 92/92/92
f 95/95/95 93/93/93 94/94/94
f 95/95/95 96/96/96 92/92/92
f 92/92/92 96/96/96 89/89/89
f 97/97/97 95/95/95 94/94/94
f 97/97/97 94/94/94 44/44/44
f 96/96/96 98/98/98 89/89/89
f 99/99/99 97/97/97 44/44/44
f 89/89/89 98/98/98 100/100/100
f 100/100/100 88/88/88 89/89/89
f 98/98/98 101/101/101 100/100/100
f 44/44/44 102/102/102 99/99/99
f 102/102/102 103/103/103 99/99/99
f 35/35/35 102/102/102 44/44/44
f 104/104/104 100/100/100 101/101/101
f 104/104/104 88/88/88 100/100/100
f 105/105/105 104/104/104 101/101/101
f 104/104/104 105/105/105 106/106/106
f 102/102/102 107/107/107 103/103/103
f 35/35/35 107/107/107 102/102/102
f 107/107/107 108/108/108 103/103/103
f 109/109/109 108/108/108 107/107/107
f 110/110/110 104/104/104 106/106/106
f 110/110/110 88/88/88 104/104/104
f 110/110/110 106/106/106 111/111/111
f 112/112/112 107/107/107 35/35/35
f 112/112/112 109/109/109 107/107/107
f 37/37/37 112/112/112 35/35/35
f 109/109/109 112/112/112 113/113/113
f 37/37/37 39/39/39 112/112/112
f 114/114/114 110/110/110 111/111/111
f 114/114/114 88/88/88 110/110/110
f 114/114/114 111/111/111 115/115/115
f 112/112/112 116/116/116 113/113/113
f 39/39/39 116/116/116 112/112/112
f 113/113/113 116/116/116 117/117/117
f 88/88/88 114/114/114 118/118/118
f 118/118/118 114/114/114 115/115/115
f 39/39/39 88/88/88 118/118/118
f 118/118/118 115/115/115 119/119/119
f 116/116/116 120/120/120 117/117/117
f 116/116/116 39/39/39 120/120/120
f 117/117/117 120/120/120 119/119/119
f 121/121/121 39/39/39 118/118/118
f 121/121/121 118/118/118 119/119/119
f 120/120/120 39/39/39 121/121/121
f 120/120/120 121/121/121 119/119/119
f 124/124/124 123/123/123 122/122/122
f 122/122/122 125/125/125 124/124/124
f 122/122/122 126/126/126 125/125/125
f 126/126/126 127/127/127 125/125/125
f 126/126/126 128/128/128 127/127/127
f 128/128/128 129/129/129 127/127/127
f 128/128/128 130/130/130 129/129/129
f 130/130/130 131/131/131 129/129/129
f 130/130/130 132/132/132 131/131/131
f 132/132/132 133/133/133 131/131/131
f 132/132/132 134/134/134 133/133/133
f 134/134/134 135/135/135 133/133/133
f 134/134/134 136/136/136 135/135/135
f 136/136/136 137/137/137 135/135/135
