g pCube9
v 0.2791691 -0.2551855 -0.02252193
v 0.2791691 -0.2551855 0.02252185
v 0.4420618 -0.472932 -3.933907E-08
v 0.4420618 -0.472932 -3.933907E-08
v 0.2769159 -0.05722874 0.02252185
v 0.2769159 -0.05722874 -0.02252193
v -0.2189981 0.1846557 -0.02252193
v -0.2189981 0.1846557 0.02252185
v -0.4194354 0.4948865 -3.933907E-08
v -0.4194354 0.4948865 -3.933907E-08
v -0.220594 -0.0008161283 0.02252185
v -0.220594 -0.0008161283 -0.02252193
v 0.03631266 -0.02245647 0.03370245
v 0.046603 -0.1057936 0.03370245
v -0.1279826 0.1828105 0.02252185
v 0.03631266 -0.02245647 0.03370245
v 0.03307573 0.05193921 0.03370241
v 0.2006079 -0.2277236 0.02252185
v 0.04660297 -0.1057936 -0.0337026
v 0.03631263 -0.02245647 -0.0337026
v -0.1279826 0.1828105 -0.02252193
v 0.03631263 -0.02245647 -0.0337026
v 0.03307571 0.05193921 -0.0337026
v -0.1344564 0.331602 -0.02252193
v -0.2189981 0.1846557 -0.02252193
v -0.220594 -0.0008161283 -0.02252193
v -0.2189981 0.1846557 -0.02252193
v -0.4194354 0.4948865 -3.933907E-08
v -0.3019836 -0.22773 -0.02252193
v -0.484679 -0.4291498 -3.933907E-08
v -0.3019836 -0.22773 0.02252185
v -0.484679 -0.4291498 -3.933907E-08
v -0.2810779 -0.03086732 -0.02252193
v -0.2810779 -0.03086732 0.02252185
v 0.2354313 0.163187 -0.02252193
v 0.4642232 0.4531397 -3.933907E-08
v 0.2354313 0.163187 0.02252185
v 0.4642232 0.4531397 -3.933907E-08
v 0.2195346 -0.02160926 -0.02252193
v 0.2195346 -0.02160926 0.02252185
v 0.2791691 -0.2551855 0.02252185
v 0.2006079 -0.2277236 0.02252185
v 0.2769159 -0.05722874 0.02252185
v 0.4420618 -0.472932 -3.933907E-08
v 0.2006079 -0.2277236 0.02252185
v 0.2791691 -0.2551855 0.02252185
v 0.2211886 -0.3943978 0.02252185
v 0.046603 -0.1057936 0.03370245
v 0.03631266 -0.02245647 0.03370245
v 0.03307573 0.05193921 0.03370241
v -0.1279826 0.1828105 0.02252185
v -0.1344564 0.331602 0.02252185
v -0.2189981 0.1846557 0.02252185
v -0.220594 -0.0008161283 0.02252185
v -0.4194354 0.4948865 -3.933907E-08
v -0.2189981 0.1846557 0.02252185
v -0.1279826 0.1828105 0.02252185
v 0.2769159 -0.05722874 -0.02252193
v 0.2791691 -0.2551855 -0.02252193
v 0.4420618 -0.472932 -3.933907E-08
v 0.2006079 -0.2277236 -0.02252193
v 0.03307571 0.05193921 -0.0337026
v 0.03631263 -0.02245647 -0.0337026
v 0.2006079 -0.2277236 -0.02252193
v 0.04660297 -0.1057936 -0.0337026
v 0.2211886 -0.3943978 -0.02252193
v 0.2791691 -0.2551855 -0.02252193
v 0.2769159 -0.05722874 -0.02252193
v 0.2769159 -0.05722874 0.02252185
v 0.2006079 -0.2277236 0.02252185
v 0.2006079 -0.2277236 -0.02252193
v 0.04660297 -0.1057936 -0.0337026
v -0.1279826 0.1828105 -0.02252193
v -0.1279826 0.1828105 0.02252185
v 0.046603 -0.1057936 0.03370245
v 0.2211886 -0.3943978 -0.02252193
v 0.2211886 -0.3943978 0.02252185
v 0.2211886 -0.3943978 -0.02252193
v 0.2211886 -0.3943978 0.02252185
v 0.2791691 -0.2551855 0.02252185
v 0.2791691 -0.2551855 -0.02252193
v 0.03307571 0.05193921 -0.0337026
v 0.2006079 -0.2277236 -0.02252193
v 0.2006079 -0.2277236 0.02252185
v 0.03307573 0.05193921 0.03370241
v -0.1344564 0.331602 -0.02252193
v -0.1344564 0.331602 0.02252185
v -0.1344564 0.331602 -0.02252193
v -0.1344564 0.331602 0.02252185
v -0.2189981 0.1846557 0.02252185
v -0.2189981 0.1846557 -0.02252193
v -0.220594 -0.0008161283 -0.02252193
v -0.220594 -0.0008161283 0.02252185
v -0.1279826 0.1828105 0.02252185
v -0.1279826 0.1828105 -0.02252193
v -0.2810779 -0.03086732 0.02252185
v -0.2211832 -0.2077967 0.02252185
v -0.3019836 -0.22773 0.02252185
v -0.484679 -0.4291498 -3.933907E-08
v -0.2211832 -0.2077967 0.02252185
v 0.1446472 0.1699305 0.02252185
v -0.2573857 -0.3717884 0.02252185
v -0.3019836 -0.22773 0.02252185
v 0.1651197 0.317449 0.02252185
v 0.1446472 0.1699305 0.02252185
v 0.2354313 0.163187 0.02252185
v 0.2195346 -0.02160926 0.02252185
v 0.1446472 0.1699305 0.02252185
v 0.2354313 0.163187 0.02252185
v 0.4642232 0.4531397 -3.933907E-08
v -0.3019836 -0.22773 -0.02252193
v -0.2211832 -0.2077967 -0.02252193
v -0.2810779 -0.03086732 -0.02252193
v -0.484679 -0.4291498 -3.933907E-08
v -0.2211832 -0.2077967 -0.02252193
v -0.3019836 -0.22773 -0.02252193
v -0.2573857 -0.3717884 -0.02252193
v 0.1446472 0.1699305 -0.02252193
v 0.1651197 0.317449 -0.02252193
v 0.2354313 0.163187 -0.02252193
v 0.2195346 -0.02160926 -0.02252193
v 0.4642232 0.4531397 -3.933907E-08
v 0.2354313 0.163187 -0.02252193
v 0.1446472 0.1699305 -0.02252193
v -0.2810779 -0.03086732 -0.02252193
v -0.2211832 -0.2077967 -0.02252193
v -0.2211832 -0.2077967 0.02252185
v -0.2810779 -0.03086732 0.02252185
v 0.1446472 0.1699305 -0.02252193
v -0.2573857 -0.3717884 -0.02252193
v -0.2573857 -0.3717884 0.02252185
v 0.1446472 0.1699305 0.02252185
v -0.2573857 -0.3717884 -0.02252193
v -0.3019836 -0.22773 -0.02252193
v -0.3019836 -0.22773 0.02252185
v -0.2573857 -0.3717884 0.02252185
v -0.2211832 -0.2077967 -0.02252193
v 0.1651197 0.317449 -0.02252193
v 0.1651197 0.317449 0.02252185
v -0.2211832 -0.2077967 0.02252185
v 0.1651197 0.317449 -0.02252193
v 0.2354313 0.163187 -0.02252193
v 0.2354313 0.163187 0.02252185
v 0.1651197 0.317449 0.02252185
v 0.2195346 -0.02160926 -0.02252193
v 0.1446472 0.1699305 -0.02252193
v 0.1446472 0.1699305 0.02252185
v 0.2195346 -0.02160926 0.02252185
vt 0.4378072 0.05809483
vt 0.4424529 0.06344518
vt 0.4473894 0.008392155
vt 0.4473894 0.008392155
vt 0.4694831 0.08986229
vt 0.4753122 0.09282017
vt 0.4103374 0.2202163
vt 0.4048646 0.2158219
vt 0.4089198 0.2908469
vt 0.4089198 0.2908469
vt 0.378076 0.1929064
vt 0.3720195 0.1903122
vt 0.4259917 0.1397118
vt 0.4170394 0.1269225
vt 0.4185108 0.194607
vt 0.4259917 0.1397118
vt 0.4351942 0.1500226
vt 0.4334726 0.08481666
vt 0.2583385 0.2706792
vt 0.2715716 0.2787954
vt 0.318229 0.2767923
vt 0.2715716 0.2787954
vt 0.2827828 0.2869826
vt 0.3406514 0.2931666
vt 0.3277106 0.2626013
vt 0.3007389 0.2406604
vt 0.3277106 0.2626013
vt 0.3934451 0.2670731
vt 0.4378072 0.05809483
vt 0.4473894 0.008392155
vt 0.4424529 0.06344518
vt 0.4473894 0.008392155
vt 0.4753122 0.09282017
vt 0.4694831 0.08986229
vt 0.4103374 0.2202163
vt 0.4089198 0.2908469
vt 0.4048646 0.2158219
vt 0.4089198 0.2908469
vt 0.3720195 0.1903122
vt 0.378076 0.1929064
vt 0.4424529 0.06344518
vt 0.4334726 0.08481666
vt 0.4694831 0.08986229
vt 0.4473894 0.008392155
vt 0.4334726 0.08481666
vt 0.4424529 0.06344518
vt 0.4155679 0.05923811
vt 0.4170394 0.1269225
vt 0.4259917 0.1397118
vt 0.4351942 0.1500226
vt 0.4185108 0.194607
vt 0.4369157 0.2152286
vt 0.4048646 0.2158219
vt 0.378076 0.1929064
vt 0.4089198 0.2908469
vt 0.4048646 0.2158219
vt 0.4185108 0.194607
vt 0.2421333 0.3128142
vt 0.2129455 0.2900226
vt 0.164526 0.2904448
vt 0.2249141 0.2807985
vt 0.2827828 0.2869826
vt 0.2715716 0.2787954
vt 0.2249141 0.2807985
vt 0.2583385 0.2706792
vt 0.1984479 0.264566
vt 0.2129455 0.2900226
vt 0.4753122 0.09282017
vt 0.4694831 0.08986229
vt 0.4334726 0.08481666
vt 0.4389192 0.08933669
vt 0.4113125 0.1231653
vt 0.4128563 0.1903564
vt 0.4185108 0.194607
vt 0.4170394 0.1269225
vt 0.4097686 0.05597413
vt 0.4155679 0.05923811
vt 0.4097686 0.05597413
vt 0.4155679 0.05923811
vt 0.4424529 0.06344518
vt 0.4378072 0.05809483
vt 0.4408388 0.1538748
vt 0.4389192 0.08933669
vt 0.4334726 0.08481666
vt 0.4351942 0.1500226
vt 0.4427584 0.2184128
vt 0.4369157 0.2152286
vt 0.4427584 0.2184128
vt 0.4369157 0.2152286
vt 0.4048646 0.2158219
vt 0.4103374 0.2202163
vt 0.3720195 0.1903122
vt 0.378076 0.1929064
vt 0.4185108 0.194607
vt 0.4128563 0.1903564
vt 0.4694831 0.08986229
vt 0.4334726 0.08481666
vt 0.4424529 0.06344518
vt 0.4473894 0.008392155
vt 0.4334726 0.08481666
vt 0.4185108 0.194607
vt 0.4155679 0.05923811
vt 0.4424529 0.06344518
vt 0.4369157 0.2152286
vt 0.4185108 0.194607
vt 0.4048646 0.2158219
vt 0.378076 0.1929064
vt 0.4185108 0.194607
vt 0.4048646 0.2158219
vt 0.4089198 0.2908469
vt 0.2129455 0.2900226
vt 0.2249141 0.2807985
vt 0.2421333 0.3128142
vt 0.164526 0.2904448
vt 0.2249141 0.2807985
vt 0.2129455 0.2900226
vt 0.1984479 0.264566
vt 0.318229 0.2767923
vt 0.3406514 0.2931666
vt 0.3277106 0.2626013
vt 0.3007389 0.2406604
vt 0.3934451 0.2670731
vt 0.3277106 0.2626013
vt 0.318229 0.2767923
vt 0.4753122 0.09282017
vt 0.4389192 0.08933669
vt 0.4334726 0.08481666
vt 0.4694831 0.08986229
vt 0.4128563 0.1903564
vt 0.4097686 0.05597413
vt 0.4155679 0.05923811
vt 0.4185108 0.194607
vt 0.4097686 0.05597413
vt 0.4378072 0.05809483
vt 0.4424529 0.06344518
vt 0.4155679 0.05923811
vt 0.4389192 0.08933669
vt 0.4427584 0.2184128
vt 0.4369157 0.2152286
vt 0.4334726 0.08481666
vt 0.4427584 0.2184128
vt 0.4103374 0.2202163
vt 0.4048646 0.2158219
vt 0.4369157 0.2152286
vt 0.3720195 0.1903122
vt 0.4128563 0.1903564
vt 0.4185108 0.194607
vt 0.378076 0.1929064
vn -0.8007361 -0.5990171 0
vn -0.8007361 -0.5990171 0
vn -0.8007361 -0.5990172 0
vn 0.9293495 0.369201 0
vn 0.9293495 0.369201 0
vn 0.9293495 0.369201 0
vn 0.8399407 0.5426781 0
vn 0.8399407 0.5426781 0
vn 0.8399407 0.5426781 0
vn -0.9281149 -0.3722939 0
vn -0.9281149 -0.3722939 0
vn -0.9281149 -0.3722939 0
vn -0.08020218 -0.009903244 0.9967294
vn -0.08020218 -0.009903243 0.9967294
vn -0.08020218 -0.009903243 0.9967294
vn 0.07177853 0.003123583 0.9974157
vn 0.07177853 0.003123583 0.9974157
vn 0.07177851 0.003123583 0.9974157
vn -0.08020275 -0.009903315 -0.9967294
vn -0.08020275 -0.009903315 -0.9967294
vn -0.05169598 -0.002249265 -0.9986603
vn 0 0 -1
vn 0 0 -1
vn 0 0 -1
vn 0 0 -1
vn -0.07634526 0.0006569359 -0.9970812
vn -0.07634525 0.0006569359 -0.9970812
vn -0.07634526 0.0006569359 -0.9970812
vn 0.7406974 -0.6718388 0
vn 0.7406974 -0.6718388 0
vn 0.7406974 -0.6718388 0
vn -0.8904033 0.4551724 0
vn -0.8904033 0.4551723 0
vn -0.8904033 0.4551723 0
vn -0.7850389 0.6194465 0
vn -0.7850389 0.6194465 0
vn -0.7850389 0.6194465 0
vn 0.8888829 -0.4581343 0
vn 0.8888829 -0.4581344 0
vn 0.8888829 -0.4581344 0
vn 0.09394899 0.001069324 0.9955765
vn 0.09394898 0.001069324 0.9955765
vn 0.09394899 0.001069324 0.9955765
vn 0.09394898 0.001069324 0.9955765
vn 0 0 1
vn 0.05903229 0.007289223 0.9982294
vn 0 0 1
vn 0 0 1
vn 0 0 1
vn 0 0 1
vn 0 0 1
vn -0.05169534 -0.002249114 0.9986603
vn 0 0 1
vn -0.07634433 0.0006569361 0.9970812
vn -0.07634433 0.0006569361 0.9970812
vn -0.07634433 0.000656936 0.9970812
vn -0.07634432 0.000656936 0.9970812
vn 0.0939498 0.001069324 -0.9955764
vn 0.09394982 0.001069325 -0.9955764
vn 0.09394982 0.001069324 -0.9955764
vn 0.09394981 0.001069324 -0.9955764
vn 0.07177831 0.003123037 -0.9974157
vn 0.05903269 0.007289274 -0.9982294
vn 0 0 -1
vn 0 0 -1
vn 0 0 -1
vn 0 0 -1
vn -0.9127503 0.408518 0
vn -0.9127503 0.408518 0
vn -0.9127503 0.408518 0
vn -0.9127503 0.408518 0
vn -0.8556259 -0.5175947 0
vn -0.8556259 -0.5175947 0
vn -0.8556259 -0.5175947 0
vn -0.8556259 -0.5175947 0
vn -0.8556259 -0.5175946 0
vn -0.855626 -0.5175947 0
vn 0.9231347 -0.3844768 0
vn 0.9231347 -0.3844768 0
vn 0.9231347 -0.3844768 0
vn 0.9231347 -0.3844768 0
vn 0.8578519 0.5138971 0
vn 0.8578519 0.5138971 0
vn 0.8578519 0.5138971 0
vn 0.8578519 0.5138971 0
vn 0.857852 0.5138968 0
vn 0.857852 0.5138968 0
vn -0.8667852 0.4986818 0
vn -0.8667852 0.4986818 0
vn -0.8667852 0.4986818 0
vn -0.8667852 0.4986818 0
vn 0.8928694 -0.4503158 0
vn 0.8928694 -0.4503158 0
vn 0.8928694 -0.4503158 0
vn 0.8928694 -0.4503158 0
vn -0.09343018 0.009921784 0.9955764
vn -0.09343018 0.009921782 0.9955764
vn -0.09343018 0.009921782 0.9955764
vn -0.09343017 0.009921782 0.9955764
vn 0 0 1
vn 0 0 1
vn 0 0 1
vn 0 0 1
vn 0 0 1
vn 0 0 1
vn 0 0 1
vn 0.0760672 -0.006543557 0.9970812
vn 0.0760672 -0.006543558 0.9970812
vn 0.07606721 -0.006543558 0.9970812
vn 0.0760672 -0.006543558 0.9970812
vn -0.09343076 0.009921785 -0.9955764
vn -0.09343076 0.009921786 -0.9955764
vn -0.09343076 0.009921786 -0.9955764
vn -0.09343076 0.009921786 -0.9955764
vn 0 0 -1
vn 0 0 -1
vn 0 0 -1
vn 0 0 -1
vn 0 0 -1
vn 0 0 -1
vn 0.07606721 -0.006543559 -0.9970812
vn 0.07606721 -0.006543558 -0.9970812
vn 0.0760672 -0.006543558 -0.9970812
vn 0.07606721 -0.006543559 -0.9970812
vn 0.9471983 0.3206484 0
vn 0.9471983 0.3206484 0
vn 0.9471983 0.3206484 0
vn 0.9471983 0.3206484 0
vn 0.8030184 -0.5959542 0
vn 0.8030184 -0.5959542 0
vn 0.8030184 -0.5959542 0
vn 0.8030184 -0.5959542 0
vn -0.9552701 -0.2957348 0
vn -0.9552701 -0.2957348 0
vn -0.9552701 -0.2957348 0
vn -0.9552701 -0.2957348 0
vn -0.8055831 0.5924827 0
vn -0.8055831 0.5924827 0
vn -0.8055831 0.5924827 0
vn -0.8055831 0.5924827 0
vn 0.9099382 0.4147439 0
vn 0.9099382 0.4147439 0
vn 0.9099382 0.4147439 0
vn 0.9099382 0.4147439 0
vn -0.9313466 -0.3641339 0
vn -0.9313466 -0.3641339 0
vn -0.9313466 -0.3641339 0
vn -0.9313466 -0.3641339 0
g pCube9_0
f 3/3/3 2/2/2 1/1/1
f 6/6/6 5/5/5 4/4/4
f 9/9/9 8/8/8 7/7/7
f 12/12/12 11/11/11 10/10/10
f 15/15/15 14/14/14 13/13/13
f 18/18/18 17/17/17 16/16/16
f 21/21/21 20/20/20 19/19/19
f 23/23/23 22/22/22 21/21/21
f 21/21/21 24/24/24 23/23/23
f 21/21/21 25/25/25 24/24/24
f 27/27/27 21/21/21 26/26/26
f 28/28/28 27/27/27 26/26/26
f 31/31/31 30/30/30 29/29/29
f 34/34/34 33/33/33 32/32/32
f 37/37/37 36/36/36 35/35/35
f 40/40/40 39/39/39 38/38/38
f 43/43/43 42/42/42 41/41/41
f 44/44/44 43/43/43 41/41/41
f 47/47/47 46/46/46 45/45/45
f 45/45/45 48/48/48 47/47/47
f 45/45/45 49/49/49 48/48/48
f 51/51/51 49/49/49 50/50/50
f 50/50/50 52/52/52 51/51/51
f 52/52/52 53/53/53 51/51/51
f 56/56/56 55/55/55 54/54/54
f 57/57/57 56/56/56 54/54/54
f 60/60/60 59/59/59 58/58/58
f 59/59/59 61/61/61 58/58/58
f 61/61/61 63/63/63 62/62/62
f 65/65/65 63/63/63 64/64/64
f 66/66/66 65/65/65 64/64/64
f 64/64/64 67/67/67 66/66/66
f 70/70/70 69/69/69 68/68/68
f 71/71/71 70/70/70 68/68/68
f 74/74/74 73/73/73 72/72/72
f 75/75/75 74/74/74 72/72/72
f 75/75/75 72/72/72 76/76/76
f 77/77/77 75/75/75 76/76/76
f 80/80/80 79/79/79 78/78/78
f 81/81/81 80/80/80 78/78/78
f 84/84/84 83/83/83 82/82/82
f 85/85/85 84/84/84 82/82/82
f 85/85/85 82/82/82 86/86/86
f 87/87/87 85/85/85 86/86/86
f 90/90/90 89/89/89 88/88/88
f 91/91/91 90/90/90 88/88/88
f 94/94/94 93/93/93 92/92/92
f 95/95/95 94/94/94 92/92/92
f 98/98/98 97/97/97 96/96/96
f 99/99/99 98/98/98 96/96/96
f 102/102/102 101/101/101 100/100/100
f 103/103/103 102/102/102 100/100/100
f 100/100/100 105/105/105 104/104/104
f 105/105/105 106/106/106 104/104/104
f 109/109/109 108/108/108 107/107/107
f 110/110/110 109/109/109 107/107/107
f 113/113/113 112/112/112 111/111/111
f 114/114/114 113/113/113 111/111/111
f 117/117/117 116/116/116 115/115/115
f 118/118/118 117/117/117 115/115/115
f 115/115/115 119/119/119 118/118/118
f 119/119/119 120/120/120 118/118/118
f 123/123/123 122/122/122 121/121/121
f 124/124/124 123/123/123 121/121/121
f 127/127/127 126/126/126 125/125/125
f 128/128/128 127/127/127 125/125/125
f 131/131/131 130/130/130 129/129/129
f 132/132/132 131/131/131 129/129/129
f 135/135/135 134/134/134 133/133/133
f 136/136/136 135/135/135 133/133/133
f 139/139/139 138/138/138 137/137/137
f 140/140/140 139/139/139 137/137/137
f 143/143/143 142/142/142 141/141/141
f 144/144/144 143/143/143 141/141/141
f 147/147/147 146/146/146 145/145/145
f 148/148/148 147/147/147 145/145/145
