g pCube1041
v -0.125 -0.125 0.1249999
v -0.125 0.125 0.1249999
v 0.125 0.125 0.1249999
v 0.125 -0.125 0.1249999
v -0.125 0.125 0.1249999
v -0.125 0.125 -0.1250001
v 0.125 0.125 -0.1250001
v 0.125 0.125 0.1249999
v -0.125 0.125 -0.1250001
v -0.125 -0.125 -0.1250001
v 0.125 -0.125 -0.1250001
v 0.125 0.125 -0.1250001
v -0.125 -0.125 -0.1250001
v -0.125 -0.125 0.1249999
v 0.125 -0.125 0.1249999
v 0.125 -0.125 -0.1250001
v 0.125 -0.125 0.1249999
v 0.125 0.125 0.1249999
v 0.125 0.125 -0.1250001
v 0.125 -0.125 -0.1250001
v -0.125 -0.125 -0.1250001
v -0.125 0.125 -0.1250001
v -0.125 0.125 0.1249999
v -0.125 -0.125 0.1249999
vt 0.01441788 0.4294537
vt 0.01438232 0.6461824
vt 0.231111 0.6462178
vt 0.2311467 0.4294891
vt 0.2311225 0.429476
vt 0.01439375 0.4294889
vt 0.01440649 0.6462178
vt 0.2311352 0.6462049
vt 0.2311172 0.4294658
vt 0.01438851 0.4294889
vt 0.01441168 0.6462178
vt 0.2311404 0.6461947
vt 0.01441289 0.6462178
vt 0.2311416 0.6461922
vt 0.231116 0.4294635
vt 0.01438727 0.4294889
vt 0.01441365 0.6462178
vt 0.2311425 0.6461905
vt 0.2311152 0.4294616
vt 0.01438644 0.4294889
vt 0.01440168 0.4294856
vt 0.01439847 0.6462147
vt 0.2311272 0.6462178
vt 0.2311304 0.429489
vn 0 0 1
vn 0 0 1
vn 0 0 1
vn 0 0 1
vn 0 1 0
vn 0 1 0
vn 0 1 0
vn 0 1 0
vn 0 0 -1
vn 0 0 -1
vn 0 0 -1
vn 0 0 -1
vn 0 -1 0
vn 0 -1 0
vn 0 -1 0
vn 0 -1 0
vn 1 0 0
vn 1 0 0
vn 1 0 0
vn 1 0 0
vn -1 0 0
vn -1 0 0
vn -1 0 0
vn -1 0 0
g pCube1041_0
f 3/3/3 2/2/2 1/1/1
f 4/4/4 3/3/3 1/1/1
f 7/7/7 6/6/6 5/5/5
f 8/8/8 7/7/7 5/5/5
f 11/11/11 10/10/10 9/9/9
f 12/12/12 11/11/11 9/9/9
f 15/15/15 14/14/14 13/13/13
f 16/16/16 15/15/15 13/13/13
f 19/19/19 18/18/18 17/17/17
f 20/20/20 19/19/19 17/17/17
f 23/23/23 22/22/22 21/21/21
f 24/24/24 23/23/23 21/21/21
