g pCube7
v 0.02264909 0.02252207 -0.3775477
v 0.02264909 -0.02252166 -0.3775477
v -0.01207945 2.437237E-07 -0.6472539
v -0.01207945 2.437237E-07 -0.6472539
v 0.158884 -0.02252168 -0.2339093
v 0.158884 0.02252205 -0.2339093
v -0.0285806 0.02252198 0.2850278
v -0.0285806 -0.02252175 0.2850278
v 0.04360667 7.247581E-08 0.6472535
v 0.04360667 7.247581E-08 0.6472535
v -0.1588839 -0.02252174 0.1530301
v -0.1588839 0.022522 0.1530302
v 0.02264909 -0.02252166 -0.3775477
v -0.01460879 -0.02252167 -0.3031307
v 0.158884 -0.02252168 -0.2339093
v -0.01207945 2.437237E-07 -0.6472539
v -0.01460879 -0.02252167 -0.3031307
v 0.02264909 -0.02252166 -0.3775477
v -0.1159062 -0.02252166 -0.4370811
v 0.03545427 -0.02252174 0.2203228
v 0.03545427 -0.02252174 0.2203228
v 0.1344228 -0.02252176 0.3316155
v -0.0285806 -0.02252175 0.2850278
v -0.1588839 -0.02252174 0.1530301
v 0.04360667 7.247581E-08 0.6472535
v -0.0285806 -0.02252175 0.2850278
v 0.03545427 -0.02252174 0.2203228
v 0.158884 0.02252205 -0.2339093
v -0.01460879 0.02252206 -0.3031307
v 0.02264909 0.02252207 -0.3775477
v -0.01207945 2.437237E-07 -0.6472539
v -0.01460879 0.02252206 -0.3031307
v -0.1159062 0.02252208 -0.4370811
v 0.02264909 0.02252207 -0.3775477
v 0.03545427 0.02252199 0.2203228
v 0.1344228 0.02252198 0.3316155
v -0.0285806 0.02252198 0.2850278
v -0.1588839 0.022522 0.1530302
v 0.03545427 0.02252199 0.2203228
v -0.0285806 0.02252198 0.2850278
v 0.04360667 7.247581E-08 0.6472535
v 0.158884 0.02252205 -0.2339093
v 0.158884 -0.02252168 -0.2339093
v -0.01460879 -0.02252167 -0.3031307
v -0.01460879 0.02252206 -0.3031307
v 0.03545427 0.02252199 0.2203228
v 0.03545427 -0.02252174 0.2203228
v -0.1159062 -0.02252166 -0.4370811
v -0.1159062 0.02252208 -0.4370811
v -0.1159062 0.02252208 -0.4370811
v -0.1159062 -0.02252166 -0.4370811
v 0.02264909 -0.02252166 -0.3775477
v 0.02264909 0.02252207 -0.3775477
v -0.01460879 0.02252206 -0.3031307
v -0.01460879 -0.02252167 -0.3031307
v 0.1344228 -0.02252176 0.3316155
v 0.1344228 0.02252198 0.3316155
v 0.1344228 0.02252198 0.3316155
v 0.1344228 -0.02252176 0.3316155
v -0.0285806 -0.02252175 0.2850278
v -0.0285806 0.02252198 0.2850278
v -0.1588839 0.022522 0.1530302
v -0.1588839 -0.02252174 0.1530301
v 0.03545427 -0.02252174 0.2203228
v 0.03545427 0.02252199 0.2203228
vt 0.4378072 0.05809483
vt 0.4424529 0.06344518
vt 0.4473894 0.008392155
vt 0.4473894 0.008392155
vt 0.4694831 0.08986229
vt 0.4753122 0.09282017
vt 0.4103374 0.2202163
vt 0.4048646 0.2158219
vt 0.4089198 0.2908469
vt 0.4089198 0.2908469
vt 0.378076 0.1929064
vt 0.3720195 0.1903122
vt 0.4424529 0.06344518
vt 0.4334726 0.08481666
vt 0.4694831 0.08986229
vt 0.4473894 0.008392155
vt 0.4334726 0.08481666
vt 0.4424529 0.06344518
vt 0.4155679 0.05923811
vt 0.4185108 0.194607
vt 0.4185108 0.194607
vt 0.4369157 0.2152286
vt 0.4048646 0.2158219
vt 0.378076 0.1929064
vt 0.4089198 0.2908469
vt 0.4048646 0.2158219
vt 0.4185108 0.194607
vt 0.2421333 0.3128142
vt 0.2249141 0.2807985
vt 0.2129455 0.2900226
vt 0.164526 0.2904448
vt 0.2249141 0.2807985
vt 0.1984479 0.264566
vt 0.2129455 0.2900226
vt 0.318229 0.2767923
vt 0.3406514 0.2931666
vt 0.3277106 0.2626013
vt 0.3007389 0.2406604
vt 0.318229 0.2767923
vt 0.3277106 0.2626013
vt 0.3934451 0.2670731
vt 0.4753122 0.09282017
vt 0.4694831 0.08986229
vt 0.4334726 0.08481666
vt 0.4389192 0.08933669
vt 0.4128563 0.1903564
vt 0.4185108 0.194607
vt 0.4155679 0.05923811
vt 0.4097686 0.05597413
vt 0.4097686 0.05597413
vt 0.4155679 0.05923811
vt 0.4424529 0.06344518
vt 0.4378072 0.05809483
vt 0.4389192 0.08933669
vt 0.4334726 0.08481666
vt 0.4369157 0.2152286
vt 0.4427584 0.2184128
vt 0.4427584 0.2184128
vt 0.4369157 0.2152286
vt 0.4048646 0.2158219
vt 0.4103374 0.2202163
vt 0.3720195 0.1903122
vt 0.378076 0.1929064
vt 0.4185108 0.194607
vt 0.4128563 0.1903564
vn -0.9918115 0 0.1277101
vn -0.9918115 0 0.1277101
vn -0.9918115 0 0.1277101
vn 0.9240766 0 -0.3822075
vn 0.9240766 0 -0.3822075
vn 0.9240766 0 -0.3822075
vn 0.9807148 0 -0.1954442
vn 0.9807148 0 -0.1954442
vn 0.9807148 0 -0.1954442
vn -0.9253446 0 0.379127
vn -0.9253446 0 0.379127
vn -0.9253446 0 0.379127
vn 0.06817031 -0.9955764 -0.06465673
vn 0.0681703 -0.9955764 -0.06465673
vn 0.0681703 -0.9955764 -0.06465673
vn 0.06817029 -0.9955764 -0.06465673
vn 0 -1 0
vn 0 -1 0
vn 0 -1 0
vn 0 -1 0
vn 0 -1 0
vn 0 -1 0
vn 0 -1 0
vn -0.05433403 -0.9970812 0.05363635
vn -0.05433403 -0.9970812 0.05363635
vn -0.05433403 -0.9970812 0.05363636
vn -0.05433402 -0.9970812 0.05363635
vn 0.06817012 0.9955764 -0.0646564
vn 0.06817013 0.9955764 -0.0646564
vn 0.06817012 0.9955764 -0.0646564
vn 0.06817012 0.9955764 -0.0646564
vn 0 1 0
vn 0 1 0
vn 0 1 0
vn 0 1 0
vn 0 1 0
vn 0 1 0
vn -0.05433385 0.9970812 0.05363656
vn -0.05433385 0.9970812 0.05363656
vn -0.05433385 0.9970812 0.05363656
vn -0.05433385 0.9970812 0.05363656
vn -0.3705796 0 0.9288008
vn -0.3705796 0 0.9288008
vn -0.3705796 0 0.9288008
vn -0.3705796 0 0.9288008
vn -0.9745041 0 0.2243695
vn -0.9745041 0 0.2243695
vn -0.9745041 0 0.2243695
vn -0.9745041 0 0.2243695
vn 0.3947738 0 -0.9187784
vn 0.3947738 0 -0.9187784
vn 0.3947738 0 -0.9187784
vn 0.3947738 0 -0.9187784
vn 0.9735267 0 -0.2285735
vn 0.9735267 0 -0.2285735
vn 0.9735267 0 -0.2285735
vn 0.9735267 0 -0.2285735
vn -0.2748046 0 0.9615002
vn -0.2748046 0 0.9615002
vn -0.2748046 0 0.9615002
vn -0.2748046 0 0.9615002
vn 0.3272049 0 -0.9449534
vn 0.3272049 0 -0.9449534
vn 0.3272049 0 -0.9449534
vn 0.3272049 0 -0.9449534
g pCube7_0
f 3/3/3 2/2/2 1/1/1
f 6/6/6 5/5/5 4/4/4
f 9/9/9 8/8/8 7/7/7
f 12/12/12 11/11/11 10/10/10
f 15/15/15 14/14/14 13/13/13
f 16/16/16 15/15/15 13/13/13
f 19/19/19 18/18/18 17/17/17
f 20/20/20 19/19/19 17/17/17
f 17/17/17 22/22/22 21/21/21
f 22/22/22 23/23/23 21/21/21
f 26/26/26 25/25/25 24/24/24
f 27/27/27 26/26/26 24/24/24
f 30/30/30 29/29/29 28/28/28
f 31/31/31 30/30/30 28/28/28
f 34/34/34 33/33/33 32/32/32
f 33/33/33 35/35/35 32/32/32
f 32/32/32 35/35/35 36/36/36
f 35/35/35 37/37/37 36/36/36
f 40/40/40 39/39/39 38/38/38
f 41/41/41 40/40/40 38/38/38
f 44/44/44 43/43/43 42/42/42
f 45/45/45 44/44/44 42/42/42
f 48/48/48 47/47/47 46/46/46
f 49/49/49 48/48/48 46/46/46
f 52/52/52 51/51/51 50/50/50
f 53/53/53 52/52/52 50/50/50
f 56/56/56 55/55/55 54/54/54
f 57/57/57 56/56/56 54/54/54
f 60/60/60 59/59/59 58/58/58
f 61/61/61 60/60/60 58/58/58
f 64/64/64 63/63/63 62/62/62
f 65/65/65 64/64/64 62/62/62
