g pCube1078
v -0.1635408 -0.125 0.07500001
v -0.1635408 -0.125 0.1138888
v -0.03026363 -0.125 0.1303395
v 0.03580597 -0.125 0.07500001
v -0.1635408 -0.125 -1.001101E-07
v 0.1635406 -0.125 0.0941666
v 0.1635409 -0.125 0.1505864
v 0.03580597 -0.125 -1.001101E-07
v -0.1635408 -0.125 -0.07500003
v 0.03580597 -0.125 -0.07500003
v -0.1635408 -0.125 -0.1138889
v -0.03026363 -0.125 -0.1303396
v 0.1635409 -0.125 -0.1505864
v 0.1635406 -0.125 -0.0941667
v -0.1635408 -0.06248134 -0.1138889
v -0.1635408 -0.125 -0.1138889
v -0.03026363 -0.125 -0.1303396
v -0.03026363 -0.06248134 -0.1303396
v 0.1635409 -0.06248134 -0.1505864
v 0.1635409 -0.125 -0.1505864
v 0.1614824 0.009264648 -0.149789
v -0.02944586 0.009264648 -0.1298426
v -0.1635408 0.009264648 -0.1132909
v 0.1556206 0.07008791 -0.1475179
v -0.02711603 0.07008791 -0.1284274
v -0.1635408 0.07008791 -0.1115881
v 0.1468475 0.1107287 -0.1441191
v -0.02362916 0.1107287 -0.1263094
v -0.1635408 0.1107287 -0.1090398
v -0.0195162 0.125 -0.123811
v -0.1635408 0.125 -0.1060337
v -0.1635408 0.125 -0.07500003
v 0.1364987 0.125 -0.1401099
v 0.008763105 0.125 -0.07912935
v -0.1635408 0.125 -1.001101E-07
v 0.1364985 0.125 -0.09829602
v 0.1468473 0.1107287 -0.09671582
v 0.1556206 0.07008791 -0.1475179
v 0.1556204 0.07008791 -0.0953762
v 0.1614824 0.009264648 -0.149789
v 0.1614821 0.009264648 -0.09448106
v 0.1635409 -0.06248134 -0.1505864
v 0.1635406 -0.06248134 -0.0941667
v 0.1635409 -0.125 -0.1505864
v 0.1635406 -0.125 -0.0941667
v 0.008763105 0.125 -1.001101E-07
v -0.1635408 0.125 0.07500001
v 0.008763105 0.125 0.07912936
v -0.1635408 0.125 0.1060337
v 0.0191119 0.1107287 -0.07754914
v 0.1556204 0.07008791 -0.0953762
v 0.02788499 0.07008791 -0.07620946
v 0.1614821 0.009264648 -0.09448106
v 0.03374723 0.009264648 -0.07531435
v 0.1635406 -0.06248134 -0.0941667
v 0.03580597 -0.06248134 -0.07500003
v 0.1635406 -0.125 -0.0941667
v 0.03580597 -0.125 -0.07500003
v 0.0191119 0.1107287 -1.001101E-07
v 0.02788499 0.07008791 -0.07620946
v 0.02788499 0.07008791 -1.001101E-07
v 0.03374723 0.009264648 -0.07531435
v 0.0191119 0.1107287 0.07754918
v 0.03374723 0.009264648 -1.001101E-07
v 0.03580597 -0.06248134 -0.07500003
v 0.02788499 0.07008791 0.07620939
v 0.03374723 0.009264648 0.07531431
v 0.03580597 -0.06248134 -1.001101E-07
v 0.03580597 -0.125 -0.07500003
v 0.03580597 -0.06248134 0.07500001
v 0.03580597 -0.125 -1.001101E-07
v 0.03580597 -0.125 0.07500001
v 0.1364985 0.125 0.09829595
v 0.1468473 0.1107287 0.09671571
v 0.02788499 0.07008791 0.07620939
v 0.1364987 0.125 0.1401099
v 0.1556204 0.07008791 0.0953761
v 0.03374723 0.009264648 0.07531431
v 0.1614821 0.009264648 0.09448095
v 0.03580597 -0.06248134 0.07500001
v 0.1635406 -0.06248134 0.0941666
v 0.03580597 -0.125 0.07500001
v 0.1635406 -0.125 0.0941666
v -0.0195162 0.125 0.1238109
v 0.1468475 0.1107287 0.144119
v 0.1556204 0.07008791 0.0953761
v -0.02362916 0.1107287 0.1263094
v -0.1635408 0.1107287 0.1090397
v 0.1556206 0.07008791 0.1475179
v 0.1614821 0.009264648 0.09448095
v 0.1614824 0.009264648 0.1497889
v 0.1635406 -0.06248134 0.0941666
v 0.1635409 -0.06248134 0.1505864
v 0.1635409 -0.125 0.1505864
v 0.1635406 -0.125 0.0941666
v 0.1556206 0.07008791 0.1475179
v -0.02711603 0.07008791 0.1284273
v -0.1635408 0.07008791 0.1115881
v 0.1614824 0.009264648 0.1497889
v -0.02944586 0.009264648 0.1298425
v -0.1635408 0.009264648 0.1132909
v 0.1635409 -0.06248134 0.1505864
v -0.03026363 -0.06248134 0.1303395
v -0.1635408 -0.06248134 0.1138888
v 0.1635409 -0.125 0.1505864
v -0.1635408 -0.125 0.1138888
v -0.03026363 -0.125 0.1303395
vt 0.9607058 0.08513281
vt 0.9607058 0.08513206
vt 0.9607066 0.08513173
vt 0.9607069 0.08513281
vt 0.9607058 0.0851343
vt 0.9607078 0.08513245
vt 0.9607078 0.08513132
vt 0.9607069 0.0851343
vt 0.9607058 0.08513579
vt 0.9607069 0.08513579
vt 0.9607058 0.08513653
vt 0.9607066 0.08513686
vt 0.9607078 0.08513728
vt 0.9607078 0.08513615
vt 0.9607058 0.08513653
vt 0.9607058 0.08513653
vt 0.9607066 0.08513686
vt 0.9607066 0.08513686
vt 0.9607078 0.08513728
vt 0.9607078 0.08513728
vt 0.9607078 0.08513725
vt 0.9607066 0.08513686
vt 0.9607058 0.08513653
vt 0.9607077 0.08513722
vt 0.9607066 0.08513683
vt 0.9607058 0.0851365
vt 0.9607077 0.08513713
vt 0.9607067 0.0851368
vt 0.9607058 0.08513644
vt 0.9607067 0.08513674
vt 0.9607058 0.08513638
vt 0.9607058 0.08513579
vt 0.9607076 0.08513707
vt 0.9607068 0.08513585
vt 0.9607058 0.0851343
vt 0.9607076 0.08513623
vt 0.9607077 0.0851362
vt 0.9607077 0.08513722
vt 0.9607077 0.08513618
vt 0.9607078 0.08513725
vt 0.9607078 0.08513618
vt 0.9607078 0.08513728
vt 0.9607078 0.08513615
vt 0.9607078 0.08513728
vt 0.9607078 0.08513615
vt 0.9607068 0.0851343
vt 0.9607058 0.08513281
vt 0.9607068 0.08513275
vt 0.9607058 0.08513221
vt 0.9607069 0.08513582
vt 0.9607077 0.08513618
vt 0.9607069 0.08513579
vt 0.9607078 0.08513618
vt 0.9607069 0.08513579
vt 0.9607078 0.08513615
vt 0.9607069 0.08513579
vt 0.9607078 0.08513615
vt 0.9607069 0.08513579
vt 0.9607069 0.0851343
vt 0.9607069 0.08513579
vt 0.9607069 0.0851343
vt 0.9607069 0.08513579
vt 0.9607069 0.08513278
vt 0.9607069 0.0851343
vt 0.9607069 0.08513579
vt 0.9607069 0.08513281
vt 0.9607069 0.08513281
vt 0.9607069 0.0851343
vt 0.9607069 0.08513579
vt 0.9607069 0.08513281
vt 0.9607069 0.0851343
vt 0.9607069 0.08513281
vt 0.9607076 0.08513236
vt 0.9607077 0.08513239
vt 0.9607069 0.08513281
vt 0.9607076 0.08513153
vt 0.9607077 0.08513242
vt 0.9607069 0.08513281
vt 0.9607078 0.08513242
vt 0.9607069 0.08513281
vt 0.9607078 0.08513245
vt 0.9607069 0.08513281
vt 0.9607078 0.08513245
vt 0.9607067 0.08513185
vt 0.9607077 0.08513147
vt 0.9607077 0.08513242
vt 0.9607067 0.08513179
vt 0.9607058 0.08513215
vt 0.9607077 0.08513138
vt 0.9607078 0.08513242
vt 0.9607078 0.08513135
vt 0.9607078 0.08513245
vt 0.9607078 0.08513132
vt 0.9607078 0.08513132
vt 0.9607078 0.08513245
vt 0.9607077 0.08513138
vt 0.9607066 0.08513176
vt 0.9607058 0.08513209
vt 0.9607078 0.08513135
vt 0.9607066 0.08513173
vt 0.9607058 0.08513206
vt 0.9607078 0.08513132
vt 0.9607066 0.08513173
vt 0.9607058 0.08513206
vt 0.9607078 0.08513132
vt 0.9607058 0.08513206
vt 0.9607066 0.08513173
vn 0 -1 0
vn 0 -1 0
vn 0 -1 0
vn 0 -1 0
vn 0 -1 0
vn 0 -1 0
vn 0 -1 0
vn 0 -1 0
vn 0 -1 0
vn 0 -1 0
vn 0 -1 0
vn 0 -1 0
vn 0 -1 0
vn 0 -1 0
vn -0.1225011 0.0044276 -0.9924585
vn -0.1225022 0 -0.9924683
vn -0.1114972 0 -0.9937648
vn -0.1115536 0.004349302 -0.9937489
vn -0.1039042 0.004261003 -0.9945782
vn -0.1039051 0 -0.9945872
vn -0.1038913 0.01627851 -0.9944554
vn -0.1116729 0.01690423 -0.9936011
vn -0.1224842 0.01729232 -0.9923198
vn -0.103828 0.03846656 -0.9938512
vn -0.1118338 0.04072758 -0.9928919
vn -0.1223957 0.04178126 -0.9916015
vn 0.1699252 0.1664567 -0.9712968
vn -0.1117101 0.09732736 -0.9889631
vn -0.1218733 0.1012369 -0.9873692
vn -0.03516328 0.9485767 -0.3145882
vn -0.03359843 0.9616536 -0.2722014
vn 0 1 0
vn 0.048924 0.9085684 -0.4148612
vn 0.04661192 0.9979911 0.04290868
vn 0 1 0
vn 0.1238666 0.9468144 0.2969839
vn 0.4606333 0.1874862 0.8675632
vn 0.9903529 0.138568 4.522385E-06
vn 0.9901753 0.1398309 4.525406E-06
vn 0.998289 0.05847111 4.335142E-06
vn 0.9982708 0.05878406 4.335847E-06
vn 0.9998844 0.01520851 4.24771E-06
vn 0.9998839 0.01523927 4.247754E-06
vn 1 0 4.225801E-06
vn 1 0 4.225801E-06
vn 0.07910254 0.9968664 0
vn 0 1 0
vn 0.04661197 0.9979911 -0.04290861
vn -0.0335984 0.9616535 0.2722017
vn 0.5810406 0.2594767 0.7714036
vn 0.1482614 0.04149136 0.9880775
vn 0.1482405 0.04474292 0.9879386
vn 0.1483667 0.01749246 0.9887777
vn 0.1483647 0.01826458 0.988764
vn 0.148388 0.004552343 0.9889187
vn 0.1483879 0.004627781 0.9889184
vn 0.1483895 0 0.988929
vn 0.1483895 0 0.988929
vn 0.9438353 0.3304163 0
vn 0.9895775 0.1440013 0
vn 0.9896979 0.1431717 0
vn 0.9981996 0.05997935 0
vn 0.5810402 0.2594774 -0.7714037
vn 0.9982117 0.05977733 0
vn 0.999882 0.01536646 0
vn 0.9895775 0.1440014 0
vn 0.9981996 0.0599794 0
vn 0.9998822 0.01534658 0
vn 1 0 0
vn 0.999882 0.01536642 0
vn 1 0 0
vn 1 0 0
vn 0.1238666 0.9468144 -0.2969842
vn 0.460633 0.1874871 -0.8675632
vn 0.14824 0.04474332 -0.9879388
vn 0.04892397 0.9085683 0.4148615
vn 0.1482609 0.0414916 -0.9880775
vn 0.1483642 0.01826431 -0.9887642
vn 0.1483662 0.0174922 -0.9887778
vn 0.1483873 0.004627672 -0.9889185
vn 0.1483873 0.004552237 -0.9889188
vn 0.1483888 0 -0.9889291
vn 0.1483888 0 -0.9889291
vn -0.03516328 0.9485767 0.3145883
vn 0.1699258 0.1664565 0.9712968
vn 0.9901753 0.1398309 -4.529103E-06
vn -0.11171 0.09732713 0.9889632
vn -0.1218731 0.1012366 0.9873692
vn 0.9903529 0.1385681 -4.525961E-06
vn 0.9982708 0.05878401 -4.335424E-06
vn 0.998289 0.05847105 -4.334721E-06
vn 0.9998839 0.01523926 -4.247561E-06
vn 0.9998844 0.0152085 -4.247519E-06
vn 1 0 -4.225797E-06
vn 1 0 -4.225797E-06
vn -0.1038281 0.0384661 0.9938512
vn -0.1118338 0.04072701 0.992892
vn -0.1223955 0.04178052 0.9916015
vn -0.1038914 0.01627864 0.9944554
vn -0.1116729 0.01690425 0.9936011
vn -0.1224841 0.01729221 0.9923198
vn -0.1039042 0.004261322 0.9945782
vn -0.1115538 0.004349534 0.9937489
vn -0.1225013 0.004427706 0.9924584
vn -0.1039051 0 0.9945872
vn -0.1225026 0 0.9924682
vn -0.1114974 0 0.9937648
g pCube1078_0
f 3/3/3 2/2/2 1/1/1
f 4/4/4 3/3/3 1/1/1
f 4/4/4 1/1/1 5/5/5
f 4/4/4 6/6/6 3/3/3
f 6/6/6 7/7/7 3/3/3
f 8/8/8 4/4/4 5/5/5
f 8/8/8 5/5/5 9/9/9
f 10/10/10 8/8/8 9/9/9
f 10/10/10 9/9/9 11/11/11
f 12/12/12 10/10/10 11/11/11
f 12/12/12 13/13/13 10/10/10
f 13/13/13 14/14/14 10/10/10
f 17/17/17 16/16/16 15/15/15
f 18/18/18 17/17/17 15/15/15
f 18/18/18 19/19/19 17/17/17
f 19/19/19 20/20/20 17/17/17
f 21/21/21 19/19/19 18/18/18
f 22/22/22 18/18/18 15/15/15
f 22/22/22 21/21/21 18/18/18
f 23/23/23 22/22/22 15/15/15
f 24/24/24 21/21/21 22/22/22
f 25/25/25 22/22/22 23/23/23
f 25/25/25 24/24/24 22/22/22
f 26/26/26 25/25/25 23/23/23
f 27/27/27 24/24/24 25/25/25
f 28/28/28 25/25/25 26/26/26
f 28/28/28 27/27/27 25/25/25
f 29/29/29 28/28/28 26/26/26
f 30/30/30 28/28/28 29/29/29
f 31/31/31 30/30/30 29/29/29
f 30/30/30 31/31/31 32/32/32
f 33/33/33 27/27/27 28/28/28
f 30/30/30 33/33/33 28/28/28
f 34/34/34 30/30/30 32/32/32
f 34/34/34 32/32/32 35/35/35
f 36/36/36 33/33/33 30/30/30
f 27/27/27 33/33/33 36/36/36
f 34/34/34 36/36/36 30/30/30
f 37/37/37 27/27/27 36/36/36
f 37/37/37 36/36/36 34/34/34
f 38/38/38 27/27/27 37/37/37
f 39/39/39 38/38/38 37/37/37
f 40/40/40 38/38/38 39/39/39
f 41/41/41 40/40/40 39/39/39
f 42/42/42 40/40/40 41/41/41
f 43/43/43 42/42/42 41/41/41
f 44/44/44 42/42/42 43/43/43
f 45/45/45 44/44/44 43/43/43
f 46/46/46 34/34/34 35/35/35
f 46/46/46 35/35/35 47/47/47
f 48/48/48 46/46/46 47/47/47
f 48/48/48 47/47/47 49/49/49
f 50/50/50 37/37/37 34/34/34
f 50/50/50 34/34/34 46/46/46
f 51/51/51 37/37/37 50/50/50
f 52/52/52 51/51/51 50/50/50
f 53/53/53 51/51/51 52/52/52
f 54/54/54 53/53/53 52/52/52
f 55/55/55 53/53/53 54/54/54
f 56/56/56 55/55/55 54/54/54
f 57/57/57 55/55/55 56/56/56
f 58/58/58 57/57/57 56/56/56
f 59/59/59 50/50/50 46/46/46
f 46/46/46 48/48/48 59/59/59
f 60/60/60 50/50/50 59/59/59
f 61/61/61 60/60/60 59/59/59
f 62/62/62 60/60/60 61/61/61
f 48/48/48 63/63/63 59/59/59
f 59/59/59 63/63/63 61/61/61
f 64/64/64 62/62/62 61/61/61
f 65/65/65 62/62/62 64/64/64
f 63/63/63 66/66/66 61/61/61
f 61/61/61 66/66/66 64/64/64
f 66/66/66 67/67/67 64/64/64
f 68/68/68 65/65/65 64/64/64
f 64/64/64 67/67/67 68/68/68
f 69/69/69 65/65/65 68/68/68
f 67/67/67 70/70/70 68/68/68
f 71/71/71 69/69/69 68/68/68
f 71/71/71 68/68/68 70/70/70
f 72/72/72 71/71/71 70/70/70
f 48/48/48 73/73/73 63/63/63
f 73/73/73 74/74/74 63/63/63
f 63/63/63 74/74/74 75/75/75
f 76/76/76 73/73/73 48/48/48
f 73/73/73 76/76/76 74/74/74
f 74/74/74 77/77/77 75/75/75
f 75/75/75 77/77/77 78/78/78
f 77/77/77 79/79/79 78/78/78
f 78/78/78 79/79/79 80/80/80
f 79/79/79 81/81/81 80/80/80
f 80/80/80 81/81/81 82/82/82
f 81/81/81 83/83/83 82/82/82
f 84/84/84 76/76/76 48/48/48
f 84/84/84 48/48/48 49/49/49
f 76/76/76 85/85/85 74/74/74
f 85/85/85 76/76/76 84/84/84
f 74/74/74 85/85/85 86/86/86
f 87/87/87 84/84/84 49/49/49
f 87/87/87 85/85/85 84/84/84
f 88/88/88 87/87/87 49/49/49
f 85/85/85 89/89/89 86/86/86
f 86/86/86 89/89/89 90/90/90
f 89/89/89 91/91/91 90/90/90
f 90/90/90 91/91/91 92/92/92
f 91/91/91 93/93/93 92/92/92
f 92/92/92 93/93/93 94/94/94
f 95/95/95 92/92/92 94/94/94
f 96/96/96 85/85/85 87/87/87
f 97/97/97 87/87/87 88/88/88
f 97/97/97 96/96/96 87/87/87
f 98/98/98 97/97/97 88/88/88
f 99/99/99 96/96/96 97/97/97
f 100/100/100 97/97/97 98/98/98
f 100/100/100 99/99/99 97/97/97
f 101/101/101 100/100/100 98/98/98
f 102/102/102 99/99/99 100/100/100
f 103/103/103 100/100/100 101/101/101
f 103/103/103 102/102/102 100/100/100
f 104/104/104 103/103/103 101/101/101
f 105/105/105 102/102/102 103/103/103
f 103/103/103 104/104/104 106/106/106
f 107/107/107 105/105/105 103/103/103
f 107/107/107 103/103/103 106/106/106
