g pCube1042
v -0.04569205 -0.125 0.1268844
v -0.05801301 -0.125 0.1256795
v -0.05258002 -0.04249449 0.1181513
v -0.04131444 -0.04189179 0.1192063
v -0.04705958 0.04481265 0.09897453
v -0.03675651 0.04511983 0.09994996
v -0.04462428 0.08807486 0.07816382
v -0.03474255 0.08820991 0.07909869
v -0.04339146 0.1155313 0.05329604
v -0.0337207 0.1155583 0.05419411
v -0.04346056 0.125 0.02633585
v -0.03377388 0.125 0.02719782
v -0.04473438 0.125 -0.02766933
v -0.034929 0.125 -0.02838712
v -0.045012 0.1152218 -0.0543131
v -0.0351891 0.115281 -0.05510159
v -0.04627795 0.08765122 -0.07883446
v -0.03624044 0.08783043 -0.07969732
v -0.04843288 0.04444337 -0.09932881
v -0.0380002 0.04478911 -0.1002663
v -0.05298264 -0.04259584 -0.1182107
v -0.04167902 -0.04198252 -0.1192593
v -0.05801301 -0.125 -0.1256799
v -0.04569205 -0.125 -0.1268848
v -0.06509733 -0.04316415 0.1169791
v -0.07170296 -0.125 0.1243407
v -0.09495354 -0.125 0.1180024
v -0.05801301 -0.125 0.1256795
v -0.05258002 -0.04249449 0.1181513
v -0.08766961 -0.04539224 0.11139
v -0.1155725 -0.125 0.1041502
v -0.05850744 0.04447134 0.09789073
v -0.04705958 0.04481265 0.09897453
v -0.1084599 -0.05008065 0.09865969
v -0.1317449 -0.125 0.08400095
v -0.07697201 0.03958445 0.09483612
v -0.05560398 0.08792479 0.07712507
v -0.04462428 0.08807486 0.07816382
v -0.05413675 0.1155013 0.05229819
v -0.04339146 0.1155313 0.05329604
v -0.07400465 0.08406255 0.07352269
v -0.1247649 -0.04958472 0.07828009
v -0.1420522 -0.125 0.05932105
v -0.09668064 0.02601614 0.0876385
v -0.1128488 0.02654296 0.06747687
v -0.1340256 -0.04402686 0.0534941
v -0.1455913 -0.125 0.03227079
v -0.0936904 0.06980652 0.0666281
v -0.1173849 0.04078384 0.04464865
v -0.1370652 -0.04115302 0.02717322
v -0.09803009 0.0846208 0.04385459
v -0.07628822 0.1081455 0.04870069
v -0.1186728 0.04589753 0.02342141
v -0.1371236 -0.04120651 -0.0274024
v -0.1455913 -0.125 -0.03227103
v -0.1420522 -0.125 -0.05932128
v -0.09990072 0.08860193 0.02267671
v -0.07788515 0.1156271 0.02334464
v -0.11901 0.04574756 -0.02428341
v -0.1341136 -0.04413164 -0.05367023
v -0.1317449 -0.125 -0.08400106
v -0.1005473 0.08845408 -0.0238601
v -0.1248765 -0.04969586 -0.07838732
v -0.1155725 -0.125 -0.1041503
v -0.1178441 0.04045587 -0.04533768
v -0.07890224 0.1155261 -0.02474356
v -0.05422354 0.125 0.02537811
v -0.04346056 0.125 0.02633585
v -0.04473438 0.125 -0.02766933
v -0.05562925 0.125 -0.0268718
v -0.05592632 0.115156 -0.05343699
v -0.045012 0.1152218 -0.0543131
v -0.09888935 0.08421535 -0.04481804
v -0.07760572 0.107702 -0.0497942
v -0.05743074 0.0874521 -0.07787573
v -0.04627795 0.08765122 -0.07883446
v -0.07545662 0.08351349 -0.07427454
v -0.06002474 0.04405921 -0.09828711
v -0.04843288 0.04444337 -0.09932881
v -0.11339 0.02614639 -0.06799138
v -0.09462976 0.06925777 -0.06732154
v -0.07817793 0.03912267 -0.0952369
v -0.06554222 -0.04327732 -0.1170455
v -0.05298264 -0.04259584 -0.1182107
v -0.05801301 -0.125 -0.1256799
v -0.07170296 -0.125 -0.1243411
v -0.09755564 0.02559292 -0.08800745
v -0.08800459 -0.04552022 -0.1114618
v -0.09495354 -0.125 -0.1180025
v -0.1086483 -0.05019584 -0.0987339
v 0.06005359 -0.0364626 -0.1286972
v 0.06519651 -0.125 -0.1377289
v 0.08955193 -0.125 -0.135489
v -0.04569205 -0.125 -0.1268848
v -0.04167902 -0.04198252 -0.1192593
v 0.08309269 -0.03704894 -0.126936
v 0.1119366 -0.125 -0.124312
v 0.0558939 0.04790084 -0.1087042
v -0.0380002 0.04478911 -0.1002663
v 0.1049497 -0.04026315 -0.1170318
v 0.1299257 -0.125 -0.1054115
v 0.07438803 0.043952 -0.1087813
v 0.05409718 0.08944332 -0.08746302
v -0.03624044 0.08783043 -0.07969732
v 0.05321693 0.115814 -0.06219804
v -0.0351891 0.115281 -0.05510159
v 0.07259321 0.0861647 -0.08693278
v 0.1225898 -0.03901039 -0.09826636
v 0.1415658 -0.125 -0.08084118
v 0.0943985 0.03174421 -0.1044774
v 0.1115289 0.03281359 -0.08618319
v 0.1328495 -0.03357526 -0.07400596
v 0.1455917 -0.125 -0.05327487
v 0.09254646 0.07307338 -0.08299494
v 0.1166859 0.04619663 -0.06370258
v 0.1362109 -0.03124579 -0.04770541
v 0.1455917 -0.125 0.05327463
v 0.09741354 0.08715778 -0.06050384
v 0.1362116 -0.03125744 0.04779184
v 0.1415658 -0.125 0.08084071
v 0.1180701 0.05093257 -0.04248357
v 0.0755415 0.1090638 -0.0622443
v 0.1328516 -0.03360132 0.07407343
v 0.1299257 -0.125 0.1054113
v 0.118084 0.0508876 0.0427593
v 0.09933949 0.0909933 -0.03933966
v 0.07721663 0.1162915 -0.03673089
v 0.1225927 -0.039035 0.09830511
v 0.1119366 -0.125 0.1243119
v 0.09937477 0.0909407 0.03963876
v 0.1167064 0.04610715 0.06392729
v 0.07727766 0.1162531 0.03697312
v 0.05331945 0.125 -0.03484714
v -0.034929 0.125 -0.02838712
v 0.05340624 0.125 0.0349555
v -0.03377388 0.125 0.02719782
v 0.05331612 0.1158013 0.06227672
v -0.0337207 0.1155583 0.05419411
v 0.09746027 0.08705547 0.06074488
v 0.07561684 0.1089831 0.06242251
v 0.05419302 0.08942547 0.08751249
v -0.03474255 0.08820991 0.07909869
v 0.07266617 0.08608606 0.08704817
v 0.05597115 0.04788448 0.1087288
v -0.03675651 0.04511983 0.09994996
v 0.1115494 0.03271065 0.08635342
v 0.09259892 0.07295787 0.08314598
v 0.07444191 0.0438931 0.1088464
v 0.06007576 -0.03646756 0.1287011
v -0.04131444 -0.04189179 0.1192063
v -0.04569205 -0.125 0.1268844
v 0.06519651 -0.125 0.1377288
v 0.09442854 0.03167262 0.104574
v 0.08310628 -0.03706578 0.1269498
v 0.08955193 -0.125 0.1354885
v 0.1049554 -0.04028366 0.1170538
vt 0.9636587 0.07599992
vt 0.9636587 0.07599992
vt 0.9636587 0.07599992
vt 0.9636587 0.07599992
vt 0.9636586 0.07599992
vt 0.9636587 0.07599992
vt 0.9636586 0.07599992
vt 0.9636586 0.07599992
vt 0.9636586 0.07599989
vt 0.9636586 0.07599989
vt 0.9636586 0.07599989
vt 0.9636586 0.07599989
vt 0.9636586 0.07599986
vt 0.9636586 0.07599986
vt 0.9636586 0.07599983
vt 0.9636587 0.07599983
vt 0.9636587 0.0759998
vt 0.9636587 0.0759998
vt 0.9636587 0.0759998
vt 0.9636587 0.0759998
vt 0.9636587 0.07599977
vt 0.9636587 0.07599977
vt 0.9636587 0.07599977
vt 0.9636587 0.07599977
vt 0.785184 0.164198
vt 0.785184 0.1641979
vt 0.785184 0.1641978
vt 0.785184 0.164198
vt 0.785184 0.164198
vt 0.785184 0.1641979
vt 0.785184 0.1641978
vt 0.785184 0.164198
vt 0.785184 0.164198
vt 0.785184 0.1641978
vt 0.7851839 0.1641977
vt 0.785184 0.1641979
vt 0.7851839 0.164198
vt 0.7851839 0.164198
vt 0.7851839 0.164198
vt 0.7851839 0.164198
vt 0.7851839 0.1641979
vt 0.7851839 0.1641978
vt 0.7851838 0.1641977
vt 0.7851839 0.1641979
vt 0.7851839 0.1641978
vt 0.7851838 0.1641977
vt 0.7851838 0.1641977
vt 0.7851839 0.1641979
vt 0.7851838 0.1641978
vt 0.7851837 0.1641978
vt 0.7851838 0.1641979
vt 0.7851838 0.164198
vt 0.7851837 0.1641978
vt 0.7851835 0.1641978
vt 0.7851835 0.1641978
vt 0.7851835 0.1641978
vt 0.7851838 0.1641979
vt 0.7851838 0.164198
vt 0.7851836 0.1641979
vt 0.7851835 0.1641978
vt 0.7851834 0.1641978
vt 0.7851836 0.1641979
vt 0.7851834 0.1641979
vt 0.7851834 0.1641979
vt 0.7851835 0.1641979
vt 0.7851837 0.164198
vt 0.7851838 0.164198
vt 0.7851838 0.1641981
vt 0.7851837 0.1641981
vt 0.7851837 0.1641981
vt 0.7851835 0.1641981
vt 0.7851835 0.1641981
vt 0.7851835 0.1641979
vt 0.7851835 0.164198
vt 0.7851835 0.1641981
vt 0.7851835 0.1641981
vt 0.7851835 0.164198
vt 0.7851834 0.1641981
vt 0.7851834 0.1641981
vt 0.7851835 0.1641979
vt 0.7851835 0.164198
vt 0.7851834 0.164198
vt 0.7851834 0.1641981
vt 0.7851834 0.1641981
vt 0.7851834 0.1641981
vt 0.7851834 0.1641981
vt 0.7851834 0.164198
vt 0.7851834 0.164198
vt 0.7851834 0.164198
vt 0.7851834 0.1641979
vt 0.7851834 0.1641985
vt 0.7851834 0.1641985
vt 0.7851834 0.1641986
vt 0.7851834 0.1641982
vt 0.7851834 0.1641982
vt 0.7851834 0.1641986
vt 0.7851835 0.1641987
vt 0.7851835 0.1641985
vt 0.7851834 0.1641982
vt 0.7851835 0.1641986
vt 0.7851835 0.1641987
vt 0.7851835 0.1641985
vt 0.7851835 0.1641985
vt 0.7851835 0.1641982
vt 0.7851836 0.1641984
vt 0.7851835 0.1641981
vt 0.7851835 0.1641985
vt 0.7851835 0.1641987
vt 0.7851837 0.1641987
vt 0.7851835 0.1641986
vt 0.7851836 0.1641986
vt 0.7851837 0.1641987
vt 0.7851837 0.1641987
vt 0.7851835 0.1641986
vt 0.7851837 0.1641986
vt 0.7851837 0.1641987
vt 0.785184 0.1641987
vt 0.7851837 0.1641986
vt 0.785184 0.1641986
vt 0.7851841 0.1641986
vt 0.7851837 0.1641986
vt 0.7851837 0.1641985
vt 0.785184 0.1641986
vt 0.7851841 0.1641986
vt 0.785184 0.1641986
vt 0.7851837 0.1641986
vt 0.7851837 0.1641985
vt 0.7851841 0.1641985
vt 0.7851841 0.1641985
vt 0.7851839 0.1641985
vt 0.785184 0.1641985
vt 0.7851839 0.1641985
vt 0.7851837 0.1641984
vt 0.7851837 0.1641981
vt 0.7851839 0.1641984
vt 0.7851838 0.1641981
vt 0.785184 0.1641984
vt 0.7851839 0.1641981
vt 0.785184 0.1641985
vt 0.785184 0.1641984
vt 0.785184 0.1641983
vt 0.785184 0.1641981
vt 0.785184 0.1641984
vt 0.7851841 0.1641983
vt 0.785184 0.164198
vt 0.7851841 0.1641985
vt 0.785184 0.1641985
vt 0.7851841 0.1641984
vt 0.7851841 0.1641983
vt 0.785184 0.164198
vt 0.7851841 0.164198
vt 0.7851841 0.1641983
vt 0.7851841 0.1641985
vt 0.7851841 0.1641984
vt 0.7851842 0.1641984
vt 0.7851841 0.1641985
vn -0.09736781 0.09606794 0.9906011
vn -0.09737968 0.09680369 0.9905283
vn -0.09918166 0.1582487 0.9824054
vn -0.09908726 0.1544286 0.9830226
vn -0.09906014 0.2938234 0.9507129
vn -0.09912574 0.2954958 0.9501875
vn -0.0867579 0.5418066 0.8360135
vn -0.08633927 0.5503683 0.8304458
vn -0.05779088 0.8126634 0.5798607
vn -0.05627307 0.8236834 0.5642509
vn -0.01102842 0.9931619 0.1162231
vn -0.009187154 0.9952683 0.09672913
vn -0.01030769 0.9925596 -0.1213231
vn -0.008736693 0.9947066 -0.1023841
vn -0.0539478 0.8061995 -0.5891791
vn -0.05242626 0.8195053 -0.5706685
vn -0.08218445 0.535858 -0.8402987
vn -0.0817559 0.5474595 -0.8328291
vn -0.09606384 0.2897749 -0.9522616
vn -0.09618696 0.2939723 -0.9509618
vn -0.09781882 0.1559614 -0.9829077
vn -0.09783316 0.1537113 -0.9832607
vn -0.09698512 0.09571864 -0.9906724
vn -0.0969829 0.0955675 -0.9906873
vn -0.192223 0.1619551 0.967895
vn -0.201674 0.1026131 0.9740626
vn -0.4099334 0.1120872 0.9052023
vn -0.09737968 0.09680369 0.9905283
vn -0.09918166 0.1582487 0.9824054
vn -0.3896755 0.1647346 0.9060991
vn -0.6712095 0.1188595 0.7316763
vn -0.1896364 0.3016716 0.9343619
vn -0.09906014 0.2938234 0.9507129
vn -0.661467 0.1618948 0.732292
vn -0.8566636 0.1186501 0.5020454
vn -0.37923 0.2977406 0.8760908
vn -0.2115328 0.5475323 0.8096063
vn -0.0867579 0.5418066 0.8360135
vn -0.2434726 0.8069091 0.5381625
vn -0.05779088 0.8126634 0.5798607
vn -0.4483517 0.5168858 0.729253
vn -0.8527657 0.1598763 0.4972226
vn -0.9607217 0.1126597 0.253617
vn -0.6274555 0.2491223 0.7377247
vn -0.8492081 0.2430537 0.4687969
vn -0.9570626 0.1591511 0.2422852
vn -0.9938051 0.1031636 0.04133762
vn -0.6994424 0.4260421 0.573819
vn -0.928311 0.2796794 0.2449859
vn -0.9874742 0.1527266 0.03961559
vn -0.8059038 0.4938211 0.3265881
vn -0.5405041 0.7107108 0.4502726
vn -0.9607171 0.2740507 0.04380464
vn -0.9877187 0.1519102 -0.0365382
vn -0.9938778 0.1028059 -0.04047118
vn -0.9609812 0.1112606 -0.2532512
vn -0.8590944 0.5078215 0.06382715
vn -0.6064863 0.7898828 0.09088295
vn -0.9615104 0.2724273 -0.03579418
vn -0.9579276 0.1558309 -0.2410212
vn -0.8570992 0.1167461 -0.5017483
vn -0.8615302 0.5053257 -0.04910951
vn -0.8543397 0.1555634 -0.4958868
vn -0.6721257 0.1165982 -0.7311989
vn -0.9306867 0.2737011 -0.2427139
vn -0.6123511 0.7868359 -0.07691119
vn -0.2563146 0.9599971 0.1127319
vn -0.01102842 0.9931619 0.1162231
vn -0.01030769 0.9925596 -0.1213231
vn -0.2614693 0.9591607 -0.1079097
vn -0.2470153 0.8002213 -0.5464697
vn -0.0539478 0.8061995 -0.5891791
vn -0.8116955 0.4852127 -0.3251449
vn -0.550137 0.7014431 -0.4531301
vn -0.2128685 0.5406641 -0.8138607
vn -0.08218445 0.535858 -0.8402987
vn -0.4564089 0.5087024 -0.7300087
vn -0.1897229 0.2961355 -0.9361138
vn -0.09606384 0.2897749 -0.9522616
vn -0.8524327 0.2362574 -0.4664126
vn -0.7059465 0.4178144 -0.5719009
vn -0.3834574 0.2910782 -0.8764895
vn -0.1920453 0.158568 -0.968491
vn -0.09781882 0.1559614 -0.9829077
vn -0.09698512 0.09571864 -0.9906724
vn -0.2014779 0.1009848 -0.9742735
vn -0.6318952 0.2417342 -0.7363918
vn -0.3912285 0.160374 -0.9062122
vn -0.4105129 0.1099329 -0.9052038
vn -0.6634341 0.157139 -0.731548
vn -0.06742151 0.1576125 -0.9851967
vn -0.06115074 0.0975433 -0.9933508
vn 0.2695388 0.1120521 -0.9564483
vn -0.0969829 0.0955675 -0.9906873
vn -0.09783316 0.1537113 -0.9832607
vn 0.2458332 0.1667649 -0.954859
vn 0.5907922 0.1188621 -0.7980203
vn -0.06846713 0.299374 -0.9516761
vn -0.09618696 0.2939723 -0.9509618
vn 0.5792549 0.1643988 -0.7983964
vn 0.823216 0.1178295 -0.5553662
vn 0.2337082 0.3185347 -0.9186491
vn -0.04443516 0.5529637 -0.8320196
vn -0.0817559 0.5474595 -0.8328291
vn 0.001963533 0.8213258 -0.570456
vn -0.05242626 0.8195053 -0.5706685
vn 0.3304599 0.5597133 -0.7599455
vn 0.820541 0.1614474 -0.5483131
vn 0.9532228 0.111174 -0.2810814
vn 0.5379236 0.2690668 -0.7989
vn 0.817193 0.2623487 -0.5131947
vn 0.9507993 0.1594364 -0.2656325
vn 0.994401 0.1010604 -0.03087739
vn 0.6338354 0.4687517 -0.6152434
vn 0.9174437 0.2994354 -0.2619839
vn 0.9880871 0.1513972 -0.02761986
vn 0.9944044 0.101035 0.03085033
vn 0.7714146 0.5358533 -0.3431921
vn 0.9880905 0.1513773 0.02760453
vn 0.9532309 0.1110001 0.2811225
vn 0.9580001 0.2854665 -0.02729108
vn 0.4649814 0.7557684 -0.4610925
vn 0.9508122 0.1590727 0.2658047
vn 0.8231541 0.1175855 0.5555096
vn 0.9580159 0.285409 0.02733681
vn 0.8474512 0.5293818 -0.03976786
vn 0.5905343 0.8045855 -0.06254143
vn 0.8204392 0.1609212 0.54862
vn 0.5907084 0.1186283 0.7981172
vn 0.8475569 0.5292033 0.03989042
vn 0.9174455 0.2989023 0.2625856
vn 0.5910345 0.8042064 0.06269188
vn 0.07438349 0.9919111 -0.1028562
vn -0.008736693 0.9947066 -0.1023841
vn 0.07438971 0.9920185 0.1018113
vn -0.009187154 0.9952683 0.09672913
vn -0.001013536 0.8227232 0.5684413
vn -0.05627307 0.8236834 0.5642509
vn 0.7712723 0.5352402 0.3444662
vn 0.4649203 0.7549747 0.4624524
vn -0.04812023 0.5543647 0.8308816
vn -0.08633927 0.5503683 0.8304458
vn 0.3296805 0.5589791 0.7608239
vn -0.07097394 0.3003165 0.9511955
vn -0.09912574 0.2954958 0.9501875
vn 0.8169485 0.2615552 0.5139883
vn 0.6333287 0.4680536 0.6162959
vn 0.2327944 0.317893 0.9191032
vn -0.06850681 0.1582103 0.9850261
vn -0.09908726 0.1544286 0.9830226
vn -0.09736781 0.09606794 0.9906011
vn -0.06147867 0.0978772 0.9932978
vn 0.5372377 0.2682767 0.7996269
vn 0.2454007 0.1663615 0.9550405
vn 0.269404 0.1118845 0.9565058
vn 0.5789716 0.1638649 0.7987117
g pCube1042_0
f 3/3/3 2/2/2 1/1/1
f 4/4/4 3/3/3 1/1/1
f 3/3/3 4/4/4 5/5/5
f 4/4/4 6/6/6 5/5/5
f 5/5/5 6/6/6 7/7/7
f 6/6/6 8/8/8 7/7/7
f 7/7/7 8/8/8 9/9/9
f 8/8/8 10/10/10 9/9/9
f 9/9/9 10/10/10 11/11/11
f 10/10/10 12/12/12 11/11/11
f 11/11/11 12/12/12 13/13/13
f 12/12/12 14/14/14 13/13/13
f 13/13/13 14/14/14 15/15/15
f 14/14/14 16/16/16 15/15/15
f 15/15/15 16/16/16 17/17/17
f 16/16/16 18/18/18 17/17/17
f 17/17/17 18/18/18 19/19/19
f 18/18/18 20/20/20 19/19/19
f 19/19/19 20/20/20 21/21/21
f 20/20/20 22/22/22 21/21/21
f 21/21/21 22/22/22 23/23/23
f 22/22/22 24/24/24 23/23/23
f 27/27/27 26/26/26 25/25/25
f 25/25/25 26/26/26 28/28/28
f 29/29/29 25/25/25 28/28/28
f 30/30/30 27/27/27 25/25/25
f 31/31/31 27/27/27 30/30/30
f 25/25/25 29/29/29 32/32/32
f 25/25/25 32/32/32 30/30/30
f 29/29/29 33/33/33 32/32/32
f 34/34/34 31/31/31 30/30/30
f 35/35/35 31/31/31 34/34/34
f 32/32/32 36/36/36 30/30/30
f 30/30/30 36/36/36 34/34/34
f 32/32/32 33/33/33 37/37/37
f 32/32/32 37/37/37 36/36/36
f 33/33/33 38/38/38 37/37/37
f 37/37/37 38/38/38 39/39/39
f 38/38/38 40/40/40 39/39/39
f 37/37/37 41/41/41 36/36/36
f 37/37/37 39/39/39 41/41/41
f 42/42/42 35/35/35 34/34/34
f 43/43/43 35/35/35 42/42/42
f 36/36/36 44/44/44 34/34/34
f 36/36/36 41/41/41 44/44/44
f 34/34/34 44/44/44 45/45/45
f 42/42/42 34/34/34 45/45/45
f 46/46/46 43/43/43 42/42/42
f 47/47/47 43/43/43 46/46/46
f 44/44/44 48/48/48 45/45/45
f 41/41/41 48/48/48 44/44/44
f 42/42/42 45/45/45 49/49/49
f 46/46/46 42/42/42 49/49/49
f 49/49/49 45/45/45 48/48/48
f 50/50/50 47/47/47 46/46/46
f 50/50/50 46/46/46 49/49/49
f 51/51/51 48/48/48 41/41/41
f 51/51/51 49/49/49 48/48/48
f 39/39/39 52/52/52 41/41/41
f 52/52/52 51/51/51 41/41/41
f 53/53/53 49/49/49 51/51/51
f 53/53/53 50/50/50 49/49/49
f 47/47/47 50/50/50 54/54/54
f 55/55/55 47/47/47 54/54/54
f 56/56/56 55/55/55 54/54/54
f 57/57/57 51/51/51 52/52/52
f 57/57/57 53/53/53 51/51/51
f 58/58/58 52/52/52 39/39/39
f 58/58/58 57/57/57 52/52/52
f 59/59/59 54/54/54 50/50/50
f 53/53/53 59/59/59 50/50/50
f 60/60/60 56/56/56 54/54/54
f 54/54/54 59/59/59 60/60/60
f 61/61/61 56/56/56 60/60/60
f 57/57/57 62/62/62 53/53/53
f 62/62/62 59/59/59 53/53/53
f 63/63/63 61/61/61 60/60/60
f 64/64/64 61/61/61 63/63/63
f 59/59/59 65/65/65 60/60/60
f 59/59/59 62/62/62 65/65/65
f 60/60/60 65/65/65 63/63/63
f 66/66/66 62/62/62 57/57/57
f 58/58/58 66/66/66 57/57/57
f 67/67/67 58/58/58 39/39/39
f 39/39/39 40/40/40 67/67/67
f 40/40/40 68/68/68 67/67/67
f 68/68/68 69/69/69 67/67/67
f 67/67/67 70/70/70 58/58/58
f 69/69/69 70/70/70 67/67/67
f 70/70/70 66/66/66 58/58/58
f 70/70/70 69/69/69 71/71/71
f 70/70/70 71/71/71 66/66/66
f 69/69/69 72/72/72 71/71/71
f 62/62/62 73/73/73 65/65/65
f 62/62/62 66/66/66 73/73/73
f 71/71/71 74/74/74 66/66/66
f 66/66/66 74/74/74 73/73/73
f 71/71/71 72/72/72 75/75/75
f 71/71/71 75/75/75 74/74/74
f 72/72/72 76/76/76 75/75/75
f 75/75/75 77/77/77 74/74/74
f 74/74/74 77/77/77 73/73/73
f 75/75/75 76/76/76 78/78/78
f 75/75/75 78/78/78 77/77/77
f 76/76/76 79/79/79 78/78/78
f 65/65/65 73/73/73 80/80/80
f 65/65/65 80/80/80 63/63/63
f 77/77/77 81/81/81 73/73/73
f 73/73/73 81/81/81 80/80/80
f 78/78/78 82/82/82 77/77/77
f 77/77/77 82/82/82 81/81/81
f 78/78/78 79/79/79 83/83/83
f 78/78/78 83/83/83 82/82/82
f 79/79/79 84/84/84 83/83/83
f 84/84/84 85/85/85 83/83/83
f 85/85/85 86/86/86 83/83/83
f 80/80/80 81/81/81 87/87/87
f 63/63/63 80/80/80 87/87/87
f 82/82/82 87/87/87 81/81/81
f 83/83/83 86/86/86 88/88/88
f 83/83/83 88/88/88 82/82/82
f 86/86/86 89/89/89 88/88/88
f 90/90/90 63/63/63 87/87/87
f 90/90/90 87/87/87 82/82/82
f 88/88/88 90/90/90 82/82/82
f 88/88/88 89/89/89 90/90/90
f 90/90/90 64/64/64 63/63/63
f 89/89/89 64/64/64 90/90/90
f 93/93/93 92/92/92 91/91/91
f 91/91/91 92/92/92 94/94/94
f 95/95/95 91/91/91 94/94/94
f 96/96/96 93/93/93 91/91/91
f 97/97/97 93/93/93 96/96/96
f 98/98/98 91/91/91 95/95/95
f 91/91/91 98/98/98 96/96/96
f 99/99/99 98/98/98 95/95/95
f 100/100/100 97/97/97 96/96/96
f 101/101/101 97/97/97 100/100/100
f 98/98/98 102/102/102 96/96/96
f 96/96/96 102/102/102 100/100/100
f 103/103/103 98/98/98 99/99/99
f 98/98/98 103/103/103 102/102/102
f 104/104/104 103/103/103 99/99/99
f 105/105/105 103/103/103 104/104/104
f 106/106/106 105/105/105 104/104/104
f 103/103/103 107/107/107 102/102/102
f 103/103/103 105/105/105 107/107/107
f 108/108/108 101/101/101 100/100/100
f 109/109/109 101/101/101 108/108/108
f 102/102/102 110/110/110 100/100/100
f 102/102/102 107/107/107 110/110/110
f 100/100/100 110/110/110 111/111/111
f 108/108/108 100/100/100 111/111/111
f 112/112/112 109/109/109 108/108/108
f 113/113/113 109/109/109 112/112/112
f 110/110/110 114/114/114 111/111/111
f 107/107/107 114/114/114 110/110/110
f 108/108/108 111/111/111 115/115/115
f 112/112/112 108/108/108 115/115/115
f 115/115/115 111/111/111 114/114/114
f 116/116/116 113/113/113 112/112/112
f 116/116/116 112/112/112 115/115/115
f 117/117/117 113/113/113 116/116/116
f 118/118/118 114/114/114 107/107/107
f 118/118/118 115/115/115 114/114/114
f 119/119/119 117/117/117 116/116/116
f 120/120/120 117/117/117 119/119/119
f 121/121/121 116/116/116 115/115/115
f 121/121/121 115/115/115 118/118/118
f 122/122/122 118/118/118 107/107/107
f 105/105/105 122/122/122 107/107/107
f 123/123/123 120/120/120 119/119/119
f 124/124/124 120/120/120 123/123/123
f 119/119/119 116/116/116 125/125/125
f 116/116/116 121/121/121 125/125/125
f 119/119/119 125/125/125 123/123/123
f 126/126/126 118/118/118 122/122/122
f 126/126/126 121/121/121 118/118/118
f 127/127/127 122/122/122 105/105/105
f 127/127/127 126/126/126 122/122/122
f 128/128/128 124/124/124 123/123/123
f 129/129/129 124/124/124 128/128/128
f 125/125/125 121/121/121 130/130/130
f 121/121/121 126/126/126 130/130/130
f 125/125/125 131/131/131 123/123/123
f 123/123/123 131/131/131 128/128/128
f 125/125/125 130/130/130 131/131/131
f 130/130/130 126/126/126 132/132/132
f 126/126/126 127/127/127 132/132/132
f 133/133/133 127/127/127 105/105/105
f 133/133/133 105/105/105 106/106/106
f 134/134/134 133/133/133 106/106/106
f 127/127/127 133/133/133 135/135/135
f 135/135/135 133/133/133 134/134/134
f 132/132/132 127/127/127 135/135/135
f 136/136/136 135/135/135 134/134/134
f 137/137/137 135/135/135 136/136/136
f 135/135/135 137/137/137 132/132/132
f 138/138/138 137/137/137 136/136/136
f 130/130/130 139/139/139 131/131/131
f 130/130/130 132/132/132 139/139/139
f 137/137/137 140/140/140 132/132/132
f 132/132/132 140/140/140 139/139/139
f 141/141/141 137/137/137 138/138/138
f 137/137/137 141/141/141 140/140/140
f 142/142/142 141/141/141 138/138/138
f 141/141/141 143/143/143 140/140/140
f 140/140/140 143/143/143 139/139/139
f 144/144/144 141/141/141 142/142/142
f 141/141/141 144/144/144 143/143/143
f 145/145/145 144/144/144 142/142/142
f 131/131/131 139/139/139 146/146/146
f 131/131/131 146/146/146 128/128/128
f 143/143/143 147/147/147 139/139/139
f 139/139/139 147/147/147 146/146/146
f 144/144/144 148/148/148 143/143/143
f 143/143/143 148/148/148 147/147/147
f 149/149/149 144/144/144 145/145/145
f 144/144/144 149/149/149 148/148/148
f 150/150/150 149/149/149 145/145/145
f 150/150/150 151/151/151 149/149/149
f 151/151/151 152/152/152 149/149/149
f 146/146/146 147/147/147 153/153/153
f 128/128/128 146/146/146 153/153/153
f 148/148/148 153/153/153 147/147/147
f 149/149/149 152/152/152 154/154/154
f 149/149/149 154/154/154 148/148/148
f 152/152/152 155/155/155 154/154/154
f 156/156/156 128/128/128 153/153/153
f 156/156/156 153/153/153 148/148/148
f 154/154/154 156/156/156 148/148/148
f 154/154/154 155/155/155 156/156/156
f 156/156/156 129/129/129 128/128/128
f 155/155/155 129/129/129 156/156/156
