g Plane004
v -0.0256258 0.00140769 0.01319999
v 0.008981642 0.0996561 0.007408086
v 0.01214469 0.00140765 0.00740809
v -0.03683945 0.09965611 0.01319999
v 0.00772801 0.1995922 0.007408082
v -0.04019203 0.1995922 0.01319999
v 0.0107864 0.3072258 0.007190518
v -0.02552088 0.3343289 0.01142309
v 0.02085433 0.4740082 0.007183739
v -0.01226476 0.390315 0.01142309
v 0.008981642 0.0996561 0.005791904
v -0.0256258 0.00140769 -8.72445E-09
v 0.01214469 0.00140765 0.005791908
v -0.03683945 0.09965611 -8.687566E-09
v 0.00772801 0.1995922 0.005791899
v -0.04019203 0.1995922 -8.724451E-09
v 0.0107864 0.3072258 0.006009455
v -0.02552088 0.3343289 0.001776886
v 0.02085433 0.4740082 0.006016239
v -0.01226477 0.390315 0.001776887
v 0.01214469 0.00140765 0.00740809
v 0.01214469 0.00140765 0.005791908
v -0.0256258 0.00140769 -8.72445E-09
v -0.0256258 0.00140769 0.01319999
v 0.008981642 0.0996561 0.007408086
v 0.01214469 0.00140765 0.005791908
v 0.01214469 0.00140765 0.00740809
v 0.008981642 0.0996561 0.005791904
v 0.00772801 0.1995922 0.007408082
v 0.00772801 0.1995922 0.005791899
v 0.0107864 0.3072258 0.007190518
v 0.0107864 0.3072258 0.006009455
v 0.02085433 0.4740082 0.007183739
v 0.02085433 0.4740082 0.006016239
v -0.0256258 0.00140769 0.01319999
v -0.0256258 0.00140769 -8.72445E-09
v -0.03683945 0.09965611 -8.687566E-09
v -0.03683945 0.09965611 0.01319999
v -0.04019203 0.1995922 -8.724451E-09
v -0.04019203 0.1995922 0.01319999
v -0.02552088 0.3343289 0.001776886
v -0.02552088 0.3343289 0.01142309
v -0.01226477 0.390315 0.001776887
v -0.01226476 0.390315 0.01142309
v 0.02085433 0.4740082 0.006016239
v 0.02085433 0.4740082 0.007183739
vt 0.001198649 0.9759793
vt 0.001198828 0.9759793
vt 0.001198649 0.9759793
vt 0.001198828 0.9759793
vt 0.001199037 0.9759793
vt 0.001199037 0.9759793
vt 0.001199245 0.9759793
vt 0.001199305 0.9759793
vt 0.001199573 0.9759792
vt 0.001199424 0.9759793
vt 0.001198828 0.9759793
vt 0.001198649 0.9759793
vt 0.001198649 0.9759793
vt 0.001198828 0.9759793
vt 0.001199037 0.9759793
vt 0.001199037 0.9759793
vt 0.001199245 0.9759793
vt 0.001199305 0.9759793
vt 0.001199573 0.9759792
vt 0.001199424 0.9759793
vt 0.001198649 0.9759793
vt 0.001198649 0.9759793
vt 0.001198649 0.9759793
vt 0.001198649 0.9759793
vt 0.001198828 0.9759793
vt 0.001198649 0.9759793
vt 0.001198649 0.9759793
vt 0.001198828 0.9759793
vt 0.001199037 0.9759793
vt 0.001199037 0.9759793
vt 0.001199245 0.9759793
vt 0.001199245 0.9759793
vt 0.001199573 0.9759792
vt 0.001199573 0.9759792
vt 0.001198649 0.9759793
vt 0.001198649 0.9759793
vt 0.001198828 0.9759793
vt 0.001198828 0.9759793
vt 0.001199037 0.9759793
vt 0.001199037 0.9759793
vt 0.001199305 0.9759793
vt 0.001199305 0.9759793
vt 0.001199424 0.9759793
vt 0.001199424 0.9759793
vt 0.001199573 0.9759792
vt 0.001199573 0.9759792
vn 0.1372576 0.01004248 0.9904845
vn 0.1300553 0.006485275 0.9914855
vn 0.1372576 0.01004248 0.9904845
vn 0.1296042 0.006262568 0.991546
vn 0.1203265 0.001173435 0.9927337
vn 0.1203963 0.001223351 0.9927251
vn 0.1224731 -0.004639226 0.992461
vn 0.1273196 -0.009205705 0.991819
vn 0.1322027 -0.01381157 0.9911265
vn 0.1322027 -0.01381157 0.9911265
vn 0.1300555 0.006485245 -0.9914855
vn 0.1372578 0.01004246 -0.9904845
vn 0.1372578 0.01004246 -0.9904845
vn 0.1296043 0.00626254 -0.991546
vn 0.1203265 0.001173393 -0.9927337
vn 0.1203963 0.001223309 -0.9927251
vn 0.1224729 -0.004639241 -0.992461
vn 0.1273195 -0.009205687 -0.991819
vn 0.1322025 -0.01381152 -0.9911265
vn 0.1322025 -0.01381152 -0.9911265
vn 0 -1 0
vn 0 -1 0
vn 0 -1 0
vn 0 -1 0
vn 0.99975 0.02236161 0
vn 0.9994822 0.03217771 0
vn 0.9994822 0.03217771 0
vn 0.99975 0.02236161 0
vn 0.9999686 -0.00791847 0
vn 0.9999686 -0.007918471 0
vn 0.9990172 -0.04432484 0
vn 0.9990172 -0.04432484 0
vn 0.998183 -0.06025595 0
vn 0.998183 -0.06025595 0
vn -0.9935495 -0.1133995 0
vn -0.9935495 -0.1133995 0
vn -0.9972935 -0.0735229 0
vn -0.9972935 -0.0735229 0
vn -0.9993095 0.0371562 0
vn -0.9993095 0.0371562 0
vn -0.9855477 0.1693981 0
vn -0.9855477 0.1693981 0
vn -0.9542804 0.2989128 0
vn -0.9542803 0.2989128 0
vn -0.9298427 0.3679574 0
vn -0.9298427 0.3679574 0
g Plane004_0
f 3/3/3 2/2/2 1/1/1
f 2/2/2 4/4/4 1/1/1
f 4/4/4 2/2/2 5/5/5
f 6/6/6 4/4/4 5/5/5
f 6/6/6 5/5/5 7/7/7
f 8/8/8 6/6/6 7/7/7
f 8/8/8 7/7/7 9/9/9
f 10/10/10 8/8/8 9/9/9
f 13/13/13 12/12/12 11/11/11
f 12/12/12 14/14/14 11/11/11
f 15/15/15 11/11/11 14/14/14
f 16/16/16 15/15/15 14/14/14
f 17/17/17 15/15/15 16/16/16
f 18/18/18 17/17/17 16/16/16
f 19/19/19 17/17/17 18/18/18
f 20/20/20 19/19/19 18/18/18
f 23/23/23 22/22/22 21/21/21
f 24/24/24 23/23/23 21/21/21
f 27/27/27 26/26/26 25/25/25
f 26/26/26 28/28/28 25/25/25
f 25/25/25 28/28/28 29/29/29
f 28/28/28 30/30/30 29/29/29
f 29/29/29 30/30/30 31/31/31
f 30/30/30 32/32/32 31/31/31
f 31/31/31 32/32/32 33/33/33
f 32/32/32 34/34/34 33/33/33
f 37/37/37 36/36/36 35/35/35
f 38/38/38 37/37/37 35/35/35
f 39/39/39 37/37/37 38/38/38
f 40/40/40 39/39/39 38/38/38
f 41/41/41 39/39/39 40/40/40
f 42/42/42 41/41/41 40/40/40
f 43/43/43 41/41/41 42/42/42
f 44/44/44 43/43/43 42/42/42
f 45/45/45 43/43/43 44/44/44
f 46/46/46 45/45/45 44/44/44
