g Room_6_hit_box
v 2.853821 -1.294599 -0.3311901
v 2.853821 -1.294599 0.4546699
v 2.853821 -0.8137906 0.45467
v 2.853821 -0.8137904 -0.33119
v 2.853821 -1.294599 -0.3311901
v 2.853821 -0.8137904 -0.33119
v 1.435631 -0.8137905 -0.33119
v 1.932592 -1.294599 -0.33119
v 2.853821 -0.8137904 -0.33119
v 2.853821 -0.8137906 0.45467
v 1.435631 -0.8137906 0.45467
v 1.435631 -0.8137905 -0.33119
v 2.853821 -0.8137906 0.45467
v 2.853821 -1.294599 0.4546699
v 1.932592 -1.294599 0.45467
v 1.435631 -0.8137906 0.45467
v 2.853821 -1.294599 0.4546699
v 2.853821 -1.294599 -0.3311901
v 1.932592 -1.294599 -0.33119
v 1.932592 -1.294599 0.45467
v 1.932592 -1.294599 -0.33119
v 1.932592 -2.475746 -0.3311902
v 1.932592 -2.475746 0.4546698
v 1.932592 -1.294599 0.45467
v 1.932592 -1.294599 0.45467
v 1.435631 -2.091018 0.4546697
v 1.435631 -0.8137906 0.45467
v 1.932592 -2.475746 0.4546698
v -2.104299 -2.090961 0.4546695
v -2.537258 -2.476263 0.4546696
v -2.899062 -1.108714 0.4546696
v -3.32393 -1.555005 0.4546697
v -3.326255 0.07459243 0.4546699
v -2.89905 0.07459243 0.4546698
v -2.899076 1.64581 0.4546699
v -3.328014 1.839413 0.45467
v -2.585367 2.569423 0.45467
v -2.194898 2.293885 0.4546699
v 1.932592 2.57063 0.4546701
v 1.435631 2.294183 0.45467
v 1.932592 1.495134 0.45467
v 1.435631 1.012855 0.4546699
v 1.435631 -0.8137906 0.45467
v 1.435631 -2.091018 0.4546697
v 1.435631 -2.091018 -0.3311903
v 1.435631 -0.8137905 -0.33119
v 1.435631 -0.8137905 -0.33119
v 1.932592 -2.475746 -0.3311902
v 1.932592 -1.294599 -0.33119
v 1.435631 -2.091018 -0.3311903
v -2.537258 -2.476263 -0.3311904
v -2.1043 -2.090961 -0.3311904
v -3.32393 -1.555005 -0.3311903
v -2.899062 -1.108714 -0.3311903
v -3.326255 0.07459251 -0.3311902
v -2.89905 0.07459251 -0.3311902
v -2.899076 1.64581 -0.3311901
v -3.328014 1.839413 -0.33119
v -2.194899 2.293885 -0.33119
v -2.585367 2.569423 -0.33119
v 1.435631 2.294183 -0.3311898
v 1.932592 2.57063 -0.3311897
v 1.435631 1.012854 -0.3311899
v 1.932592 1.495134 -0.3311899
v 1.932592 -2.475746 -0.3311902
v -2.537258 -2.476263 -0.3311904
v -2.537258 -2.476263 0.4546696
v 1.932592 -2.475746 0.4546698
v 1.435631 -2.091018 0.4546697
v -2.104299 -2.090961 0.4546695
v -2.1043 -2.090961 -0.3311904
v 1.435631 -2.091018 -0.3311903
v -2.537258 -2.476263 -0.3311904
v -3.32393 -1.555005 -0.3311903
v -3.32393 -1.555005 0.4546697
v -2.537258 -2.476263 0.4546696
v -2.104299 -2.090961 0.4546695
v -2.899062 -1.108714 0.4546696
v -2.899062 -1.108714 -0.3311903
v -2.1043 -2.090961 -0.3311904
v -3.32393 -1.555005 0.4546697
v -3.32393 -1.555005 -0.3311903
v -3.326255 0.07459251 -0.3311902
v -3.326255 0.07459243 0.4546699
v -3.328014 1.839413 0.45467
v -3.328014 1.839413 -0.33119
v -2.899062 -1.108714 -0.3311903
v -2.899062 -1.108714 0.4546696
v -2.89905 0.07459243 0.4546698
v -2.89905 0.07459251 -0.3311902
v -2.899076 1.64581 -0.3311901
v -2.899076 1.64581 0.4546699
v 2.853821 1.495134 -0.33119
v 2.853821 1.014325 -0.33119
v 2.853821 1.014325 0.45467
v 2.853821 1.495134 0.45467
v 2.853821 1.495134 -0.33119
v 1.932592 1.495134 -0.3311899
v 1.435631 1.012854 -0.3311899
v 2.853821 1.014325 -0.33119
v 2.853821 1.014325 -0.33119
v 1.435631 1.012854 -0.3311899
v 1.435631 1.012855 0.4546699
v 2.853821 1.014325 0.45467
v 2.853821 1.014325 0.45467
v 1.435631 1.012855 0.4546699
v 1.932592 1.495134 0.45467
v 2.853821 1.495134 0.45467
v 2.853821 1.495134 0.45467
v 1.932592 1.495134 0.45467
v 1.932592 1.495134 -0.3311899
v 2.853821 1.495134 -0.33119
v 1.932592 1.495134 -0.3311899
v 1.932592 1.495134 0.45467
v 1.932592 2.57063 0.4546701
v 1.932592 2.57063 -0.3311897
v 1.435631 1.012855 0.4546699
v 1.435631 1.012854 -0.3311899
v 1.435631 2.294183 -0.3311898
v 1.435631 2.294183 0.45467
v 1.932592 2.57063 -0.3311897
v 1.932592 2.57063 0.4546701
v -2.585367 2.569423 0.45467
v -2.585367 2.569423 -0.33119
v 1.435631 2.294183 0.45467
v 1.435631 2.294183 -0.3311898
v -2.194899 2.293885 -0.33119
v -2.194898 2.293885 0.4546699
v -2.585367 2.569423 -0.33119
v -2.585367 2.569423 0.45467
v -3.328014 1.839413 0.45467
v -3.328014 1.839413 -0.33119
v -2.194898 2.293885 0.4546699
v -2.194899 2.293885 -0.33119
v -2.899076 1.64581 -0.3311901
v -2.899076 1.64581 0.4546699
v 0.8476014 -2.176867 -0.3384356
v 0.8476014 -2.176868 0.5625676
v 0.8476014 -1.674588 0.5625676
v 0.8476014 -1.674588 -0.3384356
v -0.6910052 -1.674588 -0.3384356
v -0.6910052 -1.674588 0.5625675
v -0.6910052 -2.176867 0.5625674
v -0.6910052 -2.176867 -0.3384356
v 0.8476014 -1.674588 -0.3384356
v 0.7801864 -2.176867 -0.3384356
v 0.8476014 -2.176867 -0.3384356
v 0.7801864 -1.674588 -0.3384356
v 0.7791867 -2.176867 -0.3384356
v 0.7791867 -1.827504 -0.3384355
v 0.1420805 -2.176867 -0.3384356
v 0.1420805 -1.824446 -0.3384355
v 0.1417947 -2.176867 -0.3384356
v 0.1417947 -1.674588 -0.3384356
v 0.009292364 -2.176867 -0.3384356
v 0.009292364 -1.674588 -0.3384356
v 0.009156704 -2.176867 -0.3384356
v 0.009156704 -1.824446 -0.3384355
v -0.6229811 -2.176867 -0.3384356
v -0.6229811 -1.827504 -0.3384356
v -0.6251447 -2.176867 -0.3384356
v -0.6251447 -1.674588 -0.3384356
v -0.6910052 -2.176867 -0.3384356
v -0.6910052 -1.674588 -0.3384356
v 0.8476014 -2.176868 0.5625676
v 0.7801864 -1.674588 0.5625676
v 0.8476014 -1.674588 0.5625676
v 0.7801864 -2.176868 0.5625676
v 0.7791865 -1.827505 0.5625676
v 0.7791865 -2.176868 0.5625676
v 0.1420805 -1.824446 0.5625675
v 0.1420805 -2.176867 0.5625675
v 0.1417947 -1.674588 0.5625675
v 0.1417947 -2.176867 0.5625675
v 0.009292364 -1.674588 0.5625675
v 0.009292364 -2.176867 0.5625675
v 0.009156704 -1.824446 0.5625675
v 0.009156704 -2.176867 0.5625675
v -0.6229811 -1.827504 0.5625675
v -0.6229811 -2.176867 0.5625674
v -0.6251447 -1.674588 0.5625675
v -0.6251447 -2.176867 0.5625674
v -0.6910052 -1.674588 0.5625675
v -0.6910052 -2.176867 0.5625674
v 0.8476014 -2.176867 -0.3384356
v 0.7801864 -2.176868 0.5625676
v 0.8476014 -2.176868 0.5625676
v 0.7801864 -2.176867 -0.3384356
v 0.7791865 -2.176868 0.5625676
v 0.7791867 -2.176867 -0.3384356
v 0.1420805 -2.176867 0.5625675
v 0.1420805 -2.176867 -0.3384356
v 0.1417947 -2.176867 0.5625675
v 0.1417947 -2.176867 -0.3384356
v 0.009292364 -2.176867 0.5625675
v 0.009292364 -2.176867 -0.3384356
v 0.009156704 -2.176867 0.5625675
v 0.009156704 -2.176867 -0.3384356
v -0.6229811 -2.176867 0.5625674
v -0.6229811 -2.176867 -0.3384356
v -0.6251447 -2.176867 0.5625674
v -0.6251447 -2.176867 -0.3384356
v -0.6910052 -2.176867 0.5625674
v -0.6910052 -2.176867 -0.3384356
v 0.8476014 -1.674588 0.5625676
v 0.7801864 -1.674588 -0.3384356
v 0.8476014 -1.674588 -0.3384356
v 0.7801864 -1.674588 0.5625676
v 0.7791867 -1.827504 -0.3384355
v 0.7791865 -1.827505 0.5625676
v 0.1420805 -1.824446 -0.3384355
v 0.1420805 -1.824446 0.5625675
v 0.1417947 -1.674588 -0.3384356
v 0.1417947 -1.674588 0.5625675
v 0.009292364 -1.674588 -0.3384356
v 0.009292364 -1.674588 0.5625675
v 0.009156704 -1.824446 -0.3384355
v 0.009156704 -1.824446 0.5625675
v -0.6229811 -1.827504 -0.3384356
v -0.6229811 -1.827504 0.5625675
v -0.6251447 -1.674588 -0.3384356
v -0.6251447 -1.674588 0.5625675
v -0.6910052 -1.674588 -0.3384356
v -0.6910052 -1.674588 0.5625675
v -3.018308 -0.5829683 -0.3495515
v -3.018308 -0.5829684 0.4642958
v -1.89289 -0.5829684 0.4642958
v -1.89289 -0.5829683 -0.3495515
v -1.89289 0.7765012 -0.3495513
v -1.89289 0.7765014 0.4642959
v -3.018308 0.7765014 0.4642959
v -3.018308 0.7765012 -0.3495514
v -3.018308 0.7765012 -0.3495514
v -1.883288 0.3552918 -0.3495514
v -1.89289 0.7765012 -0.3495513
v -3.018308 0.3554926 -0.3495514
v -2.001353 0.3533324 -0.3495514
v -3.018308 0.3533324 -0.3495514
v -2.001353 -0.1618474 -0.3495515
v -3.018308 -0.1618474 -0.3495515
v -1.883288 -0.1642086 -0.3495514
v -3.018308 -0.1640077 -0.3495515
v -1.89289 -0.5829683 -0.3495515
v -3.018308 -0.5829683 -0.3495515
v -1.89289 0.7765014 0.4642959
v -3.018308 0.3554927 0.4642959
v -3.018308 0.7765014 0.4642959
v -1.883288 0.3552917 0.4642959
v -3.018308 0.3533324 0.4642959
v -2.001353 0.3533323 0.4642959
v -3.018308 -0.1618474 0.4642958
v -2.001353 -0.1618476 0.4642958
v -3.018308 -0.1640077 0.4642958
v -1.883288 -0.1642087 0.4642958
v -3.018308 -0.5829684 0.4642958
v -1.89289 -0.5829684 0.4642958
v -1.89289 0.7765012 -0.3495513
v -1.883288 0.3552917 0.4642959
v -1.89289 0.7765014 0.4642959
v -1.883288 0.3552918 -0.3495514
v -2.001353 0.3533323 0.4642959
v -2.001353 0.3533324 -0.3495514
v -2.001353 -0.1618476 0.4642958
v -2.001353 -0.1618474 -0.3495515
v -1.883288 -0.1642087 0.4642958
v -1.883288 -0.1642086 -0.3495514
v -1.89289 -0.5829684 0.4642958
v -1.89289 -0.5829683 -0.3495515
v -3.018308 -0.5829683 -0.3495515
v -3.018308 -0.1640077 0.4642958
v -3.018308 -0.5829684 0.4642958
v -3.018308 -0.1640077 -0.3495515
v -3.018308 -0.1618474 0.4642958
v -3.018308 -0.1618474 -0.3495515
v -3.018308 0.3533324 0.4642959
v -3.018308 0.3533324 -0.3495514
v -3.018308 0.3554927 0.4642959
v -3.018308 0.3554926 -0.3495514
v -3.018308 0.7765014 0.4642959
v -3.018308 0.7765012 -0.3495514
v -3.271183 -2.303694 -0.3384357
v -3.271183 2.554155 -0.3384353
v 2.822724 2.554155 -0.338435
v 2.822724 -2.41771 -0.3384355
v -3.271183 -2.303694 -0.870796
v 2.822724 -2.41771 -0.8707958
v 2.822724 2.554155 -0.8707953
v -3.271183 2.554155 -0.8707955
v -3.271183 -2.303694 -0.3384357
v 2.822724 -2.41771 -0.3384355
v 2.822724 -2.41771 -0.8707958
v -3.271183 -2.303694 -0.870796
v 2.822724 -2.41771 -0.3384355
v 2.822724 2.554155 -0.338435
v 2.822724 2.554155 -0.8707953
v 2.822724 -2.41771 -0.8707958
v 2.822724 2.554155 -0.338435
v -3.271183 2.554155 -0.3384353
v -3.271183 2.554155 -0.8707955
v 2.822724 2.554155 -0.8707953
v -3.271183 2.554155 -0.3384353
v -3.271183 -2.303694 -0.3384357
v -3.271183 -2.303694 -0.870796
v -3.271183 2.554155 -0.8707955
vt 1 0
vt 1 1
vt 0 1
vt 0 0
vt 0 0
vt 1 0
vt 1 1
vt 0 1
vt 0 0
vt 1 0
vt 1 1
vt 0 1
vt 0 0
vt 1 0
vt 1 1
vt 0 1
vt 0 0
vt 1 0
vt 1 1
vt 0 1
vt 1 1
vt 1 1
vt 0 1
vt 0 1
vt 1 1
vt 0 1
vt 0 1
vt 1 1
vt 0 1
vt 1 1
vt 0 1
vt 1 1
vt 1 1
vt 0 1
vt 0 1
vt 1 1
vt 1 1
vt 0 1
vt 1 1
vt 0 1
vt 1 1
vt 0 1
vt 1 1
vt 1 1
vt 0 1
vt 0 1
vt 1 1
vt 0 1
vt 0 1
vt 1 1
vt 0 1
vt 1 1
vt 0 1
vt 1 1
vt 0 1
vt 1 1
vt 1 1
vt 0 1
vt 1 1
vt 0 1
vt 1 1
vt 0 1
vt 1 1
vt 0 1
vt 1 1
vt 1 1
vt 0 1
vt 0 1
vt 1 1
vt 1 1
vt 0 1
vt 0 1
vt 1 1
vt 1 1
vt 0 1
vt 0 1
vt 1 1
vt 1 1
vt 0 1
vt 0 1
vt 0 1
vt 1 1
vt 1 1
vt 0 1
vt 0 1
vt 1 1
vt 0 1
vt 1 1
vt 1 1
vt 0 1
vt 0 1
vt 1 1
vt 1 0
vt 0 0
vt 0 1
vt 1 1
vt 0 0
vt 0 1
vt 1 1
vt 1 0
vt 0 0
vt 0 1
vt 1 1
vt 1 0
vt 0 0
vt 0 1
vt 1 1
vt 1 0
vt 0 0
vt 0 1
vt 1 1
vt 1 0
vt 1 1
vt 0 1
vt 0 1
vt 1 1
vt 1 1
vt 0 1
vt 0 1
vt 1 1
vt 1 1
vt 0 1
vt 0 1
vt 1 1
vt 1 1
vt 0 1
vt 0 1
vt 1 1
vt 1 1
vt 0 1
vt 0 1
vt 1 1
vt 1 1
vt 0 1
vt 0 1
vt 1 1
vt 0 0
vt 0 1
vt 1 1
vt 1 0
vt 0 0
vt 0 1
vt 1 1
vt 1 0
vt 0 1
vt 0.1111111 0
vt 0 0
vt 0.1111111 1
vt 0.1666667 0
vt 0.1666667 1
vt 0.2222222 0
vt 0.2222223 1
vt 0.3333333 0
vt 0.3333334 1
vt 0.6666666 0
vt 0.6666667 1
vt 0.7777777 0
vt 0.7777778 1
vt 0.8333333 0
vt 0.8333334 1
vt 0.8888888 0
vt 0.8888889 1
vt 1 0
vt 1 1
vt 1 0
vt 0.8888889 1
vt 1 1
vt 0.8888888 0
vt 0.8333334 1
vt 0.8333333 0
vt 0.7777778 1
vt 0.7777777 0
vt 0.6666667 1
vt 0.6666666 0
vt 0.3333334 1
vt 0.3333333 0
vt 0.2222223 1
vt 0.2222222 0
vt 0.1666667 1
vt 0.1666667 0
vt 0.1111111 1
vt 0.1111111 0
vt 0 1
vt 0 0
vt 1 0
vt 0.8888888 1
vt 1 1
vt 0.8888889 0
vt 0.8333333 1
vt 0.8333334 0
vt 0.7777777 1
vt 0.7777778 0
vt 0.6666666 1
vt 0.6666667 0
vt 0.3333333 1
vt 0.3333334 0
vt 0.2222222 1
vt 0.2222223 0
vt 0.1666667 1
vt 0.1666667 0
vt 0.1111111 1
vt 0.1111111 0
vt 0 1
vt 0 0
vt 0 1
vt 0.1111111 0
vt 0 0
vt 0.1111111 1
vt 0.1666667 0
vt 0.1666667 1
vt 0.2222223 0
vt 0.2222222 1
vt 0.3333334 0
vt 0.3333333 1
vt 0.6666667 0
vt 0.6666666 1
vt 0.7777778 0
vt 0.7777777 1
vt 0.8333334 0
vt 0.8333333 1
vt 0.8888889 0
vt 0.8888888 1
vt 1 0
vt 1 1
vt 0 0
vt 0 1
vt 1 1
vt 1 0
vt 0 0
vt 0 1
vt 1 1
vt 1 0
vt 1 1
vt 0 0.6666667
vt 0 1
vt 1 0.6666666
vt 0 0.6652806
vt 1 0.6652805
vt 0 0.3347195
vt 1 0.3347194
vt 0 0.3333334
vt 1 0.3333333
vt 0 0
vt 1 0
vt 1 1
vt 0 0.6666667
vt 0 1
vt 1 0.6666666
vt 0 0.6652806
vt 1 0.6652805
vt 0 0.3347195
vt 1 0.3347194
vt 0 0.3333334
vt 1 0.3333333
vt 0 0
vt 1 0
vt 1 0
vt 0.6666666 1
vt 1 1
vt 0.6666667 0
vt 0.6652805 1
vt 0.6652806 0
vt 0.3347194 1
vt 0.3347195 0
vt 0.3333333 1
vt 0.3333334 0
vt 0 1
vt 0 0
vt 1 0
vt 0.6666666 1
vt 1 1
vt 0.6666667 0
vt 0.6652805 1
vt 0.6652806 0
vt 0.3347194 1
vt 0.3347195 0
vt 0.3333333 1
vt 0.3333334 0
vt 0 1
vt 0 0
vt 1 0
vt 1 1
vt 0 1
vt 0 0
vt 0 0
vt 1 0
vt 1 1
vt 0 1
vt 0 0
vt 1 0
vt 1 1
vt 0 1
vt 0 0
vt 1 0
vt 1 1
vt 0 1
vt 0 0
vt 1 0
vt 1 1
vt 0 1
vt 0 0
vt 1 0
vt 1 1
vt 0 1
vn 1 0 0
vn 1 0 0
vn 1 0 0
vn 1 0 0
vn 0 0 -1
vn 0 0 -1
vn 0 0 -1
vn 0 0 -1
vn 0 1 0
vn 0 1 0
vn 0 1 0
vn 0 1 0
vn 0 0 1
vn 0 0 1
vn 0 0 1
vn 0 0 1
vn 0 -1 0
vn 0 -1 0
vn 0 -1 0
vn 0 -1 0
vn 1 0 0
vn 1 0 0
vn 1 0 0
vn 1 0 0
vn 0 0 1
vn 0 0 1
vn 0 0 1
vn 0 0 1
vn 0 0 1
vn 0 0 1
vn 0 0 1
vn 0 0 1
vn 0 0 1
vn 0 0 1
vn 0 0 1
vn 0 0 1
vn 0 0 1
vn 0 0 1
vn 0 0 1
vn 0 0 1
vn 0 0 1
vn 0 0 1
vn -1 0 0
vn -1 0 0
vn -1 0 0
vn -1 0 0
vn 0 0 -1
vn 0 0 -1
vn 0 0 -1
vn 0 0 -1
vn 0 0 -1
vn 0 0 -1
vn 0 0 -1
vn 0 0 -1
vn 0 0 -1
vn 0 0 -1
vn 0 0 -1
vn 0 0 -1
vn 0 0 -1
vn 0 0 -1
vn 0 0 -1
vn 0 0 -1
vn 0 0 -1
vn 0 0 -1
vn 0.0001156396 -1 0
vn 0.0001156396 -1 0
vn 0.0001156396 -1 0
vn 0.0001156396 -1 0
vn 1.626532E-05 1 0
vn 1.626532E-05 1 0
vn 1.626532E-05 1 0
vn 1.626532E-05 1 0
vn -0.7604697 -0.6493733 0
vn -0.7604697 -0.6493733 0
vn -0.7604697 -0.6493733 0
vn -0.7604697 -0.6493733 0
vn 0.7773955 0.629012 0
vn 0.7773955 0.6290121 0
vn 0.7773955 0.6290121 0
vn 0.7773955 0.6290121 0
vn -0.999999 -0.00142706 0
vn -0.999999 -0.00142706 0
vn -0.999999 -0.00142706 0
vn -0.999999 -0.00142706 0
vn -0.9999995 -0.0009967312 0
vn -0.9999995 -0.0009967312 0
vn 1 -1.047722E-05 0
vn 1 -1.047722E-05 0
vn 1 -1.047722E-05 0
vn 1 -1.047722E-05 0
vn 1 1.669154E-05 0
vn 1 1.669154E-05 0
vn 1 0 0
vn 1 0 0
vn 1 0 0
vn 1 0 0
vn 0 0 -1
vn 0 0 -1
vn 0 0 -1
vn 0 0 -1
vn 0.001037015 -0.9999995 0
vn 0.001037015 -0.9999995 0
vn 0.001037015 -0.9999995 0
vn 0.001037015 -0.9999995 0
vn 0 0 1
vn 0 0 1
vn 0 0 1
vn 0 0 1
vn 0 1 0
vn 0 1 0
vn 0 1 0
vn 0 1 0
vn 1 0 0
vn 1 0 0
vn 1 0 0
vn 1 0 0
vn -1 0 0
vn -1 0 0
vn -1 0 0
vn -1 0 0
vn -0.0002671811 1 0
vn -0.0002671811 1 0
vn -0.0002671811 1 0
vn -0.0002671811 1 0
vn 8.215375E-05 -1 0
vn 8.215375E-05 -1 0
vn 8.215375E-05 -1 0
vn 8.215375E-05 -1 0
vn -0.701013 0.7131485 0
vn -0.701013 0.7131485 0
vn -0.701013 0.7131485 0
vn -0.701013 0.7131485 0
vn 0.6771876 -0.7358104 0
vn 0.6771876 -0.7358105 0
vn 0.6771876 -0.7358105 0
vn 0.6771876 -0.7358104 0
vn 1 0 0
vn 1 0 0
vn 1 0 0
vn 1 0 0
vn -1 0 0
vn -1 0 0
vn -1 0 0
vn -1 0 0
vn 0 0 -1
vn -2.102049E-05 0 -1
vn 0 0 -1
vn 0 0 -1
vn -2.099701E-05 0 -1
vn -2.796359E-05 0 -1
vn 7.364387E-05 0 -1
vn 9.825624E-05 0 -1
vn 7.362039E-05 0 -1
vn 0 0 -1
vn -0.0001551333 0 -1
vn 0 0 -1
vn -0.0001551098 0 -1
vn -0.0002070213 0 -1
vn 6.910523E-06 0 -1
vn 9.175205E-06 0 -1
vn 6.887053E-06 0 -1
vn 0 0 -1
vn 0 0 -1
vn 0 0 -1
vn 0 0 1
vn 0 0 1
vn 0 0 1
vn -5.35153E-06 0 1
vn -7.170009E-06 0 1
vn -5.421594E-06 0 1
vn 0 0 1
vn 0 0 1
vn 0 0 1
vn 0 0 1
vn 0 0 1
vn 0 0 1
vn 0 0 1
vn 0 0 1
vn 0 0 1
vn 0 0 1
vn 0 0 1
vn 0 0 1
vn 0 0 1
vn 0 0 1
vn 0 -1 0
vn 0 -1 0
vn 0 -1 0
vn 0 -1 0
vn 0 -1 0
vn 0 -1 0
vn 0 -1 0
vn 0 -1 0
vn 0 -1 0
vn 0 -1 0
vn 0 -1 0
vn 0 -1 0
vn 0 -1 0
vn 0 -1 0
vn 0 -1 0
vn 0 -1 0
vn 0 -1 0
vn 0 -1 0
vn 0 -1 0
vn 0 -1 0
vn 0 1 0
vn -0.7047912 0.7094147 0
vn 0 1 0
vn -0.7047914 0.7094146 0
vn -0.7030867 0.711104 0
vn -0.7030864 0.7111045 0
vn 0.7081291 0.7060829 0
vn 0.7081289 0.7060832 0
vn 0.7064319 0.707781 0
vn 0.706432 0.7077808 0
vn -0.7067866 0.7074269 0
vn -0.7067866 0.7074267 0
vn -0.708496 0.7057147 0
vn -0.7084958 0.705715 0
vn 0.7003624 0.7137873 0
vn 0.7003623 0.7137876 0
vn 0.7020869 0.7120913 0
vn 0.702087 0.7120913 0
vn 0 1 0
vn 0 1 0
vn 0 -1 0
vn 0 -1 0
vn 0 -1 0
vn 0 -1 0
vn 0 1 0
vn 0 1 0
vn 0 1 0
vn 0 1 0
vn 0 0 -1
vn 0 0 -1
vn 0 0 -1
vn 0 3.103159E-06 -1
vn 0 4.100695E-06 -1
vn 0 3.103198E-06 -1
vn 0 -3.582704E-06 -1
vn 0 -2.670558E-06 -1
vn 0 0 -1
vn 0 -2.671171E-06 -1
vn 0 0 -1
vn 0 0 -1
vn 0 0 1
vn 0 0 1
vn 0 0 1
vn 0 0 1
vn 0 0 1
vn 0 0 1
vn 0 0 1
vn 0 0 1
vn 0 0 1
vn 0 0 1
vn 0 0 1
vn 0 0 1
vn 0.9997403 0.02278936 0
vn 0.7208937 -0.6930457 0
vn 0.9997403 0.02278936 0
vn 0.7208936 -0.6930457 0
vn 0.7129493 -0.7012156 0
vn 0.7129493 -0.7012156 0
vn 0.714141 0.7000019 0
vn 0.7141411 0.7000018 0
vn 0.7221175 0.6917703 0
vn 0.7221175 0.6917704 0
vn 0.9997372 -0.02292262 0
vn 0.9997372 -0.02292262 0
vn -1 0 0
vn -1 0 0
vn -1 0 0
vn -1 0 0
vn -1 0 0
vn -1 0 0
vn -1 0 0
vn -1 0 0
vn -1 0 0
vn -1 0 0
vn -1 0 0
vn -1 0 0
vn 0 0 1
vn 0 0 1
vn 0 0 1
vn 0 0 1
vn 0 0 -1
vn 0 0 -1
vn 0 0 -1
vn 0 0 -1
vn -0.01870654 -0.9998251 0
vn -0.01870654 -0.9998251 0
vn -0.01870654 -0.9998251 0
vn -0.01870654 -0.9998251 0
vn 1 0 0
vn 1 0 0
vn 1 0 0
vn 1 0 0
vn 0 1 0
vn 0 1 0
vn 0 1 0
vn 0 1 0
vn -1 0 0
vn -1 0 0
vn -1 0 0
vn -1 0 0
g Room_6_hit_box_0
f 3/3/3 2/2/2 1/1/1
f 4/4/4 3/3/3 1/1/1
f 7/7/7 6/6/6 5/5/5
f 8/8/8 7/7/7 5/5/5
f 11/11/11 10/10/10 9/9/9
f 12/12/12 11/11/11 9/9/9
f 15/15/15 14/14/14 13/13/13
f 16/16/16 15/15/15 13/13/13
f 19/19/19 18/18/18 17/17/17
f 20/20/20 19/19/19 17/17/17
f 23/23/23 22/22/22 21/21/21
f 24/24/24 23/23/23 21/21/21
f 27/27/27 26/26/26 25/25/25
f 26/26/26 28/28/28 25/25/25
f 26/26/26 29/29/29 28/28/28
f 29/29/29 30/30/30 28/28/28
f 29/29/29 31/31/31 30/30/30
f 31/31/31 32/32/32 30/30/30
f 33/33/33 32/32/32 31/31/31
f 34/34/34 33/33/33 31/31/31
f 34/34/34 35/35/35 33/33/33
f 35/35/35 36/36/36 33/33/33
f 36/36/36 35/35/35 37/37/37
f 35/35/35 38/38/38 37/37/37
f 37/37/37 38/38/38 39/39/39
f 38/38/38 40/40/40 39/39/39
f 39/39/39 40/40/40 41/41/41
f 40/40/40 42/42/42 41/41/41
f 45/45/45 44/44/44 43/43/43
f 46/46/46 45/45/45 43/43/43
f 49/49/49 48/48/48 47/47/47
f 48/48/48 50/50/50 47/47/47
f 48/48/48 51/51/51 50/50/50
f 51/51/51 52/52/52 50/50/50
f 51/51/51 53/53/53 52/52/52
f 53/53/53 54/54/54 52/52/52
f 53/53/53 55/55/55 54/54/54
f 55/55/55 56/56/56 54/54/54
f 56/56/56 55/55/55 57/57/57
f 55/55/55 58/58/58 57/57/57
f 57/57/57 58/58/58 59/59/59
f 58/58/58 60/60/60 59/59/59
f 59/59/59 60/60/60 61/61/61
f 60/60/60 62/62/62 61/61/61
f 61/61/61 62/62/62 63/63/63
f 62/62/62 64/64/64 63/63/63
f 67/67/67 66/66/66 65/65/65
f 68/68/68 67/67/67 65/65/65
f 71/71/71 70/70/70 69/69/69
f 72/72/72 71/71/71 69/69/69
f 75/75/75 74/74/74 73/73/73
f 76/76/76 75/75/75 73/73/73
f 79/79/79 78/78/78 77/77/77
f 80/80/80 79/79/79 77/77/77
f 83/83/83 82/82/82 81/81/81
f 84/84/84 83/83/83 81/81/81
f 84/84/84 85/85/85 83/83/83
f 85/85/85 86/86/86 83/83/83
f 89/89/89 88/88/88 87/87/87
f 90/90/90 89/89/89 87/87/87
f 90/90/90 91/91/91 89/89/89
f 91/91/91 92/92/92 89/89/89
f 95/95/95 94/94/94 93/93/93
f 96/96/96 95/95/95 93/93/93
f 99/99/99 98/98/98 97/97/97
f 100/100/100 99/99/99 97/97/97
f 103/103/103 102/102/102 101/101/101
f 104/104/104 103/103/103 101/101/101
f 107/107/107 106/106/106 105/105/105
f 108/108/108 107/107/107 105/105/105
f 111/111/111 110/110/110 109/109/109
f 112/112/112 111/111/111 109/109/109
f 115/115/115 114/114/114 113/113/113
f 116/116/116 115/115/115 113/113/113
f 119/119/119 118/118/118 117/117/117
f 120/120/120 119/119/119 117/117/117
f 123/123/123 122/122/122 121/121/121
f 124/124/124 123/123/123 121/121/121
f 127/127/127 126/126/126 125/125/125
f 128/128/128 127/127/127 125/125/125
f 131/131/131 130/130/130 129/129/129
f 132/132/132 131/131/131 129/129/129
f 135/135/135 134/134/134 133/133/133
f 136/136/136 135/135/135 133/133/133
f 139/139/139 138/138/138 137/137/137
f 140/140/140 139/139/139 137/137/137
f 143/143/143 142/142/142 141/141/141
f 144/144/144 143/143/143 141/141/141
f 147/147/147 146/146/146 145/145/145
f 146/146/146 148/148/148 145/145/145
f 146/146/146 149/149/149 148/148/148
f 149/149/149 150/150/150 148/148/148
f 149/149/149 151/151/151 150/150/150
f 151/151/151 152/152/152 150/150/150
f 152/152/152 151/151/151 153/153/153
f 154/154/154 152/152/152 153/153/153
f 153/153/153 155/155/155 154/154/154
f 155/155/155 156/156/156 154/154/154
f 155/155/155 157/157/157 156/156/156
f 157/157/157 158/158/158 156/156/156
f 158/158/158 157/157/157 159/159/159
f 160/160/160 158/158/158 159/159/159
f 160/160/160 159/159/159 161/161/161
f 162/162/162 160/160/160 161/161/161
f 162/162/162 161/161/161 163/163/163
f 164/164/164 162/162/162 163/163/163
f 167/167/167 166/166/166 165/165/165
f 166/166/166 168/168/168 165/165/165
f 166/166/166 169/169/169 168/168/168
f 169/169/169 170/170/170 168/168/168
f 169/169/169 171/171/171 170/170/170
f 171/171/171 172/172/172 170/170/170
f 172/172/172 171/171/171 173/173/173
f 174/174/174 172/172/172 173/173/173
f 173/173/173 175/175/175 174/174/174
f 175/175/175 176/176/176 174/174/174
f 175/175/175 177/177/177 176/176/176
f 177/177/177 178/178/178 176/176/176
f 178/178/178 177/177/177 179/179/179
f 180/180/180 178/178/178 179/179/179
f 180/180/180 179/179/179 181/181/181
f 182/182/182 180/180/180 181/181/181
f 182/182/182 181/181/181 183/183/183
f 184/184/184 182/182/182 183/183/183
f 187/187/187 186/186/186 185/185/185
f 186/186/186 188/188/188 185/185/185
f 186/186/186 189/189/189 188/188/188
f 189/189/189 190/190/190 188/188/188
f 189/189/189 191/191/191 190/190/190
f 191/191/191 192/192/192 190/190/190
f 192/192/192 191/191/191 193/193/193
f 194/194/194 192/192/192 193/193/193
f 193/193/193 195/195/195 194/194/194
f 195/195/195 196/196/196 194/194/194
f 195/195/195 197/197/197 196/196/196
f 197/197/197 198/198/198 196/196/196
f 198/198/198 197/197/197 199/199/199
f 200/200/200 198/198/198 199/199/199
f 200/200/200 199/199/199 201/201/201
f 202/202/202 200/200/200 201/201/201
f 202/202/202 201/201/201 203/203/203
f 204/204/204 202/202/202 203/203/203
f 207/207/207 206/206/206 205/205/205
f 206/206/206 208/208/208 205/205/205
f 206/206/206 209/209/209 208/208/208
f 209/209/209 210/210/210 208/208/208
f 209/209/209 211/211/211 210/210/210
f 211/211/211 212/212/212 210/210/210
f 212/212/212 211/211/211 213/213/213
f 214/214/214 212/212/212 213/213/213
f 214/214/214 213/213/213 215/215/215
f 216/216/216 214/214/214 215/215/215
f 215/215/215 217/217/217 216/216/216
f 217/217/217 218/218/218 216/216/216
f 218/218/218 217/217/217 219/219/219
f 220/220/220 218/218/218 219/219/219
f 220/220/220 219/219/219 221/221/221
f 222/222/222 220/220/220 221/221/221
f 222/222/222 221/221/221 223/223/223
f 224/224/224 222/222/222 223/223/223
f 227/227/227 226/226/226 225/225/225
f 228/228/228 227/227/227 225/225/225
f 231/231/231 230/230/230 229/229/229
f 232/232/232 231/231/231 229/229/229
f 235/235/235 234/234/234 233/233/233
f 234/234/234 236/236/236 233/233/233
f 234/234/234 237/237/237 236/236/236
f 237/237/237 238/238/238 236/236/236
f 237/237/237 239/239/239 238/238/238
f 239/239/239 240/240/240 238/238/238
f 240/240/240 239/239/239 241/241/241
f 242/242/242 240/240/240 241/241/241
f 242/242/242 241/241/241 243/243/243
f 244/244/244 242/242/242 243/243/243
f 247/247/247 246/246/246 245/245/245
f 246/246/246 248/248/248 245/245/245
f 246/246/246 249/249/249 248/248/248
f 249/249/249 250/250/250 248/248/248
f 249/249/249 251/251/251 250/250/250
f 251/251/251 252/252/252 250/250/250
f 252/252/252 251/251/251 253/253/253
f 254/254/254 252/252/252 253/253/253
f 254/254/254 253/253/253 255/255/255
f 256/256/256 254/254/254 255/255/255
f 259/259/259 258/258/258 257/257/257
f 258/258/258 260/260/260 257/257/257
f 258/258/258 261/261/261 260/260/260
f 261/261/261 262/262/262 260/260/260
f 261/261/261 263/263/263 262/262/262
f 263/263/263 264/264/264 262/262/262
f 264/264/264 263/263/263 265/265/265
f 266/266/266 264/264/264 265/265/265
f 266/266/266 265/265/265 267/267/267
f 268/268/268 266/266/266 267/267/267
f 271/271/271 270/270/270 269/269/269
f 270/270/270 272/272/272 269/269/269
f 270/270/270 273/273/273 272/272/272
f 273/273/273 274/274/274 272/272/272
f 273/273/273 275/275/275 274/274/274
f 275/275/275 276/276/276 274/274/274
f 276/276/276 275/275/275 277/277/277
f 278/278/278 276/276/276 277/277/277
f 278/278/278 277/277/277 279/279/279
f 280/280/280 278/278/278 279/279/279
f 283/283/283 282/282/282 281/281/281
f 284/284/284 283/283/283 281/281/281
f 287/287/287 286/286/286 285/285/285
f 288/288/288 287/287/287 285/285/285
f 291/291/291 290/290/290 289/289/289
f 292/292/292 291/291/291 289/289/289
f 295/295/295 294/294/294 293/293/293
f 296/296/296 295/295/295 293/293/293
f 299/299/299 298/298/298 297/297/297
f 300/300/300 299/299/299 297/297/297
f 303/303/303 302/302/302 301/301/301
f 304/304/304 303/303/303 301/301/301
