g Build1.002
v 0.0236518 -0.02077199 0.01011066
v 0.0236518 -0.02345412 0.01011066
v 0.02444628 -0.02444628 0.0117339
v 0.02444628 -0.02269491 0.0117339
v 0.0236518 0.01950775 0.01011066
v 0.02444628 0.02231873 0.0117339
v 0.0236518 0.02386536 0.01011066
v 0.02444628 0.02444628 0.0117339
v -0.01183781 -0.02345412 0.01011066
v -0.02366769 -0.02345412 0.01011066
v -0.02444628 -0.02444628 0.0117339
v -0.02248515 -0.02444628 0.0117339
v -7.943492E-06 -0.02345412 0.01011066
v -2.184868E-09 -0.02444628 0.0117339
v 0.01182193 -0.02345412 0.01011066
v 0.02199814 -0.02444628 0.0117339
v 0.0236518 -0.02345412 0.01011066
v 0.02444628 -0.02444628 0.0117339
v -0.02366768 0.01950775 0.01011066
v -0.02366768 0.02386536 0.01011066
v -0.02444628 0.02444628 0.0117339
v -0.02444628 0.02231874 0.0117339
v -0.02366769 -0.02077199 0.01011066
v -0.02444628 -0.02269491 0.0117339
v -0.02366769 -0.02345412 0.01011066
v -0.02444628 -0.02444628 0.0117339
v 0.01182193 0.02386536 0.01011066
v 0.0236518 0.02386536 0.01011066
v 0.02444628 0.02444628 0.0117339
v 0.02199815 0.02444628 0.0117339
v -7.939357E-06 0.02386536 0.01011066
v 2.089455E-09 0.02444628 0.0117339
v -0.01183781 0.02386536 0.01011066
v -0.02248515 0.02444628 0.0117339
v -0.02366768 0.02386536 0.01011066
v -0.02444628 0.02444628 0.0117339
v 0.01896415 -0.01604815 -0.01059173
v 0.01896415 -0.01820407 -0.01059173
v 0.01896415 -0.01820407 -0.009506206
v 0.01896415 -0.01604815 -0.009506206
v 0.01896416 0.01632893 -0.01059173
v 0.01896416 0.01632893 -0.009506206
v 0.01896416 0.0198316 -0.01059173
v 0.01896416 0.0198316 -0.009506206
v -0.00956259 -0.01820406 -0.01059173
v -0.01907151 -0.01820406 -0.01059173
v -0.01907151 -0.01820406 -0.009506206
v -0.00956259 -0.01820406 -0.009506206
v -5.36759E-05 -0.01820406 -0.01059173
v -5.36759E-05 -0.01820406 -0.009506206
v 0.009455238 -0.01820406 -0.01059173
v 0.009455238 -0.01820406 -0.009506206
v 0.01896415 -0.01820407 -0.01059173
v 0.01896415 -0.01820407 -0.009506206
v -0.0190715 0.01632894 -0.01059173
v -0.0190715 0.01983161 -0.01059173
v -0.0190715 0.01983161 -0.009506206
v -0.0190715 0.01632894 -0.009506206
v -0.01907151 -0.01604815 -0.01059173
v -0.01907151 -0.01604815 -0.009506206
v -0.01907151 -0.01820406 -0.01059173
v -0.01907151 -0.01820406 -0.009506206
v 0.00945524 0.01983161 -0.01059173
v 0.01896416 0.0198316 -0.01059173
v 0.01896416 0.0198316 -0.009506206
v 0.00945524 0.01983161 -0.009506206
v -5.367255E-05 0.01983161 -0.01059173
v -5.367255E-05 0.01983161 -0.009506206
v -0.009562588 0.01983161 -0.01059173
v -0.009562588 0.01983161 -0.009506206
v -0.0190715 0.01983161 -0.01059173
v -0.0190715 0.01983161 -0.009506206
v -0.02106364 0.02177832 -0.0005382055
v -0.01984627 0.02177832 -0.0005382055
v -0.02106364 0.02177832 -0.0004352379
v 0.01896415 -0.01604815 -0.009506206
v 0.01896415 -0.01820407 -0.009506206
v 0.02002664 -0.01925107 -0.004476292
v 0.02002664 -0.0169747 -0.004477073
v 0.01896416 0.01632893 -0.009506206
v 0.02099032 -0.01789197 -0.0005382055
v 0.02099032 -0.02027565 -0.0005382055
v 0.02220618 -0.02161186 0.004531695
v 0.02002664 0.01721123 -0.004488828
v 0.01896416 0.0198316 -0.009506206
v 0.02002664 0.02090958 -0.004367686
v 0.02099033 0.02177832 -0.0005382049
v 0.02099033 0.01790561 -0.0005382049
v 0.02220618 -0.0190939 0.004537354
v 0.02220618 0.01872026 0.004622156
v 0.0236518 -0.02077199 0.01011066
v 0.0236518 -0.02345412 0.01011066
v 0.0236518 0.01950775 0.01011066
v 0.0236518 0.02386536 0.01011066
v 0.02220618 0.02281113 0.004631331
v 0.02220618 0.02281113 0.00413672
v -0.00956259 -0.01820406 -0.009506206
v -0.01907151 -0.01820406 -0.009506206
v -0.020134 -0.01925106 -0.004466843
v -0.01009383 -0.01925106 -0.004469207
v -5.36759E-05 -0.01820406 -0.009506206
v -5.367595E-05 -0.01925106 -0.004471567
v 0.009455238 -0.01820406 -0.009506206
v 0.009986483 -0.01925106 -0.004473932
v 0.01896415 -0.01820407 -0.009506206
v 0.02002664 -0.01925107 -0.004476292
v -0.0190715 0.01632894 -0.009506206
v -0.0190715 0.01983161 -0.009506206
v -0.02013399 0.02090958 -0.004462807
v -0.02013399 0.01721123 -0.004463173
v -0.01907151 -0.01604815 -0.009506206
v -0.02106364 0.01790561 -0.0005382055
v -0.02013399 0.02090958 -0.00427393
v -0.02106364 0.02177832 -0.0005382055
v -0.0222168 0.01872026 0.004195698
v -0.02106364 0.02177832 -0.0004352379
v -0.0222168 0.02281113 0.004169113
v -0.020134 -0.0169747 -0.004466599
v -0.01907151 -0.01820406 -0.009506206
v -0.020134 -0.01925106 -0.004466843
v -0.02106364 -0.02027564 -0.0005382055
v -0.02106364 -0.01789197 -0.0005382055
v -0.0222168 -0.0190939 0.004441353
v -0.0222168 -0.02161185 0.004457715
v -0.02366769 -0.02345412 0.01011066
v -0.02366769 -0.02077199 0.01011066
v -0.02366768 0.01950775 0.01011066
v -0.02366768 0.02386536 0.01011066
v -0.02444628 0.02231874 0.0117339
v -0.02444628 0.02444628 0.0117339
v -0.02248515 0.02444628 0.0117339
v -0.02248515 0.02231873 0.0117339
v -0.02444628 -0.02269491 0.0117339
v 2.089455E-09 0.02444628 0.0117339
v 1.695837E-09 0.02231873 0.0117339
v 0.02199815 0.02444628 0.0117339
v -0.02248515 -0.02269491 0.0117339
v -0.02444628 -0.02444628 0.0117339
v -0.02248515 -0.02444628 0.0117339
v -1.942594E-09 -0.02269491 0.0117339
v -2.184868E-09 -0.02444628 0.0117339
v 0.02199815 0.02231873 0.0117339
v 0.02444628 0.02444628 0.0117339
v 0.02444628 0.02231873 0.0117339
v 0.02199814 -0.02269491 0.0117339
v 0.02199814 -0.02444628 0.0117339
v 0.02444628 -0.02269491 0.0117339
v 0.02444628 -0.02444628 0.0117339
v -0.02013399 0.02090958 -0.004462807
v -0.0190715 0.01983161 -0.009506206
v -0.009562588 0.01983161 -0.009506206
v -0.008035244 0.02090958 -0.00436396
v -5.367255E-05 0.01983161 -0.009506206
v -0.01897143 0.02090958 -0.004363968
v -0.02013399 0.02090958 -0.00427393
v -0.02106364 0.02177832 -0.0005382055
v -0.01984627 0.02177832 -0.0005382055
v -0.006406955 0.02090958 -0.004363962
v -0.006689455 0.02177832 -0.0005382055
v -0.008394508 0.02177832 -0.0005382055
v -5.367242E-05 0.02090958 -0.004363966
v -0.007032875 0.02281113 0.004218808
v 0.00945524 0.01983161 -0.009506206
v -0.008833981 0.02281113 0.004218811
v 0.008480203 0.02090958 -0.00436397
v 0.01896416 0.0198316 -0.009506206
v 0.006697723 0.02090958 -0.004363968
v 0.02002664 0.02090958 -0.004367686
v 0.007033024 0.02177832 -0.0005382055
v 0.01886269 0.02090958 -0.004363979
v 0.008899539 0.02177832 -0.0005382049
v 0.01977149 0.02177832 -0.0005382049
v 0.02099033 0.02177832 -0.0005382049
v 0.009434288 0.02281113 0.004218805
v 0.02091869 0.02281113 0.004218805
v 0.02220618 0.02281113 0.00413672
v 0.02220618 0.02281113 0.004631331
v 0.007462626 0.02281113 0.004218805
v 0.01182193 0.02386536 0.01011066
v 0.0236518 0.02386536 0.01011066
v -7.939357E-06 0.02386536 0.01011066
v -5.306932E-06 0.02281113 0.004218805
v -0.01183781 0.02386536 0.01011066
v -0.02366768 0.02386536 0.01011066
v -0.02093085 0.02281113 0.0042188
v -0.0222168 0.02281113 0.004169113
v -0.02106364 0.02177832 -0.0004352379
v 0.01896416 0.01632893 -0.01059173
v 0.01896416 0.0198316 -0.01059173
v 0.00945524 0.01983161 -0.01059173
v 0.00945524 0.01632893 -0.01059173
v 0.01896415 -0.01604815 -0.01059173
v -5.367255E-05 0.01983161 -0.01059173
v 0.009455238 -0.01604815 -0.01059173
v 0.01896415 -0.01820407 -0.01059173
v 0.009455238 -0.01820406 -0.01059173
v -5.36729E-05 0.01632893 -0.01059173
v -0.009562588 0.01983161 -0.01059173
v -5.367572E-05 -0.01604815 -0.01059173
v -5.36759E-05 -0.01820406 -0.01059173
v -0.009562588 0.01632893 -0.01059173
v -0.0190715 0.01983161 -0.01059173
v -0.0190715 0.01632894 -0.01059173
v -0.00956259 -0.01604815 -0.01059173
v -0.00956259 -0.01820406 -0.01059173
v -0.01907151 -0.01604815 -0.01059173
v -0.01907151 -0.01820406 -0.01059173
v 0.02199814 -0.02269491 0.0117339
v 0.02199814 -0.02269491 0.009281046
v 0.02199815 0.02231873 0.009281046
v 0.02199815 0.02231873 0.0117339
v 1.695837E-09 0.02231873 0.0117339
v -0.02248515 0.02231873 0.009281046
v -0.02248515 0.02231873 0.0117339
v 1.695837E-09 0.02231873 0.009281046
v 0.02199815 0.02231873 0.0117339
v 0.02199815 0.02231873 0.009281046
v -1.942594E-09 -0.02269491 0.009281046
v 0.02199815 0.02231873 0.009281046
v 0.02199814 -0.02269491 0.009281046
v 1.695837E-09 0.02231873 0.009281046
v -0.02248515 -0.02269491 0.009281046
v -0.02248515 0.02231873 0.009281046
v -1.942594E-09 -0.02269491 0.0117339
v 0.02199814 -0.02269491 0.009281046
v 0.02199814 -0.02269491 0.0117339
v -1.942594E-09 -0.02269491 0.009281046
v -0.02248515 -0.02269491 0.0117339
v -0.02248515 -0.02269491 0.009281046
v -0.02248515 0.02231873 0.0117339
v -0.02248515 0.02231873 0.009281046
v -0.02248515 -0.02269491 0.009281046
v -0.02248515 -0.02269491 0.0117339
v -0.0222168 -0.02161185 0.004457715
v -0.02366769 -0.02345412 0.01011066
v -0.01183781 -0.02345412 0.01011066
v -0.01183781 -0.02206705 0.005042009
v -7.943492E-06 -0.02345412 0.01011066
v -0.01055015 -0.02027564 -0.0005382055
v -0.02106364 -0.02027564 -0.0005382055
v -0.020134 -0.01925106 -0.004466843
v -0.01009383 -0.01925106 -0.004469207
v -3.665872E-05 -0.02027564 -0.0005382055
v -5.367595E-05 -0.01925106 -0.004471567
v 0.01047683 -0.02027564 -0.0005382055
v 0.009986483 -0.01925106 -0.004473932
v 0.02099032 -0.02027565 -0.0005382055
v 0.02002664 -0.01925107 -0.004476292
v -3.665872E-05 -0.02027564 -0.0005382055
v -7.943492E-06 -0.02206705 0.00506171
v 0.01182193 -0.02345412 0.01011066
v 0.01047683 -0.02027564 -0.0005382055
v 0.01182193 -0.02206705 0.005081413
v 0.02220618 -0.02161186 0.004531695
v 0.0236518 -0.02345412 0.01011066
v -3.665503E-05 0.02177832 -0.0005382055
vn 0.8979492 0 -0.4396973
vn 0.8979492 0 -0.4396973
vn 0.8979492 0 -0.4396973
vn 0.8979492 0 -0.4396973
vn 0.8979492 0 -0.4396973
vn 0.8979492 0 -0.4396973
vn 0.8979492 0 -0.4396973
vn 0.8979492 0 -0.4396973
vn -3.576279E-07 -0.8530273 -0.5214844
vn -3.576279E-07 -0.8530273 -0.5214844
vn -3.576279E-07 -0.8530273 -0.5214844
vn -3.576279E-07 -0.8530273 -0.5214844
vn 0 -0.8530273 -0.5214844
vn 0 -0.8530273 -0.5214844
vn 0 -0.8530273 -0.5214844
vn 0 -0.8530273 -0.5214844
vn -4.172325E-07 -0.8530273 -0.5214844
vn -4.172325E-07 -0.8530273 -0.5214844
vn -0.9018555 0 -0.432373
vn -0.9018555 0 -0.432373
vn -0.9018555 0 -0.432373
vn -0.9018555 0 -0.432373
vn -0.9018555 0 -0.432373
vn -0.9018555 0 -0.432373
vn -0.9018555 0 -0.432373
vn -0.9018555 0 -0.432373
vn 3.576279E-07 0.9414063 -0.3369141
vn 3.576279E-07 0.9414063 -0.3369141
vn 3.576279E-07 0.9414063 -0.3369141
vn 3.576279E-07 0.9414063 -0.3369141
vn 0 0.9414063 -0.3369141
vn 0 0.9414063 -0.3369141
vn 0 0.9414063 -0.3369141
vn 0 0.9414063 -0.3369141
vn 1.788139E-07 0.9414063 -0.3369141
vn 1.788139E-07 0.9414063 -0.3369141
vn 1 0 0
vn 1 0 0
vn 1 0 0
vn 1 0 0
vn 1 0 0
vn 1 0 0
vn 1 0 0
vn 1 0 0
vn 0 -1 0
vn 0 -1 0
vn 0 -1 0
vn 0 -1 0
vn 0 -1 0
vn 0 -1 0
vn 0 -1 0
vn 0 -1 0
vn -6.556511E-07 -1 0
vn -6.556511E-07 -1 0
vn -1 0 0
vn -1 0 0
vn -1 0 0
vn -1 0 0
vn -1 0 0
vn -1 0 0
vn -1 0 0
vn -1 0 0
vn 4.768372E-07 1 0
vn 4.768372E-07 1 0
vn 4.768372E-07 1 0
vn 4.768372E-07 1 0
vn 0 1 0
vn 0 1 0
vn 0 1 0
vn 0 1 0
vn 0 1 0
vn 0 1 0
vn 0 1 0
vn 0 1 0
vn 0 1 0
vn 0.9785156 -3.659725E-05 -0.206665
vn 0.9785156 -3.659725E-05 -0.206665
vn 0.9785156 -3.659725E-05 -0.206665
vn 0.9785156 -3.659725E-05 -0.206665
vn 0.9785156 -3.659725E-05 -0.2069092
vn 0.9726563 0.000269413 -0.2330322
vn 0.9726563 0.000269413 -0.2330322
vn 0.9726563 0.000269413 -0.2330322
vn 0.9785156 -3.659725E-05 -0.2069092
vn 0.9785156 0.003456116 -0.2054443
vn 0.9785156 0.003456116 -0.2054443
vn 0.9741211 -0.0138092 -0.2264404
vn 0.9731445 0.0002663136 -0.2310791
vn 0.9726563 0.000269413 -0.2330322
vn 0.9731445 0.0002663136 -0.2310791
vn 0.9672852 0.0002744198 -0.2529297
vn 0.9682617 0.0002729893 -0.2509766
vn 0.9672852 0.0002744198 -0.2529297
vn 0.9667969 0.000276804 -0.2548828
vn 0.9741211 -0.0138092 -0.2264404
vn 0.9741211 -0.0138092 -0.2264404
vn -2.461672E-05 -0.9790039 -0.2034912
vn -2.461672E-05 -0.9790039 -0.2034912
vn -2.461672E-05 -0.9790039 -0.2034912
vn -2.461672E-05 -0.9790039 -0.2034912
vn -2.461672E-05 -0.9790039 -0.2036133
vn -2.461672E-05 -0.9790039 -0.2036133
vn -2.461672E-05 -0.9790039 -0.2036133
vn -2.461672E-05 -0.9790039 -0.2036133
vn -2.527237E-05 -0.9790039 -0.2037354
vn -2.527237E-05 -0.9790039 -0.2037354
vn -0.9785156 1.090765E-05 -0.2061768
vn -0.9785156 1.090765E-05 -0.2061768
vn -0.9785156 1.090765E-05 -0.2061768
vn -0.9785156 1.090765E-05 -0.2061768
vn -0.9785156 1.15037E-05 -0.2062988
vn -0.9711914 0.002281189 -0.237793
vn -0.9726563 0.00579071 -0.2316895
vn -0.9711914 0.002281189 -0.237793
vn -0.9711914 0.002281189 -0.237793
vn -0.9711914 0.002281189 -0.237793
vn -0.9711914 0.002281189 -0.237793
vn -0.9785156 1.15037E-05 -0.2062988
vn -0.9785156 1.15037E-05 -0.2062988
vn -0.9785156 1.15037E-05 -0.2062988
vn -0.9741211 -0.0007519722 -0.2254639
vn -0.9741211 -0.0007519722 -0.2254639
vn -0.9741211 -0.0007519722 -0.2254639
vn -0.9741211 -0.0007519722 -0.2254639
vn -0.96875 -0.0007820129 -0.2485352
vn -0.9702148 -0.00076437 -0.243042
vn -0.9702148 -0.00076437 -0.243042
vn -0.9711914 -0.0007476807 -0.2376709
vn 0 0 1
vn 0 0 1
vn 0 0 1
vn 0 0 1
vn 0 0 1
vn 0 0 1
vn 0 0 1
vn 0 0 1
vn 0 0 1
vn 0 0 1
vn 0 0 1
vn 0 0 1
vn 0 0 1
vn 0 0 1
vn 0 0 1
vn 0 0 1
vn 0 0 1
vn 0 0 1
vn 0 0 1
vn 0 0 1
vn 0.000936985 0.9790039 -0.204834
vn 0.000936985 0.9790039 -0.204834
vn 0 0.9785156 -0.2052002
vn 0 0.9785156 -0.2052002
vn 0 0.9785156 -0.2052002
vn 0.000936985 0.9790039 -0.204834
vn 0.000936985 0.9790039 -0.204834
vn -0.008544922 0.9741211 -0.2258301
vn 0 0.9750977 -0.2214355
vn 0 0.9785156 -0.2052002
vn -1.788139E-07 0.9770508 -0.2121582
vn -1.788139E-07 0.9770508 -0.2121582
vn 0 0.9785156 -0.2052002
vn -1.788139E-07 0.9770508 -0.2121582
vn -3.576279E-05 0.9785156 -0.2052002
vn -1.788139E-07 0.9770508 -0.2121582
vn -3.576279E-05 0.9785156 -0.2052002
vn -3.576279E-05 0.9785156 -0.2052002
vn 0 0.9785156 -0.2052002
vn -3.576279E-05 0.9785156 -0.2052002
vn 0 0.9770508 -0.2121582
vn -3.576279E-05 0.9785156 -0.2052002
vn 2.980232E-07 0.9770508 -0.2121582
vn 2.980232E-07 0.9770508 -0.2121582
vn -0.006950378 0.9770508 -0.2122803
vn 2.980232E-07 0.9770508 -0.2121582
vn 2.980232E-07 0.9770508 -0.2121582
vn -0.006950378 0.9770508 -0.2122803
vn 0.00296402 0.984375 -0.1767578
vn 0 0.9770508 -0.2121582
vn 0 0.984375 -0.1761475
vn 0.00296402 0.984375 -0.1767578
vn 0 0.984375 -0.1761475
vn 0 0.9770508 -0.2121582
vn 0 0.984375 -0.1761475
vn 0.000346899 0.984375 -0.1760254
vn 0 0.9770508 -0.2121582
vn -0.004608154 0.9760742 -0.2165527
vn -0.004608154 0.9760742 -0.2165527
vn 0 0 -1
vn 0 0 -1
vn 0 0 -1
vn 0 0 -1
vn 0 0 -1
vn 0 0 -1
vn 0 0 -1
vn 0 0 -1
vn 0 0 -1
vn 0 0 -1
vn 0 0 -1
vn 0 0 -1
vn 0 0 -1
vn 0 0 -1
vn 0 0 -1
vn 0 0 -1
vn 0 0 -1
vn 0 0 -1
vn 0 0 -1
vn 0 0 -1
vn -1 1.192093E-07 0
vn -1 1.192093E-07 0
vn -1 1.192093E-07 0
vn -1 1.192093E-07 0
vn 0 -1 0
vn 0 -1 0
vn 0 -1 0
vn 0 -1 0
vn 0 -1 0
vn 0 -1 0
vn 0 0 1
vn 0 0 1
vn 0 0 1
vn 0 0 1
vn 0 0 1
vn 0 0 1
vn 0 1 0
vn 0 1 0
vn 0 1 0
vn 0 1 0
vn 0 1 0
vn 0 1 0
vn 1 -1.192093E-07 0
vn 1 -1.192093E-07 0
vn 1 -1.192093E-07 0
vn 1 -1.192093E-07 0
vn -0.01287079 -0.9580078 -0.286377
vn -0.01198578 -0.9570313 -0.2897949
vn 0.0002201796 -0.9643555 -0.2644043
vn -0.01287079 -0.9580078 -0.286377
vn 0.0002201796 -0.9643555 -0.2644043
vn -0.01287079 -0.9580078 -0.286377
vn -0.01287079 -0.9580078 -0.286377
vn -2.902746E-05 -0.9677734 -0.2521973
vn -2.902746E-05 -0.9677734 -0.2521973
vn -2.896786E-05 -0.9677734 -0.2519531
vn -2.896786E-05 -0.9677734 -0.2519531
vn -2.962351E-05 -0.9677734 -0.2519531
vn -2.962351E-05 -0.9677734 -0.2519531
vn 0.0134201 -0.9589844 -0.2836914
vn -2.962351E-05 -0.9677734 -0.2519531
vn 0.0002682209 -0.9526367 -0.3041992
vn 0.0002682209 -0.9526367 -0.3041992
vn 0.000221014 -0.9643555 -0.2653809
vn 0.0002682209 -0.9526367 -0.3041992
vn 0.0002682209 -0.9526367 -0.3041992
vn 0.0134201 -0.9589844 -0.2836914
vn 0.01234436 -0.9560547 -0.2927246
vn 0 0.9770508 -0.2121582
g Build1.002_0
f 3/3/3 2/2/2 1/1/1
f 4/4/4 3/3/3 1/1/1
f 4/4/4 1/1/1 5/5/5
f 6/6/6 4/4/4 5/5/5
f 6/6/6 5/5/5 7/7/7
f 8/8/8 6/6/6 7/7/7
f 11/11/11 10/10/10 9/9/9
f 12/12/12 11/11/11 9/9/9
f 12/12/12 9/9/9 13/13/13
f 14/14/14 12/12/12 13/13/13
f 14/14/14 13/13/13 15/15/15
f 16/16/16 14/14/14 15/15/15
f 16/16/16 15/15/15 17/17/17
f 18/18/18 16/16/16 17/17/17
f 21/21/21 20/20/20 19/19/19
f 22/22/22 21/21/21 19/19/19
f 22/22/22 19/19/19 23/23/23
f 24/24/24 22/22/22 23/23/23
f 24/24/24 23/23/23 25/25/25
f 26/26/26 24/24/24 25/25/25
f 29/29/29 28/28/28 27/27/27
f 30/30/30 29/29/29 27/27/27
f 30/30/30 27/27/27 31/31/31
f 32/32/32 30/30/30 31/31/31
f 32/32/32 31/31/31 33/33/33
f 34/34/34 32/32/32 33/33/33
f 34/34/34 33/33/33 35/35/35
f 36/36/36 34/34/34 35/35/35
f 39/39/39 38/38/38 37/37/37
f 40/40/40 39/39/39 37/37/37
f 40/40/40 37/37/37 41/41/41
f 42/42/42 40/40/40 41/41/41
f 42/42/42 41/41/41 43/43/43
f 44/44/44 42/42/42 43/43/43
f 47/47/47 46/46/46 45/45/45
f 48/48/48 47/47/47 45/45/45
f 48/48/48 45/45/45 49/49/49
f 50/50/50 48/48/48 49/49/49
f 50/50/50 49/49/49 51/51/51
f 52/52/52 50/50/50 51/51/51
f 52/52/52 51/51/51 53/53/53
f 54/54/54 52/52/52 53/53/53
f 57/57/57 56/56/56 55/55/55
f 58/58/58 57/57/57 55/55/55
f 58/58/58 55/55/55 59/59/59
f 60/60/60 58/58/58 59/59/59
f 60/60/60 59/59/59 61/61/61
f 62/62/62 60/60/60 61/61/61
f 65/65/65 64/64/64 63/63/63
f 66/66/66 65/65/65 63/63/63
f 66/66/66 63/63/63 67/67/67
f 68/68/68 66/66/66 67/67/67
f 68/68/68 67/67/67 69/69/69
f 70/70/70 68/68/68 69/69/69
f 70/70/70 69/69/69 71/71/71
f 72/72/72 70/70/70 71/71/71
g Build1.002_1
f 75/75/75 74/74/74 73/73/73
f 78/78/78 77/77/77 76/76/76
f 79/79/79 78/78/78 76/76/76
f 79/79/79 76/76/76 80/80/80
f 79/79/79 81/81/81 78/78/78
f 81/81/81 82/82/82 78/78/78
f 83/83/83 82/82/82 81/81/81
f 84/84/84 79/79/79 80/80/80
f 84/84/84 80/80/80 85/85/85
f 86/86/86 84/84/84 85/85/85
f 86/86/86 87/87/87 84/84/84
f 84/84/84 88/88/88 79/79/79
f 88/88/88 81/81/81 79/79/79
f 87/87/87 88/88/88 84/84/84
f 89/89/89 83/83/83 81/81/81
f 89/89/89 81/81/81 88/88/88
f 90/90/90 88/88/88 87/87/87
f 90/90/90 89/89/89 88/88/88
f 89/89/89 91/91/91 83/83/83
f 91/91/91 92/92/92 83/83/83
f 93/93/93 91/91/91 89/89/89
f 90/90/90 93/93/93 89/89/89
f 94/94/94 93/93/93 90/90/90
f 95/95/95 94/94/94 90/90/90
f 87/87/87 95/95/95 90/90/90
f 87/87/87 96/96/96 95/95/95
f 99/99/99 98/98/98 97/97/97
f 100/100/100 99/99/99 97/97/97
f 100/100/100 97/97/97 101/101/101
f 102/102/102 100/100/100 101/101/101
f 102/102/102 101/101/101 103/103/103
f 104/104/104 102/102/102 103/103/103
f 104/104/104 103/103/103 105/105/105
f 106/106/106 104/104/104 105/105/105
f 109/109/109 108/108/108 107/107/107
f 110/110/110 109/109/109 107/107/107
f 110/110/110 107/107/107 111/111/111
f 109/109/109 110/110/110 112/112/112
f 112/112/112 113/113/113 109/109/109
f 113/113/113 112/112/112 114/114/114
f 114/114/114 112/112/112 115/115/115
f 115/115/115 116/116/116 114/114/114
f 116/116/116 115/115/115 117/117/117
f 118/118/118 110/110/110 111/111/111
f 118/118/118 111/111/111 119/119/119
f 120/120/120 118/118/118 119/119/119
f 120/120/120 121/121/121 118/118/118
f 122/122/122 112/112/112 110/110/110
f 118/118/118 122/122/122 110/110/110
f 121/121/121 122/122/122 118/118/118
f 115/115/115 112/112/112 122/122/122
f 123/123/123 122/122/122 121/121/121
f 123/123/123 115/115/115 122/122/122
f 124/124/124 123/123/123 121/121/121
f 124/124/124 125/125/125 123/123/123
f 125/125/125 126/126/126 123/123/123
f 123/123/123 126/126/126 115/115/115
f 126/126/126 127/127/127 115/115/115
f 115/115/115 127/127/127 117/117/117
f 127/127/127 128/128/128 117/117/117
f 131/131/131 130/130/130 129/129/129
f 132/132/132 131/131/131 129/129/129
f 132/132/132 129/129/129 133/133/133
f 134/134/134 131/131/131 132/132/132
f 135/135/135 134/134/134 132/132/132
f 136/136/136 134/134/134 135/135/135
f 137/137/137 132/132/132 133/133/133
f 137/137/137 133/133/133 138/138/138
f 139/139/139 137/137/137 138/138/138
f 140/140/140 137/137/137 139/139/139
f 141/141/141 140/140/140 139/139/139
f 142/142/142 136/136/136 135/135/135
f 143/143/143 136/136/136 142/142/142
f 144/144/144 143/143/143 142/142/142
f 145/145/145 140/140/140 141/141/141
f 144/144/144 142/142/142 145/145/145
f 146/146/146 145/145/145 141/141/141
f 147/147/147 144/144/144 145/145/145
f 147/147/147 145/145/145 146/146/146
f 148/148/148 147/147/147 146/146/146
f 151/151/151 150/150/150 149/149/149
f 149/149/149 152/152/152 151/151/151
f 153/153/153 151/151/151 152/152/152
f 149/149/149 154/154/154 152/152/152
f 154/154/154 149/149/149 155/155/155
f 155/155/155 156/156/156 154/154/154
f 156/156/156 157/157/157 154/154/154
f 152/152/152 158/158/158 153/153/153
f 158/158/158 152/152/152 159/159/159
f 152/152/152 160/160/160 159/159/159
f 158/158/158 161/161/161 153/153/153
f 162/162/162 159/159/159 160/160/160
f 163/163/163 153/153/153 161/161/161
f 164/164/164 162/162/162 160/160/160
f 161/161/161 165/165/165 163/163/163
f 166/166/166 163/163/163 165/165/165
f 161/161/161 167/167/167 165/165/165
f 165/165/165 168/168/168 166/166/166
f 167/167/167 169/169/169 165/165/165
f 165/165/165 170/170/170 168/168/168
f 169/169/169 171/171/171 165/165/165
f 170/170/170 172/172/172 168/168/168
f 172/172/172 173/173/173 168/168/168
f 174/174/174 171/171/171 169/169/169
f 172/172/172 175/175/175 173/173/173
f 175/175/175 176/176/176 173/173/173
f 176/176/176 175/175/175 177/177/177
f 178/178/178 174/174/174 169/169/169
f 179/179/179 177/177/177 175/175/175
f 175/175/175 174/174/174 179/179/179
f 179/179/179 180/180/180 177/177/177
f 181/181/181 179/179/179 174/174/174
f 181/181/181 174/174/174 178/178/178
f 178/178/178 182/182/182 181/181/181
f 181/181/181 182/182/182 162/162/162
f 162/162/162 164/164/164 181/181/181
f 164/164/164 183/183/183 181/181/181
f 184/184/184 183/183/183 164/164/164
f 184/184/184 164/164/164 185/185/185
f 185/185/185 186/186/186 184/184/184
f 186/186/186 185/185/185 157/157/157
f 187/187/187 186/186/186 157/157/157
f 190/190/190 189/189/189 188/188/188
f 191/191/191 190/190/190 188/188/188
f 191/191/191 188/188/188 192/192/192
f 193/193/193 190/190/190 191/191/191
f 194/194/194 191/191/191 192/192/192
f 194/194/194 192/192/192 195/195/195
f 196/196/196 194/194/194 195/195/195
f 197/197/197 193/193/193 191/191/191
f 197/197/197 191/191/191 194/194/194
f 198/198/198 193/193/193 197/197/197
f 199/199/199 194/194/194 196/196/196
f 199/199/199 197/197/197 194/194/194
f 200/200/200 199/199/199 196/196/196
f 201/201/201 198/198/198 197/197/197
f 201/201/201 197/197/197 199/199/199
f 202/202/202 198/198/198 201/201/201
f 203/203/203 202/202/202 201/201/201
f 204/204/204 199/199/199 200/200/200
f 204/204/204 201/201/201 199/199/199
f 203/203/203 201/201/201 204/204/204
f 205/205/205 204/204/204 200/200/200
f 206/206/206 203/203/203 204/204/204
f 206/206/206 204/204/204 205/205/205
f 207/207/207 206/206/206 205/205/205
f 210/210/210 209/209/209 208/208/208
f 211/211/211 210/210/210 208/208/208
f 214/214/214 213/213/213 212/212/212
f 213/213/213 215/215/215 212/212/212
f 212/212/212 215/215/215 216/216/216
f 215/215/215 217/217/217 216/216/216
f 220/220/220 219/219/219 218/218/218
f 219/219/219 221/221/221 218/218/218
f 218/218/218 221/221/221 222/222/222
f 221/221/221 223/223/223 222/222/222
f 226/226/226 225/225/225 224/224/224
f 225/225/225 227/227/227 224/224/224
f 224/224/224 227/227/227 228/228/228
f 227/227/227 229/229/229 228/228/228
f 232/232/232 231/231/231 230/230/230
f 233/233/233 232/232/232 230/230/230
f 236/236/236 235/235/235 234/234/234
f 237/237/237 236/236/236 234/234/234
f 238/238/238 236/236/236 237/237/237
f 237/237/237 234/234/234 239/239/239
f 234/234/234 240/240/240 239/239/239
f 239/239/239 240/240/240 241/241/241
f 242/242/242 239/239/239 241/241/241
f 243/243/243 239/239/239 242/242/242
f 244/244/244 243/243/243 242/242/242
f 245/245/245 243/243/243 244/244/244
f 246/246/246 245/245/245 244/244/244
f 247/247/247 245/245/245 246/246/246
f 248/248/248 247/247/247 246/246/246
f 237/237/237 239/239/239 249/249/249
f 250/250/250 238/238/238 237/237/237
f 250/250/250 237/237/237 249/249/249
f 251/251/251 238/238/238 250/250/250
f 250/250/250 249/249/249 252/252/252
f 253/253/253 252/252/252 247/247/247
f 253/253/253 250/250/250 252/252/252
f 253/253/253 251/251/251 250/250/250
f 254/254/254 253/253/253 247/247/247
f 255/255/255 251/251/251 253/253/253
f 254/254/254 255/255/255 253/253/253
g Build1.002_2
f 174/174/174 175/175/175 171/171/171
f 175/175/175 172/172/172 171/171/171
f 165/165/165 171/171/171 172/172/172
f 170/170/170 165/165/165 172/172/172
f 158/158/158 159/159/159 161/161/161
f 159/159/159 256/256/256 161/161/161
f 161/161/161 256/256/256 169/169/169
f 167/167/167 161/161/161 169/169/169
f 178/178/178 169/169/169 256/256/256
f 182/182/182 178/178/178 256/256/256
f 182/182/182 256/256/256 159/159/159
f 162/162/162 182/182/182 159/159/159
f 154/154/154 157/157/157 152/152/152
f 157/157/157 160/160/160 152/152/152
f 164/164/164 160/160/160 157/157/157
f 185/185/185 164/164/164 157/157/157
