g Floor 17
v -0.6835285 0 0.2
v -0.5 0 0
v 0 0 0
v 0 0 0.2
v -0.6835285 0 0.360263
v -0.1602631 0 0.360263
v -1 0 0.360263
v 0 0 1
v -1 0 0.2
v -0.1602631 0 1
v -1.316471 0 0.360263
v 0 0 1.8
v -1.316471 0 0.2
v -1.839737 0 0.360263
v -0.1602631 0 1.639737
v -2 0 0.2
v -1.5 0 0
v -2 0 0
v -1.839737 0 1
v -2 0 1
v -1.839737 0 1.639737
v -2 0 1.8
v -1.316471 0 1.639737
v -1.316471 0 1.8
v -2 0 2
v -1.5 0 2
v -1 0 1.639737
v -1 0 1.8
v -0.6835285 0 1.639737
v -0.6835285 0 1.8
v -0.5 0 2
v 0 0 2
v -0.6835285 0 1.639737
v -0.1602631 0 1
v -0.1602631 0 1.639737
v -0.5 0 1
v -0.1602631 0 0.360263
v -1 0 1.639737
v -0.6835285 0 0.360263
v -1 0 1
v -1.316471 0 1.639737
v -1 0 0.360263
v -1.5 0 1
v -1.839737 0 1.639737
v -1.316471 0 0.360263
v -1.839737 0 1
v -1.839737 0 0.360263
v -1.405104 -0.03893556 1.958285
v -1.298134 -0.03893556 1.841715
v -1 -0.03893556 1.841715
v -1 -0.03893556 1.958285
v -0.7018657 -0.03893556 1.841715
v -0.5948958 -0.03893556 1.958285
v -1.298134 -0.03893556 0.1582852
v -1.405104 -0.03893556 0.04171482
v -1 -0.03893556 0.04171481
v -1 -0.03893556 0.1582852
v -0.5948958 -0.03893556 0.04171482
v -0.7018657 -0.03893556 0.1582852
v -1 -0.03893556 1.958285
v -1.5 0 2
v -1.405104 -0.03893556 1.958285
v -1 0 2
v -0.5948958 -0.03893556 1.958285
v -0.5 0 2
v -1 -0.03893556 0.04171481
v -0.5 0 0
v -0.5948958 -0.03893556 0.04171482
v -1 0 0
v -1.405104 -0.03893556 0.04171482
v -1.5 0 0
v -1 -0.03893556 1.841715
v -0.6835285 0 1.8
v -0.7018657 -0.03893556 1.841715
v -1 0 1.8
v -1.298134 -0.03893556 1.841715
v -1.316471 0 1.8
v -0.7018657 -0.03893556 0.1582852
v -0.6835285 0 0.2
v -1 0 0.2
v -1 -0.03893556 0.1582852
v -1.316471 0 0.2
v -1.298134 -0.03893556 0.1582852
v -1.405104 -0.03893556 1.958285
v -1.5 0 2
v -1.316471 0 1.8
v -1.298134 -0.03893556 1.841715
v -0.7018657 -0.03893556 1.841715
v -0.6835285 0 1.8
v -0.5 0 2
v -0.5948958 -0.03893556 1.958285
v -1.298134 -0.03893556 0.1582852
v -1.316471 0 0.2
v -1.5 0 0
v -1.405104 -0.03893556 0.04171482
v -0.5948958 -0.03893556 0.04171482
v -0.5 0 0
v -0.6835285 0 0.2
v -0.7018657 -0.03893556 0.1582852
vt 0.2978516 0.2001953
vt 0.2978516 0.2070313
vt 0.3046875 0.2070313
vt 0.3046875 0.2001953
vt 0.2971191 0.1988525
vt 0.3029785 0.1988525
vt 0.2910156 0.1988525
vt 0.3046875 0.1933594
vt 0.2910156 0.2001953
vt 0.3024902 0.1933594
vt 0.2849121 0.1988525
vt 0.3046875 0.1865234
vt 0.2841797 0.2001953
vt 0.2790527 0.1988525
vt 0.3029785 0.1878662
vt 0.2773438 0.2001953
vt 0.2841797 0.2070313
vt 0.2773438 0.2070313
vt 0.279541 0.1933594
vt 0.2773438 0.1933594
vt 0.2790527 0.1878662
vt 0.2773438 0.1865234
vt 0.2849121 0.1878662
vt 0.2841797 0.1865234
vt 0.2773438 0.1796875
vt 0.2841797 0.1796875
vt 0.2910156 0.1878662
vt 0.2910156 0.1865234
vt 0.2971191 0.1878662
vt 0.2978516 0.1865234
vt 0.2978516 0.1796875
vt 0.3046875 0.1796875
vt 0.4375 0.1875
vt 0.4433594 0.1933594
vt 0.4433594 0.1875
vt 0.4394531 0.1933594
vt 0.4433594 0.1992188
vt 0.4316406 0.1875
vt 0.4375 0.1992188
vt 0.4316406 0.1933594
vt 0.4257813 0.1875
vt 0.4316406 0.1992188
vt 0.4257813 0.1933594
vt 0.4199219 0.1875
vt 0.4257813 0.1992188
vt 0.4199219 0.1933594
vt 0.4199219 0.1992188
vt 0.3261719 0.5507813
vt 0.328125 0.5566406
vt 0.3339844 0.5566406
vt 0.3339844 0.5507813
vt 0.3398438 0.5566406
vt 0.3398438 0.5507813
vt 0.328125 0.5722656
vt 0.3261719 0.5761719
vt 0.3339844 0.5761719
vt 0.3339844 0.5722656
vt 0.3398438 0.5761719
vt 0.3398438 0.5722656
vt 0.1875 0.1738281
vt 0.1796875 0.1738281
vt 0.1796875 0.1738281
vt 0.1875 0.1738281
vt 0.1933594 0.1738281
vt 0.1933594 0.1738281
vt 0.2050781 0.1855469
vt 0.2109375 0.1875
vt 0.2109375 0.1855469
vt 0.2050781 0.1875
vt 0.1972656 0.1855469
vt 0.1972656 0.1875
vt 0.1875 0.1796875
vt 0.1933594 0.1816406
vt 0.1933594 0.1796875
vt 0.1875 0.1816406
vt 0.1816406 0.1796875
vt 0.1796875 0.1816406
vt 0.2109375 0.1835938
vt 0.2109375 0.1816406
vt 0.2050781 0.1816406
vt 0.2050781 0.1835938
vt 0.1972656 0.1816406
vt 0.1992188 0.1835938
vt 0.1796875 0.1738281
vt 0.1796875 0.1738281
vt 0.1796875 0.1816406
vt 0.1816406 0.1796875
vt 0.1933594 0.1796875
vt 0.1933594 0.1816406
vt 0.1933594 0.1738281
vt 0.1933594 0.1738281
vt 0.1992188 0.1835938
vt 0.1972656 0.1816406
vt 0.1972656 0.1875
vt 0.1972656 0.1855469
vt 0.2109375 0.1855469
vt 0.2109375 0.1875
vt 0.2109375 0.1816406
vt 0.2109375 0.1835938
vn 0 1 0
vn 0 1 0
vn 0 1 0
vn 0 1 0
vn 0 1 0
vn 0 1 0
vn 0 1 0
vn 0 1 0
vn 0 1 0
vn 0 1 0
vn 0 1 0
vn 0 1 0
vn 0 1 0
vn 0 1 0
vn 0 1 0
vn 0 1 0
vn 0 1 0
vn 0 1 0
vn 0 1 0
vn 0 1 0
vn 0 1 0
vn 0 1 0
vn 0 1 0
vn 0 1 0
vn 0 1 0
vn 0 1 0
vn 0 1 0
vn 0 1 0
vn 0 1 0
vn 0 1 0
vn 0 1 0
vn 0 1 0
vn 0 1 0
vn 0 1 0
vn 0 1 0
vn 0 1 0
vn 0 1 0
vn 0 1 0
vn 0 1 0
vn 0 1 0
vn 0 1 0
vn 0 1 0
vn 0 1 0
vn 0 1 0
vn 0 1 0
vn 0 1 0
vn 0 1 0
vn 0 1 0
vn 0 1 0
vn 0 1 0
vn 0 1 0
vn 0 1 0
vn 0 1 0
vn 0 1 0
vn 0 1 0
vn 0 1 0
vn 0 1 0
vn 0 1 0
vn 0 1 0
vn 0 0.730957 -0.6821289
vn 0 0.730957 -0.6821289
vn 0 0.730957 -0.6821289
vn 0 0.730957 -0.6821289
vn 0 0.730957 -0.6821289
vn 0 0.730957 -0.6821289
vn 0 0.730957 0.6821289
vn 0 0.730957 0.6821289
vn 0 0.730957 0.6821289
vn 0 0.730957 0.6821289
vn 0 0.730957 0.6821289
vn 0 0.730957 0.6821289
vn 0 0.730957 0.6821289
vn 0 0.730957 0.6821289
vn 0 0.730957 0.6821289
vn 0 0.730957 0.6821289
vn 0 0.730957 0.6821289
vn 0 0.730957 0.6821289
vn 0 0.730957 -0.6821289
vn 0 0.730957 -0.6821289
vn 0 0.730957 -0.6821289
vn 0 0.730957 -0.6821289
vn 0 0.730957 -0.6821289
vn 0 0.730957 -0.6821289
vn 0.5029297 0.730957 0.4614258
vn 0.5029297 0.730957 0.4614258
vn 0.5029297 0.730957 0.4614258
vn 0.5029297 0.730957 0.4614258
vn -0.5029297 0.730957 0.4614258
vn -0.5029297 0.730957 0.4614258
vn -0.5029297 0.730957 0.4614258
vn -0.5029297 0.730957 0.4614258
vn 0.5029297 0.730957 -0.4614258
vn 0.5029297 0.730957 -0.4614258
vn 0.5029297 0.730957 -0.4614258
vn 0.5029297 0.730957 -0.4614258
vn -0.5029297 0.730957 -0.4614258
vn -0.5029297 0.730957 -0.4614258
vn -0.5029297 0.730957 -0.4614258
vn -0.5029297 0.730957 -0.4614258
g Floor 17_0
f 3/3/3 2/2/2 1/1/1
f 4/4/4 3/3/3 1/1/1
f 4/4/4 1/1/1 5/5/5
f 6/6/6 4/4/4 5/5/5
f 5/5/5 1/1/1 7/7/7
f 8/8/8 4/4/4 6/6/6
f 1/1/1 9/9/9 7/7/7
f 10/10/10 8/8/8 6/6/6
f 7/7/7 9/9/9 11/11/11
f 12/12/12 8/8/8 10/10/10
f 9/9/9 13/13/13 11/11/11
f 11/11/11 13/13/13 14/14/14
f 15/15/15 12/12/12 10/10/10
f 13/13/13 16/16/16 14/14/14
f 13/13/13 17/17/17 16/16/16
f 17/17/17 18/18/18 16/16/16
f 14/14/14 16/16/16 19/19/19
f 16/16/16 20/20/20 19/19/19
f 19/19/19 20/20/20 21/21/21
f 20/20/20 22/22/22 21/21/21
f 21/21/21 22/22/22 23/23/23
f 22/22/22 24/24/24 23/23/23
f 24/24/24 22/22/22 25/25/25
f 26/26/26 24/24/24 25/25/25
f 23/23/23 24/24/24 27/27/27
f 24/24/24 28/28/28 27/27/27
f 27/27/27 28/28/28 29/29/29
f 28/28/28 30/30/30 29/29/29
f 29/29/29 30/30/30 15/15/15
f 30/30/30 12/12/12 15/15/15
f 12/12/12 30/30/30 31/31/31
f 32/32/32 12/12/12 31/31/31
f 35/35/35 34/34/34 33/33/33
f 34/34/34 36/36/36 33/33/33
f 34/34/34 37/37/37 36/36/36
f 33/33/33 36/36/36 38/38/38
f 37/37/37 39/39/39 36/36/36
f 36/36/36 40/40/40 38/38/38
f 36/36/36 39/39/39 40/40/40
f 38/38/38 40/40/40 41/41/41
f 39/39/39 42/42/42 40/40/40
f 40/40/40 43/43/43 41/41/41
f 40/40/40 42/42/42 43/43/43
f 41/41/41 43/43/43 44/44/44
f 42/42/42 45/45/45 43/43/43
f 43/43/43 46/46/46 44/44/44
f 43/43/43 45/45/45 46/46/46
f 45/45/45 47/47/47 46/46/46
f 50/50/50 49/49/49 48/48/48
f 51/51/51 50/50/50 48/48/48
f 52/52/52 50/50/50 51/51/51
f 53/53/53 52/52/52 51/51/51
f 56/56/56 55/55/55 54/54/54
f 57/57/57 56/56/56 54/54/54
f 58/58/58 56/56/56 57/57/57
f 59/59/59 58/58/58 57/57/57
f 62/62/62 61/61/61 60/60/60
f 61/61/61 63/63/63 60/60/60
f 60/60/60 63/63/63 64/64/64
f 63/63/63 65/65/65 64/64/64
f 68/68/68 67/67/67 66/66/66
f 67/67/67 69/69/69 66/66/66
f 66/66/66 69/69/69 70/70/70
f 69/69/69 71/71/71 70/70/70
f 74/74/74 73/73/73 72/72/72
f 73/73/73 75/75/75 72/72/72
f 72/72/72 75/75/75 76/76/76
f 75/75/75 77/77/77 76/76/76
f 80/80/80 79/79/79 78/78/78
f 81/81/81 80/80/80 78/78/78
f 82/82/82 80/80/80 81/81/81
f 83/83/83 82/82/82 81/81/81
f 86/86/86 85/85/85 84/84/84
f 87/87/87 86/86/86 84/84/84
f 90/90/90 89/89/89 88/88/88
f 91/91/91 90/90/90 88/88/88
f 94/94/94 93/93/93 92/92/92
f 95/95/95 94/94/94 92/92/92
f 98/98/98 97/97/97 96/96/96
f 99/99/99 98/98/98 96/96/96
