g Floor 4
v -1 0 0.3
v -1 0 0
v 0 0 0
v 0 0 0.3
v -1 0 1
v -1 0 0.7
v 0 0 0.7
v 0 0 1
v -1 0 0.7
v -1 0 0.3
v 0 0 0.3
v 0 0 0.7
vt 0.5546875 0.3144531
vt 0.5546875 0.3242188
vt 0.5820313 0.3242188
vt 0.5820313 0.3144531
vt 0.5546875 0.2949219
vt 0.5546875 0.3046875
vt 0.5820313 0.3046875
vt 0.5820313 0.2949219
vt 0.5410156 0.5507813
vt 0.5410156 0.5605469
vt 0.5703125 0.5605469
vt 0.5703125 0.5507813
vn 0 1 0
vn 0 1 0
vn 0 1 0
vn 0 1 0
vn 0 1 0
vn 0 1 0
vn 0 1 0
vn 0 1 0
vn 0 1 0
vn 0 1 0
vn 0 1 0
vn 0 1 0
g Floor 4_0
f 3/3/3 2/2/2 1/1/1
f 4/4/4 3/3/3 1/1/1
f 7/7/7 6/6/6 5/5/5
f 8/8/8 7/7/7 5/5/5
f 11/11/11 10/10/10 9/9/9
f 12/12/12 11/11/11 9/9/9
