g Floor 7
v -1.840896 0 1.840896
v -1.771312 -0.02352448 1.771312
v -0.2286881 -0.02352448 1.771312
v -0.1591045 0 1.840896
v -1.771312 -0.02352448 1.771312
v -1.771312 -0.02352448 0.2286881
v -0.2286881 -0.02352448 0.2286881
v -0.2286881 -0.02352448 1.771312
v -0.1591045 0 1.840896
v -0.2286881 -0.02352448 1.771312
v -0.2286881 -0.02352448 0.2286881
v -0.1591045 0 0.1591045
v -1.840896 0 0.1591045
v -1.771312 -0.02352448 0.2286881
v -1.771312 -0.02352448 1.771312
v -1.840896 0 1.840896
v -0.1591045 0 0.1591045
v -0.2286881 -0.02352448 0.2286881
v -1.771312 -0.02352448 0.2286881
v -1.840896 0 0.1591045
v -1.840896 0 1.840896
v -2 0 2
v -2 0 0
v -1.840896 0 0.1591045
v -0.1591045 0 1.840896
v 0 0 0
v 0 0 2
v -0.1591045 0 0.1591045
vt 0.7988281 0.3144531
vt 0.7988281 0.3144531
vt 0.8203125 0.3144531
vt 0.8203125 0.3144531
vt 0.421875 0.3046875
vt 0.421875 0.328125
vt 0.4453125 0.328125
vt 0.4453125 0.3046875
vt 0.8203125 0.3144531
vt 0.8203125 0.3144531
vt 0.8203125 0.3359375
vt 0.8203125 0.3359375
vt 0.7988281 0.3359375
vt 0.7988281 0.3359375
vt 0.7988281 0.3144531
vt 0.7988281 0.3144531
vt 0.8203125 0.3359375
vt 0.8203125 0.3359375
vt 0.7988281 0.3359375
vt 0.7988281 0.3359375
vt 0.5546875 0.2990723
vt 0.5527344 0.296875
vt 0.5527344 0.3242188
vt 0.5546875 0.3220215
vt 0.578125 0.2990723
vt 0.5800781 0.3242188
vt 0.5800781 0.296875
vt 0.578125 0.3220215
vn 0 0.9472656 -0.3203125
vn 0 0.9472656 -0.3203125
vn 0 0.9472656 -0.3203125
vn 0 0.9472656 -0.3203125
vn 0 1 0
vn 0 1 0
vn 0 1 0
vn 0 1 0
vn -0.3203125 0.9472656 0
vn -0.3203125 0.9472656 0
vn -0.3203125 0.9472656 0
vn -0.3203125 0.9472656 0
vn 0.3203125 0.9472656 0
vn 0.3203125 0.9472656 0
vn 0.3203125 0.9472656 0
vn 0.3203125 0.9472656 0
vn 0 0.9472656 0.3203125
vn 0 0.9472656 0.3203125
vn 0 0.9472656 0.3203125
vn 0 0.9472656 0.3203125
vn 0 1 0
vn 0 1 0
vn 0 1 0
vn 0 1 0
vn 0 1 0
vn 0 1 0
vn 0 1 0
vn 0 1 0
g Floor 7_0
f 3/3/3 2/2/2 1/1/1
f 4/4/4 3/3/3 1/1/1
f 7/7/7 6/6/6 5/5/5
f 8/8/8 7/7/7 5/5/5
f 11/11/11 10/10/10 9/9/9
f 12/12/12 11/11/11 9/9/9
f 15/15/15 14/14/14 13/13/13
f 16/16/16 15/15/15 13/13/13
f 19/19/19 18/18/18 17/17/17
f 20/20/20 19/19/19 17/17/17
f 23/23/23 22/22/22 21/21/21
f 24/24/24 23/23/23 21/21/21
f 21/21/21 22/22/22 25/25/25
f 26/26/26 23/23/23 24/24/24
f 22/22/22 27/27/27 25/25/25
f 28/28/28 26/26/26 24/24/24
f 25/25/25 27/27/27 28/28/28
f 27/27/27 26/26/26 28/28/28
