g Floor 4
v -1.6 0 2
v -1.6 0 0
v 0 0 0
v 0 0 2
v -1.6 0 2
v -1.7 0.06 2
v -1.7 0.06 0
v -1.6 0 0
v -1.77 0.06 2
v -1.77 0.06 0
v -1.7 0.06 0
v -1.7 0.06 2
v -1.8 0 2
v -1.7 0.06 2
v -1.6 0 2
v -1.77 0.06 2
v -1.9 0 2
v -1.87 0.06 2
v -2 0 2
v -1.94 0.06 2
v -2 0 0
v -1.94 0.06 0
v -1.94 0.06 2
v -2 0 2
v -1.9 0 0
v -1.94 0.06 0
v -2 0 0
v -1.87 0.06 0
v -1.8 0 0
v -1.77 0.06 0
v -1.6 0 0
v -1.7 0.06 0
v -1.94 0.06 2
v -1.94 0.06 0
v -1.87 0.06 0
v -1.87 0.06 2
v -1.87 0.06 2
v -1.87 0.06 0
v -1.77 0.06 0
v -1.77 0.06 2
vt 0.4648438 0.6601563
vt 0.4648438 0.6875
vt 0.4785156 0.6875
vt 0.4785156 0.6601563
vt 0.4648438 0.6601563
vt 0.4648438 0.6601563
vt 0.4648438 0.6875
vt 0.4648438 0.6875
vt 0.4602051 0.6601563
vt 0.4602051 0.6875
vt 0.4648438 0.6875
vt 0.4648438 0.6601563
vt 0.4746094 0.6796875
vt 0.4746094 0.6796875
vt 0.4746094 0.6796875
vt 0.4746094 0.6796875
vt 0.4746094 0.6796875
vt 0.4746094 0.6796875
vt 0.4746094 0.6796875
vt 0.4746094 0.6796875
vt 0.4550781 0.6875
vt 0.4550781 0.6875
vt 0.4550781 0.6875
vt 0.4550781 0.6875
vt 0.4472656 0.6796875
vt 0.4472656 0.6796875
vt 0.4472656 0.6796875
vt 0.4472656 0.6796875
vt 0.4472656 0.6796875
vt 0.4472656 0.6796875
vt 0.4472656 0.6796875
vt 0.4472656 0.6796875
vt 0.4511719 0.6601563
vt 0.4511719 0.6875
vt 0.4558105 0.6875
vt 0.4558105 0.6601563
vt 0.4648438 0.2871094
vt 0.4648438 0.3144531
vt 0.46875 0.3144531
vt 0.46875 0.2871094
vn 0 1 0
vn 0 1 0
vn 0 1 0
vn 0 1 0
vn 0.5146484 0.8574219 0
vn 0.5146484 0.8574219 0
vn 0.5146484 0.8574219 0
vn 0.5146484 0.8574219 0
vn 0 1 0
vn 0 1 0
vn 0 1 0
vn 0 1 0
vn 0 0 1
vn 0 0 1
vn 0 0 1
vn 0 0 1
vn 0 0 1
vn 0 0 1
vn 0 0 1
vn 0 0 1
vn -0.7070313 0.7070313 0
vn -0.7070313 0.7070313 0
vn -0.7070313 0.7070313 0
vn -0.7070313 0.7070313 0
vn 0 0 -1
vn 0 0 -1
vn 0 0 -1
vn 0 0 -1
vn 0 0 -1
vn 0 0 -1
vn 0 0 -1
vn 0 0 -1
vn 0 1 0
vn 0 1 0
vn 0 1 0
vn 0 1 0
vn 0 1 0
vn 0 1 0
vn 0 1 0
vn 0 1 0
g Floor 4_0
f 3/3/3 2/2/2 1/1/1
f 4/4/4 3/3/3 1/1/1
f 7/7/7 6/6/6 5/5/5
f 8/8/8 7/7/7 5/5/5
f 11/11/11 10/10/10 9/9/9
f 12/12/12 11/11/11 9/9/9
f 15/15/15 14/14/14 13/13/13
f 14/14/14 16/16/16 13/13/13
f 13/13/13 16/16/16 17/17/17
f 16/16/16 18/18/18 17/17/17
f 17/17/17 18/18/18 19/19/19
f 18/18/18 20/20/20 19/19/19
f 23/23/23 22/22/22 21/21/21
f 24/24/24 23/23/23 21/21/21
f 27/27/27 26/26/26 25/25/25
f 26/26/26 28/28/28 25/25/25
f 25/25/25 28/28/28 29/29/29
f 28/28/28 30/30/30 29/29/29
f 29/29/29 30/30/30 31/31/31
f 30/30/30 32/32/32 31/31/31
f 35/35/35 34/34/34 33/33/33
f 36/36/36 35/35/35 33/33/33
f 39/39/39 38/38/38 37/37/37
f 40/40/40 39/39/39 37/37/37
