g FX_Crystal_03
v 0.02720509 0.1470641 0.0273867
v 0.01640232 0.289159 0.016567
v 0.0008699858 0.2503183 -0.0179287
v 0.04287078 0.03309779 -0.0146273
v 0.03280697 0.06987705 0.05969971
v 0.04674113 0.1469239 0.0007662963
v 0.01638865 0.01466931 -0.04456757
v 0.04287078 0.03309779 -0.0146273
v 0.04674113 0.1469239 0.0007662963
v 0.006822817 0.1829634 -0.04509567
v 0.01638865 0.01466931 -0.04456757
v 0.04674113 0.1469239 0.0007662963
v 0.01638865 0.01466931 -0.04456757
v 0.01907699 -0.06731137 0.006908493
v 0.04287078 0.03309779 -0.0146273
v -0.01310175 -0.02836571 0.04688217
v 0.03280697 0.06987705 0.05969971
v 0.01907699 -0.06731137 0.006908493
v 0.03280697 0.06987705 0.05969971
v 0.04287078 0.03309779 -0.0146273
v 0.01907699 -0.06731137 0.006908493
v -0.01379914 0.2848043 0.03062798
v -0.01360874 0.3117271 0.003711777
v 0.01640232 0.289159 0.016567
v -0.01360874 0.3117271 0.003711777
v 0.0008699858 0.2503183 -0.0179287
v 0.01640232 0.289159 0.016567
v 0.03280697 0.06987705 0.05969971
v -0.01310175 -0.02836571 0.04688217
v -0.03125434 0.06411341 0.06212295
v -0.04685901 -0.05472277 -0.001390991
v -0.01310175 -0.02836571 0.04688217
v 0.01907699 -0.06731137 0.006908493
v 0.0008699858 0.2503183 -0.0179287
v -0.01360874 0.3117271 0.003711777
v -0.02366718 0.2088572 -0.0135041
v 0.03280697 0.06987705 0.05969971
v -0.03125434 0.06411341 0.06212295
v -0.01760014 0.1689838 0.04458618
v -0.01360874 0.3117271 0.003711777
v -0.03545754 0.207957 0.0147345
v -0.02366718 0.2088572 -0.0135041
v -0.07170876 0.03942098 0.003334732
v -0.01310175 -0.02836571 0.04688217
v -0.04685901 -0.05472277 -0.001390991
v -0.07170876 0.03942098 0.003334732
v -0.04685901 -0.05472277 -0.001390991
v -0.03337486 0.02394832 -0.04748474
v -0.07170876 0.03942098 0.003334732
v -0.03337486 0.02394832 -0.04748474
v -0.03192151 0.1680296 -0.02495041
v -0.01310175 -0.02836571 0.04688217
v -0.07170876 0.03942098 0.003334732
v -0.03125434 0.06411341 0.06212295
v -0.01760014 0.1689838 0.04458618
v -0.03125434 0.06411341 0.06212295
v -0.0507092 0.142961 0.03587112
v -0.0507092 0.142961 0.03587112
v -0.07170876 0.03942098 0.003334732
v -0.03545754 0.207957 0.0147345
v -0.0507092 0.142961 0.03587112
v -0.03125434 0.06411341 0.06212295
v -0.07170876 0.03942098 0.003334732
v -0.0507092 0.142961 0.03587112
v -0.01379914 0.2848043 0.03062798
v -0.01760014 0.1689838 0.04458618
v 0.02720509 0.1470641 0.0273867
v 0.03280697 0.06987705 0.05969971
v -0.01760014 0.1689838 0.04458618
v 0.0008699858 0.2503183 -0.0179287
v 0.006822817 0.1829634 -0.04509567
v 0.04674113 0.1469239 0.0007662963
v 0.0008699858 0.2503183 -0.0179287
v 0.04674113 0.1469239 0.0007662963
v 0.02720509 0.1470641 0.0273867
v 0.03280697 0.06987705 0.05969971
v 0.02720509 0.1470641 0.0273867
v 0.04674113 0.1469239 0.0007662963
v 0.02720509 0.1470641 0.0273867
v -0.01760014 0.1689838 0.04458618
v -0.01379914 0.2848043 0.03062798
v 0.01640232 0.289159 0.016567
v 0.006822817 0.1829634 -0.04509567
v -0.03192151 0.1680296 -0.02495041
v -0.03337486 0.02394832 -0.04748474
v 0.01638865 0.01466931 -0.04456757
v -0.03337486 0.02394832 -0.04748474
v 0.01907699 -0.06731137 0.006908493
v 0.01638865 0.01466931 -0.04456757
v -0.04685901 -0.05472277 -0.001390991
v 0.0008699858 0.2503183 -0.0179287
v -0.02366718 0.2088572 -0.0135041
v -0.03192151 0.1680296 -0.02495041
v 0.006822817 0.1829634 -0.04509567
v -0.03545754 0.207957 0.0147345
v -0.07170876 0.03942098 0.003334732
v -0.03192151 0.1680296 -0.02495041
v -0.02366718 0.2088572 -0.0135041
v -0.03545754 0.207957 0.0147345
v -0.01360874 0.3117271 0.003711777
v -0.01379914 0.2848043 0.03062798
v -0.0507092 0.142961 0.03587112
vt 0.3579602 0.4917032
vt 0.3579287 0.4915096
vt 0.3579186 0.4918305
vt 0.3579187 0.4918306
vt 0.3579589 0.4919086
vt 0.3579253 0.4918433
vt 0.3579589 0.4919086
vt 0.3579187 0.4918306
vt 0.3579253 0.4918433
vt 0.3576845 0.491428
vt 0.3579589 0.4919086
vt 0.3579253 0.4918433
vt 0.3579589 0.4919086
vt 0.3579589 0.4919086
vt 0.3579187 0.4918306
vt 0.3579589 0.4919086
vt 0.3579589 0.4919086
vt 0.3579589 0.4919086
vt 0.3579589 0.4919086
vt 0.3579187 0.4918306
vt 0.3579589 0.4919086
vt 0.3580526 0.4911813
vt 0.3577952 0.4911213
vt 0.3579287 0.4915096
vt 0.3577952 0.4911213
vt 0.3579186 0.4918305
vt 0.3579287 0.4915096
vt 0.3579589 0.4919086
vt 0.3579589 0.4919086
vt 0.3581189 0.4913945
vt 0.3579589 0.4919087
vt 0.3579589 0.4919086
vt 0.3579589 0.4919086
vt 0.3579186 0.4918305
vt 0.3577952 0.4911213
vt 0.3577507 0.4911973
vt 0.3579589 0.4919086
vt 0.3581189 0.4913945
vt 0.3581083 0.4912273
vt 0.3577952 0.4911213
vt 0.3579913 0.4911673
vt 0.3577507 0.4911973
vt 0.3580496 0.4913896
vt 0.3579589 0.4919086
vt 0.3579589 0.4919087
vt 0.3580496 0.4913896
vt 0.3579589 0.4919087
vt 0.3579589 0.4919086
vt 0.3580496 0.4913896
vt 0.3579589 0.4919086
vt 0.3576967 0.4914216
vt 0.3579589 0.4919086
vt 0.3580496 0.4913896
vt 0.3581189 0.4913945
vt 0.3581083 0.4912273
vt 0.3581189 0.4913945
vt 0.3581083 0.4912273
vt 0.3581083 0.4912273
vt 0.3580496 0.4913896
vt 0.3579913 0.4911673
vt 0.3581083 0.4912273
vt 0.3581189 0.4913945
vt 0.3580496 0.4913896
vt 0.3581083 0.4912273
vt 0.3580526 0.4911813
vt 0.3581083 0.4912273
vt 0.3579602 0.4917032
vt 0.3579589 0.4919086
vt 0.3581083 0.4912273
vt 0.3579186 0.4918305
vt 0.3576845 0.491428
vt 0.3579253 0.4918433
vt 0.3579186 0.4918305
vt 0.3579253 0.4918433
vt 0.3579602 0.4917032
vt 0.3579589 0.4919086
vt 0.3579602 0.4917032
vt 0.3579253 0.4918433
vt 0.3579602 0.4917032
vt 0.3581083 0.4912273
vt 0.3580526 0.4911813
vt 0.3579287 0.4915096
vt 0.3576845 0.491428
vt 0.3576967 0.4914216
vt 0.3579589 0.4919086
vt 0.3579589 0.4919086
vt 0.3579589 0.4919086
vt 0.3579589 0.4919086
vt 0.3579589 0.4919086
vt 0.3579589 0.4919087
vt 0.3579186 0.4918305
vt 0.3577507 0.4911973
vt 0.3576967 0.4914216
vt 0.3576845 0.491428
vt 0.3579913 0.4911673
vt 0.3580496 0.4913896
vt 0.3576967 0.4914216
vt 0.3577507 0.4911973
vt 0.3579913 0.4911673
vt 0.3577952 0.4911213
vt 0.3580526 0.4911813
vt 0.3581083 0.4912273
vn 0.8961947 0.03445308 -0.4423212
vn 0.8961947 0.03445308 -0.4423212
vn 0.8961947 0.03445308 -0.4423212
vn 0.9854448 -0.05524924 0.1607673
vn 0.9854448 -0.05524924 0.1607674
vn 0.9854448 -0.05524924 0.1607673
vn 0.751395 0.05300608 -0.6577203
vn 0.7262317 0.06782213 -0.6840963
vn 0.7670581 0.0433749 -0.6401097
vn 0.7696509 0.0417477 -0.6370987
vn 0.751395 0.05300608 -0.6577203
vn 0.7670581 0.0433749 -0.6401097
vn 0.7986397 -0.3010212 -0.5211149
vn 0.7986398 -0.3010213 -0.5211149
vn 0.7986397 -0.3010213 -0.5211149
vn 0.5334206 -0.3497474 0.7701553
vn 0.5334205 -0.3497474 0.7701554
vn 0.5334206 -0.3497474 0.7701554
vn 0.9589225 -0.1802559 0.2190333
vn 0.9589225 -0.1802559 0.2190333
vn 0.9589225 -0.1802558 0.2190333
vn 0.2221062 0.6885743 0.6903146
vn 0.2221062 0.6885742 0.6903147
vn 0.2221062 0.6885743 0.6903146
vn 0.5938598 0.388335 -0.7046465
vn 0.5938597 0.388335 -0.7046464
vn 0.5938598 0.388335 -0.7046465
vn 0.05106613 -0.1526302 0.9869631
vn 0.05106612 -0.1526302 0.9869631
vn 0.05106612 -0.1526302 0.9869631
vn -0.2225759 -0.7817696 0.5824914
vn -0.2225759 -0.7817696 0.5824915
vn -0.2225759 -0.7817696 0.5824915
vn -0.4762551 0.1902392 -0.8584813
vn -0.4762551 0.1902392 -0.8584813
vn -0.476255 0.1902393 -0.8584813
vn 0.02274126 0.1620095 0.9865271
vn 0.02274126 0.1620095 0.9865271
vn 0.02274126 0.1620094 0.9865271
vn -0.9137365 0.1523784 -0.3766516
vn -0.9137365 0.1523784 -0.3766516
vn -0.9137365 0.1523784 -0.3766516
vn -0.7427104 -0.2407179 0.6248489
vn -0.7403665 -0.2356827 0.6295324
vn -0.7359003 -0.2262785 0.6381605
vn -0.8108047 -0.1861608 -0.5549233
vn -0.8108048 -0.1861609 -0.5549233
vn -0.8108046 -0.1861609 -0.5549234
vn -0.7783784 0.1046647 -0.6190093
vn -0.7783783 0.1046647 -0.6190093
vn -0.7783783 0.1046647 -0.6190093
vn -0.7403665 -0.2356827 0.6295324
vn -0.7427104 -0.2407179 0.6248489
vn -0.7461624 -0.2482685 0.6177413
vn -0.3942305 0.2012782 0.8966991
vn -0.3942305 0.2012782 0.8966991
vn -0.3942305 0.2012782 0.8966991
vn -0.9758047 0.213177 -0.04858784
vn -0.9758046 0.213177 -0.04858783
vn -0.9758047 0.213177 -0.04858784
vn -0.8212307 -0.01270093 0.5704549
vn -0.8212307 -0.01270093 0.5704549
vn -0.8212307 -0.01270093 0.570455
vn -0.3422398 0.1234876 0.9314626
vn -0.3422399 0.1234876 0.9314626
vn -0.3422399 0.1234876 0.9314626
vn 0.4845198 0.3674931 0.7938446
vn 0.4845198 0.3674932 0.7938446
vn 0.4845199 0.3674931 0.7938446
vn 0.821653 0.2741736 -0.4997152
vn 0.8216529 0.2741736 -0.4997152
vn 0.821653 0.2741736 -0.4997152
vn 0.7321199 0.4215531 0.535064
vn 0.7321199 0.4215531 0.535064
vn 0.7321199 0.4215531 0.535064
vn 0.7716869 0.292441 0.5647812
vn 0.7716869 0.2924409 0.5647812
vn 0.7716869 0.292441 0.5647812
vn 0.4023685 0.09836405 0.9101781
vn 0.4023685 0.09836405 0.9101781
vn 0.4023685 0.09836403 0.9101781
vn 0.4023685 0.09836405 0.9101781
vn -0.1946061 0.06390039 -0.9787979
vn -0.1946061 0.06390039 -0.9787979
vn -0.1946061 0.06390039 -0.9787979
vn -0.1946061 0.06390039 -0.9787979
vn -0.02154641 -0.5209741 -0.8533005
vn -0.005061309 -0.5141224 -0.857702
vn -0.04970878 -0.532278 -0.8451089
vn 0.01169228 -0.506982 -0.8618774
vn -0.5593389 0.2891827 -0.7768613
vn -0.5593389 0.2891827 -0.7768613
vn -0.5593389 0.2891827 -0.7768613
vn -0.5593389 0.2891827 -0.7768612
vn -0.9206638 0.2311291 -0.3145752
vn -0.9269744 0.2199419 -0.3038819
vn -0.9252473 0.2230557 -0.3068609
vn -0.8887154 0.281193 -0.3620984
vn -0.9593106 0.2394117 0.1496836
vn -0.9593106 0.2394117 0.1496836
vn -0.9593106 0.2394117 0.1496836
vn -0.9593106 0.2394117 0.1496836
g FX_Crystal_03_0
f 3/3/3 2/2/2 1/1/1
f 6/6/6 5/5/5 4/4/4
f 9/9/9 8/8/8 7/7/7
f 12/12/12 11/11/11 10/10/10
f 15/15/15 14/14/14 13/13/13
f 18/18/18 17/17/17 16/16/16
f 21/21/21 20/20/20 19/19/19
f 24/24/24 23/23/23 22/22/22
f 27/27/27 26/26/26 25/25/25
f 30/30/30 29/29/29 28/28/28
f 33/33/33 32/32/32 31/31/31
f 36/36/36 35/35/35 34/34/34
f 39/39/39 38/38/38 37/37/37
f 42/42/42 41/41/41 40/40/40
f 45/45/45 44/44/44 43/43/43
f 48/48/48 47/47/47 46/46/46
f 51/51/51 50/50/50 49/49/49
f 54/54/54 53/53/53 52/52/52
f 57/57/57 56/56/56 55/55/55
f 60/60/60 59/59/59 58/58/58
f 63/63/63 62/62/62 61/61/61
f 66/66/66 65/65/65 64/64/64
f 69/69/69 68/68/68 67/67/67
f 72/72/72 71/71/71 70/70/70
f 75/75/75 74/74/74 73/73/73
f 78/78/78 77/77/77 76/76/76
f 81/81/81 80/80/80 79/79/79
f 82/82/82 81/81/81 79/79/79
f 85/85/85 84/84/84 83/83/83
f 86/86/86 85/85/85 83/83/83
f 89/89/89 88/88/88 87/87/87
f 90/90/90 87/87/87 88/88/88
f 93/93/93 92/92/92 91/91/91
f 94/94/94 93/93/93 91/91/91
f 97/97/97 96/96/96 95/95/95
f 98/98/98 97/97/97 95/95/95
f 101/101/101 100/100/100 99/99/99
f 102/102/102 101/101/101 99/99/99
