g guard-hat001
v -0.2064772 0.3541573 1.907349E-08
v -1.525879E-07 -0.003471446 0.3727251
v -1.525879E-07 0.4094828 1.907349E-08
v -0.3576289 -0.2099484 1.907349E-08
v -0.4129544 -0.003471365 1.907349E-08
v -0.2064772 -0.3611001 1.907349E-08
v -1.525879E-07 -0.4164256 1.907349E-08
v 0.2064769 -0.3611003 1.907349E-08
v 0.3576285 -0.2099488 1.907349E-08
v 0.4129539 -0.003471432 1.907349E-08
v -0.3895303 -0.2283666 0.03378526
v -0.3895303 -0.2283666 9.536743E-09
v -0.4497906 -0.00347136 9.536743E-09
v -0.3285934 -0.7715457 0.02902879
v -0.3285934 -0.7715457 0.06281404
v -0.1897137 -0.8011666 0.1142048
v -0.3285934 -0.7715457 0.02902879
v -0.3285934 -0.7715457 0.06281404
v -0.1897137 -0.8011666 0.08041952
v -6.103515E-07 -0.8243763 0.1500235
v -6.103515E-07 -0.8243763 0.1162382
v 0.1897127 -0.8011668 0.1142048
v 0.1897127 -0.8011668 0.08041952
v 0.3285922 -0.7715461 0.06281404
v 0.3285922 -0.7715461 0.02902879
v 0.3895297 -0.228367 0.03378526
v 0.4497905 -0.003471432 9.536743E-09
v 0.3895297 -0.228367 9.536743E-09
v 0.3285922 -0.7715461 0.06281404
v 0.3285922 -0.7715461 0.02902879
v -0.2248956 -0.3930015 0.03378526
v -0.3285934 -0.7715457 0.06281404
v -0.3895303 -0.2283666 0.03378526
v -0.1897137 -0.8011666 0.1142048
v -3.051758E-07 -0.453262 0.03378526
v -6.103515E-07 -0.8243763 0.1500235
v 0.224895 -0.3930017 0.03378526
v 0.1897127 -0.8011668 0.1142048
v 0.3895297 -0.228367 0.03378526
v 0.3285922 -0.7715461 0.06281404
v -0.3895303 -0.2283666 9.536743E-09
v -0.3285934 -0.7715457 0.02902879
v -0.1897137 -0.8011666 0.08041952
v -0.2248956 -0.3930015 9.536743E-09
v -6.103515E-07 -0.8243763 0.1162382
v -3.051758E-07 -0.453262 9.536743E-09
v 0.1897127 -0.8011668 0.08041952
v 0.224895 -0.3930017 9.536743E-09
v 0.3285922 -0.7715461 0.02902879
v 0.3895297 -0.228367 9.536743E-09
v -0.3576289 -0.2099484 1.907349E-08
v -0.2064772 -0.3611001 1.907349E-08
v -0.4129544 -0.003471365 1.907349E-08
v -1.525879E-07 -0.4164256 1.907349E-08
v -0.4497906 -0.00347136 9.536743E-09
v 0.2064769 -0.3611003 1.907349E-08
v -0.3576286 0.2030057 1.907349E-08
v 0.3576285 -0.2099488 1.907349E-08
v -0.38953 0.2214239 9.536743E-09
v 0.4497905 -0.003471432 9.536743E-09
v -0.2064772 0.3541573 1.907349E-08
v 0.4129539 -0.003471432 1.907349E-08
v -0.2248953 0.3860587 9.536743E-09
v 0.3895299 0.2214239 9.536743E-09
v -1.525879E-07 0.4094828 1.907349E-08
v 0.3576285 0.2030057 1.907349E-08
v -1.525879E-07 0.4463192 9.536743E-09
v 0.2248952 0.3860587 9.536743E-09
v 0.2064769 0.3541573 1.907349E-08
v 0.3576285 0.2030057 1.907349E-08
v -1.525879E-07 -0.003471446 0.3727251
v 0.4129539 -0.003471432 1.907349E-08
v 0.2064769 0.3541573 1.907349E-08
v -1.525879E-07 0.4094828 1.907349E-08
v -0.3576286 0.2030057 1.907349E-08
v -0.2064772 0.3541573 1.907349E-08
v -0.4129544 -0.003471365 1.907349E-08
v -0.4497906 -0.00347136 0.4347191
v -0.4497906 -0.00347136 9.536743E-09
v -0.38953 0.2214239 9.536743E-09
v -0.3895303 -0.2283666 0.03378526
v -0.38953 0.2214239 0.4347191
v -0.3895303 -0.2283666 0.4347191
v -0.2248953 0.3860587 9.536743E-09
v -0.2248956 -0.3930015 0.4347191
v -0.2248953 0.3860587 0.4347191
v -0.2248956 -0.3930015 0.03378526
v -1.525879E-07 0.4463192 9.536743E-09
v -3.051758E-07 -0.453262 0.4347191
v -1.525879E-07 0.4463192 0.4347191
v -3.051758E-07 -0.453262 0.03378526
v 0.2248952 0.3860587 9.536743E-09
v 0.224895 -0.3930017 0.4347191
v 0.2248952 0.3860587 0.4347191
v 0.224895 -0.3930017 0.03378526
v 0.3895299 0.2214239 9.536743E-09
v 0.3895297 -0.228367 0.4347191
v 0.3895299 0.2214239 0.4347191
v 0.3895297 -0.228367 0.03378526
v 0.4497905 -0.003471432 9.536743E-09
v 0.4497905 -0.003471432 0.4347191
v 0.4497905 -0.003471432 0.4347191
v -1.525879E-07 -0.003471432 0.4347189
v 0.3895299 0.2214239 0.4347191
v 0.3895297 -0.228367 0.4347191
v 0.2248952 0.3860587 0.4347191
v 0.224895 -0.3930017 0.4347191
v -1.525879E-07 0.4463192 0.4347191
v -3.051758E-07 -0.453262 0.4347191
v -0.2248953 0.3860587 0.4347191
v -0.2248956 -0.3930015 0.4347191
v -0.38953 0.2214239 0.4347191
v -0.3895303 -0.2283666 0.4347191
v -0.4497906 -0.00347136 0.4347191
vt 0.373291 0.1280518
vt 0.373291 0.1280518
vt 0.373291 0.1280518
vt 0.373291 0.1280518
vt 0.373291 0.1280518
vt 0.373291 0.1280518
vt 0.373291 0.1280518
vt 0.373291 0.1280518
vt 0.373291 0.1280518
vt 0.373291 0.1280518
vt 0.373291 0.1280518
vt 0.373291 0.1280518
vt 0.373291 0.1280518
vt 0.373291 0.1280518
vt 0.373291 0.1280518
vt 0.373291 0.1280518
vt 0.373291 0.1280518
vt 0.373291 0.1280518
vt 0.373291 0.1280518
vt 0.373291 0.1280518
vt 0.373291 0.1280518
vt 0.373291 0.1280518
vt 0.373291 0.1280518
vt 0.373291 0.1280518
vt 0.373291 0.1280518
vt 0.373291 0.1280518
vt 0.373291 0.1280518
vt 0.373291 0.1280518
vt 0.373291 0.1280518
vt 0.373291 0.1280518
vt 0.373291 0.1280518
vt 0.373291 0.1280518
vt 0.373291 0.1280518
vt 0.373291 0.1280518
vt 0.373291 0.1280518
vt 0.373291 0.1280518
vt 0.373291 0.1280518
vt 0.373291 0.1280518
vt 0.373291 0.1280518
vt 0.373291 0.1280518
vt 0.373291 0.1280518
vt 0.373291 0.1280518
vt 0.373291 0.1280518
vt 0.373291 0.1280518
vt 0.373291 0.1280518
vt 0.373291 0.1280518
vt 0.373291 0.1280518
vt 0.373291 0.1280518
vt 0.373291 0.1280518
vt 0.373291 0.1280518
vt 0.373291 0.1280518
vt 0.373291 0.1280518
vt 0.373291 0.1280518
vt 0.373291 0.1280518
vt 0.373291 0.1280518
vt 0.373291 0.1280518
vt 0.373291 0.1280518
vt 0.373291 0.1280518
vt 0.373291 0.1280518
vt 0.373291 0.1280518
vt 0.373291 0.1280518
vt 0.373291 0.1280518
vt 0.373291 0.1280518
vt 0.373291 0.1280518
vt 0.373291 0.1280518
vt 0.373291 0.1280518
vt 0.373291 0.1280518
vt 0.373291 0.1280518
vt 0.373291 0.1280518
vt 0.373291 0.1280518
vt 0.373291 0.1280518
vt 0.373291 0.1280518
vt 0.373291 0.1280518
vt 0.373291 0.1280518
vt 0.373291 0.1280518
vt 0.373291 0.1280518
vt 0.373291 0.1280518
vt 0.373291 0.1280518
vt 0.373291 0.1280518
vt 0.373291 0.1280518
vt 0.373291 0.1280518
vt 0.373291 0.1280518
vt 0.373291 0.1280518
vt 0.373291 0.1280518
vt 0.373291 0.1280518
vt 0.373291 0.1280518
vt 0.373291 0.1280518
vt 0.373291 0.1280518
vt 0.373291 0.1280518
vt 0.373291 0.1280518
vt 0.373291 0.1280518
vt 0.373291 0.1280518
vt 0.373291 0.1280518
vt 0.373291 0.1280518
vt 0.373291 0.1280518
vt 0.373291 0.1280518
vt 0.373291 0.1280518
vt 0.373291 0.1280518
vt 0.373291 0.1280518
vt 0.373291 0.1280518
vt 0.373291 0.1280518
vt 0.373291 0.1280518
vt 0.373291 0.1280518
vt 0.373291 0.1280518
vt 0.373291 0.1280518
vt 0.373291 0.1280518
vt 0.373291 0.1280518
vt 0.373291 0.1280518
vt 0.373291 0.1280518
vt 0.373291 0.1280518
vt 0.373291 0.1280518
vt 0.373291 0.1280518
vt 0.373291 0.1280518
vt 0.373291 0.1280518
vn 0.1767578 -0.659668 -0.7304688
vn 0.03219604 0.3605957 -0.9321289
vn 0.1767578 -0.659668 -0.7304688
vn 0.5800781 0.3349609 -0.7421875
vn 0.659668 0.1767578 -0.7304688
vn 0.3349609 0.5800781 -0.7421875
vn 2.384186E-07 0.6699219 -0.7421875
vn -0.3349609 0.5800781 -0.7421875
vn -0.5800781 0.3349609 -0.7421875
vn -0.659668 0.1767578 -0.7304688
vn -0.9833984 -0.1809082 0
vn -0.9824219 -0.1868896 0
vn -0.9658203 -0.2587891 0
vn -0.9936523 -0.1115112 0
vn -0.9936523 -0.1115112 0
vn -0.1573486 -0.9873047 0
vn -0.2086182 -0.9780273 0
vn -0.2086182 -0.9780273 0
vn -0.1722412 -0.9848633 0
vn -4.172325E-07 -1 0
vn -4.172325E-07 -1 0
vn 0.1573486 -0.9873047 0
vn 0.1722412 -0.9848633 0
vn 0.2086182 -0.9780273 0
vn 0.2086182 -0.9780273 0
vn 0.9833984 -0.1809082 0
vn 0.9658203 -0.2587891 0
vn 0.9824219 -0.1868896 0
vn 0.9936523 -0.1115112 0
vn 0.9936523 -0.1115112 0
vn -0.07904053 0.151001 0.9853516
vn -0.1011963 0.1035767 0.9892578
vn -0.1011963 0.1035767 0.9892578
vn -0.06188965 0.1871338 0.9804688
vn 1.192093E-07 0.2431641 0.9702148
vn 1.192093E-07 0.2431641 0.9702148
vn 0.07904053 0.151001 0.9853516
vn 0.06188965 0.1871338 0.9804688
vn 0.1011963 0.1035767 0.9892578
vn 0.1011963 0.1035767 0.9892578
vn 0.02079773 -0.02128601 -0.9995117
vn 0.1011963 -0.1035767 -0.9892578
vn 0.06188965 -0.1871338 -0.9804688
vn 0.04614258 -0.08813477 -0.9951172
vn -1.192093E-07 -0.2431641 -0.9702148
vn 0 -0.1424561 -0.9897461
vn -0.06188965 -0.1871338 -0.9804688
vn -0.04614258 -0.08813477 -0.9951172
vn -0.1011963 -0.1035767 -0.9892578
vn -0.02079773 -0.02128601 -0.9995117
vn 2.384186E-07 1.192093E-07 -1
vn 1.192093E-07 2.384186E-07 -1
vn 2.384186E-07 0 -1
vn 0 2.384186E-07 -1
vn 2.384186E-07 0 -1
vn -1.192093E-07 2.384186E-07 -1
vn 2.384186E-07 -1.192093E-07 -1
vn -2.384186E-07 1.192093E-07 -1
vn 2.384186E-07 -1.192093E-07 -1
vn -2.384186E-07 0 -1
vn 1.192093E-07 -2.384186E-07 -1
vn -2.384186E-07 0 -1
vn 1.192093E-07 -2.384186E-07 -1
vn -2.384186E-07 -1.192093E-07 -1
vn 0 -2.384186E-07 -1
vn -2.384186E-07 -1.192093E-07 -1
vn 0 -2.384186E-07 -1
vn -1.192093E-07 -2.384186E-07 -1
vn -1.192093E-07 -2.384186E-07 -1
vn -0.5800781 -0.3349609 -0.7421875
vn -0.04248047 -0.4758301 -0.878418
vn -0.659668 -0.1767578 -0.7304688
vn -0.3349609 -0.5800781 -0.7421875
vn -0.1767578 -0.659668 -0.7304688
vn 0.5800781 -0.3349609 -0.7421875
vn 0.482666 -0.482666 -0.7304688
vn 0.659668 -0.1767578 -0.7304688
vn -1 6.556511E-07 0
vn -1 0.01287842 0
vn -0.8662109 0.5 0
vn -0.8720703 -0.4897461 0
vn -0.8662109 0.5 0
vn -0.8662109 -0.5 0
vn -0.5 0.8662109 0
vn -0.5 -0.8662109 0
vn -0.5 0.8662109 0
vn -0.5 -0.8662109 0
vn 0 1 0
vn -4.768372E-07 -1 0
vn 0 1 0
vn -4.768372E-07 -1 0
vn 0.5 0.8662109 0
vn 0.5 -0.8662109 0
vn 0.5 0.8662109 0
vn 0.5 -0.8662109 0
vn 0.8662109 0.5 0
vn 0.8662109 -0.5 0
vn 0.8662109 0.5 0
vn 0.8720703 -0.4897461 0
vn 1 0.01287842 0
vn 1 -1.788139E-07 0
vn -3.576279E-07 0 1
vn 0 0 1
vn -2.980232E-07 -1.788139E-07 1
vn -2.980232E-07 1.788139E-07 1
vn -1.788139E-07 -2.980232E-07 1
vn -1.788139E-07 2.980232E-07 1
vn 0 -3.576279E-07 1
vn 0 3.576279E-07 1
vn 1.788139E-07 -2.980232E-07 1
vn 1.788139E-07 2.980232E-07 1
vn 2.980232E-07 -1.788139E-07 1
vn 2.980232E-07 1.788139E-07 1
vn 3.576279E-07 0 1
g guard-hat001_0
f 3/3/3 2/2/2 1/1/1
f 5/5/5 2/2/2 4/4/4
f 4/4/4 2/2/2 6/6/6
f 6/6/6 2/2/2 7/7/7
f 7/7/7 2/2/2 8/8/8
f 8/8/8 2/2/2 9/9/9
f 9/9/9 2/2/2 10/10/10
f 13/13/13 12/12/12 11/11/11
f 12/12/12 14/14/14 11/11/11
f 14/14/14 15/15/15 11/11/11
f 18/18/18 17/17/17 16/16/16
f 17/17/17 19/19/19 16/16/16
f 16/16/16 19/19/19 20/20/20
f 19/19/19 21/21/21 20/20/20
f 20/20/20 21/21/21 22/22/22
f 21/21/21 23/23/23 22/22/22
f 22/22/22 23/23/23 24/24/24
f 23/23/23 25/25/25 24/24/24
f 28/28/28 27/27/27 26/26/26
f 26/26/26 29/29/29 28/28/28
f 29/29/29 30/30/30 28/28/28
f 33/33/33 32/32/32 31/31/31
f 32/32/32 34/34/34 31/31/31
f 31/31/31 34/34/34 35/35/35
f 34/34/34 36/36/36 35/35/35
f 35/35/35 36/36/36 37/37/37
f 36/36/36 38/38/38 37/37/37
f 37/37/37 38/38/38 39/39/39
f 38/38/38 40/40/40 39/39/39
f 43/43/43 42/42/42 41/41/41
f 44/44/44 43/43/43 41/41/41
f 45/45/45 43/43/43 44/44/44
f 46/46/46 45/45/45 44/44/44
f 47/47/47 45/45/45 46/46/46
f 48/48/48 47/47/47 46/46/46
f 49/49/49 47/47/47 48/48/48
f 50/50/50 49/49/49 48/48/48
f 41/41/41 51/51/51 44/44/44
f 51/51/51 52/52/52 44/44/44
f 44/44/44 52/52/52 46/46/46
f 53/53/53 51/51/51 41/41/41
f 52/52/52 54/54/54 46/46/46
f 46/46/46 54/54/54 48/48/48
f 55/55/55 53/53/53 41/41/41
f 54/54/54 56/56/56 48/48/48
f 48/48/48 56/56/56 50/50/50
f 57/57/57 53/53/53 55/55/55
f 56/56/56 58/58/58 50/50/50
f 59/59/59 57/57/57 55/55/55
f 50/50/50 58/58/58 60/60/60
f 61/61/61 57/57/57 59/59/59
f 58/58/58 62/62/62 60/60/60
f 63/63/63 61/61/61 59/59/59
f 60/60/60 62/62/62 64/64/64
f 65/65/65 61/61/61 63/63/63
f 62/62/62 66/66/66 64/64/64
f 67/67/67 65/65/65 63/63/63
f 64/64/64 66/66/66 68/68/68
f 69/69/69 65/65/65 67/67/67
f 66/66/66 69/69/69 68/68/68
f 68/68/68 69/69/69 67/67/67
f 72/72/72 71/71/71 70/70/70
f 70/70/70 71/71/71 73/73/73
f 73/73/73 71/71/71 74/74/74
f 76/76/76 71/71/71 75/75/75
f 75/75/75 71/71/71 77/77/77
f 80/80/80 79/79/79 78/78/78
f 78/78/78 79/79/79 81/81/81
f 82/82/82 80/80/80 78/78/78
f 83/83/83 78/78/78 81/81/81
f 84/84/84 80/80/80 82/82/82
f 85/85/85 83/83/83 81/81/81
f 86/86/86 84/84/84 82/82/82
f 87/87/87 85/85/85 81/81/81
f 88/88/88 84/84/84 86/86/86
f 89/89/89 85/85/85 87/87/87
f 90/90/90 88/88/88 86/86/86
f 91/91/91 89/89/89 87/87/87
f 92/92/92 88/88/88 90/90/90
f 93/93/93 89/89/89 91/91/91
f 94/94/94 92/92/92 90/90/90
f 95/95/95 93/93/93 91/91/91
f 96/96/96 92/92/92 94/94/94
f 97/97/97 93/93/93 95/95/95
f 98/98/98 96/96/96 94/94/94
f 99/99/99 97/97/97 95/95/95
f 100/100/100 96/96/96 98/98/98
f 97/97/97 99/99/99 101/101/101
f 101/101/101 100/100/100 98/98/98
f 99/99/99 100/100/100 101/101/101
f 104/104/104 103/103/103 102/102/102
f 102/102/102 103/103/103 105/105/105
f 106/106/106 103/103/103 104/104/104
f 105/105/105 103/103/103 107/107/107
f 108/108/108 103/103/103 106/106/106
f 107/107/107 103/103/103 109/109/109
f 110/110/110 103/103/103 108/108/108
f 109/109/109 103/103/103 111/111/111
f 112/112/112 103/103/103 110/110/110
f 111/111/111 103/103/103 113/113/113
f 114/114/114 103/103/103 112/112/112
f 113/113/113 103/103/103 114/114/114
