g ice
v 0.1651699 0.1513003 -0.1513002
v 0.1537451 0.1627344 0
v 0.1554404 0.1661692 -0.1559648
v 0.1627344 0.1537451 0
v 0.155381 0.1655854 0.155381
v 0.1470829 7.808361E-09 0
v 0.1627344 7.808361E-09 -0.1537451
v 0.1655854 -0.155381 -0.155381
v 0.1627344 -0.1537451 0
v 0.1655854 0.155381 0.155381
v 0.1627344 7.808361E-09 0.1537451
v 0.1651699 -0.1513003 0.1513002
v 0.155381 0.155381 0.1655854
v 0 0.1627344 0.1537451
v 0.1537451 7.808361E-09 0.1627344
v 0 0.1537451 0.1627344
v 0.1554404 -0.1559649 0.1661692
v -0.155381 0.1655854 0.155381
v -0.155381 0.155381 0.1655854
v 0.1554404 -0.1661692 0.1559649
v 0 -0.1537451 0.1627344
v 0.1537451 -0.1627344 0
v 0 -0.1627344 0.1537451
v 0.1627344 -0.1537451 0
v 0.155381 -0.1655854 -0.155381
v 0.1655854 -0.155381 -0.155381
v -0.155381 -0.155381 0.1655854
v -0.155381 -0.1655854 0.155381
v -0.1655854 0.155381 0.155381
v -0.1537451 0.1627344 0
v -0.1627344 7.808361E-09 0.1537451
v -0.1627344 0.1537451 0
v -0.155381 0.1655854 -0.155381
v -0.1655854 0.155381 -0.155381
v -0.1537451 7.808361E-09 0.1627344
v -0.1655854 -0.155381 0.155381
v -0.1627344 -0.1537451 0
v -0.1537451 -0.1627344 0
v -0.1655854 -0.155381 -0.155381
v -0.155381 -0.1655854 -0.155381
v 0.155381 -0.155381 -0.1655854
v 0 7.808361E-09 -0.1470829
v 0 -0.1537451 -0.1627344
v 0.1537451 7.808361E-09 -0.1627344
v -0.155381 -0.155381 -0.1655854
v 0.1554404 0.1559649 -0.1661692
v -0.1537451 7.808361E-09 -0.1627344
v 0 0.1537451 -0.1627344
v -0.155381 0.155381 -0.1655854
v 0.1554404 0.1661692 -0.1559648
v 0 0.1470829 0
v 0 0.1627344 -0.1537451
v 0.1537451 0.1627344 0
v -0.155381 0.1655854 -0.155381
v 0.155381 0.1655854 0.155381
v -0.1537451 0.1627344 0
v 0 0.1627344 0.1537451
v -0.155381 0.1655854 0.155381
v -0.155381 -0.155381 0.1655854
v -0.1537451 7.808361E-09 0.1627344
v 0 7.808361E-09 0.1470829
v 0 -0.1537451 0.1627344
v -0.155381 0.155381 0.1655854
v 0.1554404 -0.1559649 0.1661692
v 0 0.1537451 0.1627344
v 0.1537451 7.808361E-09 0.1627344
v 0.155381 0.155381 0.1655854
v 0.1554404 -0.1661692 0.1559649
v 0 -0.1470829 0
v 0 -0.1627344 0.1537451
v 0.1537451 -0.1627344 0
v -0.155381 -0.1655854 0.155381
v 0.155381 -0.1655854 -0.155381
v -0.1537451 -0.1627344 0
v 0 -0.1627344 -0.1537451
v -0.155381 -0.1655854 -0.155381
v -0.1655854 -0.155381 -0.155381
v -0.1470829 7.808361E-09 0
v -0.1627344 -0.1537451 0
v -0.1627344 7.808361E-09 -0.1537451
v -0.1655854 -0.155381 0.155381
v -0.1655854 0.155381 -0.155381
v -0.1627344 7.808361E-09 0.1537451
v -0.1627344 0.1537451 0
v -0.1655854 0.155381 0.155381
v 0.155381 -0.155381 -0.1655854
v 0.155381 -0.1655854 -0.155381
v 0.1655854 -0.155381 -0.155381
v 0 -0.1627344 -0.1537451
v 0.1537451 7.808361E-09 -0.1627344
v 0 -0.1537451 -0.1627344
v 0.1627344 7.808361E-09 -0.1537451
v -0.155381 -0.1655854 -0.155381
v 0.1554404 0.1559649 -0.1661692
v 0.1651699 0.1513003 -0.1513002
v 0.1554404 0.1661692 -0.1559648
v 0 0.1537451 -0.1627344
v 0 0.1627344 -0.1537451
v -0.155381 -0.155381 -0.1655854
v -0.1655854 -0.155381 -0.155381
v -0.1627344 7.808361E-09 -0.1537451
v -0.1537451 7.808361E-09 -0.1627344
v -0.1655854 0.155381 -0.155381
v -0.155381 0.155381 -0.1655854
v -0.155381 0.1655854 -0.155381
vt 0.3986816 0.890625
vt 0.3837891 0.7504883
vt 0.3820801 0.8950195
vt 0.395752 0.7504883
vt 0.3828125 0.6025391
vt 0.5380859 0.75
vt 0.5385742 0.8925781
vt 0.6831055 0.8935547
vt 0.6811523 0.7490234
vt 0.3945313 0.6079102
vt 0.5371094 0.6069336
vt 0.6787109 0.6083984
vt 0.3945313 0.5976563
vt 0.3813477 0.4575195
vt 0.5361328 0.5952148
vt 0.3935547 0.4570313
vt 0.6748047 0.59375
vt 0.3823242 0.3151855
vt 0.392334 0.3154297
vt 0.6826172 0.5942383
vt 0.6733398 0.4541016
vt 0.824707 0.5966797
vt 0.6855469 0.4536133
vt 0.8242188 0.6083984
vt 0.9584961 0.5996094
vt 0.965332 0.612793
vt 0.6733398 0.314209
vt 0.6850586 0.3093262
vt 0.3864746 0.307373
vt 0.2388916 0.3146973
vt 0.5317383 0.3032227
vt 0.2391357 0.3027344
vt 0.09405518 0.3122559
vt 0.09436035 0.2988281
vt 0.5327148 0.3154297
vt 0.6738281 0.3041992
vt 0.6738281 0.1623535
vt 0.6855469 0.1624756
vt 0.6762695 0.02435303
vt 0.6884766 0.02464294
vt 0.3374023 0.6640625
vt 0.1947021 0.8071289
vt 0.3364258 0.8071289
vt 0.1947021 0.6650391
vt 0.3376465 0.949707
vt 0.05151367 0.6640625
vt 0.1947021 0.9487305
vt 0.05300903 0.8071289
vt 0.05187988 0.949707
vt 0.09216309 0.6025391
vt 0.2381592 0.4577637
vt 0.09429932 0.4572754
vt 0.237915 0.6015625
vt 0.09405518 0.3122559
vt 0.3828125 0.6025391
vt 0.2388916 0.3146973
vt 0.3813477 0.4575195
vt 0.3823242 0.3151855
vt 0.6733398 0.314209
vt 0.5327148 0.3154297
vt 0.5336914 0.4553223
vt 0.6733398 0.4541016
vt 0.392334 0.3154297
vt 0.6748047 0.59375
vt 0.3935547 0.4570313
vt 0.5361328 0.5952148
vt 0.3945313 0.5976563
vt 0.6826172 0.5942383
vt 0.8271484 0.454834
vt 0.6855469 0.4536133
vt 0.824707 0.5966797
vt 0.6850586 0.3093262
vt 0.9584961 0.5996094
vt 0.8291016 0.3122559
vt 0.9697266 0.4572754
vt 0.9707031 0.3144531
vt 0.6762695 0.02435303
vt 0.5322266 0.161377
vt 0.6738281 0.1623535
vt 0.5336914 0.02565002
vt 0.6738281 0.3041992
vt 0.3879395 0.02432251
vt 0.5317383 0.3032227
vt 0.3903809 0.1601563
vt 0.3864746 0.307373
vt 0.3374023 0.6640625
vt 0.3500977 0.6621094
vt 0.3395996 0.6513672
vt 0.3483887 0.8071289
vt 0.1947021 0.6650391
vt 0.3364258 0.8071289
vt 0.1945801 0.6533203
vt 0.3500977 0.9521484
vt 0.05151367 0.6640625
vt 0.05334473 0.6484375
vt 0.04431152 0.6625977
vt 0.05300903 0.8071289
vt 0.04110718 0.8071289
vt 0.3376465 0.949707
vt 0.3398438 0.9624023
vt 0.1947021 0.9609375
vt 0.1947021 0.9487305
vt 0.04971313 0.9624023
vt 0.05187988 0.949707
vt 0.04541016 0.949707
vn 0.9506836 0.2232666 -0.2144775
vn 0.7124023 0.7016602 -0.009437561
vn 0.5844727 0.6723633 -0.4543457
vn 0.9414063 0.3374023 -0.005615234
vn 0.4558105 0.7646484 0.4558105
vn 1 0.01034546 -0.01034546
vn 0.9423828 -0.000535965 -0.3339844
vn 0.8891602 -0.3234863 -0.3234863
vn 0.9375 -0.3474121 -0.005725861
vn 0.8891602 0.3234863 0.3234863
vn 0.9389648 0.01183319 0.3439941
vn 0.9458008 -0.2342529 0.2255859
vn 0.4558105 0.4558105 0.7646484
vn 0 0.7070313 0.7070313
vn 0.7070313 0.00143528 0.7070313
vn 0 0.7070313 0.7070313
vn 0.5805664 -0.4584961 0.6728516
vn -0.4558105 0.7646484 0.4558105
vn -0.4558105 0.4558105 0.7646484
vn 0.5844727 -0.6723633 0.4543457
vn -0.002651215 -0.7070313 0.7070313
vn 0.7124023 -0.7016602 0.009437561
vn -0.002651215 -0.7070313 0.7070313
vn 0.9375 -0.3474121 -0.005725861
vn 0.4558105 -0.7646484 -0.4558105
vn 0.8891602 -0.3234863 -0.3234863
vn -0.4558105 -0.4555664 0.7646484
vn -0.4558105 -0.7646484 0.4558105
vn -0.7646484 0.4558105 0.4558105
vn -0.7070313 0.7070313 0
vn -0.7070313 0 0.7070313
vn -0.7070313 0.7070313 0
vn -0.4558105 0.7646484 -0.4558105
vn -0.7646484 0.4558105 -0.4558105
vn -0.7070313 0 0.7070313
vn -0.7646484 -0.4558105 0.4558105
vn -0.7070313 -0.7070313 -1.192093E-07
vn -0.7070313 -0.7070313 -1.788139E-07
vn -0.7646484 -0.4558105 -0.4558105
vn -0.4558105 -0.7646484 -0.4558105
vn -0.05932617 0.05932617 -0.996582
vn -0.0004386902 -0.0004296303 -1
vn 0 0.1012573 -0.9946289
vn -0.1012573 -0.001813889 -0.9946289
vn 0.05932617 0.05932617 -0.996582
vn -0.06100464 -0.06112671 -0.9960938
vn 0.1012573 0 -0.9946289
vn -0.001698494 -0.1012573 -0.9946289
vn 0.05932617 -0.05932617 -0.996582
vn -0.06100464 0.9960938 0.06112671
vn -0.0004386902 1 0.0004296303
vn -0.001698494 0.9946289 0.1012573
vn -0.1012573 0.9946289 0.001813889
vn 0.05932617 0.996582 0.05932617
vn -0.05932617 0.996582 -0.05932617
vn 0.1012573 0.9946289 0
vn 0 0.9946289 -0.1012573
vn 0.05932617 0.996582 -0.05932617
vn 0.05932617 0.05932617 0.996582
vn 0.1012573 0 0.9946289
vn -0.0004386902 0.0004296303 1
vn -0.001698494 0.1012573 0.9946289
vn 0.05932617 -0.05932617 0.996582
vn -0.06100464 0.06112671 0.9960938
vn 0 -0.1012573 0.9946289
vn -0.1012573 0.001813889 0.9946289
vn -0.05932617 -0.05932617 0.996582
vn -0.06100464 -0.9960938 -0.06112671
vn -0.0004389286 -1 -0.0004296303
vn -0.001698494 -0.9946289 -0.1012573
vn -0.1012573 -0.9946289 -0.001813889
vn 0.05932617 -0.996582 -0.05932617
vn -0.05932617 -0.996582 0.05932617
vn 0.1012573 -0.9946289 0
vn 0 -0.9946289 0.1012573
vn 0.05932617 -0.996582 0.05932617
vn -0.996582 0.05932617 0.05932617
vn -1 0 0
vn -0.9946289 0.1012573 0
vn -0.9946289 0 0.1012573
vn -0.996582 0.05932617 -0.05932617
vn -0.996582 -0.05932617 0.05932617
vn -0.9946289 0 -0.1012573
vn -0.9946289 -0.1012573 0
vn -0.996582 -0.05932617 -0.05932617
vn 0.4558105 -0.4555664 -0.7646484
vn 0.4558105 -0.7646484 -0.4558105
vn 0.8891602 -0.3234863 -0.3234863
vn 0 -0.7070313 -0.7070313
vn 0.7070313 -0.00143528 -0.7070313
vn 0 -0.7070313 -0.7070313
vn 0.9423828 -0.000535965 -0.3339844
vn -0.4558105 -0.7646484 -0.4558105
vn 0.5805664 0.4584961 -0.6728516
vn 0.9506836 0.2232666 -0.2144775
vn 0.5844727 0.6723633 -0.4543457
vn -0.002651215 0.7070313 -0.7070313
vn -0.002651215 0.7070313 -0.7070313
vn -0.4558105 -0.4558105 -0.7646484
vn -0.7646484 -0.4558105 -0.4558105
vn -0.7070313 0 -0.7070313
vn -0.7070313 0 -0.7070313
vn -0.7646484 0.4558105 -0.4558105
vn -0.4558105 0.4558105 -0.7646484
vn -0.4558105 0.7646484 -0.4558105
g ice_0
f 3/3/3 2/2/2 1/1/1
f 4/4/4 1/1/1 2/2/2
f 2/2/2 5/5/5 4/4/4
f 4/4/4 6/6/6 1/1/1
f 7/7/7 1/1/1 6/6/6
f 7/7/7 6/6/6 8/8/8
f 9/9/9 8/8/8 6/6/6
f 10/10/10 4/4/4 5/5/5
f 10/10/10 6/6/6 4/4/4
f 6/6/6 11/11/11 9/9/9
f 11/11/11 6/6/6 10/10/10
f 12/12/12 9/9/9 11/11/11
f 10/10/10 5/5/5 13/13/13
f 5/5/5 14/14/14 13/13/13
f 13/13/13 15/15/15 10/10/10
f 11/11/11 10/10/10 15/15/15
f 16/16/16 13/13/13 14/14/14
f 15/15/15 17/17/17 11/11/11
f 12/12/12 11/11/11 17/17/17
f 14/14/14 18/18/18 16/16/16
f 19/19/19 16/16/16 18/18/18
f 12/12/12 17/17/17 20/20/20
f 17/17/17 21/21/21 20/20/20
f 20/20/20 22/22/22 12/12/12
f 23/23/23 20/20/20 21/21/21
f 24/24/24 12/12/12 22/22/22
f 22/22/22 25/25/25 24/24/24
f 26/26/26 24/24/24 25/25/25
f 21/21/21 27/27/27 23/23/23
f 28/28/28 23/23/23 27/27/27
f 29/29/29 19/19/19 18/18/18
f 18/18/18 30/30/30 29/29/29
f 29/29/29 31/31/31 19/19/19
f 32/32/32 29/29/29 30/30/30
f 30/30/30 33/33/33 32/32/32
f 34/34/34 32/32/32 33/33/33
f 35/35/35 19/19/19 31/31/31
f 31/31/31 36/36/36 35/35/35
f 27/27/27 35/35/35 36/36/36
f 36/36/36 28/28/28 27/27/27
f 36/36/36 37/37/37 28/28/28
f 38/38/38 28/28/28 37/37/37
f 37/37/37 39/39/39 38/38/38
f 40/40/40 38/38/38 39/39/39
f 43/43/43 42/42/42 41/41/41
f 44/44/44 41/41/41 42/42/42
f 43/43/43 45/45/45 42/42/42
f 44/44/44 42/42/42 46/46/46
f 47/47/47 42/42/42 45/45/45
f 48/48/48 46/46/46 42/42/42
f 47/47/47 49/49/49 42/42/42
f 48/48/48 42/42/42 49/49/49
f 52/52/52 51/51/51 50/50/50
f 53/53/53 50/50/50 51/51/51
f 52/52/52 54/54/54 51/51/51
f 53/53/53 51/51/51 55/55/55
f 56/56/56 51/51/51 54/54/54
f 57/57/57 55/55/55 51/51/51
f 58/58/58 51/51/51 56/56/56
f 57/57/57 51/51/51 58/58/58
f 61/61/61 60/60/60 59/59/59
f 62/62/62 61/61/61 59/59/59
f 63/63/63 60/60/60 61/61/61
f 64/64/64 61/61/61 62/62/62
f 65/65/65 63/63/63 61/61/61
f 66/66/66 61/61/61 64/64/64
f 65/65/65 61/61/61 67/67/67
f 66/66/66 67/67/67 61/61/61
f 70/70/70 69/69/69 68/68/68
f 71/71/71 68/68/68 69/69/69
f 70/70/70 72/72/72 69/69/69
f 71/71/71 69/69/69 73/73/73
f 72/72/72 74/74/74 69/69/69
f 75/75/75 73/73/73 69/69/69
f 74/74/74 76/76/76 69/69/69
f 69/69/69 76/76/76 75/75/75
f 79/79/79 78/78/78 77/77/77
f 80/80/80 77/77/77 78/78/78
f 79/79/79 81/81/81 78/78/78
f 80/80/80 78/78/78 82/82/82
f 83/83/83 78/78/78 81/81/81
f 84/84/84 82/82/82 78/78/78
f 83/83/83 85/85/85 78/78/78
f 85/85/85 84/84/84 78/78/78
f 88/88/88 87/87/87 86/86/86
f 87/87/87 89/89/89 86/86/86
f 86/86/86 90/90/90 88/88/88
f 91/91/91 86/86/86 89/89/89
f 92/92/92 88/88/88 90/90/90
f 89/89/89 93/93/93 91/91/91
f 90/90/90 94/94/94 92/92/92
f 95/95/95 92/92/92 94/94/94
f 95/95/95 94/94/94 96/96/96
f 94/94/94 97/97/97 96/96/96
f 98/98/98 96/96/96 97/97/97
f 99/99/99 91/91/91 93/93/93
f 100/100/100 99/99/99 93/93/93
f 100/100/100 101/101/101 99/99/99
f 102/102/102 99/99/99 101/101/101
f 101/101/101 103/103/103 102/102/102
f 97/97/97 104/104/104 98/98/98
f 104/104/104 102/102/102 103/103/103
f 105/105/105 98/98/98 104/104/104
f 103/103/103 105/105/105 104/104/104
