g IL_ActivePart
v 0 2.5 -0.1455753
v 0 2.5 -0.03495577
v -0.2 2.5 -0.03495576
v -0.2 2.5 -0.1455754
v -0.2 2.421504 -0.6215039
v -0.164947 2.421504 -0.6215039
v -0.164947 0.07849612 -0.6215039
v -0.2 0.07849612 -0.6215039
v -0.2 0 -0.2333333
v -0.2 0 0
v 0 0 0
v 0 0 -0.2333333
v -0.2 0 -0.4666666
v 0 0 -0.4666666
v -0.2 0 -0.7
v 0 0 -0.7
v -0.08220769 0.08220769 0
v -0.1177923 0.08220769 0
v -0.1177923 2.382837 0
v -0.08220769 2.382837 0
v 0 2.5 -0.6650442
v 0 2.5 -0.5544246
v -0.2 2.5 -0.5544246
v -0.2 2.5 -0.6650442
v -0.1177923 0.08220769 -0.7
v -0.08220769 0.08220769 -0.7
v -0.08220769 2.382837 -0.7
v -0.1177923 2.382837 -0.7
v -0.2 0.07849612 -0.6215039
v -0.164947 0.07849612 -0.6215039
v -0.164947 0.07849613 -0.4666666
v -0.2 0.07849613 -0.4666666
v -0.164947 0.07849613 -0.2333333
v -0.2 0.07849613 -0.2333333
v -0.164947 0.07849612 -0.07849612
v -0.2 0.07849612 -0.07849612
v -0.2 2.421504 -0.07849612
v -0.164947 2.421504 -0.07849612
v -0.164947 2.421504 -0.2333333
v -0.2 2.421504 -0.2333333
v -0.164947 2.421504 -0.4666666
v -0.2 2.421504 -0.4666666
v -0.164947 2.421504 -0.6215039
v -0.2 2.421504 -0.6215039
v 0 2.465044 0
v 0 2.5 -0.03495577
v 0 2.5 -0.1455753
v 0 0 0
v 0 0 -0.2333333
v 0 0 -0.4666666
v 0 2.5 -0.5544246
v 0 2.625979 -0.5544246
v 0 2.625979 -0.1455753
v 0 2.465044 -0.7
v 0 0 -0.7
v 0 2.5 -0.6650442
v -0.2 2.5 -0.1455754
v -0.1102852 2.625979 -0.1455754
v 0 2.625979 -0.1455753
v 0 2.5 -0.1455753
v 0 2.625979 -0.5544246
v 0 2.625979 -0.1455753
v -0.1102852 2.625979 -0.1455754
v -0.1102852 2.625979 -0.5544246
v -0.2 2.5 -0.5544246
v -0.1102852 2.625979 -0.5544246
v -0.1102852 2.625979 -0.1455754
v -0.2 2.5 -0.1455754
v 0 2.5 -0.5544246
v 0 2.625979 -0.5544246
v -0.1102852 2.625979 -0.5544246
v -0.2 2.5 -0.5544246
v -0.2 2.5 -0.1455754
v -0.2 2.5 -0.03495576
v -0.2 2.475282 -0.02471744
v -0.2 2.421504 -0.2333333
v -0.2 2.421504 -0.07849612
v -0.2 2.421504 -0.4666666
v -0.2 2.5 -0.5544246
v -0.2 2.421504 -0.6215039
v -0.2 2.475282 -0.6752825
v -0.2 2.5 -0.6650442
v -0.2 2.465044 -0.7
v -0.2 0.07849612 -0.6215039
v -0.2 0 -0.7
v -0.2 0.07849613 -0.4666666
v -0.2 0 -0.4666666
v -0.2 0.07849613 -0.2333333
v -0.2 0 -0.2333333
v -0.2 0.07849612 -0.07849612
v -0.2 0 0
v -0.2 2.465044 0
v -0.2 2.475282 -0.02471744
v -0.2 2.5 -0.03495576
v -0.164947 0.07849613 -0.4666666
v -0.164947 0.07849612 -0.6215039
v -0.164947 2.421504 -0.6215039
v -0.164947 2.421504 -0.4666666
v -0.164947 0.07849613 -0.2333333
v -0.164947 2.421504 -0.2333333
v -0.164947 0.07849612 -0.07849612
v -0.164947 2.421504 -0.07849612
v -0.2 0.07849612 -0.07849612
v -0.164947 0.07849612 -0.07849612
v -0.164947 2.421504 -0.07849612
v -0.2 2.421504 -0.07849612
v 0 2.5 -0.03495577
v 0 2.465044 0
v -0.2 2.465044 0
v -0.2 2.5 -0.03495576
v -0.2 2.5 -0.6650442
v -0.2 2.465044 -0.7
v 0 2.465044 -0.7
v 0 2.5 -0.6650442
v -0.1177923 0.08220769 -0.7
v -0.2 0 -0.7
v 0 0 -0.7
v -0.08220769 0.08220769 -0.7
v -0.1177923 2.382837 -0.7
v 0 2.465044 -0.7
v -0.2 2.465044 -0.7
v -0.08220769 2.382837 -0.7
v -0.08220769 0.08220769 0
v 0 0 0
v -0.2 0 0
v -0.1177923 0.08220769 0
v -0.08220769 2.382837 0
v -0.2 2.465044 0
v 0 2.465044 0
v -0.1177923 2.382837 0
vt 0.4147949 0.8652344
vt 0.4147949 0.8652344
vt 0.4128418 0.8652344
vt 0.4128418 0.8652344
vt 0.4128418 0.8642578
vt 0.4133301 0.8642578
vt 0.4133301 0.8417969
vt 0.4128418 0.8417969
vt 0.4128418 0.8408203
vt 0.4128418 0.8408203
vt 0.4147949 0.8408203
vt 0.4147949 0.8408203
vt 0.4128418 0.8408203
vt 0.4147949 0.8408203
vt 0.4128418 0.8408203
vt 0.4147949 0.8408203
vt 0.2336426 0.8525391
vt 0.2332764 0.8525391
vt 0.2332764 0.875
vt 0.2336426 0.875
vt 0.4147949 0.8652344
vt 0.4147949 0.8652344
vt 0.4128418 0.8652344
vt 0.4128418 0.8652344
vt 0.2332764 0.8525391
vt 0.2336426 0.8525391
vt 0.2336426 0.875
vt 0.2332764 0.875
vt 0.4128418 0.8417969
vt 0.4133301 0.8417969
vt 0.4133301 0.8417969
vt 0.4128418 0.8417969
vt 0.4133301 0.8417969
vt 0.4128418 0.8417969
vt 0.4133301 0.8417969
vt 0.4128418 0.8417969
vt 0.4128418 0.8642578
vt 0.4133301 0.8642578
vt 0.4133301 0.8642578
vt 0.4128418 0.8642578
vt 0.4133301 0.8642578
vt 0.4128418 0.8642578
vt 0.4133301 0.8642578
vt 0.4128418 0.8642578
vt 0.4147949 0.8647461
vt 0.4147949 0.8652344
vt 0.4147949 0.8652344
vt 0.4147949 0.8408203
vt 0.4147949 0.8408203
vt 0.4147949 0.8408203
vt 0.4147949 0.8652344
vt 0.4147949 0.8662109
vt 0.4147949 0.8662109
vt 0.4147949 0.8647461
vt 0.4147949 0.8408203
vt 0.4147949 0.8652344
vt 0.4128418 0.8652344
vt 0.4128418 0.8662109
vt 0.4147949 0.8662109
vt 0.4147949 0.8652344
vt 0.4147949 0.8662109
vt 0.4147949 0.8662109
vt 0.4128418 0.8662109
vt 0.4128418 0.8662109
vt 0.4128418 0.8652344
vt 0.4128418 0.8662109
vt 0.4128418 0.8662109
vt 0.4128418 0.8652344
vt 0.4147949 0.8652344
vt 0.4147949 0.8662109
vt 0.4128418 0.8662109
vt 0.4128418 0.8652344
vt 0.4128418 0.8652344
vt 0.4128418 0.8652344
vt 0.4128418 0.8652344
vt 0.4128418 0.8642578
vt 0.4128418 0.8642578
vt 0.4128418 0.8642578
vt 0.4128418 0.8652344
vt 0.4128418 0.8642578
vt 0.4128418 0.8652344
vt 0.4128418 0.8652344
vt 0.4128418 0.8647461
vt 0.4128418 0.8417969
vt 0.4128418 0.8408203
vt 0.4128418 0.8417969
vt 0.4128418 0.8408203
vt 0.4128418 0.8417969
vt 0.4128418 0.8408203
vt 0.4128418 0.8417969
vt 0.4128418 0.8408203
vt 0.4128418 0.8647461
vt 0.4128418 0.8652344
vt 0.4128418 0.8652344
vt 0.4140625 0.8286133
vt 0.4140625 0.8286133
vt 0.4140625 0.8515625
vt 0.4140625 0.8515625
vt 0.4140625 0.8286133
vt 0.4140625 0.8515625
vt 0.4140625 0.8286133
vt 0.4140625 0.8515625
vt 0.4128418 0.8417969
vt 0.4133301 0.8417969
vt 0.4133301 0.8642578
vt 0.4128418 0.8642578
vt 0.4147949 0.8652344
vt 0.4147949 0.8647461
vt 0.4128418 0.8647461
vt 0.4128418 0.8652344
vt 0.4128418 0.8652344
vt 0.4128418 0.8647461
vt 0.4147949 0.8647461
vt 0.4147949 0.8652344
vt 0.4135742 0.8417969
vt 0.4128418 0.8408203
vt 0.4147949 0.8408203
vt 0.4140625 0.8417969
vt 0.4135742 0.8642578
vt 0.4147949 0.8647461
vt 0.4128418 0.8647461
vt 0.4140625 0.8642578
vt 0.4140625 0.8417969
vt 0.4147949 0.8408203
vt 0.4128418 0.8408203
vt 0.4135742 0.8417969
vt 0.4140625 0.8642578
vt 0.4128418 0.8647461
vt 0.4147949 0.8647461
vt 0.4135742 0.8642578
vn 9.536743E-07 1 0
vn 9.536743E-07 1 0
vn 9.536743E-07 1 0
vn 9.536743E-07 1 0
vn 0 0 1
vn 0 0 1
vn 0 0 1
vn 0 0 1
vn 0 -1 0
vn 0 -1 0
vn 0 -1 0
vn 0 -1 0
vn 0 -1 0
vn 0 -1 0
vn 0 -1 0
vn 0 -1 0
vn 0 0 1
vn 0 0 1
vn 0 0 1
vn 0 0 1
vn 0 1 0
vn 0 1 0
vn 0 1 0
vn 0 1 0
vn 0 0 -1
vn 0 0 -1
vn 0 0 -1
vn 0 0 -1
vn 0 1 0
vn 0 1 0
vn 0 1 0
vn 0 1 0
vn 0 1 0
vn 0 1 0
vn 0 1 0
vn 0 1 0
vn 0 -1 0
vn 0 -1 0
vn 0 -1 0
vn 0 -1 0
vn 0 -1 0
vn 0 -1 0
vn 0 -1 0
vn 0 -1 0
vn 1 0 0
vn 1 0 0
vn 1 0 0
vn 1 0 0
vn 1 0 0
vn 1 0 0
vn 1 0 0
vn 1 0 0
vn 1 0 0
vn 1 0 0
vn 1 0 0
vn 1 0 0
vn 0 0 1
vn 0 0 1
vn 0 0 1
vn 0 0 1
vn 8.940697E-07 1 0
vn 8.940697E-07 1 0
vn 8.940697E-07 1 0
vn 8.940697E-07 1 0
vn -0.8144531 0.5800781 0
vn -0.8144531 0.5800781 0
vn -0.8144531 0.5800781 0
vn -0.8144531 0.5800781 0
vn 0 0 -1
vn 0 0 -1
vn 0 0 -1
vn 0 0 -1
vn -1 0 0
vn -1 0 0
vn -1 0 0
vn -1 0 0
vn -1 0 0
vn -1 0 0
vn -1 0 0
vn -1 0 0
vn -1 0 0
vn -1 0 0
vn -1 0 0
vn -1 0 1.192093E-07
vn -1 0 1.192093E-07
vn -1 0 1.192093E-07
vn -1 0 1.192093E-07
vn -1 0 -1.192093E-07
vn -1 0 -1.192093E-07
vn -1 0 0
vn -1 0 0
vn -1 0 0
vn -1 0 0
vn -1 0 0
vn -1 0 0
vn -1 0 0
vn -1 0 0
vn -1 0 0
vn -1 0 0
vn -1 0 0
vn -1 0 0
vn -1 0 0
vn 0 0 -1
vn 0 0 -1
vn 0 0 -1
vn 0 0 -1
vn -7.748604E-07 0.7070313 0.7070313
vn -7.748604E-07 0.7070313 0.7070313
vn -7.748604E-07 0.7070313 0.7070313
vn -7.748604E-07 0.7070313 0.7070313
vn 0 0.7070313 -0.7070313
vn 0 0.7070313 -0.7070313
vn 0 0.7070313 -0.7070313
vn 0 0.7070313 -0.7070313
vn 0 0 -1
vn 0 0 -1
vn 0 0 -1
vn 0 0 -1
vn 0 0 -1
vn 0 0 -1
vn 0 0 -1
vn 0 0 -1
vn 0 0 1
vn 0 0 1
vn 0 0 1
vn 0 0 1
vn 0 0 1
vn 0 0 1
vn 0 0 1
vn 0 0 1
g IL_ActivePart_0
f 3/3/3 2/2/2 1/1/1
f 4/4/4 3/3/3 1/1/1
f 7/7/7 6/6/6 5/5/5
f 8/8/8 7/7/7 5/5/5
f 11/11/11 10/10/10 9/9/9
f 12/12/12 11/11/11 9/9/9
f 12/12/12 9/9/9 13/13/13
f 14/14/14 12/12/12 13/13/13
f 14/14/14 13/13/13 15/15/15
f 16/16/16 14/14/14 15/15/15
f 19/19/19 18/18/18 17/17/17
f 20/20/20 19/19/19 17/17/17
f 23/23/23 22/22/22 21/21/21
f 24/24/24 23/23/23 21/21/21
f 27/27/27 26/26/26 25/25/25
f 28/28/28 27/27/27 25/25/25
f 31/31/31 30/30/30 29/29/29
f 32/32/32 31/31/31 29/29/29
f 33/33/33 31/31/31 32/32/32
f 34/34/34 33/33/33 32/32/32
f 35/35/35 33/33/33 34/34/34
f 36/36/36 35/35/35 34/34/34
f 39/39/39 38/38/38 37/37/37
f 40/40/40 39/39/39 37/37/37
f 41/41/41 39/39/39 40/40/40
f 42/42/42 41/41/41 40/40/40
f 43/43/43 41/41/41 42/42/42
f 44/44/44 43/43/43 42/42/42
f 47/47/47 46/46/46 45/45/45
f 47/47/47 45/45/45 48/48/48
f 48/48/48 49/49/49 47/47/47
f 47/47/47 49/49/49 50/50/50
f 51/51/51 47/47/47 50/50/50
f 51/51/51 52/52/52 47/47/47
f 52/52/52 53/53/53 47/47/47
f 54/54/54 51/51/51 50/50/50
f 50/50/50 55/55/55 54/54/54
f 54/54/54 56/56/56 51/51/51
f 59/59/59 58/58/58 57/57/57
f 60/60/60 59/59/59 57/57/57
f 63/63/63 62/62/62 61/61/61
f 64/64/64 63/63/63 61/61/61
f 67/67/67 66/66/66 65/65/65
f 68/68/68 67/67/67 65/65/65
f 71/71/71 70/70/70 69/69/69
f 72/72/72 71/71/71 69/69/69
f 75/75/75 74/74/74 73/73/73
f 75/75/75 73/73/73 76/76/76
f 76/76/76 77/77/77 75/75/75
f 76/76/76 73/73/73 78/78/78
f 73/73/73 79/79/79 78/78/78
f 80/80/80 78/78/78 79/79/79
f 79/79/79 81/81/81 80/80/80
f 79/79/79 82/82/82 81/81/81
f 83/83/83 81/81/81 82/82/82
f 80/80/80 81/81/81 83/83/83
f 84/84/84 80/80/80 83/83/83
f 83/83/83 85/85/85 84/84/84
f 84/84/84 85/85/85 86/86/86
f 85/85/85 87/87/87 86/86/86
f 86/86/86 87/87/87 88/88/88
f 87/87/87 89/89/89 88/88/88
f 88/88/88 89/89/89 90/90/90
f 89/89/89 91/91/91 90/90/90
f 90/90/90 91/91/91 92/92/92
f 92/92/92 77/77/77 90/90/90
f 92/92/92 93/93/93 77/77/77
f 94/94/94 93/93/93 92/92/92
f 97/97/97 96/96/96 95/95/95
f 98/98/98 97/97/97 95/95/95
f 98/98/98 95/95/95 99/99/99
f 100/100/100 98/98/98 99/99/99
f 100/100/100 99/99/99 101/101/101
f 102/102/102 100/100/100 101/101/101
f 105/105/105 104/104/104 103/103/103
f 106/106/106 105/105/105 103/103/103
f 109/109/109 108/108/108 107/107/107
f 110/110/110 109/109/109 107/107/107
f 113/113/113 112/112/112 111/111/111
f 114/114/114 113/113/113 111/111/111
f 117/117/117 116/116/116 115/115/115
f 118/118/118 117/117/117 115/115/115
f 115/115/115 116/116/116 119/119/119
f 120/120/120 117/117/117 118/118/118
f 116/116/116 121/121/121 119/119/119
f 122/122/122 120/120/120 118/118/118
f 119/119/119 121/121/121 122/122/122
f 121/121/121 120/120/120 122/122/122
f 125/125/125 124/124/124 123/123/123
f 126/126/126 125/125/125 123/123/123
f 123/123/123 124/124/124 127/127/127
f 128/128/128 125/125/125 126/126/126
f 124/124/124 129/129/129 127/127/127
f 130/130/130 128/128/128 126/126/126
f 127/127/127 129/129/129 130/130/130
f 129/129/129 128/128/128 130/130/130
