g IL_BrokenGlass_Part1_sh_1
v 0.4126536 0.01217377 0.15
v 0.4715563 0.04071259 0.09690264
v 0.2419243 0.3740461 0.09690264
v 0.1942608 0.3291924 0.15
v 0.2419243 0.3740461 -0.09955753
v 0.4715563 0.04071259 -0.09955753
v 0.1982083 0.3329071 -0.15
v 0.417532 0.01453733 -0.15
v 0.3006402 -0.2596204 0.1239297
v 0.2711078 -0.2748733 0.15
v 0.3312565 -0.2438076 0.09690264
v 0.3445991 -0.2167494 0.01000877
v 0.3614231 -0.1826313 -0.09955753
v 0.3461609 -0.181722 -0.1188313
v 0.3214794 -0.1802518 -0.15
v -0.2643188 -0.1769859 0.15
v -0.3417637 0.01217377 0.15
v -0.3937015 0.1390318 0.15
v -0.4715562 0.3291924 0.15
v -0.4409842 0.3740461 0.09690264
v -0.460683 0.345145 0.1311154
v -0.2599216 0.3740461 -0.09955753
v -0.3812564 0.3740461 0.03209579
v -0.2432935 0.3632449 -0.1128014
v -0.1965895 0.3329071 -0.15
v -0.1740388 0.2778264 -0.15
v -0.06624413 0.01453733 -0.15
v 0.04512656 -0.2574859 -0.15
v -0.08374554 -0.3740462 0.15
v -0.1926672 -0.3519953 0.15
v -0.1182882 -0.3633919 0.07435842
v 0.4126536 0.01217377 0.15
v 0.4126536 0.01217377 0.15
v 0.4126536 0.01217377 0.15
v 0.4126536 0.01217377 0.15
v 0.4126536 0.01217377 0.15
v 0.4126536 0.01217377 0.15
v 0.4126536 0.01217377 0.15
v 0.4126536 0.01217377 0.15
v 0.4126536 0.01217377 0.15
v 0.4715563 0.04071259 0.09690264
v 0.4715563 0.04071259 0.09690264
v 0.4715563 0.04071259 0.09690264
v 0.4715563 0.04071259 0.09690264
v 0.4715563 0.04071259 0.09690264
v 0.4715563 0.04071259 0.09690264
v 0.2419243 0.3740461 0.09690264
v 0.2419243 0.3740461 0.09690264
v 0.2419243 0.3740461 0.09690264
v 0.2419243 0.3740461 0.09690264
v 0.2419243 0.3740461 0.09690264
v 0.2419243 0.3740461 0.09690264
v 0.1942608 0.3291924 0.15
v 0.1942608 0.3291924 0.15
v 0.1942608 0.3291924 0.15
v 0.1942608 0.3291924 0.15
v 0.2419243 0.3740461 -0.09955753
v 0.2419243 0.3740461 -0.09955753
v 0.2419243 0.3740461 -0.09955753
v 0.2419243 0.3740461 -0.09955753
v 0.2419243 0.3740461 -0.09955753
v 0.2419243 0.3740461 -0.09955753
v 0.4715563 0.04071259 -0.09955753
v 0.4715563 0.04071259 -0.09955753
v 0.4715563 0.04071259 -0.09955753
v 0.4715563 0.04071259 -0.09955753
v 0.4715563 0.04071259 -0.09955753
v 0.4715563 0.04071259 -0.09955753
v 0.1982083 0.3329071 -0.15
v 0.1982083 0.3329071 -0.15
v 0.1982083 0.3329071 -0.15
v 0.1982083 0.3329071 -0.15
v 0.417532 0.01453733 -0.15
v 0.417532 0.01453733 -0.15
v 0.417532 0.01453733 -0.15
v 0.417532 0.01453733 -0.15
v 0.3006402 -0.2596204 0.1239297
v 0.3006402 -0.2596204 0.1239297
v 0.3006402 -0.2596204 0.1239297
v 0.2711078 -0.2748733 0.15
v 0.2711078 -0.2748733 0.15
v 0.2711078 -0.2748733 0.15
v 0.2711078 -0.2748733 0.15
v 0.2711078 -0.2748733 0.15
v 0.3312565 -0.2438076 0.09690264
v 0.3312565 -0.2438076 0.09690264
v 0.3312565 -0.2438076 0.09690264
v 0.3312565 -0.2438076 0.09690264
v 0.3445991 -0.2167494 0.01000877
v 0.3445991 -0.2167494 0.01000877
v 0.3445991 -0.2167494 0.01000877
v 0.3445991 -0.2167494 0.01000877
v 0.3614231 -0.1826313 -0.09955753
v 0.3614231 -0.1826313 -0.09955753
v 0.3614231 -0.1826313 -0.09955753
v 0.3461609 -0.181722 -0.1188313
v 0.3461609 -0.181722 -0.1188313
v 0.3461609 -0.181722 -0.1188313
v 0.3214794 -0.1802518 -0.15
v 0.3214794 -0.1802518 -0.15
v 0.3214794 -0.1802518 -0.15
v 0.3214794 -0.1802518 -0.15
v 0.3214794 -0.1802518 -0.15
v 0.3214794 -0.1802518 -0.15
v 0.3214794 -0.1802518 -0.15
v 0.3214794 -0.1802518 -0.15
v -0.2643188 -0.1769859 0.15
v -0.2643188 -0.1769859 0.15
v -0.2643188 -0.1769859 0.15
v -0.2643188 -0.1769859 0.15
v -0.2643188 -0.1769859 0.15
v -0.2643188 -0.1769859 0.15
v -0.3417637 0.01217377 0.15
v -0.3417637 0.01217377 0.15
v -0.3417637 0.01217377 0.15
v -0.3417637 0.01217377 0.15
v -0.3937015 0.1390318 0.15
v -0.3937015 0.1390318 0.15
v -0.3937015 0.1390318 0.15
v -0.4715562 0.3291924 0.15
v -0.4715562 0.3291924 0.15
v -0.4715562 0.3291924 0.15
v -0.4715562 0.3291924 0.15
v -0.4409842 0.3740461 0.09690264
v -0.4409842 0.3740461 0.09690264
v -0.4409842 0.3740461 0.09690264
v -0.4409842 0.3740461 0.09690264
v -0.460683 0.345145 0.1311154
v -0.460683 0.345145 0.1311154
v -0.460683 0.345145 0.1311154
v -0.2599216 0.3740461 -0.09955753
v -0.2599216 0.3740461 -0.09955753
v -0.2599216 0.3740461 -0.09955753
v -0.2599216 0.3740461 -0.09955753
v -0.3812564 0.3740461 0.03209579
v -0.3812564 0.3740461 0.03209579
v -0.3812564 0.3740461 0.03209579
v -0.2432935 0.3632449 -0.1128014
v -0.2432935 0.3632449 -0.1128014
v -0.2432935 0.3632449 -0.1128014
v -0.1965895 0.3329071 -0.15
v -0.1965895 0.3329071 -0.15
v -0.1965895 0.3329071 -0.15
v -0.1740388 0.2778264 -0.15
v -0.1740388 0.2778264 -0.15
v -0.1740388 0.2778264 -0.15
v -0.1740388 0.2778264 -0.15
v -0.1740388 0.2778264 -0.15
v -0.1740388 0.2778264 -0.15
v -0.1740388 0.2778264 -0.15
v -0.1740388 0.2778264 -0.15
v -0.1740388 0.2778264 -0.15
v -0.1740388 0.2778264 -0.15
v -0.1740388 0.2778264 -0.15
v -0.06624413 0.01453733 -0.15
v -0.06624413 0.01453733 -0.15
v -0.06624413 0.01453733 -0.15
v -0.06624413 0.01453733 -0.15
v -0.06624413 0.01453733 -0.15
v 0.04512656 -0.2574859 -0.15
v 0.04512656 -0.2574859 -0.15
v 0.04512656 -0.2574859 -0.15
v 0.04512656 -0.2574859 -0.15
v 0.04512656 -0.2574859 -0.15
v 0.04512656 -0.2574859 -0.15
v -0.08374554 -0.3740462 0.15
v -0.08374554 -0.3740462 0.15
v -0.08374554 -0.3740462 0.15
v -0.08374554 -0.3740462 0.15
v -0.1926672 -0.3519953 0.15
v -0.1926672 -0.3519953 0.15
v -0.1926672 -0.3519953 0.15
v -0.1182882 -0.3633919 0.07435842
v -0.1182882 -0.3633919 0.07435842
vt 0.5833333 0.8333333
vt 0.5833333 0.7595869
vt 0.6397493 0.7743363
vt 0.625 0.8333333
vt 0.6943215 0.5560472
vt 0.5833333 0.4867257
vt 0.7083333 0.5
vt 0.5833333 0.4166667
vt 0.5628753 0.7971244
vt 0.5617291 0.8333333
vt 0.5629674 0.7595869
vt 0.5649042 0.6389011
vt 0.5673464 0.4867256
vt 0.5674126 0.4599563
vt 0.568735 0.4166666
vt 0 0
vt 0 0
vt 0 0
vt 0 0
vt 0 0
vt 0 0
vt 0 0
vt 0 0
vt 0 0
vt 0 0
vt 0 0
vt 0 0
vt -0.2098647 -1.519371E-08
vt 0 0
vt 0 0
vt -0.1683573 0.05698714
vt 0.5833333 0.8333333
vt 0.5833333 0.8333333
vt 0.5833333 0.8333333
vt 0.5833333 0.8333333
vt 0 0
vt 0 0
vt 0 0
vt 0 0
vt 0 0
vt 0.5833333 0.7595869
vt 0.5833333 0.7595869
vt 0.5833333 0.7595869
vt 0.5833333 0.7595869
vt 0.5833333 0.7595869
vt 0.5833333 0.7595869
vt 0.6397493 0.7743363
vt 0.6397493 0.7743363
vt 0 0
vt 0 0
vt 0 0
vt 0 0
vt 0 0
vt 0 0
vt 0 0
vt 0 0
vt 0.6943215 0.5560472
vt 0.6943215 0.5560472
vt 0 0
vt 0 0
vt 0 0
vt 0 0
vt 0.5833333 0.4867257
vt 0.5833333 0.4867257
vt 0.5833333 0.4867257
vt 0.5833333 0.4867257
vt 0.5833333 0.4867257
vt 0.5833333 0.4867257
vt 0.7083333 0.5
vt 0 0
vt 0 0
vt 0 0
vt 0.5833333 0.4166667
vt 0 0
vt 0 0
vt 0.5833333 0.4166667
vt 0.5628754 0.7971245
vt -0.2747653 0.06957827
vt -0.2747653 0.06957827
vt -0.2672641 0.07620014
vt -0.2672641 0.07620014
vt 0 0
vt 0 0
vt -0.2672641 0.07620014
vt 0.5629674 0.7595869
vt 0.5629674 0.7595869
vt -0.2825419 0.06271338
vt -0.2825419 0.06271338
vt 0.5649042 0.6389009
vt -0.2859309 0.0406423
vt -0.2859309 0.0406423
vt -0.2859309 0.0406423
vt 0.5673464 0.4867256
vt 0.5673465 0.4867256
vt -0.2902042 0.0128124
vt 0.5674127 0.4599565
vt -0.2863276 0.007916844
vt -0.2863276 0.007916844
vt 0.568735 0.4166666
vt -0.2800585 -1.605122E-08
vt -0.2800585 -1.605122E-08
vt -0.2800585 -1.605122E-08
vt -0.2800585 -1.605122E-08
vt -0.2800585 -1.605122E-08
vt 0.5687351 0.4166666
vt 0.5687351 0.4166666
vt 0 0
vt 0.3680386 0.07620014
vt 0.3680386 0.07620014
vt 0 0
vt 0 0
vt 0.3680386 0.07620014
vt 0 0
vt 0.4160853 0.07620014
vt 0.4160853 0.07620014
vt 0.4160853 0.07620014
vt 0 0
vt 0.4483073 0.07620014
vt 0.4483073 0.07620014
vt 0 0
vt 0 0
vt 0.4966082 0.07620014
vt 0.4966082 0.07620014
vt 0 0
vt 0 0
vt 0.508001 0.06271338
vt 0.508001 0.06271338
vt 0 0
vt 0.5006601 0.07140344
vt 0.5006601 0.07140344
vt 0 0
vt 0 0
vt 0.508001 0.01281239
vt 0.508001 0.01281239
vt 0 0
vt 0.508001 0.0462524
vt 0.508001 0.0462524
vt 0 0
vt 0.5052575 0.009448436
vt 0.5052575 0.009448436
vt 0 0
vt 0 0
vt 0.4975517 -2.174867E-08
vt 0 0
vt 0 0
vt 0.4835612 -2.113713E-08
vt 0.4835612 -2.113713E-08
vt 0.4835612 -2.113713E-08
vt 0.4835612 -2.113713E-08
vt 0.4835612 -2.113713E-08
vt 0.4835612 -2.113713E-08
vt 0.4835612 -2.113713E-08
vt 0.4835612 -2.113713E-08
vt 0.4835612 -2.113713E-08
vt 0.5833334 0.3996629
vt 0.5833334 0.3996629
vt 0.4166856 -1.821391E-08
vt 0.4166856 -1.821391E-08
vt 0.4166856 -1.821391E-08
vt 0.5629467 0.4082921
vt 0.3475916 -1.519371E-08
vt -0.2098647 -1.519371E-08
vt -0.2098647 -1.519371E-08
vt 0.3475916 -1.519371E-08
vt 0.3475916 -1.519371E-08
vt 0 0
vt -0.1771311 0.07620014
vt -0.1771311 0.07620014
vt -0.1771311 0.07620014
vt 0.3235861 0.07620014
vt 0.3235861 0.07620014
vt -0.1494649 0.07620014
vt 0.3206914 0.05698714
vt -0.1683573 0.05698714
vn 0.522437 0.3599045 0.7729996
vn 0.522437 0.3599045 0.7729996
vn 0.522437 0.3599045 0.7729996
vn 0.522437 0.3599045 0.7729996
vn 0.8235049 0.5673093 0
vn 0.8235049 0.5673093 0
vn 0.5333694 0.3674361 -0.7619107
vn 0.5333694 0.3674361 -0.7619107
vn 0.7150171 -0.352582 0.6036857
vn 0.7150171 -0.352582 0.6036857
vn 0.7150171 -0.352582 0.6036857
vn 0.8968854 -0.4422631 0
vn 0.8968854 -0.4422631 0
vn 0.724032 -0.3570274 -0.5901772
vn 0.7240319 -0.3570274 -0.5901772
vn 0 0 1
vn 0 0 1
vn 0 0 1
vn 0 0 1
vn 0 0.7639171 0.6453145
vn 0 0.763917 0.6453145
vn 0 1 0
vn 0 1 0
vn 0 0.7749519 -0.6320202
vn 0 0.7749519 -0.6320202
vn 0 0 -1
vn 0 0 -1
vn 0.2605915 -0.9324286 -0.2503377
vn 0 0 1
vn 0 0 1
vn 0.2605914 -0.9324287 -0.2503375
vn 0.522437 0.3599045 0.7729996
vn 0.7150171 -0.352582 0.6036857
vn 0.7150171 -0.352582 0.6036857
vn 0.7150171 -0.352582 0.6036857
vn 0 0 1
vn 0 0 1
vn 0 0 1
vn 0 0 1
vn 0 0 1
vn 0.8235049 0.5673093 0
vn 0.8235049 0.5673093 0
vn 0.7150171 -0.352582 0.6036857
vn 0.8968854 -0.4422631 0
vn 0.8968854 -0.4422631 0
vn 0.8968854 -0.4422631 0
vn 0.522437 0.3599045 0.7729996
vn 0.8235049 0.5673093 0
vn 0 0.763917 0.6453145
vn 0 1 0
vn 0 1 0
vn 0 1 0
vn 0 0 1
vn 0 0.763917 0.6453145
vn 0 0.763917 0.6453145
vn 0 0.763917 0.6453145
vn 0.8235049 0.5673093 0
vn 0.5333694 0.3674361 -0.7619107
vn 0 1 0
vn 0 0.7749519 -0.6320202
vn 0 0.7749519 -0.6320202
vn 0 0.7749519 -0.6320202
vn 0.5333694 0.3674361 -0.7619107
vn 0.5333694 0.3674361 -0.7619107
vn 0.8968854 -0.4422631 0
vn 0.724032 -0.3570274 -0.5901772
vn 0.724032 -0.3570274 -0.5901772
vn 0.724032 -0.3570274 -0.5901772
vn 0.5333694 0.3674361 -0.7619107
vn 0 0.7749519 -0.6320202
vn 0 0 -1
vn 0 0 -1
vn 0.724032 -0.3570274 -0.5901772
vn 0 0 -1
vn 0 0 -1
vn 0 0 -1
vn 0.7150171 -0.352582 0.6036857
vn 0.2605874 -0.9324295 -0.2503386
vn 0.260596 -0.9324274 -0.2503374
vn 0.2605874 -0.9324295 -0.2503386
vn 0.2605915 -0.9324286 -0.2503377
vn 0 0 1
vn 0 0 1
vn 0.2605913 -0.9324287 -0.2503375
vn 0.7150171 -0.352582 0.6036857
vn 0.8968854 -0.442263 0
vn 0.260596 -0.9324274 -0.2503374
vn 0.2605916 -0.9324287 -0.2503375
vn 0.8968854 -0.4422631 0
vn 0.2605916 -0.9324287 -0.2503375
vn 0.2605938 -0.932428 -0.2503377
vn 0.26059 -0.932429 -0.250338
vn 0.8968854 -0.4422631 0
vn 0.724032 -0.3570274 -0.5901772
vn 0.26059 -0.932429 -0.250338
vn 0.724032 -0.3570274 -0.5901772
vn 0.2605938 -0.932428 -0.2503377
vn 0.26059 -0.932429 -0.250338
vn 0.7240319 -0.3570274 -0.5901772
vn 0.2605874 -0.9324295 -0.2503386
vn 0.260596 -0.9324274 -0.2503374
vn 0.2605916 -0.9324287 -0.2503375
vn 0.2605938 -0.932428 -0.2503377
vn 0.2605915 -0.9324286 -0.2503377
vn 0 0 -1
vn 0 0 -1
vn 0 0 1
vn -0.7041183 -0.2882774 -0.6489327
vn -0.7041184 -0.2882771 -0.6489326
vn 0 0 1
vn 0 0 1
vn -0.7041183 -0.2882769 -0.6489329
vn 0 0 1
vn -0.7041184 -0.2882771 -0.6489326
vn -0.7041184 -0.288277 -0.6489326
vn -0.7041181 -0.2882776 -0.6489329
vn 0 0 1
vn -0.7041181 -0.2882776 -0.6489329
vn -0.7041183 -0.2882771 -0.6489329
vn 0 0 1
vn 0 0.763917 0.6453145
vn -0.7041183 -0.2882771 -0.6489329
vn -0.7041183 -0.2882767 -0.648933
vn 0 0.7639171 0.6453145
vn 0 1 0
vn -0.7041183 -0.288277 -0.6489328
vn -0.7041184 -0.2882718 -0.648935
vn 0 0.763917 0.6453145
vn -0.7041183 -0.2882767 -0.648933
vn -0.7041183 -0.288277 -0.6489328
vn 0 1 0
vn 0 0.7749519 -0.6320202
vn -0.7041186 -0.2882774 -0.6489323
vn -0.7041162 -0.2882728 -0.648937
vn 0 1 0
vn -0.7041184 -0.2882718 -0.648935
vn -0.7041186 -0.2882774 -0.6489323
vn 0 0.7749519 -0.6320202
vn -0.7041162 -0.2882728 -0.648937
vn -0.7041178 -0.2882753 -0.6489342
vn 0 0.7749519 -0.6320202
vn 0 0 -1
vn -0.7041178 -0.2882753 -0.6489342
vn 0 0 -1
vn 0 0 -1
vn -0.7041184 -0.288277 -0.6489326
vn -0.7041181 -0.2882776 -0.6489329
vn -0.7041183 -0.2882771 -0.6489329
vn -0.7041183 -0.2882767 -0.648933
vn -0.7041183 -0.288277 -0.6489328
vn -0.7041184 -0.2882718 -0.648935
vn -0.7041186 -0.2882774 -0.6489323
vn -0.7041162 -0.2882728 -0.648937
vn -0.7041178 -0.2882753 -0.6489342
vn 0 0 -1
vn 0 0 -1
vn -0.7041183 -0.2882774 -0.6489327
vn -0.7041184 -0.2882771 -0.6489326
vn -0.7041184 -0.288277 -0.6489326
vn 0 0 -1
vn -0.7041183 -0.2882774 -0.6489327
vn 0.2605914 -0.9324287 -0.2503375
vn 0.2605913 -0.9324287 -0.2503375
vn -0.7041186 -0.288276 -0.6489329
vn -0.7041183 -0.2882769 -0.6489329
vn 0 0 1
vn 0.2605914 -0.9324287 -0.2503375
vn 0.2605913 -0.9324287 -0.2503375
vn -0.1981987 -0.9790157 -0.04738722
vn -0.7041186 -0.288276 -0.6489329
vn -0.7041183 -0.2882769 -0.6489329
vn -0.1981987 -0.9790157 -0.04738722
vn -0.7041186 -0.288276 -0.6489329
vn -0.1981987 -0.9790157 -0.04738722
g IL_BrokenGlass_Part1_sh_1_0
f 2/2/2 3/3/3 1/1/1
f 47/47/47 4/4/4 32/32/32
f 5/5/5 48/48/48 41/41/41
f 6/6/6 57/57/57 42/42/42
f 7/7/7 58/58/58 63/63/63
f 8/8/8 69/69/69 64/64/64
f 10/10/10 9/9/9 33/33/33
f 11/11/11 43/43/43 34/34/34
f 77/77/77 85/85/85 35/35/35
f 86/86/86 12/12/12 44/44/44
f 13/13/13 65/65/65 45/45/45
f 89/89/89 93/93/93 46/46/46
f 94/94/94 14/14/14 66/66/66
f 15/15/15 73/73/73 67/67/67
f 96/96/96 99/99/99 68/68/68
f 17/17/17 16/16/16 36/36/36
f 18/18/18 113/113/113 37/37/37
f 117/117/117 38/38/38 19/19/19
f 39/39/39 53/53/53 120/120/120
f 21/21/21 54/54/54 20/20/20
f 55/55/55 49/49/49 124/124/124
f 23/23/23 50/50/50 22/22/22
f 51/51/51 59/59/59 131/131/131
f 128/128/128 121/121/121 56/56/56
f 135/135/135 125/125/125 52/52/52
f 24/24/24 132/132/132 60/60/60
f 138/138/138 61/61/61 25/25/25
f 62/62/62 70/70/70 141/141/141
f 26/26/26 142/142/142 71/71/71
f 144/144/144 74/74/74 27/27/27
f 72/72/72 75/75/75 145/145/145
f 82/82/82 40/40/40 107/107/107
f 155/155/155 76/76/76 105/105/105
f 106/106/106 160/160/160 156/156/156
f 29/29/29 110/110/110 30/30/30
f 83/83/83 111/111/111 166/166/166
f 78/78/78 80/80/80 100/100/100
f 87/87/87 79/79/79 101/101/101
f 90/90/90 88/88/88 102/102/102
f 91/91/91 103/103/103 97/97/97
f 98/98/98 95/95/95 92/92/92
f 104/104/104 81/81/81 28/28/28
f 157/157/157 161/161/161 108/108/108
f 158/158/158 109/109/109 114/114/114
f 146/146/146 159/159/159 115/115/115
f 147/147/147 116/116/116 118/118/118
f 148/148/148 119/119/119 122/122/122
f 149/149/149 123/123/123 129/129/129
f 150/150/150 130/130/130 126/126/126
f 151/151/151 127/127/127 136/136/136
f 152/152/152 137/137/137 133/133/133
f 153/153/153 134/134/134 139/139/139
f 140/140/140 143/143/143 154/154/154
f 31/31/31 162/162/162 167/167/167
f 163/163/163 84/84/84 168/168/168
f 170/170/170 164/164/164 173/173/173
f 112/112/112 165/165/165 171/171/171
f 169/169/169 172/172/172 174/174/174
