g IL_BrokenGlass_Full
v -0.6069638 2 0
v -2 2 0.4
v -2 2 0
v -0.6069638 2 0.4
v 0.7245135 2 0
v 0.7245135 2 0.4
v 2 2 0
v 2 2 0.4
v -0.9705477 1.666667 0.4
v -2 2 0.4
v -0.6069638 2 0.4
v -2 1.666667 0.4
v -0.5714254 1.084565 0.4
v -2 1.084565 0.4
v -0.9814826 0.6666666 0.4
v -2 0.6666667 0.4
v -0.7245135 0 0.4
v -2 0 0.4
v -0.9814826 0.6666666 0.4
v -2 1.666667 0.4
v -2 2 0
v -2 2 0.4
v -2 1.666667 0
v -2 1.084565 0.4
v -2 1.084565 0
v -2 0.6666667 0.4
v -2 0.6666666 0
v -2 0 0.4
v -2 0 0
v 0.7928563 0 0
v 2 0 0.4
v 2 0 0
v 0.7928563 0 0.4
v -0.7245135 0 0
v -0.7245135 0 0.4
v -2 0 0
v -2 0 0.4
v 2 1.666667 0
v 2 2 0.4
v 2 2 0
v 2 1.666667 0.4
v 2 1.084565 0
v 2 1.084565 0.4
v 2 0.6666666 0
v 2 0.6666666 0.4
v 2 0 0
v 2 0 0.4
v -2 1.666667 0
v -0.6069638 2 0
v -2 2 0
v -0.9705477 1.666667 0
v -2 1.084565 0
v 0.7245135 2 0
v -0.5714254 1.084565 0
v -2 0.6666666 0
v 0.9541454 1.666667 0
v 2 2 0
v 2 1.666667 0
v 0.6671054 1.084565 0
v 2 1.084565 0
v -0.9814826 0.6666666 0
v -2 0 0
v -0.7245135 0 0
v 1.011554 0.6666666 0
v 2 0.6666666 0
v 0.7928563 0 0
v 2 0 0
v 2 1.666667 0.4
v 0.9541454 1.666667 0.4
v 0.7245135 2 0.4
v 2 2 0.4
v 2 1.084565 0.4
v 0.9541454 1.666667 0.4
v 0.6671054 1.084565 0.4
v 0.9541454 1.666667 0.4
v -0.6069638 2 0.4
v -0.9705477 1.666667 0.4
v -0.5714254 1.084565 0.4
v -0.9705477 1.666667 0.4
v 0.9541454 1.666667 0.4
v 0.7928563 0 0.4
v -0.7245135 0 0.4
v -0.9814826 0.6666666 0.4
v 1.011554 0.6666666 0.4
v 2 0 0.4
v 1.011554 0.6666666 0.4
v 2 0.6666666 0.4
v 0.6671054 1.084565 0.4
v 2 1.084565 0.4
v 1.011554 0.6666666 0.4
v -0.5714254 1.084565 0.4
v -0.9814826 0.6666666 0.4
vt 0.7916666 0.5
vt 0.875 0.75
vt 0.875 0.5
vt 0.7916666 0.75
vt 0.7083333 0.5
vt 0.7083333 0.75
vt 0.625 0.5
vt 0.625 0.75
vt 0.5833333 0.9166666
vt 0.625 1
vt 0.625 0.9166666
vt 0.5833333 1
vt 0.5416666 0.9166666
vt 0.5416666 1
vt 0.4583333 0.9166666
vt 0.4583333 1
vt 0.375 0.9166666
vt 0.375 1
vt 0.4583333 0.9166666
vt 0.5833333 0
vt 0.625 0.25
vt 0.625 0
vt 0.5833333 0.25
vt 0.5416666 0
vt 0.5416666 0.25
vt 0.4583333 0
vt 0.4583333 0.25
vt 0.375 0
vt 0.375 0.25
vt 0.2916667 0.5
vt 0.375 0.75
vt 0.375 0.5
vt 0.2916667 0.75
vt 0.2083333 0.5
vt 0.2083333 0.75
vt 0.125 0.5
vt 0.125 0.75
vt 0.5833333 0.5
vt 0.625 0.75
vt 0.625 0.5
vt 0.5833333 0.75
vt 0.5416666 0.5
vt 0.5416666 0.75
vt 0.4583333 0.5
vt 0.4583333 0.75
vt 0.375 0.5
vt 0.375 0.75
vt 0.5833333 0.25
vt 0.625 0.3333333
vt 0.625 0.25
vt 0.5833333 0.3333333
vt 0.5416666 0.25
vt 0.625 0.4166667
vt 0.5416666 0.3333333
vt 0.4583333 0.25
vt 0.5833333 0.4166667
vt 0.625 0.5
vt 0.5833333 0.5
vt 0.5416666 0.4166667
vt 0.5416666 0.5
vt 0.4583333 0.3333333
vt 0.375 0.25
vt 0.375 0.3333333
vt 0.4583333 0.4166667
vt 0.4583333 0.5
vt 0.375 0.4166667
vt 0.375 0.5
vt 0.5833333 0.75
vt 0.5833333 0.8333333
vt 0.625 0.8333333
vt 0.625 0.75
vt 0.5416666 0.75
vt 0.5833333 0.8333333
vt 0.5416666 0.8333333
vt 0.5833333 0.8333333
vt 0.625 0.9166666
vt 0.5833333 0.9166666
vt 0.5416666 0.9166666
vt 0.5833333 0.9166666
vt 0.5833333 0.8333333
vt 0.375 0.8333333
vt 0.375 0.9166666
vt 0.4583333 0.9166666
vt 0.4583333 0.8333333
vt 0.375 0.75
vt 0.4583333 0.8333333
vt 0.4583333 0.75
vt 0.5416666 0.8333333
vt 0.5416666 0.75
vt 0.4583333 0.8333333
vt 0.5416666 0.9166666
vt 0.4583333 0.9166666
vn 0 1 0
vn 0 1 0
vn 0 1 0
vn 0 1 0
vn 0 1 0
vn 0 1 0
vn 0 1 0
vn 0 1 0
vn 0 0 1
vn 0 0 1
vn 0 0 1
vn 0 0 1
vn 0 0 1
vn 0 0 1
vn 0 0 1
vn 0 0 1
vn 0 0 1
vn 0 0 1
vn 0 0 1
vn -1 0 0
vn -1 0 0
vn -1 0 0
vn -1 0 0
vn -1 0 0
vn -1 0 0
vn -1 0 0
vn -1 0 0
vn -1 0 0
vn -1 0 0
vn 0 -1 0
vn 0 -1 0
vn 0 -1 0
vn 0 -1 0
vn 0 -1 0
vn 0 -1 0
vn 0 -1 0
vn 0 -1 0
vn 1 0 0
vn 1 0 0
vn 1 0 0
vn 1 0 0
vn 1 0 0
vn 1 0 0
vn 1 0 0
vn 1 0 0
vn 1 0 0
vn 1 0 0
vn 0 0 -1
vn 0 0 -1
vn 0 0 -1
vn 0 0 -1
vn 0 0 -1
vn 0 0 -1
vn 0 0 -1
vn 0 0 -1
vn 0 0 -1
vn 0 0 -1
vn 0 0 -1
vn 0 0 -1
vn 0 0 -1
vn 0 0 -1
vn 0 0 -1
vn 0 0 -1
vn 0 0 -1
vn 0 0 -1
vn 0 0 -1
vn 0 0 -1
vn 0 0 1
vn 0 0 1
vn 0 0 1
vn 0 0 1
vn 0 0 1
vn 0 0 1
vn 0 0 1
vn 0 0 1
vn 0 0 1
vn 0 0 1
vn 0 0 1
vn 0 0 1
vn 0 0 1
vn 0 0 1
vn 0 0 1
vn 0 0 1
vn 0 0 1
vn 0 0 1
vn 0 0 1
vn 0 0 1
vn 0 0 1
vn 0 0 1
vn 0 0 1
vn 0 0 1
vn 0 0 1
g IL_BrokenGlass_Full_0
f 3/3/3 2/2/2 1/1/1
f 2/2/2 4/4/4 1/1/1
f 1/1/1 4/4/4 5/5/5
f 4/4/4 6/6/6 5/5/5
f 5/5/5 6/6/6 7/7/7
f 6/6/6 8/8/8 7/7/7
f 11/11/11 10/10/10 9/9/9
f 10/10/10 12/12/12 9/9/9
f 9/9/9 12/12/12 13/13/13
f 12/12/12 14/14/14 13/13/13
f 13/13/13 14/14/14 15/15/15
f 14/14/14 16/16/16 15/15/15
f 16/16/16 18/18/18 17/17/17
f 19/19/19 16/16/16 17/17/17
f 22/22/22 21/21/21 20/20/20
f 21/21/21 23/23/23 20/20/20
f 20/20/20 23/23/23 24/24/24
f 23/23/23 25/25/25 24/24/24
f 24/24/24 25/25/25 26/26/26
f 25/25/25 27/27/27 26/26/26
f 26/26/26 27/27/27 28/28/28
f 27/27/27 29/29/29 28/28/28
f 32/32/32 31/31/31 30/30/30
f 31/31/31 33/33/33 30/30/30
f 30/30/30 33/33/33 34/34/34
f 33/33/33 35/35/35 34/34/34
f 34/34/34 35/35/35 36/36/36
f 35/35/35 37/37/37 36/36/36
f 40/40/40 39/39/39 38/38/38
f 39/39/39 41/41/41 38/38/38
f 38/38/38 41/41/41 42/42/42
f 41/41/41 43/43/43 42/42/42
f 42/42/42 43/43/43 44/44/44
f 43/43/43 45/45/45 44/44/44
f 44/44/44 45/45/45 46/46/46
f 45/45/45 47/47/47 46/46/46
f 50/50/50 49/49/49 48/48/48
f 49/49/49 51/51/51 48/48/48
f 48/48/48 51/51/51 52/52/52
f 49/49/49 53/53/53 51/51/51
f 51/51/51 54/54/54 52/52/52
f 52/52/52 54/54/54 55/55/55
f 53/53/53 56/56/56 51/51/51
f 51/51/51 56/56/56 54/54/54
f 53/53/53 57/57/57 56/56/56
f 57/57/57 58/58/58 56/56/56
f 56/56/56 58/58/58 59/59/59
f 56/56/56 59/59/59 54/54/54
f 58/58/58 60/60/60 59/59/59
f 54/54/54 61/61/61 55/55/55
f 54/54/54 59/59/59 61/61/61
f 55/55/55 61/61/61 62/62/62
f 61/61/61 63/63/63 62/62/62
f 59/59/59 60/60/60 64/64/64
f 59/59/59 64/64/64 61/61/61
f 61/61/61 64/64/64 63/63/63
f 60/60/60 65/65/65 64/64/64
f 64/64/64 66/66/66 63/63/63
f 64/64/64 65/65/65 66/66/66
f 65/65/65 67/67/67 66/66/66
f 70/70/70 69/69/69 68/68/68
f 71/71/71 70/70/70 68/68/68
f 68/68/68 73/73/73 72/72/72
f 73/73/73 74/74/74 72/72/72
f 70/70/70 76/76/76 75/75/75
f 76/76/76 77/77/77 75/75/75
f 79/79/79 78/78/78 74/74/74
f 80/80/80 79/79/79 74/74/74
f 83/83/83 82/82/82 81/81/81
f 84/84/84 83/83/83 81/81/81
f 86/86/86 81/81/81 85/85/85
f 87/87/87 86/86/86 85/85/85
f 88/88/88 86/86/86 87/87/87
f 89/89/89 88/88/88 87/87/87
f 88/88/88 91/91/91 90/90/90
f 91/91/91 92/92/92 90/90/90
