g IL_CleaningWheelBarrow_sh_4
v 0.04018627 -0.06960464 -0.03334051
v 0.08037254 1.490116E-08 -0.03334051
v 0.04018629 0.06960465 -0.03334051
v 0.04018627 -0.06960464 0.02198383
v 0.08037254 1.490116E-08 0.02198383
v -0.04018626 0.06960465 -0.03334051
v -0.04018626 -0.06960464 0.02198383
v 0.04018629 0.06960465 0.02198383
v -0.04018626 -0.06960464 -0.03334051
v -0.01467052 -0.02541009 0.02198383
v 0.01467057 -0.02541009 0.02198383
v 0.02934107 1.490116E-08 0.02198383
v -0.04018626 0.06960465 0.02198383
v -0.08037254 1.490116E-08 -0.03334053
v -0.08037254 1.490116E-08 0.02198383
v -0.02934103 1.490116E-08 0.02198383
v 0.01467055 0.0254101 0.02198383
v -0.01467052 -0.02541009 0.03334051
v -0.02934103 1.490116E-08 0.03334051
v 0.01467057 -0.02541009 0.03334051
v 0.02934107 1.490116E-08 0.03334051
v -0.01467052 0.0254101 0.02198383
v -0.01467052 0.0254101 0.03334051
v 0.01467055 0.0254101 0.03334051
v 0.04018627 -0.06960464 -0.03334051
v 0.04018627 -0.06960464 -0.03334051
v 0.04018627 -0.06960464 -0.03334051
v 0.04018627 -0.06960464 -0.03334051
v 0.04018627 -0.06960464 -0.03334051
v 0.08037254 1.490116E-08 -0.03334051
v 0.08037254 1.490116E-08 -0.03334051
v 0.08037254 1.490116E-08 -0.03334051
v 0.04018629 0.06960465 -0.03334051
v 0.04018629 0.06960465 -0.03334051
v 0.04018629 0.06960465 -0.03334051
v 0.04018629 0.06960465 -0.03334051
v 0.04018627 -0.06960464 0.02198383
v 0.04018627 -0.06960464 0.02198383
v 0.04018627 -0.06960464 0.02198383
v 0.04018627 -0.06960464 0.02198383
v 0.04018627 -0.06960464 0.02198383
v 0.08037254 1.490116E-08 0.02198383
v 0.08037254 1.490116E-08 0.02198383
v 0.08037254 1.490116E-08 0.02198383
v 0.08037254 1.490116E-08 0.02198383
v 0.08037254 1.490116E-08 0.02198383
v -0.04018626 0.06960465 -0.03334051
v -0.04018626 0.06960465 -0.03334051
v -0.04018626 0.06960465 -0.03334051
v -0.04018626 0.06960465 -0.03334051
v -0.04018626 0.06960465 -0.03334051
v -0.04018626 -0.06960464 0.02198383
v -0.04018626 -0.06960464 0.02198383
v -0.04018626 -0.06960464 0.02198383
v -0.04018626 -0.06960464 0.02198383
v -0.04018626 -0.06960464 0.02198383
v 0.04018629 0.06960465 0.02198383
v 0.04018629 0.06960465 0.02198383
v 0.04018629 0.06960465 0.02198383
v 0.04018629 0.06960465 0.02198383
v 0.04018629 0.06960465 0.02198383
v -0.04018626 -0.06960464 -0.03334051
v -0.04018626 -0.06960464 -0.03334051
v -0.04018626 -0.06960464 -0.03334051
v -0.04018626 -0.06960464 -0.03334051
v -0.01467052 -0.02541009 0.02198383
v -0.01467052 -0.02541009 0.02198383
v -0.01467052 -0.02541009 0.02198383
v -0.01467052 -0.02541009 0.02198383
v -0.01467052 -0.02541009 0.02198383
v 0.01467057 -0.02541009 0.02198383
v 0.01467057 -0.02541009 0.02198383
v 0.01467057 -0.02541009 0.02198383
v 0.01467057 -0.02541009 0.02198383
v 0.01467057 -0.02541009 0.02198383
v 0.02934107 1.490116E-08 0.02198383
v 0.02934107 1.490116E-08 0.02198383
v 0.02934107 1.490116E-08 0.02198383
v 0.02934107 1.490116E-08 0.02198383
v 0.02934107 1.490116E-08 0.02198383
v -0.04018626 0.06960465 0.02198383
v -0.04018626 0.06960465 0.02198383
v -0.04018626 0.06960465 0.02198383
v -0.04018626 0.06960465 0.02198383
v -0.04018626 0.06960465 0.02198383
v -0.08037254 1.490116E-08 -0.03334053
v -0.08037254 1.490116E-08 -0.03334053
v -0.08037254 1.490116E-08 -0.03334053
v -0.08037254 1.490116E-08 0.02198383
v -0.08037254 1.490116E-08 0.02198383
v -0.08037254 1.490116E-08 0.02198383
v -0.08037254 1.490116E-08 0.02198383
v -0.08037254 1.490116E-08 0.02198383
v -0.02934103 1.490116E-08 0.02198383
v -0.02934103 1.490116E-08 0.02198383
v -0.02934103 1.490116E-08 0.02198383
v -0.02934103 1.490116E-08 0.02198383
v -0.02934103 1.490116E-08 0.02198383
v 0.01467055 0.0254101 0.02198383
v 0.01467055 0.0254101 0.02198383
v 0.01467055 0.0254101 0.02198383
v 0.01467055 0.0254101 0.02198383
v 0.01467055 0.0254101 0.02198383
v -0.01467052 -0.02541009 0.03334051
v -0.01467052 -0.02541009 0.03334051
v -0.01467052 -0.02541009 0.03334051
v -0.01467052 -0.02541009 0.03334051
v -0.02934103 1.490116E-08 0.03334051
v -0.02934103 1.490116E-08 0.03334051
v -0.02934103 1.490116E-08 0.03334051
v 0.01467057 -0.02541009 0.03334051
v 0.01467057 -0.02541009 0.03334051
v 0.01467057 -0.02541009 0.03334051
v 0.01467057 -0.02541009 0.03334051
v 0.01467057 -0.02541009 0.03334051
v 0.02934107 1.490116E-08 0.03334051
v 0.02934107 1.490116E-08 0.03334051
v 0.02934107 1.490116E-08 0.03334051
v -0.01467052 0.0254101 0.02198383
v -0.01467052 0.0254101 0.02198383
v -0.01467052 0.0254101 0.02198383
v -0.01467052 0.0254101 0.02198383
v -0.01467052 0.0254101 0.02198383
v -0.01467052 0.0254101 0.03334051
v -0.01467052 0.0254101 0.03334051
v -0.01467052 0.0254101 0.03334051
v -0.01467052 0.0254101 0.03334051
v -0.01467052 0.0254101 0.03334051
v 0.01467055 0.0254101 0.03334051
v 0.01467055 0.0254101 0.03334051
v 0.01467055 0.0254101 0.03334051
v 0.01467055 0.0254101 0.03334051
vt 0.4133707 0.8096377
vt 0.4140869 0.8220412
vt 0.4133707 0.8344448
vt 0.4133707 0.8096377
vt 0.4140869 0.8220412
vt 0.4119385 0.8344448
vt 0.4119385 0.8096377
vt 0.4133707 0.8344448
vt 0.4119385 0.8096377
vt 0.4123932 0.8175132
vt 0.4129161 0.8175132
vt 0.4131775 0.8220412
vt 0.4119385 0.8344448
vt 0.4112224 0.8220412
vt 0.4112224 0.8220412
vt 0.4121317 0.8220412
vt 0.4129161 0.8265693
vt 0.2321829 0.8186151
vt 0.2319214 0.8553704
vt 0.2327058 0.8186151
vt 0.2329672 0.8553704
vt 0.4123932 0.8265693
vt 0.2321829 0.8921257
vt 0.2327058 0.8921257
vt 0.4133707 0.8096377
vt 0.4133707 0.8096377
vt 0.4133707 0.8096377
vt 0.4133707 0.8096377
vt 0.4133707 0.8096377
vt 0.4140869 0.8220412
vt 0.4140869 0.8220412
vt 0.4140869 0.8220412
vt 0.4133707 0.8344448
vt 0.4133707 0.8344448
vt 0.4133707 0.8344448
vt 0.4133707 0.8344448
vt 0.4133707 0.8096377
vt 0.4133707 0.8096377
vt 0.4133707 0.8096377
vt 0.4133707 0.8096377
vt 0.4133707 0.8096377
vt 0.4140869 0.8220412
vt 0.4140869 0.8220412
vt 0.4140869 0.8220412
vt 0.4140869 0.8220412
vt 0.4140869 0.8220412
vt 0.4119385 0.8344448
vt 0.4119385 0.8344448
vt 0.4119385 0.8344448
vt 0.4119385 0.8344448
vt 0.4119385 0.8344448
vt 0.4119385 0.8096377
vt 0.4119385 0.8096377
vt 0.4119385 0.8096377
vt 0.4119385 0.8096377
vt 0.4119385 0.8096377
vt 0.4133707 0.8344448
vt 0.4133707 0.8344448
vt 0.4133707 0.8344448
vt 0.4133707 0.8344448
vt 0.4133707 0.8344448
vt 0.4119385 0.8096377
vt 0.4119385 0.8096377
vt 0.4119385 0.8096377
vt 0.4119385 0.8096377
vt 0.4123932 0.8175132
vt 0.4123932 0.8175132
vt 0.2321829 0.8186151
vt 0.2321829 0.8186151
vt 0.2321829 0.8186151
vt 0.4129161 0.8175132
vt 0.4129161 0.8175132
vt 0.2327058 0.8186151
vt 0.2327058 0.8186151
vt 0.2327058 0.8186151
vt 0.4131775 0.8220412
vt 0.4131775 0.8220412
vt 0.2329672 0.8553704
vt 0.2329672 0.8553704
vt 0.2329672 0.8553704
vt 0.4119385 0.8344448
vt 0.4119385 0.8344448
vt 0.4119385 0.8344448
vt 0.4119385 0.8344448
vt 0.4119385 0.8344448
vt 0.4112224 0.8220412
vt 0.4112224 0.8220412
vt 0.4112224 0.8220412
vt 0.4112224 0.8220412
vt 0.4112224 0.8220412
vt 0.4112224 0.8220412
vt 0.4112224 0.8220412
vt 0.4112224 0.8220412
vt 0.4121317 0.8220412
vt 0.2319214 0.8553704
vt 0.4121317 0.8220412
vt 0.2319214 0.8553704
vt 0.2319214 0.8553704
vt 0.4129161 0.8265693
vt 0.2327058 0.8921257
vt 0.4129161 0.8265693
vt 0.2327058 0.8921257
vt 0.2327058 0.8921257
vt 0.2321829 0.8186151
vt 0.2321829 0.8186151
vt 0.2321829 0.8186151
vt 0.2321829 0.8186151
vt 0.2319214 0.8553704
vt 0.2319214 0.8553704
vt 0.2319214 0.8553704
vt 0.2327058 0.8186151
vt 0.2327058 0.8186151
vt 0.2327058 0.8186151
vt 0.2327058 0.8186151
vt 0.2327058 0.8186151
vt 0.2329672 0.8553704
vt 0.2329672 0.8553704
vt 0.2329672 0.8553704
vt 0.4123932 0.8265693
vt 0.2321829 0.8921257
vt 0.4123932 0.8265693
vt 0.2321829 0.8921257
vt 0.2321829 0.8921257
vt 0.2321829 0.8921257
vt 0.2321829 0.8921257
vt 0.2321829 0.8921257
vt 0.2321829 0.8921257
vt 0.2321829 0.8921257
vt 0.2327058 0.8921257
vt 0.2327058 0.8921257
vt 0.2327058 0.8921257
vt 0.2327058 0.8921257
vn 0 0 -1
vn 0 0 -1
vn 0 0 -1
vn 0.4999999 -0.8660254 -1.031032E-07
vn 1 0 0
vn 0 0 -1
vn -0.4999999 -0.8660255 0
vn 0.5 0.8660253 0
vn 0 0 -1
vn 0 0 1
vn 0 0 1
vn 0 0 1
vn -0.4999999 0.8660255 0
vn 0 0 -1
vn -0.8660253 -0.5000002 0
vn 0 1.92075E-07 1
vn 0 -2.881125E-07 1
vn -0.4999995 -0.8660257 0
vn -0.8660248 -0.500001 0
vn 0.8660254 -0.4999999 0
vn 1 0 0
vn 0 -1.920749E-07 1
vn -0.4999995 0.8660257 0
vn 0.4999999 0.8660254 0
vn 0.4999999 -0.8660254 -1.031032E-07
vn 0 0 -1
vn 0.4999999 -0.8660254 -1.031032E-07
vn 0 0 -1
vn 0.4999999 -0.8660254 -1.031032E-07
vn 1 0 0
vn 1 0 0
vn 1 0 0
vn 0.5 0.8660253 0
vn 0 0 -1
vn 0.5 0.8660253 0
vn 0.5 0.8660253 0
vn 0.4999999 -0.8660254 -1.031032E-07
vn 0.4999999 -0.8660254 -1.031032E-07
vn 0 0 1
vn 0 0 1
vn 0 0 1
vn 1 0 0
vn 1 0 0
vn 0 0 1
vn 0 0 1
vn 0 0 1
vn -0.4999999 0.8660255 0
vn 0 0 -1
vn -0.4999999 0.8660255 0
vn 0 0 -1
vn -0.4999999 0.8660255 0
vn -0.4999999 -0.8660255 0
vn 0 0 1
vn -0.4999999 -0.8660255 0
vn 0 0 1
vn 0 0 1
vn 0.5 0.8660253 0
vn 0 -2.881124E-07 1
vn 0.5 0.8660253 0
vn 0 -2.881124E-07 1
vn 0 -2.881124E-07 1
vn -0.4999999 -0.8660255 0
vn 0 0 -1
vn -0.4999999 -0.8660255 0
vn -0.4999999 -0.8660255 0
vn 0 0 1
vn 0 0 1
vn -0.4999995 -0.8660257 0
vn -0.4999995 -0.8660257 0
vn -0.4999995 -0.8660257 0
vn 0 0 1
vn 0 0 1
vn 0 -1 0
vn 0.8660254 -0.4999999 0
vn 0 -1 0
vn 0 0 1
vn 0 0 1
vn 1 0 0
vn 1 0 0
vn 1 0 0
vn 0 -1.920749E-07 1
vn -0.4999999 0.8660255 0
vn 0 -1.920749E-07 1
vn -0.4999999 0.8660255 0
vn 0 -1.920749E-07 1
vn -0.8660253 0.5000002 0
vn -0.8660253 -0.5000002 0
vn -0.8660253 0.5000002 0
vn -0.8660253 -0.5000002 0
vn 0 1.920751E-07 1
vn -0.8660253 0.5000002 0
vn 0 1.920751E-07 1
vn 0 1.920751E-07 1
vn 0 1.92075E-07 1
vn -0.8660248 -0.500001 0
vn 0 1.92075E-07 1
vn -0.8660248 0.5000011 0
vn -0.8660248 0.5000011 0
vn 0 -2.881125E-07 1
vn 0.4999999 0.8660254 0
vn 0 -2.881125E-07 1
vn 0.4999999 0.8660254 0
vn 0.4999999 0.8660254 0
vn -0.4999995 -0.8660257 0
vn -0.4999995 -0.8660257 0
vn 0 2.081933E-07 1
vn 0 2.081933E-07 1
vn -0.8660248 -0.500001 0
vn -0.8660248 0.5000011 0
vn 0 2.081933E-07 1
vn 0 -1 0
vn 0.8660254 -0.4999999 0
vn 0 2.081933E-07 1
vn 0 2.081933E-07 1
vn 0 2.081933E-07 1
vn 1 0 0
vn 1 0 0
vn 0 2.081933E-07 1
vn 0 -1.920749E-07 1
vn -0.4999995 0.8660257 0
vn 0 -1.920749E-07 1
vn -0.4999995 0.8660257 0
vn -0.4999995 0.8660257 0
vn -0.4999995 0.8660257 0
vn 0 2.081933E-07 1
vn 0 2.081933E-07 1
vn -0.4999995 0.8660257 0
vn 0 2.081933E-07 1
vn 0.4999999 0.8660254 0
vn 0 2.081933E-07 1
vn 0.4999999 0.8660254 0
vn 0 2.081933E-07 1
g IL_CleaningWheelBarrow_sh_4_0
f 3/3/3 2/2/2 1/1/1
f 4/4/4 25/25/25 30/30/30
f 5/5/5 31/31/31 33/33/33
f 26/26/26 6/6/6 34/34/34
f 37/37/37 7/7/7 27/27/27
f 42/42/42 38/38/38 32/32/32
f 8/8/8 43/43/43 35/35/35
f 57/57/57 36/36/36 47/47/47
f 28/28/28 9/9/9 48/48/48
f 52/52/52 62/62/62 29/29/29
f 53/53/53 39/39/39 10/10/10
f 40/40/40 44/44/44 11/11/11
f 45/45/45 58/58/58 12/12/12
f 13/13/13 59/59/59 49/49/49
f 63/63/63 14/14/14 50/50/50
f 54/54/54 15/15/15 64/64/64
f 41/41/41 71/71/71 66/66/66
f 55/55/55 67/67/67 16/16/16
f 46/46/46 76/76/76 72/72/72
f 60/60/60 17/17/17 77/77/77
f 61/61/61 81/81/81 99/99/99
f 82/82/82 51/51/51 86/86/86
f 89/89/89 87/87/87 65/65/65
f 90/90/90 56/56/56 94/94/94
f 18/18/18 68/68/68 73/73/73
f 19/19/19 95/95/95 69/69/69
f 20/20/20 74/74/74 78/78/78
f 21/21/21 79/79/79 100/100/100
f 83/83/83 22/22/22 101/101/101
f 91/91/91 84/84/84 88/88/88
f 92/92/92 96/96/96 119/119/119
f 104/104/104 108/108/108 70/70/70
f 111/111/111 105/105/105 75/75/75
f 109/109/109 23/23/23 97/97/97
f 116/116/116 112/112/112 80/80/80
f 24/24/24 117/117/117 102/102/102
f 129/129/129 103/103/103 120/120/120
f 85/85/85 93/93/93 121/121/121
f 124/124/124 122/122/122 98/98/98
f 125/125/125 110/110/110 106/106/106
f 126/126/126 107/107/107 113/113/113
f 114/114/114 118/118/118 130/130/130
f 127/127/127 131/131/131 123/123/123
f 132/132/132 128/128/128 115/115/115
