g IL_CleaningWheelBarrow_sh_1
v -0.06286336 0.2219758 -0.2695396
v -0.06286336 -0.2219758 -0.2695396
v -0.06286336 0.2219758 0.2695396
v 0.267752 -0.2219758 0.2695396
v 0.3323107 0.2219758 -0.2695396
v -0.131748 0.2219758 -0.2006549
v -0.131748 0.2219758 0.2006549
v 0.267752 -0.2219758 -0.2695396
v 0.001416154 0.2219758 -0.20526
v -0.131748 0.1695884 0.2006549
v 0.3323107 0.2219758 0.2695396
v 0.001416154 0.2219758 0.20526
v 0.2680312 0.2219758 -0.20526
v -0.131748 0.1695884 -0.2006549
v 0.2680312 0.2219758 0.20526
v 0.001416154 0.1190215 0.20526
v 0.001416154 0.1190215 -0.20526
v 0.2680312 0.1190215 0.20526
v 0.2680312 0.1190215 -0.20526
v -0.224872 0.004429996 -0.2695396
v -0.3323107 0.2219758 -0.2695396
v -0.06286336 -0.2219758 -0.09687072
v -0.1130577 -0.2219758 -0.2695396
v -0.3167307 0.2219758 -0.2159443
v -0.1756019 0.2219758 0.2695396
v -0.06286336 -0.006301314 0.2695396
v 0.0436511 -0.2219758 0.2695396
v -0.3122861 0.2219758 -0.2006549
v -0.1919329 0.2219758 0.2133609
v -0.1956264 0.2219758 0.2006549
v -0.2957972 0.1885883 -0.2006549
v -0.174001 0.1781878 0.2006549
v -0.169754 0.1695884 0.2006549
v -0.2864137 0.1695884 -0.2006549
v -0.238178 0.1695884 -0.03472394
v -0.06286336 0.2219758 -0.2695396
v -0.06286336 0.2219758 -0.2695396
v -0.06286336 0.2219758 -0.2695396
v -0.06286336 0.2219758 -0.2695396
v -0.06286336 0.2219758 -0.2695396
v -0.06286336 0.2219758 -0.2695396
v -0.06286336 0.2219758 -0.2695396
v -0.06286336 0.2219758 -0.2695396
v -0.06286336 0.2219758 -0.2695396
v -0.06286336 -0.2219758 -0.2695396
v -0.06286336 -0.2219758 -0.2695396
v -0.06286336 -0.2219758 -0.2695396
v -0.06286336 -0.2219758 -0.2695396
v -0.06286336 -0.2219758 -0.2695396
v -0.06286336 0.2219758 0.2695396
v -0.06286336 0.2219758 0.2695396
v -0.06286336 0.2219758 0.2695396
v -0.06286336 0.2219758 0.2695396
v -0.06286336 0.2219758 0.2695396
v -0.06286336 0.2219758 0.2695396
v -0.06286336 0.2219758 0.2695396
v -0.06286336 0.2219758 0.2695396
v -0.06286336 0.2219758 0.2695396
v 0.267752 -0.2219758 0.2695396
v 0.267752 -0.2219758 0.2695396
v 0.267752 -0.2219758 0.2695396
v 0.267752 -0.2219758 0.2695396
v 0.267752 -0.2219758 0.2695396
v 0.3323107 0.2219758 -0.2695396
v 0.3323107 0.2219758 -0.2695396
v 0.3323107 0.2219758 -0.2695396
v 0.3323107 0.2219758 -0.2695396
v 0.3323107 0.2219758 -0.2695396
v -0.131748 0.2219758 -0.2006549
v -0.131748 0.2219758 -0.2006549
v -0.131748 0.2219758 -0.2006549
v -0.131748 0.2219758 -0.2006549
v -0.131748 0.2219758 -0.2006549
v -0.131748 0.2219758 -0.2006549
v -0.131748 0.2219758 -0.2006549
v -0.131748 0.2219758 0.2006549
v -0.131748 0.2219758 0.2006549
v -0.131748 0.2219758 0.2006549
v -0.131748 0.2219758 0.2006549
v -0.131748 0.2219758 0.2006549
v -0.131748 0.2219758 0.2006549
v -0.131748 0.2219758 0.2006549
v 0.267752 -0.2219758 -0.2695396
v 0.267752 -0.2219758 -0.2695396
v 0.267752 -0.2219758 -0.2695396
v 0.001416154 0.2219758 -0.20526
v 0.001416154 0.2219758 -0.20526
v 0.001416154 0.2219758 -0.20526
v 0.001416154 0.2219758 -0.20526
v 0.001416154 0.2219758 -0.20526
v -0.131748 0.1695884 0.2006549
v -0.131748 0.1695884 0.2006549
v -0.131748 0.1695884 0.2006549
v 0.3323107 0.2219758 0.2695396
v 0.3323107 0.2219758 0.2695396
v 0.3323107 0.2219758 0.2695396
v 0.3323107 0.2219758 0.2695396
v 0.3323107 0.2219758 0.2695396
v 0.001416154 0.2219758 0.20526
v 0.001416154 0.2219758 0.20526
v 0.001416154 0.2219758 0.20526
v 0.001416154 0.2219758 0.20526
v 0.001416154 0.2219758 0.20526
v 0.2680312 0.2219758 -0.20526
v 0.2680312 0.2219758 -0.20526
v 0.2680312 0.2219758 -0.20526
v 0.2680312 0.2219758 -0.20526
v 0.2680312 0.2219758 -0.20526
v -0.131748 0.1695884 -0.2006549
v -0.131748 0.1695884 -0.2006549
v -0.131748 0.1695884 -0.2006549
v -0.131748 0.1695884 -0.2006549
v -0.131748 0.1695884 -0.2006549
v 0.2680312 0.2219758 0.20526
v 0.2680312 0.2219758 0.20526
v 0.2680312 0.2219758 0.20526
v 0.2680312 0.2219758 0.20526
v 0.2680312 0.2219758 0.20526
v 0.001416154 0.1190215 0.20526
v 0.001416154 0.1190215 0.20526
v 0.001416154 0.1190215 0.20526
v 0.001416154 0.1190215 0.20526
v 0.001416154 0.1190215 -0.20526
v 0.001416154 0.1190215 -0.20526
v 0.001416154 0.1190215 -0.20526
v 0.2680312 0.1190215 0.20526
v 0.2680312 0.1190215 0.20526
v 0.2680312 0.1190215 0.20526
v 0.2680312 0.1190215 -0.20526
v 0.2680312 0.1190215 -0.20526
v 0.2680312 0.1190215 -0.20526
v 0.2680312 0.1190215 -0.20526
v -0.224872 0.004429996 -0.2695396
v -0.224872 0.004429996 -0.2695396
v -0.224872 0.004429996 -0.2695396
v -0.224872 0.004429996 -0.2695396
v -0.224872 0.004429996 -0.2695396
v -0.224872 0.004429996 -0.2695396
v -0.224872 0.004429996 -0.2695396
v -0.224872 0.004429996 -0.2695396
v -0.3323107 0.2219758 -0.2695396
v -0.3323107 0.2219758 -0.2695396
v -0.06286336 -0.2219758 -0.09687072
v -0.06286336 -0.2219758 -0.09687072
v -0.06286336 -0.2219758 -0.09687072
v -0.06286336 -0.2219758 -0.09687072
v -0.06286336 -0.2219758 -0.09687072
v -0.1130577 -0.2219758 -0.2695396
v -0.1130577 -0.2219758 -0.2695396
v -0.1130577 -0.2219758 -0.2695396
v -0.3167307 0.2219758 -0.2159443
v -0.3167307 0.2219758 -0.2159443
v -0.3167307 0.2219758 -0.2159443
v -0.3167307 0.2219758 -0.2159443
v -0.1756019 0.2219758 0.2695396
v -0.1756019 0.2219758 0.2695396
v -0.1756019 0.2219758 0.2695396
v -0.1756019 0.2219758 0.2695396
v -0.06286336 -0.006301314 0.2695396
v -0.06286336 -0.006301314 0.2695396
v -0.06286336 -0.006301314 0.2695396
v -0.06286336 -0.006301314 0.2695396
v -0.06286336 -0.006301314 0.2695396
v -0.06286336 -0.006301314 0.2695396
v -0.06286336 -0.006301314 0.2695396
v 0.0436511 -0.2219758 0.2695396
v 0.0436511 -0.2219758 0.2695396
v 0.0436511 -0.2219758 0.2695396
v -0.3122861 0.2219758 -0.2006549
v -0.3122861 0.2219758 -0.2006549
v -0.3122861 0.2219758 -0.2006549
v -0.1919329 0.2219758 0.2133609
v -0.1919329 0.2219758 0.2133609
v -0.1919329 0.2219758 0.2133609
v -0.1919329 0.2219758 0.2133609
v -0.1956264 0.2219758 0.2006549
v -0.1956264 0.2219758 0.2006549
v -0.2957972 0.1885883 -0.2006549
v -0.2957972 0.1885883 -0.2006549
v -0.2957972 0.1885883 -0.2006549
v -0.174001 0.1781878 0.2006549
v -0.174001 0.1781878 0.2006549
v -0.174001 0.1781878 0.2006549
v -0.174001 0.1781878 0.2006549
v -0.169754 0.1695884 0.2006549
v -0.169754 0.1695884 0.2006549
v -0.169754 0.1695884 0.2006549
v -0.169754 0.1695884 0.2006549
v -0.169754 0.1695884 0.2006549
v -0.169754 0.1695884 0.2006549
v -0.2864137 0.1695884 -0.2006549
v -0.2864137 0.1695884 -0.2006549
v -0.2864137 0.1695884 -0.2006549
v -0.2864137 0.1695884 -0.2006549
v -0.2864137 0.1695884 -0.2006549
v -0.238178 0.1695884 -0.03472394
v -0.238178 0.1695884 -0.03472394
v -0.238178 0.1695884 -0.03472394
vt 0.2700317 0.9471551
vt 0.2700317 0.8680431
vt 0.2700317 0.9471551
vt 0.2759233 0.8680431
vt 0.2770737 0.9471551
vt 0.2688042 0.9471551
vt 0.2688042 0.9471551
vt 0.2759233 0.8680431
vt 0.2711772 0.9471551
vt 0.2688042 0.9286055
vt 0.2770737 0.9471551
vt 0.2711772 0.9471551
vt 0.2759283 0.9471551
vt 0.2688042 0.9286054
vt 0.2759283 0.9471551
vt 0.2711772 0.9288087
vt 0.2711772 0.9288087
vt 0.2759283 0.9288087
vt 0.2759283 0.9288087
vt 0.2671447 0.9083885
vt 0.2652302 0.9471551
vt 0.2700317 0.8680431
vt 0.2691373 0.8680431
vt 0.2655078 0.9471551
vt 0.2680227 0.9471551
vt 0.2700317 0.9064762
vt 0.2719298 0.8680432
vt 0.265587 0.9471551
vt 0.2677317 0.9471551
vt 0.2676659 0.9471551
vt 0.2658809 0.9353331
vt 0.2680513 0.9316504
vt 0.268127 0.9286055
vt 0.2660481 0.9286054
vt 0.1242896 0.8231921
vt 0.2700317 0.9471551
vt 0.2700317 0.9471551
vt 0.2700317 0.9471551
vt 0.2700317 0.9471551
vt 0.2700317 0.9471551
vt 0.2700317 0.9471551
vt 0.2700317 0.9471551
vt 0.2700317 0.9471551
vt 0.2700317 0.9471551
vt 0.2700317 0.8680431
vt 0.2700317 0.8680431
vt 0.2700317 0.8680431
vt 0.2700317 0.8680431
vt 0.2700317 0.8680431
vt 0.2700317 0.9471551
vt 0.2700317 0.9471551
vt 0.2700317 0.9471551
vt 0.2700317 0.9471551
vt 0.2700317 0.9471551
vt 0.2700317 0.9471551
vt 0.2700317 0.9471551
vt 0.2700317 0.9471551
vt 0.2700317 0.9471551
vt 0.2759233 0.8680431
vt 0.2759233 0.8680431
vt 0.2759233 0.8680431
vt 0.2759233 0.8680431
vt 0.2759233 0.8680431
vt 0.2770737 0.9471551
vt 0.2770737 0.9471551
vt 0.2770737 0.9471551
vt 0.2770737 0.9471551
vt 0.2770737 0.9471551
vt 0.2688042 0.9471551
vt 0.2688042 0.9471551
vt 0.2688042 0.9471551
vt 0.2688042 0.9471551
vt 0.2688042 0.9471551
vt 0.2688042 0.9471551
vt 0.2688042 0.9471551
vt 0.2688042 0.9471551
vt 0.2688042 0.9471551
vt 0.2688042 0.9471551
vt 0.2688042 0.9471551
vt 0.2688042 0.9471551
vt 0.2688042 0.9471551
vt 0.2688042 0.9471551
vt 0.2759233 0.8680431
vt 0.2759233 0.8680431
vt 0.2759233 0.8680431
vt 0.2711772 0.9471551
vt 0.2711772 0.9471551
vt 0.2711772 0.9471551
vt 0.2711772 0.9471551
vt 0.2711772 0.9471551
vt 0.2688042 0.9286055
vt 0.2688042 0.9286055
vt 0.1261862 0.8231922
vt 0.2770737 0.9471551
vt 0.2770737 0.9471551
vt 0.2770737 0.9471551
vt 0.2770737 0.9471551
vt 0.2770737 0.9471551
vt 0.2711772 0.9471551
vt 0.2711772 0.9471551
vt 0.2711772 0.9471551
vt 0.2711772 0.9471551
vt 0.2711772 0.9471551
vt 0.2759283 0.9471551
vt 0.2759283 0.9471551
vt 0.2759283 0.9471551
vt 0.2759283 0.9471551
vt 0.2759283 0.9471551
vt 0.2688042 0.9286054
vt 0.2688042 0.9286054
vt 0.1261862 0.8231921
vt 0.1261862 0.8231921
vt 0.1261862 0.8231921
vt 0.2759283 0.9471551
vt 0.2759283 0.9471551
vt 0.2759283 0.9471551
vt 0.2759283 0.9471551
vt 0.2759283 0.9471551
vt 0.2711772 0.9288087
vt 0.2711772 0.9288087
vt 0.1285592 0.8233954
vt 0.1285592 0.8233954
vt 0.2711772 0.9288087
vt 0.2711772 0.9288087
vt 0.1285592 0.8233954
vt 0.2759283 0.9288087
vt 0.1333102 0.8233954
vt 0.2759283 0.9288087
vt 0.2759283 0.9288087
vt 0.1333102 0.8233954
vt 0.1333102 0.8233954
vt 0.2759283 0.9288087
vt 0.2671447 0.9083885
vt 0.08290723 -0.06846319
vt 0.08290723 -0.06846319
vt 0.08290723 -0.06846319
vt 0.08290723 -0.06846319
vt 0.08290723 -0.06846319
vt 0.08290723 -0.06846319
vt 0.08290723 -0.06846319
vt 0.2652302 0.9471551
vt 0.138164 -0.0684632
vt 0.2700317 0.8680431
vt 0.2700317 0.8680431
vt 0.02540005 -0.02460521
vt 0.02540005 -0.02460521
vt 0.02540005 -0.02460521
vt 0.2691373 0.8680431
vt 0.2691373 0.8680431
vt 0.02540005 -0.06846319
vt 0.2655078 0.9471551
vt 0.2655078 0.9471551
vt 0.138164 -0.05484997
vt 0.138164 -0.05484997
vt 0.2680227 0.9471551
vt 0.2680227 0.9471551
vt 0.138164 0.06846318
vt 0.138164 0.06846318
vt 0.2700318 0.9064763
vt 0.08018147 0.06846319
vt 0.08018147 0.06846319
vt 0.08018147 0.06846319
vt 0.08018147 0.06846319
vt 0.08018147 0.06846319
vt 0.08018147 0.06846319
vt 0.2719298 0.8680431
vt 0.2719298 0.8680431
vt 0.02540006 0.06846319
vt 0.265587 0.9471551
vt 0.138164 -0.05096646
vt 0.138164 -0.05096646
vt 0.2677317 0.9471552
vt 0.138164 0.05419376
vt 0.138164 0.05419376
vt 0.138164 0.05419376
vt 0.2676659 0.9471551
vt 0.138164 0.05096645
vt 0.2658809 0.935333
vt 0.1296835 -0.05096646
vt 0.1296835 -0.05096646
vt 0.2680513 0.9316504
vt 0.2680513 0.9316504
vt 0.1270418 0.05096645
vt 0.1270418 0.05096645
vt 0.1255089 0.8231922
vt 0.1255089 0.8231922
vt 0.1248576 0.05096645
vt 0.1248576 0.05096645
vt 0.1248576 0.05096645
vt 0.1248576 0.05096645
vt 0.2660481 0.9286054
vt 0.12343 0.8231921
vt 0.1248576 -0.05096646
vt 0.1248576 -0.05096646
vt 0.1248576 -0.05096646
vt 0.1242896 0.8231921
vt 0.1248576 -0.008819903
vt 0.1248576 -0.008819903
vn 0 0 -1
vn 0 0 -1
vn 0 1 0
vn 0 -1 0
vn 0 0 -1
vn 0 1 0
vn 0 1 0
vn 0 -1 0
vn 0 1 0
vn -1 0 0
vn 0 0 1
vn 0 1 0
vn 0 1 0
vn -1 0 0
vn 0 1 0
vn 1 0 0
vn 0 0 1
vn 0 0 -1
vn 0 0 1
vn 0 0 -1
vn 0 0 -1
vn 0 -1 0
vn 0 -1 0
vn 0 1 0
vn 0 0 1
vn 0 0 1
vn 0 -1 0
vn 0 1 0
vn 0 1 0
vn 0 1 0
vn 0 0 1
vn 0 0 -1
vn 0 0 -1
vn 0 0 1
vn 0 1 0
vn 0 1 0
vn 0 1 0
vn 0 1 0
vn 0 1 0
vn 0 0 -1
vn 0 0 -1
vn 0 0 -1
vn 0 1 0
vn 0 1 0
vn 0 -1 0
vn 0 0 -1
vn 0 -1 0
vn 0 0 -1
vn 0 -1 0
vn 0 1 0
vn 0 0 1
vn 0 1 0
vn 0 1 0
vn 0 1 0
vn 0 0 1
vn 0 1 0
vn 0 0 1
vn 0 0 1
vn 0 0 1
vn 0.9895915 -0.1439047 0
vn 0 -1 0
vn 0 -1 0
vn 0 0 1
vn 0 0 -1
vn 0 1 0
vn 0.9895915 -0.1439047 0
vn 0 1 0
vn 0 1 0
vn 0 1 0
vn -1 0 0
vn 0 1 0
vn 0 1 0
vn 0 0 1
vn 0 0 1
vn 0 0 1
vn -1 0 0
vn -1 0 0
vn 0 1 0
vn 0 1 0
vn 0 1 0
vn 0 0 -1
vn 0 0 -1
vn 0 0 -1
vn 0.9895915 -0.1439047 0
vn 0.9895915 -0.1439047 0
vn 0 1 0
vn 0 1 0
vn 1 0 0
vn 0 0 1
vn 1 0 0
vn 0 0 -1
vn 0 0 -1
vn 0 1 0
vn 0.9895915 -0.1439047 0
vn 0.9895915 -0.1439047 0
vn 0 1 0
vn 0 1 0
vn 0 1 0
vn 0 1 0
vn 1 0 0
vn 0 1 0
vn 0 0 -1
vn 0 0 -1
vn 0 1 0
vn 0 0 1
vn 0 1 0
vn 0 0 1
vn -1 0 0
vn -1 0 0
vn 0 0 1
vn 0 1 0
vn 0 1 0
vn 0 1 0
vn 0 1 0
vn 0 1 0
vn 0 0 -1
vn -1 0 0
vn -1 0 0
vn 1 0 0
vn 0 0 -1
vn 0 1 0
vn 0 1 0
vn 1 0 0
vn 0 0 1
vn 0 1 0
vn 0 0 -1
vn 0 1 0
vn -1 0 0
vn -1 0 0
vn 0 1 0
vn 0 1 0
vn -1 0 0
vn 0 0 -1
vn -0.8676289 -0.4284933 0.2522174
vn -0.8676293 -0.428493 0.2522163
vn -0.8676294 -0.4284931 0.2522161
vn -0.8676277 -0.4284941 0.2522202
vn -0.867629 -0.4284931 0.2522174
vn -0.867629 -0.4284931 0.2522173
vn -0.8676289 -0.4284933 0.2522173
vn 0 1 0
vn -0.8676289 -0.4284933 0.2522174
vn 0 -1 0
vn 0 -1 0
vn -0.867629 -0.4284932 0.2522174
vn -0.867629 -0.4284931 0.2522174
vn -0.867629 -0.4284931 0.2522173
vn 0 0 -1
vn 0 0 -1
vn -0.867629 -0.4284931 0.2522174
vn 0 1 0
vn 0 1 0
vn -0.8676289 -0.4284933 0.2522174
vn -0.8676293 -0.428493 0.2522163
vn 0 1 0
vn 0 1 0
vn -0.8676289 -0.4284931 0.2522173
vn -0.8676286 -0.4284936 0.2522177
vn 0 0 1
vn -0.867629 -0.4284932 0.2522174
vn -0.867629 -0.4284931 0.2522173
vn -0.8676289 -0.4284933 0.2522173
vn -0.8676291 -0.428493 0.2522174
vn -0.867629 -0.4284931 0.2522174
vn -0.8676289 -0.4284931 0.2522173
vn 0 0 1
vn 0 0 1
vn -0.867629 -0.4284932 0.2522174
vn 0 0 1
vn -0.8676293 -0.428493 0.2522163
vn -0.8676294 -0.4284931 0.2522161
vn 0 1 0
vn -0.8676293 -0.4284929 0.2522164
vn -0.8676286 -0.4284936 0.2522177
vn -0.8676248 -0.4284948 0.2522289
vn 0 0 -1
vn -0.8676293 -0.4284929 0.2522164
vn 0 0 1
vn -0.8676294 -0.4284931 0.2522161
vn -0.8676277 -0.4284941 0.2522202
vn 0 0 -1
vn 0 0 -1
vn -0.8676293 -0.4284929 0.2522164
vn -0.8676248 -0.4284948 0.2522289
vn 0 1 0
vn 0 1 0
vn -0.867629 -0.4284931 0.2522174
vn -0.8676289 -0.4284931 0.2522173
vn -0.8676286 -0.4284936 0.2522177
vn -0.8676248 -0.4284948 0.2522289
vn 0 0 1
vn 0 1 0
vn -0.8676277 -0.4284941 0.2522202
vn -0.8676289 -0.4284933 0.2522173
vn -0.8676291 -0.428493 0.2522174
vn 0 1 0
vn -0.8676291 -0.428493 0.2522174
vn -0.867629 -0.4284931 0.2522174
g IL_CleaningWheelBarrow_sh_1_0
f 1/1/1 5/5/5 2/2/2
f 8/8/8 4/4/4 45/45/45
f 64/64/64 83/83/83 46/46/46
f 65/65/65 36/36/36 9/9/9
f 3/3/3 37/37/37 6/6/6
f 7/7/7 50/50/50 69/69/69
f 11/11/11 51/51/51 59/59/59
f 94/94/94 60/60/60 84/84/84
f 66/66/66 95/95/95 85/85/85
f 86/86/86 38/38/38 12/12/12
f 13/13/13 67/67/67 87/87/87
f 39/39/39 52/52/52 99/99/99
f 14/14/14 10/10/10 76/76/76
f 70/70/70 109/109/109 77/77/77
f 53/53/53 96/96/96 15/15/15
f 97/97/97 68/68/68 104/104/104
f 100/100/100 16/16/16 88/88/88
f 89/89/89 17/17/17 105/105/105
f 101/101/101 54/54/54 114/114/114
f 115/115/115 98/98/98 106/106/106
f 119/119/119 123/123/123 90/90/90
f 18/18/18 120/120/120 102/102/102
f 124/124/124 19/19/19 107/107/107
f 116/116/116 126/126/126 103/103/103
f 108/108/108 129/129/129 117/117/117
f 125/125/125 121/121/121 130/130/130
f 122/122/122 127/127/127 131/131/131
f 132/132/132 128/128/128 118/118/118
f 20/20/20 21/21/21 40/40/40
f 47/47/47 22/22/22 23/23/23
f 133/133/133 41/41/41 148/148/148
f 42/42/42 48/48/48 149/149/149
f 43/43/43 141/141/141 24/24/24
f 55/55/55 25/25/25 26/26/26
f 143/143/143 61/61/61 27/27/27
f 49/49/49 62/62/62 144/144/144
f 28/28/28 71/71/71 151/151/151
f 72/72/72 44/44/44 152/152/152
f 30/30/30 29/29/29 78/78/78
f 155/155/155 56/56/56 79/79/79
f 172/172/172 156/156/156 80/80/80
f 166/166/166 57/57/57 159/159/159
f 63/63/63 58/58/58 167/167/167
f 169/169/169 31/31/31 73/73/73
f 176/176/176 81/81/81 32/32/32
f 82/82/82 91/91/91 181/181/181
f 92/92/92 33/33/33 182/182/182
f 34/34/34 110/110/110 74/74/74
f 178/178/178 191/191/191 75/75/75
f 192/192/192 35/35/35 111/111/111
f 185/185/185 93/93/93 112/112/112
f 196/196/196 186/186/186 113/113/113
g IL_CleaningWheelBarrow_sh_1_1
f 173/173/173 177/177/177 183/183/183
f 145/145/145 168/168/168 160/160/160
f 153/153/153 142/142/142 134/134/134
f 170/170/170 154/154/154 135/135/135
f 179/179/179 171/171/171 136/136/136
f 193/193/193 180/180/180 137/137/137
f 138/138/138 150/150/150 146/146/146
f 139/139/139 147/147/147 161/161/161
f 194/194/194 140/140/140 162/162/162
f 197/197/197 195/195/195 163/163/163
f 187/187/187 198/198/198 164/164/164
f 188/188/188 165/165/165 157/157/157
f 189/189/189 158/158/158 174/174/174
f 175/175/175 184/184/184 190/190/190
