g IL_Camera.001
v 0.1197587 0 0.1197586
v 0.1693643 0.08000001 -2.019649E-09
v 0.1693643 0 -2.019649E-09
v 0.1197587 0.08000001 0.1197586
v 1.48063E-08 0 0.1693643
v 0.04874109 0.09718165 -1.400981E-09
v 1.48063E-08 0.08000001 0.1693643
v -0.1197587 0 0.1197587
v 0.03446516 0.09718165 0.03446515
v 0.04874109 0.361937 -1.400981E-09
v -0.1197587 0.08000001 0.1197587
v -0.1693643 0 7.403148E-09
v -0.1693643 0.08000001 7.403148E-09
v 8.292823E-09 0.09718165 0.04874109
v -0.03446515 0.09718165 0.03446515
v -0.04874108 0.09718165 1.310792E-09
v 0.03446516 0.361937 0.03446515
v -0.03446515 0.361937 0.03446515
v -0.04874108 0.361937 1.310792E-09
v 0.03446516 0.361937 -0.03446515
v -0.03446515 0.361937 -0.03446515
v 8.292823E-09 0.361937 0.04874109
v -0.1197587 0 -0.1197587
v -0.1693643 0.08000001 7.403148E-09
v -0.1693643 0 7.403148E-09
v -0.1197587 0.08000001 -0.1197587
v 0 0 -0.1693643
v -0.04874108 0.09718165 1.310792E-09
v 0 0.08000001 -0.1693643
v 0.1197587 0 -0.1197586
v -0.03446515 0.09718165 -0.03446515
v -0.04874108 0.361937 1.310792E-09
v -0.03446515 0.361937 -0.03446515
v 0.1197587 0.08000001 -0.1197586
v 0.1693643 0 -2.019649E-09
v 0.1693643 0.08000001 -2.019649E-09
v 4.031742E-09 0.09718165 -0.04874109
v 0.03446516 0.09718165 -0.03446515
v 0.04874109 0.09718165 -1.400981E-09
v 4.031742E-09 0.361937 -0.04874109
v 0.03446516 0.361937 -0.03446515
v 0.04874109 0.361937 -1.400981E-09
vt 0.4257813 0.8198242
vt 0.4289551 0.824707
vt 0.4289551 0.8198242
vt 0.4257813 0.824707
vt 0.4182129 0.8198242
vt 0.4230957 0.8256836
vt 0.4182129 0.824707
vt 0.4106445 0.8198242
vt 0.4216309 0.8256836
vt 0.4230957 0.8549805
vt 0.4106445 0.824707
vt 0.4077148 0.8198242
vt 0.4077148 0.824707
vt 0.4182129 0.8256836
vt 0.4147949 0.8256836
vt 0.4135742 0.8256836
vt 0.4216309 0.8549805
vt 0.4147949 0.8549805
vt 0.4135742 0.8549805
vt 0.4216309 0.8549805
vt 0.4147949 0.8549805
vt 0.4182129 0.8549805
vt 0.4106445 0.8198242
vt 0.4077148 0.824707
vt 0.4077148 0.8198242
vt 0.4106445 0.824707
vt 0.4182129 0.8198242
vt 0.4135742 0.8256836
vt 0.4182129 0.824707
vt 0.4257813 0.8198242
vt 0.4147949 0.8256836
vt 0.4135742 0.8549805
vt 0.4147949 0.8549805
vt 0.4257813 0.824707
vt 0.4289551 0.8198242
vt 0.4289551 0.824707
vt 0.4182129 0.8256836
vt 0.4216309 0.8256836
vt 0.4230957 0.8256836
vt 0.4182129 0.8549805
vt 0.4216309 0.8549805
vt 0.4230957 0.8549805
vn 0.7070313 0 0.7070313
vn 0.8105469 0.5854492 0
vn 1 0 0
vn 0.5732422 0.5854492 0.5732422
vn 0 0 1
vn 0.6655273 0.7460938 0
vn 0 0.5854492 0.8105469
vn -0.7070313 0 0.7070313
vn 0.4707031 0.7460938 0.4707031
vn 0.7763672 0.6303711 0
vn -0.5732422 0.5854492 0.5732422
vn -1 0 0
vn -0.8105469 0.5854492 0
vn 0 0.7460938 0.6655273
vn -0.4707031 0.7460938 0.4707031
vn -0.6655273 0.7460938 0
vn 0.5488281 0.6303711 0.5488281
vn -0.5488281 0.6303711 0.5488281
vn -0.7763672 0.6303711 0
vn 0.5488281 0.6303711 -0.5488281
vn -0.5488281 0.6303711 -0.5488281
vn 0 0.6303711 0.7763672
vn -0.7070313 0 -0.7070313
vn -0.8105469 0.5854492 0
vn -1 0 0
vn -0.5732422 0.5854492 -0.5732422
vn 0 0 -1
vn -0.6655273 0.7460938 0
vn 0 0.5854492 -0.8105469
vn 0.7070313 0 -0.7070313
vn -0.4707031 0.7460938 -0.4707031
vn -0.7763672 0.6303711 0
vn -0.5488281 0.6303711 -0.5488281
vn 0.5732422 0.5854492 -0.5732422
vn 1 0 0
vn 0.8105469 0.5854492 0
vn 0 0.7460938 -0.6655273
vn 0.4707031 0.7460938 -0.4707031
vn 0.6655273 0.7460938 0
vn 0 0.6303711 -0.7763672
vn 0.5488281 0.6303711 -0.5488281
vn 0.7763672 0.6303711 0
g IL_Camera.001_0
f 3/3/3 2/2/2 1/1/1
f 2/2/2 4/4/4 1/1/1
f 1/1/1 4/4/4 5/5/5
f 2/2/2 6/6/6 4/4/4
f 4/4/4 7/7/7 5/5/5
f 5/5/5 7/7/7 8/8/8
f 6/6/6 9/9/9 4/4/4
f 4/4/4 9/9/9 7/7/7
f 6/6/6 10/10/10 9/9/9
f 7/7/7 11/11/11 8/8/8
f 8/8/8 11/11/11 12/12/12
f 11/11/11 13/13/13 12/12/12
f 9/9/9 14/14/14 7/7/7
f 7/7/7 14/14/14 11/11/11
f 11/11/11 15/15/15 13/13/13
f 14/14/14 15/15/15 11/11/11
f 15/15/15 16/16/16 13/13/13
f 10/10/10 17/17/17 9/9/9
f 9/9/9 17/17/17 14/14/14
f 15/15/15 18/18/18 16/16/16
f 18/18/18 19/19/19 16/16/16
f 19/19/19 17/17/17 10/10/10
f 19/19/19 18/18/18 17/17/17
f 19/19/19 10/10/10 20/20/20
f 21/21/21 19/19/19 20/20/20
f 14/14/14 22/22/22 15/15/15
f 17/17/17 22/22/22 14/14/14
f 22/22/22 18/18/18 15/15/15
f 18/18/18 22/22/22 17/17/17
f 25/25/25 24/24/24 23/23/23
f 24/24/24 26/26/26 23/23/23
f 23/23/23 26/26/26 27/27/27
f 24/24/24 28/28/28 26/26/26
f 26/26/26 29/29/29 27/27/27
f 27/27/27 29/29/29 30/30/30
f 28/28/28 31/31/31 26/26/26
f 26/26/26 31/31/31 29/29/29
f 28/28/28 32/32/32 31/31/31
f 32/32/32 33/33/33 31/31/31
f 29/29/29 34/34/34 30/30/30
f 30/30/30 34/34/34 35/35/35
f 34/34/34 36/36/36 35/35/35
f 31/31/31 37/37/37 29/29/29
f 31/31/31 33/33/33 37/37/37
f 29/29/29 37/37/37 34/34/34
f 34/34/34 38/38/38 36/36/36
f 37/37/37 38/38/38 34/34/34
f 38/38/38 39/39/39 36/36/36
f 33/33/33 40/40/40 37/37/37
f 37/37/37 40/40/40 38/38/38
f 41/41/41 40/40/40 33/33/33
f 40/40/40 41/41/41 38/38/38
f 38/38/38 41/41/41 39/39/39
f 41/41/41 42/42/42 39/39/39
