g IL_FloorDecor_8
v 0.05850236 0 0.07401879
v 0.0100897 0 0.08631074
v 0.007684116 0.006519901 0.06183705
v 0.04706323 0.006519901 0.05813231
v -0.01609844 0.006519901 0.04204855
v -0.03043208 0.006519901 0.05564132
v 0.01385701 0.006519901 0.01074976
v 0.06842711 0.006519901 0.03068801
v -0.06516858 0.006519901 -0.03281838
v -0.07497874 0.006519901 0.01097429
v -0.03043208 0.006519901 0.05564132
v 0.01909277 0.006519901 -0.0291188
v -0.03079077 0.006519901 -0.05930029
v -0.08398686 0 -0.04026444
v -0.04634392 0 -0.08202502
v -0.09570361 0 0.01429345
v -0.0802514 0 0.05615689
v -0.06032643 0.006519901 0.04211669
v -0.04058959 0 0.07788999
v 0.0100897 0 0.08631074
v 0.007684116 0.006519901 0.06183705
v 0.08180562 0.006519901 -0.002548827
v 0.1066372 0 -0.004760267
v 0.09103364 0 0.04103966
v 0.084415 0 -0.04808644
v 0.06802518 0.006519901 -0.03843621
v 0.0438348 0 -0.09513576
v 0.03467257 0.006519901 -0.07501677
v -0.005870981 0 -0.1012198
v -0.004214835 0.006519901 -0.07305134
v -0.03079077 0.006519901 -0.05930029
v -0.04634392 0 -0.08202502
v 0.09103364 0 0.04103966
v 0.05850236 0 0.07401879
v 0.04706323 0.006519901 0.05813231
v 0.06842711 0.006519901 0.03068801
vt 0.3415443 0.8024376
vt 0.3413383 0.8024376
vt 0.3418462 0.9926366
vt 0.342008 0.9926366
vt 0.3431025 0.9926366
vt 0.3426304 0.9926366
vt 0.3433037 0.9926366
vt 0.3418462 0.9926366
vt 0.3451771 0.9926366
vt 0.3445052 0.9926366
vt 0.3426304 0.9926366
vt 0.3442356 0.9926366
vt 0.346103 0.9926366
vt 0.3455772 0.8024376
vt 0.3467554 0.8024376
vt 0.3447221 0.8024376
vt 0.3436994 0.8024376
vt 0.3437016 0.9926366
vt 0.3423362 0.8024376
vt 0.3413383 0.8024376
vt 0.3418462 0.9926366
vt 0.3426304 0.9926366
vt 0.3423362 0.8024376
vt 0.3413383 0.8024376
vt 0.3435456 0.8024376
vt 0.3435807 0.9926366
vt 0.3449528 0.8024376
vt 0.3446865 0.9926366
vt 0.3463681 0.8024376
vt 0.3457987 0.9926366
vt 0.346103 0.9926366
vt 0.3467554 0.8024376
vt 0.3413383 0.8024376
vt 0.3415443 0.8024376
vt 0.342008 0.9926366
vt 0.3418462 0.9926366
vn 0.1417919 0.9604679 0.2395753
vn 0.00680583 0.9608123 0.2771163
vn 0.0007019431 0.9886715 0.1500937
vn 0.08264656 0.9843731 0.1554964
vn 0 1 0
vn -0.0437949 0.9893986 0.1384652
vn 0 1 0
vn 0.1276613 0.9886042 0.07977685
vn -0.1490876 0.9850767 -0.08600385
vn -0.1737154 0.9847329 0.01113951
vn -0.0437949 0.9893986 0.1384652
vn 0 1 0
vn -0.07791501 0.9908605 -0.1101126
vn -0.2527296 0.9588528 -0.1293404
vn -0.1460325 0.9673853 -0.2069786
vn -0.2835881 0.9585903 0.02612478
vn -0.1987096 0.9649822 0.1712424
vn -0.1150279 0.9869997 0.1122506
vn -0.08594254 0.963832 0.2522731
vn 0.00680583 0.9608123 0.2771163
vn 0.0007019431 0.9886715 0.1500937
vn 0.1611731 0.9869066 -0.006195443
vn 0.2599632 0.9654773 -0.01651093
vn 0.2349979 0.9621179 0.1382215
vn 0.2537086 0.9531851 -0.1645306
vn 0.1427079 0.9852824 -0.09409075
vn 0.1203967 0.9638755 -0.2375889
vn 0.07962467 0.9851607 -0.1520468
vn -0.04202471 0.9702612 -0.2383842
vn -0.03027453 0.9905754 -0.1335803
vn -0.07791501 0.9908605 -0.1101126
vn -0.1460325 0.9673853 -0.2069786
vn 0.2349979 0.9621179 0.1382215
vn 0.1417919 0.9604679 0.2395753
vn 0.08264656 0.9843731 0.1554964
vn 0.1276613 0.9886042 0.07977685
g IL_FloorDecor_8_0
f 3/3/3 2/2/2 1/1/1
f 4/4/4 3/3/3 1/1/1
f 3/3/3 4/4/4 5/5/5
f 6/6/6 3/3/3 5/5/5
f 5/5/5 4/4/4 7/7/7
f 4/4/4 8/8/8 7/7/7
f 5/5/5 7/7/7 9/9/9
f 10/10/10 5/5/5 9/9/9
f 11/11/11 5/5/5 10/10/10
f 7/7/7 8/8/8 12/12/12
f 9/9/9 7/7/7 13/13/13
f 7/7/7 12/12/12 13/13/13
f 9/9/9 13/13/13 14/14/14
f 13/13/13 15/15/15 14/14/14
f 9/9/9 14/14/14 16/16/16
f 10/10/10 9/9/9 16/16/16
f 10/10/10 16/16/16 17/17/17
f 18/18/18 10/10/10 17/17/17
f 18/18/18 11/11/11 10/10/10
f 18/18/18 17/17/17 19/19/19
f 11/11/11 18/18/18 19/19/19
f 11/11/11 19/19/19 20/20/20
f 21/21/21 11/11/11 20/20/20
f 8/8/8 22/22/22 12/12/12
f 22/22/22 8/8/8 23/23/23
f 8/8/8 24/24/24 23/23/23
f 22/22/22 23/23/23 25/25/25
f 26/26/26 22/22/22 25/25/25
f 26/26/26 25/25/25 27/27/27
f 22/22/22 26/26/26 28/28/28
f 28/28/28 26/26/26 27/27/27
f 12/12/12 22/22/22 28/28/28
f 28/28/28 27/27/27 29/29/29
f 12/12/12 28/28/28 30/30/30
f 30/30/30 28/28/28 29/29/29
f 31/31/31 12/12/12 30/30/30
f 30/30/30 29/29/29 32/32/32
f 31/31/31 30/30/30 32/32/32
f 35/35/35 34/34/34 33/33/33
f 36/36/36 35/35/35 33/33/33
