g IL_GateWall
v -0.1 1.8 -0.6458153
v -0.1 1.8 -0.9
v -0.1 2.5 -0.9
v -0.1 2.5 -0.6458153
v 0 2.5 -0.9
v 0 2.4 -1
v 0 1.9 -1
v 0 1.8 -0.9
v 0 0 -0.09999999
v 0 0 0
v 0 0.7999999 0
v 0 0.9 -0.09999999
v 0 2.5 -0.3458154
v 0 2.5 -0.09999999
v -0.1 2.5 -0.09999999
v -0.1 2.5 -0.3458154
v 0 2.5 -0.6458153
v -0.1 2.5 -0.6458153
v 0 2.5 -0.9
v -0.1 2.5 -0.9
v 0 0.9 -0.09999999
v 0 0.7999999 0
v -0.1 0.7999999 0
v -0.1 0.9 -0.09999999
v -0.1 0.9 -0.09999999
v -0.1 1 0
v 0 1 0
v 0 0.9 -0.09999999
v 0 0 -0.3458154
v 0 0 -0.09999999
v 0 0.9 -0.09999999
v 0 0.9 -0.3458154
v 0 0 -0.6458153
v 0 1.8 -0.09999999
v 0 0.9 -0.6458153
v 0 0 -0.9
v 0 0.9 -0.9
v 0 1.8 -0.3458154
v 0 2.5 -0.09999999
v 0 2.5 -0.3458154
v 0 1.8 -0.6458153
v 0 2.5 -0.6458153
v 0 1.8 -0.9
v 0 2.5 -0.9
v 0 1 -1
v 0 1.7 -1
v -0.1 0 -0.9
v -0.1 0.09999999 -1
v -0.1 0.7999999 -1
v -0.1 0.9 -0.9
v -0.1 0.9 -0.9
v -0.1 1 -1
v -0.1 1.7 -1
v -0.1 1.8 -0.9
v -0.1 0 -0.6458153
v -0.1 0 -0.9
v -0.1 0.9 -0.9
v -0.1 0.9 -0.6458153
v -0.1 1.8 -0.6458153
v -0.2 1.7 -0.6458153
v -0.2 1.7 -0.9
v -0.1 1.8 -0.9
v 0 1.9 0
v -0.1 1.9 0
v -0.1 2.5 0
v 0 2.5 0
v 0 0 0
v -0.1 0 0
v -0.1 0.7999999 0
v 0 0.7999999 0
v 0 1.8 -0.09999999
v 0 1.9 0
v 0 2.5 0
v 0 2.5 -0.09999999
v -0.1 0.9 -0.09999999
v -0.1 0.7999999 0
v -0.1 0 0
v -0.1 0 -0.09999999
v -0.1 2.5 -0.09999999
v -0.1 2.5 0
v -0.1 1.9 0
v -0.1 1.8 -0.09999999
v -0.1 1.8 -0.09999999
v -0.1 1.9 0
v 0 1.9 0
v 0 1.8 -0.09999999
v 0 2.5 -0.09999999
v 0 2.5 0
v -0.1 2.5 0
v -0.1 2.5 -0.09999999
v -0.2 1 -0.6458153
v -0.2 1 -0.9
v -0.2 1.7 -0.9
v -0.2 1.7 -0.6458153
v -0.1 1.8 -0.9
v -0.2 1.7 -0.9
v -0.2 1 -0.9
v -0.1 0.9 -0.9
v -0.1 0.9 -0.3458154
v -0.2 1 -0.3458154
v -0.2 1 -0.09999999
v -0.1 0.9 -0.09999999
v -0.1694711 1.730529 -0.09999999
v -0.1 1.8 -0.09999999
v -0.1 0.9 -0.09999999
v -0.2 1 -0.09999999
v -0.17946 1.7 -0.09999999
v -0.2 1.673249 -0.09999999
v -0.1 0.9 -0.9
v -0.2 1 -0.9
v -0.2 1 -0.6458153
v -0.1 0.9 -0.6458153
v -0.2 1.673249 -0.09999999
v -0.2 1 -0.09999999
v -0.2 1 -0.3458154
v -0.2 1.7 -0.3458154
v -0.2 1.7 -0.1845443
v -0.2 1.7 -0.1845443
v -0.2 1.7 -0.3458154
v -0.1 1.8 -0.3458154
v -0.1694711 1.730529 -0.09999999
v -0.1 1.8 -0.09999999
v -0.1 0.9 -0.09999999
v -0.1 0 -0.09999999
v -0.1 0 -0.1413753
v -0.1 0.2490359 -0.2023754
v -0.1 0.9 -0.3458154
v -0.1 0.1304082 -0.1942938
v -0.1 0 -0.3458154
v -0.1 0 -0.2838903
v -0.08229593 0.02462521 -0.3704405
v -0.08229593 0.02462521 -0.6211901
v -0.08229593 0.9 -0.6211902
v -0.08229593 0.9 -0.3704405
v -0.08229593 1 -0.3704405
v -0.08229593 1 -0.6211902
v -0.08229593 1.7 -0.3704405
v -0.08229593 1.7 -0.6211902
v -0.08229593 1.8 -0.3704405
v -0.08229593 1.8 -0.6211902
v -0.08229593 2.475375 -0.6211902
v -0.08229593 2.475375 -0.3704405
v -0.1 1.8 -0.09999999
v -0.1 1.8 -0.3458154
v -0.1 2.5 -0.3458154
v -0.1 2.5 -0.09999999
v 0 1 0
v -0.1 1 0
v -0.1 1.7 0
v 0 1.7 0
v 0 1.8 -0.09999999
v 0 1.7 0
v -0.1 1.7 0
v -0.1 1.8 -0.09999999
v 0 0.9 -0.09999999
v 0 1 0
v 0 1.7 0
v 0 1.8 -0.09999999
v -0.1 1.8 -0.09999999
v -0.1 1.7 0
v -0.1 1 0
v -0.1 0.9 -0.09999999
v -0.08229593 0.02462521 -0.3704405
v -0.1 0 -0.3458154
v -0.1 0 -0.6458153
v -0.08229593 0.02462521 -0.6211901
v -0.08229593 2.475375 -0.6211902
v -0.1 2.5 -0.6458153
v -0.1 2.5 -0.3458154
v -0.08229593 2.475375 -0.3704405
v -0.08229593 0.9 -0.6211902
v -0.1 0.9 -0.6458153
v -0.2 1 -0.6458153
v -0.1822959 1 -0.6211902
v -0.1822959 1 -0.3704405
v -0.2 1 -0.3458154
v -0.1 0.9 -0.3458154
v -0.08229593 0.9 -0.3704405
v -0.1822959 1.7 -0.3704405
v -0.2 1.7 -0.3458154
v -0.2 1 -0.3458154
v -0.1822959 1 -0.3704405
v -0.1822959 1 -0.6211902
v -0.2 1 -0.6458153
v -0.2 1.7 -0.6458153
v -0.1822959 1.7 -0.6211902
v -0.08229593 1.8 -0.3704405
v -0.1 1.8 -0.3458154
v -0.2 1.7 -0.3458154
v -0.1822959 1.7 -0.3704405
v -0.1822959 1.7 -0.6211902
v -0.2 1.7 -0.6458153
v -0.1 1.8 -0.6458153
v -0.08229593 1.8 -0.6211902
v -0.08229593 0.9 -0.3704405
v -0.1 0.9 -0.3458154
v -0.1 0 -0.3458154
v -0.08229593 0.02462521 -0.3704405
v -0.08229593 0.02462521 -0.6211901
v -0.1 0 -0.6458153
v -0.1 0.9 -0.6458153
v -0.08229593 0.9 -0.6211902
v -0.08229593 2.475375 -0.3704405
v -0.1 2.5 -0.3458154
v -0.1 1.8 -0.3458154
v -0.08229593 1.8 -0.3704405
v -0.08229593 1.8 -0.6211902
v -0.1 1.8 -0.6458153
v -0.1 2.5 -0.6458153
v -0.08229593 2.475375 -0.6211902
v -0.1822959 1.7 -0.6211902
v -0.08229593 1.8 -0.6211902
v -0.08229593 1.7 -0.6211902
v -0.1822959 1 -0.6211902
v -0.08229593 1 -0.6211902
v -0.08229593 0.9 -0.6211902
v -0.1822959 1 -0.3704405
v -0.08229593 0.9 -0.3704405
v -0.08229593 1 -0.3704405
v -0.1822959 1.7 -0.3704405
v -0.08229593 1.7 -0.3704405
v -0.08229593 1.8 -0.3704405
v -0.02967252 -0.01466155 -0.5280963
v -0.1103628 0.07062068 -0.5280964
v -0.1103628 0.07062068 -0.4635344
v -0.02967252 -0.01466155 -0.4635344
v -0.02967252 2.482166 -0.5280963
v -0.02967252 2.482166 -0.4635344
v -0.1103628 2.370714 -0.4635344
v -0.1103628 2.370714 -0.5280964
v -0.1103628 0.07062068 -0.4635344
v -0.1103628 2.370714 -0.4635344
v -0.02967252 2.482166 -0.4635344
v -0.02967252 -0.01466155 -0.4635344
v -0.02967252 -0.01466155 -0.4635344
v -0.02967252 2.482166 -0.4635344
v -0.02967252 2.482166 -0.5280963
v -0.02967252 -0.01466155 -0.5280963
v -0.02967252 -0.01466155 -0.5280963
v -0.02967252 2.482166 -0.5280963
v -0.1103628 2.370714 -0.5280964
v -0.1103628 0.07062068 -0.5280964
v -0.1103628 0.07062068 -0.5280964
v -0.1103628 2.370714 -0.5280964
v -0.1103628 2.370714 -0.4635344
v -0.1103628 0.07062068 -0.4635344
v -0.2 1.7 -0.1845443
v -0.17946 1.7 -0.09999999
v -0.2 1.673249 -0.09999999
v -0.1694711 1.730529 -0.09999999
v -0.1 0 -0.1413753
v -0.1 0 -0.2838903
v -0.1 0.1304082 -0.1942938
v -0.1 0.2490359 -0.2023754
v -0.1 0.09999999 -1
v 0 0.09999999 -1
v 0 0.7999999 -1
v -0.1 0.7999999 -1
v -0.1 0.9 -0.9
v -0.1 0.7999999 -1
v 0 0.7999999 -1
v 0 0.9 -0.9
v 0 0.9 -0.9
v 0 0.7999999 -1
v 0 0.09999999 -1
v 0 0 -0.9
v 0 0 -0.9
v 0 0.09999999 -1
v -0.1 0.09999999 -1
v -0.1 0 -0.9
v -0.1 1 -1
v 0 1 -1
v 0 1.7 -1
v -0.1 1.7 -1
v 0 0.9 -0.9
v 0 1 -1
v -0.1 1 -1
v -0.1 0.9 -0.9
v -0.1 1.8 -0.9
v -0.1 1.7 -1
v 0 1.7 -1
v 0 1.8 -0.9
v -0.1 1.9 -1
v 0 1.9 -1
v 0 2.4 -1
v -0.1 2.4 -1
v -0.1 1.8 -0.9
v -0.1 1.9 -1
v -0.1 2.4 -1
v -0.1 2.5 -0.9
v 0 1.8 -0.9
v 0 1.9 -1
v -0.1 1.9 -1
v -0.1 1.8 -0.9
v -0.1 2.5 -0.9
v -0.1 2.4 -1
v 0 2.4 -1
v 0 2.5 -0.9
vt 0.3486328 0.8842773
vt 0.3486328 0.9370117
vt 0.4711914 0.9370117
vt 0.4711914 0.8842773
vt 0.04248047 0.8583984
vt 0.04248047 0.8583984
vt 0.04248047 0.8583984
vt 0.04248047 0.8583984
vt 0.04931641 0.8613281
vt 0.04931641 0.8613281
vt 0.04931641 0.8613281
vt 0.04931641 0.8613281
vt 0.2006836 0.8618164
vt 0.2006836 0.8618164
vt 0.2006836 0.8618164
vt 0.2006836 0.8618164
vt 0.2006836 0.8618164
vt 0.2006836 0.8618164
vt 0.2006836 0.8618164
vt 0.2006836 0.8618164
vt 0.05517578 0.8613281
vt 0.05517578 0.8598633
vt 0.0390625 0.8598633
vt 0.0390625 0.8613281
vt 0.199707 0.8608398
vt 0.199707 0.8608398
vt 0.2158203 0.8608398
vt 0.2158203 0.8608398
vt 0.2006836 0.8618164
vt 0.2006836 0.8618164
vt 0.2006836 0.8618164
vt 0.2006836 0.8618164
vt 0.2006836 0.8618164
vt 0.2006836 0.8618164
vt 0.2006836 0.8618164
vt 0.2006836 0.8618164
vt 0.2006836 0.8618164
vt 0.2006836 0.8618164
vt 0.2006836 0.8618164
vt 0.2006836 0.8618164
vt 0.2006836 0.8618164
vt 0.2006836 0.8618164
vt 0.2006836 0.8618164
vt 0.2006836 0.8618164
vt 0.2006836 0.8618164
vt 0.2006836 0.8618164
vt 0.04248047 0.8583984
vt 0.04248047 0.8583984
vt 0.04248047 0.8583984
vt 0.04248047 0.8583984
vt 0.2006836 0.8618164
vt 0.2006836 0.8618164
vt 0.2006836 0.8618164
vt 0.2006836 0.8618164
vt 0.02001953 0.8842773
vt 0.02001953 0.9370117
vt 0.1772461 0.9370117
vt 0.1772461 0.8842773
vt 0.3486328 0.8842773
vt 0.3242188 0.8842773
vt 0.3242188 0.9370117
vt 0.3486328 0.9370117
vt 0.05371094 0.8657227
vt 0.03759766 0.8657227
vt 0.03759766 0.8701172
vt 0.05371094 0.8701172
vt 0.05517578 0.8525391
vt 0.0390625 0.8525391
vt 0.0390625 0.8598633
vt 0.05517578 0.8598633
vt 0.04931641 0.8613281
vt 0.04931641 0.8613281
vt 0.04931641 0.8613281
vt 0.04931641 0.8613281
vt 0.04931641 0.8613281
vt 0.04931641 0.8613281
vt 0.04931641 0.8613281
vt 0.04931641 0.8613281
vt 0.04931641 0.8613281
vt 0.04931641 0.8613281
vt 0.04931641 0.8613281
vt 0.04931641 0.8613281
vt 0.03759766 0.8642578
vt 0.03759766 0.8657227
vt 0.05371094 0.8657227
vt 0.05371094 0.8642578
vt 0.04931641 0.8613281
vt 0.04931641 0.8613281
vt 0.04931641 0.8613281
vt 0.04931641 0.8613281
vt 0.2021484 0.8842773
vt 0.2021484 0.9370117
vt 0.3242188 0.9370117
vt 0.3242188 0.8842773
vt 0.2006836 0.8618164
vt 0.2006836 0.8618164
vt 0.2006836 0.8618164
vt 0.2006836 0.8618164
vt 0.1772461 0.9897461
vt 0.2021484 0.9897461
vt 0.2021484 0.9370117
vt 0.1772461 0.9370117
vt 0.2026367 0.8554688
vt 0.2026367 0.8554688
vt 0.2026367 0.8554688
vt 0.2026367 0.8554688
vt 0.2026367 0.8554688
vt 0.2026367 0.8554688
vt 0.1772461 0.9370117
vt 0.2021484 0.9370117
vt 0.2021484 0.8842773
vt 0.1772461 0.8842773
vt 0.3195801 0.9370117
vt 0.2021484 0.9370117
vt 0.2021484 0.9897461
vt 0.3242188 0.9897461
vt 0.3242188 0.9521484
vt 0.3242188 0.9521484
vt 0.3242188 0.9897461
vt 0.3486328 0.9897461
vt 0.3317871 0.9370117
vt 0.3486328 0.9370117
vt 0.1772461 0.9370117
vt 0.02001953 0.9370117
vt 0.02001953 0.9516602
vt 0.0635376 0.9624023
vt 0.1772461 0.9897461
vt 0.04281616 0.9609375
vt 0.02001953 0.9897461
vt 0.02001953 0.9765625
vt 0.105957 0.8608398
vt 0.105957 0.8608398
vt 0.105957 0.8608398
vt 0.105957 0.8608398
vt 0.105957 0.8608398
vt 0.105957 0.8608398
vt 0.105957 0.8608398
vt 0.105957 0.8608398
vt 0.105957 0.8608398
vt 0.105957 0.8608398
vt 0.105957 0.8608398
vt 0.105957 0.8608398
vt 0.3486328 0.9370117
vt 0.3486328 0.9897461
vt 0.4711914 0.9897461
vt 0.4711914 0.9370117
vt 0.2075195 0.8525391
vt 0.2075195 0.8525391
vt 0.2075195 0.8525391
vt 0.2075195 0.8525391
vt 0.2089844 0.8613281
vt 0.2089844 0.8613281
vt 0.1928711 0.8613281
vt 0.1928711 0.8613281
vt 0.1977539 0.8603516
vt 0.1977539 0.8603516
vt 0.1977539 0.8603516
vt 0.1977539 0.8603516
vt 0.2075195 0.8525391
vt 0.2075195 0.8525391
vt 0.2075195 0.8525391
vt 0.2075195 0.8525391
vt 0.112793 0.8579102
vt 0.112793 0.8579102
vt 0.112793 0.8579102
vt 0.112793 0.8579102
vt 0.112793 0.8579102
vt 0.112793 0.8579102
vt 0.112793 0.8579102
vt 0.112793 0.8579102
vt 0.112793 0.8579102
vt 0.112793 0.8579102
vt 0.112793 0.8579102
vt 0.112793 0.8579102
vt 0.112793 0.8579102
vt 0.112793 0.8579102
vt 0.112793 0.8579102
vt 0.112793 0.8579102
vt 0.112793 0.8579102
vt 0.112793 0.8579102
vt 0.112793 0.8579102
vt 0.112793 0.8579102
vt 0.112793 0.8579102
vt 0.112793 0.8579102
vt 0.112793 0.8579102
vt 0.112793 0.8579102
vt 0.112793 0.8579102
vt 0.112793 0.8579102
vt 0.112793 0.8579102
vt 0.112793 0.8579102
vt 0.112793 0.8579102
vt 0.112793 0.8579102
vt 0.112793 0.8579102
vt 0.112793 0.8579102
vt 0.112793 0.8579102
vt 0.112793 0.8579102
vt 0.112793 0.8579102
vt 0.112793 0.8579102
vt 0.112793 0.8579102
vt 0.112793 0.8579102
vt 0.112793 0.8579102
vt 0.112793 0.8579102
vt 0.112793 0.8579102
vt 0.112793 0.8579102
vt 0.112793 0.8579102
vt 0.112793 0.8579102
vt 0.112793 0.8579102
vt 0.112793 0.8579102
vt 0.112793 0.8579102
vt 0.112793 0.8579102
vt 0.105957 0.8608398
vt 0.105957 0.8608398
vt 0.105957 0.8608398
vt 0.105957 0.8608398
vt 0.105957 0.8608398
vt 0.105957 0.8608398
vt 0.105957 0.8608398
vt 0.105957 0.8608398
vt 0.105957 0.8608398
vt 0.105957 0.8608398
vt 0.105957 0.8608398
vt 0.105957 0.8608398
vt 0.3603516 0.8564453
vt 0.3603516 0.8564453
vt 0.3603516 0.8564453
vt 0.3603516 0.8564453
vt 0.3603516 0.8564453
vt 0.3603516 0.8564453
vt 0.3603516 0.8564453
vt 0.3603516 0.8564453
vt 0.3603516 0.8564453
vt 0.3603516 0.8564453
vt 0.3603516 0.8564453
vt 0.3603516 0.8564453
vt 0.3603516 0.8564453
vt 0.3603516 0.8564453
vt 0.3603516 0.8564453
vt 0.3603516 0.8564453
vt 0.3603516 0.8564453
vt 0.3603516 0.8564453
vt 0.3603516 0.8564453
vt 0.3603516 0.8564453
vt 0.3603516 0.8564453
vt 0.3603516 0.8564453
vt 0.3603516 0.8564453
vt 0.3603516 0.8564453
vt 0.2050781 0.8666992
vt 0.2050781 0.8515625
vt 0.2001953 0.8515625
vt 0.2124023 0.8515625
vt 0.1967773 0.8515625
vt 0.1967773 0.8598633
vt 0.2041016 0.8544922
vt 0.2109375 0.8549805
vt 0.04248047 0.8583984
vt 0.04248047 0.8583984
vt 0.04248047 0.8583984
vt 0.04248047 0.8583984
vt 0.04248047 0.8583984
vt 0.04248047 0.8583984
vt 0.04248047 0.8583984
vt 0.04248047 0.8583984
vt 0.04248047 0.8583984
vt 0.04248047 0.8583984
vt 0.04248047 0.8583984
vt 0.04248047 0.8583984
vt 0.04248047 0.8583984
vt 0.04248047 0.8583984
vt 0.04248047 0.8583984
vt 0.04248047 0.8583984
vt 0.2006836 0.8618164
vt 0.2006836 0.8618164
vt 0.2006836 0.8618164
vt 0.2006836 0.8618164
vt 0.2006836 0.8618164
vt 0.2006836 0.8618164
vt 0.2006836 0.8618164
vt 0.2006836 0.8618164
vt 0.2006836 0.8618164
vt 0.2006836 0.8618164
vt 0.2006836 0.8618164
vt 0.2006836 0.8618164
vt 0.04248047 0.8583984
vt 0.04248047 0.8583984
vt 0.04248047 0.8583984
vt 0.04248047 0.8583984
vt 0.04248047 0.8583984
vt 0.04248047 0.8583984
vt 0.04248047 0.8583984
vt 0.04248047 0.8583984
vt 0.04248047 0.8583984
vt 0.04248047 0.8583984
vt 0.04248047 0.8583984
vt 0.04248047 0.8583984
vt 0.04248047 0.8583984
vt 0.04248047 0.8583984
vt 0.04248047 0.8583984
vt 0.04248047 0.8583984
vn -1 0 0
vn -1 0 0
vn -1 0 0
vn -1 0 0
vn 1 0 0
vn 1 0 0
vn 1 0 0
vn 1 0 0
vn 1 0 0
vn 1 0 0
vn 1 0 0
vn 1 0 0
vn 0 1 0
vn 0 1 0
vn 0 1 0
vn 0 1 0
vn 0 1 0
vn 0 1 0
vn 0 1 0
vn 0 1 0
vn 0 0.7070313 0.7070313
vn 0 0.7070313 0.7070313
vn 0 0.7070313 0.7070313
vn 0 0.7070313 0.7070313
vn 0 -0.7070313 0.7070313
vn 0 -0.7070313 0.7070313
vn 0 -0.7070313 0.7070313
vn 0 -0.7070313 0.7070313
vn 1 0 0
vn 1 0 0
vn 1 0 0
vn 1 0 0
vn 1 0 0
vn 1 0 0
vn 1 0 0
vn 1 0 0
vn 1 0 0
vn 1 0 0
vn 1 0 0
vn 1 0 0
vn 1 0 0
vn 1 0 0
vn 1 0 0
vn 1 0 0
vn 1 0 0
vn 1 0 0
vn -1 0 0
vn -1 0 0
vn -1 0 0
vn -1 0 0
vn -1 0 0
vn -1 0 0
vn -1 0 0
vn -1 0 0
vn -1 0 0
vn -1 0 0
vn -1 0 0
vn -1 0 0
vn -0.7070313 0.7070313 -1.788139E-07
vn -0.7070313 0.7070313 -1.788139E-07
vn -0.7070313 0.7070313 -1.788139E-07
vn -0.7070313 0.7070313 -1.788139E-07
vn 0 0 1
vn 0 0 1
vn 0 0 1
vn 0 0 1
vn 0 0 1
vn 0 0 1
vn 0 0 1
vn 0 0 1
vn 1 0 0
vn 1 0 0
vn 1 0 0
vn 1 0 0
vn -1 0 0
vn -1 0 0
vn -1 0 0
vn -1 0 0
vn -1 0 0
vn -1 0 0
vn -1 0 0
vn -1 0 0
vn -2.086163E-06 -0.7070313 0.7070313
vn -2.086163E-06 -0.7070313 0.7070313
vn -2.086163E-06 -0.7070313 0.7070313
vn -2.086163E-06 -0.7070313 0.7070313
vn 0 1 0
vn 0 1 0
vn 0 1 0
vn 0 1 0
vn -1 0 0
vn -1 0 0
vn -1 0 0
vn -1 0 0
vn 0 0 -1
vn 0 0 -1
vn 0 0 -1
vn 0 0 -1
vn -0.7070313 -0.7070313 0
vn -0.7070313 -0.7070313 0
vn -0.7070313 -0.7070313 0
vn -0.7070313 -0.7070313 0
vn 0 0 1
vn 0 0 1
vn 0 0 1
vn 0 0 1
vn 0 0 1
vn 0 0 1
vn -0.7070313 -0.7070313 0
vn -0.7070313 -0.7070313 0
vn -0.7070313 -0.7070313 0
vn -0.7070313 -0.7070313 0
vn -1 0 0
vn -1 0 0
vn -1 0 0
vn -1 0 0
vn -1 0 0
vn -0.7070313 0.7070313 -3.576279E-07
vn -0.7070313 0.7070313 -3.576279E-07
vn -0.7070313 0.7070313 -3.576279E-07
vn -0.7070313 0.7070313 -3.576279E-07
vn -0.7070313 0.7070313 -3.576279E-07
vn -1 0 0
vn -1 0 0
vn -1 0 0
vn -1 0 0
vn -1 0 0
vn -1 0 0
vn -1 0 0
vn -1 0 0
vn -1 0 0
vn -1 0 0
vn -1 0 0
vn -1 0 0
vn -1 0 0
vn -1 0 0
vn -1 0 0
vn -1 0 0
vn -1 0 0
vn -1 0 0
vn -1 0 0
vn -1 0 0
vn -1 0 0
vn -1 0 0
vn -1 0 0
vn -1 0 0
vn 0 0 1
vn 0 0 1
vn 0 0 1
vn 0 0 1
vn 2.086163E-06 0.7070313 0.7070313
vn 2.086163E-06 0.7070313 0.7070313
vn 2.086163E-06 0.7070313 0.7070313
vn 2.086163E-06 0.7070313 0.7070313
vn 1 0 0
vn 1 0 0
vn 1 0 0
vn 1 0 0
vn -1 0 0
vn -1 0 0
vn -1 0 0
vn -1 0 0
vn -0.8120117 0.5834961 0
vn -0.8120117 0.5834961 0
vn -0.8120117 0.5834961 0
vn -0.8120117 0.5834961 0
vn -0.8120117 -0.5834961 0
vn -0.8120117 -0.5834961 0
vn -0.8120117 -0.5834961 0
vn -0.8120117 -0.5834961 0
vn -0.6303711 -0.6303711 0.453125
vn -0.6303711 -0.6303711 0.453125
vn -0.6303711 -0.6303711 0.453125
vn -0.6303711 -0.6303711 0.453125
vn -0.6303711 -0.6303711 -0.453125
vn -0.6303711 -0.6303711 -0.453125
vn -0.6303711 -0.6303711 -0.453125
vn -0.6303711 -0.6303711 -0.453125
vn -0.8120117 0 -0.5834961
vn -0.8120117 0 -0.5834961
vn -0.8120117 0 -0.5834961
vn -0.8120117 0 -0.5834961
vn -0.8120117 0 0.5834961
vn -0.8120117 0 0.5834961
vn -0.8120117 0 0.5834961
vn -0.8120117 0 0.5834961
vn -0.6303711 0.6303711 -0.453125
vn -0.6303711 0.6303711 -0.453125
vn -0.6303711 0.6303711 -0.453125
vn -0.6303711 0.6303711 -0.453125
vn -0.6303711 0.6303711 0.453125
vn -0.6303711 0.6303711 0.453125
vn -0.6303711 0.6303711 0.453125
vn -0.6303711 0.6303711 0.453125
vn -0.8120117 0 -0.5834961
vn -0.8120117 0 -0.5834961
vn -0.8120117 0 -0.5834961
vn -0.8120117 0 -0.5834961
vn -0.8120117 0 0.5834961
vn -0.8120117 0 0.5834961
vn -0.8120117 0 0.5834961
vn -0.8120117 0 0.5834961
vn -0.8120117 0 -0.5834961
vn -0.8120117 0 -0.5834961
vn -0.8120117 0 -0.5834961
vn -0.8120117 0 -0.5834961
vn -0.8120117 0 0.5834961
vn -0.8120117 0 0.5834961
vn -0.8120117 0 0.5834961
vn -0.8120117 0 0.5834961
vn 0 0 1
vn 0 0 1
vn 0 0 1
vn 0 0 1
vn 0 0 1
vn 0 0 1
vn 0 0 -1
vn 0 0 -1
vn 0 0 -1
vn 0 0 -1
vn 0 0 -1
vn 0 0 -1
vn -0.7265625 -0.6875 0
vn -0.7265625 -0.6875 0
vn -0.7265625 -0.6875 0
vn -0.7265625 -0.6875 0
vn -0.8100586 0.5864258 0
vn -0.8100586 0.5864258 0
vn -0.8100586 0.5864258 0
vn -0.8100586 0.5864258 0
vn 0 0 1
vn 0 0 1
vn 0 0 1
vn 0 0 1
vn 1 0 0
vn 1 0 0
vn 1 0 0
vn 1 0 0
vn 1.490116E-06 0 -1
vn 1.490116E-06 0 -1
vn 1.490116E-06 0 -1
vn 1.490116E-06 0 -1
vn -1 0 0
vn -1 0 0
vn -1 0 0
vn -1 0 0
vn -0.8603516 0.465332 0.2089844
vn -0.8696289 0.4462891 0.2113037
vn -0.7788086 0.5981445 0.189209
vn -0.9262695 0.3029785 0.2249756
vn -1 0 0
vn -1 0 0
vn -1 0 0
vn -1 0 0
vn 0 0 -1
vn 0 0 -1
vn 0 0 -1
vn 0 0 -1
vn 0 0.7070313 -0.7070313
vn 0 0.7070313 -0.7070313
vn 0 0.7070313 -0.7070313
vn 0 0.7070313 -0.7070313
vn 1 0 0
vn 1 0 0
vn 1 0 0
vn 1 0 0
vn 0 -0.7070313 -0.7070313
vn 0 -0.7070313 -0.7070313
vn 0 -0.7070313 -0.7070313
vn 0 -0.7070313 -0.7070313
vn 0 0 -1
vn 0 0 -1
vn 0 0 -1
vn 0 0 -1
vn 0 -0.7070313 -0.7070313
vn 0 -0.7070313 -0.7070313
vn 0 -0.7070313 -0.7070313
vn 0 -0.7070313 -0.7070313
vn 0 0.7070313 -0.7070313
vn 0 0.7070313 -0.7070313
vn 0 0.7070313 -0.7070313
vn 0 0.7070313 -0.7070313
vn 0 0 -1
vn 0 0 -1
vn 0 0 -1
vn 0 0 -1
vn -1 0 0
vn -1 0 0
vn -1 0 0
vn -1 0 0
vn 0 -0.7070313 -0.7070313
vn 0 -0.7070313 -0.7070313
vn 0 -0.7070313 -0.7070313
vn 0 -0.7070313 -0.7070313
vn 0 0.7070313 -0.7070313
vn 0 0.7070313 -0.7070313
vn 0 0.7070313 -0.7070313
vn 0 0.7070313 -0.7070313
g IL_GateWall_0
f 3/3/3 2/2/2 1/1/1
f 4/4/4 3/3/3 1/1/1
f 7/7/7 6/6/6 5/5/5
f 8/8/8 7/7/7 5/5/5
f 11/11/11 10/10/10 9/9/9
f 12/12/12 11/11/11 9/9/9
f 15/15/15 14/14/14 13/13/13
f 16/16/16 15/15/15 13/13/13
f 16/16/16 13/13/13 17/17/17
f 18/18/18 16/16/16 17/17/17
f 18/18/18 17/17/17 19/19/19
f 20/20/20 18/18/18 19/19/19
f 23/23/23 22/22/22 21/21/21
f 24/24/24 23/23/23 21/21/21
f 27/27/27 26/26/26 25/25/25
f 28/28/28 27/27/27 25/25/25
f 31/31/31 30/30/30 29/29/29
f 32/32/32 31/31/31 29/29/29
f 32/32/32 29/29/29 33/33/33
f 34/34/34 31/31/31 32/32/32
f 35/35/35 32/32/32 33/33/33
f 35/35/35 33/33/33 36/36/36
f 37/37/37 35/35/35 36/36/36
f 38/38/38 34/34/34 32/32/32
f 38/38/38 32/32/32 35/35/35
f 39/39/39 34/34/34 38/38/38
f 40/40/40 39/39/39 38/38/38
f 41/41/41 38/38/38 35/35/35
f 40/40/40 38/38/38 41/41/41
f 41/41/41 35/35/35 37/37/37
f 42/42/42 40/40/40 41/41/41
f 43/43/43 41/41/41 37/37/37
f 42/42/42 41/41/41 43/43/43
f 44/44/44 42/42/42 43/43/43
f 37/37/37 45/45/45 43/43/43
f 45/45/45 46/46/46 43/43/43
f 49/49/49 48/48/48 47/47/47
f 50/50/50 49/49/49 47/47/47
f 53/53/53 52/52/52 51/51/51
f 54/54/54 53/53/53 51/51/51
f 57/57/57 56/56/56 55/55/55
f 58/58/58 57/57/57 55/55/55
f 61/61/61 60/60/60 59/59/59
f 62/62/62 61/61/61 59/59/59
f 65/65/65 64/64/64 63/63/63
f 66/66/66 65/65/65 63/63/63
f 69/69/69 68/68/68 67/67/67
f 70/70/70 69/69/69 67/67/67
f 73/73/73 72/72/72 71/71/71
f 74/74/74 73/73/73 71/71/71
f 77/77/77 76/76/76 75/75/75
f 78/78/78 77/77/77 75/75/75
f 81/81/81 80/80/80 79/79/79
f 82/82/82 81/81/81 79/79/79
f 85/85/85 84/84/84 83/83/83
f 86/86/86 85/85/85 83/83/83
f 89/89/89 88/88/88 87/87/87
f 90/90/90 89/89/89 87/87/87
f 93/93/93 92/92/92 91/91/91
f 94/94/94 93/93/93 91/91/91
f 97/97/97 96/96/96 95/95/95
f 98/98/98 97/97/97 95/95/95
f 101/101/101 100/100/100 99/99/99
f 102/102/102 101/101/101 99/99/99
f 105/105/105 104/104/104 103/103/103
f 103/103/103 106/106/106 105/105/105
f 103/103/103 107/107/107 106/106/106
f 107/107/107 108/108/108 106/106/106
f 111/111/111 110/110/110 109/109/109
f 112/112/112 111/111/111 109/109/109
f 115/115/115 114/114/114 113/113/113
f 113/113/113 116/116/116 115/115/115
f 113/113/113 117/117/117 116/116/116
f 120/120/120 119/119/119 118/118/118
f 118/118/118 121/121/121 120/120/120
f 121/121/121 122/122/122 120/120/120
f 125/125/125 124/124/124 123/123/123
f 123/123/123 126/126/126 125/125/125
f 126/126/126 123/123/123 127/127/127
f 128/128/128 126/126/126 127/127/127
f 128/128/128 127/127/127 129/129/129
f 129/129/129 130/130/130 128/128/128
f 133/133/133 132/132/132 131/131/131
f 134/134/134 133/133/133 131/131/131
f 134/134/134 135/135/135 133/133/133
f 135/135/135 136/136/136 133/133/133
f 136/136/136 135/135/135 137/137/137
f 138/138/138 136/136/136 137/137/137
f 138/138/138 137/137/137 139/139/139
f 140/140/140 138/138/138 139/139/139
f 141/141/141 140/140/140 139/139/139
f 142/142/142 141/141/141 139/139/139
f 145/145/145 144/144/144 143/143/143
f 146/146/146 145/145/145 143/143/143
f 149/149/149 148/148/148 147/147/147
f 150/150/150 149/149/149 147/147/147
f 153/153/153 152/152/152 151/151/151
f 154/154/154 153/153/153 151/151/151
f 157/157/157 156/156/156 155/155/155
f 158/158/158 157/157/157 155/155/155
f 161/161/161 160/160/160 159/159/159
f 162/162/162 161/161/161 159/159/159
f 165/165/165 164/164/164 163/163/163
f 166/166/166 165/165/165 163/163/163
f 169/169/169 168/168/168 167/167/167
f 170/170/170 169/169/169 167/167/167
f 173/173/173 172/172/172 171/171/171
f 174/174/174 173/173/173 171/171/171
f 177/177/177 176/176/176 175/175/175
f 178/178/178 177/177/177 175/175/175
f 181/181/181 180/180/180 179/179/179
f 182/182/182 181/181/181 179/179/179
f 185/185/185 184/184/184 183/183/183
f 186/186/186 185/185/185 183/183/183
f 189/189/189 188/188/188 187/187/187
f 190/190/190 189/189/189 187/187/187
f 193/193/193 192/192/192 191/191/191
f 194/194/194 193/193/193 191/191/191
f 197/197/197 196/196/196 195/195/195
f 198/198/198 197/197/197 195/195/195
f 201/201/201 200/200/200 199/199/199
f 202/202/202 201/201/201 199/199/199
f 205/205/205 204/204/204 203/203/203
f 206/206/206 205/205/205 203/203/203
f 209/209/209 208/208/208 207/207/207
f 210/210/210 209/209/209 207/207/207
f 213/213/213 212/212/212 211/211/211
f 213/213/213 211/211/211 214/214/214
f 215/215/215 213/213/213 214/214/214
f 216/216/216 215/215/215 214/214/214
f 219/219/219 218/218/218 217/217/217
f 219/219/219 217/217/217 220/220/220
f 221/221/221 219/219/219 220/220/220
f 220/220/220 222/222/222 221/221/221
f 225/225/225 224/224/224 223/223/223
f 226/226/226 225/225/225 223/223/223
f 229/229/229 228/228/228 227/227/227
f 230/230/230 229/229/229 227/227/227
f 233/233/233 232/232/232 231/231/231
f 234/234/234 233/233/233 231/231/231
f 237/237/237 236/236/236 235/235/235
f 238/238/238 237/237/237 235/235/235
f 241/241/241 240/240/240 239/239/239
f 242/242/242 241/241/241 239/239/239
f 245/245/245 244/244/244 243/243/243
f 246/246/246 245/245/245 243/243/243
f 249/249/249 248/248/248 247/247/247
f 247/247/247 248/248/248 250/250/250
f 253/253/253 252/252/252 251/251/251
f 254/254/254 253/253/253 251/251/251
f 257/257/257 256/256/256 255/255/255
f 258/258/258 257/257/257 255/255/255
f 261/261/261 260/260/260 259/259/259
f 262/262/262 261/261/261 259/259/259
f 265/265/265 264/264/264 263/263/263
f 266/266/266 265/265/265 263/263/263
f 269/269/269 268/268/268 267/267/267
f 270/270/270 269/269/269 267/267/267
f 273/273/273 272/272/272 271/271/271
f 274/274/274 273/273/273 271/271/271
f 277/277/277 276/276/276 275/275/275
f 278/278/278 277/277/277 275/275/275
f 281/281/281 280/280/280 279/279/279
f 282/282/282 281/281/281 279/279/279
f 285/285/285 284/284/284 283/283/283
f 286/286/286 285/285/285 283/283/283
f 289/289/289 288/288/288 287/287/287
f 290/290/290 289/289/289 287/287/287
f 293/293/293 292/292/292 291/291/291
f 294/294/294 293/293/293 291/291/291
f 297/297/297 296/296/296 295/295/295
f 298/298/298 297/297/297 295/295/295
