g IL_LockWall
v -0.09246711 3 0.09246711
v -0.09246711 3 0.9075329
v -0.4075329 3 0.9075329
v -0.4075329 3 0.09246711
v 0 0 1
v -0.5 0 1
v -0.5 3 1
v 0 3 1
v -0.5 0 1
v -0.5 0 0
v -0.5 3 0
v -0.5 3 1
v -0.5 0 0
v -0.5 0 1
v 0 0 1
v 0 0 0
v 0 0 0
v 0 0 1
v 0 3 1
v 0 3 0
v -0.5 0 0
v 0 0 0
v 0 3 0
v -0.5 3 0
v -0.09246711 3 0.9075329
v 0 3 1
v -0.5 3 1
v -0.4075329 3 0.9075329
v -0.09246711 3 0.09246711
v -0.5 3 0
v 0 3 0
v -0.4075329 3 0.09246711
vt 0.7827148 0.2064209
vt 0.7827148 0.2064209
vt 0.7792969 0.2064209
vt 0.7792969 0.2064209
vt 0.8535156 0.1802979
vt 0.8476563 0.1802979
vt 0.8476563 0.2252197
vt 0.8535156 0.2252197
vt 0.8476563 0.1802979
vt 0.8476563 0.1802979
vt 0.8476563 0.2252197
vt 0.8476563 0.2252197
vt 0.8476563 0.1802979
vt 0.8476563 0.1802979
vt 0.8535156 0.1802979
vt 0.8535156 0.1802979
vt 0.8535156 0.1802979
vt 0.8535156 0.1802979
vt 0.8535156 0.2252197
vt 0.8535156 0.2252197
vt 0.8476563 0.1802979
vt 0.8535156 0.1802979
vt 0.8535156 0.2252197
vt 0.8476563 0.2252197
vt 0.8525391 0.2252197
vt 0.8535156 0.2252197
vt 0.8476563 0.2252197
vt 0.8486328 0.2252197
vt 0.8525391 0.2252197
vt 0.8476563 0.2252197
vt 0.8535156 0.2252197
vt 0.8486328 0.2252197
vn 0 1 0
vn 0 1 0
vn 0 1 0
vn 0 1 0
vn 0 0 1
vn 0 0 1
vn 0 0 1
vn 0 0 1
vn -1 0 0
vn -1 0 0
vn -1 0 0
vn -1 0 0
vn 0 -1 0
vn 0 -1 0
vn 0 -1 0
vn 0 -1 0
vn 1 0 0
vn 1 0 0
vn 1 0 0
vn 1 0 0
vn 0 0 -1
vn 0 0 -1
vn 0 0 -1
vn 0 0 -1
vn 0 1 0
vn 0 1 0
vn 0 1 0
vn 0 1 0
vn 0 1 0
vn 0 1 0
vn 0 1 0
vn 0 1 0
g IL_LockWall_0
f 3/3/3 2/2/2 1/1/1
f 4/4/4 3/3/3 1/1/1
f 7/7/7 6/6/6 5/5/5
f 8/8/8 7/7/7 5/5/5
f 11/11/11 10/10/10 9/9/9
f 12/12/12 11/11/11 9/9/9
f 15/15/15 14/14/14 13/13/13
f 16/16/16 15/15/15 13/13/13
f 19/19/19 18/18/18 17/17/17
f 20/20/20 19/19/19 17/17/17
f 23/23/23 22/22/22 21/21/21
f 24/24/24 23/23/23 21/21/21
f 27/27/27 26/26/26 25/25/25
f 28/28/28 27/27/27 25/25/25
f 25/25/25 26/26/26 29/29/29
f 30/30/30 27/27/27 28/28/28
f 26/26/26 31/31/31 29/29/29
f 32/32/32 30/30/30 28/28/28
f 29/29/29 31/31/31 32/32/32
f 31/31/31 30/30/30 32/32/32
