g IL_Lamp_sh_2
v 0.03001577 -0.2124225 0.02811301
v 0.01582763 -0.2124225 0.06236622
v 0.01582763 -0.2124225 -0.006140199
v 0.134283 -0.2645311 0.1808216
v 0.1975369 -0.2645311 0.02811301
v -0.01842559 -0.2124225 -0.02032835
v 0.134283 -0.2645311 -0.1245955
v 0.1354228 -0.3166396 0.1819613
v 0.1991488 -0.3166396 0.02811301
v -0.05267881 -0.2124225 -0.006140202
v -0.0184256 -0.2645311 -0.1878495
v 0.1354228 -0.3166396 -0.1257353
v -0.0184256 -0.3166396 -0.1894614
v -0.1711342 -0.2645311 -0.1245956
v -0.1722739 -0.3166396 -0.1257353
v 0.01104288 -0.2197015 0.08774874
v 0.1238525 -0.2645311 0.185142
v -0.007273827 -0.2124225 0.07193516
v 0.1233861 -0.2682494 0.1854502
v 0.117316 -0.3166396 0.1894614
v 0.07750248 -0.3166396 0.15797
v -0.1700498 -0.3166396 -0.03783716
v -0.06583288 -0.2124225 0.02561655
v -0.07120161 -0.2145889 0.02176453
v -0.1991488 -0.3166396 -0.06085365
v -0.194974 -0.2645311 -0.06704103
v -0.1974563 -0.2955137 -0.06336214
v 0.03001577 0.1901738 0.02811301
v 0.02658741 0.2207324 0.01983623
v 0.01723351 -0.0347963 0.05897211
v 0.01582763 0.3166396 -0.006140199
v 0.01582763 -0.05954012 0.06236622
v 0.006102683 0.2965201 -0.0101684
v -0.01842559 0.2457749 -0.02032835
v -0.02619803 0.1943381 -0.0171089
v -0.05267881 0.01909158 -0.006140202
v -0.05428716 -0.009215742 -0.002257302
v 0.03001577 -0.2124225 0.02811301
v 0.03001577 -0.2124225 0.02811301
v 0.03001577 -0.2124225 0.02811301
v 0.03001577 -0.2124225 0.02811301
v 0.03001577 -0.2124225 0.02811301
v 0.03001577 -0.2124225 0.02811301
v 0.01582763 -0.2124225 0.06236622
v 0.01582763 -0.2124225 0.06236622
v 0.01582763 -0.2124225 0.06236622
v 0.01582763 -0.2124225 0.06236622
v 0.01582763 -0.2124225 0.06236622
v 0.01582763 -0.2124225 -0.006140199
v 0.01582763 -0.2124225 -0.006140199
v 0.01582763 -0.2124225 -0.006140199
v 0.01582763 -0.2124225 -0.006140199
v 0.01582763 -0.2124225 -0.006140199
v 0.01582763 -0.2124225 -0.006140199
v 0.01582763 -0.2124225 -0.006140199
v 0.134283 -0.2645311 0.1808216
v 0.134283 -0.2645311 0.1808216
v 0.134283 -0.2645311 0.1808216
v 0.134283 -0.2645311 0.1808216
v 0.134283 -0.2645311 0.1808216
v 0.134283 -0.2645311 0.1808216
v 0.1975369 -0.2645311 0.02811301
v 0.1975369 -0.2645311 0.02811301
v 0.1975369 -0.2645311 0.02811301
v 0.1975369 -0.2645311 0.02811301
v 0.1975369 -0.2645311 0.02811301
v -0.01842559 -0.2124225 -0.02032835
v -0.01842559 -0.2124225 -0.02032835
v -0.01842559 -0.2124225 -0.02032835
v -0.01842559 -0.2124225 -0.02032835
v -0.01842559 -0.2124225 -0.02032835
v -0.01842559 -0.2124225 -0.02032835
v 0.134283 -0.2645311 -0.1245955
v 0.134283 -0.2645311 -0.1245955
v 0.134283 -0.2645311 -0.1245955
v 0.134283 -0.2645311 -0.1245955
v 0.134283 -0.2645311 -0.1245955
v 0.1354228 -0.3166396 0.1819613
v 0.1354228 -0.3166396 0.1819613
v 0.1354228 -0.3166396 0.1819613
v 0.1354228 -0.3166396 0.1819613
v 0.1354228 -0.3166396 0.1819613
v 0.1354228 -0.3166396 0.1819613
v 0.1354228 -0.3166396 0.1819613
v 0.1354228 -0.3166396 0.1819613
v 0.1991488 -0.3166396 0.02811301
v 0.1991488 -0.3166396 0.02811301
v 0.1991488 -0.3166396 0.02811301
v -0.05267881 -0.2124225 -0.006140202
v -0.05267881 -0.2124225 -0.006140202
v -0.05267881 -0.2124225 -0.006140202
v -0.05267881 -0.2124225 -0.006140202
v -0.05267881 -0.2124225 -0.006140202
v -0.0184256 -0.2645311 -0.1878495
v -0.0184256 -0.2645311 -0.1878495
v -0.0184256 -0.2645311 -0.1878495
v -0.0184256 -0.2645311 -0.1878495
v -0.0184256 -0.2645311 -0.1878495
v 0.1354228 -0.3166396 -0.1257353
v 0.1354228 -0.3166396 -0.1257353
v 0.1354228 -0.3166396 -0.1257353
v 0.1354228 -0.3166396 -0.1257353
v -0.0184256 -0.3166396 -0.1894614
v -0.0184256 -0.3166396 -0.1894614
v -0.0184256 -0.3166396 -0.1894614
v -0.0184256 -0.3166396 -0.1894614
v -0.0184256 -0.3166396 -0.1894614
v -0.0184256 -0.3166396 -0.1894614
v -0.1711342 -0.2645311 -0.1245956
v -0.1711342 -0.2645311 -0.1245956
v -0.1711342 -0.2645311 -0.1245956
v -0.1711342 -0.2645311 -0.1245956
v -0.1711342 -0.2645311 -0.1245956
v -0.1711342 -0.2645311 -0.1245956
v -0.1722739 -0.3166396 -0.1257353
v -0.1722739 -0.3166396 -0.1257353
v -0.1722739 -0.3166396 -0.1257353
v -0.1722739 -0.3166396 -0.1257353
v 0.01104288 -0.2197015 0.08774874
v 0.01104288 -0.2197015 0.08774874
v 0.01104288 -0.2197015 0.08774874
v 0.01104288 -0.2197015 0.08774874
v 0.01104288 -0.2197015 0.08774874
v 0.01104288 -0.2197015 0.08774874
v 0.1238525 -0.2645311 0.185142
v 0.1238525 -0.2645311 0.185142
v -0.007273827 -0.2124225 0.07193516
v -0.007273827 -0.2124225 0.07193516
v -0.007273827 -0.2124225 0.07193516
v -0.007273827 -0.2124225 0.07193516
v 0.1233861 -0.2682494 0.1854502
v 0.1233861 -0.2682494 0.1854502
v 0.1233861 -0.2682494 0.1854502
v 0.1233861 -0.2682494 0.1854502
v 0.1233861 -0.2682494 0.1854502
v 0.117316 -0.3166396 0.1894614
v 0.117316 -0.3166396 0.1894614
v 0.07750248 -0.3166396 0.15797
v 0.07750248 -0.3166396 0.15797
v 0.07750248 -0.3166396 0.15797
v 0.07750248 -0.3166396 0.15797
v -0.1700498 -0.3166396 -0.03783716
v -0.1700498 -0.3166396 -0.03783716
v -0.1700498 -0.3166396 -0.03783716
v -0.1700498 -0.3166396 -0.03783716
v -0.1700498 -0.3166396 -0.03783716
v -0.1700498 -0.3166396 -0.03783716
v -0.1700498 -0.3166396 -0.03783716
v -0.1700498 -0.3166396 -0.03783716
v -0.1700498 -0.3166396 -0.03783716
v -0.06583288 -0.2124225 0.02561655
v -0.06583288 -0.2124225 0.02561655
v -0.06583288 -0.2124225 0.02561655
v -0.06583288 -0.2124225 0.02561655
v -0.06583288 -0.2124225 0.02561655
v -0.06583288 -0.2124225 0.02561655
v -0.06583288 -0.2124225 0.02561655
v -0.07120161 -0.2145889 0.02176453
v -0.07120161 -0.2145889 0.02176453
v -0.07120161 -0.2145889 0.02176453
v -0.1991488 -0.3166396 -0.06085365
v -0.1991488 -0.3166396 -0.06085365
v -0.1991488 -0.3166396 -0.06085365
v -0.194974 -0.2645311 -0.06704103
v -0.194974 -0.2645311 -0.06704103
v -0.194974 -0.2645311 -0.06704103
v -0.194974 -0.2645311 -0.06704103
v -0.1974563 -0.2955137 -0.06336214
v -0.1974563 -0.2955137 -0.06336214
v -0.1974563 -0.2955137 -0.06336214
v 0.03001577 0.1901738 0.02811301
v 0.03001577 0.1901738 0.02811301
v 0.03001577 0.1901738 0.02811301
v 0.03001577 0.1901738 0.02811301
v 0.02658741 0.2207324 0.01983623
v 0.02658741 0.2207324 0.01983623
v 0.02658741 0.2207324 0.01983623
v 0.02658741 0.2207324 0.01983623
v 0.02658741 0.2207324 0.01983623
v 0.02658741 0.2207324 0.01983623
v 0.01723351 -0.0347963 0.05897211
v 0.01723351 -0.0347963 0.05897211
v 0.01723351 -0.0347963 0.05897211
v 0.01723351 -0.0347963 0.05897211
v 0.01723351 -0.0347963 0.05897211
v 0.01723351 -0.0347963 0.05897211
v 0.01582763 0.3166396 -0.006140199
v 0.01582763 0.3166396 -0.006140199
v 0.01582763 -0.05954012 0.06236622
v 0.01582763 -0.05954012 0.06236622
v 0.01582763 -0.05954012 0.06236622
v 0.006102683 0.2965201 -0.0101684
v 0.006102683 0.2965201 -0.0101684
v 0.006102683 0.2965201 -0.0101684
v -0.01842559 0.2457749 -0.02032835
v -0.01842559 0.2457749 -0.02032835
v -0.01842559 0.2457749 -0.02032835
v -0.01842559 0.2457749 -0.02032835
v -0.02619803 0.1943381 -0.0171089
v -0.02619803 0.1943381 -0.0171089
v -0.02619803 0.1943381 -0.0171089
v -0.02619803 0.1943381 -0.0171089
v -0.05267881 0.01909158 -0.006140202
v -0.05267881 0.01909158 -0.006140202
v -0.05267881 0.01909158 -0.006140202
v -0.05267881 0.01909158 -0.006140202
v -0.05267881 0.01909158 -0.006140202
v -0.05428716 -0.009215742 -0.002257302
v -0.05428716 -0.009215742 -0.002257302
v -0.05428716 -0.009215742 -0.002257302
vt 0.2726807 0.8941931
vt 0.2721982 0.8941931
vt 0.2721982 0.8941931
vt 0.2762266 0.8924209
vt 0.2783777 0.8924209
vt 0.2710333 0.8941931
vt 0.2762266 0.8924209
vt 0.2762654 0.8906488
vt 0.2784325 0.8906488
vt 0.2698685 0.8941931
vt 0.2710333 0.8924209
vt 0.2762654 0.8906488
vt 0.009506034 0.01951899
vt 0.2658401 0.8924209
vt 0.2658013 0.8906488
vt 0.2720355 0.8939455
vt 0.2758719 0.8924209
vt 0.2714126 0.8941931
vt 0.275856 0.8922945
vt 0.2756496 0.8906488
vt 0.0254951 0.0151043
vt 0.0164839 0.02649685
vt 0.2694211 0.894193
vt 0.2692386 0.8941194
vt 0.01542466 0.02783601
vt 0.2650293 0.8924209
vt 0.2649449 0.8913673
vt 0.2726807 0.9078807
vt 0.2725642 0.9089203
vt 0.272246 0.900234
vt 0.2721982 0.912181
vt 0.2721982 0.8993909
vt 0.2718675 0.9114999
vt 0.2710333 0.9097759
vt 0.270769 0.9080253
vt 0.2698685 0.9020651
vt 0.2698137 0.9011026
vt 0.2726807 0.8941931
vt 0.2726807 0.8941931
vt 0.2726807 0.8941931
vt 0.2726807 0.8941931
vt 0.2726807 0.8941931
vt 0.2726807 0.8941931
vt 0.2721982 0.8941931
vt 0.2721982 0.8941931
vt 0.2721982 0.8941931
vt 0.2721982 0.8941931
vt 0.2721982 0.8941931
vt 0.2721982 0.8941931
vt 0.2721982 0.8941931
vt 0.2721982 0.8941931
vt 0.2721982 0.8941931
vt 0.2721982 0.8941931
vt 0.2721982 0.8941931
vt 0.2721982 0.8941931
vt 0.2762266 0.8924209
vt 0.2762266 0.8924209
vt 0.2762266 0.8924209
vt 0.2762266 0.8924209
vt 0.2762266 0.8924209
vt 0.2762266 0.8924209
vt 0.2783777 0.8924209
vt 0.2783777 0.8924209
vt 0.2783777 0.8924209
vt 0.2783777 0.8924209
vt 0.2783777 0.8924209
vt 0.2710333 0.8941931
vt 0.2710333 0.8941931
vt 0.2710333 0.8941931
vt 0.2710333 0.8941931
vt 0.2710333 0.8941931
vt 0.2710333 0.8941931
vt 0.2762266 0.8924209
vt 0.2762266 0.8924209
vt 0.2762266 0.8924209
vt 0.2762266 0.8924209
vt 0.2762266 0.8924209
vt 0.2762654 0.8906488
vt 0.0265992 0.01243876
vt 0.0265992 0.01243876
vt 0.2762654 0.8906488
vt 0.2762654 0.8906488
vt 0.0265992 0.01243876
vt 0.0265992 0.01243876
vt 0.0265992 0.01243876
vt 0.2784325 0.8906488
vt 0.2784325 0.8906488
vt 0.01951898 0.009506042
vt 0.2698685 0.8941931
vt 0.2698685 0.8941931
vt 0.2698685 0.8941931
vt 0.2698685 0.8941931
vt 0.2698685 0.8941931
vt 0.2710333 0.8924209
vt 0.2710333 0.8924209
vt 0.2710333 0.8924209
vt 0.2710333 0.8924209
vt 0.2710333 0.8924209
vt 0.01243876 0.01243876
vt 0.2762654 0.8906488
vt 0.01243876 0.01243876
vt 0.2762654 0.8906488
vt 0.2710333 0.8906488
vt 0.2710333 0.8906488
vt 0.2710333 0.8906488
vt 0.009506034 0.01951899
vt 0.009506034 0.01951899
vt 0.009506034 0.01951899
vt 0.2658401 0.8924209
vt 0.2658401 0.8924209
vt 0.2658401 0.8924209
vt 0.2658401 0.8924209
vt 0.2658401 0.8924209
vt 0.2658401 0.8924209
vt 0.01243876 0.02659921
vt 0.2658013 0.8906488
vt 0.2658013 0.8906488
vt 0.2658013 0.8906488
vt 0.2720355 0.8939455
vt 0.2720355 0.8939455
vt -0.007485008 0.02462233
vt -0.007485008 0.02462233
vt -0.007485008 0.02462233
vt -0.007485008 0.02462233
vt 0.2758719 0.8924209
vt -0.03613871 0.01323558
vt 0.2714126 0.8941931
vt -0.002832556 0.02647118
vt -0.002832556 0.02647118
vt -0.002832556 0.02647118
vt 0.275856 0.8922945
vt 0.275856 0.8922945
vt -0.03602023 0.01229112
vt -0.03602023 0.01229112
vt -0.03602023 0.01229112
vt 0.02694437 0.01327205
vt -0.03447844 0
vt 0.0254951 0.0151043
vt -0.02436578 0
vt -0.02436578 0
vt -0.02436578 0
vt 0.0164839 0.02649685
vt 0.0164839 0.02649685
vt 0.03851263 0
vt 0.03851263 0
vt 0.03851263 0
vt 0.03851263 0
vt 0.03851263 0
vt 0.03851263 0
vt 0.03851263 0
vt 0.2694211 0.894193
vt 0.2694211 0.8941931
vt 0.01204147 0.02647118
vt 0.01204147 0.02647118
vt 0.01204147 0.02647118
vt 0.01204147 0.02647118
vt 0.01204147 0.02647118
vt 0.2692386 0.8941194
vt 0.01340513 0.02592094
vt 0.01340513 0.02592094
vt 0.01542466 0.02783601
vt 0.2648874 0.8906488
vt 0.04590379 0
vt 0.2650293 0.8924209
vt 0.2650293 0.8924209
vt 0.04484339 0.01323558
vt 0.04484339 0.01323558
vt 0.2649449 0.8913672
vt 0.04547388 0.005365969
vt 0.04547388 0.005365969
vt 0.2726807 0.9078845
vt -0.01230413 0.1287309
vt -0.01230413 0.1287309
vt -0.01230413 0.1287309
vt 0.2725641 0.9089237
vt 0.2725641 0.9089237
vt -0.01143333 0.1364928
vt -0.01143333 0.1364928
vt -0.01143333 0.1364928
vt -0.01143333 0.1364928
vt 0.272246 0.9002337
vt 0.272246 0.9002337
vt -0.009057431 0.07158834
vt -0.009057431 0.07158834
vt -0.009057431 0.07158834
vt -0.009057431 0.07158834
vt 0.2721982 0.9121853
vt -0.008700336 0.1608532
vt 0.2721982 0.8993922
vt -0.008700336 0.06530339
vt -0.008700336 0.06530339
vt 0.2718675 0.9115011
vt -0.006230196 0.1557429
vt -0.006230196 0.1557429
vt 0.2710333 0.9097753
vt 0.2710333 0.9097753
vt -1.449747E-09 0.1428536
vt -1.449747E-09 0.1428536
vt 0.270769 0.908026
vt 0.001974201 0.1297886
vt 0.001974201 0.1297886
vt 0.001974201 0.1297886
vt 0.2698685 0.9020663
vt 0.2698685 0.9020663
vt 0.008700334 0.08527588
vt 0.008700334 0.08527588
vt 0.008700334 0.08527588
vt 0.2698137 0.9011037
vt 0.009108855 0.07808581
vt 0.009108855 0.07808581
vn 0.7394441 0.673218 0
vn 0.5228592 0.6732285 0.5228592
vn 0.5228592 0.6732285 -0.5228592
vn 0.5928606 0.5450069 0.5928606
vn 0.8384269 0.5450141 0
vn 0 0.673218 -0.7394441
vn 0.5928606 0.5450069 -0.5928606
vn 0.7067688 0.03091617 0.7067688
vn 0.999522 0.03091557 0
vn -0.5228592 0.6732285 -0.5228592
vn 0 0.5450141 -0.8384269
vn 0.7067688 0.03091617 -0.7067688
vn 0 -1 0
vn -0.5928606 0.5450069 -0.5928606
vn -0.7067688 0.03091617 -0.7067688
vn 0.4607317 0.6712119 0.58069
vn 0.5597491 0.552292 0.617782
vn 0.1765479 0.6982214 0.6937706
vn 0.565383 0.5220126 0.6386274
vn 0.6434449 0.03190102 0.7648274
vn 0 -1 0
vn 0 -1 0
vn -0.7316192 0.680624 -0.0385259
vn -0.7391065 0.6731303 -0.02484214
vn 0 -1 0
vn -0.7211694 0.573442 -0.3886887
vn -0.8437215 0.2656567 -0.4664338
vn 0.836811 0.5474918 0
vn 0.8054224 0.5620776 -0.1880518
vn 0.5960972 0.6341287 0.4924925
vn 0.6113063 0.5026023 -0.6113063
vn 0.5498589 0.6287371 0.5498589
vn 0.4170568 0.5369984 -0.7332779
vn 0 0.5279943 -0.8492479
vn -0.1758326 0.5703898 -0.8023331
vn -0.563409 0.6042687 -0.563409
vn -0.6067784 0.6277876 -0.4875477
vn 0.7394441 0.673218 0
vn 0.7394441 0.673218 0
vn 0.7394441 0.673218 0
vn 0.7394441 0.673218 0
vn 0.7394441 0.673218 0
vn 0.7394441 0.673218 0
vn 0.5228592 0.6732285 0.5228592
vn 0.5228592 0.6732285 0.5228592
vn 0.5228592 0.6732285 0.5228592
vn 0.5228592 0.6732285 0.5228592
vn 0.5228592 0.6732285 0.5228592
vn 0.5228592 0.6732285 -0.5228592
vn 0.5228592 0.6732285 -0.5228592
vn 0.5228592 0.6732285 -0.5228592
vn 0.5228592 0.6732285 -0.5228592
vn 0.5228592 0.6732285 -0.5228592
vn 0.5228592 0.6732285 -0.5228592
vn 0.5228592 0.6732285 -0.5228592
vn 0.5928606 0.5450069 0.5928606
vn 0.5928606 0.5450069 0.5928606
vn 0.5928606 0.5450069 0.5928606
vn 0.5928606 0.5450069 0.5928606
vn 0.5928606 0.5450069 0.5928606
vn 0.5928606 0.5450069 0.5928606
vn 0.8384269 0.5450141 0
vn 0.8384269 0.5450141 0
vn 0.8384269 0.5450141 0
vn 0.8384269 0.5450141 0
vn 0.8384269 0.5450141 0
vn 0 0.673218 -0.7394441
vn 0 0.673218 -0.7394441
vn 0 0.673218 -0.7394441
vn 0 0.673218 -0.7394441
vn 0 0.673218 -0.7394441
vn 0 0.673218 -0.7394441
vn 0.5928606 0.5450069 -0.5928606
vn 0.5928606 0.5450069 -0.5928606
vn 0.5928606 0.5450069 -0.5928606
vn 0.5928606 0.5450069 -0.5928606
vn 0.5928606 0.5450069 -0.5928606
vn 0.7067688 0.03091617 0.7067688
vn 0 -1 0
vn 0 -1 0
vn 0.7067688 0.03091617 0.7067688
vn 0.7067688 0.03091617 0.7067688
vn 0 -1 0
vn 0 -1 0
vn 0 -1 0
vn 0.999522 0.03091557 0
vn 0.999522 0.03091557 0
vn 0 -1 0
vn -0.5228592 0.6732285 -0.5228592
vn -0.5228592 0.6732285 -0.5228592
vn -0.5228592 0.6732285 -0.5228592
vn -0.5228592 0.6732285 -0.5228592
vn -0.5228592 0.6732285 -0.5228592
vn 0 0.5450141 -0.8384269
vn 0 0.5450141 -0.8384269
vn 0 0.5450141 -0.8384269
vn 0 0.5450141 -0.8384269
vn 0 0.5450141 -0.8384269
vn 0 -1 0
vn 0.7067688 0.03091617 -0.7067688
vn 0 -1 0
vn 0.7067688 0.03091617 -0.7067688
vn 0 0.03091557 -0.999522
vn 0 0.03091557 -0.999522
vn 0 0.03091557 -0.999522
vn 0 -1 0
vn 0 -1 0
vn 0 -1 0
vn -0.5928606 0.5450069 -0.5928606
vn -0.5928606 0.5450069 -0.5928606
vn -0.5928606 0.5450069 -0.5928606
vn -0.5928606 0.5450069 -0.5928606
vn -0.5928606 0.5450069 -0.5928606
vn -0.5928606 0.5450069 -0.5928606
vn 0 -1 0
vn -0.7067688 0.03091617 -0.7067688
vn -0.7067688 0.03091617 -0.7067688
vn -0.7067688 0.03091617 -0.7067688
vn 0.4607317 0.6712119 0.58069
vn 0.4607316 0.6712119 0.5806901
vn -0.6141363 0.1413952 0.7764304
vn -0.6141354 0.1413965 0.7764307
vn -0.6141355 0.1413965 0.7764307
vn -0.6141355 0.1413964 0.7764307
vn 0.5597491 0.552292 0.6177819
vn -0.6141363 0.1413952 0.7764304
vn 0.1765476 0.698221 0.6937711
vn -0.6141355 0.1413965 0.7764306
vn -0.6141355 0.1413964 0.7764307
vn -0.6141356 0.1413966 0.7764307
vn 0.5653831 0.5220123 0.6386275
vn 0.5653831 0.5220123 0.6386275
vn -0.6141356 0.1413967 0.7764307
vn -0.6141363 0.1413952 0.7764304
vn -0.6141354 0.1413965 0.7764307
vn 0 -1 0
vn -0.6141356 0.1413967 0.7764307
vn 0 -1 0
vn -0.6141356 0.1413967 0.7764307
vn -0.6141354 0.1413965 0.7764307
vn -0.6141355 0.1413965 0.7764307
vn 0 -1 0
vn 0 -1 0
vn -0.6141354 0.1413968 0.7764308
vn -0.6141355 0.1413965 0.7764307
vn -0.6141355 0.1413964 0.7764307
vn -0.6141356 0.1413966 0.7764307
vn -0.6141354 0.1413963 0.7764308
vn -0.6141354 0.1413963 0.7764308
vn -0.6141359 0.1413958 0.7764305
vn -0.7316192 0.680624 -0.0385259
vn -0.7316191 0.6806241 -0.03852657
vn -0.6141356 0.1413966 0.7764306
vn -0.6141355 0.1413966 0.7764307
vn -0.6141355 0.1413965 0.7764306
vn -0.6141356 0.1413966 0.7764307
vn -0.6141354 0.1413963 0.7764308
vn -0.7391065 0.6731304 -0.02484024
vn -0.6141354 0.1413963 0.7764308
vn -0.6141354 0.1413963 0.7764308
vn 0 -1 0
vn -0.8966798 0.03339057 -0.4414187
vn -0.6141354 0.1413968 0.7764308
vn -0.7211694 0.5734421 -0.3886886
vn -0.7211694 0.5734421 -0.3886886
vn -0.6141354 0.1413963 0.7764308
vn -0.6141359 0.1413958 0.7764305
vn -0.8437215 0.2656567 -0.4664338
vn -0.6141354 0.1413968 0.7764308
vn -0.6141359 0.1413958 0.7764305
vn 0.8368365 0.5474528 0
vn -0.6141354 0.1413963 0.7764308
vn -0.6141354 0.1413964 0.7764308
vn -0.6141356 0.1413965 0.7764307
vn 0.8054337 0.5620462 -0.1880976
vn 0.8054337 0.5620462 -0.1880976
vn -0.6141363 0.1413962 0.7764301
vn -0.6141356 0.1413966 0.7764305
vn -0.6141356 0.1413968 0.7764306
vn -0.6141354 0.1413963 0.7764308
vn 0.5960937 0.6341307 0.4924941
vn 0.5960937 0.6341307 0.4924941
vn -0.6141356 0.1413965 0.7764307
vn -0.6141357 0.1413962 0.7764306
vn -0.6141356 0.1413966 0.7764306
vn -0.6141355 0.1413966 0.7764307
vn 0.611325 0.5025567 -0.6113251
vn -0.6141363 0.1413962 0.7764301
vn 0.549866 0.6287248 0.549866
vn -0.6141355 0.1413966 0.7764307
vn -0.6141355 0.1413965 0.7764306
vn 0.4170479 0.5369869 -0.7332913
vn -0.6141363 0.1413962 0.7764301
vn -0.6141356 0.1413966 0.7764305
vn 0 0.5279995 -0.8492447
vn 0 0.5279995 -0.8492447
vn -0.6141356 0.1413966 0.7764305
vn -0.6141356 0.1413968 0.7764306
vn -0.1758419 0.5703835 -0.8023355
vn -0.6141356 0.1413968 0.7764306
vn -0.6141354 0.1413963 0.7764308
vn -0.6141354 0.1413964 0.7764308
vn -0.5634154 0.6042567 -0.5634154
vn -0.5634154 0.6042567 -0.5634154
vn -0.6141354 0.1413964 0.7764308
vn -0.6141356 0.1413965 0.7764307
vn -0.6141357 0.1413962 0.7764306
vn -0.6067798 0.627777 -0.4875596
vn -0.6141357 0.1413962 0.7764306
vn -0.6141356 0.1413966 0.7764306
g IL_Lamp_sh_2_0
f 1/1/1 2/2/2 4/4/4
f 3/3/3 38/38/38 5/5/5
f 62/62/62 39/39/39 56/56/56
f 7/7/7 49/49/49 63/63/63
f 64/64/64 57/57/57 8/8/8
f 6/6/6 50/50/50 73/73/73
f 74/74/74 65/65/65 9/9/9
f 86/86/86 66/66/66 78/78/78
f 11/11/11 67/67/67 75/75/75
f 12/12/12 76/76/76 87/87/87
f 99/99/99 88/88/88 79/79/79
f 10/10/10 68/68/68 94/94/94
f 95/95/95 77/77/77 100/100/100
f 13/13/13 101/101/101 80/80/80
f 14/14/14 89/89/89 96/96/96
f 103/103/103 97/97/97 102/102/102
f 109/109/109 98/98/98 104/104/104
f 15/15/15 110/110/110 105/105/105
f 17/17/17 58/58/58 16/16/16
f 59/59/59 44/44/44 119/119/119
f 45/45/45 18/18/18 120/120/120
f 60/60/60 125/125/125 19/19/19
f 20/20/20 81/81/81 131/131/131
f 82/82/82 61/61/61 132/132/132
f 83/83/83 136/136/136 21/21/21
f 22/22/22 106/106/106 84/84/84
f 138/138/138 142/142/142 85/85/85
f 23/23/23 90/90/90 111/111/111
f 24/24/24 151/151/151 112/112/112
f 25/25/25 115/115/115 107/107/107
f 143/143/143 161/161/161 108/108/108
f 26/26/26 158/158/158 113/113/113
f 162/162/162 27/27/27 116/116/116
f 164/164/164 114/114/114 117/117/117
f 168/168/168 165/165/165 118/118/118
f 29/29/29 28/28/28 40/40/40
f 30/30/30 32/32/32 46/46/46
f 33/33/33 31/31/31 51/51/51
f 35/35/35 34/34/34 69/69/69
f 37/37/37 36/36/36 91/91/91
f 92/92/92 152/152/152 208/208/208
f 41/41/41 171/171/171 181/181/181
f 182/182/182 47/47/47 42/42/42
f 52/52/52 187/187/187 175/175/175
f 176/176/176 43/43/43 53/53/53
f 127/127/127 48/48/48 189/189/189
f 195/195/195 192/192/192 54/54/54
f 55/55/55 70/70/70 196/196/196
f 203/203/203 199/199/199 71/71/71
f 72/72/72 93/93/93 204/204/204
g IL_Lamp_sh_2_1
f 177/177/177 188/188/188 193/193/193
f 178/178/178 194/194/194 197/197/197
f 179/179/179 198/198/198 200/200/200
f 172/172/172 180/180/180 201/201/201
f 169/169/169 163/163/163 144/144/144
f 173/173/173 202/202/202 205/205/205
f 183/183/183 174/174/174 206/206/206
f 184/184/184 207/207/207 209/209/209
f 185/185/185 210/210/210 153/153/153
f 190/190/190 186/186/186 154/154/154
f 128/128/128 191/191/191 155/155/155
f 139/139/139 137/137/137 133/133/133
f 134/134/134 126/126/126 121/121/121
f 140/140/140 135/135/135 122/122/122
f 145/145/145 141/141/141 123/123/123
f 146/146/146 124/124/124 129/129/129
f 147/147/147 130/130/130 156/156/156
f 148/148/148 157/157/157 159/159/159
f 149/149/149 160/160/160 166/166/166
f 167/167/167 170/170/170 150/150/150
