g IL_Monitor
v -0.369408 0.5000855 0.2100072
v -0.2530413 0.7903557 -0.3479935
v -0.369408 0.848079 0.2100072
v -0.2530413 0.5519831 -0.3308821
v -0.369408 0.1520919 0.2100072
v -0.2530413 0.3136104 -0.3137706
v -0.2530413 0.5519831 -0.3308821
v 0.2530413 0.7903557 -0.3479935
v -0.2530413 0.7903557 -0.3479935
v 0.2530413 0.5519831 -0.3308821
v -0.2530413 0.3136104 -0.3137706
v 0.2530413 0.3136104 -0.3137706
v 0.369408 0.5000855 0.2100072
v 0.369408 0.848079 0.3479935
v 0.369408 0.848079 0.2100072
v 0.369408 0.5000855 0.3479935
v 0.369408 0.1520919 0.2100072
v 0.369408 0.1520919 0.3479935
v 0.3222121 0.8036191 0.3479935
v 0.3222121 0.8036191 0.3155092
v -0.3222121 0.8036191 0.3155092
v -0.3222121 0.8036191 0.3479935
v -0.369408 0.1520919 0.2100072
v -0.369408 0.1520919 0.3479935
v 0.369408 0.1520919 0.3479935
v 0.369408 0.1520919 0.2100072
v 0.369408 0.848079 0.2100072
v 0.369408 0.848079 0.3479935
v -0.369408 0.848079 0.3479935
v -0.369408 0.848079 0.2100072
v 0.2530413 0.7903557 -0.3479935
v 0.369408 0.848079 0.2100072
v -0.369408 0.848079 0.2100072
v -0.2530413 0.7903557 -0.3479935
v -0.2086563 0.1869947 0.08942781
v -0.2086563 0.08126163 0.08635662
v -0.1425814 0.08126163 -0.2304853
v -0.1425814 0.2787076 -0.2274142
v 0.2530413 0.5519831 -0.3308821
v 0.369408 0.848079 0.2100072
v 0.2530413 0.7903557 -0.3479935
v 0.369408 0.5000855 0.2100072
v 0.2530413 0.3136104 -0.3137706
v 0.369408 0.1520919 0.2100072
v -0.369408 0.5000855 0.3479935
v -0.369408 0.848079 0.2100072
v -0.369408 0.848079 0.3479935
v -0.369408 0.5000855 0.2100072
v -0.369408 0.1520919 0.3479935
v -0.369408 0.1520919 0.2100072
v -0.2982504 0.2111404 0.3479935
v -0.2982504 0.2111404 0.355479
v -0.2976509 0.1876422 0.355479
v -0.2976509 0.1876422 0.3479935
v 0.3222121 0.5251548 0.3389044
v -0.3222121 0.5251548 0.3389044
v -0.3222121 0.8036191 0.3155092
v 0.3222121 0.8036191 0.3155092
v 0.3222121 0.5251548 0.3479935
v 0.3222121 0.8036191 0.3155092
v 0.3222121 0.8036191 0.3479935
v 0.3222121 0.5251548 0.3389044
v 0.3222121 0.2466906 0.3479935
v 0.3222121 0.2466906 0.3155092
v -0.3222121 0.2466906 0.3479935
v -0.3222121 0.2466906 0.3155092
v 0.3222121 0.2466906 0.3155092
v 0.3222121 0.2466906 0.3479935
v -0.3222121 0.5251548 0.3479935
v -0.3222121 0.2466906 0.3155092
v -0.3222121 0.2466906 0.3479935
v -0.3222121 0.5251548 0.3389044
v -0.3222121 0.8036191 0.3479935
v -0.3222121 0.8036191 0.3155092
v 0.1425814 0.2787076 -0.2274142
v 0.2530413 0.3136104 -0.3137706
v -0.2530413 0.3136104 -0.3137706
v -0.1425814 0.2787076 -0.2274142
v 0.2086563 0.1869947 0.08942781
v 0.2530413 0.3136104 -0.3137706
v 0.1425814 0.2787076 -0.2274142
v 0.369408 0.1520919 0.2100072
v -0.2086563 0.1869947 0.08942781
v -0.369408 0.1520919 0.2100072
v -0.1425814 0.2787076 -0.2274142
v -0.2530413 0.3136104 -0.3137706
v -0.1425814 0.2787076 -0.2274142
v -0.1425814 0.08126163 -0.2304853
v 0.1425814 0.08126163 -0.2304853
v 0.1425814 0.2787076 -0.2274142
v 0.2086563 0.1869947 0.08942781
v 0.2086563 0.08126163 0.08635662
v -0.2086563 0.08126163 0.08635662
v -0.2086563 0.1869947 0.08942781
v 0.1425814 0.2787076 -0.2274142
v 0.1425814 0.08126163 -0.2304853
v 0.2086563 0.08126163 0.08635662
v 0.2086563 0.1869947 0.08942781
v -0.2989695 0.08126163 0.1549263
v -0.2989695 0.007080555 0.1549263
v -0.2042952 0.007080555 -0.299055
v -0.2042952 0.08126163 -0.299055
v -0.2042952 0.007080555 -0.299055
v -0.2989695 0.007080555 0.1549263
v 0.2989695 0.007080555 0.1549263
v 0.2042952 0.007080555 -0.299055
v -0.2042952 0.08126163 -0.299055
v -0.2042952 0.007080555 -0.299055
v 0.2042952 0.007080555 -0.299055
v 0.2042952 0.08126163 -0.299055
v 0.2989695 0.08126163 0.1549263
v 0.2989695 0.007080555 0.1549263
v -0.2989695 0.007080555 0.1549263
v -0.2989695 0.08126163 0.1549263
v 0.2042952 0.08126163 -0.299055
v 0.2042952 0.007080555 -0.299055
v 0.2989695 0.007080555 0.1549263
v 0.2989695 0.08126163 0.1549263
v 0.2982504 0.2111404 0.355479
v 0.2979999 0.1876422 0.355479
v -0.2976509 0.1876422 0.355479
v -0.2982504 0.2111404 0.355479
v -0.2976509 0.1876422 0.3479935
v -0.2976509 0.1876422 0.355479
v 0.2979999 0.1876422 0.355479
v 0.2979999 0.1876422 0.3479935
v 0.2979999 0.1876422 0.3479935
v 0.2979999 0.1876422 0.355479
v 0.2982504 0.2111404 0.355479
v 0.2982504 0.2111404 0.3479935
v 0.2982504 0.2111404 0.3479935
v 0.2982504 0.2111404 0.355479
v -0.2982504 0.2111404 0.355479
v -0.2982504 0.2111404 0.3479935
v 0.3222121 0.2466906 0.3155092
v -0.3222121 0.2466906 0.3155092
v -0.3222121 0.5251548 0.3389044
v 0.3222121 0.5251548 0.3389044
v -0.2982504 0.2111404 0.3479935
v 0.3222121 0.2466906 0.3479935
v 0.2982504 0.2111404 0.3479935
v -0.3222121 0.2466906 0.3479935
v -0.2976509 0.1876422 0.3479935
v 0.369408 0.1520919 0.3479935
v 0.2979999 0.1876422 0.3479935
v 0.3222121 0.5251548 0.3479935
v 0.369408 0.5000855 0.3479935
v 0.3222121 0.8036191 0.3479935
v 0.369408 0.848079 0.3479935
v -0.3222121 0.8036191 0.3479935
v -0.369408 0.848079 0.3479935
v -0.3222121 0.5251548 0.3479935
v -0.369408 0.5000855 0.3479935
v -0.369408 0.1520919 0.3479935
v 0.1425814 0.08126163 -0.2304853
v 0.2042952 0.08126163 -0.299055
v 0.2989695 0.08126163 0.1549263
v 0.2086563 0.08126163 0.08635662
v -0.1425814 0.08126163 -0.2304853
v -0.2989695 0.08126163 0.1549263
v -0.2042952 0.08126163 -0.299055
v -0.2086563 0.08126163 0.08635662
vt 0.6088867 0.8603516
vt 0.6088867 0.8603516
vt 0.6088867 0.8603516
vt 0.6088867 0.8603516
vt 0.6088867 0.8603516
vt 0.6088867 0.8603516
vt 0.6088867 0.8603516
vt 0.6088867 0.8603516
vt 0.6088867 0.8603516
vt 0.6088867 0.8603516
vt 0.6088867 0.8603516
vt 0.6088867 0.8603516
vt 0.6088867 0.8603516
vt 0.6088867 0.8603516
vt 0.6088867 0.8603516
vt 0.6088867 0.8603516
vt 0.6088867 0.8603516
vt 0.6088867 0.8603516
vt 0.6088867 0.8603516
vt 0.6088867 0.8603516
vt 0.6088867 0.8603516
vt 0.6088867 0.8603516
vt 0.6088867 0.8603516
vt 0.6088867 0.8603516
vt 0.6088867 0.8603516
vt 0.6088867 0.8603516
vt 0.6088867 0.8603516
vt 0.6088867 0.8603516
vt 0.6088867 0.8603516
vt 0.6088867 0.8603516
vt 0.6088867 0.8603516
vt 0.6088867 0.8603516
vt 0.6088867 0.8603516
vt 0.6088867 0.8603516
vt 0.6088867 0.8603516
vt 0.6088867 0.8603516
vt 0.6088867 0.8603516
vt 0.6088867 0.8603516
vt 0.6088867 0.8603516
vt 0.6088867 0.8603516
vt 0.6088867 0.8603516
vt 0.6088867 0.8603516
vt 0.6088867 0.8603516
vt 0.6088867 0.8603516
vt 0.6088867 0.8603516
vt 0.6088867 0.8603516
vt 0.6088867 0.8603516
vt 0.6088867 0.8603516
vt 0.6088867 0.8603516
vt 0.6088867 0.8603516
vt 0.5541343 0.8572755
vt 0.5541343 0.8572755
vt 0.5541343 0.8572755
vt 0.5541343 0.8572755
vt 0.1222929 0.7809674
vt 0.001700668 0.7809674
vt 0.001700668 0.8406804
vt 0.1222929 0.8406804
vt 0.6088867 0.8603516
vt 0.6088867 0.8603516
vt 0.6088867 0.8603516
vt 0.6088867 0.8603516
vt 0.6088867 0.8603516
vt 0.6088867 0.8603516
vt 0.6088867 0.8603516
vt 0.6088867 0.8603516
vt 0.6088867 0.8603516
vt 0.6088867 0.8603516
vt 0.6088867 0.8603516
vt 0.6088867 0.8603516
vt 0.6088867 0.8603516
vt 0.6088867 0.8603516
vt 0.6088867 0.8603516
vt 0.6088867 0.8603516
vt 0.6088867 0.8603516
vt 0.6088867 0.8603516
vt 0.6088867 0.8603516
vt 0.6088867 0.8603516
vt 0.6088867 0.8603516
vt 0.6088867 0.8603516
vt 0.6088867 0.8603516
vt 0.6088867 0.8603516
vt 0.6088867 0.8603516
vt 0.6088867 0.8603516
vt 0.6088867 0.8603516
vt 0.6088867 0.8603516
vt 0.6088867 0.8603516
vt 0.6088867 0.8603516
vt 0.6088867 0.8603516
vt 0.6088867 0.8603516
vt 0.6088867 0.8603516
vt 0.6088867 0.8603516
vt 0.6088867 0.8603516
vt 0.6088867 0.8603516
vt 0.6088867 0.8603516
vt 0.6088867 0.8603516
vt 0.6088867 0.8603516
vt 0.6088867 0.8603516
vt 0.6088867 0.8603516
vt 0.6088867 0.8603516
vt 0.6088867 0.8603516
vt 0.6088867 0.8603516
vt 0.6088867 0.8603516
vt 0.6088867 0.8603516
vt 0.6088867 0.8603516
vt 0.6088867 0.8603516
vt 0.6088867 0.8603516
vt 0.6088867 0.8603516
vt 0.6088867 0.8603516
vt 0.6088867 0.8603516
vt 0.6088867 0.8603516
vt 0.6088867 0.8603516
vt 0.6088867 0.8603516
vt 0.6088867 0.8603516
vt 0.6088867 0.8603516
vt 0.6088867 0.8603516
vt 0.6088867 0.8603516
vt 0.6088867 0.8603516
vt 0.559671 0.8566603
vt 0.559671 0.8566604
vt 0.559671 0.8566603
vt 0.559671 0.8566603
vt 0.5541343 0.8572755
vt 0.5541343 0.8572755
vt 0.5541343 0.8572756
vt 0.5541343 0.8572756
vt 0.5541343 0.8572756
vt 0.5541343 0.8572756
vt 0.5541343 0.8572755
vt 0.5541343 0.8572755
vt 0.5541343 0.8572755
vt 0.5541343 0.8572755
vt 0.5541343 0.8572755
vt 0.5541343 0.8572755
vt 0.1222929 0.7212543
vt 0.001700668 0.7212543
vt 0.001700668 0.7809674
vt 0.1222929 0.7809674
vt 0.6088867 0.8603515
vt 0.6088867 0.8603516
vt 0.6088867 0.8603515
vt 0.6088867 0.8603516
vt 0.6088867 0.8603515
vt 0.6088867 0.8603516
vt 0.6088867 0.8603516
vt 0.6088867 0.8603516
vt 0.6088867 0.8603516
vt 0.6088867 0.8603516
vt 0.6088867 0.8603516
vt 0.6088867 0.8603516
vt 0.6088867 0.8603516
vt 0.6088867 0.8603516
vt 0.6088867 0.8603516
vt 0.6088867 0.8603516
vt 0.6088867 0.8603516
vt 0.6088867 0.8603516
vt 0.6088867 0.8603516
vt 0.6088867 0.8603516
vt 0.6088867 0.8603516
vt 0.6088867 0.8603516
vt 0.6088867 0.8603516
vt 0.6088867 0.8603516
vn -0.9782885 -0.006045372 -0.2071591
vn -0.9782885 -0.006045372 -0.2071591
vn -0.9782885 -0.006045372 -0.2071591
vn -0.9782885 -0.006045372 -0.2071591
vn -0.9766492 -0.006266871 -0.2147491
vn -0.9766492 -0.006266871 -0.2147491
vn 0 -0.07160036 -0.9974334
vn 0 -0.07160036 -0.9974334
vn 0 -0.07160036 -0.9974334
vn 0 -0.07160036 -0.9974334
vn 0 -0.07160046 -0.9974334
vn 0 -0.07160046 -0.9974334
vn 1 0 0
vn 1 0 0
vn 1 0 0
vn 1 0 0
vn 1 0 0
vn 1 0 0
vn 0 -1 0
vn 0 -1 0
vn 0 -1 0
vn 0 -1 0
vn 0 -1 0
vn 0 -1 0
vn 0 -1 0
vn 0 -1 0
vn 0 1 0
vn 0 1 0
vn 0 1 0
vn 0 1 0
vn 0 0.9946919 -0.1028975
vn 0 0.9946919 -0.1028975
vn 0 0.9946919 -0.1028975
vn 0 0.9946919 -0.1028975
vn -0.9790503 0.004124392 -0.2035764
vn -0.9790503 0.004124392 -0.2035764
vn -0.9790503 0.004124392 -0.2035764
vn -0.9790503 0.004124392 -0.2035764
vn 0.9782885 -0.006045372 -0.2071592
vn 0.9782885 -0.006045372 -0.2071592
vn 0.9782885 -0.006045372 -0.2071592
vn 0.9782885 -0.006045372 -0.2071592
vn 0.9766492 -0.006266871 -0.2147491
vn 0.9766492 -0.006266871 -0.2147491
vn -1 0 0
vn -1 0 0
vn -1 0 0
vn -1 0 0
vn -1 0 0
vn -1 0 0
vn -0.9996747 -0.02550446 0
vn -0.9996747 -0.02550446 0
vn -0.9996747 -0.02550446 0
vn -0.9996747 -0.02550446 0
vn 0 0.08372043 0.9964893
vn 0 0.08372043 0.9964893
vn 0 0.08372043 0.9964893
vn 0 0.08372043 0.9964893
vn -1 0 0
vn -1 0 0
vn -1 0 0
vn -1 0 0
vn -1 0 0
vn -1 0 0
vn 0 1 0
vn 0 1 0
vn 0 1 0
vn 0 1 0
vn 1 0 0
vn 1 0 0
vn 1 0 0
vn 1 0 0
vn 1 0 0
vn 1 0 0
vn 0 -0.927137 -0.3747226
vn 0 -0.927137 -0.3747226
vn 0 -0.927137 -0.3747226
vn 0 -0.927137 -0.3747226
vn 0.03730715 -0.9545664 -0.295654
vn 0.03730715 -0.9545664 -0.295654
vn 0.03730715 -0.9545664 -0.295654
vn 0.03730715 -0.9545664 -0.295654
vn -0.03730715 -0.9545664 -0.295654
vn -0.03730715 -0.9545664 -0.295654
vn -0.03730715 -0.9545664 -0.295654
vn -0.03730715 -0.9545664 -0.295654
vn 0 0.01555251 -0.999879
vn 0 0.01555251 -0.999879
vn 0 0.01555251 -0.999879
vn 0 0.01555251 -0.999879
vn 0 -0.02903426 0.9995784
vn 0 -0.02903426 0.9995784
vn 0 -0.02903426 0.9995784
vn 0 -0.02903426 0.9995784
vn 0.9790503 0.004124392 -0.2035764
vn 0.9790503 0.004124392 -0.2035764
vn 0.9790503 0.004124392 -0.2035764
vn 0.9790503 0.004124392 -0.2035764
vn -0.9789396 0 -0.2041502
vn -0.9789396 0 -0.2041502
vn -0.9789396 0 -0.2041502
vn -0.9789396 0 -0.2041502
vn 0 -1 0
vn 0 -1 0
vn 0 -1 0
vn 0 -1 0
vn 0 0 -1
vn 0 0 -1
vn 0 0 -1
vn 0 0 -1
vn 0 0 1
vn 0 0 1
vn 0 0 1
vn 0 0 1
vn 0.9789396 0 -0.2041502
vn 0.9789396 0 -0.2041502
vn 0.9789396 0 -0.2041502
vn 0.9789396 0 -0.2041502
vn 0 0 1
vn 0 0 1
vn 0 0 1
vn 0 0 1
vn 0 -1 0
vn 0 -1 0
vn 0 -1 0
vn 0 -1 0
vn 0.9999433 -0.01066054 0
vn 0.9999433 -0.01066054 0
vn 0.9999433 -0.01066054 0
vn 0.9999433 -0.01066054 0
vn 0 1 0
vn 0 1 0
vn 0 1 0
vn 0 1 0
vn 0 -0.08372045 0.9964893
vn 0 -0.08372045 0.9964893
vn 0 -0.08372045 0.9964893
vn 0 -0.08372045 0.9964893
vn 0 0 1
vn 0 0 1
vn 0 0 1
vn 0 0 1
vn 0 0 1
vn 0 0 1
vn 0 0 1
vn 0 0 1
vn 0 0 1
vn 0 0 1
vn 0 0 1
vn 0 0 1
vn 0 0 1
vn 0 0 1
vn 0 0 1
vn 0 0 1
vn 0 1 0
vn 0 1 0
vn 0 1 0
vn 0 1 0
vn 0 1 0
vn 0 1 0
vn 0 1 0
vn 0 1 0
g IL_Monitor_0
f 3/3/3 2/2/2 1/1/1
f 2/2/2 4/4/4 1/1/1
f 1/1/1 4/4/4 5/5/5
f 4/4/4 6/6/6 5/5/5
f 9/9/9 8/8/8 7/7/7
f 8/8/8 10/10/10 7/7/7
f 7/7/7 10/10/10 11/11/11
f 10/10/10 12/12/12 11/11/11
f 15/15/15 14/14/14 13/13/13
f 14/14/14 16/16/16 13/13/13
f 13/13/13 16/16/16 17/17/17
f 16/16/16 18/18/18 17/17/17
f 21/21/21 20/20/20 19/19/19
f 22/22/22 21/21/21 19/19/19
f 25/25/25 24/24/24 23/23/23
f 26/26/26 25/25/25 23/23/23
f 29/29/29 28/28/28 27/27/27
f 30/30/30 29/29/29 27/27/27
f 33/33/33 32/32/32 31/31/31
f 34/34/34 33/33/33 31/31/31
f 37/37/37 36/36/36 35/35/35
f 38/38/38 37/37/37 35/35/35
f 41/41/41 40/40/40 39/39/39
f 40/40/40 42/42/42 39/39/39
f 39/39/39 42/42/42 43/43/43
f 42/42/42 44/44/44 43/43/43
f 47/47/47 46/46/46 45/45/45
f 46/46/46 48/48/48 45/45/45
f 45/45/45 48/48/48 49/49/49
f 48/48/48 50/50/50 49/49/49
f 53/53/53 52/52/52 51/51/51
f 54/54/54 53/53/53 51/51/51
f 57/57/57 56/56/56 55/55/55
f 58/58/58 57/57/57 55/55/55
f 61/61/61 60/60/60 59/59/59
f 60/60/60 62/62/62 59/59/59
f 59/59/59 62/62/62 63/63/63
f 62/62/62 64/64/64 63/63/63
f 67/67/67 66/66/66 65/65/65
f 68/68/68 67/67/67 65/65/65
f 71/71/71 70/70/70 69/69/69
f 70/70/70 72/72/72 69/69/69
f 69/69/69 72/72/72 73/73/73
f 72/72/72 74/74/74 73/73/73
f 77/77/77 76/76/76 75/75/75
f 78/78/78 77/77/77 75/75/75
f 81/81/81 80/80/80 79/79/79
f 80/80/80 82/82/82 79/79/79
f 79/79/79 82/82/82 83/83/83
f 82/82/82 84/84/84 83/83/83
f 83/83/83 84/84/84 85/85/85
f 84/84/84 86/86/86 85/85/85
f 89/89/89 88/88/88 87/87/87
f 90/90/90 89/89/89 87/87/87
f 93/93/93 92/92/92 91/91/91
f 94/94/94 93/93/93 91/91/91
f 97/97/97 96/96/96 95/95/95
f 98/98/98 97/97/97 95/95/95
f 101/101/101 100/100/100 99/99/99
f 102/102/102 101/101/101 99/99/99
f 105/105/105 104/104/104 103/103/103
f 106/106/106 105/105/105 103/103/103
f 109/109/109 108/108/108 107/107/107
f 110/110/110 109/109/109 107/107/107
f 113/113/113 112/112/112 111/111/111
f 114/114/114 113/113/113 111/111/111
f 117/117/117 116/116/116 115/115/115
f 118/118/118 117/117/117 115/115/115
f 121/121/121 120/120/120 119/119/119
f 122/122/122 121/121/121 119/119/119
f 125/125/125 124/124/124 123/123/123
f 126/126/126 125/125/125 123/123/123
f 129/129/129 128/128/128 127/127/127
f 130/130/130 129/129/129 127/127/127
f 133/133/133 132/132/132 131/131/131
f 134/134/134 133/133/133 131/131/131
f 137/137/137 136/136/136 135/135/135
f 138/138/138 137/137/137 135/135/135
f 141/141/141 140/140/140 139/139/139
f 140/140/140 142/142/142 139/139/139
f 139/139/139 142/142/142 143/143/143
f 144/144/144 140/140/140 141/141/141
f 145/145/145 144/144/144 141/141/141
f 140/140/140 144/144/144 146/146/146
f 144/144/144 147/147/147 146/146/146
f 146/146/146 147/147/147 148/148/148
f 147/147/147 149/149/149 148/148/148
f 148/148/148 149/149/149 150/150/150
f 149/149/149 151/151/151 150/150/150
f 150/150/150 151/151/151 152/152/152
f 151/151/151 153/153/153 152/152/152
f 152/152/152 153/153/153 142/142/142
f 154/154/154 144/144/144 145/145/145
f 143/143/143 154/154/154 145/145/145
f 142/142/142 154/154/154 143/143/143
f 153/153/153 154/154/154 142/142/142
f 157/157/157 156/156/156 155/155/155
f 158/158/158 157/157/157 155/155/155
f 155/155/155 156/156/156 159/159/159
f 160/160/160 157/157/157 158/158/158
f 156/156/156 161/161/161 159/159/159
f 162/162/162 160/160/160 158/158/158
f 159/159/159 161/161/161 162/162/162
f 161/161/161 160/160/160 162/162/162
