g IL_SimpleLift Wall Empty
v -1.7 0 -0.7
v 0 0 -0.7
v 0 2.5 -0.7
v -1.7 2.5 -0.7
v -7.3 0 -0.7
v -7.3 2.5 -0.7
v -9 0 -0.7
v -9 2.5 -0.7
v -9 0 -0.3
v -9 0 -0.7
v -9 2.5 -0.7
v -9 2.5 -0.3
v -9 2.5 6.3
v -9 0 6.3
v -9 0 7
v -9 2.5 7
v -7.3 0 7
v -9 0 7
v -9 2.5 7
v -7.3 2.5 7
v -1.7 2.5 7
v -1.7 0 7
v 0 0 7
v 0 2.5 7
v 0 0 6.3
v 0 0 7
v 0 2.5 7
v 0 2.5 6.3
v 0 0 -0.3
v 0 2.5 -0.3
v 0 0 -0.7
v 0 2.5 -0.7
v -1.7 2.5 6.3
v -1.7 0 6.3
v -1.7 0 -0.3
v -1.7 2.5 -0.3
v -7.3 0 6.3
v -1.7 0 6.3
v -1.7 2.5 6.3
v -7.3 2.5 6.3
v -1.7 0 -0.3
v -7.3 0 -0.3
v -7.3 2.5 -0.3
v -1.7 2.5 -0.3
v -7.3 2.5 -0.3
v -7.3 0 -0.3
v -7.3 0 6.3
v -7.3 2.5 6.3
vt 0.0859375 0.953125
vt 0.0859375 0.953125
vt 0.0859375 0.953125
vt 0.0859375 0.953125
vt 0.0859375 0.953125
vt 0.0859375 0.953125
vt 0.0859375 0.953125
vt 0.0859375 0.953125
vt 0.0859375 0.953125
vt 0.0859375 0.953125
vt 0.0859375 0.953125
vt 0.0859375 0.953125
vt 0.0859375 0.953125
vt 0.0859375 0.953125
vt 0.0859375 0.953125
vt 0.0859375 0.953125
vt 0.0859375 0.953125
vt 0.0859375 0.953125
vt 0.0859375 0.953125
vt 0.0859375 0.953125
vt 0.0859375 0.953125
vt 0.0859375 0.953125
vt 0.0859375 0.953125
vt 0.0859375 0.953125
vt 0.0859375 0.953125
vt 0.0859375 0.953125
vt 0.0859375 0.953125
vt 0.0859375 0.953125
vt 0.0859375 0.953125
vt 0.0859375 0.953125
vt 0.0859375 0.953125
vt 0.0859375 0.953125
vt 0.0859375 0.953125
vt 0.0859375 0.953125
vt 0.0859375 0.953125
vt 0.0859375 0.953125
vt 0.0859375 0.953125
vt 0.0859375 0.953125
vt 0.0859375 0.953125
vt 0.0859375 0.953125
vt 0.0859375 0.953125
vt 0.0859375 0.953125
vt 0.0859375 0.953125
vt 0.0859375 0.953125
vt 0.0859375 0.953125
vt 0.0859375 0.953125
vt 0.0859375 0.953125
vt 0.0859375 0.953125
vn 0 0 -1
vn 0 0 -1
vn 0 0 -1
vn 0 0 -1
vn 0 0 -1
vn 0 0 -1
vn 0 0 -1
vn 0 0 -1
vn -1 0 0
vn -1 0 0
vn -1 0 0
vn -1 0 0
vn -1 0 0
vn -1 0 0
vn -1 0 0
vn -1 0 0
vn 0 0 1
vn 0 0 1
vn 0 0 1
vn 0 0 1
vn 0 0 1
vn 0 0 1
vn 0 0 1
vn 0 0 1
vn 1 0 0
vn 1 0 0
vn 1 0 0
vn 1 0 0
vn 1 0 0
vn 1 0 0
vn 1 0 0
vn 1 0 0
vn -1 0 0
vn -1 0 0
vn -1 0 0
vn -1 0 0
vn 0 0 -1
vn 0 0 -1
vn 0 0 -1
vn 0 0 -1
vn 0 0 1
vn 0 0 1
vn 0 0 1
vn 0 0 1
vn 1 0 0
vn 1 0 0
vn 1 0 0
vn 1 0 0
g IL_SimpleLift Wall Empty_0
f 3/3/3 2/2/2 1/1/1
f 4/4/4 3/3/3 1/1/1
f 1/1/1 5/5/5 4/4/4
f 5/5/5 6/6/6 4/4/4
f 5/5/5 7/7/7 6/6/6
f 7/7/7 8/8/8 6/6/6
f 11/11/11 10/10/10 9/9/9
f 12/12/12 11/11/11 9/9/9
f 12/12/12 9/9/9 13/13/13
f 9/9/9 14/14/14 13/13/13
f 14/14/14 15/15/15 13/13/13
f 15/15/15 16/16/16 13/13/13
f 19/19/19 18/18/18 17/17/17
f 20/20/20 19/19/19 17/17/17
f 20/20/20 17/17/17 21/21/21
f 17/17/17 22/22/22 21/21/21
f 21/21/21 22/22/22 23/23/23
f 24/24/24 21/21/21 23/23/23
f 27/27/27 26/26/26 25/25/25
f 28/28/28 27/27/27 25/25/25
f 28/28/28 25/25/25 29/29/29
f 30/30/30 28/28/28 29/29/29
f 30/30/30 29/29/29 31/31/31
f 32/32/32 30/30/30 31/31/31
f 35/35/35 34/34/34 33/33/33
f 36/36/36 35/35/35 33/33/33
f 39/39/39 38/38/38 37/37/37
f 40/40/40 39/39/39 37/37/37
f 43/43/43 42/42/42 41/41/41
f 44/44/44 43/43/43 41/41/41
f 47/47/47 46/46/46 45/45/45
f 48/48/48 47/47/47 45/45/45
