g IL_Sensors_2_sh_3
v -1 -0.6394926 0.3
v -1 -0.6394926 -0.3
v -0.6747865 0.5058309 0.3
v 1 -0.6394926 0.3
v -0.6209006 0.1550856 0.3
v -0.6747865 0.5058309 0.271533
v 0.6985596 -0.6394926 0.3
v 1 -0.6394926 -0.3
v -0.303294 -0.4725612 0.3
v -0.6209006 0.4345138 0.3
v 0.4259379 -0.6394926 0.3
v 0.693672 -0.5660962 0.3
v 0.303294 -0.4725612 0.3
v -0.303294 -0.01184583 0.3
v -0.6209006 0.1550856 0.2723278
v 0.5367525 -0.5284981 0.3
v 0.6209006 0.1550856 0.3
v 0.303294 -0.01184583 0.3
v 0.6209006 0.4345138 0.3
v -0.6209006 0.4345138 0.2723278
v 0.6209006 0.1550856 0.2723278
v 0.5883063 -0.4088457 0.3
v 1 0.2838486 0.3
v 0.8592896 0.3447411 0.3
v 0.7010881 0.4132029 0.3
v 0.6169776 0.4336311 0.2723278
v 0.6120111 0.4345138 0.2723278
v 0.6209006 0.4329337 0.2723278
v 0.6209006 0.432978 0.2724799
v 0.6209006 0.4345138 0.2777647
v 0.2094744 0.5058309 0.271533
v 0.2249871 0.5058309 0.2810208
v 1 0.2964875 0.03468055
v 1 0.2604144 -0.08944556
v 1 0.1992241 -0.3
v 0.2560192 0.5058309 0.3
v 0.3550364 0.4882312 0.3
v 0.625205 0.4402107 0.3
v 0.6480702 0.4361466 0.3
v -1 0.09340632 -0.04317659
v -1 0.4035155 0.3
v -1 -0.1386704 -0.3
v -0.701769 0.5741178 0.3
v -0.6917496 0.5798494 0.3
v -0.9930871 -0.1347159 -0.3
v -0.6747865 0.5895529 0.3
v -0.3335848 0.2425506 -0.3
v -0.6747865 0.5651807 0.2730288
v -0.2947646 0.2647576 -0.3
v -0.6747865 0.5638289 0.271533
v -0.5425183 0.6394926 0.271533
v -0.9842381 0.4125321 0.3
v -0.07523358 0.3903396 -0.3
v -1 -0.6394926 0.3
v -1 -0.6394926 0.3
v -1 -0.6394926 0.3
v -1 -0.6394926 0.3
v -1 -0.6394926 0.3
v -1 -0.6394926 0.3
v -1 -0.6394926 0.3
v -1 -0.6394926 0.3
v -1 -0.6394926 0.3
v -1 -0.6394926 0.3
v -1 -0.6394926 -0.3
v -1 -0.6394926 -0.3
v -1 -0.6394926 -0.3
v -1 -0.6394926 -0.3
v -1 -0.6394926 -0.3
v -1 -0.6394926 -0.3
v -1 -0.6394926 -0.3
v -1 -0.6394926 -0.3
v -1 -0.6394926 -0.3
v -0.6747865 0.5058309 0.3
v -0.6747865 0.5058309 0.3
v -0.6747865 0.5058309 0.3
v -0.6747865 0.5058309 0.3
v -0.6747865 0.5058309 0.3
v -0.6747865 0.5058309 0.3
v -0.6747865 0.5058309 0.3
v -0.6747865 0.5058309 0.3
v -0.6747865 0.5058309 0.3
v -0.6747865 0.5058309 0.3
v 1 -0.6394926 0.3
v 1 -0.6394926 0.3
v 1 -0.6394926 0.3
v 1 -0.6394926 0.3
v 1 -0.6394926 0.3
v 1 -0.6394926 0.3
v 1 -0.6394926 0.3
v 1 -0.6394926 0.3
v 1 -0.6394926 0.3
v -0.6209006 0.1550856 0.3
v -0.6209006 0.1550856 0.3
v -0.6209006 0.1550856 0.3
v -0.6209006 0.1550856 0.3
v -0.6209006 0.1550856 0.3
v -0.6209006 0.1550856 0.3
v -0.6209006 0.1550856 0.3
v -0.6747865 0.5058309 0.271533
v -0.6747865 0.5058309 0.271533
v -0.6747865 0.5058309 0.271533
v 0.6985596 -0.6394926 0.3
v 0.6985596 -0.6394926 0.3
v 0.6985596 -0.6394926 0.3
v 0.6985596 -0.6394926 0.3
v 1 -0.6394926 -0.3
v 1 -0.6394926 -0.3
v 1 -0.6394926 -0.3
v 1 -0.6394926 -0.3
v 1 -0.6394926 -0.3
v -0.303294 -0.4725612 0.3
v -0.303294 -0.4725612 0.3
v -0.303294 -0.4725612 0.3
v -0.303294 -0.4725612 0.3
v -0.6209006 0.4345138 0.3
v -0.6209006 0.4345138 0.3
v -0.6209006 0.4345138 0.3
v -0.6209006 0.4345138 0.3
v -0.6209006 0.4345138 0.3
v -0.6209006 0.4345138 0.3
v 0.4259379 -0.6394926 0.3
v 0.4259379 -0.6394926 0.3
v 0.4259379 -0.6394926 0.3
v 0.693672 -0.5660962 0.3
v 0.693672 -0.5660962 0.3
v 0.693672 -0.5660962 0.3
v 0.693672 -0.5660962 0.3
v 0.303294 -0.4725612 0.3
v 0.303294 -0.4725612 0.3
v 0.303294 -0.4725612 0.3
v 0.303294 -0.4725612 0.3
v -0.303294 -0.01184583 0.3
v -0.303294 -0.01184583 0.3
v -0.303294 -0.01184583 0.3
v -0.6209006 0.1550856 0.2723278
v -0.6209006 0.1550856 0.2723278
v -0.6209006 0.1550856 0.2723278
v -0.6209006 0.1550856 0.2723278
v -0.6209006 0.1550856 0.2723278
v 0.5367525 -0.5284981 0.3
v 0.5367525 -0.5284981 0.3
v 0.5367525 -0.5284981 0.3
v 0.5367525 -0.5284981 0.3
v 0.5367525 -0.5284981 0.3
v 0.6209006 0.1550856 0.3
v 0.6209006 0.1550856 0.3
v 0.6209006 0.1550856 0.3
v 0.6209006 0.1550856 0.3
v 0.6209006 0.1550856 0.3
v 0.6209006 0.1550856 0.3
v 0.6209006 0.1550856 0.3
v 0.6209006 0.1550856 0.3
v 0.6209006 0.1550856 0.3
v 0.303294 -0.01184583 0.3
v 0.303294 -0.01184583 0.3
v 0.303294 -0.01184583 0.3
v 0.303294 -0.01184583 0.3
v 0.303294 -0.01184583 0.3
v 0.6209006 0.4345138 0.3
v 0.6209006 0.4345138 0.3
v 0.6209006 0.4345138 0.3
v 0.6209006 0.4345138 0.3
v 0.6209006 0.4345138 0.3
v 0.6209006 0.4345138 0.3
v 0.6209006 0.4345138 0.3
v 0.6209006 0.4345138 0.3
v 0.6209006 0.4345138 0.3
v -0.6209006 0.4345138 0.2723278
v -0.6209006 0.4345138 0.2723278
v -0.6209006 0.4345138 0.2723278
v -0.6209006 0.4345138 0.2723278
v -0.6209006 0.4345138 0.2723278
v 0.6209006 0.1550856 0.2723278
v 0.6209006 0.1550856 0.2723278
v 0.6209006 0.1550856 0.2723278
v 0.5883063 -0.4088457 0.3
v 0.5883063 -0.4088457 0.3
v 0.5883063 -0.4088457 0.3
v 1 0.2838486 0.3
v 1 0.2838486 0.3
v 1 0.2838486 0.3
v 0.8592896 0.3447411 0.3
v 0.8592896 0.3447411 0.3
v 0.8592896 0.3447411 0.3
v 0.7010881 0.4132029 0.3
v 0.7010881 0.4132029 0.3
v 0.7010881 0.4132029 0.3
v 0.7010881 0.4132029 0.3
v 0.6169776 0.4336311 0.2723278
v 0.6169776 0.4336311 0.2723278
v 0.6169776 0.4336311 0.2723278
v 0.6169776 0.4336311 0.2723278
v 0.6120111 0.4345138 0.2723278
v 0.6120111 0.4345138 0.2723278
v 0.6120111 0.4345138 0.2723278
v 0.6120111 0.4345138 0.2723278
v 0.6209006 0.4329337 0.2723278
v 0.6209006 0.4329337 0.2723278
v 0.6209006 0.4329337 0.2723278
v 0.6209006 0.4329337 0.2723278
v 0.6209006 0.4329337 0.2723278
v 0.6209006 0.4329337 0.2723278
v 0.6209006 0.432978 0.2724799
v 0.6209006 0.432978 0.2724799
v 0.6209006 0.432978 0.2724799
v 0.6209006 0.432978 0.2724799
v 0.6209006 0.4345138 0.2777647
v 0.6209006 0.4345138 0.2777647
v 0.6209006 0.4345138 0.2777647
v 0.6209006 0.4345138 0.2777647
v 0.6209006 0.4345138 0.2777647
v 0.6209006 0.4345138 0.2777647
v 0.6209006 0.4345138 0.2777647
v 0.2094744 0.5058309 0.271533
v 0.2094744 0.5058309 0.271533
v 0.2094744 0.5058309 0.271533
v 0.2094744 0.5058309 0.271533
v 0.2094744 0.5058309 0.271533
v 0.2249871 0.5058309 0.2810208
v 0.2249871 0.5058309 0.2810208
v 0.2249871 0.5058309 0.2810208
v 1 0.2964875 0.03468055
v 1 0.2964875 0.03468055
v 1 0.2964875 0.03468055
v 1 0.2964875 0.03468055
v 1 0.2964875 0.03468055
v 1 0.2964875 0.03468055
v 1 0.2964875 0.03468055
v 1 0.2964875 0.03468055
v 1 0.2964875 0.03468055
v 1 0.2604144 -0.08944556
v 1 0.2604144 -0.08944556
v 1 0.2604144 -0.08944556
v 1 0.1992241 -0.3
v 1 0.1992241 -0.3
v 1 0.1992241 -0.3
v 1 0.1992241 -0.3
v 0.2560192 0.5058309 0.3
v 0.2560192 0.5058309 0.3
v 0.2560192 0.5058309 0.3
v 0.2560192 0.5058309 0.3
v 0.3550364 0.4882312 0.3
v 0.3550364 0.4882312 0.3
v 0.3550364 0.4882312 0.3
v 0.3550364 0.4882312 0.3
v 0.3550364 0.4882312 0.3
v 0.3550364 0.4882312 0.3
v 0.625205 0.4402107 0.3
v 0.625205 0.4402107 0.3
v 0.625205 0.4402107 0.3
v 0.6480702 0.4361466 0.3
v 0.6480702 0.4361466 0.3
v 0.6480702 0.4361466 0.3
v 0.6480702 0.4361466 0.3
v -1 0.09340632 -0.04317659
v -1 0.09340632 -0.04317659
v -1 0.09340632 -0.04317659
v -1 0.09340632 -0.04317659
v -1 0.09340632 -0.04317659
v -1 0.09340632 -0.04317659
v -1 0.4035155 0.3
v -1 0.4035155 0.3
v -1 0.4035155 0.3
v -1 0.4035155 0.3
v -1 -0.1386704 -0.3
v -1 -0.1386704 -0.3
v -0.701769 0.5741178 0.3
v -0.701769 0.5741178 0.3
v -0.701769 0.5741178 0.3
v -0.701769 0.5741178 0.3
v -0.701769 0.5741178 0.3
v -0.6917496 0.5798494 0.3
v -0.6917496 0.5798494 0.3
v -0.6917496 0.5798494 0.3
v -0.9930871 -0.1347159 -0.3
v -0.9930871 -0.1347159 -0.3
v -0.9930871 -0.1347159 -0.3
v -0.6747865 0.5895529 0.3
v -0.6747865 0.5895529 0.3
v -0.3335848 0.2425506 -0.3
v -0.3335848 0.2425506 -0.3
v -0.3335848 0.2425506 -0.3
v -0.3335848 0.2425506 -0.3
v -0.6747865 0.5651807 0.2730288
v -0.6747865 0.5651807 0.2730288
v -0.6747865 0.5651807 0.2730288
v -0.6747865 0.5651807 0.2730288
v -0.6747865 0.5651807 0.2730288
v -0.2947646 0.2647576 -0.3
v -0.2947646 0.2647576 -0.3
v -0.2947646 0.2647576 -0.3
v -0.2947646 0.2647576 -0.3
v -0.6747865 0.5638289 0.271533
v -0.6747865 0.5638289 0.271533
v -0.6747865 0.5638289 0.271533
v -0.6747865 0.5638289 0.271533
v -0.6747865 0.5638289 0.271533
v -0.6747865 0.5638289 0.271533
v -0.6747865 0.5638289 0.271533
v -0.5425183 0.6394926 0.271533
v -0.5425183 0.6394926 0.271533
v -0.5425183 0.6394926 0.271533
v -0.5425183 0.6394926 0.271533
v -0.5425183 0.6394926 0.271533
v -0.9842381 0.4125321 0.3
v -0.9842381 0.4125321 0.3
v -0.9842381 0.4125321 0.3
v -0.07523358 0.3903396 -0.3
v -0.07523358 0.3903396 -0.3
v -0.07523358 0.3903396 -0.3
v -0.07523358 0.3903396 -0.3
v -0.07523358 0.3903396 -0.3
v -0.07523358 0.3903396 -0.3
v -0.07523358 0.3903396 -0.3
v -0.07523358 0.3903396 -0.3
v -0.07523358 0.3903396 -0.3
v -0.07523358 0.3903396 -0.3
v -0.07523358 0.3903396 -0.3
vt 0.57906 0.8611957
vt 0.57906 0.8611957
vt 0.57906 0.8611957
vt 0.57906 0.8611957
vt 0.5790601 0.8611957
vt 0.57906 0.8611957
vt 0.57906 0.8611957
vt 0.57906 0.8611957
vt 0.57906 0.8611957
vt 0.57906 0.8611957
vt 0.57906 0.8611957
vt 0.5790601 0.8611957
vt 0.5790601 0.8611957
vt 0.5790601 0.8611956
vt 0.5790601 0.8611957
vt 0.554646 0.8563129
vt 0.5790601 0.8611957
vt 0.6312302 0.570527
vt 0.57906 0.8611957
vt 0.57906 0.8611957
vt 0.5790601 0.8611957
vt 0.5790601 0.8611957
vt 0.57906 0.8611957
vt 0.57906 0.8611957
vt 0.57906 0.8611957
vt 0.5523192 0.859258
vt 0.5523191 0.8592579
vt 0.5523191 0.8592579
vt 0.57906 0.8611957
vt 0.57906 0.8611957
vt 0.57906 0.8611957
vt 0.57906 0.8611957
vt 0.57906 0.8611957
vt 0.57906 0.8611957
vt 0.57906 0.8611957
vt 0.57906 0.8611957
vt 0.57906 0.8611956
vt 0.57906 0.8611957
vt 0.57906 0.8611957
vt 0.57906 0.8611957
vt 0.57906 0.8611957
vt 0.57906 0.8611956
vt 0.5790601 0.8611957
vt 0.57906 0.8611957
vt 0.57906 0.8611957
vt 0.5790601 0.8611957
vt 0.57906 0.8611957
vt 0.57906 0.8611957
vt 0.57906 0.8611956
vt 0.57906 0.8611957
vt 0.8577524 0.8264687
vt 0.57906 0.8611957
vt 0.57906 0.8611957
vt 0.57906 0.8611957
vt 0.57906 0.8611957
vt 0.57906 0.8611957
vt 0.57906 0.8611957
vt 0.57906 0.8611957
vt 0.57906 0.8611957
vt 0.57906 0.8611957
vt 0.57906 0.8611957
vt 0.57906 0.8611957
vt 0.57906 0.8611957
vt 0.57906 0.8611957
vt 0.57906 0.8611957
vt 0.57906 0.8611957
vt 0.57906 0.8611957
vt 0.57906 0.8611957
vt 0.57906 0.8611957
vt 0.57906 0.8611957
vt 0.57906 0.8611957
vt 0.57906 0.8611957
vt 0.57906 0.8611957
vt 0.57906 0.8611957
vt 0.57906 0.8611957
vt 0.57906 0.8611957
vt 0.57906 0.8611957
vt 0.57906 0.8611957
vt 0.57906 0.8611957
vt 0.57906 0.8611957
vt 0.57906 0.8611957
vt 0.57906 0.8611957
vt 0.57906 0.8611957
vt 0.57906 0.8611957
vt 0.57906 0.8611957
vt 0.57906 0.8611957
vt 0.57906 0.8611957
vt 0.57906 0.8611957
vt 0.57906 0.8611957
vt 0.57906 0.8611957
vt 0.57906 0.8611957
vt 0.5790601 0.8611957
vt 0.5790601 0.8611957
vt 0.5790601 0.8611957
vt 0.5790601 0.8611957
vt 0.5790601 0.8611957
vt 0.5790601 0.8611957
vt 0.5790601 0.8611957
vt 0.57906 0.8611957
vt 0.57906 0.8611957
vt 0.8577524 0.8264687
vt 0.57906 0.8611957
vt 0.57906 0.8611957
vt 0.5546459 0.8563129
vt 0.5546459 0.8563129
vt 0.57906 0.8611957
vt 0.57906 0.8611957
vt 0.57906 0.8611957
vt 0.57906 0.8611957
vt 0.57906 0.8611957
vt 0.57906 0.8611957
vt 0.57906 0.8611957
vt 0.7450002 0.6775761
vt 0.7450002 0.6775761
vt 0.57906 0.8611957
vt 0.57906 0.8611957
vt 0.57906 0.8611957
vt 0.57906 0.8611957
vt 0.57906 0.8611957
vt 0.57906 0.8611957
vt 0.57906 0.8611957
vt 0.554646 0.8563129
vt 0.57906 0.8611957
vt 0.5790601 0.8611957
vt 0.554646 0.8563129
vt 0.5790601 0.8611957
vt 0.554646 0.8563129
vt 0.5790601 0.8611957
vt 0.6312302 0.6775761
vt 0.5790601 0.8611957
vt 0.5790601 0.8611957
vt 0.5790601 0.8611956
vt 0.7450002 0.5705271
vt 0.5790601 0.8611956
vt 0.5790601 0.8611957
vt 0.5790601 0.8611957
vt 0.5523192 0.8592579
vt 0.5523192 0.8592579
vt 0.5523192 0.8592579
vt 0.554646 0.8563129
vt 0.5790601 0.8611957
vt 0.554646 0.8563129
vt 0.5790601 0.8611957
vt 0.5790601 0.8611957
vt 0.5790601 0.8611957
vt 0.5790601 0.8611957
vt 0.5790601 0.8611957
vt 0.5790601 0.8611957
vt 0.5790601 0.8611957
vt 0.5790601 0.8611957
vt 0.5790601 0.8611957
vt 0.5790601 0.8611957
vt 0.5790601 0.8611957
vt 0.6312302 0.570527
vt 0.5790601 0.8611956
vt 0.5790601 0.8611956
vt 0.5790601 0.8611956
vt 0.5790601 0.8611956
vt 0.57906 0.8611957
vt 0.57906 0.8611957
vt 0.57906 0.8611957
vt 0.57906 0.8611957
vt 0.57906 0.8611957
vt 0.57906 0.8611957
vt 0.57906 0.8611957
vt 0.57906 0.8611957
vt 0.57906 0.8611957
vt 0.57906 0.8611957
vt 0.5523191 0.8592579
vt 0.5523191 0.8592579
vt 0.57906 0.8611957
vt 0.57906 0.8611957
vt 0.5790601 0.8611957
vt 0.5523192 0.8592579
vt 0.5790601 0.8611957
vt 0.554646 0.8563129
vt 0.5790601 0.8611957
vt 0.5790601 0.8611957
vt 0.5790601 0.8611957
vt 0.57906 0.8611957
vt 0.2540005 0.1524003
vt 0.57906 0.8611956
vt 0.21826 0.1524003
vt 0.21826 0.1524003
vt 0.57906 0.8611957
vt 0.57906 0.8611957
vt 0.1780768 0.1524003
vt 0.1780768 0.1524003
vt 0.5523192 0.859258
vt 0.552319 0.8592579
vt 0.1567126 0.1453715
vt 0.1567126 0.1453715
vt 0.57906 0.8611957
vt 0.1554511 0.1453715
vt 0.1554511 0.1453715
vt 0.1554511 0.1453715
vt 0.5523191 0.8592579
vt 0.57906 0.8611957
vt 0.57906 0.8611957
vt 0.1577091 0.1453715
vt 0.1577091 0.1453715
vt 0.1577091 0.1453715
vt 0.57906 0.8611957
vt 0.57906 0.8611957
vt 0.1577091 0.1454102
vt 0.1577091 0.1454102
vt 0.57906 0.8611957
vt 0.57906 0.8611957
vt 0.1577091 0.1467525
vt 0.1577091 0.1467525
vt 0.1577091 0.1467525
vt 0.1577091 0.1467525
vt 0.1577091 0.1467525
vt 0.57906 0.8611957
vt 0.8577524 0.8264687
vt 0.8577524 0.8264687
vt 0.05320663 0.1451696
vt 0.05320663 0.1451696
vt 0.57906 0.8611956
vt 0.05714685 0.1475796
vt 0.05714685 0.1475796
vt 0.57906 0.8611957
vt 0.2540005 0.085009
vt 0.2540005 0.085009
vt 0.2540005 0.085009
vt 0.2540005 0.085009
vt 0.2540005 0.085009
vt 0.2540005 0.085009
vt 0.2540005 0.085009
vt 0.2540005 0.085009
vt 0.57906 0.8611957
vt 0.2540005 0.0534809
vt 0.2540005 0.0534809
vt 0.5790601 0.8611957
vt 0.57906 0.8611957
vt 0.57906 0.8611957
vt 0.2540005 -3.151746E-08
vt 0.57906 0.8611957
vt 0.57906 0.8611957
vt 0.06502903 0.1524003
vt 0.06502903 0.1524003
vt 0.57906 0.8611957
vt 0.57906 0.8611957
vt 0.09017944 0.1524003
vt 0.09017944 0.1524003
vt 0.09017944 0.1524003
vt 0.09017944 0.1524003
vt 0.5790601 0.8611957
vt 0.1588024 0.1524003
vt 0.1588024 0.1524003
vt 0.57906 0.8611957
vt 0.1646102 0.1524003
vt 0.1646102 0.1524003
vt 0.1646102 0.1524003
vt 0.57906 0.8611957
vt -0.2540005 0.0652333
vt -0.2540005 0.0652333
vt -0.2540005 0.0652333
vt -0.2540005 0.0652333
vt -0.2540005 0.0652333
vt 0.57906 0.8611956
vt 0.57906 0.8611957
vt -0.2540005 0.1524003
vt -0.2540005 0.1524003
vt 0.57906 0.8611957
vt -0.2540005 1.664494E-08
vt 0.57906 0.8611956
vt 0.57906 0.8611956
vt -0.1782497 0.1524003
vt -0.1782497 0.1524003
vt -0.1782497 0.1524003
vt 0.57906 0.8611957
vt -0.1757047 0.1524003
vt -0.1757047 0.1524003
vt 0.57906 0.8611957
vt -0.2522446 1.644753E-08
vt -0.2522446 1.644753E-08
vt 0.57906 0.8611957
vt -0.1713961 0.1524003
vt 0.57906 0.8611957
vt -0.08473072 -2.38568E-09
vt -0.08473072 -2.38568E-09
vt -0.08473072 -2.38568E-09
vt 0.57906 0.8611957
vt 0.57906 0.8611957
vt -0.1713961 0.1455496
vt -0.1713961 0.1455496
vt -0.1713961 0.1455496
vt 0.57906 0.8611957
vt 0.57906 0.8611957
vt -0.07487036 -3.494258E-09
vt -0.07487036 -3.494258E-09
vt 0.8577524 0.8264687
vt 0.8577524 0.8264687
vt -0.1713961 0.1451697
vt -0.1713961 0.1451697
vt -0.1713961 0.1451697
vt -0.1713961 0.1451697
vt -0.1713961 0.1451697
vt -0.1377999 0.1451697
vt -0.1377999 0.1451697
vt -0.1377999 0.1451697
vt -0.1377999 0.1451697
vt -0.1377999 0.1451697
vt 0.5790601 0.8611957
vt -0.249997 0.1524003
vt -0.249997 0.1524003
vt -0.01910937 -9.763339E-09
vt -0.01910937 -9.763339E-09
vt -0.01910937 -9.763339E-09
vt -0.01910937 -9.763339E-09
vt -0.01910937 -9.763339E-09
vt -0.01910937 -9.763339E-09
vt -0.01910937 -9.763339E-09
vt -0.01910937 -9.763339E-09
vt -0.01910937 -9.763339E-09
vt -0.01910937 -9.763339E-09
vt -0.01910937 -9.763339E-09
vn 0 -1 0
vn 0 -1 0
vn 0 0 1
vn 0 -1 0
vn 0 -1.561629E-07 1
vn 0 1 0
vn 0 -1 0
vn 0 -1 0
vn 0 0 1
vn 0 0 1
vn 0 -1 0
vn 0 0 1
vn 0 -1.203636E-07 1
vn 0 0 1
vn 1 0 0
vn 0 0 1
vn 0 -1.561629E-07 1
vn 0 0 1
vn 0 0 1
vn 1 0 0
vn 0 1 0
vn 0 0 1
vn 1 0 0
vn 0 0 1
vn 0 0 1
vn 0 0 1
vn 0 0 1
vn 0 0 1
vn -1 0 0
vn -1 0 0
vn 0 1 0
vn 0 1 0
vn 1 0 0
vn 1 0 0
vn 0 0 -1
vn 0 0 1
vn 0 0 1
vn 0 0 1
vn 0 0 1
vn -1 0 0
vn -1 0 0
vn -1 0 0
vn 0 0 1
vn 0 0 1
vn 0 0 -1
vn 0 0 1
vn 0 0 -1
vn 1 0 0
vn 0 0 -1
vn 1 0 0
vn 0 0 1
vn 0 0 1
vn 0 0 -1
vn 0 0 1
vn 0 -1 0
vn 0 0 1
vn 0 -1 0
vn 0 -1.203636E-07 1
vn 0 -1.203636E-07 1
vn -1 0 0
vn 0 0 1
vn 0 0 1
vn 0 0 1
vn 0 -1 0
vn 0 0 -1
vn -1 0 0
vn -1 0 0
vn 0 0 -1
vn 0 0 -1
vn 0 0 -1
vn 0 0 -1
vn -1 0 0
vn 0 0 1
vn 0 1 0
vn 0 0 1
vn 0 1 0
vn 0 1 0
vn 0 0 1
vn 0 0 1
vn 0 0 1
vn 1 0 0
vn 1 0 0
vn 0 -1 0
vn 0 -1 0
vn 0 0 1
vn 0 0 1
vn 0 0 1
vn 1 0 0
vn 0 0 1
vn 0 0 1
vn 0 0 1
vn 0 0 1
vn 0 -1.561629E-07 1
vn 0 0 1
vn 1 0 0
vn 0 -1.561629E-07 1
vn 0 1 0
vn 0 1 0
vn 1 0 0
vn 1 0 0
vn 0 0 1
vn 0 -1 0
vn 0 0 1
vn 0 0 1
vn 0 0 1
vn 1 0 0
vn 1 0 0
vn 1 0 0
vn 0 0 -1
vn 1 0 0
vn 0 -1.203636E-07 1
vn 0 0 1
vn 0 0 1
vn 0 0 1
vn 1 0 0
vn 1 0 0
vn 0 -1 0
vn 0 0 1
vn 0 0 1
vn 0 0 1
vn 0 -1.203636E-07 1
vn 0 0 1
vn 0 -1.203636E-07 1
vn 0 0 1
vn 0 0 1
vn 0 0 1
vn 0 0 1
vn 0 -1.203636E-07 1
vn 0 0 1
vn 0 -1.203636E-07 1
vn 0 0 1
vn 0 0 1
vn 0 0 1
vn 0 0 1
vn 1 0 0
vn 0 1 0
vn 0 0 1
vn 0 0 1
vn 0 0 1
vn 0 0 1
vn 0 -1.203636E-07 1
vn 0 0 1
vn 0 -1.203636E-07 1
vn 0 -1.203636E-07 1
vn 0 -1.561629E-07 1
vn 0 -1.561629E-07 1
vn 0 -1.561629E-07 1
vn 0 1 0
vn 0 -1.561629E-07 1
vn 0 -1.561629E-07 1
vn -1 0 0
vn -1 0 0
vn -1 0 0
vn 0 0 1
vn 0 0 1
vn 0 0 1
vn 0 0 1
vn 0 0 1
vn 0 -1 0
vn -1 0 0
vn -1 0 0
vn 0 -1 0
vn 0 0 1
vn 0 0 1
vn 0 0 1
vn 0 0 1
vn 0 0 1
vn 0 -1 0
vn 0 0 1
vn 0 0 1
vn 0 -1 0
vn 0 -1 0
vn 0 1 0
vn 0 0 1
vn -1 0 0
vn 0 -1.798431E-07 1
vn 0 0 1
vn 0 0 1
vn 0 0 1
vn 1 0 0
vn 0.3967781 0.9168748 0.04367662
vn 0 0 1
vn 0.3967781 0.9168748 0.04367662
vn 0.3967781 0.9168748 0.04367661
vn 0 0 1
vn 0 0 1
vn 0.396781 0.9168735 0.04368043
vn 0.3967781 0.9168748 0.04367661
vn 0 0 1
vn 0 0 1
vn 0.1682658 0.9465729 -0.2751116
vn 0.1682441 0.9465841 -0.2750863
vn 0 -1 0
vn 0.1682483 0.9465823 -0.2750901
vn 0.1682441 0.9465841 -0.2750863
vn 0.1682482 0.946582 -0.2750909
vn 0 0 1
vn -1 0 0
vn -1 0 0
vn 0.167708 0.9464526 -0.2758653
vn 0.1682485 0.946582 -0.2750911
vn 0.1682658 0.9465729 -0.2751116
vn -1 0 0
vn -1 0 0
vn 0.1682571 0.9465846 -0.2750767
vn 0.167708 0.9464526 -0.2758653
vn 0 -1 0
vn 0 -1 0
vn 0.1682478 0.9465813 -0.2750935
vn 0.1682483 0.9465823 -0.2750901
vn 0.1682465 0.9465817 -0.2750933
vn 0.1682468 0.9465815 -0.2750935
vn 0.1682571 0.9465846 -0.2750767
vn 0 1 0
vn 0 0 1
vn 0 0 1
vn 0.1682511 0.9465809 -0.2750929
vn 0.1682487 0.9465819 -0.2750912
vn 0 1 0
vn 0.1682445 0.9465833 -0.2750891
vn 0.1682511 0.9465809 -0.2750929
vn 1 0 0
vn 0.3967781 0.9168748 0.04367662
vn 0.396781 0.9168735 0.04368043
vn 0.3967781 0.9168748 0.04367661
vn 0.1682468 0.9465815 -0.2750935
vn 0.1682571 0.9465846 -0.2750767
vn 0.167708 0.9464526 -0.2758653
vn 0.1682487 0.9465817 -0.2750918
vn 0.1682485 0.946582 -0.2750911
vn 1 0 0
vn 0.1682486 0.9465818 -0.2750912
vn 0.1682487 0.9465817 -0.2750918
vn 1 0 0
vn 0 0 -1
vn 0 0 -1
vn 0.1682486 0.9465818 -0.2750912
vn 0 1 0
vn 0 0 1
vn 0.1682492 0.9465817 -0.2750916
vn 0.1682445 0.9465833 -0.2750891
vn 0 0 1
vn 0 0 1
vn 0.1682478 0.9465813 -0.2750935
vn 0.1682483 0.9465823 -0.2750901
vn 0.1682482 0.946582 -0.2750909
vn 0.1682492 0.9465817 -0.2750916
vn 0 0 1
vn 0.1682478 0.9465813 -0.2750935
vn 0.1682465 0.9465817 -0.2750933
vn 0 0 1
vn 0.396781 0.9168735 0.04368043
vn 0.1682465 0.9465817 -0.2750933
vn 0.1682468 0.9465815 -0.2750935
vn -1 0 0
vn -0.3906953 0.6829786 -0.6171688
vn -0.390696 0.6829784 -0.6171687
vn -0.3906959 0.6829784 -0.6171687
vn -0.3906958 0.6829783 -0.6171688
vn -0.390696 0.6829784 -0.6171687
vn 0 0 1
vn -1 0 0
vn -0.390696 0.6829784 -0.6171687
vn -0.3906901 0.6829626 -0.6171899
vn 0 0 -1
vn -0.3906953 0.6829786 -0.6171688
vn 0 0 1
vn 0 0 1
vn -0.3906958 0.6829781 -0.6171692
vn -0.3906982 0.6829753 -0.6171706
vn -0.3906958 0.6829782 -0.617169
vn 0 0 1
vn -0.3906914 0.6829816 -0.6171681
vn -0.3906958 0.6829782 -0.617169
vn 0 0 -1
vn -0.3906953 0.6829786 -0.6171688
vn -0.390696 0.6829784 -0.6171687
vn 1 0 0
vn -0.3906914 0.6829816 -0.6171681
vn 0 0 -1
vn -0.390696 0.6829784 -0.6171687
vn -0.3906959 0.6829785 -0.6171687
vn -0.3906959 0.6829784 -0.6171687
vn 1 0 0
vn 1 0 0
vn -0.3906914 0.6829816 -0.6171681
vn -0.3906982 0.6829753 -0.6171706
vn -0.3906958 0.6829782 -0.617169
vn 0 0 -1
vn 0 0 -1
vn -0.3906956 0.6829786 -0.6171687
vn -0.3906959 0.6829785 -0.6171687
vn 0 0 1
vn 0 0 1
vn -0.3906958 0.6829783 -0.6171688
vn -0.390696 0.6829784 -0.6171687
vn -0.3906901 0.6829626 -0.6171899
vn -0.3906958 0.6829781 -0.6171692
vn -0.3906982 0.6829753 -0.6171706
vn 0.1682487 0.9465819 -0.2750912
vn -0.3906956 0.6829786 -0.6171687
vn -0.3906959 0.6829785 -0.6171687
vn -0.3906959 0.6829784 -0.6171687
vn -0.3906958 0.6829783 -0.6171688
vn 0 0 1
vn -0.3906901 0.6829626 -0.6171899
vn -0.3906958 0.6829781 -0.6171692
vn 0.1682486 0.9465818 -0.2750912
vn 0.1682487 0.9465817 -0.2750918
vn 0.1682485 0.946582 -0.2750911
vn 0.1682658 0.9465729 -0.2751116
vn 0.1682441 0.9465841 -0.2750863
vn 0.1682482 0.946582 -0.2750909
vn 0.1682492 0.9465817 -0.2750916
vn 0.1682445 0.9465833 -0.2750891
vn 0.1682511 0.9465809 -0.2750929
vn 0.1682487 0.9465819 -0.2750912
vn -0.3906956 0.6829786 -0.6171687
g IL_Sensors_2_sh_3_0
f 4/4/4 1/1/1 2/2/2
f 3/3/3 54/54/54 5/5/5
f 83/83/83 7/7/7 55/55/55
f 64/64/64 8/8/8 84/84/84
f 92/92/92 56/56/56 9/9/9
f 10/10/10 73/73/73 93/93/93
f 102/102/102 11/11/11 57/57/57
f 103/103/103 85/85/85 12/12/12
f 13/13/13 111/111/111 58/58/58
f 14/14/14 94/94/94 112/112/112
f 95/95/95 15/15/15 115/115/115
f 128/128/128 59/59/59 121/121/121
f 122/122/122 104/104/104 16/16/16
f 124/124/124 86/86/86 17/17/17
f 105/105/105 125/125/125 140/140/140
f 113/113/113 129/129/129 18/18/18
f 145/145/145 96/96/96 132/132/132
f 133/133/133 114/114/114 154/154/154
f 135/135/135 20/20/20 116/116/116
f 21/21/21 136/136/136 97/97/97
f 123/123/123 141/141/141 130/130/130
f 146/146/146 87/87/87 19/19/19
f 147/147/147 22/22/22 126/126/126
f 176/176/176 142/142/142 127/127/127
f 155/155/155 131/131/131 143/143/143
f 148/148/148 173/173/173 98/98/98
f 156/156/156 149/149/149 134/134/134
f 117/117/117 168/168/168 159/159/159
f 150/150/150 157/157/157 177/177/177
f 158/158/158 144/144/144 178/178/178
f 23/23/23 88/88/88 106/106/106
f 89/89/89 179/179/179 24/24/24
f 182/182/182 25/25/25 90/90/90
f 27/27/27 169/169/169 26/26/26
f 170/170/170 137/137/137 189/189/189
f 190/190/190 138/138/138 28/28/28
f 139/139/139 174/174/174 197/197/197
f 29/29/29 160/160/160 30/30/30
f 151/151/151 161/161/161 203/203/203
f 198/198/198 175/175/175 152/152/152
f 204/204/204 199/199/199 153/153/153
f 207/207/207 171/171/171 193/193/193
f 162/162/162 172/172/172 208/208/208
f 31/31/31 6/6/6 74/74/74
f 33/33/33 180/180/180 107/107/107
f 34/34/34 222/222/222 108/108/108
f 35/35/35 109/109/109 65/65/65
f 36/36/36 75/75/75 118/118/118
f 238/238/238 32/32/32 76/76/76
f 234/234/234 231/231/231 110/110/110
f 214/214/214 77/77/77 219/219/219
f 239/239/239 119/119/119 37/37/37
f 242/242/242 120/120/120 163/163/163
f 164/164/164 38/38/38 243/243/243
f 165/165/165 91/91/91 185/185/185
f 166/166/166 186/186/186 39/39/39
f 251/251/251 248/248/248 167/167/167
f 66/66/66 60/60/60 41/41/41
f 67/67/67 40/40/40 42/42/42
f 44/44/44 43/43/43 78/78/78
f 61/61/61 79/79/79 267/267/267
f 68/68/68 265/265/265 45/45/45
f 80/80/80 46/46/46 272/272/272
f 69/69/69 275/275/275 47/47/47
f 81/81/81 99/99/99 48/48/48
f 70/70/70 280/280/280 49/49/49
f 100/100/100 50/50/50 284/284/284
f 293/293/293 215/215/215 51/51/51
f 101/101/101 216/216/216 294/294/294
f 52/52/52 261/261/261 62/62/62
f 53/53/53 235/235/235 289/289/289
f 236/236/236 71/71/71 290/290/290
f 255/255/255 72/72/72 262/262/262
f 305/305/305 63/63/63 268/268/268
f 278/278/278 82/82/82 285/285/285
g IL_Sensors_2_sh_3_1
f 183/183/183 181/181/181 223/223/223
f 224/224/224 252/252/252 187/187/187
f 188/188/188 184/184/184 225/225/225
f 244/244/244 249/249/249 209/209/209
f 245/245/245 210/210/210 194/194/194
f 211/211/211 250/250/250 253/253/253
f 212/212/212 254/254/254 226/226/226
f 205/205/205 213/213/213 227/227/227
f 200/200/200 206/206/206 228/228/228
f 232/232/232 237/237/237 308/308/308
f 229/229/229 233/233/233 309/309/309
f 201/201/201 230/230/230 310/310/310
f 191/191/191 202/202/202 311/311/311
f 195/195/195 192/192/192 312/312/312
f 246/246/246 196/196/196 313/313/313
f 240/240/240 247/247/247 314/314/314
f 220/220/220 241/241/241 315/315/315
f 217/217/217 221/221/221 316/316/316
f 300/300/300 218/218/218 317/317/317
f 301/301/301 318/318/318 291/291/291
f 276/276/276 266/266/266 256/256/256
f 273/273/273 279/279/279 286/286/286
f 281/281/281 277/277/277 257/257/257
f 302/302/302 292/292/292 282/282/282
f 303/303/303 283/283/283 258/258/258
f 295/295/295 304/304/304 259/259/259
f 296/296/296 260/260/260 263/263/263
f 297/297/297 264/264/264 306/306/306
f 298/298/298 307/307/307 269/269/269
f 287/287/287 299/299/299 270/270/270
f 271/271/271 274/274/274 288/288/288
