g IL_SqG_Prop6_sh_4
v 0.05000001 -0.4076152 0.05000001
v -0.05000007 -0.4076152 0.05000001
v 0.05000001 -0.4076152 -0.05000007
v -0.05000007 -0.4076152 -0.05000007
v 0.05000001 0.3730586 -0.03674161
v 0.05000001 0.3366861 0.05000001
v 0.03324014 0.3415459 0.05000001
v -0.05000007 0.3656831 0.05000001
v -0.04026765 0.404793 -0.05000007
v 0.05000001 0.3786182 -0.05000007
v -0.05000007 0.3713235 0.03654873
v -0.05000007 0.4076151 -0.05000007
v 0.05000001 -0.4076152 0.05000001
v 0.05000001 -0.4076152 0.05000001
v 0.05000001 -0.4076152 0.05000001
v 0.05000001 -0.4076152 0.05000001
v 0.05000001 -0.4076152 0.05000001
v -0.05000007 -0.4076152 0.05000001
v -0.05000007 -0.4076152 0.05000001
v -0.05000007 -0.4076152 0.05000001
v -0.05000007 -0.4076152 0.05000001
v 0.05000001 -0.4076152 -0.05000007
v 0.05000001 -0.4076152 -0.05000007
v 0.05000001 -0.4076152 -0.05000007
v 0.05000001 -0.4076152 -0.05000007
v -0.05000007 -0.4076152 -0.05000007
v -0.05000007 -0.4076152 -0.05000007
v -0.05000007 -0.4076152 -0.05000007
v -0.05000007 -0.4076152 -0.05000007
v -0.05000007 -0.4076152 -0.05000007
v 0.05000001 0.3730586 -0.03674161
v 0.05000001 0.3730586 -0.03674161
v 0.05000001 0.3730586 -0.03674161
v 0.05000001 0.3730586 -0.03674161
v 0.05000001 0.3366861 0.05000001
v 0.05000001 0.3366861 0.05000001
v 0.05000001 0.3366861 0.05000001
v 0.03324014 0.3415459 0.05000001
v 0.03324014 0.3415459 0.05000001
v 0.03324014 0.3415459 0.05000001
v 0.03324014 0.3415459 0.05000001
v -0.05000007 0.3656831 0.05000001
v -0.05000007 0.3656831 0.05000001
v -0.05000007 0.3656831 0.05000001
v -0.04026765 0.404793 -0.05000007
v -0.04026765 0.404793 -0.05000007
v -0.04026765 0.404793 -0.05000007
v 0.05000001 0.3786182 -0.05000007
v 0.05000001 0.3786182 -0.05000007
v 0.05000001 0.3786182 -0.05000007
v 0.05000001 0.3786182 -0.05000007
v -0.05000007 0.3713235 0.03654873
v -0.05000007 0.3713235 0.03654873
v -0.05000007 0.3713235 0.03654873
v -0.05000007 0.3713235 0.03654873
v -0.05000007 0.3713235 0.03654873
v -0.05000007 0.3713235 0.03654873
v -0.05000007 0.4076151 -0.05000007
v -0.05000007 0.4076151 -0.05000007
v -0.05000007 0.4076151 -0.05000007
vt 0.5849609 0.9824218
vt 0.5849609 0.9824218
vt 0.5849609 0.9824218
vt 0.5849609 0.9824218
vt 0.5849609 0.9824218
vt 0.5849609 0.9824218
vt 0.5849609 0.9824218
vt 0.584961 0.9824219
vt 0.5849609 0.9824218
vt 0.5849609 0.9824218
vt 0.5849609 0.9824218
vt 0.5849609 0.9824218
vt 0.5849609 0.9824218
vt 0.5849609 0.9824218
vt 0.5849609 0.9824218
vt 0.5849609 0.9824218
vt 0.5849609 0.9824218
vt 0.5849609 0.9824218
vt 0.5849609 0.9824218
vt 0.5849609 0.9824218
vt 0.5849609 0.9824218
vt 0.5849609 0.9824218
vt 0.5849609 0.9824218
vt 0.5849609 0.9824218
vt 0.5849609 0.9824218
vt 0.5849609 0.9824218
vt 0.5849609 0.9824218
vt 0.5849609 0.9824218
vt 0.5849609 0.9824218
vt 0.5849609 0.9824218
vt 0.5849609 0.9824219
vt -0.2286005 -0.2506329
vt -0.2286005 -0.2506329
vt -0.2286005 -0.2506329
vt 0.5849609 0.9824219
vt 0.5849609 0.9824218
vt -0.2286005 -0.2286005
vt 0.5849609 0.9824218
vt -0.2328575 -0.2286005
vt -0.2328575 -0.2286005
vt -0.2328575 -0.2286005
vt 0.584961 0.9824219
vt 0.5849609 0.9824219
vt -0.2540006 -0.2286005
vt 0.5849609 0.9824218
vt -0.2515285 -0.2540005
vt -0.2515285 -0.2540005
vt 0.5849609 0.9824218
vt 0.5849609 0.9824218
vt -0.2286005 -0.2540005
vt -0.2286005 -0.2540005
vt -0.2540006 -0.2320171
vt -0.2540006 -0.2320171
vt -0.2540006 -0.2320171
vt 0.5849609 0.9824219
vt -0.2540006 -0.2320171
vt -0.2540006 -0.2320171
vt 0.5849609 0.9824218
vt 0.584961 0.9824218
vt -0.2540006 -0.2540005
vn 0 -1 0
vn 0 -1 0
vn 0 -1 0
vn 0 -1 0
vn 1 0 0
vn 0 0 1
vn 0 0 1
vn -1 0 0
vn 0 0 -1
vn 1 0 0
vn -1 0 0
vn 0 0 -1
vn 1 0 0
vn 0 -1 0
vn 1 0 0
vn 0 0 1
vn 1 0 0
vn -1 0 0
vn 0 0 1
vn 0 0 1
vn 0 0 1
vn 1 0 0
vn 0 0 -1
vn 0 0 -1
vn 0 0 -1
vn 0 0 -1
vn 0 -1 0
vn -1 0 0
vn -1 0 0
vn -1 0 0
vn 1 0 0
vn 0.2583387 0.8908989 0.3735776
vn 0.2583322 0.8909029 0.3735726
vn 0.2583352 0.8909019 0.3735729
vn 1 0 0
vn 0 0 1
vn 0.2583322 0.8909029 0.3735726
vn 0 0 1
vn 0.2583322 0.8909029 0.3735726
vn 0.2583352 0.8909019 0.3735729
vn 0.2583352 0.8909019 0.3735729
vn -1 0 0
vn 0 0 1
vn 0.2583352 0.8909019 0.3735729
vn 0 0 -1
vn 0.2583337 0.8909026 0.3735722
vn 0.2583392 0.8909011 0.3735722
vn 1 0 0
vn 0 0 -1
vn 0.2583387 0.8908989 0.3735776
vn 0.2583337 0.8909026 0.3735722
vn 0.2583387 0.8908989 0.3735776
vn 0.2583337 0.8909026 0.3735722
vn 0.2583392 0.8909011 0.3735722
vn -1 0 0
vn 0.2583352 0.8909019 0.3735729
vn 0.2583352 0.8909019 0.3735729
vn 0 0 -1
vn -1 0 0
vn 0.2583392 0.8909011 0.3735722
g IL_SqG_Prop6_sh_4_0
f 4/4/4 3/3/3 1/1/1
f 13/13/13 22/22/22 10/10/10
f 23/23/23 26/26/26 12/12/12
f 2/2/2 27/27/27 14/14/14
f 5/5/5 15/15/15 48/48/48
f 9/9/9 49/49/49 24/24/24
f 45/45/45 25/25/25 58/58/58
f 11/11/11 59/59/59 28/28/28
f 29/29/29 18/18/18 8/8/8
f 19/19/19 16/16/16 6/6/6
f 31/31/31 35/35/35 17/17/17
f 55/55/55 30/30/30 42/42/42
f 7/7/7 43/43/43 20/20/20
f 38/38/38 21/21/21 36/36/36
g IL_SqG_Prop6_sh_4_1
f 32/32/32 50/50/50 52/52/52
f 51/51/51 46/46/46 53/53/53
f 47/47/47 60/60/60 54/54/54
f 39/39/39 37/37/37 33/33/33
f 40/40/40 34/34/34 56/56/56
f 57/57/57 44/44/44 41/41/41
