g IL_SqG_Prop4_sh_5
v 0.05000001 -0.2746329 0.05000001
v 0.05000001 -0.2746329 -0.05000001
v -0.05000007 -0.2746329 0.05000001
v -0.05000007 -0.2746329 -0.05000001
v 0.05000001 0.2224357 -0.005229849
v 0.05000001 0.1580436 0.05000001
v 0.05000001 0.2746329 -0.05000001
v -0.006228507 0.1193106 0.05000001
v -0.006690562 0.2355817 -0.05000001
v -0.05000007 0.08915865 0.05000001
v -0.05000007 0.205748 -0.05000001
v -0.05000007 0.1506547 -0.002745822
v 0.05000001 -0.2746329 0.05000001
v 0.05000001 -0.2746329 0.05000001
v 0.05000001 -0.2746329 0.05000001
v 0.05000001 -0.2746329 0.05000001
v 0.05000001 -0.2746329 -0.05000001
v 0.05000001 -0.2746329 -0.05000001
v 0.05000001 -0.2746329 -0.05000001
v 0.05000001 -0.2746329 -0.05000001
v 0.05000001 -0.2746329 -0.05000001
v -0.05000007 -0.2746329 0.05000001
v -0.05000007 -0.2746329 0.05000001
v -0.05000007 -0.2746329 0.05000001
v -0.05000007 -0.2746329 0.05000001
v -0.05000007 -0.2746329 0.05000001
v -0.05000007 -0.2746329 -0.05000001
v -0.05000007 -0.2746329 -0.05000001
v -0.05000007 -0.2746329 -0.05000001
v -0.05000007 -0.2746329 -0.05000001
v 0.05000001 0.2224357 -0.005229849
v 0.05000001 0.2224357 -0.005229849
v 0.05000001 0.2224357 -0.005229849
v 0.05000001 0.2224357 -0.005229849
v 0.05000001 0.1580436 0.05000001
v 0.05000001 0.1580436 0.05000001
v 0.05000001 0.1580436 0.05000001
v 0.05000001 0.1580436 0.05000001
v 0.05000001 0.2746329 -0.05000001
v 0.05000001 0.2746329 -0.05000001
v 0.05000001 0.2746329 -0.05000001
v -0.006228507 0.1193106 0.05000001
v -0.006228507 0.1193106 0.05000001
v -0.006228507 0.1193106 0.05000001
v -0.006690562 0.2355817 -0.05000001
v -0.006690562 0.2355817 -0.05000001
v -0.006690562 0.2355817 -0.05000001
v -0.006690562 0.2355817 -0.05000001
v -0.05000007 0.08915865 0.05000001
v -0.05000007 0.08915865 0.05000001
v -0.05000007 0.08915865 0.05000001
v -0.05000007 0.205748 -0.05000001
v -0.05000007 0.205748 -0.05000001
v -0.05000007 0.205748 -0.05000001
v -0.05000007 0.1506547 -0.002745822
v -0.05000007 0.1506547 -0.002745822
v -0.05000007 0.1506547 -0.002745822
v -0.05000007 0.1506547 -0.002745822
v -0.05000007 0.1506547 -0.002745822
v -0.05000007 0.1506547 -0.002745822
vt 0.5175781 0.977539
vt 0.5175781 0.977539
vt 0.5175781 0.977539
vt 0.5175781 0.977539
vt 0.5175781 0.977539
vt 0.5175781 0.9775389
vt 0.5175781 0.977539
vt 0.5175781 0.977539
vt 0.5175782 0.977539
vt 0.5175781 0.9775391
vt 0.5175781 0.9775389
vt 0.5175781 0.9775389
vt 0.5175781 0.977539
vt 0.5175781 0.977539
vt 0.5175781 0.977539
vt 0.5175781 0.977539
vt 0.5175781 0.977539
vt 0.5175781 0.977539
vt 0.5175781 0.977539
vt 0.5175781 0.977539
vt 0.5175781 0.977539
vt 0.5175781 0.977539
vt 0.5175781 0.977539
vt 0.5175781 0.977539
vt 0.5175781 0.977539
vt 0.5175781 0.977539
vt 0.5175781 0.977539
vt 0.5175781 0.977539
vt 0.5175781 0.977539
vt 0.5175781 0.977539
vt 0.5175781 0.977539
vt 0.2286005 0.1262557
vt 0.2286005 0.1262557
vt 0.2286005 0.1262557
vt 0.5175781 0.9775389
vt 0.5175781 0.977539
vt 0.2286005 0.1099
vt 0.2286005 0.1099
vt 0.5175781 0.977539
vt 0.5175781 0.9775391
vt 0.2286005 0.1395138
vt 0.5175781 0.9775389
vt 0.2428825 0.1000619
vt 0.2428825 0.1000619
vt 0.5175781 0.9775391
vt 0.2429999 0.1295948
vt 0.2429999 0.1295948
vt 0.2429999 0.1295948
vt 0.5175781 0.9775391
vt 0.5175781 0.9775391
vt 0.2540005 0.09240324
vt 0.5175781 0.9775389
vt 0.5175781 0.9775389
vt 0.2540005 0.122017
vt 0.5175781 0.977539
vt 0.2540005 0.1080233
vt 0.2540005 0.1080233
vt 0.2540005 0.1080233
vt 0.2540005 0.1080233
vt 0.2540005 0.1080233
vn 0 -1 0
vn 0 -1 0
vn 0 -1 0
vn 0 -1 0
vn 1 0 0
vn 0 0 1
vn 1 0 0
vn 0 0 1
vn 0 0 -1
vn -1 0 0
vn 0 0 -1
vn -1 0 0
vn 0 0 1
vn 1 0 0
vn 1 0 0
vn 1 0 0
vn 0 -1 0
vn 1 0 0
vn 0 0 -1
vn 0 0 -1
vn 0 0 -1
vn 0 -1 0
vn 0 0 1
vn -1 0 0
vn 0 0 1
vn 0 0 1
vn 0 0 -1
vn -1 0 0
vn -1 0 0
vn -1 0 0
vn 1 0 0
vn -0.4092019 0.5940377 0.6925843
vn -0.4092021 0.5940376 0.6925843
vn -0.409202 0.5940378 0.6925842
vn 0 0 1
vn 1 0 0
vn -0.409202 0.5940375 0.6925844
vn -0.4092019 0.5940377 0.6925843
vn 1 0 0
vn 0 0 -1
vn -0.4092021 0.5940376 0.6925843
vn 0 0 1
vn -0.409202 0.5940375 0.6925844
vn -0.409202 0.5940375 0.6925844
vn 0 0 -1
vn -0.4092021 0.5940376 0.6925843
vn -0.4092014 0.5940377 0.6925847
vn -0.409202 0.5940378 0.6925842
vn -1 0 0
vn 0 0 1
vn -0.409202 0.5940375 0.6925844
vn 0 0 -1
vn -1 0 0
vn -0.4092014 0.5940377 0.6925847
vn -1 0 0
vn -0.409202 0.5940375 0.6925844
vn -0.4092019 0.5940377 0.6925843
vn -0.4092014 0.5940377 0.6925847
vn -0.409202 0.5940375 0.6925844
vn -0.409202 0.5940378 0.6925842
g IL_SqG_Prop4_sh_5_0
f 1/1/1 3/3/3 2/2/2
f 22/22/22 4/4/4 17/17/17
f 23/23/23 13/13/13 6/6/6
f 14/14/14 18/18/18 7/7/7
f 19/19/19 27/27/27 11/11/11
f 28/28/28 24/24/24 10/10/10
f 8/8/8 25/25/25 35/35/35
f 5/5/5 36/36/36 15/15/15
f 31/31/31 16/16/16 39/39/39
f 9/9/9 40/40/40 20/20/20
f 45/45/45 21/21/21 52/52/52
f 12/12/12 53/53/53 29/29/29
f 55/55/55 30/30/30 49/49/49
f 42/42/42 50/50/50 26/26/26
g IL_SqG_Prop4_sh_5_1
f 56/56/56 43/43/43 37/37/37
f 57/57/57 38/38/38 32/32/32
f 33/33/33 41/41/41 46/46/46
f 47/47/47 54/54/54 58/58/58
f 59/59/59 51/51/51 44/44/44
f 60/60/60 34/34/34 48/48/48
