g IL_SqG_Prop4_sh_4
v -0.6599169 0.5 -0.1995856
v -0.6599169 0.5 -0.2995857
v -0.6599169 0.3999999 -0.1995856
v -0.759917 0.5 -0.1995856
v -0.6599169 0.3999999 -0.2995857
v -0.759917 0.5 -0.2995857
v -0.759917 0.3999999 -0.1995856
v -0.759917 0.4 -0.2995857
v -0.6599169 -0.5 -0.1995856
v -0.759917 -0.5 -0.1995856
v -0.6599169 -0.5 -0.2995857
v -0.759917 -0.5 -0.2995857
v 0.7059429 0.5 -0.1995856
v 0.7148696 0.4236229 -0.1995856
v 0.7159079 0.5 -0.2231509
v 0.7176306 0.3999999 -0.1995856
v 0.7482294 0.5 -0.2995857
v 0.7507712 0.3999999 -0.2779573
v 0.7507573 0.4783708 -0.2995857
v 0.759917 0.3999999 -0.2995857
v -0.6599169 0.5 0.2138144
v -0.6599169 0.4563544 0.2512498
v -0.6599169 0.3999999 0.2995856
v -0.759917 0.5 0.154731
v -0.708038 0.5 0.1853828
v -0.7005192 0.3999999 0.2755965
v -0.759917 0.3999999 0.2405023
v -0.759917 0.4503917 0.1972807
v -0.6599169 0.5 -0.1995856
v -0.6599169 0.5 -0.1995856
v -0.6599169 0.5 -0.1995856
v -0.6599169 0.5 -0.1995856
v -0.6599169 0.5 -0.1995856
v -0.6599169 0.5 -0.1995856
v -0.6599169 0.5 -0.1995856
v -0.6599169 0.5 -0.1995856
v -0.6599169 0.5 -0.2995857
v -0.6599169 0.5 -0.2995857
v -0.6599169 0.5 -0.2995857
v -0.6599169 0.5 -0.2995857
v -0.6599169 0.5 -0.2995857
v -0.6599169 0.5 -0.2995857
v -0.6599169 0.5 -0.2995857
v -0.6599169 0.3999999 -0.1995856
v -0.6599169 0.3999999 -0.1995856
v -0.6599169 0.3999999 -0.1995856
v -0.6599169 0.3999999 -0.1995856
v -0.6599169 0.3999999 -0.1995856
v -0.6599169 0.3999999 -0.1995856
v -0.6599169 0.3999999 -0.1995856
v -0.6599169 0.3999999 -0.1995856
v -0.6599169 0.3999999 -0.1995856
v -0.6599169 0.3999999 -0.1995856
v -0.759917 0.5 -0.1995856
v -0.759917 0.5 -0.1995856
v -0.759917 0.5 -0.1995856
v -0.759917 0.5 -0.1995856
v -0.759917 0.5 -0.1995856
v -0.759917 0.5 -0.1995856
v -0.6599169 0.3999999 -0.2995857
v -0.6599169 0.3999999 -0.2995857
v -0.6599169 0.3999999 -0.2995857
v -0.6599169 0.3999999 -0.2995857
v -0.6599169 0.3999999 -0.2995857
v -0.6599169 0.3999999 -0.2995857
v -0.6599169 0.3999999 -0.2995857
v -0.759917 0.5 -0.2995857
v -0.759917 0.5 -0.2995857
v -0.759917 0.5 -0.2995857
v -0.759917 0.3999999 -0.1995856
v -0.759917 0.3999999 -0.1995856
v -0.759917 0.3999999 -0.1995856
v -0.759917 0.3999999 -0.1995856
v -0.759917 0.3999999 -0.1995856
v -0.759917 0.3999999 -0.1995856
v -0.759917 0.3999999 -0.1995856
v -0.759917 0.3999999 -0.1995856
v -0.759917 0.4 -0.2995857
v -0.759917 0.4 -0.2995857
v -0.759917 0.4 -0.2995857
v -0.759917 0.4 -0.2995857
v -0.759917 0.4 -0.2995857
v -0.6599169 -0.5 -0.1995856
v -0.6599169 -0.5 -0.1995856
v -0.6599169 -0.5 -0.1995856
v -0.6599169 -0.5 -0.1995856
v -0.759917 -0.5 -0.1995856
v -0.759917 -0.5 -0.1995856
v -0.759917 -0.5 -0.1995856
v -0.6599169 -0.5 -0.2995857
v -0.6599169 -0.5 -0.2995857
v -0.6599169 -0.5 -0.2995857
v -0.759917 -0.5 -0.2995857
v -0.759917 -0.5 -0.2995857
v -0.759917 -0.5 -0.2995857
v -0.759917 -0.5 -0.2995857
v 0.7059429 0.5 -0.1995856
v 0.7059429 0.5 -0.1995856
v 0.7148696 0.4236229 -0.1995856
v 0.7148696 0.4236229 -0.1995856
v 0.7148696 0.4236229 -0.1995856
v 0.7148696 0.4236229 -0.1995856
v 0.7148696 0.4236229 -0.1995856
v 0.7159079 0.5 -0.2231509
v 0.7159079 0.5 -0.2231509
v 0.7159079 0.5 -0.2231509
v 0.7159079 0.5 -0.2231509
v 0.7159079 0.5 -0.2231509
v 0.7159079 0.5 -0.2231509
v 0.7176306 0.3999999 -0.1995856
v 0.7176306 0.3999999 -0.1995856
v 0.7482294 0.5 -0.2995857
v 0.7482294 0.5 -0.2995857
v 0.7507712 0.3999999 -0.2779573
v 0.7507712 0.3999999 -0.2779573
v 0.7507712 0.3999999 -0.2779573
v 0.7507712 0.3999999 -0.2779573
v 0.7507712 0.3999999 -0.2779573
v 0.7507712 0.3999999 -0.2779573
v 0.7507573 0.4783708 -0.2995857
v 0.7507573 0.4783708 -0.2995857
v 0.7507573 0.4783708 -0.2995857
v 0.7507573 0.4783708 -0.2995857
v 0.7507573 0.4783708 -0.2995857
v 0.759917 0.3999999 -0.2995857
v 0.759917 0.3999999 -0.2995857
v -0.6599169 0.5 0.2138144
v -0.6599169 0.5 0.2138144
v -0.6599169 0.5 0.2138144
v -0.6599169 0.4563544 0.2512498
v -0.6599169 0.4563544 0.2512498
v -0.6599169 0.4563544 0.2512498
v -0.6599169 0.4563544 0.2512498
v -0.6599169 0.4563544 0.2512498
v -0.6599169 0.4563544 0.2512498
v -0.6599169 0.3999999 0.2995856
v -0.6599169 0.3999999 0.2995856
v -0.6599169 0.3999999 0.2995856
v -0.759917 0.5 0.154731
v -0.759917 0.5 0.154731
v -0.759917 0.5 0.154731
v -0.708038 0.5 0.1853828
v -0.708038 0.5 0.1853828
v -0.708038 0.5 0.1853828
v -0.708038 0.5 0.1853828
v -0.7005192 0.3999999 0.2755965
v -0.7005192 0.3999999 0.2755965
v -0.7005192 0.3999999 0.2755965
v -0.759917 0.3999999 0.2405023
v -0.759917 0.3999999 0.2405023
v -0.759917 0.3999999 0.2405023
v -0.759917 0.3999999 0.2405023
v -0.759917 0.4503917 0.1972807
v -0.759917 0.4503917 0.1972807
v -0.759917 0.4503917 0.1972807
v -0.759917 0.4503917 0.1972807
vt 0.5175781 0.977539
vt 0.5175781 0.977539
vt 0.5175781 0.977539
vt 0.5175781 0.977539
vt 0.5175781 0.977539
vt 0.5175781 0.977539
vt 0.5175781 0.977539
vt 0.5175781 0.977539
vt 0.5175781 0.977539
vt 0.5175781 0.977539
vt 0.5175781 0.977539
vt 0.5175781 0.977539
vt 0.5175781 0.977539
vt -0.2346007 -0.2286005
vt 0.5175781 0.977539
vt -0.2286004 -0.2286005
vt 0.5175781 0.977539
vt -0.2286004 -0.2485069
vt 0.5175781 0.977539
vt 0.5175781 0.977539
vt 0.5175781 0.9775391
vt 0.2286005 0.2429145
vt 0.5175781 0.977539
vt 0.5175781 0.977539
vt 0.5175781 0.9775391
vt 0.5175781 0.977539
vt 0.5175781 0.9775389
vt 0.5175781 0.9775389
vt 0.5175781 0.977539
vt 0.5175781 0.977539
vt 0.5175781 0.977539
vt 0.5175781 0.977539
vt 0.5175781 0.977539
vt 0.5175781 0.977539
vt 0.5175781 0.977539
vt 0.5175781 0.977539
vt 0.5175781 0.977539
vt 0.5175781 0.977539
vt 0.5175781 0.977539
vt 0.5175781 0.977539
vt 0.5175781 0.977539
vt 0.5175781 0.977539
vt 0.5175781 0.977539
vt 0.5175781 0.977539
vt 0.5175781 0.977539
vt 0.5175781 0.977539
vt 0.5175781 0.977539
vt 0.5175781 0.977539
vt 0.5175781 0.977539
vt 0.5175781 0.977539
vt 0.5175781 0.977539
vt 0.5175781 0.977539
vt 0.5175781 0.977539
vt 0.5175781 0.977539
vt 0.5175781 0.977539
vt 0.5175781 0.977539
vt 0.5175781 0.977539
vt 0.5175781 0.977539
vt 0.5175781 0.977539
vt 0.5175781 0.977539
vt 0.5175781 0.977539
vt 0.5175781 0.977539
vt 0.5175781 0.977539
vt 0.5175781 0.977539
vt 0.5175781 0.977539
vt 0.5175781 0.977539
vt 0.5175781 0.977539
vt 0.5175781 0.977539
vt 0.5175781 0.977539
vt 0.5175781 0.977539
vt 0.5175781 0.977539
vt 0.5175781 0.977539
vt 0.5175781 0.977539
vt 0.5175781 0.977539
vt 0.5175781 0.977539
vt 0.5175781 0.977539
vt 0.5175781 0.977539
vt 0.5175781 0.977539
vt 0.5175781 0.977539
vt 0.5175781 0.977539
vt 0.5175781 0.977539
vt 0.5175781 0.977539
vt 0.5175781 0.977539
vt 0.5175781 0.977539
vt 0.5175781 0.977539
vt 0.5175781 0.977539
vt 0.5175781 0.977539
vt 0.5175781 0.977539
vt 0.5175781 0.977539
vt 0.5175781 0.977539
vt 0.5175781 0.977539
vt 0.5175781 0.977539
vt 0.5175781 0.977539
vt 0.5175781 0.977539
vt 0.5175781 0.977539
vt 0.5175781 0.977539
vt -0.2540005 -0.2286005
vt 0.5175781 0.977539
vt 0.5175781 0.977539
vt -0.2346007 -0.2286005
vt 0.5175781 0.977539
vt -0.2346007 -0.2286005
vt 0.5175781 0.977539
vt 0.5175781 0.977539
vt 0.5175781 0.977539
vt -0.2540005 -0.2345861
vt -0.2540005 -0.2345861
vt -0.2540005 -0.2345861
vt -0.2540005 -0.2345861
vt 0.5175781 0.977539
vt 0.5175781 0.977539
vt 0.5175781 0.977539
vt -0.2540005 -0.2540005
vt -0.2286004 -0.2485069
vt -0.2286004 -0.2485069
vt -0.2286004 -0.2485069
vt 0.5175781 0.977539
vt 0.5175781 0.977539
vt 0.5175781 0.977539
vt -0.2485067 -0.2540005
vt 0.5175781 0.977539
vt -0.2485067 -0.2540005
vt 0.5175781 0.9775391
vt -0.2485067 -0.2540005
vt -0.2286004 -0.2540005
vt 0.5175781 0.977539
vt 0.5175781 0.9775391
vt 0.2286005 0.2540005
vt 0.5175781 0.9775391
vt 0.2286005 0.2429145
vt 0.2286005 0.2429145
vt 0.2286005 0.2429145
vt 0.5175781 0.9775391
vt 0.2286005 0.2429145
vt 0.5175781 0.977539
vt 0.2286005 0.2286004
vt 0.5175781 0.977539
vt 0.5175781 0.977539
vt 0.5175781 0.977539
vt 0.5175781 0.9775391
vt 0.2540005 0.2540005
vt 0.5175781 0.977539
vt 0.2408233 0.2540005
vt 0.2408233 0.2540005
vt 0.2408233 0.2540005
vt 0.2389135 0.2286004
vt 0.5175782 0.9775391
vt 0.2389135 0.2286004
vt 0.5175781 0.9775389
vt 0.5175781 0.977539
vt 0.2540005 0.2286004
vt 0.2540005 0.2286004
vt 0.2540005 0.2414
vt 0.5175781 0.9775391
vt 0.2540005 0.2414
vt 0.2540005 0.2414
vn 0 1 0
vn 0 1 0
vn 0 0 1
vn 0 1 0
vn 0 0 -1
vn 0 1 0
vn -1 0 0
vn 0 0 -1
vn 1 0 0
vn -1 0 0
vn 0 0 -1
vn -1 0 0
vn 0 1 0
vn 0.9157466 0.1070293 0.3872374
vn 0 1 0
vn 0.9157469 0.1070283 0.387237
vn 0 1 0
vn 0.9157473 0.1070298 0.3872357
vn 0 0 -1
vn 0 0 -1
vn 0 1 0
vn -0.4092017 0.594038 0.6925842
vn 0 -1 0
vn 0 1 0
vn 0 1 0
vn 0 -1 0
vn -1 0 0
vn -1 0 0
vn 0 1 0
vn 0 1 0
vn 0 1 0
vn 0 1 0
vn 0 0 1
vn 0 1 0
vn 0 0 1
vn 1 0 0
vn 0 1 0
vn 0 1 0
vn 0 0 -1
vn 0 1 0
vn 0 0 -1
vn 0 0 -1
vn 0 0 -1
vn 1 0 0
vn 0 0 1
vn 1 0 0
vn 0 -1 0
vn 0 0 1
vn 1 0 0
vn 0 -1 0
vn 1 0 0
vn 0 0 1
vn 0 -1 0
vn 0 1 0
vn 0 1 0
vn -1 0 0
vn -1 0 0
vn -1 0 0
vn -1 0 0
vn 0 0 -1
vn 0 0 -1
vn 1 0 0
vn 0 0 -1
vn 1 0 0
vn 0 -1 0
vn 0 -1 0
vn -1 0 0
vn 0 0 -1
vn -1 0 0
vn -1 0 0
vn -1 0 0
vn 0 -1 0
vn -1 0 0
vn 0 -1 0
vn -1 0 0
vn 0 -1 0
vn 0 0 1
vn -1 0 0
vn 0 0 -1
vn -1 0 0
vn 0 0 -1
vn 0 0 -1
vn 0 -1 0
vn 0 -1 0
vn 1 0 0
vn 0 0 1
vn 0 0 1
vn 0 -1 0
vn 0 0 1
vn 0 0 -1
vn 1 0 0
vn 0 -1 0
vn -1 0 0
vn 0 0 -1
vn 0 -1 0
vn 0 -1 0
vn 0.9157466 0.1070293 0.3872374
vn 0 0 1
vn 0 0 1
vn 0.9157469 0.1070291 0.3872368
vn 0 0 1
vn 0.9157469 0.1070283 0.387237
vn 0 0 1
vn 0 1 0
vn 0 1 0
vn 0.9157473 0.1070246 0.3872372
vn 0.9157466 0.1070293 0.3872374
vn 0.9157473 0.1070298 0.3872357
vn 0.9157469 0.1070291 0.3872368
vn 0 0 1
vn 0 -1 0
vn 0 0 -1
vn 0.9157473 0.1070246 0.3872372
vn 0.9157469 0.1070291 0.3872368
vn 0.9157475 0.1070297 0.3872353
vn 0.9157469 0.1070283 0.387237
vn 0 -1 0
vn 0 -1 0
vn 0 -1 0
vn 0.9157473 0.1070246 0.3872372
vn 0 0 -1
vn 0.9157473 0.1070298 0.3872357
vn 0 0 -1
vn 0.9157475 0.1070297 0.3872353
vn 0.9157475 0.1070297 0.3872353
vn 0 -1 0
vn 1 0 0
vn -0.4092017 0.594038 0.6925842
vn 1 0 0
vn -0.4092017 0.594038 0.6925842
vn -0.4092018 0.5940376 0.6925845
vn -0.409202 0.594038 0.692584
vn 1 0 0
vn -0.4092015 0.5940378 0.6925845
vn 1 0 0
vn -0.4092015 0.5940378 0.6925845
vn 0 -1 0
vn 1 0 0
vn 0 1 0
vn -1 0 0
vn -0.409202 0.5940382 0.6925839
vn 0 1 0
vn -0.409202 0.5940382 0.6925839
vn -0.4092017 0.594038 0.6925842
vn -0.4092017 0.594038 0.6925842
vn -0.409202 0.594038 0.692584
vn 0 -1 0
vn -0.4092015 0.5940378 0.6925845
vn -1 0 0
vn 0 -1 0
vn -0.4092018 0.5940376 0.6925845
vn -0.409202 0.594038 0.692584
vn -0.409202 0.5940382 0.6925839
vn -1 0 0
vn -0.4092017 0.594038 0.6925842
vn -0.4092018 0.5940376 0.6925845
g IL_SqG_Prop4_sh_4_0
f 1/1/1 2/2/2 4/4/4
f 37/37/37 6/6/6 54/54/54
f 38/38/38 29/29/29 15/15/15
f 30/30/30 55/55/55 24/24/24
f 56/56/56 67/67/67 7/7/7
f 8/8/8 68/68/68 39/39/39
f 104/104/104 17/17/17 40/40/40
f 105/105/105 31/31/31 13/13/13
f 25/25/25 32/32/32 139/139/139
f 28/28/28 140/140/140 57/57/57
f 58/58/58 70/70/70 27/27/27
f 69/69/69 78/78/78 71/71/71
f 5/5/5 79/79/79 41/41/41
f 19/19/19 42/42/42 112/112/112
f 99/99/99 98/98/98 33/33/33
f 142/142/142 21/21/21 34/34/34
f 154/154/154 59/59/59 149/149/149
f 26/26/26 150/150/150 72/72/72
f 80/80/80 12/12/12 73/73/73
f 60/60/60 11/11/11 81/81/81
f 61/61/61 43/43/43 121/121/121
f 35/35/35 3/3/3 101/101/101
f 44/44/44 36/36/36 127/127/127
f 147/147/147 74/74/74 23/23/23
f 93/93/93 10/10/10 75/75/75
f 90/90/90 94/94/94 82/82/82
f 9/9/9 91/91/91 62/62/62
f 123/123/123 20/20/20 63/63/63
f 103/103/103 45/45/45 110/110/110
f 133/133/133 46/46/46 129/129/129
f 76/76/76 47/47/47 137/137/137
f 77/77/77 87/87/87 48/48/48
f 88/88/88 95/95/95 83/83/83
f 96/96/96 92/92/92 84/84/84
f 49/49/49 85/85/85 64/64/64
f 117/117/117 65/65/65 126/126/126
f 118/118/118 111/111/111 50/50/50
f 135/135/135 138/138/138 51/51/51
f 89/89/89 86/86/86 52/52/52
f 53/53/53 66/66/66 119/119/119
g IL_SqG_Prop4_sh_4_1
f 120/120/120 113/113/113 106/106/106
f 107/107/107 97/97/97 14/14/14
f 143/143/143 141/141/141 153/153/153
f 18/18/18 122/122/122 108/108/108
f 114/114/114 109/109/109 100/100/100
f 22/22/22 128/128/128 144/144/144
f 145/145/145 155/155/155 130/130/130
f 156/156/156 151/151/151 131/131/131
f 152/152/152 146/146/146 132/132/132
f 115/115/115 125/125/125 124/124/124
f 102/102/102 16/16/16 116/116/116
f 148/148/148 136/136/136 134/134/134
