g IL_SS_Display
v -0.6906646 0.3406647 0.06999999
v -0.7 0.3406647 0.06999999
v -0.7 0.35 0.06066466
v 0.7 0.35 0.06066466
v 0.7 0.3406647 0.06999999
v 0.6906646 0.3406647 0.06999999
v -0.6642036 0.3142036 0.06999999
v 0.6642036 0.3142036 0.06999999
v 0.6342673 0.3000421 0.03511909
v -0.6342673 0.3000421 0.03511909
v 0.7 -0.35 0
v -0.7 -0.35 0
v -0.7 -0.35 0.06999999
v 0.7 -0.35 0.06999999
v 0.05492941 0.0199294 0
v -0.05492941 0.0199294 0
v -0.05492941 0.0199294 -0.189472
v 0.05492941 0.0199294 -0.189472
v -0.7 0.35 0
v 0.7 0.35 0
v 0.7 0.35 0.06066466
v -0.7 0.35 0.06066466
v 0.6342673 0.3000421 0.03511909
v 0.6342673 -0.3000421 0.03511909
v -0.6342673 -0.3000421 0.03511909
v -0.6342673 0.3000421 0.03511909
v 0.6642036 -0.3142036 0.06999999
v -0.6642036 -0.3142036 0.06999999
v -0.6342673 -0.3000421 0.03511909
v 0.6342673 -0.3000421 0.03511909
v 0.6642036 0.3142036 0.06999999
v 0.6642036 -0.3142036 0.06999999
v 0.6342673 -0.3000421 0.03511909
v 0.6342673 0.3000421 0.03511909
v 0.7275105 0.3200261 0.07403143
v 0.7275105 0.3200261 -0.004031438
v 0.560823 0.3200261 -0.004031438
v 0.560823 0.3200261 0.07403143
v 0.7275105 0.3200261 -0.004031438
v 0.7275105 0.3200261 0.07403143
v 0.7275105 0.3398324 0.07403143
v 0.7275105 0.3398324 -0.004031438
v 0.6876913 0.3796515 0.07403143
v 0.6815199 0.385823 -0.004031438
v 0.6815199 0.385823 0.06786004
v 0.5790799 0.385823 -0.004031438
v 0.5790799 0.385823 0.06786004
v 0.560823 0.367566 -0.004031438
v 0.560823 0.367566 0.07403143
v 0.5729085 0.3796515 0.07403143
v 0.560823 0.3200261 0.07403143
v 0.560823 0.3200261 -0.004031438
v 0.560823 0.367566 0.07403143
v 0.560823 0.3200261 0.07403143
v 0.6876913 0.3796515 0.07403143
v 0.7275105 0.3200261 0.07403143
v 0.7275105 0.3398324 0.07403143
v -0.5571077 0.3200261 -0.004031438
v -0.7358577 0.3200261 -0.004031438
v -0.7358577 0.3200261 0.07403143
v -0.5571077 0.3200261 0.07403143
v -0.7358577 0.3398324 0.07403143
v -0.7358577 0.3200261 0.07403143
v -0.7358577 0.3200261 -0.004031438
v -0.7358577 0.3398324 -0.004031438
v -0.6898672 0.385823 0.07403143
v -0.6898672 0.385823 -0.004031438
v -0.5753648 0.385823 -0.004031438
v -0.5753648 0.385823 0.07403143
v -0.5571077 0.367566 0.07403143
v -0.5571077 0.367566 -0.004031438
v -0.5571077 0.3200261 0.07403143
v -0.5571077 0.3200261 -0.004031438
v -0.6898672 0.385823 0.07403143
v -0.7358577 0.3200261 0.07403143
v -0.7358577 0.3398324 0.07403143
v -0.5571077 0.3200261 0.07403143
v -0.5753648 0.385823 0.07403143
v -0.5571077 0.367566 0.07403143
v -0.5753648 0.385823 -0.004031438
v -0.5571077 0.3200261 -0.004031438
v -0.5571077 0.367566 -0.004031438
v -0.6898672 0.385823 -0.004031438
v -0.7358577 0.3200261 -0.004031438
v -0.7358577 0.3398324 -0.004031438
v 0.560823 -0.3233984 -0.004031438
v 0.7275105 -0.3233984 -0.004031438
v 0.7275105 -0.3233984 0.07403143
v 0.560823 -0.3233984 0.07403143
v 0.7275105 -0.3432046 0.07403143
v 0.7275105 -0.3233984 0.07403143
v 0.7275105 -0.3233984 -0.004031438
v 0.7275105 -0.3432046 -0.004031438
v 0.6815199 -0.3891952 0.07403143
v 0.6815199 -0.3891952 -0.004031438
v 0.5790799 -0.3891952 -0.004031438
v 0.5790799 -0.3891952 0.07403143
v 0.560823 -0.3709382 0.07403143
v 0.560823 -0.3709382 -0.004031438
v 0.560823 -0.3233984 0.07403143
v 0.560823 -0.3233984 -0.004031438
v 0.6815199 -0.3891952 0.07403143
v 0.7275105 -0.3233984 0.07403143
v 0.7275105 -0.3432046 0.07403143
v 0.560823 -0.3233984 0.07403143
v 0.5790799 -0.3891952 0.07403143
v 0.560823 -0.3709382 0.07403143
v 0.5790799 -0.3891952 -0.004031438
v 0.560823 -0.3233984 -0.004031438
v 0.560823 -0.3709382 -0.004031438
v 0.6815199 -0.3891952 -0.004031438
v 0.7275105 -0.3233984 -0.004031438
v 0.7275105 -0.3432046 -0.004031438
v -0.7358577 -0.3233984 0.07403143
v -0.7358577 -0.3233984 -0.004031438
v -0.5571077 -0.3233984 -0.004031438
v -0.5571077 -0.3233984 0.07403143
v -0.7358577 -0.3233984 -0.004031438
v -0.7358577 -0.3233984 0.07403143
v -0.7358577 -0.3432046 0.07403143
v -0.7358577 -0.3432046 -0.004031438
v -0.6898672 -0.3891952 0.07403143
v -0.6898672 -0.3891952 -0.004031438
v -0.5753648 -0.3891952 -0.004031438
v -0.5753648 -0.3891952 0.07403143
v -0.5571077 -0.3709382 0.07403143
v -0.5571077 -0.3709382 -0.004031438
v -0.5571077 -0.3233984 0.07403143
v -0.5571077 -0.3233984 -0.004031438
v 0.1104211 -0.3062098 0.007047993
v 0.1104211 -0.3668601 0.007047993
v 0.1104211 -0.3668601 0.07212423
v 0.1104211 -0.3062098 0.07212423
v 0.06511422 -0.2630844 0.007047993
v 0.06511422 -0.2630844 0.07212423
v -0.02233838 -0.2630844 0.07212423
v -0.02233838 -0.2630844 0.007047993
v -0.06832887 -0.3060492 0.007047993
v -0.06832887 -0.3060492 0.07212423
v -0.06832887 -0.3668601 0.007047993
v -0.06832887 -0.3668601 0.07212423
v 0.1104211 -0.3668601 0.007047993
v -0.06832887 -0.3668601 0.007047993
v -0.05534223 -0.347337 0.08511087
v 0.09743444 -0.347337 0.08511087
v -0.05534223 -0.3114285 0.08511087
v -0.01695914 -0.2760711 0.08511087
v 0.09743444 -0.3117777 0.08511087
v 0.05992166 -0.2760711 0.08511087
v 0.06511422 -0.2630844 0.007047993
v 0.1104211 -0.3668601 0.007047993
v 0.1104211 -0.3062098 0.007047993
v -0.02233838 -0.2630844 0.007047993
v -0.06832887 -0.3668601 0.007047993
v -0.06832887 -0.3060492 0.007047993
v -0.05492941 0.0199294 -0.189472
v -0.05492941 -0.0199294 -0.189472
v 0.05492941 -0.0199294 -0.189472
v 0.05492941 0.0199294 -0.189472
v 0.05492941 -0.0199294 0
v 0.05492941 0.0199294 0
v 0.05492941 0.0199294 -0.189472
v 0.05492941 -0.0199294 -0.189472
v -0.05492941 0.0199294 0
v -0.05492941 -0.0199294 0
v -0.05492941 -0.0199294 -0.189472
v -0.05492941 0.0199294 -0.189472
v -0.05492941 -0.0199294 0
v 0.05492941 -0.0199294 0
v 0.05492941 -0.0199294 -0.189472
v -0.05492941 -0.0199294 -0.189472
v -0.7 0.35 0.06066466
v 0.7 0.35 0.06066466
v 0.6906646 0.3406647 0.06999999
v -0.6906646 0.3406647 0.06999999
v 0.6853694 0.04693684 0.06999999
v 0.7 0.1275253 0.06999999
v 0.7 0.0447253 0.05797373
v 0.7 -0.02912258 0.06999999
v 0.6876913 0.3796515 0.07403143
v 0.5729085 0.3796515 0.07403143
v 0.5790799 0.385823 0.06786004
v 0.6815199 0.385823 0.06786004
v -0.7 -0.35 0
v -0.7 0.3406647 0.06999999
v -0.7 -0.35 0.06999999
v -0.7 0.35 0
v -0.7 0.35 0.06066466
v 0.7 -0.35 0.06999999
v 0.7 -0.02912258 0.06999999
v 0.7 -0.35 0
v 0.7 0.0447253 0.05797373
v 0.7 0.35 0
v 0.7 0.1275253 0.06999999
v 0.7 0.3406647 0.06999999
v 0.7 0.35 0.06066466
v -0.6642036 -0.3142036 0.06999999
v -0.6342673 0.3000421 0.03511909
v -0.6342673 -0.3000421 0.03511909
v -0.6642036 0.3142036 0.06999999
v -0.7 0.3406647 0.06999999
v -0.7 -0.35 0.06999999
v -0.6906646 0.3406647 0.06999999
v 0.7 -0.35 0.06999999
v 0.6642036 0.3142036 0.06999999
v 0.6642036 -0.3142036 0.06999999
v 0.7 -0.02912258 0.06999999
v 0.6853694 0.04693684 0.06999999
v 0.6906646 0.3406647 0.06999999
v 0.7 0.1275253 0.06999999
v 0.7 0.3406647 0.06999999
v 0.7275105 0.3398324 -0.004031438
v 0.6815199 0.385823 -0.004031438
v 0.7275105 0.3200261 -0.004031438
v 0.560823 0.3200261 -0.004031438
v 0.5790799 0.385823 -0.004031438
v 0.560823 0.367566 -0.004031438
v -0.5571077 -0.3709382 0.07403143
v -0.5753648 -0.3891952 0.07403143
v -0.5571077 -0.3233984 0.07403143
v -0.6898672 -0.3891952 0.07403143
v -0.7358577 -0.3233984 0.07403143
v -0.7358577 -0.3432046 0.07403143
v -0.7358577 -0.3432046 -0.004031438
v -0.6898672 -0.3891952 -0.004031438
v -0.7358577 -0.3233984 -0.004031438
v -0.5571077 -0.3233984 -0.004031438
v -0.5753648 -0.3891952 -0.004031438
v -0.5571077 -0.3709382 -0.004031438
v 0.05492941 -0.0199294 0
v -0.05492941 -0.0199294 0
v -0.7 -0.35 0
v 0.7 -0.35 0
v -0.7 0.35 0
v 0.05492941 0.0199294 0
v -0.05492941 0.0199294 0
v 0.7 0.35 0
vt 0.1422119 0.8574219
vt 0.1422119 0.8574219
vt 0.1422119 0.8574219
vt 0.1422119 0.8574219
vt 0.1422119 0.8574219
vt 0.1422119 0.8574219
vt 0.1099854 0.8598633
vt 0.1099854 0.8598633
vt 0.1099854 0.8598633
vt 0.1099854 0.8598633
vt 0.1099854 0.8598633
vt 0.1099854 0.8598633
vt 0.1099854 0.8598633
vt 0.1099854 0.8598633
vt 0.1099854 0.8598633
vt 0.1099854 0.8598633
vt 0.1099854 0.8598633
vt 0.1099854 0.8598633
vt 0.1099854 0.8598633
vt 0.1099854 0.8598633
vt 0.1099854 0.8598633
vt 0.1099854 0.8598633
vt 0.1189575 0.7148438
vt 0.1189575 0.6611328
vt 0.004985809 0.6611328
vt 0.004985809 0.7148438
vt 0.1099854 0.8598633
vt 0.1099854 0.8598633
vt 0.1099854 0.8598633
vt 0.1099854 0.8598633
vt 0.1099854 0.8598633
vt 0.1099854 0.8598633
vt 0.1099854 0.8598633
vt 0.1099854 0.8598633
vt 0.2956543 0.8588867
vt 0.2956543 0.8588867
vt 0.2956543 0.8588867
vt 0.2956543 0.8588867
vt 0.2956543 0.8588867
vt 0.2956543 0.8588867
vt 0.2956543 0.8588867
vt 0.2956543 0.8588867
vt 0.2956543 0.8588867
vt 0.2956543 0.8588867
vt 0.2956543 0.8588867
vt 0.2956543 0.8588867
vt 0.2956543 0.8588867
vt 0.2956543 0.8588867
vt 0.2956543 0.8588867
vt 0.2956543 0.8588867
vt 0.2956543 0.8588867
vt 0.2956543 0.8588867
vt 0.2956543 0.8588867
vt 0.2956543 0.8588867
vt 0.2956543 0.8588867
vt 0.2956543 0.8588867
vt 0.2956543 0.8588867
vt 0.2956543 0.8588867
vt 0.2956543 0.8588867
vt 0.2956543 0.8588867
vt 0.2956543 0.8588867
vt 0.2956543 0.8588867
vt 0.2956543 0.8588867
vt 0.2956543 0.8588867
vt 0.2956543 0.8588867
vt 0.2956543 0.8588867
vt 0.2956543 0.8588867
vt 0.2956543 0.8588867
vt 0.2956543 0.8588867
vt 0.2956543 0.8588867
vt 0.2956543 0.8588867
vt 0.2956543 0.8588867
vt 0.2956543 0.8588867
vt 0.2956543 0.8588867
vt 0.2956543 0.8588867
vt 0.2956543 0.8588867
vt 0.2956543 0.8588867
vt 0.2956543 0.8588867
vt 0.2956543 0.8588867
vt 0.2956543 0.8588867
vt 0.2956543 0.8588867
vt 0.2956543 0.8588867
vt 0.2956543 0.8588867
vt 0.2956543 0.8588867
vt 0.2956543 0.8588867
vt 0.2956543 0.8588867
vt 0.2956543 0.8588867
vt 0.2956543 0.8588867
vt 0.2956543 0.8588867
vt 0.2956543 0.8588867
vt 0.2956543 0.8588867
vt 0.2956543 0.8588867
vt 0.2956543 0.8588867
vt 0.2956543 0.8588867
vt 0.2956543 0.8588867
vt 0.2956543 0.8588867
vt 0.2956543 0.8588867
vt 0.2956543 0.8588867
vt 0.2956543 0.8588867
vt 0.2956543 0.8588867
vt 0.2956543 0.8588867
vt 0.2956543 0.8588867
vt 0.2956543 0.8588867
vt 0.2956543 0.8588867
vt 0.2956543 0.8588867
vt 0.2956543 0.8588867
vt 0.2956543 0.8588867
vt 0.2956543 0.8588867
vt 0.2956543 0.8588867
vt 0.2956543 0.8588867
vt 0.2956543 0.8588867
vt 0.2956543 0.8588867
vt 0.2956543 0.8588867
vt 0.2956543 0.8588867
vt 0.2956543 0.8588867
vt 0.2956543 0.8588867
vt 0.2956543 0.8588867
vt 0.2956543 0.8588867
vt 0.2956543 0.8588867
vt 0.2956543 0.8588867
vt 0.2956543 0.8588867
vt 0.2956543 0.8588867
vt 0.2956543 0.8588867
vt 0.2956543 0.8588867
vt 0.2956543 0.8588867
vt 0.2956543 0.8588867
vt 0.2956543 0.8588867
vt 0.2956543 0.8588867
vt 0.2956543 0.8588867
vt 0.2956543 0.8588867
vt 0.2956543 0.8588867
vt 0.2956543 0.8588867
vt 0.2956543 0.8588867
vt 0.2956543 0.8588867
vt 0.2956543 0.8588867
vt 0.2956543 0.8588867
vt 0.2956543 0.8588867
vt 0.2956543 0.8588867
vt 0.2956543 0.8588867
vt 0.2956543 0.8588867
vt 0.2956543 0.8588867
vt 0.2956543 0.8588867
vt 0.2956543 0.8588867
vt 0.2956543 0.8588867
vt 0.2956543 0.8588867
vt 0.2956543 0.8588867
vt 0.2956543 0.8588867
vt 0.2956543 0.8588867
vt 0.2956543 0.8588867
vt 0.2956543 0.8588867
vt 0.2956543 0.8588867
vt 0.2956543 0.8588867
vt 0.2956543 0.8588867
vt 0.2956543 0.8588867
vt 0.2956543 0.8588867
vt 0.1099854 0.8598633
vt 0.1099854 0.8598633
vt 0.1099854 0.8598633
vt 0.1099854 0.8598633
vt 0.1099854 0.8598633
vt 0.1099854 0.8598633
vt 0.1099854 0.8598633
vt 0.1099854 0.8598633
vt 0.1099854 0.8598633
vt 0.1099854 0.8598633
vt 0.1099854 0.8598633
vt 0.1099854 0.8598633
vt 0.1099854 0.8598633
vt 0.1099854 0.8598633
vt 0.1099854 0.8598633
vt 0.1099854 0.8598633
vt 0.1685791 0.859375
vt 0.1685791 0.859375
vt 0.1685791 0.859375
vt 0.1685791 0.859375
vt 0.1719971 0.8564453
vt 0.1719971 0.8564453
vt 0.1719971 0.8564453
vt 0.1719971 0.8564453
vt 0.3571777 0.8564453
vt 0.3571777 0.8564453
vt 0.3571777 0.8564453
vt 0.3571777 0.8564453
vt 0.1099854 0.8598633
vt 0.1099854 0.8598633
vt 0.1099854 0.8598633
vt 0.1099854 0.8598633
vt 0.1099854 0.8598633
vt 0.1099854 0.8598633
vt 0.1099854 0.8598633
vt 0.1099854 0.8598633
vt 0.1099854 0.8598633
vt 0.1099854 0.8598633
vt 0.1099854 0.8598633
vt 0.1099854 0.8598633
vt 0.1099854 0.8598633
vt 0.1099854 0.8598633
vt 0.1099854 0.8598633
vt 0.1099854 0.8598633
vt 0.1099854 0.8598633
vt 0.1099854 0.8598633
vt 0.1099854 0.8598633
vt 0.1099854 0.8598633
vt 0.1099854 0.8598633
vt 0.1099854 0.8598633
vt 0.1099854 0.8598633
vt 0.1099854 0.8598633
vt 0.1099854 0.8598633
vt 0.1099854 0.8598633
vt 0.1099854 0.8598633
vt 0.1099854 0.8598633
vt 0.2956543 0.8588867
vt 0.2956543 0.8588867
vt 0.2956543 0.8588867
vt 0.2956543 0.8588867
vt 0.2956543 0.8588867
vt 0.2956543 0.8588867
vt 0.2956543 0.8588867
vt 0.2956543 0.8588867
vt 0.2956543 0.8588867
vt 0.2956543 0.8588867
vt 0.2956543 0.8588867
vt 0.2956543 0.8588867
vt 0.2956543 0.8588867
vt 0.2956543 0.8588867
vt 0.2956543 0.8588867
vt 0.2956543 0.8588867
vt 0.2956543 0.8588867
vt 0.2956543 0.8588867
vt 0.1099854 0.8598633
vt 0.1099854 0.8598633
vt 0.1099854 0.8598633
vt 0.1099854 0.8598633
vt 0.1099854 0.8598633
vt 0.1099854 0.8598633
vt 0.1099854 0.8598633
vt 0.1099854 0.8598633
vn 0 0.3825684 0.9238281
vn 0 0.3825684 0.9238281
vn 0 0.9238281 0.3825684
vn 0 0.9238281 0.3825684
vn 0 0.3825684 0.9238281
vn 0 0.3825684 0.9238281
vn 0 -0.9267578 0.3762207
vn 0 -0.9267578 0.3762207
vn 0 -0.9267578 0.3762207
vn 0 -0.9267578 0.3762207
vn 0 -1 0
vn 0 -1 0
vn 0 -1 0
vn 0 -1 0
vn 0 1 0
vn 0 1 0
vn 0 1 0
vn 0 1 0
vn 0 1 0
vn 0 1 0
vn 0 0.9238281 0.3825684
vn 0 0.9238281 0.3825684
vn 0 0 1
vn 0 0 1
vn 0 0 1
vn 0 0 1
vn 0 0.9267578 0.3762207
vn 0 0.9267578 0.3762207
vn 0 0.9267578 0.3762207
vn 0 0.9267578 0.3762207
vn -0.7587891 0 0.6513672
vn -0.7587891 0 0.6513672
vn -0.7587891 0 0.6513672
vn -0.7587891 0 0.6513672
vn 0 -1 0
vn 0 -1 0
vn 0 -1 0
vn 0 -1 0
vn 1 0 0
vn 1 0 0
vn 0.9238281 0.3825684 0
vn 0.9238281 0.3825684 5.960464E-08
vn 0.7070313 0.7070313 5.960464E-08
vn 0.3825684 0.9238281 1.192093E-07
vn 0.300293 0.9052734 0.300293
vn -0.3825684 0.9238281 0
vn -0.300293 0.9052734 0.300293
vn -0.9238281 0.3825684 0
vn -0.9238281 0.3825684 1.072884E-06
vn -0.4160156 0.5732422 0.7060547
vn -1 0 0
vn -1 0 0
vn 0 0 1
vn 0 5.960464E-08 1
vn 0 0.2175293 0.9760742
vn 0 0 1
vn 0 0 1
vn 0 -1 0
vn 0 -1 0
vn 0 -1 0
vn 0 -1 0
vn -0.9238281 0.3825684 0
vn -1 0 0
vn -1 0 0
vn -0.9238281 0.3825684 0
vn -0.3825684 0.9238281 0
vn -0.3825684 0.9238281 0
vn 0.3825684 0.9238281 0
vn 0.3825684 0.9238281 0
vn 0.9238281 0.3825684 0
vn 0.9238281 0.3825684 0
vn 1 0 0
vn 1 0 0
vn 0 0 1
vn 0 0 1
vn 0 0 1
vn 0 0 1
vn 0 0 1
vn 0 0 1
vn 0 0 -1
vn 0 0 -1
vn 0 0 -1
vn 0 0 -1
vn 0 0 -1
vn 0 0 -1
vn 0 1 0
vn 0 1 0
vn 0 1 0
vn 0 1 0
vn 0.9238281 -0.3825684 0
vn 1 0 0
vn 1 0 0
vn 0.9238281 -0.3825684 0
vn 0.3825684 -0.9238281 0
vn 0.3825684 -0.9238281 0
vn -0.3825684 -0.9238281 0
vn -0.3825684 -0.9238281 0
vn -0.9238281 -0.3825684 0
vn -0.9238281 -0.3825684 0
vn -1 0 0
vn -1 0 0
vn 0 0 1
vn 0 0 1
vn 0 0 1
vn 0 0 1
vn 0 5.960464E-08 1
vn 0 0 1
vn 0 0 -1
vn 0 0 -1
vn 0 0 -1
vn 0 0 -1
vn 0 0 -1
vn 0 0 -1
vn 0 1 0
vn 0 1 0
vn 0 1 0
vn 0 1 0
vn -1 0 0
vn -1 0 0
vn -0.9238281 -0.3825684 0
vn -0.9238281 -0.3825684 0
vn -0.3825684 -0.9238281 0
vn -0.3825684 -0.9238281 0
vn 0.3825684 -0.9238281 0
vn 0.3825684 -0.9238281 0
vn 0.9238281 -0.3825684 0
vn 0.9238281 -0.3825684 0
vn 1 0 0
vn 1 0 0
vn 0.9189453 0.394043 0
vn 1 0 0
vn 0.6313477 -0.6479492 0.4260254
vn 0.8540039 0.3662109 0.3691406
vn 0.3713379 0.9287109 0
vn 0.3452148 0.8632813 0.3686523
vn -0.3410645 0.8642578 0.3693848
vn -0.3669434 0.9301758 0
vn -0.9174805 0.3984375 0
vn -0.8535156 0.3696289 0.3676758
vn -1 0 0
vn -0.6313477 -0.6479492 0.4260254
vn 0 -1 0
vn 0 -1 0
vn -0.3132324 -0.2133789 0.925293
vn 0.3132324 -0.2133789 0.925293
vn -0.4033203 0.1774902 0.8979492
vn -0.1560059 0.4052734 0.9008789
vn 0.4030762 0.1727295 0.8989258
vn 0.1622314 0.4057617 0.8994141
vn 0 0 -1
vn 0 0 -1
vn 0 0 -1
vn 0 0 -1
vn 0 0 -1
vn 0 0 -1
vn 0 0 -1
vn 0 0 -1
vn 0 0 -1
vn 0 0 -1
vn 1 0 0
vn 1 0 0
vn 1 0 0
vn 1 0 0
vn -1 0 0
vn -1 0 0
vn -1 0 0
vn -1 0 0
vn 0 -1 0
vn 0 -1 0
vn 0 -1 0
vn 0 -1 0
vn 0 0.9238281 0.3825684
vn 0 0.9238281 0.3825684
vn 0 0.3825684 0.9238281
vn 0 0.3825684 0.9238281
vn 0.6347656 -0.004573822 0.7729492
vn 0.9985352 -0.008232117 0.05670166
vn 0.9204102 0.007221222 0.3913574
vn 0.9980469 0.009750366 0.05990601
vn 0 0.2175293 0.9760742
vn -0.4160156 0.5732422 0.7060547
vn -0.300293 0.9052734 0.300293
vn 0.300293 0.9052734 0.300293
vn -1 0 0
vn -1 0 0
vn -1 0 0
vn -1 0 0
vn -1 0 0
vn 1 0 0
vn 0.9980469 0.009750366 0.05990601
vn 1 0 5.960464E-08
vn 0.9204102 0.007221222 0.3913574
vn 1 0 -5.960464E-08
vn 0.9985352 -0.008232117 0.05670166
vn 1 0 0
vn 1 0 0
vn 0.1716309 0 0.9853516
vn 0.7587891 0 0.6513672
vn 0.7587891 0 0.6513672
vn 0.1716309 1.192093E-07 0.9853516
vn 0 0.3825684 0.9238281
vn 0 0 1
vn 0 0.3825684 0.9238281
vn 0 0 1
vn 0 0 1
vn 0 0 1
vn 0 0 1
vn 0 0 1
vn 0 0.3825684 0.9238281
vn 0 0 1
vn 0 0.3825684 0.9238281
vn 0 0 -1
vn 0 0 -1
vn 0 0 -1
vn 0 0 -1
vn 0 0 -1
vn 0 0 -1
vn 0 0 1
vn 0 0 1
vn 0 0 1
vn 0 0 1
vn 0 0 1
vn 0 0 1
vn 0 0 -1
vn 0 0 -1
vn 0 0 -1
vn 0 0 -1
vn 0 0 -1
vn 0 0 -1
vn 0 0 -1
vn 0 0 -1
vn 0 0 -1
vn 0 0 -1
vn 0 0 -1
vn 0 0 -1
vn 0 0 -1
vn 0 0 -1
g IL_SS_Display_0
f 3/3/3 2/2/2 1/1/1
f 6/6/6 5/5/5 4/4/4
f 9/9/9 8/8/8 7/7/7
f 10/10/10 9/9/9 7/7/7
f 13/13/13 12/12/12 11/11/11
f 14/14/14 13/13/13 11/11/11
f 17/17/17 16/16/16 15/15/15
f 18/18/18 17/17/17 15/15/15
f 21/21/21 20/20/20 19/19/19
f 22/22/22 21/21/21 19/19/19
f 25/25/25 24/24/24 23/23/23
f 26/26/26 25/25/25 23/23/23
f 29/29/29 28/28/28 27/27/27
f 30/30/30 29/29/29 27/27/27
f 33/33/33 32/32/32 31/31/31
f 34/34/34 33/33/33 31/31/31
f 37/37/37 36/36/36 35/35/35
f 38/38/38 37/37/37 35/35/35
f 41/41/41 40/40/40 39/39/39
f 42/42/42 41/41/41 39/39/39
f 41/41/41 42/42/42 43/43/43
f 44/44/44 43/43/43 42/42/42
f 45/45/45 43/43/43 44/44/44
f 45/45/45 44/44/44 46/46/46
f 47/47/47 45/45/45 46/46/46
f 46/46/46 48/48/48 47/47/47
f 48/48/48 49/49/49 47/47/47
f 50/50/50 47/47/47 49/49/49
f 49/49/49 48/48/48 51/51/51
f 48/48/48 52/52/52 51/51/51
f 54/54/54 50/50/50 53/53/53
f 50/50/50 54/54/54 55/55/55
f 56/56/56 55/55/55 54/54/54
f 57/57/57 55/55/55 56/56/56
f 60/60/60 59/59/59 58/58/58
f 61/61/61 60/60/60 58/58/58
f 64/64/64 63/63/63 62/62/62
f 65/65/65 64/64/64 62/62/62
f 62/62/62 66/66/66 65/65/65
f 66/66/66 67/67/67 65/65/65
f 68/68/68 67/67/67 66/66/66
f 69/69/69 68/68/68 66/66/66
f 68/68/68 69/69/69 70/70/70
f 71/71/71 68/68/68 70/70/70
f 70/70/70 72/72/72 71/71/71
f 72/72/72 73/73/73 71/71/71
f 76/76/76 75/75/75 74/74/74
f 77/77/77 74/74/74 75/75/75
f 77/77/77 78/78/78 74/74/74
f 79/79/79 78/78/78 77/77/77
f 82/82/82 81/81/81 80/80/80
f 80/80/80 81/81/81 83/83/83
f 84/84/84 83/83/83 81/81/81
f 85/85/85 83/83/83 84/84/84
f 88/88/88 87/87/87 86/86/86
f 89/89/89 88/88/88 86/86/86
f 92/92/92 91/91/91 90/90/90
f 93/93/93 92/92/92 90/90/90
f 90/90/90 94/94/94 93/93/93
f 94/94/94 95/95/95 93/93/93
f 96/96/96 95/95/95 94/94/94
f 97/97/97 96/96/96 94/94/94
f 96/96/96 97/97/97 98/98/98
f 99/99/99 96/96/96 98/98/98
f 98/98/98 100/100/100 99/99/99
f 100/100/100 101/101/101 99/99/99
f 104/104/104 103/103/103 102/102/102
f 105/105/105 102/102/102 103/103/103
f 105/105/105 106/106/106 102/102/102
f 107/107/107 106/106/106 105/105/105
f 110/110/110 109/109/109 108/108/108
f 108/108/108 109/109/109 111/111/111
f 112/112/112 111/111/111 109/109/109
f 113/113/113 111/111/111 112/112/112
f 116/116/116 115/115/115 114/114/114
f 117/117/117 116/116/116 114/114/114
f 120/120/120 119/119/119 118/118/118
f 121/121/121 120/120/120 118/118/118
f 120/120/120 121/121/121 122/122/122
f 121/121/121 123/123/123 122/122/122
f 122/122/122 123/123/123 124/124/124
f 125/125/125 122/122/122 124/124/124
f 126/126/126 125/125/125 124/124/124
f 127/127/127 126/126/126 124/124/124
f 126/126/126 127/127/127 128/128/128
f 127/127/127 129/129/129 128/128/128
f 132/132/132 131/131/131 130/130/130
f 133/133/133 132/132/132 130/130/130
f 130/130/130 134/134/134 133/133/133
f 134/134/134 135/135/135 133/133/133
f 135/135/135 134/134/134 136/136/136
f 134/134/134 137/137/137 136/136/136
f 136/136/136 137/137/137 138/138/138
f 139/139/139 136/136/136 138/138/138
f 138/138/138 140/140/140 139/139/139
f 140/140/140 141/141/141 139/139/139
f 132/132/132 141/141/141 142/142/142
f 141/141/141 143/143/143 142/142/142
f 139/139/139 141/141/141 144/144/144
f 144/144/144 141/141/141 132/132/132
f 145/145/145 132/132/132 133/133/133
f 145/145/145 144/144/144 132/132/132
f 139/139/139 146/146/146 136/136/136
f 146/146/146 139/139/139 144/144/144
f 146/146/146 147/147/147 136/136/136
f 146/146/146 144/144/144 147/147/147
f 136/136/136 147/147/147 135/135/135
f 145/145/145 147/147/147 144/144/144
f 148/148/148 133/133/133 135/135/135
f 148/148/148 145/145/145 133/133/133
f 147/147/147 149/149/149 135/135/135
f 145/145/145 149/149/149 147/147/147
f 149/149/149 148/148/148 135/135/135
f 148/148/148 149/149/149 145/145/145
f 152/152/152 151/151/151 150/150/150
f 153/153/153 150/150/150 151/151/151
f 154/154/154 153/153/153 151/151/151
f 155/155/155 153/153/153 154/154/154
f 158/158/158 157/157/157 156/156/156
f 159/159/159 158/158/158 156/156/156
f 162/162/162 161/161/161 160/160/160
f 163/163/163 162/162/162 160/160/160
f 166/166/166 165/165/165 164/164/164
f 167/167/167 166/166/166 164/164/164
f 170/170/170 169/169/169 168/168/168
f 171/171/171 170/170/170 168/168/168
f 174/174/174 173/173/173 172/172/172
f 175/175/175 174/174/174 172/172/172
f 178/178/178 177/177/177 176/176/176
f 176/176/176 179/179/179 178/178/178
f 182/182/182 181/181/181 180/180/180
f 183/183/183 182/182/182 180/180/180
f 186/186/186 185/185/185 184/184/184
f 187/187/187 184/184/184 185/185/185
f 188/188/188 187/187/187 185/185/185
f 191/191/191 190/190/190 189/189/189
f 190/190/190 191/191/191 192/192/192
f 193/193/193 192/192/192 191/191/191
f 192/192/192 193/193/193 194/194/194
f 194/194/194 193/193/193 195/195/195
f 196/196/196 195/195/195 193/193/193
f 199/199/199 198/198/198 197/197/197
f 198/198/198 200/200/200 197/197/197
f 200/200/200 201/201/201 197/197/197
f 197/197/197 201/201/201 202/202/202
f 203/203/203 201/201/201 200/200/200
f 202/202/202 204/204/204 197/197/197
f 203/203/203 200/200/200 205/205/205
f 204/204/204 206/206/206 197/197/197
f 204/204/204 207/207/207 206/206/206
f 207/207/207 208/208/208 206/206/206
f 206/206/206 208/208/208 205/205/205
f 209/209/209 203/203/203 205/205/205
f 210/210/210 205/205/205 208/208/208
f 205/205/205 211/211/211 209/209/209
f 211/211/211 205/205/205 210/210/210
f 214/214/214 213/213/213 212/212/212
f 215/215/215 213/213/213 214/214/214
f 213/213/213 215/215/215 216/216/216
f 217/217/217 216/216/216 215/215/215
f 220/220/220 219/219/219 218/218/218
f 219/219/219 220/220/220 221/221/221
f 222/222/222 221/221/221 220/220/220
f 223/223/223 221/221/221 222/222/222
f 226/226/226 225/225/225 224/224/224
f 227/227/227 225/225/225 226/226/226
f 225/225/225 227/227/227 228/228/228
f 229/229/229 228/228/228 227/227/227
f 232/232/232 231/231/231 230/230/230
f 233/233/233 232/232/232 230/230/230
f 232/232/232 234/234/234 231/231/231
f 233/233/233 230/230/230 235/235/235
f 234/234/234 236/236/236 231/231/231
f 237/237/237 233/233/233 235/235/235
f 237/237/237 235/235/235 236/236/236
f 234/234/234 237/237/237 236/236/236
