g IL_Sensors_2_sh_1
v -0.9751277 0.8383293 0.2643929
v 0.953658 0.8383293 0.2643929
v 0.953658 0.8383293 -0.3
v 0.9892651 0.802722 0.3
v 0.9892651 0.802722 -0.3
v 0.6640517 0.5131159 0.3
v 0.6640517 -0.6163471 0.271533
v 0.6640517 -0.6163471 0.3
v 0.6640517 0.5131159 0.271533
v -0.9892651 0.8241918 0.2785302
v -0.9764712 0.8369858 0.2430977
v -0.9822682 0.8032379 0.299484
v -0.9751277 0.8383293 0.239377
v -0.5685163 0.8383293 -0.3
v 0.3297501 0.01254714 -0.3
v -0.982096 0.802722 0.3
v -0.6699904 0.5158014 0.3
v 0.3549388 -0.01060891 -0.3
v -0.667069 0.5131159 0.3
v 0.5829943 -0.6163471 0.271533
v 0.5816846 -0.6163471 0.2732704
v 0.9892651 -0.7567034 -0.06486425
v 0.9892651 -0.5937489 -0.3
v 0.5615343 -0.6163471 0.3
v 0.5673255 -0.6216711 0.3
v -0.6462338 0.5131159 0.2723616
v -0.2402483 0.140465 0.271533
v 0.6220304 -0.6719615 0.3
v -0.6456093 0.5131159 0.271533
v 0.9892651 -0.8256907 0.0346812
v 0.9892651 -0.8383294 0.3
v 0.8485547 -0.7774369 0.3
v 0.6903533 -0.708975 0.3
v 0.6373353 -0.6860315 0.3
v -0.9751277 0.8383293 0.2643929
v -0.9751277 0.8383293 0.2643929
v -0.9751277 0.8383293 0.2643929
v -0.9751277 0.8383293 0.2643929
v -0.9751277 0.8383293 0.2643929
v 0.953658 0.8383293 0.2643929
v 0.953658 0.8383293 0.2643929
v 0.953658 0.8383293 0.2643929
v 0.953658 0.8383293 0.2643929
v 0.953658 0.8383293 -0.3
v 0.953658 0.8383293 -0.3
v 0.953658 0.8383293 -0.3
v 0.953658 0.8383293 -0.3
v 0.953658 0.8383293 -0.3
v 0.953658 0.8383293 -0.3
v 0.9892651 0.802722 0.3
v 0.9892651 0.802722 0.3
v 0.9892651 0.802722 0.3
v 0.9892651 0.802722 0.3
v 0.9892651 0.802722 0.3
v 0.9892651 0.802722 0.3
v 0.9892651 0.802722 0.3
v 0.9892651 0.802722 0.3
v 0.9892651 0.802722 -0.3
v 0.9892651 0.802722 -0.3
v 0.9892651 0.802722 -0.3
v 0.9892651 0.802722 -0.3
v 0.9892651 0.802722 -0.3
v 0.6640517 0.5131159 0.3
v 0.6640517 0.5131159 0.3
v 0.6640517 0.5131159 0.3
v 0.6640517 0.5131159 0.3
v 0.6640517 0.5131159 0.3
v 0.6640517 0.5131159 0.3
v 0.6640517 0.5131159 0.3
v 0.6640517 0.5131159 0.3
v 0.6640517 -0.6163471 0.271533
v 0.6640517 -0.6163471 0.271533
v 0.6640517 -0.6163471 0.271533
v 0.6640517 -0.6163471 0.271533
v 0.6640517 -0.6163471 0.3
v 0.6640517 -0.6163471 0.3
v 0.6640517 -0.6163471 0.3
v 0.6640517 -0.6163471 0.3
v 0.6640517 -0.6163471 0.3
v 0.6640517 -0.6163471 0.3
v 0.6640517 -0.6163471 0.3
v 0.6640517 -0.6163471 0.3
v 0.6640517 0.5131159 0.271533
v 0.6640517 0.5131159 0.271533
v 0.6640517 0.5131159 0.271533
v 0.6640517 0.5131159 0.271533
v -0.9892651 0.8241918 0.2785302
v -0.9892651 0.8241918 0.2785302
v -0.9764712 0.8369858 0.2430977
v -0.9764712 0.8369858 0.2430977
v -0.9764712 0.8369858 0.2430977
v -0.9764712 0.8369858 0.2430977
v -0.9822682 0.8032379 0.299484
v -0.9822682 0.8032379 0.299484
v -0.9822682 0.8032379 0.299484
v -0.9822682 0.8032379 0.299484
v -0.9751277 0.8383293 0.239377
v -0.9751277 0.8383293 0.239377
v -0.9751277 0.8383293 0.239377
v -0.9751277 0.8383293 0.239377
v -0.9751277 0.8383293 0.239377
v -0.9751277 0.8383293 0.239377
v -0.9751277 0.8383293 0.239377
v -0.9751277 0.8383293 0.239377
v -0.5685163 0.8383293 -0.3
v -0.5685163 0.8383293 -0.3
v -0.5685163 0.8383293 -0.3
v -0.5685163 0.8383293 -0.3
v 0.3297501 0.01254714 -0.3
v 0.3297501 0.01254714 -0.3
v 0.3297501 0.01254714 -0.3
v 0.3297501 0.01254714 -0.3
v -0.982096 0.802722 0.3
v -0.982096 0.802722 0.3
v -0.982096 0.802722 0.3
v -0.982096 0.802722 0.3
v -0.982096 0.802722 0.3
v -0.6699904 0.5158014 0.3
v -0.6699904 0.5158014 0.3
v -0.6699904 0.5158014 0.3
v -0.6699904 0.5158014 0.3
v 0.3549388 -0.01060891 -0.3
v 0.3549388 -0.01060891 -0.3
v 0.3549388 -0.01060891 -0.3
v 0.3549388 -0.01060891 -0.3
v 0.3549388 -0.01060891 -0.3
v 0.3549388 -0.01060891 -0.3
v 0.3549388 -0.01060891 -0.3
v -0.667069 0.5131159 0.3
v -0.667069 0.5131159 0.3
v -0.667069 0.5131159 0.3
v 0.5829943 -0.6163471 0.271533
v 0.5829943 -0.6163471 0.271533
v 0.5829943 -0.6163471 0.271533
v 0.5829943 -0.6163471 0.271533
v 0.5816846 -0.6163471 0.2732704
v 0.5816846 -0.6163471 0.2732704
v 0.5816846 -0.6163471 0.2732704
v 0.5816846 -0.6163471 0.2732704
v 0.5816846 -0.6163471 0.2732704
v 0.9892651 -0.7567034 -0.06486425
v 0.9892651 -0.7567034 -0.06486425
v 0.9892651 -0.7567034 -0.06486425
v 0.9892651 -0.7567034 -0.06486425
v 0.9892651 -0.7567034 -0.06486425
v 0.9892651 -0.5937489 -0.3
v 0.9892651 -0.5937489 -0.3
v 0.5615343 -0.6163471 0.3
v 0.5615343 -0.6163471 0.3
v 0.5673255 -0.6216711 0.3
v 0.5673255 -0.6216711 0.3
v 0.5673255 -0.6216711 0.3
v -0.6462338 0.5131159 0.2723616
v -0.6462338 0.5131159 0.2723616
v -0.6462338 0.5131159 0.2723616
v -0.2402483 0.140465 0.271533
v -0.2402483 0.140465 0.271533
v -0.2402483 0.140465 0.271533
v -0.2402483 0.140465 0.271533
v -0.2402483 0.140465 0.271533
v -0.2402483 0.140465 0.271533
v 0.6220304 -0.6719615 0.3
v 0.6220304 -0.6719615 0.3
v 0.6220304 -0.6719615 0.3
v 0.6220304 -0.6719615 0.3
v 0.6220304 -0.6719615 0.3
v 0.6220304 -0.6719615 0.3
v -0.6456093 0.5131159 0.271533
v -0.6456093 0.5131159 0.271533
v -0.6456093 0.5131159 0.271533
v -0.6456093 0.5131159 0.271533
v -0.6456093 0.5131159 0.271533
v 0.9892651 -0.8256907 0.0346812
v 0.9892651 -0.8256907 0.0346812
v 0.9892651 -0.8256907 0.0346812
v 0.9892651 -0.8256907 0.0346812
v 0.9892651 -0.8256907 0.0346812
v 0.9892651 -0.8383294 0.3
v 0.9892651 -0.8383294 0.3
v 0.9892651 -0.8383294 0.3
v 0.8485547 -0.7774369 0.3
v 0.8485547 -0.7774369 0.3
v 0.8485547 -0.7774369 0.3
v 0.8485547 -0.7774369 0.3
v 0.6903533 -0.708975 0.3
v 0.6903533 -0.708975 0.3
v 0.6903533 -0.708975 0.3
v 0.6903533 -0.708975 0.3
v 0.6373353 -0.6860315 0.3
v 0.6373353 -0.6860315 0.3
v 0.6373353 -0.6860315 0.3
v 0.6373353 -0.6860315 0.3
vt 0.57906 0.8611956
vt 0.5790601 0.8611957
vt 0.57906 0.8611957
vt 0.6151928 0.8543597
vt 0.6151928 0.8543597
vt 0.57906 0.8611957
vt 0.57906 0.8611957
vt 0.57906 0.8611957
vt 0.57906 0.8611957
vt 0.6151928 0.8543597
vt 0.6151928 0.8543597
vt 0.6151928 0.8543597
vt 0.6151928 0.8543597
vt 0.57906 0.8611957
vt 0.57906 0.8611957
vt 0.57906 0.8611956
vt 0.57906 0.8611957
vt 0.5790601 0.8611957
vt 0.57906 0.8611956
vt 0.57906 0.8611957
vt 0.57906 0.8611957
vt 0.57906 0.8611957
vt 0.57906 0.8611957
vt 0.57906 0.8611956
vt 0.57906 0.8611957
vt 0.57906 0.8611957
vt 0.8577523 0.8264687
vt 0.57906 0.8611957
vt 0.57906 0.8611957
vt 0.57906 0.8611957
vt 0.57906 0.8611957
vt 0.57906 0.8611956
vt 0.5790601 0.8611957
vt 0.57906 0.8611957
vt 0.6151928 0.8543597
vt 0.6151928 0.8543597
vt 0.6151928 0.8543597
vt 0.6151928 0.8543597
vt 0.57906 0.8611956
vt 0.6151929 0.8543598
vt 0.6151929 0.8543598
vt 0.6151929 0.8543598
vt 0.6151929 0.8543598
vt 0.6151928 0.8543597
vt 0.6151928 0.8543597
vt 0.57906 0.8611957
vt 0.57906 0.8611957
vt 0.57906 0.8611957
vt 0.57906 0.8611957
vt 0.6151928 0.8543597
vt 0.57906 0.8611957
vt 0.6151928 0.8543597
vt 0.57906 0.8611957
vt 0.57906 0.8611956
vt 0.57906 0.8611956
vt 0.57906 0.8611956
vt 0.57906 0.8611957
vt 0.57906 0.8611956
vt 0.57906 0.8611956
vt 0.57906 0.8611956
vt 0.57906 0.8611957
vt 0.57906 0.8611957
vt 0.57906 0.8611957
vt 0.57906 0.8611957
vt 0.57906 0.8611957
vt 0.57906 0.8611957
vt 0.57906 0.8611957
vt 0.57906 0.8611957
vt 0.57906 0.8611957
vt 0.57906 0.8611957
vt 0.57906 0.8611957
vt 0.8577524 0.8264687
vt 0.57906 0.8611957
vt 0.8577524 0.8264687
vt 0.57906 0.8611957
vt 0.57906 0.8611957
vt 0.57906 0.8611957
vt 0.57906 0.8611957
vt 0.57906 0.8611957
vt 0.57906 0.8611957
vt 0.57906 0.8611957
vt 0.57906 0.8611957
vt 0.57906 0.8611957
vt 0.57906 0.8611957
vt 0.8577524 0.8264687
vt 0.8577524 0.8264687
vt 0.6151928 0.8543597
vt 0.2485472 0.146947
vt 0.6151927 0.8543596
vt 0.2452975 0.1379471
vt 0.2452975 0.1379471
vt 0.2452975 0.1379471
vt 0.6151928 0.8543597
vt 0.6151928 0.8543597
vt 0.24677 0.1522692
vt 0.24677 0.1522692
vt 0.57906 0.8611957
vt 0.57906 0.8611957
vt 0.2449563 0.137002
vt 0.2449563 0.137002
vt 0.2449563 0.137002
vt 0.2449563 0.137002
vt 0.2449563 0.137002
vt 0.2449563 0.137002
vt 0.57906 0.8611957
vt 0.1416768 -2.886706E-08
vt 0.1416768 -2.886706E-08
vt 0.1416768 -2.886706E-08
vt 0.57906 0.8611957
vt 0.57906 0.8611957
vt -0.08648336 -1.969863E-08
vt -0.08648336 -1.969863E-08
vt 0.6151928 0.8543597
vt 0.6151928 0.8543597
vt 0.2467262 0.1524003
vt 0.2467262 0.1524003
vt 0.2467262 0.1524003
vt 0.57906 0.8611957
vt 0.57906 0.8611957
vt 0.1674512 0.1524003
vt 0.1674512 0.1524003
vt 0.57906 0.8611957
vt -0.0928813 -1.944154E-08
vt -0.0928813 -1.944154E-08
vt -0.0928813 -1.944154E-08
vt -0.0928813 -1.944154E-08
vt -0.0928813 -1.944154E-08
vt -0.0928813 -1.944154E-08
vt 0.57906 0.8611957
vt 0.1667092 0.1524003
vt 0.1667092 0.1524003
vt 0.8577524 0.8264687
vt -0.1508075 0.1451696
vt -0.1508075 0.1451696
vt -0.1508075 0.1451696
vt 0.57906 0.8611957
vt 0.57906 0.8611957
vt -0.1504749 0.145611
vt -0.1504749 0.145611
vt -0.1504749 0.145611
vt 0.57906 0.8611957
vt -0.2540005 0.0597246
vt 0.57906 0.8611957
vt -0.2540005 0.0597246
vt -0.2540005 0.0597246
vt 0.57906 0.8611957
vt -0.2540005 -1.29671E-08
vt 0.57906 0.8611957
vt -0.1453567 0.1524003
vt 0.57906 0.8611957
vt -0.1468276 0.1524003
vt -0.1468276 0.1524003
vt 0.57906 0.8611956
vt 0.1614171 0.1453801
vt 0.1614171 0.1453801
vt 0.8577524 0.8264687
vt 0.8577524 0.8264687
vt 0.05829653 0.1451696
vt 0.05829653 0.1451696
vt 0.05829653 0.1451696
vt 0.05829653 0.1451696
vt -0.1607227 0.1524003
vt -0.1607227 0.1524003
vt -0.1607227 0.1524003
vt 0.57906 0.8611957
vt 0.57906 0.8611957
vt -0.1607227 0.1524003
vt 0.57906 0.8611957
vt 0.8577524 0.8264687
vt 0.1612584 0.1451696
vt 0.1612584 0.1451696
vt 0.1612584 0.1451696
vt 0.57906 0.8611957
vt -0.2540005 0.08500919
vt -0.2540005 0.08500919
vt -0.2540005 0.08500919
vt -0.2540005 0.08500919
vt 0.57906 0.8611957
vt 0.57906 0.8611957
vt -0.2540005 0.1524003
vt 0.57906 0.8611957
vt 0.57906 0.8611957
vt -0.21826 0.1524003
vt -0.21826 0.1524003
vt 0.5790601 0.8611957
vt 0.57906 0.8611957
vt -0.1780767 0.1524003
vt -0.1780767 0.1524003
vt -0.1646101 0.1524003
vt -0.1646101 0.1524003
vt -0.1646101 0.1524003
vt -0.1646101 0.1524003
vn 0 1 0
vn 0 1 0
vn 0 1 0
vn 0.707107 0.7071065 0
vn 0.707107 0.7071065 0
vn -1 0 0
vn -1 0 0
vn -1 0 0
vn -1 0 0
vn -0.707107 0.7071065 0
vn -0.707107 0.7071066 0
vn 0 0.7071071 0.7071064
vn -0.707107 0.7071065 0
vn 0 0 -1
vn 0 0 -1
vn 0 0 1
vn 0 0 1
vn 0 0 -1
vn 0 0 1
vn 0 1 0
vn 0 1 0
vn 1 0 0
vn 0 0 -1
vn 0 0 1
vn 0 0 1
vn 0 -1 0
vn 0 0 1
vn 0 0 1
vn 0 -1 0
vn 1 0 0
vn 1 0 0
vn 0 0 1
vn 0 0 1
vn 0 0 1
vn -0.707107 0.7071065 0
vn 0 0.7071071 0.7071065
vn 0 0.7071071 0.7071065
vn -0.707107 0.7071065 0
vn 0 1 0
vn 0.707107 0.7071065 0
vn 0 0.7071071 0.7071065
vn 0 0.7071071 0.7071065
vn 0 0.7071071 0.7071065
vn 0.707107 0.7071065 0
vn 0.707107 0.7071065 0
vn 0 0 -1
vn 0 1 0
vn 0 1 0
vn 0 0 -1
vn 0.707107 0.7071065 0
vn 0 0 1
vn 0 0.7071071 0.7071065
vn 0 0 1
vn 1 0 0
vn 1 0 0
vn 1 0 0
vn 0 0 1
vn 0 0 -1
vn 0 0 -1
vn 0 0 -1
vn 1 0 0
vn 1 0 0
vn 0 0 1
vn 0 0 1
vn 0 -1 0
vn 0 -1 0
vn 0 -1 0
vn 0 0 1
vn 0 0 1
vn 0 0 1
vn 0 1 0
vn 0 0 1
vn 0 1 0
vn 0 0 1
vn -1 0 0
vn 0 0 1
vn 0 1 0
vn 0 1 0
vn 0 0 1
vn 0 0 1
vn 0 0 1
vn 0 0 1
vn -1 0 0
vn 0 -1 0
vn 0 0 1
vn 0 0 1
vn 0 0.7071071 0.7071064
vn -0.6028579 -0.6557642 -0.4544621
vn -0.707107 0.7071065 0
vn -0.6028392 -0.6557776 -0.4544675
vn -0.6027219 -0.6558594 -0.4545051
vn -0.6028579 -0.6557642 -0.4544621
vn 0 0.7071071 0.7071064
vn 0 0.7071071 0.7071064
vn -0.6027219 -0.6558594 -0.4545051
vn -0.6028579 -0.6557642 -0.4544621
vn 0 1 0
vn 0 1 0
vn -0.6028526 -0.6557685 -0.4544627
vn -0.602891 -0.6557982 -0.454369
vn -0.6028534 -0.6557695 -0.4544604
vn -0.6027994 -0.6557396 -0.4545752
vn -0.6028521 -0.6557685 -0.4544635
vn -0.6028392 -0.6557776 -0.4544675
vn 0 1 0
vn -0.6028525 -0.6557687 -0.4544627
vn -0.6028523 -0.6557688 -0.4544628
vn -0.6028526 -0.6557685 -0.4544627
vn 0 0 -1
vn 0 0 -1
vn -0.6028513 -0.6557708 -0.4544613
vn -0.6028525 -0.6557687 -0.4544627
vn 0 0.7071071 0.7071065
vn 0 0.7071071 0.7071065
vn -0.6028521 -0.6557685 -0.4544635
vn -0.6028392 -0.6557776 -0.4544675
vn -0.6027219 -0.6558594 -0.4545051
vn 0 0 1
vn 0 0 1
vn -0.6027994 -0.6557396 -0.4545752
vn -0.6028521 -0.6557685 -0.4544635
vn 0 0 -1
vn -0.6028522 -0.6557689 -0.4544628
vn -0.6028538 -0.6557683 -0.4544615
vn -0.6028523 -0.6557689 -0.4544626
vn -0.6028513 -0.6557708 -0.4544613
vn -0.6028525 -0.6557688 -0.4544626
vn -0.6028522 -0.6557688 -0.4544629
vn 0 -1 0
vn -0.6028534 -0.6557695 -0.4544604
vn -0.6027994 -0.6557396 -0.4545752
vn 0 0 1
vn -0.6028635 -0.6557684 -0.4544485
vn -0.6028538 -0.6557683 -0.4544615
vn -0.6028523 -0.6557689 -0.4544626
vn 0 1 0
vn 0 1 0
vn -0.6028554 -0.6557626 -0.4544675
vn -0.6028509 -0.6557678 -0.4544661
vn -0.6028635 -0.6557684 -0.4544485
vn 1 0 0
vn -0.6028522 -0.6557689 -0.4544628
vn 1 0 0
vn -0.6028522 -0.6557688 -0.4544629
vn -0.6028522 -0.6557688 -0.4544629
vn 1 0 0
vn -0.6028522 -0.6557689 -0.4544628
vn 0 1 0
vn -0.6028554 -0.6557626 -0.4544675
vn 0 0 1
vn -0.6028554 -0.6557626 -0.4544675
vn -0.6028509 -0.6557678 -0.4544661
vn 0 -1 0
vn -0.602891 -0.6557982 -0.454369
vn -0.6028534 -0.6557695 -0.4544604
vn 0 0 1
vn 0 0 1
vn -0.6028523 -0.6557689 -0.4544626
vn -0.6028513 -0.6557708 -0.4544613
vn -0.6028525 -0.6557687 -0.4544627
vn -0.6028523 -0.6557688 -0.4544628
vn -0.6028509 -0.6557678 -0.4544661
vn -0.6028635 -0.6557684 -0.4544485
vn -0.6028538 -0.6557683 -0.4544615
vn 0 0 1
vn 0 0 1
vn -0.6028525 -0.6557688 -0.4544626
vn 0 -1 0
vn 0 0 1
vn -0.6028523 -0.6557688 -0.4544628
vn -0.6028526 -0.6557685 -0.4544627
vn -0.602891 -0.6557982 -0.454369
vn 1 0 0
vn -0.6028522 -0.6557688 -0.4544629
vn -0.3967774 -0.9168753 -0.04367456
vn -0.3967789 -0.9168744 -0.04367685
vn -0.3967782 -0.9168748 -0.04367633
vn 0 0 1
vn 0 0 1
vn -0.3967782 -0.9168748 -0.04367633
vn 0 0 1
vn 0 0 1
vn -0.3967789 -0.9168744 -0.04367685
vn -0.3967782 -0.9168748 -0.04367633
vn 0 0 1
vn 0 0 1
vn -0.3967774 -0.9168753 -0.04367456
vn -0.3967789 -0.9168744 -0.04367685
vn -0.6028525 -0.6557688 -0.4544626
vn -0.6028522 -0.6557688 -0.4544629
vn -0.6028522 -0.6557688 -0.4544629
vn -0.3967774 -0.9168753 -0.04367456
g IL_Sensors_2_sh_1_0
f 1/1/1 2/2/2 3/3/3
f 40/40/40 4/4/4 44/44/44
f 50/50/50 5/5/5 45/45/45
f 9/9/9 7/7/7 8/8/8
f 6/6/6 83/83/83 75/75/75
f 11/11/11 10/10/10 35/35/35
f 12/12/12 36/36/36 87/87/87
f 41/41/41 37/37/37 93/93/93
f 13/13/13 89/89/89 38/38/38
f 15/15/15 14/14/14 46/46/46
f 51/51/51 16/16/16 17/17/17
f 113/113/113 52/52/52 42/42/42
f 94/94/94 114/114/114 43/43/43
f 97/97/97 39/39/39 47/47/47
f 105/105/105 98/98/98 48/48/48
f 109/109/109 49/49/49 58/58/58
f 18/18/18 110/110/110 59/59/59
f 19/19/19 63/63/63 118/118/118
f 64/64/64 53/53/53 119/119/119
f 71/71/71 20/20/20 21/21/21
f 60/60/60 23/23/23 122/122/122
f 76/76/76 24/24/24 25/25/25
f 129/129/129 26/26/26 65/65/65
f 27/27/27 132/132/132 72/72/72
f 148/148/148 77/77/77 136/136/136
f 78/78/78 73/73/73 137/137/137
f 146/146/146 61/61/61 22/22/22
f 62/62/62 54/54/54 141/141/141
f 150/150/150 28/28/28 79/79/79
f 29/29/29 84/84/84 66/66/66
f 153/153/153 168/168/168 67/67/67
f 156/156/156 85/85/85 169/169/169
f 74/74/74 86/86/86 157/157/157
f 30/30/30 55/55/55 31/31/31
f 143/143/143 56/56/56 173/173/173
f 178/178/178 57/57/57 68/68/68
f 33/33/33 165/165/165 34/34/34
f 80/80/80 166/166/166 185/185/185
f 179/179/179 69/69/69 32/32/32
f 181/181/181 70/70/70 81/81/81
f 82/82/82 186/186/186 182/182/182
g IL_Sensors_2_sh_1_1
f 151/151/151 149/149/149 138/138/138
f 162/162/162 152/152/152 139/139/139
f 163/163/163 140/140/140 133/133/133
f 123/123/123 147/147/147 142/142/142
f 124/124/124 164/164/164 134/134/134
f 125/125/125 135/135/135 158/158/158
f 111/111/111 126/126/126 159/159/159
f 106/106/106 112/112/112 160/160/160
f 107/107/107 161/161/161 170/170/170
f 99/99/99 108/108/108 171/171/171
f 100/100/100 172/172/172 154/154/154
f 101/101/101 155/155/155 130/130/130
f 102/102/102 131/131/131 120/120/120
f 103/103/103 121/121/121 115/115/115
f 90/90/90 104/104/104 116/116/116
f 91/91/91 117/117/117 95/95/95
f 96/96/96 88/88/88 92/92/92
f 167/167/167 127/127/127 189/189/189
f 190/190/190 128/128/128 144/144/144
f 145/145/145 174/174/174 191/191/191
f 187/187/187 192/192/192 175/175/175
f 183/183/183 188/188/188 176/176/176
f 177/177/177 180/180/180 184/184/184
