g IL_Terminal_1_sh_1
v 0.03541046 -0.1395464 -0.3
v 0.03541046 -0.03954642 -0.3999999
v 0.03541046 -0.1395464 -0.3999999
v 0.03541046 -0.03954642 -0.3
v 0.1354104 -0.1395464 -0.3
v 0.1354104 -0.03954642 -0.3999999
v 0.03541046 -0.09401228 0.3999999
v 0.1354104 -0.1395464 0.3999999
v 0.1354104 -0.1395464 -0.3999999
v 0.03541046 -0.03954642 0.3455342
v 0.03541046 -0.1395464 0.3999999
v 0.1354104 -0.03954642 -0.3
v 0.1354104 -0.03954642 0.3455342
v 0.1354104 -0.09401228 0.3999999
v -0.1354104 -0.1395464 -0.3
v -0.1313206 -0.1395464 -0.3119093
v -0.006970465 -0.04257363 -0.3999999
v -0.004032969 -0.03954642 -0.3999999
v -0.124338 -0.1281358 -0.3
v -0.1010691 -0.1395464 -0.3999999
v -0.00502485 -0.03954642 -0.3971117
v -0.03837436 -0.03954642 -0.3
v 0.1149707 0.08309208 -0.3999999
v 0.03541046 0.001101807 -0.3999999
v 0.03541046 0.004397005 -0.3906888
v 0.03541046 0.036492 -0.3
v 0.1354104 0.1041562 -0.3999999
v 0.05602318 0.05773433 -0.3
v 0.1354104 0.1295712 -0.3281862
v 0.1354104 0.1395464 -0.3
v 0.03541046 -0.1395464 -0.3
v 0.03541046 -0.1395464 -0.3
v 0.03541046 -0.1395464 -0.3
v 0.03541046 -0.1395464 -0.3
v 0.03541046 -0.1395464 -0.3
v 0.03541046 -0.1395464 -0.3
v 0.03541046 -0.1395464 -0.3
v 0.03541046 -0.1395464 -0.3
v 0.03541046 -0.03954642 -0.3999999
v 0.03541046 -0.03954642 -0.3999999
v 0.03541046 -0.03954642 -0.3999999
v 0.03541046 -0.03954642 -0.3999999
v 0.03541046 -0.03954642 -0.3999999
v 0.03541046 -0.03954642 -0.3999999
v 0.03541046 -0.03954642 -0.3999999
v 0.03541046 -0.03954642 -0.3999999
v 0.03541046 -0.03954642 -0.3999999
v 0.03541046 -0.03954642 -0.3999999
v 0.03541046 -0.1395464 -0.3999999
v 0.03541046 -0.1395464 -0.3999999
v 0.03541046 -0.1395464 -0.3999999
v 0.03541046 -0.1395464 -0.3999999
v 0.03541046 -0.1395464 -0.3999999
v 0.03541046 -0.1395464 -0.3999999
v 0.03541046 -0.03954642 -0.3
v 0.03541046 -0.03954642 -0.3
v 0.03541046 -0.03954642 -0.3
v 0.03541046 -0.03954642 -0.3
v 0.03541046 -0.03954642 -0.3
v 0.03541046 -0.03954642 -0.3
v 0.03541046 -0.03954642 -0.3
v 0.03541046 -0.03954642 -0.3
v 0.03541046 -0.03954642 -0.3
v 0.1354104 -0.1395464 -0.3
v 0.1354104 -0.1395464 -0.3
v 0.1354104 -0.1395464 -0.3
v 0.1354104 -0.1395464 -0.3
v 0.1354104 -0.03954642 -0.3999999
v 0.1354104 -0.03954642 -0.3999999
v 0.1354104 -0.03954642 -0.3999999
v 0.1354104 -0.03954642 -0.3999999
v 0.1354104 -0.03954642 -0.3999999
v 0.1354104 -0.03954642 -0.3999999
v 0.03541046 -0.09401228 0.3999999
v 0.03541046 -0.09401228 0.3999999
v 0.03541046 -0.09401228 0.3999999
v 0.03541046 -0.09401228 0.3999999
v 0.03541046 -0.09401228 0.3999999
v 0.03541046 -0.09401228 0.3999999
v 0.1354104 -0.1395464 0.3999999
v 0.1354104 -0.1395464 0.3999999
v 0.1354104 -0.1395464 0.3999999
v 0.1354104 -0.1395464 0.3999999
v 0.1354104 -0.1395464 0.3999999
v 0.1354104 -0.1395464 -0.3999999
v 0.1354104 -0.1395464 -0.3999999
v 0.1354104 -0.1395464 -0.3999999
v 0.03541046 -0.03954642 0.3455342
v 0.03541046 -0.03954642 0.3455342
v 0.03541046 -0.03954642 0.3455342
v 0.03541046 -0.1395464 0.3999999
v 0.03541046 -0.1395464 0.3999999
v 0.1354104 -0.03954642 -0.3
v 0.1354104 -0.03954642 -0.3
v 0.1354104 -0.03954642 -0.3
v 0.1354104 -0.03954642 -0.3
v 0.1354104 -0.03954642 -0.3
v 0.1354104 -0.03954642 -0.3
v 0.1354104 -0.03954642 -0.3
v 0.1354104 -0.03954642 -0.3
v 0.1354104 -0.03954642 -0.3
v 0.1354104 -0.03954642 -0.3
v 0.1354104 -0.03954642 0.3455342
v 0.1354104 -0.03954642 0.3455342
v 0.1354104 -0.03954642 0.3455342
v 0.1354104 -0.09401228 0.3999999
v 0.1354104 -0.09401228 0.3999999
v 0.1354104 -0.09401228 0.3999999
v -0.1354104 -0.1395464 -0.3
v -0.1354104 -0.1395464 -0.3
v -0.1313206 -0.1395464 -0.3119093
v -0.1313206 -0.1395464 -0.3119093
v -0.1313206 -0.1395464 -0.3119093
v -0.1313206 -0.1395464 -0.3119093
v -0.006970465 -0.04257363 -0.3999999
v -0.006970465 -0.04257363 -0.3999999
v -0.006970465 -0.04257363 -0.3999999
v -0.006970465 -0.04257363 -0.3999999
v -0.004032969 -0.03954642 -0.3999999
v -0.004032969 -0.03954642 -0.3999999
v -0.124338 -0.1281358 -0.3
v -0.124338 -0.1281358 -0.3
v -0.124338 -0.1281358 -0.3
v -0.124338 -0.1281358 -0.3
v -0.124338 -0.1281358 -0.3
v -0.124338 -0.1281358 -0.3
v -0.124338 -0.1281358 -0.3
v -0.1010691 -0.1395464 -0.3999999
v -0.1010691 -0.1395464 -0.3999999
v -0.1010691 -0.1395464 -0.3999999
v -0.1010691 -0.1395464 -0.3999999
v -0.00502485 -0.03954642 -0.3971117
v -0.00502485 -0.03954642 -0.3971117
v -0.00502485 -0.03954642 -0.3971117
v -0.00502485 -0.03954642 -0.3971117
v -0.03837436 -0.03954642 -0.3
v -0.03837436 -0.03954642 -0.3
v -0.03837436 -0.03954642 -0.3
v 0.1149707 0.08309208 -0.3999999
v 0.1149707 0.08309208 -0.3999999
v 0.1149707 0.08309208 -0.3999999
v 0.1149707 0.08309208 -0.3999999
v 0.1149707 0.08309208 -0.3999999
v 0.1149707 0.08309208 -0.3999999
v 0.1149707 0.08309208 -0.3999999
v 0.03541046 0.001101807 -0.3999999
v 0.03541046 0.001101807 -0.3999999
v 0.03541046 0.004397005 -0.3906888
v 0.03541046 0.004397005 -0.3906888
v 0.03541046 0.004397005 -0.3906888
v 0.03541046 0.004397005 -0.3906888
v 0.03541046 0.036492 -0.3
v 0.03541046 0.036492 -0.3
v 0.03541046 0.036492 -0.3
v 0.1354104 0.1041562 -0.3999999
v 0.1354104 0.1041562 -0.3999999
v 0.05602318 0.05773433 -0.3
v 0.05602318 0.05773433 -0.3
v 0.05602318 0.05773433 -0.3
v 0.05602318 0.05773433 -0.3
v 0.05602318 0.05773433 -0.3
v 0.1354104 0.1295712 -0.3281862
v 0.1354104 0.1295712 -0.3281862
v 0.1354104 0.1295712 -0.3281862
v 0.1354104 0.1295712 -0.3281862
v 0.1354104 0.1295712 -0.3281862
v 0.1354104 0.1395464 -0.3
v 0.1354104 0.1395464 -0.3
vt 0.2573943 0.7085013
vt 0.2573943 0.7085013
vt 0.2573943 0.7085013
vt 0.2573943 0.7085013
vt 0.2573943 0.7085013
vt 0.2573943 0.7085013
vt 0.2573943 0.7085013
vt 0.2573943 0.7085013
vt 0.2573943 0.7085013
vt 0.2573943 0.7085013
vt 0.2573943 0.7085013
vt 0.2573943 0.7085013
vt 0.2573943 0.7085013
vt 0.2573943 0.7085013
vt 0.2573943 0.7085014
vt 0.2573943 0.7085013
vt 0.2573943 0.7085013
vt 0.2573943 0.7085014
vt 0.2573943 0.7085013
vt 0.2573943 0.7085013
vt 0.2573943 0.7085014
vt 0.2573943 0.7085013
vt 0.2573943 0.7085013
vt 0.2573943 0.7085013
vt 0.2573943 0.7085013
vt 0.2573943 0.7085013
vt 0.2573943 0.7085013
vt 0.2573943 0.7085013
vt 0.2573943 0.7085013
vt 0.2573943 0.7085013
vt 0.2573943 0.7085013
vt 0.2573943 0.7085013
vt 0.2573943 0.7085013
vt 0.2573943 0.7085013
vt 0.2573943 0.7085013
vt 0.2573943 0.7085013
vt 0.2573943 0.7085013
vt 0.2573943 0.7085013
vt 0.2573943 0.7085013
vt 0.2573943 0.7085013
vt 0.2573943 0.7085013
vt 0.2573943 0.7085013
vt 0.2573943 0.7085013
vt 0.2573943 0.7085013
vt 0.2573943 0.7085013
vt 0.2573943 0.7085013
vt 0.2573943 0.7085013
vt 0.2573943 0.7085013
vt 0.2573943 0.7085013
vt 0.2573943 0.7085013
vt 0.2573943 0.7085013
vt 0.2573943 0.7085013
vt 0.2573943 0.7085013
vt 0.2573943 0.7085013
vt 0.2573943 0.7085013
vt 0.2573943 0.7085013
vt 0.2573943 0.7085013
vt 0.2573943 0.7085013
vt 0.2573943 0.7085013
vt 0.2573943 0.7085013
vt 0.2573943 0.7085013
vt 0.2573943 0.7085013
vt 0.2573943 0.7085013
vt 0.2573943 0.7085013
vt 0.2573943 0.7085013
vt 0.2573943 0.7085013
vt 0.2573943 0.7085013
vt 0.2573943 0.7085013
vt 0.2573943 0.7085013
vt 0.2573943 0.7085013
vt 0.2573943 0.7085013
vt 0.2573943 0.7085013
vt 0.2573943 0.7085013
vt 0.2573943 0.7085013
vt 0.2573943 0.7085013
vt 0.2573943 0.7085013
vt 0.2573943 0.7085013
vt 0.2573943 0.7085013
vt 0.2573943 0.7085013
vt 0.2573943 0.7085013
vt 0.2573943 0.7085013
vt 0.2573943 0.7085013
vt 0.2573943 0.7085013
vt 0.2573943 0.7085013
vt 0.2573943 0.7085013
vt 0.2573943 0.7085013
vt 0.2573943 0.7085013
vt 0.2573943 0.7085013
vt 0.2573943 0.7085013
vt 0.2573943 0.7085013
vt 0.2573943 0.7085013
vt 0.2573943 0.7085013
vt 0.2573943 0.7085013
vt 0.2573943 0.7085013
vt 0.2573943 0.7085013
vt 0.2573943 0.7085013
vt 0.2573943 0.7085013
vt 0.2573943 0.7085013
vt 0.2573943 0.7085013
vt 0.2573943 0.7085013
vt 0.2573943 0.7085013
vt 0.2573943 0.7085013
vt 0.2573943 0.7085013
vt 0.2573943 0.7085013
vt 0.2573943 0.7085013
vt 0.2573943 0.7085013
vt 0.2573943 0.7085013
vt 0.2573943 0.7085013
vt 0.2573943 0.7085013
vt 6.985596E-09 0.02540004
vt 0.2573943 0.7085013
vt 0.2573943 0.7085013
vt 6.898777E-09 0.02237506
vt 6.898777E-09 0.02237506
vt 0.2573943 0.7085013
vt 0.02463114 -1.076661E-09
vt 0.02463114 -1.076661E-09
vt 0.02463114 -1.076661E-09
vt 0.2573943 0.7085013
vt 0.02540005 -1.110271E-09
vt 0.2573943 0.7085013
vt 0.2573943 0.7085013
vt 0.002898306 0.02540004
vt 0.002898306 0.02540004
vt 0.002898306 0.02540004
vt 0.002898306 0.02540004
vt 0.002898306 0.02540004
vt 0.2573943 0.7085013
vt 0.2573943 0.7085013
vt 6.256606E-09 6.061981E-23
vt 6.256606E-09 6.061981E-23
vt 0.2573943 0.7085013
vt 0.02540005 0.0007336119
vt 0.02540005 0.0007336119
vt 0.02540005 0.0007336119
vt 0.2573943 0.7085013
vt 0.2573943 0.7085013
vt 0.02540005 0.02540004
vt 0.2573943 0.7085013
vt 0.2573943 0.7085013
vt 0.05655029 -2.471891E-09
vt 0.05655029 -2.471891E-09
vt 0.05655029 -2.471891E-09
vt 0.05655029 -2.471891E-09
vt 0.05655029 -2.471891E-09
vt 0.2573943 0.7085013
vt 0.03572472 -1.561577E-09
vt 0.2573943 0.7085013
vt 0.2573943 0.7085013
vt 0.0365617 0.002365028
vt 0.0365617 0.002365028
vt 0.2573943 0.7085013
vt 0.04471385 0.02540004
vt 0.04471385 0.02540004
vt 0.2573943 0.7085013
vt 0.06190057 -2.70576E-09
vt 0.2573943 0.7085013
vt 0.2573943 0.7085013
vt 0.05010941 0.02540004
vt 0.05010941 0.02540004
vt 0.05010941 0.02540004
vt 0.2573943 0.7085013
vt 0.2573943 0.7085013
vt 0.06835601 0.01824071
vt 0.06835601 0.01824071
vt 0.06835601 0.01824071
vt 0.2573943 0.7085013
vt 0.07088971 0.02540004
vn 0 -1 0
vn 0 0 -1
vn 0 -1 0
vn -1 0 0
vn 0 -1 0
vn 0 0 -1
vn -1 0 0
vn 0 -1 0
vn 0 -1 0
vn -1 0 0
vn -1 0 0
vn 1 0 0
vn 0 0.9238795 0.3826836
vn 1 0 0
vn 0 -1 0
vn 0 -1 0
vn 0 0 -1
vn 0 0 -1
vn 0 0 1
vn 0 -1 0
vn 0 1 0
vn 0 0 1
vn 0 -0.03284889 -0.9994603
vn 0 -0.01087364 -0.9999409
vn -1 0 0
vn -1 0 0
vn 0 0 -1
vn 0 0 1
vn 1 0 -1.010108E-07
vn 0 0 1
vn -1 0 0
vn 0 -1 0
vn -1 0 0
vn 0 -1 0
vn 0 -1 0
vn 0 0 1
vn 0 -1 0
vn 0 0 1
vn 0 0 -1
vn 0 0 -1
vn 0 0 -1
vn 0 1 0
vn 0 1 0
vn 0 1 0
vn 0 0 -1
vn 0 0 -1
vn -1 0 0
vn -1 0 0
vn 0 0 -1
vn 0 -1 0
vn 0 0 -1
vn 0 -1 0
vn 0 -1 0
vn 0 0 -1
vn -1 0 0
vn 0 1 0
vn 0 0 1
vn 0 0 1
vn 0 1 0
vn -1 0 0
vn -1 0 0
vn 0 0 1
vn 0 0 1
vn 0 -1 0
vn 0 -1 0
vn 1 0 0
vn 1 0 0
vn 0 0 -1
vn 1 0 0
vn 0 0 -1
vn 0 0 -1
vn 1 0 0
vn 1 0 0
vn -1 0 0
vn -1 0 0
vn 0 0.3826832 0.9238796
vn 0 0.3826832 0.9238796
vn 0 0.3826832 0.9238796
vn 0 0.3826832 0.9238796
vn 0 -1 0
vn 1 0 0
vn 0 0 1
vn 1 0 0
vn 0 0 1
vn 0 0 -1
vn 1 0 0
vn 1 0 0
vn 0 0.9238795 0.3826836
vn 0 0.9238795 0.3826836
vn 0 0.9238795 0.3826836
vn 0 -1 0
vn 0 0 1
vn 1 0 0
vn 1 0 0
vn 0 1 0
vn 1 0 0
vn 0 1 0
vn 1 0 0
vn 1 0 0
vn 0 0 1
vn 0 0 1
vn 1 0 0
vn 0 0.9238795 0.3826836
vn 0 0.9238795 0.3826836
vn 1 0 0
vn 0 0.3826832 0.9238796
vn 0 0.3826832 0.9238796
vn 1 0 0
vn 0 0 1
vn -0.6968127 0.6761596 -0.2392913
vn 0 -1 0
vn 0 -1 0
vn -0.6968127 0.6761596 -0.2392913
vn -0.6968103 0.6761611 -0.2392941
vn 0 0 -1
vn -0.6968099 0.6761597 -0.2392993
vn -0.6968125 0.6761581 -0.239296
vn -0.6968118 0.6761594 -0.2392943
vn 0 1 0
vn -0.6968099 0.6761597 -0.2392993
vn 0 0 1
vn 0 0 1
vn -0.6968127 0.6761596 -0.2392913
vn -0.6968121 0.676159 -0.2392949
vn -0.6968125 0.6761581 -0.239296
vn -0.6968118 0.6761594 -0.2392943
vn -0.6968103 0.6761611 -0.2392941
vn 0 0 -1
vn 0 0 -1
vn -0.6968118 0.6761594 -0.2392943
vn -0.6968103 0.6761611 -0.2392941
vn 0 1 0
vn -0.6968099 0.6761597 -0.2392993
vn -0.6968121 0.676159 -0.2392949
vn -0.6968125 0.6761581 -0.239296
vn 0 1 0
vn 0 1 0
vn -0.6968121 0.676159 -0.2392949
vn 0 -0.03284889 -0.9994603
vn 0 -0.03284878 -0.9994603
vn -0.6968122 0.6761598 -0.2392924
vn -0.6968119 0.6761593 -0.2392944
vn -0.696812 0.6761591 -0.2392946
vn -0.696812 0.6761591 -0.2392946
vn -0.6968122 0.676159 -0.2392945
vn -1 0 0
vn -0.6968122 0.6761598 -0.2392924
vn -1 0 0
vn -1 0 0
vn -0.6968122 0.6761598 -0.2392924
vn -0.6968119 0.6761593 -0.2392944
vn 0 0 1
vn -0.6968119 0.6761593 -0.2392944
vn -0.696812 0.6761591 -0.2392946
vn 1 0 -8.583082E-08
vn -0.6968122 0.676159 -0.2392945
vn 0 0 1
vn 0 0 1
vn -0.696812 0.6761593 -0.239294
vn -0.696812 0.6761591 -0.2392946
vn -0.696812 0.6761591 -0.2392946
vn 1 0 -1.010108E-07
vn 1 0 -1.215484E-07
vn -0.696812 0.6761593 -0.239294
vn -0.696812 0.6761591 -0.2392946
vn -0.6968122 0.676159 -0.2392945
vn 0.9999565 0 0.009320133
vn -0.696812 0.6761593 -0.239294
g IL_Terminal_1_sh_1_0
f 5/5/5 1/1/1 3/3/3
f 2/2/2 6/6/6 49/49/49
f 7/7/7 4/4/4 31/31/31
f 64/64/64 8/8/8 32/32/32
f 9/9/9 65/65/65 50/50/50
f 68/68/68 85/85/85 51/51/51
f 74/74/74 10/10/10 55/55/55
f 33/33/33 11/11/11 75/75/75
f 80/80/80 91/91/91 34/34/34
f 81/81/81 66/66/66 12/12/12
f 93/93/93 67/67/67 86/86/86
f 69/69/69 94/94/94 87/87/87
f 56/56/56 88/88/88 95/95/95
f 89/89/89 76/76/76 13/13/13
f 77/77/77 92/92/92 82/82/82
f 96/96/96 14/14/14 83/83/83
f 90/90/90 103/103/103 97/97/97
f 78/78/78 106/106/106 104/104/104
f 107/107/107 79/79/79 84/84/84
f 98/98/98 105/105/105 108/108/108
f 35/35/35 15/15/15 16/16/16
f 17/17/17 18/18/18 39/39/39
f 19/19/19 109/109/109 36/36/36
f 20/20/20 52/52/52 111/111/111
f 53/53/53 37/37/37 112/112/112
f 115/115/115 40/40/40 128/128/128
f 41/41/41 54/54/54 129/129/129
f 119/119/119 21/21/21 42/42/42
f 121/121/121 57/57/57 22/22/22
f 38/38/38 58/58/58 122/122/122
f 136/136/136 59/59/59 43/43/43
f 132/132/132 137/137/137 44/44/44
f 23/23/23 45/45/45 24/24/24
f 70/70/70 46/46/46 139/139/139
f 25/25/25 60/60/60 26/26/26
f 47/47/47 61/61/61 148/148/148
f 140/140/140 27/27/27 71/71/71
f 149/149/149 146/146/146 48/48/48
f 28/28/28 152/152/152 62/62/62
f 29/29/29 72/72/72 155/155/155
f 99/99/99 73/73/73 162/162/162
f 157/157/157 100/100/100 30/30/30
f 63/63/63 101/101/101 158/158/158
f 163/163/163 167/167/167 102/102/102
g IL_Terminal_1_sh_1_1
f 133/133/133 120/120/120 116/116/116
f 113/113/113 110/110/110 123/123/123
f 124/124/124 138/138/138 134/134/134
f 125/125/125 135/135/135 117/117/117
f 126/126/126 118/118/118 130/130/130
f 131/131/131 114/114/114 127/127/127
f 159/159/159 168/168/168 164/164/164
f 141/141/141 147/147/147 150/150/150
f 142/142/142 151/151/151 153/153/153
f 143/143/143 154/154/154 160/160/160
f 144/144/144 161/161/161 165/165/165
f 166/166/166 156/156/156 145/145/145
