g IL_Table_2_sh_5
v 0.8699757 0.02833509 -0.4169713
v 0.8699757 0.02833509 0.4169713
v -0.8699757 0.02833509 0.4169713
v 0.8699757 -0.02833509 -0.4169713
v 0.8699757 -0.02833509 0.4169713
v -0.8699757 0.02833509 -0.4169713
v -0.8699757 -0.02833509 -0.4169713
v -0.8699757 -0.02833509 0.4169713
v 0.8699757 0.02833509 -0.4169713
v 0.8699757 0.02833509 -0.4169713
v 0.8699757 0.02833509 -0.4169713
v 0.8699757 0.02833509 -0.4169713
v 0.8699757 0.02833509 0.4169713
v 0.8699757 0.02833509 0.4169713
v 0.8699757 0.02833509 0.4169713
v -0.8699757 0.02833509 0.4169713
v -0.8699757 0.02833509 0.4169713
v -0.8699757 0.02833509 0.4169713
v -0.8699757 0.02833509 0.4169713
v 0.8699757 -0.02833509 -0.4169713
v 0.8699757 -0.02833509 -0.4169713
v 0.8699757 -0.02833509 -0.4169713
v 0.8699757 -0.02833509 0.4169713
v 0.8699757 -0.02833509 0.4169713
v 0.8699757 -0.02833509 0.4169713
v 0.8699757 -0.02833509 0.4169713
v -0.8699757 0.02833509 -0.4169713
v -0.8699757 0.02833509 -0.4169713
v -0.8699757 0.02833509 -0.4169713
v -0.8699757 -0.02833509 -0.4169713
v -0.8699757 -0.02833509 -0.4169713
v -0.8699757 -0.02833509 -0.4169713
v -0.8699757 -0.02833509 -0.4169713
v -0.8699757 -0.02833509 0.4169713
v -0.8699757 -0.02833509 0.4169713
v -0.8699757 -0.02833509 0.4169713
vt 0.1368966 0.8790786
vt 0.1368966 0.8790786
vt 0.1216902 0.8790786
vt 0.1368966 0.8774998
vt 0.1368966 0.8774998
vt 0.1216902 0.8790786
vt 0.1216902 0.8774998
vt 0.1216902 0.8774998
vt 0.1368966 0.8790786
vt 0.1368966 0.8790786
vt 0.1368966 0.8790786
vt 0.1368966 0.8790786
vt 0.1368966 0.8790786
vt 0.1368966 0.8790786
vt 0.1368966 0.8790786
vt 0.1216902 0.8790786
vt 0.1216902 0.8790786
vt 0.1216902 0.8790786
vt 0.1216902 0.8790786
vt 0.1368966 0.8774998
vt 0.1368966 0.8774998
vt 0.1368966 0.8774998
vt 0.1368966 0.8774998
vt 0.1368966 0.8774998
vt 0.1368966 0.8774998
vt 0.1368966 0.8774998
vt 0.1216902 0.8790786
vt 0.1216902 0.8790786
vt 0.1216902 0.8790786
vt 0.1216902 0.8774998
vt 0.1216902 0.8774998
vt 0.1216902 0.8774998
vt 0.1216902 0.8774998
vt 0.1216902 0.8774998
vt 0.1216902 0.8774998
vt 0.1216902 0.8774998
vn 0 1 0
vn 0 1 0
vn 0 1 0
vn 1 0 0
vn 0 0 1
vn 0 1 0
vn 0 0 -1
vn 0 0 1
vn 1 0 0
vn 0 1 0
vn 0 0 -1
vn 0 0 -1
vn 1 0 0
vn 0 0 1
vn 1 0 0
vn 0 0 1
vn 0 1 0
vn 0 0 1
vn -1 0 0
vn 1 0 0
vn 0 0 -1
vn 0 -1 0
vn 1 0 0
vn 0 0 1
vn 0 -1 0
vn 0 -1 0
vn -1 0 0
vn 0 0 -1
vn -1 0 0
vn 0 0 -1
vn 0 -1 0
vn 0 -1 0
vn -1 0 0
vn -1 0 0
vn 0 -1 0
vn -1 0 0
g IL_Table_2_sh_5_0
f 3/3/3 2/2/2 1/1/1
f 9/9/9 13/13/13 4/4/4
f 14/14/14 16/16/16 5/5/5
f 6/6/6 17/17/17 10/10/10
f 15/15/15 23/23/23 20/20/20
f 11/11/11 21/21/21 7/7/7
f 18/18/18 8/8/8 24/24/24
f 19/19/19 27/27/27 34/34/34
f 28/28/28 12/12/12 30/30/30
f 22/22/22 25/25/25 31/31/31
f 26/26/26 35/35/35 32/32/32
f 29/29/29 33/33/33 36/36/36
