g IL_UB_CompTable.001_sh_1
v -0.5923904 0.4854991 0.705282
v -0.6923904 0.4854991 0.705282
v -0.6923904 0.4854991 -0.705282
v -0.5923904 0.3854992 0.705282
v -0.6923904 0.3854992 0.705282
v -0.5923904 0.4854991 -0.705282
v -0.6923904 0.3854992 -0.705282
v -0.2025282 0.4854991 0.5715888
v -0.5923904 0.3854992 -0.705282
v -0.6923904 -0.5145007 -0.705282
v -0.2248199 0.4854991 0.2692917
v -0.5923904 -0.5145007 -0.705282
v -0.2025282 0.5145007 0.5715888
v 0.4396715 0.4854991 0.2202914
v 0.4396715 0.5145007 0.2202914
v -0.2248199 0.5145007 0.2692917
v 0.411924 0.5145007 0.252457
v -0.1747807 0.5145007 0.5394232
v -0.1926544 0.5145007 0.2970392
v 0.3950518 0.3854992 -0.705282
v 0.4225459 0.4362459 -0.705282
v 0.4492305 0.4854991 -0.705282
v 0.6017501 0.4854991 -0.2241773
v 0.6721736 0.4854991 -0.002034545
v -0.6197172 0.1395582 0.705282
v -0.6923904 0.07456666 0.705282
v -0.113607 0.4854991 0.6223207
v -0.02146915 0.4854991 0.5582373
v -0.5923904 0.1639965 0.705282
v -0.6923904 -0.5145007 0.2471509
v -0.5923904 -0.2894776 0.3526048
v -0.0110141 0.4938577 0.5574663
v -0.6582273 -0.5145007 0.2233899
v -0.5923904 -0.5145007 0.1775993
v 0.01480651 0.5145007 0.5555623
v 0.4424611 0.5145007 0.2581218
v 0.4422762 0.5111119 0.2556148
v 0.440879 0.4854991 0.2366669
v 0.03283733 0.5145007 0.5430216
v 0.4163388 0.5145007 0.2762903
v 0.4138111 0.5145007 0.2780483
v 0.06324753 0.5145007 0.5218708
v -0.251923 0.4684758 0.705282
v -0.3447069 0.3854992 0.705282
v 0.5375599 0.3854992 0.09165158
v -0.2328876 0.4854991 0.705282
v 0.6277984 0.3854992 0.02888934
v 0.4540586 0.4854991 0.2275002
v 0.6923904 0.4854991 0.06173681
v -0.5923904 0.4854991 0.705282
v -0.5923904 0.4854991 0.705282
v -0.5923904 0.4854991 0.705282
v -0.5923904 0.4854991 0.705282
v -0.5923904 0.4854991 0.705282
v -0.5923904 0.4854991 0.705282
v -0.5923904 0.4854991 0.705282
v -0.5923904 0.4854991 0.705282
v -0.6923904 0.4854991 0.705282
v -0.6923904 0.4854991 0.705282
v -0.6923904 0.4854991 0.705282
v -0.6923904 0.4854991 -0.705282
v -0.6923904 0.4854991 -0.705282
v -0.6923904 0.4854991 -0.705282
v -0.6923904 0.4854991 -0.705282
v -0.5923904 0.3854992 0.705282
v -0.5923904 0.3854992 0.705282
v -0.5923904 0.3854992 0.705282
v -0.5923904 0.3854992 0.705282
v -0.5923904 0.3854992 0.705282
v -0.5923904 0.3854992 0.705282
v -0.5923904 0.3854992 0.705282
v -0.6923904 0.3854992 0.705282
v -0.6923904 0.3854992 0.705282
v -0.6923904 0.3854992 0.705282
v -0.6923904 0.3854992 0.705282
v -0.6923904 0.3854992 0.705282
v -0.6923904 0.3854992 0.705282
v -0.5923904 0.4854991 -0.705282
v -0.5923904 0.4854991 -0.705282
v -0.5923904 0.4854991 -0.705282
v -0.5923904 0.4854991 -0.705282
v -0.5923904 0.4854991 -0.705282
v -0.5923904 0.4854991 -0.705282
v -0.5923904 0.4854991 -0.705282
v -0.6923904 0.3854992 -0.705282
v -0.6923904 0.3854992 -0.705282
v -0.6923904 0.3854992 -0.705282
v -0.6923904 0.3854992 -0.705282
v -0.6923904 0.3854992 -0.705282
v -0.2025282 0.4854991 0.5715888
v -0.2025282 0.4854991 0.5715888
v -0.2025282 0.4854991 0.5715888
v -0.2025282 0.4854991 0.5715888
v -0.2025282 0.4854991 0.5715888
v -0.2025282 0.4854991 0.5715888
v -0.2025282 0.4854991 0.5715888
v -0.5923904 0.3854992 -0.705282
v -0.5923904 0.3854992 -0.705282
v -0.5923904 0.3854992 -0.705282
v -0.5923904 0.3854992 -0.705282
v -0.5923904 0.3854992 -0.705282
v -0.5923904 0.3854992 -0.705282
v -0.5923904 0.3854992 -0.705282
v -0.5923904 0.3854992 -0.705282
v -0.5923904 0.3854992 -0.705282
v -0.6923904 -0.5145007 -0.705282
v -0.6923904 -0.5145007 -0.705282
v -0.6923904 -0.5145007 -0.705282
v -0.6923904 -0.5145007 -0.705282
v -0.2248199 0.4854991 0.2692917
v -0.2248199 0.4854991 0.2692917
v -0.2248199 0.4854991 0.2692917
v -0.2248199 0.4854991 0.2692917
v -0.2248199 0.4854991 0.2692917
v -0.2248199 0.4854991 0.2692917
v -0.5923904 -0.5145007 -0.705282
v -0.5923904 -0.5145007 -0.705282
v -0.5923904 -0.5145007 -0.705282
v -0.5923904 -0.5145007 -0.705282
v -0.5923904 -0.5145007 -0.705282
v -0.2025282 0.5145007 0.5715888
v -0.2025282 0.5145007 0.5715888
v -0.2025282 0.5145007 0.5715888
v -0.2025282 0.5145007 0.5715888
v -0.2025282 0.5145007 0.5715888
v 0.4396715 0.4854991 0.2202914
v 0.4396715 0.4854991 0.2202914
v 0.4396715 0.4854991 0.2202914
v 0.4396715 0.4854991 0.2202914
v 0.4396715 0.4854991 0.2202914
v 0.4396715 0.4854991 0.2202914
v 0.4396715 0.4854991 0.2202914
v 0.4396715 0.4854991 0.2202914
v 0.4396715 0.5145007 0.2202914
v 0.4396715 0.5145007 0.2202914
v 0.4396715 0.5145007 0.2202914
v 0.4396715 0.5145007 0.2202914
v 0.4396715 0.5145007 0.2202914
v -0.2248199 0.5145007 0.2692917
v -0.2248199 0.5145007 0.2692917
v -0.2248199 0.5145007 0.2692917
v -0.2248199 0.5145007 0.2692917
v -0.2248199 0.5145007 0.2692917
v 0.411924 0.5145007 0.252457
v 0.411924 0.5145007 0.252457
v 0.411924 0.5145007 0.252457
v 0.411924 0.5145007 0.252457
v 0.411924 0.5145007 0.252457
v -0.1747807 0.5145007 0.5394232
v -0.1747807 0.5145007 0.5394232
v -0.1747807 0.5145007 0.5394232
v -0.1747807 0.5145007 0.5394232
v -0.1747807 0.5145007 0.5394232
v -0.1747807 0.5145007 0.5394232
v -0.1926544 0.5145007 0.2970392
v -0.1926544 0.5145007 0.2970392
v -0.1926544 0.5145007 0.2970392
v 0.3950518 0.3854992 -0.705282
v 0.3950518 0.3854992 -0.705282
v 0.3950518 0.3854992 -0.705282
v 0.4225459 0.4362459 -0.705282
v 0.4225459 0.4362459 -0.705282
v 0.4225459 0.4362459 -0.705282
v 0.4225459 0.4362459 -0.705282
v 0.4492305 0.4854991 -0.705282
v 0.4492305 0.4854991 -0.705282
v 0.4492305 0.4854991 -0.705282
v 0.4492305 0.4854991 -0.705282
v 0.6017501 0.4854991 -0.2241773
v 0.6017501 0.4854991 -0.2241773
v 0.6017501 0.4854991 -0.2241773
v 0.6017501 0.4854991 -0.2241773
v 0.6721736 0.4854991 -0.002034545
v 0.6721736 0.4854991 -0.002034545
v 0.6721736 0.4854991 -0.002034545
v -0.6197172 0.1395582 0.705282
v -0.6197172 0.1395582 0.705282
v -0.6197172 0.1395582 0.705282
v -0.6197172 0.1395582 0.705282
v -0.6923904 0.07456666 0.705282
v -0.6923904 0.07456666 0.705282
v -0.6923904 0.07456666 0.705282
v -0.6923904 0.07456666 0.705282
v -0.113607 0.4854991 0.6223207
v -0.113607 0.4854991 0.6223207
v -0.113607 0.4854991 0.6223207
v -0.113607 0.4854991 0.6223207
v -0.02146915 0.4854991 0.5582373
v -0.02146915 0.4854991 0.5582373
v -0.02146915 0.4854991 0.5582373
v -0.5923904 0.1639965 0.705282
v -0.5923904 0.1639965 0.705282
v -0.6923904 -0.5145007 0.2471509
v -0.6923904 -0.5145007 0.2471509
v -0.6923904 -0.5145007 0.2471509
v -0.6923904 -0.5145007 0.2471509
v -0.5923904 -0.2894776 0.3526048
v -0.5923904 -0.2894776 0.3526048
v -0.5923904 -0.2894776 0.3526048
v -0.5923904 -0.2894776 0.3526048
v -0.5923904 -0.2894776 0.3526048
v -0.5923904 -0.2894776 0.3526048
v -0.5923904 -0.2894776 0.3526048
v -0.0110141 0.4938577 0.5574663
v -0.0110141 0.4938577 0.5574663
v -0.0110141 0.4938577 0.5574663
v -0.6582273 -0.5145007 0.2233899
v -0.6582273 -0.5145007 0.2233899
v -0.6582273 -0.5145007 0.2233899
v -0.5923904 -0.5145007 0.1775993
v -0.5923904 -0.5145007 0.1775993
v -0.5923904 -0.5145007 0.1775993
v 0.01480651 0.5145007 0.5555623
v 0.01480651 0.5145007 0.5555623
v 0.01480651 0.5145007 0.5555623
v 0.01480651 0.5145007 0.5555623
v 0.4424611 0.5145007 0.2581218
v 0.4424611 0.5145007 0.2581218
v 0.4424611 0.5145007 0.2581218
v 0.4422762 0.5111119 0.2556148
v 0.4422762 0.5111119 0.2556148
v 0.4422762 0.5111119 0.2556148
v 0.4422762 0.5111119 0.2556148
v 0.440879 0.4854991 0.2366669
v 0.440879 0.4854991 0.2366669
v 0.440879 0.4854991 0.2366669
v 0.440879 0.4854991 0.2366669
v 0.440879 0.4854991 0.2366669
v 0.440879 0.4854991 0.2366669
v 0.03283733 0.5145007 0.5430216
v 0.03283733 0.5145007 0.5430216
v 0.03283733 0.5145007 0.5430216
v 0.03283733 0.5145007 0.5430216
v 0.4163388 0.5145007 0.2762903
v 0.4163388 0.5145007 0.2762903
v 0.4163388 0.5145007 0.2762903
v 0.4163388 0.5145007 0.2762903
v 0.4138111 0.5145007 0.2780483
v 0.4138111 0.5145007 0.2780483
v 0.4138111 0.5145007 0.2780483
v 0.4138111 0.5145007 0.2780483
v 0.06324753 0.5145007 0.5218708
v 0.06324753 0.5145007 0.5218708
v 0.06324753 0.5145007 0.5218708
v 0.06324753 0.5145007 0.5218708
v -0.251923 0.4684758 0.705282
v -0.251923 0.4684758 0.705282
v -0.251923 0.4684758 0.705282
v -0.3447069 0.3854992 0.705282
v -0.3447069 0.3854992 0.705282
v -0.3447069 0.3854992 0.705282
v -0.3447069 0.3854992 0.705282
v 0.5375599 0.3854992 0.09165158
v 0.5375599 0.3854992 0.09165158
v 0.5375599 0.3854992 0.09165158
v 0.5375599 0.3854992 0.09165158
v 0.5375599 0.3854992 0.09165158
v 0.5375599 0.3854992 0.09165158
v 0.5375599 0.3854992 0.09165158
v 0.5375599 0.3854992 0.09165158
v 0.5375599 0.3854992 0.09165158
v 0.5375599 0.3854992 0.09165158
v 0.5375599 0.3854992 0.09165158
v 0.5375599 0.3854992 0.09165158
v 0.5375599 0.3854992 0.09165158
v -0.2328876 0.4854991 0.705282
v -0.2328876 0.4854991 0.705282
v -0.2328876 0.4854991 0.705282
v 0.6277984 0.3854992 0.02888934
v 0.6277984 0.3854992 0.02888934
v 0.6277984 0.3854992 0.02888934
v 0.6277984 0.3854992 0.02888934
v 0.6277984 0.3854992 0.02888934
v 0.6277984 0.3854992 0.02888934
v 0.6277984 0.3854992 0.02888934
v 0.4540586 0.4854991 0.2275002
v 0.4540586 0.4854991 0.2275002
v 0.4540586 0.4854991 0.2275002
v 0.4540586 0.4854991 0.2275002
v 0.6923904 0.4854991 0.06173681
v 0.6923904 0.4854991 0.06173681
v 0.6923904 0.4854991 0.06173681
vt 0.6168087 0.9224514
vt 0.6168087 0.9224514
vt 0.6168087 0.9224514
vt 0.6168087 0.9224514
vt 0.6168087 0.9224514
vt 0.6168087 0.9224514
vt 0.6168087 0.9224514
vt 0.6168087 0.9224514
vt 0.6168087 0.9224514
vt 0.6168087 0.9224514
vt 0.6168086 0.9224514
vt 0.6168087 0.9224514
vt 0.6112719 0.8553951
vt 0.6112719 0.8553951
vt 0.6112719 0.8553951
vt 0.6112718 0.8553951
vt 0.6112719 0.8553951
vt 0.6112719 0.8553951
vt 0.6112717 0.855395
vt 0.6168087 0.9224514
vt 0.6168087 0.9224514
vt 0.6168087 0.9224514
vt 0.6168087 0.9224514
vt 0.6168087 0.9224514
vt 0.6168087 0.9224514
vt 0.6168087 0.9224514
vt 0.6168087 0.9224514
vt 0.6168087 0.9224514
vt 0.6168087 0.9224514
vt 0.6168087 0.9224514
vt 0.6168087 0.9224514
vt 0.6112719 0.855395
vt 0.6168087 0.9224515
vt 0.6168087 0.9224514
vt 0.6112719 0.8553951
vt 0.6112719 0.8553951
vt 0.6112719 0.855395
vt 0.6112719 0.8553951
vt 0.6112719 0.8553951
vt 0.6112719 0.8553951
vt 0.6112719 0.8553951
vt 0.6112719 0.8553951
vt 0.6168087 0.9224514
vt 0.6168087 0.9224514
vt 0.6168087 0.9224515
vt 0.6168087 0.9224514
vt 0.6168087 0.9224514
vt 0.6168087 0.9224514
vt 0.6168087 0.9224514
vt 0.6168087 0.9224514
vt 0.6168087 0.9224514
vt 0.6168087 0.9224514
vt 0.6168087 0.9224514
vt 0.6168087 0.9224514
vt 0.6168087 0.9224514
vt 0.6168087 0.9224514
vt 0.6168087 0.9224514
vt 0.6168087 0.9224514
vt 0.6168087 0.9224514
vt 0.6168087 0.9224514
vt 0.6168087 0.9224514
vt 0.6168087 0.9224514
vt 0.6168087 0.9224514
vt 0.6168087 0.9224514
vt 0.6168087 0.9224514
vt 0.6168087 0.9224514
vt 0.6168087 0.9224514
vt 0.6168087 0.9224514
vt 0.6168087 0.9224514
vt 0.6168087 0.9224514
vt 0.6168087 0.9224514
vt 0.6168087 0.9224514
vt 0.6168087 0.9224514
vt 0.6168087 0.9224514
vt 0.6168087 0.9224514
vt 0.6168087 0.9224514
vt 0.6168087 0.9224514
vt 0.6168087 0.9224514
vt 0.6168087 0.9224514
vt 0.6168087 0.9224514
vt 0.6168087 0.9224514
vt 0.6168087 0.9224514
vt 0.6168087 0.9224514
vt 0.6168087 0.9224514
vt 0.6168087 0.9224514
vt 0.6168087 0.9224514
vt 0.6168087 0.9224514
vt 0.6168087 0.9224514
vt 0.6168087 0.9224514
vt 0.6168087 0.9224514
vt 0.6112719 0.8553951
vt 0.6168087 0.9224514
vt 0.6168087 0.9224514
vt 0.6112719 0.8553951
vt 0.6112719 0.8553951
vt 0.6112719 0.8553951
vt 0.6168087 0.9224514
vt 0.6168087 0.9224514
vt 0.6168087 0.9224514
vt 0.6168087 0.9224514
vt 0.6168087 0.9224514
vt 0.6168087 0.9224514
vt 0.6168087 0.9224514
vt 0.6168087 0.9224514
vt 0.6168087 0.9224514
vt 0.6168087 0.9224514
vt 0.6168087 0.9224514
vt 0.6168087 0.9224514
vt 0.6168087 0.9224514
vt 0.6112718 0.8553951
vt 0.6112718 0.8553951
vt 0.6112718 0.8553951
vt 0.6168086 0.9224514
vt 0.6168086 0.9224514
vt 0.6168086 0.9224514
vt 0.6168087 0.9224514
vt 0.6168087 0.9224514
vt 0.6168087 0.9224514
vt 0.6168087 0.9224514
vt 0.6168087 0.9224514
vt 0.6112719 0.8553951
vt 0.6112719 0.8553951
vt 0.6112719 0.8553951
vt 0.6112719 0.8553951
vt 0.6112719 0.8553951
vt 0.6112719 0.8553951
vt 0.6168087 0.9224514
vt 0.6168087 0.9224514
vt 0.6112719 0.8553951
vt 0.6112719 0.8553951
vt 0.6168087 0.9224514
vt 0.6168087 0.9224514
vt 0.6168087 0.9224514
vt 0.6112719 0.8553951
vt 0.6112719 0.8553951
vt 0.6112719 0.8553951
vt 0.6112719 0.8553951
vt 0.6112719 0.8553951
vt 0.6112718 0.8553951
vt 0.6112718 0.8553951
vt 0.6112718 0.8553951
vt 0.6112718 0.8553951
vt 0.6112718 0.8553951
vt 0.5903552 0.8621622
vt 0.6112719 0.8553951
vt 0.6112719 0.8553951
vt 0.6112719 0.8553951
vt 0.5903552 0.8621622
vt 0.6112719 0.8553951
vt 0.5903552 0.8621622
vt 0.6112719 0.8553951
vt 0.6112719 0.8553951
vt 0.5903552 0.8621622
vt 0.5903552 0.8621622
vt 0.6112717 0.855395
vt 0.6112717 0.855395
vt 0.5903551 0.8621622
vt 0.6168087 0.9224514
vt 0.6168087 0.9224514
vt -0.2286004 -0.179142
vt 0.6168087 0.9224514
vt 0.6168087 0.9224514
vt -0.2414901 -0.179142
vt -0.2414901 -0.179142
vt 0.6168087 0.9224514
vt 0.6168087 0.9224514
vt -0.2540005 -0.179142
vt -0.2540005 -0.179142
vt 0.6168087 0.9224514
vt 0.6168087 0.9224514
vt -0.2540005 -0.05694117
vt -0.2540005 -0.05694117
vt 0.6168087 0.9224515
vt -0.2540005 -0.0005167866
vt -0.2540005 -0.0005167866
vt 0.6168087 0.9224514
vt 0.6168088 0.9224514
vt 0.2609415 0.1661313
vt 0.2609415 0.1661313
vt 0.6168087 0.9224514
vt 0.6168087 0.9224514
vt 0.2794006 0.1496234
vt 0.2794006 0.1496234
vt 0.6168087 0.9224514
vt 0.6168087 0.9224514
vt 0.1323893 0.2540005
vt 0.1323893 0.2540005
vt 0.6112719 0.8553951
vt 0.1089862 0.2540005
vt 0.1089862 0.2540005
vt 0.6168087 0.9224515
vt 0.2540005 0.1723386
vt 0.6168087 0.9224514
vt 0.6168087 0.9224514
vt 0.2794006 0
vt 0.2794006 0
vt 0.6168087 0.9224514
vt 0.6168087 0.9224515
vt 0.2540005 0.05715598
vt 0.2540005 0.05715598
vt 0.2540005 0.05715598
vt 0.2540005 0.05715598
vt 0.2540005 0.05715598
vt 0.6112719 0.8553951
vt 0.1063306 0.2561236
vt 0.1063306 0.2561236
vt 0.6168087 0.9224514
vt 0.2707231 0
vt 0.2707231 0
vt 0.6168087 0.9224514
vt 0.6168087 0.9224514
vt 0.2540005 0
vt 0.6112719 0.8553951
vt 0.6112719 0.8553951
vt 0.0997722 0.2613669
vt 0.0997722 0.2613669
vt 0.6112719 0.8553951
vt 0.6112719 0.8553951
vt -0.008852289 0.2613669
vt 0.6112719 0.8553951
vt 0.6112719 0.8553951
vt -0.008805332 0.2605061
vt -0.008805332 0.2605061
vt 0.6168087 0.9224514
vt -0.008450433 0.2540005
vt -0.008450433 0.2540005
vt -0.008450433 0.2540005
vt -0.008450433 0.2540005
vt -0.008450433 0.2540005
vt 0.6112719 0.8553951
vt 0.6112719 0.8553951
vt 0.09519236 0.2613669
vt 0.09519236 0.2613669
vt 0.6112719 0.8553951
vt -0.002217222 0.2613669
vt -0.002217222 0.2613669
vt -0.002217222 0.2613669
vt 0.5903552 0.8621622
vt 0.5903552 0.8621622
vt -0.001575173 0.2613669
vt -0.001575173 0.2613669
vt 0.5903552 0.8621622
vt 0.08746815 0.2613669
vt 0.08746815 0.2613669
vt 0.08746815 0.2613669
vt 0.6168087 0.9224514
vt 0.1675216 0.2496765
vt 0.1675216 0.2496765
vt 0.6168087 0.9224514
vt 0.6168087 0.9224514
vt 0.6168087 0.9224514
vt 0.1910888 0.2286004
vt 0.6168087 0.9224515
vt 0.6168088 0.9224514
vt -0.03300744 0.2286004
vt -0.03300744 0.2286004
vt -0.03300744 0.2286004
vt -0.03300744 0.2286004
vt -0.03300744 0.2286004
vt -0.03300744 0.2286004
vt -0.03300744 0.2286004
vt -0.03300744 0.2286004
vt -0.03300744 0.2286004
vt -0.03300744 0.2286004
vt -0.03300744 0.2286004
vt 0.6168087 0.9224514
vt 0.1626866 0.2540005
vt 0.1626866 0.2540005
vt -0.2286004 0.007337898
vt -0.2286004 0.007337898
vt -0.2286004 0.007337898
vt -0.2286004 0.007337898
vt -0.2286004 0.007337898
vt -0.05592806 0.2286004
vt -0.05592806 0.2286004
vt 0.6168087 0.9224514
vt -0.01179807 0.2540005
vt -0.01179807 0.2540005
vt -0.01179807 0.2540005
vt 0.6168087 0.9224514
vt -0.2540005 0.01568117
vt -0.07233445 0.2540005
vn 0 1 0
vn 0 1 0
vn 0 1 0
vn 0 0 1
vn -1 0 0
vn 0 1 0
vn -1 0 0
vn 3.729275E-07 1 0
vn 0 0 -1
vn -1 0 0
vn 3.729275E-07 1 0
vn 0 0 -1
vn -0.9972922 0 0.07354129
vn -0.07354137 0 -0.9972922
vn -0.07354137 0 -0.9972922
vn -0.9972922 0 0.07354129
vn 0 1 0
vn 0 1 0
vn 0 1 0
vn 0 0 -1
vn 0 0 -1
vn 0 0 -1
vn 0 1 0
vn 0 1 0
vn 0 0 1
vn 0 0 1
vn 0 1 0
vn 0 1 0
vn 0 0 1
vn -1 0 0
vn 1 0 0
vn 0.07354137 0 0.9972922
vn 0 -1 0
vn 0 -1 0
vn 0.07354137 0 0.9972922
vn 0.9972922 0 -0.07354122
vn 0.9972922 0 -0.07354122
vn 0.9972922 0 -0.07354122
vn -1.352364E-06 1 0
vn -3.633218E-06 1 0
vn -3.633218E-06 1 0
vn -1.430298E-06 1 0
vn 0 0 1
vn 0 0 1
vn 0 -1 0
vn 0 0 1
vn 0 -1 0
vn 0 1 0
vn 0 1 0
vn 0 0 1
vn 0 1 0
vn 0 1 0
vn 0 1 0
vn 0 0 1
vn 0 0 1
vn 0 0 1
vn 0 1 0
vn 0 0 1
vn -1 0 0
vn 0 0 1
vn -1 0 0
vn 0 1 0
vn -1 0 0
vn 0 0 -1
vn 0 0 1
vn 0 0 1
vn 0 0 1
vn 1 0 0
vn 1 0 0
vn 0 0 1
vn 0 -1 0
vn 0 0 1
vn -1 0 0
vn -1 0 0
vn 0 0 1
vn 0 0 1
vn -1 0 0
vn 0 0 -1
vn 3.729275E-07 1 0
vn 0 0 -1
vn 3.729275E-07 1 0
vn 0 0 -1
vn 0 0 -1
vn 0 1 0
vn 0 0 -1
vn -1 0 0
vn 0 0 -1
vn 0 0 -1
vn 0 0 -1
vn 3.729275E-07 1 0
vn -0.9972922 0 0.07354129
vn 0 1 0
vn 0 1 0
vn 0.07354137 0 0.9972922
vn 0.07354137 0 0.9972922
vn 0.07354137 0 0.9972922
vn 0 0 -1
vn 0 0 -1
vn 0 0 -1
vn 1 0 0
vn 1 0 0
vn 1 0 0
vn 0 -1 0
vn 0 -1 0
vn 0 -1 0
vn 0 0 -1
vn -1 0 0
vn -1 0 0
vn 0 -1 0
vn -0.9972922 0 0.07354129
vn -0.9972922 0 0.07354129
vn -0.07354137 0 -0.9972922
vn 0 1 0
vn 0 1 0
vn 0 1 0
vn 0 0 -1
vn 0 -1 0
vn 0 -1 0
vn 0 -1 0
vn 1 0 0
vn -0.9972922 0 0.07354129
vn 0 1 0
vn 0.07354137 0 0.9972922
vn 0 1 0
vn 0 1 0
vn -0.07354137 0 -0.9972922
vn 0 1 0
vn 0 1 0
vn 0.9972922 0 -0.07354122
vn 0.9972922 0 -0.07354122
vn 0 1 0
vn 0 1 0
vn 0 1 0
vn 0 1 0
vn 0 1 0
vn 0.9972922 0 -0.07354122
vn 0.9972922 0 -0.07354122
vn 0 1 0
vn -0.07354137 0 -0.9972922
vn 0 1 0
vn -0.07354137 0 -0.9972922
vn 0 1 0
vn 0 1 0
vn 0 1 0
vn -3.633218E-06 1 0
vn -3.633218E-06 1 0
vn -3.633218E-06 1 0
vn 0 1 0
vn 0 1 0
vn 0 1 0
vn 0 1 0
vn 0 1 0
vn 0 1 0
vn 0 1 0
vn 0 1 0
vn 0 1 0
vn 0 1 0
vn 0 -1 0
vn 0 -1 0
vn 0.8469597 -0.4588743 -0.2685027
vn 0 0 -1
vn 0 0 -1
vn 0.8469597 -0.4588743 -0.2685027
vn 0.8469613 -0.4588712 -0.2685029
vn 0 1 0
vn 0 1 0
vn 0.8469613 -0.4588712 -0.2685029
vn 0.8469603 -0.458873 -0.268503
vn 0 1 0
vn 0 1 0
vn 0.8469603 -0.458873 -0.268503
vn 0.8469605 -0.4588726 -0.2685028
vn 0 1 0
vn 0.8469605 -0.4588726 -0.2685028
vn 0.8469605 -0.4588726 -0.268503
vn 0 0 1
vn 0 0 1
vn 0.4812594 -0.5381434 0.6919474
vn 0.4812604 -0.538143 0.691947
vn -1 0 0
vn -1 0 0
vn 0.4812604 -0.538143 0.691947
vn 0.4812605 -0.538143 0.6919469
vn 0 1 0
vn 0 1 0
vn 0.4812588 -0.5381461 0.6919457
vn 0.4812617 -0.5381394 0.6919488
vn 0.07354137 0 0.9972922
vn 0.4812617 -0.5381394 0.6919488
vn 0.4812594 -0.5381445 0.6919464
vn 1 0 0
vn 0.4812594 -0.5381434 0.6919474
vn 0 -1 0
vn 0 -1 0
vn 0.4812605 -0.538143 0.6919469
vn 0.4812604 -0.5381429 0.691947
vn 1 0 0
vn 1 0 0
vn 0.4812594 -0.5381434 0.6919474
vn 0.4812604 -0.538143 0.691947
vn 0.4812605 -0.538143 0.6919469
vn 0.4812602 -0.538143 0.6919472
vn 0.4812604 -0.5381429 0.691947
vn 0.07354137 0 0.9972922
vn 0.4812594 -0.5381445 0.6919464
vn 0.4812599 -0.5381433 0.6919471
vn 0 -1 0
vn 0.4812602 -0.538143 0.6919472
vn 0.4812604 -0.5381429 0.691947
vn 1 0 0
vn 1 0 0
vn 0.4812602 -0.538143 0.6919472
vn 0.07354137 0 0.9972922
vn -1.188315E-06 1 0
vn 0.4812599 -0.5381433 0.6919471
vn 0.4812577 -0.5381466 0.6919461
vn -4.54672E-07 1 0
vn -4.54672E-07 1 0
vn 0.4812601 -0.5381433 0.6919469
vn 0.9972922 0 -0.07354121
vn 0.9972922 0 -0.07354121
vn 0.4812601 -0.5381433 0.6919469
vn 0.4812595 -0.5381445 0.6919464
vn 0 1 0
vn 0.4812595 -0.5381445 0.6919464
vn 0.48126 -0.538143 0.6919472
vn 0.4812603 -0.5381427 0.6919472
vn 0.4812597 -0.5381442 0.6919465
vn 0.4812551 -0.5381484 0.6919464
vn -1.352252E-06 1 0
vn -1.352252E-06 1 0
vn 0.4812577 -0.5381466 0.6919461
vn 0.4812611 -0.5381421 0.6919472
vn -3.633218E-06 1 0
vn 0.4812601 -0.5381433 0.6919469
vn 0.4812595 -0.5381445 0.6919464
vn 0.4812551 -0.5381484 0.6919464
vn 0 1 0
vn 0 1 0
vn 0.4812597 -0.5381442 0.6919465
vn 0.4812551 -0.5381484 0.6919464
vn 0 1 0
vn 0.4812611 -0.5381421 0.6919472
vn 0.4812603 -0.5381427 0.6919472
vn 0.4812597 -0.5381442 0.6919465
vn 0 0 1
vn 0.4812604 -0.5381425 0.6919474
vn 0.4812598 -0.5381433 0.6919472
vn 0 -1 0
vn 0 0 1
vn 0 -1 0
vn 0.4812604 -0.5381425 0.6919474
vn 0 -1 0
vn 0 -1 0
vn 0.4812604 -0.5381425 0.6919474
vn 0.4812598 -0.5381433 0.6919472
vn 0.4812588 -0.5381461 0.6919457
vn 0.4812617 -0.5381394 0.6919488
vn 0.4812594 -0.5381445 0.6919464
vn 0.4812599 -0.5381433 0.6919471
vn 0.4812577 -0.5381466 0.6919461
vn 0.4812611 -0.5381421 0.6919472
vn 0.48126 -0.5381431 0.6919472
vn 0.48126 -0.538143 0.6919472
vn 0.4812603 -0.5381427 0.6919472
vn 0 1 0
vn 0.4812598 -0.5381433 0.6919472
vn 0.4812588 -0.5381461 0.6919457
vn 0.8469597 -0.4588743 -0.2685027
vn 0.8469613 -0.4588712 -0.2685029
vn 0.8469603 -0.458873 -0.268503
vn 0.8469605 -0.4588726 -0.2685028
vn 0.8469605 -0.4588726 -0.268503
vn 0.48126 -0.5381431 0.6919472
vn 0.48126 -0.5381431 0.6919472
vn 0 1 0
vn 0.48126 -0.5381431 0.6919472
vn 0.48126 -0.5381431 0.6919472
vn 0.48126 -0.538143 0.6919472
vn 0 1 0
vn 0.8469605 -0.4588726 -0.268503
vn 0.48126 -0.5381431 0.6919472
g IL_UB_CompTable.001_sh_1_0
f 3/3/3 2/2/2 1/1/1
f 50/50/50 58/58/58 4/4/4
f 59/59/59 61/61/61 5/5/5
f 6/6/6 62/62/62 51/51/51
f 60/60/60 72/72/72 65/65/65
f 63/63/63 7/7/7 73/73/73
f 85/85/85 64/64/64 78/78/78
f 79/79/79 52/52/52 8/8/8
f 86/86/86 10/10/10 74/74/74
f 9/9/9 87/87/87 80/80/80
f 11/11/11 81/81/81 90/90/90
f 12/12/12 106/106/106 88/88/88
f 97/97/97 116/116/116 89/89/89
f 91/91/91 13/13/13 110/110/110
f 121/121/121 16/16/16 111/111/111
f 112/112/112 139/139/139 14/14/14
f 140/140/140 122/122/122 18/18/18
f 141/141/141 15/15/15 126/126/126
f 17/17/17 134/134/134 19/19/19
f 155/155/155 142/142/142 149/149/149
f 135/135/135 143/143/143 156/156/156
f 157/157/157 150/150/150 144/144/144
f 21/21/21 82/82/82 22/22/22
f 98/98/98 83/83/83 161/161/161
f 165/165/165 84/84/84 113/113/113
f 23/23/23 166/166/166 114/114/114
f 162/162/162 20/20/20 99/99/99
f 169/169/169 127/127/127 24/24/24
f 115/115/115 128/128/128 170/170/170
f 25/25/25 75/75/75 26/26/26
f 66/66/66 76/76/76 176/176/176
f 28/28/28 92/92/92 27/27/27
f 93/93/93 53/53/53 184/184/184
f 177/177/177 29/29/29 67/67/67
f 180/180/180 107/107/107 30/30/30
f 77/77/77 108/108/108 181/181/181
f 31/31/31 68/68/68 191/191/191
f 100/100/100 69/69/69 197/197/197
f 188/188/188 32/32/32 94/94/94
f 34/34/34 33/33/33 117/117/117
f 193/193/193 109/109/109 118/118/118
f 207/207/207 194/194/194 119/119/119
f 210/210/210 120/120/120 101/101/101
f 198/198/198 211/211/211 102/102/102
f 35/35/35 123/123/123 95/95/95
f 204/204/204 213/213/213 96/96/96
f 136/136/136 36/36/36 37/37/37
f 38/38/38 129/129/129 220/220/220
f 130/130/130 137/137/137 221/221/221
f 124/124/124 214/214/214 39/39/39
f 217/217/217 138/138/138 145/145/145
f 40/40/40 218/218/218 146/146/146
f 41/41/41 234/234/234 147/147/147
f 42/42/42 151/151/151 230/230/230
f 152/152/152 125/125/125 231/231/231
f 238/238/238 153/153/153 242/242/242
f 148/148/148 154/154/154 239/239/239
f 54/54/54 70/70/70 44/44/44
f 249/249/249 71/71/71 103/103/103
f 43/43/43 46/46/46 55/55/55
f 45/45/45 158/158/158 47/47/47
f 104/104/104 159/159/159 253/253/253
f 131/131/131 224/224/224 48/48/48
f 49/49/49 173/173/173 132/132/132
f 276/276/276 280/280/280 133/133/133
f 246/246/246 56/56/56 250/250/250
f 251/251/251 105/105/105 254/254/254
f 185/185/185 57/57/57 266/266/266
g IL_UB_CompTable.001_sh_1_1
f 269/269/269 160/160/160 163/163/163
f 270/270/270 164/164/164 167/167/167
f 271/271/271 168/168/168 171/171/171
f 272/272/272 172/172/172 174/174/174
f 273/273/273 175/175/175 281/281/281
f 199/199/199 192/192/192 178/178/178
f 200/200/200 179/179/179 182/182/182
f 201/201/201 183/183/183 195/195/195
f 208/208/208 212/212/212 202/202/202
f 203/203/203 196/196/196 209/209/209
f 247/247/247 252/252/252 255/255/255
f 267/267/267 248/248/248 256/256/256
f 186/186/186 268/268/268 257/257/257
f 189/189/189 187/187/187 258/258/258
f 205/205/205 190/190/190 259/259/259
f 215/215/215 206/206/206 260/260/260
f 232/232/232 216/216/216 261/261/261
f 243/243/243 233/233/233 262/262/262
f 274/274/274 282/282/282 277/277/277
f 263/263/263 275/275/275 278/278/278
f 222/222/222 219/219/219 235/235/235
f 225/225/225 223/223/223 236/236/236
f 264/264/264 279/279/279 226/226/226
f 244/244/244 265/265/265 227/227/227
f 240/240/240 245/245/245 228/228/228
f 229/229/229 237/237/237 241/241/241
