g IL_Wire_1
v -0.09999996 0.09999999 0.2
v -0.09999996 0 0.2
v -0.09999996 0 0.1
v -0.09999996 0.0746572 0.1
v -0.09999996 0 0
v -0.09999996 0.09999999 0.1253428
v -0.09999996 0.09999999 0
v -0.09999996 0.09999999 0.07465722
v -0.09999996 0.1253428 0.1
v -0.09999996 2.5 0
v -0.09999996 2.5 0.1
v -0.09999996 2.57 0.07000001
v -0.09999996 2.6 0
v -0.09999996 2.6 -0.4
v -0.09999996 2.5 -0.4
v -0.09999996 0.09999999 0
v 0.09999999 2.5 0
v -0.09999996 2.5 0
v 0.09999999 0.09999999 0
v -0.09999996 0 0
v 0.09999999 0 0
v -0.09999996 0 0
v 0.09999999 0 0.1
v 0.09999999 0 0
v -0.09999996 0 0.1
v 0.09999999 0 0.2
v -0.09999996 0 0.2
v 0.09999999 2.5 0.1
v 0.09999999 2.57 0.07000001
v 0.09999999 2.6 0
v 0.09999999 2.5 0
v 0.09999999 0.1253428 0.1
v 0.09999999 2.5 -0.4
v 0.09999999 2.6 -0.4
v 0.09999999 0.09999999 0.07465722
v 0.09999999 0.09999999 0
v 0.09999999 0.0746572 0.1
v 0.09999999 0.09999999 0.1253428
v 0.09999999 0.09999999 0.2
v 0.09999999 0 0.2
v 0.09999999 0 0.1
v 0.09999999 0 0
v 0.09999999 0.09999999 0.1253428
v 0.09999999 0.09999999 0.2
v -0.09999996 0.09999999 0.2
v -0.09999996 0.09999999 0.1253428
v 0.09999999 0.1253428 0.1
v -0.09999996 0.1253428 0.1
v -0.09999996 2.5 0.1
v 0.09999999 2.5 0.1
v 0.09999999 2.57 0.07000001
v -0.09999996 2.57 0.07000001
v 0.09999999 2.6 0
v -0.09999996 2.6 0
v 0.09999999 2.6 -0.4
v -0.09999996 2.6 -0.4
v 0.09999999 0 0.2
v -0.09999996 0 0.2
v -0.09999996 0.09999999 0.2
v 0.09999999 0.09999999 0.2
v 0.09999999 2.5 -0.4
v 0.09999999 2.6 -0.4
v -0.09999996 2.6 -0.4
v -0.09999996 2.5 -0.4
v 0.09999999 2.5 0
v 0.09999999 2.5 -0.4
v -0.09999996 2.5 -0.4
v -0.09999996 2.5 0
vt 0.05566406 0.7773438
vt 0.05566406 0.7773438
vt 0.05566406 0.7773438
vt 0.05566406 0.7773438
vt 0.05566406 0.7773438
vt 0.05566406 0.7773438
vt 0.05566406 0.7773438
vt 0.05566406 0.7773438
vt 0.05566406 0.7773438
vt 0.05566406 0.7773438
vt 0.05566406 0.7773438
vt 0.05566406 0.7773438
vt 0.05566406 0.7773438
vt 0.05566406 0.7773438
vt 0.05566406 0.7773438
vt 0.05566406 0.7773438
vt 0.05566406 0.7773438
vt 0.05566406 0.7773438
vt 0.05566406 0.7773438
vt 0.05566406 0.7773438
vt 0.05566406 0.7773438
vt 0.05566406 0.7773438
vt 0.05566406 0.7773438
vt 0.05566406 0.7773438
vt 0.05566406 0.7773438
vt 0.05566406 0.7773438
vt 0.05566406 0.7773438
vt 0.05566406 0.7773438
vt 0.05566406 0.7773438
vt 0.05566406 0.7773438
vt 0.05566406 0.7773438
vt 0.05566406 0.7773438
vt 0.05566406 0.7773438
vt 0.05566406 0.7773438
vt 0.05566406 0.7773438
vt 0.05566406 0.7773438
vt 0.05566406 0.7773438
vt 0.05566406 0.7773438
vt 0.05566406 0.7773438
vt 0.05566406 0.7773438
vt 0.05566406 0.7773438
vt 0.05566406 0.7773438
vt 0.05566406 0.7773438
vt 0.05566406 0.7773438
vt 0.05566406 0.7773438
vt 0.05566406 0.7773438
vt 0.05566406 0.7773438
vt 0.05566406 0.7773438
vt 0.05566406 0.7773438
vt 0.05566406 0.7773438
vt 0.05566406 0.7773438
vt 0.05566406 0.7773438
vt 0.05566406 0.7773438
vt 0.05566406 0.7773438
vt 0.05566406 0.7773438
vt 0.05566406 0.7773438
vt 0.05566406 0.7773438
vt 0.05566406 0.7773438
vt 0.05566406 0.7773438
vt 0.05566406 0.7773438
vt 0.05566406 0.7773438
vt 0.05566406 0.7773438
vt 0.05566406 0.7773438
vt 0.05566406 0.7773438
vt 0.05566406 0.7773438
vt 0.05566406 0.7773438
vt 0.05566406 0.7773438
vt 0.05566406 0.7773438
vn -1 0 0
vn -1 0 0
vn -1 0 0
vn -1 0 0
vn -1 0 0
vn -1 0 0
vn -1 0 0
vn -1 0 0
vn -1 0 0
vn -1 0 0
vn -1 0 0
vn -1 0 0
vn -1 0 0
vn -1 0 0
vn -1 0 0
vn 0 0 -1
vn 0 0 -1
vn 0 0 -1
vn 0 0 -1
vn 0 0 -1
vn 0 0 -1
vn 0 -1 0
vn 0 -1 0
vn 0 -1 0
vn 0 -1 0
vn 0 -1 0
vn 0 -1 0
vn 1 0 0
vn 1 0 0
vn 1 0 0
vn 1 0 0
vn 1 0 0
vn 1 0 0
vn 1 0 0
vn 1 0 0
vn 1 0 0
vn 1 0 0
vn 1 0 0
vn 1 0 0
vn 1 0 0
vn 1 0 0
vn 1 0 0
vn 0 0.9238795 0.3826834
vn 0 1 0
vn 0 1 0
vn 0 0.9238795 0.3826834
vn 0 0.3826834 0.9238795
vn 0 0.3826834 0.9238795
vn 0 0.2010661 0.9795777
vn 0 0.2010661 0.9795777
vn 0 0.7071071 0.7071065
vn 0 0.7071071 0.7071065
vn 0 0.9795778 0.2010657
vn 0 0.9795778 0.2010657
vn 0 1 0
vn 0 1 0
vn 0 0 1
vn 0 0 1
vn 0 0 1
vn 0 0 1
vn 0 0 -1
vn 0 0 -1
vn 0 0 -1
vn 0 0 -1
vn 0 -1 0
vn 0 -1 0
vn 0 -1 0
vn 0 -1 0
g IL_Wire_1_0
f 3/3/3 2/2/2 1/1/1
f 1/1/1 4/4/4 3/3/3
f 5/5/5 3/3/3 4/4/4
f 1/1/1 6/6/6 4/4/4
f 4/4/4 7/7/7 5/5/5
f 8/8/8 4/4/4 6/6/6
f 4/4/4 8/8/8 7/7/7
f 9/9/9 8/8/8 6/6/6
f 7/7/7 8/8/8 9/9/9
f 9/9/9 10/10/10 7/7/7
f 9/9/9 11/11/11 10/10/10
f 11/11/11 12/12/12 10/10/10
f 12/12/12 13/13/13 10/10/10
f 13/13/13 14/14/14 10/10/10
f 14/14/14 15/15/15 10/10/10
f 18/18/18 17/17/17 16/16/16
f 17/17/17 19/19/19 16/16/16
f 16/16/16 19/19/19 20/20/20
f 19/19/19 21/21/21 20/20/20
f 24/24/24 23/23/23 22/22/22
f 23/23/23 25/25/25 22/22/22
f 23/23/23 26/26/26 25/25/25
f 26/26/26 27/27/27 25/25/25
f 30/30/30 29/29/29 28/28/28
f 31/31/31 30/30/30 28/28/28
f 31/31/31 28/28/28 32/32/32
f 31/31/31 33/33/33 30/30/30
f 33/33/33 34/34/34 30/30/30
f 31/31/31 32/32/32 35/35/35
f 35/35/35 36/36/36 31/31/31
f 37/37/37 35/35/35 32/32/32
f 36/36/36 35/35/35 37/37/37
f 38/38/38 37/37/37 32/32/32
f 37/37/37 38/38/38 39/39/39
f 37/37/37 39/39/39 40/40/40
f 40/40/40 41/41/41 37/37/37
f 36/36/36 37/37/37 41/41/41
f 41/41/41 42/42/42 36/36/36
f 45/45/45 44/44/44 43/43/43
f 46/46/46 45/45/45 43/43/43
f 46/46/46 43/43/43 47/47/47
f 48/48/48 46/46/46 47/47/47
f 49/49/49 48/48/48 47/47/47
f 50/50/50 49/49/49 47/47/47
f 50/50/50 51/51/51 49/49/49
f 51/51/51 52/52/52 49/49/49
f 52/52/52 51/51/51 53/53/53
f 54/54/54 52/52/52 53/53/53
f 53/53/53 55/55/55 54/54/54
f 55/55/55 56/56/56 54/54/54
f 59/59/59 58/58/58 57/57/57
f 60/60/60 59/59/59 57/57/57
f 63/63/63 62/62/62 61/61/61
f 64/64/64 63/63/63 61/61/61
f 67/67/67 66/66/66 65/65/65
f 68/68/68 67/67/67 65/65/65
