g PolyRoundRockCluster02
v 0.0260251 0.06757672 -0.009520831
v 0.03132031 0.04668843 0.007787528
v 0.01904348 0.08234856 0.0656057
v -0.01622497 -0.04674686 0.01108552
v -0.03220815 -0.06938197 -0.01092637
v -0.06737071 -0.0659502 0.1050713
v 0.0283464 0.008706815 0.0002861023
v 0.04941397 0.01075772 -0.02807382
v 0.1093985 -0.01868504 0.04380728
v -0.01101292 -0.04891074 0.01773921
v -0.0481965 -0.03009047 0.04687841
v -0.02521203 -0.0145057 0.1480774
v 0.05451694 0.01078577 0.09823421
v 0.01145442 -0.01582147 0.1757503
v 0.006465207 0.01355101 0.239875
v 0.05516835 -0.01781544 0.08822117
v -0.02521203 -0.0145057 0.1480774
v 0.01145442 -0.01582147 0.1757503
v 0.05451694 0.01078577 0.09823421
v 0.05516835 -0.01781544 0.08822117
v 0.01145442 -0.01582147 0.1757503
v 0.01145442 -0.01582147 0.1757503
v -0.02521203 -0.0145057 0.1480774
v 0.006465207 0.01355101 0.239875
v 0.03332623 0.03989323 0.07926959
v -0.01101292 0.03649964 0.1501423
v -0.01213116 0.06393585 0.03357678
v -0.01101292 -0.04891074 0.01773921
v -0.002516922 -0.053051 -0.02745605
v -0.0481965 -0.03009047 0.04687841
v -0.06420259 -0.02285355 0.05252571
v -0.04018051 -0.009030067 0.1398187
v -0.02521203 -0.0145057 0.1480774
v -0.02521203 -0.0145057 0.1480774
v -0.04149769 0.02797787 0.1318647
v 0.006465207 0.01355101 0.239875
v -0.04149769 0.02797787 0.1318647
v -0.01101292 0.03649964 0.1501423
v 0.006465207 0.01355101 0.239875
v -0.01602291 0.02909458 -0.02168658
v 0.02244076 0.02260465 -0.02801559
v 0.01609813 0.0460903 -0.02882041
v -0.01518621 0.05136887 -0.02367271
v -0.008320608 0.02194975 -0.001913562
v 0.02388951 0.03730687 0.01776171
v 0.01667261 0.01773267 -0.006026082
v -0.004306936 0.0425747 0.02301424
v 0.01904348 0.08234856 0.0656057
v 0.02830842 0.05152968 -0.03593318
v 0.03319215 0.03285756 -0.02205016
v 0.03960555 0.05025242 -0.0009108257
v 0.03551654 0.06155922 -0.01217434
v -0.01518621 0.05136887 -0.02367271
v 0.01609813 0.0460903 -0.02882041
v 0.0260251 0.06757672 -0.009520831
v -0.005259237 0.07285529 -0.004373136
v 0.01904348 0.08234856 0.0656057
v -0.01518621 0.05136887 -0.02367271
v -0.01120285 0.05386331 0.01478452
v -0.01602291 0.02909458 -0.02168658
v -0.005259237 0.07285529 -0.004373136
v 0.01904348 0.08234856 0.0656057
v 0.02244076 0.02260465 -0.02801559
v 0.03319215 0.03285756 -0.02205016
v 0.02830842 0.05152968 -0.03593318
v 0.01609813 0.0460903 -0.02882041
v 0.01609813 0.0460903 -0.02882041
v 0.02830842 0.05152968 -0.03593318
v 0.03551654 0.06155922 -0.01217434
v 0.0260251 0.06757672 -0.009520831
v 0.0260251 0.06757672 -0.009520831
v 0.03551654 0.06155922 -0.01217434
v 0.03960555 0.05025242 -0.0009108257
v 0.03132031 0.04668843 0.007787528
v 0.03132031 0.04668843 0.007787528
v 0.03960555 0.05025242 -0.0009108257
v 0.03319215 0.03285756 -0.02205016
v 0.02244076 0.02260465 -0.02801559
v -0.01602291 0.02909458 -0.02168658
v -0.008320608 0.02194975 -0.001913562
v 0.01667261 0.01773267 -0.006026082
v 0.02244076 0.02260465 -0.02801559
v 0.02244076 0.02260465 -0.02801559
v 0.01667261 0.01773267 -0.006026082
v 0.02388951 0.03730687 0.01776171
v 0.03132031 0.04668843 0.007787528
v 0.01904348 0.08234856 0.0656057
v -0.004306936 0.0425747 0.02301424
v -0.01120285 0.05386331 0.01478452
v -0.008320608 0.02194975 -0.001913562
v -0.01602291 0.02909458 -0.02168658
v -0.04440039 -0.02528665 -0.04229643
v -0.01820359 -0.05481184 -0.04419922
v -0.0005684662 -0.03045808 -0.0261121
v -0.02187558 -0.006443834 -0.02456447
v -0.05172111 -0.04047155 -0.04349857
v -0.04608102 -0.07149858 -0.01769234
v -0.03469876 -0.05965665 -0.04473497
v -0.065685 -0.05000931 -0.01562502
v -0.06737071 -0.0659502 0.1050713
v -0.02187558 -0.006443834 -0.02456447
v -0.0005684662 -0.03045808 -0.0261121
v -0.01622497 -0.04674686 0.01108552
v -0.03753208 -0.02273262 0.01263315
v -0.06737071 -0.0659502 0.1050713
v -0.02187558 -0.006443834 -0.02456447
v -0.06116978 -0.03674066 -0.008822761
v -0.04440039 -0.02528665 -0.04229643
v -0.03753208 -0.02273262 0.01263315
v -0.06737071 -0.0659502 0.1050713
v -0.04440039 -0.02528665 -0.04229643
v -0.05172111 -0.04047155 -0.04349857
v -0.03469876 -0.05965665 -0.04473497
v -0.01820359 -0.05481184 -0.04419922
v -0.01820359 -0.05481184 -0.04419922
v -0.03469876 -0.05965665 -0.04473497
v -0.04608102 -0.07149858 -0.01769234
v -0.03220815 -0.06938197 -0.01092637
v -0.06737071 -0.0659502 0.1050713
v -0.065685 -0.05000931 -0.01562502
v -0.06116978 -0.03674066 -0.008822761
v -0.05172111 -0.04047155 -0.04349857
v -0.04440039 -0.02528665 -0.04229643
v -0.0005684662 -0.03045808 -0.0261121
v -0.01820359 -0.05481184 -0.04419922
v -0.03220815 -0.06938197 -0.01092637
v -0.01622497 -0.04674686 0.01108552
v 0.01448288 -0.02466706 -0.05261017
v 0.02142884 0.01416654 -0.05491987
v -0.002939792 0.01251773 -0.02972666
v -0.008589263 -0.01906749 -0.02784806
v 0.03013461 -0.02111603 -0.05790479
v 0.05739303 0.001347041 -0.03758636
v 0.034648 0.004117568 -0.05940561
v 0.0528274 -0.02736741 -0.03534706
v 0.1093985 -0.01868504 0.04380728
v -0.008589263 -0.01906749 -0.02784806
v -0.002939792 0.01251773 -0.02972666
v 0.0283464 0.008706815 0.0002861023
v 0.02269692 -0.0228784 0.002164698
v 0.1093985 -0.01868504 0.04380728
v -0.008589263 -0.01906749 -0.02784806
v 0.04173493 -0.03217442 -0.02552033
v 0.01448288 -0.02466706 -0.05261017
v 0.02269692 -0.0228784 0.002164698
v 0.1093985 -0.01868504 0.04380728
v 0.01448288 -0.02466706 -0.05261017
v 0.03013461 -0.02111603 -0.05790479
v 0.034648 0.004117568 -0.05940561
v 0.02142884 0.01416654 -0.05491987
v 0.02142884 0.01416654 -0.05491987
v 0.034648 0.004117568 -0.05940561
v 0.05739303 0.001347041 -0.03758636
v 0.04941397 0.01075772 -0.02807382
v 0.1093985 -0.01868504 0.04380728
v 0.0528274 -0.02736741 -0.03534706
v 0.04173493 -0.03217442 -0.02552033
v 0.03013461 -0.02111603 -0.05790479
v 0.01448288 -0.02466706 -0.05261017
v -0.002939792 0.01251773 -0.02972666
v 0.02142884 0.01416654 -0.05491987
v 0.04941397 0.01075772 -0.02807382
v 0.0283464 0.008706815 0.0002861023
v 0.05163518 0.02803567 0.07614123
v 0.05205546 0.05171422 0.003282204
v 0.07658818 -0.00165498 0.02541413
v 0.07117706 0.01325119 0.09335347
v 0.05516835 -0.01781544 0.08822117
v 0.04052575 -0.04780897 0.008380025
v -0.01101292 -0.04891074 0.01773921
v -0.02521203 -0.0145057 0.1480774
v 0.07658818 -0.00165498 0.02541413
v 0.0582216 -0.03846727 0.02539517
v 0.06270398 -0.007171311 0.08439263
v 0.07117706 0.01325119 0.09335347
v 0.02436143 -0.04691619 -0.02745605
v 0.0317707 0.01078577 -0.03344424
v 0.01980871 0.0356251 -0.03344424
v -0.002516922 -0.053051 -0.02745605
v -0.02862442 0.02457055 -0.03344424
v 0.02386955 -0.05488564 -0.02372555
v 0.0005980867 -0.06065866 -0.0236971
v 0.03332623 0.03989323 0.07926959
v 0.05451694 0.01078577 0.09823421
v 0.006465207 0.01355101 0.239875
v -0.01101292 0.03649964 0.1501423
v -0.04149769 0.02797787 0.1318647
v -0.01213116 0.06393585 0.03357678
v -0.01101292 0.03649964 0.1501423
v -0.04911806 0.03443978 0.01175101
v -0.02862442 0.02457055 -0.03344424
v 0.01980871 0.0356251 -0.03344424
v 0.03399076 0.05340883 -0.01593847
v -0.04018051 -0.009030067 0.1398187
v -0.06420259 -0.02285355 0.05252571
v -0.04863869 0.002634175 0.1276561
v -0.06461344 0.0263834 0.0257011
v -0.01213116 0.06393585 0.03357678
v 0.03399076 0.05340883 -0.01593847
v 0.03332623 0.03989323 0.07926959
v 0.05163518 0.02803567 0.07614123
v 0.05205546 0.05171422 0.003282204
v 0.03399076 0.05340883 -0.01593847
v 0.01980871 0.0356251 -0.03344424
v 0.0317707 0.01078577 -0.03344424
v 0.06105193 -0.005185909 0.008380025
v 0.05205546 0.05171422 0.003282204
v 0.07658818 -0.00165498 0.02541413
v 0.02436143 -0.04691619 -0.02745605
v 0.04052575 -0.04780897 0.008380025
v 0.03444721 -0.05666522 0.006888497
v 0.02386955 -0.05488564 -0.02372555
v 0.03444721 -0.05666522 0.006888497
v 0.02386955 -0.05488564 -0.02372555
v 0.0005980867 -0.06065866 -0.0236971
v -0.005432274 -0.05674076 0.0140675
v -0.0481965 -0.03009047 0.04687841
v -0.002516922 -0.053051 -0.02745605
v -0.02862442 0.02457055 -0.03344424
v -0.04911806 0.03443978 0.01175101
v -0.02521203 -0.0145057 0.1480774
v -0.04018051 -0.009030067 0.1398187
v -0.04863869 0.002634175 0.1276561
v -0.04149769 0.02797787 0.1318647
v -0.04149769 0.02797787 0.1318647
v -0.04863869 0.002634175 0.1276561
v -0.06461344 0.0263834 0.0257011
v -0.04911806 0.03443978 0.01175101
v -0.04911806 0.03443978 0.01175101
v -0.06461344 0.0263834 0.0257011
v -0.06420259 -0.02285355 0.05252571
v -0.0481965 -0.03009047 0.04687841
v 0.03332623 0.03989323 0.07926959
v 0.05163518 0.02803567 0.07614123
v 0.07117706 0.01325119 0.09335347
v 0.05451694 0.01078577 0.09823421
v 0.05451694 0.01078577 0.09823421
v 0.07117706 0.01325119 0.09335347
v 0.06270398 -0.007171311 0.08439263
v 0.05516835 -0.01781544 0.08822117
v 0.05516835 -0.01781544 0.08822117
v 0.06270398 -0.007171311 0.08439263
v 0.0582216 -0.03846727 0.02539517
v 0.04052575 -0.04780897 0.008380025
v 0.04052575 -0.04780897 0.008380025
v 0.0582216 -0.03846727 0.02539517
v 0.07658818 -0.00165498 0.02541413
v 0.06105193 -0.005185909 0.008380025
v 0.04052575 -0.04780897 0.008380025
v 0.03444721 -0.05666522 0.006888497
v -0.005432274 -0.05674076 0.0140675
v -0.01101292 -0.04891074 0.01773921
v -0.01101292 -0.04891074 0.01773921
v -0.005432274 -0.05674076 0.0140675
v 0.0005980867 -0.06065866 -0.0236971
v -0.002516922 -0.053051 -0.02745605
vn 0.9612971 0.2732024 0.03561607
vn 0.9612971 0.2732024 0.03561606
vn 0.9612971 0.2732023 0.03561606
vn 0.6783203 -0.6990488 0.2263016
vn 0.6783203 -0.6990488 0.2263015
vn 0.6783203 -0.6990488 0.2263015
vn 0.2039567 0.953827 0.2204899
vn 0.2039567 0.953827 0.2204899
vn 0.2039567 0.953827 0.2204899
vn -0.4202358 -0.9060924 0.04897295
vn -0.3497217 -0.9150118 0.2011171
vn -0.3645381 -0.9024832 0.2294255
vn 0.8838756 -0.2032329 0.4212603
vn 0.8367643 -0.4514319 0.3098946
vn 0.8223942 -0.4903013 0.2885698
vn 0.2699566 -0.9257958 0.2646235
vn 0.04080758 -0.993125 0.1097149
vn -0.0385194 -0.9992515 0.003526191
vn 0.8838756 -0.2032329 0.4212603
vn 0.8851222 -0.1356806 0.44514
vn 0.8367643 -0.4514319 0.3098946
vn -0.3143249 -0.8721038 0.3750131
vn -0.3143249 -0.8721038 0.3750131
vn -0.3143249 -0.8721038 0.3750131
vn 0.2852255 0.9375784 0.1989798
vn 0.2762983 0.9360956 0.2176797
vn 0.3297911 0.9301649 0.1613419
vn -0.4202358 -0.9060924 0.04897295
vn -0.4538965 -0.8910468 -0.003698144
vn -0.3497217 -0.9150118 0.2011171
vn -0.3859345 -0.8919843 0.2354114
vn -0.3859345 -0.8919843 0.2354114
vn -0.3645381 -0.9024832 0.2294255
vn -0.904561 -0.203856 0.374449
vn -0.904561 -0.203856 0.374449
vn -0.904561 -0.203856 0.374449
vn -0.4197214 0.8563726 0.3007657
vn -0.4197214 0.8563726 0.3007657
vn -0.4197214 0.8563726 0.3007657
vn -0.2253813 -0.5546239 -0.8009967
vn -0.09306062 -0.5243661 -0.8463923
vn -0.02445913 -0.1810548 -0.9831688
vn -0.1751077 -0.08091493 -0.9812186
vn -0.02439001 -0.768308 0.6396154
vn -0.0174581 -0.7512815 0.6597509
vn -0.02439001 -0.7683082 0.6396154
vn -0.0164275 -0.7487051 0.6626996
vn 0.2101268 0.3298058 0.9203667
vn 0.9516333 0.02820163 -0.305939
vn 0.9516333 0.02820164 -0.305939
vn 0.9516333 0.02820164 -0.305939
vn 0.9516333 0.02820163 -0.305939
vn -0.008939567 0.6704898 -0.7418649
vn -0.1013209 0.7511483 -0.6523114
vn -0.03076502 0.8561229 -0.5158557
vn 0.0606201 0.8575032 -0.5108946
vn 0.2101268 0.3298058 0.9203667
vn -0.9748098 0.205086 0.08766745
vn -0.9151775 0.3673615 0.1658175
vn -0.9748098 0.205086 0.08766745
vn -0.9323013 0.3300905 0.147832
vn -0.8414687 0.4909393 0.2256304
vn -0.09306062 -0.5243661 -0.8463923
vn 0.150468 -0.2892898 -0.9453416
vn 0.150468 -0.2892899 -0.9453416
vn -0.02445913 -0.1810548 -0.9831688
vn -0.1013209 0.7511483 -0.6523114
vn -0.212317 0.8268926 -0.5207399
vn -0.212317 0.8268927 -0.5207399
vn -0.03076502 0.8561229 -0.5158557
vn 0.4672572 0.6591322 0.5892498
vn 0.4672571 0.6591322 0.5892498
vn 0.4672571 0.6591322 0.5892498
vn 0.4672572 0.6591322 0.5892498
vn 0.802399 -0.5238738 0.2858531
vn 0.5795735 -0.7248721 0.372364
vn 0.5795735 -0.7248722 0.372364
vn 0.7587597 -0.6062278 0.238268
vn -0.2253813 -0.5546239 -0.8009967
vn -0.2023422 -0.9435796 -0.2621357
vn -0.2023422 -0.9435796 -0.2621357
vn -0.09306062 -0.5243661 -0.8463923
vn 0.7587597 -0.6062278 0.238268
vn 0.8575674 -0.4970169 0.1324858
vn 0.8788874 -0.4008858 0.2585489
vn 0.802399 -0.5238738 0.2858531
vn 0.005014646 -0.3953237 0.9185281
vn -0.8805741 -0.1761806 0.4399426
vn -0.887142 -0.1870644 0.421884
vn -0.9163317 -0.2474673 0.3147953
vn -0.9163317 -0.2474673 0.3147953
vn 0.2168033 0.2531247 -0.9428278
vn 0.2071015 0.2447982 -0.9471974
vn 0.3597425 0.3742707 -0.8546969
vn 0.3597425 0.3742707 -0.854697
vn -0.6566021 -0.5492715 -0.5168892
vn -0.7122954 -0.6177504 -0.3331963
vn -0.6566021 -0.5492715 -0.5168893
vn -0.7176144 -0.6251224 -0.3070045
vn 0.2116623 0.09586427 0.97263
vn 0.6566021 0.5492715 0.5168894
vn 0.6566021 0.5492715 0.5168893
vn 0.6634527 0.556424 0.5002229
vn 0.6638297 0.5568192 0.4992821
vn 0.2116623 0.09586427 0.97263
vn -0.6005812 0.7986621 0.03796073
vn -0.6053803 0.7910258 0.08827832
vn -0.6005812 0.7986621 0.03796072
vn -0.6068542 0.7874002 0.1082994
vn -0.6096841 0.7751522 0.1656033
vn 0.2168033 0.2531247 -0.9428278
vn 0.01071997 0.0737783 -0.9972171
vn 0.01071997 0.0737783 -0.9972171
vn 0.2071015 0.2447982 -0.9471974
vn 0.2786623 -0.9173132 -0.284401
vn 0.2786623 -0.9173132 -0.284401
vn 0.21095 -0.9688901 -0.1294295
vn 0.1988796 -0.9746076 -0.1028919
vn -0.7792485 -0.6207992 0.08590806
vn -0.9113147 0.3849571 -0.145992
vn -0.9197902 0.3739592 -0.1189135
vn -0.8558921 0.4347973 -0.2799998
vn -0.8558922 0.4347973 -0.2799998
vn 0.7861284 -0.6149879 0.06157953
vn 0.7861284 -0.6149879 0.06157953
vn 0.7861284 -0.6149879 0.06157952
vn 0.7861284 -0.6149879 0.06157952
vn -0.5649449 0.05207025 -0.8234841
vn -0.5540012 0.0496638 -0.8310332
vn -0.7188686 0.08756418 -0.6896088
vn -0.7188687 0.08756419 -0.6896088
vn 0.6725572 -0.1632284 -0.7218195
vn 0.7407659 -0.1684953 -0.6502886
vn 0.6725571 -0.1632283 -0.7218195
vn 0.7460276 -0.1688533 -0.6441516
vn 0.5845024 -0.04592531 0.8100912
vn -0.6725571 0.1632283 0.7218196
vn -0.6725571 0.1632283 0.7218196
vn -0.5659517 0.1494514 0.8107792
vn -0.566698 0.1495527 0.8102391
vn 0.5845024 -0.04592531 0.8100912
vn -0.2544453 -0.9645755 0.06965455
vn -0.1792507 -0.9709845 0.1582978
vn -0.2544453 -0.9645755 0.06965455
vn -0.169592 -0.9708586 0.1693283
vn -0.08151409 -0.9604021 0.2664271
vn -0.5649449 0.05207025 -0.8234841
vn -0.3206466 0.001015857 -0.9471983
vn -0.3206466 0.001015857 -0.9471983
vn -0.5540012 0.0496638 -0.8310332
vn 0.4700236 0.7921214 -0.389386
vn 0.4700237 0.7921214 -0.389386
vn 0.5491641 0.7769069 -0.3079519
vn 0.5508637 0.7764468 -0.306071
vn 0.9233155 -0.1996984 -0.3280383
vn 0.1997737 -0.9501724 -0.2392966
vn 0.1991643 -0.9501319 -0.2399647
vn 0.0925437 -0.9316808 -0.3512928
vn 0.09254369 -0.9316807 -0.3512927
vn 0.03046498 0.99505 0.09459036
vn 0.03046498 0.99505 0.09459036
vn 0.03046498 0.99505 0.09459034
vn 0.03046498 0.99505 0.09459036
vn 0.8189363 0.5696713 0.06941075
vn 0.8189362 0.5696713 0.06941074
vn 0.8189362 0.5696713 0.06941074
vn 0.8189362 0.5696713 0.06941074
vn 0.2699566 -0.9257958 0.2646235
vn 0.1964313 -0.9227443 0.3315988
vn 0.1170069 -0.9445397 0.3068455
vn 0.04080758 -0.993125 0.1097149
vn 0.8824375 -0.4399465 0.166587
vn 0.8824375 -0.4399465 0.166587
vn 0.8824375 -0.4399465 0.166587
vn 0.8824375 -0.4399465 0.166587
vn 0.03687917 -0.2163665 -0.9756154
vn -0.006373058 -0.07270593 -0.997333
vn -0.006373057 -0.07270592 -0.997333
vn 0.04265541 -0.2353868 -0.9709653
vn -0.006373057 -0.07270592 -0.997333
vn 0.09865855 -0.4176584 -0.9032319
vn 0.09865856 -0.4176585 -0.903232
vn 0.5030376 0.8354868 0.2211674
vn 0.5030376 0.8354868 0.2211673
vn 0.5030376 0.8354868 0.2211674
vn 0.5030376 0.8354868 0.2211673
vn -0.5473465 0.8253792 0.1384231
vn -0.4666165 0.8732989 -0.1400644
vn -0.5473465 0.8253792 0.138423
vn -0.4936218 0.8504849 -0.1816949
vn -0.3196289 0.8378747 -0.4424968
vn -0.2543036 0.8415034 -0.4766567
vn -0.2543036 0.8415034 -0.4766567
vn -0.8931779 -0.335916 0.2989876
vn -0.9811795 0.04728221 0.1872193
vn -0.9270556 -0.2520534 0.2775556
vn -0.9809614 0.08653363 0.1738582
vn 0.3297911 0.9301649 0.1613419
vn 0.3082755 0.9357049 0.1715295
vn 0.2852255 0.9375784 0.1989798
vn 0.2582521 0.9429021 0.2103362
vn 0.2582521 0.9429021 0.2103362
vn 0.7683253 0.1420567 -0.6240963
vn 0.7877515 0.1984729 -0.5831433
vn 0.8160371 0.02851145 -0.5772958
vn 0.7767121 -0.1426544 -0.6134884
vn 0.7309645 0.05462971 -0.6802254
vn 0.7486849 -0.150968 -0.6455074
vn 0.8317967 -0.3103794 -0.4601944
vn 0.8100198 -0.3221435 -0.4899913
vn 0.8524815 -0.3805816 -0.3583755
vn 0.8524815 -0.3805817 -0.3583755
vn 0.09499568 -0.9951687 0.0248032
vn 0.09499568 -0.9951687 0.0248032
vn 0.09499568 -0.9951687 0.0248032
vn 0.09499569 -0.9951687 0.0248032
vn -0.8700441 -0.2823205 -0.4041265
vn -0.8700441 -0.2823205 -0.4041265
vn -0.8700441 -0.2823205 -0.4041265
vn -0.8700442 -0.2823206 -0.4041265
vn -0.584747 0.1505129 0.7971304
vn -0.584747 0.1505129 0.7971305
vn -0.584747 0.1505129 0.7971305
vn -0.584747 0.1505129 0.7971304
vn -0.7937107 0.5857643 0.1640227
vn -0.7937107 0.5857642 0.1640227
vn -0.7937107 0.5857643 0.1640227
vn -0.7937107 0.5857642 0.1640227
vn -0.4697768 -0.4264205 -0.7729652
vn -0.4697768 -0.4264205 -0.7729652
vn -0.4697769 -0.4264206 -0.7729652
vn -0.4697769 -0.4264205 -0.7729652
vn 0.3319195 0.7640309 0.5532507
vn 0.3319195 0.7640309 0.5532506
vn 0.3319195 0.7640309 0.5532506
vn 0.3319195 0.7640309 0.5532506
vn 0.4890771 -0.3815978 0.7843385
vn 0.4890771 -0.3815978 0.7843385
vn 0.4890771 -0.3815979 0.7843385
vn 0.4890771 -0.3815978 0.7843385
vn 0.2699566 -0.9257958 0.2646235
vn 0.4948891 -0.8180805 0.2929661
vn 0.4948891 -0.8180805 0.2929661
vn 0.1964313 -0.9227443 0.3315988
vn 0.8100198 -0.3221435 -0.4899913
vn 0.7322186 -0.3583672 -0.5791623
vn 0.7486849 -0.150968 -0.6455074
vn 0.7767121 -0.1426544 -0.6134884
vn 0.1737371 -0.2958341 0.9393069
vn 0.1737371 -0.2958341 0.9393069
vn 0.1737371 -0.2958341 0.9393069
vn 0.1737371 -0.2958341 0.9393069
vn -0.8662889 -0.4885477 -0.1042339
vn -0.8662889 -0.4885477 -0.1042339
vn -0.8662889 -0.4885477 -0.1042339
vn -0.8662889 -0.4885477 -0.1042339
g PolyRoundRockCluster02_0
f 3/3/3 2/2/2 1/1/1
f 6/6/6 5/5/5 4/4/4
f 9/9/9 8/8/8 7/7/7
f 12/12/12 11/11/11 10/10/10
f 15/15/15 14/14/14 13/13/13
f 18/18/18 17/17/17 16/16/16
f 21/21/21 20/20/20 19/19/19
f 24/24/24 23/23/23 22/22/22
f 27/27/27 26/26/26 25/25/25
f 30/30/30 29/29/29 28/28/28
f 32/32/32 31/31/31 30/30/30
f 33/33/33 32/32/32 30/30/30
f 36/36/36 35/35/35 34/34/34
f 39/39/39 38/38/38 37/37/37
f 42/42/42 41/41/41 40/40/40
f 43/43/43 42/42/42 40/40/40
f 46/46/46 45/45/45 44/44/44
f 45/45/45 47/47/47 44/44/44
f 48/48/48 47/47/47 45/45/45
f 51/51/51 50/50/50 49/49/49
f 52/52/52 51/51/51 49/49/49
f 55/55/55 54/54/54 53/53/53
f 56/56/56 55/55/55 53/53/53
f 57/57/57 55/55/55 56/56/56
f 60/60/60 59/59/59 58/58/58
f 59/59/59 61/61/61 58/58/58
f 62/62/62 61/61/61 59/59/59
f 65/65/65 64/64/64 63/63/63
f 66/66/66 65/65/65 63/63/63
f 69/69/69 68/68/68 67/67/67
f 70/70/70 69/69/69 67/67/67
f 73/73/73 72/72/72 71/71/71
f 74/74/74 73/73/73 71/71/71
f 77/77/77 76/76/76 75/75/75
f 78/78/78 77/77/77 75/75/75
f 81/81/81 80/80/80 79/79/79
f 82/82/82 81/81/81 79/79/79
f 85/85/85 84/84/84 83/83/83
f 86/86/86 85/85/85 83/83/83
f 87/87/87 85/85/85 86/86/86
f 89/89/89 88/88/88 87/87/87
f 90/90/90 88/88/88 89/89/89
f 91/91/91 90/90/90 89/89/89
f 94/94/94 93/93/93 92/92/92
f 95/95/95 94/94/94 92/92/92
f 98/98/98 97/97/97 96/96/96
f 97/97/97 99/99/99 96/96/96
f 100/100/100 99/99/99 97/97/97
f 103/103/103 102/102/102 101/101/101
f 104/104/104 103/103/103 101/101/101
f 105/105/105 103/103/103 104/104/104
f 108/108/108 107/107/107 106/106/106
f 107/107/107 109/109/109 106/106/106
f 110/110/110 109/109/109 107/107/107
f 113/113/113 112/112/112 111/111/111
f 114/114/114 113/113/113 111/111/111
f 117/117/117 116/116/116 115/115/115
f 118/118/118 117/117/117 115/115/115
f 119/119/119 117/117/117 118/118/118
f 121/121/121 120/120/120 119/119/119
f 122/122/122 120/120/120 121/121/121
f 123/123/123 122/122/122 121/121/121
f 126/126/126 125/125/125 124/124/124
f 127/127/127 126/126/126 124/124/124
f 130/130/130 129/129/129 128/128/128
f 131/131/131 130/130/130 128/128/128
f 134/134/134 133/133/133 132/132/132
f 133/133/133 135/135/135 132/132/132
f 136/136/136 135/135/135 133/133/133
f 139/139/139 138/138/138 137/137/137
f 140/140/140 139/139/139 137/137/137
f 141/141/141 139/139/139 140/140/140
f 144/144/144 143/143/143 142/142/142
f 143/143/143 145/145/145 142/142/142
f 146/146/146 145/145/145 143/143/143
f 149/149/149 148/148/148 147/147/147
f 150/150/150 149/149/149 147/147/147
f 153/153/153 152/152/152 151/151/151
f 154/154/154 153/153/153 151/151/151
f 155/155/155 153/153/153 154/154/154
f 157/157/157 156/156/156 155/155/155
f 158/158/158 156/156/156 157/157/157
f 159/159/159 158/158/158 157/157/157
f 162/162/162 161/161/161 160/160/160
f 163/163/163 162/162/162 160/160/160
f 166/166/166 165/165/165 164/164/164
f 167/167/167 166/166/166 164/164/164
f 170/170/170 169/169/169 168/168/168
f 168/168/168 171/171/171 170/170/170
f 174/174/174 173/173/173 172/172/172
f 175/175/175 174/174/174 172/172/172
f 178/178/178 177/177/177 176/176/176
f 176/176/176 179/179/179 178/178/178
f 179/179/179 180/180/180 178/178/178
f 176/176/176 181/181/181 179/179/179
f 181/181/181 182/182/182 179/179/179
f 185/185/185 184/184/184 183/183/183
f 186/186/186 185/185/185 183/183/183
f 189/189/189 188/188/188 187/187/187
f 188/188/188 190/190/190 187/187/187
f 188/188/188 191/191/191 190/190/190
f 192/192/192 191/191/191 188/188/188
f 193/193/193 192/192/192 188/188/188
f 196/196/196 195/195/195 194/194/194
f 197/197/197 195/195/195 196/196/196
f 200/200/200 199/199/199 198/198/198
f 200/200/200 201/201/201 199/199/199
f 201/201/201 202/202/202 199/199/199
f 205/205/205 204/204/204 203/203/203
f 206/206/206 205/205/205 203/203/203
f 203/203/203 207/207/207 206/206/206
f 207/207/207 208/208/208 206/206/206
f 209/209/209 205/205/205 206/206/206
f 210/210/210 209/209/209 206/206/206
f 210/210/210 211/211/211 209/209/209
f 211/211/211 212/212/212 209/209/209
f 215/215/215 214/214/214 213/213/213
f 216/216/216 215/215/215 213/213/213
f 219/219/219 218/218/218 217/217/217
f 220/220/220 219/219/219 217/217/217
f 223/223/223 222/222/222 221/221/221
f 224/224/224 223/223/223 221/221/221
f 227/227/227 226/226/226 225/225/225
f 228/228/228 227/227/227 225/225/225
f 231/231/231 230/230/230 229/229/229
f 232/232/232 231/231/231 229/229/229
f 235/235/235 234/234/234 233/233/233
f 236/236/236 235/235/235 233/233/233
f 239/239/239 238/238/238 237/237/237
f 240/240/240 239/239/239 237/237/237
f 243/243/243 242/242/242 241/241/241
f 244/244/244 243/243/243 241/241/241
f 247/247/247 246/246/246 245/245/245
f 248/248/248 247/247/247 245/245/245
f 251/251/251 250/250/250 249/249/249
f 252/252/252 251/251/251 249/249/249
f 255/255/255 254/254/254 253/253/253
f 256/256/256 255/255/255 253/253/253
