g Prop_Tv_02
v -0.5833292 5.960464E-08 0.08818817
v -0.5833292 1.030106 0.08818817
v -0.5833292 1.030106 0.3920326
v -0.5833292 5.960464E-08 0.3920326
v -0.5833292 1.030106 0.08818817
v 0.5833302 1.030106 0.08819008
v 0.5833302 1.030106 0.3920345
v -0.5833292 1.030106 0.3920326
v 0.5833302 1.030106 0.08819008
v 0.5833302 5.960464E-08 0.08819008
v 0.5833302 5.960464E-08 0.3920345
v 0.5833302 1.030106 0.3920345
v 0.5833302 5.960464E-08 0.08819008
v -0.5833292 5.960464E-08 0.3920326
v 0.5833302 5.960464E-08 0.3920345
v -0.5833292 5.960464E-08 0.08818817
v -0.3935871 0 -0.3920383
v 0.3935833 0 -0.3920364
v -0.4878588 0.1783166 0.3494034
v -0.4878588 0.9346328 0.3494034
v 0.4878521 0.9346328 0.3494034
v 0.4878521 0.1783166 0.3494034
v 0.3935833 0 -0.3920364
v 0.3935833 0.7238411 -0.3920364
v -0.3935871 0.7238411 -0.3920383
v -0.3935871 0 -0.3920383
v -0.1111994 0.05796409 0.3920326
v -0.1111994 0.1203526 0.3920326
v 0.1111975 0.1203526 0.3920326
v 0.1111975 0.05796409 0.3920326
v -0.4878588 0.1783166 0.3920326
v -0.4878588 0.1783166 0.3494034
v 0.4878521 0.1783166 0.3494034
v 0.4878521 0.1783166 0.3920326
v 0.4878521 0.1783166 0.3920326
v 0.4878521 0.1783166 0.3494034
v 0.4878521 0.9346328 0.3494034
v 0.4878521 0.9346328 0.3920326
v 0.4878521 0.9346328 0.3920326
v 0.4878521 0.9346328 0.3494034
v -0.4878588 0.9346328 0.3494034
v -0.4878588 0.9346328 0.3920326
v -0.4878588 0.9346328 0.3920326
v -0.4878588 0.9346328 0.3494034
v -0.4878588 0.1783166 0.3494034
v -0.4878588 0.1783166 0.3920326
v -0.5833292 5.960464E-08 0.08818817
v -0.3935871 0 -0.3920383
v -0.3935871 0.7238411 -0.3920383
v -0.5833292 1.030106 0.08818817
v -0.5833292 1.030106 0.08818817
v -0.3935871 0.7238411 -0.3920383
v 0.3935833 0.7238411 -0.3920364
v 0.5833302 1.030106 0.08819008
v 0.5833302 1.030106 0.08819008
v 0.3935833 0.7238411 -0.3920364
v 0.3935833 0 -0.3920364
v 0.5833302 5.960464E-08 0.08819008
v -0.4877319 0.08624208 0.3920327
v -0.4310789 0.08624205 0.3920334
v -0.4310789 0.03906506 0.3920334
v -0.4877319 0.03906506 0.3920326
v 0.5833302 5.960464E-08 0.3920345
v 0.4878521 0.1783166 0.3920326
v 0.4878521 0.9346328 0.3920326
v 0.5833302 1.030106 0.3920345
v -0.4878588 0.9346328 0.3920326
v -0.5833292 1.030106 0.3920326
v -0.4878588 0.1783166 0.3920326
v -0.5833292 5.960464E-08 0.3920326
v 0.1111975 0.1203526 0.3920326
v 0.1111975 0.05796409 0.3920326
v -0.1111994 0.1203526 0.3920326
v -0.1111994 0.05796409 0.3920326
v -0.4310789 0.08624205 0.3920334
v -0.4310789 0.03906506 0.3920334
v -0.4877319 0.08624208 0.3920327
v -0.4877319 0.03906506 0.3920326
vt 0.2331543 0.4753418
vt 0.2331543 0.4753418
vt 0.2331543 0.4753418
vt 0.2331543 0.4753418
vt 0.2956543 0.4753418
vt 0.2956543 0.4753418
vt 0.2956543 0.4753418
vt 0.2956543 0.4753418
vt 0.2331543 0.4753418
vt 0.2331543 0.4753418
vt 0.2331543 0.4753418
vt 0.2331543 0.4753418
vt 0.2629395 0.4753418
vt 0.2629395 0.4753418
vt 0.2629395 0.4753418
vt 0.2629395 0.4753418
vt 0.2629395 0.4753418
vt 0.2629395 0.4753418
vt 0.1098633 0.4753418
vt 0.1098633 0.4753418
vt 0.1098633 0.4753418
vt 0.1098633 0.4753418
vt 0.2331543 0.4753418
vt 0.2331543 0.4753418
vt 0.2331543 0.4753418
vt 0.2331543 0.4753418
vt 0.3261719 0.4753418
vt 0.3261719 0.4753418
vt 0.3261719 0.4753418
vt 0.3261719 0.4753418
vt 0.2033691 0.4753418
vt 0.2033691 0.4753418
vt 0.2033691 0.4753418
vt 0.2033691 0.4753418
vt 0.2033691 0.4753418
vt 0.2033691 0.4753418
vt 0.2033691 0.4753418
vt 0.2033691 0.4753418
vt 0.2033691 0.4753418
vt 0.2033691 0.4753418
vt 0.2033691 0.4753418
vt 0.2033691 0.4753418
vt 0.2033691 0.4753418
vt 0.2033691 0.4753418
vt 0.2033691 0.4753418
vt 0.2033691 0.4753418
vt 0.2033691 0.4753418
vt 0.2033691 0.4753418
vt 0.2033691 0.4753418
vt 0.2033691 0.4753418
vt 0.2629395 0.4753418
vt 0.2629395 0.4753418
vt 0.2629395 0.4753418
vt 0.2629395 0.4753418
vt 0.2033691 0.4753418
vt 0.2033691 0.4753418
vt 0.2033691 0.4753418
vt 0.2033691 0.4753418
vt 0.2033691 0.4753418
vt 0.2033691 0.4753418
vt 0.2033691 0.4753418
vt 0.2033691 0.4753418
vt 0.2629395 0.4753418
vt 0.2629395 0.4753418
vt 0.2629395 0.4753418
vt 0.2629395 0.4753418
vt 0.2629395 0.4753418
vt 0.2629395 0.4753418
vt 0.2629395 0.4753418
vt 0.2629395 0.4753418
vt 0.2629395 0.4753418
vt 0.2629395 0.4753418
vt 0.2629395 0.4753418
vt 0.2629395 0.4753418
vt 0.2629395 0.4753418
vt 0.2629395 0.4753418
vt 0.2629395 0.4753418
vt 0.2629395 0.4753418
vn -0.9824219 0 -0.1870117
vn -0.9824219 0 -0.1870117
vn -1 0 0
vn -1 0 0
vn 0 0.9599609 -0.2800293
vn 0 0.9599609 -0.2800293
vn 0 1 0
vn 0 1 0
vn 0.9824219 0 -0.1870117
vn 0.9824219 0 -0.1870117
vn 1 0 0
vn 1 0 0
vn 0 -1 0
vn 0 -1 0
vn 0 -1 0
vn 0 -1 0
vn 0 -1 0
vn 0 -1 0
vn 0 0 1
vn 0 0 1
vn 0 0 1
vn 0 0 1
vn 0 0 -1
vn 0 0.4807129 -0.8769531
vn 0 0.4807129 -0.8769531
vn 0 0 -1
vn 0 0 1
vn 0 0 1
vn 0 0 1
vn 0 0 1
vn 0 1 0
vn 0 1 0
vn 0 1 0
vn 0 1 0
vn -1 0 0
vn -1 0 0
vn -1 0 0
vn -1 0 0
vn 0 -1 0
vn 0 -1 0
vn 0 -1 0
vn 0 -1 0
vn 1 0 0
vn 1 0 0
vn 1 0 0
vn 1 0 0
vn -0.9824219 0 -0.1870117
vn -0.9301758 0 -0.3674316
vn -0.9301758 0 -0.3674316
vn -0.9824219 0 -0.1870117
vn 0 0.9599609 -0.2800293
vn 0 0.4807129 -0.8769531
vn 0 0.4807129 -0.8769531
vn 0 0.9599609 -0.2800293
vn 0.9824219 0 -0.1870117
vn 0.9301758 0 -0.3674316
vn 0.9301758 0 -0.3674316
vn 0.9824219 0 -0.1870117
vn 0 0 1
vn 0 0 1
vn 0 0 1
vn 0 0 1
vn 0 0 1
vn 0 0 1
vn 0 0 1
vn 0 0 1
vn 0 0 1
vn 0 0 1
vn 0 0 1
vn 0 0 1
vn 0 0 1
vn 0 0 1
vn 0 0 1
vn 0 0 1
vn 0 0 1
vn 0 0 1
vn 0 0 1
vn 0 0 1
g Prop_Tv_02_0
f 3/3/3 2/2/2 1/1/1
f 4/4/4 3/3/3 1/1/1
f 7/7/7 6/6/6 5/5/5
f 8/8/8 7/7/7 5/5/5
f 11/11/11 10/10/10 9/9/9
f 12/12/12 11/11/11 9/9/9
f 15/15/15 14/14/14 13/13/13
f 14/14/14 16/16/16 13/13/13
f 16/16/16 17/17/17 13/13/13
f 17/17/17 18/18/18 13/13/13
f 21/21/21 20/20/20 19/19/19
f 22/22/22 21/21/21 19/19/19
f 25/25/25 24/24/24 23/23/23
f 26/26/26 25/25/25 23/23/23
f 29/29/29 28/28/28 27/27/27
f 30/30/30 29/29/29 27/27/27
f 33/33/33 32/32/32 31/31/31
f 34/34/34 33/33/33 31/31/31
f 37/37/37 36/36/36 35/35/35
f 38/38/38 37/37/37 35/35/35
f 41/41/41 40/40/40 39/39/39
f 42/42/42 41/41/41 39/39/39
f 45/45/45 44/44/44 43/43/43
f 46/46/46 45/45/45 43/43/43
f 49/49/49 48/48/48 47/47/47
f 50/50/50 49/49/49 47/47/47
f 53/53/53 52/52/52 51/51/51
f 54/54/54 53/53/53 51/51/51
f 57/57/57 56/56/56 55/55/55
f 58/58/58 57/57/57 55/55/55
f 61/61/61 60/60/60 59/59/59
f 62/62/62 61/61/61 59/59/59
f 65/65/65 64/64/64 63/63/63
f 66/66/66 65/65/65 63/63/63
f 67/67/67 65/65/65 66/66/66
f 68/68/68 67/67/67 66/66/66
f 69/69/69 67/67/67 68/68/68
f 70/70/70 69/69/69 68/68/68
f 64/64/64 71/71/71 63/63/63
f 71/71/71 72/72/72 63/63/63
f 63/63/63 72/72/72 70/70/70
f 73/73/73 71/71/71 64/64/64
f 69/69/69 73/73/73 64/64/64
f 72/72/72 74/74/74 70/70/70
f 73/73/73 75/75/75 74/74/74
f 75/75/75 76/76/76 74/74/74
f 74/74/74 76/76/76 70/70/70
f 77/77/77 75/75/75 73/73/73
f 69/69/69 77/77/77 73/73/73
f 76/76/76 78/78/78 70/70/70
f 78/78/78 77/77/77 69/69/69
f 70/70/70 78/78/78 69/69/69
