g Prop_WallArt_02
v 0.2489858 -0.3367085 0.02024555
v -0.2489848 -0.3367085 0.02024555
v -0.2489848 0.336709 0.02024555
v 0.2489858 0.336709 0.02024555
v 0.4702053 0.5934548 0.06276035
v 0.4702053 0.5934548 0
v 0.4702053 -0.5934547 0
v 0.4702053 -0.5934547 0.06276035
v 0.4702053 -0.5934547 0.06276035
v 0.4702053 -0.5934547 0
v -0.4702053 -0.5934547 0
v -0.4702053 -0.5934547 0.06276035
v -0.4702053 0.5934548 0.06276035
v -0.4702053 0.5934548 0
v 0.4702053 0.5934548 0
v 0.4702053 0.5934548 0.06276035
v -0.4702053 -0.5934547 0.06276035
v -0.4702053 -0.5934547 0
v -0.4702053 0.5934548 0
v -0.4702053 0.5934548 0.06276035
v 0.3286629 -0.4444585 0.06276035
v 0.3286629 -0.4444585 0.02024555
v 0.3286629 0.444459 0.02024555
v 0.3286629 0.444459 0.06276035
v 0.3286629 0.444459 0.06276035
v 0.3286629 0.444459 0.02024555
v -0.3286629 0.444459 0.02024555
v -0.3286629 0.444459 0.06276035
v -0.3286629 0.444459 0.06276035
v -0.3286629 0.444459 0.02024555
v -0.3286629 -0.4444585 0.02024555
v -0.3286629 -0.4444585 0.06276035
v -0.3286629 -0.4444585 0.06276035
v -0.3286629 -0.4444585 0.02024555
v 0.3286629 -0.4444585 0.02024555
v 0.3286629 -0.4444585 0.06276035
v 0.4702053 -0.5934547 0.06276035
v 0.3286629 -0.4444585 0.06276035
v 0.3286629 0.444459 0.06276035
v 0.4702053 0.5934548 0.06276035
v -0.4702053 -0.5934547 0.06276035
v -0.3286629 0.444459 0.06276035
v -0.3286629 -0.4444585 0.06276035
v -0.4702053 0.5934548 0.06276035
v 0.3286629 -0.4444585 0.02024555
v 0.2489858 -0.3367085 0.02024555
v 0.2489858 0.336709 0.02024555
v 0.3286629 0.444459 0.02024555
v -0.3286629 -0.4444585 0.02024555
v -0.2489848 0.336709 0.02024555
v -0.2489848 -0.3367085 0.02024555
v -0.3286629 0.444459 0.02024555
vt 0.3967285 0.1951904
vt 0.3837891 0.1951904
vt 0.3837891 0.2509766
vt 0.3967285 0.2509766
vt 0.04394531 0.4750977
vt 0.04394531 0.4750977
vt 0.04394531 0.4750977
vt 0.04394531 0.4750977
vt 0.1108398 0.4758301
vt 0.1108398 0.4758301
vt 0.1108398 0.4758301
vt 0.1108398 0.4758301
vt 0.1108398 0.4758301
vt 0.1108398 0.4758301
vt 0.1108398 0.4758301
vt 0.1108398 0.4758301
vt 0.04394531 0.4750977
vt 0.04394531 0.4750977
vt 0.04394531 0.4750977
vt 0.04394531 0.4750977
vt 0.07592773 0.4758301
vt 0.07592773 0.4758301
vt 0.07592773 0.4758301
vt 0.07592773 0.4758301
vt 0.01410675 0.4765625
vt 0.01410675 0.4765625
vt 0.01410675 0.4765625
vt 0.01410675 0.4765625
vt 0.07592773 0.4758301
vt 0.07592773 0.4758301
vt 0.07592773 0.4758301
vt 0.07592773 0.4758301
vt 0.01410675 0.4765625
vt 0.01410675 0.4765625
vt 0.01410675 0.4765625
vt 0.01410675 0.4765625
vt 0.1751709 0.4743652
vt 0.1751709 0.4743652
vt 0.1751709 0.4743652
vt 0.1751709 0.4743652
vt 0.1751709 0.4743652
vt 0.1751709 0.4743652
vt 0.1751709 0.4743652
vt 0.1751709 0.4743652
vt 0.4519043 0.4753418
vt 0.4519043 0.4753418
vt 0.4519043 0.4753418
vt 0.4519043 0.4753418
vt 0.4519043 0.4753418
vt 0.4519043 0.4753418
vt 0.4519043 0.4753418
vt 0.4519043 0.4753418
vn 0 0 1
vn 0 0 1
vn 0 0 1
vn 0 0 1
vn 1 0 0
vn 1 0 0
vn 1 0 0
vn 1 0 0
vn 0 -1 0
vn 0 -1 0
vn 0 -1 0
vn 0 -1 0
vn 0 1 0
vn 0 1 0
vn 0 1 0
vn 0 1 0
vn -1 0 0
vn -1 0 0
vn -1 0 0
vn -1 0 0
vn -1 0 0
vn -1 0 0
vn -1 0 0
vn -1 0 0
vn 0 -1 0
vn 0 -1 0
vn 0 -1 0
vn 0 -1 0
vn 1 0 0
vn 1 0 0
vn 1 0 0
vn 1 0 0
vn 0 1 0
vn 0 1 0
vn 0 1 0
vn 0 1 0
vn 0 0 1
vn 0 0 1
vn 0 0 1
vn 0 0 1
vn 0 0 1
vn 0 0 1
vn 0 0 1
vn 0 0 1
vn 0 0 1
vn 0 0 1
vn 0 0 1
vn 0 0 1
vn 0 0 1
vn 0 0 1
vn 0 0 1
vn 0 0 1
g Prop_WallArt_02_0
f 3/3/3 2/2/2 1/1/1
f 4/4/4 3/3/3 1/1/1
f 7/7/7 6/6/6 5/5/5
f 8/8/8 7/7/7 5/5/5
f 11/11/11 10/10/10 9/9/9
f 12/12/12 11/11/11 9/9/9
f 15/15/15 14/14/14 13/13/13
f 16/16/16 15/15/15 13/13/13
f 19/19/19 18/18/18 17/17/17
f 20/20/20 19/19/19 17/17/17
f 23/23/23 22/22/22 21/21/21
f 24/24/24 23/23/23 21/21/21
f 27/27/27 26/26/26 25/25/25
f 28/28/28 27/27/27 25/25/25
f 31/31/31 30/30/30 29/29/29
f 32/32/32 31/31/31 29/29/29
f 35/35/35 34/34/34 33/33/33
f 36/36/36 35/35/35 33/33/33
f 39/39/39 38/38/38 37/37/37
f 40/40/40 39/39/39 37/37/37
f 37/37/37 38/38/38 41/41/41
f 42/42/42 39/39/39 40/40/40
f 38/38/38 43/43/43 41/41/41
f 44/44/44 42/42/42 40/40/40
f 41/41/41 43/43/43 44/44/44
f 43/43/43 42/42/42 44/44/44
f 47/47/47 46/46/46 45/45/45
f 48/48/48 47/47/47 45/45/45
f 45/45/45 46/46/46 49/49/49
f 50/50/50 47/47/47 48/48/48
f 46/46/46 51/51/51 49/49/49
f 52/52/52 50/50/50 48/48/48
f 49/49/49 51/51/51 52/52/52
f 51/51/51 50/50/50 52/52/52
