g Prop_Cupboard_Blue
v 1.613428 1.151078 0
v 1.613428 0 0.8986924
v 1.613428 1.151078 0.8986924
v 1.613428 1.151078 0
v 1.613428 0 0
v 1.613428 0 0.8986924
v 0.6303158 0.450911 0.9318504
v 0.6303158 0.710243 0.9318504
v 0.6995001 0.710243 0.9318504
v 0.6995001 0.450911 0.9318504
v 0.913928 0.710243 0.9318504
v 0.9831123 0.710243 0.9318507
v 0.9831123 0.450911 0.9318507
v 0.913928 0.450911 0.9318504
v 0.6303158 0.450911 0.8986926
v 0.6303158 0.450911 0.9318504
v 0.6995001 0.450911 0.9318504
v 0.6995001 0.450911 0.8986926
v 0.6995001 0.450911 0.8986926
v 0.6995001 0.450911 0.9318504
v 0.6995001 0.710243 0.9318504
v 0.6995001 0.710243 0.8986926
v 0.6995001 0.710243 0.8986926
v 0.6995001 0.710243 0.9318504
v 0.6303158 0.710243 0.9318504
v 0.6303158 0.710243 0.8986926
v 0.6303158 0.710243 0.8986926
v 0.6303158 0.710243 0.9318504
v 0.6303158 0.450911 0.9318504
v 0.6303158 0.450911 0.8986926
v 0.913928 0.710243 0.8986926
v 0.913928 0.710243 0.9318504
v 0.913928 0.450911 0.9318504
v 0.913928 0.450911 0.8986926
v 0.913928 0.450911 0.8986926
v 0.913928 0.450911 0.9318504
v 0.9831123 0.450911 0.9318507
v 0.9831119 0.450911 0.8986924
v 0.9831119 0.450911 0.8986924
v 0.9831123 0.450911 0.9318507
v 0.9831123 0.710243 0.9318507
v 0.9831119 0.710243 0.8986924
v 0.9831119 0.710243 0.8986924
v 0.9831123 0.710243 0.9318507
v 0.913928 0.710243 0.9318504
v 0.913928 0.710243 0.8986926
v 1.613428 0 0.8986924
v 1.613428 0 0
v 0.8067136 0 0.8986924
v 0 0 0.8986926
v -1.613428 0 5.960464E-08
v -0.8067141 0 0.8986926
v -1.613428 0 0.8986927
v -1.613428 1.151078 5.960464E-08
v -1.613428 1.151078 0.8986927
v -1.613428 0 0.8986927
v -1.613428 0 5.960464E-08
v -0.9831123 0.450911 0.9318504
v -0.9831123 0.710243 0.9318504
v -0.913928 0.710243 0.9318504
v -0.913928 0.450911 0.9318504
v -0.9831119 0.450911 0.8986926
v -0.9831123 0.450911 0.9318504
v -0.913928 0.450911 0.9318504
v -0.9139276 0.450911 0.8986926
v -0.9139276 0.450911 0.8986926
v -0.913928 0.450911 0.9318504
v -0.913928 0.710243 0.9318504
v -0.9139276 0.710243 0.8986926
v -0.9139276 0.710243 0.8986926
v -0.913928 0.710243 0.9318504
v -0.9831123 0.710243 0.9318504
v -0.9831119 0.710243 0.8986926
v -0.9831119 0.710243 0.8986926
v -0.9831123 0.710243 0.9318504
v -0.9831123 0.450911 0.9318504
v -0.9831119 0.450911 0.8986926
v -0.7035508 0.450911 0.9318504
v -0.7035508 0.710243 0.9318504
v -0.6343665 0.710243 0.9318504
v -0.6343665 0.450911 0.9318504
v -0.7035508 0.450911 0.8986926
v -0.7035508 0.450911 0.9318504
v -0.6343665 0.450911 0.9318504
v -0.6343665 0.450911 0.8986926
v -0.6343665 0.450911 0.8986926
v -0.6343665 0.450911 0.9318504
v -0.6343665 0.710243 0.9318504
v -0.6343665 0.710243 0.8986926
v -0.6343665 0.710243 0.8986926
v -0.6343665 0.710243 0.9318504
v -0.7035508 0.710243 0.9318504
v -0.7035508 0.710243 0.8986926
v -0.7035508 0.710243 0.8986926
v -0.7035508 0.710243 0.9318504
v -0.7035508 0.450911 0.9318504
v -0.7035508 0.450911 0.8986926
v 0 1.151078 0.8986926
v 1.613428 1.151078 0
v 1.613428 1.151078 0.8986924
v -1.613428 1.151078 5.960464E-08
v -1.613428 1.151078 0.8986927
v 0 1.151078 0.8986926
v 0.04033566 1.109173 0.8986926
v 0.04033566 0.05306673 0.8986926
v 0.7663779 1.109173 0.8986926
v 0 0 0.8986926
v 0.7663779 0.05306673 0.8986926
v 0.8067136 0 0.8986924
v -0.04033566 1.109173 0.8986926
v -0.04033566 0.05306673 0.8986926
v -0.8067141 0 0.8986926
v -0.7663784 1.109173 0.8986926
v -0.7663784 0.05306673 0.8986926
v -0.8470497 1.109173 0.8986926
v -0.8470497 0.05306673 0.8986926
v -1.613428 0 0.8986927
v -1.573092 0.05306673 0.8986927
v -1.613428 1.151078 0.8986927
v -1.573092 1.109173 0.8986927
v 1.613428 1.151078 0.8986924
v 0.8470492 0.05306673 0.8986924
v 1.573092 0.05306673 0.8986924
v 0.8470492 1.109173 0.8986924
v 1.613428 0 0.8986924
v 1.573092 1.109173 0.8986924
v 0.8470492 1.109173 0.8986924
v 0.913928 0.710243 0.8986926
v 0.913928 0.450911 0.8986926
v 0.8470492 0.05306673 0.8986924
v 1.573092 1.109173 0.8986924
v 0.9831119 0.450911 0.8986924
v 0.9831119 0.710243 0.8986924
v 1.573092 0.05306673 0.8986924
v 0.04033566 0.05306673 0.8986926
v 0.6303158 0.450911 0.8986926
v 0.6995001 0.450911 0.8986926
v 0.7663779 0.05306673 0.8986926
v 0.04033566 1.109173 0.8986926
v 0.6995001 0.710243 0.8986926
v 0.6303158 0.710243 0.8986926
v 0.7663779 1.109173 0.8986926
v -1.573092 0.05306673 0.8986927
v -0.9831119 0.450911 0.8986926
v -0.9139276 0.450911 0.8986926
v -0.8470497 0.05306673 0.8986926
v -1.573092 1.109173 0.8986927
v -0.9139276 0.710243 0.8986926
v -0.9831119 0.710243 0.8986926
v -0.8470497 1.109173 0.8986926
v -0.7663784 0.05306673 0.8986926
v -0.7035508 0.450911 0.8986926
v -0.6343665 0.450911 0.8986926
v -0.04033566 0.05306673 0.8986926
v -0.7663784 1.109173 0.8986926
v -0.6343665 0.710243 0.8986926
v -0.7035508 0.710243 0.8986926
v -0.04033566 1.109173 0.8986926
vt 0.3012695 0.05886841
vt 0.3012695 0.05886841
vt 0.3012695 0.05886841
vt 0.2365723 0.4731445
vt 0.2365723 0.4731445
vt 0.2365723 0.4731445
vt 0.2059326 0.4785156
vt 0.2059326 0.4785156
vt 0.2059326 0.4785156
vt 0.2059326 0.4785156
vt 0.2059326 0.4785156
vt 0.2059326 0.4785156
vt 0.2059326 0.4785156
vt 0.2059326 0.4785156
vt 0.1680908 0.3288574
vt 0.1680908 0.3288574
vt 0.1680908 0.3288574
vt 0.1680908 0.3288574
vt 0.1394043 0.3288574
vt 0.1394043 0.3288574
vt 0.1394043 0.3288574
vt 0.1394043 0.3288574
vt 0.2663574 0.3295898
vt 0.2663574 0.3295898
vt 0.2663574 0.3295898
vt 0.2663574 0.3295898
vt 0.1394043 0.3288574
vt 0.1394043 0.3288574
vt 0.1394043 0.3288574
vt 0.1394043 0.3288574
vt 0.1394043 0.3288574
vt 0.1394043 0.3288574
vt 0.1394043 0.3288574
vt 0.1394043 0.3288574
vt 0.1680908 0.3288574
vt 0.1680908 0.3288574
vt 0.1680908 0.3288574
vt 0.1680908 0.3288574
vt 0.1394043 0.3288574
vt 0.1394043 0.3288574
vt 0.1394043 0.3288574
vt 0.1394043 0.3288574
vt 0.2663574 0.3295898
vt 0.2663574 0.3295898
vt 0.2663574 0.3295898
vt 0.2663574 0.3295898
vt 0.2365723 0.4731445
vt 0.2365723 0.4731445
vt 0.2365723 0.4731445
vt 0.2365723 0.4731445
vt 0.2365723 0.4731445
vt 0.2365723 0.4731445
vt 0.2365723 0.4731445
vt 0.3012695 0.05886841
vt 0.3012695 0.05886841
vt 0.3012695 0.05886841
vt 0.3012695 0.05886841
vt 0.2059326 0.4785156
vt 0.2059326 0.4785156
vt 0.2059326 0.4785156
vt 0.2059326 0.4785156
vt 0.1680908 0.3288574
vt 0.1680908 0.3288574
vt 0.1680908 0.3288574
vt 0.1680908 0.3288574
vt 0.1394043 0.3288574
vt 0.1394043 0.3288574
vt 0.1394043 0.3288574
vt 0.1394043 0.3288574
vt 0.2663574 0.3295898
vt 0.2663574 0.3295898
vt 0.2663574 0.3295898
vt 0.2663574 0.3295898
vt 0.1394043 0.3288574
vt 0.1394043 0.3288574
vt 0.1394043 0.3288574
vt 0.1394043 0.3288574
vt 0.2059326 0.4785156
vt 0.2059326 0.4785156
vt 0.2059326 0.4785156
vt 0.2059326 0.4785156
vt 0.1680908 0.3288574
vt 0.1680908 0.3288574
vt 0.1680908 0.3288574
vt 0.1680908 0.3288574
vt 0.1394043 0.3288574
vt 0.1394043 0.3288574
vt 0.1394043 0.3288574
vt 0.1394043 0.3288574
vt 0.2663574 0.3295898
vt 0.2663574 0.3295898
vt 0.2663574 0.3295898
vt 0.2663574 0.3295898
vt 0.1394043 0.3288574
vt 0.1394043 0.3288574
vt 0.1394043 0.3288574
vt 0.1394043 0.3288574
vt 0.3867188 0.4748535
vt 0.3867188 0.4748535
vt 0.3867188 0.4748535
vt 0.3867188 0.4748535
vt 0.3867188 0.4748535
vt 0.3591309 0.05883789
vt 0.3591309 0.05883789
vt 0.3591309 0.05883789
vt 0.3591309 0.05883789
vt 0.3591309 0.05883789
vt 0.3591309 0.05883789
vt 0.3591309 0.05883789
vt 0.3591309 0.05883789
vt 0.3591309 0.05883789
vt 0.3591309 0.05883789
vt 0.3591309 0.05883789
vt 0.3591309 0.05883789
vt 0.3591309 0.05883789
vt 0.3591309 0.05883789
vt 0.3591309 0.05883789
vt 0.3591309 0.05883789
vt 0.3591309 0.05883789
vt 0.3591309 0.05883789
vt 0.3591309 0.05883789
vt 0.3591309 0.05883789
vt 0.3591309 0.05883789
vt 0.3591309 0.05883789
vt 0.3591309 0.05883789
vt 0.3591309 0.05883789
vt 0.3840332 0.3288574
vt 0.3840332 0.3288574
vt 0.3840332 0.3288574
vt 0.3840332 0.3288574
vt 0.3840332 0.3288574
vt 0.3840332 0.3288574
vt 0.3840332 0.3288574
vt 0.3840332 0.3288574
vt 0.3840332 0.3288574
vt 0.3840332 0.3288574
vt 0.3840332 0.3288574
vt 0.3840332 0.3288574
vt 0.3840332 0.3288574
vt 0.3840332 0.3288574
vt 0.3840332 0.3288574
vt 0.3840332 0.3288574
vt 0.3840332 0.3288574
vt 0.3840332 0.3288574
vt 0.3840332 0.3288574
vt 0.3840332 0.3288574
vt 0.3840332 0.3288574
vt 0.3840332 0.3288574
vt 0.3840332 0.3288574
vt 0.3840332 0.3288574
vt 0.3840332 0.3288574
vt 0.3840332 0.3288574
vt 0.3840332 0.3288574
vt 0.3840332 0.3288574
vt 0.3840332 0.3288574
vt 0.3840332 0.3288574
vt 0.3840332 0.3288574
vt 0.3840332 0.3288574
vn 1 0 0
vn 1 0 0
vn 1 0 0
vn 1 0 0
vn 1 0 0
vn 1 0 0
vn 0 0 1
vn 0 0 1
vn 0 0 1
vn 0 0 1
vn 0 0 1
vn 0 0 1
vn 0 0 1
vn 0 0 1
vn 0 -1 0
vn 0 -1 0
vn 0 -1 0
vn 0 -1 0
vn 1 0 0
vn 1 0 0
vn 1 0 0
vn 1 0 0
vn 0 1 0
vn 0 1 0
vn 0 1 0
vn 0 1 0
vn -1 0 0
vn -1 0 0
vn -1 0 0
vn -1 0 0
vn -1 0 0
vn -1 0 0
vn -1 0 0
vn -1 0 0
vn 0 -1 0
vn 0 -1 0
vn 0 -1 0
vn 0 -1 0
vn 1 0 0
vn 1 0 0
vn 1 0 0
vn 1 0 0
vn 0 1 0
vn 0 1 0
vn 0 1 0
vn 0 1 0
vn 0 -1 0
vn 0 -1 0
vn 0 -1 0
vn 0 -1 0
vn 0 -1 0
vn 0 -1 0
vn 0 -1 0
vn -1 0 0
vn -1 0 0
vn -1 0 0
vn -1 0 0
vn 0 0 1
vn 0 0 1
vn 0 0 1
vn 0 0 1
vn 0 -1 0
vn 0 -1 0
vn 0 -1 0
vn 0 -1 0
vn 1 0 0
vn 1 0 0
vn 1 0 0
vn 1 0 0
vn 0 1 0
vn 0 1 0
vn 0 1 0
vn 0 1 0
vn -1 0 0
vn -1 0 0
vn -1 0 0
vn -1 0 0
vn 0 0 1
vn 0 0 1
vn 0 0 1
vn 0 0 1
vn 0 -1 0
vn 0 -1 0
vn 0 -1 0
vn 0 -1 0
vn 1 0 0
vn 1 0 0
vn 1 0 0
vn 1 0 0
vn 0 1 0
vn 0 1 0
vn 0 1 0
vn 0 1 0
vn -1 0 0
vn -1 0 0
vn -1 0 0
vn -1 0 0
vn 0 1 0
vn 0 1 0
vn 0 1 0
vn 0 1 0
vn 0 1 0
vn 0 0 1
vn 0 0 1
vn 0 0 1
vn 0 0 1
vn 0 0 1
vn 0 0 1
vn 0 0 1
vn 0 0 1
vn 0 0 1
vn 0 0 1
vn 0 0 1
vn 0 0 1
vn 0 0 1
vn 0 0 1
vn 0 0 1
vn 0 0 1
vn 0 0 1
vn 0 0 1
vn 0 0 1
vn 0 0 1
vn 0 0 1
vn 0 0 1
vn 0 0 1
vn 0 0 1
vn 0 0 1
vn 0 0 1
vn 0 0 1
vn 0 0 1
vn 0 0 1
vn 0 0 1
vn 0 0 1
vn 0 0 1
vn 0 0 1
vn 0 0 1
vn 0 0 1
vn 0 0 1
vn 0 0 1
vn 0 0 1
vn 0 0 1
vn 0 0 1
vn 0 0 1
vn 0 0 1
vn 0 0 1
vn 0 0 1
vn 0 0 1
vn 0 0 1
vn 0 0 1
vn 0 0 1
vn 0 0 1
vn 0 0 1
vn 0 0 1
vn 0 0 1
vn 0 0 1
vn 0 0 1
vn 0 0 1
vn 0 0 1
g Prop_Cupboard_Blue_0
f 3/3/3 2/2/2 1/1/1
f 6/6/6 5/5/5 4/4/4
f 9/9/9 8/8/8 7/7/7
f 10/10/10 9/9/9 7/7/7
f 13/13/13 12/12/12 11/11/11
f 14/14/14 13/13/13 11/11/11
f 17/17/17 16/16/16 15/15/15
f 18/18/18 17/17/17 15/15/15
f 21/21/21 20/20/20 19/19/19
f 22/22/22 21/21/21 19/19/19
f 25/25/25 24/24/24 23/23/23
f 26/26/26 25/25/25 23/23/23
f 29/29/29 28/28/28 27/27/27
f 30/30/30 29/29/29 27/27/27
f 33/33/33 32/32/32 31/31/31
f 34/34/34 33/33/33 31/31/31
f 37/37/37 36/36/36 35/35/35
f 38/38/38 37/37/37 35/35/35
f 41/41/41 40/40/40 39/39/39
f 42/42/42 41/41/41 39/39/39
f 45/45/45 44/44/44 43/43/43
f 46/46/46 45/45/45 43/43/43
f 49/49/49 48/48/48 47/47/47
f 50/50/50 48/48/48 49/49/49
f 51/51/51 48/48/48 50/50/50
f 52/52/52 51/51/51 50/50/50
f 53/53/53 51/51/51 52/52/52
f 56/56/56 55/55/55 54/54/54
f 54/54/54 57/57/57 56/56/56
f 60/60/60 59/59/59 58/58/58
f 61/61/61 60/60/60 58/58/58
f 64/64/64 63/63/63 62/62/62
f 65/65/65 64/64/64 62/62/62
f 68/68/68 67/67/67 66/66/66
f 69/69/69 68/68/68 66/66/66
f 72/72/72 71/71/71 70/70/70
f 73/73/73 72/72/72 70/70/70
f 76/76/76 75/75/75 74/74/74
f 77/77/77 76/76/76 74/74/74
f 80/80/80 79/79/79 78/78/78
f 81/81/81 80/80/80 78/78/78
f 84/84/84 83/83/83 82/82/82
f 85/85/85 84/84/84 82/82/82
f 88/88/88 87/87/87 86/86/86
f 89/89/89 88/88/88 86/86/86
f 92/92/92 91/91/91 90/90/90
f 93/93/93 92/92/92 90/90/90
f 96/96/96 95/95/95 94/94/94
f 97/97/97 96/96/96 94/94/94
f 100/100/100 99/99/99 98/98/98
f 98/98/98 99/99/99 101/101/101
f 98/98/98 101/101/101 102/102/102
f 105/105/105 104/104/104 103/103/103
f 103/103/103 104/104/104 106/106/106
f 107/107/107 105/105/105 103/103/103
f 108/108/108 105/105/105 107/107/107
f 106/106/106 108/108/108 109/109/109
f 109/109/109 108/108/108 107/107/107
f 103/103/103 110/110/110 107/107/107
f 110/110/110 111/111/111 107/107/107
f 107/107/107 111/111/111 112/112/112
f 113/113/113 110/110/110 103/103/103
f 111/111/111 114/114/114 112/112/112
f 114/114/114 113/113/113 115/115/115
f 115/115/115 113/113/113 103/103/103
f 115/115/115 112/112/112 114/114/114
f 115/115/115 116/116/116 112/112/112
f 112/112/112 116/116/116 117/117/117
f 116/116/116 118/118/118 117/117/117
f 117/117/117 118/118/118 119/119/119
f 119/119/119 115/115/115 103/103/103
f 118/118/118 120/120/120 119/119/119
f 119/119/119 120/120/120 115/115/115
f 103/103/103 106/106/106 121/121/121
f 106/106/106 109/109/109 122/122/122
f 123/123/123 122/122/122 109/109/109
f 122/122/122 124/124/124 106/106/106
f 106/106/106 124/124/124 121/121/121
f 125/125/125 123/123/123 109/109/109
f 126/126/126 121/121/121 124/124/124
f 126/126/126 123/123/123 125/125/125
f 121/121/121 126/126/126 125/125/125
f 129/129/129 128/128/128 127/127/127
f 130/130/130 129/129/129 127/127/127
f 127/127/127 128/128/128 131/131/131
f 132/132/132 129/129/129 130/130/130
f 128/128/128 133/133/133 131/131/131
f 134/134/134 132/132/132 130/130/130
f 131/131/131 133/133/133 134/134/134
f 133/133/133 132/132/132 134/134/134
f 137/137/137 136/136/136 135/135/135
f 138/138/138 137/137/137 135/135/135
f 135/135/135 136/136/136 139/139/139
f 140/140/140 137/137/137 138/138/138
f 136/136/136 141/141/141 139/139/139
f 142/142/142 140/140/140 138/138/138
f 139/139/139 141/141/141 142/142/142
f 141/141/141 140/140/140 142/142/142
f 145/145/145 144/144/144 143/143/143
f 146/146/146 145/145/145 143/143/143
f 143/143/143 144/144/144 147/147/147
f 148/148/148 145/145/145 146/146/146
f 144/144/144 149/149/149 147/147/147
f 150/150/150 148/148/148 146/146/146
f 147/147/147 149/149/149 150/150/150
f 149/149/149 148/148/148 150/150/150
f 153/153/153 152/152/152 151/151/151
f 154/154/154 153/153/153 151/151/151
f 151/151/151 152/152/152 155/155/155
f 156/156/156 153/153/153 154/154/154
f 152/152/152 157/157/157 155/155/155
f 158/158/158 156/156/156 154/154/154
f 155/155/155 157/157/157 158/158/158
f 157/157/157 156/156/156 158/158/158
