g Wall A-2
v -2.7 1 0
v -2.7 1 -0.7
v -2.7 2.5 -0.7
v -2.7 2.5 0
v -1 1 -0.7
v 0 2.5 -0.7
v -1 2.5 -0.7
v 0 1 -0.7
v -1 0 -0.7
v 0 0 -0.7
v -2 0 -0.7
v -2.3 1 -0.7
v -3 0 -0.7
v -2.7 1 -0.7
v -2.3 2.5 -0.7
v -2.7 2.5 -0.7
v -4 0 -0.7
v -4 1 -0.7
v -5 0 -0.7
v -5 1 -0.7
v -5 2.5 -0.7
v -4 2.5 -0.7
v 0 1 -0.7
v 0 2.5 0
v 0 2.5 -0.7
v 0 1 0
v 0 0 -0.7
v 0 0 0
v -2.3 1 0
v -2.7 2.5 0
v -2.3 2.5 0
v -2.7 1 0
v -2 0 0
v -1 0 0
v -3 0 0
v -1 1 0
v 0 0 0
v 0 1 0
v -1 2.5 0
v 0 2.5 0
v -4 1 0
v -4 0 0
v -5 1 0
v -5 0 0
v -4 2.5 0
v -5 2.5 0
v -2.3 2.5 -0.7
v -2.3 2.5 0
v -2.7 2.5 0
v -2.7 2.5 -0.7
v 0 2.5 -0.7
v 0 2.5 0
v -1 2.5 0
v -1 2.5 -0.7
v -2.3 1 0
v -2.3 2.5 0
v -2.3 2.5 -0.7
v -2.3 1 -0.7
v -2.3 1 -0.7
v -1 1 -0.7
v -1 1 0
v -2.3 1 0
v -1 1 0
v -1 1 -0.7
v -1 2.5 -0.7
v -1 2.5 0
v -5 0 0
v -5 0 -0.7
v -5 1 -0.7
v -5 1 0
v -5 2.5 0
v -5 2.5 -0.7
v -2.7 1 0
v -4 1 0
v -4 1 -0.7
v -2.7 1 -0.7
v -4 2.5 0
v -5 2.5 0
v -5 2.5 -0.7
v -4 2.5 -0.7
v -4 1 0
v -4 2.5 0
v -4 2.5 -0.7
v -4 1 -0.7
vt 0.04296875 0.6660156
vt 0.04296875 0.6660156
vt 0.04296875 0.6855469
vt 0.04296875 0.6855469
vt 0.0625 0.6660156
vt 0.07324219 0.6855469
vt 0.0625 0.6855469
vt 0.07324219 0.6660156
vt 0.0625 0.6572266
vt 0.07324219 0.6572266
vt 0.05371094 0.6572266
vt 0.05371094 0.6660156
vt 0.04296875 0.6572266
vt 0.04296875 0.6660156
vt 0.05371094 0.6855469
vt 0.04296875 0.6855469
vt 0.03417969 0.6572266
vt 0.03417969 0.6660156
vt 0.0234375 0.6572266
vt 0.0234375 0.6660156
vt 0.0234375 0.6855469
vt 0.03417969 0.6855469
vt 0.07324219 0.6660156
vt 0.07324219 0.6855469
vt 0.07324219 0.6855469
vt 0.07324219 0.6660156
vt 0.07324219 0.6572266
vt 0.07324219 0.6572266
vt 0.05371094 0.6660156
vt 0.04296875 0.6855469
vt 0.05371094 0.6855469
vt 0.04296875 0.6660156
vt 0.05371094 0.6572266
vt 0.0625 0.6572266
vt 0.04296875 0.6572266
vt 0.0625 0.6660156
vt 0.07324219 0.6572266
vt 0.07324219 0.6660156
vt 0.0625 0.6855469
vt 0.07324219 0.6855469
vt 0.03417969 0.6660156
vt 0.03417969 0.6572266
vt 0.0234375 0.6660156
vt 0.0234375 0.6572266
vt 0.03417969 0.6855469
vt 0.0234375 0.6855469
vt 0.05371094 0.6855469
vt 0.05371094 0.6855469
vt 0.04296875 0.6855469
vt 0.04296875 0.6855469
vt 0.07324219 0.6855469
vt 0.07324219 0.6855469
vt 0.0625 0.6855469
vt 0.0625 0.6855469
vt 0.05371094 0.6660156
vt 0.05371094 0.6855469
vt 0.05371094 0.6855469
vt 0.05371094 0.6660156
vt 0.05371094 0.6660156
vt 0.0625 0.6660156
vt 0.0625 0.6660156
vt 0.05371094 0.6660156
vt 0.0625 0.6660156
vt 0.0625 0.6660156
vt 0.0625 0.6855469
vt 0.0625 0.6855469
vt 0.0234375 0.6572266
vt 0.0234375 0.6572266
vt 0.0234375 0.6660156
vt 0.0234375 0.6660156
vt 0.0234375 0.6855469
vt 0.0234375 0.6855469
vt 0.04296875 0.6660156
vt 0.03417969 0.6660156
vt 0.03417969 0.6660156
vt 0.04296875 0.6660156
vt 0.03417969 0.6855469
vt 0.0234375 0.6855469
vt 0.0234375 0.6855469
vt 0.03417969 0.6855469
vt 0.03417969 0.6660156
vt 0.03417969 0.6855469
vt 0.03417969 0.6855469
vt 0.03417969 0.6660156
vn -1 0 0
vn -1 0 0
vn -1 0 0
vn -1 0 0
vn 0 0 -1
vn 0 0 -1
vn 0 0 -1
vn 0 0 -1
vn 0 0 -1
vn 0 0 -1
vn 0 0 -1
vn 0 0 -1
vn 0 0 -1
vn 0 0 -1
vn 0 0 -1
vn 0 0 -1
vn 0 0 -1
vn 0 0 -1
vn 0 0 -1
vn 0 0 -1
vn 0 0 -1
vn 0 0 -1
vn 1 0 0
vn 1 0 0
vn 1 0 0
vn 1 0 0
vn 1 0 0
vn 1 0 0
vn 0 0 1
vn 0 0 1
vn 0 0 1
vn 0 0 1
vn 0 0 1
vn 0 0 1
vn 0 0 1
vn 0 0 1
vn 0 0 1
vn 0 0 1
vn 0 0 1
vn 0 0 1
vn 0 0 1
vn 0 0 1
vn 0 0 1
vn 0 0 1
vn 0 0 1
vn 0 0 1
vn 0 1 0
vn 0 1 0
vn 0 1 0
vn 0 1 0
vn 0 1 0
vn 0 1 0
vn 0 1 0
vn 0 1 0
vn 1 0 0
vn 1 0 0
vn 1 0 0
vn 1 0 0
vn 0 1 0
vn 0 1 0
vn 0 1 0
vn 0 1 0
vn -1 0 0
vn -1 0 0
vn -1 0 0
vn -1 0 0
vn -1 0 0
vn -1 0 0
vn -1 0 0
vn -1 0 0
vn -1 0 0
vn -1 0 0
vn 0 1 0
vn 0 1 0
vn 0 1 0
vn 0 1 0
vn 0 1 0
vn 0 1 0
vn 0 1 0
vn 0 1 0
vn 1 0 0
vn 1 0 0
vn 1 0 0
vn 1 0 0
g Wall A-2_0
f 3/3/3 2/2/2 1/1/1
f 4/4/4 3/3/3 1/1/1
f 7/7/7 6/6/6 5/5/5
f 6/6/6 8/8/8 5/5/5
f 5/5/5 8/8/8 9/9/9
f 8/8/8 10/10/10 9/9/9
f 5/5/5 9/9/9 11/11/11
f 12/12/12 5/5/5 11/11/11
f 12/12/12 11/11/11 13/13/13
f 14/14/14 12/12/12 13/13/13
f 15/15/15 12/12/12 14/14/14
f 16/16/16 15/15/15 14/14/14
f 13/13/13 17/17/17 14/14/14
f 17/17/17 18/18/18 14/14/14
f 17/17/17 19/19/19 18/18/18
f 19/19/19 20/20/20 18/18/18
f 20/20/20 21/21/21 18/18/18
f 21/21/21 22/22/22 18/18/18
f 25/25/25 24/24/24 23/23/23
f 24/24/24 26/26/26 23/23/23
f 23/23/23 26/26/26 27/27/27
f 26/26/26 28/28/28 27/27/27
f 31/31/31 30/30/30 29/29/29
f 30/30/30 32/32/32 29/29/29
f 29/29/29 32/32/32 33/33/33
f 29/29/29 33/33/33 34/34/34
f 32/32/32 35/35/35 33/33/33
f 36/36/36 29/29/29 34/34/34
f 36/36/36 34/34/34 37/37/37
f 38/38/38 36/36/36 37/37/37
f 39/39/39 36/36/36 38/38/38
f 40/40/40 39/39/39 38/38/38
f 32/32/32 41/41/41 35/35/35
f 41/41/41 42/42/42 35/35/35
f 41/41/41 43/43/43 42/42/42
f 43/43/43 44/44/44 42/42/42
f 41/41/41 45/45/45 43/43/43
f 45/45/45 46/46/46 43/43/43
f 49/49/49 48/48/48 47/47/47
f 50/50/50 49/49/49 47/47/47
f 53/53/53 52/52/52 51/51/51
f 54/54/54 53/53/53 51/51/51
f 57/57/57 56/56/56 55/55/55
f 58/58/58 57/57/57 55/55/55
f 61/61/61 60/60/60 59/59/59
f 62/62/62 61/61/61 59/59/59
f 65/65/65 64/64/64 63/63/63
f 66/66/66 65/65/65 63/63/63
f 69/69/69 68/68/68 67/67/67
f 70/70/70 69/69/69 67/67/67
f 70/70/70 71/71/71 69/69/69
f 71/71/71 72/72/72 69/69/69
f 75/75/75 74/74/74 73/73/73
f 76/76/76 75/75/75 73/73/73
f 79/79/79 78/78/78 77/77/77
f 80/80/80 79/79/79 77/77/77
f 83/83/83 82/82/82 81/81/81
f 84/84/84 83/83/83 81/81/81
