g Wall Angle A-4
v -0.7 0 0
v -0.7 0 -0.7
v -0.7 2.5 -0.7
v -0.7 2.5 0
v -0.7 0 1
v -0.7 2.5 1
v -0.7 0 -0.7
v 0 2.5 -0.7
v -0.7 2.5 -0.7
v 0 0 -0.7
v 1 2.5 -0.7
v 1 0 -0.7
v 0 2.5 -0.7
v -0.7 2.5 0
v -0.7 2.5 -0.7
v 0 2.5 0
v -0.7 2.5 1
v 0 2.5 1
v 1 2.5 0
v 1 2.5 -0.7
v 0 0 1
v -0.7 0 1
v -0.7 2.5 1
v 0 2.5 1
v 0 0 0
v 0 0 1
v 0 2.5 1
v 0 2.5 0
v 1 0 -0.7
v 1 0 0
v 1 2.5 0
v 1 2.5 -0.7
v 0 2.5 0
v 1 2.5 0
v 1 0 0
v 0 0 0
vt 0.03808594 0.6542969
vt 0.03808594 0.6542969
vt 0.03808594 0.6875
vt 0.03808594 0.6875
vt 0.03808594 0.6542969
vt 0.03808594 0.6875
vt 0.03808594 0.6542969
vt 0.04882813 0.6875
vt 0.03808594 0.6875
vt 0.04882813 0.6542969
vt 0.04882813 0.6875
vt 0.04882813 0.6542969
vt 0.04882813 0.6875
vt 0.03808594 0.6875
vt 0.03808594 0.6875
vt 0.04882813 0.6875
vt 0.03808594 0.6875
vt 0.04882813 0.6875
vt 0.04882813 0.6875
vt 0.04882813 0.6875
vt 0.04882813 0.6542969
vt 0.03808594 0.6542969
vt 0.03808594 0.6875
vt 0.04882813 0.6875
vt 0.04882813 0.6542969
vt 0.04882813 0.6542969
vt 0.04882813 0.6875
vt 0.04882813 0.6875
vt 0.04882813 0.6542969
vt 0.04882813 0.6542969
vt 0.04882813 0.6875
vt 0.04882813 0.6875
vt 0.04882813 0.6875
vt 0.04882813 0.6875
vt 0.04882813 0.6542969
vt 0.04882813 0.6542969
vn -1 0 0
vn -1 0 0
vn -1 0 0
vn -1 0 0
vn -1 0 0
vn -1 0 0
vn 0 0 -1
vn 0 0 -1
vn 0 0 -1
vn 0 0 -1
vn 0 0 -1
vn 0 0 -1
vn 0 1 0
vn 0 1 0
vn 0 1 0
vn 0 1 0
vn 0 1 0
vn 0 1 0
vn 0 1 0
vn 0 1 0
vn 0 0 1
vn 0 0 1
vn 0 0 1
vn 0 0 1
vn 1 0 0
vn 1 0 0
vn 1 0 0
vn 1 0 0
vn 1 0 0
vn 1 0 0
vn 1 0 0
vn 1 0 0
vn 0 0 1
vn 0 0 1
vn 0 0 1
vn 0 0 1
g Wall Angle A-4_0
f 3/3/3 2/2/2 1/1/1
f 4/4/4 3/3/3 1/1/1
f 1/1/1 5/5/5 4/4/4
f 5/5/5 6/6/6 4/4/4
f 9/9/9 8/8/8 7/7/7
f 8/8/8 10/10/10 7/7/7
f 8/8/8 11/11/11 10/10/10
f 11/11/11 12/12/12 10/10/10
f 15/15/15 14/14/14 13/13/13
f 14/14/14 16/16/16 13/13/13
f 14/14/14 17/17/17 16/16/16
f 17/17/17 18/18/18 16/16/16
f 16/16/16 19/19/19 13/13/13
f 19/19/19 20/20/20 13/13/13
f 23/23/23 22/22/22 21/21/21
f 24/24/24 23/23/23 21/21/21
f 27/27/27 26/26/26 25/25/25
f 28/28/28 27/27/27 25/25/25
f 31/31/31 30/30/30 29/29/29
f 32/32/32 31/31/31 29/29/29
f 35/35/35 34/34/34 33/33/33
f 36/36/36 35/35/35 33/33/33
