g Wall A-0
v -4 0 0
v -4 0 -1
v -4 2.5 -1
v -4 2.5 0
v 0 2.5 -1
v 0 0 -1
v 0 0 0
v 0 2.5 0
v 0 2.5 0
v 0 0 0
v -4 0 0
v -4 2.5 0
v 0 2.5 -1
v 0 2.5 0
v -4 2.5 0
v -4 2.5 -1
v -4 2.5 -1
v -4 0 -1
v 0 0 -1
v 0 2.5 -1
vt 0.6103516 0.8613281
vt 0.6103516 0.8613281
vt 0.6103516 0.8613281
vt 0.6103516 0.8613281
vt 0.6103516 0.8613281
vt 0.6103516 0.8613281
vt 0.6103516 0.8613281
vt 0.6103516 0.8613281
vt 0.3764648 0.9790039
vt 0.3764648 0.7485352
vt 0.007324219 0.7485352
vt 0.007324219 0.9790039
vt 0.6103516 0.8613281
vt 0.6103516 0.8613281
vt 0.6103516 0.8613281
vt 0.6103516 0.8613281
vt 0.007324219 0.9790039
vt 0.007324219 0.7485352
vt 0.3764648 0.7485352
vt 0.3764648 0.9790039
vn -1 0 0
vn -1 0 0
vn -1 0 0
vn -1 0 0
vn 1 0 0
vn 1 0 0
vn 1 0 0
vn 1 0 0
vn 0 0 1
vn 0 0 1
vn 0 0 1
vn 0 0 1
vn 0 1 0
vn 0 1 0
vn 0 1 0
vn 0 1 0
vn 0 0 -1
vn 0 0 -1
vn 0 0 -1
vn 0 0 -1
g Wall A-0_0
f 3/3/3 2/2/2 1/1/1
f 4/4/4 3/3/3 1/1/1
f 7/7/7 6/6/6 5/5/5
f 8/8/8 7/7/7 5/5/5
f 11/11/11 10/10/10 9/9/9
f 12/12/12 11/11/11 9/9/9
f 15/15/15 14/14/14 13/13/13
f 16/16/16 15/15/15 13/13/13
f 19/19/19 18/18/18 17/17/17
f 20/20/20 19/19/19 17/17/17
