g brick_small
v -0.1625 0.4 -0.125
v -0.1875 0.375 -0.125
v -0.1625 0.375 -0.15
v 0.1625 0.4 0.125
v 0.1875 0.375 0.125
v 0.1625 0.375 0.15
v 0.1625 0.4 -0.125
v 0.1625 0.375 -0.15
v 0.1875 0.375 -0.125
v 0.1625 0.02500001 0.15
v -0.1625 0.02500001 0.15
v -0.1625 0.375 0.15
v 0.1625 0.375 0.15
v 0.1875 0.02500001 0.125
v 0.1625 0.4 0.125
v -0.1625 0.4 0.125
v -0.1875 0.375 0.125
v 0.1875 0.375 0.125
v 0.1875 0.02499999 -0.125
v 0.1625 5.463924E-09 0.125
v 0.1875 0.375 -0.125
v 0.1625 0.02499999 -0.15
v 0.1625 -5.463924E-09 -0.125
v 0.1625 0.4 -0.125
v 0.1625 0.4 0.125
v -0.1625 0.4 0.125
v -0.1625 0.4 -0.125
v 0.1625 0.375 -0.15
v -0.1625 0.025 -0.15
v -0.1625 0.375 -0.15
v -0.1875 0.02499999 -0.125
v -0.1625 0.4 -0.125
v 0.1625 0.4 -0.125
v -0.1875 0.375 -0.125
v -0.1875 0.025 0.125
v -0.1875 0.375 0.125
v -0.1625 0.02500001 0.15
v -0.1625 0.375 0.15
v -0.1625 0.4 0.125
v -0.1625 0.4 -0.125
v 0.1625 0.02500001 0.15
v 0.1875 0.02500001 0.125
v -0.1625 5.463924E-09 0.125
v -0.1625 0.02500001 0.15
v -0.1875 0.025 0.125
v -0.1625 -5.463924E-09 -0.125
v -0.1875 0.02499999 -0.125
v -0.1625 0.025 -0.15
v 0.1625 0.02499999 -0.15
v 0.1875 0.02499999 -0.125
vt 0.625 0.2666016
vt 0.6069336 0.25
vt 0.625 0.2666016
vt 0.625 0.7666016
vt 0.6069336 0.75
vt 0.625 0.7666016
vt 0.625 0.5209961
vt 0.6069336 0.5
vt 0.625 0.5209961
vt 0.3928223 0.7666016
vt 0.3928223 0.9833984
vt 0.6069336 0.9833984
vt 0.6069336 0.7666016
vt 0.3928223 0.7290039
vt 0.625 0.7666016
vt 0.625 0.9833984
vt 0.6069336 1
vt 0.6069336 0.7290039
vt 0.3928223 0.5209961
vt 0.3583984 0.7290039
vt 0.6069336 0.5209961
vt 0.3928223 0.4833984
vt 0.3583984 0.5209961
vt 0.6416016 0.5209961
vt 0.6416016 0.7290039
vt 0.8583984 0.7290039
vt 0.8583984 0.5209961
vt 0.6069336 0.4833984
vt 0.3928223 0.2666016
vt 0.6069336 0.2666016
vt 0.3928223 0.229126
vt 0.625 0.2666016
vt 0.625 0.4833984
vt 0.6069336 0.229126
vt 0.3928223 0.02082825
vt 0.6069336 0.02082825
vt 0.3928223 0
vt 0.6069336 0
vt 0.625 0.02082825
vt 0.625 0.229126
vt 0.3583984 0.75
vt 0.375 0.7290039
vt 0.1417236 0.7290039
vt 0.1417236 0.75
vt 0.125 0.7290039
vt 0.1417236 0.5209961
vt 0.125 0.5209961
vt 0.1417236 0.5
vt 0.3583984 0.5
vt 0.375 0.5209961
vn -0.3415527 0.8754883 -0.3415527
vn -0.8754883 0.3415527 -0.3415527
vn -0.3415527 0.3415527 -0.8754883
vn 0.3415527 0.8754883 0.3415527
vn 0.8754883 0.3415527 0.3415527
vn 0.3415527 0.3415527 0.8754883
vn 0.3415527 0.8754883 -0.3415527
vn 0.3415527 0.3415527 -0.8754883
vn 0.8754883 0.3415527 -0.3415527
vn 0.3415527 -0.3415527 0.8754883
vn -0.3415527 -0.3415527 0.8754883
vn -0.3415527 0.3415527 0.8754883
vn 0.3415527 0.3415527 0.8754883
vn 0.8754883 -0.3415527 0.3415527
vn 0.3415527 0.8754883 0.3415527
vn -0.3415527 0.8754883 0.3415527
vn -0.8754883 0.3415527 0.3415527
vn 0.8754883 0.3415527 0.3415527
vn 0.8754883 -0.3415527 -0.3415527
vn 0.3415527 -0.8754883 0.3415527
vn 0.8754883 0.3415527 -0.3415527
vn 0.3415527 -0.3415527 -0.8754883
vn 0.3415527 -0.8754883 -0.3415527
vn 0.3415527 0.8754883 -0.3415527
vn 0.3415527 0.8754883 0.3415527
vn -0.3415527 0.8754883 0.3415527
vn -0.3415527 0.8754883 -0.3415527
vn 0.3415527 0.3415527 -0.8754883
vn -0.3415527 -0.3415527 -0.8754883
vn -0.3415527 0.3415527 -0.8754883
vn -0.8754883 -0.3415527 -0.3415527
vn -0.3415527 0.8754883 -0.3415527
vn 0.3415527 0.8754883 -0.3415527
vn -0.8754883 0.3415527 -0.3415527
vn -0.8754883 -0.3415527 0.3415527
vn -0.8754883 0.3415527 0.3415527
vn -0.3415527 -0.3415527 0.8754883
vn -0.3415527 0.3415527 0.8754883
vn -0.3415527 0.8754883 0.3415527
vn -0.3415527 0.8754883 -0.3415527
vn 0.3415527 -0.3415527 0.8754883
vn 0.8754883 -0.3415527 0.3415527
vn -0.3415527 -0.8754883 0.3415527
vn -0.3415527 -0.3415527 0.8754883
vn -0.8754883 -0.3415527 0.3415527
vn -0.3415527 -0.8754883 -0.3415527
vn -0.8754883 -0.3415527 -0.3415527
vn -0.3415527 -0.3415527 -0.8754883
vn 0.3415527 -0.3415527 -0.8754883
vn 0.8754883 -0.3415527 -0.3415527
g brick_small_0
f 3/3/3 2/2/2 1/1/1
f 6/6/6 5/5/5 4/4/4
f 9/9/9 8/8/8 7/7/7
f 12/12/12 11/11/11 10/10/10
f 13/13/13 12/12/12 10/10/10
f 10/10/10 14/14/14 13/13/13
f 12/12/12 13/13/13 15/15/15
f 16/16/16 12/12/12 15/15/15
f 16/16/16 17/17/17 12/12/12
f 14/14/14 18/18/18 13/13/13
f 18/18/18 14/14/14 19/19/19
f 19/19/19 14/14/14 20/20/20
f 21/21/21 18/18/18 19/19/19
f 19/19/19 22/22/22 21/21/21
f 23/23/23 19/19/19 20/20/20
f 18/18/18 21/21/21 24/24/24
f 25/25/25 18/18/18 24/24/24
f 26/26/26 25/25/25 24/24/24
f 27/27/27 26/26/26 24/24/24
f 22/22/22 28/28/28 21/21/21
f 28/28/28 22/22/22 29/29/29
f 30/30/30 28/28/28 29/29/29
f 29/29/29 31/31/31 30/30/30
f 28/28/28 30/30/30 32/32/32
f 33/33/33 28/28/28 32/32/32
f 31/31/31 34/34/34 30/30/30
f 34/34/34 31/31/31 35/35/35
f 36/36/36 34/34/34 35/35/35
f 36/36/36 35/35/35 37/37/37
f 38/38/38 36/36/36 37/37/37
f 34/34/34 36/36/36 39/39/39
f 40/40/40 34/34/34 39/39/39
f 42/42/42 41/41/41 20/20/20
f 20/20/20 41/41/41 43/43/43
f 41/41/41 44/44/44 43/43/43
f 44/44/44 45/45/45 43/43/43
f 20/20/20 43/43/43 46/46/46
f 43/43/43 45/45/45 46/46/46
f 45/45/45 47/47/47 46/46/46
f 47/47/47 48/48/48 46/46/46
f 23/23/23 20/20/20 46/46/46
f 46/46/46 48/48/48 23/23/23
f 48/48/48 49/49/49 23/23/23
f 49/49/49 50/50/50 23/23/23
