g ConfettiTwisted
v -0.3459036 -0.3414051 -0.2011061
v -0.3458906 0.3932667 -0.0502554
v -0.2187195 0.3778819 0.001971787
v -0.2187213 -0.365929 -0.0941812
v -0.07476957 0.3748613 0.01141951
v -0.07476959 -0.3744093 -0.02165118
v 0.07477341 0.3744112 -0.02159892
v 0.07477338 -0.3748541 0.01159182
v 0.2190221 0.3661904 -0.09186424
v 0.2190204 -0.3774674 0.005465499
v 0.3481137 0.3431908 -0.1905977
v 0.3481008 -0.3907003 -0.03599273
vn -0.5408506 -0.1385959 0.8296215
vn -0.5408506 -0.1385959 0.8296215
vn -0.4161836 -0.1126538 0.9022751
vn -0.4105497 -0.1114687 0.9049993
vn -0.1411934 -0.04224827 0.9890801
vn -0.1386806 -0.04149087 0.9894677
vn 0.1288034 0.04217109 0.9907731
vn 0.1310547 0.04290247 0.9904464
vn 0.3740367 0.1158491 0.9201498
vn 0.3786259 0.1170985 0.9181125
vn 0.4878587 0.1467184 0.8605043
vn 0.4878587 0.1467184 0.8605043
g ConfettiTwisted_0
f 3/3/3 2/2/2 1/1/1
f 4/4/4 3/3/3 1/1/1
f 5/5/5 3/3/3 4/4/4
f 6/6/6 5/5/5 4/4/4
f 7/7/7 5/5/5 6/6/6
f 8/8/8 7/7/7 6/6/6
f 9/9/9 7/7/7 8/8/8
f 10/10/10 9/9/9 8/8/8
f 11/11/11 9/9/9 10/10/10
f 12/12/12 11/11/11 10/10/10
