g road
v -2.582802E-07 -6.891787E-08 4
v 3 -9.313226E-09 2
v 3.000001 -6.891787E-08 4
v -3 -6.891787E-08 4
v -3 -9.313226E-09 2
v 3.1 0.3 2
v 3.2 0.2999999 4
v 3.1 0.3 4
v 3.2 0.3 2
v 3.1 0.3 -4.768372E-07
v 3.2 0.3 -4.768372E-07
v -3.1 0.3 4
v -3.2 0.2999999 4
v -3.2 0.3 2
v -3.099999 0.3 2
v -3.2 0.3 4.768372E-07
v -3.1 0.3 4.768372E-07
v 3.300001 -0.3 2
v 3.300001 -0.3 4
v 3.3 0.1999999 4
v 3.3 0.2 2
v 3.300001 -0.3 -4.768372E-07
v 3.3 0.2 -4.768372E-07
v 3.2 0.3 -4.768372E-07
v 3.2 0.3 2
v 3.2 0.2999999 4
v 3 -9.313226E-09 2
v 3.000001 0.2 4
v 3.000001 -6.891787E-08 4
v 3 0.2 2
v 2.999999 2.04891E-08 -4.768372E-07
v 2.999999 0.2 -4.768372E-07
v 3.1 0.3 2
v 3.1 0.3 4
v 3.1 0.3 -4.768372E-07
v -3 -9.313226E-09 2
v -3 0.2 4.768372E-07
v -3 2.04891E-08 4.768372E-07
v -3 0.2 2
v -3 -6.891787E-08 4
v -3.1 0.3 4.768372E-07
v -3 0.2 4
v -3.099999 0.3 2
v -3.1 0.3 4
v -3.299999 -0.3 2
v -3.3 0.1999999 4
v -3.299999 -0.3 4
v -3.3 0.2 2
v -3.299999 -0.3 4.768372E-07
v -3.2 0.2999999 4
v -3.3 0.2 4.768372E-07
v -3.2 0.3 2
v -3.2 0.3 4.768372E-07
v 3 -9.313226E-09 2
v -4.768372E-07 -9.313226E-09 2
v 2.999999 2.04891E-08 -4.768372E-07
v -2.582802E-07 -6.891787E-08 4
v -3 -9.313226E-09 2
v -3 2.04891E-08 4.768372E-07
v -4.768372E-07 -9.313226E-09 2
v -3 2.04891E-08 4.768372E-07
v -6.953942E-07 2.04891E-08 0
v 2.999999 2.04891E-08 -4.768372E-07
vt 0.5 1
vt 0.07501221 0.5
vt 0.07501221 1
vt 0.9248047 1
vt 0.9248047 0.5
vt 0.04138184 0.5
vt 0.01911926 1
vt 0.04138184 1
vt 0.01911926 0.5
vt 0.04138184 0
vt 0.01911926 0
vt 0.9584961 1
vt 0.980957 1
vt 0.980957 0.5
vt 0.9584961 0.5
vt 0.980957 0
vt 0.9584961 0
vt 0 0
vt 0 0
vt 0 0
vt 0 0
vt 0 0
vt 0 0
vt 0 0
vt 0 0
vt 0 0
vt 0.07501221 0.5
vt 0.07501221 1
vt 0.07501221 1
vt 0.07501221 0.5
vt 0.07501221 0
vt 0.07501221 0
vt 0.04138184 0.5
vt 0.04138184 1
vt 0.04138184 0
vt 0.9248047 0.5
vt 0.9248047 0
vt 0.9248047 0
vt 0.9248047 0.5
vt 0.9248047 1
vt 0.9584961 0
vt 0.9248047 1
vt 0.9584961 0.5
vt 0.9584961 1
vt 0 0
vt 0 0
vt 0 0
vt 0 0
vt 0 0
vt 0 0
vt 0 0
vt 0 0
vt 0 0
vt 0.07501221 0.5
vt 0.5 0.5
vt 0.07501221 0
vt 0.5 1
vt 0.9248047 0.5
vt 0.9248047 0
vt 0.5 0.5
vt 0.9248047 0
vt 0.5 0
vt 0.07501221 0
vn 0 1 0
vn 0 1 0
vn 0 1 0
vn 0 1 0
vn 0 1 0
vn 0 1 0
vn 0 1 0
vn 0 1 0
vn 0 1 0
vn 0 1 0
vn 0 1 0
vn 0 1 0
vn 0 1 0
vn 0 1 0
vn 0 1 0
vn 0 1 0
vn 0 1 0
vn 1 0 0
vn 1 0 0
vn 0.9238281 0.3825684 0
vn 0.9238281 0.3825684 0
vn 1 0 0
vn 0.9238281 0.3825684 0
vn 0.3825684 0.9238281 0
vn 0.3825684 0.9238281 0
vn 0.3825684 0.9238281 0
vn -0.7070313 0.7070313 0
vn -0.9238281 0.3825684 0
vn -0.7070313 0.7070313 0
vn -0.9238281 0.3825684 0
vn -0.7070313 0.7070313 0
vn -0.9238281 0.3825684 0
vn -0.3825684 0.9238281 0
vn -0.3825684 0.9238281 0
vn -0.3825684 0.9238281 0
vn 0.7070313 0.7070313 0
vn 0.9238281 0.3825684 0
vn 0.7070313 0.7070313 0
vn 0.9238281 0.3825684 0
vn 0.7070313 0.7070313 0
vn 0.3825684 0.9238281 0
vn 0.9238281 0.3825684 0
vn 0.3825684 0.9238281 0
vn 0.3825684 0.9238281 0
vn -1 0 0
vn -0.9238281 0.3825684 0
vn -1 0 0
vn -0.9238281 0.3825684 0
vn -1 0 0
vn -0.3825684 0.9238281 0
vn -0.9238281 0.3825684 0
vn -0.3825684 0.9238281 0
vn -0.3825684 0.9238281 0
vn 0 1 0
vn 0 1 0
vn 0 1 0
vn 0 1 0
vn 0 1 0
vn 0 1 0
vn 0 1 0
vn 0 1 0
vn 0 1 0
vn 0 1 0
g road_0
f 3/3/3 2/2/2 1/1/1
f 1/1/1 5/5/5 4/4/4
f 8/8/8 7/7/7 6/6/6
f 7/7/7 9/9/9 6/6/6
f 6/6/6 9/9/9 10/10/10
f 9/9/9 11/11/11 10/10/10
f 14/14/14 13/13/13 12/12/12
f 15/15/15 14/14/14 12/12/12
f 16/16/16 14/14/14 15/15/15
f 17/17/17 16/16/16 15/15/15
f 20/20/20 19/19/19 18/18/18
f 21/21/21 20/20/20 18/18/18
f 21/21/21 18/18/18 22/22/22
f 23/23/23 21/21/21 22/22/22
f 21/21/21 23/23/23 24/24/24
f 25/25/25 21/21/21 24/24/24
f 20/20/20 21/21/21 25/25/25
f 26/26/26 20/20/20 25/25/25
f 29/29/29 28/28/28 27/27/27
f 28/28/28 30/30/30 27/27/27
f 27/27/27 30/30/30 31/31/31
f 30/30/30 32/32/32 31/31/31
f 33/33/33 30/30/30 28/28/28
f 30/30/30 33/33/33 32/32/32
f 34/34/34 33/33/33 28/28/28
f 33/33/33 35/35/35 32/32/32
f 38/38/38 37/37/37 36/36/36
f 37/37/37 39/39/39 36/36/36
f 36/36/36 39/39/39 40/40/40
f 39/39/39 37/37/37 41/41/41
f 39/39/39 42/42/42 40/40/40
f 43/43/43 39/39/39 41/41/41
f 42/42/42 39/39/39 44/44/44
f 39/39/39 43/43/43 44/44/44
f 47/47/47 46/46/46 45/45/45
f 46/46/46 48/48/48 45/45/45
f 45/45/45 48/48/48 49/49/49
f 48/48/48 46/46/46 50/50/50
f 48/48/48 51/51/51 49/49/49
f 52/52/52 48/48/48 50/50/50
f 51/51/51 48/48/48 52/52/52
f 53/53/53 51/51/51 52/52/52
f 56/56/56 55/55/55 54/54/54
f 55/55/55 57/57/57 54/54/54
f 58/58/58 57/57/57 55/55/55
f 59/59/59 58/58/58 55/55/55
f 62/62/62 61/61/61 60/60/60
f 63/63/63 62/62/62 60/60/60
