g Twist2
v 1.094525 5.196772 -2.271581E-07
v 0.7528128 4.102225 -0.2798781
v 0.8321575 4.223263 -1.846047E-07
v 0.9924549 5.075901 -0.3689713
v 0.5866663 3.981169 -0.5061803
v 0.7753599 4.955003 -0.6689867
v 0.3601846 3.860098 -0.6546816
v 0.477326 4.834085 -0.8676007
v 0.1055166 3.739013 -0.7124708
v 0.1402431 4.71314 -0.9469519
v -0.1439087 3.617913 -0.6788027
v -0.1918748 4.592175 -0.9050535
v -0.3576504 3.496801 -0.5643587
v -0.4784803 4.471191 -0.7550234
v -0.5118651 3.375673 -0.3891244
v -0.6873004 4.35019 -0.5224921
v -0.5918391 3.254535 -0.1792336
v -0.7978083 4.229167 -0.2416095
v -0.5931959 3.133385 0.03675359
v -0.803014 4.10813 0.04975362
v -0.521708 3.012223 0.2316182
v -0.7094429 3.987076 0.3149653
v -0.391835 2.89105 0.3828209
v -0.5354309 3.866005 0.5231135
v -0.2242591 2.769866 0.4750085
v -0.3080469 3.744922 0.6524814
v -0.04280055 2.648672 0.5014262
v -0.05912224 3.62382 0.6926417
v 0.1288454 2.527472 0.4641247
v 0.1790558 3.502707 0.6449918
v 0.2701156 2.406261 0.3730251
v 0.3778206 3.381582 0.521764
v 0.3659618 2.28504 0.2440382
v 0.5154725 3.260444 0.343738
v 0.4083422 2.163812 0.09655083
v 0.579515 3.139293 0.1370239
v 0.3966885 2.042576 -0.04934623
v 0.5675729 3.018134 -0.07060346
v 0.3373655 1.921331 -0.1755081
v 0.4869583 2.89696 -0.253331
v 0.2422668 1.800079 -0.2679225
v 0.3530391 2.775777 -0.3904255
v 0.1267953 1.678821 -0.3181816
v 0.1866914 2.654586 -0.4684857
v 0.007543358 1.557554 -0.3240913
v 0.01123245 2.533384 -0.4825885
v -0.09999393 1.436283 -0.2894083
v -0.1507356 2.412173 -0.4362681
v -0.1833671 1.315005 -0.222802
v -0.2801551 2.290953 -0.3404056
v -0.2345477 1.193721 -0.1362445
v -0.363676 2.169725 -0.2112528
v -0.2505853 1.072431 -0.04309273
v -0.3949085 2.048491 -0.06791174
v -0.2335119 0.9511348 0.04385386
v -0.3746773 1.927246 0.07036497
v -0.1895714 0.8298352 0.1140425
v -0.3103121 1.805995 0.1866778
v -0.1279305 0.7085292 0.1603946
v -0.2141384 1.684736 0.2684791
v -0.0590956 0.5872146 0.1799328
v -0.1014313 1.563471 0.3088351
v 0.006712086 0.4658986 0.1737645
v 0.01185231 1.4422 0.3068361
v 0.0609932 0.3445778 0.1464832
v 0.1112463 1.320922 0.2671725
v 0.09801775 0.2232519 0.105111
v 0.1855613 1.199638 0.19899
vt 0.9999548 0.9999488
vt 0.9696549 5.12898E-05
vt 0.9999549 5.12898E-05
vt 0.9696548 0.9999488
vt 0.9393548 5.12898E-05
vt 0.9393548 0.9999488
vt 0.9090547 5.12898E-05
vt 0.9090547 0.9999488
vt 0.8787547 5.12898E-05
vt 0.8787546 0.9999488
vt 0.8484548 5.12898E-05
vt 0.8484547 0.9999488
vt 0.8181547 5.12898E-05
vt 0.8181546 0.9999488
vt 0.7878546 5.12898E-05
vt 0.7878545 0.9999488
vt 0.7575545 5.12898E-05
vt 0.7575544 0.9999488
vt 0.7272545 5.12898E-05
vt 0.7272545 0.9999488
vt 0.6969545 5.12898E-05
vt 0.6969544 0.9999488
vt 0.6666544 5.12898E-05
vt 0.6666543 0.9999488
vt 0.6363544 5.12898E-05
vt 0.6363543 0.9999488
vt 0.6060544 5.123019E-05
vt 0.6060543 0.9999488
vt 0.5757542 5.123019E-05
vt 0.5757542 0.9999488
vt 0.5454542 5.123019E-05
vt 0.5454542 0.9999488
vt 0.5151542 5.123019E-05
vt 0.5151542 0.9999488
vt 0.4848542 5.123019E-05
vt 0.4848541 0.9999488
vt 0.4545542 5.123019E-05
vt 0.4545541 0.9999488
vt 0.4242541 5.123019E-05
vt 0.424254 0.9999488
vt 0.3939541 5.123019E-05
vt 0.393954 0.9999488
vt 0.363654 5.123019E-05
vt 0.3636539 0.9999488
vt 0.333354 5.123019E-05
vt 0.3333539 0.9999488
vt 0.303054 5.123019E-05
vt 0.3030539 0.9999488
vt 0.2727539 5.123019E-05
vt 0.2727538 0.9999488
vt 0.2424539 5.123019E-05
vt 0.2424537 0.9999488
vt 0.2121539 5.123019E-05
vt 0.2121537 0.9999488
vt 0.1818538 5.123019E-05
vt 0.1818537 0.9999488
vt 0.1515537 5.123019E-05
vt 0.1515536 0.9999488
vt 0.1212537 5.123019E-05
vt 0.1212536 0.9999488
vt 0.09095362 5.123019E-05
vt 0.09095347 0.9999488
vt 0.06065354 5.123019E-05
vt 0.06065339 0.9999488
vt 0.03035355 5.123019E-05
vt 0.03035343 0.9999488
vt 5.355477E-05 5.123019E-05
vt 5.343556E-05 0.9999488
vn 0.9520272 -0.2532818 -0.1717336
vn 0.890265 -0.2529793 -0.3787212
vn 0.9520272 -0.2532818 -0.1717336
vn 0.9184809 -0.2545012 -0.3026913
vn 0.7026522 -0.2469339 -0.6673106
vn 0.7573349 -0.2484571 -0.6039146
vn 0.4254085 -0.2410719 -0.8723026
vn 0.5011621 -0.2426001 -0.8306514
vn 0.09341879 -0.2354239 -0.9673926
vn 0.1817092 -0.2369178 -0.9543855
vn -0.2513877 -0.2299326 -0.9401783
vn -0.1612611 -0.2314542 -0.9593873
vn -0.5653013 -0.2246495 -0.7937046
vn -0.4849837 -0.2261487 -0.8447767
vn -0.8083873 -0.2194927 -0.5461986
vn -0.7490348 -0.2210207 -0.6245772
vn -0.9495364 -0.2145483 -0.2288006
vn -0.9203297 -0.2160437 -0.3260646
vn -0.9705703 -0.2097277 0.1183533
vn -0.977336 -0.2112516 0.01367245
vn -0.8684956 -0.205061 0.451293
vn -0.9127724 -0.2065854 0.3523763
vn -0.6559528 -0.2005428 0.7276734
vn -0.7344716 -0.2020667 0.6478585
vn -0.3596439 -0.1961805 0.9122333
vn -0.4644965 -0.197701 0.863225
vn -0.01709084 -0.1919363 0.9812586
vn -0.1363008 -0.1934641 0.9715934
vn 0.3282605 -0.1878128 0.9257274
vn 0.2092712 -0.1893726 0.9593453
vn 0.632545 -0.1838183 0.7523946
vn 0.5293803 -0.1853716 0.8278853
vn 0.8568962 -0.179943 0.4830627
vn 0.7841596 -0.181528 0.5934148
vn 0.9725813 -0.1761865 0.1518018
vn 0.9419027 -0.1777722 0.2849849
vn 0.9646409 -0.1725232 -0.1992578
vn 0.982945 -0.1741395 -0.05911465
vn 0.8338165 -0.1689851 -0.5255415
vn 0.9021373 -0.1706004 -0.3962873
vn 0.5965552 -0.1655351 -0.7853153
vn 0.7094204 -0.1671845 -0.6846693
vn 0.2828856 -0.1621808 -0.9453428
vn 0.428614 -0.163828 -0.8885103
vn -0.06726374 -0.1589121 -0.9849988
vn 0.09448872 -0.1605942 -0.9824874
vn -0.4093198 -0.1557686 -0.8989958
vn -0.2515413 -0.1574499 -0.9549537
vn -0.6995323 -0.152688 -0.6980979
vn -0.5667723 -0.1543967 -0.809278
vn -0.9007449 -0.1496969 -0.4077371
vn -0.8121523 -0.1514374 -0.5634495
vn -0.9870372 -0.1467647 -0.06494389
vn -0.9573457 -0.1485352 -0.2478436
vn -0.9472024 -0.1439298 0.2865168
vn -0.9844078 -0.1457263 0.09851404
vn -0.7861255 -0.141184 0.6017257
vn -0.8900065 -0.1429834 0.4329481
vn -0.5242575 -0.1384958 0.8402221
vn -0.6858055 -0.140329 0.7141277
vn -0.1949548 -0.1358702 0.9713557
vn -0.3969699 -0.137705 0.9074427
vn 0.1595554 -0.1333087 0.9781466
vn -0.05911493 -0.1351983 0.9890535
vn 0.4939828 -0.1308355 0.8595715
vn 0.2861157 -0.1327272 0.948958
vn 0.5376528 -0.1294615 0.8331681
vn 0.5376528 -0.1294615 0.8331681
g Twist2_0
f 3/3/3 2/2/2 1/1/1
f 2/2/2 4/4/4 1/1/1
f 2/2/2 5/5/5 4/4/4
f 5/5/5 6/6/6 4/4/4
f 5/5/5 7/7/7 6/6/6
f 7/7/7 8/8/8 6/6/6
f 7/7/7 9/9/9 8/8/8
f 9/9/9 10/10/10 8/8/8
f 9/9/9 11/11/11 10/10/10
f 11/11/11 12/12/12 10/10/10
f 11/11/11 13/13/13 12/12/12
f 13/13/13 14/14/14 12/12/12
f 13/13/13 15/15/15 14/14/14
f 15/15/15 16/16/16 14/14/14
f 15/15/15 17/17/17 16/16/16
f 17/17/17 18/18/18 16/16/16
f 17/17/17 19/19/19 18/18/18
f 19/19/19 20/20/20 18/18/18
f 19/19/19 21/21/21 20/20/20
f 21/21/21 22/22/22 20/20/20
f 21/21/21 23/23/23 22/22/22
f 23/23/23 24/24/24 22/22/22
f 23/23/23 25/25/25 24/24/24
f 25/25/25 26/26/26 24/24/24
f 25/25/25 27/27/27 26/26/26
f 27/27/27 28/28/28 26/26/26
f 27/27/27 29/29/29 28/28/28
f 29/29/29 30/30/30 28/28/28
f 29/29/29 31/31/31 30/30/30
f 31/31/31 32/32/32 30/30/30
f 31/31/31 33/33/33 32/32/32
f 33/33/33 34/34/34 32/32/32
f 33/33/33 35/35/35 34/34/34
f 35/35/35 36/36/36 34/34/34
f 35/35/35 37/37/37 36/36/36
f 37/37/37 38/38/38 36/36/36
f 37/37/37 39/39/39 38/38/38
f 39/39/39 40/40/40 38/38/38
f 39/39/39 41/41/41 40/40/40
f 41/41/41 42/42/42 40/40/40
f 41/41/41 43/43/43 42/42/42
f 43/43/43 44/44/44 42/42/42
f 43/43/43 45/45/45 44/44/44
f 45/45/45 46/46/46 44/44/44
f 45/45/45 47/47/47 46/46/46
f 47/47/47 48/48/48 46/46/46
f 47/47/47 49/49/49 48/48/48
f 49/49/49 50/50/50 48/48/48
f 49/49/49 51/51/51 50/50/50
f 51/51/51 52/52/52 50/50/50
f 51/51/51 53/53/53 52/52/52
f 53/53/53 54/54/54 52/52/52
f 53/53/53 55/55/55 54/54/54
f 55/55/55 56/56/56 54/54/54
f 55/55/55 57/57/57 56/56/56
f 57/57/57 58/58/58 56/56/56
f 57/57/57 59/59/59 58/58/58
f 59/59/59 60/60/60 58/58/58
f 59/59/59 61/61/61 60/60/60
f 61/61/61 62/62/62 60/60/60
f 61/61/61 63/63/63 62/62/62
f 63/63/63 64/64/64 62/62/62
f 63/63/63 65/65/65 64/64/64
f 65/65/65 66/66/66 64/64/64
f 65/65/65 67/67/67 66/66/66
f 67/67/67 68/68/68 66/66/66
