g Breard.001
v -0.02321017 -0.1738597 0.07959693
v 0.04612599 -0.1731691 0.05930169
v 0.08546036 -0.2046528 0.0004642688
v -0.005762196 -0.2143777 0.0004642762
v -0.06294749 -0.2257386 0.05163912
v -0.06528471 -0.2141325 0.08699621
v -0.1344152 -0.2429257 0.1196653
v -0.0731529 -0.2305695 0.04492141
v -0.06850088 -0.243549 0.00046428
v -0.07756132 -0.2084496 0.04191784
v -0.07343044 -0.2089102 0.0004642807
v -0.06914418 -0.2054535 0.04792198
v -0.07244056 -0.1957103 0.07921641
v -0.1693643 -0.249353 0.08315469
v -0.1651543 -0.2721628 0.08679027
v -0.1669935 -0.263184 0.1208995
v -0.18841 -0.2749213 0.1013325
v -0.1724409 -0.2306784 0.117684
v -0.1865177 -0.2832994 0.06606007
v -0.1917136 -0.2415636 0.09822827
v -0.2129828 -0.290183 0.06682808
v -0.1929757 -0.3012912 0.0004642785
v -0.2161126 -0.2453528 0.06378481
v -0.2185625 -0.3073376 0.0004642919
v -0.2213945 -0.2624217 0.0004642807
v -0.07343044 -0.2089102 0.0004642807
v -0.06850088 -0.243549 0.00046428
v -0.005762196 -0.2143777 0.0004642762
v -0.009195543 -0.1440223 0.0004642807
v -0.07756132 -0.2084496 0.04191784
v 0.08546036 -0.2046528 0.0004642688
v -0.06914418 -0.2054535 0.04792198
v 0.08321603 -0.1833092 0.0004642807
v 0.04612599 -0.1731691 0.05930169
v 0.04221556 -0.1630671 0.05002679
v -0.02321017 -0.1738597 0.07959693
v -0.02870715 -0.1625309 0.07247983
v -0.07244056 -0.1957103 0.07921641
v -0.1344152 -0.2429257 0.1196653
v -0.1395172 -0.2112449 0.1140584
v -0.1669935 -0.263184 0.1208995
v -0.1724409 -0.2306784 0.117684
v -0.1693643 -0.249353 0.08315469
v -0.1917136 -0.2415636 0.09822827
v -0.1897151 -0.2599951 0.0630272
v -0.1651543 -0.2721628 0.08679027
v -0.2161126 -0.2453528 0.06378481
v -0.1865177 -0.2832994 0.06606007
v -0.1958915 -0.2779113 0.0004642807
v -0.2213945 -0.2624217 0.0004642807
v -0.1929757 -0.3012912 0.0004642785
v -0.2185625 -0.3073376 0.0004642919
v -0.02321017 -0.1738597 -0.07959693
v 0.08546036 -0.2046528 -0.0004642688
v 0.04612599 -0.1731691 -0.05930169
v -0.005762196 -0.2143777 -0.0004642762
v -0.06294749 -0.2257386 -0.05163912
v -0.06528471 -0.2141325 -0.08699621
v -0.1344152 -0.2429257 -0.1196653
v -0.0731529 -0.2305695 -0.04492141
v -0.06850088 -0.243549 -0.00046428
v -0.07756132 -0.2084496 -0.04191784
v -0.07343044 -0.2089102 -0.0004642807
v -0.06914418 -0.2054535 -0.04792198
v -0.07244056 -0.1957103 -0.07921641
v -0.1693643 -0.249353 -0.08315469
v -0.1651543 -0.2721628 -0.08679027
v -0.1669935 -0.263184 -0.1208995
v -0.18841 -0.2749213 -0.1013325
v -0.1724409 -0.2306784 -0.117684
v -0.1865177 -0.2832994 -0.06606007
v -0.1917136 -0.2415636 -0.09822827
v -0.2129828 -0.290183 -0.06682808
v -0.1929757 -0.3012912 -0.0004642785
v -0.2161126 -0.2453528 -0.06378481
v -0.2185625 -0.3073376 -0.0004642919
v -0.2213945 -0.2624217 -0.0004642807
v -0.07343044 -0.2089102 -0.0004642807
v -0.005762196 -0.2143777 -0.0004642762
v -0.06850088 -0.243549 -0.00046428
v -0.009195543 -0.1440223 -0.0004642807
v -0.07756132 -0.2084496 -0.04191784
v 0.08546036 -0.2046528 -0.0004642688
v -0.06914418 -0.2054535 -0.04792198
v 0.08321603 -0.1833092 -0.0004642807
v 0.04612599 -0.1731691 -0.05930169
v 0.04221556 -0.1630671 -0.05002679
v -0.02321017 -0.1738597 -0.07959693
v -0.02870715 -0.1625309 -0.07247983
v -0.07244056 -0.1957103 -0.07921641
v -0.1344152 -0.2429257 -0.1196653
v -0.1395172 -0.2112449 -0.1140584
v -0.1669935 -0.263184 -0.1208995
v -0.1724409 -0.2306784 -0.117684
v -0.1693643 -0.249353 -0.08315469
v -0.1917136 -0.2415636 -0.09822827
v -0.1897151 -0.2599951 -0.0630272
v -0.1651543 -0.2721628 -0.08679027
v -0.2161126 -0.2453528 -0.06378481
v -0.1865177 -0.2832994 -0.06606007
v -0.1958915 -0.2779113 -0.0004642807
v -0.2213945 -0.2624217 -0.0004642807
v -0.1929757 -0.3012912 -0.0004642785
v -0.2185625 -0.3073376 -0.0004642919
vt 0.6570553 0.354143
vt 0.4885398 0.1281857
vt 0 0
vt 0 0.2972825
vt 0.4249155 0.483642
vt 0.7184935 0.4912586
vt 0.9897523 0.7165459
vt 0.3691367 0.5168999
vt 0 0.5017397
vt 0.3441983 0.5312664
vt 0 0.5178046
vt 0.3940514 0.503836
vt 0.6538957 0.5145785
vt 0.6865965 0.8304403
vt 0.7167831 0.8167205
vt 1 0.822714
vt 0.8375304 0.8925081
vt 0.9733011 0.8404669
vt 0.5446558 0.886341
vt 0.8117555 0.9032741
vt 0.5510329 0.9725875
vt 0 0.907387
vt 0.5257635 0.982787
vt 0 0.9907711
vt 0 1
vt 0 0.5178046
vt 0 0.5017397
vt 0 0.2972825
vt 0 0.3084713
vt 0.3441983 0.5312664
vt 0 0
vt 0.3940514 0.503836
vt 0 0.007313944
vt 0.4885398 0.1281857
vt 0.411528 0.1409291
vt 0.6570553 0.354143
vt 0.5979601 0.372057
vt 0.6538957 0.5145785
vt 0.9897523 0.7165459
vt 0.9431966 0.7331725
vt 1 0.822714
vt 0.9733011 0.8404669
vt 0.6865965 0.8304403
vt 0.8117555 0.9032741
vt 0.5194739 0.8967608
vt 0.7167831 0.8167205
vt 0.5257635 0.982787
vt 0.5446558 0.886341
vt 0 0.916889
vt 0 1
vt 0 0.907387
vt 0 0.9907711
vt 0.6570553 0.354143
vt 0 0
vt 0.4885398 0.1281857
vt 0 0.2972825
vt 0.4249155 0.483642
vt 0.7184935 0.4912586
vt 0.9897523 0.7165459
vt 0.3691367 0.5168999
vt 0 0.5017397
vt 0.3441983 0.5312664
vt 0 0.5178046
vt 0.3940514 0.503836
vt 0.6538957 0.5145785
vt 0.6865965 0.8304403
vt 0.7167831 0.8167205
vt 1 0.822714
vt 0.8375304 0.8925081
vt 0.9733011 0.8404669
vt 0.5446558 0.886341
vt 0.8117555 0.9032741
vt 0.5510329 0.9725875
vt 0 0.907387
vt 0.5257635 0.982787
vt 0 0.9907711
vt 0 1
vt 0 0.5178046
vt 0 0.2972825
vt 0 0.5017397
vt 0 0.3084713
vt 0.3441983 0.5312664
vt 0 0
vt 0.3940514 0.503836
vt 0 0.007313944
vt 0.4885398 0.1281857
vt 0.411528 0.1409291
vt 0.6570553 0.354143
vt 0.5979601 0.372057
vt 0.6538957 0.5145785
vt 0.9897523 0.7165459
vt 0.9431966 0.7331725
vt 1 0.822714
vt 0.9733011 0.8404669
vt 0.6865965 0.8304403
vt 0.8117555 0.9032741
vt 0.5194739 0.8967608
vt 0.7167831 0.8167205
vt 0.5257635 0.982787
vt 0.5446558 0.886341
vt 0 0.916889
vt 0 1
vt 0 0.907387
vt 0 0.9907711
vn 0.4004972 -0.07785743 0.9129843
vn 0.5343695 -0.1314562 0.8349662
vn 0.7952215 -0.4633003 -0.3911209
vn 0.2620007 -0.7734281 -0.5772041
vn -0.05080442 -0.826344 0.5608693
vn 0.38723 -0.8892292 0.2435658
vn 0.3556261 -0.3737904 0.8566276
vn -0.5423025 -0.690199 0.4790964
vn -0.3318628 -0.8118656 -0.4803555
vn -0.8898059 0.3007593 0.3432043
vn -0.7210514 0.2329541 -0.6525468
vn -0.8557673 0.4161896 0.307325
vn -0.6552175 0.3382826 -0.6754663
vn 0.1009966 0.5004045 -0.8598809
vn 0.5626642 -0.7698606 -0.3012038
vn -0.03991598 -0.5450107 0.8374784
vn -0.3747347 -0.665644 0.6453619
vn -0.5349512 0.64906 0.5408775
vn 0.7297446 -0.6804991 -0.06628554
vn -0.6326262 0.7377985 0.2354519
vn -0.5803241 -0.6991169 0.4176835
vn 0.6329929 -0.5499935 -0.5448183
vn -0.5813128 0.8101993 0.07518294
vn -0.4993894 -0.7246208 -0.4749052
vn -0.4985468 0.6187233 -0.607151
vn -0.7210514 0.2329541 -0.6525468
vn -0.3318628 -0.8118656 -0.4803555
vn 0.2620007 -0.7734281 -0.5772041
vn -0.153598 0.8164426 -0.556623
vn -0.8898059 0.3007593 0.3432043
vn 0.7952215 -0.4633003 -0.3911209
vn -0.8557673 0.4161896 0.307325
vn 0.7305465 0.508266 -0.4560345
vn 0.5343695 -0.1314562 0.8349662
vn 0.4707053 0.7767829 0.4183834
vn 0.4004972 -0.07785743 0.9129843
vn -0.2053234 0.8548658 0.4764944
vn -0.6552175 0.3382826 -0.6754663
vn 0.3556261 -0.3737904 0.8566276
vn -0.2961831 0.8513287 0.4330301
vn -0.03991598 -0.5450107 0.8374784
vn -0.5349512 0.64906 0.5408775
vn 0.1009966 0.5004045 -0.8598809
vn -0.6326262 0.7377985 0.2354519
vn 0.6745857 0.5644416 -0.4757517
vn 0.5626642 -0.7698606 -0.3012038
vn -0.5813128 0.8101993 0.07518294
vn 0.7297446 -0.6804991 -0.06628554
vn 0.6171964 0.3573536 -0.7009757
vn -0.4985468 0.6187233 -0.607151
vn 0.6329929 -0.5499935 -0.5448183
vn -0.4993894 -0.7246208 -0.4749052
vn 0.4004971 -0.0778575 -0.9129843
vn 0.7952215 -0.4633003 0.3911209
vn 0.5343695 -0.1314563 -0.8349661
vn 0.2620007 -0.7734281 0.5772041
vn -0.05080434 -0.826344 -0.5608695
vn 0.3872301 -0.8892291 -0.2435658
vn 0.3556261 -0.3737904 -0.8566276
vn -0.5423025 -0.6901989 -0.4790964
vn -0.3318628 -0.8118656 0.4803555
vn -0.8898059 0.3007593 -0.3432043
vn -0.7210515 0.232954 0.6525467
vn -0.8557672 0.4161896 -0.3073251
vn -0.6552176 0.3382826 0.6754664
vn 0.1009967 0.5004045 0.8598809
vn 0.5626642 -0.7698606 0.3012037
vn -0.03991598 -0.5450107 -0.8374784
vn -0.3747348 -0.665644 -0.6453618
vn -0.5349512 0.6490599 -0.5408775
vn 0.7297446 -0.6804991 0.06628552
vn -0.6326262 0.7377985 -0.2354518
vn -0.5803241 -0.6991169 -0.4176835
vn 0.6329929 -0.5499935 0.5448183
vn -0.5813129 0.8101993 -0.07518291
vn -0.4993894 -0.7246208 0.4749052
vn -0.4985468 0.6187233 0.607151
vn -0.7210515 0.232954 0.6525467
vn 0.2620007 -0.7734281 0.5772041
vn -0.3318628 -0.8118656 0.4803555
vn -0.153598 0.8164426 0.556623
vn -0.8898059 0.3007593 -0.3432043
vn 0.7952215 -0.4633003 0.3911209
vn -0.8557672 0.4161896 -0.3073251
vn 0.7305466 0.5082659 0.4560345
vn 0.5343695 -0.1314563 -0.8349661
vn 0.4707054 0.7767829 -0.4183834
vn 0.4004971 -0.0778575 -0.9129843
vn -0.2053234 0.8548657 -0.4764943
vn -0.6552176 0.3382826 0.6754664
vn 0.3556261 -0.3737904 -0.8566276
vn -0.2961832 0.8513286 -0.4330302
vn -0.03991598 -0.5450107 -0.8374784
vn -0.5349512 0.6490599 -0.5408775
vn 0.1009967 0.5004045 0.8598809
vn -0.6326262 0.7377985 -0.2354518
vn 0.6745856 0.5644417 0.4757517
vn 0.5626642 -0.7698606 0.3012037
vn -0.5813129 0.8101993 -0.07518291
vn 0.7297446 -0.6804991 0.06628552
vn 0.6171964 0.3573536 0.7009757
vn -0.4985468 0.6187233 0.607151
vn 0.6329929 -0.5499935 0.5448183
vn -0.4993894 -0.7246208 0.4749052
g Breard.001_0
f 3/3/3 2/2/2 1/1/1
f 3/3/3 1/1/1 4/4/4
f 4/4/4 1/1/1 5/5/5
f 5/5/5 1/1/1 6/6/6
f 6/6/6 1/1/1 7/7/7
f 4/4/4 5/5/5 8/8/8
f 9/9/9 4/4/4 8/8/8
f 9/9/9 8/8/8 10/10/10
f 11/11/11 9/9/9 10/10/10
f 10/10/10 8/8/8 12/12/12
f 8/8/8 5/5/5 12/12/12
f 12/12/12 5/5/5 13/13/13
f 5/5/5 6/6/6 13/13/13
f 13/13/13 6/6/6 14/14/14
f 6/6/6 15/15/15 14/14/14
f 6/6/6 7/7/7 15/15/15
f 15/15/15 7/7/7 16/16/16
f 15/15/15 16/16/16 17/17/17
f 17/17/17 16/16/16 18/18/18
f 19/19/19 15/15/15 17/17/17
f 20/20/20 17/17/17 18/18/18
f 19/19/19 17/17/17 21/21/21
f 21/21/21 17/17/17 20/20/20
f 21/21/21 22/22/22 19/19/19
f 23/23/23 21/21/21 20/20/20
f 24/24/24 22/22/22 21/21/21
f 24/24/24 21/21/21 23/23/23
f 25/25/25 24/24/24 23/23/23
f 28/28/28 27/27/27 26/26/26
f 29/29/29 28/28/28 26/26/26
f 29/29/29 26/26/26 30/30/30
f 31/31/31 28/28/28 29/29/29
f 32/32/32 29/29/29 30/30/30
f 33/33/33 31/31/31 29/29/29
f 34/34/34 31/31/31 33/33/33
f 35/35/35 34/34/34 33/33/33
f 29/29/29 35/35/35 33/33/33
f 36/36/36 34/34/34 35/35/35
f 37/37/37 29/29/29 32/32/32
f 37/37/37 35/35/35 29/29/29
f 37/37/37 36/36/36 35/35/35
f 37/37/37 32/32/32 38/38/38
f 39/39/39 36/36/36 37/37/37
f 37/37/37 38/38/38 40/40/40
f 40/40/40 39/39/39 37/37/37
f 41/41/41 39/39/39 40/40/40
f 42/42/42 41/41/41 40/40/40
f 40/40/40 38/38/38 43/43/43
f 40/40/40 43/43/43 42/42/42
f 42/42/42 43/43/43 44/44/44
f 43/43/43 45/45/45 44/44/44
f 43/43/43 46/46/46 45/45/45
f 44/44/44 45/45/45 47/47/47
f 46/46/46 48/48/48 45/45/45
f 49/49/49 47/47/47 45/45/45
f 45/45/45 48/48/48 49/49/49
f 49/49/49 50/50/50 47/47/47
f 48/48/48 51/51/51 49/49/49
f 49/49/49 51/51/51 50/50/50
f 51/51/51 52/52/52 50/50/50
f 55/55/55 54/54/54 53/53/53
f 53/53/53 54/54/54 56/56/56
f 53/53/53 56/56/56 57/57/57
f 53/53/53 57/57/57 58/58/58
f 53/53/53 58/58/58 59/59/59
f 57/57/57 56/56/56 60/60/60
f 56/56/56 61/61/61 60/60/60
f 60/60/60 61/61/61 62/62/62
f 61/61/61 63/63/63 62/62/62
f 60/60/60 62/62/62 64/64/64
f 57/57/57 60/60/60 64/64/64
f 57/57/57 64/64/64 65/65/65
f 58/58/58 57/57/57 65/65/65
f 58/58/58 65/65/65 66/66/66
f 67/67/67 58/58/58 66/66/66
f 59/59/59 58/58/58 67/67/67
f 59/59/59 67/67/67 68/68/68
f 68/68/68 67/67/67 69/69/69
f 68/68/68 69/69/69 70/70/70
f 67/67/67 71/71/71 69/69/69
f 69/69/69 72/72/72 70/70/70
f 69/69/69 71/71/71 73/73/73
f 69/69/69 73/73/73 72/72/72
f 74/74/74 73/73/73 71/71/71
f 73/73/73 75/75/75 72/72/72
f 74/74/74 76/76/76 73/73/73
f 73/73/73 76/76/76 75/75/75
f 76/76/76 77/77/77 75/75/75
f 80/80/80 79/79/79 78/78/78
f 79/79/79 81/81/81 78/78/78
f 78/78/78 81/81/81 82/82/82
f 79/79/79 83/83/83 81/81/81
f 81/81/81 84/84/84 82/82/82
f 83/83/83 85/85/85 81/81/81
f 83/83/83 86/86/86 85/85/85
f 86/86/86 87/87/87 85/85/85
f 87/87/87 81/81/81 85/85/85
f 86/86/86 88/88/88 87/87/87
f 81/81/81 89/89/89 84/84/84
f 87/87/87 89/89/89 81/81/81
f 88/88/88 89/89/89 87/87/87
f 84/84/84 89/89/89 90/90/90
f 88/88/88 91/91/91 89/89/89
f 90/90/90 89/89/89 92/92/92
f 91/91/91 92/92/92 89/89/89
f 91/91/91 93/93/93 92/92/92
f 93/93/93 94/94/94 92/92/92
f 90/90/90 92/92/92 95/95/95
f 95/95/95 92/92/92 94/94/94
f 95/95/95 94/94/94 96/96/96
f 97/97/97 95/95/95 96/96/96
f 98/98/98 95/95/95 97/97/97
f 97/97/97 96/96/96 99/99/99
f 100/100/100 98/98/98 97/97/97
f 99/99/99 101/101/101 97/97/97
f 100/100/100 97/97/97 101/101/101
f 102/102/102 101/101/101 99/99/99
f 103/103/103 100/100/100 101/101/101
f 103/103/103 101/101/101 102/102/102
f 104/104/104 103/103/103 102/102/102
