g Breard.002
v -0.1846233 -0.2503021 -0.122076
v -0.1611319 -0.2660536 -0.1402491
v -0.1665711 -0.2398941 -0.1373924
v -0.1791841 -0.2764617 -0.1249327
v -0.2087869 -0.2654322 -0.06038978
v -0.1581008 -0.2746484 -0.08244225
v 0.008291136 -0.2436469 -0.07820179
v 0.002851973 -0.2368101 -0.07534513
v -0.1635399 -0.2484888 -0.07958557
v -0.1770642 -0.2847563 -0.06247862
v -0.2033478 -0.2915918 -0.06324645
v -0.2155575 -0.2821957 0.0004642825
v -0.1846153 -0.3023344 0.0004642802
v -0.2101184 -0.3083553 0.0004642825
v -0.1635399 -0.2484888 -0.07958557
v -0.1581008 -0.2746484 -0.08244225
v -0.1770642 -0.2847563 -0.06247862
v -0.1825033 -0.2585967 -0.05962196
v -0.1846153 -0.3023344 0.0004642802
v -0.1900545 -0.2761748 0.0004642825
v -0.2101184 -0.3083553 0.0004642825
v -0.2155575 -0.2821957 0.0004642825
v -0.2087869 -0.2654322 -0.06038978
v -0.1846233 -0.2503021 -0.122076
v -0.1665711 -0.2398941 -0.1373924
v 0.002851973 -0.2368101 -0.07534513
v 0.008291136 -0.2436469 -0.07820179
v -0.1611319 -0.2660536 -0.1402491
v -0.1846233 -0.2503021 0.122076
v -0.1665711 -0.2398941 0.1373924
v -0.1611319 -0.2660536 0.1402491
v -0.1791841 -0.2764617 0.1249327
v -0.2087869 -0.2654322 0.06038978
v -0.1581008 -0.2746484 0.08244225
v 0.008291136 -0.2436469 0.07820179
v 0.002851973 -0.2368101 0.07534513
v -0.1635399 -0.2484888 0.07958557
v -0.1770642 -0.2847563 0.06247862
v -0.2033478 -0.2915918 0.06324645
v -0.2155575 -0.2821957 -0.0004642825
v -0.1846153 -0.3023344 -0.0004642802
v -0.2101184 -0.3083553 -0.0004642825
v -0.1635399 -0.2484888 0.07958557
v -0.1770642 -0.2847563 0.06247862
v -0.1581008 -0.2746484 0.08244225
v -0.1825033 -0.2585967 0.05962196
v -0.1846153 -0.3023344 -0.0004642802
v -0.1900545 -0.2761748 -0.0004642825
v -0.2101184 -0.3083553 -0.0004642825
v -0.2155575 -0.2821957 -0.0004642825
v -0.2087869 -0.2654322 0.06038978
v -0.1846233 -0.2503021 0.122076
v -0.1665711 -0.2398941 0.1373924
v 0.002851973 -0.2368101 0.07534513
v 0.008291136 -0.2436469 0.07820179
v -0.1611319 -0.2660536 0.1402491
vt 0.1291492 0.83407
vt 0 0.7080623
vt 0.02030117 0.737238
vt 0.1088477 0.8048943
vt 0.5675317 0.963683
vt 0.4108127 0.6918038
vt 0.4409477 0
vt 0.4612489 0.02917568
vt 0.4311139 0.7209795
vt 0.552687 0.7935226
vt 0.5472305 0.9345073
vt 1 1
vt 1 0.8340272
vt 1 0.9708244
vt 0.4311139 0.7209795
vt 0.4108127 0.6918038
vt 0.552687 0.7935226
vt 0.5729885 0.8226983
vt 1 0.8340272
vt 1 0.8632024
vt 1 0.9708244
vt 1 1
vt 0.5675317 0.963683
vt 0.1291492 0.83407
vt 0.02030117 0.737238
vt 0.4612489 0.02917568
vt 0.4409477 0
vt 0 0.7080623
vt 0.1291492 0.83407
vt 0.02030117 0.737238
vt 0 0.7080623
vt 0.1088477 0.8048943
vt 0.5675317 0.963683
vt 0.4108127 0.6918038
vt 0.4409477 0
vt 0.4612489 0.02917568
vt 0.4311139 0.7209795
vt 0.552687 0.7935226
vt 0.5472305 0.9345073
vt 1 1
vt 1 0.8340272
vt 1 0.9708244
vt 0.4311139 0.7209795
vt 0.552687 0.7935226
vt 0.4108127 0.6918038
vt 0.5729885 0.8226983
vt 1 0.8340272
vt 1 0.8632024
vt 1 0.9708244
vt 1 1
vt 0.5675317 0.963683
vt 0.1291492 0.83407
vt 0.02030117 0.737238
vt 0.4612489 0.02917568
vt 0.4409477 0
vt 0 0.7080623
vn -0.7943569 0.4891344 -0.3602007
vn -0.007208956 -0.4645874 -0.8854979
vn -0.2697891 0.7174943 -0.6421959
vn -0.372355 -0.7359025 -0.5655079
vn -0.8466032 0.5279199 -0.06755492
vn 0.4640325 -0.7710215 0.436119
vn 0.9093251 -0.4014867 -0.1092536
vn 0.7251968 0.5853793 0.3625196
vn 0.0111929 0.769573 0.6384608
vn 0.7561603 -0.6401275 0.1358624
vn -0.5409313 -0.7725245 -0.3325646
vn -0.733619 0.348013 0.5836866
vn 0.644778 -0.5337059 0.5471922
vn -0.4610817 -0.7491775 0.4755383
vn 0.0111929 0.769573 0.6384608
vn 0.4640325 -0.7710215 0.436119
vn 0.7561603 -0.6401275 0.1358624
vn 0.328691 0.8323334 0.4462996
vn 0.644778 -0.5337059 0.5471922
vn 0.408592 0.6029654 0.68519
vn -0.4610817 -0.7491775 0.4755383
vn -0.733619 0.348013 0.5836866
vn -0.8466032 0.5279199 -0.06755492
vn -0.7943569 0.4891344 -0.3602007
vn -0.2697891 0.7174943 -0.6421959
vn 0.7251968 0.5853793 0.3625196
vn 0.9093251 -0.4014867 -0.1092536
vn -0.007208956 -0.4645874 -0.8854979
vn -0.7943569 0.4891344 0.3602008
vn -0.2697892 0.7174943 0.642196
vn -0.007209027 -0.4645875 0.8854979
vn -0.372355 -0.7359024 0.5655081
vn -0.8466032 0.5279198 0.06755498
vn 0.4640325 -0.7710215 -0.4361189
vn 0.9093248 -0.4014872 0.1092541
vn 0.725197 0.5853791 -0.3625197
vn 0.01119294 0.7695729 -0.6384608
vn 0.7561601 -0.6401276 -0.1358623
vn -0.5409313 -0.7725245 0.3325647
vn -0.733619 0.3480129 -0.5836867
vn 0.644778 -0.533706 -0.5471922
vn -0.4610817 -0.7491775 -0.4755383
vn 0.01119294 0.7695729 -0.6384608
vn 0.7561601 -0.6401276 -0.1358623
vn 0.4640325 -0.7710215 -0.4361189
vn 0.3286911 0.8323334 -0.4462996
vn 0.644778 -0.533706 -0.5471922
vn 0.408592 0.6029654 -0.68519
vn -0.4610817 -0.7491775 -0.4755383
vn -0.733619 0.3480129 -0.5836867
vn -0.8466032 0.5279198 0.06755498
vn -0.7943569 0.4891344 0.3602008
vn -0.2697892 0.7174943 0.642196
vn 0.725197 0.5853791 -0.3625197
vn 0.9093248 -0.4014872 0.1092541
vn -0.007209027 -0.4645875 0.8854979
g Breard.002_0
f 3/3/3 2/2/2 1/1/1
f 2/2/2 4/4/4 1/1/1
f 1/1/1 4/4/4 5/5/5
f 2/2/2 6/6/6 4/4/4
f 2/2/2 7/7/7 6/6/6
f 6/6/6 7/7/7 8/8/8
f 9/9/9 6/6/6 8/8/8
f 4/4/4 6/6/6 10/10/10
f 4/4/4 11/11/11 5/5/5
f 4/4/4 10/10/10 11/11/11
f 5/5/5 11/11/11 12/12/12
f 13/13/13 11/11/11 10/10/10
f 11/11/11 14/14/14 12/12/12
f 14/14/14 11/11/11 13/13/13
f 17/17/17 16/16/16 15/15/15
f 18/18/18 17/17/17 15/15/15
f 19/19/19 17/17/17 18/18/18
f 20/20/20 19/19/19 18/18/18
f 21/21/21 19/19/19 20/20/20
f 22/22/22 21/21/21 20/20/20
f 23/23/23 22/22/22 20/20/20
f 23/23/23 20/20/20 18/18/18
f 18/18/18 24/24/24 23/23/23
f 15/15/15 24/24/24 18/18/18
f 15/15/15 25/25/25 24/24/24
f 26/26/26 25/25/25 15/15/15
f 26/26/26 27/27/27 25/25/25
f 27/27/27 28/28/28 25/25/25
f 31/31/31 30/30/30 29/29/29
f 32/32/32 31/31/31 29/29/29
f 32/32/32 29/29/29 33/33/33
f 34/34/34 31/31/31 32/32/32
f 35/35/35 31/31/31 34/34/34
f 35/35/35 34/34/34 36/36/36
f 34/34/34 37/37/37 36/36/36
f 34/34/34 32/32/32 38/38/38
f 39/39/39 32/32/32 33/33/33
f 38/38/38 32/32/32 39/39/39
f 39/39/39 33/33/33 40/40/40
f 39/39/39 41/41/41 38/38/38
f 42/42/42 39/39/39 40/40/40
f 39/39/39 42/42/42 41/41/41
f 45/45/45 44/44/44 43/43/43
f 44/44/44 46/46/46 43/43/43
f 44/44/44 47/47/47 46/46/46
f 47/47/47 48/48/48 46/46/46
f 47/47/47 49/49/49 48/48/48
f 49/49/49 50/50/50 48/48/48
f 50/50/50 51/51/51 48/48/48
f 48/48/48 51/51/51 46/46/46
f 52/52/52 46/46/46 51/51/51
f 52/52/52 43/43/43 46/46/46
f 53/53/53 43/43/43 52/52/52
f 53/53/53 54/54/54 43/43/43
f 55/55/55 54/54/54 53/53/53
f 56/56/56 55/55/55 53/53/53
