g Breard.000
v -0.09498651 -0.08544513 -0.2397349
v -0.1025106 -0.07305999 -0.2165286
v -0.2387732 -0.06686737 -0.2892091
v -0.04385264 -0.06687941 0.0004642859
v -0.1025106 -0.07305999 -0.2165286
v -0.09498651 -0.08544513 -0.2397349
v -0.09498651 -0.08544513 0.2397349
v -0.2387732 -0.06686737 0.2892091
v -0.1025106 -0.07305999 0.2165286
v -0.04385264 -0.06687941 -0.0004642859
v -0.09498651 -0.08544513 0.2397349
v -0.1025106 -0.07305999 0.2165286
v -0.003539801 -0.07767724 0.0004642867
v 0.009651232 -0.2337462 -0.07155127
v 0.04054797 -0.2341607 0.000381805
v -0.02096746 -0.08715205 -0.06850751
v -0.04385264 -0.06687941 0.0004642859
v -0.01797502 -0.1899075 -0.1046895
v -0.09498651 -0.08544513 -0.2397349
v -0.03315661 -0.1841899 -0.1378276
v -0.04181593 -0.08342861 -0.1499349
v -0.104281 -0.1568197 -0.2380591
v -0.1800205 -0.2913651 0.00046428
v -0.1713406 -0.2833794 -0.06209864
v -0.1775171 -0.3075781 0.00046428
v -0.1739355 -0.273787 -0.05962196
v -0.1509899 -0.2741097 -0.08222612
v -0.1549722 -0.2636791 -0.07958557
v -0.1450949 -0.2095245 -0.1089771
v -0.168377 -0.2261166 -0.1128184
v -0.1540665 -0.2641636 -0.1167554
v -0.138564 -0.2641636 -0.1131298
v -0.2131754 -0.2487429 -0.059699
v -0.2188043 -0.263595 0.0004642829
v -0.2030201 -0.3135989 0.00046428
v -0.1977381 -0.2902476 -0.06285624
v -0.1775171 -0.3075781 0.00046428
v -0.1875336 -0.2353379 -0.09373224
v -0.1713406 -0.2833794 -0.06209864
v -0.1733392 -0.2750488 -0.09729971
v -0.168377 -0.2261166 -0.1128184
v -0.1540665 -0.2641636 -0.1167554
v -0.1509899 -0.2741097 -0.08222612
v -0.138564 -0.2641636 -0.1131298
v -0.07148738 -0.2641636 -0.07828783
v -0.1549722 -0.2636791 -0.07958557
v -0.07644697 -0.1876503 -0.07534514
v -0.06819101 -0.2641636 -0.04699342
v -0.07310684 -0.1958427 -0.04398095
v 0.009651232 -0.2337462 -0.07155127
v 0.04054797 -0.2341607 0.000381805
v -0.01797502 -0.1899075 -0.1046895
v -0.06951442 -0.2867213 0.0003818132
v -0.07660814 -0.2641636 -0.04098928
v -0.08152398 -0.2029895 -0.03797681
v -0.07473099 -0.1889381 0.0004642852
v -0.143079 -0.2405699 -0.1556192
v -0.03315661 -0.1841899 -0.1378276
v -0.1496741 -0.2001471 -0.1490388
v -0.1450949 -0.2095245 -0.1089771
v -0.1843109 -0.147961 -0.2352925
v -0.1768629 -0.1776678 -0.2573145
v -0.2374776 -0.1162926 -0.2832524
v -0.104281 -0.1568197 -0.2380591
v -0.2282101 -0.1336806 -0.3019848
v -0.2487461 -0.1129066 -0.2878464
v -0.2386222 -0.1291489 -0.3082065
v -0.2608514 -0.1125198 -0.2941106
v -0.2393034 -0.07959867 -0.3109637
v -0.2680097 -0.06551196 -0.2929354
v -0.1815605 -0.08146584 -0.2888622
v -0.09498651 -0.08544513 -0.2397349
v -0.04181593 -0.08342861 -0.1499349
v -0.1815605 -0.08146584 -0.2888622
v -0.09498651 -0.08544513 -0.2397349
v -0.2387732 -0.06686737 -0.2892091
v -0.2393034 -0.07959867 -0.3109637
v -0.2680097 -0.06551196 -0.2929354
v -0.003539801 -0.07767724 -0.0004642867
v 0.04054797 -0.2341607 -0.000381805
v 0.009651232 -0.2337462 0.07155127
v -0.02096746 -0.08715205 0.06850751
v -0.04385264 -0.06687941 -0.0004642859
v -0.01797502 -0.1899075 0.1046895
v -0.09498651 -0.08544513 0.2397349
v -0.03315661 -0.1841899 0.1378276
v -0.04181593 -0.08342861 0.1499349
v -0.104281 -0.1568197 0.2380591
v -0.1800205 -0.2913651 -0.00046428
v -0.1775171 -0.3075781 -0.00046428
v -0.1713406 -0.2833794 0.06209864
v -0.1739355 -0.273787 0.05962196
v -0.1509899 -0.2741097 0.08222612
v -0.1549722 -0.2636791 0.07958557
v -0.1450949 -0.2095245 0.1089771
v -0.138564 -0.2641636 0.1131298
v -0.1540665 -0.2641636 0.1167554
v -0.168377 -0.2261166 0.1128184
v -0.2131754 -0.2487429 0.059699
v -0.2030201 -0.3135989 -0.00046428
v -0.2188043 -0.263595 -0.0004642829
v -0.1977381 -0.2902476 0.06285624
v -0.1775171 -0.3075781 -0.00046428
v -0.1875336 -0.2353379 0.09373224
v -0.1713406 -0.2833794 0.06209864
v -0.1733392 -0.2750488 0.09729971
v -0.168377 -0.2261166 0.1128184
v -0.1540665 -0.2641636 0.1167554
v -0.1509899 -0.2741097 0.08222612
v -0.138564 -0.2641636 0.1131298
v -0.07148738 -0.2641636 0.07828783
v -0.1549722 -0.2636791 0.07958557
v -0.07644697 -0.1876503 0.07534514
v -0.06819101 -0.2641636 0.04699342
v -0.07310684 -0.1958427 0.04398095
v 0.009651232 -0.2337462 0.07155127
v 0.04054797 -0.2341607 -0.000381805
v -0.01797502 -0.1899075 0.1046895
v -0.06951442 -0.2867213 -0.0003818132
v -0.07660814 -0.2641636 0.04098928
v -0.08152398 -0.2029895 0.03797681
v -0.07473099 -0.1889381 -0.0004642852
v -0.143079 -0.2405699 0.1556192
v -0.03315661 -0.1841899 0.1378276
v -0.1496741 -0.2001471 0.1490388
v -0.1450949 -0.2095245 0.1089771
v -0.1843109 -0.147961 0.2352925
v -0.1768629 -0.1776678 0.2573145
v -0.2374776 -0.1162926 0.2832524
v -0.104281 -0.1568197 0.2380591
v -0.2282101 -0.1336806 0.3019848
v -0.2487461 -0.1129066 0.2878464
v -0.2386222 -0.1291489 0.3082065
v -0.2608514 -0.1125198 0.2941106
v -0.2393034 -0.07959867 0.3109637
v -0.2680097 -0.06551196 0.2929354
v -0.1815605 -0.08146584 0.2888622
v -0.09498651 -0.08544513 0.2397349
v -0.04181593 -0.08342861 0.1499349
v -0.1815605 -0.08146584 0.2888622
v -0.2387732 -0.06686737 0.2892091
v -0.09498651 -0.08544513 0.2397349
v -0.2393034 -0.07959867 0.3109637
v -0.2680097 -0.06551196 0.2929354
vt 0.209061 0.4392518
vt 0.5349272 0.5893903
vt 0.06985449 0.905248
vt 1 0.2735327
vt 0.5349272 0.5893903
vt 0.209061 0.4392518
vt 0.209061 0.4392518
vt 0.06985449 0.905248
vt 0.5349272 0.5893903
vt 1 0.2735327
vt 0.209061 0.4392518
vt 0.5349272 0.5893903
vt 1 0.1428833
vt 0.768757 0.100133
vt 0.9997354 0
vt 0.7785305 0.1993644
vt 1 0.2735327
vt 0.6623498 0.1896663
vt 0.209061 0.4392518
vt 0.5559427 0.2388682
vt 0.5170659 0.266932
vt 0.2144419 0.4693744
vt 1 0.7148374
vt 0.7991098 0.6867068
vt 1 0.7067239
vt 0.8070623 0.6951166
vt 0.73448 0.6207523
vt 0.7429588 0.6336586
vt 0.648582 0.6016474
vt 0.6362478 0.677102
vt 0.6236057 0.6307233
vt 0.6352477 0.5804814
vt 0.8068149 0.8222884
vt 1 0.8405312
vt 1 0.789376
vt 0.796677 0.772258
vt 1 0.7067239
vt 0.6975336 0.7391862
vt 0.7991098 0.6867068
vt 0.6860785 0.6931842
vt 0.6362478 0.677102
vt 0.6236057 0.6307233
vt 0.73448 0.6207523
vt 0.6352477 0.5804814
vt 0.7471257 0.3630938
vt 0.7429588 0.6336586
vt 0.7565749 0.379167
vt 0.8476126 0.3524104
vt 0.8572857 0.3683421
vt 0.768757 0.100133
vt 0.9997354 0
vt 0.6623498 0.1896663
vt 0.9997354 0.3566996
vt 0.8668921 0.3796896
vt 0.8765651 0.3956213
vt 1 0.3736059
vt 0.4988135 0.5951142
vt 0.5559427 0.2388682
vt 0.5199435 0.6164881
vt 0.648582 0.6016474
vt 0.2429817 0.7287419
vt 0.1722685 0.7046041
vt 0.08898147 0.9010491
vt 0.2144419 0.4693744
vt 0.02883162 0.8710144
vt 0.07423031 0.9375691
vt 0.008853639 0.9047586
vt 0.0541159 0.9768007
vt 0 0.9069661
vt 0.05788931 1
vt 0.0709682 0.7198284
vt 0.209061 0.4392518
vt 0.5170659 0.266932
vt 0.0709682 0.7198284
vt 0.209061 0.4392518
vt 0.06985449 0.905248
vt 0 0.9069661
vt 0.05788931 1
vt 1 0.1428833
vt 0.9997354 0
vt 0.768757 0.100133
vt 0.7785305 0.1993644
vt 1 0.2735327
vt 0.6623498 0.1896663
vt 0.209061 0.4392518
vt 0.5559427 0.2388682
vt 0.5170659 0.266932
vt 0.2144419 0.4693744
vt 1 0.7148374
vt 1 0.7067239
vt 0.7991098 0.6867068
vt 0.8070623 0.6951166
vt 0.73448 0.6207523
vt 0.7429588 0.6336586
vt 0.648582 0.6016474
vt 0.6352477 0.5804814
vt 0.6236057 0.6307233
vt 0.6362478 0.677102
vt 0.8068149 0.8222884
vt 1 0.789376
vt 1 0.8405312
vt 0.796677 0.772258
vt 1 0.7067239
vt 0.6975336 0.7391862
vt 0.7991098 0.6867068
vt 0.6860785 0.6931842
vt 0.6362478 0.677102
vt 0.6236057 0.6307233
vt 0.73448 0.6207523
vt 0.6352477 0.5804814
vt 0.7471257 0.3630938
vt 0.7429588 0.6336586
vt 0.7565749 0.379167
vt 0.8476126 0.3524104
vt 0.8572857 0.3683421
vt 0.768757 0.100133
vt 0.9997354 0
vt 0.6623498 0.1896663
vt 0.9997354 0.3566996
vt 0.8668921 0.3796896
vt 0.8765651 0.3956213
vt 1 0.3736059
vt 0.4988135 0.5951142
vt 0.5559427 0.2388682
vt 0.5199435 0.6164881
vt 0.648582 0.6016474
vt 0.2429817 0.7287419
vt 0.1722685 0.7046041
vt 0.08898147 0.9010491
vt 0.2144419 0.4693744
vt 0.02883162 0.8710144
vt 0.07423031 0.9375691
vt 0.008853639 0.9047586
vt 0.0541159 0.9768007
vt 0 0.9069661
vt 0.05788931 1
vt 0.0709682 0.7198284
vt 0.209061 0.4392518
vt 0.5170659 0.266932
vt 0.0709682 0.7198284
vt 0.06985449 0.905248
vt 0.209061 0.4392518
vt 0 0.9069661
vt 0.05788931 1
vn 0.2492515 0.8856261 -0.391842
vn 0.2492515 0.8856261 -0.391842
vn 0.2492515 0.8856261 -0.391842
vn 0.6353549 0.7477012 -0.193047
vn 0.6353549 0.7477012 -0.193047
vn 0.6353549 0.7477012 -0.193047
vn 0.2492515 0.8856261 0.391842
vn 0.2492515 0.8856261 0.391842
vn 0.2492515 0.8856261 0.391842
vn 0.6353549 0.7477012 0.193047
vn 0.6353549 0.7477012 0.193047
vn 0.6353549 0.7477012 0.193047
vn 0.6906672 0.6560007 -0.3043713
vn 0.7279889 -0.4774691 -0.4919913
vn 0.8575402 -0.3706168 -0.3567464
vn 0.7319005 0.6216772 -0.2789968
vn 0.2896756 0.9400125 -0.1801787
vn 0.7903379 -0.1898808 -0.5825043
vn 0.7082518 0.05685054 -0.703667
vn 0.7748768 -0.3949116 -0.4935695
vn 0.5823588 0.7599737 -0.2886143
vn 0.5946618 -0.385091 -0.7057495
vn 0.9715759 0.1768485 0.1573685
vn 0.7540181 -0.6523955 0.07639843
vn 0.7437937 -0.6451547 -0.1747752
vn 0.881196 0.1187499 0.4575939
vn 0.4162484 -0.8398955 0.3482999
vn 0.3358933 -0.01502568 0.9417801
vn -0.8515391 -0.06645259 -0.5200627
vn -0.2506002 -0.01572798 -0.967963
vn -0.1269136 -0.485058 -0.8652235
vn 0.07915615 -0.7534264 -0.6527502
vn -0.8603735 -0.2716042 -0.4312639
vn -0.9330127 -0.3121558 -0.1790139
vn -0.4211668 -0.8404855 -0.3408849
vn -0.4830214 -0.7461806 -0.4581538
vn 0.7437937 -0.6451547 -0.1747752
vn -0.6987575 -0.1933385 -0.6887367
vn 0.7540181 -0.6523955 0.07639843
vn -0.3221571 -0.7204186 -0.6141757
vn -0.2506002 -0.01572798 -0.967963
vn -0.1269136 -0.485058 -0.8652235
vn 0.4162484 -0.8398955 0.3482999
vn 0.07915615 -0.7534264 -0.6527502
vn -0.09546578 -0.9934656 0.06254852
vn 0.3358933 -0.01502568 0.9417801
vn -0.802813 -0.09108959 0.5892317
vn -0.3153789 -0.8310475 -0.4581442
vn -0.9597036 -0.05412849 -0.2757518
vn 0.7279889 -0.4774691 -0.4919913
vn 0.8575402 -0.3706168 -0.3567464
vn 0.7903379 -0.1898808 -0.5825043
vn -0.3691665 -0.8870941 -0.2770922
vn -0.8064949 -0.4165391 -0.4195965
vn -0.9142435 -0.04128597 -0.4030564
vn -0.9842178 -0.06593432 0.1642193
vn -0.4193287 -0.8361742 -0.3535196
vn 0.7748768 -0.3949116 -0.4935695
vn -0.9687344 -0.2129023 0.1273831
vn -0.8515391 -0.06645259 -0.5200627
vn -0.8574134 -0.4317064 0.2801283
vn -0.3076494 -0.7848827 -0.5378764
vn -0.6083527 -0.6873679 0.3967775
vn 0.5946618 -0.385091 -0.7057495
vn -0.2027071 -0.8010293 -0.5632601
vn -0.3828116 -0.7966518 0.4677618
vn -0.2980536 -0.7063362 -0.6420696
vn -0.6871064 -0.4497824 -0.5705968
vn -0.03380528 0.367224 -0.929518
vn -0.3432437 0.4005656 -0.8495475
vn 0.409843 0.4470034 -0.7951205
vn 0.7082518 0.05685054 -0.703667
vn 0.5823588 0.7599737 -0.2886143
vn 0.409843 0.4470034 -0.7951205
vn 0.7082518 0.05685054 -0.703667
vn 0.1690958 0.8579019 -0.4851918
vn -0.03380528 0.367224 -0.929518
vn -0.3432437 0.4005656 -0.8495475
vn 0.6906672 0.6560006 0.3043714
vn 0.8575402 -0.3706167 0.3567465
vn 0.7279889 -0.4774691 0.4919913
vn 0.7319005 0.6216771 0.2789968
vn 0.2896756 0.9400125 0.1801787
vn 0.7903379 -0.1898808 0.5825044
vn 0.7082518 0.05685055 0.703667
vn 0.7748768 -0.3949115 0.4935695
vn 0.5823588 0.7599737 0.2886143
vn 0.5946618 -0.3850909 0.7057495
vn 0.9715759 0.1768485 -0.1573685
vn 0.7437937 -0.6451548 0.1747751
vn 0.7540181 -0.6523955 -0.07639862
vn 0.8811959 0.1187497 -0.4575939
vn 0.4162482 -0.8398955 -0.3483
vn 0.3358932 -0.01502585 -0.9417803
vn -0.8515391 -0.06645263 0.5200627
vn 0.07915616 -0.7534264 0.6527503
vn -0.1269136 -0.485058 0.8652235
vn -0.2506002 -0.01572799 0.967963
vn -0.8603735 -0.2716042 0.4312639
vn -0.4211669 -0.8404855 0.3408848
vn -0.9330128 -0.3121557 0.179014
vn -0.4830215 -0.7461805 0.4581537
vn 0.7437937 -0.6451548 0.1747751
vn -0.6987575 -0.1933386 0.6887366
vn 0.7540181 -0.6523955 -0.07639862
vn -0.322157 -0.7204187 0.6141757
vn -0.2506002 -0.01572799 0.967963
vn -0.1269136 -0.485058 0.8652235
vn 0.4162482 -0.8398955 -0.3483
vn 0.07915616 -0.7534264 0.6527503
vn -0.09546582 -0.9934656 -0.06254845
vn 0.3358932 -0.01502585 -0.9417803
vn -0.802813 -0.09108959 -0.5892317
vn -0.3153789 -0.8310475 0.4581442
vn -0.9597036 -0.05412849 0.2757518
vn 0.7279889 -0.4774691 0.4919913
vn 0.8575402 -0.3706167 0.3567465
vn 0.7903379 -0.1898808 0.5825044
vn -0.3691665 -0.8870941 0.2770922
vn -0.8064949 -0.416539 0.4195965
vn -0.9142433 -0.04128594 0.4030564
vn -0.9842178 -0.06593427 -0.1642193
vn -0.4193287 -0.8361742 0.3535196
vn 0.7748768 -0.3949115 0.4935695
vn -0.9687344 -0.2129024 -0.1273831
vn -0.8515391 -0.06645263 0.5200627
vn -0.8574134 -0.4317064 -0.2801283
vn -0.3076495 -0.7848826 0.5378764
vn -0.6083527 -0.6873678 -0.3967775
vn 0.5946618 -0.3850909 0.7057495
vn -0.2027073 -0.8010292 0.5632601
vn -0.3828117 -0.7966518 -0.4677618
vn -0.2980537 -0.7063361 0.6420695
vn -0.6871064 -0.4497824 0.5705967
vn -0.03380534 0.3672239 0.929518
vn -0.3432437 0.4005656 0.8495475
vn 0.409843 0.4470034 0.7951205
vn 0.7082518 0.05685055 0.703667
vn 0.5823588 0.7599737 0.2886143
vn 0.409843 0.4470034 0.7951205
vn 0.1690958 0.8579019 0.4851918
vn 0.7082518 0.05685055 0.703667
vn -0.03380534 0.3672239 0.929518
vn -0.3432437 0.4005656 0.8495475
g Breard.000_0
f 3/3/3 2/2/2 1/1/1
f 6/6/6 5/5/5 4/4/4
f 9/9/9 8/8/8 7/7/7
f 12/12/12 11/11/11 10/10/10
f 15/15/15 14/14/14 13/13/13
f 14/14/14 16/16/16 13/13/13
f 13/13/13 16/16/16 17/17/17
f 14/14/14 18/18/18 16/16/16
f 16/16/16 19/19/19 17/17/17
f 18/18/18 20/20/20 16/16/16
f 21/21/21 19/19/19 16/16/16
f 20/20/20 21/21/21 16/16/16
f 20/20/20 22/22/22 21/21/21
f 25/25/25 24/24/24 23/23/23
f 24/24/24 26/26/26 23/23/23
f 24/24/24 27/27/27 26/26/26
f 27/27/27 28/28/28 26/26/26
f 31/31/31 30/30/30 29/29/29
f 32/32/32 31/31/31 29/29/29
f 35/35/35 34/34/34 33/33/33
f 36/36/36 35/35/35 33/33/33
f 35/35/35 36/36/36 37/37/37
f 36/36/36 33/33/33 38/38/38
f 36/36/36 39/39/39 37/37/37
f 40/40/40 36/36/36 38/38/38
f 36/36/36 40/40/40 39/39/39
f 40/40/40 38/38/38 41/41/41
f 42/42/42 40/40/40 41/41/41
f 39/39/39 40/40/40 43/43/43
f 40/40/40 42/42/42 43/43/43
f 42/42/42 44/44/44 43/43/43
f 45/45/45 43/43/43 44/44/44
f 43/43/43 45/45/45 46/46/46
f 45/45/45 47/47/47 46/46/46
f 45/45/45 48/48/48 47/47/47
f 48/48/48 49/49/49 47/47/47
f 50/50/50 45/45/45 44/44/44
f 48/48/48 45/45/45 50/50/50
f 51/51/51 48/48/48 50/50/50
f 52/52/52 50/50/50 44/44/44
f 53/53/53 48/48/48 51/51/51
f 48/48/48 54/54/54 49/49/49
f 54/54/54 48/48/48 53/53/53
f 54/54/54 55/55/55 49/49/49
f 54/54/54 53/53/53 55/55/55
f 53/53/53 56/56/56 55/55/55
f 52/52/52 44/44/44 57/57/57
f 58/58/58 52/52/52 57/57/57
f 57/57/57 44/44/44 59/59/59
f 44/44/44 60/60/60 59/59/59
f 57/57/57 59/59/59 61/61/61
f 58/58/58 57/57/57 62/62/62
f 62/62/62 57/57/57 61/61/61
f 62/62/62 61/61/61 63/63/63
f 64/64/64 58/58/58 62/62/62
f 65/65/65 62/62/62 63/63/63
f 62/62/62 65/65/65 64/64/64
f 63/63/63 66/66/66 65/65/65
f 66/66/66 67/67/67 65/65/65
f 68/68/68 67/67/67 66/66/66
f 67/67/67 68/68/68 69/69/69
f 68/68/68 70/70/70 69/69/69
f 69/69/69 71/71/71 67/67/67
f 71/71/71 65/65/65 67/67/67
f 65/65/65 71/71/71 64/64/64
f 71/71/71 72/72/72 64/64/64
f 73/73/73 64/64/64 72/72/72
f 76/76/76 75/75/75 74/74/74
f 76/76/76 74/74/74 77/77/77
f 77/77/77 78/78/78 76/76/76
f 81/81/81 80/80/80 79/79/79
f 82/82/82 81/81/81 79/79/79
f 82/82/82 79/79/79 83/83/83
f 84/84/84 81/81/81 82/82/82
f 85/85/85 82/82/82 83/83/83
f 86/86/86 84/84/84 82/82/82
f 85/85/85 87/87/87 82/82/82
f 87/87/87 86/86/86 82/82/82
f 88/88/88 86/86/86 87/87/87
f 91/91/91 90/90/90 89/89/89
f 92/92/92 91/91/91 89/89/89
f 93/93/93 91/91/91 92/92/92
f 94/94/94 93/93/93 92/92/92
f 97/97/97 96/96/96 95/95/95
f 98/98/98 97/97/97 95/95/95
f 101/101/101 100/100/100 99/99/99
f 100/100/100 102/102/102 99/99/99
f 102/102/102 100/100/100 103/103/103
f 99/99/99 102/102/102 104/104/104
f 105/105/105 102/102/102 103/103/103
f 102/102/102 106/106/106 104/104/104
f 106/106/106 102/102/102 105/105/105
f 104/104/104 106/106/106 107/107/107
f 106/106/106 108/108/108 107/107/107
f 106/106/106 105/105/105 109/109/109
f 108/108/108 106/106/106 109/109/109
f 110/110/110 108/108/108 109/109/109
f 109/109/109 111/111/111 110/110/110
f 111/111/111 109/109/109 112/112/112
f 113/113/113 111/111/111 112/112/112
f 114/114/114 111/111/111 113/113/113
f 115/115/115 114/114/114 113/113/113
f 111/111/111 116/116/116 110/110/110
f 111/111/111 114/114/114 116/116/116
f 114/114/114 117/117/117 116/116/116
f 116/116/116 118/118/118 110/110/110
f 114/114/114 119/119/119 117/117/117
f 120/120/120 114/114/114 115/115/115
f 114/114/114 120/120/120 119/119/119
f 121/121/121 120/120/120 115/115/115
f 119/119/119 120/120/120 121/121/121
f 122/122/122 119/119/119 121/121/121
f 110/110/110 118/118/118 123/123/123
f 118/118/118 124/124/124 123/123/123
f 110/110/110 123/123/123 125/125/125
f 126/126/126 110/110/110 125/125/125
f 125/125/125 123/123/123 127/127/127
f 123/123/123 124/124/124 128/128/128
f 123/123/123 128/128/128 127/127/127
f 127/127/127 128/128/128 129/129/129
f 124/124/124 130/130/130 128/128/128
f 128/128/128 131/131/131 129/129/129
f 131/131/131 128/128/128 130/130/130
f 132/132/132 129/129/129 131/131/131
f 133/133/133 132/132/132 131/131/131
f 133/133/133 134/134/134 132/132/132
f 134/134/134 133/133/133 135/135/135
f 136/136/136 134/134/134 135/135/135
f 137/137/137 135/135/135 133/133/133
f 131/131/131 137/137/137 133/133/133
f 137/137/137 131/131/131 130/130/130
f 138/138/138 137/137/137 130/130/130
f 130/130/130 139/139/139 138/138/138
f 142/142/142 141/141/141 140/140/140
f 140/140/140 141/141/141 143/143/143
f 144/144/144 143/143/143 141/141/141
