g Cube
v 0.7056129 -0.03665842 0.003099941
v 0.9775819 -0.2275799 0.04898842
v 1.136826 0.1010655 0.04694727
v 0.8871733 -0.01621562 0.003099963
v 0.5651988 0.09462402 0.003099978
v 0.8749792 0.3661716 0.0031
v 0.9955393 0.3787387 0.05050696
v 0.4737167 0.1135004 0.003100016
v 0.6719645 0.6836824 0.003100038
v -0.02262964 0.1204026 0.003100069
v 0.662398 0.7094689 0.05406665
v -0.001774552 0.8104613 0.0005384409
v -0.2429974 0.1324908 0.00310012
v -0.002255129 0.7972335 0.08084702
v -0.4339046 0.6789923 0.0005384833
v -0.3423357 0.03261731 0.004141323
v -0.004460466 0.7650176 0.1108141
v 0.6521466 0.6861026 0.1201396
v -0.4274091 0.6939673 0.111043
v -0.4906549 0.6740443 0.08084702
v -0.8423602 0.1718705 5.935878E-05
v -0.4674959 -0.1747419 0.005182527
v -0.8826901 0.1424935 0.08212784
v -0.7425061 0.4444019 0.1202419
v -0.8314146 -0.03636051 0.03488887
v -0.716687 -0.3973261 0.005796917
v -0.8730885 -0.04647839 0.1187173
v -0.8951578 0.1189986 0.1294407
v -0.3423357 0.03261731 0.004141323
v -0.4674959 -0.1747419 0.005182527
v -0.716687 -0.3973261 0.005796917
v -0.422648 0.1233365 0.05443563
v -0.2429974 0.1324908 0.00310012
v -0.779545 -0.04727114 0.1300692
v -0.8730885 -0.04647839 0.1187173
v -0.8951578 0.1189986 0.1294407
v -0.2363506 0.3233285 0.1030743
v -0.5347638 0.2796862 0.109806
v -0.005419956 0.3670161 0.08340874
v -0.02262964 0.1204026 0.003100069
v 0.4993355 0.2881415 0.08340856
v 0.4737167 0.1135004 0.003100016
v 0.5651988 0.09462402 0.003099978
v 0.6397539 0.1685955 0.04649012
v 0.7056129 -0.03665842 0.003099941
v 0.9775819 -0.2275799 0.04898842
v 0.5119385 0.4275183 0.1250161
v -0.01000714 0.5018112 0.1249376
v -0.2605995 0.4781629 0.1248514
v 0.7036915 0.2536738 0.1177644
v -0.2821489 0.6086123 0.1310592
v -0.0004262973 0.6234759 0.1599641
v 0.5379493 0.5447413 0.159964
v 0.8405203 0.3928738 0.1558405
v -0.5943239 0.4368089 0.1438017
v -0.7677888 0.1369235 0.1565441
v -0.8650446 0.1456227 0.1554871
v -0.7425061 0.4444019 0.1202419
v -0.6800147 0.4771851 0.151272
v -0.4274091 0.6939673 0.111043
v -0.3261555 0.6943508 0.147057
v -0.004460466 0.7650176 0.1108141
v -0.006138199 0.7186394 0.1432161
v 0.6521466 0.6861026 0.1201396
v 0.5633123 0.6195226 0.1470569
v 0.9260915 0.4444977 0.1211573
v 0.662398 0.7094689 0.05406665
v 0.9955393 0.3787387 0.05050696
v 0.8601196 0.4579769 0.1444467
v 0.9084687 0.1672057 0.1480461
v 1.136826 0.1010655 0.04694727
v 0.9202099 0.1255632 0.151717
v 0.9138615 -0.08853725 0.136384
v 0.9585627 0.1677847 0.1418364
vt 0.8962851 0.321014
vt 0.8965936 0.3214452
vt 0.8958179 0.3222069
vt 0.8958053 0.3216623
vt 0.8955485 0.3212385
vt 0.8953593 0.3221447
vt 0.8954079 0.3224509
vt 0.8948119 0.3214629
vt 0.8949136 0.3226273
vt 0.8941541 0.3215214
vt 0.894998 0.3226949
vt 0.894195 0.3228081
vt 0.8934864 0.321438
vt 0.894194 0.3227923
vt 0.8934101 0.3225417
vt 0.8928939 0.3212855
vt 0.8941905 0.3228678
vt 0.8948753 0.3227577
vt 0.8934325 0.3226987
vt 0.8933019 0.3225991
vt 0.8930516 0.3221654
vt 0.8923015 0.321133
vt 0.8928486 0.3222781
vt 0.8931479 0.3225465
vt 0.8926932 0.3217891
vt 0.8918985 0.3211904
vt 0.8923954 0.321957
vt 0.8928633 0.3223943
vt 0.8928939 0.3212855
vt 0.8923015 0.321133
vt 0.8918985 0.3211904
vt 0.8926779 0.3216331
vt 0.8934864 0.321438
vt 0.8924906 0.3218629
vt 0.8923954 0.321957
vt 0.8928633 0.3223943
vt 0.8934573 0.3220758
vt 0.8930463 0.322063
vt 0.8942178 0.3221695
vt 0.8941541 0.3215214
vt 0.895007 0.3221033
vt 0.8948119 0.3214629
vt 0.8955485 0.3212385
vt 0.8958002 0.3217742
vt 0.8962851 0.321014
vt 0.8965936 0.3214452
vt 0.8948397 0.3222852
vt 0.8942094 0.322338
vt 0.8936021 0.3222632
vt 0.8952886 0.3220942
vt 0.8937224 0.3224609
vt 0.8941986 0.3225198
vt 0.8946793 0.3224797
vt 0.8948901 0.3224041
vt 0.8935227 0.3223841
vt 0.8933232 0.3223073
vt 0.8931657 0.3224171
vt 0.8931479 0.3225465
vt 0.893393 0.3225269
vt 0.8934325 0.3226987
vt 0.8936204 0.3226368
vt 0.8941905 0.3228678
vt 0.8941875 0.3227091
vt 0.8948753 0.3227577
vt 0.8946987 0.3226713
vt 0.8952069 0.3224904
vt 0.894998 0.3226949
vt 0.8954079 0.3224509
vt 0.8949044 0.3225541
vt 0.8955386 0.322223
vt 0.8958179 0.3222069
vt 0.8951008 0.3223286
vt 0.8957375 0.3219033
vt 0.8951102 0.322437
vn -0.6388308 -0.7232473 -0.2623138
vn 0.2818463 -0.9473207 0.152139
vn 0.9895169 -0.04568692 -0.1369997
vn 0.1198787 -0.06280813 -0.9907998
vn -0.4628552 -0.8476726 -0.2592611
vn 0.2335943 0.1598904 -0.9590979
vn 0.8829755 0.4460962 -0.1461249
vn -0.1603763 -0.9639972 -0.2121056
vn 0.2686612 0.4643508 -0.8439191
vn 0.05466025 -0.9805884 -0.1883047
vn 0.4034011 0.9150227 -0.001007129
vn -0.03933879 0.7315977 -0.6806006
vn 0.4126774 -0.861062 -0.2971021
vn -0.04696877 0.9770358 0.2078345
vn -0.3396847 0.6483613 -0.6813531
vn 0.573208 -0.7919377 -0.210398
vn -0.03396807 0.7798312 0.6250675
vn 0.3311995 0.663986 0.6703951
vn -0.3384911 0.8168833 0.467039
vn -0.6004646 0.6947383 -0.3959557
vn -0.5739787 0.211469 -0.7910938
vn 0.3407479 -0.9337987 -0.109137
vn -0.9270784 0.2005715 -0.3166966
vn -0.8048518 0.5923467 0.03659249
vn -0.4248822 -0.07428268 -0.9021958
vn -0.2581276 -0.9654303 -0.03625628
vn -0.8665106 -0.3602221 0.3455422
vn -0.8211904 0.1080088 0.5603396
vn 0.573208 -0.7919377 -0.210398
vn 0.3407479 -0.9337987 -0.109137
vn -0.2581276 -0.9654303 -0.03625628
vn 0.2281006 -0.2659749 0.9366041
vn 0.4126774 -0.861062 -0.2971021
vn 0.06988901 -0.2376532 0.9688326
vn -0.8665106 -0.3602221 0.3455422
vn -0.8211904 0.1080088 0.5603396
vn 0.0872541 -0.283675 0.9549426
vn 0.182964 -0.1706341 0.9681985
vn 0.0137335 -0.3034799 0.9527388
vn 0.05466025 -0.9805884 -0.1883047
vn -0.10999 -0.357437 0.9274379
vn -0.1603763 -0.9639972 -0.2121056
vn -0.4628552 -0.8476726 -0.2592611
vn -0.3406226 -0.3983035 0.8516634
vn -0.6388308 -0.7232473 -0.2623138
vn 0.2818463 -0.9473207 0.152139
vn -0.0915269 -0.2723223 0.9578431
vn -0.0150457 -0.2313619 0.9727515
vn 0.03799624 -0.1690146 0.9848808
vn -0.2778199 -0.271777 0.9213867
vn 0.01245169 -0.08935919 0.9959216
vn -0.0228896 -0.05810907 0.9980478
vn -0.003479178 -0.0236523 0.9997142
vn 0.0603672 0.004791533 0.9981647
vn 0.09656118 -0.08447577 0.9917358
vn 0.08356234 -0.1080084 0.9906318
vn -0.3625673 0.07678615 0.928789
vn -0.8048518 0.5923467 0.03659249
vn -0.2571243 0.3252737 0.9099913
vn -0.3384911 0.8168833 0.467039
vn -0.08148619 0.4288249 0.8997052
vn -0.03396807 0.7798312 0.6250675
vn -0.01681608 0.3741043 0.9272342
vn 0.3311995 0.663986 0.6703951
vn 0.08255535 0.2838012 0.9553227
vn 0.7023069 0.447594 0.5535564
vn 0.4034011 0.9150227 -0.001007129
vn 0.8829755 0.4460962 -0.1461249
vn 0.285478 0.2052426 0.9361506
vn 0.8425981 0.07373382 0.5334715
vn 0.9895169 -0.04568692 -0.1369997
vn 0.1752705 -0.1199396 0.9771871
vn -0.1145362 -0.3308517 0.9367062
vn 0.638101 0.1109383 0.7619185
g Cube_0
f 3/3/3 2/2/2 1/1/1
f 4/4/4 3/3/3 1/1/1
f 4/4/4 1/1/1 5/5/5
f 3/3/3 4/4/4 6/6/6
f 6/6/6 4/4/4 5/5/5
f 7/7/7 3/3/3 6/6/6
f 6/6/6 5/5/5 8/8/8
f 7/7/7 6/6/6 9/9/9
f 9/9/9 6/6/6 8/8/8
f 9/9/9 8/8/8 10/10/10
f 11/11/11 7/7/7 9/9/9
f 12/12/12 9/9/9 10/10/10
f 12/12/12 10/10/10 13/13/13
f 11/11/11 9/9/9 14/14/14
f 9/9/9 12/12/12 14/14/14
f 15/15/15 12/12/12 13/13/13
f 13/13/13 16/16/16 15/15/15
f 11/11/11 14/14/14 17/17/17
f 18/18/18 11/11/11 17/17/17
f 17/17/17 14/14/14 19/19/19
f 14/14/14 12/12/12 20/20/20
f 12/12/12 15/15/15 20/20/20
f 14/14/14 20/20/20 19/19/19
f 16/16/16 21/21/21 15/15/15
f 15/15/15 21/21/21 20/20/20
f 16/16/16 22/22/22 21/21/21
f 20/20/20 23/23/23 19/19/19
f 21/21/21 23/23/23 20/20/20
f 23/23/23 24/24/24 19/19/19
f 22/22/22 25/25/25 21/21/21
f 21/21/21 25/25/25 23/23/23
f 25/25/25 22/22/22 26/26/26
f 27/27/27 25/25/25 26/26/26
f 25/25/25 27/27/27 23/23/23
f 23/23/23 27/27/27 24/24/24
f 27/27/27 28/28/28 24/24/24
f 31/31/31 30/30/30 29/29/29
f 32/32/32 31/31/31 29/29/29
f 32/32/32 29/29/29 33/33/33
f 34/34/34 31/31/31 32/32/32
f 35/35/35 31/31/31 34/34/34
f 36/36/36 35/35/35 34/34/34
f 37/37/37 32/32/32 33/33/33
f 38/38/38 34/34/34 32/32/32
f 38/38/38 32/32/32 37/37/37
f 37/37/37 33/33/33 39/39/39
f 33/33/33 40/40/40 39/39/39
f 39/39/39 40/40/40 41/41/41
f 40/40/40 42/42/42 41/41/41
f 42/42/42 43/43/43 41/41/41
f 43/43/43 44/44/44 41/41/41
f 43/43/43 45/45/45 44/44/44
f 45/45/45 46/46/46 44/44/44
f 39/39/39 41/41/41 47/47/47
f 41/41/41 44/44/44 47/47/47
f 37/37/37 39/39/39 48/48/48
f 48/48/48 39/39/39 47/47/47
f 49/49/49 38/38/38 37/37/37
f 49/49/49 37/37/37 48/48/48
f 44/44/44 46/46/46 50/50/50
f 44/44/44 50/50/50 47/47/47
f 49/49/49 51/51/51 38/38/38
f 48/48/48 52/52/52 49/49/49
f 52/52/52 51/51/51 49/49/49
f 47/47/47 53/53/53 48/48/48
f 53/53/53 52/52/52 48/48/48
f 47/47/47 50/50/50 54/54/54
f 53/53/53 47/47/47 54/54/54
f 51/51/51 55/55/55 38/38/38
f 38/38/38 55/55/55 34/34/34
f 55/55/55 56/56/56 34/34/34
f 34/34/34 56/56/56 36/36/36
f 56/56/56 57/57/57 36/36/36
f 57/57/57 56/56/56 55/55/55
f 58/58/58 36/36/36 57/57/57
f 59/59/59 57/57/57 55/55/55
f 59/59/59 58/58/58 57/57/57
f 59/59/59 55/55/55 51/51/51
f 60/60/60 58/58/58 59/59/59
f 61/61/61 59/59/59 51/51/51
f 61/61/61 60/60/60 59/59/59
f 61/61/61 51/51/51 52/52/52
f 60/60/60 61/61/61 62/62/62
f 63/63/63 61/61/61 52/52/52
f 61/61/61 63/63/63 62/62/62
f 63/63/63 52/52/52 53/53/53
f 62/62/62 63/63/63 64/64/64
f 65/65/65 63/63/63 53/53/53
f 63/63/63 65/65/65 64/64/64
f 53/53/53 54/54/54 65/65/65
f 66/66/66 64/64/64 65/65/65
f 64/64/64 66/66/66 67/67/67
f 66/66/66 68/68/68 67/67/67
f 54/54/54 69/69/69 65/65/65
f 69/69/69 66/66/66 65/65/65
f 66/66/66 70/70/70 68/68/68
f 70/70/70 66/66/66 69/69/69
f 70/70/70 71/71/71 68/68/68
f 71/71/71 70/70/70 46/46/46
f 54/54/54 72/72/72 69/69/69
f 54/54/54 50/50/50 72/72/72
f 46/46/46 73/73/73 50/50/50
f 70/70/70 73/73/73 46/46/46
f 50/50/50 73/73/73 72/72/72
f 74/74/74 70/70/70 69/69/69
f 72/72/72 74/74/74 69/69/69
f 73/73/73 70/70/70 74/74/74
f 72/72/72 73/73/73 74/74/74
