g Icecream.004
v -0.07593005 -0.07186964 1.090185
v -0.09167925 5.680239E-10 1.074435
v -0.1247304 -1.306123E-09 1.162054
v -0.09167925 -0.08761885 1.162054
v -0.09167925 -5.029172E-10 1.249673
v -0.00406041 -0.08761884 1.074435
v -0.004060408 -3.690495E-10 1.041384
v -0.07593005 -0.07186964 1.233924
v -0.004060408 -1.573858E-09 1.282724
v -0.004060409 -0.12067 1.162054
v 0.06780923 -0.07186964 1.090185
v 0.08355843 -1.975461E-09 1.074435
v -0.004060408 -0.08761884 1.249673
v 0.08355843 1.66421E-10 1.249673
v 0.08355844 -0.08761885 1.162054
v 0.1166096 -1.439991E-09 1.162054
v 0.06780922 -0.07186964 1.233924
v 0.06780923 0.07186964 1.090185
v 0.08355843 -1.975461E-09 1.074435
v 0.1166096 -1.439991E-09 1.162054
v 0.08355843 0.08761885 1.162054
v 0.08355843 1.66421E-10 1.249673
v -0.004060406 0.08761884 1.074435
v -0.004060408 -3.690495E-10 1.041384
v 0.06780923 0.07186963 1.233924
v -0.004060408 -1.573858E-09 1.282724
v -0.004060407 0.12067 1.162054
v -0.07593005 0.07186964 1.090185
v -0.09167925 5.680239E-10 1.074435
v -0.004060409 0.08761884 1.249673
v -0.09167925 -5.029172E-10 1.249673
v -0.09167926 0.08761884 1.162054
v -0.1247304 -1.306123E-09 1.162054
v -0.07593004 0.07186964 1.233924
vt 0.3233199 0.9064759
vt 0.319769 0.9018155
vt 0.3123173 0.927743
vt 0.319769 0.927743
vt 0.319769 0.9536706
vt 0.3395235 0.9018155
vt 0.3395235 0.8920352
vt 0.3233199 0.9490102
vt 0.3395235 0.9634508
vt 0.3395235 0.927743
vt 0.3557272 0.9064759
vt 0.359278 0.9018155
vt 0.3395235 0.9536706
vt 0.359278 0.9536706
vt 0.359278 0.927743
vt 0.3667297 0.927743
vt 0.3557272 0.9490102
vt 0.3557272 0.9064759
vt 0.359278 0.9018155
vt 0.3667297 0.927743
vt 0.359278 0.927743
vt 0.359278 0.9536706
vt 0.3395235 0.9018155
vt 0.3395235 0.8920352
vt 0.3557272 0.9490102
vt 0.3395235 0.9634508
vt 0.3395235 0.927743
vt 0.3233199 0.9064759
vt 0.319769 0.9018155
vt 0.3395235 0.9536706
vt 0.319769 0.9536706
vt 0.319769 0.927743
vt 0.3123173 0.927743
vt 0.3233199 0.9490102
vn -0.5773503 -0.5773503 -0.5773503
vn -0.7071068 0 -0.7071068
vn -1 0 0
vn -0.7071068 -0.7071068 0
vn -0.7071068 0 0.7071068
vn 0 -0.7071068 -0.7071068
vn 0 0 -1
vn -0.5773503 -0.5773503 0.5773503
vn 0 0 1
vn 0 -1 0
vn 0.5773503 -0.5773503 -0.5773503
vn 0.7071068 0 -0.7071068
vn 0 -0.7071068 0.7071068
vn 0.7071068 0 0.7071068
vn 0.7071068 -0.7071068 0
vn 1 0 0
vn 0.5773503 -0.5773503 0.5773503
vn 0.5773503 0.5773503 -0.5773503
vn 0.7071068 0 -0.7071068
vn 1 0 0
vn 0.7071068 0.7071068 0
vn 0.7071068 0 0.7071068
vn 0 0.7071068 -0.7071068
vn 0 0 -1
vn 0.5773503 0.5773503 0.5773503
vn 0 0 1
vn 0 1 0
vn -0.5773503 0.5773503 -0.5773503
vn -0.7071068 0 -0.7071068
vn 0 0.7071068 0.7071068
vn -0.7071068 0 0.7071068
vn -0.7071068 0.7071068 0
vn -1 0 0
vn -0.5773503 0.5773503 0.5773503
g Icecream.004_0
f 3/3/3 2/2/2 1/1/1
f 4/4/4 3/3/3 1/1/1
f 5/5/5 3/3/3 4/4/4
f 6/6/6 1/1/1 2/2/2
f 4/4/4 1/1/1 6/6/6
f 7/7/7 6/6/6 2/2/2
f 8/8/8 5/5/5 4/4/4
f 5/5/5 8/8/8 9/9/9
f 10/10/10 4/4/4 6/6/6
f 8/8/8 4/4/4 10/10/10
f 11/11/11 6/6/6 7/7/7
f 10/10/10 6/6/6 11/11/11
f 12/12/12 11/11/11 7/7/7
f 8/8/8 13/13/13 9/9/9
f 13/13/13 8/8/8 10/10/10
f 9/9/9 13/13/13 14/14/14
f 15/15/15 11/11/11 12/12/12
f 15/15/15 10/10/10 11/11/11
f 13/13/13 10/10/10 15/15/15
f 16/16/16 15/15/15 12/12/12
f 14/14/14 17/17/17 16/16/16
f 13/13/13 17/17/17 14/14/14
f 17/17/17 15/15/15 16/16/16
f 17/17/17 13/13/13 15/15/15
f 20/20/20 19/19/19 18/18/18
f 21/21/21 20/20/20 18/18/18
f 22/22/22 20/20/20 21/21/21
f 18/18/18 19/19/19 23/23/23
f 21/21/21 18/18/18 23/23/23
f 19/19/19 24/24/24 23/23/23
f 25/25/25 22/22/22 21/21/21
f 26/26/26 22/22/22 25/25/25
f 27/27/27 21/21/21 23/23/23
f 25/25/25 21/21/21 27/27/27
f 23/23/23 24/24/24 28/28/28
f 27/27/27 23/23/23 28/28/28
f 24/24/24 29/29/29 28/28/28
f 30/30/30 26/26/26 25/25/25
f 30/30/30 25/25/25 27/27/27
f 31/31/31 26/26/26 30/30/30
f 32/32/32 28/28/28 29/29/29
f 32/32/32 27/27/27 28/28/28
f 30/30/30 27/27/27 32/32/32
f 33/33/33 32/32/32 29/29/29
f 31/31/31 34/34/34 33/33/33
f 34/34/34 31/31/31 30/30/30
f 34/34/34 32/32/32 33/33/33
f 34/34/34 30/30/30 32/32/32
