g Icecream.003
v -0.08211633 -0.08264071 1.287342
v -0.09786553 -0.01077106 1.271592
v -0.1309167 -0.01077106 1.359211
v -0.09786553 -0.09838992 1.359211
v -0.09786553 -0.01077106 1.44683
v -0.01024669 -0.09838991 1.271592
v -0.01024668 -0.01077106 1.238541
v -0.08211633 -0.08264071 1.431081
v -0.01024668 -0.01077106 1.479881
v -0.01024668 -0.1314411 1.359211
v 0.06162296 -0.08264071 1.287342
v 0.07737216 -0.01077106 1.271592
v -0.01024668 -0.09838991 1.44683
v 0.07737216 -0.01077106 1.44683
v 0.07737216 -0.09838992 1.359211
v 0.1104233 -0.01077106 1.359211
v 0.06162294 -0.08264071 1.431081
v 0.06162296 0.06109858 1.287342
v 0.07737216 -0.01077106 1.271592
v 0.1104233 -0.01077106 1.359211
v 0.07737216 0.07684778 1.359211
v 0.07737216 -0.01077106 1.44683
v -0.01024668 0.07684778 1.271592
v -0.01024668 -0.01077106 1.238541
v 0.06162296 0.06109857 1.431081
v -0.01024668 -0.01077106 1.479881
v -0.01024668 0.1098989 1.359211
v -0.08211633 0.06109858 1.287342
v -0.09786553 -0.01077106 1.271592
v -0.01024668 0.07684778 1.44683
v -0.09786553 -0.01077106 1.44683
v -0.09786554 0.07684778 1.359211
v -0.1309167 -0.01077106 1.359211
v -0.08211631 0.06109858 1.431081
vt 0.7072386 0.2739641
vt 0.7042456 0.2700359
vt 0.6979646 0.2918901
vt 0.7042456 0.2918901
vt 0.7042456 0.3137443
vt 0.7208965 0.2700359
vt 0.7208965 0.2617922
vt 0.7072386 0.3098161
vt 0.7208965 0.321988
vt 0.7208965 0.2918901
vt 0.7345545 0.2739641
vt 0.7375475 0.2700359
vt 0.7208965 0.3137443
vt 0.7375475 0.3137443
vt 0.7375475 0.2918901
vt 0.7438285 0.2918901
vt 0.7345545 0.3098161
vt 0.7345545 0.2739641
vt 0.7375475 0.2700359
vt 0.7438285 0.2918901
vt 0.7375475 0.2918901
vt 0.7375475 0.3137443
vt 0.7208965 0.2700359
vt 0.7208965 0.2617922
vt 0.7345545 0.3098161
vt 0.7208965 0.321988
vt 0.7208965 0.2918901
vt 0.7072386 0.2739641
vt 0.7042456 0.2700359
vt 0.7208965 0.3137443
vt 0.7042456 0.3137443
vt 0.7042456 0.2918901
vt 0.6979646 0.2918901
vt 0.7072386 0.3098161
vn -0.5773503 -0.5773503 -0.5773503
vn -0.7071068 0 -0.7071068
vn -1 0 0
vn -0.7071068 -0.7071068 0
vn -0.7071068 0 0.7071068
vn 0 -0.7071068 -0.7071068
vn 0 0 -1
vn -0.5773503 -0.5773503 0.5773503
vn 0 0 1
vn 0 -1 0
vn 0.5773503 -0.5773503 -0.5773503
vn 0.7071068 0 -0.7071068
vn 0 -0.7071068 0.7071068
vn 0.7071068 0 0.7071068
vn 0.7071068 -0.7071068 0
vn 1 0 0
vn 0.5773503 -0.5773503 0.5773503
vn 0.5773503 0.5773503 -0.5773503
vn 0.7071068 0 -0.7071068
vn 1 0 0
vn 0.7071068 0.7071068 0
vn 0.7071068 0 0.7071068
vn 0 0.7071068 -0.7071068
vn 0 0 -1
vn 0.5773503 0.5773503 0.5773503
vn 0 0 1
vn 0 1 0
vn -0.5773503 0.5773503 -0.5773503
vn -0.7071068 0 -0.7071068
vn 0 0.7071068 0.7071068
vn -0.7071068 0 0.7071068
vn -0.7071068 0.7071068 0
vn -1 0 0
vn -0.5773503 0.5773503 0.5773503
g Icecream.003_0
f 3/3/3 2/2/2 1/1/1
f 4/4/4 3/3/3 1/1/1
f 5/5/5 3/3/3 4/4/4
f 6/6/6 1/1/1 2/2/2
f 4/4/4 1/1/1 6/6/6
f 7/7/7 6/6/6 2/2/2
f 8/8/8 5/5/5 4/4/4
f 5/5/5 8/8/8 9/9/9
f 10/10/10 4/4/4 6/6/6
f 8/8/8 4/4/4 10/10/10
f 11/11/11 6/6/6 7/7/7
f 10/10/10 6/6/6 11/11/11
f 12/12/12 11/11/11 7/7/7
f 8/8/8 13/13/13 9/9/9
f 13/13/13 8/8/8 10/10/10
f 9/9/9 13/13/13 14/14/14
f 15/15/15 11/11/11 12/12/12
f 15/15/15 10/10/10 11/11/11
f 13/13/13 10/10/10 15/15/15
f 16/16/16 15/15/15 12/12/12
f 14/14/14 17/17/17 16/16/16
f 13/13/13 17/17/17 14/14/14
f 17/17/17 15/15/15 16/16/16
f 17/17/17 13/13/13 15/15/15
f 20/20/20 19/19/19 18/18/18
f 21/21/21 20/20/20 18/18/18
f 22/22/22 20/20/20 21/21/21
f 18/18/18 19/19/19 23/23/23
f 21/21/21 18/18/18 23/23/23
f 19/19/19 24/24/24 23/23/23
f 25/25/25 22/22/22 21/21/21
f 26/26/26 22/22/22 25/25/25
f 27/27/27 21/21/21 23/23/23
f 25/25/25 21/21/21 27/27/27
f 23/23/23 24/24/24 28/28/28
f 27/27/27 23/23/23 28/28/28
f 24/24/24 29/29/29 28/28/28
f 30/30/30 26/26/26 25/25/25
f 30/30/30 25/25/25 27/27/27
f 31/31/31 26/26/26 30/30/30
f 32/32/32 28/28/28 29/29/29
f 32/32/32 27/27/27 28/28/28
f 30/30/30 27/27/27 32/32/32
f 33/33/33 32/32/32 29/29/29
f 31/31/31 34/34/34 33/33/33
f 34/34/34 31/31/31 30/30/30
f 34/34/34 32/32/32 33/33/33
f 34/34/34 30/30/30 32/32/32
