g Icecream.007
v -0.07186964 -0.08264071 0.5342107
v -0.08761884 -0.01077106 0.5184616
v -0.12067 -0.01077106 0.6060804
v -0.08761884 -0.09838992 0.6060804
v -0.08761884 -0.01077106 0.6936992
v -1.740279E-09 -0.09838991 0.5184616
v -5.310544E-34 -0.01077106 0.4854104
v -0.07186964 -0.08264071 0.6779501
v -1.338676E-10 -0.01077106 0.7267504
v -1.338676E-09 -0.1314411 0.6060804
v 0.07186964 -0.08264071 0.5342107
v 0.08761884 -0.01077106 0.5184616
v -1.338676E-10 -0.09838991 0.6936992
v 0.08761884 -0.01077106 0.6936992
v 0.08761885 -0.09838992 0.6060804
v 0.12067 -0.01077106 0.6060804
v 0.07186963 -0.08264071 0.6779501
v 0.07186964 0.06109858 0.5342107
v 0.08761884 -0.01077106 0.5184616
v 0.12067 -0.01077106 0.6060804
v 0.08761884 0.07684778 0.6060804
v 0.08761884 -0.01077106 0.6936992
v 2.27575E-09 0.07684778 0.5184616
v -5.310544E-34 -0.01077106 0.4854104
v 0.07186964 0.06109857 0.6779501
v -1.338676E-10 -0.01077106 0.7267504
v 1.338676E-09 0.1098989 0.6060804
v -0.07186964 0.06109858 0.5342107
v -0.08761884 -0.01077106 0.5184616
v -8.032057E-10 0.07684778 0.6936992
v -0.08761884 -0.01077106 0.6936992
v -0.08761885 0.07684778 0.6060804
v -0.12067 -0.01077106 0.6060804
v -0.07186963 0.06109858 0.6779501
vt 0.7028202 0.1002167
vt 0.6923879 0.0865247
vt 0.670495 0.162699
vt 0.6923879 0.162699
vt 0.6923879 0.2388734
vt 0.7504259 0.0865247
vt 0.7504259 0.05779059
vt 0.7028202 0.2251813
vt 0.7504259 0.2676074
vt 0.7504259 0.162699
vt 0.7980319 0.1002167
vt 0.8084641 0.0865247
vt 0.7504259 0.2388734
vt 0.8084641 0.2388734
vt 0.8084641 0.162699
vt 0.8303568 0.162699
vt 0.7980318 0.2251813
vt 0.7980319 0.1002167
vt 0.8084641 0.0865247
vt 0.8303568 0.162699
vt 0.8084641 0.162699
vt 0.8084641 0.2388734
vt 0.7504259 0.0865247
vt 0.7504259 0.05779059
vt 0.7980319 0.2251813
vt 0.7504259 0.2676074
vt 0.7504259 0.162699
vt 0.7028202 0.1002167
vt 0.6923879 0.0865247
vt 0.7504259 0.2388734
vt 0.6923879 0.2388734
vt 0.6923879 0.162699
vt 0.670495 0.162699
vt 0.7028202 0.2251813
vn -0.5773503 -0.5773503 -0.5773503
vn -0.7071068 0 -0.7071068
vn -1 0 0
vn -0.7071068 -0.7071068 0
vn -0.7071068 0 0.7071068
vn 0 -0.7071068 -0.7071068
vn 0 0 -1
vn -0.5773503 -0.5773503 0.5773503
vn 0 0 1
vn 0 -1 0
vn 0.5773503 -0.5773503 -0.5773503
vn 0.7071068 0 -0.7071068
vn 0 -0.7071068 0.7071068
vn 0.7071068 0 0.7071068
vn 0.7071068 -0.7071068 0
vn 1 0 0
vn 0.5773503 -0.5773503 0.5773503
vn 0.5773503 0.5773503 -0.5773503
vn 0.7071068 0 -0.7071068
vn 1 0 0
vn 0.7071068 0.7071068 0
vn 0.7071068 0 0.7071068
vn 0 0.7071068 -0.7071068
vn 0 0 -1
vn 0.5773503 0.5773503 0.5773503
vn 0 0 1
vn 0 1 0
vn -0.5773503 0.5773503 -0.5773503
vn -0.7071068 0 -0.7071068
vn 0 0.7071068 0.7071068
vn -0.7071068 0 0.7071068
vn -0.7071068 0.7071068 0
vn -1 0 0
vn -0.5773503 0.5773503 0.5773503
g Icecream.007_0
f 3/3/3 2/2/2 1/1/1
f 4/4/4 3/3/3 1/1/1
f 5/5/5 3/3/3 4/4/4
f 6/6/6 1/1/1 2/2/2
f 4/4/4 1/1/1 6/6/6
f 7/7/7 6/6/6 2/2/2
f 8/8/8 5/5/5 4/4/4
f 5/5/5 8/8/8 9/9/9
f 10/10/10 4/4/4 6/6/6
f 8/8/8 4/4/4 10/10/10
f 11/11/11 6/6/6 7/7/7
f 10/10/10 6/6/6 11/11/11
f 12/12/12 11/11/11 7/7/7
f 8/8/8 13/13/13 9/9/9
f 13/13/13 8/8/8 10/10/10
f 9/9/9 13/13/13 14/14/14
f 15/15/15 11/11/11 12/12/12
f 15/15/15 10/10/10 11/11/11
f 13/13/13 10/10/10 15/15/15
f 16/16/16 15/15/15 12/12/12
f 14/14/14 17/17/17 16/16/16
f 13/13/13 17/17/17 14/14/14
f 17/17/17 15/15/15 16/16/16
f 17/17/17 13/13/13 15/15/15
f 20/20/20 19/19/19 18/18/18
f 21/21/21 20/20/20 18/18/18
f 22/22/22 20/20/20 21/21/21
f 18/18/18 19/19/19 23/23/23
f 21/21/21 18/18/18 23/23/23
f 19/19/19 24/24/24 23/23/23
f 25/25/25 22/22/22 21/21/21
f 26/26/26 22/22/22 25/25/25
f 27/27/27 21/21/21 23/23/23
f 25/25/25 21/21/21 27/27/27
f 23/23/23 24/24/24 28/28/28
f 27/27/27 23/23/23 28/28/28
f 24/24/24 29/29/29 28/28/28
f 30/30/30 26/26/26 25/25/25
f 30/30/30 25/25/25 27/27/27
f 31/31/31 26/26/26 30/30/30
f 32/32/32 28/28/28 29/29/29
f 32/32/32 27/27/27 28/28/28
f 30/30/30 27/27/27 32/32/32
f 33/33/33 32/32/32 29/29/29
f 31/31/31 34/34/34 33/33/33
f 34/34/34 31/31/31 30/30/30
f 34/34/34 32/32/32 33/33/33
f 34/34/34 30/30/30 32/32/32
