g Icecream.006
v 0.01130962 -3.690495E-10 0.6725038
v 0.08317926 -0.07186964 0.7213041
v 0.09892846 -1.975461E-09 0.705555
v 0.01130962 -0.08761884 0.705555
v -0.07630923 5.680239E-10 0.705555
v -0.06056003 -0.07186964 0.7213041
v -0.1093604 -1.306123E-09 0.7931737
v -0.07630923 -0.08761885 0.7931737
v -0.07630923 -5.029172E-10 0.8807926
v 0.01130962 -0.12067 0.7931737
v -0.06056003 -0.07186964 0.8650434
v 0.01130962 -1.573858E-09 0.9138438
v 0.01130962 -0.08761884 0.8807926
v 0.09892846 1.66421E-10 0.8807926
v 0.09892847 -0.08761885 0.7931737
v 0.09892846 -1.975461E-09 0.705555
v 0.1319796 -1.439991E-09 0.7931737
v 0.08317924 -0.07186964 0.8650434
v 0.08317926 0.07186964 0.7213041
v 0.09892846 -1.975461E-09 0.705555
v 0.1319796 -1.439991E-09 0.7931737
v 0.09892846 0.08761885 0.7931737
v 0.09892846 1.66421E-10 0.8807926
v 0.01130962 0.08761884 0.705555
v 0.01130962 -3.690495E-10 0.6725038
v 0.08317926 0.07186963 0.8650434
v 0.01130962 -1.573858E-09 0.9138438
v 0.01130962 0.12067 0.7931737
v -0.06056003 0.07186964 0.7213041
v -0.07630923 5.680239E-10 0.705555
v 0.01130962 0.08761884 0.8807926
v -0.07630923 -5.029172E-10 0.8807926
v -0.07630923 0.08761884 0.7931737
v -0.1093604 -1.306123E-09 0.7931737
v -0.06056001 0.07186964 0.8650434
vt 0.7316721 0.7612782
vt 0.7470505 0.7749832
vt 0.7504204 0.7705601
vt 0.7316721 0.7705601
vt 0.7129241 0.7705601
vt 0.716294 0.7749832
vt 0.7058518 0.7951671
vt 0.7129241 0.7951671
vt 0.7129241 0.8197739
vt 0.7316721 0.7951671
vt 0.716294 0.8153509
vt 0.7316721 0.829056
vt 0.7316721 0.8197739
vt 0.7504204 0.8197739
vt 0.7504204 0.7951671
vt 0.7504204 0.7705601
vt 0.7574927 0.7951671
vt 0.7470505 0.8153509
vt 0.7470505 0.7749832
vt 0.7504204 0.7705601
vt 0.7574927 0.7951671
vt 0.7504204 0.7951671
vt 0.7504204 0.8197739
vt 0.7316721 0.7705601
vt 0.7316721 0.7612782
vt 0.7470505 0.8153509
vt 0.7316721 0.829056
vt 0.7316721 0.7951671
vt 0.716294 0.7749832
vt 0.7129241 0.7705601
vt 0.7316721 0.8197739
vt 0.7129241 0.8197739
vt 0.7129241 0.7951671
vt 0.7058518 0.7951671
vt 0.716294 0.8153509
vn 0 0 -1
vn 0.5773503 -0.5773503 -0.5773503
vn 0.7071068 0 -0.7071068
vn 0 -0.7071068 -0.7071068
vn -0.7071068 0 -0.7071068
vn -0.5773503 -0.5773503 -0.5773503
vn -1 0 0
vn -0.7071068 -0.7071068 0
vn -0.7071068 0 0.7071068
vn 0 -1 0
vn -0.5773503 -0.5773503 0.5773503
vn 0 0 1
vn 0 -0.7071068 0.7071068
vn 0.7071068 0 0.7071068
vn 0.7071068 -0.7071068 0
vn 0.7071068 0 -0.7071068
vn 1 0 0
vn 0.5773503 -0.5773503 0.5773503
vn 0.5773503 0.5773503 -0.5773503
vn 0.7071068 0 -0.7071068
vn 1 0 0
vn 0.7071068 0.7071068 0
vn 0.7071068 0 0.7071068
vn 0 0.7071068 -0.7071068
vn 0 0 -1
vn 0.5773503 0.5773503 0.5773503
vn 0 0 1
vn 0 1 0
vn -0.5773503 0.5773503 -0.5773503
vn -0.7071068 0 -0.7071068
vn 0 0.7071068 0.7071068
vn -0.7071068 0 0.7071068
vn -0.7071068 0.7071068 0
vn -1 0 0
vn -0.5773503 0.5773503 0.5773503
g Icecream.006_0
f 3/3/3 2/2/2 1/1/1
f 2/2/2 4/4/4 1/1/1
f 1/1/1 4/4/4 5/5/5
f 4/4/4 6/6/6 5/5/5
f 7/7/7 5/5/5 6/6/6
f 8/8/8 7/7/7 6/6/6
f 8/8/8 6/6/6 4/4/4
f 9/9/9 7/7/7 8/8/8
f 10/10/10 4/4/4 2/2/2
f 10/10/10 8/8/8 4/4/4
f 11/11/11 9/9/9 8/8/8
f 11/11/11 8/8/8 10/10/10
f 9/9/9 11/11/11 12/12/12
f 11/11/11 13/13/13 12/12/12
f 13/13/13 11/11/11 10/10/10
f 12/12/12 13/13/13 14/14/14
f 15/15/15 10/10/10 2/2/2
f 13/13/13 10/10/10 15/15/15
f 15/15/15 2/2/2 16/16/16
f 17/17/17 15/15/15 16/16/16
f 14/14/14 18/18/18 17/17/17
f 13/13/13 18/18/18 14/14/14
f 18/18/18 15/15/15 17/17/17
f 18/18/18 13/13/13 15/15/15
f 21/21/21 20/20/20 19/19/19
f 22/22/22 21/21/21 19/19/19
f 23/23/23 21/21/21 22/22/22
f 19/19/19 20/20/20 24/24/24
f 22/22/22 19/19/19 24/24/24
f 20/20/20 25/25/25 24/24/24
f 26/26/26 23/23/23 22/22/22
f 27/27/27 23/23/23 26/26/26
f 28/28/28 22/22/22 24/24/24
f 26/26/26 22/22/22 28/28/28
f 24/24/24 25/25/25 29/29/29
f 28/28/28 24/24/24 29/29/29
f 25/25/25 30/30/30 29/29/29
f 31/31/31 27/27/27 26/26/26
f 31/31/31 26/26/26 28/28/28
f 32/32/32 27/27/27 31/31/31
f 33/33/33 29/29/29 30/30/30
f 33/33/33 28/28/28 29/29/29
f 31/31/31 28/28/28 33/33/33
f 34/34/34 33/33/33 30/30/30
f 32/32/32 35/35/35 34/34/34
f 35/35/35 32/32/32 31/31/31
f 35/35/35 33/33/33 34/34/34
f 35/35/35 31/31/31 33/33/33
