g IceCream_2.001
v -0.138543 0.109102 0.7166613
v -0.3462212 0.109102 0.6638506
v 0.01827717 0.109102 0.669296
v 0.3462212 0.109102 0.6446025
v 0.1707042 0.109102 0.7148246
v 0.3462212 0.109102 0.4517659
v -0.3462212 0.109102 0.4517659
v 0.3165553 0.109102 0.3918135
v -0.3165553 0.109102 0.3918135
v 0.2449355 0.109102 0.3669803
v -0.2449355 0.109102 0.3669803
v 0.3165553 -0.109102 0.3918135
v 0.2449355 -0.109102 0.3669803
v -0.2449355 -0.109102 0.3669803
v -0.3165553 -0.109102 0.3918135
v 0.3462212 -0.109102 0.4517659
v -0.3462212 -0.109102 0.4517659
v 0.3462212 -0.109102 0.6394231
v -0.3462212 -0.109102 0.6429882
v 0.01924108 -0.109102 0.6590312
v -0.1697094 -0.109102 0.7053776
v 0.1921487 -0.109102 0.703595
v -0.2449355 0.109102 0.3669803
v -0.3165553 0.109102 0.3918135
v -0.3165553 -0.109102 0.3918135
v -0.2449355 -0.109102 0.3669803
v -0.3165553 0.109102 0.3918135
v -0.3462212 0.109102 0.4517659
v -0.3462212 -0.109102 0.4517659
v -0.3165553 -0.109102 0.3918135
v 0.2449355 -0.109102 0.3669803
v 0.3165553 -0.109102 0.3918135
v 0.3165553 0.109102 0.3918135
v 0.2449355 0.109102 0.3669803
v 0.3165553 -0.109102 0.3918135
v 0.3462212 -0.109102 0.4517659
v 0.3462212 0.109102 0.4517659
v 0.3165553 0.109102 0.3918135
v 0.07483305 0.02637609 0.3669803
v 0.07483305 0.02637609 0.05615926
v 0.07483305 -0.02637609 0.05615926
v 0.07483305 -0.02637609 0.3669803
v -0.05559111 0.02637609 0.01727283
v -0.009136974 0.02637609 0.001165509
v 0.009136974 0.02637609 0.001165509
v 0.05559111 0.02637609 0.01727283
v -0.07483305 0.02637609 0.05615926
v 0.07483305 0.02637609 0.05615926
v -0.07483305 0.02637609 0.3669803
v 0.07483305 0.02637609 0.3669803
v 0.05559111 -0.02637609 0.01727283
v 0.009136974 -0.02637609 0.001165509
v -0.009136974 -0.02637609 0.001165509
v -0.05559111 -0.02637609 0.01727283
v 0.07483305 -0.02637609 0.05615926
v -0.07483305 -0.02637609 0.05615926
v 0.07483305 -0.02637609 0.3669803
v -0.07483305 -0.02637609 0.3669803
v -0.009136974 0.02637609 0.001165509
v -0.009136974 -0.02637609 0.001165509
v 0.009136974 -0.02637609 0.001165509
v 0.009136974 0.02637609 0.001165509
v -0.009136974 0.02637609 0.001165509
v -0.05559111 0.02637609 0.01727283
v -0.05559111 -0.02637609 0.01727283
v -0.009136974 -0.02637609 0.001165509
v -0.05559111 0.02637609 0.01727283
v -0.07483305 0.02637609 0.05615926
v -0.07483305 -0.02637609 0.05615926
v -0.05559111 -0.02637609 0.01727283
v 0.009136974 -0.02637609 0.001165509
v 0.05559111 -0.02637609 0.01727283
v 0.05559111 0.02637609 0.01727283
v 0.009136974 0.02637609 0.001165509
v 0.05559111 -0.02637609 0.01727283
v 0.07483305 -0.02637609 0.05615926
v 0.07483305 0.02637609 0.05615926
v 0.05559111 0.02637609 0.01727283
v -0.07483305 -0.02637609 0.3669803
v -0.07483305 -0.02637609 0.05615926
v -0.07483305 0.02637609 0.05615926
v -0.07483305 0.02637609 0.3669803
v -0.3462212 -0.109102 0.4517659
v -0.3462212 0.109102 0.4517659
v -0.3462212 0.109102 0.6638506
v -0.3462212 -0.109102 0.6429882
v 0.3462212 0.109102 0.4517659
v 0.3462212 -0.109102 0.4517659
v 0.3462212 -0.109102 0.6394231
v 0.3462212 0.109102 0.6446025
v -0.138543 0.109102 0.7166613
v -0.1697094 -0.109102 0.7053776
v -0.3462212 -0.109102 0.6429882
v -0.3462212 0.109102 0.6638506
v 0.01827717 0.109102 0.669296
v 0.01924108 -0.109102 0.6590312
v -0.1697094 -0.109102 0.7053776
v -0.138543 0.109102 0.7166613
v 0.1707042 0.109102 0.7148246
v 0.1921487 -0.109102 0.703595
v 0.01924108 -0.109102 0.6590312
v 0.01827717 0.109102 0.669296
v 0.3462212 0.109102 0.6446025
v 0.3462212 -0.109102 0.6394231
v 0.1921487 -0.109102 0.703595
v 0.1707042 0.109102 0.7148246
v -0.07483305 0.02637609 0.3669803
v -0.2449355 -0.109102 0.3669803
v -0.07483305 -0.02637609 0.3669803
v -0.2449355 0.109102 0.3669803
v 0.2449355 -0.109102 0.3669803
v 0.07483305 0.02637609 0.3669803
v 0.07483305 -0.02637609 0.3669803
v 0.2449355 0.109102 0.3669803
vt 0.5802366 0.9440674
vt 0.5573635 0.9361925
vt 0.5975083 0.9374419
vt 0.6336271 0.9333829
vt 0.6142961 0.9437993
vt 0.6336271 0.9052361
vt 0.5573635 0.9052361
vt 0.6303598 0.8986331
vt 0.5606309 0.8986331
vt 0.6224718 0.895898
vt 0.5685188 0.895898
vt 0.6303598 0.8986331
vt 0.6224718 0.895898
vt 0.5685188 0.895898
vt 0.5606309 0.8986331
vt 0.6336271 0.9052361
vt 0.5573635 0.9052361
vt 0.6336271 0.9326269
vt 0.5573635 0.9331473
vt 0.5976144 0.9360054
vt 0.576804 0.9424651
vt 0.616658 0.9422022
vt 0.5685188 0.895898
vt 0.5606309 0.8986331
vt 0.5606309 0.8986331
vt 0.5685188 0.895898
vt 0.5606309 0.8986331
vt 0.5573635 0.9052361
vt 0.5573635 0.9052361
vt 0.5606309 0.8986331
vt 0.6224718 0.895898
vt 0.6303598 0.8986331
vt 0.6303598 0.8986331
vt 0.6224718 0.895898
vt 0.6303598 0.8986331
vt 0.6336271 0.9052361
vt 0.6336271 0.9052361
vt 0.6303598 0.8986331
vt 0.5501488 0.2421774
vt 0.5501488 0.05765966
vt 0.5501488 0.05765966
vt 0.5501488 0.2421774
vt 0.4963812 0.04162863
vt 0.515532 0.03498834
vt 0.5230655 0.03498834
vt 0.5422163 0.04162863
vt 0.4884486 0.05765966
vt 0.5501488 0.05765966
vt 0.4884486 0.2421774
vt 0.5501488 0.2421774
vt 0.5422163 0.04162863
vt 0.5230655 0.03498834
vt 0.515532 0.03498834
vt 0.4963812 0.04162863
vt 0.5501488 0.05765966
vt 0.4884486 0.05765966
vt 0.5501488 0.2421774
vt 0.4884486 0.2421774
vt 0.515532 0.03498834
vt 0.515532 0.03498834
vt 0.5230655 0.03498834
vt 0.5230655 0.03498834
vt 0.515532 0.03498834
vt 0.4963812 0.04162863
vt 0.4963812 0.04162863
vt 0.515532 0.03498834
vt 0.4963812 0.04162863
vt 0.4884486 0.05765966
vt 0.4884486 0.05765966
vt 0.4963812 0.04162863
vt 0.5230655 0.03498834
vt 0.5422163 0.04162863
vt 0.5422163 0.04162863
vt 0.5230655 0.03498834
vt 0.5422163 0.04162863
vt 0.5501488 0.05765966
vt 0.5501488 0.05765966
vt 0.5422163 0.04162863
vt 0.4884486 0.2421774
vt 0.4884486 0.05765966
vt 0.4884486 0.05765966
vt 0.4884486 0.2421774
vt 0.5573635 0.9052361
vt 0.5573635 0.9052361
vt 0.5573635 0.9361925
vt 0.5573635 0.9331473
vt 0.6336271 0.9052361
vt 0.6336271 0.9052361
vt 0.6336271 0.9326269
vt 0.6336271 0.9333829
vt 0.5802366 0.9440674
vt 0.576804 0.9424651
vt 0.5573635 0.9331473
vt 0.5573635 0.9361925
vt 0.5975083 0.9374419
vt 0.5976144 0.9360054
vt 0.576804 0.9424651
vt 0.5802366 0.9440674
vt 0.6142961 0.9437993
vt 0.616658 0.9422022
vt 0.5976144 0.9360054
vt 0.5975083 0.9374419
vt 0.6336271 0.9333829
vt 0.6336271 0.9326269
vt 0.616658 0.9422022
vt 0.6142961 0.9437993
vt 0.5872535 0.895898
vt 0.5685188 0.895898
vt 0.5872535 0.895898
vt 0.5685188 0.895898
vt 0.6224718 0.895898
vt 0.6037371 0.895898
vt 0.6037371 0.895898
vt 0.6224718 0.895898
vn 0 1 0
vn 0 1 0
vn 0 1 0
vn 0 1 0
vn 0 1 0
vn 0 1 0
vn 0 1 0
vn 0 1 0
vn 0 1 0
vn 0 1 0
vn 0 1 0
vn 0 -1 0
vn 0 -1 0
vn 0 -1 0
vn 0 -1 0
vn 0 -1 0
vn 0 -1 0
vn 0 -1 0
vn 0 -1 0
vn 0 -1 0
vn 0 -1 0
vn 0 -1 0
vn -0.3276022 0 -0.9448158
vn -0.3276022 0 -0.9448158
vn -0.3276022 0 -0.9448158
vn -0.3276022 0 -0.9448158
vn -0.8962751 0 -0.4434985
vn -0.8962751 0 -0.4434985
vn -0.8962751 0 -0.4434985
vn -0.8962751 0 -0.4434985
vn 0.3276022 0 -0.9448158
vn 0.3276022 0 -0.9448158
vn 0.3276022 0 -0.9448158
vn 0.3276022 0 -0.9448158
vn 0.8962751 0 -0.4434985
vn 0.8962751 0 -0.4434985
vn 0.8962751 0 -0.4434985
vn 0.8962751 0 -0.4434985
vn 1 0 0
vn 1 0 0
vn 1 0 0
vn 1 0 0
vn 0 1 0
vn 0 1 0
vn 0 1 0
vn 0 1 0
vn 0 1 0
vn 0 1 0
vn 0 1 0
vn 0 1 0
vn 0 -1 0
vn 0 -1 0
vn 0 -1 0
vn 0 -1 0
vn 0 -1 0
vn 0 -1 0
vn 0 -1 0
vn 0 -1 0
vn 0 0 -1
vn 0 0 -1
vn 0 0 -1
vn 0 0 -1
vn -0.3276017 0 -0.9448159
vn -0.3276017 0 -0.9448159
vn -0.3276017 0 -0.9448159
vn -0.3276017 0 -0.9448159
vn -0.8962751 0 -0.4434984
vn -0.8962751 0 -0.4434984
vn -0.8962751 0 -0.4434984
vn -0.8962751 0 -0.4434984
vn 0.3276017 0 -0.9448159
vn 0.3276017 0 -0.9448159
vn 0.3276017 0 -0.9448159
vn 0.3276017 0 -0.9448159
vn 0.8962751 0 -0.4434984
vn 0.8962751 0 -0.4434984
vn 0.8962751 0 -0.4434984
vn 0.8962751 0 -0.4434984
vn -1 0 0
vn -1 0 0
vn -1 0 0
vn -1 0 0
vn -1 0 0
vn -1 0 0
vn -1 0 0
vn -1 0 0
vn 1 0 0
vn 1 0 0
vn 1 0 0
vn 1 0 0
vn -0.2868589 -0.0499827 0.9566681
vn -0.2868589 -0.0499827 0.9566681
vn -0.2868589 -0.0499827 0.9566681
vn -0.2868589 -0.0499827 0.9566681
vn 0.261022 -0.06561966 0.9631
vn 0.261022 -0.06561966 0.9631
vn 0.261022 -0.06561966 0.9631
vn 0.261022 -0.06561966 0.9631
vn -0.2663807 -0.06105581 0.9619321
vn -0.2663807 -0.06105581 0.9619321
vn -0.2663807 -0.06105581 0.9619321
vn -0.2663807 -0.06105581 0.9619321
vn 0.3775287 -0.01626086 0.925855
vn 0.3775287 -0.01626086 0.925855
vn 0.3775287 -0.01626086 0.925855
vn 0.3775287 -0.01626086 0.925855
vn 0 0 -1
vn 0 0 -1
vn 0 0 -1
vn 0 0 -1
vn 0 0 -1
vn 0 0 -1
vn 0 0 -1
vn 0 0 -1
g IceCream_2.001_0
f 3/3/3 2/2/2 1/1/1
f 2/2/2 3/3/3 4/4/4
f 3/3/3 5/5/5 4/4/4
f 2/2/2 4/4/4 6/6/6
f 7/7/7 2/2/2 6/6/6
f 7/7/7 6/6/6 8/8/8
f 9/9/9 7/7/7 8/8/8
f 9/9/9 8/8/8 10/10/10
f 10/10/10 11/11/11 9/9/9
f 14/14/14 13/13/13 12/12/12
f 12/12/12 15/15/15 14/14/14
f 12/12/12 16/16/16 15/15/15
f 16/16/16 17/17/17 15/15/15
f 16/16/16 18/18/18 17/17/17
f 18/18/18 19/19/19 17/17/17
f 18/18/18 20/20/20 19/19/19
f 19/19/19 20/20/20 21/21/21
f 18/18/18 22/22/22 20/20/20
f 25/25/25 24/24/24 23/23/23
f 26/26/26 25/25/25 23/23/23
f 29/29/29 28/28/28 27/27/27
f 30/30/30 29/29/29 27/27/27
f 33/33/33 32/32/32 31/31/31
f 34/34/34 33/33/33 31/31/31
f 37/37/37 36/36/36 35/35/35
f 38/38/38 37/37/37 35/35/35
f 41/41/41 40/40/40 39/39/39
f 42/42/42 41/41/41 39/39/39
f 45/45/45 44/44/44 43/43/43
f 43/43/43 46/46/46 45/45/45
f 43/43/43 47/47/47 46/46/46
f 47/47/47 48/48/48 46/46/46
f 47/47/47 49/49/49 48/48/48
f 49/49/49 50/50/50 48/48/48
f 53/53/53 52/52/52 51/51/51
f 51/51/51 54/54/54 53/53/53
f 51/51/51 55/55/55 54/54/54
f 55/55/55 56/56/56 54/54/54
f 55/55/55 57/57/57 56/56/56
f 57/57/57 58/58/58 56/56/56
f 61/61/61 60/60/60 59/59/59
f 62/62/62 61/61/61 59/59/59
f 65/65/65 64/64/64 63/63/63
f 66/66/66 65/65/65 63/63/63
f 69/69/69 68/68/68 67/67/67
f 70/70/70 69/69/69 67/67/67
f 73/73/73 72/72/72 71/71/71
f 74/74/74 73/73/73 71/71/71
f 77/77/77 76/76/76 75/75/75
f 78/78/78 77/77/77 75/75/75
f 81/81/81 80/80/80 79/79/79
f 82/82/82 81/81/81 79/79/79
f 85/85/85 84/84/84 83/83/83
f 86/86/86 85/85/85 83/83/83
f 89/89/89 88/88/88 87/87/87
f 90/90/90 89/89/89 87/87/87
f 93/93/93 92/92/92 91/91/91
f 94/94/94 93/93/93 91/91/91
f 97/97/97 96/96/96 95/95/95
f 98/98/98 97/97/97 95/95/95
f 101/101/101 100/100/100 99/99/99
f 102/102/102 101/101/101 99/99/99
f 105/105/105 104/104/104 103/103/103
f 106/106/106 105/105/105 103/103/103
f 109/109/109 108/108/108 107/107/107
f 108/108/108 110/110/110 107/107/107
f 111/111/111 108/108/108 109/109/109
f 107/107/107 110/110/110 112/112/112
f 113/113/113 111/111/111 109/109/109
f 110/110/110 114/114/114 112/112/112
f 114/114/114 111/111/111 113/113/113
f 112/112/112 114/114/114 113/113/113
