g SM_Env_Samurai_Tree_01.007
v -0.7782879 0.1654766 1.054397
v -1.14058 0.2487542 0.959946
v -0.7870807 0.4366273 0.9843487
v -0.9737796 -0.06045938 0.9843487
v -0.4268737 0.2127298 0.9663912
v -0.576977 -0.05301088 0.9745017
v -0.9880069 0.3782718 0.8710077
v -1.117616 0.08064948 0.8915934
v -0.5824489 0.3934758 0.886153
v -0.7694935 -0.1056744 0.8710076
v -0.4477456 0.0923173 0.8710082
v -0.7729799 0.1943357 0.8152735
vt 0.2037901 0.9931978
vt 0.2037902 0.9931978
vt 0.2037901 0.9931978
vt 0.2037901 0.9931978
vt 0.2037901 0.9931978
vt 0.2037901 0.9931978
vt 0.2037902 0.9931978
vt 0.2037902 0.9931978
vt 0.2037901 0.9931978
vt 0.2037901 0.9931978
vt 0.2037901 0.9931977
vt 0.2037901 0.9931978
vn 0.004269125 0.1071148 0.9942374
vn -0.845941 0.324969 0.4228227
vn -0.1298938 0.8663273 0.4822909
vn -0.4200552 -0.7470053 0.5153027
vn 0.8114126 0.2609913 0.5229656
vn 0.4459606 -0.7391879 0.5046984
vn -0.3589322 0.8058322 -0.4709586
vn -0.9079898 -0.2423494 -0.3417915
vn 0.3974042 0.8389463 -0.371805
vn -0.05504607 -0.8808388 -0.4702052
vn 0.7684963 -0.4125482 -0.4890987
vn -0.09349708 0.01030705 -0.9955662
g SM_Env_Samurai_Tree_01.007_0
f 3/3/3 2/2/2 1/1/1
f 2/2/2 4/4/4 1/1/1
f 5/5/5 3/3/3 1/1/1
f 4/4/4 6/6/6 1/1/1
f 6/6/6 5/5/5 1/1/1
f 2/2/2 3/3/3 7/7/7
f 4/4/4 2/2/2 8/8/8
f 7/7/7 8/8/8 2/2/2
f 3/3/3 5/5/5 9/9/9
f 9/9/9 7/7/7 3/3/3
f 6/6/6 4/4/4 10/10/10
f 8/8/8 10/10/10 4/4/4
f 5/5/5 6/6/6 11/11/11
f 11/11/11 9/9/9 5/5/5
f 10/10/10 11/11/11 6/6/6
f 8/8/8 7/7/7 12/12/12
f 7/7/7 9/9/9 12/12/12
f 9/9/9 11/11/11 12/12/12
f 10/10/10 8/8/8 12/12/12
f 11/11/11 10/10/10 12/12/12
