g SM_Env_Generic_Dead_Tree_01
v 0 -0.05865345 -0.1981747
v 0.03354904 -3.310051E-08 0.2031695
v 0.05865479 3.228676E-08 -0.1981747
v 0 -0.033549 0.2031695
v -0.05865479 3.228676E-08 -0.1981747
v -0.03354904 -3.310051E-08 0.2031695
v 0 0.05865482 -0.1981747
v 0 -0.05865345 -0.1981747
v 0.05865479 3.228676E-08 -0.1981747
v 0 0.03355023 0.2031695
v 0.03354904 -3.310051E-08 0.2031695
v -0.0561702 -0.01749679 0.4549948
v -0.08410141 0.01043564 0.4549948
v -0.02823379 0.01043564 0.4549948
v -0.0561676 0.03836815 0.4549948
v -0.01781464 0.00884868 0.737389
v -0.009221343 0.01744068 0.737389
v -0.02640533 0.01744068 0.737389
v -0.01781464 0.02603267 0.737389
vt 0.008889134 0.1035089
vt 0.008889135 0.103509
vt 0.008889135 0.1035089
vt 0.008889134 0.103509
vt 0.008889134 0.1035089
vt 0.008889134 0.103509
vt 0.008889134 0.1035089
vt 0.008889134 0.1035088
vt 0.008889134 0.1035089
vt 0.008889134 0.103509
vt 0.008889134 0.103509
vt 0.008889134 0.103509
vt 0.008889134 0.103509
vt 0.008889134 0.103509
vt 0.008889134 0.103509
vt 0.008889134 0.103509
vt 0.008889134 0.103509
vt 0.008889134 0.103509
vt 0.008889134 0.103509
vn 0 -0.8324124 -0.5541568
vn 0.9893234 -0.007152427 0.145561
vn 0.8324158 0 -0.5541516
vn 0.04533834 -0.9963005 0.07300471
vn -0.8324158 0 -0.5541516
vn -0.9973739 -0.01073715 -0.07162458
vn 0 0.8324128 -0.5541561
vn 0 -0.8324124 -0.5541568
vn 0.8324158 0 -0.5541516
vn 0.04896076 0.9982485 0.03321079
vn 0.9893234 -0.007152427 0.145561
vn -0.08002118 -0.994361 0.06958932
vn -0.9999937 0.00327955 0.001390224
vn 0.9956631 0.005371082 0.09287661
vn -0.07785324 0.9969505 0.005334752
vn 0.05093317 -0.7921897 0.6081457
vn 0.8336217 0.008876545 0.5522645
vn -0.7583981 0.009580231 0.6517213
vn 0.05027169 0.8058493 0.5899826
g SM_Env_Generic_Dead_Tree_01_0
f 3/3/3 2/2/2 1/1/1
f 2/2/2 4/4/4 1/1/1
f 1/1/1 4/4/4 5/5/5
f 4/4/4 6/6/6 5/5/5
f 5/5/5 6/6/6 7/7/7
f 8/8/8 5/5/5 7/7/7
f 9/9/9 8/8/8 7/7/7
f 9/9/9 7/7/7 10/10/10
f 6/6/6 10/10/10 7/7/7
f 11/11/11 9/9/9 10/10/10
f 4/4/4 12/12/12 6/6/6
f 6/6/6 13/13/13 10/10/10
f 12/12/12 13/13/13 6/6/6
f 11/11/11 14/14/14 4/4/4
f 14/14/14 12/12/12 4/4/4
f 10/10/10 15/15/15 11/11/11
f 13/13/13 15/15/15 10/10/10
f 15/15/15 14/14/14 11/11/11
f 12/12/12 16/16/16 13/13/13
f 14/14/14 17/17/17 12/12/12
f 17/17/17 16/16/16 12/12/12
f 16/16/16 18/18/18 13/13/13
f 13/13/13 18/18/18 15/15/15
f 16/16/16 17/17/17 18/18/18
f 19/19/19 17/17/17 14/14/14
f 15/15/15 19/19/19 14/14/14
f 17/17/17 19/19/19 18/18/18
f 18/18/18 19/19/19 15/15/15
