g SM_Env_WallPark_Straight_01
v -0.0001124635 0.301302 -0.0005152565
v 0.0815962 0.0001811609 0.0819786
v -0.08340002 0.0001811609 0.0819786
v -0.0001124635 0.301302 -0.0005152565
v 0.0815962 0.0001811609 -0.08412498
v 0.0815962 0.0001811609 0.0819786
v -0.0001124635 0.301302 -0.0005152565
v -0.08340002 0.0001811609 -0.08412498
v 0.0815962 0.0001811609 -0.08412498
v -0.0001124635 0.301302 -0.0005152565
v -0.08340002 0.0001811609 0.0819786
v -0.08340002 0.0001811609 -0.08412498
v -0.08340002 0.0001811609 0.0819786
v 0.0815962 0.0001811609 0.0819786
v 0.0815962 0.0001811609 -0.08412498
v -0.08340002 0.0001811609 -0.08412498
vt 0.8958703 0.3331333
vt 0.8958585 0.3331804
vt 0.8958585 0.3332275
vt 0.8958703 0.3331333
vt 0.8958585 0.3331333
vt 0.8958585 0.3331804
vt 0.8958703 0.3331333
vt 0.8958585 0.3330861
vt 0.8958585 0.3331333
vt 0.8958703 0.3331333
vt 0.8958585 0.333039
vt 0.8958585 0.3330861
vt 0.8958585 0.333039
vt 0.8958585 0.3331804
vt 0.8958585 0.3331333
vt 0.8958585 0.3330861
vn 0 0.2642202 0.9644623
vn 0 0.2642202 0.9644623
vn 0 0.2642202 0.9644623
vn 0.9651008 0.2618786 0
vn 0.9651008 0.2618786 0
vn 0.9651008 0.2618786 0
vn 0 0.26754 -0.9635468
vn 0 0.26754 -0.9635468
vn 0 0.26754 -0.9635468
vn -0.9638121 0.2665825 0
vn -0.9638121 0.2665825 0
vn -0.9638121 0.2665825 0
vn 0 -1 0
vn 0 -1 0
vn 0 -1 0
vn 0 -1 0
g SM_Env_WallPark_Straight_01_0
f 3/3/3 2/2/2 1/1/1
f 6/6/6 5/5/5 4/4/4
f 9/9/9 8/8/8 7/7/7
f 12/12/12 11/11/11 10/10/10
f 15/15/15 14/14/14 13/13/13
f 16/16/16 15/15/15 13/13/13
