g SM_Env_Generic_Tree_01_Snow
v -0.02798584 -0.2565139 -0.04847259
v 0 -0.2565139 3.051758E-07
v 0.02798584 -0.2565139 -0.04847259
v -0.05597168 -0.2565139 3.051758E-07
v 0.05597168 -0.2565139 3.051758E-07
v -0.02798584 -0.2565139 0.04847321
v 0.02798584 -0.2565139 0.04847321
v 0.100564 0.4963487 -0.1741817
v 0.006894531 0.8609017 3.051758E-07
v -0.100564 0.4764473 -0.1741817
v 0.2011255 0.4764473 3.051758E-07
v -0.2011255 0.4963487 3.051758E-07
v 0.100564 0.4963487 0.1741824
v -0.100564 0.4764473 0.1741824
v 0.02798584 -0.2565139 -0.04847259
v 0.02798584 0.1646027 -0.04847259
v -0.02798584 0.1646027 -0.04847259
v -0.02798584 -0.2565139 -0.04847259
v 0.05597168 -0.2565139 3.051758E-07
v -0.05597168 0.1646027 3.051758E-07
v 0.05597168 0.1646027 3.051758E-07
v -0.05597168 -0.2565139 3.051758E-07
v 0.02798584 -0.2565139 0.04847321
v -0.02798584 0.1646027 0.04847321
v 0.02798584 0.1646027 0.04847321
v -0.02798584 -0.2565139 0.04847321
v 0.02798584 0.1646027 -0.04847259
v 0.1374536 0.2280277 -0.2380742
v -0.1374512 0.2562538 -0.2380743
v -0.02798584 0.1646027 -0.04847259
v 0.05597168 0.1646027 3.051758E-07
v -0.2749048 0.2280277 3.051758E-07
v 0.2749048 0.2280277 3.051758E-07
v -0.05597168 0.1646027 3.051758E-07
v 0.02798584 0.1646027 0.04847321
v -0.1374512 0.2562538 0.2380749
v 0.1374536 0.2562538 0.2380749
v -0.02798584 0.1646027 0.04847321
v 0.1374536 0.2280277 -0.2380742
v 0.08147705 0.4338378 -0.1411223
v -0.08147705 0.4145755 -0.1411223
v -0.1374512 0.2562538 -0.2380743
v 0.2749048 0.2280277 3.051758E-07
v -0.1629565 0.4338378 3.051758E-07
v 0.1629565 0.4145755 3.051758E-07
v -0.2749048 0.2280277 3.051758E-07
v 0.1374536 0.2562538 0.2380749
v -0.08147705 0.4145755 0.1411227
v 0.08147705 0.4338378 0.141123
v -0.1374512 0.2562538 0.2380749
v 0.08147705 0.4338378 -0.1411223
v 0.100564 0.4963487 -0.1741817
v -0.100564 0.4764473 -0.1741817
v -0.08147705 0.4145755 -0.1411223
v 0.1629565 0.4145755 3.051758E-07
v -0.2011255 0.4963487 3.051758E-07
v 0.2011255 0.4764473 3.051758E-07
v -0.1629565 0.4338378 3.051758E-07
v 0.08147705 0.4338378 0.141123
v -0.100564 0.4764473 0.1741824
v 0.100564 0.4963487 0.1741824
v -0.08147705 0.4145755 0.1411227
vt 0.008884861 0.1058562
vt 0.008884861 0.1058562
vt 0.008884861 0.1058562
vt 0.008884861 0.1058562
vt 0.008884861 0.1058562
vt 0.008884861 0.1058561
vt 0.008884861 0.1058561
vt 0.451416 0.2813072
vt 0.451416 0.281311
vt 0.451416 0.2813072
vt 0.451416 0.2813072
vt 0.451416 0.2813072
vt 0.451416 0.2813072
vt 0.451416 0.2813072
vt 0.008884861 0.1058562
vt 0.008884861 0.1058562
vt 0.008884861 0.1058562
vt 0.008884861 0.1058562
vt 0.008884861 0.1058563
vt 0.008884861 0.1058562
vt 0.008884861 0.1058561
vt 0.008884861 0.1058562
vt 0.008884861 0.1058563
vt 0.008884861 0.1058562
vt 0.008884861 0.1058562
vt 0.008884861 0.1058562
vt 0.2588571 0.1548433
vt 0.2588571 0.1548433
vt 0.2588571 0.1548433
vt 0.2588571 0.1548433
vt 0.2588571 0.1548433
vt 0.2588571 0.1548433
vt 0.2588571 0.1548433
vt 0.2588571 0.1548433
vt 0.2588571 0.1548433
vt 0.2588571 0.1548433
vt 0.2588571 0.1548433
vt 0.2588571 0.1548433
vt 0.451416 0.2813072
vt 0.451416 0.2813072
vt 0.451416 0.2813072
vt 0.451416 0.2813072
vt 0.451416 0.2813072
vt 0.451416 0.2813072
vt 0.451416 0.2813072
vt 0.451416 0.2813072
vt 0.451416 0.2813072
vt 0.451416 0.2813072
vt 0.451416 0.2813072
vt 0.451416 0.2813072
vt 0.2588571 0.1548433
vt 0.2588571 0.1548433
vt 0.2588571 0.1548433
vt 0.2588571 0.1548433
vt 0.2588571 0.1548433
vt 0.2588571 0.1548433
vt 0.2588571 0.1548433
vt 0.2588571 0.1548433
vt 0.2588571 0.1548433
vt 0.2588571 0.1548433
vt 0.2588571 0.1548433
vt 0.2588571 0.1548433
vn 0 -1 0
vn 0 -1 0
vn 0 -1 0
vn 0 -1 0
vn 0 -1 0
vn 0 -1 0
vn 0 -1 0
vn 0.4755241 0.2853706 -0.8321301
vn 0.007316994 0.9999733 0
vn -0.4882086 0.2438349 -0.837972
vn 0.9740412 0.2263712 0
vn -0.9528468 0.3034519 0
vn 0.4755243 0.2853704 0.83213
vn -0.4882086 0.2438349 0.837972
vn 0.5 0 -0.8660254
vn 0.2729838 -0.7824101 -0.5597447
vn -0.3335388 -0.7449881 -0.5777064
vn -0.5 0 -0.8660254
vn 1 0 0
vn -0.6270294 -0.7789955 0
vn 0.621245 -0.7824103 0.04346124
vn -1 0 0
vn 0.5 0 0.8660254
vn -0.2998767 -0.7403325 0.6016493
vn 0.2998762 -0.7403332 0.6016486
vn -0.5 0 0.8660254
vn 0.2729838 -0.7824101 -0.5597447
vn 0.0948292 -0.9560892 -0.2773101
vn -0.184419 -0.9294932 -0.3194245
vn -0.3335388 -0.7449881 -0.5777064
vn 0.621245 -0.7824103 0.04346124
vn -0.2974136 -0.9547488 0
vn 0.2875723 -0.9560891 0.05653124
vn -0.6270294 -0.7789955 0
vn 0.2998762 -0.7403332 0.6016486
vn -0.1411606 -0.9245321 0.3539972
vn 0.1411612 -0.9245326 0.3539955
vn -0.2998767 -0.7403325 0.6016493
vn 0.4734591 0.5096679 -0.7183837
vn 0.5020552 0.2912107 -0.8143321
vn -0.4684683 0.3494912 -0.8114145
vn -0.4251809 0.5261893 -0.7364414
vn 0.8646453 0.5000452 -0.04840739
vn -0.9548624 0.2970486 0
vn 0.9432524 0.33085 -0.02851288
vn -0.8533098 0.5214042 0
vn 0.4635119 0.5471526 0.6969798
vn -0.4933593 0.3566233 0.7933577
vn 0.4999546 0.3151927 0.8066591
vn -0.4648504 0.5363653 0.7044334
vn 0.5020552 0.2912107 -0.8143321
vn 0.4755241 0.2853706 -0.8321301
vn -0.4882086 0.2438349 -0.837972
vn -0.4684683 0.3494912 -0.8114145
vn 0.9432524 0.33085 -0.02851288
vn -0.9528468 0.3034519 0
vn 0.9740412 0.2263712 0
vn -0.9548624 0.2970486 0
vn 0.4999546 0.3151927 0.8066591
vn -0.4882086 0.2438349 0.837972
vn 0.4755243 0.2853704 0.83213
vn -0.4933593 0.3566233 0.7933577
g SM_Env_Generic_Tree_01_Snow_0
f 3/3/3 2/2/2 1/1/1
f 1/1/1 2/2/2 4/4/4
f 5/5/5 2/2/2 3/3/3
f 4/4/4 2/2/2 6/6/6
f 7/7/7 2/2/2 5/5/5
f 6/6/6 2/2/2 7/7/7
f 10/10/10 9/9/9 8/8/8
f 8/8/8 9/9/9 11/11/11
f 12/12/12 9/9/9 10/10/10
f 11/11/11 9/9/9 13/13/13
f 14/14/14 9/9/9 12/12/12
f 13/13/13 9/9/9 14/14/14
f 17/17/17 16/16/16 15/15/15
f 18/18/18 17/17/17 15/15/15
f 15/15/15 16/16/16 19/19/19
f 20/20/20 17/17/17 18/18/18
f 16/16/16 21/21/21 19/19/19
f 22/22/22 20/20/20 18/18/18
f 19/19/19 21/21/21 23/23/23
f 24/24/24 20/20/20 22/22/22
f 21/21/21 25/25/25 23/23/23
f 26/26/26 24/24/24 22/22/22
f 23/23/23 25/25/25 26/26/26
f 25/25/25 24/24/24 26/26/26
f 29/29/29 28/28/28 27/27/27
f 30/30/30 29/29/29 27/27/27
f 27/27/27 28/28/28 31/31/31
f 32/32/32 29/29/29 30/30/30
f 28/28/28 33/33/33 31/31/31
f 34/34/34 32/32/32 30/30/30
f 31/31/31 33/33/33 35/35/35
f 36/36/36 32/32/32 34/34/34
f 33/33/33 37/37/37 35/35/35
f 38/38/38 36/36/36 34/34/34
f 35/35/35 37/37/37 38/38/38
f 37/37/37 36/36/36 38/38/38
f 41/41/41 40/40/40 39/39/39
f 42/42/42 41/41/41 39/39/39
f 39/39/39 40/40/40 43/43/43
f 44/44/44 41/41/41 42/42/42
f 40/40/40 45/45/45 43/43/43
f 46/46/46 44/44/44 42/42/42
f 43/43/43 45/45/45 47/47/47
f 48/48/48 44/44/44 46/46/46
f 45/45/45 49/49/49 47/47/47
f 50/50/50 48/48/48 46/46/46
f 47/47/47 49/49/49 50/50/50
f 49/49/49 48/48/48 50/50/50
f 53/53/53 52/52/52 51/51/51
f 54/54/54 53/53/53 51/51/51
f 51/51/51 52/52/52 55/55/55
f 56/56/56 53/53/53 54/54/54
f 52/52/52 57/57/57 55/55/55
f 58/58/58 56/56/56 54/54/54
f 55/55/55 57/57/57 59/59/59
f 60/60/60 56/56/56 58/58/58
f 57/57/57 61/61/61 59/59/59
f 62/62/62 60/60/60 58/58/58
f 59/59/59 61/61/61 62/62/62
f 61/61/61 60/60/60 62/62/62
