g SM_Env_Generic_Dead_Tree_01.001
v 0.004506378 0.02377187 0.1764191
v 0.06968689 0.01147838 0.2565136
v 0.002049713 0.01117832 0.2151705
v 0.08475494 0.02421436 0.2308774
v 0.01442978 -0.01371638 0.1645207
v 0.09144592 -0.006051443 0.219647
v 0.002512665 -0.02603916 0.2025786
v 0.07612106 -0.01859669 0.2461997
v 0.002049713 0.01117832 0.2151705
v 0.06968689 0.01147838 0.2565136
v 0.1893666 0.01113124 0.2720376
v 0.1953633 -0.01560597 0.2632583
v 0.1748352 7.876348E-05 0.2956385
v 0.1815186 -0.02713399 0.2856357
v 0.2882538 0.01475267 0.3659019
v 0.2794087 0.007890029 0.3792082
v 0.2927806 -0.001425459 0.3606525
v 0.2837169 -0.00815718 0.3741305
vt 0.008889134 0.1035089
vt 0.008889135 0.103509
vt 0.008889135 0.1035089
vt 0.008889134 0.103509
vt 0.008889134 0.1035089
vt 0.008889134 0.103509
vt 0.008889134 0.1035089
vt 0.008889134 0.103509
vt 0.008889134 0.1035089
vt 0.008889134 0.103509
vt 0.008889134 0.103509
vt 0.008889134 0.103509
vt 0.008889134 0.103509
vt 0.008889134 0.103509
vt 0.008889134 0.103509
vt 0.008889134 0.103509
vt 0.008889134 0.103509
vt 0.008889134 0.103509
vn 0.3022828 0.841051 -0.4486183
vn -0.3823958 0.4015403 0.8321892
vn -0.4533635 0.48299 0.7491209
vn 0.2061757 0.9418519 -0.265342
vn 0.5689325 -0.3142943 -0.759957
vn 0.4444984 -0.372411 -0.814697
vn -0.08094414 -0.9516516 0.2963229
vn -0.1918229 -0.8928329 0.4074967
vn -0.4533635 0.48299 0.7491209
vn -0.3823958 0.4015403 0.8321892
vn 0.2830766 0.8836695 -0.3728216
vn 0.5149977 -0.3839444 -0.7663968
vn -0.4448579 0.3720517 0.8146649
vn -0.1229542 -0.9565146 0.2645033
vn 0.6162437 0.7798899 0.1096158
vn 0.007785121 0.3328152 0.9429599
vn 0.9413263 -0.266483 -0.2071024
vn 0.3159175 -0.7024919 0.6377314
g SM_Env_Generic_Dead_Tree_01.001_0
f 3/3/3 2/2/2 1/1/1
f 2/2/2 4/4/4 1/1/1
f 1/1/1 4/4/4 5/5/5
f 4/4/4 6/6/6 5/5/5
f 5/5/5 6/6/6 7/7/7
f 6/6/6 8/8/8 7/7/7
f 9/9/9 7/7/7 8/8/8
f 10/10/10 9/9/9 8/8/8
f 4/4/4 11/11/11 6/6/6
f 6/6/6 12/12/12 8/8/8
f 11/11/11 12/12/12 6/6/6
f 10/10/10 13/13/13 4/4/4
f 13/13/13 11/11/11 4/4/4
f 8/8/8 14/14/14 10/10/10
f 12/12/12 14/14/14 8/8/8
f 14/14/14 13/13/13 10/10/10
f 11/11/11 15/15/15 12/12/12
f 13/13/13 16/16/16 11/11/11
f 16/16/16 15/15/15 11/11/11
f 15/15/15 17/17/17 12/12/12
f 12/12/12 17/17/17 14/14/14
f 15/15/15 16/16/16 17/17/17
f 18/18/18 16/16/16 13/13/13
f 14/14/14 18/18/18 13/13/13
f 16/16/16 18/18/18 17/17/17
f 17/17/17 18/18/18 14/14/14
