g SM_Env_Generic_Dead_Tree_01.006
v -0.02935028 0.02411641 0.6752589
v -0.08104965 0.004217647 0.6871526
v -0.03132126 0.02281811 0.6600618
v -0.03173065 0.008008238 0.6627366
v -0.07369995 0.006492501 0.6982343
v -0.02961731 0.009334453 0.6781555
v -0.06866455 -0.005956153 0.6973932
v -0.07601929 -0.008232228 0.6862837
v -0.02961731 0.009334453 0.6781555
v -0.1064453 -0.01246655 0.7441074
v -0.1128896 -0.01407635 0.7355312
v -0.1040776 -0.02290356 0.7441416
v -0.1103694 -0.02449299 0.7357475
vt 0.008889134 0.1035089
vt 0.008889134 0.103509
vt 0.008889134 0.1035089
vt 0.008889134 0.1035089
vt 0.008889134 0.103509
vt 0.008889134 0.1035089
vt 0.008889134 0.103509
vt 0.008889134 0.103509
vt 0.008889135 0.1035089
vt 0.008889134 0.103509
vt 0.008889134 0.103509
vt 0.008889134 0.103509
vt 0.008889134 0.103509
vn -0.09889619 0.8758901 0.472267
vn -0.7001746 0.4771108 -0.5311504
vn -0.5480079 0.5887314 -0.5942076
vn -0.1763916 -0.6220626 -0.7628395
vn 0.08185011 0.8341907 0.545368
vn 0.5328578 -0.5272288 0.6618854
vn 0.6459835 -0.5825489 0.4932972
vn -0.2326768 -0.7590347 -0.6080526
vn 0.5328578 -0.5272288 0.6618854
vn -0.1591741 0.5131309 0.8434218
vn -0.9554404 0.2944251 0.0211561
vn 0.1455553 -0.5590352 0.8162679
vn -0.5816068 -0.8134639 -0.003149119
g SM_Env_Generic_Dead_Tree_01.006_0
f 3/3/3 2/2/2 1/1/1
f 2/2/2 3/3/3 4/4/4
f 2/2/2 5/5/5 1/1/1
f 1/1/1 5/5/5 6/6/6
f 5/5/5 7/7/7 6/6/6
f 8/8/8 2/2/2 4/4/4
f 8/8/8 4/4/4 9/9/9
f 7/7/7 8/8/8 9/9/9
f 5/5/5 10/10/10 7/7/7
f 2/2/2 11/11/11 5/5/5
f 11/11/11 10/10/10 5/5/5
f 10/10/10 12/12/12 7/7/7
f 7/7/7 12/12/12 8/8/8
f 12/12/12 10/10/10 11/11/11
f 13/13/13 11/11/11 2/2/2
f 8/8/8 13/13/13 2/2/2
f 13/13/13 12/12/12 11/11/11
f 12/12/12 13/13/13 8/8/8
