g SM_Env_Samurai_Tree_01.006
v 0.03146577 0.6568723 1.62869
v -0.4860173 0.7370549 1.49564
v -0.008446813 1.036945 1.530015
v -0.220236 0.3195638 1.530015
v 0.5203992 0.7589794 1.504719
v 0.3365134 0.3703586 1.516144
v -0.2848165 0.9345339 1.370355
v -0.436667 0.5032023 1.399354
v 0.2834461 0.997115 1.39169
v 0.07138085 0.2767997 1.370355
v 0.5033125 0.5876789 1.370356
v 0.0359906 0.6979587 1.291844
vt 0.2037901 0.9931978
vt 0.2037902 0.9931978
vt 0.2037901 0.9931978
vt 0.2037901 0.9931978
vt 0.2037901 0.9931978
vt 0.2037901 0.9931978
vt 0.2037902 0.9931978
vt 0.2037902 0.9931978
vt 0.2037901 0.9931978
vt 0.2037901 0.9931978
vt 0.2037901 0.9931977
vt 0.2037901 0.9931978
vn -0.003470535 0.1071436 0.9942374
vn -0.867183 0.2630868 0.4228227
vn -0.1920615 0.8546976 0.4822909
vn -0.3650631 -0.7753658 0.5153025
vn 0.7904671 0.3188543 0.5229663
vn 0.4981315 -0.7050847 0.5046985
vn -0.4161379 0.777835 -0.4709584
vn -0.8881377 -0.3072298 -0.3417913
vn 0.3358372 0.8654333 -0.3718044
vn 0.00865101 -0.8825147 -0.4702054
vn 0.7962589 -0.356026 -0.4890984
vn -0.093997 0.003534351 -0.9955662
g SM_Env_Samurai_Tree_01.006_0
f 3/3/3 2/2/2 1/1/1
f 2/2/2 4/4/4 1/1/1
f 5/5/5 3/3/3 1/1/1
f 4/4/4 6/6/6 1/1/1
f 6/6/6 5/5/5 1/1/1
f 2/2/2 3/3/3 7/7/7
f 4/4/4 2/2/2 8/8/8
f 7/7/7 8/8/8 2/2/2
f 3/3/3 5/5/5 9/9/9
f 9/9/9 7/7/7 3/3/3
f 6/6/6 4/4/4 10/10/10
f 8/8/8 10/10/10 4/4/4
f 5/5/5 6/6/6 11/11/11
f 11/11/11 9/9/9 5/5/5
f 10/10/10 11/11/11 6/6/6
f 8/8/8 7/7/7 12/12/12
f 7/7/7 9/9/9 12/12/12
f 9/9/9 11/11/11 12/12/12
f 10/10/10 8/8/8 12/12/12
f 11/11/11 10/10/10 12/12/12
