g SM_Env_Generic_River_Stone_02_Snow
v -0.2357495 0.07118056 -0.15701
v -0.1560876 0.07118056 -0.2349184
v -0.0689856 0.07118056 -0.2230999
v -0.02837524 0.07118056 -0.1161793
v -0.1743103 0.07118056 -0.06279296
v -0.02837524 0.07118056 -0.1161793
v -0.002341309 0 -0.09062725
v -0.1864148 0 -0.02451927
v -0.1743103 0.07118056 -0.06279296
v -0.2739282 0 -0.1515881
v -0.2357495 0.07118056 -0.15701
v -0.1657397 0 -0.2704465
v -0.1560876 0.07118056 -0.2349184
v -0.04343384 0 -0.2491342
v -0.0689856 0.07118056 -0.2230999
v -0.002341309 0 -0.09062725
v -0.04952515 0.1029464 0.04548759
v 0.1622485 0.1029464 -0.02974792
v 0.2498279 0.1029464 0.1073399
v 0.00776001 0.1029464 0.2006659
v 0.1335693 0.1029464 0.2189349
v -0.04952515 0.1029464 0.04548759
v -0.08683106 4.768371E-09 0.008181991
v 0.180271 4.768371E-09 -0.08493607
v 0.1622485 0.1029464 -0.02974792
v 0.305116 4.768371E-09 0.1000146
v 0.2498279 0.1029464 0.1073399
v 0.1470459 4.768371E-09 0.2704465
v 0.1335693 0.1029464 0.2189349
v -0.02954468 4.768371E-09 0.2379714
v 0.00776001 0.1029464 0.2006659
v -0.08683106 4.768371E-09 0.008181991
v -0.194585 0.0542974 0.1549879
v -0.1715478 0.0542974 0.06887054
v -0.156438 4.768371E-09 0.0436319
v -0.1914136 4.768371E-09 0.1826329
v -0.194585 0.0542974 0.1549879
v -0.2774695 0.0542974 0.127748
v -0.256897 0.0542974 0.06007698
v -0.1715478 0.0542974 0.06887054
v -0.2774695 0.0542974 0.127748
v -0.3051135 4.768371E-09 0.1309195
v -0.2737793 4.768371E-09 0.03453041
v -0.256897 0.0542974 0.06007698
v -0.156438 4.768371E-09 0.0436319
v -0.1715478 0.0542974 0.06887054
v -0.3051135 4.768371E-09 0.1309195
v -0.194585 0.0542974 0.1549879
v -0.1914136 4.768371E-09 0.1826329
vt 0.451416 0.2836084
vt 0.451416 0.2836084
vt 0.451416 0.2836084
vt 0.451416 0.2836084
vt 0.451416 0.2836084
vt 0.8962229 0.2835304
vt 0.8962229 0.2835304
vt 0.8962229 0.2835304
vt 0.8962229 0.2835304
vt 0.8962229 0.2835304
vt 0.8962229 0.2835304
vt 0.8962229 0.2835304
vt 0.8962229 0.2835304
vt 0.8962229 0.2835304
vt 0.8962229 0.2835304
vt 0.8962229 0.2835304
vt 0.451416 0.2836094
vt 0.451416 0.2836094
vt 0.451416 0.2836094
vt 0.451416 0.2836094
vt 0.451416 0.2836094
vt 0.8962229 0.2835304
vt 0.8962229 0.2835304
vt 0.8962229 0.2835304
vt 0.8962229 0.2835304
vt 0.8962229 0.2835304
vt 0.8962229 0.2835304
vt 0.8962229 0.2835304
vt 0.8962229 0.2835304
vt 0.8962229 0.2835304
vt 0.8962229 0.2835304
vt 0.8962229 0.2835304
vt 0.8962229 0.2835304
vt 0.8962229 0.2835304
vt 0.8962229 0.2835304
vt 0.8962229 0.2835304
vt 0.451416 0.2836084
vt 0.451416 0.2836084
vt 0.451416 0.2836084
vt 0.451416 0.2836084
vt 0.8962229 0.2835304
vt 0.8962229 0.2835304
vt 0.8962229 0.2835304
vt 0.8962229 0.2835304
vt 0.8962229 0.2835304
vt 0.8962229 0.2835304
vt 0.8962229 0.2835304
vt 0.8962229 0.2835304
vt 0.8962229 0.2835304
vn -0.6829947 0.7246101 -0.0919702
vn -0.3047712 0.6162562 -0.7261837
vn 0.4674131 0.7494145 -0.468938
vn 0.5991429 0.72509 0.3395176
vn -0.1452526 0.7229596 0.6754487
vn 0.5991429 0.72509 0.3395176
vn 0.3099083 0.4140445 0.8558761
vn -0.1788461 0.5010321 0.8467472
vn -0.1452526 0.7229596 0.6754487
vn -0.8755624 0.4817162 -0.03660591
vn -0.6829947 0.7246101 -0.0919702
vn -0.3365794 0.4228479 -0.8413762
vn -0.3047712 0.6162562 -0.7261837
vn 0.6548912 0.4153552 -0.6313459
vn 0.4674131 0.7494145 -0.468938
vn 0.9028409 0.3280929 -0.2779091
vn -0.5959433 0.7250903 -0.3451024
vn 0.1515597 0.7229598 -0.6740616
vn 0.6821065 0.7246091 0.09834883
vn -0.4717761 0.7494138 0.4645496
vn 0.2979767 0.6162553 0.7289988
vn -0.5959433 0.7250903 -0.3451024
vn -0.3018967 0.4140463 -0.8587341
vn 0.1867498 0.5010335 -0.8450385
vn 0.1515597 0.7229598 -0.6740616
vn 0.8751839 0.4817128 0.04478655
vn 0.6821065 0.7246091 0.09834883
vn 0.328698 0.4228464 0.8444872
vn 0.2979767 0.6162553 0.7289988
vn -0.6607618 0.4153568 0.6251979
vn -0.4717761 0.7494138 0.4645496
vn -0.9053984 0.3280943 0.2694586
vn 0.9548945 0.1662034 0.246075
vn 0.9548945 0.1662034 0.246075
vn 0.9548945 0.1662034 0.246075
vn 0.9548945 0.1662034 0.246075
vn -0.2194872 0.8081869 0.5464973
vn -0.5107428 0.7870292 0.3460158
vn -0.2908016 0.8120127 -0.5060335
vn 0.0498554 0.8237938 -0.5646931
vn -0.5107428 0.7870292 0.3460158
vn -0.8684402 0.4126935 -0.2747646
vn -0.4282364 0.5064951 -0.7483824
vn -0.2908016 0.8120127 -0.5060335
vn 0.07976356 0.4212044 -0.9034515
vn 0.0498554 0.8237938 -0.5646931
vn -0.3520603 0.3280942 0.8765888
vn -0.2194872 0.8081869 0.5464973
vn -0.3520603 0.3280942 0.8765888
g SM_Env_Generic_River_Stone_02_Snow_0
f 3/3/3 2/2/2 1/1/1
f 1/1/1 4/4/4 3/3/3
f 1/1/1 5/5/5 4/4/4
f 8/8/8 7/7/7 6/6/6
f 9/9/9 8/8/8 6/6/6
f 8/8/8 9/9/9 10/10/10
f 9/9/9 11/11/11 10/10/10
f 10/10/10 11/11/11 12/12/12
f 11/11/11 13/13/13 12/12/12
f 12/12/12 13/13/13 14/14/14
f 13/13/13 15/15/15 14/14/14
f 15/15/15 6/6/6 16/16/16
f 14/14/14 15/15/15 16/16/16
f 19/19/19 18/18/18 17/17/17
f 17/17/17 20/20/20 19/19/19
f 20/20/20 21/21/21 19/19/19
f 24/24/24 23/23/23 22/22/22
f 25/25/25 24/24/24 22/22/22
f 24/24/24 25/25/25 26/26/26
f 25/25/25 27/27/27 26/26/26
f 26/26/26 27/27/27 28/28/28
f 27/27/27 29/29/29 28/28/28
f 28/28/28 29/29/29 30/30/30
f 29/29/29 31/31/31 30/30/30
f 31/31/31 22/22/22 32/32/32
f 30/30/30 31/31/31 32/32/32
f 35/35/35 34/34/34 33/33/33
f 36/36/36 35/35/35 33/33/33
f 39/39/39 38/38/38 37/37/37
f 40/40/40 39/39/39 37/37/37
f 43/43/43 42/42/42 41/41/41
f 44/44/44 43/43/43 41/41/41
f 43/43/43 44/44/44 45/45/45
f 44/44/44 46/46/46 45/45/45
f 48/48/48 41/41/41 47/47/47
f 49/49/49 48/48/48 47/47/47
