g SM_Prop_CardboardBox_01
v -0.1083205 0 0.1083198
v 0.1083198 0 0.1083198
v -0.1083205 0.198326 0.1083198
v 0.1083198 0.198326 0.1083198
v -0.1083205 0.198326 -0.1083197
v 0.1083198 0.198326 -0.1083197
v -0.1083205 0 -0.1083197
v 0.1083198 0 -0.1083197
v -0.09222236 0.2166394 0.0826133
v 0.09222153 0.2166394 0.0826133
v 0.09222153 0.2166394 -0.08261341
v -0.09222236 0.2166394 -0.08261341
v -0.0826136 0.01595712 0.0826133
v 0.0826131 0.01595712 0.0826133
v 0.0826131 0.01595712 -0.08261341
v -0.0826136 0.01595712 -0.08261341
v -0.1083205 0.2344469 -0.1813427
v 0.1083198 0.2344469 -0.1813427
v -0.0826136 0.2584689 -0.1610681
v 0.0826131 0.2584689 -0.1610681
v -0.1083205 0.2487096 0.1572005
v 0.1083198 0.2487096 0.1572005
v 0.0826131 0.2717414 0.1350193
v -0.0826136 0.2717414 0.1350193
v 0.1739114 0.2195904 0.1083198
v 0.1739114 0.2195904 -0.1083197
v 0.1556453 0.2379039 -0.08261341
v 0.1556453 0.2379039 0.0826133
v -0.1739123 0.2195903 0.1083198
v -0.1739123 0.2195903 -0.1083197
v -0.1556463 0.2379039 0.0826133
v -0.1556463 0.2379039 -0.08261341
v -0.1083205 0 -0.1083197
v -0.1083205 0 0.1083198
v 0.1083198 0 0.1083198
v 0.1083198 0 -0.1083197
v 0.1083198 0 0.1083198
v 0.1083198 0.198326 0.1083198
v 0.1083198 0.198326 -0.1083197
v 0.1083198 0 -0.1083197
v -0.1083205 0 -0.1083197
v -0.1083205 0.198326 -0.1083197
v -0.1083205 0.198326 0.1083198
v -0.1083205 0 0.1083198
v -0.0826136 0.01595712 0.0826133
v 0.0826131 0.01595712 0.0826133
v 0.09222153 0.2166394 0.0826133
v 0.0826131 0.01595712 0.0826133
v 0.0826131 0.01595712 -0.08261341
v 0.09222153 0.2166394 -0.08261341
v 0.0826131 0.01595712 -0.08261341
v -0.0826136 0.01595712 -0.08261341
v -0.09222236 0.2166394 -0.08261341
v -0.0826136 0.01595712 -0.08261341
v -0.0826136 0.01595712 0.0826133
v -0.09222236 0.2166394 0.0826133
v 0.1083198 0.198326 -0.1083197
v 0.1083198 0.2344469 -0.1813427
v -0.1083205 0.2344469 -0.1813427
v -0.1083205 0.198326 -0.1083197
v -0.1083205 0.198326 -0.1083197
v -0.1083205 0.2344469 -0.1813427
v -0.0826136 0.2584689 -0.1610681
v -0.09222236 0.2166394 -0.08261341
v 0.0826131 0.2584689 -0.1610681
v 0.09222153 0.2166394 -0.08261341
v 0.1083198 0.2344469 -0.1813427
v 0.1083198 0.198326 -0.1083197
v -0.1083205 0.2487096 0.1572005
v 0.1083198 0.2487096 0.1572005
v 0.1083198 0.198326 0.1083198
v 0.1083198 0.2487096 0.1572005
v 0.0826131 0.2717414 0.1350193
v -0.0826136 0.2717414 0.1350193
v -0.1083205 0.2487096 0.1572005
v -0.1083205 0.198326 0.1083198
v 0.1083198 0.198326 0.1083198
v 0.1739114 0.2195904 0.1083198
v 0.1739114 0.2195904 -0.1083197
v 0.1083198 0.198326 -0.1083197
v 0.1083198 0.198326 -0.1083197
v 0.1739114 0.2195904 -0.1083197
v 0.1556453 0.2379039 -0.08261341
v 0.09222153 0.2166394 -0.08261341
v 0.1556453 0.2379039 0.0826133
v 0.09222153 0.2166394 0.0826133
v 0.1739114 0.2195904 0.1083198
v 0.1083198 0.198326 0.1083198
v -0.1083205 0.198326 -0.1083197
v -0.1739123 0.2195903 -0.1083197
v -0.1739123 0.2195903 0.1083198
v -0.1083205 0.198326 0.1083198
v -0.1083205 0.198326 0.1083198
v -0.1739123 0.2195903 0.1083198
v -0.1556463 0.2379039 0.0826133
v -0.09222236 0.2166394 0.0826133
v -0.1556463 0.2379039 -0.08261341
v -0.09222236 0.2166394 -0.08261341
v -0.1739123 0.2195903 -0.1083197
v -0.1083205 0.198326 -0.1083197
vt 0.08378297 0.1929511
vt 0.08378291 0.1929511
vt 0.08378297 0.1929512
vt 0.08378291 0.1929512
vt 0.08378297 0.1929512
vt 0.08378291 0.1929512
vt 0.08378297 0.1929511
vt 0.08378291 0.1929511
vt 0.08378297 0.1929512
vt 0.08378291 0.1929512
vt 0.08378291 0.1929512
vt 0.08378297 0.1929512
vt 0.08378297 0.1929512
vt 0.08378291 0.1929512
vt 0.08378291 0.1929512
vt 0.08378297 0.1929512
vt 0.08378297 0.1929512
vt 0.08378291 0.1929512
vt 0.08378297 0.1929512
vt 0.08378291 0.1929512
vt 0.08378297 0.1929512
vt 0.08378291 0.1929512
vt 0.08378291 0.1929512
vt 0.08378297 0.1929512
vt 0.08378291 0.1929512
vt 0.08378291 0.1929512
vt 0.08378291 0.1929512
vt 0.08378291 0.1929512
vt 0.08378297 0.1929512
vt 0.08378297 0.1929512
vt 0.08378297 0.1929512
vt 0.08378297 0.1929512
vt 0.08378297 0.1929511
vt 0.08378297 0.1929511
vt 0.08378291 0.1929511
vt 0.08378291 0.1929511
vt 0.08378291 0.1929511
vt 0.08378291 0.1929512
vt 0.08378291 0.1929512
vt 0.08378291 0.1929511
vt 0.08378293 0.1929511
vt 0.08378293 0.1929512
vt 0.08378297 0.1929512
vt 0.08378297 0.1929511
vt 0.08378297 0.1929512
vt 0.08378291 0.1929512
vt 0.08378291 0.1929512
vt 0.08378291 0.1929512
vt 0.08378291 0.1929512
vt 0.08378291 0.1929512
vt 0.08378291 0.1929512
vt 0.08378297 0.1929512
vt 0.08378297 0.1929512
vt 0.08378297 0.1929512
vt 0.08378297 0.1929512
vt 0.08378297 0.1929512
vt 0.08378291 0.1929512
vt 0.08378291 0.1929512
vt 0.08378297 0.1929512
vt 0.08378297 0.1929512
vt 0.08378297 0.1929512
vt 0.08378297 0.1929512
vt 0.08378297 0.1929512
vt 0.08378297 0.1929512
vt 0.08378291 0.1929512
vt 0.08378291 0.1929512
vt 0.08378291 0.1929512
vt 0.08378291 0.1929512
vt 0.08378297 0.1929512
vt 0.08378291 0.1929512
vt 0.08378291 0.1929512
vt 0.08378291 0.1929512
vt 0.08378291 0.1929512
vt 0.08378297 0.1929512
vt 0.08378297 0.1929512
vt 0.08378297 0.1929512
vt 0.08378291 0.1929512
vt 0.08378291 0.1929512
vt 0.08378291 0.1929512
vt 0.08378291 0.1929512
vt 0.08378291 0.1929512
vt 0.08378291 0.1929512
vt 0.08378291 0.1929512
vt 0.08378291 0.1929512
vt 0.08378291 0.1929512
vt 0.08378291 0.1929512
vt 0.08378291 0.1929512
vt 0.08378291 0.1929512
vt 0.08378297 0.1929512
vt 0.08378297 0.1929512
vt 0.08378297 0.1929512
vt 0.08378297 0.1929512
vt 0.08378297 0.1929512
vt 0.08378297 0.1929512
vt 0.08378297 0.1929512
vt 0.08378297 0.1929512
vt 0.08378297 0.1929512
vt 0.08378297 0.1929512
vt 0.08378297 0.1929512
vt 0.08378297 0.1929512
vn 0 0 1
vn 0 0 1
vn 0 -0.1928483 0.9812286
vn 0 -0.1928483 0.9812286
vn 0 0 -1
vn 0 0 -1
vn 0 0 -1
vn 0 0 -1
vn -0.04920413 0.2126361 -0.9758918
vn 0.04920401 0.2126362 -0.9758918
vn -0.9988558 0.04782399 0
vn 0 0 1
vn 0 1 0
vn 0 1 0
vn 0 1 0
vn 0 1 0
vn 0 0.6449841 -0.7641959
vn 0 0.6449841 -0.764196
vn 0 0.6449842 -0.764196
vn 0 0.6449842 -0.764196
vn 0 0.6936818 0.7202816
vn 0 0.6936818 0.7202816
vn 0 0.6936818 0.7202816
vn 0 0.6936817 0.7202816
vn 0.7080246 0.7061878 0
vn 0.7080246 0.7061878 0
vn 0.7080246 0.7061878 0
vn 0.7080246 0.7061878 0
vn -0.7080256 0.7061867 0
vn -0.7080256 0.7061867 0
vn -0.7080256 0.7061867 0
vn -0.7080256 0.7061867 0
vn 0 -1 0
vn 0 -1 0
vn 0 -1 0
vn 0 -1 0
vn 1 0 0
vn 1 0 0
vn 1 0 0
vn 1 0 0
vn -1 0 0
vn -1 0 0
vn -1 0 0
vn -1 0 0
vn 0 0 -1
vn 0 0 -1
vn -0.9988558 0.04782399 0
vn -0.9988558 0.04782399 0
vn -0.9988558 0.04782399 0
vn 0 0 1
vn 0 0 1
vn 0 0 1
vn 0.9988557 0.04782569 0
vn 0.9988557 0.04782569 0
vn 0.9988557 0.04782569 0
vn 0.9988557 0.04782569 0
vn 0 -0.8963367 -0.443374
vn 0 -0.8963367 -0.443374
vn 0 -0.8963367 -0.443374
vn 0 -0.8963367 -0.443374
vn -0.8056744 0.5459511 0.2298396
vn -0.8056744 0.5459511 0.2298396
vn -0.141318 0.8779776 0.4573671
vn -0.1209608 0.8797222 0.4598448
vn 0.1413186 0.8779774 0.4573672
vn 0.1209604 0.8797222 0.459845
vn 0.8056759 0.5459486 0.2298401
vn 0.8056759 0.5459486 0.2298401
vn 0 -0.6963215 0.7177299
vn 0 -0.6963215 0.7177299
vn 0.8313791 0.4224219 -0.3610657
vn 0.8313791 0.4224219 -0.3610658
vn 0.134593 0.6895745 -0.711598
vn -0.1345923 0.6895748 -0.7115979
vn -0.8313778 0.4224244 -0.3610658
vn -0.8313778 0.4224244 -0.3610657
vn 0.3083925 -0.9512592 0
vn 0.3083925 -0.9512592 0
vn 0.3083925 -0.9512592 0
vn 0.3083925 -0.9512592 0
vn -0.234345 0.7109067 -0.6630943
vn -0.234345 0.7109067 -0.6630943
vn -0.3139853 0.9390214 -0.1401857
vn -0.3156751 0.9433728 -0.1019654
vn -0.3139853 0.9390214 0.1401854
vn -0.3156752 0.9433728 0.1019654
vn -0.2343456 0.7109087 0.6630921
vn -0.2343456 0.7109087 0.6630921
vn -0.3083912 -0.9512596 0
vn -0.3083912 -0.9512596 0
vn -0.3083912 -0.9512596 0
vn -0.3083912 -0.9512596 0
vn 0.2343448 0.7109092 0.6630917
vn 0.2343448 0.7109092 0.6630917
vn 0.3139843 0.9390218 0.1401853
vn 0.315674 0.9433731 0.1019654
vn 0.3139842 0.9390218 -0.1401855
vn 0.315674 0.9433731 -0.1019654
vn 0.2343442 0.7109073 -0.6630939
vn 0.2343442 0.7109074 -0.6630938
g SM_Prop_CardboardBox_01_0
f 2/2/2 4/4/4 1/1/1
f 4/4/4 3/3/3 1/1/1
f 4/4/4 70/70/70 3/3/3
f 70/70/70 69/69/69 3/3/3
f 15/15/15 16/16/16 13/13/13
f 14/14/14 15/15/15 13/13/13
f 8/8/8 7/7/7 5/5/5
f 6/6/6 8/8/8 5/5/5
f 35/35/35 34/34/34 33/33/33
f 36/36/36 35/35/35 33/33/33
f 39/39/39 38/38/38 37/37/37
f 40/40/40 39/39/39 37/37/37
f 43/43/43 42/42/42 41/41/41
f 44/44/44 43/43/43 41/41/41
f 23/23/23 24/24/24 21/21/21
f 22/22/22 23/23/23 21/21/21
f 27/27/27 28/28/28 25/25/25
f 26/26/26 27/27/27 25/25/25
f 19/19/19 20/20/20 18/18/18
f 17/17/17 19/19/19 18/18/18
f 31/31/31 32/32/32 30/30/30
f 29/29/29 31/31/31 30/30/30
f 46/46/46 45/45/45 9/9/9
f 10/10/10 46/46/46 9/9/9
f 9/9/9 74/74/74 10/10/10
f 75/75/75 74/74/74 9/9/9
f 76/76/76 75/75/75 9/9/9
f 74/74/74 73/73/73 10/10/10
f 10/10/10 73/73/73 71/71/71
f 73/73/73 72/72/72 71/71/71
f 49/49/49 48/48/48 47/47/47
f 11/11/11 49/49/49 47/47/47
f 52/52/52 51/51/51 50/50/50
f 12/12/12 52/52/52 50/50/50
f 55/55/55 54/54/54 53/53/53
f 56/56/56 55/55/55 53/53/53
f 59/59/59 58/58/58 57/57/57
f 60/60/60 59/59/59 57/57/57
f 63/63/63 62/62/62 61/61/61
f 64/64/64 63/63/63 61/61/61
f 65/65/65 63/63/63 64/64/64
f 66/66/66 65/65/65 64/64/64
f 67/67/67 65/65/65 66/66/66
f 68/68/68 67/67/67 66/66/66
f 79/79/79 78/78/78 77/77/77
f 80/80/80 79/79/79 77/77/77
f 83/83/83 82/82/82 81/81/81
f 84/84/84 83/83/83 81/81/81
f 85/85/85 83/83/83 84/84/84
f 86/86/86 85/85/85 84/84/84
f 87/87/87 85/85/85 86/86/86
f 88/88/88 87/87/87 86/86/86
f 91/91/91 90/90/90 89/89/89
f 92/92/92 91/91/91 89/89/89
f 95/95/95 94/94/94 93/93/93
f 96/96/96 95/95/95 93/93/93
f 97/97/97 95/95/95 96/96/96
f 98/98/98 97/97/97 96/96/96
f 99/99/99 97/97/97 98/98/98
f 100/100/100 99/99/99 98/98/98
