g SM_Prop_PowerBox_01
v -0.2142351 0 0.1181027
v 0.214235 0 0.1181027
v -0.2142351 0.03908886 0.1181027
v 0.214235 0.03908886 0.1181027
v -0.2142351 0.03908886 -0.1181027
v 0.214235 0.03908886 -0.1181027
v -0.2142351 0 -0.1181027
v 0.214235 0 -0.1181027
v -0.1909103 0.03908886 0.093587
v 0.1909102 0.03908886 0.093587
v 0.1909102 0.03908886 -0.09358673
v -0.1909103 0.03908886 -0.09358673
v -0.1909103 0.3424172 0.093587
v 0.1909102 0.3424172 0.093587
v 0.1909102 0.3424172 -0.09358673
v -0.1909103 0.3424172 -0.09358673
v -0.1909103 0.4073744 2.703155E-07
v 0.1909102 0.4073744 2.703155E-07
v -0.1604995 0.07439754 0.093587
v 0.160499 0.07439754 0.093587
v 0.160499 0.3192229 0.093587
v -0.1604995 0.3192229 0.093587
v -1.634486E-07 0.3192229 0.093587
v -1.634486E-07 0.07439754 0.093587
v -0.1604995 0.07439754 0.093587
v -1.634486E-07 0.07439754 0.093587
v -1.634486E-07 0.3192229 0.093587
v -0.1604995 0.3192229 0.093587
v -1.634486E-07 0.3192229 0.093587
v -1.634486E-07 0.07439754 0.093587
v 0.160499 0.07439754 0.093587
v 0.160499 0.3192229 0.093587
v 0.01333249 0.3042412 0.093587
v 0.01333249 0.0893787 0.093587
v 0.1471664 0.0893787 0.093587
v 0.1471664 0.3042412 0.093587
v -0.1471667 0.0893787 0.093587
v -0.01333282 0.0893787 0.093587
v -0.01333282 0.3042412 0.093587
v -0.1471667 0.3042412 0.093587
v 0.02804792 0.2413795 0.093587
v 0.02804792 0.1522411 0.093587
v 0.04813511 0.1522411 0.093587
v 0.04813511 0.2413795 0.093587
v -0.04813576 0.1522411 0.093587
v -0.02804809 0.1522411 0.093587
v -0.02804809 0.2413795 0.093587
v -0.04813576 0.2413795 0.093587
v 0.05537636 0.2601471 0.093587
v 0.1362876 0.2601471 0.093587
v 0.1362876 0.2932891 0.093587
v 0.05537636 0.2932891 0.093587
v -0.2142351 0 -0.1181027
v -0.2142351 0 0.1181027
v 0.214235 0 0.1181027
v 0.214235 0 -0.1181027
v 0.214235 0 0.1181027
v 0.214235 0.03908886 0.1181027
v 0.214235 0.03908886 -0.1181027
v 0.214235 0 -0.1181027
v -0.2142351 0 -0.1181027
v -0.2142351 0.03908886 -0.1181027
v -0.2142351 0.03908886 0.1181027
v -0.2142351 0 0.1181027
v -0.2142351 0.03908886 0.1181027
v 0.214235 0.03908886 0.1181027
v 0.214235 0.03908886 -0.1181027
v -0.2142351 0.03908886 -0.1181027
v 0.1909102 0.03908886 0.093587
v 0.1909102 0.03908886 -0.09358673
v 0.1909102 0.03908886 -0.09358673
v 0.1909102 0.3424172 -0.09358673
v -0.1909103 0.03908886 -0.09358673
v -0.1909103 0.03908886 -0.09358673
v -0.1909103 0.3424172 -0.09358673
v -0.1909103 0.03908886 0.093587
v -0.1909103 0.3424172 0.093587
v 0.1909102 0.3424172 0.093587
v 0.1909102 0.4073744 2.703155E-07
v 0.1909102 0.4073744 2.703155E-07
v -0.1909103 0.4073744 2.703155E-07
v -0.1909103 0.4073744 2.703155E-07
v 0.1909102 0.03908886 0.093587
v -0.1909103 0.03908886 0.093587
v -0.1604995 0.07439754 0.093587
v -1.634486E-07 0.07439754 0.093587
v -1.634486E-07 0.3192229 0.093587
v -0.1604995 0.3192229 0.093587
v 0.160499 0.07439754 0.093587
v 0.160499 0.3192229 0.093587
v -1.634486E-07 0.3192229 0.093587
v -1.634486E-07 0.07439754 0.093587
v 0.160499 0.07439754 0.093587
v 0.160499 0.3192229 0.093587
v -0.1604995 0.07439754 0.093587
v -1.634486E-07 0.07439754 0.093587
v -1.634486E-07 0.3192229 0.093587
v -0.1604995 0.3192229 0.093587
v 0.01333249 0.3042412 0.093587
v 0.02804792 0.2413795 0.093587
v 0.02804792 0.1522411 0.093587
v 0.01333249 0.0893787 0.093587
v 0.04813511 0.1522411 0.093587
v 0.1471664 0.0893787 0.093587
v -0.1471667 0.0893787 0.093587
v -0.04813576 0.1522411 0.093587
v -0.02804809 0.1522411 0.093587
v -0.01333282 0.0893787 0.093587
v -0.02804809 0.2413795 0.093587
v -0.01333282 0.3042412 0.093587
v -0.04813576 0.2413795 0.093587
v -0.1471667 0.3042412 0.093587
v 0.04813511 0.2413795 0.093587
v 0.1362876 0.2601471 0.093587
v 0.1362876 0.2932891 0.093587
v 0.1471664 0.3042412 0.093587
v 0.05537636 0.2932891 0.093587
v 0.05537636 0.2601471 0.093587
vt 0.1060683 0.1490838
vt 0.1060683 0.1490838
vt 0.1060683 0.1490839
vt 0.1060683 0.1490839
vt 0.1060683 0.1490839
vt 0.1060683 0.1490839
vt 0.1060683 0.1490839
vt 0.1060683 0.1490839
vt 0.1060683 0.1490839
vt 0.1060683 0.1490839
vt 0.1060683 0.1490839
vt 0.1060683 0.1490839
vt 0.3142394 0.6036683
vt 0.3142394 0.6036683
vt 0.3142394 0.6036683
vt 0.3142394 0.6036683
vt 0.3142394 0.6036683
vt 0.3142394 0.6036683
vt 0.3142394 0.6036683
vt 0.3142394 0.6036683
vt 0.3142394 0.6036683
vt 0.3142394 0.6036683
vt 0.3142394 0.6036683
vt 0.3142394 0.6036683
vt 0.3142394 0.6036683
vt 0.3142394 0.6036683
vt 0.3142394 0.6036683
vt 0.3142394 0.6036683
vt 0.3142394 0.6036683
vt 0.3142394 0.6036683
vt 0.3142394 0.6036683
vt 0.3142394 0.6036683
vt 0.3144222 0.5616966
vt 0.3144222 0.5616964
vt 0.3144222 0.5616964
vt 0.3144222 0.5616966
vt 0.3144222 0.5616964
vt 0.3144222 0.5616964
vt 0.3144222 0.5616966
vt 0.3144222 0.5616966
vt 0.3142397 0.5197247
vt 0.3142397 0.5197245
vt 0.3142397 0.5197245
vt 0.3142397 0.5197247
vt 0.3142397 0.5197245
vt 0.3142397 0.5197245
vt 0.3142397 0.5197247
vt 0.3142397 0.5197247
vt 0.2445755 0.4107087
vt 0.2445755 0.4107087
vt 0.2445755 0.4107087
vt 0.2445755 0.4107087
vt 0.1060683 0.1490839
vt 0.1060683 0.1490838
vt 0.1060683 0.1490838
vt 0.1060683 0.1490839
vt 0.1060683 0.1490838
vt 0.1060683 0.1490839
vt 0.1060682 0.1490839
vt 0.1060682 0.1490838
vt 0.1060683 0.1490838
vt 0.1060683 0.1490839
vt 0.1060683 0.1490839
vt 0.1060683 0.1490838
vt 0.1060683 0.1490839
vt 0.1060683 0.1490839
vt 0.1060683 0.1490839
vt 0.1060683 0.1490839
vt 0.3142394 0.6036683
vt 0.3142394 0.6036683
vt 0.3142394 0.6036683
vt 0.3142394 0.6036683
vt 0.3142394 0.6036683
vt 0.3142394 0.6036683
vt 0.3142394 0.6036683
vt 0.3142394 0.6036683
vt 0.3142394 0.6036683
vt 0.3142394 0.6036683
vt 0.3142394 0.6036683
vt 0.3142394 0.6036683
vt 0.3142394 0.6036683
vt 0.3142394 0.6036683
vt 0.3142394 0.6036683
vt 0.3142394 0.6036683
vt 0.3142394 0.6036683
vt 0.3142394 0.6036683
vt 0.3142394 0.6036683
vt 0.3142394 0.6036683
vt 0.3142394 0.6036683
vt 0.3142394 0.6036683
vt 0.3144222 0.5616966
vt 0.3144222 0.5616964
vt 0.3144222 0.5616964
vt 0.3144222 0.5616966
vt 0.3144222 0.5616964
vt 0.3144222 0.5616964
vt 0.3144222 0.5616966
vt 0.3144222 0.5616966
vt 0.3142394 0.6036686
vt 0.3142394 0.6036686
vt 0.3142394 0.6036683
vt 0.3142394 0.6036683
vt 0.3142394 0.6036683
vt 0.3142394 0.6036683
vt 0.3142394 0.6036683
vt 0.3142394 0.6036683
vt 0.3142394 0.6036683
vt 0.3142394 0.6036683
vt 0.3142394 0.6036686
vt 0.3142394 0.6036686
vt 0.3142394 0.6036686
vt 0.3142394 0.6036686
vt 0.3142394 0.6036686
vt 0.3142394 0.6036683
vt 0.3142394 0.6036686
vt 0.3142394 0.6036686
vt 0.3142394 0.6036686
vt 0.3142394 0.6036686
vn 0 0 1
vn 0 0 1
vn 0 0 1
vn 0 0 1
vn 0 0 -1
vn 0 0 -1
vn 0 0 -1
vn 0 0 -1
vn 0 1 0
vn 0 1 0
vn 0 1 0
vn 0 1 0
vn -1 0 0
vn 1 0 0
vn 1 0 0
vn 0 0.2462877 -0.9691967
vn 0 0.8215078 0.5701973
vn 0 0.8215078 0.5701973
vn 0 0 1
vn 0 0 1
vn 0 0 1
vn 0 0 1
vn 0 0 1
vn 0 0 1
vn 0 1 0
vn 0 1 0
vn 0 1 0
vn 0 1 0
vn 0 1 0
vn 0 1 0
vn 0 1 0
vn 0 1 0
vn 0 0 1
vn 0 0 1
vn 0 0 1
vn 0 0 1
vn 0 0 1
vn 0 0 1
vn 0 0 1
vn 0 0 1
vn 0 0 1
vn 0 0 1
vn 0 0 1
vn 0 0 1
vn 0 0 1
vn 0 0 1
vn 0 0 1
vn 0 0 1
vn 0 0 1
vn 0 0 1
vn 0 0 1
vn 0 0 1
vn 0 -1 0
vn 0 -1 0
vn 0 -1 0
vn 0 -1 0
vn 1 0 0
vn 1 0 0
vn 1 0 0
vn 1 0 0
vn -1 0 0
vn -1 0 0
vn -1 0 0
vn -1 0 0
vn 0 1 0
vn 0 1 0
vn 0 1 0
vn 0 1 0
vn 1 0 0
vn 1 0 0
vn 0 0 -1
vn 0 0.2462877 -0.9691967
vn 0 0 -1
vn -1 0 0
vn -1 0 0
vn -1 0 0
vn 0 0.7599838 0.6499421
vn 0 0.7499734 0.661468
vn 1 0 0
vn 0 0.8215085 -0.5701963
vn 0 0.8215085 -0.5701963
vn -1 0 0
vn 0 0 1
vn 0 0 1
vn 0 1 0
vn 0 1 0
vn 0 1 0
vn 0 1 0
vn 0 1 0
vn 0 1 0
vn 0 0 1
vn 0 0 1
vn 0 0 1
vn 0 0 1
vn 0 0 1
vn 0 0 1
vn 0 0 1
vn 0 0 1
vn 0 0 1
vn 0 0 1
vn 0 0 1
vn 0 0 1
vn 0 0 1
vn 0 0 1
vn 0 0 1
vn 0 0 1
vn 0 0 1
vn 0 0 1
vn 0 0 1
vn 0 0 1
vn 0 0 1
vn 0 0 1
vn 0 0 1
vn 0 0 1
vn 0 0 1
vn 0 0 1
vn 0 0 1
vn 0 0 1
g SM_Prop_PowerBox_01_0
f 4/4/4 3/3/3 1/1/1
f 2/2/2 4/4/4 1/1/1
f 8/8/8 7/7/7 5/5/5
f 6/6/6 8/8/8 5/5/5
f 55/55/55 54/54/54 53/53/53
f 56/56/56 55/55/55 53/53/53
f 59/59/59 58/58/58 57/57/57
f 60/60/60 59/59/59 57/57/57
f 63/63/63 62/62/62 61/61/61
f 64/64/64 63/63/63 61/61/61
f 43/43/43 44/44/44 41/41/41
f 42/42/42 43/43/43 41/41/41
f 70/70/70 15/15/15 69/69/69
f 15/15/15 14/14/14 69/69/69
f 15/15/15 79/79/79 14/14/14
f 73/73/73 16/16/16 71/71/71
f 16/16/16 72/72/72 71/71/71
f 16/16/16 81/81/81 72/72/72
f 81/81/81 80/80/80 72/72/72
f 76/76/76 13/13/13 74/74/74
f 13/13/13 75/75/75 74/74/74
f 13/13/13 82/82/82 75/75/75
f 18/18/18 17/17/17 77/77/77
f 78/78/78 18/18/18 77/77/77
f 21/21/21 78/78/78 77/77/77
f 78/78/78 21/21/21 83/83/83
f 21/21/21 20/20/20 83/83/83
f 77/77/77 23/23/23 21/21/21
f 77/77/77 22/22/22 23/23/23
f 19/19/19 22/22/22 77/77/77
f 84/84/84 83/83/83 20/20/20
f 84/84/84 19/19/19 77/77/77
f 20/20/20 24/24/24 84/84/84
f 24/24/24 19/19/19 84/84/84
f 47/47/47 48/48/48 45/45/45
f 46/46/46 47/47/47 45/45/45
f 51/51/51 52/52/52 49/49/49
f 50/50/50 51/51/51 49/49/49
f 10/10/10 9/9/9 65/65/65
f 66/66/66 10/10/10 65/65/65
f 65/65/65 9/9/9 68/68/68
f 11/11/11 10/10/10 66/66/66
f 9/9/9 12/12/12 68/68/68
f 67/67/67 11/11/11 66/66/66
f 68/68/68 12/12/12 67/67/67
f 12/12/12 11/11/11 67/67/67
f 26/26/26 25/25/25 85/85/85
f 85/85/85 25/25/25 88/88/88
f 25/25/25 28/28/28 88/88/88
f 86/86/86 26/26/26 85/85/85
f 88/88/88 28/28/28 87/87/87
f 27/27/27 26/26/26 86/86/86
f 28/28/28 27/27/27 87/87/87
f 87/87/87 27/27/27 86/86/86
f 86/86/86 30/30/30 87/87/87
f 30/30/30 29/29/29 87/87/87
f 31/31/31 30/30/30 86/86/86
f 87/87/87 29/29/29 90/90/90
f 89/89/89 31/31/31 86/86/86
f 29/29/29 32/32/32 90/90/90
f 32/32/32 31/31/31 89/89/89
f 90/90/90 32/32/32 89/89/89
f 34/34/34 33/33/33 91/91/91
f 92/92/92 34/34/34 91/91/91
f 91/91/91 33/33/33 94/94/94
f 35/35/35 34/34/34 92/92/92
f 33/33/33 36/36/36 94/94/94
f 93/93/93 35/35/35 92/92/92
f 94/94/94 36/36/36 93/93/93
f 36/36/36 35/35/35 93/93/93
f 38/38/38 37/37/37 95/95/95
f 96/96/96 38/38/38 95/95/95
f 95/95/95 37/37/37 98/98/98
f 39/39/39 38/38/38 96/96/96
f 37/37/37 40/40/40 98/98/98
f 97/97/97 39/39/39 96/96/96
f 98/98/98 40/40/40 97/97/97
f 40/40/40 39/39/39 97/97/97
f 101/101/101 100/100/100 99/99/99
f 102/102/102 101/101/101 99/99/99
f 103/103/103 101/101/101 102/102/102
f 104/104/104 103/103/103 102/102/102
f 103/103/103 104/104/104 113/113/113
f 100/100/100 118/118/118 99/99/99
f 100/100/100 113/113/113 118/118/118
f 118/118/118 117/117/117 99/99/99
f 113/113/113 114/114/114 118/118/118
f 104/104/104 114/114/114 113/113/113
f 99/99/99 117/117/117 116/116/116
f 115/115/115 114/114/114 104/104/104
f 116/116/116 115/115/115 104/104/104
f 117/117/117 115/115/115 116/116/116
f 107/107/107 106/106/106 105/105/105
f 108/108/108 107/107/107 105/105/105
f 105/105/105 106/106/106 112/112/112
f 109/109/109 107/107/107 108/108/108
f 106/106/106 111/111/111 112/112/112
f 110/110/110 109/109/109 108/108/108
f 112/112/112 111/111/111 110/110/110
f 111/111/111 109/109/109 110/110/110
