g SM_Prop_StreetLight_01
v 0.001337891 0 -0.05450389
v -0.05193359 0 -0.01857195
v -0.03421875 0 0.04319562
v 0.03 0 0.04543816
v 0.05197265 0 -0.01494345
v -0.019375 0.8533069 0.01707662
v 0.019375 0.8533069 0.01837189
v -0.0005664062 0 0.0001229119
v 0.03011719 0.04013767 0.04521355
v -0.03436523 0.04013767 0.04296666
v -0.05214844 0.04013767 -0.01892092
v 0.001347656 0.04013767 -0.05492267
v 0.0521875 0.04013767 -0.01528537
v -0.01792969 0.0668724 0.02233978
v -0.02782227 0.0668724 -0.01203245
v 0.001923828 0.0668724 -0.03202775
v 0.03020508 0.0668724 -0.01001329
v 0.01792969 0.0668724 0.0235877
v -0.01916992 0.7409216 0.01782874
v 0.01916992 0.7409216 0.01911726
v 0.01916992 0.7409216 0.04876344
v -0.01916992 0.7409216 0.04747495
v 0.01931641 0.8221844 0.04833707
v -0.01931641 0.8221844 0.04704366
v -0.019375 0.8533069 0.2857482
v 0.019375 0.8533069 0.2870433
v -0.01931641 0.8221844 0.2849212
v 0.01931641 0.8221844 0.2862145
v -0.0194043 0.8697546 0.1721903
v 0.0194043 0.8697546 0.1734865
v 0.0193457 0.8386322 0.1728214
v -0.0193457 0.8386322 0.171527
v -0.01931641 0.8221844 0.3600708
v 0.01931641 0.8221844 0.3613641
v 0.002089844 0.883587 -0.03963582
v -0.03014648 0.883587 -0.01885264
v -0.0005078125 0.8980902 -0.007758488
v -0.01942383 0.883587 0.01687399
v 0.01942383 0.883587 0.01817106
v 0.03272461 0.883587 -0.0167539
v 0.03416992 0.7902454 0.2711781
v -0.03416992 0.7902454 0.2711782
v -0.06833984 0.7902454 0.3280175
v -0.03416992 0.7902454 0.3848568
v 0.03416992 0.7902454 0.3848568
v 0.06833984 0.7902454 0.3280175
v 0.03427734 0.8221844 0.2713422
v -0.03427734 0.8221844 0.2713422
v -0.06855468 0.8221844 0.3282663
v -0.03427734 0.8221844 0.3851901
v 0.03427734 0.8221844 0.3851901
v 0.06855468 0.8221844 0.3282663
v 0 0.8221844 0.3282663
v 0.02644531 0.7902454 0.2840228
v -0.02645508 0.7902454 0.2840227
v -0.05290039 0.7902454 0.3280175
v -0.02645508 0.7902454 0.3720123
v 0.02644531 0.7902454 0.3720123
v 0.05290039 0.7902454 0.3280175
v 0.0228418 0.7622467 0.2897492
v -0.0228418 0.7622467 0.2897494
v 0 0.7532867 0.3277301
v -0.04569336 0.7622467 0.3277996
v -0.0228418 0.7622467 0.3658499
v 0.0228418 0.7622467 0.3658499
v 0.04568359 0.7622467 0.3277996
v -0.05193359 0 -0.01857195
v -0.03421875 0 0.04319562
v 0.03 0 0.04543816
v 0.05197265 0 -0.01494345
v 0.001337891 0 -0.05450389
v -0.05193359 0 -0.01857195
v 0.001337891 0 -0.05450389
v -0.03421875 0 0.04319562
v 0.03 0 0.04543816
v 0.05197265 0 -0.01494345
v -0.03436523 0.04013767 0.04296666
v 0.03011719 0.04013767 0.04521355
v -0.05214844 0.04013767 -0.01892092
v 0.001347656 0.04013767 -0.05492267
v 0.0521875 0.04013767 -0.01528537
v -0.02782227 0.0668724 -0.01203245
v -0.01792969 0.0668724 0.02233978
v 0.001923828 0.0668724 -0.03202775
v 0.002089844 0.883587 -0.03963582
v -0.03014648 0.883587 -0.01885264
v 0.03020508 0.0668724 -0.01001329
v 0.03272461 0.883587 -0.0167539
v 0.002089844 0.883587 -0.03963582
v 0.03272461 0.883587 -0.0167539
v -0.01916992 0.7409216 0.01782874
v 0.01916992 0.7409216 0.01911726
v 0.01792969 0.0668724 0.0235877
v -0.01916992 0.7409216 0.01782874
v -0.01916992 0.7409216 0.04747495
v 0.01916992 0.7409216 0.04876344
v 0.01916992 0.7409216 0.01911726
v 0.01916992 0.7409216 0.04876344
v 0.01931641 0.8221844 0.04833707
v -0.01931641 0.8221844 0.04704366
v -0.01916992 0.7409216 0.04747495
v 0.019375 0.8533069 0.01837189
v -0.019375 0.8533069 0.01707662
v -0.0194043 0.8697546 0.1721903
v -0.01931641 0.8221844 0.04704366
v -0.0193457 0.8386322 0.171527
v 0.01931641 0.8221844 0.04833707
v 0.0193457 0.8386322 0.1728214
v 0.0194043 0.8697546 0.1734865
v 0.019375 0.8533069 0.2870433
v 0.01931641 0.8221844 0.2862145
v -0.019375 0.8533069 0.2857482
v -0.01931641 0.8221844 0.2849212
v 0.01931641 0.8221844 0.3613641
v -0.01931641 0.8221844 0.3600708
v -0.01931641 0.8221844 0.3600708
v 0.01931641 0.8221844 0.3613641
v -0.019375 0.8533069 0.01707662
v 0.019375 0.8533069 0.01837189
v 0.01942383 0.883587 0.01817106
v -0.06833984 0.7902454 0.3280175
v -0.06855468 0.8221844 0.3282663
v 0.06833984 0.7902454 0.3280175
v 0.06855468 0.8221844 0.3282663
v 0.03427734 0.8221844 0.2713422
v -0.03427734 0.8221844 0.2713422
v -0.06855468 0.8221844 0.3282663
v -0.03427734 0.8221844 0.3851901
v 0.03427734 0.8221844 0.3851901
v 0.06855468 0.8221844 0.3282663
v -0.03416992 0.7902454 0.2711782
v 0.03416992 0.7902454 0.2711781
v -0.06833984 0.7902454 0.3280175
v -0.03416992 0.7902454 0.3848568
v 0.03416992 0.7902454 0.3848568
v 0.06833984 0.7902454 0.3280175
v -0.02645508 0.7902454 0.2840227
v -0.0228418 0.7622467 0.2897494
v 0.0228418 0.7622467 0.2897492
v 0.02644531 0.7902454 0.2840228
v -0.05290039 0.7902454 0.3280175
v -0.04569336 0.7622467 0.3277996
v -0.02645508 0.7902454 0.3720123
v -0.0228418 0.7622467 0.3658499
v -0.04569336 0.7622467 0.3277996
v -0.05290039 0.7902454 0.3280175
v 0.02644531 0.7902454 0.3720123
v 0.0228418 0.7622467 0.3658499
v 0.05290039 0.7902454 0.3280175
v 0.04568359 0.7622467 0.3277996
v 0.04568359 0.7622467 0.3277996
v 0.05290039 0.7902454 0.3280175
vt 0.2010189 0.06185195
vt 0.2010189 0.06185196
vt 0.2010189 0.06185196
vt 0.2010189 0.06185195
vt 0.2010189 0.06185195
vt 0.1627846 0.653373
vt 0.1627846 0.653373
vt 0.2010189 0.06185196
vt 0.2010189 0.06185198
vt 0.2010189 0.06185198
vt 0.2010189 0.06185198
vt 0.2010189 0.06185198
vt 0.2010189 0.06185198
vt 0.1627846 0.1514464
vt 0.1627846 0.1514464
vt 0.1627846 0.1514464
vt 0.1627846 0.1514464
vt 0.1627846 0.1514464
vt 0.1627846 0.653373
vt 0.1627846 0.653373
vt 0.1627846 0.653373
vt 0.1627846 0.653373
vt 0.1627846 0.653373
vt 0.1627846 0.653373
vt 0.1627846 0.653373
vt 0.1627846 0.653373
vt 0.1627846 0.653373
vt 0.1627846 0.653373
vt 0.1627845 0.653373
vt 0.1627845 0.653373
vt 0.1627845 0.653373
vt 0.1627845 0.653373
vt 0.1627846 0.653373
vt 0.1627846 0.653373
vt 0.1627846 0.653373
vt 0.1627846 0.653373
vt 0.1627846 0.653373
vt 0.1627846 0.653373
vt 0.1627846 0.653373
vt 0.1627846 0.653373
vt 0.1627846 0.653373
vt 0.1627846 0.653373
vt 0.1627846 0.653373
vt 0.1627846 0.653373
vt 0.1627846 0.653373
vt 0.1627846 0.653373
vt 0.1627846 0.653373
vt 0.1627846 0.653373
vt 0.1627846 0.653373
vt 0.1627846 0.653373
vt 0.1627846 0.653373
vt 0.1627846 0.653373
vt 0.1627846 0.653373
vt 0.1627846 0.653373
vt 0.1627846 0.653373
vt 0.1627846 0.653373
vt 0.1627846 0.653373
vt 0.1627846 0.653373
vt 0.1627846 0.653373
vt 0.4933378 0.2422512
vt 0.4933378 0.2422512
vt 0.4933378 0.2422512
vt 0.4933378 0.2422512
vt 0.4933378 0.2422512
vt 0.4933378 0.2422512
vt 0.4933378 0.2422512
vt 0.2010189 0.06185196
vt 0.2010189 0.06185196
vt 0.2010189 0.06185195
vt 0.2010189 0.06185195
vt 0.2010189 0.06185195
vt 0.2010189 0.06185196
vt 0.2010189 0.06185195
vt 0.2010189 0.06185196
vt 0.2010189 0.06185195
vt 0.2010189 0.06185195
vt 0.1627846 0.1514464
vt 0.1627846 0.1514464
vt 0.1627846 0.1514464
vt 0.1627846 0.1514464
vt 0.1627846 0.1514464
vt 0.1627846 0.653373
vt 0.1627846 0.653373
vt 0.1627846 0.653373
vt 0.1627846 0.653373
vt 0.1627846 0.653373
vt 0.1627846 0.653373
vt 0.1627846 0.653373
vt 0.1627846 0.653373
vt 0.1627846 0.653373
vt 0.1627846 0.653373
vt 0.1627846 0.653373
vt 0.1627846 0.653373
vt 0.1627846 0.653373
vt 0.1627846 0.653373
vt 0.1627846 0.653373
vt 0.1627846 0.653373
vt 0.1627846 0.653373
vt 0.1627846 0.653373
vt 0.1627846 0.653373
vt 0.1627846 0.653373
vt 0.1627846 0.653373
vt 0.1627846 0.653373
vt 0.1627845 0.653373
vt 0.1627846 0.653373
vt 0.1627845 0.653373
vt 0.1627846 0.653373
vt 0.1627845 0.653373
vt 0.1627845 0.653373
vt 0.1627846 0.653373
vt 0.1627846 0.653373
vt 0.1627846 0.653373
vt 0.1627846 0.653373
vt 0.1627846 0.653373
vt 0.1627846 0.653373
vt 0.1627846 0.653373
vt 0.1627846 0.653373
vt 0.1627846 0.653373
vt 0.1627846 0.653373
vt 0.1627846 0.653373
vt 0.1627846 0.653373
vt 0.1627846 0.653373
vt 0.1627846 0.653373
vt 0.1627846 0.653373
vt 0.1627846 0.653373
vt 0.1627846 0.653373
vt 0.1627846 0.653373
vt 0.1627846 0.653373
vt 0.1627846 0.653373
vt 0.1627846 0.653373
vt 0.1627846 0.653373
vt 0.1627846 0.653373
vt 0.1627846 0.653373
vt 0.1627846 0.653373
vt 0.1627846 0.653373
vt 0.1627846 0.653373
vt 0.4933378 0.2422512
vt 0.4933378 0.2422512
vt 0.4933378 0.2422512
vt 0.4933378 0.2422512
vt 0.4933378 0.2422512
vt 0.4933378 0.2422512
vt 0.4933378 0.2422512
vt 0.4933378 0.2422512
vt 0.4933378 0.2422512
vt 0.4933378 0.2422512
vt 0.4933378 0.2422512
vt 0.4933378 0.2422512
vt 0.4933378 0.2422512
vt 0.4933378 0.2422512
vt 0.4933378 0.2422512
vt 0.4933378 0.2422512
vn -0.5587308 -0.00935863 -0.8292963
vn -0.5587308 -0.00935863 -0.8292963
vn -0.9611756 -0.002339904 0.2759274
vn -0.03486091 0.005633904 0.9993764
vn 0.9395766 -0.001470226 0.3423358
vn -0.9689709 -0.0004950934 0.2471745
vn 0.9516888 -0.0001579089 0.3070638
vn 0 -1 0
vn 0.535319 0.2505094 0.8066465
vn -0.5956318 0.2625448 0.7591396
vn -0.9120706 0.248362 -0.326257
vn 0.02815102 0.2264116 -0.9736248
vn 0.936733 0.2269857 -0.2664748
vn -0.4171373 0.08552861 0.9048101
vn -0.803583 0.06059236 -0.5921005
vn 0.03475564 0.03491909 -0.9987857
vn 0.8435225 0.0532963 -0.5344429
vn 0.3555288 0.08014285 0.9312232
vn -0.96448 -0.0003970851 0.2641557
vn 0.9447525 -3.642634E-05 0.3277847
vn -0.03352378 0.005274026 0.999424
vn -0.03352378 0.005274025 0.999424
vn -0.03352378 0.005274026 0.999424
vn -0.03352378 0.005274026 0.999424
vn -0.008120066 0.9700289 0.2428539
vn -0.008282426 0.9688002 0.2477046
vn 0.002957896 -0.9960818 -0.08838753
vn 0.9999982 -0.001882421 -1.085272E-05
vn 8.620509E-05 0.9999967 -0.002576238
vn -8.634594E-05 0.9999967 0.002588077
vn 9.753746E-05 -0.9999957 -0.002918564
vn -0.9999982 -0.001879502 0
vn -0.012919 0.9223152 0.3862225
vn -0.012919 0.9223152 0.3862225
vn 0.02525259 0.9107053 -0.4122841
vn -0.9612533 0.05926139 0.2692214
vn -0.009206045 0.9999559 0.001876494
vn -0.4081942 0.3393337 0.8474845
vn 0.08182111 0.4224089 0.9027048
vn 0.3732532 0.9215534 -0.1068702
vn 0.4831176 0.002444975 -0.8755521
vn -0.4831186 0.002444326 -0.8755515
vn -0.8568631 -0.0009922823 -0.5155432
vn -0.4851879 -0.01118425 0.8743384
vn 0.4851879 -0.01118433 0.8743384
vn 0.856828 -0.009019508 0.5155233
vn 0.4861076 0.00242377 -0.8738956
vn -0.4861074 0.002423127 -0.8738956
vn -0.8568631 -0.0009922823 -0.5155432
vn -0.4839783 -0.0111861 0.8750085
vn 0.4839783 -0.01118619 0.8750085
vn 0.856828 -0.009019509 0.5155233
vn 0 1 0
vn 0 -1 0
vn 0 -1 0
vn 0 -1 0
vn 0 -1 0
vn 0 -1 0
vn 0 -1 0
vn 0.09856839 -0.9801623 -0.1719483
vn -0.09856619 -0.9801621 -0.1719503
vn 0 -1 -0.0001669335
vn -0.1924241 -0.9813119 0.0001647521
vn -0.09816762 -0.980266 0.1715858
vn 0.09817026 -0.980266 0.1715843
vn 0.1924637 -0.981304 0.0001646265
vn -0.9611756 -0.002339904 0.2759274
vn -0.03486092 0.005633903 0.9993764
vn 0.9395766 -0.001470226 0.3423359
vn 0.6152354 -0.009191391 -0.7882899
vn 0.6152354 -0.009191391 -0.7882899
vn 0 -1 0
vn 0 -1 0
vn 0 -1 0
vn 0 -1 0
vn 0 -1 0
vn -0.5956318 0.2625448 0.7591396
vn 0.535319 0.2505094 0.8066465
vn -0.9120706 0.248362 -0.326257
vn 0.02815102 0.2264116 -0.9736248
vn 0.936733 0.2269857 -0.2664748
vn -0.803583 0.06059236 -0.5921005
vn -0.4171373 0.08552861 0.9048101
vn 0.03475564 0.03491909 -0.9987857
vn -0.5496037 -0.008105229 -0.8353861
vn -0.5496037 -0.008105229 -0.8353861
vn 0.8435225 0.0532963 -0.5344429
vn 0.6060922 -0.007983193 -0.7953543
vn 0.6060922 -0.007983194 -0.7953544
vn 0.9352816 0.0001266026 0.3539045
vn -0.03416341 0.006658295 0.9993941
vn -0.03416341 0.006658295 0.9993941
vn 0.3555288 0.08014285 0.9312232
vn 0 -1 0
vn 0 -1 0
vn 0 -1 0
vn 0 -1 0
vn 0.9999983 -0.001815255 3.520291E-05
vn 0.9999983 -0.001852307 2.094898E-05
vn -0.9999983 -0.001852306 2.094893E-05
vn -0.9999983 -0.001815253 3.52029E-05
vn 0.003523269 0.994419 -0.1054447
vn 0.003523269 0.994419 -0.1054447
vn -0.9999982 -0.001879527 0
vn -0.00438378 -0.9913743 0.130988
vn -9.767864E-05 -0.9999958 0.002914695
vn -0.00438378 -0.9913743 0.130988
vn 0.9999982 -0.001879501 0
vn 0.9999982 -0.001879527 0
vn 0.9999982 -0.001882397 -1.187095E-05
vn 0.002860398 -0.9963363 -0.08547407
vn -0.9999982 -0.001882398 -1.187123E-05
vn -0.9999982 -0.001882422 -1.08526E-05
vn 0 -1 0
vn 0 -1 0
vn -0.9999982 -0.001882682 0
vn 0.9999982 -0.001882682 0
vn -0.03338801 0.006658124 0.9994203
vn -0.03338801 0.006658124 0.9994203
vn 0.9345226 0.0008534971 0.3559025
vn -0.856828 -0.00901937 0.5155233
vn -0.856828 -0.00901937 0.5155233
vn 0.8568633 -0.0009911413 -0.5155426
vn 0.8568633 -0.0009911412 -0.5155426
vn 0 1 0
vn 0 1 0
vn 0 1 0
vn 0 1 0
vn 0 1 0
vn 0 1 0
vn 0 -1 0
vn 0 -1 0
vn 0 -1 0
vn 0 -1 0
vn 0 -1 0
vn 0 -1 0
vn -0.4748316 -0.2349349 -0.8481395
vn -0.4687614 -0.2348436 -0.8515347
vn 0.4688392 -0.2348433 -0.8514918
vn 0.4747536 -0.2349323 -0.8481839
vn -0.837797 -0.2114086 -0.5033911
vn -0.837797 -0.2114086 -0.5033911
vn -0.471181 -0.2473363 0.8466483
vn -0.4691281 -0.2473222 0.8477916
vn -0.8363869 -0.2188741 0.5025446
vn -0.8363869 -0.218874 0.5025446
vn 0.4711016 -0.2473358 0.8466926
vn 0.4692068 -0.2473228 0.8477478
vn 0.8363869 -0.218874 0.5025446
vn 0.8363869 -0.2188741 0.5025447
vn 0.8377975 -0.2114059 -0.5033914
vn 0.8377975 -0.2114059 -0.5033914
g SM_Prop_StreetLight_01_0
f 2/2/2 11/11/11 1/1/1
f 11/11/11 12/12/12 1/1/1
f 71/71/71 12/12/12 70/70/70
f 12/12/12 13/13/13 70/70/70
f 5/5/5 13/13/13 69/69/69
f 13/13/13 9/9/9 69/69/69
f 4/4/4 9/9/9 68/68/68
f 9/9/9 10/10/10 68/68/68
f 10/10/10 11/11/11 67/67/67
f 3/3/3 10/10/10 67/67/67
f 86/86/86 85/85/85 84/84/84
f 82/82/82 86/86/86 84/84/84
f 84/84/84 89/89/89 87/87/87
f 89/89/89 88/88/88 87/87/87
f 87/87/87 20/20/20 93/93/93
f 87/87/87 90/90/90 20/20/20
f 90/90/90 7/7/7 20/20/20
f 90/90/90 120/120/120 7/7/7
f 7/7/7 99/99/99 20/20/20
f 99/99/99 98/98/98 20/20/20
f 7/7/7 109/109/109 99/99/99
f 109/109/109 108/108/108 99/99/99
f 109/109/109 110/110/110 108/108/108
f 110/110/110 28/28/28 108/108/108
f 110/110/110 117/117/117 28/28/28
f 93/93/93 92/92/92 83/83/83
f 92/92/92 91/91/91 83/83/83
f 83/83/83 19/19/19 82/82/82
f 19/19/19 6/6/6 82/82/82
f 19/19/19 101/101/101 6/6/6
f 101/101/101 100/100/100 6/6/6
f 100/100/100 32/32/32 6/6/6
f 6/6/6 36/36/36 82/82/82
f 32/32/32 104/104/104 6/6/6
f 32/32/32 113/113/113 104/104/104
f 113/113/113 112/112/112 104/104/104
f 113/113/113 116/116/116 112/112/112
f 6/6/6 38/38/38 36/36/36
f 38/38/38 37/37/37 36/36/36
f 36/36/36 37/37/37 35/35/35
f 35/35/35 37/37/37 40/40/40
f 40/40/40 37/37/37 39/39/39
f 39/39/39 37/37/37 38/38/38
f 39/39/39 38/38/38 118/118/118
f 119/119/119 39/39/39 118/118/118
f 23/23/23 24/24/24 22/22/22
f 21/21/21 23/23/23 22/22/22
f 96/96/96 95/95/95 94/94/94
f 97/97/97 96/96/96 94/94/94
f 33/33/33 34/34/34 26/26/26
f 25/25/25 33/33/33 26/26/26
f 25/25/25 26/26/26 30/30/30
f 29/29/29 25/25/25 30/30/30
f 29/29/29 30/30/30 102/102/102
f 103/103/103 29/29/29 102/102/102
f 107/107/107 31/31/31 105/105/105
f 31/31/31 106/106/106 105/105/105
f 31/31/31 111/111/111 106/106/106
f 111/111/111 27/27/27 106/106/106
f 27/27/27 111/111/111 114/114/114
f 115/115/115 27/27/27 114/114/114
f 43/43/43 49/49/49 42/42/42
f 49/49/49 48/48/48 42/42/42
f 42/42/42 48/48/48 41/41/41
f 48/48/48 47/47/47 41/41/41
f 41/41/41 47/47/47 123/123/123
f 47/47/47 124/124/124 123/123/123
f 50/50/50 122/122/122 121/121/121
f 44/44/44 50/50/50 121/121/121
f 51/51/51 50/50/50 44/44/44
f 45/45/45 51/51/51 44/44/44
f 52/52/52 51/51/51 45/45/45
f 46/46/46 52/52/52 45/45/45
f 138/138/138 142/142/142 141/141/141
f 137/137/137 138/138/138 141/141/141
f 139/139/139 138/138/138 137/137/137
f 140/140/140 139/139/139 137/137/137
f 151/151/151 139/139/139 140/140/140
f 152/152/152 151/151/151 140/140/140
f 146/146/146 145/145/145 143/143/143
f 145/145/145 144/144/144 143/143/143
f 143/143/143 144/144/144 147/147/147
f 144/144/144 148/148/148 147/147/147
f 147/147/147 148/148/148 149/149/149
f 148/148/148 150/150/150 149/149/149
f 60/60/60 62/62/62 61/61/61
f 61/61/61 62/62/62 63/63/63
f 66/66/66 62/62/62 60/60/60
f 63/63/63 62/62/62 64/64/64
f 65/65/65 62/62/62 66/66/66
f 64/64/64 62/62/62 65/65/65
f 73/73/73 8/8/8 72/72/72
f 72/72/72 8/8/8 74/74/74
f 76/76/76 8/8/8 73/73/73
f 74/74/74 8/8/8 75/75/75
f 75/75/75 8/8/8 76/76/76
f 126/126/126 53/53/53 125/125/125
f 125/125/125 53/53/53 130/130/130
f 127/127/127 53/53/53 126/126/126
f 130/130/130 53/53/53 129/129/129
f 128/128/128 53/53/53 127/127/127
f 129/129/129 53/53/53 128/128/128
f 18/18/18 14/14/14 77/77/77
f 78/78/78 18/18/18 77/77/77
f 77/77/77 14/14/14 79/79/79
f 17/17/17 18/18/18 78/78/78
f 14/14/14 15/15/15 79/79/79
f 81/81/81 17/17/17 78/78/78
f 79/79/79 15/15/15 80/80/80
f 16/16/16 17/17/17 81/81/81
f 15/15/15 16/16/16 80/80/80
f 80/80/80 16/16/16 81/81/81
f 54/54/54 55/55/55 131/131/131
f 132/132/132 54/54/54 131/131/131
f 131/131/131 55/55/55 133/133/133
f 59/59/59 54/54/54 132/132/132
f 55/55/55 56/56/56 133/133/133
f 136/136/136 59/59/59 132/132/132
f 133/133/133 56/56/56 134/134/134
f 58/58/58 59/59/59 136/136/136
f 56/56/56 57/57/57 134/134/134
f 135/135/135 58/58/58 136/136/136
f 134/134/134 57/57/57 135/135/135
f 57/57/57 58/58/58 135/135/135
