g SM_Tile_Hex_Flat_05
v -2.164747 -0.208597 -1.249817
v -1.804113 0 -1.874454
v -2.525379 0 -0.6251837
v 2.304125 0 1.009611
v 1.912229 0 1.688222
v 1.926062 0.001196504 1.18193
v 2.88728 0 -0.0001843262
v 2.304125 0 1.009611
v 2.192451 0 0.6292199
v 2.6748 -0.1177789 -0.3681671
v 2.88728 -0.173292 -0.0001843262
v 2.88728 0 -0.0001843262
v 2.694749 0 -0.3336212
v 2.251899 -0.2357754 -1.100572
v 2.261616 0 -1.083743
v 1.815593 -0.1387879 -1.856194
v 1.825356 0 -1.839288
v 1.443798 0 -2.500093
v 1.443798 -0.173292 -2.500093
v 0.6817312 -0.2352299 -2.500045
v 0.8047562 0 -2.500052
v -0.6065704 -0.1282132 -2.499964
v -0.282225 0 -2.499984
v -1.443482 -0.173292 -2.49991
v -1.443482 0 -2.49991
v -1.804113 0 -1.874454
v -2.164747 -0.208597 -1.249817
v -2.525379 0 -0.6251837
v -2.88728 -0.173292 0.0001806641
v -2.88728 0 0.0001806641
v -2.699438 -0.2232174 0.3254974
v -2.710038 0 0.3071411
v -2.114623 -0.09843797 1.338314
v -2.124604 0 1.321031
v -1.443798 0 2.50009
v -1.443798 -0.173292 2.50009
v -0.8904153 -0.12074 2.500055
v -0.9150177 0 2.500057
v 0.5243484 -0.2386101 2.499965
v 0.4132413 0 2.499973
v 1.44348 -0.218255 2.499907
v 1.44348 0 2.499907
v 2.432713 -0.001196504 0.01888302
v 2.040389 0 0.09843136
v 1.942972 0 -1.04037
v 2.694749 0 -0.3336212
v 2.88728 0 -0.0001843262
v 2.261616 0 -1.083743
v 1.825356 0 -1.839288
v 1.152531 0.008400803 -1.951148
v 1.443798 0 -2.500093
v 0.9263345 0.003800157 -2.286739
v 0.8047562 0 -2.500052
v -0.1724634 0.008400803 -2.246368
v -0.282225 0 -2.499984
v -1.443482 0 -2.49991
v -1.288881 0 -2.29595
v -1.129325 0.005143251 -2.123428
v -1.804113 0 -1.874454
v -2.525379 0 -0.6251837
v -2.08261 0 -0.5984405
v -2.250602 0 -0.07618957
v -1.804113 0 -1.874454
v -1.597156 0.005143251 -1.673345
v -1.129325 0.005143251 -2.123428
v -1.288881 0 -2.29595
v 2.040389 0 0.09843136
v 1.949829 0 0.8439136
v 1.717939 0 0.7019618
v 1.867563 0 0.2444024
v 1.942972 0 -1.04037
v 1.690516 0 -0.8633654
v 1.152531 0.008400803 -1.951148
v 0.8982766 0.008400803 -1.682398
v -0.1724634 0.008400803 -2.246368
v -0.2281741 0.008400803 -1.990481
v -1.129325 0.005143251 -2.123428
v -1.298101 0.005143251 -1.609681
v -1.597156 0.005143251 -1.673345
v 1.99055 -0.1492327 1.552599
v 1.44348 -0.218255 2.499907
v 1.44348 0 2.499907
v 1.912229 0 1.688222
v 2.363102 -0.1592283 0.9074847
v 2.304125 0 1.009611
v 2.88728 0 -0.0001843262
v 2.88728 -0.173292 -0.0001843262
v 0.2821888 0 2.227202
v 1.105658 -0.01376706 1.301214
v 1.319854 -0.01376706 1.56552
v 0.4403055 -0.005143255 1.931858
v -0.6962048 0 1.927783
v -0.9412 0 2.098637
v -1.645388 0 1.077504
v -1.826484 0 1.273693
v -1.977213 0 -0.2850494
v -2.250602 0 -0.07618957
v -2.08261 0 -0.5984405
v 1.717939 0 0.7019618
v 1.949829 0 0.8439136
v 1.319854 -0.01376706 1.56552
v 1.105658 -0.01376706 1.301214
v -1.645388 0 1.077504
v -1.977213 0 -0.2850494
v -1.298101 0.005143251 -1.609681
v -0.2281741 0.008400803 -1.990481
v -0.6962048 0 1.927783
v 0.8982766 0.008400803 -1.682398
v 1.690516 0 -0.8633654
v 1.867563 0 0.2444024
v 0.4403055 -0.005143255 1.931858
v 1.105658 -0.01376706 1.301214
v 1.717939 0 0.7019618
v -2.88728 0 0.0001806641
v -2.525379 0 -0.6251837
v -2.250602 0 -0.07618957
v -2.710038 0 0.3071411
v -2.124604 0 1.321031
v -1.826484 0 1.273693
v -1.543302 0 1.614221
v -1.443798 0 2.50009
v -0.9412 0 2.098637
v -0.9880678 0 2.288812
v -0.9150177 0 2.500057
v 0.4132413 0 2.499973
v -0.07265465 0 2.250561
v 0.2821888 0 2.227202
v 0.7616519 -0.005143255 2.143291
v 1.44348 0 2.499907
v 1.319854 -0.01376706 1.56552
v 1.912229 0 1.688222
v 1.926062 0.001196504 1.18193
v 1.949829 0 0.8439136
v 2.304125 0 1.009611
v 2.304125 0 1.009611
v 1.949829 0 0.8439136
v 2.192451 0 0.6292199
v 2.040389 0 0.09843136
v 2.432713 -0.001196504 0.01888302
v 2.88728 0 -0.0001843262
v -2.88728 -0.173292 0.0001806641
v -2.88728 -0.4314731 0.0001806641
v -2.164747 -0.4314731 -1.249817
v -2.164747 -0.208597 -1.249817
v -2.699438 -0.2232174 0.3254974
v -2.699438 -0.4314731 0.3254974
v -2.88728 -0.4314731 0.0001806641
v -2.88728 -0.173292 0.0001806641
v -0.8904153 -0.12074 2.500055
v -0.8904153 -0.4314731 2.500055
v -1.443798 -0.4314731 2.50009
v -1.443798 -0.173292 2.50009
v 2.6748 -0.1177789 -0.3681671
v 2.6748 -0.4314728 -0.3681671
v 2.88728 -0.4314731 -0.0001843262
v 2.88728 -0.173292 -0.0001843262
v 0.6817312 -0.2352299 -2.500045
v 0.6817312 -0.4314728 -2.500045
v 1.443798 -0.4314731 -2.500093
v 1.443798 -0.173292 -2.500093
v -2.164747 -0.208597 -1.249817
v -2.164747 -0.4314731 -1.249817
v -1.443482 -0.4314731 -2.49991
v -1.443482 -0.173292 -2.49991
v -0.6065704 -0.1282132 -2.499964
v -0.6065704 -0.4314731 -2.499964
v 0.6817312 -0.4314728 -2.500045
v 0.6817312 -0.2352299 -2.500045
v -1.443482 -0.173292 -2.49991
v -1.443482 -0.4314731 -2.49991
v -0.6065704 -0.4314731 -2.499964
v -0.6065704 -0.1282132 -2.499964
v 1.443798 -0.173292 -2.500093
v 1.443798 -0.4314731 -2.500093
v 1.815593 -0.4314728 -1.856194
v 1.815593 -0.1387879 -1.856194
v 2.251899 -0.2357754 -1.100572
v 2.251899 -0.4314731 -1.100572
v 2.6748 -0.4314728 -0.3681671
v 2.6748 -0.1177789 -0.3681671
v 1.815593 -0.1387879 -1.856194
v 1.815593 -0.4314728 -1.856194
v 2.251899 -0.4314731 -1.100572
v 2.251899 -0.2357754 -1.100572
v 1.44348 -0.218255 2.499907
v 1.44348 -0.4314731 2.499907
v 0.5243484 -0.4314731 2.499965
v 0.5243484 -0.2386101 2.499965
v 0.5243484 -0.2386101 2.499965
v 0.5243484 -0.4314731 2.499965
v -0.8904153 -0.4314731 2.500055
v -0.8904153 -0.12074 2.500055
v -1.443798 -0.173292 2.50009
v -1.443798 -0.4314731 2.50009
v -2.114623 -0.4314728 1.338314
v -2.114623 -0.09843797 1.338314
v -2.114623 -0.09843797 1.338314
v -2.114623 -0.4314728 1.338314
v -2.699438 -0.4314731 0.3254974
v -2.699438 -0.2232174 0.3254974
v 1.99055 -0.1492327 1.552599
v 1.99055 -0.4314731 1.552599
v 1.44348 -0.4314731 2.499907
v 1.44348 -0.218255 2.499907
v 2.363102 -0.1592283 0.9074847
v 2.363102 -0.4314728 0.9074847
v 1.99055 -0.4314731 1.552599
v 1.99055 -0.1492327 1.552599
v 2.88728 -0.173292 -0.0001843262
v 2.88728 -0.4314731 -0.0001843262
v 2.363102 -0.4314728 0.9074847
v 2.363102 -0.1592283 0.9074847
v -1.977213 0 -0.2850494
v -2.08261 0 -0.5984405
v -1.597156 0.005143251 -1.673345
v -1.298101 0.005143251 -1.609681
vt 0.8959351 0.3226891
vt 0.8959351 0.3226898
vt 0.8959351 0.3226898
vt 0.896993 0.3234443
vt 0.8969945 0.3234298
vt 0.8969904 0.3234689
vt 0.8969945 0.3234298
vt 0.896993 0.3234443
vt 0.8969893 0.3234783
vt 0.8969945 0.3234298
vt 0.8969945 0.3234298
vt 0.8969945 0.3234298
vt 0.8969945 0.3234298
vt 0.8969945 0.3234298
vt 0.8969945 0.3234298
vt 0.8969945 0.3234298
vt 0.8969945 0.3234298
vt 0.8969945 0.3234298
vt 0.8969945 0.3234298
vt 0.8969945 0.3234298
vt 0.8969945 0.3234298
vt 0.8969945 0.3234298
vt 0.8969945 0.3234298
vt 0.8969945 0.3234298
vt 0.8969945 0.3234298
vt 0.8969945 0.3234298
vt 0.8969945 0.3234298
vt 0.8969945 0.3234298
vt 0.8969945 0.3234298
vt 0.8969945 0.3234298
vt 0.8969945 0.3234298
vt 0.8969945 0.3234298
vt 0.8969945 0.3234298
vt 0.8969945 0.3234298
vt 0.8969945 0.3234298
vt 0.8969945 0.3234298
vt 0.8969945 0.3234298
vt 0.8969945 0.3234298
vt 0.8969945 0.3234298
vt 0.8969945 0.3234298
vt 0.8969945 0.3234298
vt 0.8969945 0.3234298
vt 0.8969902 0.3234752
vt 0.8969876 0.3235018
vt 0.8969945 0.3234298
vt 0.8969945 0.3234298
vt 0.8969945 0.3234298
vt 0.8969945 0.3234298
vt 0.8969945 0.3234298
vt 0.8969945 0.3234298
vt 0.8969945 0.3234298
vt 0.8969945 0.3234298
vt 0.8969945 0.3234298
vt 0.8969945 0.3234298
vt 0.8969945 0.3234298
vt 0.8969945 0.3234298
vt 0.8969945 0.3234298
vt 0.8969945 0.3234298
vt 0.8969945 0.3234298
vt 0.8959351 0.3226898
vt 0.8959351 0.32269
vt 0.8959351 0.3226898
vt 0.8959351 0.3226898
vt 0.8959351 0.32269
vt 0.8959351 0.3226898
vt 0.8959351 0.32269
vt 0.9201155 0.3130176
vt 0.9201193 0.313053
vt 0.9201189 0.3130202
vt 0.9201185 0.3129814
vt 0.9201139 0.3128592
vt 0.9201173 0.3128461
vt 0.9201126 0.3127249
vt 0.9201156 0.3126767
vt 0.9201101 0.3124662
vt 0.9201134 0.312461
vt 0.9201081 0.3122585
vt 0.9201114 0.3122485
vt 0.9201114 0.3122485
vt 0.8969988 0.3233651
vt 0.8970011 0.3231401
vt 0.8970011 0.3232976
vt 0.8969991 0.3234478
vt 0.8969972 0.3234772
vt 0.8969975 0.3235733
vt 0.896995 0.32376
vt 0.896995 0.3236349
vt 0.9201359 0.3128692
vt 0.9201328 0.3128673
vt 0.9201334 0.3129297
vt 0.9201321 0.3127935
vt 0.9201302 0.3125994
vt 0.9201335 0.3126226
vt 0.9201282 0.3123885
vt 0.9201313 0.3123886
vt 0.9201263 0.3121974
vt 0.9201291 0.3121694
vt 0.9201263 0.3121974
vt 0.9201158 0.3122098
vt 0.9201154 0.3126558
vt 0.9201277 0.3127838
vt 0.9201289 0.3122174
vt 0.9179045 0.3334252
vt 0.9179042 0.3333896
vt 0.9179014 0.3333991
vt 0.9179018 0.3334387
vt 0.9179049 0.3334644
vt 0.9179022 0.3334788
vt 0.9179025 0.3335103
vt 0.9179028 0.3335355
vt 0.9179052 0.3335006
vt 0.9179054 0.3335143
vt 0.9179028 0.3335427
vt 0.8969945 0.3234298
vt 0.8969945 0.3234298
vt 0.8969945 0.3234298
vt 0.8969945 0.3234298
vt 0.8969945 0.3234298
vt 0.8969945 0.3234298
vt 0.8969945 0.3234298
vt 0.8969945 0.3234298
vt 0.8969945 0.3234298
vt 0.8969945 0.3234298
vt 0.8969945 0.3234298
vt 0.8969945 0.3234298
vt 0.8969945 0.3234298
vt 0.8969945 0.3234298
vt 0.8969945 0.3234298
vt 0.8969945 0.3234298
vt 0.89699 0.3234843
vt 0.8969945 0.3234298
vt 0.8969904 0.3234689
vt 0.8969876 0.3234941
vt 0.896993 0.3234443
vt 0.896993 0.3234443
vt 0.8969876 0.3234941
vt 0.8969893 0.3234783
vt 0.8969876 0.3235018
vt 0.8969902 0.3234752
vt 0.8969945 0.3234298
vt 0.9841562 0.9217557
vt 0.9841562 0.897211
vt 0.9952325 0.897211
vt 0.9952325 0.9217557
vt 0.9841562 0.9217557
vt 0.9841562 0.897211
vt 0.9952325 0.897211
vt 0.9952325 0.9217557
vt 0.9841562 0.9217557
vt 0.9841562 0.897211
vt 0.9952325 0.897211
vt 0.9952325 0.9217557
vt 0.9841562 0.9217557
vt 0.9841562 0.897211
vt 0.9952325 0.897211
vt 0.9952325 0.9217557
vt 0.9841562 0.9217557
vt 0.9841562 0.897211
vt 0.9952325 0.897211
vt 0.9952325 0.9217557
vt 0.9841562 0.9217557
vt 0.9841562 0.897211
vt 0.9952325 0.897211
vt 0.9952325 0.9217557
vt 0.9841562 0.9217557
vt 0.9841562 0.897211
vt 0.9952325 0.897211
vt 0.9952325 0.9217557
vt 0.9841562 0.9217557
vt 0.9841562 0.897211
vt 0.9952325 0.897211
vt 0.9952325 0.9217557
vt 0.9841562 0.9217557
vt 0.9841562 0.897211
vt 0.9952325 0.897211
vt 0.9952325 0.9217557
vt 0.9841562 0.9217557
vt 0.9841562 0.897211
vt 0.9952325 0.897211
vt 0.9952325 0.9217557
vt 0.9841562 0.9217557
vt 0.9841562 0.897211
vt 0.9952325 0.897211
vt 0.9952325 0.9217557
vt 0.9841562 0.9217557
vt 0.9841562 0.897211
vt 0.9952325 0.897211
vt 0.9952325 0.9217557
vt 0.9841562 0.9217557
vt 0.9841562 0.897211
vt 0.9952325 0.897211
vt 0.9952325 0.9217557
vt 0.9841562 0.9217557
vt 0.9841562 0.897211
vt 0.9952325 0.897211
vt 0.9952325 0.9217557
vt 0.9841562 0.9217557
vt 0.9841562 0.897211
vt 0.9952325 0.897211
vt 0.9952325 0.9217557
vt 0.9841562 0.9217557
vt 0.9841562 0.897211
vt 0.9952325 0.897211
vt 0.9952325 0.9217557
vt 0.9841562 0.9217557
vt 0.9841562 0.897211
vt 0.9952325 0.897211
vt 0.9952325 0.9217557
vt 0.9841562 0.9217557
vt 0.9841562 0.897211
vt 0.9952325 0.897211
vt 0.9952325 0.9217557
vt 0.9214783 0.3124704
vt 0.9214783 0.3124707
vt 0.9214783 0.3124707
vt 0.9214783 0.3124704
vn -0.8659822 6.65698E-05 -0.5000749
vn -0.8662083 0.0006918287 -0.4996826
vn -0.8656996 0.001227956 -0.5005623
vn 0.001136533 0.9999994 -0.0001285489
vn -0.01977912 0.9997864 -0.005992588
vn -0.01390102 0.9999027 -0.001110918
vn -0.002069485 0.9999976 -0.0007051906
vn 0.001136533 0.9999994 -0.0001285489
vn 0.000691128 0.9999996 -0.0004445221
vn 0.8660007 0 -0.5000429
vn 0.9710361 0 0.2389329
vn 0.9591589 0 0.2828678
vn 0.8660007 0 -0.5000428
vn 0.8660017 0 -0.500041
vn 0.8660017 0 -0.5000412
vn 0.8660022 0 -0.5000403
vn 0.8660021 0 -0.5000404
vn 0.4532556 0 -0.8913806
vn 0.5093796 0 -0.860542
vn -6.297386E-05 0 -1
vn -6.351714E-05 0 -1
vn -6.341044E-05 0 -1
vn -6.258591E-05 0 -1
vn -0.5834724 0.0001874206 -0.812133
vn -0.5748218 0.0004948236 -0.8182785
vn -0.8662083 0.0006918287 -0.4996826
vn -0.8659822 6.65698E-05 -0.5000749
vn -0.8656996 0.001227956 -0.5005623
vn -0.9529786 0.0004194739 -0.3030374
vn -0.9648308 0.001079984 -0.2628698
vn -0.8660017 0 0.5000411
vn -0.8660018 0 0.5000408
vn -0.8660015 0 0.5000412
vn -0.8660014 0 0.5000415
vn -0.6791558 0 0.7339942
vn -0.6885871 0 0.7251537
vn 6.345229E-05 0 1
vn 6.331362E-05 0 1
vn 6.328707E-05 0 1
vn 6.319827E-05 0 1
vn 0.5301048 0 0.8479322
vn 0.4583853 0 0.8887535
vn -0.0001410422 1 -0.0003812111
vn 0.001176529 0.9999993 -0.0001898096
vn 0.00318035 0.999993 0.002013122
vn -0.00186174 0.9999968 0.001758086
vn -0.002069485 0.9999976 -0.0007051906
vn 0 1 0
vn 0.01217611 0.9999206 -0.003256539
vn 0.005557688 0.9999826 -0.001972578
vn 0.009484458 0.9999 -0.01048774
vn 0.002205951 0.9998118 -0.01927616
vn 0.001416882 0.9996649 -0.02584484
vn -0.0008668627 0.9999437 -0.01057081
vn -0.001502529 0.9997925 -0.02031519
vn -0.00234513 0.9999304 -0.01157036
vn -0.004543219 0.9998826 -0.01463908
vn -0.005071348 0.9999633 -0.006907585
vn -0.007977691 0.9999616 -0.003641757
vn -0.004538605 0.9999893 -0.0009905761
vn -0.004571052 0.9999894 0.0005817756
vn 0 1 0
vn -0.007977691 0.9999616 -0.003641757
vn -0.00576023 0.9999831 -0.0008434697
vn -0.005071348 0.9999633 -0.006907585
vn -0.004543219 0.9998826 -0.01463908
vn 0.001176529 0.9999993 -0.0001898096
vn -0.006186663 0.9999721 0.004196628
vn 0.008066942 0.9997912 0.01877335
vn 0.001879205 0.9999945 0.002746881
vn 0.00318035 0.999993 0.002013122
vn 0.003857316 0.9999853 0.003795312
vn 0.005557688 0.9999826 -0.001972578
vn 0.0009961827 0.9999957 0.002761921
vn -0.0008668627 0.9999437 -0.01057081
vn -0.001576716 0.9999975 0.001593011
vn -0.005071348 0.9999633 -0.006907585
vn -0.003238609 0.9999938 0.001420107
vn -0.00576023 0.9999831 -0.0008434697
vn 0.8659699 0 0.5000961
vn 0.5301048 0 0.8479322
vn 0.4583853 0 0.8887535
vn 0.8659697 0 0.5000966
vn 0.8659697 0 0.5000966
vn 0.8659699 0 0.5000961
vn 0.9591589 0 0.2828678
vn 0.9710361 0 0.2389329
vn 0.003855738 0.9999655 -0.007356561
vn 0.01041714 0.9998288 0.01528676
vn -0.007786679 0.999958 -0.004834311
vn 0.002270606 0.999997 0.0008720024
vn 0.0003183327 0.999999 0.001400627
vn 0.0004960195 0.9999986 -0.001620815
vn -0.00126349 0.9999979 0.001687385
vn 0 1 0
vn -0.003014582 0.9999945 0.00141161
vn 0 1 0
vn -0.004571052 0.9999894 0.0005817756
vn 0.008066942 0.9997912 0.01877335
vn -0.006186663 0.9999721 0.004196628
vn -0.007786679 0.999958 -0.004834311
vn 0.01041714 0.9998288 0.01528676
vn -0.00126349 0.9999979 0.001687385
vn -0.003014582 0.9999945 0.00141161
vn -0.003238609 0.9999938 0.001420107
vn -0.001576716 0.9999975 0.001593011
vn 0.0003183327 0.999999 0.001400627
vn 0.0009961827 0.9999957 0.002761921
vn 0.003857316 0.9999853 0.003795312
vn 0.001879205 0.9999945 0.002746881
vn 0.002270606 0.999997 0.0008720024
vn 0.01041714 0.9998288 0.01528676
vn 0.008066942 0.9997912 0.01877335
vn 0 1 0
vn -0.004538605 0.9999893 -0.0009905761
vn 0 1 0
vn 0 1 0
vn 0 1 0
vn 0 1 0
vn 0 1 0
vn 0 1 0
vn 0.0004960195 0.9999986 -0.001620815
vn 0 1 0
vn 0 1 0
vn 0.002193796 0.9999768 -0.00646181
vn 0 1 0
vn 0.003855738 0.9999655 -0.007356561
vn 0.003149716 0.9999267 -0.01169228
vn -0.006581158 0.9998829 -0.01381082
vn -0.007786679 0.999958 -0.004834311
vn -0.01977912 0.9997864 -0.005992588
vn -0.01390102 0.9999027 -0.001110918
vn -0.006186663 0.9999721 0.004196628
vn 0.001136533 0.9999994 -0.0001285489
vn 0.001136533 0.9999994 -0.0001285489
vn -0.006186663 0.9999721 0.004196628
vn 0.000691128 0.9999996 -0.0004445221
vn 0.001176529 0.9999993 -0.0001898096
vn -0.0001410422 1 -0.0003812111
vn -0.002069485 0.9999976 -0.0007051906
vn -0.9529786 0.0004194739 -0.3030374
vn -0.9452618 0 -0.3263129
vn -0.86597 0 -0.5000958
vn -0.8659822 6.65698E-05 -0.5000749
vn -0.8660017 0 0.5000411
vn -0.8660015 0 0.5000412
vn -0.9452618 0 -0.3263129
vn -0.9529786 0.0004194739 -0.3030374
vn 6.345229E-05 0 1
vn 6.361878E-05 0 1
vn -0.6945646 0 0.7194303
vn -0.6885871 0 0.7251537
vn 0.8660007 0 -0.5000429
vn 0.8660006 0 -0.5000431
vn 0.9753524 0 0.2206526
vn 0.9710361 0 0.2389329
vn -6.297386E-05 0 -1
vn -6.299651E-05 0 -1
vn 0.5411832 0 -0.8409048
vn 0.5093796 0 -0.860542
vn -0.8659822 6.65698E-05 -0.5000749
vn -0.86597 0 -0.5000958
vn -0.5928857 0 -0.8052866
vn -0.5834724 0.0001874206 -0.812133
vn -6.341044E-05 0 -1
vn -6.332441E-05 0 -1
vn -6.299651E-05 0 -1
vn -6.297386E-05 0 -1
vn -0.5834724 0.0001874206 -0.812133
vn -0.5928857 0 -0.8052866
vn -6.332441E-05 0 -1
vn -6.341044E-05 0 -1
vn 0.5093796 0 -0.860542
vn 0.5411832 0 -0.8409048
vn 0.8660022 0 -0.5000403
vn 0.8660022 0 -0.5000403
vn 0.8660017 0 -0.500041
vn 0.8660018 0 -0.5000409
vn 0.8660006 0 -0.5000431
vn 0.8660007 0 -0.5000429
vn 0.8660022 0 -0.5000403
vn 0.8660022 0 -0.5000403
vn 0.8660018 0 -0.5000409
vn 0.8660017 0 -0.500041
vn 0.5301048 0 0.8479322
vn 0.5888274 0 0.8082588
vn 6.325037E-05 0 1
vn 6.328707E-05 0 1
vn 6.328707E-05 0 1
vn 6.325037E-05 0 1
vn 6.361878E-05 0 1
vn 6.345229E-05 0 1
vn -0.6885871 0 0.7251537
vn -0.6945646 0 0.7194303
vn -0.8660017 0 0.5000412
vn -0.8660015 0 0.5000412
vn -0.8660015 0 0.5000412
vn -0.8660017 0 0.5000412
vn -0.8660015 0 0.5000412
vn -0.8660017 0 0.5000411
vn 0.8659699 0 0.5000961
vn 0.8659698 0 0.5000962
vn 0.5888274 0 0.8082588
vn 0.5301048 0 0.8479322
vn 0.8659697 0 0.5000966
vn 0.8659697 0 0.5000966
vn 0.8659698 0 0.5000962
vn 0.8659699 0 0.5000961
vn 0.9710361 0 0.2389329
vn 0.9753524 0 0.2206526
vn 0.8659697 0 0.5000966
vn 0.8659697 0 0.5000966
vn -0.003014582 0.9999945 0.00141161
vn -0.004571052 0.9999894 0.0005817756
vn -0.00576023 0.9999831 -0.0008434697
vn -0.003238609 0.9999938 0.001420107
g SM_Tile_Hex_Flat_05_0
f 3/3/3 2/2/2 1/1/1
f 6/6/6 5/5/5 4/4/4
f 9/9/9 8/8/8 7/7/7
f 12/12/12 11/11/11 10/10/10
f 13/13/13 12/12/12 10/10/10
f 13/13/13 10/10/10 14/14/14
f 15/15/15 13/13/13 14/14/14
f 15/15/15 14/14/14 16/16/16
f 17/17/17 15/15/15 16/16/16
f 17/17/17 16/16/16 18/18/18
f 16/16/16 19/19/19 18/18/18
f 19/19/19 20/20/20 18/18/18
f 20/20/20 21/21/21 18/18/18
f 20/20/20 22/22/22 21/21/21
f 22/22/22 23/23/23 21/21/21
f 22/22/22 24/24/24 23/23/23
f 24/24/24 25/25/25 23/23/23
f 26/26/26 25/25/25 24/24/24
f 27/27/27 26/26/26 24/24/24
f 27/27/27 29/29/29 28/28/28
f 29/29/29 30/30/30 28/28/28
f 30/30/30 29/29/29 31/31/31
f 32/32/32 30/30/30 31/31/31
f 32/32/32 31/31/31 33/33/33
f 34/34/34 32/32/32 33/33/33
f 34/34/34 33/33/33 35/35/35
f 33/33/33 36/36/36 35/35/35
f 36/36/36 37/37/37 35/35/35
f 37/37/37 38/38/38 35/35/35
f 37/37/37 39/39/39 38/38/38
f 39/39/39 40/40/40 38/38/38
f 39/39/39 41/41/41 40/40/40
f 41/41/41 42/42/42 40/40/40
f 45/45/45 44/44/44 43/43/43
f 46/46/46 45/45/45 43/43/43
f 46/46/46 43/43/43 47/47/47
f 46/46/46 48/48/48 45/45/45
f 48/48/48 49/49/49 45/45/45
f 49/49/49 50/50/50 45/45/45
f 49/49/49 51/51/51 50/50/50
f 51/51/51 52/52/52 50/50/50
f 51/51/51 53/53/53 52/52/52
f 52/52/52 54/54/54 50/50/50
f 52/52/52 53/53/53 54/54/54
f 53/53/53 55/55/55 54/54/54
f 55/55/55 56/56/56 54/54/54
f 56/56/56 57/57/57 54/54/54
f 57/57/57 58/58/58 54/54/54
f 57/57/57 56/56/56 59/59/59
f 62/62/62 61/61/61 60/60/60
f 63/63/63 60/60/60 61/61/61
f 64/64/64 63/63/63 61/61/61
f 64/64/64 65/65/65 63/63/63
f 66/66/66 63/63/63 65/65/65
f 69/69/69 68/68/68 67/67/67
f 70/70/70 69/69/69 67/67/67
f 70/70/70 67/67/67 71/71/71
f 72/72/72 70/70/70 71/71/71
f 72/72/72 71/71/71 73/73/73
f 74/74/74 72/72/72 73/73/73
f 74/74/74 73/73/73 75/75/75
f 76/76/76 74/74/74 75/75/75
f 76/76/76 75/75/75 77/77/77
f 78/78/78 76/76/76 77/77/77
f 77/77/77 79/79/79 78/78/78
f 82/82/82 81/81/81 80/80/80
f 83/83/83 82/82/82 80/80/80
f 83/83/83 80/80/80 84/84/84
f 85/85/85 83/83/83 84/84/84
f 85/85/85 84/84/84 86/86/86
f 84/84/84 87/87/87 86/86/86
f 90/90/90 89/89/89 88/88/88
f 89/89/89 91/91/91 88/88/88
f 88/88/88 91/91/91 92/92/92
f 93/93/93 88/88/88 92/92/92
f 93/93/93 92/92/92 94/94/94
f 95/95/95 93/93/93 94/94/94
f 95/95/95 94/94/94 96/96/96
f 97/97/97 95/95/95 96/96/96
f 96/96/96 98/98/98 97/97/97
f 101/101/101 100/100/100 99/99/99
f 102/102/102 101/101/101 99/99/99
f 105/105/105 104/104/104 103/103/103
f 106/106/106 105/105/105 103/103/103
f 106/106/106 103/103/103 107/107/107
f 108/108/108 106/106/106 107/107/107
f 109/109/109 108/108/108 107/107/107
f 109/109/109 107/107/107 110/110/110
f 107/107/107 111/111/111 110/110/110
f 111/111/111 112/112/112 110/110/110
f 112/112/112 113/113/113 110/110/110
f 116/116/116 115/115/115 114/114/114
f 116/116/116 114/114/114 117/117/117
f 116/116/116 117/117/117 118/118/118
f 119/119/119 116/116/116 118/118/118
f 120/120/120 119/119/119 118/118/118
f 120/120/120 118/118/118 121/121/121
f 120/120/120 122/122/122 119/119/119
f 123/123/123 120/120/120 121/121/121
f 123/123/123 122/122/122 120/120/120
f 123/123/123 121/121/121 124/124/124
f 123/123/123 124/124/124 125/125/125
f 126/126/126 122/122/122 123/123/123
f 126/126/126 123/123/123 125/125/125
f 126/126/126 127/127/127 122/122/122
f 127/127/127 126/126/126 125/125/125
f 128/128/128 127/127/127 125/125/125
f 128/128/128 125/125/125 129/129/129
f 130/130/130 127/127/127 128/128/128
f 130/130/130 128/128/128 129/129/129
f 130/130/130 129/129/129 131/131/131
f 132/132/132 130/130/130 131/131/131
f 132/132/132 133/133/133 130/130/130
f 134/134/134 133/133/133 132/132/132
f 137/137/137 136/136/136 135/135/135
f 138/138/138 136/136/136 137/137/137
f 139/139/139 138/138/138 137/137/137
f 139/139/139 137/137/137 140/140/140
f 143/143/143 142/142/142 141/141/141
f 144/144/144 143/143/143 141/141/141
f 147/147/147 146/146/146 145/145/145
f 148/148/148 147/147/147 145/145/145
f 151/151/151 150/150/150 149/149/149
f 152/152/152 151/151/151 149/149/149
f 155/155/155 154/154/154 153/153/153
f 156/156/156 155/155/155 153/153/153
f 159/159/159 158/158/158 157/157/157
f 160/160/160 159/159/159 157/157/157
f 163/163/163 162/162/162 161/161/161
f 164/164/164 163/163/163 161/161/161
f 167/167/167 166/166/166 165/165/165
f 168/168/168 167/167/167 165/165/165
f 171/171/171 170/170/170 169/169/169
f 172/172/172 171/171/171 169/169/169
f 175/175/175 174/174/174 173/173/173
f 176/176/176 175/175/175 173/173/173
f 179/179/179 178/178/178 177/177/177
f 180/180/180 179/179/179 177/177/177
f 183/183/183 182/182/182 181/181/181
f 184/184/184 183/183/183 181/181/181
f 187/187/187 186/186/186 185/185/185
f 188/188/188 187/187/187 185/185/185
f 191/191/191 190/190/190 189/189/189
f 192/192/192 191/191/191 189/189/189
f 195/195/195 194/194/194 193/193/193
f 196/196/196 195/195/195 193/193/193
f 199/199/199 198/198/198 197/197/197
f 200/200/200 199/199/199 197/197/197
f 203/203/203 202/202/202 201/201/201
f 204/204/204 203/203/203 201/201/201
f 207/207/207 206/206/206 205/205/205
f 208/208/208 207/207/207 205/205/205
f 211/211/211 210/210/210 209/209/209
f 212/212/212 211/211/211 209/209/209
f 215/215/215 214/214/214 213/213/213
f 216/216/216 215/215/215 213/213/213
