g SM_Tile_Hex_Flat_01
v -1.924751 3.615957E-07 -1.666642
v -1.443484 -0.2157357 -2.500009
v -1.443484 5.602858E-07 -2.500009
v -1.924751 -0.1367345 -1.666642
v -2.406016 1.629071E-07 -0.8332817
v -2.406016 -0.2157362 -0.8332818
v -2.88728 -3.578243E-08 8.239746E-05
v -2.88728 -0.1047809 8.237248E-05
v -2.406123 -2.344565E-07 0.833382
v -2.88728 -0.1047809 8.237248E-05
v -2.88728 -3.578243E-08 8.239746E-05
v -2.406123 -0.2157365 0.8333819
v -1.924961 -4.331318E-07 1.666686
v -1.924961 -0.2726463 1.66669
v -1.443799 -6.31807E-07 2.499991
v -1.443799 -0.2157369 2.499991
v -0.4813745 -6.317925E-07 2.49993
v -1.443799 -0.2157369 2.499991
v -1.443799 -6.31807E-07 2.499991
v -0.4813745 -0.1367355 2.49993
v 0.4810522 -6.317779E-07 2.499869
v 0.4810522 -0.2157369 2.499865
v 1.443479 -6.317634E-07 2.499808
v 1.443479 -0.1047815 2.499808
v 1.924744 -4.330736E-07 1.666442
v 1.443479 -0.1047815 2.499808
v 1.443479 -6.317634E-07 2.499808
v 1.924744 -0.2157367 1.666446
v 2.406011 -2.343853E-07 0.8330833
v 2.406011 -0.2651551 0.8330833
v 2.887278 -3.569512E-08 -0.0002838135
v 2.887278 -0.2157363 -0.0002838649
v 2.406116 1.629798E-07 -0.8335869
v 2.887278 -0.2157363 -0.0002838649
v 2.887278 -3.569512E-08 -0.0002838135
v 2.406116 -0.1367347 -0.8335869
v 1.924956 3.616538E-07 -1.666886
v 1.924956 -0.2157359 -1.666887
v 1.443796 5.603295E-07 -2.500192
v 1.443796 -0.1047803 -2.500192
v 0.4813696 5.603149E-07 -2.500131
v 1.443796 -0.1047803 -2.500192
v 1.443796 5.603295E-07 -2.500192
v 0.4813696 -0.2157357 -2.500131
v -0.4810571 5.603004E-07 -2.50007
v -0.4810571 -0.2709137 -2.50007
v -1.443484 5.602858E-07 -2.500009
v -1.443484 -0.2157357 -2.500009
v 0.4810522 -0.2157369 2.499865
v -0.0001586914 -0.4314734 2.5
v -0.4813745 -0.1367355 2.49993
v 1.443479 -0.1047815 2.499808
v 1.443594 -0.4314734 2.499963
v 1.924744 -0.2157367 1.666446
v 1.443594 -0.4314734 2.499963
v 1.443479 -0.1047815 2.499808
v 2.165379 -0.4314731 1.249862
v 2.406011 -0.2651551 0.8330833
v 2.887278 -0.2157363 -0.0002838649
v 2.88728 -0.4314728 -0.0002326736
v 2.406116 -0.1367347 -0.8335869
v 2.88728 -0.4314728 -0.0002326736
v 2.887278 -0.2157363 -0.0002838649
v 2.165537 -0.4314725 -1.250137
v 1.924956 -0.2157359 -1.666887
v 1.443796 -0.1047803 -2.500192
v 1.443799 -0.4314722 -2.500092
v 0.4813696 -0.2157357 -2.500131
v 1.443799 -0.4314722 -2.500092
v 1.443796 -0.1047803 -2.500192
v 0.0001586914 -0.4314722 -2.5
v -0.4810571 -0.2709137 -2.50007
v -1.443484 -0.2157357 -2.500009
v 0.0001586914 -0.4314722 -2.5
v -1.443479 -0.4314722 -2.49991
v -1.924751 -0.1367345 -1.666642
v -1.443479 -0.4314722 -2.49991
v -1.443484 -0.2157357 -2.500009
v -2.165378 -0.4314725 -1.249864
v -2.406016 -0.2157362 -0.8332818
v -2.88728 -0.1047809 8.237248E-05
v -2.88728 -0.4314728 0.0001819888
v -2.406123 -0.2157365 0.8333819
v -2.88728 -0.4314728 0.0001819888
v -2.88728 -0.1047809 8.237248E-05
v -2.165537 -0.4314731 1.250136
v -1.924961 -0.2726463 1.66669
v -1.443799 -0.2157369 2.499991
v -1.443796 -0.4314734 2.500092
v -0.4813745 -0.1367355 2.49993
v -0.0001586914 -0.4314734 2.5
v -1.443796 -0.4314734 2.500092
v -1.443799 -0.2157369 2.499991
v -0.4813745 -6.317925E-07 2.49993
v -2.441406E-06 -3.573879E-08 -0.0001006326
v 0.4810522 -6.317779E-07 2.499869
v -1.443799 -6.31807E-07 2.499991
v 1.443479 -6.317634E-07 2.499808
v -1.924961 -4.331318E-07 1.666686
v 1.924744 -4.330736E-07 1.666442
v -2.406123 -2.344565E-07 0.833382
v 2.406011 -2.343853E-07 0.8330833
v -2.88728 -3.578243E-08 8.239746E-05
v 2.887278 -3.569512E-08 -0.0002838135
v -2.406016 1.629071E-07 -0.8332817
v 2.406116 1.629798E-07 -0.8335869
v -1.924751 3.615957E-07 -1.666642
v 1.924956 3.616538E-07 -1.666886
v -1.443484 5.602858E-07 -2.500009
v 1.443796 5.603295E-07 -2.500192
v -0.4810571 5.603004E-07 -2.50007
v 0.4813696 5.603149E-07 -2.500131
vt 0.894842 0.2796284
vt 0.894842 0.2796284
vt 0.894842 0.2796284
vt 0.894842 0.2796284
vt 0.894842 0.2796284
vt 0.894842 0.2796284
vt 0.894842 0.2796284
vt 0.894842 0.2796284
vt 0.894842 0.2796284
vt 0.894842 0.2796284
vt 0.894842 0.2796284
vt 0.894842 0.2796284
vt 0.894842 0.2796284
vt 0.894842 0.2796284
vt 0.894842 0.2796284
vt 0.894842 0.2796284
vt 0.894842 0.2796284
vt 0.894842 0.2796284
vt 0.894842 0.2796284
vt 0.894842 0.2796284
vt 0.894842 0.2796284
vt 0.894842 0.2796284
vt 0.894842 0.2796284
vt 0.894842 0.2796284
vt 0.894842 0.2796284
vt 0.894842 0.2796284
vt 0.894842 0.2796284
vt 0.894842 0.2796284
vt 0.894842 0.2796284
vt 0.894842 0.2796284
vt 0.894842 0.2796284
vt 0.894842 0.2796284
vt 0.894842 0.2796284
vt 0.894842 0.2796284
vt 0.894842 0.2796284
vt 0.894842 0.2796284
vt 0.894842 0.2796284
vt 0.894842 0.2796284
vt 0.894842 0.2796284
vt 0.894842 0.2796284
vt 0.894842 0.2796284
vt 0.894842 0.2796284
vt 0.894842 0.2796284
vt 0.894842 0.2796284
vt 0.894842 0.2796284
vt 0.894842 0.2796284
vt 0.894842 0.2796284
vt 0.894842 0.2796284
vt 0.9888557 0.9237026
vt 0.9888557 0.900177
vt 0.9888557 0.9237026
vt 0.9888558 0.9237026
vt 0.988856 0.9001771
vt 0.9308922 0.3354031
vt 0.9305298 0.3118776
vt 0.9305297 0.3354031
vt 0.9310732 0.3118775
vt 0.9312544 0.3354031
vt 0.9316167 0.3354031
vt 0.9316168 0.3118776
vt 0.9319789 0.3354031
vt 0.9316168 0.3118776
vt 0.9316167 0.3354031
vt 0.9321601 0.3118775
vt 0.9323413 0.3354031
vt 0.9327035 0.3354031
vt 0.9327039 0.3118776
vt 0.9327035 0.3354031
vt 0.9327039 0.3118776
vt 0.9327035 0.3354031
vt 0.9327034 0.3118775
vt 0.9327035 0.3354031
vt 0.9327035 0.3354031
vt 0.9327034 0.3118775
vt 0.9327035 0.3118776
vt 0.9323412 0.3354031
vt 0.9327035 0.3118776
vt 0.9327035 0.3354031
vt 0.93216 0.3118775
vt 0.9319788 0.3354031
vt 0.9316165 0.3354031
vt 0.9316165 0.3118776
vt 0.9312544 0.3354031
vt 0.9316165 0.3118776
vt 0.9316165 0.3354031
vt 0.9310731 0.3118775
vt 0.9308921 0.3354031
vt 0.9305296 0.3354031
vt 0.9305298 0.3118776
vt 0.9888557 0.9237026
vt 0.9888557 0.900177
vt 0.988856 0.9001771
vt 0.9888557 0.9237026
vt 0.8958783 0.2782567
vt 0.8965606 0.2747131
vt 0.8972425 0.2782567
vt 0.8945141 0.2782568
vt 0.8986067 0.2782566
vt 0.8938321 0.2770756
vt 0.8992888 0.2770753
vt 0.8931501 0.2758945
vt 0.899971 0.275894
vt 0.8924681 0.2747133
vt 0.9006532 0.2747128
vt 0.8931502 0.2735321
vt 0.8999711 0.2735316
vt 0.8938324 0.2723508
vt 0.8992891 0.2723505
vt 0.8945146 0.2711696
vt 0.8986071 0.2711693
vt 0.8958787 0.2711695
vt 0.8972429 0.2711694
vn -0.86597 0 -0.5000961
vn -0.865972 -0.0001073686 -0.5000926
vn -0.8659703 0 -0.5000955
vn -0.8659707 -9.714994E-05 -0.5000948
vn -0.8659702 0 -0.5000956
vn -0.8659713 -0.0001061804 -0.5000937
vn -0.8659707 0 -0.5000948
vn -0.8659723 -9.182251E-05 -0.5000919
vn -0.8660019 0 0.5000407
vn -0.8659999 8.616662E-05 0.5000442
vn -0.8660022 0 0.5000402
vn -0.8659993 9.891557E-05 0.5000451
vn -0.8660013 0 0.5000417
vn -0.8660023 0.00013496 0.5000401
vn -0.866001 0 0.5000424
vn -0.8660026 0.0001260819 0.5000396
vn 6.413309E-05 0 1
vn 5.680567E-05 0.0002016235 1
vn 6.343035E-05 0 1
vn 6.145261E-05 0.0001805192 1
vn 6.352699E-05 0 1
vn 4.462634E-05 0.0002629988 1
vn 6.221814E-05 -1.0414E-05 1
vn 4.044116E-05 0.0002363278 1
vn 0.8659697 0 0.5000964
vn 0.8659878 0.0002288649 0.5000651
vn 0.8659706 0 0.5000948
vn 0.8659872 0.0002376292 0.5000662
vn 0.8659695 0 0.5000967
vn 0.8659713 0.0001054446 0.5000936
vn 0.8659704 0 0.5000955
vn 0.8659715 9.426488E-05 0.5000934
vn 0.866001 0 -0.5000424
vn 0.8659972 -6.670853E-05 -0.5000489
vn 0.866001 0 -0.5000423
vn 0.8659987 -6.476853E-05 -0.5000463
vn 0.8660019 0 -0.5000407
vn 0.8660008 -9.776046E-05 -0.5000427
vn 0.8660029 0 -0.5000391
vn 0.8660008 -8.469204E-05 -0.5000427
vn -6.34097E-05 0 -1
vn -5.520611E-05 -0.0001792664 -1
vn -6.35707E-05 0 -1
vn -5.352926E-05 -0.0002055142 -1
vn -6.331233E-05 0 -1
vn -6.698046E-05 -0.0002823717 -1
vn -6.337596E-05 0 -1
vn -6.917754E-05 -0.0002631471 -1
vn 4.462634E-05 0.0002629988 1
vn 7.96723E-05 0.0004145777 1
vn 6.145261E-05 0.0001805192 1
vn 4.044116E-05 0.0002363278 1
vn 1.523685E-05 0.0005219026 0.9999999
vn 0.8659872 0.0002376292 0.5000662
vn 0.8660076 0.0004884057 0.5000306
vn 0.8659878 0.0002288649 0.5000651
vn 0.8659799 0.00028476 0.5000788
vn 0.8659713 0.0001054446 0.5000936
vn 0.8659715 9.426488E-05 0.5000934
vn 0.8659727 0.0001949089 0.5000912
vn 0.8659987 -6.476853E-05 -0.5000463
vn 0.8659937 -0.0001280628 -0.5000548
vn 0.8659972 -6.670853E-05 -0.5000489
vn 0.8660048 -0.0001784934 -0.5000358
vn 0.8660008 -9.776046E-05 -0.5000427
vn 0.8660008 -8.469204E-05 -0.5000427
vn 0.8659981 -0.000183653 -0.5000471
vn -5.352926E-05 -0.0002055142 -1
vn -4.552277E-05 -0.0003867956 -1
vn -5.520611E-05 -0.0001792664 -1
vn -3.84619E-05 -0.0005160798 -0.9999999
vn -6.698046E-05 -0.0002823717 -1
vn -6.917754E-05 -0.0002631471 -1
vn -3.84619E-05 -0.0005160798 -0.9999999
vn -7.541825E-05 -0.0005462125 -0.9999999
vn -0.8659707 -9.714994E-05 -0.5000948
vn -0.8659735 -0.0002041174 -0.5000899
vn -0.865972 -0.0001073686 -0.5000926
vn -0.865965 -0.0002071452 -0.5001047
vn -0.8659713 -0.0001061804 -0.5000937
vn -0.8659723 -9.182251E-05 -0.5000919
vn -0.8659743 -0.0001981041 -0.5000885
vn -0.8659993 9.891557E-05 0.5000451
vn -0.8659972 0.0001859396 0.5000489
vn -0.8659999 8.616662E-05 0.5000442
vn -0.865996 0.0002398018 0.5000507
vn -0.8660023 0.00013496 0.5000401
vn -0.8660026 0.0001260819 0.5000396
vn -0.8660042 0.0002586996 0.5000366
vn 6.145261E-05 0.0001805192 1
vn 7.96723E-05 0.0004145777 1
vn 5.083754E-05 0.0003832646 1
vn 5.680567E-05 0.0002016235 1
vn 0 1 0
vn 0 1 0
vn 0 1 0
vn 0 1 0
vn 0 1 0
vn 0 1 0
vn 0 1 0
vn 0 1 0
vn 0 1 0
vn 0 1 0
vn 0 1 0
vn 0 1 0
vn 0 1 0
vn 0 1 0
vn 0 1 0
vn 0 1 0
vn 0 1 0
vn 0 1 0
vn 0 1 0
g SM_Tile_Hex_Flat_01_0
f 3/3/3 2/2/2 1/1/1
f 2/2/2 4/4/4 1/1/1
f 1/1/1 4/4/4 5/5/5
f 4/4/4 6/6/6 5/5/5
f 5/5/5 6/6/6 7/7/7
f 6/6/6 8/8/8 7/7/7
f 11/11/11 10/10/10 9/9/9
f 10/10/10 12/12/12 9/9/9
f 9/9/9 12/12/12 13/13/13
f 12/12/12 14/14/14 13/13/13
f 13/13/13 14/14/14 15/15/15
f 14/14/14 16/16/16 15/15/15
f 19/19/19 18/18/18 17/17/17
f 18/18/18 20/20/20 17/17/17
f 17/17/17 20/20/20 21/21/21
f 20/20/20 22/22/22 21/21/21
f 21/21/21 22/22/22 23/23/23
f 22/22/22 24/24/24 23/23/23
f 27/27/27 26/26/26 25/25/25
f 26/26/26 28/28/28 25/25/25
f 25/25/25 28/28/28 29/29/29
f 28/28/28 30/30/30 29/29/29
f 29/29/29 30/30/30 31/31/31
f 30/30/30 32/32/32 31/31/31
f 35/35/35 34/34/34 33/33/33
f 34/34/34 36/36/36 33/33/33
f 33/33/33 36/36/36 37/37/37
f 36/36/36 38/38/38 37/37/37
f 37/37/37 38/38/38 39/39/39
f 38/38/38 40/40/40 39/39/39
f 43/43/43 42/42/42 41/41/41
f 42/42/42 44/44/44 41/41/41
f 41/41/41 44/44/44 45/45/45
f 44/44/44 46/46/46 45/45/45
f 45/45/45 46/46/46 47/47/47
f 46/46/46 48/48/48 47/47/47
f 51/51/51 50/50/50 49/49/49
f 49/49/49 50/50/50 52/52/52
f 50/50/50 53/53/53 52/52/52
f 56/56/56 55/55/55 54/54/54
f 55/55/55 57/57/57 54/54/54
f 54/54/54 57/57/57 58/58/58
f 58/58/58 57/57/57 59/59/59
f 57/57/57 60/60/60 59/59/59
f 63/63/63 62/62/62 61/61/61
f 62/62/62 64/64/64 61/61/61
f 61/61/61 64/64/64 65/65/65
f 65/65/65 64/64/64 66/66/66
f 64/64/64 67/67/67 66/66/66
f 70/70/70 69/69/69 68/68/68
f 69/69/69 71/71/71 68/68/68
f 68/68/68 71/71/71 72/72/72
f 72/72/72 74/74/74 73/73/73
f 74/74/74 75/75/75 73/73/73
f 78/78/78 77/77/77 76/76/76
f 77/77/77 79/79/79 76/76/76
f 76/76/76 79/79/79 80/80/80
f 80/80/80 79/79/79 81/81/81
f 79/79/79 82/82/82 81/81/81
f 85/85/85 84/84/84 83/83/83
f 84/84/84 86/86/86 83/83/83
f 83/83/83 86/86/86 87/87/87
f 87/87/87 86/86/86 88/88/88
f 86/86/86 89/89/89 88/88/88
f 92/92/92 91/91/91 90/90/90
f 93/93/93 92/92/92 90/90/90
f 96/96/96 95/95/95 94/94/94
f 94/94/94 95/95/95 97/97/97
f 98/98/98 95/95/95 96/96/96
f 97/97/97 95/95/95 99/99/99
f 100/100/100 95/95/95 98/98/98
f 99/99/99 95/95/95 101/101/101
f 102/102/102 95/95/95 100/100/100
f 101/101/101 95/95/95 103/103/103
f 104/104/104 95/95/95 102/102/102
f 103/103/103 95/95/95 105/105/105
f 106/106/106 95/95/95 104/104/104
f 105/105/105 95/95/95 107/107/107
f 108/108/108 95/95/95 106/106/106
f 107/107/107 95/95/95 109/109/109
f 110/110/110 95/95/95 108/108/108
f 109/109/109 95/95/95 111/111/111
f 112/112/112 95/95/95 110/110/110
f 111/111/111 95/95/95 112/112/112
