g surf.003
v -0.02077631 -0.236038 0.1449906
v -0.02103085 -0.2177822 0.2592579
v 0.02042537 -0.2409847 0.2734463
v 0.02069138 -0.2612066 0.1468766
v -0.01951409 -0.2282888 -0.3193285
v 0.02186816 -0.2531931 -0.3291607
v -0.0335676 -0.09647756 0.1898161
v -0.02103085 -0.2177822 0.2592579
v -0.02077631 -0.236038 0.1449906
v -0.04242985 0.001739301 0.1431642
v -0.04262696 0.002335331 0.2230979
v -0.04115165 -0.002125968 -0.3752086
v -0.01951409 -0.2282888 -0.3193285
v -0.01814011 0.251965 -0.404128
v -0.04235811 0.03153371 0.1429422
v -0.04118149 0.02797563 -0.3342325
v -0.01955972 0.2692048 0.1412262
v -0.02803466 0.1698156 0.238924
v -0.04257908 0.0322019 0.2325544
v -0.04116657 0.01292483 -0.3547205
v -0.04242985 0.001739301 0.1431642
v -0.04115165 -0.002125968 -0.3752086
v -0.04239398 0.0166365 0.1430532
v -0.04118149 0.02797563 -0.3342325
v -0.04235811 0.03153371 0.1429422
v -0.04260403 0.01727164 0.2282318
v -0.04262696 0.002335331 0.2230979
v -0.04257908 0.0322019 0.2325544
v 0.04570927 0.1505295 0.2860493
v 0.07343367 0.01705189 0.2362402
v -0.02803466 0.1698156 0.238924
v 0.02202876 0.2941988 0.1427385
v -0.01955972 0.2692048 0.1412262
v 0.02336581 0.2765704 -0.4125665
v -0.01814011 0.251965 -0.404128
v 0.02202876 0.2941988 0.1427385
v 0.07343367 0.01705189 0.2362402
v 0.04570927 0.1505295 0.2860493
v 0.07638366 0.01636458 0.1449443
v 0.05742687 0.1562353 -0.3206376
v 0.02336581 0.2765704 -0.4125665
v -0.04118149 0.02797563 -0.3342325
v -0.01814011 0.251965 -0.404128
v -0.04116657 0.01292483 -0.3547205
v 0.07750052 0.01279668 -0.3373373
v -0.04115165 -0.002125968 -0.3752086
v 0.04705194 -0.1283981 -0.3122786
v -0.01951409 -0.2282888 -0.3193285
v 0.02186816 -0.2531931 -0.3291607
v 0.02069138 -0.2612066 0.1468766
v 0.05322957 -0.09285641 0.1820421
v 0.02042537 -0.2409847 0.2734463
v -0.02103085 -0.2177822 0.2592579
v -0.0335676 -0.09647756 0.1898161
v -0.04262696 0.002335331 0.2230979
vt 0.7914824 0.7052503
vt 0.7976722 0.7439927
vt 0.7898052 0.7488034
vt 0.782949 0.7058897
vt 0.7941098 0.5478224
vt 0.7856659 0.5444887
vt 0.4097166 0.672497
vt 0.4561001 0.6990496
vt 0.4630806 0.655357
vt 0.3721611 0.6546585
vt 0.3719333 0.685223
vt 0.3736391 0.4564471
vt 0.4601176 0.4778141
vt 0.2764817 0.4453891
vt 0.3607686 0.6545738
vt 0.3621291 0.4721152
vt 0.2698898 0.6539176
vt 0.3078935 0.6912745
vt 0.3605131 0.688839
vt 0.8758935 0.5358227
vt 0.8721009 0.7046311
vt 0.8707903 0.5288763
vt 0.877152 0.7045934
vt 0.8809965 0.5427693
vt 0.8822028 0.7045557
vt 0.8773673 0.7334735
vt 0.8723031 0.7317327
vt 0.8824293 0.7349388
vt 0.9225484 0.7530764
vt 0.8772928 0.7361886
vt 0.9290875 0.7370986
vt 0.9712595 0.7044867
vt 0.9627854 0.703974
vt 0.9652827 0.5162101
vt 0.9569402 0.5190713
vt 0.9712595 0.7044867
vt 0.8772928 0.7361886
vt 0.9225484 0.7530764
vt 0.8770597 0.7052346
vt 0.924483 0.5473787
vt 0.9652827 0.5162101
vt 0.8809965 0.5427693
vt 0.9569402 0.5190713
vt 0.8758935 0.5358227
vt 0.8758499 0.5417165
vt 0.8707903 0.5288763
vt 0.8279778 0.5502127
vt 0.7941098 0.5478224
vt 0.7856659 0.5444887
vt 0.782949 0.7058897
vt 0.8400282 0.7178127
vt 0.7898052 0.7488034
vt 0.7976722 0.7439927
vt 0.8388005 0.7204485
vt 0.8723031 0.7317327
vn -0.8347241 -0.5495451 0.03515154
vn -0.6798339 -0.1568251 0.7164019
vn 0.3205667 -0.5076276 0.7997194
vn 0.3843025 -0.9208371 0.06610969
vn -0.6098813 -0.5394271 -0.5805714
vn 0.4611949 -0.7141795 -0.5265426
vn -0.6113546 -0.01473434 0.7912196
vn -0.6798339 -0.1568251 0.7164019
vn -0.8347241 -0.5495451 0.03515154
vn -0.9989697 -0.04537676 -0.0007718553
vn -0.720873 -0.2799658 0.6340041
vn -0.5145056 -0.1324679 -0.8471932
vn -0.6098813 -0.5394271 -0.5805714
vn -0.5124614 0.3280576 -0.7935751
vn -0.9987227 0.050517 -0.0008859186
vn -0.8357381 0.08815435 -0.542006
vn -0.7640575 0.590492 0.259876
vn -0.770211 0.330101 0.5457183
vn -0.7860494 -0.107991 0.6086578
vn -0.6529885 0.04783282 -0.7558559
vn -0.9989697 -0.04537676 -0.0007718553
vn -0.5145056 -0.1324679 -0.8471932
vn -0.999994 0.002389571 -0.002483669
vn -0.8357381 0.08815435 -0.542006
vn -0.9987227 0.050517 -0.0008859186
vn -0.734229 -0.2327064 0.6377738
vn -0.720873 -0.2799658 0.6340041
vn -0.7860494 -0.107991 0.6086578
vn 0.3967908 0.2727619 0.8764462
vn 0.7182419 -0.216954 0.6611048
vn -0.770211 0.330101 0.5457183
vn 0.3565423 0.8843657 0.3012887
vn -0.7640575 0.590492 0.259876
vn 0.4781125 0.5787165 -0.6606783
vn -0.5124614 0.3280576 -0.7935751
vn 0.3565423 0.8843657 0.3012887
vn 0.7182419 -0.216954 0.6611048
vn 0.3967908 0.2727619 0.8764462
vn 0.9998323 -0.001627135 0.01824307
vn 0.8005494 -0.02361384 -0.5988013
vn 0.4781125 0.5787165 -0.6606783
vn -0.8357381 0.08815435 -0.542006
vn -0.5124614 0.3280576 -0.7935751
vn -0.6529885 0.04783282 -0.7558559
vn 0.7652805 0.05060052 -0.6417052
vn -0.5145056 -0.1324679 -0.8471932
vn 0.7693235 -0.18734 -0.6107741
vn -0.6098813 -0.5394271 -0.5805714
vn 0.4611949 -0.7141795 -0.5265426
vn 0.3843025 -0.9208371 0.06610969
vn 0.609543 -0.1200462 0.7836111
vn 0.3205667 -0.5076276 0.7997194
vn -0.6798339 -0.1568251 0.7164019
vn -0.6113546 -0.01473434 0.7912196
vn -0.720873 -0.2799658 0.6340041
g surf.003_0
f 3/3/3 2/2/2 1/1/1
f 4/4/4 3/3/3 1/1/1
f 4/4/4 1/1/1 5/5/5
f 6/6/6 4/4/4 5/5/5
f 9/9/9 8/8/8 7/7/7
f 7/7/7 10/10/10 9/9/9
f 7/7/7 11/11/11 10/10/10
f 9/9/9 10/10/10 12/12/12
f 13/13/13 9/9/9 12/12/12
f 16/16/16 15/15/15 14/14/14
f 15/15/15 17/17/17 14/14/14
f 17/17/17 15/15/15 18/18/18
f 15/15/15 19/19/19 18/18/18
f 22/22/22 21/21/21 20/20/20
f 21/21/21 23/23/23 20/20/20
f 20/20/20 23/23/23 24/24/24
f 23/23/23 25/25/25 24/24/24
f 26/26/26 23/23/23 21/21/21
f 23/23/23 26/26/26 25/25/25
f 27/27/27 26/26/26 21/21/21
f 26/26/26 28/28/28 25/25/25
f 29/29/29 26/26/26 27/27/27
f 26/26/26 29/29/29 28/28/28
f 30/30/30 29/29/29 27/27/27
f 28/28/28 29/29/29 31/31/31
f 31/31/31 29/29/29 32/32/32
f 33/33/33 31/31/31 32/32/32
f 33/33/33 32/32/32 34/34/34
f 35/35/35 33/33/33 34/34/34
f 38/38/38 37/37/37 36/36/36
f 37/37/37 39/39/39 36/36/36
f 40/40/40 36/36/36 39/39/39
f 40/40/40 41/41/41 36/36/36
f 40/40/40 42/42/42 41/41/41
f 42/42/42 43/43/43 41/41/41
f 44/44/44 42/42/42 40/40/40
f 45/45/45 44/44/44 40/40/40
f 39/39/39 45/45/45 40/40/40
f 46/46/46 44/44/44 45/45/45
f 47/47/47 46/46/46 45/45/45
f 47/47/47 45/45/45 39/39/39
f 48/48/48 46/46/46 47/47/47
f 49/49/49 48/48/48 47/47/47
f 49/49/49 47/47/47 39/39/39
f 39/39/39 50/50/50 49/49/49
f 50/50/50 39/39/39 51/51/51
f 39/39/39 37/37/37 51/51/51
f 51/51/51 52/52/52 50/50/50
f 53/53/53 52/52/52 51/51/51
f 54/54/54 53/53/53 51/51/51
f 54/54/54 51/51/51 37/37/37
f 55/55/55 54/54/54 37/37/37
