g surf
v 0.05727256 0.01299827 0.1873863
v 0.01410002 0.01133123 -0.05031109
v 0.1520917 0.01059778 -0.1041554
v 0.165345 0.01098173 -0.04834032
v 0.1520389 -0.0113311 -0.103992
v 0.1652922 -0.01094715 -0.04817688
v 0.05721976 -0.008930613 0.1875497
v 0.1520917 0.01059778 -0.1041554
v 0.01410002 0.01133123 -0.05031109
v 0.01404722 -0.01059765 -0.05014771
v 0.1520389 -0.0113311 -0.103992
v 0.05721976 -0.008930613 0.1875497
v 0.1652922 -0.01094715 -0.04817688
v -0.05011897 0.01683909 0.1403062
v -0.04951523 0.01501341 -0.1045364
v -0.03113375 0.0706297 -0.1320491
v -0.02766628 0.1826952 0.1391249
v -0.05094995 0.01935192 0.477303
v -0.02807613 0.2437079 0.4756865
v -0.05230948 0.02346311 1.028656
v -0.02951108 0.2611342 1.02694
v -0.0532442 0.0262896 1.407718
v -0.03061399 0.2071888 1.400251
v -0.05389689 0.02826328 1.672407
v -0.03165277 0.1125214 1.671834
v -0.03592924 0.02959629 1.814185
v 0.01420687 -3.614137E-05 -0.1042669
v 0.01411453 0.2066902 0.1317946
v 0.01452937 0.07800125 -0.1590383
v 0.05737941 0.001630891 0.1334304
v 0.01341445 0.2684998 0.4731472
v 0.01312749 -0.2032193 0.1348487
v 0.01415161 -0.07888162 -0.1578695
v 0.01214201 -0.2599317 0.4770843
v 0.06780185 0.004152576 0.4752524
v 0.01207739 0.2861282 1.028452
v 0.01074001 -0.2692772 1.03259
v 0.06643229 0.008293987 1.030658
v 0.01100842 0.2315183 1.406346
v 0.009947583 -0.2090382 1.409629
v 0.05423635 0.0111355 1.408096
v 0.01008992 0.1349253 1.683226
v 0.009504185 -0.1083271 1.685038
v 0.03454152 0.01324001 1.684193
v 0.009355944 0.01463301 1.863018
v -0.04951523 0.01501341 -0.1045364
v 0.01420687 -3.614137E-05 -0.1042669
v 0.01452937 0.07800125 -0.1590383
v -0.03113375 0.0706297 -0.1320491
v 0.01411453 0.2066902 0.1317946
v -0.02766628 0.1826952 0.1391249
v 0.01341445 0.2684998 0.4731472
v -0.02807613 0.2437079 0.4756865
v 0.01207739 0.2861282 1.028452
v -0.02951108 0.2611342 1.02694
v 0.01100842 0.2315183 1.406346
v -0.03061399 0.2071888 1.400251
v 0.01008992 0.1349253 1.683226
v -0.03165277 0.1125214 1.671834
v 0.009355944 0.01463301 1.863018
v -0.03592924 0.02959629 1.814185
v -0.03668965 0.01452881 1.83415
v -0.05393276 0.01336607 1.672518
v -0.05389689 0.02826328 1.672407
v -0.0532442 0.0262896 1.407718
v -0.03600252 -0.0008379761 1.814412
v -0.03213055 -0.08589462 1.673312
v 0.009504185 -0.1083271 1.685038
v -0.0315574 -0.1846021 1.40317
v 0.009947583 -0.2090382 1.409629
v -0.03072768 -0.2441086 1.030704
v 0.01074001 -0.2692772 1.03259
v -0.02922859 -0.2349052 0.4792524
v 0.01214201 -0.2599317 0.4770843
v -0.02853703 -0.1789168 0.1418192
v 0.01312749 -0.2032193 0.1348487
v -0.03147452 -0.07088895 -0.1309947
v 0.01415161 -0.07888162 -0.1578695
v -0.04958698 -0.014781 -0.1043143
v 0.01420687 -3.614137E-05 -0.1042669
v -0.05396863 -0.001531132 1.672629
v -0.05331594 -0.0035048 1.40794
v -0.05328008 0.0113924 1.407829
v -0.05238122 -0.006331296 1.028878
v -0.05230948 0.02346311 1.028656
v -0.05234535 0.008565908 1.028767
v -0.0510217 -0.01044249 0.477525
v -0.05094995 0.01935192 0.477303
v -0.05098583 0.004454718 0.477414
v -0.05019072 -0.01295532 0.1405283
v -0.05011897 0.01683909 0.1403062
v -0.05015484 0.001941886 0.1404173
v -0.04958698 -0.014781 -0.1043143
v -0.04951523 0.01501341 -0.1045364
v -0.0495511 0.0001162053 -0.1044253
v -0.0495511 0.0001162053 -0.1044253
v 0.01420687 -3.614137E-05 -0.1042669
v -0.04951523 0.01501341 -0.1045364
v -0.04958698 -0.014781 -0.1043143
v -0.05019072 -0.01295532 0.1405283
v -0.03147452 -0.07088895 -0.1309947
v -0.04958698 -0.014781 -0.1043143
v -0.02853703 -0.1789168 0.1418192
v -0.0510217 -0.01044249 0.477525
v -0.02922859 -0.2349052 0.4792524
v -0.05238122 -0.006331296 1.028878
v -0.03072768 -0.2441086 1.030704
v -0.05331594 -0.0035048 1.40794
v -0.0315574 -0.1846021 1.40317
v -0.05396863 -0.001531132 1.672629
v -0.03213055 -0.08589462 1.673312
v -0.03600252 -0.0008379761 1.814412
vt 0.8786546 0.4193225
vt 0.8780895 0.3387311
vt 0.8778406 0.320475
vt 0.8779709 0.3393992
vt 0.8704057 0.3205305
vt 0.8705359 0.3394545
vt 0.8712198 0.4193778
vt 0.8778406 0.320475
vt 0.8780895 0.3387311
vt 0.8706545 0.3387864
vt 0.8704057 0.3205305
vt 0.8712198 0.4193778
vt 0.8705359 0.3394545
vt 0.3776935 0.3940588
vt 0.3770744 0.3110447
vt 0.3959311 0.3017165
vt 0.4339271 0.3936583
vt 0.3785454 0.5083181
vt 0.4546133 0.5077698
vt 0.3799392 0.6952545
vt 0.4605218 0.6946728
vt 0.3808976 0.8237759
vt 0.4422316 0.8212442
vt 0.3815665 0.913519
vt 0.4101346 0.9133248
vt 0.3820186 0.961589
vt 0.8742354 0.3204372
vt 0.944326 0.4004741
vt 0.9006939 0.3018669
vt 0.8748004 0.4010285
vt 0.9652827 0.5162101
vt 0.8053458 0.4015094
vt 0.8475027 0.3022632
vt 0.7861176 0.5175449
vt 0.8756556 0.5169238
vt 0.9712595 0.7044867
vt 0.782949 0.7058897
vt 0.8770597 0.7052346
vt 0.9527443 0.8326121
vt 0.8033729 0.8337249
vt 0.878023 0.8332053
vt 0.9199939 0.9264883
vt 0.8375192 0.9271028
vt 0.8787367 0.9268165
vt 0.8792091 0.9874473
vt 0.879338 0.3203458
vt 0.8742354 0.3204372
vt 0.9006939 0.3018669
vt 0.8981947 0.3110177
vt 0.944326 0.4004741
vt 0.9361907 0.4029595
vt 0.9652827 0.5162101
vt 0.9568769 0.517071
vt 0.9712595 0.7044867
vt 0.9627854 0.703974
vt 0.9527443 0.8326121
vt 0.9444952 0.8305454
vt 0.9199939 0.9264883
vt 0.9123982 0.922626
vt 0.8792091 0.9874473
vt 0.8842822 0.9708902
vt 0.8791735 0.9776592
vt 0.8787794 0.9228579
vt 0.8838301 0.9228202
vt 0.8831612 0.8330771
vt 0.8739635 0.9709672
vt 0.8451249 0.9231271
vt 0.8375192 0.9271028
vt 0.8116578 0.8315352
vt 0.8033729 0.8337249
vt 0.7914824 0.7052503
vt 0.782949 0.7058897
vt 0.7946027 0.51828
vt 0.7861176 0.5175449
vt 0.8135856 0.4038729
vt 0.8053458 0.4015094
vt 0.8502128 0.3113751
vt 0.8475027 0.3022632
vt 0.8692361 0.3204211
vt 0.8742354 0.3204372
vt 0.8737285 0.9228956
vt 0.8730592 0.8331524
vt 0.8781103 0.8331148
vt 0.8721009 0.7046311
vt 0.8822028 0.7045557
vt 0.877152 0.7045934
vt 0.870707 0.5176943
vt 0.880809 0.5176193
vt 0.8757582 0.5176567
vt 0.8698552 0.4034352
vt 0.8799571 0.40336
vt 0.8749059 0.4033975
vt 0.8692361 0.3204211
vt 0.879338 0.3203458
vt 0.8742871 0.3203835
vt 0.8742871 0.3203835
vt 0.8742354 0.3204372
vt 0.879338 0.3203458
vt 0.8692361 0.3204211
vt 0.3675916 0.394134
vt 0.3479491 0.3020739
vt 0.3669724 0.3111199
vt 0.311322 0.3945718
vt 0.3684434 0.5083931
vt 0.2923391 0.5089788
vt 0.3698373 0.6953299
vt 0.2892188 0.6959491
vt 0.3707955 0.8238512
vt 0.3093942 0.822234
vt 0.3714649 0.9135944
vt 0.3428613 0.9138259
vt 0.3716999 0.961666
vn 0.8483278 0.3625983 0.3858269
vn -0.2400196 0.7426109 -0.6252357
vn 0.3827078 0.5640394 -0.7317064
vn 0.7656503 0.6393663 0.07064313
vn 0.3799614 -0.5767148 -0.7232077
vn 0.7625654 -0.6419216 0.08019028
vn 0.846586 -0.3608894 0.3912175
vn 0.3827078 0.5640394 -0.7317064
vn -0.2400196 0.7426109 -0.6252357
vn -0.2436154 -0.75068 -0.61411
vn 0.3799614 -0.5767148 -0.7232077
vn 0.846586 -0.3608894 0.3912175
vn 0.7625654 -0.6419216 0.08019028
vn -0.9971393 0.07448501 -0.01285716
vn -0.8223812 -0.07919772 -0.5633977
vn -0.7254914 0.2157848 -0.6535282
vn -0.8061674 0.5693663 -0.1609852
vn -0.9984888 0.05467691 -0.005535929
vn -0.8331549 0.5500669 -0.05726533
vn -0.9986019 0.05284728 -0.001192759
vn -0.8306623 0.5561123 0.02719294
vn -0.9974838 0.0705931 0.006514795
vn -0.8239335 0.5529518 0.1240076
vn -0.9892034 0.1317407 0.06419563
vn -0.7827339 0.5681188 0.2541039
vn -0.7733999 0.5234112 0.3576219
vn 0.740567 -0.006789748 -0.6719481
vn 0.4093709 0.8703501 -0.27369
vn 0.3334049 0.3295761 -0.8833011
vn 0.9974419 -0.002933948 -0.07142275
vn 0.3891524 0.9163889 -0.09376358
vn 0.4051653 -0.8762927 -0.2606765
vn 0.3317822 -0.3443025 -0.8782804
vn 0.3847318 -0.9195476 -0.08008467
vn 0.9998678 -0.002527286 -0.01606025
vn 0.388551 0.9199142 0.05278371
vn 0.3841187 -0.9208859 0.06649874
vn 0.9998657 -0.002286694 0.01622779
vn 0.3854997 0.896755 0.2173023
vn 0.3811844 -0.8952637 0.230654
vn 0.998625 -0.002014319 0.05238251
vn 0.4039782 0.8246825 0.395854
vn 0.4000159 -0.8206286 0.4081128
vn 0.9944062 -0.001607555 0.1056107
vn 0.2361963 0.006671294 0.9716825
vn -0.8223812 -0.07919772 -0.5633977
vn 0.740567 -0.006789748 -0.6719481
vn 0.3334049 0.3295761 -0.8833011
vn -0.7254914 0.2157848 -0.6535282
vn 0.4093709 0.8703501 -0.27369
vn -0.8061674 0.5693663 -0.1609852
vn 0.3891524 0.9163889 -0.09376358
vn -0.8331549 0.5500669 -0.05726533
vn 0.388551 0.9199142 0.05278371
vn -0.8306623 0.5561123 0.02719294
vn 0.3854997 0.896755 0.2173023
vn -0.8239335 0.5529518 0.1240076
vn 0.4039782 0.8246825 0.395854
vn -0.7827339 0.5681188 0.2541039
vn 0.2361963 0.006671294 0.9716825
vn -0.7733999 0.5234112 0.3576219
vn -0.7522612 0.006720208 0.6588308
vn -0.9984108 0.002823302 0.05628303
vn -0.9892034 0.1317407 0.06419563
vn -0.9974838 0.0705931 0.006514795
vn -0.7758988 -0.5142937 0.3653533
vn -0.7854518 -0.5604932 0.2625127
vn 0.4000159 -0.8206286 0.4081128
vn -0.8265825 -0.5470682 0.1322031
vn 0.3811844 -0.8952637 0.230654
vn -0.8355845 -0.5484656 0.03137004
vn 0.3841187 -0.9208859 0.06649874
vn -0.835796 -0.5468409 -0.04909275
vn 0.3847318 -0.9195476 -0.08008467
vn -0.8089055 -0.5678132 -0.1525125
vn 0.4051653 -0.8762927 -0.2606765
vn -0.7265456 -0.2220025 -0.6502663
vn 0.3317822 -0.3443025 -0.8782804
vn -0.8220109 0.07475275 -0.5645442
vn 0.740567 -0.006789748 -0.6719481
vn -0.989824 -0.1260045 0.06611601
vn -0.997812 -0.06568391 0.007530141
vn -0.999994 0.002389415 -0.002483677
vn -0.9988449 -0.04804968 -0.0004410122
vn -0.9986019 0.05284728 -0.001192759
vn -0.999994 0.002389479 -0.002483647
vn -0.9987407 -0.04994445 -0.004756435
vn -0.9984888 0.05467691 -0.005535929
vn -0.999994 0.00238937 -0.002483626
vn -0.9974868 -0.06986564 -0.01178166
vn -0.9971393 0.07448501 -0.01285716
vn -0.999994 0.002389435 -0.002483641
vn -0.8220109 0.07475275 -0.5645442
vn -0.8223812 -0.07919772 -0.5633977
vn -0.7053594 -0.003583645 -0.7088408
vn -0.7053594 -0.003583645 -0.7088408
vn 0.740567 -0.006789748 -0.6719481
vn -0.8223812 -0.07919772 -0.5633977
vn -0.8220109 0.07475275 -0.5645442
vn -0.9974868 -0.06986564 -0.01178166
vn -0.7265456 -0.2220025 -0.6502663
vn -0.8220109 0.07475275 -0.5645442
vn -0.8089055 -0.5678132 -0.1525125
vn -0.9987407 -0.04994445 -0.004756435
vn -0.835796 -0.5468409 -0.04909275
vn -0.9988449 -0.04804968 -0.0004410122
vn -0.8355845 -0.5484656 0.03137004
vn -0.997812 -0.06568391 0.007530141
vn -0.8265825 -0.5470682 0.1322031
vn -0.989824 -0.1260045 0.06611601
vn -0.7854518 -0.5604932 0.2625127
vn -0.7758988 -0.5142937 0.3653533
g surf_0
f 3/3/3 2/2/2 1/1/1
f 4/4/4 3/3/3 1/1/1
f 5/5/5 3/3/3 4/4/4
f 6/6/6 5/5/5 4/4/4
f 6/6/6 4/4/4 1/1/1
f 7/7/7 6/6/6 1/1/1
f 10/10/10 9/9/9 8/8/8
f 11/11/11 10/10/10 8/8/8
f 10/10/10 11/11/11 12/12/12
f 11/11/11 13/13/13 12/12/12
f 16/16/16 15/15/15 14/14/14
f 17/17/17 16/16/16 14/14/14
f 17/17/17 14/14/14 18/18/18
f 19/19/19 17/17/17 18/18/18
f 18/18/18 20/20/20 19/19/19
f 20/20/20 21/21/21 19/19/19
f 20/20/20 22/22/22 21/21/21
f 22/22/22 23/23/23 21/21/21
f 22/22/22 24/24/24 23/23/23
f 24/24/24 25/25/25 23/23/23
f 25/25/25 24/24/24 26/26/26
f 29/29/29 28/28/28 27/27/27
f 28/28/28 30/30/30 27/27/27
f 28/28/28 31/31/31 30/30/30
f 30/30/30 32/32/32 27/27/27
f 32/32/32 33/33/33 27/27/27
f 34/34/34 32/32/32 30/30/30
f 31/31/31 35/35/35 30/30/30
f 35/35/35 34/34/34 30/30/30
f 35/35/35 31/31/31 36/36/36
f 34/34/34 35/35/35 37/37/37
f 38/38/38 35/35/35 36/36/36
f 35/35/35 38/38/38 37/37/37
f 38/38/38 36/36/36 39/39/39
f 37/37/37 38/38/38 40/40/40
f 41/41/41 38/38/38 39/39/39
f 38/38/38 41/41/41 40/40/40
f 41/41/41 39/39/39 42/42/42
f 40/40/40 41/41/41 43/43/43
f 44/44/44 41/41/41 42/42/42
f 41/41/41 44/44/44 43/43/43
f 45/45/45 44/44/44 42/42/42
f 44/44/44 45/45/45 43/43/43
f 48/48/48 47/47/47 46/46/46
f 49/49/49 48/48/48 46/46/46
f 50/50/50 48/48/48 49/49/49
f 51/51/51 50/50/50 49/49/49
f 52/52/52 50/50/50 51/51/51
f 53/53/53 52/52/52 51/51/51
f 54/54/54 52/52/52 53/53/53
f 55/55/55 54/54/54 53/53/53
f 56/56/56 54/54/54 55/55/55
f 57/57/57 56/56/56 55/55/55
f 58/58/58 56/56/56 57/57/57
f 59/59/59 58/58/58 57/57/57
f 60/60/60 58/58/58 59/59/59
f 61/61/61 60/60/60 59/59/59
f 62/62/62 60/60/60 61/61/61
f 63/63/63 62/62/62 61/61/61
f 64/64/64 63/63/63 61/61/61
f 63/63/63 64/64/64 65/65/65
f 60/60/60 62/62/62 66/66/66
f 62/62/62 63/63/63 66/66/66
f 60/60/60 66/66/66 67/67/67
f 68/68/68 60/60/60 67/67/67
f 68/68/68 67/67/67 69/69/69
f 70/70/70 68/68/68 69/69/69
f 70/70/70 69/69/69 71/71/71
f 72/72/72 70/70/70 71/71/71
f 72/72/72 71/71/71 73/73/73
f 74/74/74 72/72/72 73/73/73
f 74/74/74 73/73/73 75/75/75
f 76/76/76 74/74/74 75/75/75
f 76/76/76 75/75/75 77/77/77
f 78/78/78 76/76/76 77/77/77
f 78/78/78 77/77/77 79/79/79
f 80/80/80 78/78/78 79/79/79
f 63/63/63 81/81/81 66/66/66
f 81/81/81 63/63/63 82/82/82
f 63/63/63 83/83/83 82/82/82
f 83/83/83 63/63/63 65/65/65
f 82/82/82 83/83/83 84/84/84
f 83/83/83 65/65/65 85/85/85
f 83/83/83 86/86/86 84/84/84
f 86/86/86 83/83/83 85/85/85
f 84/84/84 86/86/86 87/87/87
f 86/86/86 85/85/85 88/88/88
f 86/86/86 89/89/89 87/87/87
f 89/89/89 86/86/86 88/88/88
f 90/90/90 87/87/87 89/89/89
f 88/88/88 91/91/91 89/89/89
f 92/92/92 90/90/90 89/89/89
f 91/91/91 92/92/92 89/89/89
f 93/93/93 90/90/90 92/92/92
f 91/91/91 94/94/94 92/92/92
f 95/95/95 93/93/93 92/92/92
f 94/94/94 95/95/95 92/92/92
f 98/98/98 97/97/97 96/96/96
f 97/97/97 99/99/99 96/96/96
f 102/102/102 101/101/101 100/100/100
f 101/101/101 103/103/103 100/100/100
f 100/100/100 103/103/103 104/104/104
f 103/103/103 105/105/105 104/104/104
f 106/106/106 104/104/104 105/105/105
f 107/107/107 106/106/106 105/105/105
f 108/108/108 106/106/106 107/107/107
f 109/109/109 108/108/108 107/107/107
f 110/110/110 108/108/108 109/109/109
f 111/111/111 110/110/110 109/109/109
f 110/110/110 111/111/111 112/112/112
