g surf.002
v 0.04938928 0.01714156 -0.02655616
v 0.00621674 0.01547453 -0.2642536
v 0.1442084 0.01474108 -0.3180979
v 0.1574617 0.01512502 -0.2622828
v 0.1441556 -0.007187803 -0.3179345
v 0.1574089 -0.00680386 -0.2621194
v 0.04933647 -0.004787318 -0.02639279
v 0.1442084 0.01474108 -0.3180979
v 0.00621674 0.01547453 -0.2642536
v 0.006163936 -0.006454353 -0.2640902
v 0.1441556 -0.007187803 -0.3179345
v 0.04933647 -0.004787318 -0.02639279
v 0.1574089 -0.00680386 -0.2621194
v -0.05800225 0.02098238 -0.07363626
v -0.05739851 0.0191567 -0.3184789
v -0.03901703 0.074773 -0.3459916
v -0.03554957 0.1868385 -0.07481757
v -0.05883323 0.02349521 0.2633605
v -0.03595941 0.2478512 0.261744
v -0.05901614 0.02404832 0.3375386
v -0.03597477 0.2480377 0.2676431
v 0.006323589 0.004107154 -0.3182094
v 0.006231245 0.2108335 -0.08214787
v 0.00664609 0.08214454 -0.3729808
v 0.04949612 0.005774186 -0.08051214
v 0.00553116 0.2726431 0.2592047
v 0.005244207 -0.199076 -0.07909378
v 0.006268324 -0.07473832 -0.371812
v 0.004258722 -0.2557884 0.2631418
v 0.05991857 0.008295873 0.2613099
v 0.05966587 0.00886938 0.3344338
v 0.03959221 0.152308 0.3511335
v 0.02921729 -0.1323254 0.3594926
v 0.004033502 -0.2571204 0.3426104
v -0.05739851 0.0191567 -0.3184789
v 0.006323589 0.004107154 -0.3182094
v 0.00664609 0.08214454 -0.3729808
v -0.03901703 0.074773 -0.3459916
v 0.006231245 0.2108335 -0.08214787
v -0.03554957 0.1868385 -0.07481757
v 0.00553116 0.2726431 0.2592047
v -0.03595941 0.2478512 0.261744
v -0.03597477 0.2480377 0.2676431
v -0.05901614 0.02404832 0.3375386
v 0.03959221 0.152308 0.3511335
v -0.05900122 0.008997529 0.3170506
v 0.05966587 0.00886938 0.3344338
v -0.05883323 0.02349521 0.2633605
v -0.0589863 -0.00605327 0.2965626
v 0.02921729 -0.1323254 0.3594926
v -0.03734874 -0.2322161 0.3524426
v 0.004033502 -0.2571204 0.3426104
v -0.03711188 -0.230762 0.2653099
v 0.004258722 -0.2557884 0.2631418
v -0.03642031 -0.1747735 -0.07212332
v 0.005244207 -0.199076 -0.07909378
v -0.0393578 -0.06674565 -0.3449372
v 0.006268324 -0.07473832 -0.371812
v -0.05747026 -0.0106377 -0.3182568
v 0.006323589 0.004107154 -0.3182094
v -0.05890498 -0.006299191 0.2635825
v -0.05886911 0.008598012 0.2634715
v -0.058074 -0.008812023 -0.07341424
v -0.05800225 0.02098238 -0.07363626
v -0.05803813 0.006085181 -0.07352522
v -0.05747026 -0.0106377 -0.3182568
v -0.05739851 0.0191567 -0.3184789
v -0.05743439 0.0042595 -0.3183678
v -0.05743439 0.0042595 -0.3183678
v 0.006323589 0.004107154 -0.3182094
v -0.05739851 0.0191567 -0.3184789
v -0.05747026 -0.0106377 -0.3182568
v -0.058074 -0.008812023 -0.07341424
v -0.0393578 -0.06674565 -0.3449372
v -0.05747026 -0.0106377 -0.3182568
v -0.03642031 -0.1747735 -0.07212332
v -0.05890498 -0.006299191 0.2635825
v -0.03711188 -0.230762 0.2653099
v -0.0589863 -0.00605327 0.2965626
v -0.03734874 -0.2322161 0.3524426
vt 0.8786546 0.4193225
vt 0.8780895 0.3387311
vt 0.8778406 0.320475
vt 0.8779709 0.3393992
vt 0.8704057 0.3205305
vt 0.8705359 0.3394545
vt 0.8712198 0.4193778
vt 0.8778406 0.320475
vt 0.8780895 0.3387311
vt 0.8706545 0.3387864
vt 0.8704057 0.3205305
vt 0.8712198 0.4193778
vt 0.8705359 0.3394545
vt 0.3633015 0.3148933
vt 0.3639995 0.2212721
vt 0.3427334 0.210752
vt 0.2998827 0.3144415
vt 0.3623406 0.4437515
vt 0.276553 0.4431334
vt 0.3621291 0.4721152
vt 0.2764817 0.4453891
vt 0.8742354 0.3204372
vt 0.944326 0.4004741
vt 0.9006939 0.3018669
vt 0.8748004 0.4010285
vt 0.9652827 0.5162101
vt 0.8053458 0.4015094
vt 0.8475027 0.3022632
vt 0.7861176 0.5175449
vt 0.8756556 0.5169238
vt 0.8758499 0.5417165
vt 0.924483 0.5473787
vt 0.8279778 0.5502127
vt 0.7856659 0.5444887
vt 0.879338 0.3203458
vt 0.8742354 0.3204372
vt 0.9006939 0.3018669
vt 0.8981947 0.3110177
vt 0.944326 0.4004741
vt 0.9361907 0.4029595
vt 0.9652827 0.5162101
vt 0.9568769 0.517071
vt 0.9569402 0.5190713
vt 0.8809965 0.5427693
vt 0.924483 0.5473787
vt 0.8758935 0.5358227
vt 0.8758499 0.5417165
vt 0.880809 0.5176193
vt 0.8707903 0.5288763
vt 0.8279778 0.5502127
vt 0.7941098 0.5478224
vt 0.7856659 0.5444887
vt 0.7946027 0.51828
vt 0.7861176 0.5175449
vt 0.8135856 0.4038729
vt 0.8053458 0.4015094
vt 0.8502128 0.3113751
vt 0.8475027 0.3022632
vt 0.8692361 0.3204211
vt 0.8742354 0.3204372
vt 0.870707 0.5176943
vt 0.8757582 0.5176567
vt 0.8698552 0.4034352
vt 0.8799571 0.40336
vt 0.8749059 0.4033975
vt 0.8692361 0.3204211
vt 0.879338 0.3203458
vt 0.8742871 0.3203835
vt 0.8742871 0.3203835
vt 0.8742354 0.3204372
vt 0.879338 0.3203458
vt 0.8692361 0.3204211
vt 0.374694 0.3149782
vt 0.3968462 0.2111552
vt 0.3753921 0.221357
vt 0.4381531 0.3154718
vt 0.3737332 0.4438364
vt 0.4595616 0.4444969
vt 0.3736391 0.4564471
vt 0.4601176 0.4778141
vn 0.8483278 0.3625984 0.3858269
vn -0.2400196 0.7426109 -0.6252358
vn 0.3827079 0.5640388 -0.7317069
vn 0.7656505 0.639366 0.0706431
vn 0.3799612 -0.5767155 -0.7232074
vn 0.7625653 -0.641922 0.08019023
vn 0.846586 -0.3608893 0.3912175
vn 0.3827079 0.5640388 -0.7317069
vn -0.2400196 0.7426109 -0.6252358
vn -0.2436154 -0.75068 -0.61411
vn 0.3799612 -0.5767155 -0.7232074
vn 0.846586 -0.3608893 0.3912175
vn 0.7625653 -0.641922 0.08019023
vn -0.9971393 0.07448503 -0.01285716
vn -0.8223813 -0.07919767 -0.5633976
vn -0.7254915 0.2157848 -0.6535282
vn -0.8061674 0.5693662 -0.1609851
vn -0.9984486 0.05542996 -0.005274772
vn -0.8327368 0.5507329 -0.05694577
vn -0.6419155 -0.03206359 0.7661047
vn -0.7767568 0.4923092 0.3927857
vn 0.740567 -0.0067897 -0.6719483
vn 0.4093708 0.8703501 -0.27369
vn 0.3334048 0.3295761 -0.8833011
vn 0.9974419 -0.002933941 -0.07142274
vn 0.2425587 0.9264116 0.2879702
vn 0.405165 -0.8762928 -0.2606764
vn 0.331782 -0.3443026 -0.8782804
vn 0.3839282 -0.9201041 -0.0775077
vn 0.9994618 -0.007379795 -0.0319619
vn 0.7425659 -0.06541754 0.6665706
vn 0.508046 0.3488479 0.7875243
vn 0.5552831 -0.07743814 0.8280482
vn 0.1961879 -0.8170328 0.5421879
vn -0.8223813 -0.07919767 -0.5633976
vn 0.740567 -0.0067897 -0.6719483
vn 0.3334048 0.3295761 -0.8833011
vn -0.7254915 0.2157848 -0.6535282
vn 0.4093708 0.8703501 -0.27369
vn -0.8061674 0.5693662 -0.1609851
vn 0.2425587 0.9264116 0.2879702
vn -0.8327368 0.5507329 -0.05694577
vn -0.7767568 0.4923092 0.3927857
vn -0.6419155 -0.03206359 0.7661047
vn 0.508046 0.3488479 0.7875243
vn -0.773773 -0.0370654 0.6323776
vn 0.7425659 -0.06541754 0.6665706
vn -0.9984486 0.05542996 -0.005274772
vn -0.9216201 0.007358551 0.3880236
vn 0.5552831 -0.07743814 0.8280482
vn -0.7525949 -0.3126196 0.5795428
vn 0.1961879 -0.8170328 0.5421879
vn -0.8354033 -0.5474257 -0.04925874
vn 0.3839282 -0.9201041 -0.0775077
vn -0.8089055 -0.5678131 -0.1525124
vn 0.405165 -0.8762928 -0.2606764
vn -0.7265458 -0.2220024 -0.6502662
vn 0.331782 -0.3443026 -0.8782804
vn -0.8220109 0.07475275 -0.5645441
vn 0.740567 -0.0067897 -0.6719483
vn -0.9987048 -0.05064406 -0.004905141
vn -0.999994 0.002389373 -0.002483616
vn -0.9974868 -0.06986564 -0.01178166
vn -0.9971393 0.07448503 -0.01285716
vn -0.999994 0.002389429 -0.002483638
vn -0.8220109 0.07475275 -0.5645441
vn -0.8223813 -0.07919767 -0.5633976
vn -0.7053595 -0.003583651 -0.7088408
vn -0.7053595 -0.003583651 -0.7088408
vn 0.740567 -0.0067897 -0.6719483
vn -0.8223813 -0.07919767 -0.5633976
vn -0.8220109 0.07475275 -0.5645441
vn -0.9974868 -0.06986564 -0.01178166
vn -0.7265458 -0.2220024 -0.6502662
vn -0.8220109 0.07475275 -0.5645441
vn -0.8089055 -0.5678131 -0.1525124
vn -0.9987048 -0.05064406 -0.004905141
vn -0.8354033 -0.5474257 -0.04925874
vn -0.9216201 0.007358551 0.3880236
vn -0.7525949 -0.3126196 0.5795428
g surf.002_0
f 3/3/3 2/2/2 1/1/1
f 4/4/4 3/3/3 1/1/1
f 5/5/5 3/3/3 4/4/4
f 6/6/6 5/5/5 4/4/4
f 6/6/6 4/4/4 1/1/1
f 7/7/7 6/6/6 1/1/1
f 10/10/10 9/9/9 8/8/8
f 11/11/11 10/10/10 8/8/8
f 10/10/10 11/11/11 12/12/12
f 11/11/11 13/13/13 12/12/12
f 16/16/16 15/15/15 14/14/14
f 17/17/17 16/16/16 14/14/14
f 17/17/17 14/14/14 18/18/18
f 19/19/19 17/17/17 18/18/18
f 18/18/18 20/20/20 19/19/19
f 20/20/20 21/21/21 19/19/19
f 24/24/24 23/23/23 22/22/22
f 23/23/23 25/25/25 22/22/22
f 23/23/23 26/26/26 25/25/25
f 25/25/25 27/27/27 22/22/22
f 27/27/27 28/28/28 22/22/22
f 29/29/29 27/27/27 25/25/25
f 26/26/26 30/30/30 25/25/25
f 30/30/30 29/29/29 25/25/25
f 31/31/31 30/30/30 26/26/26
f 32/32/32 31/31/31 26/26/26
f 30/30/30 31/31/31 33/33/33
f 29/29/29 30/30/30 33/33/33
f 33/33/33 34/34/34 29/29/29
f 37/37/37 36/36/36 35/35/35
f 38/38/38 37/37/37 35/35/35
f 39/39/39 37/37/37 38/38/38
f 40/40/40 39/39/39 38/38/38
f 41/41/41 39/39/39 40/40/40
f 42/42/42 41/41/41 40/40/40
f 43/43/43 41/41/41 42/42/42
f 43/43/43 44/44/44 41/41/41
f 44/44/44 45/45/45 41/41/41
f 44/44/44 46/46/46 45/45/45
f 46/46/46 47/47/47 45/45/45
f 46/46/46 44/44/44 48/48/48
f 46/46/46 49/49/49 47/47/47
f 49/49/49 50/50/50 47/47/47
f 49/49/49 51/51/51 50/50/50
f 51/51/51 52/52/52 50/50/50
f 52/52/52 51/51/51 53/53/53
f 54/54/54 52/52/52 53/53/53
f 54/54/54 53/53/53 55/55/55
f 56/56/56 54/54/54 55/55/55
f 56/56/56 55/55/55 57/57/57
f 58/58/58 56/56/56 57/57/57
f 58/58/58 57/57/57 59/59/59
f 60/60/60 58/58/58 59/59/59
f 49/49/49 46/46/46 61/61/61
f 46/46/46 62/62/62 61/61/61
f 62/62/62 46/46/46 48/48/48
f 63/63/63 61/61/61 62/62/62
f 48/48/48 64/64/64 62/62/62
f 65/65/65 63/63/63 62/62/62
f 64/64/64 65/65/65 62/62/62
f 66/66/66 63/63/63 65/65/65
f 64/64/64 67/67/67 65/65/65
f 68/68/68 66/66/66 65/65/65
f 67/67/67 68/68/68 65/65/65
f 71/71/71 70/70/70 69/69/69
f 70/70/70 72/72/72 69/69/69
f 75/75/75 74/74/74 73/73/73
f 74/74/74 76/76/76 73/73/73
f 73/73/73 76/76/76 77/77/77
f 76/76/76 78/78/78 77/77/77
f 79/79/79 77/77/77 78/78/78
f 80/80/80 79/79/79 78/78/78
