g Floor_Square
v -3.360073 -2.057451E-16 3.360073
v 3.360073 2.057451E-16 -3.360073
v 3.360073 -2.057451E-16 3.360073
v -3.360073 2.057451E-16 -3.360073
v -13.76432 -0.7922088 13.76432
v 13.76432 -0.7922088 -13.76432
v -13.76432 -0.7922088 -13.76432
v 13.76432 -0.7922088 13.76432
v -13.76432 -8.428214E-16 13.76432
v 13.76432 -0.7922088 13.76432
v -13.76432 -0.7922088 13.76432
v 13.76432 -8.428214E-16 13.76432
v 13.76432 -8.428214E-16 13.76432
v 13.76432 -0.7922088 -13.76432
v 13.76432 -0.7922088 13.76432
v 13.76432 8.428214E-16 -13.76432
v 13.76432 8.428214E-16 -13.76432
v -13.76432 -0.7922088 -13.76432
v 13.76432 -0.7922088 -13.76432
v -13.76432 8.428214E-16 -13.76432
v -13.76432 8.428214E-16 -13.76432
v -13.76432 -0.7922088 13.76432
v -13.76432 -0.7922088 -13.76432
v -13.76432 -8.428214E-16 13.76432
v 13.34432 -8.171038E-16 13.34432
v -13.76432 -8.428214E-16 13.76432
v -13.34432 -8.171038E-16 13.34432
v 13.76432 -8.428214E-16 13.76432
v -13.76432 8.428214E-16 -13.76432
v 13.34432 8.171038E-16 -13.34432
v -13.34432 8.171038E-16 -13.34432
v 13.76432 8.428214E-16 -13.76432
v 12.92432 -7.913862E-16 12.92432
v -13.34432 -8.171038E-16 13.34432
v -12.92432 -7.913862E-16 12.92432
v 13.34432 -8.171038E-16 13.34432
v -13.34432 8.171038E-16 -13.34432
v 12.92432 7.913862E-16 -12.92432
v -12.92432 7.913862E-16 -12.92432
v 13.34432 8.171038E-16 -13.34432
v -12.92432 -7.913862E-16 12.92432
v 3.360073 -2.057451E-16 3.360073
v 12.92432 -7.913862E-16 12.92432
v -3.360073 -2.057451E-16 3.360073
v 3.360073 2.057451E-16 -3.360073
v -12.92432 7.913862E-16 -12.92432
v 12.92432 7.913862E-16 -12.92432
v -3.360073 2.057451E-16 -3.360073
vt 0.04162598 0.09442139
vt 0.04162598 0.09442139
vt 0.04162598 0.09442139
vt 0.04162598 0.09442139
vt 0.7705078 0.5263672
vt 0.7705078 0.5263672
vt 0.7705078 0.5263672
vt 0.7705078 0.5263672
vt 0.7705078 0.5263672
vt 0.7705078 0.5263672
vt 0.7705078 0.5263672
vt 0.7705078 0.5263672
vt 0.7705078 0.5263672
vt 0.7705078 0.5263672
vt 0.7705078 0.5263672
vt 0.7705078 0.5263672
vt 0.7705078 0.5263672
vt 0.7705078 0.5263672
vt 0.7705078 0.5263672
vt 0.7705078 0.5263672
vt 0.7705078 0.5263672
vt 0.7705078 0.5263672
vt 0.7705078 0.5263672
vt 0.7705078 0.5263672
vt 0.8637695 0.7114258
vt 0.8637695 0.7114258
vt 0.8637695 0.7114258
vt 0.8637695 0.7114258
vt 0.8637695 0.7114258
vt 0.8637695 0.7114258
vt 0.8637695 0.7114258
vt 0.8637695 0.7114258
vt 0.04162598 0.09442139
vt 0.04162598 0.09442139
vt 0.04162598 0.09442139
vt 0.04162598 0.09442139
vt 0.04162598 0.09442139
vt 0.04162598 0.09442139
vt 0.04162598 0.09442139
vt 0.04162598 0.09442139
vt 0.8637695 0.7114258
vt 0.8637695 0.7114258
vt 0.8637695 0.7114258
vt 0.8637695 0.7114258
vt 0.8637695 0.7114258
vt 0.8637695 0.7114258
vt 0.8637695 0.7114258
vt 0.8637695 0.7114258
vn 0 1 0
vn 0 1 0
vn 0 1 0
vn 0 1 0
vn 0 -1 0
vn 0 -1 0
vn 0 -1 0
vn 0 -1 0
vn 0 0 1
vn 0 0 1
vn 0 0 1
vn 0 0 1
vn 1 0 0
vn 1 0 0
vn 1 0 0
vn 1 0 0
vn 0 0 -1
vn 0 0 -1
vn 0 0 -1
vn 0 0 -1
vn -1 0 0
vn -1 0 0
vn -1 0 0
vn -1 0 0
vn 0 1 0
vn 0 1 0
vn 0 1 0
vn 0 1 0
vn 0 1 0
vn 0 1 0
vn 0 1 0
vn 0 1 0
vn 0 1 0
vn 0 1 0
vn 0 1 0
vn 0 1 0
vn 0 1 0
vn 0 1 0
vn 0 1 0
vn 0 1 0
vn 0 1 0
vn 0 1 0
vn 0 1 0
vn 0 1 0
vn 0 1 0
vn 0 1 0
vn 0 1 0
vn 0 1 0
g Floor_Square_0
f 3/3/3 2/2/2 1/1/1
f 4/4/4 1/1/1 2/2/2
f 7/7/7 6/6/6 5/5/5
f 8/8/8 5/5/5 6/6/6
f 11/11/11 10/10/10 9/9/9
f 12/12/12 9/9/9 10/10/10
f 15/15/15 14/14/14 13/13/13
f 16/16/16 13/13/13 14/14/14
f 19/19/19 18/18/18 17/17/17
f 20/20/20 17/17/17 18/18/18
f 23/23/23 22/22/22 21/21/21
f 24/24/24 21/21/21 22/22/22
f 27/27/27 26/26/26 25/25/25
f 28/28/28 25/25/25 26/26/26
f 26/26/26 27/27/27 29/29/29
f 25/25/25 28/28/28 30/30/30
f 31/31/31 29/29/29 27/27/27
f 32/32/32 30/30/30 28/28/28
f 29/29/29 31/31/31 32/32/32
f 30/30/30 32/32/32 31/31/31
f 35/35/35 34/34/34 33/33/33
f 36/36/36 33/33/33 34/34/34
f 34/34/34 35/35/35 37/37/37
f 33/33/33 36/36/36 38/38/38
f 39/39/39 37/37/37 35/35/35
f 40/40/40 38/38/38 36/36/36
f 37/37/37 39/39/39 40/40/40
f 38/38/38 40/40/40 39/39/39
f 43/43/43 42/42/42 41/41/41
f 44/44/44 41/41/41 42/42/42
f 42/42/42 43/43/43 45/45/45
f 41/41/41 44/44/44 46/46/46
f 47/47/47 45/45/45 43/43/43
f 48/48/48 46/46/46 44/44/44
f 45/45/45 47/47/47 48/48/48
f 46/46/46 48/48/48 47/47/47
