g BOSSAztecCloak
v 0.960996 -0.6362882 -0.5904582
v 1.030694 -1.117932 -0.601242
v 1.01219 -1.081842 -0.5928052
v 0.5889682 -1.121901 -0.7654345
v 0.9785644 -0.664233 -0.598852
v 0.5783944 -1.08574 -0.75405
v 0.909802 -0.1907345 -0.588111
v 0.5491406 -0.6377548 -0.7481616
v 0.5591797 -0.6657264 -0.7594385
v 0.9264345 -0.2105338 -0.596462
v 2.700016E-09 -1.124522 -0.7654345
v 2.986281E-09 -0.6663901 -0.7594385
v 3.272545E-09 -0.2082579 -0.7534426
v 0.5293912 -0.2095515 -0.7534425
v 0.5107001 0.1580332 -0.7252709
v 2.479563E-09 -1.088314 -0.75405
v -0.5889682 -1.121901 -0.7654345
v 2.760687E-09 -0.6384066 -0.7481617
v 3.041812E-09 -0.1884994 -0.7422733
v -0.5783944 -1.08574 -0.75405
v -0.5591797 -0.6657264 -0.7594385
v 0.5198869 -0.1897698 -0.7422732
v 0.5015314 0.1712156 -0.7146074
v -0.5491406 -0.6377548 -0.7481616
v 0.8776798 0.1713128 -0.5672226
v 0.4831758 0.5322011 -0.6869416
v 0.8937252 0.1581323 -0.5751917
v 0.492009 0.525618 -0.6970993
v 0.8455577 0.5333601 -0.5463341
v 0.8610157 0.5267983 -0.5539213
v 0.8015398 0.9778729 -0.5493267
v 1.520906E-09 0.1725191 -0.7146075
v 1.723834E-09 0.1593606 -0.725271
v 0.8161931 0.9794374 -0.5569686
v -0.5015314 0.1712156 -0.7146074
v -0.4831758 0.5322011 -0.6869416
v 0 0.5335376 -0.6869416
v -5.64731E-10 0.9759609 -0.6445914
v 0.429531 0.975687 -0.6445913
v 0.4405213 1.371729 -0.587612
v 0.7759278 1.371729 -0.5491543
v 0.7457842 1.6129 -0.4672606
v 0.7901129 1.380494 -0.5567931
v 0.4485747 1.380494 -0.5959538
v 0.7594182 1.626074 -0.4734023
v -0.5198869 -0.1897698 -0.7422732
v -0.909802 -0.1907345 -0.588111
v 0.4373835 0.9772115 -0.6539748
v -3.999316E-10 0.9774904 -0.6539749
v -0.8776798 0.1713128 -0.5672225
v -0.960996 -0.6362882 -0.5904582
v 1.751239E-10 0.526979 -0.6970993
v -0.492009 0.525618 -0.6970993
v -0.5107001 0.1580332 -0.7252709
v -0.5293912 -0.2095515 -0.7534425
v -0.9264345 -0.2105338 -0.596462
v -0.8937252 0.1581322 -0.5751916
v -0.9785644 -0.664233 -0.598852
v -0.8610157 0.5267983 -0.5539212
v -1.01219 -1.081842 -0.5928052
v -1.030694 -1.117932 -0.601242
v -0.8455577 0.5333601 -0.546334
v -0.8161931 0.9794374 -0.5569686
v -0.8015398 0.9778729 -0.5493267
v -0.4373834 0.9772115 -0.6539748
v -0.4485747 1.380494 -0.5959538
v -0.429531 0.975687 -0.6445913
v -0.4405213 1.371729 -0.587612
v -0.7901129 1.380494 -0.5567931
v -0.7594182 1.626074 -0.4734023
v -0.7759278 1.371729 -0.5491543
v -0.7457842 1.6129 -0.4672606
v 1.751239E-10 1.380494 -0.5959538
v 1.751239E-10 1.599762 -0.5399938
v 0 1.371729 -0.587612
v 0 1.587061 -0.5326566
v -0.3968964 1.599762 -0.5399938
v -0.3897708 1.587061 -0.5326566
v 0.3968964 1.599762 -0.5399938
v 0.3897708 1.587061 -0.5326566
v -0.2886719 1.669897 -0.4891526
v 0.2886719 1.669897 -0.4891526
v -0.2834893 1.655937 -0.4827282
v 0.2834893 1.655937 -0.4827282
v 1.751239E-10 1.669892 -0.5008282
v 1.7678E-26 1.655931 -0.4941942
v -0.3984151 1.664792 -0.3903105
v 0.4056987 1.678914 -0.3950453
v -0.4056987 1.678914 -0.3950454
v 0.3984151 1.664792 -0.3903105
v -0.4553315 1.719735 -0.1408436
v -0.4636556 1.734861 -0.1410178
v 0.4636556 1.734861 -0.1410178
v 0.4553315 1.719735 -0.1408436
v -0.7987223 1.726016 -0.140959
v 0.7843826 1.711048 -0.1407858
v -0.7843826 1.711048 -0.1407858
v 0.7987223 1.726016 -0.140959
v -0.7594177 1.617544 0.05200579
v -0.7457837 1.604524 0.04871465
v 0.7457837 1.604524 0.04871465
v 0.7594177 1.617544 0.05200579
v -0.4056985 1.670341 -0.0290974
v -0.3984149 1.656372 -0.03093248
v 0.3984149 1.656372 -0.03093245
v 0.4056985 1.670341 -0.0290974
vt 0.5619248 0.5674107
vt 0.5619248 0.5674107
vt 0.5619248 0.5674107
vt 0.5619248 0.5674107
vt 0.5619248 0.5674107
vt 0.5619248 0.5674107
vt 0.5619248 0.5674107
vt 0.5619248 0.5674107
vt 0.5619248 0.5674107
vt 0.5619248 0.5674107
vt 0.5619248 0.5674107
vt 0.5619248 0.5674107
vt 0.5619248 0.5674107
vt 0.5619248 0.5674107
vt 0.5619248 0.5674107
vt 0.5619248 0.5674107
vt 0.5619248 0.5674107
vt 0.5619248 0.5674107
vt 0.5619248 0.5674107
vt 0.5619248 0.5674107
vt 0.5619248 0.5674107
vt 0.5619248 0.5674107
vt 0.5619248 0.5674107
vt 0.5619248 0.5674107
vt 0.5619248 0.5674107
vt 0.5619248 0.5674107
vt 0.5619248 0.5674107
vt 0.5619248 0.5674107
vt 0.5619248 0.5674107
vt 0.5619248 0.5674107
vt 0.5619248 0.5674107
vt 0.5619248 0.5674107
vt 0.5619248 0.5674107
vt 0.5619248 0.5674107
vt 0.5619248 0.5674107
vt 0.5619248 0.5674107
vt 0.5619248 0.5674107
vt 0.5619248 0.5674107
vt 0.5619248 0.5674107
vt 0.5619248 0.5674107
vt 0.5619248 0.5674107
vt 0.5619248 0.5674107
vt 0.5619248 0.5674107
vt 0.5619248 0.5674107
vt 0.5619248 0.5674107
vt 0.5619248 0.5674107
vt 0.5619248 0.5674107
vt 0.5619248 0.5674107
vt 0.5619248 0.5674107
vt 0.5619248 0.5674107
vt 0.5619248 0.5674107
vt 0.5619248 0.5674107
vt 0.5619248 0.5674107
vt 0.5619248 0.5674107
vt 0.5619248 0.5674107
vt 0.5619248 0.5674107
vt 0.5619248 0.5674107
vt 0.5619248 0.5674107
vt 0.5619248 0.5674107
vt 0.5619248 0.5674107
vt 0.5619248 0.5674107
vt 0.5619248 0.5674107
vt 0.5619248 0.5674107
vt 0.5619248 0.5674107
vt 0.5619248 0.5674107
vt 0.5619248 0.5674107
vt 0.5619248 0.5674107
vt 0.5619248 0.5674107
vt 0.5619248 0.5674107
vt 0.5619248 0.5674107
vt 0.5619248 0.5674107
vt 0.5619248 0.5674107
vt 0.5619248 0.5674107
vt 0.5619248 0.5674107
vt 0.5619248 0.5674107
vt 0.5619248 0.5674107
vt 0.5619248 0.5674107
vt 0.5619248 0.5674107
vt 0.5619248 0.5674107
vt 0.5619248 0.5674107
vt 0.5619248 0.5674107
vt 0.5619248 0.5674107
vt 0.5619248 0.5674107
vt 0.5619248 0.5674107
vt 0.5619248 0.5674107
vt 0.5619248 0.5674107
vt 0.5619248 0.5674107
vt 0.5619248 0.5674107
vt 0.5619248 0.5674107
vt 0.5619248 0.5674107
vt 0.5619248 0.5674107
vt 0.5619248 0.5674107
vt 0.5619248 0.5674107
vt 0.5619248 0.5674107
vt 0.5619248 0.5674107
vt 0.5619248 0.5674107
vt 0.5619248 0.5674107
vt 0.5619248 0.5674107
vt 0.5619248 0.5674107
vt 0.5619248 0.5674107
vt 0.5619248 0.5674107
vt 0.5619248 0.5674107
vt 0.5619248 0.5674107
vt 0.5619248 0.5674107
vt 0.5619248 0.5674107
vt 0.5619248 0.5674107
vn 0.07780444 0.00656478 0.996947
vn 0.6631942 -0.7433286 0.08738396
vn 0.04106157 -0.1140761 0.9926231
vn 0.0222535 -0.9566389 -0.2904253
vn 0.9910548 0.1082609 -0.07803847
vn -0.1649849 -0.1869248 0.9684209
vn 0.04376505 -0.03464461 0.998441
vn -0.1817658 -0.02740766 0.9829597
vn 0.1817658 0.02740765 -0.9829597
vn 0.9895545 0.119537 -0.0805777
vn 0 -0.9874763 -0.1577676
vn 0 0.01311425 -0.9999141
vn 0 0.04483775 -0.9989943
vn 0.1836137 0.05519369 -0.9814478
vn 0.1849644 0.08347548 -0.9791935
vn 0 -0.1586051 0.9873421
vn -0.02225477 -0.9566391 -0.2904248
vn 0 -0.01311434 0.9999141
vn 0 -0.04483769 0.9989943
vn 0.1649848 -0.1869248 0.9684209
vn -0.1817657 0.02740767 -0.9829597
vn -0.1836137 -0.05519351 0.9814478
vn -0.1849644 -0.08347536 0.9791935
vn 0.1817658 -0.02740765 0.9829597
vn 0.0396466 -0.05508219 0.9976943
vn -0.1721563 -0.08453149 0.981436
vn 0.9951042 0.09264068 -0.0344278
vn 0.1721563 0.0845314 -0.9814361
vn 0.06378502 -0.0289578 0.9975434
vn 0.9926521 0.1158479 -0.0349446
vn 0.1095103 -0.01907345 0.9938027
vn 0 -0.07641717 0.9970759
vn 0 0.07641725 -0.9970759
vn 0.9810271 0.1601667 -0.109236
vn 0.1849645 -0.08347542 0.9791935
vn 0.1721564 -0.08453148 0.981436
vn 0 -0.08582132 0.9963105
vn 0 -0.1188622 0.9929107
vn -0.1174318 -0.09845981 0.988188
vn -0.08497567 -0.1949241 0.9771304
vn 0.1950337 -0.1308991 0.9720223
vn 0.3390923 -0.6533087 0.6769077
vn 0.9572939 0.1161468 -0.264761
vn 0.08497568 0.1949242 -0.9771303
vn 0.8295348 0.3904937 -0.3992327
vn 0.1836137 -0.05519358 0.9814478
vn -0.04376409 -0.03464477 0.998441
vn 0.1174318 0.0984598 -0.988188
vn 0 0.1188621 -0.9929108
vn -0.03964699 -0.05508233 0.9976943
vn -0.07780441 0.00656477 0.996947
vn 0 0.08582117 -0.9963105
vn -0.1721564 0.08453137 -0.981436
vn -0.1849645 0.0834755 -0.9791935
vn -0.1836137 0.05519371 -0.9814478
vn -0.9895545 0.1195371 -0.08057775
vn -0.9951043 0.09264063 -0.03442724
vn -0.9910548 0.1082607 -0.07803866
vn -0.9926521 0.115848 -0.03494509
vn -0.04106185 -0.1140763 0.9926231
vn -0.663195 -0.7433279 0.08738405
vn -0.06378535 -0.02895753 0.9975434
vn -0.981027 0.1601669 -0.1092359
vn -0.1095103 -0.01907324 0.9938027
vn -0.1174319 0.09845971 -0.988188
vn -0.08497566 0.1949242 -0.9771304
vn 0.1174319 -0.09845982 0.988188
vn 0.08497566 -0.194924 0.9771304
vn -0.9572937 0.1161468 -0.2647613
vn -0.8295348 0.3904935 -0.3992327
vn -0.195034 -0.1308991 0.9720222
vn -0.3390926 -0.6533087 0.6769075
vn 0 0.1951489 -0.9807736
vn 0 0.4030171 -0.9151924
vn 0 -0.1951489 0.9807736
vn 0 -0.4030169 0.9151926
vn -0.07286428 0.5613352 -0.8243746
vn 0.07286412 -0.561335 0.8243748
vn 0.07286438 0.5613353 -0.8243746
vn -0.07286427 -0.561335 0.8243748
vn 0.208318 0.9716978 -0.1113861
vn -0.2083179 0.9716979 -0.1113861
vn 0.1963242 -0.1492678 0.969111
vn -0.1963241 -0.1492677 0.969111
vn 0 0.9989151 0.04656937
vn 0 -0.06859987 0.9976442
vn 0.6259498 -0.4230268 0.6551603
vn -0.3470266 0.9336799 -0.0883988
vn 0.3470275 0.9336796 -0.0883991
vn -0.6259498 -0.4230258 0.655161
vn 0.9112082 -0.3703024 -0.1804877
vn 0.3670918 0.9250975 0.09715151
vn -0.3670911 0.9250976 0.09715156
vn -0.9112086 -0.3703015 -0.1804877
vn -0.8632171 0.4939565 0.1042272
vn 0.4478174 -0.8888798 -0.09670764
vn -0.4478174 -0.8888798 -0.09670766
vn 0.863217 0.4939567 0.1042272
vn -0.7014241 0.003992872 0.712733
vn -0.1411705 -0.872444 0.4678808
vn 0.1411707 -0.8724438 0.4678811
vn 0.701424 0.003993335 0.712733
vn 0.5787255 0.5748777 0.5784397
vn 0.8328172 -0.5127549 0.2085617
vn -0.8328168 -0.5127552 0.2085623
vn -0.5787258 0.574878 0.5784392
g BOSSAztecCloak_0
f 3/3/3 2/2/2 1/1/1
f 4/4/4 2/2/2 3/3/3
f 2/2/2 5/5/5 1/1/1
f 5/5/5 2/2/2 4/4/4
f 6/6/6 4/4/4 3/3/3
f 3/3/3 1/1/1 6/6/6
f 1/1/1 5/5/5 7/7/7
f 1/1/1 8/8/8 6/6/6
f 1/1/1 7/7/7 8/8/8
f 9/9/9 5/5/5 4/4/4
f 5/5/5 10/10/10 7/7/7
f 10/10/10 5/5/5 9/9/9
f 11/11/11 4/4/4 6/6/6
f 12/12/12 9/9/9 4/4/4
f 11/11/11 12/12/12 4/4/4
f 12/12/12 13/13/13 9/9/9
f 14/14/14 10/10/10 9/9/9
f 13/13/13 14/14/14 9/9/9
f 10/10/10 14/14/14 15/15/15
f 14/14/14 13/13/13 15/15/15
f 16/16/16 11/11/11 6/6/6
f 12/12/12 11/11/11 17/17/17
f 17/17/17 11/11/11 16/16/16
f 18/18/18 16/16/16 6/6/6
f 8/8/8 18/18/18 6/6/6
f 19/19/19 18/18/18 8/8/8
f 16/16/16 18/18/18 20/20/20
f 20/20/20 17/17/17 16/16/16
f 13/13/13 12/12/12 21/21/21
f 21/21/21 12/12/12 17/17/17
f 22/22/22 19/19/19 8/8/8
f 7/7/7 22/22/22 8/8/8
f 22/22/22 7/7/7 23/23/23
f 19/19/19 22/22/22 23/23/23
f 18/18/18 19/19/19 24/24/24
f 18/18/18 24/24/24 20/20/20
f 7/7/7 25/25/25 23/23/23
f 23/23/23 25/25/25 26/26/26
f 7/7/7 10/10/10 25/25/25
f 10/10/10 27/27/27 25/25/25
f 27/27/27 10/10/10 15/15/15
f 27/27/27 15/15/15 28/28/28
f 25/25/25 27/27/27 29/29/29
f 25/25/25 29/29/29 26/26/26
f 27/27/27 30/30/30 29/29/29
f 30/30/30 27/27/27 28/28/28
f 29/29/29 30/30/30 31/31/31
f 29/29/29 31/31/31 26/26/26
f 32/32/32 19/19/19 23/23/23
f 32/32/32 23/23/23 26/26/26
f 15/15/15 33/33/33 28/28/28
f 13/13/13 33/33/33 15/15/15
f 34/34/34 30/30/30 28/28/28
f 30/30/30 34/34/34 31/31/31
f 19/19/19 32/32/32 35/35/35
f 35/35/35 32/32/32 36/36/36
f 37/37/37 32/32/32 26/26/26
f 32/32/32 37/37/37 36/36/36
f 38/38/38 37/37/37 26/26/26
f 37/37/37 38/38/38 36/36/36
f 31/31/31 39/39/39 26/26/26
f 39/39/39 38/38/38 26/26/26
f 39/39/39 31/31/31 40/40/40
f 38/38/38 39/39/39 40/40/40
f 31/31/31 34/34/34 41/41/41
f 31/31/31 41/41/41 40/40/40
f 41/41/41 42/42/42 40/40/40
f 41/41/41 43/43/43 42/42/42
f 34/34/34 43/43/43 41/41/41
f 43/43/43 34/34/34 44/44/44
f 43/43/43 45/45/45 42/42/42
f 45/45/45 43/43/43 44/44/44
f 46/46/46 19/19/19 35/35/35
f 19/19/19 46/46/46 24/24/24
f 47/47/47 46/46/46 35/35/35
f 46/46/46 47/47/47 24/24/24
f 34/34/34 48/48/48 44/44/44
f 48/48/48 49/49/49 44/44/44
f 48/48/48 34/34/34 28/28/28
f 49/49/49 48/48/48 28/28/28
f 50/50/50 47/47/47 35/35/35
f 50/50/50 35/35/35 36/36/36
f 47/47/47 51/51/51 24/24/24
f 24/24/24 51/51/51 20/20/20
f 52/52/52 49/49/49 28/28/28
f 49/49/49 52/52/52 53/53/53
f 33/33/33 52/52/52 28/28/28
f 52/52/52 33/33/33 53/53/53
f 33/33/33 54/54/54 53/53/53
f 33/33/33 13/13/13 54/54/54
f 13/13/13 55/55/55 54/54/54
f 55/55/55 13/13/13 21/21/21
f 55/55/55 56/56/56 54/54/54
f 56/56/56 55/55/55 21/21/21
f 47/47/47 56/56/56 51/51/51
f 50/50/50 57/57/57 47/47/47
f 57/57/57 56/56/56 47/47/47
f 56/56/56 57/57/57 54/54/54
f 54/54/54 57/57/57 53/53/53
f 58/58/58 56/56/56 21/21/21
f 56/56/56 58/58/58 51/51/51
f 58/58/58 21/21/21 17/17/17
f 59/59/59 57/57/57 50/50/50
f 57/57/57 59/59/59 53/53/53
f 51/51/51 58/58/58 60/60/60
f 51/51/51 60/60/60 20/20/20
f 61/61/61 17/17/17 20/20/20
f 61/61/61 58/58/58 17/17/17
f 60/60/60 61/61/61 20/20/20
f 58/58/58 61/61/61 60/60/60
f 62/62/62 59/59/59 50/50/50
f 62/62/62 50/50/50 36/36/36
f 59/59/59 63/63/63 53/53/53
f 63/63/63 59/59/59 62/62/62
f 64/64/64 62/62/62 36/36/36
f 64/64/64 63/63/63 62/62/62
f 63/63/63 65/65/65 53/53/53
f 65/65/65 63/63/63 66/66/66
f 65/65/65 49/49/49 53/53/53
f 49/49/49 65/65/65 66/66/66
f 67/67/67 64/64/64 36/36/36
f 64/64/64 67/67/67 68/68/68
f 38/38/38 67/67/67 36/36/36
f 67/67/67 38/38/38 68/68/68
f 69/69/69 63/63/63 64/64/64
f 63/63/63 69/69/69 66/66/66
f 69/69/69 70/70/70 66/66/66
f 70/70/70 69/69/69 71/71/71
f 71/71/71 69/69/69 64/64/64
f 71/71/71 64/64/64 68/68/68
f 72/72/72 70/70/70 71/71/71
f 72/72/72 71/71/71 68/68/68
f 73/73/73 49/49/49 66/66/66
f 74/74/74 73/73/73 66/66/66
f 49/49/49 73/73/73 44/44/44
f 73/73/73 74/74/74 44/44/44
f 38/38/38 75/75/75 68/68/68
f 75/75/75 76/76/76 68/68/68
f 75/75/75 38/38/38 40/40/40
f 76/76/76 75/75/75 40/40/40
f 70/70/70 77/77/77 66/66/66
f 77/77/77 74/74/74 66/66/66
f 78/78/78 72/72/72 68/68/68
f 76/76/76 78/78/78 68/68/68
f 74/74/74 79/79/79 44/44/44
f 79/79/79 45/45/45 44/44/44
f 80/80/80 76/76/76 40/40/40
f 42/42/42 80/80/80 40/40/40
f 77/77/77 70/70/70 81/81/81
f 74/74/74 77/77/77 81/81/81
f 79/79/79 74/74/74 82/82/82
f 45/45/45 79/79/79 82/82/82
f 72/72/72 78/78/78 83/83/83
f 78/78/78 76/76/76 83/83/83
f 76/76/76 80/80/80 84/84/84
f 80/80/80 42/42/42 84/84/84
f 85/85/85 74/74/74 81/81/81
f 74/74/74 85/85/85 82/82/82
f 85/85/85 81/81/81 83/83/83
f 86/86/86 76/76/76 84/84/84
f 76/76/76 86/86/86 83/83/83
f 86/86/86 85/85/85 83/83/83
f 82/82/82 85/85/85 86/86/86
f 84/84/84 82/82/82 86/86/86
f 83/83/83 81/81/81 87/87/87
f 87/87/87 72/72/72 83/83/83
f 88/88/88 82/82/82 84/84/84
f 88/88/88 45/45/45 82/82/82
f 81/81/81 89/89/89 87/87/87
f 70/70/70 89/89/89 81/81/81
f 90/90/90 88/88/88 84/84/84
f 42/42/42 90/90/90 84/84/84
f 87/87/87 89/89/89 91/91/91
f 72/72/72 87/87/87 91/91/91
f 89/89/89 70/70/70 92/92/92
f 89/89/89 92/92/92 91/91/91
f 93/93/93 88/88/88 90/90/90
f 45/45/45 88/88/88 93/93/93
f 90/90/90 42/42/42 94/94/94
f 94/94/94 93/93/93 90/90/90
f 95/95/95 70/70/70 72/72/72
f 70/70/70 95/95/95 92/92/92
f 42/42/42 45/45/45 96/96/96
f 42/42/42 96/96/96 94/94/94
f 97/97/97 95/95/95 72/72/72
f 97/97/97 72/72/72 91/91/91
f 45/45/45 98/98/98 96/96/96
f 98/98/98 45/45/45 93/93/93
f 99/99/99 95/95/95 97/97/97
f 95/95/95 99/99/99 92/92/92
f 100/100/100 97/97/97 91/91/91
f 100/100/100 99/99/99 97/97/97
f 96/96/96 98/98/98 101/101/101
f 96/96/96 101/101/101 94/94/94
f 102/102/102 98/98/98 93/93/93
f 98/98/98 102/102/102 101/101/101
f 99/99/99 103/103/103 92/92/92
f 103/103/103 99/99/99 100/100/100
f 104/104/104 100/100/100 91/91/91
f 91/91/91 92/92/92 104/104/104
f 104/104/104 103/103/103 100/100/100
f 92/92/92 103/103/103 104/104/104
f 101/101/101 105/105/105 94/94/94
f 101/101/101 102/102/102 105/105/105
f 106/106/106 102/102/102 93/93/93
f 106/106/106 93/93/93 94/94/94
f 105/105/105 106/106/106 94/94/94
f 102/102/102 106/106/106 105/105/105
