g BOSSVikingBelt2
v 0.2353908 -0.203453 0.4431277
v 0.4163039 -0.203453 0.4409698
v 0.4299863 -0.1923814 0.4550424
v 0.405147 -0.3942594 0.4409698
v 0.4188294 -0.3831877 0.4550424
v 0.2353952 -0.1923814 0.4567491
v 0.2195337 -0.4403557 0.4567491
v 0.40496 -0.6203848 0.4550424
v 0.1998159 -0.7486199 0.4567491
v -0.225265 -0.3463498 0.4567491
v -0.2353952 -0.1923814 0.4567491
v -0.2126718 -0.5377524 0.4567491
v 0.2195293 -0.4514274 0.4431277
v 0.3912776 -0.6314565 0.4409698
v -0.2353908 -0.203453 0.4431277
v 0.180098 -1.056884 0.4567491
v -0.2000787 -0.7291551 0.4567491
v 0.3910906 -0.8575818 0.4550424
v -0.4086163 -0.6962025 0.4550424
v -0.4204594 -0.4169877 0.4550424
v -0.3967732 -0.9754171 0.4550424
v -0.4163039 -0.203453 0.4409698
v -0.2252606 -0.3574214 0.4431277
v 0.1998115 -0.7596916 0.4431277
v -0.4299863 -0.1923814 0.4550424
v -0.406777 -0.4280593 0.4409698
v -0.3949339 -0.707274 0.4409698
v -0.2126674 -0.5488241 0.4431277
v 0.3774082 -0.8686535 0.4409698
v -0.3830908 -0.9864888 0.4409698
v -0.2000743 -0.7402267 0.4431277
v 0.1800936 -1.067956 0.4431277
v 0.3772212 -1.094779 0.4550424
v 0.3635388 -1.105851 0.4409698
v 0.1603757 -1.37622 0.4431277
v -0.1874812 -0.9316294 0.4431277
v -0.3712477 -1.265703 0.4409698
v 0.1603802 -1.365148 0.4567491
v -0.3849301 -1.254632 0.4550424
v -0.1874856 -0.9205578 0.4567491
v 0.3606392 -1.378367 0.4550424
v 0.3469568 -1.389438 0.4409698
v 0.1368015 -1.744774 0.4431277
v 0.1368059 -1.733702 0.4567491
v -0.1724295 -1.149395 0.4567491
v -0.1724251 -1.160466 0.4431277
v -0.3570883 -1.599527 0.4409698
v -0.3707707 -1.588455 0.4550424
v -0.2251524 -0.203453 -0.4191414
v -0.3894053 -0.203453 -0.4169835
v -0.4018277 -0.1923814 -0.4310561
v -0.3887003 -0.3453915 -0.4169835
v -0.4012639 -0.3343198 -0.4310561
v -0.2251564 -0.1923814 -0.4327629
v -0.2165342 -0.3651712 -0.4327629
v -0.4004258 -0.5453398 -0.4310561
v -0.2037156 -0.622058 -0.4327628
v 0.1976503 -0.3254198 -0.4327629
v 0.2022789 -0.1923814 -0.4327629
v 0.190769 -0.5232083 -0.4327629
v -0.2165302 -0.3762429 -0.4191414
v -0.3876521 -0.5564114 -0.4169835
v 0.2022749 -0.203453 -0.4191415
v -0.190897 -0.8789448 -0.4327629
v 0.1838876 -0.7209968 -0.4327629
v -0.3995876 -0.7563598 -0.4310561
v 0.3734811 -0.5815672 -0.4310561
v 0.3767508 -0.3488883 -0.4310562
v 0.3702114 -0.8142462 -0.4310561
v 0.3665278 -0.203453 -0.4169836
v 0.1976463 -0.3364916 -0.4191415
v -0.2037115 -0.6331297 -0.4191414
v 0.3789501 -0.1923814 -0.4310562
v 0.3641872 -0.3599599 -0.4169836
v 0.3607075 -0.5926389 -0.4169836
v 0.1907648 -0.5342799 -0.4191414
v -0.386604 -0.7674314 -0.4169835
v 0.3572278 -0.8253178 -0.4169836
v 0.1838834 -0.7320684 -0.4191414
v -0.1908928 -0.8900165 -0.4191414
v -0.3987495 -0.9673797 -0.4310561
v -0.3855559 -0.9784514 -0.4169835
v -0.1780741 -1.146903 -0.4191414
v 0.1770019 -0.9298568 -0.4191414
v 0.3537481 -1.057997 -0.4169835
v -0.1780784 -1.135831 -0.4327629
v 0.3669417 -1.046925 -0.4310561
v 0.1770062 -0.9187853 -0.4327629
v -0.3845077 -1.189471 -0.4169835
v -0.1652554 -1.40379 -0.4191414
v -0.3979114 -1.1784 -0.4310561
v 0.1701205 -1.127645 -0.4191414
v -0.1652597 -1.392718 -0.4327628
v 0.1701249 -1.116574 -0.4327629
v 0.363672 -1.279604 -0.4310561
v 0.3502684 -1.290676 -0.4169836
v -0.3967989 -1.458501 -0.4310561
v -0.3831165 -1.469573 -0.4169835
v -0.1482403 -1.744774 -0.4191414
v -0.1482447 -1.733702 -0.4327629
v 0.1609907 -1.379112 -0.4327629
v 0.1609863 -1.390184 -0.4191414
v 0.3456495 -1.599526 -0.4169835
v 0.3593319 -1.588455 -0.4310561
vt 0.001653005 0.9970466
vt 0.001653005 0.9970466
vt 0.001653005 0.9970466
vt 0.001653005 0.9970466
vt 0.001653005 0.9970466
vt 0.001653005 0.9970466
vt 0.001653005 0.9970466
vt 0.001653005 0.9970466
vt 0.001653005 0.9970466
vt 0.001653005 0.9970466
vt 0.001653005 0.9970466
vt 0.001653005 0.9970466
vt 0.001653005 0.9970466
vt 0.001653005 0.9970466
vt 0.001653005 0.9970466
vt 0.001653005 0.9970466
vt 0.001653005 0.9970466
vt 0.001653005 0.9970466
vt 0.001653005 0.9970466
vt 0.001653005 0.9970466
vt 0.001653005 0.9970466
vt 0.001653005 0.9970466
vt 0.001653005 0.9970466
vt 0.001653005 0.9970466
vt 0.001653005 0.9970466
vt 0.001653005 0.9970466
vt 0.001653005 0.9970466
vt 0.001653005 0.9970466
vt 0.001653005 0.9970466
vt 0.001653005 0.9970466
vt 0.001653005 0.9970466
vt 0.001653005 0.9970466
vt 0.001653005 0.9970466
vt 0.001653005 0.9970466
vt 0.001653005 0.9970466
vt 0.001653005 0.9970466
vt 0.001653005 0.9970466
vt 0.001653005 0.9970466
vt 0.001653005 0.9970466
vt 0.001653005 0.9970466
vt 0.001653005 0.9970466
vt 0.001653005 0.9970466
vt 0.001653005 0.9970466
vt 0.001653005 0.9970466
vt 0.001653005 0.9970466
vt 0.001653005 0.9970466
vt 0.001653005 0.9970466
vt 0.001653005 0.9970466
vt 0.001653005 0.9970466
vt 0.001653005 0.9970466
vt 0.001653005 0.9970466
vt 0.001653005 0.9970466
vt 0.001653005 0.9970466
vt 0.001653005 0.9970466
vt 0.001653005 0.9970466
vt 0.001653005 0.9970466
vt 0.001653005 0.9970466
vt 0.001653005 0.9970466
vt 0.001653005 0.9970466
vt 0.001653005 0.9970466
vt 0.001653005 0.9970466
vt 0.001653005 0.9970466
vt 0.001653005 0.9970466
vt 0.001653005 0.9970466
vt 0.001653005 0.9970466
vt 0.001653005 0.9970466
vt 0.001653005 0.9970466
vt 0.001653005 0.9970466
vt 0.001653005 0.9970466
vt 0.001653005 0.9970466
vt 0.001653005 0.9970466
vt 0.001653005 0.9970466
vt 0.001653005 0.9970466
vt 0.001653005 0.9970466
vt 0.001653005 0.9970466
vt 0.001653005 0.9970466
vt 0.001653005 0.9970466
vt 0.001653005 0.9970466
vt 0.001653005 0.9970466
vt 0.001653005 0.9970466
vt 0.001653005 0.9970466
vt 0.001653005 0.9970466
vt 0.001653005 0.9970466
vt 0.001653005 0.9970466
vt 0.001653005 0.9970466
vt 0.001653005 0.9970466
vt 0.001653005 0.9970466
vt 0.001653005 0.9970466
vt 0.001653005 0.9970466
vt 0.001653005 0.9970466
vt 0.001653005 0.9970466
vt 0.001653005 0.9970466
vt 0.001653005 0.9970466
vt 0.001653005 0.9970466
vt 0.001653005 0.9970466
vt 0.001653005 0.9970466
vt 0.001653005 0.9970466
vt 0.001653005 0.9970466
vt 0.001653005 0.9970466
vt 0.001653005 0.9970466
vt 0.001653005 0.9970466
vt 0.001653005 0.9970466
vt 0.001653005 0.9970466
vt 0.001653005 0.9970466
vn -0.005207716 0.4328656 -0.9014434
vn 0.3126208 0.3367011 -0.8882008
vn 0.721325 0.6512851 0.2356225
vn 0.394554 -0.02305028 -0.9185836
vn 0.9163949 -0.05361672 0.3966683
vn 0.001575585 0.9008056 0.4342199
vn 0.004354004 -0.0002679788 0.9999905
vn 0.9163837 -0.0536159 0.3966941
vn 0.004319903 -0.0002660012 0.9999907
vn -0.004295402 -0.0002229453 0.9999908
vn -0.001539983 0.9008154 0.4341997
vn -0.00420149 -0.000218135 0.9999912
vn -0.005917511 0.0003644104 -0.9999825
vn 0.3945912 -0.02305252 -0.9185676
vn 0.005182723 0.4328378 -0.901457
vn 0.004285937 -0.0002638742 0.9999908
vn -0.004101559 -0.0002129672 0.9999915
vn 0.9163716 -0.05361499 0.3967221
vn -0.9184649 -0.03905591 0.3935694
vn -0.9185116 -0.03906058 0.3934602
vn -0.9184207 -0.03905163 0.3936727
vn -0.3078033 0.3404859 -0.8884405
vn 0.005833492 0.0003029952 -0.999983
vn -0.005867505 0.0003613351 -0.9999827
vn -0.7171261 0.6557058 0.2361781
vn -0.3917045 -0.01655411 -0.9199421
vn -0.3918634 -0.01656278 -0.9198743
vn 0.005697488 0.0002958676 -0.9999838
vn 0.3946317 -0.02305501 -0.9185501
vn -0.3920128 -0.01657079 -0.9198105
vn 0.005552399 0.0002883249 -0.9999846
vn -0.005817981 0.0003583589 -0.9999831
vn 0.9163596 -0.05361383 0.39675
vn 0.3946721 -0.0230575 -0.9185327
vn -0.00576656 0.0003551343 -0.9999833
vn 0.005408365 0.0002808603 -0.9999853
vn -0.39216 -0.01657862 -0.9197475
vn 0.004250627 -0.0002617176 0.9999909
vn -0.918377 -0.03904679 0.3937753
vn -0.004002063 -0.00020784 0.999992
vn 0.8649122 -0.1873488 0.4656473
vn 0.6067557 -0.2835065 -0.7426113
vn 0.03432151 -0.8135769 -0.5804434
vn 0.01315896 -0.7511218 0.6600326
vn -0.02181633 -0.1155099 0.9930667
vn -0.04600208 -0.4467653 -0.8934677
vn 0.382331 -0.7605025 -0.524842
vn -0.378698 -0.9127779 0.1530501
vn 0.005638187 0.4328487 0.901449
vn -0.316184 0.3461733 0.8832845
vn -0.6973094 0.673385 -0.2455856
vn -0.402964 -0.001627091 0.9152144
vn -0.9140535 -0.004362194 -0.4055702
vn -0.001590277 0.9007357 -0.4343645
vn -0.004607623 0 -0.9999894
vn -0.9154568 -0.004357738 -0.4023927
vn -0.004359094 0 -0.9999906
vn 0.004743741 0 -0.9999888
vn 0.0016032 0.9007418 -0.434352
vn 0.004645857 0 -0.9999893
vn 0.006249812 0.0001851473 0.9999804
vn -0.3996746 -0.001621101 0.9166557
vn -0.005649494 0.4328322 0.9014568
vn -0.004123328 0 -0.9999915
vn 0.004541592 0 -0.9999897
vn -0.9170071 -0.004353754 -0.3988471
vn 0.9145578 -0.0133663 -0.4042344
vn 0.9130946 -0.01334656 -0.4075291
vn 0.9161704 -0.01338802 -0.4005653
vn 0.3192988 0.3438133 0.8830859
vn -0.006448116 0 0.9999793
vn 0.005895552 0.0001745728 0.9999826
vn 0.699988 0.6707584 -0.2451531
vn 0.4048235 -0.005803634 0.9143764
vn 0.4013725 -0.005755375 0.9158968
vn -0.006312031 0 0.9999801
vn -0.3962344 -0.001614667 0.9181479
vn 0.3977675 -0.005704907 0.9174685
vn -0.00616688 0 0.999981
vn 0.005562087 0 0.9999845
vn -0.9185271 -0.00435091 -0.3953343
vn -0.3928198 -0.001607449 0.9196141
vn 0.005267928 0 0.9999862
vn -0.006026964 0 0.9999819
vn 0.3942025 -0.005654893 0.9190062
vn -0.0039141 0 -0.9999924
vn 0.9177466 -0.01340933 -0.39694
vn 0.004441079 0 -0.9999902
vn -0.3890483 -0.001598339 0.921216
vn 0.004976443 0 0.9999876
vn -0.9200961 -0.004348401 -0.3916686
vn -0.005886148 0 0.9999827
vn -0.003705972 0 -0.9999932
vn 0.004339705 0 -0.9999906
vn 0.9193657 -0.01343135 -0.3931747
vn 0.3902988 -0.005600005 0.9206712
vn -0.8679284 -0.1954666 -0.4566105
vn -0.6212602 -0.3880348 0.6807825
vn -0.05089467 -0.8685437 0.4929924
vn -0.04219121 -0.6785215 -0.7333679
vn 0.0230462 -0.1903827 -0.9814394
vn 0.0658524 -0.6688647 0.7404617
vn -0.1312606 -0.896396 0.4233734
vn 0.6331302 -0.7083432 -0.3120836
g BOSSVikingBelt2_0
f 3/3/3 2/2/2 1/1/1
f 2/2/2 4/4/4 1/1/1
f 3/3/3 5/5/5 2/2/2
f 5/5/5 4/4/4 2/2/2
f 6/6/6 3/3/3 1/1/1
f 7/7/7 5/5/5 3/3/3
f 6/6/6 7/7/7 3/3/3
f 5/5/5 8/8/8 4/4/4
f 7/7/7 9/9/9 5/5/5
f 9/9/9 8/8/8 5/5/5
f 10/10/10 7/7/7 6/6/6
f 11/11/11 6/6/6 1/1/1
f 11/11/11 10/10/10 6/6/6
f 12/12/12 9/9/9 7/7/7
f 10/10/10 12/12/12 7/7/7
f 4/4/4 13/13/13 1/1/1
f 8/8/8 14/14/14 4/4/4
f 4/4/4 14/14/14 13/13/13
f 15/15/15 11/11/11 1/1/1
f 1/1/1 13/13/13 15/15/15
f 9/9/9 16/16/16 8/8/8
f 12/12/12 17/17/17 9/9/9
f 17/17/17 16/16/16 9/9/9
f 8/8/8 18/18/18 14/14/14
f 16/16/16 18/18/18 8/8/8
f 19/19/19 12/12/12 10/10/10
f 20/20/20 10/10/10 11/11/11
f 20/20/20 19/19/19 10/10/10
f 21/21/21 17/17/17 12/12/12
f 19/19/19 21/21/21 12/12/12
f 11/11/11 15/15/15 22/22/22
f 13/13/13 23/23/23 15/15/15
f 15/15/15 23/23/23 22/22/22
f 14/14/14 24/24/24 13/13/13
f 13/13/13 24/24/24 23/23/23
f 25/25/25 11/11/11 22/22/22
f 25/25/25 20/20/20 11/11/11
f 22/22/22 26/26/26 25/25/25
f 23/23/23 26/26/26 22/22/22
f 26/26/26 20/20/20 25/25/25
f 27/27/27 19/19/19 20/20/20
f 26/26/26 27/27/27 20/20/20
f 23/23/23 28/28/28 26/26/26
f 24/24/24 28/28/28 23/23/23
f 28/28/28 27/27/27 26/26/26
f 14/14/14 29/29/29 24/24/24
f 18/18/18 29/29/29 14/14/14
f 27/27/27 30/30/30 19/19/19
f 30/30/30 21/21/21 19/19/19
f 28/28/28 31/31/31 27/27/27
f 31/31/31 30/30/30 27/27/27
f 24/24/24 32/32/32 28/28/28
f 29/29/29 32/32/32 24/24/24
f 32/32/32 31/31/31 28/28/28
f 18/18/18 33/33/33 29/29/29
f 29/29/29 34/34/34 32/32/32
f 33/33/33 34/34/34 29/29/29
f 32/32/32 35/35/35 31/31/31
f 34/34/34 35/35/35 32/32/32
f 31/31/31 36/36/36 30/30/30
f 35/35/35 36/36/36 31/31/31
f 30/30/30 37/37/37 21/21/21
f 36/36/36 37/37/37 30/30/30
f 38/38/38 33/33/33 18/18/18
f 16/16/16 38/38/38 18/18/18
f 37/37/37 39/39/39 21/21/21
f 21/21/21 39/39/39 17/17/17
f 17/17/17 40/40/40 16/16/16
f 40/40/40 38/38/38 16/16/16
f 39/39/39 40/40/40 17/17/17
f 33/33/33 41/41/41 34/34/34
f 34/34/34 42/42/42 35/35/35
f 41/41/41 42/42/42 34/34/34
f 42/42/42 43/43/43 35/35/35
f 35/35/35 43/43/43 36/36/36
f 42/42/42 41/41/41 43/43/43
f 44/44/44 41/41/41 33/33/33
f 38/38/38 44/44/44 33/33/33
f 41/41/41 44/44/44 43/43/43
f 45/45/45 44/44/44 38/38/38
f 40/40/40 45/45/45 38/38/38
f 44/44/44 45/45/45 43/43/43
f 43/43/43 46/46/46 36/36/36
f 45/45/45 46/46/46 43/43/43
f 36/36/36 46/46/46 37/37/37
f 46/46/46 47/47/47 37/37/37
f 37/37/37 47/47/47 39/39/39
f 46/46/46 45/45/45 47/47/47
f 48/48/48 45/45/45 40/40/40
f 39/39/39 48/48/48 40/40/40
f 45/45/45 48/48/48 47/47/47
f 47/47/47 48/48/48 39/39/39
f 51/51/51 50/50/50 49/49/49
f 50/50/50 52/52/52 49/49/49
f 51/51/51 53/53/53 50/50/50
f 53/53/53 52/52/52 50/50/50
f 54/54/54 51/51/51 49/49/49
f 55/55/55 53/53/53 51/51/51
f 54/54/54 55/55/55 51/51/51
f 53/53/53 56/56/56 52/52/52
f 55/55/55 57/57/57 53/53/53
f 57/57/57 56/56/56 53/53/53
f 58/58/58 55/55/55 54/54/54
f 59/59/59 54/54/54 49/49/49
f 59/59/59 58/58/58 54/54/54
f 60/60/60 57/57/57 55/55/55
f 58/58/58 60/60/60 55/55/55
f 52/52/52 61/61/61 49/49/49
f 56/56/56 62/62/62 52/52/52
f 52/52/52 62/62/62 61/61/61
f 63/63/63 59/59/59 49/49/49
f 49/49/49 61/61/61 63/63/63
f 57/57/57 64/64/64 56/56/56
f 60/60/60 65/65/65 57/57/57
f 65/65/65 64/64/64 57/57/57
f 56/56/56 66/66/66 62/62/62
f 64/64/64 66/66/66 56/56/56
f 67/67/67 60/60/60 58/58/58
f 68/68/68 58/58/58 59/59/59
f 68/68/68 67/67/67 58/58/58
f 69/69/69 65/65/65 60/60/60
f 67/67/67 69/69/69 60/60/60
f 59/59/59 63/63/63 70/70/70
f 61/61/61 71/71/71 63/63/63
f 63/63/63 71/71/71 70/70/70
f 62/62/62 72/72/72 61/61/61
f 61/61/61 72/72/72 71/71/71
f 73/73/73 59/59/59 70/70/70
f 73/73/73 68/68/68 59/59/59
f 70/70/70 74/74/74 73/73/73
f 71/71/71 74/74/74 70/70/70
f 74/74/74 68/68/68 73/73/73
f 75/75/75 67/67/67 68/68/68
f 74/74/74 75/75/75 68/68/68
f 71/71/71 76/76/76 74/74/74
f 72/72/72 76/76/76 71/71/71
f 76/76/76 75/75/75 74/74/74
f 62/62/62 77/77/77 72/72/72
f 66/66/66 77/77/77 62/62/62
f 75/75/75 78/78/78 67/67/67
f 78/78/78 69/69/69 67/67/67
f 76/76/76 79/79/79 75/75/75
f 79/79/79 78/78/78 75/75/75
f 72/72/72 80/80/80 76/76/76
f 77/77/77 80/80/80 72/72/72
f 80/80/80 79/79/79 76/76/76
f 66/66/66 81/81/81 77/77/77
f 77/77/77 82/82/82 80/80/80
f 81/81/81 82/82/82 77/77/77
f 80/80/80 83/83/83 79/79/79
f 82/82/82 83/83/83 80/80/80
f 79/79/79 84/84/84 78/78/78
f 83/83/83 84/84/84 79/79/79
f 78/78/78 85/85/85 69/69/69
f 84/84/84 85/85/85 78/78/78
f 86/86/86 81/81/81 66/66/66
f 64/64/64 86/86/86 66/66/66
f 85/85/85 87/87/87 69/69/69
f 69/69/69 87/87/87 65/65/65
f 65/65/65 88/88/88 64/64/64
f 88/88/88 86/86/86 64/64/64
f 87/87/87 88/88/88 65/65/65
f 82/82/82 89/89/89 83/83/83
f 83/83/83 90/90/90 84/84/84
f 89/89/89 90/90/90 83/83/83
f 81/81/81 91/91/91 82/82/82
f 91/91/91 89/89/89 82/82/82
f 84/84/84 92/92/92 85/85/85
f 90/90/90 92/92/92 84/84/84
f 86/86/86 93/93/93 81/81/81
f 93/93/93 91/91/91 81/81/81
f 88/88/88 94/94/94 86/86/86
f 94/94/94 93/93/93 86/86/86
f 87/87/87 95/95/95 88/88/88
f 95/95/95 94/94/94 88/88/88
f 85/85/85 96/96/96 87/87/87
f 92/92/92 96/96/96 85/85/85
f 96/96/96 95/95/95 87/87/87
f 91/91/91 97/97/97 89/89/89
f 89/89/89 98/98/98 90/90/90
f 97/97/97 98/98/98 89/89/89
f 98/98/98 99/99/99 90/90/90
f 90/90/90 99/99/99 92/92/92
f 98/98/98 97/97/97 99/99/99
f 100/100/100 97/97/97 91/91/91
f 93/93/93 100/100/100 91/91/91
f 97/97/97 100/100/100 99/99/99
f 101/101/101 100/100/100 93/93/93
f 94/94/94 101/101/101 93/93/93
f 100/100/100 101/101/101 99/99/99
f 99/99/99 102/102/102 92/92/92
f 92/92/92 102/102/102 96/96/96
f 101/101/101 102/102/102 99/99/99
f 102/102/102 103/103/103 96/96/96
f 96/96/96 103/103/103 95/95/95
f 102/102/102 101/101/101 103/103/103
f 104/104/104 101/101/101 94/94/94
f 95/95/95 104/104/104 94/94/94
f 101/101/101 104/104/104 103/103/103
f 103/103/103 104/104/104 95/95/95
