g ButtonBase
v -1.020169 1.020169 -0.5842889
v -1.110028 1.775867 -0.4633707
v -1.775867 1.110028 -0.4633709
v -1.775867 -1.110028 -0.4633716
v -1.110028 -1.775867 -0.4633718
v -1.020169 -1.020169 -0.5842896
v 1.020169 1.020169 -0.5842889
v 1.775867 1.110028 -0.4633709
v 1.110028 1.775867 -0.4633707
v 1.020169 -1.020169 -0.5842896
v 1.110028 -1.775867 -0.4633718
v 1.775867 -1.110028 -0.4633716
v -1.775867 1.110028 -0.4633709
v -1.775867 -1.110028 -0.4633716
v -1.020169 -1.020169 -0.5842896
v -1.020169 1.020169 -0.5842889
v -1.020169 1.020169 -0.5842889
v 1.020169 1.020169 -0.5842889
v 1.110028 1.775867 -0.4633707
v -1.110028 1.775867 -0.4633707
v 1.020169 1.020169 -0.5842889
v 1.020169 -1.020169 -0.5842896
v 1.775867 -1.110028 -0.4633716
v 1.775867 1.110028 -0.4633709
v -1.110028 -1.775867 -0.4633718
v 1.110028 -1.775867 -0.4633718
v 1.020169 -1.020169 -0.5842896
v -1.020169 -1.020169 -0.5842896
v -1.110028 1.775867 -0.4633707
v 1.110028 1.775867 -0.4633707
v 1.110028 1.775867 0.02036155
v -1.110028 1.775867 0.02036155
v -1.775867 1.110028 0.02036134
v -1.110028 1.775867 -0.4633707
v -1.775867 1.110028 -0.4633709
v 1.775867 1.110028 0.02036134
v 1.775867 1.110028 -0.4633709
v 1.110028 1.775867 -0.4633707
v -1.775867 -1.110028 0.02036061
v -1.775867 -1.110028 -0.4633716
v -1.775867 1.110028 -0.4633709
v 1.775867 -1.110028 0.02036061
v 1.775867 1.110028 -0.4633709
v 1.775867 -1.110028 -0.4633716
v 1.110028 -1.775867 0.0203604
v 1.110028 -1.775867 -0.4633718
v 1.775867 -1.110028 -0.4633716
v -1.110028 -1.775867 0.0203604
v 1.110028 -1.775867 -0.4633718
v -1.110028 -1.775867 -0.4633718
v -1.775867 -1.110028 -0.4633716
v -1.110028 -1.775867 -0.4633718
v -1.020169 1.020169 -0.5842889
v -1.020169 -1.020169 -0.5842896
v 1.020169 -1.020169 -0.5842896
v 1.020169 1.020169 -0.5842889
v 0.4399304 1.208699 -0.574496
v 5.232359E-09 1.713716 -0.5744959
v -2.597391E-09 1.28627 -0.574496
v 0.5861256 1.610367 -0.574496
v 0.8267986 0.9853402 -0.574496
v -0.5861266 1.610366 -0.574496
v -0.4399312 1.208698 -0.574496
v 1.101556 1.312783 -0.574496
v 1.113943 0.643135 -0.574496
v -1.101557 1.312782 -0.574496
v -0.8267993 0.9853396 -0.574496
v 1.484122 0.8568581 -0.574496
v 1.266729 0.2233583 -0.574496
v -1.484122 0.8568574 -0.574496
v -1.113943 0.6431344 -0.574496
v 1.687681 0.2975836 -0.574496
v 1.266729 -0.2233587 -0.574496
v -1.687681 0.2975829 -0.574496
v -1.266729 0.2233578 -0.574496
v 1.687681 -0.2975839 -0.574496
v 1.113943 -0.6431352 -0.5744961
v -1.687681 -0.2975844 -0.574496
v -1.266729 -0.2233591 -0.574496
v 1.484122 -0.8568581 -0.5744961
v 0.8267986 -0.9853402 -0.5744961
v -1.484122 -0.8568586 -0.5744961
v -1.113943 -0.6431355 -0.5744961
v 1.101556 -1.312783 -0.5744961
v 0.4399304 -1.208699 -0.5744961
v -1.101555 -1.312783 -0.5744961
v -0.8267983 -0.9853405 -0.5744961
v 0.5861257 -1.610367 -0.5744961
v 1.91624E-07 -1.28627 -0.5744961
v -0.5861251 -1.610367 -0.5744961
v -0.4399301 -1.208699 -0.5744961
v 2.639963E-07 -1.713716 -0.5744962
v -1.47561 -0.8613307 -0.4589257
v -1.679169 -0.3020566 -0.4589257
v -1.093043 -1.317255 -0.4589258
v -0.5776132 -1.614839 -0.4589258
v -1.67917 0.2931107 -0.4589257
v 0.008512148 -1.718189 -0.4589258
v 0.5946375 -1.614839 -0.4589258
v -1.475611 0.8523852 -0.4589257
v 1.110067 -1.317255 -0.4589258
v -1.093045 1.30831 -0.4589257
v 1.492634 -0.8613303 -0.4589257
v -0.5776147 1.605894 -0.4589257
v 1.696193 -0.3020561 -0.4589257
v 0.00851189 1.709244 -0.4589256
v 1.696193 0.2931114 -0.4589257
v 0.5946375 1.605894 -0.4589257
v 1.492634 0.852386 -0.4589257
v 1.110067 1.308311 -0.4589257
vt 0.140478 0.9127335
vt 0.1407813 0.910183
vt 0.1430286 0.9124302
vt 0.1430286 0.9199234
vt 0.1407813 0.9221707
vt 0.140478 0.9196201
vt 0.1335914 0.9127335
vt 0.1310408 0.9124302
vt 0.1332881 0.910183
vt 0.1335914 0.9196201
vt 0.1332881 0.9221707
vt 0.1310408 0.9199234
vt 0.1430286 0.9124302
vt 0.1430286 0.9199234
vt 0.140478 0.9196201
vt 0.140478 0.9127335
vt 0.140478 0.9127335
vt 0.1335914 0.9127335
vt 0.1332881 0.910183
vt 0.1407813 0.910183
vt 0.1335914 0.9127335
vt 0.1335914 0.9196201
vt 0.1310408 0.9199234
vt 0.1310408 0.9124302
vt 0.1407813 0.9221707
vt 0.1332881 0.9221707
vt 0.1335914 0.9196201
vt 0.140478 0.9196201
vt 0.08713211 0.9149199
vt 0.0855608 0.9149199
vt 0.0855608 0.9149199
vt 0.08713211 0.9149199
vt 0.08760335 0.9153911
vt 0.08713211 0.9149199
vt 0.08760335 0.9153911
vt 0.0850895 0.9153911
vt 0.0850895 0.9153911
vt 0.0855608 0.9149199
vt 0.08760335 0.9169624
vt 0.08760335 0.9169624
vt 0.08760335 0.9153911
vt 0.0850895 0.9169624
vt 0.0850895 0.9153911
vt 0.0850895 0.9169624
vt 0.0855608 0.9174337
vt 0.0855608 0.9174337
vt 0.0850895 0.9169624
vt 0.08713211 0.9174337
vt 0.0855608 0.9174337
vt 0.08713211 0.9174337
vt 0.08760335 0.9169624
vt 0.08713211 0.9174337
vt 0.140478 0.9127335
vt 0.140478 0.9196201
vt 0.1335914 0.9196201
vt 0.1335914 0.9127335
vt 0.1410849 0.9186924
vt 0.1410849 0.9186924
vt 0.1410849 0.9186924
vt 0.1410849 0.9186924
vt 0.1410849 0.9186924
vt 0.1410849 0.9186924
vt 0.1410849 0.9186924
vt 0.1410849 0.9186924
vt 0.1410849 0.9186924
vt 0.1410849 0.9186924
vt 0.1410849 0.9186924
vt 0.1410849 0.9186924
vt 0.1410849 0.9186924
vt 0.1410849 0.9186924
vt 0.1410849 0.9186924
vt 0.1410849 0.9186924
vt 0.1410849 0.9186924
vt 0.1410849 0.9186924
vt 0.1410849 0.9186924
vt 0.1410849 0.9186924
vt 0.1410849 0.9186924
vt 0.1410849 0.9186924
vt 0.1410849 0.9186924
vt 0.1410849 0.9186924
vt 0.1410849 0.9186924
vt 0.1410849 0.9186924
vt 0.1410849 0.9186924
vt 0.1410849 0.9186924
vt 0.1410849 0.9186924
vt 0.1410849 0.9186924
vt 0.1410849 0.9186924
vt 0.1410849 0.9186924
vt 0.1410849 0.9186924
vt 0.1410849 0.9186924
vt 0.1410849 0.9186924
vt 0.1410849 0.9186924
vt 0.1410849 0.9186924
vt 0.1410849 0.9186924
vt 0.1410849 0.9186924
vt 0.1410849 0.9186924
vt 0.1410849 0.9186924
vt 0.1410849 0.9186924
vt 0.1410849 0.9186924
vt 0.1410849 0.9186924
vt 0.1410849 0.9186924
vt 0.1410849 0.9186924
vt 0.1410849 0.9186924
vt 0.1410849 0.9186924
vt 0.1410849 0.9186924
vt 0.1410849 0.9186924
vt 0.1410849 0.9186924
vt 0.1410849 0.9186924
vt 0.1410849 0.9186924
vt 0.1410849 0.9186924
vn -0.1401661 0.1401664 -0.9801565
vn -0.1401661 0.1401664 -0.9801565
vn -0.1401661 0.1401664 -0.9801565
vn -0.1401661 -0.1401658 -0.9801567
vn -0.1401661 -0.1401658 -0.9801567
vn -0.1401661 -0.1401658 -0.9801567
vn 0.1401661 0.1401664 -0.9801565
vn 0.1401661 0.1401664 -0.9801565
vn 0.1401661 0.1401664 -0.9801565
vn 0.1401661 -0.1401658 -0.9801567
vn 0.1401661 -0.1401658 -0.9801567
vn 0.1401661 -0.1401658 -0.9801567
vn -0.1579984 0 -0.9874395
vn -0.1579984 0 -0.9874395
vn -0.1579984 0 -0.9874395
vn -0.1579984 0 -0.9874395
vn 0 0.1579987 -0.9874393
vn 0 0.1579987 -0.9874393
vn 0 0.1579987 -0.9874393
vn 0 0.1579987 -0.9874393
vn 0.1579984 0 -0.9874395
vn 0.1579984 0 -0.9874395
vn 0.1579984 0 -0.9874395
vn 0.1579984 0 -0.9874395
vn 0 -0.1579982 -0.9874395
vn 0 -0.1579982 -0.9874395
vn 0 -0.1579982 -0.9874395
vn 0 -0.1579982 -0.9874395
vn 0 1 0
vn 0 1 0
vn 0.2971086 0.7172833 0.6302627
vn -0.2971086 0.7172834 0.6302627
vn -0.7172835 0.2971084 0.6302626
vn -0.7071068 0.7071068 0
vn -0.7071068 0.7071068 0
vn 0.7172835 0.2971083 0.6302626
vn 0.7071069 0.7071066 0
vn 0.7071069 0.7071066 0
vn -0.7172835 -0.2971089 0.6302624
vn -1 0 0
vn -1 0 0
vn 0.7172836 -0.2971088 0.6302623
vn 1 0 0
vn 1 0 0
vn 0.2971086 -0.7172838 0.6302621
vn 0.7071068 -0.7071068 0
vn 0.7071068 -0.7071068 0
vn -0.2971085 -0.7172839 0.6302621
vn 0 -1 0
vn 0 -1 0
vn -0.7071066 -0.7071069 0
vn -0.7071066 -0.7071069 0
vn 0 0 -1
vn 0 0 -1
vn 0 0 -1
vn 0 0 -1
vn 0 0 -1
vn -0.00609506 0.7552 -0.655466
vn 0 0 -1
vn 0.24887 0.7035682 -0.6656241
vn 0 0 -1
vn -0.265152 0.71488 -0.6470246
vn 0 0 -1
vn 0.4684295 0.5685567 -0.6762522
vn 0 0 -1
vn -0.4952048 0.5860634 -0.6413282
vn 0 0 -1
vn 0.6272187 0.368687 -0.6860515
vn 0 0 -1
vn -0.6662474 0.3843379 -0.6390609
vn 0 0 -1
vn 0.7084646 0.1290674 -0.693844
vn 0 0 -1
vn -0.7559276 0.1354379 -0.6404922
vn 0 0 -1
vn 0.7048764 -0.1222359 -0.6987186
vn 0 0 -1
vn -0.7529213 -0.1284559 -0.6454522
vn 0 0 -1
vn 0.6182297 -0.3572402 -0.7001224
vn 0 0 -1
vn -0.6585274 -0.3734706 -0.6533463
vn 0 0 -1
vn 0.4584288 -0.5502558 -0.697898
vn 0 0 -1
vn -0.4861855 -0.5690052 -0.663217
vn 0 0 -1
vn 0.2425768 -0.6796214 -0.6922942
vn 0 0 -1
vn -0.2590204 -0.6919752 -0.6738536
vn 0 0 -1
vn -0.0059616 -0.7295023 -0.6839525
vn -0.8612642 -0.5062624 0.04384333
vn -0.9817022 -0.1788463 0.06538271
vn -0.6357824 -0.7716819 0.01696502
vn -0.3334538 -0.942691 -0.01192023
vn -0.9822205 0.1703309 0.07893233
vn 0.008064093 -0.9991965 -0.03926001
vn 0.3470902 -0.9357949 -0.06177553
vn -0.8628642 0.4986002 0.08284482
vn 0.6435045 -0.7615733 -0.07686506
vn -0.6382048 0.7660416 0.0766478
vn 0.8632275 -0.4979705 -0.08284687
vn -0.3355304 0.9400465 0.06108917
vn 0.9812437 -0.175808 -0.0790723
vn 0.008165729 0.9992418 0.0380658
vn 0.9836103 0.1678131 -0.06595144
vn 0.3505462 0.9364874 0.01042085
vn 0.868971 0.4928191 -0.0449315
vn 0.6494998 0.7601386 -0.0184215
g ButtonBase_0
f 3/3/3 2/2/2 1/1/1
f 6/6/6 5/5/5 4/4/4
f 9/9/9 8/8/8 7/7/7
f 12/12/12 11/11/11 10/10/10
f 15/15/15 14/14/14 13/13/13
f 16/16/16 15/15/15 13/13/13
f 19/19/19 18/18/18 17/17/17
f 20/20/20 19/19/19 17/17/17
f 23/23/23 22/22/22 21/21/21
f 24/24/24 23/23/23 21/21/21
f 27/27/27 26/26/26 25/25/25
f 28/28/28 27/27/27 25/25/25
f 31/31/31 30/30/30 29/29/29
f 32/32/32 31/31/31 29/29/29
f 32/32/32 33/33/33 31/31/31
f 32/32/32 34/34/34 33/33/33
f 34/34/34 35/35/35 33/33/33
f 33/33/33 36/36/36 31/31/31
f 36/36/36 37/37/37 31/31/31
f 37/37/37 38/38/38 31/31/31
f 36/36/36 33/33/33 39/39/39
f 39/39/39 33/33/33 40/40/40
f 33/33/33 41/41/41 40/40/40
f 42/42/42 36/36/36 39/39/39
f 43/43/43 36/36/36 42/42/42
f 44/44/44 43/43/43 42/42/42
f 42/42/42 39/39/39 45/45/45
f 45/45/45 46/46/46 42/42/42
f 46/46/46 47/47/47 42/42/42
f 39/39/39 48/48/48 45/45/45
f 49/49/49 45/45/45 48/48/48
f 50/50/50 49/49/49 48/48/48
f 39/39/39 51/51/51 48/48/48
f 51/51/51 52/52/52 48/48/48
f 55/55/55 54/54/54 53/53/53
f 56/56/56 55/55/55 53/53/53
f 59/59/59 58/58/58 57/57/57
f 58/58/58 60/60/60 57/57/57
f 57/57/57 60/60/60 61/61/61
f 62/62/62 58/58/58 59/59/59
f 63/63/63 62/62/62 59/59/59
f 60/60/60 64/64/64 61/61/61
f 61/61/61 64/64/64 65/65/65
f 66/66/66 62/62/62 63/63/63
f 67/67/67 66/66/66 63/63/63
f 64/64/64 68/68/68 65/65/65
f 65/65/65 68/68/68 69/69/69
f 70/70/70 66/66/66 67/67/67
f 71/71/71 70/70/70 67/67/67
f 68/68/68 72/72/72 69/69/69
f 69/69/69 72/72/72 73/73/73
f 74/74/74 70/70/70 71/71/71
f 75/75/75 74/74/74 71/71/71
f 72/72/72 76/76/76 73/73/73
f 73/73/73 76/76/76 77/77/77
f 78/78/78 74/74/74 75/75/75
f 79/79/79 78/78/78 75/75/75
f 76/76/76 80/80/80 77/77/77
f 77/77/77 80/80/80 81/81/81
f 82/82/82 78/78/78 79/79/79
f 83/83/83 82/82/82 79/79/79
f 80/80/80 84/84/84 81/81/81
f 81/81/81 84/84/84 85/85/85
f 86/86/86 82/82/82 83/83/83
f 87/87/87 86/86/86 83/83/83
f 84/84/84 88/88/88 85/85/85
f 85/85/85 88/88/88 89/89/89
f 90/90/90 86/86/86 87/87/87
f 91/91/91 90/90/90 87/87/87
f 89/89/89 92/92/92 91/91/91
f 88/88/88 92/92/92 89/89/89
f 92/92/92 90/90/90 91/91/91
f 82/82/82 93/93/93 78/78/78
f 93/93/93 94/94/94 78/78/78
f 95/95/95 93/93/93 82/82/82
f 86/86/86 95/95/95 82/82/82
f 78/78/78 94/94/94 74/74/74
f 96/96/96 95/95/95 86/86/86
f 90/90/90 96/96/96 86/86/86
f 94/94/94 97/97/97 74/74/74
f 98/98/98 96/96/96 90/90/90
f 92/92/92 98/98/98 90/90/90
f 74/74/74 97/97/97 70/70/70
f 99/99/99 98/98/98 92/92/92
f 88/88/88 99/99/99 92/92/92
f 97/97/97 100/100/100 70/70/70
f 101/101/101 99/99/99 88/88/88
f 70/70/70 100/100/100 66/66/66
f 84/84/84 101/101/101 88/88/88
f 100/100/100 102/102/102 66/66/66
f 103/103/103 101/101/101 84/84/84
f 66/66/66 102/102/102 62/62/62
f 80/80/80 103/103/103 84/84/84
f 102/102/102 104/104/104 62/62/62
f 105/105/105 103/103/103 80/80/80
f 62/62/62 104/104/104 58/58/58
f 76/76/76 105/105/105 80/80/80
f 104/104/104 106/106/106 58/58/58
f 107/107/107 105/105/105 76/76/76
f 58/58/58 106/106/106 60/60/60
f 72/72/72 107/107/107 76/76/76
f 106/106/106 108/108/108 60/60/60
f 109/109/109 107/107/107 72/72/72
f 60/60/60 108/108/108 64/64/64
f 68/68/68 109/109/109 72/72/72
f 108/108/108 110/110/110 64/64/64
f 110/110/110 109/109/109 68/68/68
f 64/64/64 110/110/110 68/68/68
