g DojoWallShard03
v 0.6253842 -1.148306 -0.2395328
v 0.6253842 -1.148306 0.2395328
v 0.6253842 1.082021 0.2395328
v 0.6253842 1.148306 -0.2395328
v 0.3203841 -0.8433055 0.08696052
v -0.3750156 -0.8433055 0.08696054
v -0.5883141 0.6134123 0.08696055
v 0.3203841 0.9800659 0.08696052
v 0.6253842 -1.148306 0.2395328
v -0.2990064 -1.148306 0.2395328
v -0.3436657 -0.8433055 0.2395328
v 0.3203841 -0.8433055 0.2395328
v 0.6253842 1.082021 0.2395328
v 0.3203841 0.9589555 0.2395328
v 0.6253842 -1.148306 -0.2395328
v 0.6253842 1.148306 -0.2395328
v 0.3203841 1.02524 -0.2395328
v 0.3203841 -0.8433055 -0.2395328
v -0.3974428 -1.148306 -0.2395328
v -0.442102 -0.8433055 -0.2395328
v 0.3203841 -0.8433055 0.2395328
v -0.3436657 -0.8433055 0.2395328
v -0.3750156 -0.8433055 0.08696054
v 0.3203841 -0.8433055 0.08696052
v 0.3203841 -0.8433055 -0.2395328
v 0.3203841 1.02524 -0.2395328
v 0.3203841 1.00413 -0.0869606
v 0.3203841 -0.8433055 -0.0869606
v 0.3203841 0.9589555 0.2395328
v 0.3203841 -0.8433055 0.2395328
v 0.3203841 -0.8433055 0.08696052
v 0.3203841 0.9800659 0.08696052
v -0.2990064 -1.148306 0.2395328
v 0.6253842 -1.148306 0.2395328
v 0.6253842 -1.148306 -0.2395328
v -0.3974428 -1.148306 -0.2395328
v -0.4107523 -0.8433055 -0.08696058
v 0.3203841 -0.8433055 -0.0869606
v 0.3203841 1.00413 -0.0869606
v -0.6253842 0.6225191 -0.08696057
v -0.442102 -0.8433055 -0.2395328
v 0.3203841 -0.8433055 -0.2395328
v 0.3203841 -0.8433055 -0.0869606
v -0.4107523 -0.8433055 -0.08696058
v 0.3203838 0.8971814 -0.0869606
v 0.05532705 0.8971815 -0.08696058
v 0.03029478 0.8971814 -0.1599606
v 0.3203838 0.8971814 -0.1599606
v -0.3804801 0.7314363 -0.1599606
v 0.3203838 0.7314363 -0.1599606
v 0.3203838 0.8971814 -0.1599606
v 0.03029478 0.8971814 -0.1599606
v -0.3554478 0.7314363 -0.08696056
v 0.3203838 0.7314363 -0.0869606
v 0.3203838 0.7314363 -0.1599606
v -0.3804801 0.7314363 -0.1599606
v 0.3203838 0.7314363 0.08696052
v -0.2958082 0.7314363 0.08696054
v -0.2707758 0.7314363 0.1599606
v 0.3203838 0.7314363 0.1599606
v 0.1399994 0.8971814 0.1599606
v 0.3203838 0.8971814 0.1599606
v 0.3203838 0.7314363 0.1599606
v -0.2707758 0.7314363 0.1599606
v 0.114967 0.8971812 0.08696052
v 0.3203838 0.8971814 0.08696052
v 0.3203838 0.8971814 0.1599606
v 0.1399994 0.8971814 0.1599606
v -0.442102 -0.8433055 -0.2395328
v -0.3436657 -0.8433055 0.2395328
v -0.2990064 -1.148306 0.2395328
v -0.3974428 -1.148306 -0.2395328
v -0.6253842 0.6225191 -0.08696057
v -0.5883141 0.6134123 0.08696055
v -0.3750156 -0.8433055 0.08696054
v -0.4107523 -0.8433055 -0.08696058
v 0.3203841 1.00413 -0.0869606
v 0.3203841 0.9800659 0.08696052
v -0.5883141 0.6134123 0.08696055
v -0.6253842 0.6225191 -0.08696057
v 0.6253842 1.148306 -0.2395328
v 0.6253842 1.082021 0.2395328
v 0.3203841 0.9589555 0.2395328
v 0.3203841 1.02524 -0.2395328
v 0.05532705 0.8971815 -0.08696058
v -0.3554478 0.7314363 -0.08696056
v -0.3804801 0.7314363 -0.1599606
v 0.03029478 0.8971814 -0.1599606
v -0.2958082 0.7314363 0.08696054
v 0.114967 0.8971812 0.08696052
v 0.1399994 0.8971814 0.1599606
v -0.2707758 0.7314363 0.1599606
vt 0.1317591 0.6337832
vt 0.1317591 0.6337832
vt 0.1237552 0.637249
vt 0.1237552 0.6374398
vt 0.08182083 0.8539346
vt 0.08370988 0.8539346
vt 0.0842893 0.8556402
vt 0.08182083 0.8560694
vt 0.08192152 0.6433164
vt 0.08506811 0.6433164
vt 0.0852201 0.6428338
vt 0.08295971 0.6428338
vt 0.08192152 0.6397876
vt 0.08295971 0.6399823
vt 0.08192152 0.6433164
vt 0.08192152 0.6396828
vt 0.08295971 0.6398775
vt 0.08295971 0.6428338
vt 0.08540314 0.6433164
vt 0.08555514 0.6428338
vt 0.01748963 0.6346615
vt 0.02192625 0.6346615
vt 0.0221357 0.6346615
vt 0.01748963 0.6346615
vt 0.1333761 0.6346615
vt 0.1333761 0.6400421
vt 0.1333761 0.6399813
vt 0.1333761 0.6346615
vt 0.1333761 0.6398513
vt 0.1333761 0.6346615
vt 0.1333761 0.6346615
vt 0.1333761 0.6399121
vt 0.194561 0.6389574
vt 0.1925723 0.6389574
vt 0.1925723 0.6389574
vt 0.1945321 0.6389574
vt 0.08380695 0.8539346
vt 0.08182083 0.8539346
vt 0.08182083 0.8560976
vt 0.08439 0.8556508
vt 0.02258391 0.6346615
vt 0.01748963 0.6346615
vt 0.01748963 0.6346615
vt 0.02237446 0.6346615
vt 0.07892311 0.5963467
vt 0.07797241 0.5963467
vt 0.07788259 0.5963467
vt 0.07892311 0.5963467
vt 0.1412485 0.5830377
vt 0.1333084 0.5820535
vt 0.1333084 0.5822874
vt 0.1240643 0.5832536
vt 0.07649902 0.5938329
vt 0.07892311 0.5938329
vt 0.07892311 0.5938329
vt 0.07640922 0.5938329
vt 0.07892311 0.5938329
vt 0.07671294 0.5938329
vt 0.07680273 0.5938329
vt 0.07892311 0.5938329
vt 0.1238506 0.5832536
vt 0.1333084 0.5822874
vt 0.1333084 0.5820535
vt 0.1410377 0.5830377
vt 0.07818627 0.5963467
vt 0.07892311 0.5963467
vt 0.07892311 0.5963467
vt 0.0782761 0.5963467
vt 0.08555514 0.6428338
vt 0.0852201 0.6428338
vt 0.08506811 0.6433164
vt 0.08540314 0.6433164
vt 0.08439 0.8556508
vt 0.0842893 0.8556402
vt 0.08370988 0.8539346
vt 0.08380695 0.8539346
vt 0.08182083 0.8560976
vt 0.08182083 0.8560694
vt 0.0842893 0.8556402
vt 0.08439 0.8556508
vt 0.08192152 0.6396828
vt 0.08192152 0.6397876
vt 0.08295971 0.6399823
vt 0.08295971 0.6398775
vt 0.07797241 0.5963467
vt 0.07649902 0.5938329
vt 0.07640922 0.5938329
vt 0.07788259 0.5963467
vt 0.07671294 0.5938329
vt 0.07818627 0.5963467
vt 0.0782761 0.5963467
vt 0.07680273 0.5938329
vn 1 0 0
vn 1 0 0
vn 1 0 0
vn 1 0 0
vn 0 0 1
vn 0 0 1
vn 0 0 1
vn 0 0 1
vn 0 0 1
vn 0 0 1
vn 0 0 1
vn 0 0 1
vn 0 0 1
vn 0 0 1
vn 0 0 -1
vn 0 0 -1
vn 0 0 -1
vn 0 0 -1
vn 0 0 -1
vn 0 0 -1
vn 0 1 0
vn 0 1 0
vn 0 1 0
vn 0 1 0
vn -1 0 0
vn -1 0 0
vn -1 0 0
vn -1 0 0
vn -1 0 0
vn -1 0 0
vn -1 0 0
vn -1 0 0
vn 0 -1 0
vn 0 -1 0
vn 0 -1 0
vn 0 -1 0
vn 0 0 -1
vn 0 0 -1
vn 0 0 -1
vn 0 0 -1
vn 0 1 -2.142663E-07
vn 0 1 -2.142663E-07
vn 0 1 -2.142663E-07
vn 0 1 -2.142663E-07
vn 2.748608E-07 1 -4.819476E-06
vn 2.748608E-07 1 -4.819477E-06
vn 2.748608E-07 1 -4.819477E-06
vn 2.748608E-07 1 -4.819476E-06
vn 0 0 -1
vn 0 0 -1
vn 0 0 -1
vn 0 0 -1
vn 0 -1 -1.943431E-06
vn 0 -1 -1.943431E-06
vn 0 -1 -1.943431E-06
vn 0 -1 -1.943431E-06
vn 0 -1 -2.216017E-06
vn 0 -1 -2.216018E-06
vn 0 -1 -2.216018E-06
vn 0 -1 -2.216017E-06
vn 0 0 1
vn 0 0 1
vn 0 0 1
vn 0 0 1
vn -3.955091E-07 1 -3.467475E-06
vn -3.955091E-07 1 -3.467476E-06
vn -3.955091E-07 1 -3.467476E-06
vn -3.955091E-07 1 -3.467475E-06
vn -0.9696133 -0.1419743 0.199232
vn -0.9696133 -0.1419743 0.199232
vn -0.9696133 -0.1419742 0.199232
vn -0.9696133 -0.1419743 0.199232
vn -0.9696131 -0.1419746 0.1992324
vn -0.9696131 -0.1419746 0.1992324
vn -0.9696131 -0.1419746 0.1992324
vn -0.9696131 -0.1419746 0.1992324
vn -0.3711388 0.9198143 0.12727
vn -0.3711389 0.9198143 0.12727
vn -0.3711388 0.9198143 0.12727
vn -0.3711388 0.9198143 0.12727
vn -0.3711394 0.9198143 0.1272679
vn -0.3711394 0.9198143 0.1272679
vn -0.3711394 0.9198143 0.1272679
vn -0.3711394 0.9198143 0.1272679
vn -0.3711396 0.9198145 0.1272665
vn -0.3711396 0.9198145 0.1272665
vn -0.3711396 0.9198144 0.1272665
vn -0.3711396 0.9198145 0.1272665
vn -0.3711392 0.9198151 0.1272635
vn -0.3711392 0.9198151 0.1272635
vn -0.3711392 0.9198151 0.1272635
vn -0.3711392 0.9198151 0.1272635
g DojoWallShard03_0
f 3/3/3 2/2/2 1/1/1
f 4/4/4 3/3/3 1/1/1
f 7/7/7 6/6/6 5/5/5
f 8/8/8 7/7/7 5/5/5
f 11/11/11 10/10/10 9/9/9
f 12/12/12 11/11/11 9/9/9
f 12/12/12 9/9/9 13/13/13
f 14/14/14 12/12/12 13/13/13
f 17/17/17 16/16/16 15/15/15
f 18/18/18 17/17/17 15/15/15
f 18/18/18 15/15/15 19/19/19
f 20/20/20 18/18/18 19/19/19
f 23/23/23 22/22/22 21/21/21
f 24/24/24 23/23/23 21/21/21
f 27/27/27 26/26/26 25/25/25
f 28/28/28 27/27/27 25/25/25
f 31/31/31 30/30/30 29/29/29
f 32/32/32 31/31/31 29/29/29
f 35/35/35 34/34/34 33/33/33
f 36/36/36 35/35/35 33/33/33
f 39/39/39 38/38/38 37/37/37
f 40/40/40 39/39/39 37/37/37
f 43/43/43 42/42/42 41/41/41
f 44/44/44 43/43/43 41/41/41
f 47/47/47 46/46/46 45/45/45
f 48/48/48 47/47/47 45/45/45
f 51/51/51 50/50/50 49/49/49
f 52/52/52 51/51/51 49/49/49
f 55/55/55 54/54/54 53/53/53
f 56/56/56 55/55/55 53/53/53
f 59/59/59 58/58/58 57/57/57
f 60/60/60 59/59/59 57/57/57
f 63/63/63 62/62/62 61/61/61
f 64/64/64 63/63/63 61/61/61
f 67/67/67 66/66/66 65/65/65
f 68/68/68 67/67/67 65/65/65
f 71/71/71 70/70/70 69/69/69
f 72/72/72 71/71/71 69/69/69
f 75/75/75 74/74/74 73/73/73
f 76/76/76 75/75/75 73/73/73
f 79/79/79 78/78/78 77/77/77
f 80/80/80 79/79/79 77/77/77
f 83/83/83 82/82/82 81/81/81
f 84/84/84 83/83/83 81/81/81
f 87/87/87 86/86/86 85/85/85
f 88/88/88 87/87/87 85/85/85
f 91/91/91 90/90/90 89/89/89
f 92/92/92 91/91/91 89/89/89
