g DojoWallShard05
v -0.4988011 -0.5881299 0.0869606
v 0.7021178 -0.5881299 0.08696053
v 0.7171176 -0.5881299 0.1599606
v -0.4988011 -0.5881299 0.1599606
v 0.7366248 -0.7538745 0.1599606
v -0.4988011 -0.7538745 0.1599606
v -0.4988011 -0.5881299 0.1599606
v 0.7171176 -0.5881299 0.1599606
v 0.7263868 -0.7538745 0.08696054
v -0.4988011 -0.7538745 0.0869606
v -0.4988011 -0.7538745 0.1599606
v 0.7366248 -0.7538745 0.1599606
v -0.4988011 -0.7538745 -0.08696052
v 0.6906503 -0.7538745 -0.08696054
v 0.6756506 -0.7538745 -0.1599606
v -0.4988011 -0.7538745 -0.1599606
v 0.6513816 -0.5881299 -0.1599606
v -0.4988011 -0.5881299 -0.1599606
v -0.4988011 -0.7538745 -0.1599606
v 0.6756506 -0.7538745 -0.1599606
v 0.6663812 -0.5881299 -0.08696054
v -0.4988011 -0.5881299 -0.08696052
v -0.4988011 -0.5881299 -0.1599606
v 0.6513816 -0.5881299 -0.1599606
v -0.8038011 1.291613 -0.2395328
v -0.8038011 1.291613 0.2395328
v -0.8038011 -0.8842736 0.2395328
v -0.8038011 -0.9317636 -0.2395328
v -0.8038011 1.291613 0.2395328
v 0.4582283 1.291613 0.2395328
v 0.5028876 0.9866125 0.2395328
v -0.4988011 0.9866125 0.2395328
v -0.8038011 -0.8842736 0.2395328
v -0.4988011 -0.9569714 0.2395328
v -0.8038011 1.291613 -0.2395328
v -0.8038011 -0.9317636 -0.2395328
v -0.4988011 -1.004462 -0.2395328
v -0.4988011 0.9866125 -0.2395328
v 0.3597917 1.291613 -0.2395328
v 0.4044511 0.9866125 -0.2395328
v -0.4988011 0.9866125 0.2395328
v 0.5028876 0.9866125 0.2395328
v 0.4715377 0.9866125 0.08696057
v -0.4988011 0.9866125 0.0869606
v -0.4988011 0.9866125 -0.2395328
v -0.4988011 -1.004462 -0.2395328
v -0.4988011 -0.9893371 -0.08696052
v -0.4988011 0.9866125 -0.08696052
v -0.4988011 -0.9720956 0.0869606
v -0.4988011 0.9866125 0.0869606
v 0.4715377 0.9866125 0.08696057
v 0.8038011 -1.282574 0.08696056
v -0.4988011 -0.9569714 0.2395328
v -0.4988011 0.9866125 0.2395328
v -0.4988011 0.9866125 0.0869606
v -0.4988011 -0.9720956 0.0869606
v 0.4582283 1.291613 0.2395328
v -0.8038011 1.291613 0.2395328
v -0.8038011 1.291613 -0.2395328
v 0.3597917 1.291613 -0.2395328
v 0.4044511 0.9866125 -0.2395328
v -0.4988011 0.9866125 -0.2395328
v -0.4988011 0.9866125 -0.08696052
v 0.4358012 0.9866125 -0.08696055
v 0.4358012 0.9866125 -0.08696055
v -0.4988011 0.9866125 -0.08696052
v -0.4988011 -0.9893371 -0.08696052
v 0.7693881 -1.291613 -0.08696056
v -0.8038011 -0.9317636 -0.2395328
v -0.8038011 -0.8842736 0.2395328
v -0.4988011 -0.9569714 0.2395328
v -0.4988011 -1.004462 -0.2395328
v -0.4988011 -0.9893371 -0.08696052
v -0.4988011 -0.9720956 0.0869606
v 0.8038011 -1.282574 0.08696056
v 0.7693881 -1.291613 -0.08696056
v 0.4715377 0.9866125 0.08696057
v 0.4358012 0.9866125 -0.08696055
v 0.7693881 -1.291613 -0.08696056
v 0.8038011 -1.282574 0.08696056
v 0.6513816 -0.5881299 -0.1599606
v 0.6756506 -0.7538745 -0.1599606
v 0.6906503 -0.7538745 -0.08696054
v 0.6663812 -0.5881299 -0.08696054
v 0.7366248 -0.7538745 0.1599606
v 0.7171176 -0.5881299 0.1599606
v 0.7021178 -0.5881299 0.08696053
v 0.7263868 -0.7538745 0.08696054
v 0.4582283 1.291613 0.2395328
v 0.3597917 1.291613 -0.2395328
v 0.4044511 0.9866125 -0.2395328
v 0.5028876 0.9866125 0.2395328
vt 0.06515497 0.5876182
vt 0.08344209 0.5876182
vt 0.08367056 0.5876182
vt 0.06515497 0.5876182
vt 0.1488532 0.5881827
vt 0.1460548 0.5928783
vt 0.1460548 0.5939939
vt 0.1299353 0.5837989
vt 0.0838117 0.5688056
vt 0.06515497 0.5688056
vt 0.06515497 0.5688056
vt 0.08396757 0.5688056
vt 0.06515497 0.5688056
vt 0.08326745 0.5688056
vt 0.08303905 0.5688056
vt 0.06515497 0.5688056
vt 0.1305461 0.5837989
vt 0.1460548 0.5939939
vt 0.1460548 0.5928783
vt 0.1494123 0.5881827
vt 0.0828979 0.5876182
vt 0.06515497 0.5876182
vt 0.06515497 0.5876182
vt 0.0826695 0.5876182
vt 0.1526087 0.6546328
vt 0.1526087 0.6546328
vt 0.1279735 0.6483672
vt 0.1279735 0.6482304
vt 0.08149161 0.6443014
vt 0.08757567 0.6443014
vt 0.08779097 0.6434646
vt 0.08296198 0.6434646
vt 0.08149161 0.6383317
vt 0.08296198 0.6381323
vt 0.08149161 0.6443014
vt 0.08149161 0.6382015
vt 0.08296198 0.638002
vt 0.08296198 0.6434646
vt 0.0871011 0.6443014
vt 0.08731639 0.6434646
vt 0.200532 0.6537545
vt 0.1938396 0.6537545
vt 0.194049 0.6537545
vt 0.200532 0.6537545
vt 0.1509916 0.6537545
vt 0.1509916 0.648021
vt 0.1509916 0.6480646
vt 0.1509916 0.6537545
vt 0.08898312 0.8594044
vt 0.08898312 0.8616977
vt 0.08634721 0.8616977
vt 0.08544461 0.8590409
vt 0.1509916 0.6481578
vt 0.1509916 0.6537545
vt 0.1509916 0.6537545
vt 0.1509916 0.6481143
vt 0.04862387 0.6448011
vt 0.02342051 0.6448011
vt 0.02342051 0.6448011
vt 0.04925602 0.6448011
vt 0.1944973 0.6537545
vt 0.200532 0.6537545
vt 0.200532 0.6537545
vt 0.1942878 0.6537545
vt 0.08644428 0.8616977
vt 0.08898312 0.8616977
vt 0.08898312 0.8593842
vt 0.08553809 0.8590302
vt 0.08149161 0.6382015
vt 0.08149161 0.6383317
vt 0.08296198 0.6381323
vt 0.08296198 0.638002
vt 0.08898312 0.8593842
vt 0.08898312 0.8594044
vt 0.08544461 0.8590409
vt 0.08553809 0.8590302
vt 0.08634721 0.8616977
vt 0.08644428 0.8616977
vt 0.08553809 0.8590302
vt 0.08544461 0.8590409
vt 0.0826695 0.5876182
vt 0.08303905 0.5688056
vt 0.08326745 0.5688056
vt 0.0828979 0.5876182
vt 0.08396757 0.5688056
vt 0.08367056 0.5876182
vt 0.08344209 0.5876182
vt 0.0838117 0.5688056
vt 0.08757567 0.6443014
vt 0.0871011 0.6443014
vt 0.08731639 0.6434646
vt 0.08779097 0.6434646
vn 0 1 0
vn 0 1 0
vn 0 1 0
vn 0 1 0
vn 0 0 1
vn 0 0 1
vn 0 0 1
vn 0 0 1
vn 0 -1 0
vn 0 -1 0
vn 0 -1 0
vn 0 -1 0
vn 0 -1 -4.52728E-06
vn 0 -1 -4.52728E-06
vn 0 -1 -4.52728E-06
vn 0 -1 -4.52728E-06
vn 0 0 -1
vn 0 0 -1
vn 0 0 -1
vn 0 0 -1
vn 0 1 0
vn 0 1 0
vn 0 1 0
vn 0 1 0
vn -1 0 0
vn -1 0 0
vn -1 0 0
vn -1 0 0
vn 0 0 1
vn 0 0 1
vn 0 0 1
vn 0 0 1
vn 0 0 1
vn 0 0 1
vn 0 0 -1
vn 0 0 -1
vn 0 0 -1
vn 0 0 -1
vn 0 0 -1
vn 0 0 -1
vn 0 -1 -5.19316E-06
vn 0 -1 -5.193159E-06
vn 0 -1 -5.19316E-06
vn 0 -1 -5.19316E-06
vn 1 0 0
vn 1 0 0
vn 1 0 0
vn 1 0 0
vn 0 0 1
vn 0 0 1
vn 0 0 1
vn 0 0 1
vn 1 0 0
vn 1 0 0
vn 1 0 0
vn 1 0 0
vn 0 1 -1.344627E-06
vn 0 1 -1.344627E-06
vn 0 1 -1.344627E-06
vn 0 1 -1.344627E-06
vn 0 -1 0
vn 0 -1 0
vn 0 -1 0
vn 0 -1 0
vn 0 0 -1
vn 0 0 -1
vn 0 0 -1
vn 0 0 -1
vn -0.2307881 -0.9682583 0.09598407
vn -0.230788 -0.9682583 0.09598406
vn -0.2307881 -0.9682583 0.09598407
vn -0.230788 -0.9682583 0.09598406
vn -0.2307864 -0.9682584 0.09598716
vn -0.2307864 -0.9682584 0.09598716
vn -0.2307864 -0.9682583 0.09598717
vn -0.2307864 -0.9682583 0.09598717
vn 0.9696134 0.1419747 -0.1992311
vn 0.9696134 0.1419747 -0.1992312
vn 0.9696134 0.1419747 -0.1992312
vn 0.9696134 0.1419747 -0.1992312
vn 0.969613 0.1419749 -0.1992326
vn 0.969613 0.1419749 -0.1992326
vn 0.969613 0.1419749 -0.1992326
vn 0.969613 0.1419749 -0.1992326
vn 0.9771478 0.1290414 -0.1689099
vn 0.9771477 0.1290414 -0.16891
vn 0.9771478 0.1290414 -0.16891
vn 0.9771477 0.1290414 -0.16891
vn 0.9696131 0.1419749 -0.1992321
vn 0.9696131 0.1419749 -0.1992321
vn 0.9696131 0.1419749 -0.199232
vn 0.9696131 0.1419749 -0.199232
g DojoWallShard05_0
f 3/3/3 2/2/2 1/1/1
f 4/4/4 3/3/3 1/1/1
f 7/7/7 6/6/6 5/5/5
f 8/8/8 7/7/7 5/5/5
f 11/11/11 10/10/10 9/9/9
f 12/12/12 11/11/11 9/9/9
f 15/15/15 14/14/14 13/13/13
f 16/16/16 15/15/15 13/13/13
f 19/19/19 18/18/18 17/17/17
f 20/20/20 19/19/19 17/17/17
f 23/23/23 22/22/22 21/21/21
f 24/24/24 23/23/23 21/21/21
f 27/27/27 26/26/26 25/25/25
f 28/28/28 27/27/27 25/25/25
f 31/31/31 30/30/30 29/29/29
f 32/32/32 31/31/31 29/29/29
f 32/32/32 29/29/29 33/33/33
f 34/34/34 32/32/32 33/33/33
f 37/37/37 36/36/36 35/35/35
f 38/38/38 37/37/37 35/35/35
f 38/38/38 35/35/35 39/39/39
f 40/40/40 38/38/38 39/39/39
f 43/43/43 42/42/42 41/41/41
f 44/44/44 43/43/43 41/41/41
f 47/47/47 46/46/46 45/45/45
f 48/48/48 47/47/47 45/45/45
f 51/51/51 50/50/50 49/49/49
f 52/52/52 51/51/51 49/49/49
f 55/55/55 54/54/54 53/53/53
f 56/56/56 55/55/55 53/53/53
f 59/59/59 58/58/58 57/57/57
f 60/60/60 59/59/59 57/57/57
f 63/63/63 62/62/62 61/61/61
f 64/64/64 63/63/63 61/61/61
f 67/67/67 66/66/66 65/65/65
f 68/68/68 67/67/67 65/65/65
f 71/71/71 70/70/70 69/69/69
f 72/72/72 71/71/71 69/69/69
f 75/75/75 74/74/74 73/73/73
f 76/76/76 75/75/75 73/73/73
f 79/79/79 78/78/78 77/77/77
f 80/80/80 79/79/79 77/77/77
f 83/83/83 82/82/82 81/81/81
f 84/84/84 83/83/83 81/81/81
f 87/87/87 86/86/86 85/85/85
f 88/88/88 87/87/87 85/85/85
f 91/91/91 90/90/90 89/89/89
f 92/92/92 91/91/91 89/89/89
