g Dress
v -1.368504 -0.8821242 -0.3670941
v -0.9129139 -0.1648593 -0.02210974
v -1.51298 -0.8821242 -0.02210968
v -1.869662 -1.75158 -0.02210966
v -1.691125 -1.75158 -0.4404607
v -1.512588 -1.75158 -0.8588119
v -0.8257385 -0.1648593 -0.227414
v -0.4564569 0.05484173 -0.02210977
v -1.224027 -0.8821242 -0.7120785
v -0.8457817 -0.8821242 -0.9252904
v -1.045173 -1.75158 -1.117367
v -0.5777574 -1.75158 -1.375923
v -0.7385629 -0.1648593 -0.4327182
v -0.3692815 0.05484173 -0.227414
v -0.4814588 0.01916363 -0.1378033
v 5.008647E-09 0.2745431 -0.02210977
v -0.141053 0.05484173 -0.3542989
v 0.1410529 0.05484173 -0.354299
v 0.3692814 0.05484173 -0.2274141
v 0.4564569 0.05484173 -0.02210979
v -0.5103344 -0.1648593 -0.5596032
v -0.3198378 0.005891153 -0.346389
v -0.282106 -0.1648593 -0.6864881
v -0.4675367 -0.8821242 -1.138502
v -4.226243E-08 -0.8821242 -1.138502
v 4.226243E-08 -1.75158 -1.375923
v 0.5777575 -1.75158 -1.375923
v -6.339365E-08 -0.1648593 -0.6864882
v -3.724265E-08 -0.002352025 -0.4407771
v 0.2821059 -0.1648593 -0.6864882
v 0.4675366 -0.8821242 -1.138503
v 0.8457816 -0.8821242 -0.9252908
v 1.045173 -1.75158 -1.117367
v 1.512588 -1.75158 -0.8588121
v 0.5103344 -0.1648593 -0.5596032
v 0.3198377 0.005891153 -0.3463891
v 0.7385629 -0.1648593 -0.4327183
v 1.224027 -0.8821242 -0.7120787
v 1.368503 -0.8821242 -0.3670942
v 1.691125 -1.75158 -0.4404609
v 1.869662 -1.75158 -0.02210971
v 1.51298 -0.8821242 -0.02210974
v 0.9129139 -0.1648593 -0.02210979
v 0.8257385 -0.1648593 -0.2274141
v 0.4814588 0.01916325 -0.1378033
v 1.368503 -0.8821242 0.3228746
v 0.9129139 -0.1648593 -0.02210979
v 1.51298 -0.8821242 -0.02210974
v 1.869662 -1.75158 -0.02210971
v 1.691125 -1.75158 0.3962413
v 1.512588 -1.75158 0.8145923
v 0.8257384 -0.1648593 0.1831944
v 0.4564569 0.05484173 -0.02210979
v 1.224027 -0.8821242 0.667859
v 0.8457816 -0.8821242 0.881071
v 1.045173 -1.75158 1.073148
v 0.5777575 -1.75158 1.331703
v 0.7385628 -0.1648593 0.3884986
v 0.3692814 0.05484173 0.1831944
v 0.4814588 0.01916363 0.0935837
v 5.008647E-09 0.2745431 -0.02210977
v 0.1410529 0.05484173 0.3100794
v -0.1410529 0.05484173 0.3100794
v -0.3692814 0.05484173 0.1831945
v -0.4564569 0.05484173 -0.02210977
v 0.5103343 -0.1648593 0.5153835
v 0.3198377 0.005891153 0.3021694
v 0.2821059 -0.1648593 0.6422685
v 0.4675367 -0.8821242 1.094283
v 1.056561E-07 -0.8821242 1.094283
v 1.690497E-07 -1.75158 1.331703
v -0.5777571 -1.75158 1.331703
v 3.169682E-08 -0.1648593 0.6422685
v 2.55345E-08 -0.002352025 0.3965575
v -0.2821059 -0.1648593 0.6422685
v -0.4675365 -0.8821242 1.094283
v -0.8457816 -0.8821242 0.881071
v -1.045173 -1.75158 1.073148
v -1.512588 -1.75158 0.814593
v -0.5103344 -0.1648593 0.5153836
v -0.3198378 0.005891534 0.3021695
v -0.7385629 -0.1648593 0.3884987
v -1.224027 -0.8821242 0.6678591
v -1.368503 -0.8821242 0.3228747
v -1.691125 -1.75158 0.3962417
v -1.869662 -1.75158 -0.02210966
v -1.51298 -0.8821242 -0.02210968
v -0.9129139 -0.1648593 -0.02210974
v -0.8257385 -0.1648593 0.1831945
v -0.4814588 0.01916363 0.09358375
vt 0.08607584 0.4179344
vt 0.1706128 0.7863867
vt 0.0423767 0.4179344
vt -5.960464E-08 -2.980232E-08
vt 0.04774567 -2.980232E-08
vt 0.09549141 -2.980232E-08
vt 0.2020665 0.7863867
vt 0.3353064 0.8931934
vt 0.129775 0.4179344
vt 0.2441808 0.4179344
vt 0.2204914 -2.980232E-08
vt 0.3454915 -2.980232E-08
vt 0.2335201 0.7863867
vt 0.36676 0.8931934
vt 0.3262855 0.8758483
vt 0.5 1
vt 0.4491069 0.8931934
vt 0.5508931 0.8931934
vt 0.6332399 0.8931934
vt 0.6646936 0.8931934
vt 0.3158669 0.7863867
vt 0.3845997 0.8693961
vt 0.3982137 0.7863867
vt 0.3585866 0.4179344
vt 0.5 0.4179344
vt 0.5 -2.980232E-08
vt 0.6545085 -2.980232E-08
vt 0.5 0.7863867
vt 0.5 0.8653886
vt 0.6017863 0.7863867
vt 0.6414133 0.4179344
vt 0.7558191 0.4179344
vt 0.7795085 -2.980232E-08
vt 0.9045085 -2.980232E-08
vt 0.6841331 0.7863867
vt 0.6154002 0.8693961
vt 0.7664798 0.7863867
vt 0.870225 0.4179344
vt 0.9139241 0.4179344
vt 0.9522542 -2.980232E-08
vt 1 -2.980232E-08
vt 0.9576232 0.4179344
vt 0.8293872 0.7863867
vt 0.7979335 0.7863867
vt 0.6737145 0.8758483
vt 0.9139241 0.4179344
vt 0.8293872 0.7863867
vt 0.9576232 0.4179344
vt 1 -2.980232E-08
vt 0.9522542 -2.980232E-08
vt 0.9045085 -2.980232E-08
vt 0.7979335 0.7863867
vt 0.6646936 0.8931934
vt 0.870225 0.4179344
vt 0.7558191 0.4179344
vt 0.7795085 -2.980232E-08
vt 0.6545085 -2.980232E-08
vt 0.7664798 0.7863867
vt 0.6332399 0.8931934
vt 0.6737145 0.8758483
vt 0.5 1
vt 0.5508931 0.8931934
vt 0.4491069 0.8931934
vt 0.3667601 0.8931934
vt 0.3353064 0.8931934
vt 0.6841331 0.7863867
vt 0.6154002 0.8693962
vt 0.6017863 0.7863867
vt 0.6414133 0.4179344
vt 0.5 0.4179344
vt 0.5 -2.980232E-08
vt 0.3454915 -2.980232E-08
vt 0.5 0.7863867
vt 0.5 0.8653886
vt 0.3982137 0.7863867
vt 0.3585867 0.4179344
vt 0.2441809 0.4179344
vt 0.2204915 -2.980232E-08
vt 0.09549153 -2.980232E-08
vt 0.3158669 0.7863867
vt 0.3845998 0.8693962
vt 0.2335202 0.7863867
vt 0.129775 0.4179344
vt 0.08607587 0.4179344
vt 0.04774573 -2.980232E-08
vt -5.960464E-08 -2.980232E-08
vt 0.0423767 0.4179344
vt 0.1706128 0.7863867
vt 0.2020665 0.7863867
vt 0.3262855 0.8758483
vn -0.813086 0.4701009 -0.3433601
vn -0.722551 0.6913177 0
vn -0.8787563 0.4772706 0
vn -0.9257379 0.3781657 0
vn -0.862865 0.3494907 -0.3651305
vn -0.6967279 0.3377012 -0.6328729
vn -0.6795725 0.6753995 -0.2863856
vn -0.4336968 0.9010589 0
vn -0.6523319 0.438327 -0.6183304
vn -0.4442297 0.4138036 -0.7946236
vn -0.4663248 0.2894902 -0.8359046
vn -0.2401932 0.284936 -0.9279648
vn -0.5408273 0.6571938 -0.5249783
vn -0.338665 0.8801274 -0.3326887
vn -0.4265239 0.8861582 -0.1811105
vn 0 1 0
vn -0.1212824 0.8508443 -0.5112284
vn 0.1212823 0.8508446 -0.511228
vn 0.3386648 0.8801274 -0.3326888
vn 0.4336967 0.9010589 0
vn -0.3840571 0.6184754 -0.685557
vn -0.2537036 0.8528706 -0.4563402
vn -0.186412 0.6150891 -0.7661044
vn -0.2226079 0.3907931 -0.8931553
vn 0 0.3760308 -0.9266072
vn 0 0.2634225 -0.9646805
vn 0.2401931 0.2849359 -0.9279649
vn 0 0.6002262 -0.7998303
vn 0 0.8340829 -0.5516391
vn 0.1864118 0.6150892 -0.7661043
vn 0.2226077 0.390793 -0.8931555
vn 0.4483288 0.3942549 -0.8022246
vn 0.4657507 0.2933604 -0.8348749
vn 0.6967281 0.3377012 -0.6328728
vn 0.3766916 0.6368943 -0.6726582
vn 0.2537051 0.8528712 -0.4563379
vn 0.5408273 0.6571937 -0.5249784
vn 0.6523319 0.438327 -0.6183304
vn 0.819458 0.4568169 -0.3461315
vn 0.8619605 0.3521127 -0.3647476
vn 0.9257379 0.3781659 0
vn 0.8787563 0.4772708 0
vn 0.7225511 0.6913176 0
vn 0.6682057 0.688595 -0.2816705
vn 0.4265245 0.8861583 -0.1811084
vn 0.813086 0.4701011 0.3433602
vn 0.7225511 0.6913176 0
vn 0.8787563 0.4772708 0
vn 0.9257379 0.3781659 0
vn 0.8628649 0.3494908 0.3651307
vn 0.6967279 0.3377012 0.6328729
vn 0.6795726 0.6753994 0.2863853
vn 0.4336967 0.9010589 0
vn 0.6523319 0.438327 0.6183304
vn 0.4442297 0.4138036 0.7946236
vn 0.4663247 0.2894901 0.8359047
vn 0.2401931 0.2849359 0.9279649
vn 0.5408272 0.6571937 0.5249783
vn 0.3386649 0.8801273 0.3326892
vn 0.426524 0.8861582 0.1811106
vn 0 1 0
vn 0.1212823 0.8508447 0.5112278
vn -0.121282 0.8508443 0.5112285
vn -0.3386651 0.8801269 0.3326899
vn -0.4336968 0.9010589 0
vn 0.3840572 0.6184754 0.6855568
vn 0.2537038 0.8528706 0.4563399
vn 0.1864119 0.6150892 0.7661043
vn 0.2226078 0.3907929 0.8931555
vn 0 0.3760306 0.9266073
vn 0 0.2634224 0.9646806
vn -0.2401929 0.2849358 0.9279649
vn 0 0.6002262 0.7998304
vn 0 0.8340824 0.55164
vn -0.1864118 0.6150891 0.7661045
vn -0.2226077 0.390793 0.8931555
vn -0.4483283 0.3942549 0.8022249
vn -0.4657501 0.2933606 0.834875
vn -0.6967276 0.3377013 0.6328731
vn -0.3766915 0.6368943 0.6726582
vn -0.2537059 0.8528706 0.4563389
vn -0.5408272 0.6571938 0.5249785
vn -0.6523317 0.4383272 0.6183305
vn -0.8194578 0.4568169 0.3461316
vn -0.8619603 0.3521127 0.3647478
vn -0.9257379 0.3781657 0
vn -0.8787563 0.4772706 0
vn -0.722551 0.6913177 0
vn -0.6682057 0.688595 0.2816703
vn -0.4265248 0.8861582 0.1811082
g Dress_0
f 3/3/3 2/2/2 1/1/1
f 4/4/4 3/3/3 1/1/1
f 5/5/5 4/4/4 1/1/1
f 6/6/6 5/5/5 1/1/1
f 2/2/2 7/7/7 1/1/1
f 2/2/2 8/8/8 7/7/7
f 9/9/9 6/6/6 1/1/1
f 6/6/6 9/9/9 10/10/10
f 11/11/11 6/6/6 10/10/10
f 12/12/12 11/11/11 10/10/10
f 13/13/13 9/9/9 1/1/1
f 7/7/7 13/13/13 1/1/1
f 9/9/9 13/13/13 10/10/10
f 13/13/13 7/7/7 14/14/14
f 8/8/8 15/15/15 7/7/7
f 7/7/7 15/15/15 14/14/14
f 14/14/14 15/15/15 8/8/8
f 16/16/16 14/14/14 8/8/8
f 16/16/16 17/17/17 14/14/14
f 16/16/16 18/18/18 17/17/17
f 16/16/16 19/19/19 18/18/18
f 16/16/16 20/20/20 19/19/19
f 13/13/13 14/14/14 21/21/21
f 13/13/13 21/21/21 10/10/10
f 17/17/17 22/22/22 14/14/14
f 14/14/14 22/22/22 21/21/21
f 21/21/21 22/22/22 17/17/17
f 21/21/21 23/23/23 10/10/10
f 23/23/23 21/21/21 17/17/17
f 23/23/23 24/24/24 10/10/10
f 24/24/24 23/23/23 25/25/25
f 24/24/24 12/12/12 10/10/10
f 12/12/12 24/24/24 25/25/25
f 26/26/26 12/12/12 25/25/25
f 27/27/27 26/26/26 25/25/25
f 23/23/23 17/17/17 28/28/28
f 23/23/23 28/28/28 25/25/25
f 17/17/17 29/29/29 28/28/28
f 18/18/18 29/29/29 17/17/17
f 28/28/28 29/29/29 18/18/18
f 28/28/28 30/30/30 25/25/25
f 30/30/30 28/28/28 18/18/18
f 31/31/31 27/27/27 25/25/25
f 30/30/30 31/31/31 25/25/25
f 27/27/27 31/31/31 32/32/32
f 31/31/31 30/30/30 32/32/32
f 33/33/33 27/27/27 32/32/32
f 34/34/34 33/33/33 32/32/32
f 30/30/30 18/18/18 35/35/35
f 30/30/30 35/35/35 32/32/32
f 18/18/18 36/36/36 35/35/35
f 19/19/19 36/36/36 18/18/18
f 35/35/35 36/36/36 19/19/19
f 35/35/35 37/37/37 32/32/32
f 37/37/37 35/35/35 19/19/19
f 38/38/38 34/34/34 32/32/32
f 37/37/37 38/38/38 32/32/32
f 34/34/34 38/38/38 39/39/39
f 38/38/38 37/37/37 39/39/39
f 40/40/40 34/34/34 39/39/39
f 41/41/41 40/40/40 39/39/39
f 42/42/42 41/41/41 39/39/39
f 43/43/43 42/42/42 39/39/39
f 37/37/37 44/44/44 39/39/39
f 44/44/44 43/43/43 39/39/39
f 37/37/37 19/19/19 44/44/44
f 43/43/43 44/44/44 20/20/20
f 19/19/19 45/45/45 44/44/44
f 44/44/44 45/45/45 20/20/20
f 20/20/20 45/45/45 19/19/19
f 48/48/48 47/47/47 46/46/46
f 49/49/49 48/48/48 46/46/46
f 50/50/50 49/49/49 46/46/46
f 51/51/51 50/50/50 46/46/46
f 47/47/47 52/52/52 46/46/46
f 47/47/47 53/53/53 52/52/52
f 54/54/54 51/51/51 46/46/46
f 51/51/51 54/54/54 55/55/55
f 56/56/56 51/51/51 55/55/55
f 57/57/57 56/56/56 55/55/55
f 58/58/58 54/54/54 46/46/46
f 52/52/52 58/58/58 46/46/46
f 54/54/54 58/58/58 55/55/55
f 58/58/58 52/52/52 59/59/59
f 53/53/53 60/60/60 52/52/52
f 52/52/52 60/60/60 59/59/59
f 59/59/59 60/60/60 53/53/53
f 61/61/61 59/59/59 53/53/53
f 61/61/61 62/62/62 59/59/59
f 61/61/61 63/63/63 62/62/62
f 61/61/61 64/64/64 63/63/63
f 61/61/61 65/65/65 64/64/64
f 58/58/58 59/59/59 66/66/66
f 58/58/58 66/66/66 55/55/55
f 62/62/62 67/67/67 59/59/59
f 59/59/59 67/67/67 66/66/66
f 66/66/66 67/67/67 62/62/62
f 66/66/66 68/68/68 55/55/55
f 68/68/68 66/66/66 62/62/62
f 68/68/68 69/69/69 55/55/55
f 69/69/69 68/68/68 70/70/70
f 69/69/69 57/57/57 55/55/55
f 57/57/57 69/69/69 70/70/70
f 71/71/71 57/57/57 70/70/70
f 72/72/72 71/71/71 70/70/70
f 68/68/68 62/62/62 73/73/73
f 68/68/68 73/73/73 70/70/70
f 62/62/62 74/74/74 73/73/73
f 63/63/63 74/74/74 62/62/62
f 73/73/73 74/74/74 63/63/63
f 73/73/73 75/75/75 70/70/70
f 75/75/75 73/73/73 63/63/63
f 76/76/76 72/72/72 70/70/70
f 75/75/75 76/76/76 70/70/70
f 72/72/72 76/76/76 77/77/77
f 76/76/76 75/75/75 77/77/77
f 78/78/78 72/72/72 77/77/77
f 79/79/79 78/78/78 77/77/77
f 75/75/75 63/63/63 80/80/80
f 75/75/75 80/80/80 77/77/77
f 63/63/63 81/81/81 80/80/80
f 64/64/64 81/81/81 63/63/63
f 80/80/80 81/81/81 64/64/64
f 80/80/80 82/82/82 77/77/77
f 82/82/82 80/80/80 64/64/64
f 83/83/83 79/79/79 77/77/77
f 82/82/82 83/83/83 77/77/77
f 79/79/79 83/83/83 84/84/84
f 83/83/83 82/82/82 84/84/84
f 85/85/85 79/79/79 84/84/84
f 86/86/86 85/85/85 84/84/84
f 87/87/87 86/86/86 84/84/84
f 88/88/88 87/87/87 84/84/84
f 82/82/82 89/89/89 84/84/84
f 89/89/89 88/88/88 84/84/84
f 82/82/82 64/64/64 89/89/89
f 88/88/88 89/89/89 65/65/65
f 64/64/64 90/90/90 89/89/89
f 89/89/89 90/90/90 65/65/65
f 65/65/65 90/90/90 64/64/64
