g ObstacleShatter10
v 0.3916453 0.3672853 0.0006714027
v -0.03636676 0.5622651 0.0006714027
v 0.2662835 0.4243934 0.2724218
v -0.03636676 0.5622651 -0.3836417
v 0.2662835 0.4243934 -0.271079
v -0.339017 0.7001362 -0.271079
v -0.4643788 0.7572449 0.0006714027
v 0.2662835 0.4243934 -0.271079
v -0.03636676 0.5622651 0.0006714027
v 0.3916453 0.3672853 0.0006714027
v -0.339017 0.7001362 0.2724218
v -0.4643788 0.7572449 0.0006714027
v -0.03636676 0.5622651 0.3849845
v 0.2662835 0.4243934 0.2724218
v 0.4515555 0.7428748 -0.02501579
v 0.04774395 0.5667787 -0.02501579
v 0.333282 0.6912971 0.2295206
v 0.04774395 0.5667787 -0.3849846
v 0.3332819 0.6912971 -0.2795521
v -0.2377939 0.4422602 -0.2795521
v -0.3560676 0.3906825 -0.02501579
v 0.3332819 0.6912971 -0.2795521
v 0.04774395 0.5667787 -0.02501579
v 0.4515555 0.7428748 -0.02501579
v -0.2377939 0.4422602 0.2295205
v -0.3560676 0.3906825 -0.02501579
v 0.04774395 0.5667787 0.3349529
v 0.333282 0.6912971 0.2295206
v 0.2675925 0.8419318 0.2295206
v -0.01794548 0.7174134 -0.02501579
v 0.3858662 0.893509 -0.02501579
v 0.2675924 0.8419318 -0.2795521
v -0.01794548 0.7174134 -0.3849846
v -0.3034833 0.5928944 -0.2795521
v -0.421757 0.5413172 -0.02501579
v 0.3858662 0.893509 -0.02501579
v -0.01794548 0.7174134 -0.02501579
v 0.2675924 0.8419318 -0.2795521
v -0.421757 0.5413172 -0.02501579
v -0.3034833 0.5928944 0.2295205
v -0.01794548 0.7174134 0.3349529
v 0.2675925 0.8419318 0.2295206
v -0.339017 0.7001362 -0.271079
v -0.3916453 0.9169062 0.0006714027
v -0.4643788 0.7572449 0.0006714027
v -0.2662835 0.8597987 -0.271079
v -0.03636676 0.5622651 -0.3836417
v 0.03636677 0.7219269 -0.3836417
v 0.2662835 0.4243934 -0.271079
v 0.3390169 0.5840553 -0.271079
v 0.3916453 0.3672853 0.0006714027
v 0.4643788 0.5269471 0.0006714027
v -0.4643788 0.7572449 0.0006714027
v -0.3916453 0.9169062 0.0006714027
v -0.2662835 0.8597987 0.2724218
v -0.339017 0.7001362 0.2724218
v 0.03636677 0.7219269 0.3849845
v -0.03636676 0.5622651 0.3849845
v 0.339017 0.5840553 0.2724218
v 0.2662835 0.4243934 0.2724218
v 0.4643788 0.5269471 0.0006714027
v 0.3916453 0.3672853 0.0006714027
v -0.2662835 0.8597987 -0.271079
v 0.03636677 0.7219269 0.0006714027
v -0.3916453 0.9169062 0.0006714027
v 0.03636677 0.7219269 -0.3836417
v 0.3390169 0.5840553 -0.271079
v 0.4643788 0.5269471 0.0006714027
v -0.3916453 0.9169062 0.0006714027
v 0.03636677 0.7219269 0.0006714027
v -0.2662835 0.8597987 0.2724218
v 0.03636677 0.7219269 0.3849845
v 0.339017 0.5840553 0.2724218
v 0.4643788 0.5269471 0.0006714027
v -0.2377939 0.4422602 -0.2795521
v -0.421757 0.5413172 -0.02501579
v -0.3560676 0.3906825 -0.02501579
v -0.3034833 0.5928944 -0.2795521
v 0.04774395 0.5667787 -0.3849846
v -0.01794548 0.7174134 -0.3849846
v 0.3332819 0.6912971 -0.2795521
v 0.2675924 0.8419318 -0.2795521
v 0.4515555 0.7428748 -0.02501579
v 0.3858662 0.893509 -0.02501579
v -0.3560676 0.3906825 -0.02501579
v -0.421757 0.5413172 -0.02501579
v -0.3034833 0.5928944 0.2295205
v -0.2377939 0.4422602 0.2295205
v -0.01794548 0.7174134 0.3349529
v 0.04774395 0.5667787 0.3349529
v 0.2675925 0.8419318 0.2295206
v 0.333282 0.6912971 0.2295206
v 0.3858662 0.893509 -0.02501579
v 0.4515555 0.7428748 -0.02501579
v -0.2447231 1.323834 -0.2681888
v -0.02477832 1.262814 -0.06729472
v -0.3596306 1.340592 -0.03563598
v 0.01224766 1.296471 -0.3724407
v 0.251036 1.262316 -0.2924745
v 0.3345181 1.245009 -0.07356073
v -0.3596306 1.340592 -0.03563598
v -0.02477832 1.262814 -0.06729472
v -0.2676622 1.330308 0.1854372
v -0.02814533 1.297086 0.2655917
v 0.220327 1.262482 0.159043
v 0.3345181 1.245009 -0.07356073
v 0.251036 1.262316 -0.2924745
v 0.0529575 -1.062281 -0.2621751
v 0.3443556 -1.209693 -0.1799312
v 0.01224766 1.296471 -0.3724407
v -0.2220692 -0.976043 -0.1660806
v -0.2447231 1.323834 -0.2681888
v 0.3345181 1.245009 -0.07356073
v 0.251036 1.262316 -0.2924745
v 0.3443556 -1.209693 -0.1799312
v 0.452833 -1.321016 0.03608023
v 0.220327 1.262482 0.159043
v 0.3345181 1.245009 -0.07356073
v 0.452833 -1.321016 0.03608023
v 0.3420415 -1.340591 0.2531843
v -0.02814533 1.297086 0.2655917
v 0.220327 1.262482 0.159043
v 0.3420415 -1.340591 0.2531843
v 0.07739864 -1.257238 0.3444307
v -0.2676622 1.330308 0.1854372
v -0.1957462 -1.117692 0.2628462
v -0.3596306 1.340592 -0.03563598
v -0.2676622 1.330308 0.1854372
v -0.1957462 -1.117692 0.2628462
v -0.320086 -1.001615 0.05309805
v -0.2447231 1.323834 -0.2681888
v -0.3596306 1.340592 -0.03563598
v -0.320086 -1.001615 0.05309805
v -0.2220692 -0.976043 -0.1660806
v -0.320086 -1.001615 0.05309805
v -0.1957462 -1.117692 0.2628462
v 0.06693508 -1.159988 0.03945548
v -0.2220692 -0.976043 -0.1660806
v 0.07739864 -1.257238 0.3444307
v 0.0529575 -1.062281 -0.2621751
v 0.3420415 -1.340591 0.2531843
v 0.3443556 -1.209693 -0.1799312
v 0.452833 -1.321016 0.03608023
vt 0.1346425 0.6987386
vt 0.1381826 0.6979237
vt 0.1356794 0.6984999
vt 0.1381826 0.6979237
vt 0.1356794 0.6984999
vt 0.1406859 0.6973475
vt 0.1417227 0.6971089
vt 0.1356794 0.6984999
vt 0.1381826 0.6979237
vt 0.1346425 0.6987386
vt 0.1406859 0.6973475
vt 0.1417227 0.6971089
vt 0.1381826 0.6979237
vt 0.1356794 0.6984999
vt 0.1341469 0.6971689
vt 0.1374869 0.6979049
vt 0.1351252 0.6973845
vt 0.1374869 0.6979049
vt 0.1351252 0.6973845
vt 0.1398486 0.6984253
vt 0.1408269 0.6986408
vt 0.1351252 0.6973845
vt 0.1374869 0.6979049
vt 0.1341469 0.6971689
vt 0.1398486 0.6984253
vt 0.1408269 0.6986408
vt 0.1374869 0.6979049
vt 0.1351252 0.6973845
vt 0.03502926 0.6944402
vt 0.03296962 0.6939864
vt 0.03588238 0.6946282
vt 0.03502926 0.6944402
vt 0.03296962 0.6939864
vt 0.03091004 0.6935326
vt 0.03005689 0.6933447
vt 0.03588238 0.6946282
vt 0.03296962 0.6939864
vt 0.03502926 0.6944402
vt 0.03005689 0.6933447
vt 0.03091004 0.6935326
vt 0.03296962 0.6939864
vt 0.03502926 0.6944402
vt 0.08134401 0.6946316
vt 0.08107668 0.6951879
vt 0.08070725 0.6947782
vt 0.08171338 0.6950413
vt 0.08288115 0.6942778
vt 0.08325052 0.6946875
vt 0.0844183 0.693924
vt 0.08478767 0.6943337
vt 0.08505499 0.6937774
vt 0.08542436 0.6941872
vt 0.08070725 0.6947782
vt 0.08107668 0.6951879
vt 0.08171338 0.6950413
vt 0.08134401 0.6946316
vt 0.08325052 0.6946875
vt 0.08288115 0.6942778
vt 0.08478767 0.6943337
vt 0.0844183 0.693924
vt 0.08542436 0.6941872
vt 0.08505499 0.6937774
vt 0.03117836 0.6945054
vt 0.03336141 0.6940029
vt 0.03027412 0.6947135
vt 0.03336141 0.6940029
vt 0.03554446 0.6935004
vt 0.03644869 0.6932923
vt 0.03027412 0.6947135
vt 0.03336141 0.6940029
vt 0.03117836 0.6945054
vt 0.03336141 0.6940029
vt 0.03554446 0.6935004
vt 0.03644869 0.6932923
vt 0.0818581 0.6939698
vt 0.08092374 0.694224
vt 0.0812574 0.6938375
vt 0.08152443 0.6943564
vt 0.08330834 0.6942893
vt 0.08297467 0.6946759
vt 0.08475858 0.6946089
vt 0.08442491 0.6949955
vt 0.08535928 0.6947412
vt 0.08502561 0.6951278
vt 0.0812574 0.6938375
vt 0.08092374 0.694224
vt 0.08152443 0.6943564
vt 0.0818581 0.6939698
vt 0.08297467 0.6946759
vt 0.08330834 0.6942893
vt 0.08442491 0.6949955
vt 0.08475858 0.6946089
vt 0.08502561 0.6951278
vt 0.08535928 0.6947412
vt 0.08205569 0.5905147
vt 0.08324516 0.5903479
vt 0.08143425 0.5905604
vt 0.08344537 0.5904398
vt 0.08473682 0.5903466
vt 0.08518827 0.5902992
vt 0.08143425 0.5905604
vt 0.08324516 0.5903479
vt 0.08193165 0.5905323
vt 0.08322698 0.5904416
vt 0.08457077 0.5903471
vt 0.08518827 0.5902992
vt 0.1504578 0.6566778
vt 0.1485816 0.6455531
vt 0.1513416 0.6448477
vt 0.1481961 0.6568412
vt 0.1459767 0.6459659
vt 0.1457621 0.6569722
vt 0.09514636 0.6565949
vt 0.0943557 0.6566778
vt 0.09523953 0.6448477
vt 0.09626702 0.6443149
vt 0.09406483 0.6566786
vt 0.09514636 0.6565949
vt 0.09626702 0.6443149
vt 0.09521762 0.6442213
vt 0.1478135 0.6568441
vt 0.1501669 0.6566786
vt 0.1513197 0.6442213
vt 0.1488132 0.6446201
vt 0.1455449 0.6570032
vt 0.146226 0.645288
vt 0.08857173 0.6570523
vt 0.08944279 0.6570032
vt 0.09012396 0.645288
vt 0.08894627 0.6458435
vt 0.08966005 0.6569722
vt 0.08857173 0.6570523
vt 0.08894627 0.6458435
vt 0.08987463 0.6459659
vt 0.08506179 0.5835094
vt 0.08456874 0.5874619
vt 0.08352715 0.5832523
vt 0.08467317 0.5793791
vt 0.08348566 0.5889993
vt 0.08358258 0.5775682
vt 0.08243632 0.5872799
vt 0.08242714 0.5791181
vt 0.08199698 0.5831887
vn -0.4145586 -0.9100227 0
vn -0.4145584 -0.9100227 -3.332367E-07
vn -0.4145588 -0.9100226 1.749897E-06
vn -0.4145582 -0.9100227 0
vn -0.4145588 -0.9100226 -1.749897E-06
vn -0.4145581 -0.9100229 1.749898E-06
vn -0.4145585 -0.9100227 -1.528115E-06
vn -0.4145588 -0.9100226 -1.749897E-06
vn -0.4145584 -0.9100227 -3.332367E-07
vn -0.4145586 -0.9100227 0
vn -0.4145581 -0.9100227 -3.499795E-06
vn -0.4145585 -0.9100227 -1.528115E-06
vn -0.4145582 -0.9100227 0
vn -0.4145588 -0.9100226 1.749897E-06
vn 0.3997299 -0.916633 0
vn 0.3997293 -0.9166332 0
vn 0.3997294 -0.9166332 -1.994588E-06
vn 0.3997288 -0.9166334 0
vn 0.3997295 -0.9166332 1.994589E-06
vn 0.3997295 -0.9166332 -1.994589E-06
vn 0.3997299 -0.916633 0
vn 0.3997295 -0.9166332 1.994589E-06
vn 0.3997293 -0.9166332 0
vn 0.3997299 -0.916633 0
vn 0.3997295 -0.9166332 1.994589E-06
vn 0.3997299 -0.916633 0
vn 0.3997288 -0.9166334 0
vn 0.3997294 -0.9166332 -1.994588E-06
vn -0.3997286 0.9166336 0
vn -0.3997295 0.9166332 3.79834E-07
vn -0.3997286 0.9166336 1.741795E-06
vn -0.3997288 0.9166335 1.994589E-06
vn -0.3997297 0.9166331 0
vn -0.3997302 0.9166329 -1.994589E-06
vn -0.39973 0.916633 0
vn -0.3997286 0.9166336 1.741795E-06
vn -0.3997295 0.9166332 3.79834E-07
vn -0.3997288 0.9166335 1.994589E-06
vn -0.39973 0.916633 0
vn -0.3997302 0.9166328 1.994589E-06
vn -0.3997297 0.9166331 0
vn -0.3997286 0.9166336 0
vn -0.5758078 0.2623075 -0.7743644
vn -0.9100227 0.4145583 0
vn -0.9100227 0.4145583 0
vn -0.575808 0.2623076 -0.7743642
vn -4.161988E-07 0 -1
vn -4.994387E-07 1.082117E-07 -1
vn 0.5758092 -0.2623083 -0.7743631
vn 0.575809 -0.2623082 -0.7743632
vn 0.9100227 -0.4145582 -3.259875E-07
vn 0.9100227 -0.4145582 -2.852391E-07
vn -0.9100227 0.4145583 0
vn -0.9100227 0.4145583 0
vn -0.5758083 0.2623077 0.7743639
vn -0.575808 0.2623076 0.7743642
vn 0 -2.746917E-07 1
vn 0 -2.996635E-07 1
vn 0.5758092 -0.2623083 0.7743629
vn 0.5758093 -0.2623084 0.7743629
vn 0.9100227 -0.4145582 -2.852391E-07
vn 0.9100227 -0.4145582 -3.259875E-07
vn 0.4145582 0.9100227 1.749897E-06
vn 0.4145586 0.9100227 0
vn 0.4145576 0.9100232 0
vn 0.414559 0.9100224 0
vn 0.4145589 0.9100226 1.749897E-06
vn 0.4145587 0.9100226 0
vn 0.4145576 0.9100232 0
vn 0.4145586 0.9100227 0
vn 0.4145582 0.9100227 -1.749897E-06
vn 0.4145589 0.9100226 0
vn 0.4145588 0.9100226 -1.749897E-06
vn 0.4145587 0.9100226 0
vn -0.5799925 -0.252926 -0.7743624
vn -0.916633 -0.3997299 1.161159E-07
vn -0.916633 -0.3997298 0
vn -0.5799927 -0.2529261 -0.7743622
vn 6.451816E-07 1.755273E-07 -1
vn 6.641579E-07 1.897594E-07 -1
vn 0.5799904 0.2529249 -0.7743643
vn 0.5799904 0.2529249 -0.7743643
vn 0.9166331 0.3997296 -5.805791E-07
vn 0.9166331 0.3997296 -6.270256E-07
vn -0.916633 -0.3997298 0
vn -0.916633 -0.3997299 1.161159E-07
vn -0.5799926 -0.252926 0.7743624
vn -0.5799924 -0.2529259 0.7743624
vn 7.495497E-07 2.419433E-07 1
vn 7.305734E-07 2.277112E-07 1
vn 0.5799909 0.2529251 0.7743639
vn 0.5799909 0.2529251 0.7743639
vn 0.9166331 0.3997296 -6.270256E-07
vn 0.9166331 0.3997296 -5.805791E-07
vn 0.1962039 0.9771298 0.08198442
vn 0.134684 0.9908674 0.00648267
vn 0.2255778 0.9741967 -0.007439533
vn 0.1250806 0.9843982 0.1237548
vn 0.07255863 0.9935905 0.08667945
vn 0.04959726 0.9987512 0.006029428
vn 0.2255778 0.9741967 -0.007439533
vn 0.134684 0.9908674 0.00648267
vn 0.1959434 0.9779056 -0.07284788
vn 0.1336446 0.9859556 -0.1001539
vn 0.07041743 0.9947094 -0.07479761
vn 0.04959726 0.9987512 0.006029428
vn 0.6056257 -0.01343026 -0.7956364
vn 0.03546484 -0.04279522 -0.9984542
vn 0.7486297 -0.0001892481 -0.6629884
vn -0.07163586 -0.04473156 -0.9964274
vn -0.6492893 -0.04244217 -0.7593564
vn -0.6725414 -0.04173668 -0.7388817
vn 0.9982632 0.04468124 0.03839702
vn 0.6056257 -0.01343026 -0.7956364
vn 0.7486297 -0.0001892481 -0.6629884
vn 0.9878988 0.04927067 0.1470658
vn 0.6448967 0.05625157 0.7621968
vn 0.9982632 0.04468124 0.03839702
vn 0.9878988 0.04927067 0.1470658
vn 0.6872065 0.05722254 0.724205
vn 0.01303009 0.03427998 0.9993273
vn 0.6448967 0.05625157 0.7621968
vn 0.6872065 0.05722254 0.724205
vn 0.1460606 0.03971074 0.9884782
vn -0.6491938 0.007555305 0.7605854
vn -0.517139 0.01255414 0.8558095
vn -0.9998052 -0.01973195 0.0005424112
vn -0.6491938 0.007555305 0.7605854
vn -0.517139 0.01255414 0.8558095
vn -0.9954329 -0.01706318 0.09392716
vn -0.6725414 -0.04173668 -0.7388817
vn -0.9998052 -0.01973195 0.0005424112
vn -0.9954329 -0.01706318 0.09392716
vn -0.6492893 -0.04244217 -0.7593564
vn -0.3727788 -0.8876871 -0.2702732
vn -0.3727794 -0.8876875 -0.2702709
vn -0.3727788 -0.887687 -0.2702734
vn -0.3727786 -0.8876864 -0.2702758
vn -0.3727784 -0.8876868 -0.2702747
vn -0.3727789 -0.887687 -0.2702732
vn -0.3727788 -0.8876875 -0.2702716
vn -0.3727788 -0.8876865 -0.2702751
vn -0.3727794 -0.8876868 -0.2702731
g ObstacleShatter10_0
f 3/3/3 2/2/2 1/1/1
f 5/5/5 2/2/2 4/4/4
f 4/4/4 2/2/2 6/6/6
f 6/6/6 2/2/2 7/7/7
f 10/10/10 9/9/9 8/8/8
f 12/12/12 9/9/9 11/11/11
f 11/11/11 9/9/9 13/13/13
f 13/13/13 9/9/9 14/14/14
f 17/17/17 16/16/16 15/15/15
f 19/19/19 16/16/16 18/18/18
f 18/18/18 16/16/16 20/20/20
f 20/20/20 16/16/16 21/21/21
f 24/24/24 23/23/23 22/22/22
f 26/26/26 23/23/23 25/25/25
f 25/25/25 23/23/23 27/27/27
f 27/27/27 23/23/23 28/28/28
f 31/31/31 30/30/30 29/29/29
f 33/33/33 30/30/30 32/32/32
f 34/34/34 30/30/30 33/33/33
f 35/35/35 30/30/30 34/34/34
f 38/38/38 37/37/37 36/36/36
f 40/40/40 37/37/37 39/39/39
f 41/41/41 37/37/37 40/40/40
f 42/42/42 37/37/37 41/41/41
f 45/45/45 44/44/44 43/43/43
f 44/44/44 46/46/46 43/43/43
f 43/43/43 46/46/46 47/47/47
f 46/46/46 48/48/48 47/47/47
f 47/47/47 48/48/48 49/49/49
f 48/48/48 50/50/50 49/49/49
f 49/49/49 50/50/50 51/51/51
f 50/50/50 52/52/52 51/51/51
f 55/55/55 54/54/54 53/53/53
f 56/56/56 55/55/55 53/53/53
f 57/57/57 55/55/55 56/56/56
f 58/58/58 57/57/57 56/56/56
f 59/59/59 57/57/57 58/58/58
f 60/60/60 59/59/59 58/58/58
f 61/61/61 59/59/59 60/60/60
f 62/62/62 61/61/61 60/60/60
f 65/65/65 64/64/64 63/63/63
f 63/63/63 64/64/64 66/66/66
f 66/66/66 64/64/64 67/67/67
f 67/67/67 64/64/64 68/68/68
f 71/71/71 70/70/70 69/69/69
f 72/72/72 70/70/70 71/71/71
f 73/73/73 70/70/70 72/72/72
f 74/74/74 70/70/70 73/73/73
f 77/77/77 76/76/76 75/75/75
f 76/76/76 78/78/78 75/75/75
f 75/75/75 78/78/78 79/79/79
f 78/78/78 80/80/80 79/79/79
f 79/79/79 80/80/80 81/81/81
f 80/80/80 82/82/82 81/81/81
f 81/81/81 82/82/82 83/83/83
f 82/82/82 84/84/84 83/83/83
f 87/87/87 86/86/86 85/85/85
f 88/88/88 87/87/87 85/85/85
f 89/89/89 87/87/87 88/88/88
f 90/90/90 89/89/89 88/88/88
f 91/91/91 89/89/89 90/90/90
f 92/92/92 91/91/91 90/90/90
f 93/93/93 91/91/91 92/92/92
f 94/94/94 93/93/93 92/92/92
f 97/97/97 96/96/96 95/95/95
f 95/95/95 96/96/96 98/98/98
f 98/98/98 96/96/96 99/99/99
f 99/99/99 96/96/96 100/100/100
f 103/103/103 102/102/102 101/101/101
f 104/104/104 102/102/102 103/103/103
f 105/105/105 102/102/102 104/104/104
f 106/106/106 102/102/102 105/105/105
f 109/109/109 108/108/108 107/107/107
f 108/108/108 110/110/110 107/107/107
f 108/108/108 111/111/111 110/110/110
f 111/111/111 112/112/112 110/110/110
f 115/115/115 114/114/114 113/113/113
f 116/116/116 115/115/115 113/113/113
f 119/119/119 118/118/118 117/117/117
f 120/120/120 119/119/119 117/117/117
f 123/123/123 122/122/122 121/121/121
f 124/124/124 123/123/123 121/121/121
f 124/124/124 121/121/121 125/125/125
f 126/126/126 124/124/124 125/125/125
f 129/129/129 128/128/128 127/127/127
f 130/130/130 129/129/129 127/127/127
f 133/133/133 132/132/132 131/131/131
f 134/134/134 133/133/133 131/131/131
f 137/137/137 136/136/136 135/135/135
f 137/137/137 135/135/135 138/138/138
f 139/139/139 136/136/136 137/137/137
f 137/137/137 138/138/138 140/140/140
f 141/141/141 139/139/139 137/137/137
f 137/137/137 140/140/140 142/142/142
f 143/143/143 141/141/141 137/137/137
f 143/143/143 137/137/137 142/142/142
