g PinkCastleGround
v 40.79058 -7.124855 -39.24683
v -40.79058 1.40172 -39.24683
v -40.79058 -7.124855 -39.24683
v 40.79058 1.40172 -39.24683
v -40.79058 1.401701 77.09226
v 40.79058 1.401701 77.09226
v -40.79058 -7.124874 77.09226
v -40.79058 1.401701 77.09226
v 40.79058 1.401701 77.09226
v 40.79058 -7.124874 77.09226
v 40.79058 -7.124874 77.09226
v 40.79058 1.401701 77.09226
v 40.79058 1.40172 -39.24683
v 40.79058 -7.124855 -39.24683
v -40.79058 -7.124855 -39.24683
v -40.79058 1.40172 -39.24683
v -40.79058 1.401701 77.09226
v -40.79058 -7.124874 77.09226
v -40.79058 -7.124874 77.09226
v 40.79058 -7.124874 77.09226
v 40.79058 -7.124855 -39.24683
v -40.79058 -7.124855 -39.24683
vt 0.2026367 0.8647461
vt 0.2026367 0.8647461
vt 0.2026367 0.8647461
vt 0.2026367 0.8647461
vt 0.2026367 0.8647461
vt 0.2026367 0.8647461
vt 0.2026367 0.8647461
vt 0.2026367 0.8647461
vt 0.2026367 0.8647461
vt 0.2026367 0.8647461
vt 0.2026367 0.8647461
vt 0.2026367 0.8647461
vt 0.2026367 0.8647461
vt 0.2026367 0.8647461
vt 0.2026367 0.8647461
vt 0.2026367 0.8647461
vt 0.2026367 0.8647461
vt 0.2026367 0.8647461
vt 0.2026367 0.8647461
vt 0.2026367 0.8647461
vt 0.2026367 0.8647461
vt 0.2026367 0.8647461
vn 0 0 -1
vn 0.7070313 0.5 -0.5
vn 0 0 -1
vn -0.7070313 0.5 -0.5
vn 0 1 1.788139E-07
vn 0 1 1.788139E-07
vn 0 0 1
vn 0 0 1
vn 0 0 1
vn 0 0 1
vn 1 0 0
vn 1 0 0
vn 1 0 0
vn 1 0 0
vn -1 0 0
vn -1 0 0
vn -1 0 0
vn -1 0 0
vn 0 -1 -1.788139E-07
vn 0 -1 -1.788139E-07
vn 0 -1 -1.788139E-07
vn 0 -1 -1.788139E-07
g PinkCastleGround_0
f 3/3/3 2/2/2 1/1/1
f 2/2/2 4/4/4 1/1/1
f 2/2/2 5/5/5 4/4/4
f 5/5/5 6/6/6 4/4/4
f 9/9/9 8/8/8 7/7/7
f 10/10/10 9/9/9 7/7/7
f 13/13/13 12/12/12 11/11/11
f 14/14/14 13/13/13 11/11/11
f 17/17/17 16/16/16 15/15/15
f 18/18/18 17/17/17 15/15/15
f 21/21/21 20/20/20 19/19/19
f 22/22/22 21/21/21 19/19/19
