g PinkCastleArena
v 11.384 2.026558E-06 -6.925694
v 0 0 0
v 12.69818 2.026558E-06 -9.724052
v 13.72294 1.311302E-06 -4.617143
v 13.10407 2.503395E-06 -12.58005
v 14.42596 8.34465E-07 -2.150112
v 12.53438 2.980232E-06 -15.39959
v 13.62883 3.576279E-07 0.786274
v 10.79689 3.33786E-06 -17.44019
v 13.91449 1.192093E-07 2.691219
v 8.375692 3.457069E-06 -18.18711
v 13.39939 -2.384186E-07 4.335171
v 5.930164 3.33786E-06 -17.44019
v 12.06709 -4.768372E-07 5.811884
v 3.997507 2.980232E-06 -15.26427
v 12.37062 -8.34465E-07 7.140813
v 2.837913 3.218651E-06 -16.68095
v 13.44728 -8.34465E-07 8.539433
v 0.1999328 3.33786E-06 -17.52218
v 13.75379 -1.192093E-06 10.2625
v -2.449926 3.218651E-06 -16.68095
v 13.32353 -1.430511E-06 11.99347
v -3.943707 2.980232E-06 -14.89027
v 12.27925 -1.66893E-06 13.26855
v -6.098542 3.33786E-06 -17.61279
v 10.73863 -1.788139E-06 13.80697
v -8.51011 3.457069E-06 -18.3571
v 8.50355 -2.264977E-06 16.78484
v -10.92383 3.33786E-06 -17.61019
v 5.603998 -2.384186E-06 17.78102
v -12.66988 2.980232E-06 -15.56959
v 4.515068 -2.384186E-06 17.40691
v -13.25838 2.622604E-06 -12.78746
v 2.478569 -2.741814E-06 20.19657
v -12.31733 2.026558E-06 -9.544806
v 0.03568432 -2.980232E-06 21.03585
v -13.52866 1.788139E-06 -8.090012
v -2.406245 -2.741814E-06 20.19689
v -13.79792 1.549721E-06 -6.359035
v -4.45138 -2.384186E-06 17.36399
v -13.28688 1.311302E-06 -4.640697
v -5.665208 -2.384186E-06 17.78102
v -12.00167 1.072884E-06 -3.267208
v -8.747124 -2.264977E-06 17.01093
v -11.92676 5.960464E-07 -0.3627987
v -11.34284 -1.788139E-06 14.64577
v -12.96435 3.576279E-07 1.039459
v -12.35103 -1.430511E-06 11.98673
v -13.22108 1.192093E-07 2.687315
v -12.86017 -1.072884E-06 9.55036
v -12.78944 -2.384186E-07 4.335171
v -12.3815 -7.152557E-07 7.112591
v -11.50004 -4.768372E-07 5.917097
v 2.415926 0.317371 -1.164816
v 1.663707 0.317371 -3.250389
v 4.480525 0.317371 -3.250391
v 4.480525 0.317371 -0.4049568
v 2.415926 0.317371 -5.335961
v 6.545123 0.317371 -1.164816
v 4.480525 0.317371 -6.095821
v 7.29734 0.317371 -3.250389
v 6.545123 0.317371 -5.335961
v -6.587283 0.317371 -8.537189
v -7.497361 0.317371 -8.872136
v -6.587283 0.317371 -9.791458
v -5.677206 0.317371 -8.872136
v -7.828939 0.317371 -9.791458
v -5.345628 0.317371 -9.791458
v -7.497361 0.317371 -10.71078
v -5.677206 0.317371 -10.71078
v -6.587283 0.317371 -11.04573
v -7.32866 0.317371 14.5174
v -8.238737 0.317371 14.18245
v -7.32866 0.317371 13.26313
v -6.418582 0.317371 14.18245
v -8.570315 0.317371 13.26313
v -6.087004 0.317371 13.26313
v -8.238737 0.317371 12.3438
v -6.418582 0.317371 12.3438
v -7.32866 0.317371 12.00886
v 7.330157 0.317371 10.53661
v 6.998579 0.317371 9.617285
v 8.240234 0.317371 9.617285
v 8.240234 0.317371 10.87155
v 7.330157 0.317371 8.697962
v 9.150311 0.317371 10.53661
v 8.240234 0.317371 8.363016
v 9.48189 0.317371 9.617285
v 9.150311 0.317371 8.697962
v -3.251092 0.317371 10.03544
v -5.458024 0.317371 9.379698
v -3.251092 0.317371 7.579902
v -1.044161 0.317371 9.379698
v -6.2621 0.317371 7.579902
v -0.2400852 0.317371 7.579902
v -5.458024 0.317371 5.780107
v -1.044161 0.317371 5.780107
v -3.251092 0.317371 5.124369
v 8.474514 0.02548158 -14.53254
v 8.25662 0.02548158 -15.13666
v 9.07256 0.0254817 -15.13666
v 9.07256 0.02548158 -14.31244
v 8.474514 0.02548158 -15.74079
v 9.670607 0.02548158 -14.53254
v 9.07256 0.02548158 -15.96089
v 9.888499 0.02548158 -15.13666
v 9.670607 0.02548158 -15.74079
v -0.4263175 0.317371 -0.01502037
v -1.024364 0.317371 -0.2351265
v -0.4263175 0.317371 -0.8392487
v 0.1717288 0.317371 -0.2351265
v -1.242257 0.317371 -0.8392487
v 0.3896216 0.317371 -0.8392487
v -1.024364 0.317371 -1.443371
v 0.1717288 0.317371 -1.443371
v -0.4263175 0.317371 -1.663477
v 11.384 2.026558E-06 -6.925694
v 11.8553 2.145767E-06 -7.032428
v 14.05984 1.311302E-06 -4.862248
v 13.72294 1.311302E-06 -4.617143
v 12.69818 2.026558E-06 -9.724052
v 14.80353 8.34465E-07 -2.179758
v 13.06601 2.026558E-06 -9.606608
v 14.42596 8.34465E-07 -2.150112
v 13.10407 2.503395E-06 -12.58005
v 13.99672 3.576279E-07 0.7711163
v 13.49029 2.503395E-06 -12.61208
v 13.62883 3.576279E-07 0.786274
v 12.53438 2.980232E-06 -15.39959
v 14.28389 1.192093E-07 2.687315
v 12.87789 3.099442E-06 -15.61756
v 13.91449 1.192093E-07 2.691219
v 10.79689 3.33786E-06 -17.44019
v 13.6957 -2.384186E-07 4.553133
v 11.00091 3.457069E-06 -17.81771
v 13.39939 -2.384186E-07 4.335171
v 8.375692 3.457069E-06 -18.18711
v 12.45661 -4.768372E-07 5.919004
v 8.389801 3.576279E-06 -18.62303
v 12.06709 -4.768372E-07 5.811884
v 5.930164 3.33786E-06 -17.44019
v 12.6823 -7.152557E-07 6.906609
v 5.754613 3.457069E-06 -17.81771
v 12.37062 -8.34465E-07 7.140813
v 3.997507 2.980232E-06 -15.26427
v 13.77315 -8.34465E-07 8.318251
v 4.016105 3.099442E-06 -15.85976
v 13.44728 -8.34465E-07 8.539433
v 2.837913 3.218651E-06 -16.68095
v 14.11882 -1.192093E-06 10.25877
v 3.032074 3.33786E-06 -17.05848
v 13.75379 -1.192093E-06 10.2625
v 0.1999328 3.33786E-06 -17.52218
v 13.63187 -1.430511E-06 12.2082
v 0.2045911 3.457069E-06 -17.95811
v 13.32353 -1.430511E-06 11.99347
v -2.449926 3.218651E-06 -16.68095
v 12.4538 -1.66893E-06 13.6442
v -2.634929 3.33786E-06 -17.05848
v 12.27925 -1.66893E-06 13.26855
v -3.943707 2.980232E-06 -14.89027
v 10.91293 -1.788139E-06 14.18198
v -3.938781 2.980232E-06 -15.49923
v 10.73863 -1.788139E-06 13.80697
v -6.098542 3.33786E-06 -17.61279
v 8.676807 -2.264977E-06 17.16124
v -5.909319 3.457069E-06 -17.98771
v 8.50355 -2.264977E-06 16.78484
v -8.51011 3.457069E-06 -18.3571
v 5.603998 -2.503395E-06 18.21695
v -8.518345 3.576279E-06 -18.79302
v 5.603998 -2.384186E-06 17.78102
v -10.92383 3.33786E-06 -17.61019
v 4.620265 -2.384186E-06 17.87897
v -11.12192 3.457069E-06 -17.98771
v 4.515068 -2.384186E-06 17.40691
v -12.66988 2.980232E-06 -15.56959
v 2.6542 -2.861023E-06 20.57215
v -13.00742 3.099442E-06 -15.78755
v 2.478569 -2.741814E-06 20.19657
v -13.25838 2.622604E-06 -12.78746
v 0.03568432 -2.980232E-06 21.47178
v -13.64693 2.622604E-06 -12.78207
v 0.03568432 -2.980232E-06 21.03585
v -12.31733 2.026558E-06 -9.544806
v -2.58283 -2.861023E-06 20.57215
v -12.74232 2.026558E-06 -9.663396
v -2.406245 -2.741814E-06 20.19689
v -13.52866 1.788139E-06 -8.090012
v -4.557777 -2.384186E-06 17.83647
v -13.86181 1.907349E-06 -8.304738
v -4.45138 -2.384186E-06 17.36399
v -13.79792 1.549721E-06 -6.359035
v -5.665208 -2.503395E-06 18.21695
v -14.16265 1.549721E-06 -6.355308
v -5.665208 -2.384186E-06 17.78102
v -13.28688 1.311302E-06 -4.640697
v -8.915618 -2.384186E-06 17.38896
v -13.58146 1.192093E-06 -4.414792
v -8.747124 -2.264977E-06 17.01093
v -12.00167 1.072884E-06 -3.267208
v -11.57403 -1.788139E-06 14.94482
v -12.3403 9.536743E-07 -3.092459
v -11.34284 -1.788139E-06 14.64577
v -11.92676 5.960464E-07 -0.3627987
v -12.64546 -1.430511E-06 12.20469
v -12.26879 5.960464E-07 -0.5443783
v -12.35103 -1.430511E-06 11.98673
v -12.96435 3.576279E-07 1.039459
v -13.20015 -1.072884E-06 9.55036
v -13.28049 3.576279E-07 0.8214951
v -12.86017 -1.072884E-06 9.55036
v -13.22108 1.192093E-07 2.687315
v -12.68068 -5.960464E-07 6.896032
v -13.5676 1.192093E-07 2.687315
v -12.3815 -7.152557E-07 7.112591
v -12.78944 -2.384186E-07 4.335171
v -11.9587 -4.768372E-07 5.919004
v -13.07737 -2.384186E-07 4.553133
v -11.50004 -4.768372E-07 5.917097
vt 0.02900696 0.8613281
vt 0.02900696 0.8613281
vt 0.02900696 0.8613281
vt 0.02900696 0.8613281
vt 0.02900696 0.8613281
vt 0.02900696 0.8613281
vt 0.02900696 0.8613281
vt 0.02900696 0.8613281
vt 0.02900696 0.8613281
vt 0.02900696 0.8613281
vt 0.02900696 0.8613281
vt 0.02900696 0.8613281
vt 0.02900696 0.8613281
vt 0.02900696 0.8613281
vt 0.02900696 0.8613281
vt 0.02900696 0.8613281
vt 0.02900696 0.8613281
vt 0.02900696 0.8613281
vt 0.02900696 0.8613281
vt 0.02900696 0.8613281
vt 0.02900696 0.8613281
vt 0.02900696 0.8613281
vt 0.02900696 0.8613281
vt 0.02900696 0.8613281
vt 0.02900696 0.8613281
vt 0.02900696 0.8613281
vt 0.02900696 0.8613281
vt 0.02900696 0.8613281
vt 0.02900696 0.8613281
vt 0.02900696 0.8613281
vt 0.02900696 0.8613281
vt 0.02900696 0.8613281
vt 0.02900696 0.8613281
vt 0.02900696 0.8613281
vt 0.02900696 0.8613281
vt 0.02900696 0.8613281
vt 0.02900696 0.8613281
vt 0.02900696 0.8613281
vt 0.02900696 0.8613281
vt 0.02900696 0.8613281
vt 0.02900696 0.8613281
vt 0.02900696 0.8613281
vt 0.02900696 0.8613281
vt 0.02900696 0.8613281
vt 0.02900696 0.8613281
vt 0.02900696 0.8613281
vt 0.02900696 0.8613281
vt 0.02900696 0.8613281
vt 0.02900696 0.8613281
vt 0.02900696 0.8613281
vt 0.02900696 0.8613281
vt 0.02900696 0.8613281
vt 0.02900696 0.8613281
vt 0.08532715 0.8598633
vt 0.08532715 0.8598633
vt 0.08532715 0.8598633
vt 0.08532715 0.8598633
vt 0.08532715 0.8598633
vt 0.08532715 0.8598633
vt 0.08532715 0.8598633
vt 0.08532715 0.8598633
vt 0.08532715 0.8598633
vt 0.08312988 0.8554688
vt 0.08312988 0.8554688
vt 0.08312988 0.8554688
vt 0.08312988 0.8554688
vt 0.08312988 0.8554688
vt 0.08312988 0.8554688
vt 0.08312988 0.8554688
vt 0.08312988 0.8554688
vt 0.08312988 0.8554688
vt 0.08532715 0.8598633
vt 0.08532715 0.8598633
vt 0.08532715 0.8598633
vt 0.08532715 0.8598633
vt 0.08532715 0.8598633
vt 0.08532715 0.8598633
vt 0.08532715 0.8598633
vt 0.08532715 0.8598633
vt 0.08532715 0.8598633
vt 0.08532715 0.8598633
vt 0.08532715 0.8598633
vt 0.08532715 0.8598633
vt 0.08532715 0.8598633
vt 0.08532715 0.8598633
vt 0.08532715 0.8598633
vt 0.08532715 0.8598633
vt 0.08532715 0.8598633
vt 0.08532715 0.8598633
vt 0.08532715 0.8598633
vt 0.08532715 0.8598633
vt 0.08532715 0.8598633
vt 0.08532715 0.8598633
vt 0.08532715 0.8598633
vt 0.08532715 0.8598633
vt 0.08532715 0.8598633
vt 0.08532715 0.8598633
vt 0.08532715 0.8598633
vt 0.08532715 0.8598633
vt 0.08532715 0.8598633
vt 0.08532715 0.8598633
vt 0.08532715 0.8598633
vt 0.08532715 0.8598633
vt 0.08532715 0.8598633
vt 0.08532715 0.8598633
vt 0.08532715 0.8598633
vt 0.08532715 0.8598633
vt 0.08532715 0.8598633
vt 0.08532715 0.8598633
vt 0.08532715 0.8598633
vt 0.08532715 0.8598633
vt 0.08532715 0.8598633
vt 0.08532715 0.8598633
vt 0.08532715 0.8598633
vt 0.08532715 0.8598633
vt 0.08532715 0.8598633
vt 0.1365967 0.8686523
vt 0.1365967 0.8686523
vt 0.1365967 0.8686523
vt 0.1365967 0.8686523
vt 0.1365967 0.8686523
vt 0.1365967 0.8686523
vt 0.1365967 0.8686523
vt 0.1365967 0.8686523
vt 0.1365967 0.8686523
vt 0.1365967 0.8686523
vt 0.1365967 0.8686523
vt 0.1365967 0.8686523
vt 0.1365967 0.8686523
vt 0.1365967 0.8686523
vt 0.1365967 0.8686523
vt 0.1365967 0.8686523
vt 0.1365967 0.8686523
vt 0.1365967 0.8686523
vt 0.1365967 0.8686523
vt 0.1365967 0.8686523
vt 0.1365967 0.8686523
vt 0.1365967 0.8686523
vt 0.1365967 0.8686523
vt 0.1365967 0.8686523
vt 0.1365967 0.8686523
vt 0.1365967 0.8686523
vt 0.1365967 0.8686523
vt 0.1365967 0.8686523
vt 0.1365967 0.8686523
vt 0.1365967 0.8686523
vt 0.1365967 0.8686523
vt 0.1365967 0.8686523
vt 0.1365967 0.8686523
vt 0.1365967 0.8686523
vt 0.1365967 0.8686523
vt 0.1365967 0.8686523
vt 0.1365967 0.8686523
vt 0.1365967 0.8686523
vt 0.1365967 0.8686523
vt 0.1365967 0.8686523
vt 0.1365967 0.8686523
vt 0.1365967 0.8686523
vt 0.1365967 0.8686523
vt 0.1365967 0.8686523
vt 0.1365967 0.8686523
vt 0.1365967 0.8686523
vt 0.1365967 0.8686523
vt 0.1365967 0.8686523
vt 0.1365967 0.8686523
vt 0.1365967 0.8686523
vt 0.1365967 0.8686523
vt 0.1365967 0.8686523
vt 0.1365967 0.8686523
vt 0.1365967 0.8686523
vt 0.1365967 0.8686523
vt 0.1365967 0.8686523
vt 0.1365967 0.8686523
vt 0.1365967 0.8686523
vt 0.1365967 0.8686523
vt 0.1365967 0.8686523
vt 0.1365967 0.8686523
vt 0.1365967 0.8686523
vt 0.1365967 0.8686523
vt 0.1365967 0.8686523
vt 0.1365967 0.8686523
vt 0.1365967 0.8686523
vt 0.1365967 0.8686523
vt 0.1365967 0.8686523
vt 0.1365967 0.8686523
vt 0.1365967 0.8686523
vt 0.1365967 0.8686523
vt 0.1365967 0.8686523
vt 0.1365967 0.8686523
vt 0.1365967 0.8686523
vt 0.1365967 0.8686523
vt 0.1365967 0.8686523
vt 0.1365967 0.8686523
vt 0.1365967 0.8686523
vt 0.1365967 0.8686523
vt 0.1365967 0.8686523
vt 0.1365967 0.8686523
vt 0.1365967 0.8686523
vt 0.1365967 0.8686523
vt 0.1365967 0.8686523
vt 0.1365967 0.8686523
vt 0.1365967 0.8686523
vt 0.1365967 0.8686523
vt 0.1365967 0.8686523
vt 0.1365967 0.8686523
vt 0.1365967 0.8686523
vt 0.1365967 0.8686523
vt 0.1365967 0.8686523
vt 0.1365967 0.8686523
vt 0.1365967 0.8686523
vt 0.1365967 0.8686523
vt 0.1365967 0.8686523
vt 0.1365967 0.8686523
vt 0.1365967 0.8686523
vt 0.1365967 0.8686523
vt 0.1365967 0.8686523
vt 0.1365967 0.8686523
vt 0.1365967 0.8686523
vt 0.1365967 0.8686523
vt 0.1365967 0.8686523
vn -1.192093E-07 1 0
vn 0 1 1.788139E-07
vn 0 1 0
vn 0 1 2.384186E-07
vn 0 1 1.788139E-07
vn 0 1 1.788139E-07
vn 0 1 2.384186E-07
vn 0 1 1.192093E-07
vn 0 1 2.384186E-07
vn 0 1 1.788139E-07
vn 0 1 2.384186E-07
vn 0 1 1.788139E-07
vn 0 1 2.384186E-07
vn 0 1 2.384186E-07
vn 0 1 1.788139E-07
vn 0 1 0
vn 0 1 2.384186E-07
vn 0 1 1.788139E-07
vn 0 1 2.384186E-07
vn 0 1 1.788139E-07
vn 0 1 1.788139E-07
vn 0 1 1.192093E-07
vn 0 1 1.788139E-07
vn 0 1 1.192093E-07
vn 0 1 1.788139E-07
vn 0 1 1.192093E-07
vn 0 1 2.384186E-07
vn 0 1 1.192093E-07
vn 0 1 2.384186E-07
vn 0 1 1.192093E-07
vn 0 1 1.788139E-07
vn 0 1 1.192093E-07
vn 0 1 1.788139E-07
vn 0 1 1.192093E-07
vn 0 1 1.788139E-07
vn 0 1 1.192093E-07
vn 0 1 1.788139E-07
vn 0 1 1.192093E-07
vn 0 1 1.788139E-07
vn 0 1 1.192093E-07
vn 0 1 1.788139E-07
vn 0 1 1.788139E-07
vn 0 1 1.788139E-07
vn 0 1 1.788139E-07
vn 0 1 1.788139E-07
vn 0 1 1.192093E-07
vn 0 1 1.192093E-07
vn 0 1 1.192093E-07
vn 0 1 1.788139E-07
vn 0 1 1.788139E-07
vn 0 1 1.788139E-07
vn 0 1 1.788139E-07
vn 0 1 1.788139E-07
vn 0 1 0
vn 0 1 0
vn 0 1 0
vn 0 1 0
vn 0 1 0
vn 0 1 0
vn 0 1 0
vn 0 1 0
vn 0 1 0
vn 0 1 0
vn 0 1 0
vn 0 1 0
vn 0 1 0
vn 0 1 0
vn 0 1 0
vn 0 1 0
vn 0 1 0
vn 0 1 0
vn 0 1 0
vn 0 1 0
vn 0 1 0
vn 0 1 0
vn 0 1 0
vn 0 1 0
vn 0 1 0
vn 0 1 0
vn 0 1 0
vn 0 1 0
vn 0 1 0
vn 0 1 0
vn 0 1 0
vn 0 1 0
vn 0 1 0
vn 0 1 0
vn 0 1 0
vn 0 1 0
vn 0 1 0
vn 0 1 0
vn 0 1 0
vn 0 1 0
vn 0 1 0
vn 0 1 0
vn 0 1 0
vn 0 1 0
vn 0 1 0
vn -1.192093E-07 1 0
vn -1.192093E-07 1 0
vn 0 1 1.192093E-07
vn 0 1 1.192093E-07
vn 0 1 -1.192093E-07
vn 0 1 1.192093E-07
vn 0 1 -1.192093E-07
vn 1.192093E-07 1 0
vn 1.192093E-07 1 0
vn 0 1 0
vn 0 1 0
vn 0 1 0
vn 0 1 0
vn 0 1 0
vn 0 1 0
vn 0 1 0
vn 0 1 0
vn 0 1 0
vn -1.192093E-07 1 0
vn 0 1 1.192093E-07
vn 0 1 2.384186E-07
vn 0 1 2.384186E-07
vn 0 1 0
vn 0 1 1.788139E-07
vn 0 1 0
vn 0 1 1.788139E-07
vn 0 1 1.788139E-07
vn 0 1 1.192093E-07
vn 0 1 1.788139E-07
vn 0 1 1.192093E-07
vn 0 1 2.384186E-07
vn 0 1 1.788139E-07
vn -1.192093E-07 1 2.384186E-07
vn 0 1 1.788139E-07
vn 0 1 2.384186E-07
vn 0 1 1.192093E-07
vn 0 1 2.980232E-07
vn 0 1 1.788139E-07
vn 0 1 2.384186E-07
vn 0 1 1.788139E-07
vn 0 1 2.980232E-07
vn 0 1 2.384186E-07
vn 0 1 2.384186E-07
vn -1.192093E-07 1 2.384186E-07
vn 0 1 2.384186E-07
vn 0 1 0
vn 0 1 1.788139E-07
vn 0 1 1.192093E-07
vn 0 1 2.384186E-07
vn 0 1 1.788139E-07
vn 0 1 2.384186E-07
vn 0 1 1.788139E-07
vn 0 1 2.384186E-07
vn 0 1 1.788139E-07
vn 0 1 2.384186E-07
vn 0 1 1.192093E-07
vn 0 1 2.980232E-07
vn 0 1 1.192093E-07
vn 0 1 1.788139E-07
vn 0 1 0
vn 0 1 2.384186E-07
vn 0 1 1.192093E-07
vn 0 1 1.788139E-07
vn -1.192093E-07 1 0
vn 0 1 1.192093E-07
vn 0 1 1.192093E-07
vn 0 1 1.788139E-07
vn 0 1 1.192093E-07
vn 0 1 2.384186E-07
vn 0 1 1.192093E-07
vn 0 1 2.384186E-07
vn 0 1 1.192093E-07
vn 0 1 2.980232E-07
vn 0 1 1.192093E-07
vn 0 1 2.384186E-07
vn 0 1 1.192093E-07
vn 0 1 2.980232E-07
vn 0 1 1.192093E-07
vn 0 1 1.788139E-07
vn 0 1 1.192093E-07
vn 1.192093E-07 1 2.384186E-07
vn 0 1 1.192093E-07
vn 0 1 1.788139E-07
vn 0 1 1.788139E-07
vn 0 1 1.788139E-07
vn 0 1 1.192093E-07
vn 0 1 1.788139E-07
vn 0 1 1.192093E-07
vn 0 1 1.788139E-07
vn 0 1 1.192093E-07
vn 0 1 1.788139E-07
vn 0 1 1.192093E-07
vn 0 1 1.788139E-07
vn 0 1 1.192093E-07
vn 0 1 1.788139E-07
vn 0 1 2.384186E-07
vn 0 1 1.788139E-07
vn 0 1 1.788139E-07
vn 0 1 1.788139E-07
vn 0 1 2.384186E-07
vn -1.192093E-07 1 2.980232E-07
vn 0 1 1.788139E-07
vn 0 1 1.788139E-07
vn 0 1 1.788139E-07
vn -1.788139E-07 1 2.384186E-07
vn 0 1 1.192093E-07
vn 0 1 1.788139E-07
vn 0 1 1.192093E-07
vn -1.192093E-07 1 1.192093E-07
vn 0 1 1.192093E-07
vn 0 1 1.192093E-07
vn 0 1 1.788139E-07
vn 0 1 1.192093E-07
vn 0 1 1.788139E-07
vn 0 1 1.788139E-07
vn 1.192093E-07 1 2.384186E-07
vn 0 1 1.788139E-07
vn 0 1 1.788139E-07
vn 0 1 1.788139E-07
vn 0 1 1.788139E-07
vn 0 1 1.788139E-07
vn 0 1 1.788139E-07
g PinkCastleArena_0
f 3/3/3 2/2/2 1/1/1
f 1/1/1 2/2/2 4/4/4
f 5/5/5 2/2/2 3/3/3
f 4/4/4 2/2/2 6/6/6
f 7/7/7 2/2/2 5/5/5
f 6/6/6 2/2/2 8/8/8
f 9/9/9 2/2/2 7/7/7
f 8/8/8 2/2/2 10/10/10
f 11/11/11 2/2/2 9/9/9
f 10/10/10 2/2/2 12/12/12
f 13/13/13 2/2/2 11/11/11
f 12/12/12 2/2/2 14/14/14
f 15/15/15 2/2/2 13/13/13
f 14/14/14 2/2/2 16/16/16
f 17/17/17 2/2/2 15/15/15
f 16/16/16 2/2/2 18/18/18
f 19/19/19 2/2/2 17/17/17
f 18/18/18 2/2/2 20/20/20
f 21/21/21 2/2/2 19/19/19
f 20/20/20 2/2/2 22/22/22
f 23/23/23 2/2/2 21/21/21
f 22/22/22 2/2/2 24/24/24
f 25/25/25 2/2/2 23/23/23
f 24/24/24 2/2/2 26/26/26
f 27/27/27 2/2/2 25/25/25
f 26/26/26 2/2/2 28/28/28
f 29/29/29 2/2/2 27/27/27
f 28/28/28 2/2/2 30/30/30
f 31/31/31 2/2/2 29/29/29
f 30/30/30 2/2/2 32/32/32
f 33/33/33 2/2/2 31/31/31
f 32/32/32 2/2/2 34/34/34
f 35/35/35 2/2/2 33/33/33
f 34/34/34 2/2/2 36/36/36
f 37/37/37 2/2/2 35/35/35
f 36/36/36 2/2/2 38/38/38
f 39/39/39 2/2/2 37/37/37
f 38/38/38 2/2/2 40/40/40
f 41/41/41 2/2/2 39/39/39
f 40/40/40 2/2/2 42/42/42
f 43/43/43 2/2/2 41/41/41
f 42/42/42 2/2/2 44/44/44
f 45/45/45 2/2/2 43/43/43
f 44/44/44 2/2/2 46/46/46
f 47/47/47 2/2/2 45/45/45
f 46/46/46 2/2/2 48/48/48
f 49/49/49 2/2/2 47/47/47
f 48/48/48 2/2/2 50/50/50
f 51/51/51 2/2/2 49/49/49
f 50/50/50 2/2/2 52/52/52
f 53/53/53 2/2/2 51/51/51
f 52/52/52 2/2/2 53/53/53
f 56/56/56 55/55/55 54/54/54
f 56/56/56 54/54/54 57/57/57
f 56/56/56 58/58/58 55/55/55
f 56/56/56 57/57/57 59/59/59
f 56/56/56 60/60/60 58/58/58
f 56/56/56 59/59/59 61/61/61
f 56/56/56 62/62/62 60/60/60
f 56/56/56 61/61/61 62/62/62
f 65/65/65 64/64/64 63/63/63
f 65/65/65 63/63/63 66/66/66
f 65/65/65 67/67/67 64/64/64
f 65/65/65 66/66/66 68/68/68
f 65/65/65 69/69/69 67/67/67
f 65/65/65 68/68/68 70/70/70
f 65/65/65 71/71/71 69/69/69
f 65/65/65 70/70/70 71/71/71
f 74/74/74 73/73/73 72/72/72
f 74/74/74 72/72/72 75/75/75
f 74/74/74 76/76/76 73/73/73
f 74/74/74 75/75/75 77/77/77
f 74/74/74 78/78/78 76/76/76
f 74/74/74 77/77/77 79/79/79
f 74/74/74 80/80/80 78/78/78
f 74/74/74 79/79/79 80/80/80
f 83/83/83 82/82/82 81/81/81
f 83/83/83 81/81/81 84/84/84
f 83/83/83 85/85/85 82/82/82
f 83/83/83 84/84/84 86/86/86
f 83/83/83 87/87/87 85/85/85
f 83/83/83 86/86/86 88/88/88
f 83/83/83 89/89/89 87/87/87
f 83/83/83 88/88/88 89/89/89
f 92/92/92 91/91/91 90/90/90
f 92/92/92 90/90/90 93/93/93
f 92/92/92 94/94/94 91/91/91
f 92/92/92 93/93/93 95/95/95
f 92/92/92 96/96/96 94/94/94
f 92/92/92 95/95/95 97/97/97
f 92/92/92 98/98/98 96/96/96
f 92/92/92 97/97/97 98/98/98
f 101/101/101 100/100/100 99/99/99
f 101/101/101 99/99/99 102/102/102
f 101/101/101 103/103/103 100/100/100
f 101/101/101 102/102/102 104/104/104
f 101/101/101 105/105/105 103/103/103
f 101/101/101 104/104/104 106/106/106
f 101/101/101 107/107/107 105/105/105
f 101/101/101 106/106/106 107/107/107
f 110/110/110 109/109/109 108/108/108
f 110/110/110 108/108/108 111/111/111
f 110/110/110 112/112/112 109/109/109
f 110/110/110 111/111/111 113/113/113
f 110/110/110 114/114/114 112/112/112
f 110/110/110 113/113/113 115/115/115
f 110/110/110 116/116/116 114/114/114
f 110/110/110 115/115/115 116/116/116
f 119/119/119 118/118/118 117/117/117
f 120/120/120 119/119/119 117/117/117
f 117/117/117 118/118/118 121/121/121
f 122/122/122 119/119/119 120/120/120
f 118/118/118 123/123/123 121/121/121
f 124/124/124 122/122/122 120/120/120
f 121/121/121 123/123/123 125/125/125
f 126/126/126 122/122/122 124/124/124
f 123/123/123 127/127/127 125/125/125
f 128/128/128 126/126/126 124/124/124
f 125/125/125 127/127/127 129/129/129
f 130/130/130 126/126/126 128/128/128
f 127/127/127 131/131/131 129/129/129
f 132/132/132 130/130/130 128/128/128
f 129/129/129 131/131/131 133/133/133
f 134/134/134 130/130/130 132/132/132
f 131/131/131 135/135/135 133/133/133
f 136/136/136 134/134/134 132/132/132
f 133/133/133 135/135/135 137/137/137
f 138/138/138 134/134/134 136/136/136
f 135/135/135 139/139/139 137/137/137
f 140/140/140 138/138/138 136/136/136
f 137/137/137 139/139/139 141/141/141
f 142/142/142 138/138/138 140/140/140
f 139/139/139 143/143/143 141/141/141
f 144/144/144 142/142/142 140/140/140
f 141/141/141 143/143/143 145/145/145
f 146/146/146 142/142/142 144/144/144
f 143/143/143 147/147/147 145/145/145
f 148/148/148 146/146/146 144/144/144
f 145/145/145 147/147/147 149/149/149
f 150/150/150 146/146/146 148/148/148
f 147/147/147 151/151/151 149/149/149
f 152/152/152 150/150/150 148/148/148
f 149/149/149 151/151/151 153/153/153
f 154/154/154 150/150/150 152/152/152
f 151/151/151 155/155/155 153/153/153
f 156/156/156 154/154/154 152/152/152
f 153/153/153 155/155/155 157/157/157
f 158/158/158 154/154/154 156/156/156
f 155/155/155 159/159/159 157/157/157
f 160/160/160 158/158/158 156/156/156
f 157/157/157 159/159/159 161/161/161
f 162/162/162 158/158/158 160/160/160
f 159/159/159 163/163/163 161/161/161
f 164/164/164 162/162/162 160/160/160
f 161/161/161 163/163/163 165/165/165
f 166/166/166 162/162/162 164/164/164
f 163/163/163 167/167/167 165/165/165
f 168/168/168 166/166/166 164/164/164
f 165/165/165 167/167/167 169/169/169
f 170/170/170 166/166/166 168/168/168
f 167/167/167 171/171/171 169/169/169
f 172/172/172 170/170/170 168/168/168
f 169/169/169 171/171/171 173/173/173
f 174/174/174 170/170/170 172/172/172
f 171/171/171 175/175/175 173/173/173
f 176/176/176 174/174/174 172/172/172
f 173/173/173 175/175/175 177/177/177
f 178/178/178 174/174/174 176/176/176
f 175/175/175 179/179/179 177/177/177
f 180/180/180 178/178/178 176/176/176
f 177/177/177 179/179/179 181/181/181
f 182/182/182 178/178/178 180/180/180
f 179/179/179 183/183/183 181/181/181
f 184/184/184 182/182/182 180/180/180
f 181/181/181 183/183/183 185/185/185
f 186/186/186 182/182/182 184/184/184
f 183/183/183 187/187/187 185/185/185
f 188/188/188 186/186/186 184/184/184
f 185/185/185 187/187/187 189/189/189
f 190/190/190 186/186/186 188/188/188
f 187/187/187 191/191/191 189/189/189
f 192/192/192 190/190/190 188/188/188
f 189/189/189 191/191/191 193/193/193
f 194/194/194 190/190/190 192/192/192
f 191/191/191 195/195/195 193/193/193
f 196/196/196 194/194/194 192/192/192
f 193/193/193 195/195/195 197/197/197
f 198/198/198 194/194/194 196/196/196
f 195/195/195 199/199/199 197/197/197
f 200/200/200 198/198/198 196/196/196
f 197/197/197 199/199/199 201/201/201
f 202/202/202 198/198/198 200/200/200
f 199/199/199 203/203/203 201/201/201
f 204/204/204 202/202/202 200/200/200
f 201/201/201 203/203/203 205/205/205
f 206/206/206 202/202/202 204/204/204
f 203/203/203 207/207/207 205/205/205
f 208/208/208 206/206/206 204/204/204
f 205/205/205 207/207/207 209/209/209
f 210/210/210 206/206/206 208/208/208
f 207/207/207 211/211/211 209/209/209
f 212/212/212 210/210/210 208/208/208
f 209/209/209 211/211/211 213/213/213
f 214/214/214 210/210/210 212/212/212
f 211/211/211 215/215/215 213/213/213
f 216/216/216 214/214/214 212/212/212
f 213/213/213 215/215/215 217/217/217
f 218/218/218 214/214/214 216/216/216
f 215/215/215 219/219/219 217/217/217
f 220/220/220 218/218/218 216/216/216
f 217/217/217 219/219/219 220/220/220
f 219/219/219 218/218/218 220/220/220
