g PlankWheel
v 0 0.6846057 -0.1274566
v 0.2970393 0.6168084 -0.1274566
v 0.2970393 0.6168084 0.1274567
v 0 0.6846057 0.1274567
v 0.2970393 0.6168084 -0.1274566
v 0.5352463 0.4268447 -0.1274566
v 0.5352463 0.4268447 0.1274567
v 0.2970393 0.6168084 0.1274567
v 0.5352463 0.4268447 -0.1274566
v 0.6674412 0.1523391 -0.1274567
v 0.6674412 0.1523391 0.1274567
v 0.5352463 0.4268447 0.1274567
v 0.6674412 0.1523391 -0.1274567
v 0.6548417 -0.1523391 -0.1274567
v 0.6548417 -0.1523391 0.1274567
v 0.6674412 0.1523391 0.1274567
v 0.6548417 -0.1523391 -0.1274567
v 0.5352463 -0.4268447 -0.1274567
v 0.5352463 -0.4268447 0.1274566
v 0.6548417 -0.1523391 0.1274567
v 0.5352463 -0.4268447 -0.1274567
v 0.2970393 -0.6168084 -0.1274567
v 0.2970393 -0.6168084 0.1274566
v 0.5352463 -0.4268447 0.1274566
v 0.2970393 -0.6168084 -0.1274567
v 1.033726E-07 -0.6846057 -0.1274567
v 1.033726E-07 -0.6846057 0.1274566
v 0.2970393 -0.6168084 0.1274566
v 1.033726E-07 -0.6846057 -0.1274567
v -0.2970392 -0.6168085 -0.1274567
v -0.2970392 -0.6168085 0.1274566
v 1.033726E-07 -0.6846057 0.1274566
v -0.2970392 -0.6168085 -0.1274567
v -0.5352462 -0.4268448 -0.1274567
v -0.5352462 -0.4268448 0.1274566
v -0.2970392 -0.6168085 0.1274566
v -0.5352462 -0.4268448 -0.1274567
v -0.6674412 -0.1523392 -0.1274567
v -0.6674412 -0.1523392 0.1274567
v -0.5352462 -0.4268448 0.1274566
v -0.6674412 -0.1523392 -0.1274567
v -0.6674412 0.1523392 -0.1274567
v -0.6674412 0.1523392 0.1274567
v -0.6674412 -0.1523392 0.1274567
v -0.6674412 0.1523392 -0.1274567
v -0.5262726 0.4208406 -0.1274566
v -0.5262726 0.4208406 0.1274567
v -0.6674412 0.1523392 0.1274567
v -0.5262726 0.4208406 -0.1274566
v -0.2880654 0.6108044 -0.1274566
v -0.2880654 0.6108044 0.1274567
v -0.5262726 0.4208406 0.1274567
v -0.2880654 0.6108044 -0.1274566
v 0 0.6846057 -0.1274566
v 0 0.6846057 0.1274567
v -0.2880654 0.6108044 0.1274567
v -0.1005813 0.2132382 -0.1274566
v -0.1005813 0.2132382 0.1274567
v 0.0002483281 0.2390704 0.1274567
v 0.0002483201 0.2390704 -0.1274566
v 0.0002483201 0.2390704 -0.1274566
v 0.0002483281 0.2390704 0.1274567
v 0.104219 0.2153398 0.1274567
v 0.104219 0.2153398 -0.1274566
v -0.1839593 0.1467465 -0.1274567
v -0.1839593 0.1467465 0.1274567
v -0.1005813 0.2132382 0.1274567
v -0.1005813 0.2132382 -0.1274566
v -0.2333716 0.05276473 -0.1274567
v -0.2333716 0.05276473 0.1274567
v -0.1839593 0.1467465 0.1274567
v -0.1839593 0.1467465 -0.1274567
v -0.2333716 -0.05387977 -0.1274567
v -0.2333716 -0.05387978 0.1274567
v -0.2333716 0.05276473 0.1274567
v -0.2333716 0.05276473 -0.1274567
v -0.1871003 -0.1499632 -0.1274567
v -0.1871003 -0.1499632 0.1274567
v -0.2333716 -0.05387978 0.1274567
v -0.2333716 -0.05387977 -0.1274567
v -0.1037223 -0.2164548 -0.1274567
v -0.1037223 -0.2164548 0.1274566
v -0.1871003 -0.1499632 0.1274567
v -0.1871003 -0.1499632 -0.1274567
v 0.0002483563 -0.2401855 -0.1274567
v 0.0002483643 -0.2401855 0.1274566
v -0.1037223 -0.2164548 0.1274566
v -0.1037223 -0.2164548 -0.1274567
v 0.104219 -0.2164548 -0.1274567
v 0.104219 -0.2164548 0.1274566
v 0.0002483643 -0.2401855 0.1274566
v 0.0002483563 -0.2401855 -0.1274567
v 0.187597 -0.1499631 -0.1274567
v 0.187597 -0.1499631 0.1274567
v 0.104219 -0.2164548 0.1274566
v 0.104219 -0.2164548 -0.1274567
v 0.2294581 -0.05387977 -0.1274567
v 0.2294581 -0.05387976 0.1274567
v 0.187597 -0.1499631 0.1274567
v 0.187597 -0.1499631 -0.1274567
v 0.2338683 0.05276468 -0.1274567
v 0.2338683 0.05276468 0.1274567
v 0.2294581 -0.05387976 0.1274567
v 0.2294581 -0.05387977 -0.1274567
v 0.187597 0.1488481 -0.1274567
v 0.187597 0.1488481 0.1274567
v 0.2338683 0.05276468 0.1274567
v 0.2338683 0.05276468 -0.1274567
v 0.104219 0.2153398 -0.1274566
v 0.104219 0.2153398 0.1274567
v 0.187597 0.1488481 0.1274567
v 0.187597 0.1488481 -0.1274567
v 0.5352463 0.4268447 -0.1274566
v 0.187597 0.1488481 -0.1274567
v 0.2338683 0.05276468 -0.1274567
v 0.6674412 0.1523391 -0.1274567
v 0.2970393 0.6168084 -0.1274566
v 0.2294581 -0.05387977 -0.1274567
v 0.104219 0.2153398 -0.1274566
v 0.6548417 -0.1523391 -0.1274567
v 0 0.6846057 -0.1274566
v 0.187597 -0.1499631 -0.1274567
v 0.0002483201 0.2390704 -0.1274566
v 0.5352463 -0.4268447 -0.1274567
v -0.2880654 0.6108044 -0.1274566
v 0.104219 -0.2164548 -0.1274567
v -0.1005813 0.2132382 -0.1274566
v 0.2970393 -0.6168084 -0.1274567
v -0.5262726 0.4208406 -0.1274566
v 0.0002483563 -0.2401855 -0.1274567
v -0.1839593 0.1467465 -0.1274567
v 1.033726E-07 -0.6846057 -0.1274567
v -0.6674412 0.1523392 -0.1274567
v -0.1037223 -0.2164548 -0.1274567
v -0.2333716 0.05276473 -0.1274567
v -0.2970392 -0.6168085 -0.1274567
v -0.6674412 -0.1523392 -0.1274567
v -0.1871003 -0.1499632 -0.1274567
v -0.2333716 -0.05387977 -0.1274567
v -0.5352462 -0.4268448 -0.1274567
v 0.6674412 0.1523391 0.1274567
v 0.2338683 0.05276468 0.1274567
v 0.187597 0.1488481 0.1274567
v 0.5352463 0.4268447 0.1274567
v 0.6548417 -0.1523391 0.1274567
v 0.104219 0.2153398 0.1274567
v 0.2294581 -0.05387976 0.1274567
v 0.2970393 0.6168084 0.1274567
v 0.5352463 -0.4268447 0.1274566
v 0.0002483281 0.2390704 0.1274567
v 0.187597 -0.1499631 0.1274567
v 0 0.6846057 0.1274567
v 0.2970393 -0.6168084 0.1274566
v -0.1005813 0.2132382 0.1274567
v 0.104219 -0.2164548 0.1274566
v -0.2880654 0.6108044 0.1274567
v 1.033726E-07 -0.6846057 0.1274566
v -0.1839593 0.1467465 0.1274567
v 0.0002483643 -0.2401855 0.1274566
v -0.5262726 0.4208406 0.1274567
v -0.2970392 -0.6168085 0.1274566
v -0.2333716 0.05276473 0.1274567
v -0.1037223 -0.2164548 0.1274566
v -0.6674412 0.1523392 0.1274567
v -0.5352462 -0.4268448 0.1274566
v -0.2333716 -0.05387978 0.1274567
v -0.1871003 -0.1499632 0.1274567
v -0.6674412 -0.1523392 0.1274567
vt 0.02604171 0.1388889
vt 0.02604171 0.1388889
vt 0.02604171 0.1388889
vt 0.02604171 0.1388889
vt 0.02604171 0.1388889
vt 0.02604171 0.1388889
vt 0.02604171 0.1388889
vt 0.02604171 0.1388889
vt 0.02604171 0.1388889
vt 0.02604171 0.1388889
vt 0.02604171 0.1388889
vt 0.02604171 0.1388889
vt 0.02604171 0.1388889
vt 0.02604171 0.1388889
vt 0.02604171 0.1388889
vt 0.02604171 0.1388889
vt 0.02604171 0.1388889
vt 0.02604171 0.1388889
vt 0.02604171 0.1388889
vt 0.02604171 0.1388889
vt 0.02604171 0.1388889
vt 0.02604171 0.1388889
vt 0.02604171 0.1388889
vt 0.02604171 0.1388889
vt 0.02604171 0.1388889
vt 0.02604171 0.1388889
vt 0.02604171 0.1388889
vt 0.02604171 0.1388889
vt 0.02604171 0.1388889
vt 0.02604171 0.1388889
vt 0.02604171 0.1388889
vt 0.02604171 0.1388889
vt 0.02604171 0.1388889
vt 0.02604171 0.1388889
vt 0.02604171 0.1388889
vt 0.02604171 0.1388889
vt 0.02604171 0.1388889
vt 0.02604171 0.1388889
vt 0.02604171 0.1388889
vt 0.02604171 0.1388889
vt 0.02604171 0.1388889
vt 0.02604171 0.1388889
vt 0.02604171 0.1388889
vt 0.02604171 0.1388889
vt 0.02604171 0.1388889
vt 0.02604171 0.1388889
vt 0.02604171 0.1388889
vt 0.02604171 0.1388889
vt 0.02604171 0.1388889
vt 0.02604171 0.1388889
vt 0.02604171 0.1388889
vt 0.02604171 0.1388889
vt 0.02604171 0.1388889
vt 0.02604171 0.1388889
vt 0.02604171 0.1388889
vt 0.02604171 0.1388889
vt 0.08506946 0.640625
vt 0.08506946 0.640625
vt 0.08506946 0.640625
vt 0.08506946 0.640625
vt 0.08506946 0.640625
vt 0.08506946 0.640625
vt 0.08506946 0.640625
vt 0.08506946 0.640625
vt 0.08506946 0.640625
vt 0.08506946 0.640625
vt 0.08506946 0.640625
vt 0.08506946 0.640625
vt 0.08506946 0.640625
vt 0.08506946 0.640625
vt 0.08506946 0.640625
vt 0.08506946 0.640625
vt 0.08506946 0.640625
vt 0.08506946 0.640625
vt 0.08506946 0.640625
vt 0.08506946 0.640625
vt 0.08506946 0.640625
vt 0.08506946 0.640625
vt 0.08506946 0.640625
vt 0.08506946 0.640625
vt 0.08506946 0.640625
vt 0.08506946 0.640625
vt 0.08506946 0.640625
vt 0.08506946 0.640625
vt 0.08506946 0.640625
vt 0.08506946 0.640625
vt 0.08506946 0.640625
vt 0.08506946 0.640625
vt 0.08506946 0.640625
vt 0.08506946 0.640625
vt 0.08506946 0.640625
vt 0.08506946 0.640625
vt 0.08506946 0.640625
vt 0.08506946 0.640625
vt 0.08506946 0.640625
vt 0.08506946 0.640625
vt 0.08506946 0.640625
vt 0.08506946 0.640625
vt 0.08506946 0.640625
vt 0.08506946 0.640625
vt 0.08506946 0.640625
vt 0.08506946 0.640625
vt 0.08506946 0.640625
vt 0.08506946 0.640625
vt 0.08506946 0.640625
vt 0.08506946 0.640625
vt 0.08506946 0.640625
vt 0.08506946 0.640625
vt 0.08506946 0.640625
vt 0.08506946 0.640625
vt 0.08506946 0.640625
vt 0.08506946 0.640625
vt 0.02256947 0.6388889
vt 0.02256947 0.6388889
vt 0.02256947 0.6388889
vt 0.02256947 0.6388889
vt 0.02256947 0.6388889
vt 0.02256947 0.6388889
vt 0.02256947 0.6388889
vt 0.02256947 0.6388889
vt 0.02256947 0.6388889
vt 0.02256947 0.6388889
vt 0.02256947 0.6388889
vt 0.02256947 0.6388889
vt 0.02256947 0.6388889
vt 0.02256947 0.6388889
vt 0.02256947 0.6388889
vt 0.02256947 0.6388889
vt 0.02256947 0.6388889
vt 0.02256947 0.6388889
vt 0.02256947 0.6388889
vt 0.02256947 0.6388889
vt 0.02256947 0.6388889
vt 0.02256947 0.6388889
vt 0.02256947 0.6388889
vt 0.02256947 0.6388889
vt 0.02256947 0.6388889
vt 0.02256947 0.6388889
vt 0.02256947 0.6388889
vt 0.02256947 0.6388889
vt 0.02256947 0.6388889
vt 0.02256947 0.6388889
vt 0.02256947 0.6388889
vt 0.02256947 0.6388889
vt 0.02256947 0.6388889
vt 0.02256947 0.6388889
vt 0.02256947 0.6388889
vt 0.02256947 0.6388889
vt 0.02256947 0.6388889
vt 0.02256947 0.6388889
vt 0.02256947 0.6388889
vt 0.02256947 0.6388889
vt 0.02256947 0.6388889
vt 0.02256947 0.6388889
vt 0.02256947 0.6388889
vt 0.02256947 0.6388889
vt 0.02256947 0.6388889
vt 0.02256947 0.6388889
vt 0.02256947 0.6388889
vt 0.02256947 0.6388889
vt 0.02256947 0.6388889
vt 0.02256947 0.6388889
vt 0.02256947 0.6388889
vt 0.02256947 0.6388889
vt 0.02256947 0.6388889
vt 0.02256947 0.6388889
vt 0.02256947 0.6388889
vt 0.02256947 0.6388889
vn 0.2225209 0.9749279 0
vn 0.2225209 0.9749279 0
vn 0.2225209 0.9749279 0
vn 0.2225209 0.9749279 0
vn 0.6234897 0.7818315 0
vn 0.6234897 0.7818315 0
vn 0.6234897 0.7818315 0
vn 0.6234897 0.7818315 0
vn 0.900969 0.4338836 0
vn 0.900969 0.4338836 0
vn 0.900969 0.4338836 0
vn 0.900969 0.4338836 0
vn 0.999146 -0.04131825 0
vn 0.999146 -0.04131825 0
vn 0.999146 -0.04131825 0
vn 0.999146 -0.04131825 0
vn 0.9167705 -0.3994144 0
vn 0.9167705 -0.3994144 0
vn 0.9167705 -0.3994144 0
vn 0.9167705 -0.3994144 0
vn 0.6234898 -0.7818315 0
vn 0.6234898 -0.7818315 0
vn 0.6234898 -0.7818315 0
vn 0.6234898 -0.7818315 0
vn 0.2225209 -0.9749279 0
vn 0.2225209 -0.9749279 0
vn 0.2225209 -0.9749279 0
vn 0.2225209 -0.9749279 0
vn -0.2225206 -0.974928 0
vn -0.2225206 -0.974928 0
vn -0.2225206 -0.974928 0
vn -0.2225206 -0.974928 0
vn -0.6234896 -0.7818316 0
vn -0.6234896 -0.7818316 0
vn -0.6234896 -0.7818316 0
vn -0.6234896 -0.7818316 0
vn -0.9009688 -0.4338838 0
vn -0.9009688 -0.4338838 0
vn -0.9009688 -0.4338838 0
vn -0.9009688 -0.4338838 0
vn -1 0 0
vn -1 0 0
vn -1 0 0
vn -1 0 0
vn -0.8851191 0.4653645 0
vn -0.8851191 0.4653645 0
vn -0.8851191 0.4653645 0
vn -0.8851191 0.4653645 0
vn -0.6234896 0.7818317 0
vn -0.6234896 0.7818317 0
vn -0.6234896 0.7818317 0
vn -0.6234896 0.7818317 0
vn -0.248181 0.9687136 0
vn -0.248181 0.9687136 0
vn -0.248181 0.9687136 0
vn -0.248181 0.9687136 0
vn 0.2481806 -0.9687138 0
vn 0.2481806 -0.9687138 0
vn 0.2481806 -0.9687138 0
vn 0.2481806 -0.9687138 0
vn -0.2225204 -0.974928 0
vn -0.2225204 -0.974928 0
vn -0.2225204 -0.974928 0
vn -0.2225204 -0.974928 0
vn 0.6234897 -0.7818316 0
vn 0.6234897 -0.7818316 0
vn 0.6234897 -0.7818316 0
vn 0.6234897 -0.7818316 0
vn 0.8851191 -0.4653646 0
vn 0.8851191 -0.4653646 0
vn 0.8851191 -0.4653646 0
vn 0.8851191 -0.4653646 0
vn 1 0 0
vn 1 0 0
vn 1 0 0
vn 1 0 0
vn 0.9009687 0.4338841 0
vn 0.9009687 0.4338841 0
vn 0.9009687 0.4338841 0
vn 0.9009687 0.4338841 0
vn 0.6234894 0.7818318 0
vn 0.6234894 0.7818318 0
vn 0.6234894 0.7818318 0
vn 0.6234894 0.7818318 0
vn 0.222521 0.9749279 0
vn 0.222521 0.9749279 0
vn 0.222521 0.9749279 0
vn 0.222521 0.9749279 0
vn -0.2225214 0.9749278 0
vn -0.2225214 0.9749278 0
vn -0.2225214 0.9749278 0
vn -0.2225214 0.9749278 0
vn -0.6234896 0.7818316 0
vn -0.6234896 0.7818316 0
vn -0.6234896 0.7818316 0
vn -0.6234896 0.7818316 0
vn -0.9167705 0.3994142 0
vn -0.9167705 0.3994142 0
vn -0.9167705 0.3994142 0
vn -0.9167705 0.3994142 0
vn -0.999146 0.04131871 0
vn -0.999146 0.04131871 0
vn -0.999146 0.04131871 0
vn -0.999146 0.04131871 0
vn -0.9009688 -0.4338837 0
vn -0.9009688 -0.4338837 0
vn -0.9009688 -0.4338837 0
vn -0.9009688 -0.4338837 0
vn -0.62349 -0.7818313 0
vn -0.62349 -0.7818313 0
vn -0.62349 -0.7818313 0
vn -0.62349 -0.7818313 0
vn 0 0 -1
vn 0 0 -1
vn 0 0 -1
vn 0 0 -1
vn 0 0 -1
vn 0 0 -1
vn 0 0 -1
vn 0 0 -1
vn 0 0 -1
vn 0 0 -1
vn 0 0 -1
vn 0 0 -1
vn 0 0 -1
vn 0 0 -1
vn 0 0 -1
vn 0 0 -1
vn 0 0 -1
vn 0 0 -1
vn 0 0 -1
vn 0 0 -1
vn 0 0 -1
vn 0 0 -1
vn 0 0 -1
vn 0 0 -1
vn 0 0 -1
vn 0 0 -1
vn 0 0 -1
vn 0 0 -1
vn 0 0 1
vn 0 0 1
vn 0 0 1
vn 0 0 1
vn 0 0 1
vn 0 0 1
vn 0 0 1
vn 0 0 1
vn 0 0 1
vn 0 0 1
vn 0 0 1
vn 0 0 1
vn 0 0 1
vn 0 0 1
vn 0 0 1
vn 0 0 1
vn 0 0 1
vn 0 0 1
vn 0 0 1
vn 0 0 1
vn 0 0 1
vn 0 0 1
vn 0 0 1
vn 0 0 1
vn 0 0 1
vn 0 0 1
vn 0 0 1
vn 0 0 1
g PlankWheel_0
f 3/3/3 2/2/2 1/1/1
f 4/4/4 3/3/3 1/1/1
f 7/7/7 6/6/6 5/5/5
f 8/8/8 7/7/7 5/5/5
f 11/11/11 10/10/10 9/9/9
f 12/12/12 11/11/11 9/9/9
f 15/15/15 14/14/14 13/13/13
f 16/16/16 15/15/15 13/13/13
f 19/19/19 18/18/18 17/17/17
f 20/20/20 19/19/19 17/17/17
f 23/23/23 22/22/22 21/21/21
f 24/24/24 23/23/23 21/21/21
f 27/27/27 26/26/26 25/25/25
f 28/28/28 27/27/27 25/25/25
f 31/31/31 30/30/30 29/29/29
f 32/32/32 31/31/31 29/29/29
f 35/35/35 34/34/34 33/33/33
f 36/36/36 35/35/35 33/33/33
f 39/39/39 38/38/38 37/37/37
f 40/40/40 39/39/39 37/37/37
f 43/43/43 42/42/42 41/41/41
f 44/44/44 43/43/43 41/41/41
f 47/47/47 46/46/46 45/45/45
f 48/48/48 47/47/47 45/45/45
f 51/51/51 50/50/50 49/49/49
f 52/52/52 51/51/51 49/49/49
f 55/55/55 54/54/54 53/53/53
f 56/56/56 55/55/55 53/53/53
f 59/59/59 58/58/58 57/57/57
f 60/60/60 59/59/59 57/57/57
f 63/63/63 62/62/62 61/61/61
f 64/64/64 63/63/63 61/61/61
f 67/67/67 66/66/66 65/65/65
f 68/68/68 67/67/67 65/65/65
f 71/71/71 70/70/70 69/69/69
f 72/72/72 71/71/71 69/69/69
f 75/75/75 74/74/74 73/73/73
f 76/76/76 75/75/75 73/73/73
f 79/79/79 78/78/78 77/77/77
f 80/80/80 79/79/79 77/77/77
f 83/83/83 82/82/82 81/81/81
f 84/84/84 83/83/83 81/81/81
f 87/87/87 86/86/86 85/85/85
f 88/88/88 87/87/87 85/85/85
f 91/91/91 90/90/90 89/89/89
f 92/92/92 91/91/91 89/89/89
f 95/95/95 94/94/94 93/93/93
f 96/96/96 95/95/95 93/93/93
f 99/99/99 98/98/98 97/97/97
f 100/100/100 99/99/99 97/97/97
f 103/103/103 102/102/102 101/101/101
f 104/104/104 103/103/103 101/101/101
f 107/107/107 106/106/106 105/105/105
f 108/108/108 107/107/107 105/105/105
f 111/111/111 110/110/110 109/109/109
f 112/112/112 111/111/111 109/109/109
f 115/115/115 114/114/114 113/113/113
f 116/116/116 115/115/115 113/113/113
f 113/113/113 114/114/114 117/117/117
f 118/118/118 115/115/115 116/116/116
f 114/114/114 119/119/119 117/117/117
f 120/120/120 118/118/118 116/116/116
f 117/117/117 119/119/119 121/121/121
f 122/122/122 118/118/118 120/120/120
f 119/119/119 123/123/123 121/121/121
f 124/124/124 122/122/122 120/120/120
f 121/121/121 123/123/123 125/125/125
f 126/126/126 122/122/122 124/124/124
f 123/123/123 127/127/127 125/125/125
f 128/128/128 126/126/126 124/124/124
f 125/125/125 127/127/127 129/129/129
f 130/130/130 126/126/126 128/128/128
f 127/127/127 131/131/131 129/129/129
f 132/132/132 130/130/130 128/128/128
f 129/129/129 131/131/131 133/133/133
f 134/134/134 130/130/130 132/132/132
f 131/131/131 135/135/135 133/133/133
f 136/136/136 134/134/134 132/132/132
f 133/133/133 135/135/135 137/137/137
f 138/138/138 134/134/134 136/136/136
f 135/135/135 139/139/139 137/137/137
f 140/140/140 138/138/138 136/136/136
f 137/137/137 139/139/139 140/140/140
f 139/139/139 138/138/138 140/140/140
f 143/143/143 142/142/142 141/141/141
f 144/144/144 143/143/143 141/141/141
f 141/141/141 142/142/142 145/145/145
f 146/146/146 143/143/143 144/144/144
f 142/142/142 147/147/147 145/145/145
f 148/148/148 146/146/146 144/144/144
f 145/145/145 147/147/147 149/149/149
f 150/150/150 146/146/146 148/148/148
f 147/147/147 151/151/151 149/149/149
f 152/152/152 150/150/150 148/148/148
f 149/149/149 151/151/151 153/153/153
f 154/154/154 150/150/150 152/152/152
f 151/151/151 155/155/155 153/153/153
f 156/156/156 154/154/154 152/152/152
f 153/153/153 155/155/155 157/157/157
f 158/158/158 154/154/154 156/156/156
f 155/155/155 159/159/159 157/157/157
f 160/160/160 158/158/158 156/156/156
f 157/157/157 159/159/159 161/161/161
f 162/162/162 158/158/158 160/160/160
f 159/159/159 163/163/163 161/161/161
f 164/164/164 162/162/162 160/160/160
f 161/161/161 163/163/163 165/165/165
f 166/166/166 162/162/162 164/164/164
f 163/163/163 167/167/167 165/165/165
f 168/168/168 166/166/166 164/164/164
f 165/165/165 167/167/167 168/168/168
f 167/167/167 166/166/166 168/168/168
