g Pole2
v -0.7747363 3.789609 -0.7747387
v -0.3873694 2.511322 -0.9351928
v -1.220703E-06 3.789609 -1.095644
v -0.7747363 3.913548 -0.7747387
v -1.095646 3.913548 0
v -1.095646 3.789609 0
v -0.9351892 2.843201 -0.3873706
v -1.220703E-06 3.913548 -1.095644
v 0.7747363 3.789609 -0.7747387
v 0.3873669 2.860597 -0.9351928
v 0.7747363 3.913548 -0.7747387
v 1.095646 3.789609 0
v 1.095646 3.913548 0
v -1.095646 3.789609 0
v -1.095646 3.913548 0
v -0.7747363 3.913548 0.7747387
v -0.7747363 3.789609 0.7747387
v -0.9351892 2.920758 0.3873706
v -1.220703E-06 3.913548 1.095644
v -1.220703E-06 3.789609 1.095644
v 0.7747363 3.913548 0.7747387
v 0.7747363 3.789609 0.7747387
v 0.3873669 2.938768 0.9351928
v 1.095646 3.913548 0
v 1.095646 3.789609 0
v -0.6814148 0 -0.6814135
v -0.9636657 3.789609 0
v -0.9636657 0 0
v -0.6814148 3.789609 -0.6814135
v -1.220703E-06 0 -0.9636645
v -1.220703E-06 3.789609 -0.9636645
v 0.6814123 0 -0.6814135
v 0.6814123 3.789609 -0.6814135
v 0.9636633 0 0
v 0.9636633 3.789609 0
v -0.9636657 0 0
v -0.9636657 3.789609 0
v -0.6814148 3.789609 0.6814135
v -0.6814148 0 0.6814135
v -1.220703E-06 3.789609 0.9636645
v -1.220703E-06 0 0.9636645
v 0.6814123 3.789609 0.6814135
v 0.6814123 0 0.6814135
v 0.9636633 3.789609 0
v 0.9636633 0 0
v 0.7747363 3.913548 -0.7747387
v -1.220703E-06 3.913548 0
v -1.220703E-06 3.913548 -1.095644
v 1.095646 3.913548 0
v -0.7747363 3.913548 -0.7747387
v 0.7747363 3.913548 0.7747387
v -1.095646 3.913548 0
v -1.220703E-06 3.913548 1.095644
v -0.7747363 3.913548 0.7747387
v -1.220703E-06 0 -0.9636645
v -1.220703E-06 0 0
v 0.6814123 0 -0.6814135
v -0.6814148 0 -0.6814135
v 0.9636633 0 0
v -0.9636657 0 0
v 0.6814123 0 0.6814135
v -0.6814148 0 0.6814135
v -1.220703E-06 0 0.9636645
v 0.6814123 3.789609 -0.6814135
v -1.220703E-06 3.789609 0
v -1.220703E-06 3.789609 -0.9636645
v 0.9636633 3.789609 0
v -0.6814148 3.789609 -0.6814135
v 0.6814123 3.789609 0.6814135
v -0.9636657 3.789609 0
v -1.220703E-06 3.789609 0.9636645
v -0.6814148 3.789609 0.6814135
vt 0.1894203 0.8561097
vt 0.1900358 0.8531568
vt 0.1906514 0.8561097
vt 0.1894203 0.8564115
vt 0.1889103 0.8564115
vt 0.1889103 0.8561097
vt 0.1891653 0.8538054
vt 0.1906514 0.8564115
vt 0.1918826 0.8561097
vt 0.191267 0.8538477
vt 0.1918826 0.8564115
vt 0.1923925 0.8561097
vt 0.1923925 0.8564115
vt 0.1889103 0.8561097
vt 0.1889103 0.8564115
vt 0.1894203 0.8564115
vt 0.1894203 0.8561097
vt 0.1891653 0.8539943
vt 0.1906514 0.8564115
vt 0.1906514 0.8561097
vt 0.1918826 0.8564115
vt 0.1918826 0.8561097
vt 0.191267 0.8540381
vt 0.1923925 0.8564115
vt 0.1923925 0.8561097
vt 0.2576793 0.9760477
vt 0.2595738 0.9652774
vt 0.2595738 0.9760477
vt 0.2576793 0.9652774
vt 0.2531055 0.9760477
vt 0.2531055 0.9652774
vt 0.2485316 0.9760477
vt 0.2485316 0.9652774
vt 0.246637 0.9760477
vt 0.246637 0.9652774
vt 0.2595738 0.9760477
vt 0.2595738 0.9652774
vt 0.2576793 0.9652774
vt 0.2576793 0.9760477
vt 0.2531055 0.9652774
vt 0.2531055 0.9760477
vt 0.2485316 0.9652774
vt 0.2485316 0.9760477
vt 0.246637 0.9652774
vt 0.246637 0.9760477
vt 0.1546839 0.8590546
vt 0.1534528 0.8590546
vt 0.1534528 0.8590546
vt 0.1551939 0.8590546
vt 0.1522217 0.8590546
vt 0.1546839 0.8590546
vt 0.1517117 0.8590546
vt 0.1534528 0.8590546
vt 0.1522217 0.8590546
vt 0.0245966 0.9171077
vt 0.0245966 0.9171077
vt 0.01639616 0.9171077
vt 0.03279707 0.9171077
vt 0.01299942 0.9171077
vt 0.0361938 0.9171077
vt 0.01639616 0.9171077
vt 0.03279707 0.9171077
vt 0.0245966 0.9171077
vt 0.1990325 0.9716866
vt 0.1953216 0.9716866
vt 0.1953216 0.9716866
vt 0.2005695 0.9716866
vt 0.1916108 0.9716866
vt 0.1990325 0.9716866
vt 0.1900737 0.9716866
vt 0.1953216 0.9716866
vt 0.1916108 0.9716866
vn -0.6628008 0 -0.7487956
vn -0.3826835 1.047687E-06 -0.9238795
vn -0.06443791 8.427042E-07 -0.9979218
vn -0.7071066 0 -0.7071069
vn -1 0 0
vn -0.999853 -1.05825E-06 -0.0171467
vn -0.9238786 -1.292024E-06 -0.3826856
vn 0 0 -1
vn 0.5231223 5.765309E-07 -0.8522577
vn 0.3826824 9.479921E-07 -0.92388
vn 0.7071061 0 -0.7071074
vn 1 0 0
vn 1 0 0
vn -0.999853 -1.05825E-06 -0.0171467
vn -1 0 0
vn -0.7071066 0 0.7071069
vn -0.8477086 -8.249892E-07 0.5304621
vn -0.9238786 -1.407354E-06 0.3826857
vn 0 0 1
vn 0.2216397 5.94542E-07 0.9751287
vn 0.7071061 0 0.7071074
vn 0.5327961 5.945408E-07 0.8462436
vn 0.3826824 1.026534E-06 0.92388
vn 1 0 0
vn 1 0 0
vn -0.7039135 -0.09492858 -0.7039135
vn -0.9954841 0.09492858 0
vn -0.9954841 -0.09492858 0
vn -0.7039135 0.09492858 -0.7039135
vn 0 -0.09492858 -0.9954841
vn 0 0.09492858 -0.9954841
vn 0.7039135 -0.09492858 -0.7039135
vn 0.7039135 0.09492858 -0.7039135
vn 0.9954841 -0.09492858 0
vn 0.9954841 0.09492858 0
vn -0.9954841 -0.09492858 0
vn -0.9954841 0.09492858 0
vn -0.7039135 0.09492858 0.7039135
vn -0.7039135 -0.09492858 0.7039135
vn 0 0.09492858 0.9954841
vn 0 -0.09492858 0.9954841
vn 0.7039135 0.09492858 0.7039135
vn 0.7039135 -0.09492858 0.7039135
vn 0.9954841 0.09492858 0
vn 0.9954841 -0.09492858 0
vn 0 1 0
vn 0 1 0
vn 0 1 0
vn 0 1 0
vn 0 1 -2.300942E-07
vn 0 1 0
vn 0 1 -2.300939E-07
vn 0 1 0
vn 0 1 0
vn 0 -0.09492858 -0.9954841
vn 0 -1 0
vn 0.7039135 -0.09492858 -0.7039135
vn -0.7039135 -0.09492858 -0.7039135
vn 0.9954841 -0.09492858 0
vn -0.9954841 -0.09492858 0
vn 0.7039135 -0.09492858 0.7039135
vn -0.7039135 -0.09492858 0.7039135
vn 0 -0.09492858 0.9954841
vn 0.7039135 0.09492858 -0.7039135
vn 0 1 0
vn 0 0.09492858 -0.9954841
vn 0.9954841 0.09492858 0
vn -0.7039135 0.09492858 -0.7039135
vn 0.7039135 0.09492858 0.7039135
vn -0.9954841 0.09492858 0
vn 0 0.09492858 0.9954841
vn -0.7039135 0.09492858 0.7039135
g Pole2_0
f 3/3/3 2/2/2 1/1/1
f 1/1/1 4/4/4 3/3/3
f 5/5/5 4/4/4 1/1/1
f 6/6/6 5/5/5 1/1/1
f 1/1/1 7/7/7 6/6/6
f 4/4/4 8/8/8 3/3/3
f 3/3/3 8/8/8 9/9/9
f 9/9/9 10/10/10 3/3/3
f 8/8/8 11/11/11 9/9/9
f 9/9/9 11/11/11 12/12/12
f 11/11/11 13/13/13 12/12/12
f 16/16/16 15/15/15 14/14/14
f 17/17/17 16/16/16 14/14/14
f 14/14/14 18/18/18 17/17/17
f 19/19/19 16/16/16 17/17/17
f 20/20/20 19/19/19 17/17/17
f 21/21/21 19/19/19 20/20/20
f 22/22/22 21/21/21 20/20/20
f 20/20/20 23/23/23 22/22/22
f 24/24/24 21/21/21 22/22/22
f 25/25/25 24/24/24 22/22/22
f 28/28/28 27/27/27 26/26/26
f 27/27/27 29/29/29 26/26/26
f 26/26/26 29/29/29 30/30/30
f 29/29/29 31/31/31 30/30/30
f 30/30/30 31/31/31 32/32/32
f 31/31/31 33/33/33 32/32/32
f 32/32/32 33/33/33 34/34/34
f 33/33/33 35/35/35 34/34/34
f 38/38/38 37/37/37 36/36/36
f 39/39/39 38/38/38 36/36/36
f 40/40/40 38/38/38 39/39/39
f 41/41/41 40/40/40 39/39/39
f 42/42/42 40/40/40 41/41/41
f 43/43/43 42/42/42 41/41/41
f 44/44/44 42/42/42 43/43/43
f 45/45/45 44/44/44 43/43/43
f 48/48/48 47/47/47 46/46/46
f 46/46/46 47/47/47 49/49/49
f 50/50/50 47/47/47 48/48/48
f 49/49/49 47/47/47 51/51/51
f 52/52/52 47/47/47 50/50/50
f 51/51/51 47/47/47 53/53/53
f 54/54/54 47/47/47 52/52/52
f 53/53/53 47/47/47 54/54/54
f 57/57/57 56/56/56 55/55/55
f 55/55/55 56/56/56 58/58/58
f 59/59/59 56/56/56 57/57/57
f 58/58/58 56/56/56 60/60/60
f 61/61/61 56/56/56 59/59/59
f 60/60/60 56/56/56 62/62/62
f 63/63/63 56/56/56 61/61/61
f 62/62/62 56/56/56 63/63/63
f 66/66/66 65/65/65 64/64/64
f 64/64/64 65/65/65 67/67/67
f 68/68/68 65/65/65 66/66/66
f 67/67/67 65/65/65 69/69/69
f 70/70/70 65/65/65 68/68/68
f 69/69/69 65/65/65 71/71/71
f 72/72/72 65/65/65 70/70/70
f 71/71/71 65/65/65 72/72/72
