g Props
v 1.787761 -0.08641728 14.98901
v 1.787761 0.02357418 14.98901
v 4.475004 0.02357418 14.98901
v 4.475004 -0.08641728 14.98901
v 1.787761 0.02357418 14.98901
v 1.787761 0.02357418 12.30177
v 4.475004 0.02357418 12.30177
v 4.475004 0.02357418 14.98901
v 1.787761 0.02357418 12.30177
v 1.787761 -0.08641728 12.30177
v 4.475004 -0.08641728 12.30177
v 4.475004 0.02357418 12.30177
v 4.475004 -0.08641728 14.98901
v 4.475004 0.02357418 14.98901
v 4.475004 0.02357418 12.30177
v 4.475004 -0.08641728 12.30177
v 1.787761 -0.08641728 12.30177
v 1.787761 0.02357418 12.30177
v 1.787761 0.02357418 14.98901
v 1.787761 -0.08641728 14.98901
v 8.442031 -0.08216207 -10.81698
v 8.442031 0.1046441 -10.81698
v 12.21741 0.1046441 -10.81698
v 12.21741 -0.08216207 -10.81698
v 8.442031 0.1046441 -10.81698
v 8.442031 0.1046441 -14.6694
v 12.21741 0.1046441 -14.6694
v 12.21741 0.1046441 -10.81698
v 8.442031 0.1046441 -14.6694
v 8.442031 -0.08216207 -14.6694
v 12.21741 -0.08216207 -14.6694
v 12.21741 0.1046441 -14.6694
v 12.21741 -0.08216207 -10.81698
v 12.21741 0.1046441 -10.81698
v 12.21741 0.1046441 -14.6694
v 12.21741 -0.08216207 -14.6694
v 8.442031 -0.08216207 -14.6694
v 8.442031 0.1046441 -14.6694
v 8.442031 0.1046441 -10.81698
v 8.442031 -0.08216207 -10.81698
v 6.944126 -0.1074198 8.909454
v 6.944126 0.03137172 8.909454
v 11.18375 0.03137172 8.909454
v 11.18375 -0.1074198 8.909454
v 6.944126 0.03137172 8.909454
v 6.944126 0.03137172 4.669835
v 11.18375 0.03137172 4.669835
v 11.18375 0.03137172 8.909454
v 6.944126 0.03137172 4.669835
v 6.944126 -0.1074198 4.669835
v 11.18375 -0.1074198 4.669835
v 11.18375 0.03137172 4.669835
v 11.18375 -0.1074198 8.909454
v 11.18375 0.03137172 8.909454
v 11.18375 0.03137172 4.669835
v 11.18375 -0.1074198 4.669835
v 6.944126 -0.1074198 4.669835
v 6.944126 0.03137172 4.669835
v 6.944126 0.03137172 8.909454
v 6.944126 -0.1074198 8.909454
v -11.72704 -0.0964301 9.904102
v -11.72704 0.03358608 9.904102
v -8.778255 0.03358608 9.904102
v -8.778255 -0.0964301 9.904102
v -11.72704 0.03358608 9.904102
v -11.72704 0.03358608 6.590701
v -8.778255 0.03358608 6.590701
v -8.778255 0.03358608 9.904102
v -11.72704 0.03358608 6.590701
v -11.72704 -0.0964301 6.590701
v -8.778255 -0.0964301 6.590701
v -8.778255 0.03358608 6.590701
v -8.778255 -0.0964301 9.904102
v -8.778255 0.03358608 9.904102
v -8.778255 0.03358608 6.590701
v -8.778255 -0.0964301 6.590701
v -11.72704 -0.0964301 6.590701
v -11.72704 0.03358608 6.590701
v -11.72704 0.03358608 9.904102
v -11.72704 -0.0964301 9.904102
v -2.849406 -0.06089802 -2.167297
v -2.849406 0.06686519 -2.167297
v 0.6576719 0.06686519 -2.167297
v 0.657672 -0.06089802 -2.167297
v -2.849406 0.06686519 -2.167297
v -2.849406 0.06686519 -5.674374
v 0.6576719 0.06686519 -5.674374
v 0.6576719 0.06686519 -2.167297
v -2.849406 0.06686519 -5.674374
v -2.849406 -0.06089802 -5.674374
v 0.657672 -0.06089802 -5.674374
v 0.6576719 0.06686519 -5.674374
v 0.657672 -0.06089802 -2.167297
v 0.6576719 0.06686519 -2.167297
v 0.6576719 0.06686519 -5.674374
v 0.657672 -0.06089802 -5.674374
v -2.849406 -0.06089802 -5.674374
v -2.849406 0.06686519 -5.674374
v -2.849406 0.06686519 -2.167297
v -2.849406 -0.06089802 -2.167297
v -13.37123 0.03022823 -4.823285
v -13.37123 -0.09307256 -4.823286
v -10.26225 -0.09307256 -4.823286
v -10.26225 0.03022823 -4.823285
v -10.26225 -0.09307256 -1.714311
v -10.26225 0.03022823 -1.714312
v -10.26225 0.03022823 -4.823285
v -10.26225 -0.09307256 -4.823286
v -13.37123 -0.09307256 -4.823286
v -13.37123 0.03022823 -4.823285
v -13.37123 0.03022823 -3.310855
v -13.37123 -0.09307256 -3.310856
v -11.87118 0.03022823 -1.714312
v -10.26225 0.03022823 -1.714312
v -10.26225 -0.09307256 -1.714311
v -11.87118 -0.09307256 -1.714311
v -13.37123 0.03022823 -3.310855
v -13.37123 0.03022823 -4.823285
v -10.26225 0.03022823 -4.823285
v -10.26225 0.03022823 -1.714312
v -11.87118 0.03022823 -1.714312
v -11.87118 0.03022823 -1.714312
v -11.87118 -0.09307256 -1.714311
v -13.37123 -0.09307256 -3.310856
v -13.37123 0.03022823 -3.310855
v -7.695965 -0.1003763 -13.98661
v -7.69597 0.037532 -13.98661
v -4.281683 0.037532 -13.98661
v -4.281682 -0.1003763 -13.98661
v -7.69597 0.037532 -13.98661
v -7.69597 0.037532 -17.55835
v -4.281683 0.037532 -17.55835
v -4.281683 0.037532 -13.98661
v -7.69597 0.037532 -17.55835
v -7.695965 -0.1003763 -17.55835
v -4.281682 -0.1003763 -17.55835
v -4.281683 0.037532 -17.55835
v -4.281682 -0.1003763 -13.98661
v -4.281683 0.037532 -13.98661
v -4.281683 0.037532 -17.55835
v -4.281682 -0.1003763 -17.55835
v -7.695965 -0.1003763 -17.55835
v -7.69597 0.037532 -17.55835
v -7.69597 0.037532 -13.98661
v -7.695965 -0.1003763 -13.98661
vt 0.02106787 0.7424792
vt 0.02106787 0.7424792
vt 0.03483892 0.7424792
vt 0.03483892 0.7424792
vt 0.02106787 0.7424792
vt 0.02106787 0.7533424
vt 0.03483892 0.7533424
vt 0.03483892 0.7424792
vt 0.02106787 0.7533424
vt 0.02106787 0.7533424
vt 0.03483892 0.7533424
vt 0.03483892 0.7533424
vt 0.03483892 0.7424792
vt 0.03483892 0.7424792
vt 0.03483892 0.7533424
vt 0.03483892 0.7533424
vt 0.02106787 0.7533424
vt 0.02106787 0.7533424
vt 0.02106787 0.7424792
vt 0.02106787 0.7424792
vt 0.1281743 0.7448318
vt 0.1281743 0.7448318
vt 0.1427705 0.7448318
vt 0.1427705 0.7448318
vt 0.1281743 0.7448318
vt 0.1281743 0.7565809
vt 0.1427705 0.7565809
vt 0.1427705 0.7448318
vt 0.1281743 0.7565809
vt 0.1281743 0.7565809
vt 0.1427705 0.7565809
vt 0.1427705 0.7565809
vt 0.1427705 0.7448318
vt 0.1427705 0.7448318
vt 0.1427705 0.7565809
vt 0.1427705 0.7565809
vt 0.1281743 0.7565809
vt 0.1281743 0.7565809
vt 0.1281743 0.7448318
vt 0.1281743 0.7448318
vt 0.08444702 0.7454111
vt 0.08444702 0.7454111
vt 0.09140236 0.7454111
vt 0.09140236 0.7454111
vt 0.08444702 0.7454111
vt 0.08444702 0.7508978
vt 0.09140236 0.7508978
vt 0.09140236 0.7454111
vt 0.08444702 0.7508978
vt 0.08444702 0.7508978
vt 0.09140236 0.7508978
vt 0.09140236 0.7508978
vt 0.09140236 0.7454111
vt 0.09140236 0.7454111
vt 0.09140236 0.7508978
vt 0.09140236 0.7508978
vt 0.08444702 0.7508978
vt 0.08444702 0.7508978
vt 0.08444702 0.7454111
vt 0.08444702 0.7454111
vt 0.07952763 0.7500041
vt 0.07952763 0.7500041
vt 0.08866993 0.7500041
vt 0.08866993 0.7500041
vt 0.07952763 0.7500041
vt 0.07952763 0.7581077
vt 0.08866993 0.7581077
vt 0.08866993 0.7500041
vt 0.07952763 0.7581077
vt 0.07952763 0.7581077
vt 0.08866993 0.7581077
vt 0.08866993 0.7581077
vt 0.08866993 0.7500041
vt 0.08866993 0.7500041
vt 0.08866993 0.7581077
vt 0.08866993 0.7581077
vt 0.07952763 0.7581077
vt 0.07952763 0.7581077
vt 0.07952763 0.7500041
vt 0.07952763 0.7500041
vt 0.1296706 0.7429975
vt 0.1296706 0.7429975
vt 0.1429668 0.7429975
vt 0.1429668 0.7429975
vt 0.1296706 0.7429975
vt 0.1296706 0.7534861
vt 0.1429668 0.7534861
vt 0.1429668 0.7429975
vt 0.1296706 0.7534861
vt 0.1296706 0.7534861
vt 0.1429668 0.7534861
vt 0.1429668 0.7534861
vt 0.1429668 0.7429975
vt 0.1429668 0.7429975
vt 0.1429668 0.7534861
vt 0.1429668 0.7534861
vt 0.1296706 0.7534861
vt 0.1296706 0.7534861
vt 0.1296706 0.7429975
vt 0.1296706 0.7429975
vt 0.02542092 0.7510954
vt 0.02542092 0.7510954
vt 0.03628167 0.7510954
vt 0.03628167 0.7510954
vt 0.03628167 0.742528
vt 0.03628167 0.742528
vt 0.03628167 0.7510954
vt 0.03628167 0.7510954
vt 0.02542092 0.7510954
vt 0.02542092 0.7510954
vt 0.02542092 0.7469275
vt 0.02542092 0.7469275
vt 0.03066112 0.742528
vt 0.03628167 0.742528
vt 0.03628167 0.742528
vt 0.03066112 0.742528
vt 0.02542092 0.7469275
vt 0.02542092 0.7510954
vt 0.03628167 0.7510954
vt 0.03628167 0.742528
vt 0.03066112 0.742528
vt 0.03066112 0.742528
vt 0.03066112 0.742528
vt 0.02542092 0.7469275
vt 0.02542092 0.7469275
vt 0.07498031 0.7475664
vt 0.07498031 0.7475664
vt 0.08334888 0.7475664
vt 0.08334888 0.7475664
vt 0.07498031 0.7475664
vt 0.07498031 0.7541679
vt 0.08334888 0.7541679
vt 0.08334888 0.7475664
vt 0.07498031 0.7541679
vt 0.07498031 0.7541679
vt 0.08334888 0.7541679
vt 0.08334888 0.7541679
vt 0.08334888 0.7475664
vt 0.08334888 0.7475664
vt 0.08334888 0.7541679
vt 0.08334888 0.7541679
vt 0.07498031 0.7541679
vt 0.07498031 0.7541679
vt 0.07498031 0.7475664
vt 0.07498031 0.7475664
vn 0 0 1
vn 0 0 1
vn 0 0 1
vn 0 0 1
vn 0 1 0
vn 0 1 0
vn 0 1 0
vn 0 1 0
vn 0 0 -1
vn 0 0 -1
vn 0 0 -1
vn 0 0 -1
vn 1 0 0
vn 1 0 0
vn 1 0 0
vn 1 0 0
vn -1 1.321582E-06 0
vn -1 1.321582E-06 0
vn -1 1.321582E-06 0
vn -1 1.321582E-06 0
vn 0 -2.450474E-06 1
vn 0 -2.450474E-06 1
vn 0 -2.450474E-06 1
vn 0 -2.450474E-06 1
vn 0 1 0
vn 0 1 0
vn 0 1 0
vn 0 1 0
vn 0 0 -1
vn 0 0 -1
vn 0 0 -1
vn 0 0 -1
vn 1 3.188598E-06 0
vn 1 3.188598E-06 0
vn 1 3.188598E-06 0
vn 1 3.188598E-06 0
vn -1 0 0
vn -1 0 0
vn -1 0 0
vn -1 0 0
vn 0 0 1
vn 0 0 1
vn 0 0 1
vn 0 0 1
vn 0 1 0
vn 0 1 0
vn 0 1 0
vn 0 1 0
vn 0 0 -1
vn 0 0 -1
vn 0 0 -1
vn 0 0 -1
vn 1 -5.310803E-06 0
vn 1 -5.310803E-06 0
vn 1 -5.310803E-06 0
vn 1 -5.310803E-06 0
vn -1 0 0
vn -1 0 0
vn -1 0 0
vn -1 0 0
vn 0 0 1
vn 0 0 1
vn 0 0 1
vn 0 0 1
vn 0 1 0
vn 0 1 0
vn 0 1 0
vn 0 1 0
vn 0 0 -1
vn 0 0 -1
vn 0 0 -1
vn 0 0 -1
vn 1 0 0
vn 1 0 0
vn 1 0 0
vn 1 0 0
vn -1 -1.450804E-05 0
vn -1 -1.450804E-05 0
vn -1 -1.450804E-05 0
vn -1 -1.450804E-05 0
vn 0 0 1
vn 0 0 1
vn 0 0 1
vn 0 0 1
vn 0 1 0
vn 0 1 0
vn 0 1 0
vn 0 1 0
vn 0 0 -1
vn 0 0 -1
vn 0 0 -1
vn 0 0 -1
vn 1 6.538381E-07 0
vn 1 6.538381E-07 0
vn 1 6.538381E-07 0
vn 1 6.538381E-07 0
vn -1 -1.743568E-06 0
vn -1 -1.743568E-06 0
vn -1 -1.743568E-06 0
vn -1 -1.743568E-06 0
vn 0 2.475052E-06 -1
vn 0 2.475052E-06 -1
vn 0 2.475052E-06 -1
vn 0 2.475052E-06 -1
vn 1 6.371263E-07 0
vn 1 6.371263E-07 0
vn 1 6.371263E-07 0
vn 1 6.371263E-07 0
vn -1 1.101489E-05 0
vn -1 1.101489E-05 0
vn -1 1.101489E-05 0
vn -1 1.101489E-05 0
vn 0 4.950104E-06 1
vn 0 4.950104E-06 1
vn 0 4.950104E-06 1
vn 0 4.950104E-06 1
vn 0 1 0
vn 0 1 0
vn 0 1 0
vn 0 1 0
vn 0 1 0
vn -0.7287875 1.244868E-06 0.6847398
vn -0.7287877 1.244868E-06 0.6847398
vn -0.7287875 1.244868E-06 0.6847398
vn -0.7287875 1.244868E-06 0.6847398
vn 0 4.425779E-06 1
vn 0 4.425779E-06 1
vn 0 4.425779E-06 1
vn 0 4.425779E-06 1
vn 0 1 0
vn 0 1 0
vn 0 1 0
vn 0 1 0
vn 0 4.425779E-06 -1
vn 0 4.425779E-06 -1
vn 0 4.425779E-06 -1
vn 0 4.425779E-06 -1
vn 1 5.77374E-06 0
vn 1 5.773741E-06 0
vn 1 5.773741E-06 0
vn 1 5.77374E-06 0
vn -1 -4.172565E-05 0
vn -1 -4.172566E-05 0
vn -1 -4.172566E-05 0
vn -1 -4.172565E-05 0
g Props_0
f 3/3/3 2/2/2 1/1/1
f 4/4/4 3/3/3 1/1/1
f 7/7/7 6/6/6 5/5/5
f 8/8/8 7/7/7 5/5/5
f 11/11/11 10/10/10 9/9/9
f 12/12/12 11/11/11 9/9/9
f 15/15/15 14/14/14 13/13/13
f 16/16/16 15/15/15 13/13/13
f 19/19/19 18/18/18 17/17/17
f 20/20/20 19/19/19 17/17/17
f 23/23/23 22/22/22 21/21/21
f 24/24/24 23/23/23 21/21/21
f 27/27/27 26/26/26 25/25/25
f 28/28/28 27/27/27 25/25/25
f 31/31/31 30/30/30 29/29/29
f 32/32/32 31/31/31 29/29/29
f 35/35/35 34/34/34 33/33/33
f 36/36/36 35/35/35 33/33/33
f 39/39/39 38/38/38 37/37/37
f 40/40/40 39/39/39 37/37/37
f 43/43/43 42/42/42 41/41/41
f 44/44/44 43/43/43 41/41/41
f 47/47/47 46/46/46 45/45/45
f 48/48/48 47/47/47 45/45/45
f 51/51/51 50/50/50 49/49/49
f 52/52/52 51/51/51 49/49/49
f 55/55/55 54/54/54 53/53/53
f 56/56/56 55/55/55 53/53/53
f 59/59/59 58/58/58 57/57/57
f 60/60/60 59/59/59 57/57/57
f 63/63/63 62/62/62 61/61/61
f 64/64/64 63/63/63 61/61/61
f 67/67/67 66/66/66 65/65/65
f 68/68/68 67/67/67 65/65/65
f 71/71/71 70/70/70 69/69/69
f 72/72/72 71/71/71 69/69/69
f 75/75/75 74/74/74 73/73/73
f 76/76/76 75/75/75 73/73/73
f 79/79/79 78/78/78 77/77/77
f 80/80/80 79/79/79 77/77/77
f 83/83/83 82/82/82 81/81/81
f 84/84/84 83/83/83 81/81/81
f 87/87/87 86/86/86 85/85/85
f 88/88/88 87/87/87 85/85/85
f 91/91/91 90/90/90 89/89/89
f 92/92/92 91/91/91 89/89/89
f 95/95/95 94/94/94 93/93/93
f 96/96/96 95/95/95 93/93/93
f 99/99/99 98/98/98 97/97/97
f 100/100/100 99/99/99 97/97/97
f 103/103/103 102/102/102 101/101/101
f 104/104/104 103/103/103 101/101/101
f 107/107/107 106/106/106 105/105/105
f 108/108/108 107/107/107 105/105/105
f 111/111/111 110/110/110 109/109/109
f 112/112/112 111/111/111 109/109/109
f 115/115/115 114/114/114 113/113/113
f 116/116/116 115/115/115 113/113/113
f 119/119/119 118/118/118 117/117/117
f 117/117/117 120/120/120 119/119/119
f 117/117/117 121/121/121 120/120/120
f 124/124/124 123/123/123 122/122/122
f 125/125/125 124/124/124 122/122/122
f 128/128/128 127/127/127 126/126/126
f 129/129/129 128/128/128 126/126/126
f 132/132/132 131/131/131 130/130/130
f 133/133/133 132/132/132 130/130/130
f 136/136/136 135/135/135 134/134/134
f 137/137/137 136/136/136 134/134/134
f 140/140/140 139/139/139 138/138/138
f 141/141/141 140/140/140 138/138/138
f 144/144/144 143/143/143 142/142/142
f 145/145/145 144/144/144 142/142/142
