g Rock
v -0.02105899 0.002830962 0.03618884
v -0.01603289 0.009400974 0.02994008
v 0.0144274 0.01074826 0.03125009
v 0.01902212 0.004408027 0.03686539
v -0.02609524 0.01000733 0.0009899274
v -0.01023116 0.01323307 -0.0247223
v 0.01884054 0.008094611 -0.02384737
v 0.0316117 0.01064465 0.001500382
v -0.01023116 0.01323307 -0.0247223
v -0.016735 0.006642817 -0.03221706
v 0.0232542 0.00190006 -0.03147715
v 0.01884054 0.008094611 -0.02384737
v -0.01056783 0.002198087 -0.024634
v -0.02512794 -0.0007133904 0.001059853
v 0.03151869 -0.0002725717 0.001260404
v 0.01884355 -0.002637003 -0.023904
v 0.0316117 0.01064465 0.001500382
v 0.01884054 0.008094611 -0.02384737
v 0.0232542 0.00190006 -0.03147715
v 0.04011359 0.004245808 0.0006678384
v -0.016735 0.006642817 -0.03221706
v -0.01023116 0.01323307 -0.0247223
v -0.02609524 0.01000733 0.0009899274
v -0.03428289 0.003440866 0.000742223
v -0.01484246 -0.00147306 0.02928877
v -0.02105899 0.002830962 0.03618884
v 0.01902212 0.004408027 0.03686539
v 0.01506898 -0.0003873041 0.03005631
v 0.04011359 0.004245808 0.0006678384
v 0.0232542 0.00190006 -0.03147715
v 0.01884355 -0.002637003 -0.023904
v 0.03151869 -0.0002725717 0.001260404
v -0.016735 0.006642817 -0.03221706
v -0.01056783 0.002198087 -0.024634
v 0.01884355 -0.002637003 -0.023904
v 0.0232542 0.00190006 -0.03147715
v -0.01056783 0.002198087 -0.024634
v -0.016735 0.006642817 -0.03221706
v -0.03428289 0.003440866 0.000742223
v -0.02512794 -0.0007133904 0.001059853
v -0.01603289 0.009400974 0.02994008
v -0.02609524 0.01000733 0.0009899274
v 0.0316117 0.01064465 0.001500382
v 0.0144274 0.01074826 0.03125009
v 0.01902212 0.004408027 0.03686539
v 0.0144274 0.01074826 0.03125009
v 0.0316117 0.01064465 0.001500382
v 0.04011359 0.004245808 0.0006678384
v 0.01506898 -0.0003873041 0.03005631
v 0.01902212 0.004408027 0.03686539
v 0.04011359 0.004245808 0.0006678384
v 0.03151869 -0.0002725717 0.001260404
v -0.02512794 -0.0007133904 0.001059853
v -0.01484246 -0.00147306 0.02928877
v 0.01506898 -0.0003873041 0.03005631
v 0.03151869 -0.0002725717 0.001260404
v -0.03428289 0.003440866 0.000742223
v -0.02105899 0.002830962 0.03618884
v -0.01484246 -0.00147306 0.02928877
v -0.02512794 -0.0007133904 0.001059853
v -0.02609524 0.01000733 0.0009899274
v -0.01603289 0.009400974 0.02994008
v -0.02105899 0.002830962 0.03618884
v -0.03428289 0.003440866 0.000742223
vt 0.375 0.125
vt 0.375 0.25
vt 0.625 0.25
vt 0.625 0.125
vt 0.375 0.375
vt 0.375 0.5
vt 0.625 0.5
vt 0.625 0.375
vt 0.375 0.5
vt 0.375 0.625
vt 0.625 0.625
vt 0.625 0.5
vt 0.375 0.75
vt 0.375 0.875
vt 0.625 0.875
vt 0.625 0.75
vt 0.75 0.25
vt 0.875 0.25
vt 0.875 0.125
vt 0.75 0.125
vt 0.125 0.125
vt 0.125 0.25
vt 0.25 0.25
vt 0.25 0.125
vt 0.375 0
vt 0.375 0.125
vt 0.625 0.125
vt 0.625 0
vt 0.75 0.125
vt 0.875 0.125
vt 0.875 0
vt 0.75 0
vt 0.375 0.625
vt 0.375 0.75
vt 0.625 0.75
vt 0.625 0.625
vt 0.125 0
vt 0.125 0.125
vt 0.25 0.125
vt 0.25 0
vt 0.375 0.25
vt 0.375 0.375
vt 0.625 0.375
vt 0.625 0.25
vt 0.625 0.125
vt 0.625 0.25
vt 0.75 0.25
vt 0.75 0.125
vt 0.625 0
vt 0.625 0.125
vt 0.75 0.125
vt 0.75 0
vt 0.375 0.875
vt 0.375 1
vt 0.625 1
vt 0.625 0.875
vt 0.25 0.125
vt 0.375 0.125
vt 0.375 0
vt 0.25 0
vt 0.25 0.25
vt 0.375 0.25
vt 0.375 0.125
vt 0.25 0.125
vn -0.04874231 0.6767215 0.7346238
vn -0.04874231 0.6767216 0.7346238
vn -0.04874231 0.6767216 0.7346238
vn -0.04874231 0.6767216 0.7346238
vn 0.05153248 0.9985377 0.01633558
vn 0.05153248 0.9985377 0.01633558
vn 0.05153248 0.9985377 0.01633558
vn 0.05153248 0.9985377 0.01633558
vn 0.1224565 0.7495515 -0.6505204
vn 0.1224565 0.7495516 -0.6505204
vn 0.1224566 0.7495516 -0.6505204
vn 0.1224565 0.7495515 -0.6505204
vn -0.05085506 -0.9986262 -0.01262636
vn -0.05085506 -0.9986262 -0.01262636
vn -0.05085506 -0.9986262 -0.01262636
vn -0.05085506 -0.9986262 -0.01262636
vn 0.532533 0.7749232 -0.3404448
vn 0.532533 0.7749232 -0.3404448
vn 0.532533 0.7749232 -0.3404449
vn 0.5325329 0.7749232 -0.3404448
vn -0.5738663 0.7826674 -0.2410584
vn -0.5738663 0.7826674 -0.2410584
vn -0.5738663 0.7826674 -0.2410584
vn -0.5738664 0.7826674 -0.2410584
vn 0.02017742 -0.8314651 0.5552104
vn 0.02017742 -0.8314651 0.5552104
vn 0.02017742 -0.8314651 0.5552104
vn 0.02017742 -0.8314651 0.5552104
vn 0.4839961 -0.8565609 -0.1790289
vn 0.4839959 -0.8565609 -0.1790289
vn 0.4839959 -0.8565609 -0.1790289
vn 0.4839961 -0.8565609 -0.1790289
vn -0.1082437 -0.8606802 -0.4975067
vn -0.1082437 -0.8606802 -0.4975068
vn -0.1082437 -0.8606802 -0.4975068
vn -0.1082437 -0.8606802 -0.4975069
vn -0.3526267 -0.8910174 -0.2859064
vn -0.3526267 -0.8910174 -0.2859064
vn -0.3526267 -0.8910173 -0.2859064
vn -0.3526267 -0.8910174 -0.2859064
vn -0.02262367 0.9997271 0.005817438
vn -0.02262367 0.9997271 0.005817438
vn -0.02262367 0.9997271 0.005817438
vn -0.02262367 0.9997271 0.005817438
vn 0.5893759 0.733236 0.339118
vn 0.5893759 0.733236 0.339118
vn 0.5893759 0.733236 0.339118
vn 0.5893759 0.733236 0.3391179
vn 0.4799803 -0.8321161 0.2778517
vn 0.4799803 -0.8321161 0.2778518
vn 0.4799804 -0.8321162 0.2778518
vn 0.4799803 -0.8321161 0.2778517
vn 0.017782 -0.999752 -0.01340771
vn 0.017782 -0.999752 -0.01340771
vn 0.017782 -0.999752 -0.01340771
vn 0.017782 -0.999752 -0.01340771
vn -0.4307168 -0.8915862 0.1398463
vn -0.4307167 -0.8915862 0.1398463
vn -0.4307168 -0.8915862 0.1398463
vn -0.4307168 -0.8915862 0.1398464
vn -0.6271128 0.7407865 0.2407589
vn -0.6271129 0.7407865 0.2407589
vn -0.6271129 0.7407865 0.2407589
vn -0.6271129 0.7407865 0.2407589
g Rock_0
f 3/3/3 2/2/2 1/1/1
f 4/4/4 3/3/3 1/1/1
f 7/7/7 6/6/6 5/5/5
f 8/8/8 7/7/7 5/5/5
f 11/11/11 10/10/10 9/9/9
f 12/12/12 11/11/11 9/9/9
f 15/15/15 14/14/14 13/13/13
f 16/16/16 15/15/15 13/13/13
f 19/19/19 18/18/18 17/17/17
f 20/20/20 19/19/19 17/17/17
f 23/23/23 22/22/22 21/21/21
f 24/24/24 23/23/23 21/21/21
f 27/27/27 26/26/26 25/25/25
f 28/28/28 27/27/27 25/25/25
f 31/31/31 30/30/30 29/29/29
f 32/32/32 31/31/31 29/29/29
f 35/35/35 34/34/34 33/33/33
f 36/36/36 35/35/35 33/33/33
f 39/39/39 38/38/38 37/37/37
f 40/40/40 39/39/39 37/37/37
f 43/43/43 42/42/42 41/41/41
f 44/44/44 43/43/43 41/41/41
f 47/47/47 46/46/46 45/45/45
f 48/48/48 47/47/47 45/45/45
f 51/51/51 50/50/50 49/49/49
f 52/52/52 51/51/51 49/49/49
f 55/55/55 54/54/54 53/53/53
f 56/56/56 55/55/55 53/53/53
f 59/59/59 58/58/58 57/57/57
f 60/60/60 59/59/59 57/57/57
f 63/63/63 62/62/62 61/61/61
f 64/64/64 63/63/63 61/61/61
