g Shard3
v -0.2538036 0.6250579 -0.8592796
v -0.8128198 0.8926061 0.861195
v -0.3758894 0.6377744 -0.861195
v 0.05136389 0.6637848 -0.6447734
v -0.8128198 0.8926061 0.861195
v -0.2538036 0.6250579 -0.8592796
v 0.4650453 0.6637848 -0.510128
v -0.8128198 0.8926061 0.861195
v 0.05136389 0.6637848 -0.6447734
v 0.7698452 0.7048864 -0.2886778
v -0.8128198 0.8926061 0.861195
v 0.4650453 0.6637848 -0.510128
v 0.8058951 0.7382472 -0.1777243
v -0.8128198 0.8926061 0.861195
v 0.7698452 0.7048864 -0.2886778
v 0.8128198 0.6637848 -0.1564165
v -0.8128198 0.8926061 0.861195
v 0.8058951 0.7382472 -0.1777243
v 0.680774 0.6637848 -0.1284445
v -0.8128198 0.8926061 0.861195
v 0.8128198 0.6637848 -0.1564165
v 0.7698452 0.6637848 -0.2886778
v 0.8128198 0.6637848 -0.1564165
v 0.8058951 0.7382472 -0.1777243
v 0.7698452 0.7048864 -0.2886778
v 0.4650453 0.6637848 -0.510128
v 0.6556652 0.6637848 -0.2057221
v 0.4650453 0.6637848 -0.510128
v 0.05136389 0.6637848 -0.6447734
v 0.7698452 0.6637848 -0.2886778
v 0.8128198 0.6637848 -0.1564165
v 0.680774 0.6637848 -0.1284445
v -0.476098 -0.8681695 0.4332813
v -0.8128198 0.8926061 0.861195
v -0.4995449 -0.8926061 0.597616
v -0.4081596 -0.6051992 -0.1240802
v -0.3738546 -0.2728996 -0.4897991
v -0.3676353 -0.1956131 -0.5633029
v -0.3627578 0.3204955 -0.8134026
v -0.8128198 0.8926061 0.861195
v -0.3758894 0.6377744 -0.861195
v -0.4995449 -0.8926061 0.597616
v -0.8128198 0.8926061 0.861195
v -0.4237167 -0.8826072 0.5784949
v -0.3397758 -0.8681695 0.5562975
v -0.3397758 -0.8681695 0.5562975
v -0.8128198 0.8926061 0.861195
v 0.1186464 -0.6051992 0.3787562
v 0.4637725 -0.1956131 0.1803728
v 0.6618227 0.3204955 -0.0194343
v 0.680774 0.6637848 -0.1284445
v 0.6116776 0.3204955 -0.1737632
v 0.6556652 0.6637848 -0.2057221
v 0.05136389 0.6637848 -0.6447734
v 0.680774 0.6637848 -0.1284445
v 0.6618227 0.3204955 -0.0194343
v 0.3989296 -0.1956131 -0.01919306
v 0.4637725 -0.1956131 0.1803728
v -0.2687101 0.3204955 -0.8134026
v -0.2538036 0.6250579 -0.8592796
v -0.3758894 0.6377744 -0.861195
v -0.3627578 0.3204955 -0.8134026
v -0.3499727 -0.1956131 -0.5633029
v -0.3676353 -0.1956131 -0.5633029
v -0.3738546 -0.2728996 -0.4897991
v -0.4081596 -0.6051992 -0.1240802
v 0.06756797 -0.6051992 0.2215556
v 0.1186464 -0.6051992 0.3787562
v -0.3499727 -0.8681695 0.5249166
v -0.476098 -0.8681695 0.4332813
v -0.3397758 -0.8681695 0.5562975
v -0.4995449 -0.8926061 0.597616
v -0.4237167 -0.8826072 0.5784949
vt 0.1433971 0.9175901
vt 0.1377165 0.9197169
vt 0.1421565 0.9176912
vt 0.1464982 0.917898
vt 0.1377165 0.9197169
vt 0.1433971 0.9175901
vt 0.2075305 0.2022044
vt 0.1976334 0.2035908
vt 0.2043265 0.2022044
vt 0.157623 0.1953628
vt 0.1415402 0.196855
vt 0.1545257 0.1950361
vt 0.1579894 0.195628
vt 0.1415402 0.196855
vt 0.157623 0.1953628
vt 0.1580598 0.1950361
vt 0.1415402 0.196855
vt 0.1579894 0.195628
vt 0.2092014 0.2022044
vt 0.1976334 0.2035908
vt 0.2102241 0.2022044
vt 0.157623 0.1950361
vt 0.1580598 0.1950361
vt 0.1579894 0.195628
vt 0.157623 0.1953628
vt 0.1545257 0.1950361
vt 0.2090069 0.2022044
vt 0.2075305 0.2022044
vt 0.2043265 0.2022044
vt 0.2098912 0.2022044
vt 0.2102241 0.2022044
vt 0.2092014 0.2022044
vt 0.1411382 0.9057203
vt 0.1377165 0.9197169
vt 0.1408999 0.905526
vt 0.1418286 0.9078107
vt 0.1421772 0.9104522
vt 0.1422404 0.9110665
vt 0.14229 0.9151691
vt 0.1377165 0.9197169
vt 0.1421565 0.9176912
vt 0.1408999 0.905526
vt 0.1377165 0.9197169
vt 0.1416705 0.9056056
vt 0.1425235 0.9057203
vt 0.1425235 0.9057203
vt 0.1377165 0.9197169
vt 0.1471819 0.9078107
vt 0.1506891 0.9110665
vt 0.1527016 0.9151691
vt 0.1528942 0.917898
vt 0.1521921 0.9151691
vt 0.152639 0.917898
vt 0.1464982 0.917898
vt 0.1528942 0.917898
vt 0.1527016 0.9151691
vt 0.1500302 0.9110665
vt 0.1506891 0.9110665
vt 0.1432457 0.9151691
vt 0.1433971 0.9175901
vt 0.1421565 0.9176912
vt 0.14229 0.9151691
vt 0.1424199 0.9110665
vt 0.1422404 0.9110665
vt 0.1421772 0.9104522
vt 0.1418286 0.9078107
vt 0.1466628 0.9078107
vt 0.1471819 0.9078107
vt 0.1424199 0.9057203
vt 0.1411382 0.9057203
vt 0.1425235 0.9057203
vt 0.1408999 0.905526
vt 0.1416705 0.9056056
vn 0.1047125 0.9872957 -0.1195097
vn 0.1047125 0.9872957 -0.1195097
vn 0.1047125 0.9872957 -0.1195097
vn -0.01414203 0.9873168 -0.1581311
vn -0.01414203 0.9873168 -0.1581311
vn -0.01414204 0.9873168 -0.1581311
vn 0.0412988 0.9910573 -0.1268854
vn 0.04129881 0.9910573 -0.1268853
vn 0.0412988 0.9910573 -0.1268853
vn -0.007998235 0.9850945 -0.1718278
vn -0.007998235 0.9850945 -0.1718277
vn -0.007998235 0.9850945 -0.1718277
vn -0.07765815 0.9614341 -0.2638438
vn -0.07765815 0.9614341 -0.2638438
vn -0.07765815 0.9614341 -0.2638438
vn 0.5374987 0.2778171 0.7961865
vn 0.5374986 0.2778171 0.7961864
vn 0.5374987 0.2778171 0.7961864
vn 0.548896 -0.03001865 0.8353515
vn 0.4870872 0.04961565 0.8719428
vn 0.06801078 -0.9446153 0.3210553
vn 0.8069251 6.150939E-06 -0.5906538
vn 0.951057 1.182914E-05 -0.3090154
vn 0.951057 1.182914E-05 -0.3090154
vn 0.828794 6.874882E-06 -0.5595539
vn 0.5877853 0 -0.809017
vn 0 -1 2.217445E-07
vn 0 -1 2.333948E-07
vn 0 -1 2.333948E-07
vn 0 -1 2.217444E-07
vn 0 -1 1.623243E-07
vn 0 -1 1.623243E-07
vn -0.9733397 -0.142447 -0.1797735
vn -0.9719559 -0.1359157 -0.191908
vn -0.9758514 -0.1474512 -0.1611585
vn -0.9716274 -0.1345465 -0.1945187
vn -0.9703161 -0.1266048 -0.2060531
vn -0.970059 -0.1217832 -0.210129
vn -0.969069 -0.09177364 -0.2290917
vn -0.9690295 -0.09447082 -0.2281596
vn -0.9691384 -0.0754617 -0.2346833
vn 0.2553847 -0.09721059 0.9619401
vn 0.2553846 -0.09721059 0.9619401
vn 0.2553847 -0.09721059 0.9619401
vn 0.2695399 -0.09354972 0.9584345
vn 0.3879265 -0.05509632 0.9200421
vn 0.4870872 0.04961565 0.8719428
vn 0.4350914 -0.01936691 0.900178
vn 0.512906 0.06622316 0.8558866
vn 0.5504932 0.1567345 0.8199949
vn 0.548896 -0.03001865 0.8353515
vn 0.6140994 -0.3286444 -0.7175477
vn 0.6282515 -0.1515441 -0.7631084
vn 0.5812283 -0.1489526 -0.7999918
vn 0.9404469 -0.1489511 -0.3055702
vn 0.8816249 -0.3750724 -0.286458
vn 0.5577025 -0.549679 -0.6219491
vn 0.7719168 -0.5841556 -0.2508122
vn 0.5264075 -0.3188345 -0.7881876
vn 0.5408019 -0.1511123 -0.8274651
vn 0 -0.1489519 -0.9888445
vn 0 -0.2901087 -0.9569938
vn 0.4813851 -0.5354706 -0.6939305
vn 0 -0.44422 -0.8959177
vn 0.4258739 -0.68916 -0.5862507
vn 0.3975004 -0.7366555 -0.5471124
vn 0.4454201 -0.7567227 -0.4785098
vn 0.6071568 -0.769702 -0.19728
vn 0.3087243 -0.8929206 -0.3276924
vn 0.2721458 -0.8863568 -0.3745774
vn 0.4422443 -0.8853082 -0.1436987
vn 0.09655837 -0.9864139 -0.1329065
vn 0.09743618 -0.986487 -0.1317181
g Shard3_0
f 3/3/3 2/2/2 1/1/1
f 6/6/6 5/5/5 4/4/4
f 9/9/9 8/8/8 7/7/7
f 12/12/12 11/11/11 10/10/10
f 15/15/15 14/14/14 13/13/13
f 18/18/18 17/17/17 16/16/16
f 21/21/21 20/20/20 19/19/19
f 24/24/24 23/23/23 22/22/22
f 25/25/25 24/24/24 22/22/22
f 25/25/25 22/22/22 26/26/26
f 29/29/29 28/28/28 27/27/27
f 28/28/28 30/30/30 27/27/27
f 27/27/27 30/30/30 31/31/31
f 32/32/32 27/27/27 31/31/31
f 35/35/35 34/34/34 33/33/33
f 33/33/33 34/34/34 36/36/36
f 36/36/36 34/34/34 37/37/37
f 37/37/37 34/34/34 38/38/38
f 38/38/38 40/40/40 39/39/39
f 39/39/39 40/40/40 41/41/41
f 44/44/44 43/43/43 42/42/42
f 45/45/45 43/43/43 44/44/44
f 48/48/48 47/47/47 46/46/46
f 49/49/49 47/47/47 48/48/48
f 50/50/50 47/47/47 49/49/49
f 51/51/51 47/47/47 50/50/50
f 54/54/54 53/53/53 52/52/52
f 52/52/52 53/53/53 55/55/55
f 56/56/56 52/52/52 55/55/55
f 57/57/57 52/52/52 56/56/56
f 58/58/58 57/57/57 56/56/56
f 52/52/52 59/59/59 54/54/54
f 59/59/59 52/52/52 57/57/57
f 59/59/59 60/60/60 54/54/54
f 61/61/61 60/60/60 59/59/59
f 62/62/62 61/61/61 59/59/59
f 62/62/62 59/59/59 63/63/63
f 63/63/63 59/59/59 57/57/57
f 64/64/64 62/62/62 63/63/63
f 64/64/64 63/63/63 65/65/65
f 65/65/65 63/63/63 57/57/57
f 57/57/57 66/66/66 65/65/65
f 67/67/67 57/57/57 58/58/58
f 57/57/57 67/67/67 66/66/66
f 68/68/68 67/67/67 58/58/58
f 66/66/66 67/67/67 69/69/69
f 69/69/69 67/67/67 68/68/68
f 70/70/70 66/66/66 69/69/69
f 71/71/71 69/69/69 68/68/68
f 70/70/70 69/69/69 72/72/72
f 71/71/71 73/73/73 69/69/69
f 69/69/69 73/73/73 72/72/72
