g Shard4
v 0.4179808 0.04476001 -0.247936
v -0.8093575 -0.5273506 0.9302667
v -0.07967685 0.5608686 -0.3003657
v -0.07967685 0.5608686 -0.3003657
v -0.8093575 -0.5273506 0.9302667
v -0.4114522 0.7710254 -0.2943605
v 0.8093575 -0.6817095 -0.1086526
v -0.8093575 -0.5273506 0.9302667
v 0.7737318 -0.2985293 -0.2183016
v 0.5979866 -0.2985293 -0.1810725
v -0.8093575 -0.5273506 0.9302667
v 0.4179808 0.04476001 -0.247936
v 0.7733076 -0.7150702 -0.2196061
v -0.8093575 -0.5273506 0.9302667
v 0.8093575 -0.6817095 -0.1086526
v 0.4685076 -0.7561719 -0.4410563
v -0.8093575 -0.5273506 0.9302667
v 0.7733076 -0.7150702 -0.2196061
v -0.2503413 -0.7948989 -0.7902078
v -0.8093575 -0.5273506 0.9302667
v 0.05482624 -0.7561719 -0.5757016
v 0.05482624 -0.7561719 -0.5757016
v -0.8093575 -0.5273506 0.9302667
v 0.4685076 -0.7561719 -0.4410563
v -0.4114522 0.7710254 -0.2943605
v -0.8093575 -0.5273506 0.9302667
v -0.5531009 0.7948989 -0.2716552
v -0.372427 -0.7821824 -0.7921232
v -0.8093575 -0.5273506 0.9302667
v -0.2503413 -0.7948989 -0.7902078
v -0.4029383 -0.2985293 -0.7960413
v -0.8093575 -0.5273506 0.9302667
v -0.3825037 -0.2985293 -0.9302667
v -0.3735036 -0.7561719 -0.7960413
v -0.8093575 -0.5273506 0.9302667
v -0.372427 -0.7821824 -0.7921232
v -0.3530691 -0.7561719 -0.9302667
v -0.8093575 -0.5273506 0.9302667
v -0.3735036 -0.7561719 -0.7960413
v -0.3825037 -0.2985293 -0.9302667
v -0.8093575 -0.5273506 0.9302667
v -0.3530691 -0.7561719 -0.9302667
v -0.2048334 -0.2985293 -0.9302667
v -0.3825037 -0.2985293 -0.9302667
v -0.3530691 -0.7561719 -0.9302667
v -0.2048334 -0.7561719 -0.9302667
v 0.4685076 -0.7561719 -0.4410563
v 0.7733076 -0.2985293 -0.2196061
v 0.7733076 -0.7150702 -0.2196061
v 0.8093575 -0.6817095 -0.1086526
v 0.7737318 -0.2985293 -0.2183016
v -0.2484461 -0.2985293 -0.7960413
v -0.4328927 0.04476001 -0.7443309
v -0.4029383 -0.2985293 -0.7960413
v -0.2652478 0.04476001 -0.7443309
v -0.5041634 0.5608686 -0.4942311
v 0.4179808 0.04476001 -0.247936
v 0.5979866 -0.2985293 -0.1810725
v -0.07967685 0.5608686 -0.3003657
v -0.3465104 0.5608686 -0.4942311
v -0.5531009 0.7948989 -0.2716552
v -0.4114522 0.7710254 -0.2943605
v -0.2484461 -0.7561719 -0.7960413
v -0.3530691 -0.7561719 -0.9302667
v -0.3735036 -0.7561719 -0.7960413
v -0.2048334 -0.7561719 -0.9302667
v 0.4685076 -0.7561719 -0.4410563
v 0.05482624 -0.7561719 -0.5757016
v 0.7705975 -0.2985293 -0.217638
v 0.7733076 -0.2985293 -0.2196061
v 0.7737318 -0.2985293 -0.2183016
v 0.5979866 -0.2985293 -0.1810725
v -0.2484461 -0.2985293 -0.7960413
v -0.2048334 -0.2985293 -0.9302667
v -0.3825037 -0.2985293 -0.9302667
v -0.4029383 -0.2985293 -0.7960413
v 0.05482624 -0.7561719 -0.5757016
v -0.2484461 -0.7561719 -0.7960413
v -0.2503413 -0.7948989 -0.7902078
v -0.3735036 -0.7561719 -0.7960413
v -0.372427 -0.7821824 -0.7921232
v 0.7737318 -0.2985293 -0.2183016
v -0.8093575 -0.5273506 0.9302667
v 0.7705975 -0.2985293 -0.217638
v 0.5979866 -0.2985293 -0.1810725
v -0.4328927 0.04476001 -0.7443309
v -0.8093575 -0.5273506 0.9302667
v -0.4029383 -0.2985293 -0.7960413
v -0.5041634 0.5608686 -0.4942311
v -0.5531009 0.7948989 -0.2716552
vt 0.1501886 0.9242647
vt 0.1377165 0.9197169
vt 0.1451314 0.9283673
vt 0.1451314 0.9283673
vt 0.1377165 0.9197169
vt 0.1417599 0.930038
vt 0.1579894 0.195628
vt 0.1415402 0.196855
vt 0.1576274 0.198674
vt 0.1520177 0.9215358
vt 0.1377165 0.9197169
vt 0.1501886 0.9242647
vt 0.157623 0.1953628
vt 0.1415402 0.196855
vt 0.1579894 0.195628
vt 0.1545257 0.1950361
vt 0.1415402 0.196855
vt 0.157623 0.1953628
vt 0.201963 0.2019697
vt 0.1976334 0.2035908
vt 0.2043265 0.2022044
vt 0.2043265 0.2022044
vt 0.1976334 0.2035908
vt 0.2075305 0.2022044
vt 0.1417599 0.930038
vt 0.1377165 0.9197169
vt 0.1403205 0.9302276
vt 0.2010174 0.2020468
vt 0.1976334 0.2035908
vt 0.201963 0.2019697
vt 0.08262405 0.199926
vt 0.08126655 0.199328
vt 0.08269233 0.199926
vt 0.2010091 0.2022044
vt 0.1976334 0.2035908
vt 0.2010174 0.2020468
vt 0.2011673 0.2022044
vt 0.1976334 0.2035908
vt 0.2010091 0.2022044
vt 0.1458778 0.198674
vt 0.1415402 0.196855
vt 0.1461769 0.1950361
vt 0.1476833 0.198674
vt 0.1458778 0.198674
vt 0.1461769 0.1950361
vt 0.1476833 0.1950361
vt 0.1545257 0.1950361
vt 0.157623 0.198674
vt 0.157623 0.1953628
vt 0.1579894 0.195628
vt 0.1576274 0.198674
vt 0.1434164 0.9215358
vt 0.141542 0.9242647
vt 0.1418464 0.9215358
vt 0.1432457 0.9242647
vt 0.1408178 0.9283673
vt 0.1501886 0.9242647
vt 0.1520177 0.9215358
vt 0.1451314 0.9283673
vt 0.1424199 0.9283673
vt 0.1403205 0.9302276
vt 0.1417599 0.930038
vt 0.2019777 0.2022044
vt 0.2011673 0.2022044
vt 0.2010091 0.2022044
vt 0.2023154 0.2022044
vt 0.2075305 0.2022044
vt 0.2043265 0.2022044
vt 0.08654386 0.199926
vt 0.08655292 0.199926
vt 0.08655435 0.199926
vt 0.0859673 0.199926
vt 0.08314011 0.199926
vt 0.08328578 0.199926
vt 0.08269233 0.199926
vt 0.08262405 0.199926
vt 0.2043265 0.2022044
vt 0.2019777 0.2022044
vt 0.201963 0.2019697
vt 0.2010091 0.2022044
vt 0.2010174 0.2020468
vt 0.08655435 0.199926
vt 0.08126655 0.199328
vt 0.08654386 0.199926
vt 0.0859673 0.199926
vt 0.141542 0.9242647
vt 0.1377165 0.9197169
vt 0.1418464 0.9215358
vt 0.1408178 0.9283673
vt 0.1403205 0.9302276
vn 0.456932 0.5143214 0.7257318
vn 0.456932 0.5143214 0.7257318
vn 0.456932 0.5143214 0.7257318
vn 0.3757258 0.5723325 0.7288797
vn 0.3757258 0.5723325 0.7288797
vn 0.3757258 0.5723325 0.7288797
vn 0.5374994 0.2778069 0.7961894
vn 0.5374994 0.2778069 0.7961894
vn 0.5374994 0.2778069 0.7961895
vn 0.5202262 0.4178551 0.7448233
vn 0.5202262 0.4178551 0.7448233
vn 0.5202262 0.4178551 0.7448233
vn 0.07765819 -0.9614341 0.2638439
vn 0.07765819 -0.9614341 0.263844
vn 0.07765819 -0.9614341 0.2638439
vn 0.007998235 -0.9850945 0.1718277
vn 0.007998235 -0.9850945 0.1718277
vn 0.007998235 -0.9850945 0.1718278
vn 0.01414208 -0.9873168 0.1581311
vn 0.01414207 -0.9873168 0.1581311
vn 0.01414207 -0.9873168 0.1581311
vn -0.0412988 -0.9910573 0.1268853
vn -0.04129881 -0.9910573 0.1268853
vn -0.0412988 -0.9910573 0.1268853
vn 0.2253422 0.631061 0.7422823
vn 0.2253421 0.631061 0.7422822
vn 0.2253422 0.631061 0.7422823
vn -0.1047125 -0.9872957 0.1195096
vn -0.1047125 -0.9872957 0.1195096
vn -0.1047125 -0.9872957 0.1195096
vn -0.8400565 0.5272087 -0.1278907
vn -0.8400565 0.5272087 -0.1278907
vn -0.8400565 0.5272087 -0.1278907
vn -0.9691384 -0.07546511 -0.2346825
vn -0.9691384 -0.0754651 -0.2346825
vn -0.9691384 -0.07546511 -0.2346825
vn -0.7917956 -0.5987729 -0.1205435
vn -0.7917956 -0.5987729 -0.1205435
vn -0.7917956 -0.5987729 -0.1205435
vn -0.9710729 -0.06245746 -0.2304703
vn -0.9710729 -0.06245746 -0.2304703
vn -0.9710729 -0.06245746 -0.2304703
vn 0.5278774 1.685791E-07 -0.8493205
vn -3.420514E-07 0 -1
vn -3.420515E-07 0 -1
vn 0.5278774 1.685791E-07 -0.8493205
vn 0.5877849 1.877107E-07 -0.8090172
vn 0.608242 0 -0.7937517
vn 0.6036896 0 -0.7972195
vn 0.9510586 -1.042423E-06 -0.3090107
vn 0.9510586 -1.042423E-06 -0.3090107
vn 0.5085708 0.1525378 -0.8474007
vn 3.186173E-07 0.3406966 -0.9401733
vn 9.157275E-07 0.1489521 -0.9888443
vn 0.4731865 0.3029356 -0.8272391
vn -2.098562E-07 0.5341478 -0.8453911
vn 0.5703454 0.2417854 -0.7850134
vn 0.581228 0.1489526 -0.799992
vn 0.524942 0.4498883 -0.7225208
vn 0.3994002 0.4894224 -0.7752066
vn -5.698314E-07 0.6891511 -0.7246177
vn 0.1464599 0.7051088 -0.693809
vn 0 -1 0
vn 0 -1 0
vn 0 -1 0
vn 0 -1 0
vn 0 -1 1.580082E-07
vn 0 -1 1.580082E-07
vn 0 1 -2.746489E-07
vn 0 1 -2.746455E-07
vn 0 1 0
vn 0 1 -2.746495E-07
vn 0 1 -2.39416E-07
vn 0 1 -2.394162E-07
vn 0 1 0
vn 0 1 0
vn 0.5812277 -0.1489474 -0.7999932
vn 0.3917819 -0.1557627 -0.9067773
vn 0.3918133 -0.1557622 -0.9067637
vn 0 -0.1489539 -0.9888442
vn 0 -0.1489539 -0.9888442
vn 0.05723858 0.9610602 0.2703464
vn 0.05723859 0.9610602 0.2703464
vn 0.05723859 0.9610602 0.2703464
vn 0.05728491 0.9610374 0.2704174
vn -0.9735479 -0.02435038 -0.2271815
vn -0.9735479 -0.02435038 -0.2271815
vn -0.9707279 -0.04929373 -0.2350692
vn -0.9735479 -0.02435038 -0.2271815
vn -0.9773296 -0.003026824 -0.211702
g Shard4_0
f 3/3/3 2/2/2 1/1/1
f 6/6/6 5/5/5 4/4/4
f 9/9/9 8/8/8 7/7/7
f 12/12/12 11/11/11 10/10/10
f 15/15/15 14/14/14 13/13/13
f 18/18/18 17/17/17 16/16/16
f 21/21/21 20/20/20 19/19/19
f 24/24/24 23/23/23 22/22/22
f 27/27/27 26/26/26 25/25/25
f 30/30/30 29/29/29 28/28/28
f 33/33/33 32/32/32 31/31/31
f 36/36/36 35/35/35 34/34/34
f 39/39/39 38/38/38 37/37/37
f 42/42/42 41/41/41 40/40/40
f 45/45/45 44/44/44 43/43/43
f 46/46/46 45/45/45 43/43/43
f 47/47/47 46/46/46 43/43/43
f 47/47/47 43/43/43 48/48/48
f 48/48/48 49/49/49 47/47/47
f 49/49/49 48/48/48 50/50/50
f 48/48/48 51/51/51 50/50/50
f 54/54/54 53/53/53 52/52/52
f 53/53/53 55/55/55 52/52/52
f 53/53/53 56/56/56 55/55/55
f 52/52/52 55/55/55 57/57/57
f 58/58/58 52/52/52 57/57/57
f 57/57/57 55/55/55 59/59/59
f 56/56/56 60/60/60 55/55/55
f 55/55/55 60/60/60 59/59/59
f 56/56/56 61/61/61 60/60/60
f 59/59/59 60/60/60 62/62/62
f 61/61/61 62/62/62 60/60/60
f 65/65/65 64/64/64 63/63/63
f 64/64/64 66/66/66 63/63/63
f 63/63/63 66/66/66 67/67/67
f 68/68/68 63/63/63 67/67/67
f 71/71/71 70/70/70 69/69/69
f 72/72/72 69/69/69 70/70/70
f 73/73/73 72/72/72 70/70/70
f 70/70/70 74/74/74 73/73/73
f 73/73/73 74/74/74 75/75/75
f 76/76/76 73/73/73 75/75/75
f 79/79/79 78/78/78 77/77/77
f 80/80/80 78/78/78 79/79/79
f 81/81/81 80/80/80 79/79/79
f 84/84/84 83/83/83 82/82/82
f 85/85/85 83/83/83 84/84/84
f 88/88/88 87/87/87 86/86/86
f 86/86/86 87/87/87 89/89/89
f 89/89/89 87/87/87 90/90/90
