g Chain_019
v 0.03923188 0.01212857 -0.004821443
v 0.04685487 0.0003843462 0.007774077
v 0.04160276 0.0003843322 -0.004821443
v 0.04685487 0.0003843468 -0.01741695
v 0.0392318 -0.01135999 -0.004821441
v 0.04407873 0.01414234 0.007767604
v 0.04407873 0.01414234 -0.01741049
v 0.03281655 0.02173201 -0.004821445
v 0.04407868 -0.01337378 0.00776756
v 0.04407868 -0.01337378 -0.01741044
v 0.0328165 -0.02096312 -0.004821444
v 0.0594443 0.0003843278 0.01290961
v 0.05569998 -0.01819978 0.01290231
v 0.03654864 0.02541682 0.007760677
v 0.02339893 0.02820406 -0.004821446
v 0.03654863 0.02541683 -0.01740357
v 0.05570002 0.01896833 0.01290231
v 0.0594443 0.0003843307 -0.02255248
v 0.05569997 -0.01819978 -0.02254519
v 0.05570002 0.01896833 -0.02254519
v 0.04549777 -0.03348573 0.0128947
v 0.03654861 -0.02464804 0.007760657
v 0.02339876 -0.02743537 -0.004821446
v 0.0365486 -0.02464804 -0.01740354
v 0.04549778 -0.03348573 -0.02253758
v 0.07192629 0.0003843343 -0.01730918
v 0.06722443 0.0237526 -0.01730482
v 0.0770702 0.0003843442 -0.004821436
v 0.06722438 -0.02298399 -0.01730477
v 0.03036913 -0.04385917 -0.02255253
v 0.05437281 -0.04225122 -0.01730021
v 0.02544716 -0.03227345 -0.01741864
v 0.07197403 -0.02495555 -0.004821437
v 0.05437282 0.04301997 -0.01730028
v 0.07197398 0.02572411 -0.004821439
v 0.04549781 0.0342545 -0.02253763
v 0.02544732 0.03304218 -0.01741868
v 0.03526026 0.0561108 -0.01731022
v 0.05803063 0.04663267 -0.004821439
v 0.03036917 0.04462789 -0.02255258
v 0.01186356 0.04839014 -0.02241425
v 0.01060394 0.03598525 -0.01728852
v 0.01313083 0.06073811 -0.01723389
v 0.06722443 0.0237526 0.007661946
v 0.05437282 0.04301997 0.0076574
v 0.03727793 0.06084341 -0.004821446
v 0.01365623 0.06583663 -0.004821444
v -0.04648001 0.06545224 6.068083E-08
v 0.03526026 0.05611079 0.007667327
v -0.04595461 0.06035382 -0.01241234
v 0.01313084 0.06073811 0.00759099
v -0.04342773 0.03560087 -0.01246699
v -0.04468731 0.04800574 -0.01759273
v 0.01008738 0.03083104 -0.004821449
v 0.0454978 0.03425449 0.01289474
v 0.03036916 0.04462789 0.01290969
v 0.02544733 0.03304218 0.007775791
v 0.07192628 0.0003843328 0.007666304
v 0.06722438 -0.02298399 0.0076619
v 0.01060394 0.03598525 0.007645631
v 0.01186356 0.04839014 0.01277136
v 0.05437281 -0.04225123 0.007657338
v -0.04342773 0.03560087 0.01246711
v -0.04595461 0.06035382 0.01241246
v 0.05803062 -0.04586392 -0.004821438
v 0.03036911 -0.04385917 0.01290965
v -0.04291112 0.03044664 6.130483E-08
v -0.05622255 0.02781962 5.897739E-08
v -0.04468732 0.04800574 0.01759285
v -0.05827095 0.03265771 0.01259727
v -0.06319293 0.04424338 0.01773122
v -0.06808416 0.05572622 0.01248881
v -0.0783216 0.03387011 0.01771621
v 0.02544716 -0.03227345 0.007775746
v -0.05827095 0.03265771 -0.01259715
v -0.06937238 0.02503243 0.01258215
v -0.06319291 0.04424338 -0.0177311
v -0.06808416 0.05572622 -0.01248869
v -0.07832159 0.03387011 -0.0177161
v -0.06937238 0.02503243 -0.01258204
v -0.06564026 0.02134754 5.733075E-08
v -0.07010183 0.06045888 5.655066E-08
v -0.09085439 0.04624832 5.292217E-08
v -0.08719664 0.04263563 0.01247887
v -0.08719664 0.04263563 -0.01247877
v -0.08852373 0.01858388 0.01772376
v -0.08852373 0.01858388 -0.01772365
v -0.1047977 0.02533968 5.048424E-08
v -0.07690249 0.01375789 0.01258903
v -0.07690249 0.01375789 -0.01258892
v -0.1000482 0.02336809 0.01248339
v -0.109894 -3.943569E-08 4.959319E-08
v -0.1000482 0.02336809 -0.01248329
v -0.09226806 -6.52432E-08 0.01773105
v -0.07205561 0.01174413 5.620905E-08
v -0.09226806 -6.52432E-08 -0.01773095
v -0.1047501 -5.174168E-08 0.01248775
v -0.07967862 -6.729428E-08 0.01259555
v -0.07967862 -6.729428E-08 -0.01259544
v -0.1047501 -5.174168E-08 -0.01248764
v -0.0885238 -0.01858412 0.01772371
v -0.0885238 -0.01858412 -0.01772361
v -0.07442653 -5.094805E-08 5.579451E-08
v -0.07205561 -0.01174428 5.620905E-08
v -0.1000482 -0.02336839 0.01248334
v -0.1000482 -0.02336839 -0.01248324
v -0.07690251 -0.01375807 0.01258901
v -0.07690251 -0.01375807 -0.0125889
v -0.07832158 -0.03387013 0.01771612
v -0.1047978 -0.02533994 5.048423E-08
v -0.07832158 -0.03387013 -0.01771601
v -0.06564029 -0.02134755 5.733074E-08
v -0.06937241 -0.02503242 0.01258209
v -0.05622275 -0.02781961 5.897736E-08
v -0.06937241 -0.02503242 -0.01258197
v -0.08719663 -0.04263563 0.01247878
v -0.08719663 -0.04263563 -0.01247867
v -0.06319296 -0.04424353 0.01773112
v -0.06319296 -0.04424353 -0.01773101
v -0.09085438 -0.04624832 5.292217E-08
v -0.0582711 -0.03265773 0.01259723
v -0.0582711 -0.03265773 -0.01259711
v -0.06808411 -0.0557264 0.01248869
v -0.06808411 -0.0557264 -0.01248858
v -0.07010166 -0.06045904 5.65507E-08
v -0.04648003 -0.06545226 6.068083E-08
v -0.04595461 -0.06035385 0.01241234
v 0.0136562 -0.06506786 -0.004821441
v -0.04595461 -0.06035385 -0.01241222
v -0.04468732 -0.04800587 0.01759273
v -0.04468731 -0.04800587 -0.01759261
v -0.04342771 -0.03560106 0.01246702
v 0.0118635 -0.04762147 0.01277125
v -0.04342771 -0.03560106 -0.0124669
v 0.01186351 -0.04762147 -0.02241414
v -0.04291113 -0.03044681 6.130483E-08
v 0.01313077 -0.05996944 0.00759088
v 0.01313077 -0.05996943 -0.01723378
v 0.01060393 -0.03521666 0.007645538
v 0.01060393 -0.03521665 -0.01728843
v 0.01008737 -0.03006241 -0.004821449
v 0.03526036 -0.055342 0.007667215
v 0.03526036 -0.055342 -0.0173101
v 0.03727805 -0.06007458 -0.004821441
vn -0.9233398 -0.3837891 0
vn -0.6782227 2.384186E-07 0.7348633
vn -1 1.311302E-06 0
vn -0.6782227 1.788139E-07 -0.7348633
vn -0.9233398 0.3837891 0
vn -0.6269531 -0.2602539 0.734375
vn -0.6269531 -0.2602539 -0.734375
vn -0.7119141 -0.7026367 0
vn -0.6269531 0.2602539 0.734375
vn -0.6269531 0.2602539 -0.734375
vn -0.7119141 0.7026367 0
vn 0.05334473 -5.960464E-07 0.9985352
vn 0.04830933 -0.02035522 0.9985352
vn -0.4836426 -0.4777832 0.7333984
vn -0.388916 -0.9213867 0
vn -0.4836426 -0.4777832 -0.7333984
vn 0.04830933 0.02035522 0.9985352
vn 0.05334473 -7.152557E-07 -0.9985352
vn 0.04830933 -0.02035522 -0.9985352
vn 0.04830933 0.02035522 -0.9985352
vn 0.03674316 -0.03604126 0.9985352
vn -0.4836426 0.4777832 0.7333984
vn -0.388916 0.9213867 0
vn -0.4836426 0.4777832 -0.7333984
vn 0.03674316 -0.03607178 -0.9985352
vn 0.7319336 -2.384186E-07 -0.6816406
vn 0.6757813 0.2805176 -0.6821289
vn 1 4.768372E-07 0
vn 0.675293 -0.2805176 -0.6821289
vn 0.01843262 -0.04919434 -0.9985352
vn 0.5205078 -0.5136719 -0.6821289
vn -0.2651367 0.6220703 -0.7363281
vn 0.9238281 -0.3833008 0
vn 0.5205078 0.5136719 -0.6821289
vn 0.9238281 0.3833008 0
vn 0.03674316 0.03604126 -0.9985352
vn -0.2651367 -0.6220703 -0.7363281
vn 0.2858887 0.671875 -0.6831055
vn 0.7114258 0.7026367 1.192093E-07
vn 0.01843262 0.04919434 -0.9985352
vn -0.04187012 0.02931213 -0.9985352
vn -0.1004639 -0.6831055 -0.7231445
vn 0.04272461 0.715332 -0.6977539
vn 0.6757813 0.2805176 0.6821289
vn 0.5205078 0.5136719 0.6821289
vn 0.3928223 0.9194336 1.192093E-07
vn 0.09924316 0.9951172 -0.009941101
vn -0.1054688 0.9941406 0.009994507
vn 0.2858887 0.671875 0.6831055
vn -0.1031494 0.7207031 -0.6855469
vn 0.09838867 0.722168 0.6850586
vn 0.04141235 -0.6982422 -0.7148438
vn -0.04318237 0.02719116 -0.9985352
vn -0.09576416 -0.9951172 -0.01086426
vn 0.03674316 0.03604126 0.9985352
vn 0.01843262 0.04919434 0.9985352
vn -0.2651367 -0.6220703 0.7363281
vn 0.7319336 -1.788139E-07 0.6816406
vn 0.675293 -0.2805176 0.6821289
vn -0.03616333 -0.6972656 0.7158203
vn 0.0430603 0.02891541 0.9985352
vn 0.5205078 -0.5136719 0.6821289
vn 0.1052246 -0.6835938 0.722168
vn -0.04711914 0.7143555 0.6982422
vn 0.7114258 -0.7026367 -1.192093E-07
vn 0.01843262 -0.04919434 0.9985352
vn 0.1030273 -0.9946289 0.01077271
vn 0.388916 -0.9213867 0
vn 0.04174805 0.02772522 0.9985352
vn 0.2651367 -0.6220703 0.7363281
vn -0.01843262 0.04919434 0.9985352
vn -0.2858887 0.671875 0.6831055
vn -0.03674316 0.03604126 0.9985352
vn -0.2651367 0.6220703 0.7363281
vn 0.2651367 -0.6220703 -0.7363281
vn 0.4836426 -0.4777832 0.7333984
vn -0.01843262 0.04919434 -0.9985352
vn -0.2858887 0.671875 -0.6831055
vn -0.03674316 0.03604126 -0.9985352
vn 0.4836426 -0.4777832 -0.7333984
vn 0.7119141 -0.7026367 0
vn -0.3928223 0.9194336 0
vn -0.7114258 0.7026367 0
vn -0.5205078 0.5136719 0.6821289
vn -0.5205078 0.5136719 -0.6821289
vn -0.04830933 0.02035522 0.9985352
vn -0.04830933 0.02035522 -0.9985352
vn -0.9238281 0.3833008 0
vn 0.6269531 -0.2602539 0.734375
vn 0.6269531 -0.2602539 -0.734375
vn -0.6757813 0.2805176 0.6821289
vn -1 1.549721E-06 0
vn -0.6757813 0.2805176 -0.6821289
vn -0.05334473 -8.940697E-07 0.9985352
vn 0.9233398 -0.3837891 0
vn -0.05334473 -8.940697E-07 -0.9985352
vn -0.7319336 7.152557E-07 0.6816406
vn 0.6782227 -1.490116E-06 0.7348633
vn 0.6782227 -1.490116E-06 -0.7348633
vn -0.7319336 7.152557E-07 -0.6816406
vn -0.04830933 -0.02035522 0.9985352
vn -0.04830933 -0.02035522 -0.9985352
vn 1 -1.192093E-06 0
vn 0.9233398 0.3837891 0
vn -0.675293 -0.2805176 0.6821289
vn -0.675293 -0.2805176 -0.6821289
vn 0.6269531 0.2602539 0.734375
vn 0.6269531 0.2602539 -0.734375
vn -0.03674316 -0.03604126 0.9985352
vn -0.9238281 -0.3833008 0
vn -0.03674316 -0.03604126 -0.9985352
vn 0.7119141 0.7026367 0
vn 0.4836426 0.4777832 0.7333984
vn 0.388916 0.9213867 0
vn 0.4836426 0.4777832 -0.7333984
vn -0.5205078 -0.5136719 0.6821289
vn -0.5205078 -0.5136719 -0.6821289
vn -0.01843262 -0.04919434 0.9985352
vn -0.01843262 -0.04919434 -0.9985352
vn -0.7114258 -0.7026367 0
vn 0.2651367 0.6220703 0.7363281
vn 0.2651367 0.6220703 -0.7363281
vn -0.2858887 -0.671875 0.6831055
vn -0.2858887 -0.671875 -0.6831055
vn -0.3928223 -0.9194336 0
vn -0.09924316 -0.9951172 0.009941101
vn -0.04272461 -0.715332 0.6977539
vn 0.1054688 -0.9941406 -0.009994507
vn -0.09838867 -0.722168 -0.6850586
vn 0.04187012 -0.02931213 0.9985352
vn -0.0430603 -0.02891541 -0.9985352
vn 0.1004639 0.6831055 0.7231445
vn 0.04318237 -0.02719116 0.9985352
vn 0.03619385 0.6972656 -0.7158203
vn -0.04174805 -0.02772522 -0.9985352
vn 0.09576416 0.9951172 0.01086426
vn 0.1031494 -0.7207031 0.6855469
vn 0.04711914 -0.7143555 -0.6982422
vn -0.04141235 0.6982422 0.7148438
vn -0.1052246 0.6835938 -0.722168
vn -0.1030884 0.9946289 -0.01077271
vn 0.2858887 -0.671875 0.6831055
vn 0.2858887 -0.671875 -0.6831055
vn 0.3928223 -0.9194336 -1.788139E-07
g Chain_019_0
f 3/3/3 2/2/2 1/1/1
f 4/4/4 3/3/3 1/1/1
f 3/3/3 5/5/5 2/2/2
f 5/5/5 3/3/3 4/4/4
f 2/2/2 6/6/6 1/1/1
f 7/7/7 4/4/4 1/1/1
f 1/1/1 6/6/6 8/8/8
f 7/7/7 1/1/1 8/8/8
f 5/5/5 9/9/9 2/2/2
f 10/10/10 5/5/5 4/4/4
f 5/5/5 11/11/11 9/9/9
f 11/11/11 5/5/5 10/10/10
f 6/6/6 2/2/2 12/12/12
f 2/2/2 9/9/9 13/13/13
f 12/12/12 2/2/2 13/13/13
f 6/6/6 14/14/14 8/8/8
f 8/8/8 14/14/14 15/15/15
f 16/16/16 7/7/7 8/8/8
f 16/16/16 8/8/8 15/15/15
f 17/17/17 6/6/6 12/12/12
f 6/6/6 17/17/17 14/14/14
f 4/4/4 7/7/7 18/18/18
f 10/10/10 4/4/4 19/19/19
f 4/4/4 18/18/18 19/19/19
f 7/7/7 16/16/16 20/20/20
f 7/7/7 20/20/20 18/18/18
f 13/13/13 9/9/9 21/21/21
f 9/9/9 22/22/22 21/21/21
f 11/11/11 22/22/22 9/9/9
f 11/11/11 23/23/23 22/22/22
f 24/24/24 11/11/11 10/10/10
f 23/23/23 11/11/11 24/24/24
f 10/10/10 19/19/19 25/25/25
f 24/24/24 10/10/10 25/25/25
f 19/19/19 18/18/18 26/26/26
f 18/18/18 20/20/20 27/27/27
f 26/26/26 18/18/18 27/27/27
f 28/28/28 26/26/26 27/27/27
f 29/29/29 19/19/19 26/26/26
f 19/19/19 29/29/29 25/25/25
f 29/29/29 26/26/26 28/28/28
f 24/24/24 25/25/25 30/30/30
f 29/29/29 31/31/31 25/25/25
f 25/25/25 31/31/31 30/30/30
f 32/32/32 23/23/23 24/24/24
f 32/32/32 24/24/24 30/30/30
f 33/33/33 29/29/29 28/28/28
f 31/31/31 29/29/29 33/33/33
f 34/34/34 27/27/27 20/20/20
f 35/35/35 28/28/28 27/27/27
f 35/35/35 27/27/27 34/34/34
f 36/36/36 34/34/34 20/20/20
f 16/16/16 36/36/36 20/20/20
f 36/36/36 16/16/16 37/37/37
f 37/37/37 16/16/16 15/15/15
f 38/38/38 34/34/34 36/36/36
f 39/39/39 35/35/35 34/34/34
f 39/39/39 34/34/34 38/38/38
f 40/40/40 36/36/36 37/37/37
f 40/40/40 38/38/38 36/36/36
f 41/41/41 40/40/40 37/37/37
f 37/37/37 15/15/15 42/42/42
f 42/42/42 41/41/41 37/37/37
f 43/43/43 38/38/38 40/40/40
f 41/41/41 43/43/43 40/40/40
f 28/28/28 35/35/35 44/44/44
f 35/35/35 39/39/39 45/45/45
f 44/44/44 35/35/35 45/45/45
f 46/46/46 39/39/39 38/38/38
f 46/46/46 38/38/38 47/47/47
f 38/38/38 43/43/43 47/47/47
f 48/48/48 47/47/47 43/43/43
f 39/39/39 46/46/46 49/49/49
f 46/46/46 47/47/47 49/49/49
f 45/45/45 39/39/39 49/49/49
f 50/50/50 43/43/43 41/41/41
f 50/50/50 48/48/48 43/43/43
f 51/51/51 47/47/47 48/48/48
f 47/47/47 51/51/51 49/49/49
f 42/42/42 52/52/52 41/41/41
f 53/53/53 50/50/50 41/41/41
f 52/52/52 53/53/53 41/41/41
f 42/42/42 54/54/54 52/52/52
f 15/15/15 54/54/54 42/42/42
f 45/45/45 49/49/49 55/55/55
f 49/49/49 51/51/51 56/56/56
f 49/49/49 56/56/56 55/55/55
f 45/45/45 55/55/55 17/17/17
f 44/44/44 45/45/45 17/17/17
f 17/17/17 55/55/55 14/14/14
f 17/17/17 12/12/12 44/44/44
f 57/57/57 14/14/14 55/55/55
f 14/14/14 57/57/57 15/15/15
f 56/56/56 57/57/57 55/55/55
f 12/12/12 58/58/58 44/44/44
f 58/58/58 28/28/28 44/44/44
f 12/12/12 13/13/13 58/58/58
f 28/28/28 58/58/58 59/59/59
f 13/13/13 59/59/59 58/58/58
f 33/33/33 28/28/28 59/59/59
f 59/59/59 13/13/13 21/21/21
f 15/15/15 57/57/57 60/60/60
f 54/54/54 15/15/15 60/60/60
f 56/56/56 61/61/61 57/57/57
f 61/61/61 60/60/60 57/57/57
f 51/51/51 61/61/61 56/56/56
f 33/33/33 59/59/59 62/62/62
f 62/62/62 59/59/59 21/21/21
f 54/54/54 60/60/60 63/63/63
f 63/63/63 60/60/60 61/61/61
f 51/51/51 64/64/64 61/61/61
f 64/64/64 51/51/51 48/48/48
f 65/65/65 33/33/33 62/62/62
f 65/65/65 31/31/31 33/33/33
f 62/62/62 21/21/21 66/66/66
f 21/21/21 22/22/22 66/66/66
f 67/67/67 54/54/54 63/63/63
f 67/67/67 63/63/63 68/68/68
f 54/54/54 67/67/67 52/52/52
f 67/67/67 68/68/68 52/52/52
f 69/69/69 63/63/63 61/61/61
f 64/64/64 69/69/69 61/61/61
f 63/63/63 69/69/69 70/70/70
f 63/63/63 70/70/70 68/68/68
f 71/71/71 69/69/69 64/64/64
f 69/69/69 71/71/71 70/70/70
f 72/72/72 71/71/71 64/64/64
f 72/72/72 64/64/64 48/48/48
f 70/70/70 71/71/71 73/73/73
f 73/73/73 71/71/71 72/72/72
f 22/22/22 74/74/74 66/66/66
f 23/23/23 74/74/74 22/22/22
f 68/68/68 75/75/75 52/52/52
f 53/53/53 52/52/52 75/75/75
f 76/76/76 70/70/70 73/73/73
f 68/68/68 70/70/70 76/76/76
f 77/77/77 53/53/53 75/75/75
f 53/53/53 77/77/77 50/50/50
f 77/77/77 78/78/78 50/50/50
f 50/50/50 78/78/78 48/48/48
f 77/77/77 75/75/75 79/79/79
f 77/77/77 79/79/79 78/78/78
f 75/75/75 68/68/68 80/80/80
f 75/75/75 80/80/80 79/79/79
f 81/81/81 68/68/68 76/76/76
f 68/68/68 81/81/81 80/80/80
f 78/78/78 82/82/82 48/48/48
f 82/82/82 72/72/72 48/48/48
f 83/83/83 82/82/82 78/78/78
f 72/72/72 82/82/82 83/83/83
f 84/84/84 73/73/73 72/72/72
f 84/84/84 72/72/72 83/83/83
f 79/79/79 85/85/85 78/78/78
f 85/85/85 83/83/83 78/78/78
f 76/76/76 73/73/73 86/86/86
f 86/86/86 73/73/73 84/84/84
f 79/79/79 80/80/80 87/87/87
f 79/79/79 87/87/87 85/85/85
f 84/84/84 83/83/83 88/88/88
f 88/88/88 83/83/83 85/85/85
f 81/81/81 76/76/76 89/89/89
f 89/89/89 76/76/76 86/86/86
f 80/80/80 81/81/81 90/90/90
f 80/80/80 90/90/90 87/87/87
f 91/91/91 86/86/86 84/84/84
f 91/91/91 84/84/84 88/88/88
f 91/91/91 88/88/88 92/92/92
f 93/93/93 88/88/88 85/85/85
f 87/87/87 93/93/93 85/85/85
f 92/92/92 88/88/88 93/93/93
f 86/86/86 91/91/91 94/94/94
f 86/86/86 94/94/94 89/89/89
f 95/95/95 81/81/81 89/89/89
f 81/81/81 95/95/95 90/90/90
f 96/96/96 87/87/87 90/90/90
f 93/93/93 87/87/87 96/96/96
f 97/97/97 91/91/91 92/92/92
f 91/91/91 97/97/97 94/94/94
f 94/94/94 98/98/98 89/89/89
f 95/95/95 89/89/89 98/98/98
f 90/90/90 95/95/95 99/99/99
f 99/99/99 96/96/96 90/90/90
f 100/100/100 93/93/93 96/96/96
f 100/100/100 92/92/92 93/93/93
f 101/101/101 94/94/94 97/97/97
f 94/94/94 101/101/101 98/98/98
f 96/96/96 102/102/102 100/100/100
f 102/102/102 96/96/96 99/99/99
f 103/103/103 95/95/95 98/98/98
f 95/95/95 103/103/103 99/99/99
f 104/104/104 103/103/103 98/98/98
f 103/103/103 104/104/104 99/99/99
f 105/105/105 97/97/97 92/92/92
f 105/105/105 101/101/101 97/97/97
f 100/100/100 106/106/106 92/92/92
f 102/102/102 106/106/106 100/100/100
f 101/101/101 107/107/107 98/98/98
f 107/107/107 104/104/104 98/98/98
f 108/108/108 102/102/102 99/99/99
f 104/104/104 108/108/108 99/99/99
f 109/109/109 101/101/101 105/105/105
f 101/101/101 109/109/109 107/107/107
f 110/110/110 105/105/105 92/92/92
f 106/106/106 110/110/110 92/92/92
f 102/102/102 111/111/111 106/106/106
f 111/111/111 102/102/102 108/108/108
f 104/104/104 107/107/107 112/112/112
f 104/104/104 112/112/112 108/108/108
f 109/109/109 113/113/113 107/107/107
f 107/107/107 113/113/113 112/112/112
f 112/112/112 113/113/113 114/114/114
f 112/112/112 115/115/115 108/108/108
f 115/115/115 111/111/111 108/108/108
f 112/112/112 114/114/114 115/115/115
f 116/116/116 109/109/109 105/105/105
f 116/116/116 105/105/105 110/110/110
f 111/111/111 117/117/117 106/106/106
f 106/106/106 117/117/117 110/110/110
f 113/113/113 109/109/109 118/118/118
f 118/118/118 109/109/109 116/116/116
f 111/111/111 115/115/115 119/119/119
f 111/111/111 119/119/119 117/117/117
f 120/120/120 116/116/116 110/110/110
f 117/117/117 120/120/120 110/110/110
f 113/113/113 121/121/121 114/114/114
f 121/121/121 113/113/113 118/118/118
f 115/115/115 122/122/122 119/119/119
f 114/114/114 122/122/122 115/115/115
f 123/123/123 118/118/118 116/116/116
f 123/123/123 116/116/116 120/120/120
f 117/117/117 124/124/124 120/120/120
f 119/119/119 124/124/124 117/117/117
f 125/125/125 123/123/123 120/120/120
f 124/124/124 125/125/125 120/120/120
f 123/123/123 125/125/125 126/126/126
f 126/126/126 125/125/125 124/124/124
f 118/118/118 123/123/123 127/127/127
f 127/127/127 123/123/123 126/126/126
f 127/127/127 126/126/126 128/128/128
f 129/129/129 126/126/126 124/124/124
f 124/124/124 119/119/119 129/129/129
f 128/128/128 126/126/126 129/129/129
f 121/121/121 118/118/118 130/130/130
f 130/130/130 118/118/118 127/127/127
f 119/119/119 122/122/122 131/131/131
f 119/119/119 131/131/131 129/129/129
f 132/132/132 121/121/121 130/130/130
f 114/114/114 121/121/121 132/132/132
f 133/133/133 130/130/130 127/127/127
f 132/132/132 130/130/130 133/133/133
f 122/122/122 134/134/134 131/131/131
f 122/122/122 114/114/114 134/134/134
f 131/131/131 135/135/135 129/129/129
f 131/131/131 134/134/134 135/135/135
f 136/136/136 114/114/114 132/132/132
f 114/114/114 136/136/136 134/134/134
f 137/137/137 127/127/127 128/128/128
f 137/137/137 133/133/133 127/127/127
f 135/135/135 138/138/138 129/129/129
f 138/138/138 128/128/128 129/129/129
f 139/139/139 132/132/132 133/133/133
f 136/136/136 132/132/132 139/139/139
f 134/134/134 136/136/136 140/140/140
f 134/134/134 140/140/140 135/135/135
f 141/141/141 136/136/136 139/139/139
f 136/136/136 141/141/141 140/140/140
f 141/141/141 139/139/139 23/23/23
f 140/140/140 141/141/141 23/23/23
f 139/139/139 74/74/74 23/23/23
f 139/139/139 133/133/133 74/74/74
f 32/32/32 140/140/140 23/23/23
f 135/135/135 140/140/140 32/32/32
f 133/133/133 66/66/66 74/74/74
f 133/133/133 137/137/137 66/66/66
f 30/30/30 135/135/135 32/32/32
f 138/138/138 135/135/135 30/30/30
f 137/137/137 142/142/142 66/66/66
f 142/142/142 62/62/62 66/66/66
f 142/142/142 137/137/137 128/128/128
f 62/62/62 142/142/142 65/65/65
f 143/143/143 138/138/138 30/30/30
f 138/138/138 143/143/143 128/128/128
f 31/31/31 143/143/143 30/30/30
f 31/31/31 65/65/65 143/143/143
f 142/142/142 144/144/144 65/65/65
f 144/144/144 142/142/142 128/128/128
f 65/65/65 144/144/144 143/143/143
f 143/143/143 144/144/144 128/128/128
