g cobweb.003
v -0.009128132 0.0003409517 -0.003937978
v -0.008484249 0.005189004 -0.003481889
v -0.004672317 0.002857609 -0.002171124
v -0.005165454 0.0001929385 -0.002303455
v -0.009431159 -0.002234588 -0.004095081
v 0 0 0
v -0.005188348 -0.00122931 -0.002455493
v -0.009203889 -0.008029521 -0.004010601
v -0.004585199 -0.004000153 -0.002660059
v -0.004242125 -0.008257069 -0.004434041
v -0.003035428 -0.005908296 -0.002778671
v 0.002424057 -0.008825074 -0.004052109
v 0.001670796 -0.006082737 -0.002736644
v 0.003884032 -0.004369567 -0.002401512
v 0.006363169 -0.007158614 -0.003813398
vt 0.01915437 0.227839
vt 0.03558411 0.3558021
vt 0.1319357 0.2885273
vt 0.1193834 0.2183878
vt 0.01409331 0.156135
vt 0.2500346 0.2060681
vt 0.1202366 0.1785985
vt 0.02118498 0.01994842
vt 0.1360261 0.1133469
vt 0.1489129 0.01372916
vt 0.1776775 0.06844111
vt 0.3105385 0.003817766
vt 0.2917373 0.06666581
vt 0.3426203 0.1082352
vt 0.4017167 0.04578955
vn -0.3632237 -0.0311621 0.9311807
vn -0.3594074 -0.01868028 0.9329938
vn -0.3781581 0.000534695 0.925741
vn -0.3845979 -0.03175475 0.9225379
vn -0.326292 -0.0421675 0.944328
vn -0.2059378 -0.2447166 0.9474722
vn -0.3660604 -0.08069329 0.9270859
vn -0.1854782 -0.2098646 0.9599764
vn -0.2545191 -0.210944 0.943781
vn -0.05620916 -0.4319203 0.9001585
vn -0.09412423 -0.4113701 0.9065955
vn 0.03467965 -0.4388815 0.8978755
vn 0.04276009 -0.4230538 0.905095
vn 0.1358542 -0.3758138 0.916683
vn 0.1232363 -0.3799995 0.9167405
g cobweb.003_0
f 3/3/3 2/2/2 1/1/1
f 4/4/4 3/3/3 1/1/1
f 1/1/1 5/5/5 4/4/4
f 6/6/6 3/3/3 4/4/4
f 5/5/5 7/7/7 4/4/4
f 4/4/4 7/7/7 6/6/6
f 7/7/7 5/5/5 8/8/8
f 9/9/9 7/7/7 8/8/8
f 6/6/6 7/7/7 9/9/9
f 9/9/9 8/8/8 10/10/10
f 11/11/11 9/9/9 10/10/10
f 6/6/6 9/9/9 11/11/11
f 11/11/11 10/10/10 12/12/12
f 6/6/6 11/11/11 13/13/13
f 13/13/13 11/11/11 12/12/12
f 13/13/13 14/14/14 6/6/6
f 12/12/12 15/15/15 13/13/13
f 15/15/15 14/14/14 13/13/13
