g Hex_Rock_Dirt_01
v 0.9330673 0.1674836 -0.01501185
v 0.9330673 0.1674836 2.908225
v 0.5602912 0.8131752 3.044315
v 0.5602912 0.8131752 -0.01501185
v 0.4997863 0.8481172 -0.01501185
v 0.4997863 0.8481172 3.052345
v -0.2457659 0.8481172 3.052345
v -0.2457659 0.8481172 -0.01501185
v -0.3062707 0.8131752 -0.01501185
v -0.3062707 0.8131752 3.044315
v -0.6790469 0.1674836 2.908225
v -0.6790469 0.1674836 -0.01501185
v -0.6790469 0.09759951 -0.01501185
v -0.6790469 0.09759951 2.893512
v -0.3062707 -0.5480309 2.757484
v -0.3062707 -0.5480309 -0.01501185
v -0.2457659 -0.5829729 -0.01501185
v -0.2457659 -0.5829729 2.750802
v 0.4997863 -0.5829729 2.750802
v 0.4997863 -0.5829729 -0.01501185
v 0.5602912 -0.5480309 -0.01501185
v 0.5602912 -0.5480309 2.757484
v 0.9330673 0.09759951 2.893512
v 0.9330673 0.09759951 -0.01501185
v 0.912899 0.1325415 2.94188
v 0.516583 -0.5434945 2.799414
v -0.2625626 -0.5434945 2.799414
v -0.6588786 0.1325415 2.94188
v 0.516583 0.8086388 3.084345
v -0.2625626 0.8086388 3.084345
v 0.5602912 0.8131752 3.044315
v 0.9330673 0.1674836 2.908225
v 0.912899 0.1325415 2.94188
v 0.516583 0.8086388 3.084345
v 0.4997863 0.8481172 3.052345
v 0.5602912 0.8131752 -0.01501185
v 0.4997863 0.8481172 -0.01501185
v -0.2457659 0.8481172 3.052345
v -0.2625626 0.8086388 3.084345
v -0.3062707 0.8131752 3.044315
v -0.2457659 0.8481172 -0.01501185
v -0.3062707 0.8131752 -0.01501185
v -0.6790469 0.1674836 2.908225
v -0.6588786 0.1325415 2.94188
v 0.9330673 0.1674836 2.908225
v 0.9330673 0.1674836 -0.01501185
v 0.9330673 0.09759951 -0.01501185
v 0.9330673 0.09759951 2.893512
v 0.912899 0.1325415 2.94188
v 0.516583 -0.5434945 2.799414
v 0.5602912 -0.5480309 2.757484
v 0.4997863 -0.5829729 2.750802
v -0.2625626 -0.5434945 2.799414
v 0.4997863 -0.5829729 -0.01501185
v 0.5602912 -0.5480309 -0.01501185
v -0.2457659 -0.5829729 2.750802
v -0.3062707 -0.5480309 2.757484
v -0.6588786 0.1325415 2.94188
v -0.3062707 -0.5480309 -0.01501185
v -0.2457659 -0.5829729 -0.01501185
v -0.6790469 0.09759951 2.893512
v -0.6790469 0.1674836 2.908225
v -0.6790469 0.1674836 -0.01501185
v -0.6790469 0.09759951 -0.01501185
v -0.2127855 -0.2611385 -0.01501185
v -0.2127855 -0.2611385 2.661546
v -0.5052563 -0.05639058 2.661546
v -0.5052563 -0.05639058 -0.01501185
v -0.5516617 -0.05228335 -0.01501185
v -0.5516617 -0.05228335 2.661546
v -0.8752126 -0.2032083 2.661546
v -0.8752126 -0.2032083 -0.01501185
v -0.9019401 -0.2413381 -0.01501185
v -0.9019401 -0.2413381 2.661546
v -0.9330814 -0.597011 2.661546
v -0.9330814 -0.597011 -0.01501185
v -0.9134035 -0.6392479 -0.01501185
v -0.9134035 -0.6392479 2.661546
v -0.6209328 -0.8440571 2.661546
v -0.6209328 -0.8440571 -0.01501185
v -0.5745274 -0.848103 -0.01501185
v -0.5745274 -0.848103 2.661546
v -0.2509153 -0.6971781 2.661546
v -0.2509153 -0.6971781 -0.01501185
v -0.2241876 -0.6590484 -0.01501185
v -0.2241876 -0.6590484 2.661546
v -0.1931076 -0.3033754 2.661546
v -0.1931076 -0.3033754 -0.01501185
v -0.2189157 -0.2897052 2.688397
v -0.2520187 -0.6679984 2.688397
v -0.5961668 -0.8285478 2.688397
v -0.9072734 -0.6106813 2.688397
v -0.529961 -0.07189995 2.688397
v -0.8741704 -0.232388 2.688397
v -0.2127855 -0.2611385 2.661546
v -0.2127855 -0.2611385 -0.01501185
v -0.1931076 -0.3033754 -0.01501185
v -0.1931076 -0.3033754 2.661546
v -0.2189157 -0.2897052 2.688397
v -0.5052563 -0.05639058 2.661546
v -0.529961 -0.07189995 2.688397
v -0.5516617 -0.05228335 2.661546
v -0.5052563 -0.05639058 -0.01501185
v -0.5516617 -0.05228335 -0.01501185
v -0.8752126 -0.2032083 2.661546
v -0.8741704 -0.232388 2.688397
v -0.9019401 -0.2413381 2.661546
v -0.8752126 -0.2032083 -0.01501185
v -0.9019401 -0.2413381 -0.01501185
v -0.9330814 -0.597011 2.661546
v -0.9072734 -0.6106813 2.688397
v -0.9330814 -0.597011 -0.01501185
v -0.9134035 -0.6392479 2.661546
v -0.9134035 -0.6392479 -0.01501185
v -0.9330814 -0.597011 2.661546
v -0.9072734 -0.6106813 2.688397
v -0.6209328 -0.8440571 2.661546
v -0.5961668 -0.8285478 2.688397
v -0.5745274 -0.848103 2.661546
v -0.6209328 -0.8440571 -0.01501185
v -0.5745274 -0.848103 -0.01501185
v -0.2509153 -0.6971781 2.661546
v -0.2520187 -0.6679984 2.688397
v -0.2241876 -0.6590484 2.661546
v -0.2509153 -0.6971781 -0.01501185
v -0.2241876 -0.6590484 -0.01501185
v -0.1931076 -0.3033754 2.661546
v -0.2189157 -0.2897052 2.688397
vt 0.4911627 0.06824324
vt 0.4911627 0.4671332
vt 0.4805897 0.4858762
vt 0.4805897 0.06824324
vt 0.479148 0.06824324
vt 0.479148 0.4868374
vt 0.458002 0.4868374
vt 0.458002 0.06824324
vt 0.4560796 0.06824324
vt 0.4560796 0.4858762
vt 0.4455066 0.4671332
vt 0.4455066 0.06824324
vt 0.4455066 0.06824324
vt 0.4455066 0.4652109
vt 0.4560796 0.4464678
vt 0.4560796 0.06824324
vt 0.458002 0.06824324
vt 0.458002 0.4459872
vt 0.479148 0.4459872
vt 0.479148 0.06824324
vt 0.4805897 0.06824324
vt 0.4805897 0.4464678
vt 0.4911627 0.4652109
vt 0.4911627 0.06824324
vt 0.4906821 0.4719391
vt 0.4796286 0.4522349
vt 0.4575214 0.4522349
vt 0.4459872 0.4719391
vt 0.4796286 0.4911627
vt 0.4575214 0.4911627
vt 0.54595 0.474342
vt 0.5579647 0.4565602
vt 0.5574841 0.4608855
vt 0.5445082 0.4796286
vt 0.5440276 0.4757838
vt 0.54595 0.06632088
vt 0.5440276 0.06632088
vt 0.5204787 0.4757838
vt 0.5199981 0.4796286
vt 0.5185564 0.474342
vt 0.5204787 0.06632088
vt 0.5185564 0.06632088
vt 0.5065416 0.4565602
vt 0.5075028 0.4608855
vt 0.5579647 0.4565602
vt 0.5579647 0.06632088
vt 0.5579647 0.06632088
vt 0.5579647 0.4541572
vt 0.5574841 0.4608855
vt 0.5445082 0.4416619
vt 0.54595 0.4363754
vt 0.5440276 0.4354143
vt 0.5199981 0.4416619
vt 0.5440276 0.06632088
vt 0.54595 0.06632088
vt 0.5204787 0.4354143
vt 0.5185564 0.4363754
vt 0.5075028 0.4608855
vt 0.5185564 0.06632088
vt 0.5204787 0.06632088
vt 0.5065416 0.4541572
vt 0.5065416 0.4565602
vt 0.5065416 0.06632088
vt 0.5065416 0.06632088
vt 0.4853956 0.07737446
vt 0.4853956 0.4834732
vt 0.4738615 0.4834732
vt 0.4738615 0.07737446
vt 0.4724197 0.07737446
vt 0.4724197 0.4834732
vt 0.4594437 0.4834732
vt 0.4594437 0.07737446
vt 0.4584826 0.07737446
vt 0.4584826 0.4834732
vt 0.4575214 0.4834732
vt 0.4575214 0.07737446
vt 0.458002 0.07737446
vt 0.458002 0.4834732
vt 0.4695361 0.4834732
vt 0.4695361 0.07737446
vt 0.4714585 0.07737446
vt 0.4714585 0.4834732
vt 0.4839538 0.4834732
vt 0.4839538 0.07737446
vt 0.484915 0.07737446
vt 0.484915 0.4834732
vt 0.4863568 0.4834732
vt 0.4863568 0.07737446
vt 0.4853956 0.487318
vt 0.4839538 0.487318
vt 0.4704973 0.487318
vt 0.4584826 0.487318
vt 0.4729003 0.487318
vt 0.4599243 0.487318
vt 0.54595 0.4719391
vt 0.54595 0.0754521
vt 0.5464306 0.0754521
vt 0.5464306 0.4719391
vt 0.5454694 0.4762644
vt 0.5329741 0.4719391
vt 0.5320129 0.4762644
vt 0.5310517 0.4719391
vt 0.5329741 0.0754521
vt 0.5310517 0.0754521
vt 0.516634 0.4719391
vt 0.516634 0.4762644
vt 0.5156728 0.4719391
vt 0.516634 0.0754521
vt 0.5156728 0.0754521
vt 0.514231 0.4719391
vt 0.5151922 0.4762644
vt 0.514231 0.0754521
vt 0.5151922 0.4719391
vt 0.5151922 0.0754521
vt 0.514231 0.4719391
vt 0.5151922 0.4762644
vt 0.5281681 0.4719391
vt 0.5291293 0.4762644
vt 0.5300905 0.4719391
vt 0.5281681 0.0754521
vt 0.5300905 0.0754521
vt 0.5440276 0.4719391
vt 0.5440276 0.4762644
vt 0.5454694 0.4719391
vt 0.5440276 0.0754521
vt 0.5454694 0.0754521
vt 0.5464306 0.4719391
vt 0.5454694 0.4762644
vn 0.966171 0.2579023 0
vn 0.9229932 0.2201281 0.3156378
vn 0.7144508 0.6063178 0.3491974
vn 0.706727 0.706727 -0.03276946
vn 0.2579022 0.9661711 0
vn 0.2278519 0.8920981 0.3901853
vn -0.2278519 0.8920981 0.3901853
vn -0.2579023 0.9661711 0
vn -0.706727 0.706727 -0.03276946
vn -0.7144508 0.6063178 0.3491974
vn -0.9229932 0.2201281 0.3156378
vn -0.9661711 0.2579023 0
vn -0.9661711 -0.2579022 0
vn -0.8998218 -0.3205374 0.2959334
vn -0.668108 -0.6835556 0.2939106
vn -0.706727 -0.706727 -0.03276946
vn -0.2579023 -0.966171 0
vn -0.2201281 -0.930717 0.2920779
vn 0.2201281 -0.930717 0.2920779
vn 0.2579022 -0.966171 0
vn 0.706727 -0.706727 -0.03276946
vn 0.668108 -0.6835556 0.2939105
vn 0.8998218 -0.3205374 0.2959332
vn 0.966171 -0.2579022 0
vn 0.5290798 -0.150614 0.8350987
vn 0.2355757 -0.5599749 0.7943124
vn -0.2355757 -0.5599749 0.7943124
vn -0.5290798 -0.150614 0.8350987
vn 0.2741947 0.3050898 0.9119964
vn -0.2741946 0.3050898 0.9119964
vn 0.7144508 0.6063178 0.3491974
vn 0.9229932 0.2201281 0.3156378
vn 0.5290798 -0.150614 0.8350987
vn 0.2741947 0.3050898 0.9119964
vn 0.2278519 0.8920981 0.3901853
vn 0.706727 0.706727 -0.03276946
vn 0.2579022 0.9661711 0
vn -0.2278519 0.8920981 0.3901853
vn -0.2741946 0.3050898 0.9119964
vn -0.7144508 0.6063178 0.3491974
vn -0.2579023 0.9661711 0
vn -0.706727 0.706727 -0.03276946
vn -0.9229932 0.2201281 0.3156378
vn -0.5290798 -0.150614 0.8350987
vn 0.9229932 0.2201281 0.3156378
vn 0.966171 0.2579023 0
vn 0.966171 -0.2579022 0
vn 0.8998218 -0.3205374 0.2959332
vn 0.5290798 -0.150614 0.8350987
vn 0.2355757 -0.5599749 0.7943124
vn 0.668108 -0.6835556 0.2939105
vn 0.2201281 -0.930717 0.2920779
vn -0.2355757 -0.5599749 0.7943124
vn 0.2579022 -0.966171 0
vn 0.706727 -0.706727 -0.03276946
vn -0.2201281 -0.930717 0.2920779
vn -0.668108 -0.6835556 0.2939106
vn -0.5290798 -0.150614 0.8350987
vn -0.706727 -0.706727 -0.03276946
vn -0.2579023 -0.966171 0
vn -0.8998218 -0.3205374 0.2959334
vn -0.9229932 0.2201281 0.3156378
vn -0.9661711 0.2579023 0
vn -0.9661711 -0.2579022 0
vn 0.7660081 0.6428309 0
vn 0.706727 0.6217653 0.3375572
vn 0.3437088 0.8766505 0.3366724
vn 0.3437088 0.9384408 -0.03454223
vn -0.1737853 0.9847835 -0.0002441406
vn -0.1892329 0.9229932 0.3350738
vn -0.5831463 0.7376221 0.3403733
vn -0.6428309 0.7660081 0
vn -0.9384408 0.3437088 -0.03454202
vn -0.8920981 0.297366 0.3401977
vn -0.930717 -0.1351663 0.3398469
vn -0.9847835 -0.1737853 -0.000188123
vn -0.7660081 -0.6428309 0
vn -0.706727 -0.6217653 0.3375572
vn -0.3437088 -0.8766505 0.3366724
vn -0.3437088 -0.9384408 -0.03454223
vn 0.1737853 -0.9847835 -0.0002441406
vn 0.1892329 -0.9229932 0.3350738
vn 0.5831463 -0.7376221 0.3403733
vn 0.6428309 -0.7660081 0
vn 0.9384408 -0.3437088 -0.03454202
vn 0.892098 -0.297366 0.3401979
vn 0.930717 0.1351664 0.3398469
vn 0.9847835 0.1737853 -0.000188123
vn 0.4518418 0.2124043 0.8664429
vn 0.4054991 -0.2819184 0.8695358
vn -0.04248083 -0.4904608 0.8704272
vn -0.4518418 -0.2124043 0.8664429
vn 0.04248089 0.4904609 0.8704272
vn -0.4054991 0.2819184 0.8695358
vn 0.706727 0.6217653 0.3375572
vn 0.7660081 0.6428309 0
vn 0.9847835 0.1737853 -0.000188123
vn 0.930717 0.1351664 0.3398469
vn 0.4518418 0.2124043 0.8664429
vn 0.3437088 0.8766505 0.3366724
vn 0.04248089 0.4904609 0.8704272
vn -0.1892329 0.9229932 0.3350738
vn 0.3437088 0.9384408 -0.03454223
vn -0.1737853 0.9847835 -0.0002441406
vn -0.5831463 0.7376221 0.3403733
vn -0.4054991 0.2819184 0.8695358
vn -0.8920981 0.297366 0.3401977
vn -0.6428309 0.7660081 0
vn -0.9384408 0.3437088 -0.03454202
vn -0.930717 -0.1351663 0.3398469
vn -0.4518418 -0.2124043 0.8664429
vn -0.9847835 -0.1737853 -0.000188123
vn -0.706727 -0.6217653 0.3375572
vn -0.7660081 -0.6428309 0
vn -0.930717 -0.1351663 0.3398469
vn -0.4518418 -0.2124043 0.8664429
vn -0.3437088 -0.8766505 0.3366724
vn -0.04248083 -0.4904608 0.8704272
vn 0.1892329 -0.9229932 0.3350738
vn -0.3437088 -0.9384408 -0.03454223
vn 0.1737853 -0.9847835 -0.0002441406
vn 0.5831463 -0.7376221 0.3403733
vn 0.4054991 -0.2819184 0.8695358
vn 0.892098 -0.297366 0.3401979
vn 0.6428309 -0.7660081 0
vn 0.9384408 -0.3437088 -0.03454202
vn 0.930717 0.1351664 0.3398469
vn 0.4518418 0.2124043 0.8664429
g Hex_Rock_Dirt_01_0
f 3/3/3 2/2/2 1/1/1
f 4/4/4 3/3/3 1/1/1
f 7/7/7 6/6/6 5/5/5
f 8/8/8 7/7/7 5/5/5
f 11/11/11 10/10/10 9/9/9
f 12/12/12 11/11/11 9/9/9
f 15/15/15 14/14/14 13/13/13
f 16/16/16 15/15/15 13/13/13
f 19/19/19 18/18/18 17/17/17
f 20/20/20 19/19/19 17/17/17
f 23/23/23 22/22/22 21/21/21
f 24/24/24 23/23/23 21/21/21
f 27/27/27 26/26/26 25/25/25
f 28/28/28 27/27/27 25/25/25
f 28/28/28 25/25/25 29/29/29
f 30/30/30 28/28/28 29/29/29
f 33/33/33 32/32/32 31/31/31
f 34/34/34 33/33/33 31/31/31
f 34/34/34 31/31/31 35/35/35
f 35/35/35 31/31/31 36/36/36
f 37/37/37 35/35/35 36/36/36
f 34/34/34 35/35/35 38/38/38
f 39/39/39 34/34/34 38/38/38
f 39/39/39 38/38/38 40/40/40
f 40/40/40 38/38/38 41/41/41
f 42/42/42 40/40/40 41/41/41
f 39/39/39 40/40/40 43/43/43
f 44/44/44 39/39/39 43/43/43
f 47/47/47 46/46/46 45/45/45
f 48/48/48 47/47/47 45/45/45
f 49/49/49 48/48/48 45/45/45
f 49/49/49 50/50/50 48/48/48
f 50/50/50 51/51/51 48/48/48
f 50/50/50 52/52/52 51/51/51
f 50/50/50 53/53/53 52/52/52
f 51/51/51 52/52/52 54/54/54
f 55/55/55 51/51/51 54/54/54
f 53/53/53 56/56/56 52/52/52
f 53/53/53 57/57/57 56/56/56
f 53/53/53 58/58/58 57/57/57
f 56/56/56 57/57/57 59/59/59
f 60/60/60 56/56/56 59/59/59
f 58/58/58 61/61/61 57/57/57
f 58/58/58 62/62/62 61/61/61
f 61/61/61 62/62/62 63/63/63
f 64/64/64 61/61/61 63/63/63
f 67/67/67 66/66/66 65/65/65
f 68/68/68 67/67/67 65/65/65
f 71/71/71 70/70/70 69/69/69
f 72/72/72 71/71/71 69/69/69
f 75/75/75 74/74/74 73/73/73
f 76/76/76 75/75/75 73/73/73
f 79/79/79 78/78/78 77/77/77
f 80/80/80 79/79/79 77/77/77
f 83/83/83 82/82/82 81/81/81
f 84/84/84 83/83/83 81/81/81
f 87/87/87 86/86/86 85/85/85
f 88/88/88 87/87/87 85/85/85
f 91/91/91 90/90/90 89/89/89
f 92/92/92 91/91/91 89/89/89
f 92/92/92 89/89/89 93/93/93
f 94/94/94 92/92/92 93/93/93
f 97/97/97 96/96/96 95/95/95
f 98/98/98 97/97/97 95/95/95
f 99/99/99 98/98/98 95/95/95
f 99/99/99 95/95/95 100/100/100
f 101/101/101 99/99/99 100/100/100
f 101/101/101 100/100/100 102/102/102
f 102/102/102 100/100/100 103/103/103
f 104/104/104 102/102/102 103/103/103
f 101/101/101 102/102/102 105/105/105
f 106/106/106 101/101/101 105/105/105
f 106/106/106 105/105/105 107/107/107
f 107/107/107 105/105/105 108/108/108
f 109/109/109 107/107/107 108/108/108
f 106/106/106 107/107/107 110/110/110
f 111/111/111 106/106/106 110/110/110
f 114/114/114 113/113/113 112/112/112
f 113/113/113 115/115/115 112/112/112
f 116/116/116 115/115/115 113/113/113
f 116/116/116 113/113/113 117/117/117
f 118/118/118 116/116/116 117/117/117
f 118/118/118 117/117/117 119/119/119
f 119/119/119 117/117/117 120/120/120
f 121/121/121 119/119/119 120/120/120
f 118/118/118 119/119/119 122/122/122
f 123/123/123 118/118/118 122/122/122
f 123/123/123 122/122/122 124/124/124
f 124/124/124 122/122/122 125/125/125
f 126/126/126 124/124/124 125/125/125
f 123/123/123 124/124/124 127/127/127
f 128/128/128 123/123/123 127/127/127
