g polySurface2
v 1.378357E-07 -0.01713298 -0.03751532
v 1.378357E-07 -0.03469532 -0.02229712
v 0.01578308 -0.03205439 -0.02060036
v 0.01578308 -0.01582816 -0.03465901
v 0.02916303 -0.02453358 -0.01576681
v 1.378357E-07 0.005869005 -0.04082242
v 0.02916303 -0.01211409 -0.02652711
v 0.0381026 -0.0132774 -0.008532748
v 0.0381026 -0.006556746 -0.01435681
v 0.01578308 0.005421963 -0.03771442
v 0.02916303 0.004149713 -0.028865
v 0.0381026 0.002246343 -0.01562155
v 0.0381026 0.01033567 -0.01192751
v 0.02916303 0.01909743 -0.02203916
v 0.0381026 0.01514293 -0.00444676
v 0.01578308 0.02495155 -0.02879613
v 1.378357E-07 0.02700768 -0.03116908
v 1.378357E-07 0.03957118 -0.01161946
v 0.02916303 0.02798066 -0.008215934
v 0.0381026 0.01514293 0.004446488
v 0.01578308 0.0365596 -0.0107354
v 0.01578308 0.0365596 0.01073512
v 1.378357E-07 0.03957118 0.01161919
v 0.02916303 0.02798066 0.008215662
v 0.02916303 0.01909743 0.02204014
v 0.0381026 0.01033567 0.01192723
v 0.01578308 0.02495155 0.02879585
v 1.378357E-07 0.02700768 0.0311688
v 1.378357E-07 0.005869005 0.04082215
v 0.02916303 0.004149713 0.02886598
v 0.0381026 0.002246343 0.01562253
v 0.0381026 -0.006556746 0.01435653
v 0.01578308 0.005421963 0.03771415
v 0.02916303 -0.01211409 0.02652683
v 0.0381026 -0.0132774 0.008532472
v 0.01578308 -0.01582816 0.03465873
v 1.378357E-07 -0.01713298 0.03751504
v 0.02916303 -0.02453358 0.01576653
v 0.0381026 -0.01578308 -1.378357E-07
v 0.01578308 -0.03205439 0.02060009
v 1.378357E-07 -0.03469532 0.02229685
v 1.378357E-07 -0.04124191 -1.378357E-07
v 0.01578308 -0.0381026 -1.378357E-07
v 0.02916303 -0.02916303 -1.378357E-07
v 0.02916303 -0.02453358 -0.01576681
v 0.0381026 -0.0132774 -0.008532748
v 0.01578308 -0.03205439 -0.02060036
v 1.378357E-07 -0.03469532 -0.02229712
v 0.0381026 -0.0132774 -0.008532748
v 0.02259389 -1.378357E-07 -1.378357E-07
v 0.0381026 -0.006556746 -0.01435681
v 0.0381026 -0.01578308 -1.378357E-07
v 0.0381026 0.002246343 -0.01562155
v 0.0381026 -0.0132774 0.008532472
v 0.0381026 0.01033567 -0.01192751
v 0.0381026 -0.006556746 0.01435653
v 0.0381026 0.01514293 -0.00444676
v 0.0381026 0.002246343 0.01562253
v 0.0381026 0.01514293 0.004446488
v 0.0381026 0.01033567 0.01192723
vt 0.911815 0.9502246
vt 0.9058949 0.9502246
vt 0.9058245 0.9545237
vt 0.911815 0.9545237
vt 0.9058245 0.9593161
vt 0.917735 0.9502246
vt 0.9117445 0.9593161
vt 0.905754 0.966998
vt 0.9117445 0.966998
vt 0.917735 0.9545237
vt 0.917735 0.9593161
vt 0.9176645 0.966998
vt 0.9235845 0.9670684
vt 0.923655 0.9593865
vt 0.929575 0.9670684
vt 0.923655 0.9545941
vt 0.923655 0.9502951
vt 0.9296455 0.9502951
vt 0.929575 0.9593865
vt 0.935495 0.9670684
vt 0.9296455 0.9545941
vt 0.9355655 0.9546646
vt 0.9355655 0.9503655
vt 0.9355655 0.9593865
vt 0.9414855 0.959457
vt 0.9414151 0.9671389
vt 0.9414855 0.9546646
vt 0.9414855 0.9503655
vt 0.947476 0.9503655
vt 0.9474056 0.959457
vt 0.9474056 0.9671389
vt 0.9533256 0.9672094
vt 0.9474056 0.9546646
vt 0.953396 0.959457
vt 0.9592456 0.9672094
vt 0.953396 0.9547351
vt 0.953396 0.9504361
vt 0.9593161 0.9595275
vt 0.9652361 0.9672094
vt 0.9593161 0.9547351
vt 0.9593161 0.9504361
vt 0.9653065 0.9504361
vt 0.9652361 0.9547351
vt 0.9652361 0.9595275
vt 0.9711561 0.9595979
vt 0.9711561 0.9672799
vt 0.9712266 0.9548056
vt 0.9712266 0.9505065
vt 0.9311255 0.9046968
vt 0.9375389 0.9053311
vt 0.9325351 0.901314
vt 0.9317598 0.9082206
vt 0.935495 0.8992702
vt 0.934297 0.9108283
vt 0.9391598 0.8991292
vt 0.9378207 0.9117445
vt 0.9422607 0.9009616
vt 0.9412741 0.9106169
vt 0.9438818 0.9042035
vt 0.9435294 0.9077978
vn 0.1931271 -0.4062623 -0.8931141
vn 0.1931271 -0.8249207 -0.5312323
vn 0.3529785 -0.7868609 -0.5062175
vn 0.3529785 -0.3910384 -0.8499972
vn 0.6574574 -0.6346214 -0.4062087
vn 0.1931271 0.1417997 -0.9708732
vn 0.6574574 -0.3149186 -0.6845262
vn 0.9619362 -0.2235749 -0.1571398
vn 0.9619362 -0.1093954 -0.2504223
vn 0.3529785 0.1341877 -0.9259589
vn 0.6574574 0.1037399 -0.7463162
vn 0.9619362 0.03523207 -0.2709933
vn 0.9619362 0.1722475 -0.2121543
vn 0.6574574 0.4919504 -0.5707317
vn 0.9619362 0.2559793 -0.09567264
vn 0.3529785 0.6137419 -0.7062061
vn 0.1931271 0.6441898 -0.740082
vn 0.1931271 0.9410567 -0.2776944
vn 0.6574574 0.7203095 -0.2211426
vn 0.9619362 0.2559793 0.09567264
vn 0.3529785 0.8953849 -0.2714629
vn 0.3529785 0.8953849 0.2714629
vn 0.1931271 0.9410567 0.2776944
vn 0.6574574 0.7203095 0.2211426
vn 0.6574574 0.4919504 0.5707317
vn 0.9619362 0.1722475 0.2121543
vn 0.3529785 0.6137419 0.7062061
vn 0.1931271 0.6441898 0.740082
vn 0.1931271 0.1417997 0.9708732
vn 0.6574574 0.1037399 0.7463162
vn 0.9619362 0.03523207 0.2709933
vn 0.9619362 -0.1093954 0.2504223
vn 0.3529785 0.1341877 0.9259589
vn 0.6574574 -0.3149186 0.6845262
vn 0.9619362 -0.2235749 0.1571398
vn 0.3529785 -0.3910384 0.8499972
vn 0.1931271 -0.4062623 0.8931141
vn 0.6574574 -0.6346214 0.4062087
vn 0.9619362 -0.2616348 -0.07890423
vn 0.3529785 -0.7868609 0.5062175
vn 0.1931271 -0.8249207 0.5312323
vn 0.1931271 -0.9771602 -0.08865634
vn 0.3529785 -0.9314883 -0.08795266
vn 0.6574574 -0.748801 -0.08394604
vn 0.6574574 -0.6346214 -0.4062087
vn 0.9619362 -0.2235749 -0.1571398
vn 0.3529785 -0.7868609 -0.5062175
vn 0.1931271 -0.8249207 -0.5312323
vn 0.9619362 -0.2235749 -0.1571398
vn 0.9999961 -0.002827764 0
vn 0.9619362 -0.1093954 -0.2504223
vn 0.9619362 -0.2616348 -0.07890423
vn 0.9619362 0.03523207 -0.2709933
vn 0.9619362 -0.2235749 0.1571398
vn 0.9619362 0.1722475 -0.2121543
vn 0.9619362 -0.1093954 0.2504223
vn 0.9619362 0.2559793 -0.09567264
vn 0.9619362 0.03523207 0.2709933
vn 0.9619362 0.2559793 0.09567264
vn 0.9619362 0.1722475 0.2121543
g polySurface2_0
f 3/3/3 2/2/2 1/1/1
f 1/1/1 4/4/4 3/3/3
f 5/5/5 3/3/3 4/4/4
f 4/4/4 1/1/1 6/6/6
f 4/4/4 7/7/7 5/5/5
f 8/8/8 5/5/5 7/7/7
f 7/7/7 9/9/9 8/8/8
f 6/6/6 10/10/10 4/4/4
f 7/7/7 4/4/4 10/10/10
f 9/9/9 7/7/7 11/11/11
f 10/10/10 11/11/11 7/7/7
f 11/11/11 12/12/12 9/9/9
f 11/11/11 13/13/13 12/12/12
f 14/14/14 13/13/13 11/11/11
f 10/10/10 14/14/14 11/11/11
f 15/15/15 13/13/13 14/14/14
f 6/6/6 16/16/16 10/10/10
f 16/16/16 14/14/14 10/10/10
f 17/17/17 16/16/16 6/6/6
f 16/16/16 17/17/17 18/18/18
f 15/15/15 14/14/14 19/19/19
f 20/20/20 15/15/15 19/19/19
f 14/14/14 16/16/16 21/21/21
f 18/18/18 21/21/21 16/16/16
f 21/21/21 19/19/19 14/14/14
f 22/22/22 21/21/21 18/18/18
f 19/19/19 21/21/21 22/22/22
f 18/18/18 23/23/23 22/22/22
f 19/19/19 24/24/24 20/20/20
f 22/22/22 24/24/24 19/19/19
f 20/20/20 24/24/24 25/25/25
f 25/25/25 24/24/24 22/22/22
f 25/25/25 26/26/26 20/20/20
f 27/27/27 22/22/22 23/23/23
f 22/22/22 27/27/27 25/25/25
f 23/23/23 28/28/28 27/27/27
f 27/27/27 28/28/28 29/29/29
f 26/26/26 25/25/25 30/30/30
f 30/30/30 31/31/31 26/26/26
f 32/32/32 31/31/31 30/30/30
f 25/25/25 27/27/27 33/33/33
f 29/29/29 33/33/33 27/27/27
f 33/33/33 30/30/30 25/25/25
f 30/30/30 34/34/34 32/32/32
f 33/33/33 34/34/34 30/30/30
f 35/35/35 32/32/32 34/34/34
f 29/29/29 36/36/36 33/33/33
f 36/36/36 34/34/34 33/33/33
f 37/37/37 36/36/36 29/29/29
f 34/34/34 38/38/38 35/35/35
f 36/36/36 38/38/38 34/34/34
f 35/35/35 38/38/38 39/39/39
f 37/37/37 40/40/40 36/36/36
f 40/40/40 38/38/38 36/36/36
f 41/41/41 40/40/40 37/37/37
f 40/40/40 41/41/41 42/42/42
f 38/38/38 40/40/40 43/43/43
f 42/42/42 43/43/43 40/40/40
f 44/44/44 39/39/39 38/38/38
f 43/43/43 44/44/44 38/38/38
f 39/39/39 44/44/44 45/45/45
f 43/43/43 45/45/45 44/44/44
f 45/45/45 46/46/46 39/39/39
f 47/47/47 45/45/45 43/43/43
f 42/42/42 47/47/47 43/43/43
f 48/48/48 47/47/47 42/42/42
f 51/51/51 50/50/50 49/49/49
f 49/49/49 50/50/50 52/52/52
f 53/53/53 50/50/50 51/51/51
f 52/52/52 50/50/50 54/54/54
f 55/55/55 50/50/50 53/53/53
f 54/54/54 50/50/50 56/56/56
f 57/57/57 50/50/50 55/55/55
f 56/56/56 50/50/50 58/58/58
f 59/59/59 50/50/50 57/57/57
f 58/58/58 50/50/50 60/60/60
f 60/60/60 50/50/50 59/59/59
