g Shield
v 0.1004957 0.03852365 0.5081561
v 0.2566509 -0.08047293 0.4443653
v 0.2184879 -0.281602 0.3778485
v 0.02573372 -0.3554918 0.3778485
v -0.1004956 -0.03852369 0.5081561
v -0.1370946 -0.2314101 0.4443653
v 0.4537936 -0.2307033 0.1032155
v 0.3149972 -0.3551458 0.210842
v 0.2184879 -0.281602 0.3778485
v 0.2566509 -0.08047293 0.4443653
v 0.4903925 -0.0378172 0.1670063
v 0.3897592 0.03886951 0.3411495
v 0.5130119 0.08139311 7.473581E-08
v 0.4903925 -0.0378172 0.1670063
v 0.3897592 0.03886951 0.3411495
v 0.3158694 0.2316238 0.3411495
v 0.4359646 0.2823844 1.827678E-07
v 0.3394554 0.3559284 0.1670063
v -0.003114257 0.4747018 0.2108424
v 0.1833001 0.4749248 0.103216
v 0.3394554 0.3559284 0.1670063
v 0.3158694 0.2316238 0.3411495
v -0.02573359 0.3554917 0.3778485
v 0.1370947 0.23141 0.4443653
v -0.02573359 0.3554917 0.3778485
v 0.1370947 0.23141 0.4443653
v 0.1004957 0.03852365 0.5081561
v -0.1004956 -0.03852369 0.5081561
v -0.2184878 0.2816019 0.3778485
v -0.2566509 0.08047283 0.4443653
v -0.2566509 0.08047283 0.4443653
v -0.3897591 -0.03886965 0.3411495
v -0.4903925 0.03781705 0.1670063
v -0.4537936 0.2307032 0.1032157
v -0.2184878 0.2816019 0.3778485
v -0.3149972 0.3551455 0.2108422
v -0.3158692 -0.2316239 0.3411495
v -0.3394552 -0.3559285 0.1670063
v -0.4359645 -0.2823844 -6.751808E-08
v -0.5130119 -0.08139315 -1.831646E-08
v -0.3897591 -0.03886965 0.3411495
v -0.4903925 0.03781705 0.1670063
v 0.003114302 -0.4747021 0.210842
v -0.1833 -0.474925 0.1032156
v -0.3394552 -0.3559285 0.1670063
v -0.3158692 -0.2316239 0.3411495
v 0.02573372 -0.3554918 0.3778485
v -0.1370946 -0.2314101 0.4443653
v 0.4537936 -0.2307033 -0.1032156
v 0.3149972 -0.3551456 -0.2108421
v 0.1818889 -0.4744882 -0.1076266
v 0.181889 -0.4744883 0.1076263
v 0.4537936 -0.2307033 0.1032155
v 0.3149972 -0.3551458 0.210842
v 0.1818889 -0.4744882 -0.1076266
v 0.003114297 -0.4747019 -0.2108422
v -0.1833 -0.4749249 -0.1032158
v 0.181889 -0.4744883 0.1076263
v -0.1833 -0.474925 0.1032156
v 0.003114302 -0.4747021 0.210842
v -0.4359645 -0.2823844 -6.751808E-08
v -0.3394552 -0.3559283 -0.1670066
v -0.3158692 -0.2316237 -0.3411497
v -0.5130119 -0.08139315 -1.831646E-08
v -0.3897591 -0.03886948 -0.3411496
v -0.4903924 0.03781714 -0.1670063
v 0.02573372 -0.3554915 -0.3778487
v -0.1370946 -0.2314099 -0.4443654
v -0.3158692 -0.2316237 -0.3411497
v 0.003114297 -0.4747019 -0.2108422
v -0.3394552 -0.3559283 -0.1670066
v -0.1833 -0.4749249 -0.1032158
v 0.218488 -0.2816017 -0.3778486
v 0.3149972 -0.3551456 -0.2108421
v 0.4537936 -0.2307033 -0.1032156
v 0.2566509 -0.08047262 -0.4443653
v 0.4903925 -0.03781704 -0.1670063
v 0.3897592 0.03886971 -0.3411495
v 0.218488 -0.2816017 -0.3778486
v 0.2566509 -0.08047262 -0.4443653
v 0.1004957 0.03852387 -0.5081561
v 0.02573372 -0.3554915 -0.3778487
v -0.1004956 -0.0385235 -0.5081561
v -0.1370946 -0.2314099 -0.4443654
v -0.4903924 0.03781714 -0.1670063
v -0.3897591 -0.03886948 -0.3411496
v -0.2566509 0.08047304 -0.4443653
v -0.4537935 0.2307033 -0.1032155
v -0.2184878 0.281602 -0.3778484
v -0.3149971 0.3551458 -0.2108419
v 0.1004957 0.03852387 -0.5081561
v 0.1370947 0.2314102 -0.4443652
v -0.02573363 0.3554918 -0.3778484
v -0.1004956 -0.0385235 -0.5081561
v -0.2184878 0.281602 -0.3778484
v -0.2566509 0.08047304 -0.4443653
v 0.3897592 0.03886971 -0.3411495
v 0.4903925 -0.03781704 -0.1670063
v 0.5130119 0.08139311 7.473581E-08
v 0.3158693 0.231624 -0.3411495
v 0.4359646 0.2823844 1.827678E-07
v 0.3394553 0.3559285 -0.1670062
v -0.02573363 0.3554918 -0.3778484
v 0.1370947 0.2314102 -0.4443652
v 0.3158693 0.231624 -0.3411495
v -0.003114233 0.4747021 -0.2108418
v 0.3394553 0.3559285 -0.1670062
v 0.1833001 0.474925 -0.1032154
v -0.4537935 0.2307033 -0.1032155
v -0.3149971 0.3551458 -0.2108419
v -0.1818889 0.4744882 -0.1076261
v -0.1818889 0.4744881 0.1076267
v -0.4537936 0.2307032 0.1032157
v -0.3149972 0.3551455 0.2108422
v -0.1818889 0.4744882 -0.1076261
v -0.003114233 0.4747021 -0.2108418
v 0.1833001 0.474925 -0.1032154
v -0.1818889 0.4744881 0.1076267
v 0.1833001 0.4749248 0.103216
v -0.003114257 0.4747018 0.2108424
v 0.3158694 0.2316238 0.3411495
v 0.3897592 0.03886951 0.3411495
v 0.2566509 -0.08047293 0.4443653
v 0.1370947 0.23141 0.4443653
v 0.1004957 0.03852365 0.5081561
v -0.2566509 0.08047283 0.4443653
v -0.1004956 -0.03852369 0.5081561
v -0.1370946 -0.2314101 0.4443653
v -0.3158692 -0.2316239 0.3411495
v -0.3897591 -0.03886965 0.3411495
v 0.3149972 -0.3551458 0.210842
v 0.181889 -0.4744883 0.1076263
v 0.003114302 -0.4747021 0.210842
v 0.2184879 -0.281602 0.3778485
v 0.02573372 -0.3554918 0.3778485
v -0.1833 -0.4749249 -0.1032158
v -0.3394552 -0.3559283 -0.1670066
v -0.4359645 -0.2823844 -6.751808E-08
v -0.1833 -0.474925 0.1032156
v -0.3394552 -0.3559285 0.1670063
v 0.218488 -0.2816017 -0.3778486
v 0.02573372 -0.3554915 -0.3778487
v 0.003114297 -0.4747019 -0.2108422
v 0.3149972 -0.3551456 -0.2108421
v 0.1818889 -0.4744882 -0.1076266
v -0.1370946 -0.2314099 -0.4443654
v -0.1004956 -0.0385235 -0.5081561
v -0.2566509 0.08047304 -0.4443653
v -0.3158692 -0.2316237 -0.3411497
v -0.3897591 -0.03886948 -0.3411496
v 0.2566509 -0.08047262 -0.4443653
v 0.3897592 0.03886971 -0.3411495
v 0.3158693 0.231624 -0.3411495
v 0.1370947 0.2314102 -0.4443652
v 0.1004957 0.03852387 -0.5081561
v -0.3149971 0.3551458 -0.2108419
v -0.2184878 0.281602 -0.3778484
v -0.02573363 0.3554918 -0.3778484
v -0.003114233 0.4747021 -0.2108418
v -0.1818889 0.4744882 -0.1076261
v 0.1833001 0.474925 -0.1032154
v 0.3394553 0.3559285 -0.1670062
v 0.4359646 0.2823844 1.827678E-07
v 0.1833001 0.4749248 0.103216
v 0.3394554 0.3559284 0.1670063
v -0.3149972 0.3551455 0.2108422
v -0.1818889 0.4744881 0.1076267
v -0.003114257 0.4747018 0.2108424
v -0.2184878 0.2816019 0.3778485
v -0.02573359 0.3554917 0.3778485
v -0.4903925 0.03781705 0.1670063
v -0.5130119 -0.08139315 -1.831646E-08
v -0.4903924 0.03781714 -0.1670063
v -0.4537936 0.2307032 0.1032157
v -0.4537935 0.2307033 -0.1032155
v 0.4537936 -0.2307033 -0.1032156
v 0.4537936 -0.2307033 0.1032155
v 0.4903925 -0.0378172 0.1670063
v 0.4903925 -0.03781704 -0.1670063
v 0.5130119 0.08139311 7.473581E-08
vt 0.01315364 0.4489766
vt 0.2663884 0.5940951
vt 0.5212976 0.4474738
vt 0.5212557 0.1548188
vt 0.01232794 0.1534643
vt 0.2663024 0.007100491
vt 0.01315364 0.4489766
vt 0.2663884 0.5940951
vt 0.5212976 0.4474738
vt 0.5212557 0.1548188
vt 0.01232794 0.1534643
vt 0.2663024 0.007100491
vt 0.01315364 0.4489766
vt 0.2663884 0.5940951
vt 0.5212976 0.4474738
vt 0.5212557 0.1548188
vt 0.01232794 0.1534643
vt 0.2663024 0.007100491
vt 0.01232794 0.1534643
vt 0.01315364 0.4489766
vt 0.2663884 0.5940951
vt 0.5212976 0.4474738
vt 0.2663024 0.007100608
vt 0.5212557 0.1548188
vt 0.01315364 0.4489766
vt 0.2663884 0.5940951
vt 0.5212976 0.4474738
vt 0.5212557 0.1548188
vt 0.01232794 0.1534643
vt 0.2663024 0.007100491
vt 0.5212976 0.4474738
vt 0.5212557 0.1548188
vt 0.2663024 0.007100491
vt 0.01232794 0.1534643
vt 0.2663884 0.5940951
vt 0.01315364 0.4489766
vt 0.5212557 0.1548188
vt 0.2663024 0.007100491
vt 0.01232794 0.1534643
vt 0.01315364 0.4489766
vt 0.5212976 0.4474738
vt 0.2663884 0.5940951
vt 0.5212557 0.1548188
vt 0.2663024 0.007100608
vt 0.01232794 0.1534643
vt 0.01315364 0.4489766
vt 0.5212976 0.4474738
vt 0.2663884 0.5940951
vt 0.5212557 0.1548188
vt 0.2663024 0.007100491
vt 0.01232794 0.1534643
vt 0.01315364 0.4489766
vt 0.5212976 0.4474738
vt 0.2663884 0.5940951
vt 0.5212557 0.1548188
vt 0.2663024 0.007100491
vt 0.01232794 0.1534643
vt 0.5212976 0.4474738
vt 0.01315364 0.4489766
vt 0.2663884 0.5940951
vt 0.01315364 0.4489766
vt 0.2663884 0.5940951
vt 0.5212976 0.4474738
vt 0.01232794 0.1534643
vt 0.5212557 0.1548188
vt 0.2663024 0.007100491
vt 0.2663884 0.5940951
vt 0.5212976 0.4474738
vt 0.5212557 0.1548188
vt 0.01315364 0.4489766
vt 0.2663024 0.007100608
vt 0.01232794 0.1534643
vt 0.2663024 0.007100491
vt 0.01232794 0.1534643
vt 0.01315364 0.4489766
vt 0.5212557 0.1548188
vt 0.2663884 0.5940951
vt 0.5212976 0.4474738
vt 0.01315364 0.4489766
vt 0.2663884 0.5940951
vt 0.5212976 0.4474738
vt 0.01232794 0.1534643
vt 0.5212557 0.1548188
vt 0.2663024 0.007100608
vt 0.2663024 0.007100608
vt 0.01232794 0.1534643
vt 0.01315364 0.4489766
vt 0.5212557 0.1548188
vt 0.2663884 0.5940951
vt 0.5212976 0.4474738
vt 0.01315365 0.4489766
vt 0.2663884 0.5940951
vt 0.5212976 0.4474738
vt 0.01232795 0.1534643
vt 0.5212557 0.1548188
vt 0.2663024 0.007100463
vt 0.01315364 0.4489766
vt 0.2663884 0.5940951
vt 0.5212976 0.4474738
vt 0.01232794 0.1534643
vt 0.5212557 0.1548188
vt 0.2663024 0.007100491
vt 0.01232794 0.1534643
vt 0.01315364 0.4489766
vt 0.2663884 0.5940951
vt 0.2663024 0.007100608
vt 0.5212976 0.4474738
vt 0.5212557 0.1548188
vt 0.5212557 0.1548188
vt 0.2663024 0.007100608
vt 0.01232794 0.1534643
vt 0.01315364 0.4489766
vt 0.5212976 0.4474738
vt 0.2663884 0.5940951
vt 0.5212557 0.1548188
vt 0.2663024 0.007100491
vt 0.01232794 0.1534643
vt 0.5212976 0.4474738
vt 0.01315364 0.4489766
vt 0.2663884 0.5940951
vt 0.871345 0.4578919
vt 0.5261884 0.4578919
vt 0.419529 0.7861554
vt 0.9780042 0.7861554
vt 0.6987662 0.9890335
vt 0.419529 0.7861554
vt 0.6987662 0.9890335
vt 0.9780042 0.7861554
vt 0.871345 0.4578919
vt 0.5261884 0.4578919
vt 0.419529 0.7861554
vt 0.6987662 0.9890335
vt 0.9780042 0.7861554
vt 0.5261884 0.4578919
vt 0.871345 0.4578919
vt 0.5261884 0.4578919
vt 0.419529 0.7861554
vt 0.6987662 0.9890335
vt 0.871345 0.4578919
vt 0.9780042 0.7861554
vt 0.9780042 0.7861554
vt 0.871345 0.4578919
vt 0.5261884 0.4578919
vt 0.6987662 0.9890335
vt 0.419529 0.7861554
vt 0.9780042 0.7861554
vt 0.871345 0.4578919
vt 0.5261884 0.4578919
vt 0.6987662 0.9890335
vt 0.419529 0.7861554
vt 0.5261884 0.4578919
vt 0.419529 0.7861554
vt 0.6987662 0.9890335
vt 0.9780042 0.7861554
vt 0.871345 0.4578919
vt 0.871345 0.4578919
vt 0.5261884 0.4578919
vt 0.419529 0.7861554
vt 0.6987662 0.9890335
vt 0.9780042 0.7861554
vt 0.5261884 0.4578919
vt 0.419529 0.7861554
vt 0.6987662 0.9890335
vt 0.871345 0.4578919
vt 0.9780042 0.7861554
vt 0.9780042 0.7861554
vt 0.871345 0.4578919
vt 0.5261884 0.4578919
vt 0.6987662 0.9890335
vt 0.419529 0.7861554
vt 0.9780042 0.7861554
vt 0.871345 0.4578919
vt 0.5261884 0.4578919
vt 0.6987662 0.9890335
vt 0.419529 0.7861554
vt 0.871345 0.4578919
vt 0.5261884 0.4578919
vt 0.419529 0.7861554
vt 0.9780042 0.7861554
vt 0.6987662 0.9890335
vn 0.1277205 -0.3331809 0.9341723
vn 0.1277205 -0.3331809 0.9341723
vn 0.1277205 -0.3331809 0.9341723
vn 0.1277205 -0.3331809 0.9341723
vn 0.1277205 -0.3331809 0.9341723
vn 0.1277205 -0.3331809 0.9341723
vn 0.7457541 -0.3324419 0.5773501
vn 0.7457541 -0.3324419 0.5773501
vn 0.7457541 -0.3324419 0.5773501
vn 0.7457541 -0.3324419 0.5773501
vn 0.7457541 -0.3324419 0.5773501
vn 0.7457541 -0.3324419 0.5773501
vn 0.8722789 0.3343765 0.3568221
vn 0.8722789 0.3343765 0.3568221
vn 0.8722789 0.3343765 0.3568221
vn 0.8722789 0.3343765 0.3568221
vn 0.8722789 0.3343765 0.3568221
vn 0.8722789 0.3343765 0.3568221
vn 0.3324419 0.7457539 0.5773504
vn 0.3324419 0.7457539 0.5773504
vn 0.3324419 0.7457539 0.5773503
vn 0.3324419 0.7457539 0.5773504
vn 0.3324419 0.7457539 0.5773504
vn 0.3324419 0.7457539 0.5773504
vn -0.1277205 0.3331809 0.9341723
vn -0.1277205 0.3331809 0.9341723
vn -0.1277205 0.3331809 0.9341723
vn -0.1277205 0.3331809 0.9341723
vn -0.1277205 0.3331809 0.9341723
vn -0.1277205 0.3331809 0.9341723
vn -0.7457542 0.3324415 0.5773503
vn -0.7457541 0.3324415 0.5773503
vn -0.7457542 0.3324415 0.5773503
vn -0.7457541 0.3324415 0.5773503
vn -0.7457541 0.3324414 0.5773503
vn -0.7457541 0.3324415 0.5773503
vn -0.8722787 -0.3343767 0.3568219
vn -0.8722787 -0.3343767 0.3568219
vn -0.8722787 -0.3343767 0.356822
vn -0.8722787 -0.3343767 0.356822
vn -0.8722787 -0.3343767 0.356822
vn -0.8722787 -0.3343767 0.356822
vn -0.3324417 -0.7457541 0.5773501
vn -0.3324417 -0.7457541 0.5773501
vn -0.3324417 -0.7457541 0.5773501
vn -0.3324417 -0.7457541 0.5773501
vn -0.3324417 -0.7457542 0.5773501
vn -0.3324417 -0.7457541 0.5773501
vn 0.6675576 -0.7445581 -1.990525E-07
vn 0.6675576 -0.7445581 -1.990525E-07
vn 0.6675576 -0.7445581 -1.990525E-07
vn 0.6675576 -0.7445581 -1.990524E-07
vn 0.6675576 -0.7445581 -1.990525E-07
vn 0.6675576 -0.7445581 -1.990525E-07
vn 0.001195917 -0.9999993 -2.428069E-07
vn 0.001195903 -0.9999993 -2.428069E-07
vn 0.001195917 -0.9999993 -2.428069E-07
vn 0.001195917 -0.9999993 -2.428069E-07
vn 0.001195903 -0.9999993 -2.428069E-07
vn 0.001195903 -0.9999993 -2.428069E-07
vn -0.8722787 -0.3343765 -0.3568221
vn -0.8722787 -0.3343765 -0.3568221
vn -0.8722787 -0.3343765 -0.3568222
vn -0.8722787 -0.3343765 -0.3568221
vn -0.8722787 -0.3343765 -0.3568222
vn -0.8722787 -0.3343765 -0.3568221
vn -0.3324417 -0.7457539 -0.5773505
vn -0.3324417 -0.7457539 -0.5773504
vn -0.3324417 -0.7457539 -0.5773505
vn -0.3324417 -0.7457539 -0.5773505
vn -0.3324417 -0.7457539 -0.5773505
vn -0.3324417 -0.7457539 -0.5773505
vn 0.7457542 -0.3324415 -0.5773503
vn 0.7457542 -0.3324415 -0.5773503
vn 0.7457542 -0.3324415 -0.5773503
vn 0.7457542 -0.3324415 -0.5773503
vn 0.7457542 -0.3324415 -0.5773503
vn 0.7457542 -0.3324415 -0.5773503
vn 0.1277206 -0.3331805 -0.9341725
vn 0.1277206 -0.3331805 -0.9341725
vn 0.1277206 -0.3331805 -0.9341725
vn 0.1277206 -0.3331805 -0.9341725
vn 0.1277206 -0.3331805 -0.9341725
vn 0.1277206 -0.3331805 -0.9341725
vn -0.7457541 0.332442 -0.57735
vn -0.7457541 0.332442 -0.5773501
vn -0.7457541 0.332442 -0.5773501
vn -0.7457541 0.332442 -0.5773501
vn -0.7457541 0.332442 -0.57735
vn -0.7457541 0.332442 -0.57735
vn -0.1277205 0.3331812 -0.9341723
vn -0.1277205 0.3331812 -0.9341723
vn -0.1277205 0.3331812 -0.9341723
vn -0.1277205 0.3331812 -0.9341723
vn -0.1277205 0.3331812 -0.9341723
vn -0.1277205 0.3331812 -0.9341723
vn 0.8722787 0.3343768 -0.3568218
vn 0.8722787 0.3343768 -0.3568218
vn 0.8722787 0.3343768 -0.3568218
vn 0.8722787 0.3343768 -0.3568218
vn 0.8722787 0.3343768 -0.3568218
vn 0.8722787 0.3343768 -0.3568218
vn 0.3324418 0.7457544 -0.5773499
vn 0.3324418 0.7457544 -0.5773499
vn 0.3324418 0.7457544 -0.5773499
vn 0.3324418 0.7457544 -0.5773499
vn 0.3324418 0.7457544 -0.5773499
vn 0.3324418 0.7457544 -0.5773499
vn -0.6675576 0.7445581 4.131006E-07
vn -0.6675576 0.7445581 4.131006E-07
vn -0.6675576 0.7445581 4.131006E-07
vn -0.6675576 0.7445581 4.131006E-07
vn -0.6675576 0.7445581 4.131006E-07
vn -0.6675576 0.7445581 4.131006E-07
vn -0.001195945 0.9999993 5.708635E-07
vn -0.001195945 0.9999993 5.708635E-07
vn -0.001195945 0.9999993 5.708634E-07
vn -0.001195945 0.9999993 5.708634E-07
vn -0.001195945 0.9999993 5.708634E-07
vn -0.001195931 0.9999993 5.708634E-07
vn 0.490899 0.1881796 0.8506507
vn 0.490899 0.1881796 0.8506507
vn 0.490899 0.1881796 0.8506507
vn 0.490899 0.1881796 0.8506507
vn 0.490899 0.1881796 0.8506507
vn -0.4908989 -0.1881797 0.8506507
vn -0.4908989 -0.1881797 0.8506507
vn -0.4908989 -0.1881797 0.8506507
vn -0.4908989 -0.1881797 0.8506507
vn -0.4908989 -0.1881797 0.8506507
vn 0.3044812 -0.7942909 0.5257309
vn 0.3044812 -0.7942909 0.525731
vn 0.3044812 -0.7942909 0.525731
vn 0.3044812 -0.7942909 0.525731
vn 0.3044812 -0.7942909 0.525731
vn -0.6061112 -0.7953799 -2.605687E-07
vn -0.6061113 -0.7953799 -2.605687E-07
vn -0.6061113 -0.7953799 -2.605687E-07
vn -0.6061113 -0.7953799 -2.605687E-07
vn -0.6061113 -0.7953799 -2.605687E-07
vn 0.3044813 -0.7942906 -0.5257314
vn 0.3044812 -0.7942906 -0.5257314
vn 0.3044813 -0.7942906 -0.5257314
vn 0.3044813 -0.7942906 -0.5257314
vn 0.3044812 -0.7942906 -0.5257314
vn -0.4908988 -0.1881793 -0.8506508
vn -0.4908989 -0.1881793 -0.8506508
vn -0.4908988 -0.1881793 -0.8506508
vn -0.4908988 -0.1881793 -0.8506508
vn -0.4908988 -0.1881793 -0.8506508
vn 0.4908989 0.1881801 -0.8506507
vn 0.4908989 0.1881801 -0.8506507
vn 0.4908989 0.1881801 -0.8506507
vn 0.4908989 0.1881801 -0.8506507
vn 0.4908989 0.1881801 -0.8506507
vn -0.3044812 0.7942912 -0.5257306
vn -0.3044812 0.7942912 -0.5257306
vn -0.3044812 0.7942912 -0.5257306
vn -0.3044812 0.7942912 -0.5257306
vn -0.3044812 0.7942912 -0.5257306
vn 0.6061113 0.7953799 2.847277E-07
vn 0.6061112 0.7953799 2.847277E-07
vn 0.6061112 0.7953799 2.847276E-07
vn 0.6061112 0.7953799 2.847276E-07
vn 0.6061112 0.7953799 2.847276E-07
vn -0.3044813 0.7942907 0.5257313
vn -0.3044813 0.7942908 0.5257313
vn -0.3044813 0.7942907 0.5257314
vn -0.3044813 0.7942907 0.5257313
vn -0.3044812 0.7942907 0.5257313
vn -0.9824706 0.1864176 0
vn -0.9824706 0.1864177 0
vn -0.9824706 0.1864177 0
vn -0.9824706 0.1864176 0
vn -0.9824706 0.1864176 0
vn 0.9824706 -0.1864177 0
vn 0.9824706 -0.1864177 0
vn 0.9824706 -0.1864176 0
vn 0.9824706 -0.1864177 0
vn 0.9824706 -0.1864177 0
g Shield_0
f 3/3/3 2/2/2 1/1/1
f 1/1/1 4/4/4 3/3/3
f 1/1/1 5/5/5 4/4/4
f 5/5/5 6/6/6 4/4/4
f 9/9/9 8/8/8 7/7/7
f 7/7/7 10/10/10 9/9/9
f 7/7/7 11/11/11 10/10/10
f 11/11/11 12/12/12 10/10/10
f 15/15/15 14/14/14 13/13/13
f 13/13/13 16/16/16 15/15/15
f 13/13/13 17/17/17 16/16/16
f 17/17/17 18/18/18 16/16/16
f 21/21/21 20/20/20 19/19/19
f 19/19/19 22/22/22 21/21/21
f 19/19/19 23/23/23 22/22/22
f 23/23/23 24/24/24 22/22/22
f 27/27/27 26/26/26 25/25/25
f 25/25/25 28/28/28 27/27/27
f 25/25/25 29/29/29 28/28/28
f 29/29/29 30/30/30 28/28/28
f 33/33/33 32/32/32 31/31/31
f 31/31/31 34/34/34 33/33/33
f 31/31/31 35/35/35 34/34/34
f 35/35/35 36/36/36 34/34/34
f 39/39/39 38/38/38 37/37/37
f 37/37/37 40/40/40 39/39/39
f 37/37/37 41/41/41 40/40/40
f 41/41/41 42/42/42 40/40/40
f 45/45/45 44/44/44 43/43/43
f 43/43/43 46/46/46 45/45/45
f 43/43/43 47/47/47 46/46/46
f 47/47/47 48/48/48 46/46/46
f 51/51/51 50/50/50 49/49/49
f 49/49/49 52/52/52 51/51/51
f 49/49/49 53/53/53 52/52/52
f 53/53/53 54/54/54 52/52/52
f 57/57/57 56/56/56 55/55/55
f 55/55/55 58/58/58 57/57/57
f 58/58/58 59/59/59 57/57/57
f 58/58/58 60/60/60 59/59/59
f 63/63/63 62/62/62 61/61/61
f 61/61/61 64/64/64 63/63/63
f 64/64/64 65/65/65 63/63/63
f 64/64/64 66/66/66 65/65/65
f 69/69/69 68/68/68 67/67/67
f 67/67/67 70/70/70 69/69/69
f 70/70/70 71/71/71 69/69/69
f 70/70/70 72/72/72 71/71/71
f 75/75/75 74/74/74 73/73/73
f 73/73/73 76/76/76 75/75/75
f 76/76/76 77/77/77 75/75/75
f 76/76/76 78/78/78 77/77/77
f 81/81/81 80/80/80 79/79/79
f 79/79/79 82/82/82 81/81/81
f 82/82/82 83/83/83 81/81/81
f 82/82/82 84/84/84 83/83/83
f 87/87/87 86/86/86 85/85/85
f 85/85/85 88/88/88 87/87/87
f 88/88/88 89/89/89 87/87/87
f 88/88/88 90/90/90 89/89/89
f 93/93/93 92/92/92 91/91/91
f 91/91/91 94/94/94 93/93/93
f 94/94/94 95/95/95 93/93/93
f 94/94/94 96/96/96 95/95/95
f 99/99/99 98/98/98 97/97/97
f 97/97/97 100/100/100 99/99/99
f 100/100/100 101/101/101 99/99/99
f 100/100/100 102/102/102 101/101/101
f 105/105/105 104/104/104 103/103/103
f 103/103/103 106/106/106 105/105/105
f 106/106/106 107/107/107 105/105/105
f 106/106/106 108/108/108 107/107/107
f 111/111/111 110/110/110 109/109/109
f 109/109/109 112/112/112 111/111/111
f 109/109/109 113/113/113 112/112/112
f 113/113/113 114/114/114 112/112/112
f 117/117/117 116/116/116 115/115/115
f 115/115/115 118/118/118 117/117/117
f 118/118/118 119/119/119 117/117/117
f 118/118/118 120/120/120 119/119/119
f 123/123/123 122/122/122 121/121/121
f 121/121/121 124/124/124 123/123/123
f 124/124/124 125/125/125 123/123/123
f 128/128/128 127/127/127 126/126/126
f 126/126/126 129/129/129 128/128/128
f 126/126/126 130/130/130 129/129/129
f 133/133/133 132/132/132 131/131/131
f 131/131/131 134/134/134 133/133/133
f 134/134/134 135/135/135 133/133/133
f 138/138/138 137/137/137 136/136/136
f 136/136/136 139/139/139 138/138/138
f 139/139/139 140/140/140 138/138/138
f 143/143/143 142/142/142 141/141/141
f 141/141/141 144/144/144 143/143/143
f 144/144/144 145/145/145 143/143/143
f 148/148/148 147/147/147 146/146/146
f 146/146/146 149/149/149 148/148/148
f 149/149/149 150/150/150 148/148/148
f 153/153/153 152/152/152 151/151/151
f 151/151/151 154/154/154 153/153/153
f 151/151/151 155/155/155 154/154/154
f 158/158/158 157/157/157 156/156/156
f 156/156/156 159/159/159 158/158/158
f 156/156/156 160/160/160 159/159/159
f 163/163/163 162/162/162 161/161/161
f 161/161/161 164/164/164 163/163/163
f 164/164/164 165/165/165 163/163/163
f 168/168/168 167/167/167 166/166/166
f 166/166/166 169/169/169 168/168/168
f 169/169/169 170/170/170 168/168/168
f 173/173/173 172/172/172 171/171/171
f 171/171/171 174/174/174 173/173/173
f 174/174/174 175/175/175 173/173/173
f 178/178/178 177/177/177 176/176/176
f 176/176/176 179/179/179 178/178/178
f 179/179/179 180/180/180 178/178/178
