g Stone_12
v 0.03595458 0.05962019 0.07843494
v 0.07586662 0.05401193 0.04744655
v 0.08864619 0.02829786 0.1077915
v 0.01899893 0.009493448 0.1012536
v 0.03074222 0.05345075 0.08360942
v 0.08347858 0.02349176 0.112811
v 0.05441816 -0.033252 0.08040076
v 0.02119198 0.0003976449 0.1010539
v 0.08646003 0.01440284 0.1121534
v 0.09285326 -0.00964836 0.04532236
v 0.06181667 -0.03428483 0.07468575
v 0.09386198 0.01354215 0.106404
v 0.08246642 0.04747754 0.04318784
v 0.09428889 -0.0009725764 0.04246143
v 0.09608946 0.02204923 0.1031127
v -0.0391839 0.02906215 -0.09035724
v -0.07914071 0.03465666 -0.05946182
v -0.0911973 -0.007586144 -0.1081426
v -0.08430831 0.03047714 -0.05455242
v -0.09608947 -0.01521188 -0.03668789
v -0.09553863 -0.01250242 -0.1034708
v -0.0939033 -0.024349 -0.03687724
v -0.06062892 -0.05819832 -0.05740304
v -0.09335247 -0.02150871 -0.1036877
v -0.0532304 -0.05923115 -0.06311804
v -0.02223514 -0.03400253 -0.09268112
v -0.08594707 -0.02237284 -0.1094336
v -0.0207995 -0.02532674 -0.09554206
v -0.03257723 0.02450393 -0.094974
v -0.08375746 -0.01390363 -0.112811
v 0.08246642 0.04747754 0.04318784
v 0.09608946 0.02204923 0.1031127
v 0.07586662 0.05401193 0.04744655
v 0.07586662 0.05401193 0.04744655
v 0.09608946 0.02204923 0.1031127
v 0.08864619 0.02829786 0.1077915
v 0.09608946 0.02204923 0.1031127
v 0.09428889 -0.0009725764 0.04246143
v 0.09386198 0.01354215 0.106404
v 0.09386198 0.01354215 0.106404
v 0.09428889 -0.0009725764 0.04246143
v 0.09285326 -0.00964836 0.04532236
v 0.01899893 0.009493448 0.1012536
v 0.08347858 0.02349176 0.112811
v 0.02119198 0.0003976449 0.1010539
v 0.02119198 0.0003976449 0.1010539
v 0.08347858 0.02349176 0.112811
v 0.08646003 0.01440284 0.1121534
v 0.08347858 0.02349176 0.112811
v 0.03074222 0.05345075 0.08360942
v 0.08864619 0.02829786 0.1077915
v 0.08864619 0.02829786 0.1077915
v 0.03074222 0.05345075 0.08360942
v 0.03595458 0.05962019 0.07843494
v 0.03595458 0.05962019 0.07843494
v 0.03074222 0.05345075 0.08360942
v 0.02547478 0.06202669 0.06967653
v 0.02547478 0.06202669 0.06967653
v 0.03074222 0.05345075 0.08360942
v 0.02113689 0.0573273 0.07431394
v 0.01899893 0.009493448 0.1012536
v 0.02119198 0.0003976449 0.1010539
v 0.00701464 0.006904483 0.09450579
v 0.00701464 0.006904483 0.09450579
v 0.02119198 0.0003976449 0.1010539
v 0.01003051 -0.002125904 0.09393086
v 0.08973755 -0.00475274 0.03011909
v 0.0874722 -0.01310146 0.03329332
v 0.09428889 -0.0009725764 0.04246143
v 0.09428889 -0.0009725764 0.04246143
v 0.0874722 -0.01310146 0.03329332
v 0.09285326 -0.00964836 0.04532236
v 0.0874722 -0.01310146 0.03329332
v 0.05356779 -0.0406092 0.06575866
v 0.09285326 -0.00964836 0.04532236
v 0.09285326 -0.00964836 0.04532236
v 0.05356779 -0.0406092 0.06575866
v 0.06181667 -0.03428483 0.07468575
v 0.01003051 -0.002125904 0.09393086
v -0.08935197 -0.02347797 -0.0240116
v 0.00701464 0.006904483 0.09450579
v 0.00701464 0.006904483 0.09450579
v -0.08935197 -0.02347797 -0.0240116
v -0.09154157 -0.014513 -0.02378783
v -0.0391839 0.02906215 -0.09035724
v -0.0911973 -0.007586144 -0.1081426
v -0.03257723 0.02450393 -0.094974
v -0.03257723 0.02450393 -0.094974
v -0.0911973 -0.007586144 -0.1081426
v -0.08375746 -0.01390363 -0.112811
v -0.08594707 -0.02237284 -0.1094336
v -0.02223514 -0.03400253 -0.09268112
v -0.08375746 -0.01390363 -0.112811
v -0.08375746 -0.01390363 -0.112811
v -0.02223514 -0.03400253 -0.09268112
v -0.0207995 -0.02532674 -0.09554206
v -0.0911973 -0.007586144 -0.1081426
v -0.07914071 0.03465666 -0.05946182
v -0.09553863 -0.01250242 -0.1034708
v -0.09553863 -0.01250242 -0.1034708
v -0.07914071 0.03465666 -0.05946182
v -0.08430831 0.03047714 -0.05455242
v -0.01108056 -0.03451894 -0.08500373
v -0.008849651 -0.02618399 -0.08826748
v -0.02223514 -0.03400253 -0.09268112
v -0.02223514 -0.03400253 -0.09268112
v -0.008849651 -0.02618399 -0.08826748
v -0.0207995 -0.02532674 -0.09554206
v -0.02210432 0.02807064 -0.08729662
v -0.02870755 0.03438468 -0.0829966
v -0.03257723 0.02450393 -0.094974
v -0.03257723 0.02450393 -0.094974
v -0.02870755 0.03438468 -0.0829966
v -0.0391839 0.02906215 -0.09035724
v -0.07311586 0.04059544 -0.04871004
v -0.07745375 0.03589606 -0.04407263
v -0.07914071 0.03465666 -0.05946182
v -0.07914071 0.03465666 -0.05946182
v -0.07745375 0.03589606 -0.04407263
v -0.08430831 0.03047714 -0.05455242
v -0.07745375 0.03589606 -0.04407263
v -0.09154157 -0.014513 -0.02378783
v -0.08430831 0.03047714 -0.05455242
v -0.08430831 0.03047714 -0.05455242
v -0.09154157 -0.014513 -0.02378783
v -0.09608947 -0.01521188 -0.03668789
v 0.09608946 0.02204923 0.1031127
v 0.09386198 0.01354215 0.106404
v 0.08864619 0.02829786 0.1077915
v 0.08646003 0.01440284 0.1121534
v 0.08347858 0.02349176 0.112811
v 0.09386198 0.01354215 0.106404
v 0.06181667 -0.03428483 0.07468575
v 0.08646003 0.01440284 0.1121534
v 0.05441816 -0.033252 0.08040076
v 0.03595458 0.05962019 0.07843494
v 0.06984521 0.05580217 0.03529702
v 0.07586662 0.05401193 0.04744655
v 0.02547478 0.06202669 0.06967653
v 0.07586662 0.05401193 0.04744655
v 0.06984521 0.05580217 0.03529702
v 0.07648976 0.0495019 0.03108995
v 0.08246642 0.04747754 0.04318784
v 0.03074222 0.05345075 0.08360942
v 0.01899893 0.009493448 0.1012536
v 0.02113689 0.0573273 0.07431394
v 0.00701464 0.006904483 0.09450579
v 0.02119198 0.0003976449 0.1010539
v 0.05441816 -0.033252 0.08040076
v 0.01003051 -0.002125904 0.09393086
v 0.04616928 -0.03957637 0.07147366
v 0.07648976 0.0495019 0.03108995
v 0.08973755 -0.00475274 0.03011909
v 0.08246642 0.04747754 0.04318784
v 0.09428889 -0.0009725764 0.04246143
v 0.05356779 -0.0406092 0.06575866
v 0.04616928 -0.03957637 0.07147366
v 0.06181667 -0.03428483 0.07468575
v 0.05441816 -0.033252 0.08040076
v 0.06984521 0.05580217 0.03529702
v -0.02870755 0.03438468 -0.0829966
v 0.07648976 0.0495019 0.03108995
v -0.02210432 0.02807064 -0.08729662
v 0.02113689 0.0573273 0.07431394
v -0.07745375 0.03589606 -0.04407263
v 0.02547478 0.06202669 0.06967653
v -0.07311586 0.04059544 -0.04871004
v 0.05356779 -0.0406092 0.06575866
v -0.04498497 -0.06202668 -0.05253841
v 0.04616928 -0.03957637 0.07147366
v -0.05238004 -0.06099041 -0.0468234
v 0.08973755 -0.00475274 0.03011909
v -0.008849651 -0.02618399 -0.08826748
v 0.0874722 -0.01310146 0.03329332
v -0.01108056 -0.03451894 -0.08500373
v -0.0911973 -0.007586144 -0.1081426
v -0.08594707 -0.02237284 -0.1094336
v -0.08375746 -0.01390363 -0.112811
v -0.09335247 -0.02150871 -0.1036877
v -0.09553863 -0.01250242 -0.1034708
v -0.0532304 -0.05923115 -0.06311804
v -0.08594707 -0.02237284 -0.1094336
v -0.06062892 -0.05819832 -0.05740304
v -0.09335247 -0.02150871 -0.1036877
v -0.09553863 -0.01250242 -0.1034708
v -0.09608947 -0.01521188 -0.03668789
v -0.09335247 -0.02150871 -0.1036877
v -0.0939033 -0.024349 -0.03687724
v -0.06062892 -0.05819832 -0.05740304
v -0.04498497 -0.06202668 -0.05253841
v -0.0532304 -0.05923115 -0.06311804
v -0.05238004 -0.06099041 -0.0468234
v -0.04498497 -0.06202668 -0.05253841
v -0.01108056 -0.03451894 -0.08500373
v -0.0532304 -0.05923115 -0.06311804
v -0.02223514 -0.03400253 -0.09268112
v -0.008849651 -0.02618399 -0.08826748
v -0.02210432 0.02807064 -0.08729662
v -0.0207995 -0.02532674 -0.09554206
v -0.03257723 0.02450393 -0.094974
v -0.02870755 0.03438468 -0.0829966
v -0.07311586 0.04059544 -0.04871004
v -0.0391839 0.02906215 -0.09035724
v -0.07914071 0.03465666 -0.05946182
v -0.09154157 -0.014513 -0.02378783
v -0.08935197 -0.02347797 -0.0240116
v -0.09608947 -0.01521188 -0.03668789
v -0.0939033 -0.024349 -0.03687724
v -0.08935197 -0.02347797 -0.0240116
v -0.05238004 -0.06099041 -0.0468234
v -0.0939033 -0.024349 -0.03687724
v -0.06062892 -0.05819832 -0.05740304
v 0.02547478 0.06202669 0.06967653
v -0.07311586 0.04059544 -0.04871004
v 0.06984521 0.05580217 0.03529702
v -0.02870755 0.03438468 -0.0829966
v 0.00701464 0.006904483 0.09450579
v -0.09154157 -0.014513 -0.02378783
v 0.02113689 0.0573273 0.07431394
v -0.07745375 0.03589606 -0.04407263
v 0.04616928 -0.03957637 0.07147366
v -0.05238004 -0.06099041 -0.0468234
v 0.01003051 -0.002125904 0.09393086
v -0.08935197 -0.02347797 -0.0240116
v 0.0874722 -0.01310146 0.03329332
v -0.01108056 -0.03451894 -0.08500373
v 0.05356779 -0.0406092 0.06575866
v -0.04498497 -0.06202668 -0.05253841
v 0.07648976 0.0495019 0.03108995
v -0.02210432 0.02807064 -0.08729662
v 0.08973755 -0.00475274 0.03011909
v -0.008849651 -0.02618399 -0.08826748
vt -10985.03 1602.526
vt -10972.79 1599.451
vt -10968.87 1585.359
vt -10990.23 1575.053
vt -10986.63 1599.146
vt -10970.46 1582.726
vt -10979.37 1551.628
vt -10989.55 1570.069
vt -10969.54 1577.745
vt -10967.58 1564.563
vt -10977.1 1551.061
vt -10967.27 1577.273
vt -10970.77 1595.871
vt -10967.14 1569.319
vt -10966.59 1581.935
vt -11008.07 1585.78
vt -11020.32 1588.845
vt -11024.02 1565.693
vt -11021.9 1586.556
vt -11025.51 1561.515
vt -11025.35 1563
vt -11024.84 1556.509
vt -11014.64 1537.956
vt -11024.68 1558.063
vt -11012.37 1537.389
vt -11002.87 1551.217
vt -11022.41 1557.59
vt -11002.43 1555.97
vt -11006.04 1583.28
vt -11021.73 1562.231
vt -10970.77 1595.871
vt -10966.59 1581.935
vt -10972.79 1599.451
vt -10972.79 1599.451
vt -10966.59 1581.935
vt -10968.87 1585.359
vt -10966.59 1581.935
vt -10967.14 1569.319
vt -10967.27 1577.273
vt -10967.27 1577.273
vt -10967.14 1569.319
vt -10967.58 1564.563
vt -10990.23 1575.053
vt -10970.46 1582.726
vt -10989.55 1570.069
vt -10989.55 1570.069
vt -10970.46 1582.726
vt -10969.54 1577.745
vt -10970.46 1582.726
vt -10986.63 1599.146
vt -10968.87 1585.359
vt -10968.87 1585.359
vt -10986.63 1599.146
vt -10985.03 1602.526
vt -10985.03 1602.526
vt -10986.63 1599.146
vt -10988.24 1603.844
vt -10988.24 1603.844
vt -10986.63 1599.146
vt -10989.57 1601.269
vt -10990.23 1575.053
vt -10989.55 1570.069
vt -10993.9 1573.636
vt -10993.9 1573.636
vt -10989.55 1570.069
vt -10992.98 1568.689
vt -10968.54 1567.247
vt -10969.23 1562.671
vt -10967.14 1569.319
vt -10967.14 1569.319
vt -10969.23 1562.671
vt -10967.58 1564.563
vt -10969.23 1562.671
vt -10979.63 1547.595
vt -10967.58 1564.563
vt -10967.58 1564.563
vt -10979.63 1547.595
vt -10977.1 1551.061
vt -10992.98 1568.689
vt -11023.45 1556.985
vt -10993.9 1573.636
vt -10993.9 1573.636
vt -11023.45 1556.985
vt -11024.12 1561.897
vt -11008.07 1585.78
vt -11024.02 1565.693
vt -11006.04 1583.28
vt -11006.04 1583.28
vt -11024.02 1565.693
vt -11021.73 1562.231
vt -11022.41 1557.59
vt -11002.87 1551.217
vt -11021.73 1562.231
vt -11021.73 1562.231
vt -11002.87 1551.217
vt -11002.43 1555.97
vt -11024.02 1565.693
vt -11020.32 1588.845
vt -11025.35 1563
vt -11025.35 1563
vt -11020.32 1588.845
vt -11021.9 1586.556
vt -10999.45 1550.935
vt -10998.77 1555.5
vt -11002.87 1551.217
vt -11002.87 1551.217
vt -10998.77 1555.5
vt -11002.43 1555.97
vt -11002.83 1585.234
vt -11004.85 1588.697
vt -11006.04 1583.28
vt -11006.04 1583.28
vt -11004.85 1588.697
vt -11008.07 1585.78
vt -11018.47 1592.1
vt -11019.8 1589.522
vt -11020.32 1588.845
vt -11020.32 1588.845
vt -11019.8 1589.522
vt -11021.9 1586.556
vt -11019.8 1589.522
vt -11024.12 1561.897
vt -11021.9 1586.556
vt -11021.9 1586.556
vt -11024.12 1561.897
vt -11025.51 1561.515
vt -10966.59 1581.935
vt -10967.27 1577.273
vt -10968.87 1585.359
vt -10969.54 1577.745
vt -10970.46 1582.726
vt -10967.27 1577.273
vt -10977.1 1551.061
vt -10969.54 1577.745
vt -10979.37 1551.628
vt -10985.03 1602.526
vt -10974.64 1600.434
vt -10972.79 1599.451
vt -10988.24 1603.844
vt -10972.79 1599.451
vt -10974.64 1600.434
vt -10972.6 1596.979
vt -10970.77 1595.871
vt -10986.63 1599.146
vt -10990.23 1575.053
vt -10989.57 1601.269
vt -10993.9 1573.636
vt -10989.55 1570.069
vt -10979.37 1551.628
vt -10992.98 1568.689
vt -10981.9 1548.162
vt -10972.6 1596.979
vt -10968.54 1567.247
vt -10970.77 1595.871
vt -10967.14 1569.319
vt -10979.63 1547.595
vt -10981.9 1548.162
vt -10977.1 1551.061
vt -10979.37 1551.628
vt -10974.64 1600.434
vt -11004.85 1588.697
vt -10972.6 1596.979
vt -11002.83 1585.234
vt -10989.57 1601.269
vt -11019.8 1589.522
vt -10988.24 1603.844
vt -11018.47 1592.1
vt -10979.63 1547.595
vt -11009.84 1535.86
vt -10981.9 1548.162
vt -11012.11 1536.426
vt -10968.54 1567.247
vt -10998.77 1555.5
vt -10969.23 1562.671
vt -10999.45 1550.935
vt -11024.02 1565.693
vt -11022.41 1557.59
vt -11021.73 1562.231
vt -11024.68 1558.063
vt -11025.35 1563
vt -11012.37 1537.389
vt -11022.41 1557.59
vt -11014.64 1537.956
vt -11024.68 1558.063
vt -11025.35 1563
vt -11025.51 1561.515
vt -11024.68 1558.063
vt -11024.84 1556.509
vt -11014.64 1537.956
vt -11009.84 1535.86
vt -11012.37 1537.389
vt -11012.11 1536.426
vt -11009.84 1535.86
vt -10999.45 1550.935
vt -11012.37 1537.389
vt -11002.87 1551.217
vt -10998.77 1555.5
vt -11002.83 1585.234
vt -11002.43 1555.97
vt -11006.04 1583.28
vt -11004.85 1588.697
vt -11018.47 1592.1
vt -11008.07 1585.78
vt -11020.32 1588.845
vt -11024.12 1561.897
vt -11023.45 1556.985
vt -11025.51 1561.515
vt -11024.84 1556.509
vt -11023.45 1556.985
vt -11012.11 1536.426
vt -11024.84 1556.509
vt -11014.64 1537.956
vt -10988.24 1603.844
vt -11018.47 1592.1
vt -10974.64 1600.434
vt -11004.85 1588.697
vt -10993.9 1573.636
vt -11024.12 1561.897
vt -10989.57 1601.269
vt -11019.8 1589.522
vt -10981.9 1548.162
vt -11012.11 1536.426
vt -10992.98 1568.689
vt -11023.45 1556.985
vt -10969.23 1562.671
vt -10999.45 1550.935
vt -10979.63 1547.595
vt -11009.84 1535.86
vt -10972.6 1596.979
vt -11002.83 1585.234
vt -10968.54 1567.247
vt -10998.77 1555.5
vn 0.361469 0.8834804 0.2979974
vn 0.361469 0.8834804 0.2979974
vn 0.361469 0.8834804 0.2979974
vn -0.2494068 0.4195241 0.8728091
vn -0.2494068 0.4195241 0.8728091
vn -0.2494068 0.4195241 0.8728091
vn -0.02516127 -0.5393189 0.8417256
vn -0.02516127 -0.5393189 0.8417256
vn -0.02516127 -0.5393189 0.8417256
vn 0.7326341 -0.6398427 0.2320529
vn 0.7326341 -0.6398427 0.2320529
vn 0.7326341 -0.6398427 0.2320529
vn 0.9646122 0.2339416 -0.1216334
vn 0.9646122 0.2339416 -0.1216334
vn 0.9646122 0.2339416 -0.1216334
vn -0.3344654 0.7520261 -0.5679698
vn -0.3344654 0.7520261 -0.5679698
vn -0.3344654 0.7520261 -0.5679698
vn -0.9684075 0.2493729 0
vn -0.9684075 0.2493729 0
vn -0.9684075 0.2493729 0
vn -0.7210957 -0.6862384 -0.09538262
vn -0.7210957 -0.6862384 -0.09538262
vn -0.7210957 -0.6862384 -0.09538262
vn 0.02896702 -0.7712971 -0.6358157
vn 0.02896702 -0.7712971 -0.6358157
vn 0.02896702 -0.7712971 -0.6358157
vn 0.2764103 0.07928944 -0.9577633
vn 0.2764103 0.07928944 -0.9577633
vn 0.2764103 0.07928944 -0.9577633
vn 0.7326341 0.6669674 0.1356532
vn 0.7326341 0.6669674 0.1356532
vn 0.7326341 0.6669674 0.1356532
vn 0.693971 0.7056304 0.1431429
vn 0.693971 0.7056304 0.1431429
vn 0.693971 0.7056304 0.1431429
vn 0.9723448 -0.2300147 0.04048209
vn 0.9723448 -0.2300147 0.04048209
vn 0.9723448 -0.2300147 0.04048209
vn 0.98781 -0.1526887 0.03029094
vn 0.98781 -0.1526887 0.03029094
vn 0.98781 -0.1526887 0.03029094
vn -0.1643481 -0.05989742 0.9845821
vn -0.1643481 -0.05989742 0.9845821
vn -0.1643481 -0.05989742 0.9845821
vn -0.1411504 -0.1140257 0.9833996
vn -0.1411504 -0.1140257 0.9833996
vn -0.1411504 -0.1140257 0.9833996
vn 0.01350176 0.7133631 0.7006646
vn 0.01350176 0.7133631 0.7006646
vn 0.01350176 0.7133631 0.7006646
vn -0.0328939 0.6592349 0.7512172
vn -0.0328939 0.6592349 0.7512172
vn -0.0328939 0.6592349 0.7512172
vn -0.3112676 0.7520261 0.5810071
vn -0.3112676 0.7520261 0.5810071
vn -0.3112676 0.7520261 0.5810071
vn -0.2416742 0.7829565 0.5732127
vn -0.2416742 0.7829565 0.5732127
vn -0.2416742 0.7829565 0.5732127
vn -0.4659197 -0.1294909 0.8753005
vn -0.4659197 -0.1294909 0.8753005
vn -0.4659197 -0.1294909 0.8753005
vn -0.4891175 -0.2145495 0.8454186
vn -0.4891175 -0.2145495 0.8454186
vn -0.4891175 -0.2145495 0.8454186
vn 0.910484 -0.3382712 -0.2378898
vn 0.910484 -0.3382712 -0.2378898
vn 0.910484 -0.3382712 -0.2378898
vn 0.910484 -0.2609451 -0.3208217
vn 0.910484 -0.2609451 -0.3208217
vn 0.910484 -0.2609451 -0.3208217
vn 0.6011798 -0.7944949 -0.0857952
vn 0.6011798 -0.7944949 -0.0857952
vn 0.6011798 -0.7944949 -0.0857952
vn 0.616645 -0.7867623 -0.02746012
vn 0.616645 -0.7867623 -0.02746012
vn 0.616645 -0.7867623 -0.02746012
vn -0.7056304 -0.2764103 0.6524439
vn -0.7056304 -0.2764103 0.6524439
vn -0.7056304 -0.2764103 0.6524439
vn -0.7365609 -0.1990843 0.6464081
vn -0.7365609 -0.1990843 0.6464081
vn -0.7365609 -0.1990843 0.6464081
vn -0.1488829 0.5896415 -0.7938242
vn -0.1488829 0.5896415 -0.7938242
vn -0.1488829 0.5896415 -0.7938242
vn -0.0947547 0.5200479 -0.848865
vn -0.0947547 0.5200479 -0.848865
vn -0.0947547 0.5200479 -0.848865
vn 0.1604213 -0.4001321 -0.9023078
vn 0.1604213 -0.4001321 -0.9023078
vn 0.1604213 -0.4001321 -0.9023078
vn 0.1913517 -0.3382712 -0.9213887
vn 0.1913517 -0.3382712 -0.9213887
vn 0.1913517 -0.3382712 -0.9213887
vn -0.8293521 0.5045828 -0.2399401
vn -0.8293521 0.5045828 -0.2399401
vn -0.8293521 0.5045828 -0.2399401
vn -0.7597587 0.5664436 -0.3192309
vn -0.7597587 0.5664436 -0.3192309
vn -0.7597587 0.5664436 -0.3192309
vn 0.5006559 -0.4310625 -0.7506856
vn 0.5006559 -0.4310625 -0.7506856
vn 0.5006559 -0.4310625 -0.7506856
vn 0.4697255 -0.3460038 -0.8121818
vn 0.4697255 -0.3460038 -0.8121818
vn 0.4697255 -0.3460038 -0.8121818
vn 0.2454799 0.7056304 -0.6646994
vn 0.2454799 0.7056304 -0.6646994
vn 0.2454799 0.7056304 -0.6646994
vn 0.06763005 0.7597587 -0.6466783
vn 0.06763005 0.7597587 -0.6466783
vn 0.06763005 0.7597587 -0.6466783
vn -0.7210957 0.6901653 0.0607692
vn -0.7210957 0.6901653 0.0607692
vn -0.7210957 0.6901653 0.0607692
vn -0.6258723 0.7799256 0
vn -0.6258723 0.7799256 0
vn -0.6258723 0.7799256 0
vn -0.8525499 0.380861 0.3579156
vn -0.8525499 0.380861 0.3579156
vn -0.8525499 0.380861 0.3579156
vn -0.8912129 0.342198 0.2977247
vn -0.8912129 0.342198 0.2977247
vn -0.8912129 0.342198 0.2977247
vn 0.6089123 0.1411504 0.7805782
vn 0.6089123 0.1411504 0.7805782
vn 0.6089123 0.1411504 0.7805782
vn 0.616645 0.1488829 0.7730348
vn 0.616645 0.1488829 0.7730348
vn 0.4001321 -0.6785058 0.6160554
vn 0.4001321 -0.6785058 0.6160554
vn 0.4001321 -0.6785058 0.6160554
vn 0.3846668 -0.6785058 0.6258286
vn 0.1834375 0.9830313 0
vn 0.1834375 0.9830313 0
vn 0.1834375 0.9830313 0
vn 0.1834375 0.9830313 0
vn 0.6089123 0.7674913 -0.2004564
vn 0.6089123 0.7674913 -0.2004564
vn 0.6089123 0.7674913 -0.2004564
vn 0.6321102 0.7520261 -0.1867979
vn -0.5277805 0.4349893 0.7295423
vn -0.5277805 0.4349893 0.7295423
vn -0.5277805 0.4349893 0.7295423
vn -0.5123154 0.442722 0.7358874
vn -0.2726046 -0.6862384 0.6743616
vn -0.2726046 -0.6862384 0.6743616
vn -0.2726046 -0.6862384 0.6743616
vn -0.2494068 -0.6630406 0.7058139
vn 0.8872861 0.2262089 -0.4019364
vn 0.8872861 0.2262089 -0.4019364
vn 0.8872861 0.2262089 -0.4019364
vn 0.8872861 0.2262089 -0.4019364
vn 0.2068169 -0.8795536 0.4285001
vn 0.2068169 -0.8795536 0.4285001
vn 0.2068169 -0.8795536 0.4285001
vn 0.2068169 -0.8795536 0.4285001
vn 0.4155973 0.7674913 -0.4880942
vn 0.4155973 0.7674913 -0.4880942
vn 0.4155973 0.7674913 -0.4880942
vn 0.4155973 0.7674913 -0.4880942
vn -0.5355132 0.7906891 0.2967093
vn -0.5355132 0.7906891 0.2967093
vn -0.5355132 0.7906891 0.2967093
vn -0.5355132 0.7906891 0.2967093
vn -0.001963437 -0.98781 0.1556519
vn -0.001963437 -0.98781 0.1556519
vn -0.001963437 -0.98781 0.1556519
vn -0.001963437 -0.98781 0.1556519
vn 0.7403666 -0.4078646 -0.5343255
vn 0.7403666 -0.4078646 -0.5343255
vn 0.7403666 -0.4078646 -0.5343255
vn 0.7326341 -0.4078646 -0.5448796
vn -0.6128392 -0.1526887 -0.7753156
vn -0.6128392 -0.1526887 -0.7753156
vn -0.6128392 -0.1526887 -0.7753156
vn -0.6205719 -0.1526887 -0.7691402
vn -0.6515023 -0.1372235 -0.746133
vn -0.4040589 -0.8331579 -0.3776034
vn -0.4040589 -0.8331579 -0.3776034
vn -0.4040589 -0.8331579 -0.3776034
vn -0.3963263 -0.8331579 -0.3857115
vn -0.968539 -0.2377473 -0.07354197
vn -0.968539 -0.2377473 -0.07354197
vn -0.968539 -0.2377473 -0.07354197
vn -0.9733496 -0.2293263 0
vn -0.2107438 -0.9723448 -0.1006609
vn -0.2107438 -0.9723448 -0.1006609
vn -0.2107438 -0.9723448 -0.1006609
vn -0.2107438 -0.9723448 -0.1006609
vn 0.2764103 -0.8563557 -0.4361791
vn 0.2764103 -0.8563557 -0.4361791
vn 0.2764103 -0.8563557 -0.4361791
vn 0.2686778 -0.8563557 -0.4409843
vn 0.5238537 0.1411504 -0.840032
vn 0.5238537 0.1411504 -0.840032
vn 0.5238537 0.1411504 -0.840032
vn 0.5547842 0.1411504 -0.8199335
vn -0.1798134 0.8989456 -0.3994547
vn -0.1798134 0.8989456 -0.3994547
vn -0.1798134 0.8989456 -0.3994547
vn -0.1798134 0.8989456 -0.3994547
vn -0.9144108 -0.2300147 0.3330856
vn -0.9144108 -0.2300147 0.3330856
vn -0.9144108 -0.2300147 0.3330856
vn -0.9144108 -0.2222821 0.338295
vn -0.6051066 -0.7558318 0.2501285
vn -0.6051066 -0.7558318 0.2501285
vn -0.6051066 -0.7558318 0.2501285
vn -0.597374 -0.7558318 0.268072
vn -0.001963437 0.9840043 -0.178134
vn -0.001963437 0.9840043 -0.178134
vn -0.001963437 0.9840043 -0.178134
vn -0.001963437 0.9840043 -0.178134
vn -0.7365609 0.4195241 0.5305446
vn -0.7365609 0.4195241 0.5305446
vn -0.7365609 0.4195241 0.5305446
vn -0.7365609 0.4195241 0.5305446
vn -0.4504545 -0.7326341 0.5102333
vn -0.4504545 -0.7326341 0.5102333
vn -0.4504545 -0.7326341 0.5102333
vn -0.442722 -0.7403666 0.5058207
vn 0.4697255 -0.8563557 -0.214506
vn 0.4697255 -0.8563557 -0.214506
vn 0.4697255 -0.8563557 -0.214506
vn 0.4697255 -0.8563557 -0.214506
vn 0.7403666 0.1952785 -0.6432135
vn 0.7403666 0.1952785 -0.6432135
vn 0.7403666 0.1952785 -0.6432135
vn 0.7403666 0.1952785 -0.6432135
g Stone_12_0
f 3/3/3 2/2/2 1/1/1
f 6/6/6 5/5/5 4/4/4
f 9/9/9 8/8/8 7/7/7
f 12/12/12 11/11/11 10/10/10
f 15/15/15 14/14/14 13/13/13
f 18/18/18 17/17/17 16/16/16
f 21/21/21 20/20/20 19/19/19
f 24/24/24 23/23/23 22/22/22
f 27/27/27 26/26/26 25/25/25
f 30/30/30 29/29/29 28/28/28
f 33/33/33 32/32/32 31/31/31
f 36/36/36 35/35/35 34/34/34
f 39/39/39 38/38/38 37/37/37
f 42/42/42 41/41/41 40/40/40
f 45/45/45 44/44/44 43/43/43
f 48/48/48 47/47/47 46/46/46
f 51/51/51 50/50/50 49/49/49
f 54/54/54 53/53/53 52/52/52
f 57/57/57 56/56/56 55/55/55
f 60/60/60 59/59/59 58/58/58
f 63/63/63 62/62/62 61/61/61
f 66/66/66 65/65/65 64/64/64
f 69/69/69 68/68/68 67/67/67
f 72/72/72 71/71/71 70/70/70
f 75/75/75 74/74/74 73/73/73
f 78/78/78 77/77/77 76/76/76
f 81/81/81 80/80/80 79/79/79
f 84/84/84 83/83/83 82/82/82
f 87/87/87 86/86/86 85/85/85
f 90/90/90 89/89/89 88/88/88
f 93/93/93 92/92/92 91/91/91
f 96/96/96 95/95/95 94/94/94
f 99/99/99 98/98/98 97/97/97
f 102/102/102 101/101/101 100/100/100
f 105/105/105 104/104/104 103/103/103
f 108/108/108 107/107/107 106/106/106
f 111/111/111 110/110/110 109/109/109
f 114/114/114 113/113/113 112/112/112
f 117/117/117 116/116/116 115/115/115
f 120/120/120 119/119/119 118/118/118
f 123/123/123 122/122/122 121/121/121
f 126/126/126 125/125/125 124/124/124
f 129/129/129 128/128/128 127/127/127
f 130/130/130 128/128/128 129/129/129
f 129/129/129 131/131/131 130/130/130
f 134/134/134 133/133/133 132/132/132
f 135/135/135 133/133/133 134/134/134
f 138/138/138 137/137/137 136/136/136
f 139/139/139 136/136/136 137/137/137
f 142/142/142 141/141/141 140/140/140
f 143/143/143 142/142/142 140/140/140
f 146/146/146 145/145/145 144/144/144
f 147/147/147 145/145/145 146/146/146
f 150/150/150 149/149/149 148/148/148
f 151/151/151 149/149/149 150/150/150
f 154/154/154 153/153/153 152/152/152
f 155/155/155 153/153/153 154/154/154
f 158/158/158 157/157/157 156/156/156
f 159/159/159 157/157/157 158/158/158
f 162/162/162 161/161/161 160/160/160
f 163/163/163 161/161/161 162/162/162
f 166/166/166 165/165/165 164/164/164
f 167/167/167 165/165/165 166/166/166
f 170/170/170 169/169/169 168/168/168
f 171/171/171 169/169/169 170/170/170
f 174/174/174 173/173/173 172/172/172
f 175/175/175 173/173/173 174/174/174
f 178/178/178 177/177/177 176/176/176
f 179/179/179 176/176/176 177/177/177
f 180/180/180 176/176/176 179/179/179
f 183/183/183 182/182/182 181/181/181
f 184/184/184 182/182/182 183/183/183
f 187/187/187 186/186/186 185/185/185
f 188/188/188 186/186/186 187/187/187
f 191/191/191 190/190/190 189/189/189
f 190/190/190 192/192/192 189/189/189
f 195/195/195 194/194/194 193/193/193
f 196/196/196 194/194/194 195/195/195
f 199/199/199 198/198/198 197/197/197
f 200/200/200 198/198/198 199/199/199
f 203/203/203 202/202/202 201/201/201
f 204/204/204 202/202/202 203/203/203
f 207/207/207 206/206/206 205/205/205
f 208/208/208 206/206/206 207/207/207
f 211/211/211 210/210/210 209/209/209
f 212/212/212 210/210/210 211/211/211
f 215/215/215 214/214/214 213/213/213
f 215/215/215 216/216/216 214/214/214
f 219/219/219 218/218/218 217/217/217
f 219/219/219 220/220/220 218/218/218
f 223/223/223 222/222/222 221/221/221
f 223/223/223 224/224/224 222/222/222
f 227/227/227 226/226/226 225/225/225
f 227/227/227 228/228/228 226/226/226
f 231/231/231 230/230/230 229/229/229
f 231/231/231 232/232/232 230/230/230
