g Stone_19
v 0.01839248 -0.06972136 0.05009221
v -0.02307758 -0.01866687 0.08665867
v 0.04989506 -0.008590713 0.07726169
v 0.08327214 -0.03486369 0.002259687
v 0.02966669 -0.07141385 0.04106197
v 0.06126163 -0.01023974 0.06846237
v 0.07900696 0.05167603 0.01238202
v 0.08811054 -0.02203012 -0.0006335676
v 0.06604841 0.002406389 0.0654849
v 0.01292381 0.07019562 0.0656479
v 0.07120195 0.06126317 0.01916828
v 0.05829774 0.01190117 0.07240698
v -0.02481353 -0.004822686 0.08901946
v 0.002782464 0.06329525 0.07290956
v 0.04815639 0.005142085 0.07964149
v -0.08697924 -0.005012855 -0.03023991
v -0.05831559 -0.03950649 -0.05512466
v -0.06858191 0.004998095 -0.07537477
v -0.05082299 -0.04066108 -0.06118285
v -0.01540568 -0.01590129 -0.08688261
v -0.06103769 0.003865242 -0.08131342
v -0.01183869 -0.007297575 -0.08901791
v -0.01716065 0.042385 -0.08067229
v -0.0574218 0.01237931 -0.08331018
v -0.02338728 0.04899195 -0.07560025
v -0.06182553 0.05493876 -0.04464644
v -0.06262423 0.01882598 -0.07879778
v -0.06891063 0.05028781 -0.03956082
v -0.08810937 0.004302628 -0.02860447
v -0.06863353 0.01414786 -0.07417671
v -0.02307758 -0.01866687 0.08665867
v -0.03838876 -0.0187701 0.08052713
v -0.03901088 -0.005352437 0.08261625
v 0.08811054 -0.02203012 -0.0006335676
v 0.07900696 0.05167603 0.01238202
v 0.08324769 -0.02394809 -0.01470324
v 0.08324769 -0.02394809 -0.01470324
v 0.07900696 0.05167603 0.01238202
v 0.07393493 0.05795971 -0.0006797537
v -0.02307758 -0.01866687 0.08665867
v -0.03901088 -0.005352437 0.08261625
v -0.02481353 -0.004822686 0.08901946
v 0.06608373 0.06730235 0.006033152
v 0.07393493 0.05795971 -0.0006797537
v 0.07120195 0.06126317 0.01916828
v 0.07120195 0.06126317 0.01916828
v 0.07393493 0.05795971 -0.0006797537
v 0.07900696 0.05167603 0.01238202
v -0.03838876 -0.0187701 0.08052713
v -0.08450706 -0.007370926 -0.01802573
v -0.03901088 -0.005352437 0.08261625
v -0.03901088 -0.005352437 0.08261625
v -0.08450706 -0.007370926 -0.01802573
v -0.08557743 0.002273269 -0.01632781
v -0.08697924 -0.005012855 -0.03023991
v -0.06858191 0.004998095 -0.07537477
v -0.08810937 0.004302628 -0.02860447
v -0.08810937 0.004302628 -0.02860447
v -0.06858191 0.004998095 -0.07537477
v -0.06863353 0.01414786 -0.07417671
v -0.06858191 0.004998095 -0.07537477
v -0.06262423 0.01882598 -0.07879778
v -0.06863353 0.01414786 -0.07417671
v -0.06262423 0.01882598 -0.07879778
v -0.06182553 0.05493876 -0.04464644
v -0.06863353 0.01414786 -0.07417671
v -0.06863353 0.01414786 -0.07417671
v -0.06182553 0.05493876 -0.04464644
v -0.06891063 0.05028781 -0.03956082
v -0.01716065 0.042385 -0.08067229
v -0.01076832 0.05398248 -0.0707211
v -0.02338728 0.04899195 -0.07560025
v -0.06393911 0.05625634 -0.02895764
v -0.08557743 0.002273269 -0.01632781
v -0.06891063 0.05028781 -0.03956082
v -0.06891063 0.05028781 -0.03956082
v -0.08557743 0.002273269 -0.01632781
v -0.08810937 0.004302628 -0.02860447
v -0.08450706 -0.007370926 -0.01802573
v -0.05165701 -0.0478168 -0.04692302
v -0.08697924 -0.005012855 -0.03023991
v -0.08697924 -0.005012855 -0.03023991
v -0.05165701 -0.0478168 -0.04692302
v -0.05831559 -0.03950649 -0.05512466
v 0.00190226 -0.01112266 -0.085872
v -0.005718015 0.04724784 -0.0755432
v -0.01183869 -0.007297575 -0.08901791
v -0.01183869 -0.007297575 -0.08901791
v -0.005718015 0.04724784 -0.0755432
v -0.01716065 0.042385 -0.08067229
v -0.01716065 0.042385 -0.08067229
v -0.005718015 0.04724784 -0.0755432
v -0.01076832 0.05398248 -0.0707211
v -0.02481353 -0.004822686 0.08901946
v 0.04815639 0.005142085 0.07964149
v -0.02307758 -0.01866687 0.08665867
v 0.04989506 -0.008590713 0.07726169
v 0.04815639 0.005142085 0.07964149
v 0.05829774 0.01190117 0.07240698
v 0.04989506 -0.008590713 0.07726169
v 0.06126163 -0.01023974 0.06846237
v 0.06604841 0.002406389 0.0654849
v 0.06604841 0.002406389 0.0654849
v 0.08811054 -0.02203012 -0.0006335676
v 0.06126163 -0.01023974 0.06846237
v 0.08327214 -0.03486369 0.002259687
v 0.04815639 0.005142085 0.07964149
v 0.002782464 0.06329525 0.07290956
v 0.05829774 0.01190117 0.07240698
v 0.01292381 0.07019562 0.0656479
v 0.06126163 -0.01023974 0.06846237
v 0.02966669 -0.07141385 0.04106197
v 0.04989506 -0.008590713 0.07726169
v 0.01839248 -0.06972136 0.05009221
v 0.05829774 0.01190117 0.07240698
v 0.07120195 0.06126317 0.01916828
v 0.06604841 0.002406389 0.0654849
v 0.07900696 0.05167603 0.01238202
v 0.01839248 -0.06972136 0.05009221
v -0.03838876 -0.0187701 0.08052713
v -0.02307758 -0.01866687 0.08665867
v 0.008441299 -0.07560025 0.0396819
v 0.01839248 -0.06972136 0.05009221
v 0.02966669 -0.07141385 0.04106197
v 0.008441299 -0.07560025 0.0396819
v 0.01873478 -0.07716777 0.03133627
v 0.02966669 -0.07141385 0.04106197
v 0.08327214 -0.03486369 0.002259687
v 0.01873478 -0.07716777 0.03133627
v 0.07841201 -0.03650185 -0.01186431
v 0.08327214 -0.03486369 0.002259687
v 0.08811054 -0.02203012 -0.0006335676
v 0.07841201 -0.03650185 -0.01186431
v 0.08324769 -0.02394809 -0.01470324
v -0.03901088 -0.005352437 0.08261625
v -0.008967161 0.070489 0.06488179
v -0.02481353 -0.004822686 0.08901946
v 0.002782464 0.06329525 0.07290956
v -0.008967161 0.070489 0.06488179
v 0.001179621 0.0771666 0.05766086
v 0.002782464 0.06329525 0.07290956
v 0.01292381 0.07019562 0.0656479
v 0.001179621 0.0771666 0.05766086
v 0.06608373 0.06730235 0.006033152
v 0.01292381 0.07019562 0.0656479
v 0.07120195 0.06126317 0.01916828
v 0.01873478 -0.07716777 0.03133627
v -0.04416171 -0.04902844 -0.05296762
v 0.008441299 -0.07560025 0.0396819
v -0.05165701 -0.0478168 -0.04692302
v 0.08324769 -0.02394809 -0.01470324
v 0.00190226 -0.01112266 -0.085872
v 0.07841201 -0.03650185 -0.01186431
v -0.001716353 -0.02007954 -0.08379102
v 0.06608373 0.06730235 0.006033152
v -0.01076832 0.05398248 -0.0707211
v 0.07393493 0.05795971 -0.0006797537
v -0.005718015 0.04724784 -0.0755432
v -0.008967161 0.070489 0.06488179
v -0.06393911 0.05625634 -0.02895764
v 0.001179621 0.0771666 0.05766086
v -0.0568513 0.06102139 -0.03406499
v -0.05082299 -0.04066108 -0.06118285
v -0.06103769 0.003865242 -0.08131342
v -0.05831559 -0.03950649 -0.05512466
v -0.06858191 0.004998095 -0.07537477
v -0.06858191 0.004998095 -0.07537477
v -0.06103769 0.003865242 -0.08131342
v -0.06262423 0.01882598 -0.07879778
v -0.0574218 0.01237931 -0.08331018
v -0.0574218 0.01237931 -0.08331018
v -0.01716065 0.042385 -0.08067229
v -0.06262423 0.01882598 -0.07879778
v -0.02338728 0.04899195 -0.07560025
v -0.06103769 0.003865242 -0.08131342
v -0.01540568 -0.01590129 -0.08688261
v -0.0574218 0.01237931 -0.08331018
v -0.01183869 -0.007297575 -0.08901791
v -0.01076832 0.05398248 -0.0707211
v -0.0568513 0.06102139 -0.03406499
v -0.02338728 0.04899195 -0.07560025
v -0.06182553 0.05493876 -0.04464644
v -0.0568513 0.06102139 -0.03406499
v -0.06393911 0.05625634 -0.02895764
v -0.06182553 0.05493876 -0.04464644
v -0.06891063 0.05028781 -0.03956082
v -0.08557743 0.002273269 -0.01632781
v -0.08450706 -0.007370926 -0.01802573
v -0.08810937 0.004302628 -0.02860447
v -0.08697924 -0.005012855 -0.03023991
v -0.05165701 -0.0478168 -0.04692302
v -0.04416171 -0.04902844 -0.05296762
v -0.05831559 -0.03950649 -0.05512466
v -0.05082299 -0.04066108 -0.06118285
v -0.04416171 -0.04902844 -0.05296762
v -0.001716353 -0.02007954 -0.08379102
v -0.05082299 -0.04066108 -0.06118285
v -0.01540568 -0.01590129 -0.08688261
v -0.001716353 -0.02007954 -0.08379102
v 0.00190226 -0.01112266 -0.085872
v -0.01540568 -0.01590129 -0.08688261
v -0.01183869 -0.007297575 -0.08901791
v 0.008441299 -0.07560025 0.0396819
v -0.05165701 -0.0478168 -0.04692302
v -0.03838876 -0.0187701 0.08052713
v -0.08450706 -0.007370926 -0.01802573
v 0.07841201 -0.03650185 -0.01186431
v -0.001716353 -0.02007954 -0.08379102
v 0.01873478 -0.07716777 0.03133627
v -0.04416171 -0.04902844 -0.05296762
v 0.07393493 0.05795971 -0.0006797537
v -0.005718015 0.04724784 -0.0755432
v 0.08324769 -0.02394809 -0.01470324
v 0.00190226 -0.01112266 -0.085872
v 0.001179621 0.0771666 0.05766086
v -0.0568513 0.06102139 -0.03406499
v 0.06608373 0.06730235 0.006033152
v -0.01076832 0.05398248 -0.0707211
v -0.03901088 -0.005352437 0.08261625
v -0.08557743 0.002273269 -0.01632781
v -0.008967161 0.070489 0.06488179
v -0.06393911 0.05625634 -0.02895764
vt -10955.59 1496.825
vt -10965.52 1518.667
vt -10948.05 1522.976
vt -10940.07 1511.736
vt -10952.9 1496.101
vt -10945.33 1522.271
vt -10941.09 1548.758
vt -10938.91 1517.227
vt -10944.19 1527.679
vt -10956.9 1556.68
vt -10942.96 1552.858
vt -10946.04 1531.742
vt -10965.93 1524.587
vt -10959.33 1553.729
vt -10948.47 1528.851
vt -10980.81 1524.505
vt -10973.95 1509.751
vt -10976.41 1528.788
vt -10972.16 1509.258
vt -10963.68 1519.85
vt -10974.6 1528.304
vt -10962.83 1523.53
vt -10964.1 1544.781
vt -10973.74 1531.945
vt -10965.59 1547.61
vt -10974.79 1550.154
vt -10974.98 1534.705
vt -10976.49 1548.164
vt -10981.08 1528.492
vt -10976.42 1532.703
vt -10965.52 1518.667
vt -10969.18 1518.622
vt -10969.33 1524.361
vt -10938.91 1517.227
vt -10941.09 1548.758
vt -10940.07 1516.408
vt -10940.07 1516.408
vt -10941.09 1548.758
vt -10942.3 1551.444
vt -10965.52 1518.667
vt -10969.33 1524.361
vt -10965.93 1524.587
vt -10944.18 1555.44
vt -10942.3 1551.444
vt -10942.96 1552.858
vt -10942.96 1552.858
vt -10942.3 1551.444
vt -10941.09 1548.758
vt -10969.18 1518.622
vt -10980.22 1523.497
vt -10969.33 1524.361
vt -10969.33 1524.361
vt -10980.22 1523.497
vt -10980.48 1527.622
vt -10980.81 1524.505
vt -10976.41 1528.788
vt -10981.08 1528.492
vt -10981.08 1528.492
vt -10976.41 1528.788
vt -10976.42 1532.703
vt -10976.41 1528.788
vt -10974.98 1534.705
vt -10976.42 1532.703
vt -10974.98 1534.705
vt -10974.79 1550.154
vt -10976.42 1532.703
vt -10976.42 1532.703
vt -10974.79 1550.154
vt -10976.49 1548.164
vt -10964.1 1544.781
vt -10962.57 1549.743
vt -10965.59 1547.61
vt -10975.3 1550.718
vt -10980.48 1527.622
vt -10976.49 1548.164
vt -10976.49 1548.164
vt -10980.48 1527.622
vt -10981.08 1528.492
vt -10980.22 1523.497
vt -10972.36 1506.194
vt -10980.81 1524.505
vt -10980.81 1524.505
vt -10972.36 1506.194
vt -10973.95 1509.751
vt -10959.54 1521.895
vt -10961.36 1546.862
vt -10962.83 1523.53
vt -10962.83 1523.53
vt -10961.36 1546.862
vt -10964.1 1544.781
vt -10964.1 1544.781
vt -10961.36 1546.862
vt -10962.57 1549.743
vt -10965.93 1524.587
vt -10948.47 1528.851
vt -10965.52 1518.667
vt -10948.05 1522.976
vt -10948.47 1528.851
vt -10946.04 1531.742
vt -10948.05 1522.976
vt -10945.33 1522.271
vt -10944.19 1527.679
vt -10944.19 1527.679
vt -10938.91 1517.227
vt -10945.33 1522.271
vt -10940.07 1511.736
vt -10948.47 1528.851
vt -10959.33 1553.729
vt -10946.04 1531.742
vt -10956.9 1556.68
vt -10945.33 1522.271
vt -10952.9 1496.101
vt -10948.05 1522.976
vt -10955.59 1496.825
vt -10946.04 1531.742
vt -10942.96 1552.858
vt -10944.19 1527.679
vt -10941.09 1548.758
vt -10955.59 1496.825
vt -10969.18 1518.622
vt -10965.52 1518.667
vt -10957.98 1494.313
vt -10955.59 1496.825
vt -10952.9 1496.101
vt -10957.98 1494.313
vt -10955.51 1493.64
vt -10952.9 1496.101
vt -10940.07 1511.736
vt -10955.51 1493.64
vt -10941.23 1511.038
vt -10940.07 1511.736
vt -10938.91 1517.227
vt -10941.23 1511.038
vt -10940.07 1516.408
vt -10969.33 1524.361
vt -10962.14 1556.804
vt -10965.93 1524.587
vt -10959.33 1553.729
vt -10962.14 1556.804
vt -10959.71 1559.66
vt -10959.33 1553.729
vt -10956.9 1556.68
vt -10959.71 1559.66
vt -10944.18 1555.44
vt -10956.9 1556.68
vt -10942.96 1552.858
vt -10955.51 1493.64
vt -10970.57 1505.679
vt -10957.98 1494.313
vt -10972.36 1506.194
vt -10940.07 1516.408
vt -10959.54 1521.895
vt -10941.23 1511.038
vt -10960.41 1518.062
vt -10944.18 1555.44
vt -10962.57 1549.743
vt -10942.3 1551.444
vt -10961.36 1546.862
vt -10962.14 1556.804
vt -10975.3 1550.718
vt -10959.71 1559.66
vt -10973.6 1552.754
vt -10972.16 1509.258
vt -10974.6 1528.304
vt -10973.95 1509.751
vt -10976.41 1528.788
vt -10976.41 1528.788
vt -10974.6 1528.304
vt -10974.98 1534.705
vt -10973.74 1531.945
vt -10973.74 1531.945
vt -10964.1 1544.781
vt -10974.98 1534.705
vt -10965.59 1547.61
vt -10974.6 1528.304
vt -10963.68 1519.85
vt -10973.74 1531.945
vt -10962.83 1523.53
vt -10962.57 1549.743
vt -10973.6 1552.754
vt -10965.59 1547.61
vt -10974.79 1550.154
vt -10973.6 1552.754
vt -10975.3 1550.718
vt -10974.79 1550.154
vt -10976.49 1548.164
vt -10980.48 1527.622
vt -10980.22 1523.497
vt -10981.08 1528.492
vt -10980.81 1524.505
vt -10972.36 1506.194
vt -10970.57 1505.679
vt -10973.95 1509.751
vt -10972.16 1509.258
vt -10970.57 1505.679
vt -10960.41 1518.062
vt -10972.16 1509.258
vt -10963.68 1519.85
vt -10960.41 1518.062
vt -10959.54 1521.895
vt -10963.68 1519.85
vt -10962.83 1523.53
vt -10957.98 1494.313
vt -10972.36 1506.194
vt -10969.18 1518.622
vt -10980.22 1523.497
vt -10941.23 1511.038
vt -10960.41 1518.062
vt -10955.51 1493.64
vt -10970.57 1505.679
vt -10942.3 1551.444
vt -10961.36 1546.862
vt -10940.07 1516.408
vt -10959.54 1521.895
vt -10959.71 1559.66
vt -10973.6 1552.754
vt -10944.18 1555.44
vt -10962.57 1549.743
vt -10969.33 1524.361
vt -10980.48 1527.622
vt -10962.14 1556.804
vt -10975.3 1550.718
vn 0.1739492 -0.4710465 0.8647872
vn 0.1739492 -0.4710465 0.8647872
vn 0.1739492 -0.4710465 0.8647872
vn 0.6995829 -0.5624611 0.4407054
vn 0.6995829 -0.5624611 0.4407054
vn 0.6995829 -0.5624611 0.4407054
vn 0.950973 0.06220514 0.3029535
vn 0.950973 0.06220514 0.3029535
vn 0.950973 0.06220514 0.3029535
vn 0.5776969 0.5268959 0.6234156
vn 0.5776969 0.5268959 0.6234156
vn 0.5776969 0.5268959 0.6234156
vn 0.09777033 0.1917091 0.9765698
vn 0.09777033 0.1917091 0.9765698
vn 0.09777033 0.1917091 0.9765698
vn -0.8239933 -0.3796319 -0.4206123
vn -0.8239933 -0.3796319 -0.4206123
vn -0.8239933 -0.3796319 -0.4206123
vn -0.2983595 -0.4481929 -0.8426771
vn -0.2983595 -0.4481929 -0.8426771
vn -0.2983595 -0.4481929 -0.8426771
vn -0.0545873 0.1612377 -0.9854048
vn -0.0545873 0.1612377 -0.9854048
vn -0.0545873 0.1612377 -0.9854048
vn -0.4278634 0.6259283 -0.6520327
vn -0.4278634 0.6259283 -0.6520327
vn -0.4278634 0.6259283 -0.6520327
vn -0.9001721 0.2983595 -0.3172884
vn -0.9001721 0.2983595 -0.3172884
vn -0.9001721 0.2983595 -0.3172884
vn -0.3669204 -0.1587134 0.916613
vn -0.3669204 -0.1587134 0.916613
vn -0.3669204 -0.1587134 0.916613
vn 0.9205015 0.1764734 -0.3486174
vn 0.9205015 0.1764734 -0.3486174
vn 0.9205015 0.1764734 -0.3486174
vn 0.9433551 0.1536197 -0.2940783
vn 0.9433551 0.1536197 -0.2940783
vn 0.9433551 0.1536197 -0.2940783
vn -0.397392 -0.2044207 0.8945903
vn -0.397392 -0.2044207 0.8945903
vn -0.397392 -0.2044207 0.8945903
vn 0.7677077 0.6408001 0
vn 0.7677077 0.6408001 0
vn 0.7677077 0.6408001 0
vn 0.7745285 0.6325391 0
vn 0.7745285 0.6325391 0
vn 0.7745285 0.6325391 0
vn -0.90779 -0.1053882 0.4059688
vn -0.90779 -0.1053882 0.4059688
vn -0.90779 -0.1053882 0.4059688
vn -0.9001721 -0.1739492 0.3992893
vn -0.9001721 -0.1739492 0.3992893
vn -0.9001721 -0.1739492 0.3992893
vn -0.9230258 -0.04444516 -0.3821623
vn -0.9230258 -0.04444516 -0.3821623
vn -0.9230258 -0.04444516 -0.3821623
vn -0.9230258 0.04696935 -0.3818603
vn -0.9230258 0.04696935 -0.3818603
vn -0.9230258 0.04696935 -0.3818603
vn -0.6487821 0.0926767 -0.7553098
vn -0.6487821 0.0926767 -0.7553098
vn -0.6487821 0.0926767 -0.7553098
vn -0.7401966 0.4735708 -0.4773255
vn -0.7401966 0.4735708 -0.4773255
vn -0.7401966 0.4735708 -0.4773255
vn -0.6944893 0.4964244 -0.5208142
vn -0.6944893 0.4964244 -0.5208142
vn -0.6944893 0.4964244 -0.5208142
vn 0.04444516 0.6335463 -0.7724272
vn 0.04444516 0.6335463 -0.7724272
vn 0.04444516 0.6335463 -0.7724272
vn -0.8925542 0.4050098 0.1982777
vn -0.8925542 0.4050098 0.1982777
vn -0.8925542 0.4050098 0.1982777
vn -0.8697006 0.4202456 0.2588716
vn -0.8697006 0.4202456 0.2588716
vn -0.8697006 0.4202456 0.2588716
vn -0.7630503 -0.6462578 0.01025681
vn -0.7630503 -0.6462578 0.01025681
vn -0.7630503 -0.6462578 0.01025681
vn -0.7706681 -0.631022 -0.08878012
vn -0.7706681 -0.631022 -0.08878012
vn -0.7706681 -0.631022 -0.08878012
vn 0.2729816 0.1993271 -0.9411428
vn 0.2729816 0.1993271 -0.9411428
vn 0.2729816 0.1993271 -0.9411428
vn 0.3339247 0.1917091 -0.9228987
vn 0.3339247 0.1917091 -0.9228987
vn 0.3339247 0.1917091 -0.9228987
vn 0.08253461 0.6183105 -0.7815882
vn 0.08253461 0.6183105 -0.7815882
vn 0.08253461 0.6183105 -0.7815882
vn 0.1434776 -0.1510955 0.9780513
vn 0.1434776 -0.1510955 0.9780513
vn 0.1434776 -0.1510955 0.9780513
vn 0.1434776 -0.1510955 0.9780513
vn 0.6081684 -0.05968094 0.7915614
vn 0.6081684 -0.05968094 0.7915614
vn 0.6081684 -0.05968094 0.7915614
vn 0.6081684 -0.05968094 0.7915614
vn 0.6234041 -0.05206305 0.7801645
vn 0.89003 -0.2425101 0.386051
vn 0.89003 -0.2425101 0.386051
vn 0.89003 -0.2425101 0.386051
vn 0.89003 -0.250128 0.3811595
vn 0.3567783 0.3745382 0.8558214
vn 0.3567783 0.3745382 0.8558214
vn 0.3567783 0.3745382 0.8558214
vn 0.3567783 0.3745382 0.8558214
vn 0.4634286 -0.5472254 0.696978
vn 0.4634286 -0.5472254 0.696978
vn 0.4634286 -0.5472254 0.696978
vn 0.4710465 -0.5472254 0.6918523
vn 0.8138512 0.3135952 0.4891874
vn 0.8138512 0.3135952 0.4891874
vn 0.8138512 0.3135952 0.4891874
vn 0.8138512 0.3135952 0.4891874
vn -0.2602701 -0.6919651 0.6733823
vn -0.2602701 -0.6919651 0.6733823
vn -0.2602701 -0.6919651 0.6733823
vn -0.2755058 -0.6995829 0.6593028
vn 0.1587134 -0.9128836 0.376103
vn 0.1587134 -0.9128836 0.376103
vn 0.1587134 -0.9128836 0.376103
vn 0.1587134 -0.9205015 0.3570532
vn 0.5167538 -0.8519406 -0.08463338
vn 0.5167538 -0.8519406 -0.08463338
vn 0.5167538 -0.8519406 -0.08463338
vn 0.5241703 -0.8516135 0
vn 0.8824121 -0.3948677 -0.2557896
vn 0.8824121 -0.3948677 -0.2557896
vn 0.8824121 -0.3948677 -0.2557896
vn 0.8824121 -0.3948677 -0.2557896
vn -0.397392 0.3516846 0.8475834
vn -0.397392 0.3516846 0.8475834
vn -0.397392 0.3516846 0.8475834
vn -0.3669204 0.3516846 0.8612127
vn -0.008880019 0.7401966 0.6723318
vn -0.008880019 0.7401966 0.6723318
vn -0.008880019 0.7401966 0.6723318
vn -0.01649785 0.7401966 0.672188
vn 0.3491604 0.9001721 0.2603407
vn 0.3491604 0.9001721 0.2603407
vn 0.3491604 0.9001721 0.2603407
vn 0.3567783 0.8925542 0.2757829
vn -0.2526522 -0.9585909 -0.1314166
vn -0.2526522 -0.9585909 -0.1314166
vn -0.2526522 -0.9585909 -0.1314166
vn -0.2602701 -0.9585909 -0.1155982
vn 0.570079 -0.3872498 -0.7246016
vn 0.570079 -0.3872498 -0.7246016
vn 0.570079 -0.3872498 -0.7246016
vn 0.570079 -0.3948677 -0.7204787
vn 0.4101035 0.7325787 -0.5432712
vn 0.4101035 0.7325787 -0.5432712
vn 0.4101035 0.7325787 -0.5432712
vn 0.4253392 0.7173429 -0.5518203
vn -0.4735708 0.8697006 0.13911
vn -0.4735708 0.8697006 0.13911
vn -0.4735708 0.8697006 0.13911
vn -0.4735708 0.8697006 0.13911
vn -0.6030747 -0.440575 -0.6649771
vn -0.6030747 -0.440575 -0.6649771
vn -0.6030747 -0.440575 -0.6649771
vn -0.5954569 -0.440575 -0.6718071
vn -0.6106926 0.06982309 -0.7887834
vn -0.6106926 0.06982309 -0.7887834
vn -0.6106926 0.06982309 -0.7887834
vn -0.6030747 0.06982309 -0.794623
vn -0.2526522 0.4126278 -0.8751601
vn -0.2526522 0.4126278 -0.8751601
vn -0.2526522 0.4126278 -0.8751601
vn -0.2526522 0.4278634 -0.8678132
vn -0.1840913 -0.1510955 -0.9712263
vn -0.1840913 -0.1510955 -0.9712263
vn -0.1840913 -0.1510955 -0.9712263
vn -0.1917091 -0.1587134 -0.9685338
vn -0.1917091 0.8925542 -0.40816
vn -0.1917091 0.8925542 -0.40816
vn -0.1917091 0.8925542 -0.40816
vn -0.1993271 0.8849364 -0.4208994
vn -0.6259283 0.7706681 -0.1195175
vn -0.6259283 0.7706681 -0.1195175
vn -0.6259283 0.7706681 -0.1195175
vn -0.6183105 0.778286 -0.1093753
vn -0.976351 -0.1358597 0.1681694
vn -0.976351 -0.1358597 0.1681694
vn -0.976351 -0.1358597 0.1681694
vn -0.976351 -0.1510955 0.1546252
vn -0.4659528 -0.7833797 -0.4113445
vn -0.4659528 -0.7833797 -0.4113445
vn -0.4659528 -0.7833797 -0.4113445
vn -0.458335 -0.7833797 -0.4198158
vn -0.02411574 -0.7072009 -0.7066013
vn -0.02411574 -0.7072009 -0.7066013
vn -0.02411574 -0.7072009 -0.7066013
vn -0.04696935 -0.6843472 -0.7276419
vn 0.1282419 -0.2729816 -0.9534333
vn 0.1282419 -0.2729816 -0.9534333
vn 0.1282419 -0.2729816 -0.9534333
vn 0.1358597 -0.2882174 -0.9478781
vn -0.6640177 -0.7148187 0.2193505
vn -0.6640177 -0.7148187 0.2193505
vn -0.6640177 -0.7148187 0.2193505
vn -0.6716357 -0.7072009 0.2208447
vn 0.2425101 -0.8519406 -0.4640971
vn 0.2425101 -0.8519406 -0.4640971
vn 0.2425101 -0.8519406 -0.4640971
vn 0.2425101 -0.8519406 -0.4640971
vn 0.6538757 0.1993271 -0.7298735
vn 0.6538757 0.1993271 -0.7298735
vn 0.6538757 0.1993271 -0.7298735
vn 0.6614935 0.2145628 -0.7186022
vn 0.006355762 0.9839688 -0.1782273
vn 0.006355762 0.9839688 -0.1782273
vn 0.006355762 0.9839688 -0.1782273
vn 0.006355762 0.9839688 -0.1782273
vn -0.8087575 0.4202456 0.4114668
vn -0.8087575 0.4202456 0.4114668
vn -0.8087575 0.4202456 0.4114668
vn -0.8087575 0.4202456 0.4114668
g Stone_19_0
f 3/3/3 2/2/2 1/1/1
f 6/6/6 5/5/5 4/4/4
f 9/9/9 8/8/8 7/7/7
f 12/12/12 11/11/11 10/10/10
f 15/15/15 14/14/14 13/13/13
f 18/18/18 17/17/17 16/16/16
f 21/21/21 20/20/20 19/19/19
f 24/24/24 23/23/23 22/22/22
f 27/27/27 26/26/26 25/25/25
f 30/30/30 29/29/29 28/28/28
f 33/33/33 32/32/32 31/31/31
f 36/36/36 35/35/35 34/34/34
f 39/39/39 38/38/38 37/37/37
f 42/42/42 41/41/41 40/40/40
f 45/45/45 44/44/44 43/43/43
f 48/48/48 47/47/47 46/46/46
f 51/51/51 50/50/50 49/49/49
f 54/54/54 53/53/53 52/52/52
f 57/57/57 56/56/56 55/55/55
f 60/60/60 59/59/59 58/58/58
f 63/63/63 62/62/62 61/61/61
f 66/66/66 65/65/65 64/64/64
f 69/69/69 68/68/68 67/67/67
f 72/72/72 71/71/71 70/70/70
f 75/75/75 74/74/74 73/73/73
f 78/78/78 77/77/77 76/76/76
f 81/81/81 80/80/80 79/79/79
f 84/84/84 83/83/83 82/82/82
f 87/87/87 86/86/86 85/85/85
f 90/90/90 89/89/89 88/88/88
f 93/93/93 92/92/92 91/91/91
f 96/96/96 95/95/95 94/94/94
f 97/97/97 95/95/95 96/96/96
f 100/100/100 99/99/99 98/98/98
f 101/101/101 99/99/99 100/100/100
f 101/101/101 102/102/102 99/99/99
f 105/105/105 104/104/104 103/103/103
f 106/106/106 104/104/104 105/105/105
f 109/109/109 108/108/108 107/107/107
f 110/110/110 108/108/108 109/109/109
f 113/113/113 112/112/112 111/111/111
f 114/114/114 112/112/112 113/113/113
f 117/117/117 116/116/116 115/115/115
f 118/118/118 116/116/116 117/117/117
f 121/121/121 120/120/120 119/119/119
f 122/122/122 119/119/119 120/120/120
f 125/125/125 124/124/124 123/123/123
f 126/126/126 124/124/124 125/125/125
f 129/129/129 128/128/128 127/127/127
f 130/130/130 128/128/128 129/129/129
f 133/133/133 132/132/132 131/131/131
f 134/134/134 132/132/132 133/133/133
f 137/137/137 136/136/136 135/135/135
f 138/138/138 136/136/136 137/137/137
f 141/141/141 140/140/140 139/139/139
f 142/142/142 140/140/140 141/141/141
f 145/145/145 144/144/144 143/143/143
f 146/146/146 144/144/144 145/145/145
f 149/149/149 148/148/148 147/147/147
f 150/150/150 148/148/148 149/149/149
f 153/153/153 152/152/152 151/151/151
f 154/154/154 152/152/152 153/153/153
f 157/157/157 156/156/156 155/155/155
f 158/158/158 156/156/156 157/157/157
f 161/161/161 160/160/160 159/159/159
f 162/162/162 160/160/160 161/161/161
f 165/165/165 164/164/164 163/163/163
f 166/166/166 164/164/164 165/165/165
f 169/169/169 168/168/168 167/167/167
f 169/169/169 170/170/170 168/168/168
f 173/173/173 172/172/172 171/171/171
f 174/174/174 172/172/172 173/173/173
f 177/177/177 176/176/176 175/175/175
f 178/178/178 176/176/176 177/177/177
f 181/181/181 180/180/180 179/179/179
f 182/182/182 180/180/180 181/181/181
f 185/185/185 184/184/184 183/183/183
f 186/186/186 184/184/184 185/185/185
f 189/189/189 188/188/188 187/187/187
f 190/190/190 188/188/188 189/189/189
f 193/193/193 192/192/192 191/191/191
f 194/194/194 192/192/192 193/193/193
f 197/197/197 196/196/196 195/195/195
f 198/198/198 196/196/196 197/197/197
f 201/201/201 200/200/200 199/199/199
f 202/202/202 200/200/200 201/201/201
f 205/205/205 204/204/204 203/203/203
f 205/205/205 206/206/206 204/204/204
f 209/209/209 208/208/208 207/207/207
f 209/209/209 210/210/210 208/208/208
f 213/213/213 212/212/212 211/211/211
f 213/213/213 214/214/214 212/212/212
f 217/217/217 216/216/216 215/215/215
f 217/217/217 218/218/218 216/216/216
f 221/221/221 220/220/220 219/219/219
f 221/221/221 222/222/222 220/220/220
