g Turtle_Shield_04_R_07
v -0.03450119 -0.01581054 0.02288908
v -0.03045858 -0.02063451 0.01258896
v -0.03846921 -0.01520453 0.01496115
v -0.02648951 -0.02117619 0.02226111
v -0.0248951 -0.02444115 0.01170993
v -0.02182321 -0.02443564 0.020744
v 0.01037076 -0.003030501 -0.01035671
v -0.02169531 -0.02551571 0.006989298
v 0.01096336 -0.003335381 -0.009077159
v -0.02258971 -0.02509736 0.00514673
v -0.02390674 -0.02213498 -0.005190505
v 0.007957148 -0.001567166 -0.01468674
v 0.004579854 0.001011346 -0.01892085
v -0.02460021 -0.02488237 0.006427419
v -0.02371367 -0.02529739 0.008278307
v -0.02583444 -0.01353038 -0.02201294
v 0.0009568954 0.004653123 -0.02146906
v -0.02607158 -0.02209053 -0.004326965
v -0.0266737 -0.02419562 0.00785387
v -0.02579519 -0.02460028 0.009718277
v -0.03129697 -0.02064519 0.0106099
v -0.02791476 -0.01412481 -0.02169091
v -0.02826049 -0.02168349 -0.003181055
v -0.03182569 -0.02022428 0.008553949
v -0.03941391 -0.01511199 0.01310794
v -0.02999473 -0.01453818 -0.0208926
v -0.03366777 -0.01776002 -0.00238865
v -0.0397328 -0.01473175 0.01102955
v -0.04678344 -0.008948144 0.01610829
v -0.03527275 -0.01320393 -0.01533051
v -0.04020934 -0.01321175 0.00219616
v -0.0469589 -0.008718956 0.01409924
v -0.04955196 -0.005414035 0.01738107
v -0.04118914 -0.01100211 -0.008070274
v -0.0459872 -0.007929112 0.006858373
v -0.04972055 -0.005180696 0.01540045
v -0.04782914 -0.00127938 0.01722907
v -0.04861492 -0.004148275 0.00751883
v -0.04863941 -0.003051425 -0.002821118
v -0.04655617 -0.006621877 -0.002956912
v -0.04802901 -0.001037792 0.01523511
v -0.04187571 0.009977442 0.01665305
v -0.04529538 -0.003896527 -0.01132633
v -0.04096273 -0.004887728 -0.01755824
v -0.04722453 5.782602E-05 0.008124799
v -0.04221139 0.0101018 0.01458877
v -0.03403725 0.01942607 0.01502237
v -0.03450543 0.01944795 0.01291587
v -0.0236745 0.02589065 0.01152598
v -0.04274222 0.01040535 0.006983257
v -0.03626602 -0.003770051 -0.02227136
v -0.03819097 0.001037318 -0.02221435
v -0.03105605 -0.002031023 -0.02617946
v -0.02915147 -0.001766933 -0.02677531
v -0.04763927 0.001018837 -0.001695186
v -0.04283728 -0.0007023343 -0.01714881
v -0.04649868 -0.001842819 -0.01135598
v -0.04591164 0.0006117175 -0.01049094
v -0.04377902 0.009142924 -0.003978144
v -0.0424684 0.004018311 -0.01552631
v -0.03631005 0.01908891 0.004223452
v -0.03827827 0.01571728 -0.008762202
v -0.02425806 0.02585146 0.00946189
v -0.03828271 0.006483426 -0.01998814
v -0.02629326 0.02543748 0.0007716989
v -0.022755 0.02619869 0.008967567
v -0.02217181 0.0262376 0.01103079
v -0.03158191 0.02000665 -0.01336072
v -0.03417427 0.009174355 -0.02348406
v -0.0247782 0.02579843 0.0002852773
v -0.0211857 0.02614771 0.008400369
v -0.0206027 0.02618306 0.01046451
v -0.00161778 0.02074181 0.002277265
v -0.00200983 0.02073313 0.0008281028
v -0.02316782 0.02576047 -0.0001765823
v -0.003132528 0.02032717 -0.004562061
v -0.004196216 0.01929685 -0.01287916
v -0.02841021 0.02048017 -0.01412839
v -0.004059822 0.0131427 -0.01989743
v -0.03004621 0.02040301 -0.01384025
v -0.03091292 0.009887322 -0.02416534
v -0.003184978 0.01034514 -0.0215011
v -0.03258242 0.009621379 -0.02398315
v -0.03026366 0.004667278 -0.02762545
v -0.03197088 0.004246246 -0.02744955
v -0.02712727 -0.001517912 -0.02685292
v -0.03361955 0.003743401 -0.0269253
v -0.0206027 0.02618306 0.01046451
v -0.00161778 0.02074181 0.002277265
v -0.001063178 0.02044746 0.00362289
v -0.01982893 0.02573701 0.01240562
v -0.02139872 0.02578811 0.01297109
v -0.02217181 0.0262376 0.01103079
v -0.01625545 0.02441217 0.02017166
v 0.001228617 0.01867068 0.00832741
v 0.005153988 0.01512484 0.01461474
v -0.0177939 0.02442816 0.02084506
v -0.02290121 0.02544088 0.01346677
v -0.0236745 0.02589065 0.01152598
v -0.03403725 0.01942607 0.01502237
v -0.008939723 0.01731094 0.03061652
v 0.008950758 0.009095591 0.01819791
v -0.01930174 0.02406571 0.02135149
v -0.03314295 0.01903894 0.01693838
v -0.04187571 0.009977442 0.01665305
v -0.01039414 0.01717198 0.03144405
v -0.00441253 0.005536637 0.03662813
v 0.01013948 0.006321428 0.01766752
v -0.02870012 0.01702616 0.02465938
v -0.0408935 0.009710825 0.01848355
v -0.04782914 -0.00127938 0.01722907
v -0.01190951 0.01676497 0.03198718
v -0.00582644 0.005173706 0.03756955
v -0.004379335 -0.001202538 0.03817001
v 0.01192424 0.002822565 0.01514127
v -0.02170778 0.01351689 0.03473869
v -0.03631468 0.008517568 0.02476099
v -0.007385063 0.004700647 0.03817473
v -0.005815573 -0.001711661 0.0391546
v -0.03024473 0.006175833 0.03379234
v -0.0157113 0.0008564668 0.0413092
v -0.01475663 -0.004804104 0.04131001
v -0.00742115 -0.002230378 0.03981914
v -0.0225606 -0.001775639 0.04063469
v -0.008771295 -0.008308172 0.03823888
v -0.007025039 -0.007759463 0.03748015
v -0.005465097 -0.007117769 0.03643416
v -0.01292683 -0.01779666 0.03210799
v 0.01300937 -0.001083391 0.007359158
v -0.01471392 -0.01857042 0.03316265
v -0.0167193 -0.01909504 0.034088
v -0.01768539 -0.0247898 0.01823115
v 0.01235094 -0.002877905 -0.001802373
v 0.01132415 -0.00331499 -0.007563053
v -0.01968513 -0.02481651 0.01948562
v -0.02081154 -0.02534282 0.008998873
v 0.01096336 -0.003335381 -0.009077159
v -0.02169531 -0.02551571 0.006989298
v -0.02371367 -0.02529739 0.008278307
v -0.02282292 -0.02512779 0.0102791
v -0.02579519 -0.02460028 0.009718277
v -0.02182321 -0.02443564 0.020744
v -0.0248951 -0.02444115 0.01170993
v -0.03045858 -0.02063451 0.01258896
v -0.03129697 -0.02064519 0.0106099
v -0.03846921 -0.01520453 0.01496115
v -0.03941391 -0.01511199 0.01310794
v -0.02111313 -0.01870034 0.03400479
v -0.02648951 -0.02117619 0.02226111
v -0.04570175 -0.009087321 0.01781845
v -0.04678344 -0.008948144 0.01610829
v -0.0163014 -0.01116497 0.03964131
v -0.02951007 -0.0157194 0.03256062
v -0.03450119 -0.01581054 0.02288908
v -0.02225393 -0.01092296 0.03848367
v -0.04118927 -0.009385545 0.02361848
v -0.04847798 -0.005545042 0.01907607
v -0.04955196 -0.005414035 0.01738107
v -0.02225759 -0.006175252 0.04072898
v -0.03564637 -0.01053554 0.03195641
v -0.03653235 -0.006591348 0.03303982
v -0.04277064 -0.00585921 0.02478174
v -0.04677179 -0.001406694 0.01895423
v -0.0282712 -0.009378601 0.03759917
v -0.04176391 -0.001540841 0.02425442
v -0.036169 -0.002702943 0.0324705
v -0.02925683 -0.005046928 0.0389103
v -0.02933089 -0.006754415 0.03926368
vt 0.3063965 0.7895508
vt 0.309082 0.7558594
vt 0.3061523 0.7939453
vt 0.3093262 0.7543945
vt 0.3110352 0.730957
vt 0.310791 0.7319336
vt 0.3063965 0.5200195
vt 0.3117676 0.7080078
vt 0.3066406 0.5195313
vt 0.3115234 0.7084961
vt 0.3105469 0.6938477
vt 0.3056641 0.5234375
vt 0.3039551 0.5322266
vt 0.3112793 0.7207031
vt 0.3115234 0.7197266
vt 0.307373 0.6660156
vt 0.3017578 0.5454102
vt 0.3103027 0.7060547
vt 0.310791 0.7324219
vt 0.3110352 0.7319336
vt 0.309082 0.7563477
vt 0.307373 0.6772461
vt 0.3100586 0.7182617
vt 0.3088379 0.7548828
vt 0.3061523 0.7954102
vt 0.307373 0.6889648
vt 0.3078613 0.7426758
vt 0.3059082 0.7929688
vt 0.3029785 0.8310547
vt 0.3063965 0.7231445
vt 0.3056641 0.7783203
vt 0.3029785 0.828125
vt 0.3015137 0.8432617
vt 0.3049316 0.7626953
vt 0.3029785 0.8095703
vt 0.3012695 0.840332
vt 0.2998047 0.8310547
vt 0.3012695 0.8203125
vt 0.3010254 0.8012695
vt 0.3024902 0.7939453
vt 0.2998047 0.828125
vt 0.2956543 0.7905273
vt 0.3017578 0.7705078
vt 0.3027344 0.7392578
vt 0.2995605 0.8105469
vt 0.2956543 0.7885742
vt 0.2924805 0.7412109
vt 0.2924805 0.7397461
vt 0.2905273 0.6787109
vt 0.2956543 0.7773438
vt 0.3024902 0.7070313
vt 0.3005371 0.7124023
vt 0.3022461 0.6733398
vt 0.3024902 0.6625977
vt 0.2993164 0.7944336
vt 0.3007813 0.7451172
vt 0.3007813 0.7744141
vt 0.2998047 0.7709961
vt 0.2963867 0.7641602
vt 0.2988281 0.7421875
vt 0.2927246 0.7333984
vt 0.2941895 0.7231445
vt 0.2905273 0.6777344
vt 0.2983398 0.7114258
vt 0.2907715 0.6728516
vt 0.2905273 0.6694336
vt 0.2905273 0.6704102
vt 0.2929688 0.6782227
vt 0.2976074 0.6831055
vt 0.2907715 0.6640625
vt 0.2907715 0.6606445
vt 0.2907715 0.6616211
vt 0.2919922 0.5991211
vt 0.2919922 0.5981445
vt 0.2910156 0.6557617
vt 0.2922363 0.5932617
vt 0.2929688 0.581543
vt 0.2932129 0.6611328
vt 0.2966309 0.5717773
vt 0.2929688 0.6699219
vt 0.2973633 0.6655273
vt 0.2983398 0.5654297
vt 0.2973633 0.6738281
vt 0.2998047 0.6606445
vt 0.2998047 0.6699219
vt 0.3024902 0.6523438
vt 0.2998047 0.6791992
vt 0.2907715 0.6616211
vt 0.2919922 0.5991211
vt 0.2922363 0.5991211
vt 0.2910156 0.6616211
vt 0.2907715 0.6704102
vt 0.2905273 0.6704102
vt 0.2915039 0.6591797
vt 0.2932129 0.5976563
vt 0.295166 0.5913086
vt 0.2912598 0.6679688
vt 0.2907715 0.6787109
vt 0.2905273 0.6787109
vt 0.2924805 0.7412109
vt 0.2946777 0.6484375
vt 0.2988281 0.5825195
vt 0.2915039 0.6762695
vt 0.2927246 0.7407227
vt 0.2956543 0.7905273
vt 0.2944336 0.6572266
vt 0.2995605 0.6479492
vt 0.3005371 0.5766602
vt 0.293457 0.734375
vt 0.2958984 0.7895508
vt 0.2998047 0.8310547
vt 0.2946777 0.6660156
vt 0.2995605 0.6567383
vt 0.3022461 0.6567383
vt 0.3024902 0.5629883
vt 0.295166 0.7216797
vt 0.2963867 0.7792969
vt 0.2995605 0.6660156
vt 0.3022461 0.6660156
vt 0.2976074 0.7680664
vt 0.3005371 0.715332
vt 0.3029785 0.7158203
vt 0.3024902 0.675293
vt 0.3012695 0.75
vt 0.3049316 0.6845703
vt 0.3046875 0.6743164
vt 0.3046875 0.6645508
vt 0.3085938 0.7026367
vt 0.3051758 0.5424805
vt 0.3085938 0.7138672
vt 0.3088379 0.7255859
vt 0.3112793 0.7075195
vt 0.3063965 0.5268555
vt 0.3066406 0.5205078
vt 0.3112793 0.7197266
vt 0.3115234 0.7070313
vt 0.3066406 0.5195313
vt 0.3117676 0.7080078
vt 0.3115234 0.7197266
vt 0.3112793 0.71875
vt 0.3110352 0.7319336
vt 0.310791 0.7319336
vt 0.3110352 0.730957
vt 0.309082 0.7558594
vt 0.309082 0.7563477
vt 0.3061523 0.7939453
vt 0.3061523 0.7954102
vt 0.3083496 0.746582
vt 0.3093262 0.7543945
vt 0.3032227 0.8286133
vt 0.3029785 0.8310547
vt 0.3054199 0.7265625
vt 0.3066406 0.7822266
vt 0.3063965 0.7895508
vt 0.3049316 0.7529297
vt 0.3034668 0.8173828
vt 0.3015137 0.8413086
vt 0.3015137 0.8432617
vt 0.3029785 0.7529297
vt 0.3039551 0.8061523
vt 0.3024902 0.809082
vt 0.3017578 0.8237305
vt 0.3000488 0.8291016
vt 0.3039551 0.7792969
vt 0.300293 0.8139648
vt 0.3007813 0.8027344
vt 0.302002 0.7827148
vt 0.3027344 0.7851563
vn -0.5566406 -0.7822266 0.2800293
vn -0.5219727 -0.8261719 0.2124023
vn -0.5449219 -0.8012695 0.2473145
vn -0.4484863 -0.8510742 0.2731934
vn -0.3674316 -0.9140625 0.1705322
vn -0.1966553 -0.9453125 0.2602539
vn 0.4001465 -0.8393555 -0.3674316
vn 0.1734619 -0.9741211 -0.1453857
vn 0.4462891 -0.8530273 -0.2712402
vn 0.08233643 -0.9545898 -0.2856445
vn 0.1634521 -0.902832 -0.3981934
vn 0.3999023 -0.8085938 -0.4316406
vn 0.3483887 -0.6357422 -0.6884766
vn -0.2724609 -0.9511719 -0.1447754
vn -0.1945801 -0.9804688 0.02406311
vn 0.1608887 -0.6411133 -0.7504883
vn 0.2370605 -0.2109375 -0.9482422
vn -0.175415 -0.934082 -0.310791
vn -0.4865723 -0.8720703 -0.05273438
vn -0.4128418 -0.9023438 0.1235962
vn -0.5546875 -0.8237305 0.1181641
vn -0.1188354 -0.6889648 -0.7148438
vn -0.4318848 -0.8764648 -0.2127686
vn -0.5932617 -0.8037109 -0.04711914
vn -0.5800781 -0.8081055 0.1010132
vn -0.3994141 -0.6933594 -0.5996094
vn -0.5820313 -0.7983398 -0.1547852
vn -0.6318359 -0.7719727 -0.07391357
vn -0.6850586 -0.7119141 0.1551514
vn -0.6069336 -0.6772461 -0.4160156
vn -0.6425781 -0.7587891 -0.1066895
vn -0.7446289 -0.6616211 -0.0881958
vn -0.9404297 -0.1571045 0.3015137
vn -0.668457 -0.6953125 -0.263916
vn -0.7626953 -0.6376953 -0.1065063
vn -0.9921875 -0.1244507 -0.02174377
vn -0.8515625 0.4091797 0.3273926
vn -0.9892578 -0.1308594 -0.06835938
vn -0.9829102 -0.1262207 -0.133667
vn -0.7822266 -0.6025391 -0.1599121
vn -0.9111328 0.4084473 0.05819702
vn -0.7753906 0.5454102 0.3183594
vn -0.7827148 -0.4865723 -0.3876953
vn -0.6987305 -0.447998 -0.5576172
vn -0.9282227 0.371582 0.01470947
vn -0.8291016 0.5473633 0.1146851
vn -0.5908203 0.7568359 0.279541
vn -0.6391602 0.7597656 0.1201782
vn -0.3181152 0.9262695 0.2011719
vn -0.8452148 0.5322266 0.046875
vn -0.6157227 -0.3791504 -0.690918
vn -0.7080078 -0.01535034 -0.7060547
vn -0.3964844 -0.3330078 -0.8554688
vn -0.1257324 -0.2805176 -0.9516602
vn -0.9345703 0.3505859 -0.06103516
vn -0.8037109 -0.03077698 -0.5942383
vn -0.9174805 -0.07647705 -0.390625
vn -0.8969727 0.3308105 -0.2924805
vn -0.8564453 0.4995117 -0.1286621
vn -0.8251953 0.3664551 -0.4301758
vn -0.668457 0.7436523 0.01370239
vn -0.7246094 0.6469727 -0.2371826
vn -0.3679199 0.9277344 0.06246948
vn -0.7583008 0.3979492 -0.5166016
vn -0.401123 0.9130859 -0.07092285
vn -0.1026611 0.9946289 -0.005764008
vn -0.05825806 0.9907227 0.121582
vn -0.5058594 0.7744141 -0.380127
vn -0.5771484 0.5087891 -0.6386719
vn -0.1480713 0.9765625 -0.1553955
vn 0.1274414 0.9897461 -0.06469727
vn 0.166626 0.9848633 0.04550171
vn 0.2756348 0.9614258 0.001909256
vn 0.2381592 0.9667969 -0.09448242
vn 0.07373047 0.9770508 -0.1993408
vn 0.1759033 0.9619141 -0.2102051
vn 0.08782959 0.8574219 -0.5068359
vn -0.03022766 0.8457031 -0.5332031
vn 0.05932617 0.6318359 -0.7724609
vn -0.2458496 0.8378906 -0.487793
vn -0.0715332 0.621582 -0.7802734
vn 0.144043 0.2800293 -0.9492188
vn -0.2939453 0.597168 -0.746582
vn -0.007102966 0.2471924 -0.96875
vn -0.2409668 0.1658936 -0.9560547
vn 0.1139526 -0.2001953 -0.9731445
vn -0.5234375 0.07226563 -0.8491211
vn 0.166626 0.9848633 0.04550171
vn 0.2756348 0.9614258 0.001909256
vn 0.3203125 0.9438477 0.08325195
vn 0.2034912 0.9711914 0.1229248
vn -0.02796936 0.9775391 0.2097168
vn -0.05825806 0.9907227 0.121582
vn 0.2587891 0.934082 0.2454834
vn 0.3881836 0.90625 0.1677246
vn 0.5424805 0.7431641 0.3913574
vn 0.02445984 0.9321289 0.3608398
vn -0.282959 0.9038086 0.3205566
vn -0.3181152 0.9262695 0.2011719
vn -0.5908203 0.7568359 0.279541
vn 0.4282227 0.734375 0.5268555
vn 0.722168 0.3781738 0.5791016
vn -0.213623 0.8686523 0.4472656
vn -0.5336914 0.7236328 0.4372559
vn -0.7753906 0.5454102 0.3183594
vn 0.1933594 0.7055664 0.6816406
vn 0.6030273 0.3728027 0.7055664
vn 0.8139648 -0.03796387 0.5800781
vn -0.4772949 0.7006836 0.5302734
vn -0.6894531 0.5014648 0.5224609
vn -0.8515625 0.4091797 0.3273926
vn 0.009368896 0.671875 0.7407227
vn 0.355957 0.3657227 0.8598633
vn 0.6948242 -0.03102112 0.7182617
vn 0.7788086 -0.4638672 0.4223633
vn -0.2585449 0.5942383 0.7612305
vn -0.6621094 0.4816895 0.5742188
vn 0.203125 0.3527832 0.9135742
vn 0.487793 -0.0579834 0.8710938
vn -0.5488281 0.4299316 0.7172852
vn -0.008224487 0.2531738 0.9672852
vn 0.1112061 -0.1330566 0.9848633
vn 0.3364258 -0.07043457 0.9389648
vn -0.2783203 0.1904297 0.9414063
vn 0.3811035 -0.4504395 0.8071289
vn 0.5449219 -0.4753418 0.6904297
vn 0.7109375 -0.4433594 0.5458984
vn 0.5800781 -0.7338867 0.3532715
vn 0.6728516 -0.7089844 0.2104492
vn 0.4069824 -0.7792969 0.4765625
vn 0.1530762 -0.7851563 0.6000977
vn 0.3789063 -0.9199219 0.100647
vn 0.581543 -0.8134766 -0.0001584291
vn 0.5229492 -0.8442383 -0.1165161
vn 0.09161377 -0.9765625 0.1943359
vn 0.2680664 -0.9633789 -0.01977539
vn 0.4462891 -0.8530273 -0.2712402
vn 0.1734619 -0.9741211 -0.1453857
vn -0.1945801 -0.9804688 0.02406311
vn -0.111145 -0.9882813 0.1036987
vn -0.4128418 -0.9023438 0.1235962
vn -0.1966553 -0.9453125 0.2602539
vn -0.3674316 -0.9140625 0.1705322
vn -0.5219727 -0.8261719 0.2124023
vn -0.5546875 -0.8237305 0.1181641
vn -0.5449219 -0.8012695 0.2473145
vn -0.5800781 -0.8081055 0.1010132
vn -0.2293701 -0.7460938 0.625
vn -0.4484863 -0.8510742 0.2731934
vn -0.6142578 -0.6933594 0.376709
vn -0.6850586 -0.7119141 0.1551514
vn 0.05276489 -0.4523926 0.8901367
vn -0.4526367 -0.6987305 0.5537109
vn -0.5566406 -0.7822266 0.2800293
vn -0.2249756 -0.4638672 0.8569336
vn -0.6640625 -0.6157227 0.4240723
vn -0.7924805 -0.1715088 0.5849609
vn -0.9404297 -0.1571045 0.3015137
vn -0.1561279 -0.1898193 0.9692383
vn -0.6254883 -0.5571289 0.5458984
vn -0.7241211 -0.1309814 0.6772461
vn -0.7724609 -0.1340332 0.6206055
vn -0.7358398 0.3530273 0.5776367
vn -0.3693848 -0.4985352 0.7841797
vn -0.7226563 0.3120117 0.6166992
vn -0.6879883 0.28125 0.6689453
vn -0.4726563 0.1971436 0.8588867
vn -0.4350586 -0.1873779 0.8808594
g Turtle_Shield_04_R_07_0
f 3/3/3 2/2/2 1/1/1
f 2/2/2 4/4/4 1/1/1
f 4/4/4 2/2/2 5/5/5
f 6/6/6 4/4/4 5/5/5
f 9/9/9 8/8/8 7/7/7
f 8/8/8 10/10/10 7/7/7
f 7/7/7 10/10/10 11/11/11
f 12/12/12 7/7/7 11/11/11
f 12/12/12 11/11/11 13/13/13
f 10/10/10 8/8/8 14/14/14
f 8/8/8 15/15/15 14/14/14
f 11/11/11 16/16/16 13/13/13
f 13/13/13 16/16/16 17/17/17
f 11/11/11 10/10/10 18/18/18
f 10/10/10 14/14/14 18/18/18
f 14/14/14 15/15/15 19/19/19
f 15/15/15 20/20/20 19/19/19
f 19/19/19 20/20/20 21/21/21
f 16/16/16 11/11/11 22/22/22
f 11/11/11 18/18/18 22/22/22
f 18/18/18 14/14/14 23/23/23
f 14/14/14 19/19/19 23/23/23
f 24/24/24 19/19/19 21/21/21
f 24/24/24 21/21/21 25/25/25
f 22/22/22 18/18/18 26/26/26
f 18/18/18 23/23/23 26/26/26
f 27/27/27 23/23/23 19/19/19
f 24/24/24 27/27/27 19/19/19
f 28/28/28 24/24/24 25/25/25
f 28/28/28 25/25/25 29/29/29
f 30/30/30 26/26/26 23/23/23
f 27/27/27 30/30/30 23/23/23
f 31/31/31 27/27/27 24/24/24
f 28/28/28 31/31/31 24/24/24
f 32/32/32 28/28/28 29/29/29
f 32/32/32 29/29/29 33/33/33
f 34/34/34 30/30/30 27/27/27
f 31/31/31 34/34/34 27/27/27
f 31/31/31 28/28/28 35/35/35
f 28/28/28 32/32/32 35/35/35
f 36/36/36 32/32/32 33/33/33
f 33/33/33 37/37/37 36/36/36
f 36/36/36 38/38/38 32/32/32
f 38/38/38 35/35/35 32/32/32
f 38/38/38 39/39/39 35/35/35
f 35/35/35 40/40/40 31/31/31
f 40/40/40 34/34/34 31/31/31
f 39/39/39 40/40/40 35/35/35
f 37/37/37 41/41/41 36/36/36
f 36/36/36 41/41/41 38/38/38
f 41/41/41 37/37/37 42/42/42
f 40/40/40 43/43/43 34/34/34
f 43/43/43 40/40/40 39/39/39
f 34/34/34 44/44/44 30/30/30
f 43/43/43 44/44/44 34/34/34
f 41/41/41 45/45/45 38/38/38
f 38/38/38 45/45/45 39/39/39
f 46/46/46 41/41/41 42/42/42
f 45/45/45 41/41/41 46/46/46
f 46/46/46 42/42/42 47/47/47
f 48/48/48 46/46/46 47/47/47
f 47/47/47 49/49/49 48/48/48
f 50/50/50 45/45/45 46/46/46
f 50/50/50 46/46/46 48/48/48
f 44/44/44 51/51/51 30/30/30
f 52/52/52 51/51/51 44/44/44
f 30/30/30 51/51/51 26/26/26
f 51/51/51 53/53/53 26/26/26
f 53/53/53 51/51/51 52/52/52
f 22/22/22 26/26/26 53/53/53
f 54/54/54 22/22/22 53/53/53
f 16/16/16 22/22/22 54/54/54
f 55/55/55 45/45/45 50/50/50
f 45/45/45 55/55/55 39/39/39
f 56/56/56 52/52/52 44/44/44
f 44/44/44 43/43/43 56/56/56
f 57/57/57 43/43/43 39/39/39
f 43/43/43 57/57/57 56/56/56
f 57/57/57 39/39/39 58/58/58
f 39/39/39 55/55/55 58/58/58
f 57/57/57 58/58/58 56/56/56
f 59/59/59 55/55/55 50/50/50
f 58/58/58 55/55/55 59/59/59
f 58/58/58 60/60/60 56/56/56
f 56/56/56 60/60/60 52/52/52
f 60/60/60 58/58/58 59/59/59
f 50/50/50 61/61/61 59/59/59
f 61/61/61 50/50/50 48/48/48
f 59/59/59 62/62/62 60/60/60
f 61/61/61 62/62/62 59/59/59
f 48/48/48 63/63/63 61/61/61
f 49/49/49 63/63/63 48/48/48
f 60/60/60 64/64/64 52/52/52
f 62/62/62 64/64/64 60/60/60
f 61/61/61 65/65/65 62/62/62
f 63/63/63 65/65/65 61/61/61
f 63/63/63 49/49/49 66/66/66
f 49/49/49 67/67/67 66/66/66
f 62/62/62 68/68/68 64/64/64
f 65/65/65 68/68/68 62/62/62
f 52/52/52 64/64/64 69/69/69
f 68/68/68 69/69/69 64/64/64
f 70/70/70 65/65/65 63/63/63
f 66/66/66 70/70/70 63/63/63
f 66/66/66 67/67/67 71/71/71
f 67/67/67 72/72/72 71/71/71
f 72/72/72 73/73/73 71/71/71
f 73/73/73 74/74/74 71/71/71
f 71/71/71 75/75/75 66/66/66
f 75/75/75 71/71/71 74/74/74
f 75/75/75 70/70/70 66/66/66
f 76/76/76 75/75/75 74/74/74
f 76/76/76 77/77/77 75/75/75
f 77/77/77 78/78/78 75/75/75
f 75/75/75 78/78/78 70/70/70
f 77/77/77 79/79/79 78/78/78
f 70/70/70 80/80/80 65/65/65
f 80/80/80 68/68/68 65/65/65
f 78/78/78 80/80/80 70/70/70
f 79/79/79 81/81/81 78/78/78
f 78/78/78 81/81/81 80/80/80
f 79/79/79 82/82/82 81/81/81
f 80/80/80 83/83/83 68/68/68
f 81/81/81 83/83/83 80/80/80
f 83/83/83 69/69/69 68/68/68
f 82/82/82 84/84/84 81/81/81
f 81/81/81 84/84/84 83/83/83
f 82/82/82 17/17/17 84/84/84
f 83/83/83 85/85/85 69/69/69
f 84/84/84 85/85/85 83/83/83
f 17/17/17 86/86/86 84/84/84
f 84/84/84 86/86/86 85/85/85
f 16/16/16 86/86/86 17/17/17
f 86/86/86 16/16/16 54/54/54
f 86/86/86 54/54/54 85/85/85
f 85/85/85 87/87/87 69/69/69
f 85/85/85 54/54/54 87/87/87
f 87/87/87 52/52/52 69/69/69
f 54/54/54 53/53/53 87/87/87
f 87/87/87 53/53/53 52/52/52
f 90/90/90 89/89/89 88/88/88
f 91/91/91 90/90/90 88/88/88
f 92/92/92 91/91/91 88/88/88
f 93/93/93 92/92/92 88/88/88
f 91/91/91 94/94/94 90/90/90
f 94/94/94 95/95/95 90/90/90
f 96/96/96 95/95/95 94/94/94
f 91/91/91 92/92/92 97/97/97
f 94/94/94 91/91/91 97/97/97
f 98/98/98 92/92/92 93/93/93
f 99/99/99 98/98/98 93/93/93
f 98/98/98 99/99/99 100/100/100
f 101/101/101 96/96/96 94/94/94
f 102/102/102 96/96/96 101/101/101
f 97/97/97 92/92/92 103/103/103
f 92/92/92 98/98/98 103/103/103
f 104/104/104 98/98/98 100/100/100
f 100/100/100 105/105/105 104/104/104
f 94/94/94 97/97/97 106/106/106
f 101/101/101 94/94/94 106/106/106
f 107/107/107 102/102/102 101/101/101
f 108/108/108 102/102/102 107/107/107
f 109/109/109 103/103/103 98/98/98
f 104/104/104 109/109/109 98/98/98
f 105/105/105 110/110/110 104/104/104
f 105/105/105 111/111/111 110/110/110
f 97/97/97 103/103/103 112/112/112
f 106/106/106 97/97/97 112/112/112
f 101/101/101 106/106/106 113/113/113
f 107/107/107 101/101/101 113/113/113
f 114/114/114 108/108/108 107/107/107
f 115/115/115 108/108/108 114/114/114
f 103/103/103 109/109/109 116/116/116
f 112/112/112 103/103/103 116/116/116
f 109/109/109 104/104/104 117/117/117
f 104/104/104 110/110/110 117/117/117
f 106/106/106 112/112/112 118/118/118
f 113/113/113 106/106/106 118/118/118
f 107/107/107 113/113/113 119/119/119
f 114/114/114 107/107/107 119/119/119
f 116/116/116 109/109/109 120/120/120
f 109/109/109 117/117/117 120/120/120
f 112/112/112 116/116/116 121/121/121
f 118/118/118 112/112/112 121/121/121
f 121/121/121 122/122/122 118/118/118
f 113/113/113 118/118/118 123/123/123
f 119/119/119 113/113/113 123/123/123
f 122/122/122 123/123/123 118/118/118
f 121/121/121 116/116/116 124/124/124
f 116/116/116 120/120/120 124/124/124
f 122/122/122 121/121/121 124/124/124
f 119/119/119 123/123/123 125/125/125
f 123/123/123 122/122/122 125/125/125
f 114/114/114 119/119/119 126/126/126
f 126/126/126 119/119/119 125/125/125
f 127/127/127 114/114/114 126/126/126
f 127/127/127 115/115/115 114/114/114
f 115/115/115 127/127/127 128/128/128
f 129/129/129 115/115/115 128/128/128
f 127/127/127 126/126/126 130/130/130
f 128/128/128 127/127/127 130/130/130
f 126/126/126 125/125/125 131/131/131
f 130/130/130 126/126/126 131/131/131
f 129/129/129 128/128/128 132/132/132
f 133/133/133 129/129/129 132/132/132
f 133/133/133 132/132/132 134/134/134
f 128/128/128 130/130/130 135/135/135
f 132/132/132 128/128/128 135/135/135
f 132/132/132 136/136/136 134/134/134
f 134/134/134 136/136/136 137/137/137
f 136/136/136 138/138/138 137/137/137
f 138/138/138 136/136/136 139/139/139
f 136/136/136 132/132/132 140/140/140
f 136/136/136 140/140/140 139/139/139
f 132/132/132 135/135/135 140/140/140
f 139/139/139 140/140/140 141/141/141
f 135/135/135 130/130/130 142/142/142
f 130/130/130 131/131/131 142/142/142
f 140/140/140 135/135/135 143/143/143
f 140/140/140 143/143/143 141/141/141
f 135/135/135 142/142/142 143/143/143
f 141/141/141 143/143/143 144/144/144
f 145/145/145 141/141/141 144/144/144
f 145/145/145 144/144/144 146/146/146
f 147/147/147 145/145/145 146/146/146
f 131/131/131 148/148/148 142/142/142
f 148/148/148 149/149/149 142/142/142
f 147/147/147 146/146/146 150/150/150
f 151/151/151 147/147/147 150/150/150
f 152/152/152 148/148/148 131/131/131
f 125/125/125 152/152/152 131/131/131
f 122/122/122 152/152/152 125/125/125
f 149/149/149 148/148/148 153/153/153
f 154/154/154 149/149/149 153/153/153
f 148/148/148 152/152/152 155/155/155
f 152/152/152 122/122/122 155/155/155
f 153/153/153 148/148/148 155/155/155
f 146/146/146 154/154/154 156/156/156
f 150/150/150 146/146/146 156/156/156
f 151/151/151 150/150/150 157/157/157
f 158/158/158 151/151/151 157/157/157
f 122/122/122 159/159/159 155/155/155
f 159/159/159 122/122/122 124/124/124
f 154/154/154 153/153/153 160/160/160
f 156/156/156 154/154/154 160/160/160
f 160/160/160 161/161/161 156/156/156
f 156/156/156 162/162/162 150/150/150
f 162/162/162 157/157/157 150/150/150
f 161/161/161 162/162/162 156/156/156
f 157/157/157 163/163/163 158/158/158
f 157/157/157 162/162/162 163/163/163
f 163/163/163 111/111/111 158/158/158
f 111/111/111 163/163/163 110/110/110
f 153/153/153 155/155/155 164/164/164
f 160/160/160 153/153/153 164/164/164
f 155/155/155 159/159/159 164/164/164
f 161/161/161 160/160/160 164/164/164
f 162/162/162 165/165/165 163/163/163
f 110/110/110 163/163/163 165/165/165
f 162/162/162 161/161/161 165/165/165
f 117/117/117 110/110/110 165/165/165
f 117/117/117 165/165/165 166/166/166
f 161/161/161 166/166/166 165/165/165
f 120/120/120 117/117/117 166/166/166
f 120/120/120 166/166/166 167/167/167
f 166/166/166 161/161/161 167/167/167
f 124/124/124 120/120/120 167/167/167
f 159/159/159 124/124/124 167/167/167
f 159/159/159 168/168/168 164/164/164
f 168/168/168 161/161/161 164/164/164
f 161/161/161 168/168/168 167/167/167
f 168/168/168 159/159/159 167/167/167
