g Turtle_Shield_04_L_02
v -0.01193257 -0.0001746948 -0.002913691
v -0.01139551 -0.0007191695 -0.002221018
v 0.01150197 -0.0183306 -0.02481672
v 0.01060012 -0.01740865 -0.02603492
v 0.003992745 -0.01247198 -0.03009715
v -0.01356507 0.002024207 -0.005396809
v -0.01469472 0.00511066 -0.00815433
v 0.0124198 -0.01713228 -0.02689406
v 0.01333139 -0.01805191 -0.02567723
v 0.005561476 -0.01220707 -0.03127301
v -0.006484724 -0.001474134 -0.03549016
v -0.01462057 0.008630036 -0.01025873
v 0.007380011 -0.01171285 -0.0322551
v 0.01441813 -0.01650153 -0.02760845
v -0.005406204 -0.001611571 -0.0369948
v -0.003966092 -0.00171235 -0.03826514
v -0.008248912 0.009411943 -0.03487252
v -0.007337693 0.009592931 -0.03633433
v -0.006841553 0.0151141 -0.03562875
v -0.012656 0.01313093 -0.01136845
v -0.006105498 0.00962196 -0.03751725
v -0.006013803 0.01507425 -0.03687868
v -0.003550869 0.01861046 -0.03328399
v -0.01112945 0.01484456 -0.01070242
v -0.004967798 0.01487959 -0.03797668
v 0.0001580132 0.01256489 -0.04013926
v -0.00118805 0.008381223 -0.04016421
v -0.002719845 0.01868503 -0.0344613
v -0.001711252 0.01852925 -0.03551335
v 0.003645682 0.02427931 -0.02468444
v -0.006300766 0.01765754 -0.007048672
v 0.002475431 -0.0008699629 -0.03945822
v 0.004557094 0.02447348 -0.02574431
v 0.005532092 0.02435136 -0.02675016
v 0.01196251 0.02431022 -0.01415383
v -0.001541545 0.01659537 -0.003481013
v 0.001362649 0.01566021 -0.0009745905
v 0.01299951 0.02455177 -0.01509651
v 0.01733567 0.02230065 -0.009356984
v 0.002102169 0.01532662 -0.0002712063
v 0.0185771 0.02175032 -0.008144447
v 0.01967325 0.02197349 -0.00901335
v 0.01843221 0.02252082 -0.01022668
v 0.02065003 0.02188064 -0.00997608
v 0.01397397 0.0244522 -0.01607524
v 0.01940851 0.02242802 -0.01119008
v 0.02573173 0.01856955 -0.01886349
v 0.02704807 0.01798671 -0.01773143
v 0.02020077 0.02059274 -0.0235721
v 0.01134553 0.02122 -0.03089434
v 0.02937724 0.01227611 -0.02626593
v 0.03071067 0.01164728 -0.02527202
v 0.02414272 0.01433188 -0.02947566
v 0.03128591 0.004418914 -0.03324221
v 0.03261609 0.003739339 -0.03240373
v 0.002337068 0.01640925 -0.03781343
v 0.01655087 0.01599733 -0.03477157
v 0.007138798 0.01426653 -0.03973294
v 0.02590622 0.006731208 -0.03510074
v 0.03173644 0.001421213 -0.03553407
v 0.03307139 0.0007573183 -0.03472036
v 0.01908547 0.009784728 -0.03889461
v 0.0183098 0.006999819 -0.04117667
v 0.02566252 0.003797822 -0.03749532
v 0.02925168 -0.001638063 -0.0350919
v 0.03060458 -0.002306399 -0.03426127
v 0.01194057 0.01110141 -0.04117603
v 0.02367521 0.0004279085 -0.03696934
v 0.02330846 -0.007139721 -0.03289158
v 0.02463443 -0.00797175 -0.03197616
v 0.005666737 0.01095297 -0.04194582
v 0.0175493 -0.01249497 -0.02983814
v 0.01876393 -0.01339534 -0.02879545
v 0.01728182 -0.003851875 -0.0361922
v 0.015344 -0.01741439 -0.02638915
v 0.01068412 -0.007715117 -0.03464206
v 0.01695861 0.003785656 -0.04077215
v 0.01050571 0.0004047671 -0.04020254
v 0.01062986 0.007586695 -0.04233478
v 0.00414858 0.007352617 -0.04196629
v 0.0113314 0.00946069 -0.0426124
v 0.0185771 0.02175032 -0.008144447
v 0.002694236 0.01478294 0.0004228773
v 0.002102169 0.01532662 -0.0002712063
v 0.01959985 0.02080782 -0.006980888
v 0.02069537 0.02102857 -0.007851555
v 0.01967325 0.02197349 -0.00901335
v 0.02352892 0.01730879 -0.001860644
v 0.02167239 0.02093536 -0.008814036
v 0.004573605 0.01232326 0.002880733
v 0.02065003 0.02188064 -0.00997608
v 0.006673267 0.008109439 0.006397791
v 0.02704807 0.01798671 -0.01773143
v 0.02720449 0.007885027 0.005289008
v 0.006969528 0.002766527 0.008373185
v 0.02800606 0.01707307 -0.01647627
v 0.03071067 0.01164728 -0.02527202
v 0.02842068 0.007873228 0.0045465
v 0.02468537 0.01747124 -0.002677718
v 0.02843319 -0.003708575 0.007459986
v 0.005983458 0.000813334 0.008246043
v 0.03145784 0.01286738 -0.01095672
v 0.02567101 0.01736455 -0.003644114
v 0.03158042 0.01083141 -0.02395403
v 0.03261609 0.003739339 -0.03240373
v 0.02943176 0.007724365 0.003576361
v 0.02969223 -0.003931868 0.006726563
v 0.02887585 -0.009416393 0.006176562
v 0.003504412 -0.001345142 0.00765319
v 0.03535992 0.00644308 -0.003162351
v 0.03401009 0.007574932 -0.01866273
v 0.03339069 0.003043143 -0.03103419
v 0.03307139 0.0007573183 -0.03472036
v 0.03016154 -0.009761183 0.005402851
v 0.03766958 0.00249458 -0.01158975
v 0.03503114 0.0007639648 -0.02551864
v 0.0338166 6.171575E-05 -0.03335177
v 0.03060458 -0.002306399 -0.03426127
v 0.03542857 -0.00258864 -0.02723996
v 0.03861316 -0.006249139 -0.01989229
v 0.03842298 -0.003102746 -0.01876008
v 0.03135661 -0.003013413 -0.03288374
v 0.02463443 -0.00797175 -0.03197616
v 0.03984406 -0.007766869 -0.01209214
v 0.03849953 -0.006866567 -0.005805318
v 0.03355741 -0.005438393 -0.02757025
v 0.02555387 -0.008647068 -0.03062672
v 0.01876393 -0.01339534 -0.02879545
v 0.01983053 -0.01399614 -0.02744321
v 0.015344 -0.01741439 -0.02638915
v 0.02949854 -0.01168862 -0.02496463
v 0.03626771 -0.006267944 5.440133E-06
v 0.03530179 -0.01095255 -0.0009190947
v 0.03076049 -0.004138703 0.005731281
v 0.03128863 -0.01000845 0.004384538
v 0.03014112 -0.0142177 0.001116363
v 0.03706107 -0.009312713 -0.02079799
v 0.03800717 -0.01044275 -0.006796184
v 0.0399651 -0.009188513 -0.01248956
v 0.03804639 -0.0111066 -0.01312456
v 0.03432639 -0.01476874 -0.01771761
v 0.03592066 -0.01371066 -0.008994389
v 0.02504117 -0.0173791 -0.02109201
v 0.03414734 -0.01532872 -0.004437708
v 0.03143113 -0.019106 -0.01210616
v 0.01640737 -0.01791215 -0.02494692
v 0.02954387 -0.02029854 -0.009099931
v 0.02160013 -0.02054119 -0.01931673
v 0.02888777 -0.01395296 0.002205722
v 0.02805523 -0.0200662 -0.00789942
v 0.02751691 -0.01351325 0.003080071
v 0.02659228 -0.01956407 -0.006831679
v -0.00195205 -0.002664468 0.004847506
v 0.01972497 -0.02097935 -0.0184062
v 0.01795247 -0.02106748 -0.01747643
v -0.007436574 -0.002020794 0.001064724
v -0.01060404 -0.001052058 -0.00151232
v 0.01440644 -0.01854158 -0.02423509
v 0.01258672 -0.01881825 -0.02337518
v -0.01139551 -0.0007191695 -0.002221018
v 0.01150197 -0.0183306 -0.02481672
v 0.01333139 -0.01805191 -0.02567723
v 0.01441813 -0.01650153 -0.02760845
v 0.0124198 -0.01713228 -0.02689406
v 0.02567101 0.01736455 -0.003644114
v 0.02069537 0.02102857 -0.007851555
v 0.02167239 0.02093536 -0.008814036
v 0.02468537 0.01747124 -0.002677718
v 0.01959985 0.02080782 -0.006980888
v 0.02352892 0.01730879 -0.001860644
vt 0.2873535 0.5146484
vt 0.2873535 0.5146484
vt 0.2834473 0.7226563
vt 0.2834473 0.7231445
vt 0.2836914 0.7084961
vt 0.2878418 0.5180664
vt 0.2890625 0.5258789
vt 0.2839355 0.7348633
vt 0.2839355 0.734375
vt 0.2839355 0.7202148
vt 0.2856445 0.6791992
vt 0.2910156 0.5380859
vt 0.2844238 0.7319336
vt 0.2844238 0.7460938
vt 0.2854004 0.6904297
vt 0.2856445 0.7021484
vt 0.2902832 0.6650391
vt 0.2902832 0.6748047
vt 0.2932129 0.6723633
vt 0.2949219 0.5566406
vt 0.2905273 0.6855469
vt 0.2932129 0.6811523
vt 0.2958984 0.6762695
vt 0.296875 0.5620117
vt 0.2932129 0.6904297
vt 0.2927246 0.7226563
vt 0.2905273 0.7182617
vt 0.2958984 0.6850586
vt 0.2958984 0.6938477
vt 0.3015137 0.671875
vt 0.3015137 0.5712891
vt 0.2871094 0.7353516
vt 0.3017578 0.6801758
vt 0.3017578 0.6884766
vt 0.3051758 0.6665039
vt 0.3034668 0.5830078
vt 0.3044434 0.5878906
vt 0.3054199 0.6748047
vt 0.3063965 0.671875
vt 0.3046875 0.5888672
vt 0.3063965 0.6723633
vt 0.3066406 0.6811523
vt 0.3063965 0.6801758
vt 0.3066406 0.6889648
vt 0.3054199 0.6831055
vt 0.3063965 0.6884766
vt 0.3049316 0.7490234
vt 0.3049316 0.7504883
vt 0.3037109 0.7426758
vt 0.3007813 0.7324219
vt 0.3015137 0.7973633
vt 0.3015137 0.7993164
vt 0.3007813 0.7861328
vt 0.2971191 0.8369141
vt 0.2971191 0.8393555
vt 0.2954102 0.7216797
vt 0.2988281 0.7729492
vt 0.295166 0.7514648
vt 0.2966309 0.8193359
vt 0.2954102 0.8491211
vt 0.2954102 0.8520508
vt 0.2958984 0.8032227
vt 0.2939453 0.8100586
vt 0.2946777 0.8291016
vt 0.293457 0.8374023
vt 0.2937012 0.840332
vt 0.2944336 0.7802734
vt 0.2929688 0.8193359
vt 0.2900391 0.8037109
vt 0.2900391 0.8066406
vt 0.2929688 0.7553711
vt 0.2866211 0.7675781
vt 0.2866211 0.7695313
vt 0.2895508 0.7890625
vt 0.2844238 0.7456055
vt 0.2866211 0.7548828
vt 0.2922363 0.8032227
vt 0.2893066 0.7734375
vt 0.2924805 0.7802734
vt 0.2910156 0.75
vt 0.293457 0.7836914
vt 0.3063965 0.6723633
vt 0.3046875 0.5888672
vt 0.3046875 0.5888672
vt 0.3063965 0.6728516
vt 0.3066406 0.6811523
vt 0.3066406 0.6811523
vt 0.3066406 0.6708984
vt 0.3066406 0.6894531
vt 0.3041992 0.5878906
vt 0.3066406 0.6889648
vt 0.3027344 0.5825195
vt 0.3049316 0.7504883
vt 0.3041992 0.6616211
vt 0.2993164 0.5751953
vt 0.3049316 0.75
vt 0.3015137 0.7993164
vt 0.3044434 0.6704102
vt 0.3068848 0.6791992
vt 0.2995605 0.6625977
vt 0.2976074 0.5698242
vt 0.3046875 0.7446289
vt 0.3068848 0.6875
vt 0.3017578 0.7983398
vt 0.2971191 0.8393555
vt 0.3044434 0.6787109
vt 0.2995605 0.6713867
vt 0.2966309 0.671875
vt 0.2949219 0.5576172
vt 0.3039551 0.7329102
vt 0.3015137 0.7890625
vt 0.2971191 0.8378906
vt 0.2954102 0.8520508
vt 0.2966309 0.6806641
vt 0.3012695 0.7788086
vt 0.2973633 0.8237305
vt 0.2956543 0.8500977
vt 0.2937012 0.840332
vt 0.2956543 0.8334961
vt 0.2958984 0.8193359
vt 0.2976074 0.8129883
vt 0.2937012 0.8383789
vt 0.2900391 0.8066406
vt 0.296875 0.7939453
vt 0.2978516 0.762207
vt 0.2939453 0.8276367
vt 0.2900391 0.8051758
vt 0.2866211 0.7695313
vt 0.2868652 0.769043
vt 0.2844238 0.7456055
vt 0.2905273 0.8012695
vt 0.2988281 0.7285156
vt 0.2961426 0.7299805
vt 0.2995605 0.6801758
vt 0.2966309 0.6899414
vt 0.2939453 0.699707
vt 0.2939453 0.8173828
vt 0.2961426 0.7651367
vt 0.2961426 0.7963867
vt 0.2946777 0.7915039
vt 0.2912598 0.7944336
vt 0.2937012 0.7661133
vt 0.2875977 0.7675781
vt 0.2932129 0.7402344
vt 0.2895508 0.7607422
vt 0.284668 0.7451172
vt 0.2890625 0.7402344
vt 0.2856445 0.7460938
vt 0.2939453 0.6894531
vt 0.2890625 0.7290039
vt 0.2939453 0.6796875
vt 0.2893066 0.7177734
vt 0.2912598 0.5371094
vt 0.2851563 0.734375
vt 0.2849121 0.7226563
vt 0.2888184 0.5224609
vt 0.2875977 0.515625
vt 0.2841797 0.7333984
vt 0.2836914 0.7216797
vt 0.2873535 0.5146484
vt 0.2834473 0.7226563
vt 0.2839355 0.734375
vt 0.2844238 0.7460938
vt 0.2839355 0.7348633
vt 0.3068848 0.6875
vt 0.3066406 0.6811523
vt 0.3066406 0.6894531
vt 0.3068848 0.6791992
vt 0.3063965 0.6728516
vt 0.3066406 0.6708984
vn -0.6484375 -0.7592773 -0.0526123
vn -0.6020508 -0.7983398 0.01324463
vn -0.3505859 -0.9101563 -0.2214355
vn -0.4174805 -0.8364258 -0.3547363
vn -0.5454102 -0.777832 -0.3122559
vn -0.6923828 -0.71875 -0.06256104
vn -0.862793 -0.4772949 -0.1657715
vn -0.09307861 -0.7895508 -0.6069336
vn 0.007434845 -0.8793945 -0.4755859
vn -0.2822266 -0.7519531 -0.5961914
vn -0.8095703 -0.4394531 -0.388916
vn -0.9692383 0.01107025 -0.2453613
vn -0.06066895 -0.6645508 -0.7446289
vn 0.1040649 -0.6904297 -0.7163086
vn -0.6269531 -0.4282227 -0.6508789
vn -0.3857422 -0.3984375 -0.8320313
vn -0.921875 0.04455566 -0.3845215
vn -0.777832 0.01861572 -0.6279297
vn -0.800293 0.4885254 -0.3469238
vn -0.855957 0.4858398 -0.1759033
vn -0.5634766 0.006427765 -0.8261719
vn -0.671875 0.4643555 -0.5771484
vn -0.5629883 0.8027344 -0.1962891
vn -0.6264648 0.7763672 -0.06842041
vn -0.4467773 0.4133301 -0.793457
vn -0.2404785 0.3361816 -0.9106445
vn -0.3164063 -0.02978516 -0.9482422
vn -0.4165039 0.824707 -0.3828125
vn -0.1895752 0.7788086 -0.5976563
vn -0.3496094 0.9365234 0.01989746
vn -0.3962402 0.9077148 0.1378174
vn -0.1213989 -0.3837891 -0.9155273
vn -0.1931152 0.9702148 -0.1461182
vn 0.02426147 0.9423828 -0.3334961
vn -0.1031494 0.9477539 0.3017578
vn -0.177124 0.909668 0.3762207
vn -0.1066284 0.8666992 0.487793
vn 0.05575562 0.9897461 0.1314697
vn -0.01404572 0.9111328 0.4118652
vn -0.05441284 0.8271484 0.5595703
vn 0.05654907 0.8671875 0.4951172
vn 0.2471924 0.9086914 0.3359375
vn 0.1618652 0.956543 0.2426758
vn 0.4406738 0.887207 0.135498
vn 0.2498779 0.9663086 -0.06085205
vn 0.3481445 0.9370117 0.03201294
vn 0.5166016 0.8266602 -0.2220459
vn 0.6269531 0.7709961 -0.1107788
vn 0.439209 0.8466797 -0.3000488
vn 0.2432861 0.8359375 -0.4919434
vn 0.5849609 0.6733398 -0.4521484
vn 0.7304688 0.6049805 -0.3161621
vn 0.5336914 0.6811523 -0.5014648
vn 0.5629883 0.5771484 -0.5917969
vn 0.7617188 0.4929199 -0.4206543
vn -0.00604248 0.684082 -0.7290039
vn 0.3864746 0.6992188 -0.6010742
vn 0.09832764 0.6474609 -0.7558594
vn 0.5302734 0.5581055 -0.6381836
vn 0.4750977 0.118042 -0.8720703
vn 0.7202148 -0.009986877 -0.6938477
vn 0.4667969 0.5600586 -0.6845703
vn 0.375 0.144043 -0.9160156
vn 0.4331055 0.1237183 -0.8925781
vn 0.2301025 -0.4243164 -0.8759766
vn 0.4008789 -0.5493164 -0.7329102
vn 0.2481689 0.5942383 -0.7651367
vn 0.2265625 -0.3930664 -0.8911133
vn 0.1717529 -0.5571289 -0.8125
vn 0.2900391 -0.6499023 -0.7026367
vn -0.09796143 0.314209 -0.9443359
vn 0.1712646 -0.6030273 -0.7792969
vn 0.2897949 -0.6748047 -0.6787109
vn 0.151001 -0.5336914 -0.8320313
vn 0.2128906 -0.7822266 -0.5854492
vn 0.07458496 -0.5717773 -0.8168945
vn 0.1949463 -0.3410645 -0.9194336
vn 0.03759766 -0.4267578 -0.9033203
vn 0.01480103 -0.1721191 -0.9848633
vn -0.1682129 -0.1103516 -0.9794922
vn 0.128418 0.2435303 -0.9614258
vn 0.05654907 0.8671875 0.4951172
vn -0.01424408 0.777832 0.628418
vn -0.05441284 0.8271484 0.5595703
vn 0.09698486 0.8266602 0.5541992
vn 0.3051758 0.8657227 0.3964844
vn 0.2471924 0.9086914 0.3359375
vn 0.166748 0.7456055 0.6455078
vn 0.5214844 0.8266602 0.2113037
vn 0.00579071 0.7094727 0.7045898
vn 0.4406738 0.887207 0.135498
vn 0.06155396 0.467041 0.8823242
vn 0.6269531 0.7709961 -0.1107788
vn 0.2770996 0.4394531 0.8544922
vn 0.04446411 0.04074097 0.9980469
vn 0.7285156 0.6850586 -0.003520966
vn 0.7304688 0.6049805 -0.3161621
vn 0.5625 0.4353027 0.703125
vn 0.4016113 0.7714844 0.4931641
vn 0.2727051 0.01771545 0.9619141
vn -0.05545044 -0.3435059 0.9375
vn 0.7763672 0.6259766 0.07788086
vn 0.5898438 0.7441406 0.314209
vn 0.8554688 0.4902344 -0.1671143
vn 0.7617188 0.4929199 -0.4206543
vn 0.703125 0.4304199 0.5664063
vn 0.5917969 0.0324707 0.8051758
vn 0.1955566 -0.3703613 0.9082031
vn -0.2008057 -0.6816406 0.7036133
vn 0.8491211 0.4143066 0.328125
vn 0.8833008 0.451416 -0.1279297
vn 0.9091797 0.347168 -0.2301025
vn 0.7202148 -0.009986877 -0.6938477
vn 0.4851074 -0.3977051 0.7788086
vn 0.9404297 0.3391113 0.0134964
vn 0.9306641 0.2956543 -0.215332
vn 0.8842773 -0.1328125 -0.4477539
vn 0.4008789 -0.5493164 -0.7329102
vn 0.9086914 -0.1116943 -0.402832
vn 0.9321289 -0.1350098 -0.3361816
vn 0.9541016 0.2446289 -0.1728516
vn 0.5556641 -0.6074219 -0.5678711
vn 0.2900391 -0.6499023 -0.7026367
vn 0.9956055 0.065979 0.06323242
vn 0.9658203 -0.00705719 0.2592773
vn 0.6303711 -0.5351563 -0.5620117
vn 0.3974609 -0.6899414 -0.6049805
vn 0.2897949 -0.6748047 -0.6787109
vn 0.3530273 -0.7094727 -0.6098633
vn 0.2128906 -0.7822266 -0.5854492
vn 0.4333496 -0.6782227 -0.5932617
vn 0.8569336 -0.0174408 0.5151367
vn 0.7661133 -0.411377 0.4936523
vn 0.7143555 0.04122925 0.6987305
vn 0.6191406 -0.392334 0.6801758
vn 0.4404297 -0.7236328 0.53125
vn 0.7211914 -0.5219727 -0.4555664
vn 0.8833008 -0.3986816 0.2467041
vn 0.9511719 -0.3085938 -0.02339172
vn 0.7993164 -0.5893555 -0.1160889
vn 0.6230469 -0.6967773 -0.3557129
vn 0.7915039 -0.609375 0.04776001
vn 0.364502 -0.765625 -0.5302734
vn 0.6787109 -0.671875 0.2966309
vn 0.5634766 -0.8115234 -0.1546631
vn 0.2282715 -0.8164063 -0.5302734
vn 0.3425293 -0.9291992 0.1378174
vn 0.213623 -0.9086914 -0.3588867
vn 0.2541504 -0.7539063 0.605957
vn 0.1079102 -0.949707 0.2939453
vn -0.006774902 -0.7060547 0.7080078
vn -0.1101685 -0.902832 0.4157715
vn -0.3171387 -0.8310547 0.4572754
vn 0.006332397 -0.9868164 -0.1605225
vn -0.2406006 -0.9672852 0.08172607
vn -0.4418945 -0.8574219 0.2636719
vn -0.5102539 -0.8466797 0.1514893
vn 0.03167725 -0.9272461 -0.373291
vn -0.2932129 -0.9526367 -0.07983398
vn -0.6020508 -0.7983398 0.01324463
vn -0.3505859 -0.9101563 -0.2214355
vn 0.007434845 -0.8793945 -0.4755859
vn 0.1040649 -0.6904297 -0.7163086
vn -0.09307861 -0.7895508 -0.6069336
vn 0.5898438 0.7441406 0.314209
vn 0.3051758 0.8657227 0.3964844
vn 0.5214844 0.8266602 0.2113037
vn 0.4016113 0.7714844 0.4931641
vn 0.09698486 0.8266602 0.5541992
vn 0.166748 0.7456055 0.6455078
g Turtle_Shield_04_L_02_0
f 3/3/3 2/2/2 1/1/1
f 4/4/4 3/3/3 1/1/1
f 4/4/4 1/1/1 5/5/5
f 1/1/1 6/6/6 5/5/5
f 6/6/6 7/7/7 5/5/5
f 3/3/3 4/4/4 8/8/8
f 9/9/9 3/3/3 8/8/8
f 8/8/8 4/4/4 10/10/10
f 4/4/4 5/5/5 10/10/10
f 7/7/7 11/11/11 5/5/5
f 7/7/7 12/12/12 11/11/11
f 8/8/8 10/10/10 13/13/13
f 14/14/14 8/8/8 13/13/13
f 10/10/10 5/5/5 15/15/15
f 5/5/5 11/11/11 15/15/15
f 13/13/13 10/10/10 16/16/16
f 10/10/10 15/15/15 16/16/16
f 12/12/12 17/17/17 11/11/11
f 15/15/15 11/11/11 18/18/18
f 11/11/11 17/17/17 18/18/18
f 17/17/17 12/12/12 19/19/19
f 12/12/12 20/20/20 19/19/19
f 16/16/16 15/15/15 21/21/21
f 15/15/15 18/18/18 21/21/21
f 18/18/18 17/17/17 22/22/22
f 17/17/17 19/19/19 22/22/22
f 19/19/19 20/20/20 23/23/23
f 20/20/20 24/24/24 23/23/23
f 21/21/21 18/18/18 25/25/25
f 18/18/18 22/22/22 25/25/25
f 25/25/25 26/26/26 21/21/21
f 21/21/21 27/27/27 16/16/16
f 26/26/26 27/27/27 21/21/21
f 22/22/22 19/19/19 28/28/28
f 19/19/19 23/23/23 28/28/28
f 25/25/25 22/22/22 29/29/29
f 26/26/26 25/25/25 29/29/29
f 22/22/22 28/28/28 29/29/29
f 23/23/23 24/24/24 30/30/30
f 24/24/24 31/31/31 30/30/30
f 27/27/27 32/32/32 16/16/16
f 16/16/16 32/32/32 13/13/13
f 28/28/28 23/23/23 33/33/33
f 23/23/23 30/30/30 33/33/33
f 29/29/29 28/28/28 34/34/34
f 28/28/28 33/33/33 34/34/34
f 30/30/30 31/31/31 35/35/35
f 31/31/31 36/36/36 35/35/35
f 36/36/36 37/37/37 35/35/35
f 33/33/33 30/30/30 38/38/38
f 30/30/30 35/35/35 38/38/38
f 37/37/37 39/39/39 35/35/35
f 37/37/37 40/40/40 39/39/39
f 40/40/40 41/41/41 39/39/39
f 41/41/41 42/42/42 39/39/39
f 35/35/35 39/39/39 43/43/43
f 42/42/42 43/43/43 39/39/39
f 38/38/38 35/35/35 43/43/43
f 42/42/42 44/44/44 43/43/43
f 33/33/33 38/38/38 45/45/45
f 34/34/34 33/33/33 45/45/45
f 38/38/38 43/43/43 46/46/46
f 44/44/44 46/46/46 43/43/43
f 45/45/45 38/38/38 46/46/46
f 46/46/46 44/44/44 47/47/47
f 44/44/44 48/48/48 47/47/47
f 49/49/49 45/45/45 46/46/46
f 47/47/47 49/49/49 46/46/46
f 34/34/34 45/45/45 50/50/50
f 45/45/45 49/49/49 50/50/50
f 51/51/51 47/47/47 48/48/48
f 52/52/52 51/51/51 48/48/48
f 49/49/49 47/47/47 53/53/53
f 47/47/47 51/51/51 53/53/53
f 54/54/54 51/51/51 52/52/52
f 55/55/55 54/54/54 52/52/52
f 34/34/34 50/50/50 56/56/56
f 29/29/29 34/34/34 56/56/56
f 56/56/56 26/26/26 29/29/29
f 50/50/50 49/49/49 57/57/57
f 49/49/49 53/53/53 57/57/57
f 56/56/56 50/50/50 58/58/58
f 26/26/26 56/56/56 58/58/58
f 50/50/50 57/57/57 58/58/58
f 53/53/53 51/51/51 59/59/59
f 51/51/51 54/54/54 59/59/59
f 54/54/54 55/55/55 60/60/60
f 55/55/55 61/61/61 60/60/60
f 57/57/57 53/53/53 62/62/62
f 53/53/53 59/59/59 62/62/62
f 63/63/63 62/62/62 59/59/59
f 64/64/64 59/59/59 54/54/54
f 60/60/60 64/64/64 54/54/54
f 64/64/64 63/63/63 59/59/59
f 65/65/65 60/60/60 61/61/61
f 64/64/64 60/60/60 65/65/65
f 66/66/66 65/65/65 61/61/61
f 57/57/57 62/62/62 67/67/67
f 58/58/58 57/57/57 67/67/67
f 62/62/62 63/63/63 67/67/67
f 68/68/68 64/64/64 65/65/65
f 63/63/63 64/64/64 68/68/68
f 69/69/69 65/65/65 66/66/66
f 65/65/65 69/69/69 68/68/68
f 70/70/70 69/69/69 66/66/66
f 71/71/71 58/58/58 67/67/67
f 71/71/71 26/26/26 58/58/58
f 72/72/72 69/69/69 70/70/70
f 73/73/73 72/72/72 70/70/70
f 69/69/69 74/74/74 68/68/68
f 69/69/69 72/72/72 74/74/74
f 14/14/14 72/72/72 73/73/73
f 75/75/75 14/14/14 73/73/73
f 76/76/76 72/72/72 14/14/14
f 72/72/72 76/76/76 74/74/74
f 13/13/13 76/76/76 14/14/14
f 32/32/32 76/76/76 13/13/13
f 68/68/68 74/74/74 77/77/77
f 77/77/77 63/63/63 68/68/68
f 74/74/74 76/76/76 78/78/78
f 76/76/76 32/32/32 78/78/78
f 74/74/74 78/78/78 77/77/77
f 63/63/63 77/77/77 79/79/79
f 77/77/77 78/78/78 79/79/79
f 78/78/78 32/32/32 80/80/80
f 78/78/78 80/80/80 79/79/79
f 32/32/32 27/27/27 80/80/80
f 27/27/27 26/26/26 80/80/80
f 26/26/26 71/71/71 80/80/80
f 80/80/80 71/71/71 79/79/79
f 81/81/81 63/63/63 79/79/79
f 71/71/71 81/81/81 79/79/79
f 63/63/63 81/81/81 67/67/67
f 81/81/81 71/71/71 67/67/67
f 84/84/84 83/83/83 82/82/82
f 83/83/83 85/85/85 82/82/82
f 85/85/85 86/86/86 82/82/82
f 86/86/86 87/87/87 82/82/82
f 88/88/88 85/85/85 83/83/83
f 86/86/86 89/89/89 87/87/87
f 90/90/90 88/88/88 83/83/83
f 89/89/89 91/91/91 87/87/87
f 90/90/90 92/92/92 88/88/88
f 91/91/91 89/89/89 93/93/93
f 92/92/92 94/94/94 88/88/88
f 92/92/92 95/95/95 94/94/94
f 89/89/89 96/96/96 93/93/93
f 97/97/97 93/93/93 96/96/96
f 88/88/88 94/94/94 98/98/98
f 99/99/99 88/88/88 98/98/98
f 95/95/95 100/100/100 94/94/94
f 95/95/95 101/101/101 100/100/100
f 96/96/96 89/89/89 102/102/102
f 89/89/89 103/103/103 102/102/102
f 104/104/104 97/97/97 96/96/96
f 105/105/105 97/97/97 104/104/104
f 103/103/103 99/99/99 106/106/106
f 99/99/99 98/98/98 106/106/106
f 98/98/98 94/94/94 107/107/107
f 94/94/94 100/100/100 107/107/107
f 101/101/101 108/108/108 100/100/100
f 101/101/101 109/109/109 108/108/108
f 102/102/102 103/103/103 110/110/110
f 103/103/103 106/106/106 110/110/110
f 102/102/102 111/111/111 96/96/96
f 111/111/111 104/104/104 96/96/96
f 112/112/112 105/105/105 104/104/104
f 105/105/105 112/112/112 113/113/113
f 107/107/107 100/100/100 114/114/114
f 100/100/100 108/108/108 114/114/114
f 102/102/102 110/110/110 115/115/115
f 111/111/111 102/102/102 115/115/115
f 111/111/111 116/116/116 104/104/104
f 116/116/116 112/112/112 104/104/104
f 112/112/112 117/117/117 113/113/113
f 118/118/118 113/113/113 117/117/117
f 117/117/117 112/112/112 119/119/119
f 112/112/112 116/116/116 119/119/119
f 119/119/119 116/116/116 120/120/120
f 121/121/121 116/116/116 111/111/111
f 115/115/115 121/121/121 111/111/111
f 116/116/116 121/121/121 120/120/120
f 122/122/122 118/118/118 117/117/117
f 117/117/117 119/119/119 122/122/122
f 123/123/123 118/118/118 122/122/122
f 124/124/124 121/121/121 115/115/115
f 120/120/120 121/121/121 124/124/124
f 115/115/115 110/110/110 125/125/125
f 125/125/125 124/124/124 115/115/115
f 119/119/119 126/126/126 122/122/122
f 119/119/119 120/120/120 126/126/126
f 127/127/127 123/123/123 122/122/122
f 127/127/127 122/122/122 126/126/126
f 128/128/128 123/123/123 127/127/127
f 129/129/129 128/128/128 127/127/127
f 130/130/130 128/128/128 129/129/129
f 131/131/131 127/127/127 126/126/126
f 127/127/127 131/131/131 129/129/129
f 110/110/110 132/132/132 125/125/125
f 125/125/125 132/132/132 133/133/133
f 110/110/110 106/106/106 132/132/132
f 106/106/106 134/134/134 132/132/132
f 133/133/133 132/132/132 134/134/134
f 106/106/106 98/98/98 134/134/134
f 98/98/98 107/107/107 134/134/134
f 134/134/134 107/107/107 135/135/135
f 135/135/135 133/133/133 134/134/134
f 107/107/107 114/114/114 135/135/135
f 135/135/135 114/114/114 136/136/136
f 135/135/135 136/136/136 133/133/133
f 126/126/126 137/137/137 131/131/131
f 120/120/120 137/137/137 126/126/126
f 138/138/138 125/125/125 133/133/133
f 124/124/124 125/125/125 138/138/138
f 139/139/139 120/120/120 124/124/124
f 139/139/139 124/124/124 138/138/138
f 139/139/139 140/140/140 120/120/120
f 140/140/140 137/137/137 120/120/120
f 140/140/140 139/139/139 138/138/138
f 137/137/137 141/141/141 131/131/131
f 137/137/137 140/140/140 141/141/141
f 142/142/142 140/140/140 138/138/138
f 138/138/138 133/133/133 142/142/142
f 140/140/140 142/142/142 141/141/141
f 131/131/131 141/141/141 143/143/143
f 131/131/131 143/143/143 129/129/129
f 133/133/133 144/144/144 142/142/142
f 136/136/136 144/144/144 133/133/133
f 141/141/141 142/142/142 145/145/145
f 142/142/142 144/144/144 145/145/145
f 141/141/141 145/145/145 143/143/143
f 129/129/129 143/143/143 146/146/146
f 146/146/146 130/130/130 129/129/129
f 144/144/144 136/136/136 147/147/147
f 145/145/145 144/144/144 147/147/147
f 143/143/143 145/145/145 148/148/148
f 143/143/143 148/148/148 146/146/146
f 145/145/145 147/147/147 148/148/148
f 136/136/136 149/149/149 147/147/147
f 114/114/114 149/149/149 136/136/136
f 114/114/114 108/108/108 149/149/149
f 147/147/147 150/150/150 148/148/148
f 149/149/149 150/150/150 147/147/147
f 108/108/108 151/151/151 149/149/149
f 149/149/149 151/151/151 150/150/150
f 109/109/109 151/151/151 108/108/108
f 152/152/152 151/151/151 109/109/109
f 151/151/151 152/152/152 150/150/150
f 153/153/153 152/152/152 109/109/109
f 150/150/150 154/154/154 148/148/148
f 148/148/148 154/154/154 146/146/146
f 150/150/150 152/152/152 154/154/154
f 155/155/155 152/152/152 153/153/153
f 152/152/152 155/155/155 154/154/154
f 156/156/156 155/155/155 153/153/153
f 156/156/156 157/157/157 155/155/155
f 154/154/154 158/158/158 146/146/146
f 154/154/154 155/155/155 158/158/158
f 146/146/146 158/158/158 130/130/130
f 157/157/157 159/159/159 155/155/155
f 155/155/155 159/159/159 158/158/158
f 159/159/159 157/157/157 160/160/160
f 161/161/161 159/159/159 160/160/160
f 159/159/159 161/161/161 162/162/162
f 158/158/158 159/159/159 162/162/162
f 158/158/158 162/162/162 130/130/130
f 130/130/130 162/162/162 163/163/163
f 162/162/162 164/164/164 163/163/163
f 167/167/167 166/166/166 165/165/165
f 166/166/166 168/168/168 165/165/165
f 166/166/166 169/169/169 168/168/168
f 169/169/169 170/170/170 168/168/168
