g bus-school-wheel_FR
v -0.05615103 5.960464E-08 0.01161027
v -0.1818774 5.960464E-08 -0.3272392
v -0.1818774 0.2200161 -0.2471602
v -0.05615103 5.960464E-08 0.01161027
v -0.1818774 0.2200161 -0.2471602
v -0.1818774 0.3370839 -0.04439235
v -0.05615103 5.960464E-08 0.01161027
v -0.1818774 0.3370839 -0.04439235
v -0.1818774 0.2964267 0.1861866
v -0.05615103 5.960464E-08 0.01161027
v -0.1818774 0.2964267 0.1861866
v -0.1818774 0.1170681 0.3366859
v -0.05615103 5.960464E-08 0.01161027
v -0.1818774 0.1170681 0.3366859
v -0.1818774 -0.1170681 0.3366859
v -0.05615103 5.960464E-08 0.01161027
v -0.1818774 -0.1170681 0.3366859
v -0.1818774 -0.2964266 0.1861866
v -0.05615103 5.960464E-08 0.01161027
v -0.1818774 -0.2964266 0.1861866
v -0.1818774 -0.3370838 -0.04439235
v -0.05615103 5.960464E-08 0.01161027
v -0.1818774 -0.3370838 -0.04439235
v -0.1818774 -0.2200161 -0.2471602
v -0.05615103 5.960464E-08 0.01161027
v -0.1818774 -0.2200161 -0.2471602
v -0.1818774 5.960464E-08 -0.3272392
v -0.1818774 -0.1170681 0.3366859
v -0.1818774 0.1170681 0.3366859
v -0.139628 0.1867283 0.5294943
v -0.139628 -0.1867284 0.5294943
v -0.1818774 0.3370839 -0.04439235
v -0.1818774 0.2200161 -0.2471602
v -0.139628 0.3509345 -0.4017649
v -0.139628 0.5376625 -0.07834172
v -0.1818774 5.960464E-08 -0.3272392
v -0.1818774 -0.2200161 -0.2471602
v -0.139628 -0.3509346 -0.4017649
v -0.139628 5.960464E-08 -0.5294943
v -0.1818774 -0.2964266 0.1861866
v -0.1818774 -0.1170681 0.3366859
v -0.139628 -0.1867284 0.5294943
v -0.139628 -0.4728127 0.2894411
v -0.1818774 0.2964267 0.1861866
v -0.1818774 0.3370839 -0.04439235
v -0.139628 0.5376625 -0.07834172
v -0.139628 0.4728127 0.2894411
v -0.1818774 -0.3370838 -0.04439235
v -0.1818774 -0.2964266 0.1861866
v -0.139628 -0.4728127 0.2894411
v -0.139628 -0.5376625 -0.07834172
v -0.1818774 0.1170681 0.3366859
v -0.1818774 0.2964267 0.1861866
v -0.139628 0.4728127 0.2894411
v -0.139628 0.1867283 0.5294943
v -0.1818774 -0.2200161 -0.2471602
v -0.1818774 -0.3370838 -0.04439235
v -0.139628 -0.5376625 -0.07834172
v -0.139628 -0.3509346 -0.4017649
v 0.1396282 -0.1867284 0.5294943
v -0.139628 -0.1867284 0.5294943
v -0.139628 0.1867283 0.5294943
v 0.1396282 0.1867283 0.5294943
v 0.1396282 -0.3509346 -0.4017649
v -0.139628 -0.3509346 -0.4017649
v -0.139628 -0.5376625 -0.07834172
v 0.1396282 -0.5376625 -0.07834172
v -0.139628 0.4728127 0.2894411
v -0.139628 0.5376625 -0.07834172
v 0.1396282 0.5376625 -0.07834172
v 0.1396282 0.4728127 0.2894411
v 0.1396282 -0.5376625 -0.07834172
v -0.139628 -0.5376625 -0.07834172
v -0.139628 -0.4728127 0.2894411
v 0.1396282 -0.4728127 0.2894411
v 0.1396282 0.1867283 0.5294943
v -0.139628 0.1867283 0.5294943
v -0.139628 0.4728127 0.2894411
v 0.1396282 0.4728127 0.2894411
v -0.139628 0.5376625 -0.07834172
v -0.139628 0.3509345 -0.4017649
v 0.1396282 0.3509345 -0.4017649
v 0.1396282 0.5376625 -0.07834172
v 0.1396282 -0.1867284 0.5294943
v 0.1396282 0.1867283 0.5294943
v 0.1818776 0.1170681 0.3366859
v 0.1818776 -0.1170681 0.3366859
v 0.1396282 0.5376625 -0.07834172
v 0.1396282 0.3509345 -0.4017649
v 0.1818776 0.2200161 -0.2471602
v 0.1818776 0.3370839 -0.04439235
v 0.1396282 5.960464E-08 -0.5294943
v 0.1396282 -0.3509346 -0.4017649
v 0.1818776 -0.2200161 -0.2471602
v 0.1818776 5.960464E-08 -0.3272392
v 0.1396282 -0.4728127 0.2894411
v 0.1396282 -0.1867284 0.5294943
v 0.1818776 -0.1170681 0.3366859
v 0.1818776 -0.2964266 0.1861866
v 0.1396282 0.4728127 0.2894411
v 0.1396282 0.5376625 -0.07834172
v 0.1818776 0.3370839 -0.04439235
v 0.1818776 0.2964267 0.1861866
v 0.1396282 -0.5376625 -0.07834172
v 0.1396282 -0.4728127 0.2894411
v 0.1818776 -0.2964266 0.1861866
v 0.1818776 -0.3370838 -0.04439235
v 0.1396282 0.1867283 0.5294943
v 0.1396282 0.4728127 0.2894411
v 0.1818776 0.2964267 0.1861866
v 0.1818776 0.1170681 0.3366859
v 0.1396282 -0.3509346 -0.4017649
v 0.1396282 -0.5376625 -0.07834172
v 0.1818776 -0.3370838 -0.04439235
v 0.1818776 -0.2200161 -0.2471602
v -0.139628 0.3509345 -0.4017649
v -0.139628 5.960464E-08 -0.5294943
v 0.1396282 5.960464E-08 -0.5294943
v 0.1396282 0.3509345 -0.4017649
v 0.1396282 5.960464E-08 -0.5294943
v -0.139628 5.960464E-08 -0.5294943
v -0.139628 -0.3509346 -0.4017649
v 0.1396282 -0.3509346 -0.4017649
v 0.1396282 -0.4728127 0.2894411
v -0.139628 -0.4728127 0.2894411
v -0.139628 -0.1867284 0.5294943
v 0.1396282 -0.1867284 0.5294943
v -0.09278118 -0.1096407 0.2015133
v -0.25386 -0.07792953 0.1465883
v -0.25386 0.07792968 0.1465883
v -0.09278118 0.1096407 0.2015133
v -0.09278118 0.2192813 0.01161027
v -0.25386 0.1558591 0.01161027
v -0.25386 0.07792968 -0.1233678
v -0.09278118 0.1096407 -0.1782928
v -0.09278118 -0.1096407 -0.1782928
v -0.25386 -0.07792953 -0.1233678
v -0.25386 -0.1558591 0.01161027
v -0.09278118 -0.2192811 0.01161027
v -0.09278118 -0.2192811 0.01161027
v -0.25386 -0.1558591 0.01161027
v -0.25386 -0.07792953 0.1465883
v -0.09278118 -0.1096407 0.2015133
v -0.09278118 0.1096407 0.2015133
v -0.25386 0.07792968 0.1465883
v -0.25386 0.1558591 0.01161027
v -0.09278118 0.2192813 0.01161027
v -0.09278118 0.1096407 -0.1782928
v -0.25386 0.07792968 -0.1233678
v -0.25386 -0.07792953 -0.1233678
v -0.09278118 -0.1096407 -0.1782928
v -0.25386 -0.1558591 0.01161027
v -0.25386 0.07792968 0.1465883
v -0.25386 -0.07792953 0.1465883
v -0.25386 0.1558591 0.01161027
v -0.25386 -0.07792953 -0.1233678
v -0.25386 0.07792968 -0.1233678
v -0.1818774 0.2200161 -0.2471602
v -0.1818774 5.960464E-08 -0.3272392
v -0.139628 5.960464E-08 -0.5294943
v -0.139628 0.3509345 -0.4017649
v 0.1818776 -0.2200161 -0.2471602
v 0.1818776 -0.3370838 -0.04439235
v 0.1818776 -0.2964266 0.1861866
v 0.1818776 -0.1170681 0.3366859
v 0.1818776 5.960464E-08 -0.3272392
v 0.1818776 0.1170681 0.3366859
v 0.1818776 0.2200161 -0.2471602
v 0.1818776 0.2964267 0.1861866
v 0.1818776 0.3370839 -0.04439235
v 0.1396282 0.3509345 -0.4017649
v 0.1396282 5.960464E-08 -0.5294943
v 0.1818776 5.960464E-08 -0.3272392
v 0.1818776 0.2200161 -0.2471602
vt 0.4870605 0.7363281
vt 0.4863281 0.7319336
vt 0.4890137 0.7324219
vt 0.4870605 0.7363281
vt 0.4890137 0.7324219
vt 0.4909668 0.7348633
vt 0.4870605 0.7363281
vt 0.4909668 0.7348633
vt 0.4909668 0.737793
vt 0.4870605 0.7363281
vt 0.4909668 0.737793
vt 0.4890137 0.7397461
vt 0.4870605 0.7363281
vt 0.4890137 0.7397461
vt 0.4863281 0.7407227
vt 0.4870605 0.7363281
vt 0.4863281 0.7407227
vt 0.4836426 0.7392578
vt 0.4870605 0.7363281
vt 0.4836426 0.7392578
vt 0.482666 0.7363281
vt 0.4870605 0.7363281
vt 0.482666 0.7363281
vt 0.4836426 0.7333984
vt 0.4870605 0.7363281
vt 0.4836426 0.7333984
vt 0.4863281 0.7319336
vt 0.09588623 0.7304688
vt 0.09692383 0.7333984
vt 0.09484863 0.7353516
vt 0.09313965 0.7304688
vt 0.1027832 0.734375
vt 0.1047974 0.7319336
vt 0.1072998 0.7329102
vt 0.104126 0.7368164
vt 0.1047974 0.7290039
vt 0.1027832 0.7265625
vt 0.104126 0.7241211
vt 0.1072998 0.7280273
vt 0.09692383 0.7275391
vt 0.09588623 0.7304688
vt 0.09313965 0.7304688
vt 0.09484863 0.7255859
vt 0.09967041 0.7348633
vt 0.1027832 0.734375
vt 0.104126 0.7368164
vt 0.09918213 0.737793
vt 0.09967041 0.7260742
vt 0.09692383 0.7275391
vt 0.09484863 0.7255859
vt 0.09918213 0.7231445
vt 0.09692383 0.7333984
vt 0.09967041 0.7348633
vt 0.09918213 0.737793
vt 0.09484863 0.7353516
vt 0.1027832 0.7265625
vt 0.09967041 0.7260742
vt 0.09918213 0.7231445
vt 0.104126 0.7241211
vt 0.09313965 0.7304688
vt 0.09313965 0.7304688
vt 0.09484863 0.7353516
vt 0.09484863 0.7353516
vt 0.104126 0.7241211
vt 0.104126 0.7241211
vt 0.09918213 0.7231445
vt 0.09918213 0.7231445
vt 0.09918213 0.737793
vt 0.104126 0.7368164
vt 0.104126 0.7368164
vt 0.09918213 0.737793
vt 0.09918213 0.7231445
vt 0.09918213 0.7231445
vt 0.09484863 0.7255859
vt 0.09484863 0.7255859
vt 0.09484863 0.7353516
vt 0.09484863 0.7353516
vt 0.09918213 0.737793
vt 0.09918213 0.737793
vt 0.104126 0.7368164
vt 0.1072998 0.7329102
vt 0.1072998 0.7329102
vt 0.104126 0.7368164
vt 0.09313965 0.7304688
vt 0.09484863 0.7353516
vt 0.09692383 0.7333984
vt 0.09588623 0.7304688
vt 0.104126 0.7368164
vt 0.1072998 0.7329102
vt 0.1047974 0.7319336
vt 0.1027832 0.734375
vt 0.1072998 0.7280273
vt 0.104126 0.7241211
vt 0.1027832 0.7265625
vt 0.1047974 0.7290039
vt 0.09484863 0.7255859
vt 0.09313965 0.7304688
vt 0.09588623 0.7304688
vt 0.09692383 0.7275391
vt 0.09918213 0.737793
vt 0.104126 0.7368164
vt 0.1027832 0.734375
vt 0.09967041 0.7348633
vt 0.09918213 0.7231445
vt 0.09484863 0.7255859
vt 0.09692383 0.7275391
vt 0.09967041 0.7260742
vt 0.09484863 0.7353516
vt 0.09918213 0.737793
vt 0.09967041 0.7348633
vt 0.09692383 0.7333984
vt 0.104126 0.7241211
vt 0.09918213 0.7231445
vt 0.09967041 0.7260742
vt 0.1027832 0.7265625
vt 0.1072998 0.7329102
vt 0.1072998 0.7280273
vt 0.1072998 0.7280273
vt 0.1072998 0.7329102
vt 0.1072998 0.7280273
vt 0.1072998 0.7280273
vt 0.104126 0.7241211
vt 0.104126 0.7241211
vt 0.09484863 0.7255859
vt 0.09484863 0.7255859
vt 0.09313965 0.7304688
vt 0.09313965 0.7304688
vt 0.4907227 0.7250977
vt 0.489502 0.7255859
vt 0.4868164 0.7241211
vt 0.4868164 0.7226563
vt 0.482666 0.7250977
vt 0.4838867 0.7255859
vt 0.4838867 0.7290039
vt 0.482666 0.7294922
vt 0.4868164 0.7319336
vt 0.4868164 0.7304688
vt 0.489502 0.7290039
vt 0.4907227 0.7294922
vt 0.4907227 0.7294922
vt 0.489502 0.7290039
vt 0.489502 0.7255859
vt 0.4907227 0.7250977
vt 0.4868164 0.7226563
vt 0.4868164 0.7241211
vt 0.4838867 0.7255859
vt 0.482666 0.7250977
vt 0.482666 0.7294922
vt 0.4838867 0.7290039
vt 0.4868164 0.7304688
vt 0.4868164 0.7319336
vt 0.489502 0.7290039
vt 0.4868164 0.7241211
vt 0.489502 0.7255859
vt 0.4838867 0.7255859
vt 0.4868164 0.7304688
vt 0.4838867 0.7290039
vt 0.1047974 0.7319336
vt 0.1047974 0.7290039
vt 0.1072998 0.7280273
vt 0.1072998 0.7329102
vt 0.1072998 0.737793
vt 0.1072998 0.737793
vt 0.1072998 0.737793
vt 0.1072998 0.737793
vt 0.1072998 0.737793
vt 0.1072998 0.737793
vt 0.1072998 0.737793
vt 0.1072998 0.737793
vt 0.1072998 0.737793
vt 0.1072998 0.7329102
vt 0.1072998 0.7280273
vt 0.1047974 0.7290039
vt 0.1047974 0.7319336
vn -0.9301758 -0.1256104 0.3452148
vn -0.9301758 -0.1256104 0.3452148
vn -0.9301758 -0.1256104 0.3452148
vn -0.9306641 -0.3166504 0.1828613
vn -0.9306641 -0.3166504 0.1828613
vn -0.9306641 -0.3166504 0.1828613
vn -0.9316406 -0.3579102 -0.06311035
vn -0.9316406 -0.3579102 -0.06311035
vn -0.9316406 -0.3579102 -0.06311035
vn -0.9321289 -0.2324219 -0.2768555
vn -0.9321289 -0.2324219 -0.2768555
vn -0.9321289 -0.2324219 -0.2768555
vn -0.9326172 0 -0.3608398
vn -0.9326172 0 -0.3608398
vn -0.9326172 0 -0.3608398
vn -0.9321289 0.2324219 -0.2768555
vn -0.9321289 0.2324219 -0.2768555
vn -0.9321289 0.2324219 -0.2768555
vn -0.9316406 0.3579102 -0.06311035
vn -0.9316406 0.3579102 -0.06311035
vn -0.9316406 0.3579102 -0.06311035
vn -0.9306641 0.3166504 0.1828613
vn -0.9306641 0.3166504 0.1828613
vn -0.9306641 0.3166504 0.1828613
vn -0.9301758 0.1256104 0.3452148
vn -0.9301758 0.1256104 0.3452148
vn -0.9301758 0.1256104 0.3452148
vn -0.9770508 0 0.2139893
vn -0.9770508 0 0.2139893
vn -0.9770508 0 0.2139893
vn -0.9770508 0 0.2139893
vn -0.9765625 0.1873779 -0.1081543
vn -0.9765625 0.1873779 -0.1081543
vn -0.9765625 0.1873779 -0.1081543
vn -0.9765625 0.1873779 -0.1081543
vn -0.9760742 -0.07421875 -0.2038574
vn -0.9760742 -0.07421875 -0.2038574
vn -0.9760742 -0.07421875 -0.2038574
vn -0.9760742 -0.07421875 -0.2038574
vn -0.9765625 -0.1378174 0.1641846
vn -0.9765625 -0.1378174 0.1641846
vn -0.9765625 -0.1378174 0.1641846
vn -0.9765625 -0.1378174 0.1641846
vn -0.9765625 0.2120361 0.03738403
vn -0.9765625 0.2120361 0.03738403
vn -0.9765625 0.2120361 0.03738403
vn -0.9765625 0.2120361 0.03738403
vn -0.9765625 -0.2120361 0.03738403
vn -0.9765625 -0.2120361 0.03738403
vn -0.9765625 -0.2120361 0.03738403
vn -0.9765625 -0.2120361 0.03738403
vn -0.9765625 0.1378174 0.1641846
vn -0.9765625 0.1378174 0.1641846
vn -0.9765625 0.1378174 0.1641846
vn -0.9765625 0.1378174 0.1641846
vn -0.9765625 -0.1873779 -0.1081543
vn -0.9765625 -0.1873779 -0.1081543
vn -0.9765625 -0.1873779 -0.1081543
vn -0.9765625 -0.1873779 -0.1081543
vn 0 0 1
vn 0 0 1
vn 0 0 1
vn 0 0 1
vn 0 -0.8662109 -0.5
vn 0 -0.8662109 -0.5
vn 0 -0.8662109 -0.5
vn 0 -0.8662109 -0.5
vn 0 0.9848633 0.1737061
vn 0 0.9848633 0.1737061
vn 0 0.9848633 0.1737061
vn 0 0.9848633 0.1737061
vn 0 -0.9848633 0.1737061
vn 0 -0.9848633 0.1737061
vn 0 -0.9848633 0.1737061
vn 0 -0.9848633 0.1737061
vn 0 0.6425781 0.7661133
vn 0 0.6425781 0.7661133
vn 0 0.6425781 0.7661133
vn 0 0.6425781 0.7661133
vn 0 0.8662109 -0.5
vn 0 0.8662109 -0.5
vn 0 0.8662109 -0.5
vn 0 0.8662109 -0.5
vn 0.9770508 0 0.2139893
vn 0.9770508 0 0.2139893
vn 0.9770508 0 0.2139893
vn 0.9770508 0 0.2139893
vn 0.9765625 0.1873779 -0.1081543
vn 0.9765625 0.1873779 -0.1081543
vn 0.9765625 0.1873779 -0.1081543
vn 0.9765625 0.1873779 -0.1081543
vn 0.9760742 -0.07421875 -0.2038574
vn 0.9760742 -0.07421875 -0.2038574
vn 0.9760742 -0.07421875 -0.2038574
vn 0.9760742 -0.07421875 -0.2038574
vn 0.9765625 -0.1378174 0.1641846
vn 0.9765625 -0.1378174 0.1641846
vn 0.9765625 -0.1378174 0.1641846
vn 0.9765625 -0.1378174 0.1641846
vn 0.9765625 0.2120361 0.03738403
vn 0.9765625 0.2120361 0.03738403
vn 0.9765625 0.2120361 0.03738403
vn 0.9765625 0.2120361 0.03738403
vn 0.9765625 -0.2120361 0.03738403
vn 0.9765625 -0.2120361 0.03738403
vn 0.9765625 -0.2120361 0.03738403
vn 0.9765625 -0.2120361 0.03738403
vn 0.9765625 0.1378174 0.1641846
vn 0.9765625 0.1378174 0.1641846
vn 0.9765625 0.1378174 0.1641846
vn 0.9765625 0.1378174 0.1641846
vn 0.9765625 -0.1873779 -0.1081543
vn 0.9765625 -0.1873779 -0.1081543
vn 0.9765625 -0.1873779 -0.1081543
vn 0.9765625 -0.1873779 -0.1081543
vn 0 0.342041 -0.9394531
vn 0 0.342041 -0.9394531
vn 0 0.342041 -0.9394531
vn 0 0.342041 -0.9394531
vn 0 -0.342041 -0.9394531
vn 0 -0.342041 -0.9394531
vn 0 -0.342041 -0.9394531
vn 0 -0.342041 -0.9394531
vn 0 -0.6425781 0.7661133
vn 0 -0.6425781 0.7661133
vn 0 -0.6425781 0.7661133
vn 0 -0.6425781 0.7661133
vn -0.3227539 0 0.9462891
vn -0.3227539 0 0.9462891
vn -0.3227539 0 0.9462891
vn -0.3227539 0 0.9462891
vn -0.3227539 0.8198242 -0.4731445
vn -0.3227539 0.8198242 -0.4731445
vn -0.3227539 0.8198242 -0.4731445
vn -0.3227539 0.8198242 -0.4731445
vn -0.3227539 -0.8198242 -0.4731445
vn -0.3227539 -0.8198242 -0.4731445
vn -0.3227539 -0.8198242 -0.4731445
vn -0.3227539 -0.8198242 -0.4731445
vn -0.3227539 -0.8198242 0.4731445
vn -0.3227539 -0.8198242 0.4731445
vn -0.3227539 -0.8198242 0.4731445
vn -0.3227539 -0.8198242 0.4731445
vn -0.3227539 0.8198242 0.4731445
vn -0.3227539 0.8198242 0.4731445
vn -0.3227539 0.8198242 0.4731445
vn -0.3227539 0.8198242 0.4731445
vn -0.3227539 0 -0.9462891
vn -0.3227539 0 -0.9462891
vn -0.3227539 0 -0.9462891
vn -0.3227539 0 -0.9462891
vn -1 0 0
vn -1 0 0
vn -1 0 0
vn -1 0 0
vn -1 0 0
vn -1 0 0
vn -0.9760742 0.07421875 -0.2038574
vn -0.9760742 0.07421875 -0.2038574
vn -0.9760742 0.07421875 -0.2038574
vn -0.9760742 0.07421875 -0.2038574
vn 1 0 0
vn 1 0 0
vn 1 0 0
vn 1 0 0
vn 1 0 0
vn 1 0 0
vn 1 0 0
vn 1 0 0
vn 1 0 0
vn 0.9760742 0.07421875 -0.2038574
vn 0.9760742 0.07421875 -0.2038574
vn 0.9760742 0.07421875 -0.2038574
vn 0.9760742 0.07421875 -0.2038574
g bus-school-wheel_FR_0
f 3/3/3 2/2/2 1/1/1
f 6/6/6 5/5/5 4/4/4
f 9/9/9 8/8/8 7/7/7
f 12/12/12 11/11/11 10/10/10
f 15/15/15 14/14/14 13/13/13
f 18/18/18 17/17/17 16/16/16
f 21/21/21 20/20/20 19/19/19
f 24/24/24 23/23/23 22/22/22
f 27/27/27 26/26/26 25/25/25
f 30/30/30 29/29/29 28/28/28
f 31/31/31 30/30/30 28/28/28
f 34/34/34 33/33/33 32/32/32
f 35/35/35 34/34/34 32/32/32
f 38/38/38 37/37/37 36/36/36
f 39/39/39 38/38/38 36/36/36
f 42/42/42 41/41/41 40/40/40
f 43/43/43 42/42/42 40/40/40
f 46/46/46 45/45/45 44/44/44
f 47/47/47 46/46/46 44/44/44
f 50/50/50 49/49/49 48/48/48
f 51/51/51 50/50/50 48/48/48
f 54/54/54 53/53/53 52/52/52
f 55/55/55 54/54/54 52/52/52
f 58/58/58 57/57/57 56/56/56
f 59/59/59 58/58/58 56/56/56
f 62/62/62 61/61/61 60/60/60
f 63/63/63 62/62/62 60/60/60
f 66/66/66 65/65/65 64/64/64
f 67/67/67 66/66/66 64/64/64
f 70/70/70 69/69/69 68/68/68
f 71/71/71 70/70/70 68/68/68
f 74/74/74 73/73/73 72/72/72
f 75/75/75 74/74/74 72/72/72
f 78/78/78 77/77/77 76/76/76
f 79/79/79 78/78/78 76/76/76
f 82/82/82 81/81/81 80/80/80
f 83/83/83 82/82/82 80/80/80
f 86/86/86 85/85/85 84/84/84
f 87/87/87 86/86/86 84/84/84
f 90/90/90 89/89/89 88/88/88
f 91/91/91 90/90/90 88/88/88
f 94/94/94 93/93/93 92/92/92
f 95/95/95 94/94/94 92/92/92
f 98/98/98 97/97/97 96/96/96
f 99/99/99 98/98/98 96/96/96
f 102/102/102 101/101/101 100/100/100
f 103/103/103 102/102/102 100/100/100
f 106/106/106 105/105/105 104/104/104
f 107/107/107 106/106/106 104/104/104
f 110/110/110 109/109/109 108/108/108
f 111/111/111 110/110/110 108/108/108
f 114/114/114 113/113/113 112/112/112
f 115/115/115 114/114/114 112/112/112
f 118/118/118 117/117/117 116/116/116
f 119/119/119 118/118/118 116/116/116
f 122/122/122 121/121/121 120/120/120
f 123/123/123 122/122/122 120/120/120
f 126/126/126 125/125/125 124/124/124
f 127/127/127 126/126/126 124/124/124
f 130/130/130 129/129/129 128/128/128
f 131/131/131 130/130/130 128/128/128
f 134/134/134 133/133/133 132/132/132
f 135/135/135 134/134/134 132/132/132
f 138/138/138 137/137/137 136/136/136
f 139/139/139 138/138/138 136/136/136
f 142/142/142 141/141/141 140/140/140
f 143/143/143 142/142/142 140/140/140
f 146/146/146 145/145/145 144/144/144
f 147/147/147 146/146/146 144/144/144
f 150/150/150 149/149/149 148/148/148
f 151/151/151 150/150/150 148/148/148
f 154/154/154 153/153/153 152/152/152
f 153/153/153 155/155/155 152/152/152
f 152/152/152 155/155/155 156/156/156
f 155/155/155 157/157/157 156/156/156
f 160/160/160 159/159/159 158/158/158
f 161/161/161 160/160/160 158/158/158
f 164/164/164 163/163/163 162/162/162
f 162/162/162 165/165/165 164/164/164
f 162/162/162 166/166/166 165/165/165
f 166/166/166 167/167/167 165/165/165
f 166/166/166 168/168/168 167/167/167
f 168/168/168 169/169/169 167/167/167
f 168/168/168 170/170/170 169/169/169
f 173/173/173 172/172/172 171/171/171
f 174/174/174 173/173/173 171/171/171
