g car-taxi-wheel_BR
v 0.1080524 0.3536629 -0.0621829
v 0.1080525 0.230837 -0.2749235
v 0.1347414 0.1299055 -0.1593727
v 0.1347414 0.1990267 -0.03965116
v 0.1080525 -0.2308369 -0.2749235
v 0.1080525 -0.3536627 -0.06218302
v 0.1347414 -0.1990264 -0.03965116
v 0.1347414 -0.1299052 -0.1593727
v 0.1080524 0.1228259 0.3376384
v 0.1080524 0.3110059 0.1797367
v 0.1347414 0.1750211 0.0964911
v 0.1347414 0.06912115 0.1853514
v 0.1080525 -0.3110057 0.1797364
v 0.1080525 -0.1228258 0.3376384
v 0.1347414 -0.06912127 0.1853515
v 0.1347414 -0.1750209 0.09649097
v -0.1054596 -0.1228258 0.3376384
v 0.1080525 -0.1228258 0.3376384
v 0.1080525 -0.3110057 0.1797364
v -0.1054596 -0.3110057 0.1797364
v 0.1080525 -0.1228258 0.3376384
v 0.1080524 0.1228259 0.3376384
v 0.1347414 0.06912115 0.1853514
v 0.1347414 -0.06912127 0.1853515
v 0.1080525 0.230837 -0.2749235
v 0.1080525 1.490116E-07 -0.3589413
v 0.1347414 5.960464E-08 -0.2066543
v 0.1347414 0.1299055 -0.1593727
v 0.1347414 -0.1299052 -0.1593727
v 0.1347414 -0.1990264 -0.03965116
v 0.1347414 -0.1750209 0.09649097
v 0.1347414 -0.06912127 0.1853515
v 0.1347414 5.960464E-08 -0.2066543
v 0.1347414 0.06912115 0.1853514
v 0.1347414 0.1299055 -0.1593727
v 0.1347414 0.1750211 0.0964911
v 0.1347414 0.1990267 -0.03965116
v 0.1080525 -0.3536627 -0.06218302
v 0.1080525 -0.3110057 0.1797364
v 0.1347414 -0.1750209 0.09649097
v 0.1347414 -0.1990264 -0.03965116
v 0.1080525 1.490116E-07 -0.3589413
v 0.1080525 -0.2308369 -0.2749235
v 0.1347414 -0.1299052 -0.1593727
v 0.1347414 5.960464E-08 -0.2066543
v -0.1054596 -0.1228258 0.3376384
v -0.1321484 -0.06879663 0.1844311
v -0.1321484 0.06879666 0.1844311
v -0.1054596 0.1228259 0.3376384
v -0.1054596 -0.3536626 -0.06218302
v -0.1321484 -0.1980917 -0.03951502
v -0.1321484 -0.174199 0.09598768
v -0.1054596 -0.3110057 0.1797364
v -0.1054596 -0.230837 -0.2749235
v -0.1321484 -0.1292953 -0.1586742
v -0.1321484 -0.1980917 -0.03951502
v -0.1054596 -0.3536626 -0.06218302
v -0.1054596 0.3110059 0.1797367
v -0.1321484 0.1741992 0.0959878
v -0.1321484 0.1980921 -0.03951502
v -0.1054596 0.3536628 -0.0621829
v -0.1054596 0.230837 -0.2749235
v -0.1321484 0.1292955 -0.1586742
v -0.1321484 2.980232E-08 -0.2057339
v -0.1054596 1.192093E-07 -0.3589414
v -0.1054596 0.3536628 -0.0621829
v -0.1321484 0.1980921 -0.03951502
v -0.1321484 0.1292955 -0.1586742
v -0.1054596 0.230837 -0.2749235
v -0.1054596 1.192093E-07 -0.3589414
v -0.1321484 2.980232E-08 -0.2057339
v -0.1321484 -0.1292953 -0.1586742
v -0.1054596 -0.230837 -0.2749235
v -0.1054596 0.1228259 0.3376384
v -0.1321484 0.06879666 0.1844311
v -0.1321484 0.1741992 0.0959878
v -0.1054596 0.3110059 0.1797367
v -0.1054596 -0.3110057 0.1797364
v -0.1321484 -0.174199 0.09598768
v -0.1321484 -0.06879663 0.1844311
v -0.1054596 -0.1228258 0.3376384
v -0.1054596 0.1228259 0.3376384
v 0.1080524 0.1228259 0.3376384
v 0.1080525 -0.1228258 0.3376384
v -0.1054596 -0.1228258 0.3376384
v -0.1054596 0.3110059 0.1797367
v 0.1080524 0.3110059 0.1797367
v 0.1080524 0.1228259 0.3376384
v -0.1054596 0.1228259 0.3376384
v -0.1054596 -0.230837 -0.2749235
v 0.1080525 -0.2308369 -0.2749235
v 0.1080525 1.490116E-07 -0.3589413
v -0.1054596 1.192093E-07 -0.3589414
v -0.1054596 0.230837 -0.2749235
v 0.1080525 0.230837 -0.2749235
v 0.1080524 0.3536629 -0.0621829
v -0.1054596 0.3536628 -0.0621829
v -0.1054596 1.192093E-07 -0.3589414
v 0.1080525 1.490116E-07 -0.3589413
v 0.1080525 0.230837 -0.2749235
v -0.1054596 0.230837 -0.2749235
v -0.1054596 0.3536628 -0.0621829
v 0.1080524 0.3536629 -0.0621829
v 0.1080524 0.3110059 0.1797367
v -0.1054596 0.3110059 0.1797367
v 0.1080524 0.3110059 0.1797367
v 0.1080524 0.3536629 -0.0621829
v 0.1347414 0.1990267 -0.03965116
v 0.1347414 0.1750211 0.0964911
v -0.1054596 -0.3536626 -0.06218302
v 0.1080525 -0.3536627 -0.06218302
v 0.1080525 -0.2308369 -0.2749235
v -0.1054596 -0.230837 -0.2749235
v -0.1054596 -0.3110057 0.1797364
v 0.1080525 -0.3110057 0.1797364
v 0.1080525 -0.3536627 -0.06218302
v -0.1054596 -0.3536626 -0.06218302
v -0.1019022 8.940697E-08 -0.151414
v -0.1509238 1.192093E-07 -0.08615041
v -0.1509238 -0.05003858 -0.06793785
v -0.1019022 -0.09329355 -0.117458
v -0.1019022 0.1256942 0.06629455
v -0.1509238 0.06741706 0.03061914
v -0.1509238 0.07666391 -0.02182198
v -0.1019022 0.1429343 -0.03147817
v -0.1019022 0.04964054 0.1301112
v -0.1509238 0.02662513 0.06484759
v -0.1509238 0.06741706 0.03061914
v -0.1019022 0.1256942 0.06629455
v -0.1019022 -0.04964047 0.1301112
v -0.1509238 -0.02662495 0.06484759
v -0.1509238 0.02662513 0.06484759
v -0.1019022 0.04964054 0.1301112
v -0.1019022 -0.1429339 -0.03147817
v -0.1509238 -0.07666355 -0.02182198
v -0.1509238 -0.06741682 0.03061914
v -0.1019022 -0.125694 0.06629455
v -0.1019022 -0.125694 0.06629455
v -0.1509238 -0.06741682 0.03061914
v -0.1509238 -0.02662495 0.06484759
v -0.1019022 -0.04964047 0.1301112
v -0.1019022 0.09329375 -0.1174579
v -0.1509238 0.05003884 -0.06793773
v -0.1509238 1.192093E-07 -0.08615041
v -0.1019022 8.940697E-08 -0.151414
v -0.1019022 0.1429343 -0.03147817
v -0.1509238 0.07666391 -0.02182198
v -0.1509238 0.05003884 -0.06793773
v -0.1019022 0.09329375 -0.1174579
v -0.1019022 -0.09329355 -0.117458
v -0.1509238 -0.05003858 -0.06793785
v -0.1509238 -0.07666355 -0.02182198
v -0.1019022 -0.1429339 -0.03147817
v -0.1321484 -0.1980917 -0.03951502
v -0.1019022 -0.1429339 -0.03147817
v -0.1019022 -0.125694 0.06629455
v -0.1321484 -0.174199 0.09598768
v -0.1321484 0.06879666 0.1844311
v -0.1019022 0.04964054 0.1301112
v -0.1019022 0.1256942 0.06629455
v -0.1321484 0.1741992 0.0959878
v -0.1321484 0.1292955 -0.1586742
v -0.1019022 0.09329375 -0.1174579
v -0.1019022 8.940697E-08 -0.151414
v -0.1321484 2.980232E-08 -0.2057339
v -0.1321484 -0.1292953 -0.1586742
v -0.1019022 -0.09329355 -0.117458
v -0.1019022 -0.1429339 -0.03147817
v -0.1321484 -0.1980917 -0.03951502
v -0.1321484 -0.06879663 0.1844311
v -0.1019022 -0.04964047 0.1301112
v -0.1019022 0.04964054 0.1301112
v -0.1321484 0.06879666 0.1844311
v -0.1321484 0.1980921 -0.03951502
v -0.1019022 0.1429343 -0.03147817
v -0.1019022 0.09329375 -0.1174579
v -0.1321484 0.1292955 -0.1586742
v -0.1321484 2.980232E-08 -0.2057339
v -0.1019022 8.940697E-08 -0.151414
v -0.1019022 -0.09329355 -0.117458
v -0.1321484 -0.1292953 -0.1586742
v -0.1321484 -0.174199 0.09598768
v -0.1019022 -0.125694 0.06629455
v -0.1019022 -0.04964047 0.1301112
v -0.1321484 -0.06879663 0.1844311
v -0.1321484 0.1741992 0.0959878
v -0.1019022 0.1256942 0.06629455
v -0.1019022 0.1429343 -0.03147817
v -0.1321484 0.1980921 -0.03951502
v -0.1509238 0.05003884 -0.06793773
v -0.1509238 8.940697E-08 -0.008914351
v -0.1509238 1.192093E-07 -0.08615041
v -0.1509238 0.07666391 -0.02182198
v -0.1509238 -0.05003858 -0.06793785
v -0.1509238 0.06741706 0.03061914
v -0.1509238 -0.07666355 -0.02182198
v -0.1509238 0.02662513 0.06484759
v -0.1509238 -0.06741682 0.03061914
v -0.1509238 -0.02662495 0.06484759
vt 0.9383603 0.793563
vt 0.9656916 0.7887908
vt 0.9572687 0.7734261
vt 0.9420266 0.7761136
vt 0.9835541 0.7397711
vt 0.9657128 0.7185533
vt 0.9573006 0.7342579
vt 0.9672318 0.7461113
vt 0.9049509 0.753588
vt 0.9143729 0.7796492
vt 0.9286228 0.7683708
vt 0.9233331 0.7538262
vt 0.9384266 0.7137722
vt 0.914457 0.7275999
vt 0.928635 0.7392839
vt 0.9420561 0.7315674
vt 0.9229842 0.6828483
vt 0.9113593 0.7027511
vt 0.9384266 0.7137722
vt 0.9440553 0.6922545
vt 0.914457 0.7275999
vt 0.9049509 0.753588
vt 0.9233331 0.7538262
vt 0.928635 0.7392839
vt 0.9656916 0.7887908
vt 0.9835541 0.7675266
vt 0.967201 0.7615656
vt 0.9572687 0.7734261
vt 0.9672318 0.7461113
vt 0.9573006 0.7342579
vt 0.9420561 0.7315674
vt 0.928635 0.7392839
vt 0.967201 0.7615656
vt 0.9233331 0.7538262
vt 0.9572687 0.7734261
vt 0.9286228 0.7683708
vt 0.9420266 0.7761136
vt 0.9657128 0.7185533
vt 0.9384266 0.7137722
vt 0.9420561 0.7315674
vt 0.9573006 0.7342579
vt 0.9835541 0.7675266
vt 0.9835541 0.7397711
vt 0.9672318 0.7461113
vt 0.967201 0.7615656
vt 0.9229842 0.6828483
vt 0.9339435 0.6667432
vt 0.9202383 0.6555355
vt 0.9057424 0.6671617
vt 0.9698684 0.694837
vt 0.9652501 0.6765554
vt 0.949017 0.6754642
vt 0.9440553 0.6922545
vt 0.9229517 0.5651315
vt 0.9315804 0.5820266
vt 0.9505726 0.5774319
vt 0.9520476 0.5538613
vt 0.8943398 0.6471353
vt 0.9111959 0.640772
vt 0.9075329 0.6240317
vt 0.8900387 0.6245963
vt 0.8934042 0.6018943
vt 0.9095534 0.6071786
vt 0.9170641 0.5922217
vt 0.9044631 0.5816328
vt 0.8900387 0.6245963
vt 0.9075329 0.6240317
vt 0.9095534 0.6071786
vt 0.8934042 0.6018943
vt 0.9044631 0.5816328
vt 0.9170641 0.5922217
vt 0.9315804 0.5820266
vt 0.9229517 0.5651315
vt 0.9057424 0.6671617
vt 0.9202383 0.6555355
vt 0.9111959 0.640772
vt 0.8943398 0.6471353
vt 0.9440553 0.6922545
vt 0.949017 0.6754642
vt 0.9339435 0.6667432
vt 0.9229842 0.6828483
vt 0.9057424 0.6671617
vt 0.888154 0.6829678
vt 0.9113593 0.7027511
vt 0.9229842 0.6828483
vt 0.8943398 0.6471353
vt 0.8724795 0.6565406
vt 0.888154 0.6829678
vt 0.9057424 0.6671617
vt 0.9229517 0.5651315
vt 0.9063923 0.5434883
vt 0.8836116 0.5674498
vt 0.9044631 0.5816328
vt 0.8934042 0.6018943
vt 0.8700055 0.5957305
vt 0.8662025 0.6264026
vt 0.8900387 0.6245963
vt 0.9044631 0.5816328
vt 0.8836116 0.5674498
vt 0.8700055 0.5957305
vt 0.8934042 0.6018943
vt 0.8900387 0.6245963
vt 0.8662025 0.6264026
vt 0.8724795 0.6565406
vt 0.8943398 0.6471353
vt 0.9143729 0.7796492
vt 0.9383603 0.793563
vt 0.9420266 0.7761136
vt 0.9286228 0.7683708
vt 0.9520476 0.5538613
vt 0.9377433 0.5254393
vt 0.9063923 0.5434883
vt 0.9229517 0.5651315
vt 0.9440553 0.6922545
vt 0.9384266 0.7137722
vt 0.9657128 0.7185533
vt 0.9698684 0.694837
vt 0.9265686 0.02210076
vt 0.9349477 0.02517436
vt 0.9382679 0.02102452
vt 0.9340959 0.01312682
vt 0.9455286 0.04467041
vt 0.9435384 0.03571393
vt 0.9381906 0.03468617
vt 0.93404 0.04273313
vt 0.9555538 0.03880377
vt 0.948328 0.03304492
vt 0.9435384 0.03571393
vt 0.9455286 0.04467041
vt 0.9595146 0.02795449
vt 0.9503263 0.0278683
vt 0.948328 0.03304492
vt 0.9555538 0.03880377
vt 0.9455873 0.01119772
vt 0.9435801 0.02001395
vt 0.948347 0.0226902
vt 0.9555931 0.01709214
vt 0.9555931 0.01709214
vt 0.948347 0.0226902
vt 0.9503263 0.0278683
vt 0.9595146 0.02795449
vt 0.9265016 0.03382067
vt 0.9347951 0.03048539
vt 0.9349477 0.02517436
vt 0.9265686 0.02210076
vt 0.93404 0.04273313
vt 0.9381906 0.03468617
vt 0.9347951 0.03048539
vt 0.9265016 0.03382067
vt 0.9340959 0.01312682
vt 0.9382679 0.02102452
vt 0.9435801 0.02001395
vt 0.9455873 0.01119772
vt 0.9472442 0.003738396
vt 0.9455873 0.01119772
vt 0.9555931 0.01709214
vt 0.9616683 0.01235784
vt 0.9616036 0.04368458
vt 0.9555538 0.03880377
vt 0.9455286 0.04467041
vt 0.9471659 0.05224333
vt 0.9194258 0.03661466
vt 0.9265016 0.03382067
vt 0.9265686 0.02210076
vt 0.9194258 0.0194784
vt 0.9305106 0.006433551
vt 0.9340959 0.01312682
vt 0.9455873 0.01119772
vt 0.9472442 0.003738396
vt 0.96725 0.02803646
vt 0.9595146 0.02795449
vt 0.9555538 0.03880377
vt 0.9616036 0.04368458
vt 0.9304845 0.04953067
vt 0.93404 0.04273313
vt 0.9265016 0.03382067
vt 0.9194258 0.03661466
vt 0.9194258 0.0194784
vt 0.9265686 0.02210076
vt 0.9340959 0.01312682
vt 0.9305106 0.006433551
vt 0.9616683 0.01235784
vt 0.9555931 0.01709214
vt 0.9595146 0.02795449
vt 0.96725 0.02803646
vt 0.9471659 0.05224333
vt 0.9455286 0.04467041
vt 0.93404 0.04273313
vt 0.9304845 0.04953067
vt 0.9347951 0.03048539
vt 0.9422006 0.02783469
vt 0.9349477 0.02517436
vt 0.9381906 0.03468617
vt 0.9382679 0.02102452
vt 0.9435384 0.03571393
vt 0.9435801 0.02001395
vt 0.948328 0.03304492
vt 0.948347 0.0226902
vt 0.9503263 0.0278683
vn 0.9835203 0.1565758 -0.09039872
vn 0.9835203 0.1565758 -0.09039872
vn 0.9835203 0.1565758 -0.09039872
vn 0.9835203 0.1565758 -0.09039872
vn 0.9835204 -0.1565752 -0.09039868
vn 0.9835204 -0.1565752 -0.09039868
vn 0.9835204 -0.1565752 -0.09039868
vn 0.9835204 -0.1565752 -0.09039868
vn 0.984772 0.1117487 0.1331772
vn 0.984772 0.1117487 0.1331772
vn 0.984772 0.1117487 0.1331772
vn 0.984772 0.1117487 0.1331772
vn 0.9847721 -0.1117487 0.1331767
vn 0.9847721 -0.1117487 0.1331767
vn 0.9847721 -0.1117487 0.1331767
vn 0.9847721 -0.1117487 0.1331767
vn 0 -0.6427883 0.7660438
vn 0 -0.6427883 0.7660438
vn 0 -0.6427883 0.7660438
vn 0 -0.6427883 0.7660438
vn 0.9849879 3.608982E-07 0.1726234
vn 0.9849879 3.608982E-07 0.1726234
vn 0.9849879 3.608982E-07 0.1726234
vn 0.9849879 3.608982E-07 0.1726234
vn 0.9830496 0.06270591 -0.1722832
vn 0.9830496 0.06270591 -0.1722832
vn 0.9830496 0.06270591 -0.1722832
vn 0.9830496 0.06270591 -0.1722832
vn 1 0 0
vn 1 0 0
vn 1 0 0
vn 1 0 0
vn 1 0 0
vn 1 0 0
vn 1 0 0
vn 1 0 0
vn 1 0 0
vn 0.9842047 -0.1743445 0.03074172
vn 0.9842047 -0.1743445 0.03074172
vn 0.9842047 -0.1743445 0.03074172
vn 0.9842047 -0.1743445 0.03074172
vn 0.9830496 -0.06270591 -0.1722832
vn 0.9830496 -0.06270591 -0.1722832
vn 0.9830496 -0.06270591 -0.1722832
vn 0.9830496 -0.06270591 -0.1722832
vn -0.9851638 0 0.1716166
vn -0.9851638 0 0.1716166
vn -0.9851638 0 0.1716166
vn -0.9851638 0 0.1716166
vn -0.9843895 -0.1733297 0.03056257
vn -0.9843895 -0.1733297 0.03056257
vn -0.9843895 -0.1733297 0.03056257
vn -0.9843895 -0.1733297 0.03056257
vn -0.983713 -0.1556651 -0.08987305
vn -0.983713 -0.1556651 -0.08987305
vn -0.983713 -0.1556651 -0.08987305
vn -0.983713 -0.1556651 -0.08987305
vn -0.9843895 0.1733297 0.03056273
vn -0.9843895 0.1733297 0.03056273
vn -0.9843895 0.1733297 0.03056273
vn -0.9843895 0.1733297 0.03056273
vn -0.9832476 0.06234176 -0.1712825
vn -0.9832476 0.06234176 -0.1712825
vn -0.9832476 0.06234176 -0.1712825
vn -0.9832476 0.06234176 -0.1712825
vn -0.9837129 0.1556653 -0.08987331
vn -0.9837129 0.1556653 -0.08987331
vn -0.9837129 0.1556653 -0.08987331
vn -0.9837129 0.1556653 -0.08987331
vn -0.9832476 -0.06234176 -0.1712826
vn -0.9832476 -0.06234176 -0.1712826
vn -0.9832476 -0.06234176 -0.1712826
vn -0.9832476 -0.06234176 -0.1712826
vn -0.9849505 0.1110971 0.1324005
vn -0.9849505 0.1110971 0.1324005
vn -0.9849505 0.1110971 0.1324005
vn -0.9849505 0.1110971 0.1324005
vn -0.9849505 -0.1110974 0.1324004
vn -0.9849505 -0.1110974 0.1324004
vn -0.9849505 -0.1110974 0.1324004
vn -0.9849505 -0.1110974 0.1324004
vn 0 0 1
vn 0 0 1
vn 0 0 1
vn 0 0 1
vn 0 0.6427873 0.7660447
vn 0 0.6427873 0.7660447
vn 0 0.6427873 0.7660447
vn 0 0.6427873 0.7660447
vn 3.551305E-07 -0.3420201 -0.9396926
vn 3.551305E-07 -0.3420201 -0.9396926
vn 3.551305E-07 -0.3420201 -0.9396926
vn 3.551305E-07 -0.3420201 -0.9396926
vn -2.130783E-07 0.8660254 -0.4999999
vn -2.130783E-07 0.8660254 -0.4999999
vn -2.130783E-07 0.8660254 -0.4999999
vn -2.130783E-07 0.8660254 -0.4999999
vn 2.30835E-07 0.3420204 -0.9396926
vn 2.30835E-07 0.3420204 -0.9396926
vn 2.30835E-07 0.3420204 -0.9396926
vn 2.30835E-07 0.3420204 -0.9396926
vn -2.841046E-07 0.9848077 0.1736482
vn -2.841046E-07 0.9848077 0.1736482
vn -2.841046E-07 0.9848077 0.1736482
vn -2.841046E-07 0.9848077 0.1736482
vn 0.9842046 0.1743453 0.03074181
vn 0.9842046 0.1743453 0.03074181
vn 0.9842046 0.1743453 0.03074181
vn 0.9842046 0.1743453 0.03074181
vn 0 -0.8660255 -0.4999998
vn 0 -0.8660255 -0.4999998
vn 0 -0.8660255 -0.4999998
vn 0 -0.8660255 -0.4999998
vn -1.420524E-07 -0.9848077 0.1736483
vn -1.420524E-07 -0.9848077 0.1736483
vn -1.420524E-07 -0.9848077 0.1736483
vn -1.420524E-07 -0.9848077 0.1736483
vn -0.7811207 -0.2135502 -0.5867254
vn -0.7811207 -0.2135502 -0.5867254
vn -0.7811207 -0.2135502 -0.5867254
vn -0.7811207 -0.2135502 -0.5867254
vn -0.7919689 0.6012856 0.1060236
vn -0.7919689 0.6012856 0.1060236
vn -0.7919689 0.6012856 0.1060236
vn -0.7919689 0.6012856 0.1060236
vn -0.7974521 0.3878468 0.4622177
vn -0.7974521 0.3878468 0.4622177
vn -0.7974521 0.3878468 0.4622177
vn -0.7974521 0.3878468 0.4622177
vn -0.7995649 0 0.6005796
vn -0.7995649 0 0.6005796
vn -0.7995649 0 0.6005796
vn -0.7995649 0 0.6005796
vn -0.791969 -0.6012856 0.1060223
vn -0.791969 -0.6012856 0.1060223
vn -0.791969 -0.6012856 0.1060223
vn -0.791969 -0.6012856 0.1060223
vn -0.7974524 -0.3878467 0.4622171
vn -0.7974524 -0.3878467 0.4622171
vn -0.7974524 -0.3878467 0.4622171
vn -0.7974524 -0.3878467 0.4622171
vn -0.7811206 0.2135511 -0.5867252
vn -0.7811206 0.2135511 -0.5867252
vn -0.7811206 0.2135511 -0.5867252
vn -0.7811206 0.2135511 -0.5867252
vn -0.7854922 0.5359581 -0.3094364
vn -0.7854922 0.5359581 -0.3094364
vn -0.7854922 0.5359581 -0.3094364
vn -0.7854922 0.5359581 -0.3094364
vn -0.7854924 -0.5359586 -0.3094352
vn -0.7854924 -0.5359586 -0.3094352
vn -0.7854924 -0.5359586 -0.3094352
vn -0.7854924 -0.5359586 -0.3094352
vn -0.8682162 0.4886481 -0.08616143
vn -0.8682162 0.4886481 -0.08616143
vn -0.8682162 0.4886481 -0.08616143
vn -0.8682162 0.4886481 -0.08616143
vn -0.8721721 -0.3144514 -0.374748
vn -0.8721721 -0.3144514 -0.374748
vn -0.8721721 -0.3144514 -0.374748
vn -0.8721721 -0.3144514 -0.374748
vn -0.8603066 -0.174354 0.4790336
vn -0.8603066 -0.174354 0.4790336
vn -0.8603066 -0.174354 0.4790336
vn -0.8603066 -0.174354 0.4790336
vn -0.8635069 0.4367689 0.252168
vn -0.8635069 0.4367689 0.252168
vn -0.8635069 0.4367689 0.252168
vn -0.8635069 0.4367689 0.252168
vn -0.8736888 0 -0.4864853
vn -0.8736888 0 -0.4864853
vn -0.8736888 0 -0.4864853
vn -0.8736888 0 -0.4864853
vn -0.8635072 -0.4367682 0.2521684
vn -0.8635072 -0.4367682 0.2521684
vn -0.8635072 -0.4367682 0.2521684
vn -0.8635072 -0.4367682 0.2521684
vn -0.8603063 0.1743539 0.4790341
vn -0.8603063 0.1743539 0.4790341
vn -0.8603063 0.1743539 0.4790341
vn -0.8603063 0.1743539 0.4790341
vn -0.8721719 0.3144518 -0.374748
vn -0.8721719 0.3144518 -0.374748
vn -0.8721719 0.3144518 -0.374748
vn -0.8721719 0.3144518 -0.374748
vn -0.8682162 -0.488648 -0.08616227
vn -0.8682162 -0.488648 -0.08616227
vn -0.8682162 -0.488648 -0.08616227
vn -0.8682162 -0.488648 -0.08616227
vn -1 0 0
vn -1 0 -2.409762E-07
vn -1 0 -2.409762E-07
vn -1 0 0
vn -1 0 -2.409762E-07
vn -1 0 0
vn -1 0 0
vn -1 0 0
vn -1 0 0
vn -1 0 0
g car-taxi-wheel_BR_0
f 3/3/3 2/2/2 1/1/1
f 4/4/4 3/3/3 1/1/1
f 7/7/7 6/6/6 5/5/5
f 8/8/8 7/7/7 5/5/5
f 11/11/11 10/10/10 9/9/9
f 12/12/12 11/11/11 9/9/9
f 15/15/15 14/14/14 13/13/13
f 16/16/16 15/15/15 13/13/13
f 19/19/19 18/18/18 17/17/17
f 20/20/20 19/19/19 17/17/17
f 23/23/23 22/22/22 21/21/21
f 24/24/24 23/23/23 21/21/21
f 27/27/27 26/26/26 25/25/25
f 28/28/28 27/27/27 25/25/25
f 31/31/31 30/30/30 29/29/29
f 29/29/29 32/32/32 31/31/31
f 29/29/29 33/33/33 32/32/32
f 33/33/33 34/34/34 32/32/32
f 33/33/33 35/35/35 34/34/34
f 35/35/35 36/36/36 34/34/34
f 35/35/35 37/37/37 36/36/36
f 40/40/40 39/39/39 38/38/38
f 41/41/41 40/40/40 38/38/38
f 44/44/44 43/43/43 42/42/42
f 45/45/45 44/44/44 42/42/42
f 48/48/48 47/47/47 46/46/46
f 49/49/49 48/48/48 46/46/46
f 52/52/52 51/51/51 50/50/50
f 53/53/53 52/52/52 50/50/50
f 56/56/56 55/55/55 54/54/54
f 57/57/57 56/56/56 54/54/54
f 60/60/60 59/59/59 58/58/58
f 61/61/61 60/60/60 58/58/58
f 64/64/64 63/63/63 62/62/62
f 65/65/65 64/64/64 62/62/62
f 68/68/68 67/67/67 66/66/66
f 69/69/69 68/68/68 66/66/66
f 72/72/72 71/71/71 70/70/70
f 73/73/73 72/72/72 70/70/70
f 76/76/76 75/75/75 74/74/74
f 77/77/77 76/76/76 74/74/74
f 80/80/80 79/79/79 78/78/78
f 81/81/81 80/80/80 78/78/78
f 84/84/84 83/83/83 82/82/82
f 85/85/85 84/84/84 82/82/82
f 88/88/88 87/87/87 86/86/86
f 89/89/89 88/88/88 86/86/86
f 92/92/92 91/91/91 90/90/90
f 93/93/93 92/92/92 90/90/90
f 96/96/96 95/95/95 94/94/94
f 97/97/97 96/96/96 94/94/94
f 100/100/100 99/99/99 98/98/98
f 101/101/101 100/100/100 98/98/98
f 104/104/104 103/103/103 102/102/102
f 105/105/105 104/104/104 102/102/102
f 108/108/108 107/107/107 106/106/106
f 109/109/109 108/108/108 106/106/106
f 112/112/112 111/111/111 110/110/110
f 113/113/113 112/112/112 110/110/110
f 116/116/116 115/115/115 114/114/114
f 117/117/117 116/116/116 114/114/114
g car-taxi-wheel_BR_1
f 120/120/120 119/119/119 118/118/118
f 121/121/121 120/120/120 118/118/118
f 124/124/124 123/123/123 122/122/122
f 125/125/125 124/124/124 122/122/122
f 128/128/128 127/127/127 126/126/126
f 129/129/129 128/128/128 126/126/126
f 132/132/132 131/131/131 130/130/130
f 133/133/133 132/132/132 130/130/130
f 136/136/136 135/135/135 134/134/134
f 137/137/137 136/136/136 134/134/134
f 140/140/140 139/139/139 138/138/138
f 141/141/141 140/140/140 138/138/138
f 144/144/144 143/143/143 142/142/142
f 145/145/145 144/144/144 142/142/142
f 148/148/148 147/147/147 146/146/146
f 149/149/149 148/148/148 146/146/146
f 152/152/152 151/151/151 150/150/150
f 153/153/153 152/152/152 150/150/150
f 156/156/156 155/155/155 154/154/154
f 157/157/157 156/156/156 154/154/154
f 160/160/160 159/159/159 158/158/158
f 161/161/161 160/160/160 158/158/158
f 164/164/164 163/163/163 162/162/162
f 165/165/165 164/164/164 162/162/162
f 168/168/168 167/167/167 166/166/166
f 169/169/169 168/168/168 166/166/166
f 172/172/172 171/171/171 170/170/170
f 173/173/173 172/172/172 170/170/170
f 176/176/176 175/175/175 174/174/174
f 177/177/177 176/176/176 174/174/174
f 180/180/180 179/179/179 178/178/178
f 181/181/181 180/180/180 178/178/178
f 184/184/184 183/183/183 182/182/182
f 185/185/185 184/184/184 182/182/182
f 188/188/188 187/187/187 186/186/186
f 189/189/189 188/188/188 186/186/186
f 192/192/192 191/191/191 190/190/190
f 190/190/190 191/191/191 193/193/193
f 194/194/194 191/191/191 192/192/192
f 193/193/193 191/191/191 195/195/195
f 196/196/196 191/191/191 194/194/194
f 195/195/195 191/191/191 197/197/197
f 198/198/198 191/191/191 196/196/196
f 197/197/197 191/191/191 199/199/199
f 199/199/199 191/191/191 198/198/198
