g car-taxi-wheel_BL
v -0.1080524 0.3536629 -0.0621829
v -0.1347414 0.1990267 -0.03965116
v -0.1347414 0.1299055 -0.1593727
v -0.1080525 0.230837 -0.2749235
v -0.1080525 -0.2308369 -0.2749235
v -0.1347414 -0.1299052 -0.1593727
v -0.1347414 -0.1990264 -0.03965116
v -0.1080525 -0.3536627 -0.06218302
v -0.1080524 0.1228259 0.3376384
v -0.1347414 0.06912115 0.1853514
v -0.1347414 0.1750211 0.0964911
v -0.1080524 0.3110059 0.1797367
v -0.1080525 -0.3110057 0.1797364
v -0.1347414 -0.1750209 0.09649097
v -0.1347414 -0.06912127 0.1853515
v -0.1080525 -0.1228258 0.3376384
v 0.1054596 -0.1228258 0.3376384
v 0.1054596 -0.3110057 0.1797364
v -0.1080525 -0.3110057 0.1797364
v -0.1080525 -0.1228258 0.3376384
v -0.1080525 -0.1228258 0.3376384
v -0.1347414 -0.06912127 0.1853515
v -0.1347414 0.06912115 0.1853514
v -0.1080524 0.1228259 0.3376384
v -0.1080525 0.230837 -0.2749235
v -0.1347414 0.1299055 -0.1593727
v -0.1347414 5.960464E-08 -0.2066543
v -0.1080525 1.490116E-07 -0.3589413
v -0.1347414 -0.1750209 0.09649097
v -0.1347414 -0.1990264 -0.03965116
v -0.1347414 -0.1299052 -0.1593727
v -0.1347414 -0.06912127 0.1853515
v -0.1347414 5.960464E-08 -0.2066543
v -0.1347414 0.06912115 0.1853514
v -0.1347414 0.1299055 -0.1593727
v -0.1347414 0.1750211 0.0964911
v -0.1347414 0.1990267 -0.03965116
v -0.1080525 -0.3536627 -0.06218302
v -0.1347414 -0.1990264 -0.03965116
v -0.1347414 -0.1750209 0.09649097
v -0.1080525 -0.3110057 0.1797364
v -0.1080525 1.490116E-07 -0.3589413
v -0.1347414 5.960464E-08 -0.2066543
v -0.1347414 -0.1299052 -0.1593727
v -0.1080525 -0.2308369 -0.2749235
v 0.1054596 -0.1228258 0.3376384
v 0.1054596 0.1228259 0.3376384
v 0.1321484 0.06879666 0.1844311
v 0.1321484 -0.06879663 0.1844311
v 0.1054596 -0.3536626 -0.06218302
v 0.1054596 -0.3110057 0.1797364
v 0.1321484 -0.174199 0.09598768
v 0.1321484 -0.1980917 -0.03951502
v 0.1054596 -0.230837 -0.2749235
v 0.1054596 -0.3536626 -0.06218302
v 0.1321484 -0.1980917 -0.03951502
v 0.1321484 -0.1292953 -0.1586742
v 0.1054596 0.3110059 0.1797367
v 0.1054596 0.3536628 -0.0621829
v 0.1321484 0.1980921 -0.03951502
v 0.1321484 0.1741992 0.0959878
v 0.1054596 0.230837 -0.2749235
v 0.1054596 1.192093E-07 -0.3589414
v 0.1321484 2.980232E-08 -0.2057339
v 0.1321484 0.1292955 -0.1586742
v 0.1054596 0.3536628 -0.0621829
v 0.1054596 0.230837 -0.2749235
v 0.1321484 0.1292955 -0.1586742
v 0.1321484 0.1980921 -0.03951502
v 0.1054596 1.192093E-07 -0.3589414
v 0.1054596 -0.230837 -0.2749235
v 0.1321484 -0.1292953 -0.1586742
v 0.1321484 2.980232E-08 -0.2057339
v 0.1054596 0.1228259 0.3376384
v 0.1054596 0.3110059 0.1797367
v 0.1321484 0.1741992 0.0959878
v 0.1321484 0.06879666 0.1844311
v 0.1054596 -0.3110057 0.1797364
v 0.1054596 -0.1228258 0.3376384
v 0.1321484 -0.06879663 0.1844311
v 0.1321484 -0.174199 0.09598768
v 0.1054596 0.1228259 0.3376384
v 0.1054596 -0.1228258 0.3376384
v -0.1080525 -0.1228258 0.3376384
v -0.1080524 0.1228259 0.3376384
v 0.1054596 0.3110059 0.1797367
v 0.1054596 0.1228259 0.3376384
v -0.1080524 0.1228259 0.3376384
v -0.1080524 0.3110059 0.1797367
v 0.1054596 -0.230837 -0.2749235
v 0.1054596 1.192093E-07 -0.3589414
v -0.1080525 1.490116E-07 -0.3589413
v -0.1080525 -0.2308369 -0.2749235
v 0.1054596 0.230837 -0.2749235
v 0.1054596 0.3536628 -0.0621829
v -0.1080524 0.3536629 -0.0621829
v -0.1080525 0.230837 -0.2749235
v 0.1054596 1.192093E-07 -0.3589414
v 0.1054596 0.230837 -0.2749235
v -0.1080525 0.230837 -0.2749235
v -0.1080525 1.490116E-07 -0.3589413
v 0.1054596 0.3536628 -0.0621829
v 0.1054596 0.3110059 0.1797367
v -0.1080524 0.3110059 0.1797367
v -0.1080524 0.3536629 -0.0621829
v -0.1080524 0.3110059 0.1797367
v -0.1347414 0.1750211 0.0964911
v -0.1347414 0.1990267 -0.03965116
v -0.1080524 0.3536629 -0.0621829
v 0.1054596 -0.3536626 -0.06218302
v 0.1054596 -0.230837 -0.2749235
v -0.1080525 -0.2308369 -0.2749235
v -0.1080525 -0.3536627 -0.06218302
v 0.1054596 -0.3110057 0.1797364
v 0.1054596 -0.3536626 -0.06218302
v -0.1080525 -0.3536627 -0.06218302
v -0.1080525 -0.3110057 0.1797364
v 0.1019022 8.940697E-08 -0.151414
v 0.1019022 -0.09329355 -0.117458
v 0.1509238 -0.05003858 -0.06793785
v 0.1509238 1.192093E-07 -0.08615041
v 0.1019022 0.1256942 0.06629455
v 0.1019022 0.1429343 -0.03147817
v 0.1509238 0.07666391 -0.02182198
v 0.1509238 0.06741706 0.03061914
v 0.1019022 0.04964054 0.1301112
v 0.1019022 0.1256942 0.06629455
v 0.1509238 0.06741706 0.03061914
v 0.1509238 0.02662513 0.06484759
v 0.1019022 -0.04964047 0.1301112
v 0.1019022 0.04964054 0.1301112
v 0.1509238 0.02662513 0.06484759
v 0.1509238 -0.02662495 0.06484759
v 0.1019022 -0.1429339 -0.03147817
v 0.1019022 -0.125694 0.06629455
v 0.1509238 -0.06741682 0.03061914
v 0.1509238 -0.07666355 -0.02182198
v 0.1019022 -0.125694 0.06629455
v 0.1019022 -0.04964047 0.1301112
v 0.1509238 -0.02662495 0.06484759
v 0.1509238 -0.06741682 0.03061914
v 0.1019022 0.09329375 -0.1174579
v 0.1019022 8.940697E-08 -0.151414
v 0.1509238 1.192093E-07 -0.08615041
v 0.1509238 0.05003884 -0.06793773
v 0.1019022 0.1429343 -0.03147817
v 0.1019022 0.09329375 -0.1174579
v 0.1509238 0.05003884 -0.06793773
v 0.1509238 0.07666391 -0.02182198
v 0.1019022 -0.09329355 -0.117458
v 0.1019022 -0.1429339 -0.03147817
v 0.1509238 -0.07666355 -0.02182198
v 0.1509238 -0.05003858 -0.06793785
v 0.1321484 -0.1980917 -0.03951502
v 0.1321484 -0.174199 0.09598768
v 0.1019022 -0.125694 0.06629455
v 0.1019022 -0.1429339 -0.03147817
v 0.1321484 0.06879666 0.1844311
v 0.1321484 0.1741992 0.0959878
v 0.1019022 0.1256942 0.06629455
v 0.1019022 0.04964054 0.1301112
v 0.1321484 0.1292955 -0.1586742
v 0.1321484 2.980232E-08 -0.2057339
v 0.1019022 8.940697E-08 -0.151414
v 0.1019022 0.09329375 -0.1174579
v 0.1321484 -0.1292953 -0.1586742
v 0.1321484 -0.1980917 -0.03951502
v 0.1019022 -0.1429339 -0.03147817
v 0.1019022 -0.09329355 -0.117458
v 0.1321484 -0.06879663 0.1844311
v 0.1321484 0.06879666 0.1844311
v 0.1019022 0.04964054 0.1301112
v 0.1019022 -0.04964047 0.1301112
v 0.1321484 0.1980921 -0.03951502
v 0.1321484 0.1292955 -0.1586742
v 0.1019022 0.09329375 -0.1174579
v 0.1019022 0.1429343 -0.03147817
v 0.1321484 2.980232E-08 -0.2057339
v 0.1321484 -0.1292953 -0.1586742
v 0.1019022 -0.09329355 -0.117458
v 0.1019022 8.940697E-08 -0.151414
v 0.1321484 -0.174199 0.09598768
v 0.1321484 -0.06879663 0.1844311
v 0.1019022 -0.04964047 0.1301112
v 0.1019022 -0.125694 0.06629455
v 0.1321484 0.1741992 0.0959878
v 0.1321484 0.1980921 -0.03951502
v 0.1019022 0.1429343 -0.03147817
v 0.1019022 0.1256942 0.06629455
v 0.1509238 0.05003884 -0.06793773
v 0.1509238 1.192093E-07 -0.08615041
v 0.1509238 8.940697E-08 -0.008914351
v 0.1509238 0.07666391 -0.02182198
v 0.1509238 -0.05003858 -0.06793785
v 0.1509238 0.06741706 0.03061914
v 0.1509238 -0.07666355 -0.02182198
v 0.1509238 0.02662513 0.06484759
v 0.1509238 -0.06741682 0.03061914
v 0.1509238 -0.02662495 0.06484759
vt 0.7864949 0.7935771
vt 0.782832 0.776143
vt 0.7676085 0.7734569
vt 0.7591918 0.7888064
vt 0.7413459 0.7398029
vt 0.7576706 0.7461452
vt 0.7676077 0.7342868
vt 0.7591919 0.7185805
vt 0.8199168 0.7536441
vt 0.8015387 0.7538626
vt 0.7962297 0.768397
vt 0.8104664 0.7796845
vt 0.7864828 0.713801
vt 0.7828448 0.7315899
vt 0.7962534 0.7393152
vt 0.8104398 0.7276468
vt 0.8019302 0.6828738
vt 0.7808551 0.6922796
vt 0.7864828 0.713801
vt 0.8135551 0.7027807
vt 0.8104398 0.7276468
vt 0.7962534 0.7393152
vt 0.8015387 0.7538626
vt 0.8199168 0.7536441
vt 0.7591918 0.7888064
vt 0.7676085 0.7734569
vt 0.7576948 0.7616091
vt 0.7413459 0.7675615
vt 0.7828448 0.7315899
vt 0.7676077 0.7342868
vt 0.7576706 0.7461452
vt 0.7962534 0.7393152
vt 0.7576948 0.7616091
vt 0.8015387 0.7538626
vt 0.7676085 0.7734569
vt 0.7962297 0.768397
vt 0.782832 0.776143
vt 0.7591919 0.7185805
vt 0.7676077 0.7342868
vt 0.7828448 0.7315899
vt 0.7864828 0.713801
vt 0.7413459 0.7675615
vt 0.7576948 0.7616091
vt 0.7576706 0.7461452
vt 0.7413459 0.7398029
vt 0.8019302 0.6828738
vt 0.819176 0.6671863
vt 0.8046789 0.6555571
vt 0.7909706 0.6667652
vt 0.7550377 0.6948602
vt 0.7808551 0.6922796
vt 0.775894 0.6754861
vt 0.7596583 0.6765762
vt 0.8019732 0.5651389
vt 0.7728738 0.5538644
vt 0.774347 0.5774388
vt 0.7933416 0.5820358
vt 0.8305822 0.6471578
vt 0.8348858 0.6246157
vt 0.8173891 0.6240495
vt 0.813724 0.6407921
vt 0.8315219 0.60191
vt 0.8204632 0.5816444
vt 0.8078592 0.5922338
vt 0.8153698 0.6071936
vt 0.8348858 0.6246157
vt 0.8315219 0.60191
vt 0.8153698 0.6071936
vt 0.8173891 0.6240495
vt 0.8204632 0.5816444
vt 0.8019732 0.5651389
vt 0.7933416 0.5820358
vt 0.8078592 0.5922338
vt 0.819176 0.6671863
vt 0.8305822 0.6471578
vt 0.813724 0.6407921
vt 0.8046789 0.6555571
vt 0.7808551 0.6922796
vt 0.8019302 0.6828738
vt 0.7909706 0.6667652
vt 0.775894 0.6754861
vt 0.819176 0.6671863
vt 0.8019302 0.6828738
vt 0.8135551 0.7027807
vt 0.8367656 0.6829964
vt 0.8305822 0.6471578
vt 0.819176 0.6671863
vt 0.8367656 0.6829964
vt 0.8524449 0.6565665
vt 0.8019732 0.5651389
vt 0.8204632 0.5816444
vt 0.8413191 0.5674611
vt 0.818537 0.5434939
vt 0.8315219 0.60191
vt 0.8348858 0.6246157
vt 0.8587257 0.6264244
vt 0.8549247 0.5957474
vt 0.8204632 0.5816444
vt 0.8315219 0.60191
vt 0.8549247 0.5957474
vt 0.8413191 0.5674611
vt 0.8348858 0.6246157
vt 0.8305822 0.6471578
vt 0.8524449 0.6565665
vt 0.8587257 0.6264244
vt 0.8104664 0.7796845
vt 0.7962297 0.768397
vt 0.782832 0.776143
vt 0.7864949 0.7935771
vt 0.7728738 0.5538644
vt 0.8019732 0.5651389
vt 0.818537 0.5434939
vt 0.7871828 0.5254393
vt 0.7808551 0.6922796
vt 0.7550377 0.6948602
vt 0.7591919 0.7185805
vt 0.7864828 0.713801
vt 0.9292595 0.4266644
vt 0.9217321 0.4176905
vt 0.9175602 0.4255882
vt 0.9208803 0.429738
vt 0.9102995 0.449234
vt 0.9217881 0.4472968
vt 0.9176375 0.4392498
vt 0.9122897 0.4402776
vt 0.9002742 0.4433674
vt 0.9102995 0.449234
vt 0.9122897 0.4402776
vt 0.9075 0.4376086
vt 0.8963135 0.4325181
vt 0.9002742 0.4433674
vt 0.9075 0.4376086
vt 0.9055018 0.432432
vt 0.9102408 0.4157614
vt 0.9002349 0.4216558
vt 0.9074811 0.4272538
vt 0.912248 0.4245776
vt 0.9002349 0.4216558
vt 0.8963135 0.4325181
vt 0.9055018 0.432432
vt 0.9074811 0.4272538
vt 0.9293265 0.4383843
vt 0.9292595 0.4266644
vt 0.9208803 0.429738
vt 0.9210329 0.435049
vt 0.9217881 0.4472968
vt 0.9293265 0.4383843
vt 0.9210329 0.435049
vt 0.9176375 0.4392498
vt 0.9217321 0.4176905
vt 0.9102408 0.4157614
vt 0.912248 0.4245776
vt 0.9175602 0.4255882
vt 0.9085838 0.408302
vt 0.8941597 0.4169214
vt 0.9002349 0.4216558
vt 0.9102408 0.4157614
vt 0.8942244 0.4482482
vt 0.9086621 0.456807
vt 0.9102995 0.449234
vt 0.9002742 0.4433674
vt 0.9364023 0.4411783
vt 0.9364023 0.4240421
vt 0.9292595 0.4266644
vt 0.9293265 0.4383843
vt 0.9253175 0.4109972
vt 0.9085838 0.408302
vt 0.9102408 0.4157614
vt 0.9217321 0.4176905
vt 0.888578 0.4326001
vt 0.8942244 0.4482482
vt 0.9002742 0.4433674
vt 0.8963135 0.4325181
vt 0.9253435 0.4540943
vt 0.9364023 0.4411783
vt 0.9293265 0.4383843
vt 0.9217881 0.4472968
vt 0.9364023 0.4240421
vt 0.9253175 0.4109972
vt 0.9217321 0.4176905
vt 0.9292595 0.4266644
vt 0.8941597 0.4169214
vt 0.888578 0.4326001
vt 0.8963135 0.4325181
vt 0.9002349 0.4216558
vt 0.9086621 0.456807
vt 0.9253435 0.4540943
vt 0.9217881 0.4472968
vt 0.9102995 0.449234
vt 0.9210329 0.435049
vt 0.9208803 0.429738
vt 0.9136274 0.4323983
vt 0.9176375 0.4392498
vt 0.9175602 0.4255882
vt 0.9122897 0.4402776
vt 0.912248 0.4245776
vt 0.9075 0.4376086
vt 0.9074811 0.4272538
vt 0.9055018 0.432432
vn -0.9835203 0.1565758 -0.09039874
vn -0.9835203 0.1565758 -0.09039874
vn -0.9835203 0.1565758 -0.09039874
vn -0.9835203 0.1565758 -0.09039874
vn -0.9835204 -0.1565752 -0.0903987
vn -0.9835204 -0.1565752 -0.0903987
vn -0.9835204 -0.1565752 -0.0903987
vn -0.9835204 -0.1565752 -0.0903987
vn -0.984772 0.1117487 0.1331772
vn -0.984772 0.1117487 0.1331772
vn -0.984772 0.1117487 0.1331772
vn -0.984772 0.1117487 0.1331772
vn -0.9847721 -0.1117487 0.1331767
vn -0.9847721 -0.1117487 0.1331767
vn -0.9847721 -0.1117487 0.1331767
vn -0.9847721 -0.1117487 0.1331767
vn 0 -0.6427883 0.7660438
vn 0 -0.6427883 0.7660438
vn 0 -0.6427883 0.7660438
vn 0 -0.6427883 0.7660438
vn -0.9849879 3.608982E-07 0.1726234
vn -0.9849879 3.608982E-07 0.1726234
vn -0.9849879 3.608982E-07 0.1726234
vn -0.9849879 3.608982E-07 0.1726234
vn -0.9830496 0.06270591 -0.1722832
vn -0.9830496 0.06270591 -0.1722832
vn -0.9830496 0.06270591 -0.1722832
vn -0.9830496 0.06270591 -0.1722832
vn -1 0 0
vn -1 0 0
vn -1 0 0
vn -1 0 0
vn -1 0 0
vn -1 0 0
vn -1 0 0
vn -1 0 0
vn -1 0 0
vn -0.9842047 -0.1743445 0.03074169
vn -0.9842047 -0.1743445 0.03074169
vn -0.9842047 -0.1743445 0.03074169
vn -0.9842047 -0.1743445 0.03074169
vn -0.9830496 -0.06270591 -0.1722832
vn -0.9830496 -0.06270591 -0.1722832
vn -0.9830496 -0.06270591 -0.1722832
vn -0.9830496 -0.06270591 -0.1722832
vn 0.9851638 0 0.1716166
vn 0.9851638 0 0.1716166
vn 0.9851638 0 0.1716166
vn 0.9851638 0 0.1716166
vn 0.9843895 -0.1733297 0.03056256
vn 0.9843895 -0.1733297 0.03056256
vn 0.9843895 -0.1733297 0.03056256
vn 0.9843895 -0.1733297 0.03056256
vn 0.983713 -0.1556651 -0.08987302
vn 0.983713 -0.1556651 -0.08987302
vn 0.983713 -0.1556651 -0.08987302
vn 0.983713 -0.1556651 -0.08987302
vn 0.9843895 0.1733297 0.03056273
vn 0.9843895 0.1733297 0.03056273
vn 0.9843895 0.1733297 0.03056273
vn 0.9843895 0.1733297 0.03056273
vn 0.9832476 0.06234176 -0.1712825
vn 0.9832476 0.06234176 -0.1712825
vn 0.9832476 0.06234176 -0.1712825
vn 0.9832476 0.06234176 -0.1712825
vn 0.9837129 0.1556653 -0.08987331
vn 0.9837129 0.1556653 -0.08987331
vn 0.9837129 0.1556653 -0.08987331
vn 0.9837129 0.1556653 -0.08987331
vn 0.9832476 -0.06234176 -0.1712826
vn 0.9832476 -0.06234176 -0.1712826
vn 0.9832476 -0.06234176 -0.1712826
vn 0.9832476 -0.06234176 -0.1712826
vn 0.9849505 0.1110971 0.1324005
vn 0.9849505 0.1110971 0.1324005
vn 0.9849505 0.1110971 0.1324005
vn 0.9849505 0.1110971 0.1324005
vn 0.9849505 -0.1110974 0.1324004
vn 0.9849505 -0.1110974 0.1324004
vn 0.9849505 -0.1110974 0.1324004
vn 0.9849505 -0.1110974 0.1324004
vn 0 0 1
vn 0 0 1
vn 0 0 1
vn 0 0 1
vn 0 0.6427873 0.7660447
vn 0 0.6427873 0.7660447
vn 0 0.6427873 0.7660447
vn 0 0.6427873 0.7660447
vn -3.551308E-07 -0.3420201 -0.9396926
vn -3.551308E-07 -0.3420201 -0.9396926
vn -3.551308E-07 -0.3420201 -0.9396926
vn -3.551308E-07 -0.3420201 -0.9396926
vn 2.130783E-07 0.8660254 -0.4999999
vn 2.130783E-07 0.8660254 -0.4999999
vn 2.130783E-07 0.8660254 -0.4999999
vn 2.130783E-07 0.8660254 -0.4999999
vn -2.30835E-07 0.3420204 -0.9396926
vn -2.30835E-07 0.3420204 -0.9396926
vn -2.30835E-07 0.3420204 -0.9396926
vn -2.30835E-07 0.3420204 -0.9396926
vn 2.841046E-07 0.9848077 0.1736482
vn 2.841046E-07 0.9848077 0.1736482
vn 2.841046E-07 0.9848077 0.1736482
vn 2.841046E-07 0.9848077 0.1736482
vn -0.9842046 0.1743453 0.03074179
vn -0.9842046 0.1743453 0.03074179
vn -0.9842046 0.1743453 0.03074179
vn -0.9842046 0.1743453 0.03074179
vn 0 -0.8660255 -0.4999998
vn 0 -0.8660255 -0.4999998
vn 0 -0.8660255 -0.4999998
vn 0 -0.8660255 -0.4999998
vn 1.420524E-07 -0.9848077 0.1736483
vn 1.420524E-07 -0.9848077 0.1736483
vn 1.420524E-07 -0.9848077 0.1736483
vn 1.420524E-07 -0.9848077 0.1736483
vn 0.7811207 -0.2135502 -0.5867254
vn 0.7811207 -0.2135502 -0.5867254
vn 0.7811207 -0.2135502 -0.5867254
vn 0.7811207 -0.2135502 -0.5867254
vn 0.7919689 0.6012856 0.1060236
vn 0.7919689 0.6012856 0.1060236
vn 0.7919689 0.6012856 0.1060236
vn 0.7919689 0.6012856 0.1060236
vn 0.797452 0.3878468 0.4622176
vn 0.797452 0.3878468 0.4622176
vn 0.797452 0.3878468 0.4622176
vn 0.797452 0.3878468 0.4622176
vn 0.799565 0 0.6005796
vn 0.799565 0 0.6005796
vn 0.799565 0 0.6005796
vn 0.799565 0 0.6005796
vn 0.791969 -0.6012856 0.1060223
vn 0.791969 -0.6012856 0.1060223
vn 0.791969 -0.6012856 0.1060223
vn 0.791969 -0.6012856 0.1060223
vn 0.7974524 -0.3878467 0.4622171
vn 0.7974524 -0.3878467 0.4622171
vn 0.7974524 -0.3878467 0.4622171
vn 0.7974524 -0.3878467 0.4622171
vn 0.7811206 0.2135511 -0.5867252
vn 0.7811206 0.2135511 -0.5867252
vn 0.7811206 0.2135511 -0.5867252
vn 0.7811206 0.2135511 -0.5867252
vn 0.7854922 0.5359581 -0.3094364
vn 0.7854922 0.5359581 -0.3094364
vn 0.7854922 0.5359581 -0.3094364
vn 0.7854922 0.5359581 -0.3094364
vn 0.7854924 -0.5359586 -0.3094352
vn 0.7854924 -0.5359586 -0.3094352
vn 0.7854924 -0.5359586 -0.3094352
vn 0.7854924 -0.5359586 -0.3094352
vn 0.868216 0.4886481 -0.0861614
vn 0.868216 0.4886481 -0.0861614
vn 0.868216 0.4886481 -0.0861614
vn 0.868216 0.4886481 -0.0861614
vn 0.8721721 -0.3144514 -0.374748
vn 0.8721721 -0.3144514 -0.374748
vn 0.8721721 -0.3144514 -0.374748
vn 0.8721721 -0.3144514 -0.374748
vn 0.8603067 -0.174354 0.4790335
vn 0.8603067 -0.174354 0.4790335
vn 0.8603067 -0.174354 0.4790335
vn 0.8603067 -0.174354 0.4790335
vn 0.8635069 0.4367689 0.252168
vn 0.8635069 0.4367689 0.252168
vn 0.8635069 0.4367689 0.252168
vn 0.8635069 0.4367689 0.252168
vn 0.8736888 0 -0.4864853
vn 0.8736888 0 -0.4864853
vn 0.8736888 0 -0.4864853
vn 0.8736888 0 -0.4864853
vn 0.8635071 -0.4367683 0.2521684
vn 0.8635071 -0.4367683 0.2521684
vn 0.8635071 -0.4367683 0.2521684
vn 0.8635071 -0.4367683 0.2521684
vn 0.8603063 0.1743539 0.4790341
vn 0.8603063 0.1743539 0.4790341
vn 0.8603063 0.1743539 0.4790341
vn 0.8603063 0.1743539 0.4790341
vn 0.8721719 0.3144518 -0.3747481
vn 0.8721719 0.3144518 -0.3747481
vn 0.8721719 0.3144518 -0.3747481
vn 0.8721719 0.3144518 -0.3747481
vn 0.8682162 -0.488648 -0.08616225
vn 0.8682162 -0.488648 -0.08616225
vn 0.8682162 -0.488648 -0.08616225
vn 0.8682162 -0.488648 -0.08616225
vn 1 0 0
vn 1 0 -2.409762E-07
vn 1 0 -2.409762E-07
vn 1 0 0
vn 1 0 -2.409762E-07
vn 1 0 0
vn 1 0 0
vn 1 0 0
vn 1 0 0
vn 1 0 0
g car-taxi-wheel_BL_0
f 3/3/3 2/2/2 1/1/1
f 4/4/4 3/3/3 1/1/1
f 7/7/7 6/6/6 5/5/5
f 8/8/8 7/7/7 5/5/5
f 11/11/11 10/10/10 9/9/9
f 12/12/12 11/11/11 9/9/9
f 15/15/15 14/14/14 13/13/13
f 16/16/16 15/15/15 13/13/13
f 19/19/19 18/18/18 17/17/17
f 20/20/20 19/19/19 17/17/17
f 23/23/23 22/22/22 21/21/21
f 24/24/24 23/23/23 21/21/21
f 27/27/27 26/26/26 25/25/25
f 28/28/28 27/27/27 25/25/25
f 31/31/31 30/30/30 29/29/29
f 29/29/29 32/32/32 31/31/31
f 32/32/32 33/33/33 31/31/31
f 32/32/32 34/34/34 33/33/33
f 34/34/34 35/35/35 33/33/33
f 34/34/34 36/36/36 35/35/35
f 36/36/36 37/37/37 35/35/35
f 40/40/40 39/39/39 38/38/38
f 41/41/41 40/40/40 38/38/38
f 44/44/44 43/43/43 42/42/42
f 45/45/45 44/44/44 42/42/42
f 48/48/48 47/47/47 46/46/46
f 49/49/49 48/48/48 46/46/46
f 52/52/52 51/51/51 50/50/50
f 53/53/53 52/52/52 50/50/50
f 56/56/56 55/55/55 54/54/54
f 57/57/57 56/56/56 54/54/54
f 60/60/60 59/59/59 58/58/58
f 61/61/61 60/60/60 58/58/58
f 64/64/64 63/63/63 62/62/62
f 65/65/65 64/64/64 62/62/62
f 68/68/68 67/67/67 66/66/66
f 69/69/69 68/68/68 66/66/66
f 72/72/72 71/71/71 70/70/70
f 73/73/73 72/72/72 70/70/70
f 76/76/76 75/75/75 74/74/74
f 77/77/77 76/76/76 74/74/74
f 80/80/80 79/79/79 78/78/78
f 81/81/81 80/80/80 78/78/78
f 84/84/84 83/83/83 82/82/82
f 85/85/85 84/84/84 82/82/82
f 88/88/88 87/87/87 86/86/86
f 89/89/89 88/88/88 86/86/86
f 92/92/92 91/91/91 90/90/90
f 93/93/93 92/92/92 90/90/90
f 96/96/96 95/95/95 94/94/94
f 97/97/97 96/96/96 94/94/94
f 100/100/100 99/99/99 98/98/98
f 101/101/101 100/100/100 98/98/98
f 104/104/104 103/103/103 102/102/102
f 105/105/105 104/104/104 102/102/102
f 108/108/108 107/107/107 106/106/106
f 109/109/109 108/108/108 106/106/106
f 112/112/112 111/111/111 110/110/110
f 113/113/113 112/112/112 110/110/110
f 116/116/116 115/115/115 114/114/114
f 117/117/117 116/116/116 114/114/114
g car-taxi-wheel_BL_1
f 120/120/120 119/119/119 118/118/118
f 121/121/121 120/120/120 118/118/118
f 124/124/124 123/123/123 122/122/122
f 125/125/125 124/124/124 122/122/122
f 128/128/128 127/127/127 126/126/126
f 129/129/129 128/128/128 126/126/126
f 132/132/132 131/131/131 130/130/130
f 133/133/133 132/132/132 130/130/130
f 136/136/136 135/135/135 134/134/134
f 137/137/137 136/136/136 134/134/134
f 140/140/140 139/139/139 138/138/138
f 141/141/141 140/140/140 138/138/138
f 144/144/144 143/143/143 142/142/142
f 145/145/145 144/144/144 142/142/142
f 148/148/148 147/147/147 146/146/146
f 149/149/149 148/148/148 146/146/146
f 152/152/152 151/151/151 150/150/150
f 153/153/153 152/152/152 150/150/150
f 156/156/156 155/155/155 154/154/154
f 157/157/157 156/156/156 154/154/154
f 160/160/160 159/159/159 158/158/158
f 161/161/161 160/160/160 158/158/158
f 164/164/164 163/163/163 162/162/162
f 165/165/165 164/164/164 162/162/162
f 168/168/168 167/167/167 166/166/166
f 169/169/169 168/168/168 166/166/166
f 172/172/172 171/171/171 170/170/170
f 173/173/173 172/172/172 170/170/170
f 176/176/176 175/175/175 174/174/174
f 177/177/177 176/176/176 174/174/174
f 180/180/180 179/179/179 178/178/178
f 181/181/181 180/180/180 178/178/178
f 184/184/184 183/183/183 182/182/182
f 185/185/185 184/184/184 182/182/182
f 188/188/188 187/187/187 186/186/186
f 189/189/189 188/188/188 186/186/186
f 192/192/192 191/191/191 190/190/190
f 192/192/192 190/190/190 193/193/193
f 192/192/192 194/194/194 191/191/191
f 192/192/192 193/193/193 195/195/195
f 192/192/192 196/196/196 194/194/194
f 192/192/192 195/195/195 197/197/197
f 192/192/192 198/198/198 196/196/196
f 192/192/192 197/197/197 199/199/199
f 192/192/192 199/199/199 198/198/198
