g car-truck-tanker-wheel_FR
v -0.1816406 -0.05764154 0.1467896
v -0.138266 0 -0.01396894
v -0.1816406 0.05764142 0.1467896
v -0.1816406 -0.1459533 0.07268707
v -0.138266 0 -0.01396894
v -0.1816406 -0.05764154 0.1467896
v -0.1816406 0 -0.1801118
v -0.138266 0 -0.01396894
v -0.1816406 -0.1083305 -0.1406823
v -0.1816406 0.1083305 -0.1406823
v -0.138266 0 -0.01396894
v -0.1816406 0 -0.1801118
v -0.1816406 -0.1083305 -0.1406823
v -0.138266 0 -0.01396894
v -0.1816406 -0.1659718 -0.04084489
v -0.1816406 -0.1659718 -0.04084489
v -0.138266 0 -0.01396894
v -0.1816406 -0.1459533 0.07268707
v -0.1816406 0.1659721 -0.04084489
v -0.138266 0 -0.01396894
v -0.1816406 0.1083305 -0.1406823
v -0.1816406 0.05764142 0.1467896
v -0.138266 0 -0.01396894
v -0.1816406 0.1459532 0.07268707
v -0.1816406 0.1459532 0.07268707
v -0.138266 0 -0.01396894
v -0.1816406 0.1659721 -0.04084489
v -0.1719242 0 -0.5564581
v -0.213288 -1.877546E-07 -0.3554638
v -0.213288 -0.2245492 -0.2737345
v -0.1719242 -0.3577628 -0.4262433
v -0.1719242 0.3577624 -0.4262433
v -0.213288 0.2245492 -0.2737345
v -0.213288 -1.877546E-07 -0.3554638
v -0.1719242 0 -0.5564581
v -0.1719242 0 -0.5564581
v 0.1589874 6.258487E-08 -0.5564581
v 0.1589874 0.3577624 -0.4262433
v -0.1719242 0.3577624 -0.4262433
v -0.1719242 -0.3577628 -0.4262433
v 0.1589874 -0.3577626 -0.4262433
v 0.1589874 6.258487E-08 -0.5564581
v -0.1719242 0 -0.5564581
v 0.1589874 0.3577624 -0.4262433
v 0.1589874 6.258487E-08 -0.5564581
v 0.2003511 -6.258487E-08 -0.3204361
v 0.2003511 0.2013339 -0.2471567
v 0.1589874 6.258487E-08 -0.5564581
v 0.1589874 -0.3577626 -0.4262433
v 0.2003511 -0.2013337 -0.2471567
v 0.2003511 -6.258487E-08 -0.3204361
v 0.2003511 0.2013339 -0.2471567
v 0.2003511 -6.258487E-08 -0.3204361
v 0.2003511 -0.2013337 -0.2471567
v 0.2003511 0.3084613 -0.06160605
v 0.2003511 -0.1071277 0.2871139
v 0.2003511 0.2712562 0.1493936
v 0.2003511 0.1071272 0.2871139
v 0.2003511 -0.2712562 0.1493936
v 0.2003511 -0.3084612 -0.06160605
v 0.1589874 -0.3577626 -0.4262433
v 0.1589874 -0.5481242 -0.09652741
v 0.2003511 -0.3084612 -0.06160605
v 0.2003511 -0.2013337 -0.2471567
v 0.1589874 -0.1903617 0.5231354
v 0.1589872 0.1903615 0.5231354
v 0.2003511 0.1071272 0.2871139
v 0.2003511 -0.1071277 0.2871139
v 0.1589874 -0.4820123 0.2784111
v 0.1589874 -0.1903617 0.5231354
v 0.2003511 -0.1071277 0.2871139
v 0.2003511 -0.2712562 0.1493936
v 0.1589874 -0.5481242 -0.09652741
v 0.1589874 -0.4820123 0.2784111
v 0.2003511 -0.2712562 0.1493936
v 0.2003511 -0.3084612 -0.06160605
v -0.1719242 -0.1903617 0.5231354
v 0.1589874 -0.1903617 0.5231354
v 0.1589874 -0.4820123 0.2784111
v -0.1719242 -0.4820123 0.2784111
v -0.1719242 -0.4820123 0.2784111
v 0.1589874 -0.4820123 0.2784111
v 0.1589874 -0.5481242 -0.09652741
v -0.1719242 -0.5481241 -0.09652741
v -0.1719242 -0.5481241 -0.09652741
v 0.1589874 -0.5481242 -0.09652741
v 0.1589874 -0.3577626 -0.4262433
v -0.1719242 -0.3577628 -0.4262433
v -0.1719242 -0.3577628 -0.4262433
v -0.213288 -0.2245492 -0.2737345
v -0.213288 -0.3440289 -0.06678908
v -0.1719242 -0.5481241 -0.09652741
v -0.1719242 -0.5481241 -0.09652741
v -0.213288 -0.3440289 -0.06678908
v -0.213288 -0.3025342 0.1685406
v -0.1719242 -0.4820123 0.2784111
v -0.213288 -0.3440289 -0.06678908
v -0.1558559 -0.2619425 -0.05482836
v -0.1558559 -0.2303486 0.1243511
v -0.213288 -0.3025342 0.1685406
v -0.213288 -0.2245492 -0.2737345
v -0.1558559 -0.170971 -0.212396
v -0.1558559 -0.2619425 -0.05482836
v -0.213288 -0.3440289 -0.06678908
v -0.1558559 -0.2619425 -0.05482836
v -0.1816406 -0.1659718 -0.04084489
v -0.1816406 -0.1459533 0.07268707
v -0.1558559 -0.2303486 0.1243511
v -0.1558559 -0.170971 -0.212396
v -0.1816406 -0.1083305 -0.1406823
v -0.1816406 -0.1659718 -0.04084489
v -0.1558559 -0.2619425 -0.05482836
v -0.213288 -1.877546E-07 -0.3554638
v -0.1558559 -1.251697E-07 -0.2746244
v -0.1558559 -0.170971 -0.212396
v -0.213288 -0.2245492 -0.2737345
v -0.1558559 -1.251697E-07 -0.2746244
v -0.1816406 0 -0.1801118
v -0.1816406 -0.1083305 -0.1406823
v -0.1558559 -0.170971 -0.212396
v -0.1558559 0.170971 -0.2123955
v -0.1816406 0.1083305 -0.1406823
v -0.1816406 0 -0.1801118
v -0.1558559 -1.251697E-07 -0.2746244
v -0.213288 0.2245492 -0.2737345
v -0.1558559 0.170971 -0.2123955
v -0.1558559 -1.251697E-07 -0.2746244
v -0.213288 -1.877546E-07 -0.3554638
v -0.213288 0.344029 -0.06678908
v -0.1558559 0.2619427 -0.05482836
v -0.1558559 0.170971 -0.2123955
v -0.213288 0.2245492 -0.2737345
v -0.1558559 0.2619427 -0.05482836
v -0.1816406 0.1659721 -0.04084489
v -0.1816406 0.1083305 -0.1406823
v -0.1558559 0.170971 -0.2123955
v -0.213288 0.3025342 0.1685406
v -0.1558559 0.2303485 0.1243511
v -0.1558559 0.2619427 -0.05482836
v -0.213288 0.344029 -0.06678908
v -0.1558559 0.2303485 0.1243511
v -0.1816406 0.1459532 0.07268707
v -0.1816406 0.1659721 -0.04084489
v -0.1558559 0.2619427 -0.05482836
v -0.1558559 0.09097162 0.2413017
v -0.1816406 0.05764142 0.1467896
v -0.1816406 0.1459532 0.07268707
v -0.1558559 0.2303485 0.1243511
v -0.213288 0.11948 0.3221414
v -0.1558559 0.09097162 0.2413017
v -0.1558559 0.2303485 0.1243511
v -0.213288 0.3025342 0.1685406
v -0.213288 -0.1194803 0.3221414
v -0.1558559 -0.09097193 0.2413017
v -0.1558559 0.09097162 0.2413017
v -0.213288 0.11948 0.3221414
v -0.1558559 -0.09097193 0.2413017
v -0.1816406 -0.05764154 0.1467896
v -0.1816406 0.05764142 0.1467896
v -0.1558559 0.09097162 0.2413017
v -0.213288 -0.3025342 0.1685406
v -0.1558559 -0.2303486 0.1243511
v -0.1558559 -0.09097193 0.2413017
v -0.213288 -0.1194803 0.3221414
v -0.1558559 -0.2303486 0.1243511
v -0.1816406 -0.1459533 0.07268707
v -0.1816406 -0.05764154 0.1467896
v -0.1558559 -0.09097193 0.2413017
v -0.1719242 -0.4820123 0.2784111
v -0.213288 -0.3025342 0.1685406
v -0.213288 -0.1194803 0.3221414
v -0.1719242 -0.1903617 0.5231354
v -0.1719242 -0.1903617 0.5231354
v -0.213288 -0.1194803 0.3221414
v -0.213288 0.11948 0.3221414
v -0.1719242 0.1903615 0.5231354
v -0.1719242 0.1903615 0.5231354
v 0.1589872 0.1903615 0.5231354
v 0.1589874 -0.1903617 0.5231354
v -0.1719242 -0.1903617 0.5231354
v -0.1719242 0.1903615 0.5231354
v -0.213288 0.11948 0.3221414
v -0.213288 0.3025342 0.1685406
v -0.1719242 0.4820122 0.2784121
v -0.1719242 0.4820122 0.2784121
v 0.1589872 0.4820122 0.2784121
v 0.1589872 0.1903615 0.5231354
v -0.1719242 0.1903615 0.5231354
v 0.1589872 0.1903615 0.5231354
v 0.1589872 0.4820122 0.2784121
v 0.2003511 0.2712562 0.1493936
v 0.2003511 0.1071272 0.2871139
v 0.1589872 0.4820122 0.2784121
v 0.1589872 0.5481242 -0.09652741
v 0.2003511 0.3084613 -0.06160605
v 0.2003511 0.2712562 0.1493936
v -0.1719242 0.548124 -0.09652741
v 0.1589872 0.5481242 -0.09652741
v 0.1589872 0.4820122 0.2784121
v -0.1719242 0.4820122 0.2784121
v -0.1719242 0.3577624 -0.4262433
v 0.1589874 0.3577624 -0.4262433
v 0.1589872 0.5481242 -0.09652741
v -0.1719242 0.548124 -0.09652741
v 0.1589872 0.5481242 -0.09652741
v 0.1589874 0.3577624 -0.4262433
v 0.2003511 0.2013339 -0.2471567
v 0.2003511 0.3084613 -0.06160605
v -0.1719242 0.548124 -0.09652741
v -0.213288 0.344029 -0.06678908
v -0.213288 0.2245492 -0.2737345
v -0.1719242 0.3577624 -0.4262433
v -0.1719242 0.4820122 0.2784121
v -0.213288 0.3025342 0.1685406
v -0.213288 0.344029 -0.06678908
v -0.1719242 0.548124 -0.09652741
vt 0.3903809 0.7402344
vt 0.390625 0.7392578
vt 0.3901367 0.7397461
vt 0.3908691 0.7397461
vt 0.390625 0.7392578
vt 0.3903809 0.7402344
vt 0.3908691 0.7387695
vt 0.390625 0.7392578
vt 0.3911133 0.7392578
vt 0.3903809 0.7387695
vt 0.390625 0.7392578
vt 0.3908691 0.7387695
vt 0.3911133 0.7392578
vt 0.390625 0.7392578
vt 0.3911133 0.7397461
vt 0.3911133 0.7397461
vt 0.390625 0.7392578
vt 0.3908691 0.7397461
vt 0.3901367 0.7387695
vt 0.390625 0.7392578
vt 0.3903809 0.7387695
vt 0.3901367 0.7397461
vt 0.390625 0.7392578
vt 0.3898926 0.7392578
vt 0.3898926 0.7392578
vt 0.390625 0.7392578
vt 0.3901367 0.7387695
vt 0.1025391 0.7421875
vt 0.1019897 0.7416992
vt 0.1015625 0.7426758
vt 0.1020508 0.7431641
vt 0.1029053 0.7412109
vt 0.1022949 0.7412109
vt 0.1019897 0.7416992
vt 0.1025391 0.7421875
vt 0.1025391 0.7421875
vt 0.1033936 0.7426758
vt 0.1037598 0.7412109
vt 0.1029053 0.7412109
vt 0.1020508 0.7431641
vt 0.1028442 0.7436523
vt 0.1033936 0.7426758
vt 0.1025391 0.7421875
vt 0.1021729 0.7304688
vt 0.1005859 0.7314453
vt 0.1015625 0.7319336
vt 0.102417 0.7314453
vt 0.1005859 0.7314453
vt 0.1000977 0.7333984
vt 0.1012573 0.7329102
vt 0.1015625 0.7319336
vt 0.102417 0.7314453
vt 0.1015625 0.7319336
vt 0.1012573 0.7329102
vt 0.1035156 0.7314453
vt 0.1035156 0.734375
vt 0.104187 0.7324219
vt 0.104248 0.7333984
vt 0.102478 0.734375
vt 0.1016235 0.7338867
vt 0.1000977 0.7333984
vt 0.1008301 0.7348633
vt 0.1016235 0.7338867
vt 0.1012573 0.7329102
vt 0.104187 0.7353516
vt 0.1054077 0.7338867
vt 0.104248 0.7333984
vt 0.1035156 0.734375
vt 0.1022339 0.7358398
vt 0.104187 0.7353516
vt 0.1035156 0.734375
vt 0.102478 0.734375
vt 0.1008301 0.7348633
vt 0.1022339 0.7358398
vt 0.102478 0.734375
vt 0.1016235 0.7338867
vt 0.1022949 0.7373047
vt 0.1031494 0.7368164
vt 0.1022339 0.7358398
vt 0.1015015 0.7368164
vt 0.1015015 0.7368164
vt 0.1022339 0.7358398
vt 0.1008301 0.7348633
vt 0.1002197 0.7358398
vt 0.1012573 0.7436523
vt 0.1020508 0.7446289
vt 0.1028442 0.7436523
vt 0.1020508 0.7431641
vt 0.1020508 0.7431641
vt 0.1015625 0.7426758
vt 0.1010132 0.7431641
vt 0.1012573 0.7436523
vt 0.1002197 0.7358398
vt 0.1001587 0.7368164
vt 0.1010132 0.7373047
vt 0.1015015 0.7368164
vt 0.3918457 0.7397461
vt 0.3913574 0.7397461
vt 0.3911133 0.7402344
vt 0.3911133 0.7407227
vt 0.3918457 0.7387695
vt 0.3913574 0.7392578
vt 0.3913574 0.7397461
vt 0.3918457 0.7397461
vt 0.3913574 0.7397461
vt 0.3911133 0.7397461
vt 0.3908691 0.7397461
vt 0.3911133 0.7402344
vt 0.3913574 0.7392578
vt 0.3911133 0.7392578
vt 0.3911133 0.7397461
vt 0.3913574 0.7397461
vt 0.3911133 0.7382813
vt 0.3911133 0.7382813
vt 0.3913574 0.7392578
vt 0.3918457 0.7387695
vt 0.3911133 0.7382813
vt 0.3908691 0.7387695
vt 0.3911133 0.7392578
vt 0.3913574 0.7392578
vt 0.3903809 0.7382813
vt 0.3903809 0.7387695
vt 0.3908691 0.7387695
vt 0.3911133 0.7382813
vt 0.3901367 0.737793
vt 0.3903809 0.7382813
vt 0.3911133 0.7382813
vt 0.3911133 0.7382813
vt 0.3894043 0.7382813
vt 0.3896484 0.7387695
vt 0.3903809 0.7382813
vt 0.3901367 0.737793
vt 0.3896484 0.7387695
vt 0.3901367 0.7387695
vt 0.3903809 0.7387695
vt 0.3903809 0.7382813
vt 0.3891602 0.7392578
vt 0.3894043 0.7392578
vt 0.3896484 0.7387695
vt 0.3894043 0.7382813
vt 0.3894043 0.7392578
vt 0.3898926 0.7392578
vt 0.3901367 0.7387695
vt 0.3896484 0.7387695
vt 0.3896484 0.7402344
vt 0.3901367 0.7397461
vt 0.3898926 0.7392578
vt 0.3894043 0.7392578
vt 0.3894043 0.7402344
vt 0.3896484 0.7402344
vt 0.3894043 0.7392578
vt 0.3891602 0.7392578
vt 0.3901367 0.7407227
vt 0.3903809 0.7402344
vt 0.3896484 0.7402344
vt 0.3894043 0.7402344
vt 0.3903809 0.7402344
vt 0.3903809 0.7402344
vt 0.3901367 0.7397461
vt 0.3896484 0.7402344
vt 0.3911133 0.7407227
vt 0.3911133 0.7402344
vt 0.3903809 0.7402344
vt 0.3901367 0.7407227
vt 0.3911133 0.7402344
vt 0.3908691 0.7397461
vt 0.3903809 0.7402344
vt 0.3903809 0.7402344
vt 0.1015015 0.7368164
vt 0.1010132 0.7373047
vt 0.1017456 0.737793
vt 0.1022949 0.7373047
vt 0.1022949 0.7373047
vt 0.1017456 0.737793
vt 0.1021729 0.7387695
vt 0.1027832 0.7382813
vt 0.1027832 0.7382813
vt 0.1036377 0.737793
vt 0.1031494 0.7368164
vt 0.1022949 0.7373047
vt 0.1027832 0.7382813
vt 0.1021729 0.7387695
vt 0.102417 0.7392578
vt 0.1029663 0.7392578
vt 0.1029663 0.7392578
vt 0.1039429 0.7392578
vt 0.1036377 0.737793
vt 0.1027832 0.7382813
vt 0.1054077 0.7338867
vt 0.1054077 0.7319336
vt 0.104187 0.7324219
vt 0.104248 0.7333984
vt 0.1054077 0.7319336
vt 0.104126 0.7304688
vt 0.1035156 0.7314453
vt 0.104187 0.7324219
vt 0.1030273 0.7402344
vt 0.1039429 0.7402344
vt 0.1039429 0.7392578
vt 0.1029663 0.7392578
vt 0.1029053 0.7412109
vt 0.1037598 0.7412109
vt 0.1039429 0.7402344
vt 0.1030273 0.7402344
vt 0.104126 0.7304688
vt 0.1021729 0.7304688
vt 0.102417 0.7314453
vt 0.1035156 0.7314453
vt 0.1030273 0.7402344
vt 0.102417 0.7402344
vt 0.1022949 0.7412109
vt 0.1029053 0.7412109
vt 0.1029663 0.7392578
vt 0.102417 0.7392578
vt 0.102417 0.7402344
vt 0.1030273 0.7402344
vn -0.965332 0 -0.260498
vn -0.965332 0 -0.260498
vn -0.965332 0 -0.260498
vn -0.965332 0.1679688 -0.2001953
vn -0.965332 0.1679688 -0.2001953
vn -0.965332 0.1679688 -0.2001953
vn -0.9633789 0.09155273 0.2514648
vn -0.9633789 0.09155273 0.2514648
vn -0.9633789 0.09155273 0.2514648
vn -0.9633789 -0.09155273 0.2514648
vn -0.9633789 -0.09155273 0.2514648
vn -0.9633789 -0.09155273 0.2514648
vn -0.9638672 0.2303467 0.1330566
vn -0.9638672 0.2303467 0.1330566
vn -0.9638672 0.2303467 0.1330566
vn -0.9648438 0.2595215 -0.04574585
vn -0.9648438 0.2595215 -0.04574585
vn -0.9648438 0.2595215 -0.04574585
vn -0.9638672 -0.2303467 0.1330566
vn -0.9638672 -0.2303467 0.1330566
vn -0.9638672 -0.2303467 0.1330566
vn -0.965332 -0.1679688 -0.2001953
vn -0.965332 -0.1679688 -0.2001953
vn -0.965332 -0.1679688 -0.2001953
vn -0.9648438 -0.2595215 -0.04574585
vn -0.9648438 -0.2595215 -0.04574585
vn -0.9648438 -0.2595215 -0.04574585
vn -0.9770508 -0.07318115 -0.2010498
vn -0.9770508 -0.07318115 -0.2010498
vn -0.9770508 -0.07318115 -0.2010498
vn -0.9770508 -0.07318115 -0.2010498
vn -0.9770508 0.07318115 -0.2010498
vn -0.9770508 0.07318115 -0.2010498
vn -0.9770508 0.07318115 -0.2010498
vn -0.9770508 0.07318115 -0.2010498
vn 0 0.342041 -0.9394531
vn 0 0.342041 -0.9394531
vn 0 0.342041 -0.9394531
vn 0 0.342041 -0.9394531
vn 0 -0.342041 -0.9394531
vn 0 -0.342041 -0.9394531
vn 0 -0.342041 -0.9394531
vn 0 -0.342041 -0.9394531
vn 0.9829102 0.06268311 -0.1722412
vn 0.9829102 0.06268311 -0.1722412
vn 0.9829102 0.06268311 -0.1722412
vn 0.9829102 0.06268311 -0.1722412
vn 0.9829102 -0.06268311 -0.1722412
vn 0.9829102 -0.06268311 -0.1722412
vn 0.9829102 -0.06268311 -0.1722412
vn 0.9829102 -0.06268311 -0.1722412
vn 1 0 0
vn 1 0 0
vn 1 0 0
vn 1 0 0
vn 1 0 0
vn 1 0 0
vn 1 0 0
vn 1 0 0
vn 1 0 0
vn 0.9833984 -0.1566162 -0.09039307
vn 0.9833984 -0.1566162 -0.09039307
vn 0.9833984 -0.1566162 -0.09039307
vn 0.9833984 -0.1566162 -0.09039307
vn 0.9848633 0 0.1726074
vn 0.9848633 0 0.1726074
vn 0.9848633 0 0.1726074
vn 0.9848633 0 0.1726074
vn 0.9848633 -0.1117554 0.1331787
vn 0.9848633 -0.1117554 0.1331787
vn 0.9848633 -0.1117554 0.1331787
vn 0.9848633 -0.1117554 0.1331787
vn 0.984375 -0.1743164 0.03074646
vn 0.984375 -0.1743164 0.03074646
vn 0.984375 -0.1743164 0.03074646
vn 0.984375 -0.1743164 0.03074646
vn 0 -0.6425781 0.7661133
vn 0 -0.6425781 0.7661133
vn 0 -0.6425781 0.7661133
vn 0 -0.6425781 0.7661133
vn 0 -0.9848633 0.1737061
vn 0 -0.9848633 0.1737061
vn 0 -0.9848633 0.1737061
vn 0 -0.9848633 0.1737061
vn 0 -0.8662109 -0.5
vn 0 -0.8662109 -0.5
vn 0 -0.8662109 -0.5
vn 0 -0.8662109 -0.5
vn -0.9775391 -0.1827393 -0.1055298
vn -0.9775391 -0.1827393 -0.1055298
vn -0.9775391 -0.1827393 -0.1055298
vn -0.9775391 -0.1827393 -0.1055298
vn -0.9785156 -0.2034912 0.03588867
vn -0.9785156 -0.2034912 0.03588867
vn -0.9785156 -0.2034912 0.03588867
vn -0.9785156 -0.2034912 0.03588867
vn -0.8081055 0.5800781 -0.1022949
vn -0.8081055 0.5800781 -0.1022949
vn -0.8081055 0.5800781 -0.1022949
vn -0.8081055 0.5800781 -0.1022949
vn -0.8017578 0.5175781 0.2988281
vn -0.8017578 0.5175781 0.2988281
vn -0.8017578 0.5175781 0.2988281
vn -0.8017578 0.5175781 0.2988281
vn -0.9628906 -0.265625 0.04681396
vn -0.9628906 -0.265625 0.04681396
vn -0.9628906 -0.265625 0.04681396
vn -0.9628906 -0.265625 0.04681396
vn -0.9614258 -0.2382813 -0.1375732
vn -0.9614258 -0.2382813 -0.1375732
vn -0.9614258 -0.2382813 -0.1375732
vn -0.9614258 -0.2382813 -0.1375732
vn -0.7978516 0.2062988 0.5668945
vn -0.7978516 0.2062988 0.5668945
vn -0.7978516 0.2062988 0.5668945
vn -0.7978516 0.2062988 0.5668945
vn -0.9604492 -0.09533691 -0.2619629
vn -0.9604492 -0.09533691 -0.2619629
vn -0.9604492 -0.09533691 -0.2619629
vn -0.9604492 -0.09533691 -0.2619629
vn -0.9604492 0.09533691 -0.2619629
vn -0.9604492 0.09533691 -0.2619629
vn -0.9604492 0.09533691 -0.2619629
vn -0.9604492 0.09533691 -0.2619629
vn -0.7978516 -0.2062988 0.5668945
vn -0.7978516 -0.2062988 0.5668945
vn -0.7978516 -0.2062988 0.5668945
vn -0.7978516 -0.2062988 0.5668945
vn -0.8017578 -0.5175781 0.2988281
vn -0.8017578 -0.5175781 0.2988281
vn -0.8017578 -0.5175781 0.2988281
vn -0.8017578 -0.5175781 0.2988281
vn -0.9614258 0.2382813 -0.1375732
vn -0.9614258 0.2382813 -0.1375732
vn -0.9614258 0.2382813 -0.1375732
vn -0.9614258 0.2382813 -0.1375732
vn -0.8081055 -0.5800781 -0.1022949
vn -0.8081055 -0.5800781 -0.1022949
vn -0.8081055 -0.5800781 -0.1022949
vn -0.8081055 -0.5800781 -0.1022949
vn -0.9628906 0.265625 0.04681396
vn -0.9628906 0.265625 0.04681396
vn -0.9628906 0.265625 0.04681396
vn -0.9628906 0.265625 0.04681396
vn -0.9643555 0.1702881 0.2030029
vn -0.9643555 0.1702881 0.2030029
vn -0.9643555 0.1702881 0.2030029
vn -0.9643555 0.1702881 0.2030029
vn -0.8129883 -0.3740234 -0.4458008
vn -0.8129883 -0.3740234 -0.4458008
vn -0.8129883 -0.3740234 -0.4458008
vn -0.8129883 -0.3740234 -0.4458008
vn -0.8154297 0 -0.5791016
vn -0.8154297 0 -0.5791016
vn -0.8154297 0 -0.5791016
vn -0.8154297 0 -0.5791016
vn -0.9648438 0 0.2631836
vn -0.9648438 0 0.2631836
vn -0.9648438 0 0.2631836
vn -0.9648438 0 0.2631836
vn -0.8129883 0.3740234 -0.4458008
vn -0.8129883 0.3740234 -0.4458008
vn -0.8129883 0.3740234 -0.4458008
vn -0.8129883 0.3740234 -0.4458008
vn -0.9643555 -0.1702881 0.2030029
vn -0.9643555 -0.1702881 0.2030029
vn -0.9643555 -0.1702881 0.2030029
vn -0.9643555 -0.1702881 0.2030029
vn -0.9790039 -0.1304932 0.1555176
vn -0.9790039 -0.1304932 0.1555176
vn -0.9790039 -0.1304932 0.1555176
vn -0.9790039 -0.1304932 0.1555176
vn -0.9794922 0 0.2015381
vn -0.9794922 0 0.2015381
vn -0.9794922 0 0.2015381
vn -0.9794922 0 0.2015381
vn 0 0 1
vn 0 0 1
vn 0 0 1
vn 0 0 1
vn -0.9790039 0.1304932 0.1555176
vn -0.9790039 0.1304932 0.1555176
vn -0.9790039 0.1304932 0.1555176
vn -0.9790039 0.1304932 0.1555176
vn 0 0.6425781 0.7661133
vn 0 0.6425781 0.7661133
vn 0 0.6425781 0.7661133
vn 0 0.6425781 0.7661133
vn 0.9848633 0.1117554 0.1331787
vn 0.9848633 0.1117554 0.1331787
vn 0.9848633 0.1117554 0.1331787
vn 0.9848633 0.1117554 0.1331787
vn 0.984375 0.1743164 0.03074646
vn 0.984375 0.1743164 0.03074646
vn 0.984375 0.1743164 0.03074646
vn 0.984375 0.1743164 0.03074646
vn 0 0.9848633 0.1737061
vn 0 0.9848633 0.1737061
vn 0 0.9848633 0.1737061
vn 0 0.9848633 0.1737061
vn 0 0.8662109 -0.5
vn 0 0.8662109 -0.5
vn 0 0.8662109 -0.5
vn 0 0.8662109 -0.5
vn 0.9833984 0.1566162 -0.09039307
vn 0.9833984 0.1566162 -0.09039307
vn 0.9833984 0.1566162 -0.09039307
vn 0.9833984 0.1566162 -0.09039307
vn -0.9775391 0.1827393 -0.1055298
vn -0.9775391 0.1827393 -0.1055298
vn -0.9775391 0.1827393 -0.1055298
vn -0.9775391 0.1827393 -0.1055298
vn -0.9785156 0.2034912 0.03588867
vn -0.9785156 0.2034912 0.03588867
vn -0.9785156 0.2034912 0.03588867
vn -0.9785156 0.2034912 0.03588867
g car-truck-tanker-wheel_FR_0
f 3/3/3 2/2/2 1/1/1
f 6/6/6 5/5/5 4/4/4
f 9/9/9 8/8/8 7/7/7
f 12/12/12 11/11/11 10/10/10
f 15/15/15 14/14/14 13/13/13
f 18/18/18 17/17/17 16/16/16
f 21/21/21 20/20/20 19/19/19
f 24/24/24 23/23/23 22/22/22
f 27/27/27 26/26/26 25/25/25
f 30/30/30 29/29/29 28/28/28
f 31/31/31 30/30/30 28/28/28
f 34/34/34 33/33/33 32/32/32
f 35/35/35 34/34/34 32/32/32
f 38/38/38 37/37/37 36/36/36
f 39/39/39 38/38/38 36/36/36
f 42/42/42 41/41/41 40/40/40
f 43/43/43 42/42/42 40/40/40
f 46/46/46 45/45/45 44/44/44
f 47/47/47 46/46/46 44/44/44
f 50/50/50 49/49/49 48/48/48
f 51/51/51 50/50/50 48/48/48
f 54/54/54 53/53/53 52/52/52
f 55/55/55 54/54/54 52/52/52
f 56/56/56 54/54/54 55/55/55
f 56/56/56 55/55/55 57/57/57
f 58/58/58 56/56/56 57/57/57
f 56/56/56 59/59/59 54/54/54
f 59/59/59 60/60/60 54/54/54
f 63/63/63 62/62/62 61/61/61
f 64/64/64 63/63/63 61/61/61
f 67/67/67 66/66/66 65/65/65
f 68/68/68 67/67/67 65/65/65
f 71/71/71 70/70/70 69/69/69
f 72/72/72 71/71/71 69/69/69
f 75/75/75 74/74/74 73/73/73
f 76/76/76 75/75/75 73/73/73
f 79/79/79 78/78/78 77/77/77
f 80/80/80 79/79/79 77/77/77
f 83/83/83 82/82/82 81/81/81
f 84/84/84 83/83/83 81/81/81
f 87/87/87 86/86/86 85/85/85
f 88/88/88 87/87/87 85/85/85
f 91/91/91 90/90/90 89/89/89
f 92/92/92 91/91/91 89/89/89
f 95/95/95 94/94/94 93/93/93
f 96/96/96 95/95/95 93/93/93
f 99/99/99 98/98/98 97/97/97
f 100/100/100 99/99/99 97/97/97
f 103/103/103 102/102/102 101/101/101
f 104/104/104 103/103/103 101/101/101
f 107/107/107 106/106/106 105/105/105
f 108/108/108 107/107/107 105/105/105
f 111/111/111 110/110/110 109/109/109
f 112/112/112 111/111/111 109/109/109
f 115/115/115 114/114/114 113/113/113
f 116/116/116 115/115/115 113/113/113
f 119/119/119 118/118/118 117/117/117
f 120/120/120 119/119/119 117/117/117
f 123/123/123 122/122/122 121/121/121
f 124/124/124 123/123/123 121/121/121
f 127/127/127 126/126/126 125/125/125
f 128/128/128 127/127/127 125/125/125
f 131/131/131 130/130/130 129/129/129
f 132/132/132 131/131/131 129/129/129
f 135/135/135 134/134/134 133/133/133
f 136/136/136 135/135/135 133/133/133
f 139/139/139 138/138/138 137/137/137
f 140/140/140 139/139/139 137/137/137
f 143/143/143 142/142/142 141/141/141
f 144/144/144 143/143/143 141/141/141
f 147/147/147 146/146/146 145/145/145
f 148/148/148 147/147/147 145/145/145
f 151/151/151 150/150/150 149/149/149
f 152/152/152 151/151/151 149/149/149
f 155/155/155 154/154/154 153/153/153
f 156/156/156 155/155/155 153/153/153
f 159/159/159 158/158/158 157/157/157
f 160/160/160 159/159/159 157/157/157
f 163/163/163 162/162/162 161/161/161
f 164/164/164 163/163/163 161/161/161
f 167/167/167 166/166/166 165/165/165
f 168/168/168 167/167/167 165/165/165
f 171/171/171 170/170/170 169/169/169
f 172/172/172 171/171/171 169/169/169
f 175/175/175 174/174/174 173/173/173
f 176/176/176 175/175/175 173/173/173
f 179/179/179 178/178/178 177/177/177
f 180/180/180 179/179/179 177/177/177
f 183/183/183 182/182/182 181/181/181
f 184/184/184 183/183/183 181/181/181
f 187/187/187 186/186/186 185/185/185
f 188/188/188 187/187/187 185/185/185
f 191/191/191 190/190/190 189/189/189
f 192/192/192 191/191/191 189/189/189
f 195/195/195 194/194/194 193/193/193
f 196/196/196 195/195/195 193/193/193
f 199/199/199 198/198/198 197/197/197
f 200/200/200 199/199/199 197/197/197
f 203/203/203 202/202/202 201/201/201
f 204/204/204 203/203/203 201/201/201
f 207/207/207 206/206/206 205/205/205
f 208/208/208 207/207/207 205/205/205
f 211/211/211 210/210/210 209/209/209
f 212/212/212 211/211/211 209/209/209
f 215/215/215 214/214/214 213/213/213
f 216/216/216 215/215/215 213/213/213
