g cfxr particle_electric_arc
v -0.4036888 6.842668E-08 -0.42
v -0.1147552 1.140445E-07 -0.6999999
v 0.08524475 1.140445E-07 -0.6999999
v -0.2036888 6.842668E-08 -0.42
v -0.5 2.28089E-08 -0.14
v -0.3 2.280889E-08 -0.14
v -0.5 -2.280889E-08 0.14
v -0.3 -2.28089E-08 0.14
v -0.4036888 -6.842668E-08 0.42
v -0.2036888 -6.842668E-08 0.42
v -0.1147552 -1.140445E-07 0.6999999
v 0.08524475 -1.140445E-07 0.6999999
vt 0.8 1
vt 1 1
vt 1 0
vt 0.8000001 5.960464E-08
vt 0.6 1
vt 0.6000001 0
vt 0.4 1
vt 0.4 0
vt 0.2 1
vt 0.2 0
vt -5.960464E-08 1
vt 0 -5.960464E-08
vn 0 1 1.629207E-07
vn 0 1 1.629207E-07
vn 0 1 1.629207E-07
vn 0 1 1.629207E-07
vn 0 1 1.629207E-07
vn 0 1 1.629207E-07
vn 0 1 1.629207E-07
vn 0 1 1.629207E-07
vn 0 1 1.629207E-07
vn 0 1 1.629207E-07
vn 0 1 1.629207E-07
vn 0 1 1.629207E-07
g cfxr particle_electric_arc_0
f 3/3/3 2/2/2 1/1/1
f 4/4/4 3/3/3 1/1/1
f 4/4/4 1/1/1 5/5/5
f 6/6/6 4/4/4 5/5/5
f 6/6/6 5/5/5 7/7/7
f 8/8/8 6/6/6 7/7/7
f 8/8/8 7/7/7 9/9/9
f 10/10/10 8/8/8 9/9/9
f 10/10/10 9/9/9 11/11/11
f 12/12/12 10/10/10 11/11/11
