g CircularWall
v 1.593162 0.03006161 2.319311
v 1.634194 0.03006161 2.313909
v 1.610975 -1.052842E-07 2.29608
v -1.939373 0.03006178 -2.099075
v -1.953188 0.03006178 -2.060062
v -1.92676 8.382027E-08 -2.072656
v -1.404575 0.02852759 -2.305999
v -1.443587 0.02852759 -2.319813
v -1.430992 6.006703E-08 -2.293386
v 1.953188 0.02852742 1.874852
v 1.947786 0.02852742 1.83382
v 1.929957 -8.660655E-08 1.857038
v -1.940101 2.691366 -2.098751
v -1.92676 2.72063 -2.072656
v -1.953188 2.690569 -2.060062
v 1.610975 2.72063 2.29608
v 1.633726 2.691366 2.314554
v 1.593781 2.691366 2.319813
v 1.929957 2.72063 1.857038
v 1.947213 2.691366 1.833356
v 1.952754 2.691366 1.875448
v -1.430992 2.72063 -2.293386
v -1.44426 2.691366 -2.319514
v -1.40424 2.691366 -2.305342
v 1.593162 0.03006161 2.319311
v 1.593781 2.691366 2.319813
v 1.633726 2.691366 2.314554
v 1.634194 0.03006161 2.313909
v 1.610975 -1.052842E-07 2.29608
v 0.7413348 -7.543123E-08 1.59186
v 0.7217261 0.02926442 1.613637
v 1.593162 0.03006161 2.319311
v 1.634194 0.03006161 2.313909
v 1.953188 0.02852742 1.874852
v 1.929957 -8.660655E-08 1.857038
v 1.610975 -1.052842E-07 2.29608
v 0.7413348 -7.543123E-08 1.59186
v -0.09242981 0.02926445 0.7994824
v 0.7217261 0.02926442 1.613637
v -0.07065246 -3.99382E-08 0.7798737
v -0.8170227 0.02926449 -0.09531555
v -0.7933148 0 -0.1125403
v -1.444116 0.02926454 -1.060951
v -1.418737 4.209685E-08 -1.075604
v -1.953188 0.03006178 -2.060062
v -1.92676 8.382027E-08 -2.072656
v -1.939373 0.03006178 -2.099075
v -1.940101 2.691366 -2.098751
v -1.953188 2.690569 -2.060062
v -1.953188 0.03006178 -2.060062
v -1.92676 8.382027E-08 -2.072656
v -1.430992 6.006703E-08 -2.293386
v -1.443587 0.02852759 -2.319813
v -1.939373 0.03006178 -2.099075
v -1.404575 0.02852759 -2.305999
v -1.40424 2.691366 -2.305342
v -1.44426 2.691366 -2.319514
v -1.443587 0.02852759 -2.319813
v -1.430992 6.006703E-08 -2.293386
v -0.9233795 0.02926455 -1.361599
v -1.404575 0.02852759 -2.305999
v -0.9487579 5.395763E-08 -1.346947
v -0.3305658 0.02926451 -0.4487475
v -0.3542737 1.394317E-08 -0.4315228
v 0.3544189 0.02926445 0.3971374
v 0.3326416 -4.127978E-08 0.4167462
v 1.12407 0.02926442 1.166788
v 1.104462 -7.501708E-08 1.188566
v 1.104462 -7.501708E-08 1.188566
v 1.929957 -8.660655E-08 1.857038
v 1.947786 0.02852742 1.83382
v 1.12407 0.02926442 1.166788
v 1.953188 0.02852742 1.874852
v 1.952754 2.691366 1.875448
v 1.947213 2.691366 1.833356
v 1.947786 0.02852742 1.83382
v -1.940101 2.691366 -2.098751
v -1.44426 2.691366 -2.319514
v -1.430992 2.72063 -2.293386
v -1.92676 2.72063 -2.072656
v -1.92676 2.72063 -2.072656
v -1.444116 2.691366 -1.060951
v -1.953188 2.690569 -2.060062
v -1.418737 2.72063 -1.075604
v -0.8170227 2.691366 -0.09531555
v -0.7933148 2.72063 -0.1125403
v -0.09242981 2.691366 0.7994824
v -0.07065246 2.72063 0.7798737
v 0.7217261 2.691366 1.613637
v 0.7413348 2.72063 1.59186
v 0.7413348 2.72063 1.59186
v 1.610975 2.72063 2.29608
v 1.593781 2.691366 2.319813
v 0.7217261 2.691366 1.613637
v 1.610975 2.72063 2.29608
v 1.929957 2.72063 1.857038
v 1.952754 2.691366 1.875448
v 1.633726 2.691366 2.314554
v 0.3544189 2.691366 0.3971374
v 1.12407 2.691366 1.166788
v 1.104462 2.72063 1.188566
v 0.3326416 2.72063 0.4167462
v -0.3305658 2.691366 -0.4487475
v -0.3542737 2.72063 -0.4315228
v -0.9233795 2.691366 -1.361599
v -0.9487579 2.72063 -1.346947
v -1.40424 2.691366 -2.305342
v -1.430992 2.72063 -2.293386
v 1.12407 2.691366 1.166788
v 1.947213 2.691366 1.833356
v 1.929957 2.72063 1.857038
v 1.104462 2.72063 1.188566
v -1.92676 2.72063 -2.072656
v -1.430992 2.72063 -2.293386
v -0.9487579 2.72063 -1.346947
v -1.418737 2.72063 -1.075604
v -0.3542737 2.72063 -0.4315228
v -0.7933148 2.72063 -0.1125403
v 0.3326416 2.72063 0.4167462
v -0.07065246 2.72063 0.7798737
v 1.104462 2.72063 1.188566
v 0.7413348 2.72063 1.59186
v 1.929957 2.72063 1.857038
v 1.610975 2.72063 2.29608
v -1.953188 0.03006178 -2.060062
v -1.953188 2.690569 -2.060062
v -1.444116 2.691366 -1.060951
v -1.444116 0.02926454 -1.060951
v -0.8170227 2.691366 -0.09531555
v -0.8170227 0.02926449 -0.09531555
v -0.09242981 2.691366 0.7994824
v -0.09242981 0.02926445 0.7994824
v 0.7217261 2.691366 1.613637
v 0.7217261 0.02926442 1.613637
v 1.593781 2.691366 2.319813
v 1.593162 0.03006161 2.319311
v 1.633726 2.691366 2.314554
v 1.952754 2.691366 1.875448
v 1.953188 0.02852742 1.874852
v 1.634194 0.03006161 2.313909
v 1.947786 0.02852742 1.83382
v 1.947213 2.691366 1.833356
v 1.12407 2.691366 1.166788
v 1.12407 0.02926442 1.166788
v 0.3544189 2.691366 0.3971374
v 0.3544189 0.02926445 0.3971374
v -0.3305658 2.691366 -0.4487475
v -0.3305658 0.02926451 -0.4487475
v -0.9233795 2.691366 -1.361599
v -0.9233795 0.02926455 -1.361599
v -1.40424 2.691366 -2.305342
v -1.404575 0.02852759 -2.305999
v -1.940101 2.691366 -2.098751
v -1.939373 0.03006178 -2.099075
v -1.443587 0.02852759 -2.319813
v -1.44426 2.691366 -2.319514
v 1.610975 -1.052842E-07 2.29608
v 1.929957 -8.660655E-08 1.857038
v 1.104462 -7.501708E-08 1.188566
v 0.7413348 -7.543123E-08 1.59186
v 0.3326416 -4.127978E-08 0.4167462
v -0.07065246 -3.99382E-08 0.7798737
v -0.3542737 1.394317E-08 -0.4315228
v -0.7933148 0 -0.1125403
v -0.9487579 5.395763E-08 -1.346947
v -1.418737 4.209685E-08 -1.075604
v -1.430992 6.006703E-08 -2.293386
v -1.92676 8.382027E-08 -2.072656
vt 0.8134766 0.2004395
vt 0.815918 0.1966553
vt 0.8129883 0.1973877
vt 0.3334961 0.9765625
vt 0.3334961 0.972168
vt 0.3303223 0.9736328
vt 0.2260742 0.1386719
vt 0.22229 0.1409912
vt 0.2253418 0.1417236
vt 0.6303711 0.9506836
vt 0.6303711 0.9462891
vt 0.6274414 0.9492188
vt 0.6186523 0.9765625
vt 0.6220703 0.9736328
vt 0.6186523 0.972168
vt 0.2094727 0.1993408
vt 0.2064209 0.1987305
vt 0.2087402 0.2023926
vt 0.9189453 0.9492188
vt 0.9160156 0.9462891
vt 0.9160156 0.9511719
vt 0.7963867 0.1397705
vt 0.7998047 0.1390381
vt 0.7958984 0.1367188
vt 0.2570801 0.5029297
vt 0.2573242 0.7880859
vt 0.2614746 0.7880859
vt 0.2614746 0.5029297
vt 0.8129883 0.1973877
vt 0.6953125 0.2224121
vt 0.6958008 0.2255859
vt 0.8134766 0.2004395
vt 0.6308594 0.9980469
vt 0.6303711 0.9506836
vt 0.6274414 0.9492188
vt 0.6274414 0.9960938
vt 0.3303223 0.5810547
vt 0.3334961 0.6660156
vt 0.3334961 0.5786133
vt 0.3303223 0.6679688
vt 0.3334961 0.7617188
vt 0.3303223 0.7636719
vt 0.3334961 0.8652344
vt 0.3303223 0.8666992
vt 0.3334961 0.972168
vt 0.3303223 0.9736328
vt 0.3334961 0.9765625
vt 0.6186523 0.9765625
vt 0.6186523 0.972168
vt 0.3334961 0.972168
vt 0.2103271 0.197876
vt 0.2253418 0.1417236
vt 0.22229 0.1409912
vt 0.2072754 0.1971436
vt 0.324707 0.7880859
vt 0.324707 0.5029297
vt 0.3203125 0.5029297
vt 0.3203125 0.7880859
vt 0.6274414 0.5043945
vt 0.6308594 0.6040039
vt 0.6303711 0.5029297
vt 0.6274414 0.6054688
vt 0.6308594 0.7016602
vt 0.6274414 0.7036133
vt 0.6308594 0.7924805
vt 0.6274414 0.7944336
vt 0.6308594 0.875
vt 0.6274414 0.8774414
vt 0.6865234 0.1650391
vt 0.7978516 0.1412354
vt 0.796875 0.1381836
vt 0.6860352 0.1618652
vt 0.6303711 0.9506836
vt 0.9160156 0.9511719
vt 0.9160156 0.9462891
vt 0.6303711 0.9462891
vt 0.8149414 0.1951904
vt 0.7998047 0.1390381
vt 0.7963867 0.1397705
vt 0.8120117 0.1958008
vt 0.6220703 0.9736328
vt 0.6186523 0.8652344
vt 0.6186523 0.972168
vt 0.6220703 0.8666992
vt 0.6186523 0.7617188
vt 0.6220703 0.7636719
vt 0.6186523 0.6660156
vt 0.6220703 0.6679688
vt 0.6186523 0.5786133
vt 0.6220703 0.5810547
vt 0.3269043 0.2236328
vt 0.2094727 0.1993408
vt 0.2087402 0.2023926
vt 0.326416 0.2266846
vt 0.9189453 0.9960938
vt 0.9189453 0.9492188
vt 0.9160156 0.9511719
vt 0.9160156 0.9980469
vt 0.9160156 0.7924805
vt 0.9160156 0.875
vt 0.9189453 0.8774414
vt 0.9189453 0.7944336
vt 0.9160156 0.7016602
vt 0.9189453 0.7036133
vt 0.9160156 0.6040039
vt 0.9189453 0.6054688
vt 0.9160156 0.5029297
vt 0.9189453 0.5043945
vt 0.3361816 0.1629639
vt 0.2249756 0.1400146
vt 0.2242432 0.1430664
vt 0.3356934 0.1661377
vt 0.8120117 0.1958008
vt 0.7963867 0.1397705
vt 0.6855469 0.1640625
vt 0.6948242 0.2214355
vt 0.5688477 0.177002
vt 0.5722656 0.2349854
vt 0.4521484 0.1776123
vt 0.4494629 0.2357178
vt 0.3356934 0.1661377
vt 0.3269043 0.2236328
vt 0.2242432 0.1430664
vt 0.2094727 0.1993408
vt 0.3334961 0.972168
vt 0.6186523 0.972168
vt 0.6186523 0.8652344
vt 0.3334961 0.8652344
vt 0.6186523 0.7617188
vt 0.3334961 0.7617188
vt 0.6186523 0.6660156
vt 0.3334961 0.6660156
vt 0.6186523 0.5786133
vt 0.3334961 0.5786133
vt 0.6186523 0.5029297
vt 0.3334961 0.5029297
vt 0.9160156 0.9980469
vt 0.9160156 0.9511719
vt 0.6303711 0.9506836
vt 0.6308594 0.9980469
vt 0.6303711 0.9462891
vt 0.9160156 0.9462891
vt 0.9160156 0.875
vt 0.6308594 0.875
vt 0.9160156 0.7924805
vt 0.6308594 0.7924805
vt 0.9160156 0.7016602
vt 0.6308594 0.7016602
vt 0.9160156 0.6040039
vt 0.6308594 0.6040039
vt 0.9160156 0.5029297
vt 0.6303711 0.5029297
vt 0.2670898 0.5029297
vt 0.267334 0.7880859
vt 0.3203125 0.7880859
vt 0.3203125 0.5029297
vt 0.8129883 0.1973877
vt 0.7978516 0.1412354
vt 0.6865234 0.1650391
vt 0.6953125 0.2224121
vt 0.5698242 0.1773682
vt 0.5732422 0.2354736
vt 0.453125 0.1774902
vt 0.4499512 0.2354736
vt 0.3366699 0.1652832
vt 0.3276367 0.2227783
vt 0.2253418 0.1417236
vt 0.2103271 0.197876
vn 0.1074829 -0.5673828 0.8164063
vn 0.1074829 -0.5673828 0.8164063
vn 0.1074829 -0.5673828 0.8164063
vn -0.7763672 -0.5673828 -0.2749023
vn -0.7763672 -0.5673828 -0.2749023
vn -0.7763672 -0.5673828 -0.2749023
vn 0.2702637 -0.5874023 -0.7626953
vn 0.2702637 -0.5874023 -0.7626953
vn 0.2702637 -0.5874023 -0.7626953
vn 0.8022461 -0.5874023 -0.1056519
vn 0.8022461 -0.5874023 -0.1056519
vn 0.8022461 -0.5874023 -0.1056519
vn -0.7768555 0.5776367 -0.2507324
vn -0.7768555 0.5776367 -0.2507324
vn -0.7768555 0.5776367 -0.2507324
vn 0.1055908 0.5883789 0.8017578
vn 0.1055908 0.5883789 0.8017578
vn 0.1055908 0.5883789 0.8017578
vn 0.815918 0.5678711 -0.1074219
vn 0.815918 0.5678711 -0.1074219
vn 0.815918 0.5678711 -0.1074219
vn 0.2746582 0.5678711 -0.7758789
vn 0.2746582 0.5678711 -0.7758789
vn 0.2746582 0.5678711 -0.7758789
vn 0.1304932 -0.0002173185 0.9912109
vn 0.1304932 -0.0002173185 0.9912109
vn 0.1304932 -0.0002173185 0.9912109
vn 0.1304932 -0.0002173185 0.9912109
vn -0.4477539 -0.7021484 0.5532227
vn -0.4743652 -0.7050781 0.5268555
vn -0.4743652 -0.7050781 0.5268555
vn -0.4477539 -0.7021484 0.5532227
vn 0.5717773 -0.706543 0.416748
vn 0.5717773 -0.706543 0.416748
vn 0.5717773 -0.706543 0.416748
vn 0.5717773 -0.706543 0.416748
vn -0.4743652 -0.7050781 0.5268555
vn -0.5249023 -0.7075195 0.4729004
vn -0.4743652 -0.7050781 0.5268555
vn -0.5249023 -0.7075195 0.4729004
vn -0.5717773 -0.7075195 0.4152832
vn -0.5717773 -0.7075195 0.4152832
vn -0.6137695 -0.7050781 0.3544922
vn -0.6137695 -0.7050781 0.3544922
vn -0.6342773 -0.7021484 0.322998
vn -0.6342773 -0.7021484 0.322998
vn -0.9448242 -0.0001092553 -0.3271484
vn -0.9448242 -0.0001092553 -0.3271484
vn -0.9448242 -0.0001092553 -0.3271484
vn -0.9448242 -0.0001092553 -0.3271484
vn -0.2885742 -0.706543 -0.6459961
vn -0.2885742 -0.706543 -0.6459961
vn -0.2885742 -0.706543 -0.6459961
vn -0.2885742 -0.706543 -0.6459961
vn 0.3337402 0.0001906157 -0.9428711
vn 0.3337402 0.0001906157 -0.9428711
vn 0.3337402 0.0001906157 -0.9428711
vn 0.3337402 0.0001906157 -0.9428711
vn 0.6259766 -0.7114258 -0.3188477
vn 0.6098633 -0.7099609 -0.3527832
vn 0.6259766 -0.7114258 -0.3188477
vn 0.6098633 -0.7099609 -0.3527832
vn 0.5717773 -0.7075195 -0.4152832
vn 0.5717773 -0.7075195 -0.4152832
vn 0.5249023 -0.7075195 -0.4729004
vn 0.5249023 -0.7075195 -0.4729004
vn 0.4716797 -0.7099609 -0.5229492
vn 0.4716797 -0.7099609 -0.5229492
vn 0.4716797 -0.7099609 -0.5229492
vn 0.4418945 -0.7114258 -0.5463867
vn 0.4418945 -0.7114258 -0.5463867
vn 0.4716797 -0.7099609 -0.5229492
vn 0.9912109 0.0001906157 -0.1304932
vn 0.9912109 0.0001906157 -0.1304932
vn 0.9912109 0.0001906157 -0.1304932
vn 0.9912109 0.0001906157 -0.1304932
vn -0.2875977 0.7070313 -0.6459961
vn -0.2875977 0.7070313 -0.6459961
vn -0.2875977 0.7070313 -0.6459961
vn -0.2875977 0.7070313 -0.6459961
vn -0.6342773 0.7021484 0.322998
vn -0.6137695 0.7050781 0.3544922
vn -0.6342773 0.7021484 0.322998
vn -0.6137695 0.7050781 0.3544922
vn -0.5717773 0.7075195 0.4152832
vn -0.5717773 0.7075195 0.4152832
vn -0.5249023 0.7075195 0.4729004
vn -0.5249023 0.7075195 0.4729004
vn -0.4731445 0.7075195 0.5249023
vn -0.4731445 0.7075195 0.5249023
vn -0.4731445 0.7075195 0.5249023
vn -0.4450684 0.7070313 0.5493164
vn -0.4450684 0.7070313 0.5493164
vn -0.4731445 0.7075195 0.5249023
vn 0.5722656 0.7070313 0.4155273
vn 0.5722656 0.7070313 0.4155273
vn 0.5722656 0.7070313 0.4155273
vn 0.5722656 0.7070313 0.4155273
vn 0.5249023 0.7075195 -0.4729004
vn 0.4731445 0.7075195 -0.5249023
vn 0.4731445 0.7075195 -0.5249023
vn 0.5249023 0.7075195 -0.4729004
vn 0.5717773 0.7075195 -0.4152832
vn 0.5717773 0.7075195 -0.4152832
vn 0.6118164 0.7075195 -0.3537598
vn 0.6118164 0.7075195 -0.3537598
vn 0.6298828 0.7070313 -0.3210449
vn 0.6298828 0.7070313 -0.3210449
vn 0.4731445 0.7075195 -0.5249023
vn 0.4450684 0.7070313 -0.5493164
vn 0.4450684 0.7070313 -0.5493164
vn 0.4731445 0.7075195 -0.5249023
vn 0 1 0
vn 0 1 0
vn 0 1 0
vn 0 1 0
vn 0 1 -1.788139E-07
vn 0 1 -1.788139E-07
vn 0 1 -1.788139E-07
vn 0 1 -1.788139E-07
vn 0 1 1.788139E-07
vn 0 1 1.788139E-07
vn 0 1 3.576279E-07
vn 0 1 3.576279E-07
vn -0.8911133 0 0.4541016
vn -0.8911133 0 0.4541016
vn -0.8657227 0 0.5004883
vn -0.8657227 0 0.5004883
vn -0.809082 0 0.5878906
vn -0.809082 0 0.5878906
vn -0.7431641 0 0.6689453
vn -0.7431641 0 0.6689453
vn -0.6694336 0 0.7426758
vn -0.6694336 0 0.7426758
vn -0.6293945 0 0.7773438
vn -0.6293945 0 0.7773438
vn 0.809082 -1.192093E-07 0.5878906
vn 0.809082 -1.192093E-07 0.5878906
vn 0.809082 -1.192093E-07 0.5878906
vn 0.809082 -1.192093E-07 0.5878906
vn 0.6293945 1.192093E-07 -0.7773438
vn 0.6293945 1.192093E-07 -0.7773438
vn 0.6694336 0 -0.7426758
vn 0.6694336 0 -0.7426758
vn 0.7431641 0 -0.6689453
vn 0.7431641 0 -0.6689453
vn 0.809082 0 -0.5878906
vn 0.809082 0 -0.5878906
vn 0.8657227 0 -0.5004883
vn 0.8657227 0 -0.5004883
vn 0.8911133 0 -0.4541016
vn 0.8911133 0 -0.4541016
vn -0.4067383 0 -0.9135742
vn -0.4067383 0 -0.9135742
vn -0.4067383 0 -0.9135742
vn -0.4067383 0 -0.9135742
vn 0 -1 0
vn 0 -1 0
vn 0 -1 0
vn 0 -1 0
vn 0 -1 0
vn 0 -1 0
vn 0 -1 0
vn 0 -1 0
vn 0 -1 0
vn 0 -1 0
vn 0 -1 0
vn 0 -1 0
g CircularWall_0
f 3/3/3 2/2/2 1/1/1
f 6/6/6 5/5/5 4/4/4
f 9/9/9 8/8/8 7/7/7
f 12/12/12 11/11/11 10/10/10
f 15/15/15 14/14/14 13/13/13
f 18/18/18 17/17/17 16/16/16
f 21/21/21 20/20/20 19/19/19
f 24/24/24 23/23/23 22/22/22
f 27/27/27 26/26/26 25/25/25
f 28/28/28 27/27/27 25/25/25
f 31/31/31 30/30/30 29/29/29
f 32/32/32 31/31/31 29/29/29
f 35/35/35 34/34/34 33/33/33
f 36/36/36 35/35/35 33/33/33
f 39/39/39 38/38/38 37/37/37
f 38/38/38 40/40/40 37/37/37
f 38/38/38 41/41/41 40/40/40
f 41/41/41 42/42/42 40/40/40
f 41/41/41 43/43/43 42/42/42
f 43/43/43 44/44/44 42/42/42
f 43/43/43 45/45/45 44/44/44
f 45/45/45 46/46/46 44/44/44
f 49/49/49 48/48/48 47/47/47
f 50/50/50 49/49/49 47/47/47
f 53/53/53 52/52/52 51/51/51
f 54/54/54 53/53/53 51/51/51
f 57/57/57 56/56/56 55/55/55
f 58/58/58 57/57/57 55/55/55
f 61/61/61 60/60/60 59/59/59
f 60/60/60 62/62/62 59/59/59
f 60/60/60 63/63/63 62/62/62
f 63/63/63 64/64/64 62/62/62
f 63/63/63 65/65/65 64/64/64
f 65/65/65 66/66/66 64/64/64
f 65/65/65 67/67/67 66/66/66
f 67/67/67 68/68/68 66/66/66
f 71/71/71 70/70/70 69/69/69
f 72/72/72 71/71/71 69/69/69
f 75/75/75 74/74/74 73/73/73
f 76/76/76 75/75/75 73/73/73
f 79/79/79 78/78/78 77/77/77
f 80/80/80 79/79/79 77/77/77
f 83/83/83 82/82/82 81/81/81
f 82/82/82 84/84/84 81/81/81
f 82/82/82 85/85/85 84/84/84
f 85/85/85 86/86/86 84/84/84
f 85/85/85 87/87/87 86/86/86
f 87/87/87 88/88/88 86/86/86
f 87/87/87 89/89/89 88/88/88
f 89/89/89 90/90/90 88/88/88
f 93/93/93 92/92/92 91/91/91
f 94/94/94 93/93/93 91/91/91
f 97/97/97 96/96/96 95/95/95
f 98/98/98 97/97/97 95/95/95
f 101/101/101 100/100/100 99/99/99
f 102/102/102 101/101/101 99/99/99
f 99/99/99 103/103/103 102/102/102
f 103/103/103 104/104/104 102/102/102
f 103/103/103 105/105/105 104/104/104
f 105/105/105 106/106/106 104/104/104
f 106/106/106 105/105/105 107/107/107
f 108/108/108 106/106/106 107/107/107
f 111/111/111 110/110/110 109/109/109
f 112/112/112 111/111/111 109/109/109
f 115/115/115 114/114/114 113/113/113
f 116/116/116 115/115/115 113/113/113
f 117/117/117 115/115/115 116/116/116
f 118/118/118 117/117/117 116/116/116
f 119/119/119 117/117/117 118/118/118
f 120/120/120 119/119/119 118/118/118
f 121/121/121 119/119/119 120/120/120
f 122/122/122 121/121/121 120/120/120
f 123/123/123 121/121/121 122/122/122
f 124/124/124 123/123/123 122/122/122
f 127/127/127 126/126/126 125/125/125
f 128/128/128 127/127/127 125/125/125
f 129/129/129 127/127/127 128/128/128
f 130/130/130 129/129/129 128/128/128
f 131/131/131 129/129/129 130/130/130
f 132/132/132 131/131/131 130/130/130
f 133/133/133 131/131/131 132/132/132
f 134/134/134 133/133/133 132/132/132
f 135/135/135 133/133/133 134/134/134
f 136/136/136 135/135/135 134/134/134
f 139/139/139 138/138/138 137/137/137
f 140/140/140 139/139/139 137/137/137
f 143/143/143 142/142/142 141/141/141
f 144/144/144 143/143/143 141/141/141
f 145/145/145 143/143/143 144/144/144
f 146/146/146 145/145/145 144/144/144
f 147/147/147 145/145/145 146/146/146
f 148/148/148 147/147/147 146/146/146
f 149/149/149 147/147/147 148/148/148
f 150/150/150 149/149/149 148/148/148
f 151/151/151 149/149/149 150/150/150
f 152/152/152 151/151/151 150/150/150
f 155/155/155 154/154/154 153/153/153
f 156/156/156 155/155/155 153/153/153
f 159/159/159 158/158/158 157/157/157
f 160/160/160 159/159/159 157/157/157
f 161/161/161 159/159/159 160/160/160
f 162/162/162 161/161/161 160/160/160
f 163/163/163 161/161/161 162/162/162
f 164/164/164 163/163/163 162/162/162
f 165/165/165 163/163/163 164/164/164
f 166/166/166 165/165/165 164/164/164
f 167/167/167 165/165/165 166/166/166
f 168/168/168 167/167/167 166/166/166
