g Claw_Hand
v 0.6849034 0.0279295 -0.08524854
v 0.6852375 0.02792944 -0.07759953
v 0.6033632 0.07308681 -0.07195221
v 0.6028491 0.07308672 -0.08373854
v 0.5211601 0.1015715 -0.06523853
v 0.5204348 0.1015727 -0.0817652
v 0.4261064 0.1265418 -0.07983675
v 0.4270711 0.1268228 -0.05852582
v 0.3347942 0.1340386 -0.07767911
v 0.3357909 0.1349174 -0.050852
v 0.2209585 0.1295578 -0.07507575
v 0.2222262 0.1308458 -0.04310706
v 0.103852 0.1047542 -0.07140138
v 0.1049325 0.1062466 -0.03355266
v 0.0100461 0.06458137 -0.06752774
v 0.01084855 0.06749428 -0.02352485
v -0.07880953 0.01580808 -0.0105557
v -0.09543837 -0.0001372926 -0.06157514
v 0.1015606 -0.009179571 -0.01851794
v -0.07880953 0.01580808 -0.0105557
v 0.01084855 0.06749428 -0.02352485
v 0.1879685 0.02092622 -0.03543389
v 0.1049325 0.1062466 -0.03355266
v 0.2612748 0.04012804 -0.04272789
v 0.2222262 0.1308458 -0.04310706
v 0.3465957 0.04980876 -0.05262448
v 0.3357909 0.1349174 -0.050852
v 0.4201533 0.05319303 -0.05951551
v 0.4270711 0.1268228 -0.05852582
v 0.5162097 0.04745462 -0.06702099
v 0.5211601 0.1015715 -0.06523853
v 0.6033632 0.07308681 -0.07195221
v 0.6852375 0.02792944 -0.07759953
v 0.0100461 0.06458137 -0.06752774
v -0.09543837 -0.0001372926 -0.06157514
v 0.09930583 -0.01108416 -0.0701649
v 0.103852 0.1047542 -0.07140138
v 0.1865741 0.01971397 -0.0724915
v 0.2209585 0.1295578 -0.07507575
v 0.2598502 0.03936045 -0.07542914
v 0.3347942 0.1340386 -0.07767911
v 0.3455392 0.04952714 -0.07904234
v 0.4261064 0.1265418 -0.07983675
v 0.419154 0.05307866 -0.08122573
v 0.5204348 0.1015727 -0.0817652
v 0.5154865 0.04745557 -0.08322943
v 0.6849034 0.0279295 -0.08524854
v 0.6028491 0.07308672 -0.08373854
v 0.5154865 0.04745557 -0.08322943
v 0.6852375 0.02792944 -0.07759953
v 0.6849034 0.0279295 -0.08524854
v 0.5162097 0.04745462 -0.06702099
v 0.4201533 0.05319303 -0.05951551
v 0.419154 0.05307866 -0.08122573
v 0.3465957 0.04980876 -0.05262448
v 0.3455392 0.04952714 -0.07904234
v 0.2612748 0.04012804 -0.04272789
v 0.2598502 0.03936045 -0.07542914
v 0.1879685 0.02092622 -0.03543389
v 0.1865741 0.01971397 -0.0724915
v 0.1015606 -0.009179571 -0.01851794
v 0.09930583 -0.01108416 -0.0701649
v 0.6880285 0.02792926 -0.003896198
v 0.6883626 0.02792922 0.003752895
v 0.6064883 0.07308659 0.009400211
v 0.6059736 0.07308662 -0.00238623
v 0.5242848 0.1015714 0.01611385
v 0.5235597 0.1015727 -0.0004128113
v 0.4292314 0.1265413 0.001515633
v 0.4301959 0.126823 0.02282657
v 0.3379187 0.1340382 0.003673279
v 0.3389163 0.1349173 0.03050038
v 0.2240833 0.1295579 0.006276626
v 0.2253513 0.1308459 0.03824533
v 0.1069768 0.104754 0.009950935
v 0.1080575 0.1062464 0.04779973
v 0.01182373 0.06692947 0.01390066
v 0.01502545 0.06561263 0.05718002
v -0.08781509 3.433227E-08 0.07079668
v -0.09231351 0.01082629 0.01977721
v 0.1046854 -0.00917954 0.06283438
v -0.08781509 3.433227E-08 0.07079668
v 0.01502545 0.06561263 0.05718002
v 0.1910933 0.02092613 0.04591845
v 0.1080575 0.1062464 0.04779973
v 0.2643999 0.04012795 0.03862453
v 0.2253513 0.1308459 0.03824533
v 0.3497206 0.04980854 0.02872787
v 0.3389163 0.1349173 0.03050038
v 0.4232782 0.05319308 0.02183687
v 0.4301959 0.126823 0.02282657
v 0.5193344 0.04745428 0.01433149
v 0.5242848 0.1015714 0.01611385
v 0.6064883 0.07308659 0.009400211
v 0.6883626 0.02792922 0.003752895
v 0.01182373 0.06692947 0.01390066
v -0.09231351 0.01082629 0.01977721
v 0.1024307 -0.01108439 0.01118741
v 0.1069768 0.104754 0.009950935
v 0.1896989 0.01971374 0.008860816
v 0.2240833 0.1295579 0.006276626
v 0.2629752 0.03936008 0.005923244
v 0.3379187 0.1340382 0.003673279
v 0.3486641 0.04952691 0.002310047
v 0.4292314 0.1265413 0.001515633
v 0.4222791 0.0530783 0.0001265831
v 0.5235597 0.1015727 -0.0004128113
v 0.5186118 0.04745521 -0.001877048
v 0.6880285 0.02792926 -0.003896198
v 0.6059736 0.07308662 -0.00238623
v 0.5186118 0.04745521 -0.001877048
v 0.6883626 0.02792922 0.003752895
v 0.6880285 0.02792926 -0.003896198
v 0.5193344 0.04745428 0.01433149
v 0.4232782 0.05319308 0.02183687
v 0.4222791 0.0530783 0.0001265831
v 0.3497206 0.04980854 0.02872787
v 0.3486641 0.04952691 0.002310047
v 0.2643999 0.04012795 0.03862453
v 0.2629752 0.03936008 0.005923244
v 0.1910933 0.02092613 0.04591845
v 0.1896989 0.01971374 0.008860816
v 0.1046854 -0.00917954 0.06283438
v 0.1024307 -0.01108439 0.01118741
vt 0.7729492 0.5151367
vt 0.7729492 0.5151367
vt 0.7729492 0.5151367
vt 0.7729492 0.5151367
vt 0.7729492 0.5151367
vt 0.7729492 0.5151367
vt 0.7729492 0.5151367
vt 0.7729492 0.5151367
vt 0.7729492 0.5151367
vt 0.7729492 0.5151367
vt 0.7729492 0.5151367
vt 0.7729492 0.5151367
vt 0.7729492 0.5151367
vt 0.7729492 0.5151367
vt 0.7729492 0.5151367
vt 0.7729492 0.5151367
vt 0.7729492 0.5151367
vt 0.7729492 0.5151367
vt 0.7729492 0.5151367
vt 0.7729492 0.5151367
vt 0.7729492 0.5151367
vt 0.7729492 0.5151367
vt 0.7729492 0.5151367
vt 0.7729492 0.5151367
vt 0.7729492 0.5151367
vt 0.7729492 0.5151367
vt 0.7729492 0.5151367
vt 0.7729492 0.5151367
vt 0.7729492 0.5151367
vt 0.7729492 0.5151367
vt 0.7729492 0.5151367
vt 0.7729492 0.5151367
vt 0.7729492 0.5151367
vt 0.7729492 0.5151367
vt 0.7729492 0.5151367
vt 0.7729492 0.5151367
vt 0.7729492 0.5151367
vt 0.7729492 0.5151367
vt 0.7729492 0.5151367
vt 0.7729492 0.5151367
vt 0.7729492 0.5151367
vt 0.7729492 0.5151367
vt 0.7729492 0.5151367
vt 0.7729492 0.5151367
vt 0.7729492 0.5151367
vt 0.7729492 0.5151367
vt 0.7729492 0.5151367
vt 0.7729492 0.5151367
vt 0.7729492 0.5151367
vt 0.7729492 0.5151367
vt 0.7729492 0.5151367
vt 0.7729492 0.5151367
vt 0.7729492 0.5151367
vt 0.7729492 0.5151367
vt 0.7729492 0.5151367
vt 0.7729492 0.5151367
vt 0.7729492 0.5151367
vt 0.7729492 0.5151367
vt 0.7729492 0.5151367
vt 0.7729492 0.5151367
vt 0.7729492 0.5151367
vt 0.7729492 0.5151367
vt 0.7729492 0.5151367
vt 0.7729492 0.5151367
vt 0.7729492 0.5151367
vt 0.7729492 0.5151367
vt 0.7729492 0.5151367
vt 0.7729492 0.5151367
vt 0.7729492 0.5151367
vt 0.7729492 0.5151367
vt 0.7729492 0.5151367
vt 0.7729492 0.5151367
vt 0.7729492 0.5151367
vt 0.7729492 0.5151367
vt 0.7729492 0.5151367
vt 0.7729492 0.5151367
vt 0.7729492 0.5151367
vt 0.7729492 0.5151367
vt 0.7729492 0.5151367
vt 0.7729492 0.5151367
vt 0.7729492 0.5151367
vt 0.7729492 0.5151367
vt 0.7729492 0.5151367
vt 0.7729492 0.5151367
vt 0.7729492 0.5151367
vt 0.7729492 0.5151367
vt 0.7729492 0.5151367
vt 0.7729492 0.5151367
vt 0.7729492 0.5151367
vt 0.7729492 0.5151367
vt 0.7729492 0.5151367
vt 0.7729492 0.5151367
vt 0.7729492 0.5151367
vt 0.7729492 0.5151367
vt 0.7729492 0.5151367
vt 0.7729492 0.5151367
vt 0.7729492 0.5151367
vt 0.7729492 0.5151367
vt 0.7729492 0.5151367
vt 0.7729492 0.5151367
vt 0.7729492 0.5151367
vt 0.7729492 0.5151367
vt 0.7729492 0.5151367
vt 0.7729492 0.5151367
vt 0.7729492 0.5151367
vt 0.7729492 0.5151367
vt 0.7729492 0.5151367
vt 0.7729492 0.5151367
vt 0.7729492 0.5151367
vt 0.7729492 0.5151367
vt 0.7729492 0.5151367
vt 0.7729492 0.5151367
vt 0.7729492 0.5151367
vt 0.7729492 0.5151367
vt 0.7729492 0.5151367
vt 0.7729492 0.5151367
vt 0.7729492 0.5151367
vt 0.7729492 0.5151367
vt 0.7729492 0.5151367
vt 0.7729492 0.5151367
vt 0.7729492 0.5151367
vt 0.7729492 0.5151367
vt 0.7729492 0.5151367
vt 0.7729492 0.5151367
vn 0.4816895 0.8759766 -0.02102661
vn 0.4816895 0.8759766 -0.02102661
vn 0.4040527 0.9145508 -0.01763916
vn 0.404541 0.9145508 -0.01765442
vn 0.2910156 0.956543 -0.01647949
vn 0.2912598 0.956543 -0.01646423
vn 0.1696777 0.9853516 -0.02314758
vn 0.1689453 0.9853516 -0.02319336
vn 0.02174377 0.9995117 -0.03143311
vn 0.02069092 0.9995117 -0.03149414
vn -0.1248779 0.9916992 -0.03372192
vn -0.1256104 0.9916992 -0.03369141
vn -0.300293 0.953125 -0.03643799
vn -0.3029785 0.9521484 -0.03656006
vn -0.4541016 0.8891602 -0.05780029
vn -0.4567871 0.8876953 -0.05847168
vn -0.5161133 0.8530273 -0.074646
vn -0.5161133 0.8530273 -0.074646
vn 0.06286621 0.138916 0.9882813
vn 0.06286621 0.138916 0.9882813
vn 0.07623291 0.1341553 0.987793
vn 0.08538818 0.0737915 0.9936523
vn 0.09204102 0.09838867 0.9907227
vn 0.08306885 0.0291748 0.9960938
vn 0.08148193 0.03381348 0.9960938
vn 0.08740234 0.0003340244 0.9960938
vn 0.08740234 0.002450943 0.9960938
vn 0.07922363 -0.02133179 0.996582
vn 0.07928467 -0.02130127 0.996582
vn 0.06689453 -0.0266571 0.9975586
vn 0.06732178 -0.02687073 0.9975586
vn 0.06384277 -0.02519226 0.9975586
vn 0.06384277 -0.02519226 0.9975586
vn -0.03970337 -0.01508331 -0.9990234
vn -0.04507446 -0.01837158 -0.9990234
vn -0.04507446 -0.01837158 -0.9990234
vn -0.03085327 -0.0109024 -0.9995117
vn -0.03115845 -0.01216888 -0.9995117
vn -0.03140259 -0.007736206 -0.9995117
vn -0.03134155 -0.005382538 -0.9995117
vn -0.02882385 0.008094788 -0.9995117
vn -0.02848816 0.009086609 -0.9995117
vn -0.02157593 0.02017212 -0.9995117
vn -0.02159119 0.02015686 -0.9995117
vn -0.0146637 0.02252197 -0.9995117
vn -0.01434326 0.02232361 -0.9995117
vn -0.01190186 0.02070618 -0.9995117
vn -0.01190186 0.02070618 -0.9995117
vn -0.08605957 -0.9960938 0.005348206
vn -0.1144409 -0.9936523 0.005031586
vn -0.1144409 -0.9936523 0.005031586
vn -0.08612061 -0.9960938 0.005348206
vn -0.00428009 -1 0.005935669
vn -0.00491333 -1 0.005935669
vn 0.08331299 -0.996582 0.009605408
vn 0.08203125 -0.996582 0.009483337
vn 0.1899414 -0.9819336 0.01500702
vn 0.1875 -0.9819336 0.01493835
vn 0.2973633 -0.9545898 0.01831055
vn 0.2956543 -0.9550781 0.01824951
vn 0.3640137 -0.9311523 0.01451874
vn 0.3630371 -0.9316406 0.01467896
vn 0.4816895 0.8759766 -0.02102661
vn 0.4816895 0.8759766 -0.02102661
vn 0.4040527 0.9145508 -0.01763916
vn 0.404541 0.9145508 -0.01765442
vn 0.2910156 0.956543 -0.01647949
vn 0.2912598 0.956543 -0.01646423
vn 0.1696777 0.9853516 -0.02316284
vn 0.1689453 0.9853516 -0.02320862
vn 0.02174377 0.9995117 -0.03146362
vn 0.02069092 0.9995117 -0.03152466
vn -0.1248779 0.9916992 -0.03372192
vn -0.1256104 0.9916992 -0.03372192
vn -0.2973633 0.9545898 -0.006809235
vn -0.2998047 0.9541016 -0.006122589
vn -0.439209 0.8945313 0.08520508
vn -0.4406738 0.8935547 0.08691406
vn -0.4904785 0.8583984 0.1506348
vn -0.4904785 0.8583984 0.1506348
vn 0.04724121 0.1314697 0.9902344
vn 0.04724121 0.1314697 0.9902344
vn 0.06512451 0.1293945 0.9892578
vn 0.0838623 0.07385254 0.9936523
vn 0.08917236 0.09832764 0.9912109
vn 0.08306885 0.0291748 0.9960938
vn 0.08148193 0.03381348 0.9960938
vn 0.08740234 0.000333786 0.9960938
vn 0.08740234 0.002450943 0.9960938
vn 0.07922363 -0.02133179 0.996582
vn 0.07928467 -0.02130127 0.996582
vn 0.06689453 -0.0266571 0.9975586
vn 0.06732178 -0.02685547 0.9975586
vn 0.06384277 -0.025177 0.9975586
vn 0.06384277 -0.025177 0.9975586
vn -0.04064941 -0.01550293 -0.9990234
vn -0.0461731 -0.01889038 -0.9985352
vn -0.0461731 -0.01889038 -0.9985352
vn -0.03106689 -0.01087952 -0.9995117
vn -0.03128052 -0.01216125 -0.9995117
vn -0.03140259 -0.007736206 -0.9995117
vn -0.03134155 -0.005382538 -0.9995117
vn -0.02882385 0.008094788 -0.9995117
vn -0.02848816 0.009086609 -0.9995117
vn -0.02157593 0.02017212 -0.9995117
vn -0.02159119 0.02015686 -0.9995117
vn -0.0146637 0.02252197 -0.9995117
vn -0.01434326 0.02232361 -0.9995117
vn -0.01190186 0.02070618 -0.9995117
vn -0.01190186 0.02070618 -0.9995117
vn -0.08605957 -0.9960938 0.00535202
vn -0.1144409 -0.9936523 0.005027771
vn -0.1144409 -0.9936523 0.005027771
vn -0.08612061 -0.9960938 0.00535202
vn -0.00428009 -1 0.005943298
vn -0.00491333 -1 0.005939484
vn 0.08331299 -0.996582 0.009613037
vn 0.08203125 -0.996582 0.009490967
vn 0.1899414 -0.9819336 0.01500702
vn 0.1875 -0.9819336 0.01493835
vn 0.2973633 -0.9545898 0.01832581
vn 0.2956543 -0.9550781 0.01826477
vn 0.3537598 -0.9350586 0.01565552
vn 0.3532715 -0.9355469 0.01577759
g Claw_Hand_0
f 3/3/3 2/2/2 1/1/1
f 4/4/4 3/3/3 1/1/1
f 3/3/3 4/4/4 5/5/5
f 4/4/4 6/6/6 5/5/5
f 6/6/6 7/7/7 5/5/5
f 7/7/7 8/8/8 5/5/5
f 7/7/7 9/9/9 8/8/8
f 9/9/9 10/10/10 8/8/8
f 9/9/9 11/11/11 10/10/10
f 11/11/11 12/12/12 10/10/10
f 11/11/11 13/13/13 12/12/12
f 13/13/13 14/14/14 12/12/12
f 13/13/13 15/15/15 14/14/14
f 15/15/15 16/16/16 14/14/14
f 16/16/16 15/15/15 17/17/17
f 15/15/15 18/18/18 17/17/17
f 21/21/21 20/20/20 19/19/19
f 21/21/21 19/19/19 22/22/22
f 23/23/23 21/21/21 22/22/22
f 23/23/23 22/22/22 24/24/24
f 25/25/25 23/23/23 24/24/24
f 25/25/25 24/24/24 26/26/26
f 27/27/27 25/25/25 26/26/26
f 27/27/27 26/26/26 28/28/28
f 29/29/29 27/27/27 28/28/28
f 29/29/29 28/28/28 30/30/30
f 31/31/31 29/29/29 30/30/30
f 32/32/32 31/31/31 30/30/30
f 33/33/33 32/32/32 30/30/30
f 36/36/36 35/35/35 34/34/34
f 36/36/36 34/34/34 37/37/37
f 38/38/38 36/36/36 37/37/37
f 38/38/38 37/37/37 39/39/39
f 40/40/40 38/38/38 39/39/39
f 40/40/40 39/39/39 41/41/41
f 42/42/42 40/40/40 41/41/41
f 42/42/42 41/41/41 43/43/43
f 44/44/44 42/42/42 43/43/43
f 44/44/44 43/43/43 45/45/45
f 46/46/46 44/44/44 45/45/45
f 47/47/47 46/46/46 45/45/45
f 48/48/48 47/47/47 45/45/45
f 51/51/51 50/50/50 49/49/49
f 50/50/50 52/52/52 49/49/49
f 52/52/52 53/53/53 49/49/49
f 53/53/53 54/54/54 49/49/49
f 53/53/53 55/55/55 54/54/54
f 55/55/55 56/56/56 54/54/54
f 55/55/55 57/57/57 56/56/56
f 57/57/57 58/58/58 56/56/56
f 57/57/57 59/59/59 58/58/58
f 59/59/59 60/60/60 58/58/58
f 59/59/59 61/61/61 60/60/60
f 61/61/61 62/62/62 60/60/60
f 65/65/65 64/64/64 63/63/63
f 66/66/66 65/65/65 63/63/63
f 65/65/65 66/66/66 67/67/67
f 66/66/66 68/68/68 67/67/67
f 68/68/68 69/69/69 67/67/67
f 69/69/69 70/70/70 67/67/67
f 69/69/69 71/71/71 70/70/70
f 71/71/71 72/72/72 70/70/70
f 71/71/71 73/73/73 72/72/72
f 73/73/73 74/74/74 72/72/72
f 73/73/73 75/75/75 74/74/74
f 75/75/75 76/76/76 74/74/74
f 75/75/75 77/77/77 76/76/76
f 77/77/77 78/78/78 76/76/76
f 78/78/78 77/77/77 79/79/79
f 77/77/77 80/80/80 79/79/79
f 83/83/83 82/82/82 81/81/81
f 83/83/83 81/81/81 84/84/84
f 85/85/85 83/83/83 84/84/84
f 85/85/85 84/84/84 86/86/86
f 87/87/87 85/85/85 86/86/86
f 87/87/87 86/86/86 88/88/88
f 89/89/89 87/87/87 88/88/88
f 89/89/89 88/88/88 90/90/90
f 91/91/91 89/89/89 90/90/90
f 91/91/91 90/90/90 92/92/92
f 93/93/93 91/91/91 92/92/92
f 94/94/94 93/93/93 92/92/92
f 95/95/95 94/94/94 92/92/92
f 98/98/98 97/97/97 96/96/96
f 98/98/98 96/96/96 99/99/99
f 100/100/100 98/98/98 99/99/99
f 100/100/100 99/99/99 101/101/101
f 102/102/102 100/100/100 101/101/101
f 102/102/102 101/101/101 103/103/103
f 104/104/104 102/102/102 103/103/103
f 104/104/104 103/103/103 105/105/105
f 106/106/106 104/104/104 105/105/105
f 106/106/106 105/105/105 107/107/107
f 108/108/108 106/106/106 107/107/107
f 109/109/109 108/108/108 107/107/107
f 110/110/110 109/109/109 107/107/107
f 113/113/113 112/112/112 111/111/111
f 112/112/112 114/114/114 111/111/111
f 114/114/114 115/115/115 111/111/111
f 115/115/115 116/116/116 111/111/111
f 115/115/115 117/117/117 116/116/116
f 117/117/117 118/118/118 116/116/116
f 117/117/117 119/119/119 118/118/118
f 119/119/119 120/120/120 118/118/118
f 119/119/119 121/121/121 120/120/120
f 121/121/121 122/122/122 120/120/120
f 121/121/121 123/123/123 122/122/122
f 123/123/123 124/124/124 122/122/122
