g crate
v -0.4400111 -0.55 0.440011
v -0.55 -0.440011 0.440011
v -0.4400111 -0.440011 0.55
v 0.55 -0.440011 0.440011
v 0.440011 -0.55 0.440011
v 0.440011 -0.440011 0.55
v -0.55 0.440011 0.440011
v -0.4400111 0.55 0.440011
v -0.4400111 0.440011 0.55
v 0.440011 0.55 0.440011
v 0.55 0.440011 0.440011
v 0.440011 0.440011 0.55
v -0.55 0.440011 -0.440011
v -0.4400111 0.440011 -0.55
v -0.4400111 0.55 -0.440011
v 0.440011 0.440011 -0.55
v 0.55 0.440011 -0.440011
v 0.440011 0.55 -0.440011
v -0.55 -0.440011 -0.440011
v -0.4400111 -0.55 -0.440011
v -0.4400111 -0.440011 -0.55
v 0.440011 -0.55 -0.440011
v 0.55 -0.440011 -0.440011
v 0.440011 -0.440011 -0.55
v -0.4400111 -0.55 0.440011
v -0.4400111 -0.55 -0.440011
v -0.55 -0.440011 -0.440011
v -0.55 -0.440011 0.440011
v -0.4400111 -0.440011 0.55
v 0.440011 -0.440011 0.55
v 0.440011 -0.55 0.440011
v -0.4400111 -0.55 0.440011
v -0.55 -0.440011 0.440011
v -0.55 0.440011 0.440011
v -0.4400111 0.440011 0.55
v -0.4400111 -0.440011 0.55
v 0.55 -0.440011 0.440011
v 0.55 -0.440011 -0.440011
v 0.440011 -0.55 -0.440011
v 0.440011 -0.55 0.440011
v 0.440011 -0.440011 0.55
v 0.440011 0.440011 0.55
v 0.55 0.440011 0.440011
v 0.55 -0.440011 0.440011
v -0.55 0.440011 0.440011
v -0.55 0.440011 -0.440011
v -0.4400111 0.55 -0.440011
v -0.4400111 0.55 0.440011
v -0.4400111 0.55 0.440011
v 0.440011 0.55 0.440011
v 0.440011 0.440011 0.55
v -0.4400111 0.440011 0.55
v 0.440011 0.55 0.440011
v 0.440011 0.55 -0.440011
v 0.55 0.440011 -0.440011
v 0.55 0.440011 0.440011
v -0.55 0.440011 -0.440011
v -0.55 -0.440011 -0.440011
v -0.4400111 -0.440011 -0.55
v -0.4400111 0.440011 -0.55
v -0.4400111 0.440011 -0.55
v 0.440011 0.440011 -0.55
v 0.440011 0.55 -0.440011
v -0.4400111 0.55 -0.440011
v 0.440011 0.440011 -0.55
v 0.440011 -0.440011 -0.55
v 0.55 -0.440011 -0.440011
v 0.55 0.440011 -0.440011
v -0.4400111 -0.55 -0.440011
v 0.440011 -0.55 -0.440011
v 0.440011 -0.440011 -0.55
v -0.4400111 -0.440011 -0.55
v -0.3265289 -0.326529 0.4980669
v -0.3265289 0.3265289 0.4980669
v 0.3265289 0.3265289 0.4980669
v 0.3265289 -0.326529 0.4980669
v -0.3265289 0.4980669 0.326529
v -0.3265289 0.4980669 -0.326529
v 0.3265289 0.4980669 -0.326529
v 0.3265289 0.4980669 0.326529
v -0.3265289 0.3265289 -0.4980669
v -0.3265289 -0.326529 -0.4980669
v 0.3265289 -0.326529 -0.4980669
v 0.3265289 0.3265289 -0.4980669
v -0.3265289 -0.4980669 -0.326529
v -0.3265289 -0.4980669 0.326529
v 0.3265289 -0.4980669 0.326529
v 0.3265289 -0.4980669 -0.326529
v 0.4980669 -0.326529 0.326529
v 0.4980669 0.3265289 0.326529
v 0.4980669 0.3265289 -0.326529
v 0.4980669 -0.326529 -0.326529
v -0.4980669 -0.326529 -0.326529
v -0.4980669 0.3265289 -0.326529
v -0.4980669 0.3265289 0.326529
v -0.4980669 -0.326529 0.326529
v -0.3739372 -0.3739374 0.55
v -0.3265289 -0.326529 0.4980669
v 0.3265289 -0.326529 0.4980669
v 0.3739374 -0.3739374 0.55
v 0.3739374 -0.3739374 0.55
v 0.3265289 -0.326529 0.4980669
v 0.3265289 0.3265289 0.4980669
v 0.3739374 0.3739374 0.55
v 0.3739374 0.3739374 0.55
v 0.3265289 0.3265289 0.4980669
v -0.3265289 0.3265289 0.4980669
v -0.3739372 0.3739374 0.55
v -0.3739372 0.3739374 0.55
v -0.3265289 0.3265289 0.4980669
v -0.3265289 -0.326529 0.4980669
v -0.3739372 -0.3739374 0.55
v -0.3739372 0.55 0.3739374
v -0.3265289 0.4980669 0.326529
v 0.3265289 0.4980669 0.326529
v 0.3739374 0.55 0.3739374
v 0.3739374 0.55 0.3739374
v 0.3265289 0.4980669 0.326529
v 0.3265289 0.4980669 -0.326529
v 0.3739374 0.55 -0.3739374
v 0.3739374 0.55 -0.3739374
v 0.3265289 0.4980669 -0.326529
v -0.3265289 0.4980669 -0.326529
v -0.3739372 0.55 -0.3739374
v -0.3739372 0.55 -0.3739374
v -0.3265289 0.4980669 -0.326529
v -0.3265289 0.4980669 0.326529
v -0.3739372 0.55 0.3739374
v -0.3739372 0.3739374 -0.55
v -0.3265289 0.3265289 -0.4980669
v 0.3265289 0.3265289 -0.4980669
v 0.3739374 0.3739374 -0.55
v 0.3739374 0.3739374 -0.55
v 0.3265289 0.3265289 -0.4980669
v 0.3265289 -0.326529 -0.4980669
v 0.3739374 -0.3739374 -0.55
v 0.3739374 -0.3739374 -0.55
v 0.3265289 -0.326529 -0.4980669
v -0.3265289 -0.326529 -0.4980669
v -0.3739372 -0.3739374 -0.55
v -0.3739372 -0.3739374 -0.55
v -0.3265289 -0.326529 -0.4980669
v -0.3265289 0.3265289 -0.4980669
v -0.3739372 0.3739374 -0.55
v -0.3739372 -0.55 -0.3739374
v -0.3265289 -0.4980669 -0.326529
v 0.3265289 -0.4980669 -0.326529
v 0.3739374 -0.55 -0.3739374
v 0.3739374 -0.55 -0.3739374
v 0.3265289 -0.4980669 -0.326529
v 0.3265289 -0.4980669 0.326529
v 0.3739374 -0.55 0.3739374
v 0.3739374 -0.55 0.3739374
v 0.3265289 -0.4980669 0.326529
v -0.3265289 -0.4980669 0.326529
v -0.3739372 -0.55 0.3739374
v -0.3739372 -0.55 0.3739374
v -0.3265289 -0.4980669 0.326529
v -0.3265289 -0.4980669 -0.326529
v -0.3739372 -0.55 -0.3739374
v 0.55 -0.3739374 0.3739374
v 0.4980669 -0.326529 0.326529
v 0.4980669 -0.326529 -0.326529
v 0.55 -0.3739374 -0.3739374
v 0.55 -0.3739374 -0.3739374
v 0.4980669 -0.326529 -0.326529
v 0.4980669 0.3265289 -0.326529
v 0.55 0.3739374 -0.3739374
v 0.55 0.3739374 -0.3739374
v 0.4980669 0.3265289 -0.326529
v 0.4980669 0.3265289 0.326529
v 0.55 0.3739374 0.3739374
v 0.55 0.3739374 0.3739374
v 0.4980669 0.3265289 0.326529
v 0.4980669 -0.326529 0.326529
v 0.55 -0.3739374 0.3739374
v -0.55 -0.3739374 -0.3739374
v -0.4980669 -0.326529 -0.326529
v -0.4980669 -0.326529 0.326529
v -0.55 -0.3739374 0.3739374
v -0.55 -0.3739374 0.3739374
v -0.4980669 -0.326529 0.326529
v -0.4980669 0.3265289 0.326529
v -0.55 0.3739374 0.3739374
v -0.55 0.3739374 0.3739374
v -0.4980669 0.3265289 0.326529
v -0.4980669 0.3265289 -0.326529
v -0.55 0.3739374 -0.3739374
v -0.55 0.3739374 -0.3739374
v -0.4980669 0.3265289 -0.326529
v -0.4980669 -0.326529 -0.326529
v -0.55 -0.3739374 -0.3739374
v -0.4400111 -0.440011 0.55
v -0.3739372 -0.3739374 0.55
v 0.3739374 -0.3739374 0.55
v 0.440011 -0.440011 0.55
v -0.4400111 0.440011 0.55
v 0.3739374 0.3739374 0.55
v -0.3739372 0.3739374 0.55
v 0.440011 0.440011 0.55
v -0.4400111 0.55 0.440011
v -0.3739372 0.55 0.3739374
v 0.3739374 0.55 0.3739374
v 0.440011 0.55 0.440011
v -0.4400111 0.55 -0.440011
v 0.3739374 0.55 -0.3739374
v -0.3739372 0.55 -0.3739374
v 0.440011 0.55 -0.440011
v -0.4400111 0.440011 -0.55
v -0.3739372 0.3739374 -0.55
v 0.3739374 0.3739374 -0.55
v 0.440011 0.440011 -0.55
v -0.4400111 -0.440011 -0.55
v 0.3739374 -0.3739374 -0.55
v -0.3739372 -0.3739374 -0.55
v 0.440011 -0.440011 -0.55
v -0.4400111 -0.55 -0.440011
v -0.3739372 -0.55 -0.3739374
v 0.3739374 -0.55 -0.3739374
v 0.440011 -0.55 -0.440011
v -0.4400111 -0.55 0.440011
v 0.3739374 -0.55 0.3739374
v -0.3739372 -0.55 0.3739374
v 0.440011 -0.55 0.440011
v 0.55 -0.440011 0.440011
v 0.55 -0.3739374 0.3739374
v 0.55 -0.3739374 -0.3739374
v 0.55 -0.440011 -0.440011
v 0.55 0.440011 0.440011
v 0.55 0.3739374 -0.3739374
v 0.55 0.3739374 0.3739374
v 0.55 0.440011 -0.440011
v -0.55 -0.440011 -0.440011
v -0.55 -0.3739374 -0.3739374
v -0.55 -0.3739374 0.3739374
v -0.55 -0.440011 0.440011
v -0.55 0.440011 -0.440011
v -0.55 0.3739374 0.3739374
v -0.55 0.3739374 -0.3739374
v -0.55 0.440011 0.440011
vt 0.3999023 0
vt 0.3500977 0.0249939
vt 0.3999023 0.0249939
vt 0.6499023 0.0249939
vt 0.6000977 0
vt 0.6000977 0.0249939
vt 0.3500977 0.2249756
vt 0.3999023 0.2749023
vt 0.3999023 0.2249756
vt 0.6000977 0.2749023
vt 0.6499023 0.2249756
vt 0.6000977 0.2249756
vt 0.375 0.4750977
vt 0.3999023 0.5249023
vt 0.3999023 0.4750977
vt 0.6000977 0.5249023
vt 0.625 0.4750977
vt 0.6000977 0.4750977
vt 0.375 0.7250977
vt 0.3999023 0.7749023
vt 0.3999023 0.7250977
vt 0.6000977 0.7749023
vt 0.625 0.7250977
vt 0.6000977 0.7250977
vt 0.3999023 0.9750977
vt 0.3999023 0.7749023
vt 0.375 0.7749023
vt 0.375 0.9750977
vt 0.3999023 0.0249939
vt 0.6000977 0.0249939
vt 0.6000977 0
vt 0.3999023 0
vt 0.3500977 0.0249939
vt 0.3500977 0.2249756
vt 0.3999023 0.2249756
vt 0.3999023 0.0249939
vt 0.625 0.9750977
vt 0.625 0.7749023
vt 0.6000977 0.7749023
vt 0.6000977 0.9750977
vt 0.6000977 0.0249939
vt 0.6000977 0.2249756
vt 0.6499023 0.2249756
vt 0.6499023 0.0249939
vt 0.375 0.2749023
vt 0.375 0.4750977
vt 0.3999023 0.4750977
vt 0.3999023 0.2749023
vt 0.3999023 0.2749023
vt 0.6000977 0.2749023
vt 0.6000977 0.2249756
vt 0.3999023 0.2249756
vt 0.6000977 0.2749023
vt 0.6000977 0.4750977
vt 0.625 0.4750977
vt 0.625 0.2749023
vt 0.375 0.5249023
vt 0.375 0.7250977
vt 0.3999023 0.7250977
vt 0.3999023 0.5249023
vt 0.3999023 0.5249023
vt 0.6000977 0.5249023
vt 0.6000977 0.4750977
vt 0.3999023 0.4750977
vt 0.6000977 0.5249023
vt 0.6000977 0.7250977
vt 0.625 0.7250977
vt 0.625 0.5249023
vt 0.3999023 0.7749023
vt 0.6000977 0.7749023
vt 0.6000977 0.7250977
vt 0.3999023 0.7250977
vt 0.3999023 0.0249939
vt 0.3999023 0.2249756
vt 0.6000977 0.2249756
vt 0.6000977 0.0249939
vt 0.3999023 0.2749023
vt 0.3999023 0.4750977
vt 0.6000977 0.4750977
vt 0.6000977 0.2749023
vt 0.3999023 0.5249023
vt 0.3999023 0.7250977
vt 0.6000977 0.7250977
vt 0.6000977 0.5249023
vt 0.3999023 0.7749023
vt 0.3999023 0.9750977
vt 0.6000977 0.9750977
vt 0.6000977 0.7749023
vt 0.6499023 0.0249939
vt 0.6499023 0.2249756
vt 0.8500977 0.2249756
vt 0.8500977 0.0249939
vt 0.1500244 0.0249939
vt 0.1500244 0.2249756
vt 0.3500977 0.2249756
vt 0.3500977 0.0249939
vt 0.3999023 0.0249939
vt 0.3999023 0.0249939
vt 0.6000977 0.0249939
vt 0.6000977 0.0249939
vt 0.6000977 0.0249939
vt 0.6000977 0.0249939
vt 0.6000977 0.2249756
vt 0.6000977 0.2249756
vt 0.6000977 0.2249756
vt 0.6000977 0.2249756
vt 0.3999023 0.2249756
vt 0.3999023 0.2249756
vt 0.3999023 0.2249756
vt 0.3999023 0.2249756
vt 0.3999023 0.0249939
vt 0.3999023 0.0249939
vt 0.3999023 0.2749023
vt 0.3999023 0.2749023
vt 0.6000977 0.2749023
vt 0.6000977 0.2749023
vt 0.6000977 0.2749023
vt 0.6000977 0.2749023
vt 0.6000977 0.4750977
vt 0.6000977 0.4750977
vt 0.6000977 0.4750977
vt 0.6000977 0.4750977
vt 0.3999023 0.4750977
vt 0.3999023 0.4750977
vt 0.3999023 0.4750977
vt 0.3999023 0.4750977
vt 0.3999023 0.2749023
vt 0.3999023 0.2749023
vt 0.3999023 0.5249023
vt 0.3999023 0.5249023
vt 0.6000977 0.5249023
vt 0.6000977 0.5249023
vt 0.6000977 0.5249023
vt 0.6000977 0.5249023
vt 0.6000977 0.7250977
vt 0.6000977 0.7250977
vt 0.6000977 0.7250977
vt 0.6000977 0.7250977
vt 0.3999023 0.7250977
vt 0.3999023 0.7250977
vt 0.3999023 0.7250977
vt 0.3999023 0.7250977
vt 0.3999023 0.5249023
vt 0.3999023 0.5249023
vt 0.3999023 0.7749023
vt 0.3999023 0.7749023
vt 0.6000977 0.7749023
vt 0.6000977 0.7749023
vt 0.6000977 0.7749023
vt 0.6000977 0.7749023
vt 0.6000977 0.9750977
vt 0.6000977 0.9750977
vt 0.6000977 0.9750977
vt 0.6000977 0.9750977
vt 0.3999023 0.9750977
vt 0.3999023 0.9750977
vt 0.3999023 0.9750977
vt 0.3999023 0.9750977
vt 0.3999023 0.7749023
vt 0.3999023 0.7749023
vt 0.6499023 0.0249939
vt 0.6499023 0.0249939
vt 0.8500977 0.0249939
vt 0.8500977 0.0249939
vt 0.8500977 0.0249939
vt 0.8500977 0.0249939
vt 0.8500977 0.2249756
vt 0.8500977 0.2249756
vt 0.8500977 0.2249756
vt 0.8500977 0.2249756
vt 0.6499023 0.2249756
vt 0.6499023 0.2249756
vt 0.6499023 0.2249756
vt 0.6499023 0.2249756
vt 0.6499023 0.0249939
vt 0.6499023 0.0249939
vt 0.1500244 0.0249939
vt 0.1500244 0.0249939
vt 0.3500977 0.0249939
vt 0.3500977 0.0249939
vt 0.3500977 0.0249939
vt 0.3500977 0.0249939
vt 0.3500977 0.2249756
vt 0.3500977 0.2249756
vt 0.3500977 0.2249756
vt 0.3500977 0.2249756
vt 0.1500244 0.2249756
vt 0.1500244 0.2249756
vt 0.1500244 0.2249756
vt 0.1500244 0.2249756
vt 0.1500244 0.0249939
vt 0.1500244 0.0249939
vt 0.3999023 0.0249939
vt 0.3999023 0.0249939
vt 0.6000977 0.0249939
vt 0.6000977 0.0249939
vt 0.3999023 0.2249756
vt 0.6000977 0.2249756
vt 0.3999023 0.2249756
vt 0.6000977 0.2249756
vt 0.3999023 0.2749023
vt 0.3999023 0.2749023
vt 0.6000977 0.2749023
vt 0.6000977 0.2749023
vt 0.3999023 0.4750977
vt 0.6000977 0.4750977
vt 0.3999023 0.4750977
vt 0.6000977 0.4750977
vt 0.3999023 0.5249023
vt 0.3999023 0.5249023
vt 0.6000977 0.5249023
vt 0.6000977 0.5249023
vt 0.3999023 0.7250977
vt 0.6000977 0.7250977
vt 0.3999023 0.7250977
vt 0.6000977 0.7250977
vt 0.3999023 0.7749023
vt 0.3999023 0.7749023
vt 0.6000977 0.7749023
vt 0.6000977 0.7749023
vt 0.3999023 0.9750977
vt 0.6000977 0.9750977
vt 0.3999023 0.9750977
vt 0.6000977 0.9750977
vt 0.6499023 0.0249939
vt 0.6499023 0.0249939
vt 0.8500977 0.0249939
vt 0.8500977 0.0249939
vt 0.6499023 0.2249756
vt 0.8500977 0.2249756
vt 0.6499023 0.2249756
vt 0.8500977 0.2249756
vt 0.1500244 0.0249939
vt 0.1500244 0.0249939
vt 0.3500977 0.0249939
vt 0.3500977 0.0249939
vt 0.1500244 0.2249756
vt 0.3500977 0.2249756
vt 0.1500244 0.2249756
vt 0.3500977 0.2249756
vn -0.5771484 -0.5771484 0.5771484
vn -0.5771484 -0.5771484 0.5771484
vn -0.5771484 -0.5771484 0.5771484
vn 0.5771484 -0.5771484 0.5771484
vn 0.5771484 -0.5771484 0.5771484
vn 0.5771484 -0.5771484 0.5771484
vn -0.5771484 0.5771484 0.5771484
vn -0.5771484 0.5771484 0.5771484
vn -0.5771484 0.5771484 0.5771484
vn 0.5771484 0.5771484 0.5771484
vn 0.5771484 0.5771484 0.5771484
vn 0.5771484 0.5771484 0.5771484
vn -0.5771484 0.5771484 -0.5771484
vn -0.5771484 0.5771484 -0.5771484
vn -0.5771484 0.5771484 -0.5771484
vn 0.5771484 0.5771484 -0.5771484
vn 0.5771484 0.5771484 -0.5771484
vn 0.5771484 0.5771484 -0.5771484
vn -0.5771484 -0.5771484 -0.5771484
vn -0.5771484 -0.5771484 -0.5771484
vn -0.5771484 -0.5771484 -0.5771484
vn 0.5771484 -0.5771484 -0.5771484
vn 0.5771484 -0.5771484 -0.5771484
vn 0.5771484 -0.5771484 -0.5771484
vn -0.7070313 -0.7070313 0
vn -0.7070313 -0.7070313 0
vn -0.7070313 -0.7070313 0
vn -0.7070313 -0.7070313 0
vn 0 -0.7070313 0.7070313
vn 0 -0.7070313 0.7070313
vn 0 -0.7070313 0.7070313
vn 0 -0.7070313 0.7070313
vn -0.7070313 0 0.7070313
vn -0.7070313 0 0.7070313
vn -0.7070313 0 0.7070313
vn -0.7070313 0 0.7070313
vn 0.7070313 -0.7070313 0
vn 0.7070313 -0.7070313 0
vn 0.7070313 -0.7070313 0
vn 0.7070313 -0.7070313 0
vn 0.7070313 0 0.7070313
vn 0.7070313 0 0.7070313
vn 0.7070313 0 0.7070313
vn 0.7070313 0 0.7070313
vn -0.7070313 0.7070313 0
vn -0.7070313 0.7070313 0
vn -0.7070313 0.7070313 0
vn -0.7070313 0.7070313 0
vn 0 0.7070313 0.7070313
vn 0 0.7070313 0.7070313
vn 0 0.7070313 0.7070313
vn 0 0.7070313 0.7070313
vn 0.7070313 0.7070313 0
vn 0.7070313 0.7070313 0
vn 0.7070313 0.7070313 0
vn 0.7070313 0.7070313 0
vn -0.7070313 0 -0.7070313
vn -0.7070313 0 -0.7070313
vn -0.7070313 0 -0.7070313
vn -0.7070313 0 -0.7070313
vn 0 0.7070313 -0.7070313
vn 0 0.7070313 -0.7070313
vn 0 0.7070313 -0.7070313
vn 0 0.7070313 -0.7070313
vn 0.7070313 0 -0.7070313
vn 0.7070313 0 -0.7070313
vn 0.7070313 0 -0.7070313
vn 0.7070313 0 -0.7070313
vn 0 -0.7070313 -0.7070313
vn 0 -0.7070313 -0.7070313
vn 0 -0.7070313 -0.7070313
vn 0 -0.7070313 -0.7070313
vn 0 0 1
vn 0 0 1
vn 0 0 1
vn 0 0 1
vn 0 1 0
vn 0 1 0
vn 0 1 0
vn 0 1 0
vn 0 0 -1
vn 0 0 -1
vn 0 0 -1
vn 0 0 -1
vn 0 -1 0
vn 0 -1 0
vn 0 -1 0
vn 0 -1 0
vn 1 0 0
vn 1 0 0
vn 1 0 0
vn 1 0 0
vn -1 0 0
vn -1 0 0
vn -1 0 0
vn -1 0 0
vn 0 0.7387695 0.6743164
vn 0 0.7387695 0.6743164
vn 0 0.7387695 0.6743164
vn 0 0.7387695 0.6743164
vn -0.7387695 0 0.6743164
vn -0.7387695 0 0.6743164
vn -0.7387695 0 0.6743164
vn -0.7387695 0 0.6743164
vn 0 -0.7387695 0.6743164
vn 0 -0.7387695 0.6743164
vn 0 -0.7387695 0.6743164
vn 0 -0.7387695 0.6743164
vn 0.7387695 0 0.6743164
vn 0.7387695 0 0.6743164
vn 0.7387695 0 0.6743164
vn 0.7387695 0 0.6743164
vn 0 0.6743164 -0.7387695
vn 0 0.6743164 -0.7387695
vn 0 0.6743164 -0.7387695
vn 0 0.6743164 -0.7387695
vn -0.7387695 0.6743164 0
vn -0.7387695 0.6743164 0
vn -0.7387695 0.6743164 0
vn -0.7387695 0.6743164 0
vn 0 0.6743164 0.7387695
vn 0 0.6743164 0.7387695
vn 0 0.6743164 0.7387695
vn 0 0.6743164 0.7387695
vn 0.7387695 0.6743164 0
vn 0.7387695 0.6743164 0
vn 0.7387695 0.6743164 0
vn 0.7387695 0.6743164 0
vn 0 -0.7387695 -0.6743164
vn 0 -0.7387695 -0.6743164
vn 0 -0.7387695 -0.6743164
vn 0 -0.7387695 -0.6743164
vn -0.7387695 0 -0.6743164
vn -0.7387695 0 -0.6743164
vn -0.7387695 0 -0.6743164
vn -0.7387695 0 -0.6743164
vn 0 0.7387695 -0.6743164
vn 0 0.7387695 -0.6743164
vn 0 0.7387695 -0.6743164
vn 0 0.7387695 -0.6743164
vn 0.7387695 0 -0.6743164
vn 0.7387695 0 -0.6743164
vn 0.7387695 0 -0.6743164
vn 0.7387695 0 -0.6743164
vn 0 -0.6743164 0.7387695
vn 0 -0.6743164 0.7387695
vn 0 -0.6743164 0.7387695
vn 0 -0.6743164 0.7387695
vn -0.7387695 -0.6743164 0
vn -0.7387695 -0.6743164 0
vn -0.7387695 -0.6743164 0
vn -0.7387695 -0.6743164 0
vn 0 -0.6743164 -0.7387695
vn 0 -0.6743164 -0.7387695
vn 0 -0.6743164 -0.7387695
vn 0 -0.6743164 -0.7387695
vn 0.7387695 -0.6743164 0
vn 0.7387695 -0.6743164 0
vn 0.7387695 -0.6743164 0
vn 0.7387695 -0.6743164 0
vn 0.6743164 0.7387695 0
vn 0.6743164 0.7387695 0
vn 0.6743164 0.7387695 0
vn 0.6743164 0.7387695 0
vn 0.6743164 0 0.7387695
vn 0.6743164 0 0.7387695
vn 0.6743164 0 0.7387695
vn 0.6743164 0 0.7387695
vn 0.6743164 -0.7387695 0
vn 0.6743164 -0.7387695 0
vn 0.6743164 -0.7387695 0
vn 0.6743164 -0.7387695 0
vn 0.6743164 0 -0.7387695
vn 0.6743164 0 -0.7387695
vn 0.6743164 0 -0.7387695
vn 0.6743164 0 -0.7387695
vn -0.6743164 0.7387695 0
vn -0.6743164 0.7387695 0
vn -0.6743164 0.7387695 0
vn -0.6743164 0.7387695 0
vn -0.6743164 0 -0.7387695
vn -0.6743164 0 -0.7387695
vn -0.6743164 0 -0.7387695
vn -0.6743164 0 -0.7387695
vn -0.6743164 -0.7387695 0
vn -0.6743164 -0.7387695 0
vn -0.6743164 -0.7387695 0
vn -0.6743164 -0.7387695 0
vn -0.6743164 0 0.7387695
vn -0.6743164 0 0.7387695
vn -0.6743164 0 0.7387695
vn -0.6743164 0 0.7387695
vn 0 0 1
vn 0 0 1
vn 0 0 1
vn 0 0 1
vn 0 0 1
vn 0 0 1
vn 0 0 1
vn 0 0 1
vn 0 1 0
vn 0 1 0
vn 0 1 0
vn 0 1 0
vn 0 1 0
vn 0 1 0
vn 0 1 0
vn 0 1 0
vn 0 0 -1
vn 0 0 -1
vn 0 0 -1
vn 0 0 -1
vn 0 0 -1
vn 0 0 -1
vn 0 0 -1
vn 0 0 -1
vn 0 -1 0
vn 0 -1 0
vn 0 -1 0
vn 0 -1 0
vn 0 -1 0
vn 0 -1 0
vn 0 -1 0
vn 0 -1 0
vn 1 0 0
vn 1 0 0
vn 1 0 0
vn 1 0 0
vn 1 0 0
vn 1 0 0
vn 1 0 0
vn 1 0 0
vn -1 0 0
vn -1 0 0
vn -1 0 0
vn -1 0 0
vn -1 0 0
vn -1 0 0
vn -1 0 0
vn -1 0 0
g crate_0
f 3/3/3 2/2/2 1/1/1
f 6/6/6 5/5/5 4/4/4
f 9/9/9 8/8/8 7/7/7
f 12/12/12 11/11/11 10/10/10
f 15/15/15 14/14/14 13/13/13
f 18/18/18 17/17/17 16/16/16
f 21/21/21 20/20/20 19/19/19
f 24/24/24 23/23/23 22/22/22
f 27/27/27 26/26/26 25/25/25
f 28/28/28 27/27/27 25/25/25
f 31/31/31 30/30/30 29/29/29
f 32/32/32 31/31/31 29/29/29
f 35/35/35 34/34/34 33/33/33
f 36/36/36 35/35/35 33/33/33
f 39/39/39 38/38/38 37/37/37
f 40/40/40 39/39/39 37/37/37
f 43/43/43 42/42/42 41/41/41
f 44/44/44 43/43/43 41/41/41
f 47/47/47 46/46/46 45/45/45
f 48/48/48 47/47/47 45/45/45
f 51/51/51 50/50/50 49/49/49
f 52/52/52 51/51/51 49/49/49
f 55/55/55 54/54/54 53/53/53
f 56/56/56 55/55/55 53/53/53
f 59/59/59 58/58/58 57/57/57
f 60/60/60 59/59/59 57/57/57
f 63/63/63 62/62/62 61/61/61
f 64/64/64 63/63/63 61/61/61
f 67/67/67 66/66/66 65/65/65
f 68/68/68 67/67/67 65/65/65
f 71/71/71 70/70/70 69/69/69
f 72/72/72 71/71/71 69/69/69
f 75/75/75 74/74/74 73/73/73
f 76/76/76 75/75/75 73/73/73
f 79/79/79 78/78/78 77/77/77
f 80/80/80 79/79/79 77/77/77
f 83/83/83 82/82/82 81/81/81
f 84/84/84 83/83/83 81/81/81
f 87/87/87 86/86/86 85/85/85
f 88/88/88 87/87/87 85/85/85
f 91/91/91 90/90/90 89/89/89
f 92/92/92 91/91/91 89/89/89
f 95/95/95 94/94/94 93/93/93
f 96/96/96 95/95/95 93/93/93
f 99/99/99 98/98/98 97/97/97
f 100/100/100 99/99/99 97/97/97
f 103/103/103 102/102/102 101/101/101
f 104/104/104 103/103/103 101/101/101
f 107/107/107 106/106/106 105/105/105
f 108/108/108 107/107/107 105/105/105
f 111/111/111 110/110/110 109/109/109
f 112/112/112 111/111/111 109/109/109
f 115/115/115 114/114/114 113/113/113
f 116/116/116 115/115/115 113/113/113
f 119/119/119 118/118/118 117/117/117
f 120/120/120 119/119/119 117/117/117
f 123/123/123 122/122/122 121/121/121
f 124/124/124 123/123/123 121/121/121
f 127/127/127 126/126/126 125/125/125
f 128/128/128 127/127/127 125/125/125
f 131/131/131 130/130/130 129/129/129
f 132/132/132 131/131/131 129/129/129
f 135/135/135 134/134/134 133/133/133
f 136/136/136 135/135/135 133/133/133
f 139/139/139 138/138/138 137/137/137
f 140/140/140 139/139/139 137/137/137
f 143/143/143 142/142/142 141/141/141
f 144/144/144 143/143/143 141/141/141
f 147/147/147 146/146/146 145/145/145
f 148/148/148 147/147/147 145/145/145
f 151/151/151 150/150/150 149/149/149
f 152/152/152 151/151/151 149/149/149
f 155/155/155 154/154/154 153/153/153
f 156/156/156 155/155/155 153/153/153
f 159/159/159 158/158/158 157/157/157
f 160/160/160 159/159/159 157/157/157
f 163/163/163 162/162/162 161/161/161
f 164/164/164 163/163/163 161/161/161
f 167/167/167 166/166/166 165/165/165
f 168/168/168 167/167/167 165/165/165
f 171/171/171 170/170/170 169/169/169
f 172/172/172 171/171/171 169/169/169
f 175/175/175 174/174/174 173/173/173
f 176/176/176 175/175/175 173/173/173
f 179/179/179 178/178/178 177/177/177
f 180/180/180 179/179/179 177/177/177
f 183/183/183 182/182/182 181/181/181
f 184/184/184 183/183/183 181/181/181
f 187/187/187 186/186/186 185/185/185
f 188/188/188 187/187/187 185/185/185
f 191/191/191 190/190/190 189/189/189
f 192/192/192 191/191/191 189/189/189
f 195/195/195 194/194/194 193/193/193
f 196/196/196 195/195/195 193/193/193
f 193/193/193 194/194/194 197/197/197
f 198/198/198 195/195/195 196/196/196
f 194/194/194 199/199/199 197/197/197
f 200/200/200 198/198/198 196/196/196
f 197/197/197 199/199/199 200/200/200
f 199/199/199 198/198/198 200/200/200
f 203/203/203 202/202/202 201/201/201
f 204/204/204 203/203/203 201/201/201
f 201/201/201 202/202/202 205/205/205
f 206/206/206 203/203/203 204/204/204
f 202/202/202 207/207/207 205/205/205
f 208/208/208 206/206/206 204/204/204
f 205/205/205 207/207/207 208/208/208
f 207/207/207 206/206/206 208/208/208
f 211/211/211 210/210/210 209/209/209
f 212/212/212 211/211/211 209/209/209
f 209/209/209 210/210/210 213/213/213
f 214/214/214 211/211/211 212/212/212
f 210/210/210 215/215/215 213/213/213
f 216/216/216 214/214/214 212/212/212
f 213/213/213 215/215/215 216/216/216
f 215/215/215 214/214/214 216/216/216
f 219/219/219 218/218/218 217/217/217
f 220/220/220 219/219/219 217/217/217
f 217/217/217 218/218/218 221/221/221
f 222/222/222 219/219/219 220/220/220
f 218/218/218 223/223/223 221/221/221
f 224/224/224 222/222/222 220/220/220
f 221/221/221 223/223/223 224/224/224
f 223/223/223 222/222/222 224/224/224
f 227/227/227 226/226/226 225/225/225
f 228/228/228 227/227/227 225/225/225
f 225/225/225 226/226/226 229/229/229
f 230/230/230 227/227/227 228/228/228
f 226/226/226 231/231/231 229/229/229
f 232/232/232 230/230/230 228/228/228
f 229/229/229 231/231/231 232/232/232
f 231/231/231 230/230/230 232/232/232
f 235/235/235 234/234/234 233/233/233
f 236/236/236 235/235/235 233/233/233
f 233/233/233 234/234/234 237/237/237
f 238/238/238 235/235/235 236/236/236
f 234/234/234 239/239/239 237/237/237
f 240/240/240 238/238/238 236/236/236
f 237/237/237 239/239/239 240/240/240
f 239/239/239 238/238/238 240/240/240
