g Disc_03
v -0.05477193 -0.06515056 0.09546465
v -0.08775494 -0.03064754 0.08267483
v -0.07184537 -0.04729045 0.09221176
v -0.02178891 -0.0996545 0.08267477
v -0.03769872 -0.08301113 0.09221174
v -0.1207382 0.003856398 -4.075131E-08
v -0.1119004 -0.005388597 0.0477323
v -0.1014171 -0.0163557 0.0675037
v -0.1184906 0.001504408 0.02470805
v -0.02178891 -0.09965404 -0.08267488
v -0.08775494 -0.03064754 -0.08267488
v -0.1119004 -0.005388597 -0.04773234
v -0.1184906 0.001504408 -0.02470811
v -0.1014171 -0.0163557 -0.06750373
v -0.05477193 -0.06515056 -0.09546473
v -0.07184537 -0.04729045 -0.09221184
v -0.03769872 -0.08301067 -0.09221184
v 0.0111941 -0.134158 -6.671601E-08
v 0.002356288 -0.1249125 -0.04773241
v -0.008126957 -0.1139463 -0.06750381
v 0.008946483 -0.1318064 -0.02470808
v 0.002356517 -0.1249125 0.04773227
v 0.008946483 -0.1318064 0.024708
v -0.008126957 -0.1139463 0.06750368
v 0.07351279 0.01284413 0.1204174
v 0.1121298 -0.02755306 0.08815161
v 0.09428885 -0.008889574 0.1079632
v 0.02892134 0.05949116 0.1204174
v 0.05121706 0.0361681 0.1246653
v 0.1344254 -0.05087657 -0.03226578
v 0.1344254 -0.05087657 0.0322657
v 0.1258197 -0.04187419 0.0623326
v 0.1373609 -0.05394725 -4.075131E-08
v -0.009695943 0.0998888 -0.08815169
v 0.07351267 0.01284413 -0.1204175
v 0.1121298 -0.02755306 -0.08815177
v 0.1258197 -0.04187419 -0.06233273
v 0.09428885 -0.008889574 -0.1079634
v 0.02892134 0.05949116 -0.1204175
v 0.05121706 0.0361681 -0.1246653
v 0.008145053 0.08122486 -0.1079634
v -0.03199132 0.1232119 0.03226575
v -0.03199132 0.1232119 -0.03226581
v -0.02338582 0.1142095 -0.06233265
v -0.03492673 0.1262825 -4.075131E-08
v -0.009695943 0.0998888 0.08815167
v -0.02338582 0.1142095 0.06233263
v 0.008145053 0.08122486 0.1079633
v -0.09737622 -0.02058223 0.2301032
v 0.05121706 0.0361681 0.2674211
v -0.05477193 -0.06515056 0.2382204
v 0.003390376 0.08619892 0.2583089
v 0.09904399 -0.01386363 0.2583089
v -0.1370774 0.02094838 0.2063049
v -0.01216752 -0.1097194 0.2301032
v -0.04117703 0.1328208 0.2315934
v 0.1436112 -0.06048595 0.2315934
v -0.1711693 0.05661183 0.1684472
v 0.02753352 -0.1512504 0.2063048
v -0.07944791 0.1728559 0.1890952
v 0.181882 -0.1005206 0.1890951
v -0.1973287 0.08397786 0.1191102
v 0.06162524 -0.1869134 0.1684472
v -0.1088142 0.2035759 0.1337105
v 0.2112481 -0.1312406 0.1337104
v -0.2137734 0.1011806 0.06165595
v 0.08778495 -0.214279 0.1191101
v -0.1272746 0.2228872 0.06921363
v 0.2297087 -0.1505519 0.06921356
v -0.2193824 0.1070478 -4.075131E-08
v 0.1042295 -0.2314817 0.06165588
v -0.1335711 0.2294739 -4.075131E-08
v 0.2360053 -0.1571386 -1.186454E-07
v -0.2137734 0.1011806 -0.06165601
v 0.1098385 -0.2373493 -1.186454E-07
v -0.1272748 0.2228876 -0.06921368
v 0.2297087 -0.1505519 -0.06921376
v -0.1973287 0.08397786 -0.1191102
v 0.1042295 -0.2314817 -0.06165609
v -0.1088142 0.2035759 -0.1337105
v 0.2112481 -0.1312406 -0.1337107
v -0.1711691 0.05661183 -0.1684473
v 0.08778483 -0.214279 -0.1191103
v -0.07944791 0.1728559 -0.1890953
v 0.181882 -0.1005206 -0.1890954
v -0.1370774 0.02094838 -0.206305
v 0.06162524 -0.1869134 -0.1684474
v -0.04117703 0.1328208 -0.2315935
v 0.1436112 -0.06048595 -0.2315935
v -0.09737622 -0.02058223 -0.2301033
v 0.02753318 -0.1512504 -0.2063051
v 0.003390376 0.08619892 -0.2583089
v 0.09904376 -0.01386363 -0.258309
v -0.05477193 -0.06515056 -0.2382205
v -0.01216764 -0.1097194 -0.2301034
v 0.05121706 0.0361681 -0.2674211
v -0.05477193 -0.06515056 0.2382204
v -0.05477193 -0.06515056 0.09546465
v -0.07184537 -0.04729045 0.09221176
v -0.09737622 -0.02058223 0.2301032
v -0.01216752 -0.1097194 0.2301032
v -0.08775494 -0.03064754 0.08267483
v -0.03769872 -0.08301113 0.09221174
v -0.1370774 0.02094838 0.2063049
v 0.02753352 -0.1512504 0.2063048
v -0.1014171 -0.0163557 0.0675037
v -0.02178891 -0.0996545 0.08267477
v -0.1711693 0.05661183 0.1684472
v 0.06162524 -0.1869134 0.1684472
v -0.1119004 -0.005388597 0.0477323
v -0.008126957 -0.1139463 0.06750368
v -0.1973287 0.08397786 0.1191102
v 0.08778495 -0.214279 0.1191101
v -0.1184906 0.001504408 0.02470805
v 0.002356517 -0.1249125 0.04773227
v -0.2137734 0.1011806 0.06165595
v 0.1042295 -0.2314817 0.06165588
v -0.1207382 0.003856398 -4.075131E-08
v 0.008946483 -0.1318064 0.024708
v -0.2193824 0.1070478 -4.075131E-08
v 0.1098385 -0.2373493 -1.186454E-07
v -0.1184906 0.001504408 -0.02470811
v 0.0111941 -0.134158 -6.671601E-08
v -0.2137734 0.1011806 -0.06165601
v 0.1042295 -0.2314817 -0.06165609
v -0.1119004 -0.005388597 -0.04773234
v 0.008946483 -0.1318064 -0.02470808
v -0.1973287 0.08397786 -0.1191102
v 0.08778483 -0.214279 -0.1191103
v -0.1014171 -0.0163557 -0.06750373
v 0.002356288 -0.1249125 -0.04773241
v -0.1711691 0.05661183 -0.1684473
v 0.06162524 -0.1869134 -0.1684474
v -0.08775494 -0.03064754 -0.08267488
v -0.008126957 -0.1139463 -0.06750381
v -0.1370774 0.02094838 -0.206305
v 0.02753318 -0.1512504 -0.2063051
v -0.07184537 -0.04729045 -0.09221184
v -0.02178891 -0.09965404 -0.08267488
v -0.09737622 -0.02058223 -0.2301033
v -0.01216764 -0.1097194 -0.2301034
v -0.05477193 -0.06515056 -0.09546473
v -0.03769872 -0.08301067 -0.09221184
v -0.05477193 -0.06515056 -0.2382205
v 0.003390376 0.08619892 0.2583089
v 0.02892134 0.05949116 0.1204174
v 0.05121706 0.0361681 0.1246653
v 0.05121706 0.0361681 0.2674211
v -0.04117703 0.1328208 0.2315934
v 0.07351279 0.01284413 0.1204174
v 0.008145053 0.08122486 0.1079633
v 0.09904399 -0.01386363 0.2583089
v -0.07944791 0.1728559 0.1890952
v 0.09428885 -0.008889574 0.1079632
v -0.009695943 0.0998888 0.08815167
v 0.1436112 -0.06048595 0.2315934
v -0.1088142 0.2035759 0.1337105
v 0.1121298 -0.02755306 0.08815161
v -0.02338582 0.1142095 0.06233263
v 0.181882 -0.1005206 0.1890951
v -0.1272746 0.2228872 0.06921363
v 0.1258197 -0.04187419 0.0623326
v -0.03199132 0.1232119 0.03226575
v 0.2112481 -0.1312406 0.1337104
v -0.1335711 0.2294739 -4.075131E-08
v 0.1344254 -0.05087657 0.0322657
v -0.03492673 0.1262825 -4.075131E-08
v 0.2297087 -0.1505519 0.06921356
v -0.1272748 0.2228876 -0.06921368
v 0.1373609 -0.05394725 -4.075131E-08
v -0.03199132 0.1232119 -0.03226581
v 0.2360053 -0.1571386 -1.186454E-07
v -0.1088142 0.2035759 -0.1337105
v 0.1344254 -0.05087657 -0.03226578
v -0.02338582 0.1142095 -0.06233265
v 0.2297087 -0.1505519 -0.06921376
v -0.07944791 0.1728559 -0.1890953
v 0.1258197 -0.04187419 -0.06233273
v -0.009695943 0.0998888 -0.08815169
v 0.2112481 -0.1312406 -0.1337107
v -0.04117703 0.1328208 -0.2315935
v 0.1121298 -0.02755306 -0.08815177
v 0.008145053 0.08122486 -0.1079634
v 0.181882 -0.1005206 -0.1890954
v 0.003390376 0.08619892 -0.2583089
v 0.09428885 -0.008889574 -0.1079634
v 0.02892134 0.05949116 -0.1204175
v 0.1436112 -0.06048595 -0.2315935
v 0.05121706 0.0361681 -0.2674211
v 0.07351267 0.01284413 -0.1204175
v 0.05121706 0.0361681 -0.1246653
v 0.09904376 -0.01386363 -0.258309
vt 0.9814453 0.7724609
vt 0.980957 0.7724609
vt 0.9814453 0.7724609
vt 0.980957 0.7724609
vt 0.9814453 0.7724609
vt 0.9790039 0.7724609
vt 0.9799805 0.7724609
vt 0.9804688 0.7724609
vt 0.9794922 0.7724609
vt 0.9765625 0.7724609
vt 0.9765625 0.7724609
vt 0.9775391 0.7724609
vt 0.9780273 0.7724609
vt 0.9770508 0.7724609
vt 0.9760742 0.7724609
vt 0.9765625 0.7724609
vt 0.9765625 0.7724609
vt 0.9790039 0.7724609
vt 0.9775391 0.7724609
vt 0.9770508 0.7724609
vt 0.9780273 0.7724609
vt 0.9799805 0.7724609
vt 0.9794922 0.7724609
vt 0.9804688 0.7724609
vt 0.9819336 0.7724609
vt 0.9814453 0.7724609
vt 0.9819336 0.7724609
vt 0.9819336 0.7724609
vt 0.9824219 0.7724609
vt 0.9780273 0.7724609
vt 0.9794922 0.7724609
vt 0.9804688 0.7724609
vt 0.9790039 0.7724609
vt 0.9765625 0.7724609
vt 0.9755859 0.7724609
vt 0.9765625 0.7724609
vt 0.9770508 0.7724609
vt 0.9760742 0.7724609
vt 0.9755859 0.7724609
vt 0.9755859 0.7724609
vt 0.9760742 0.7724609
vt 0.9794922 0.7724609
vt 0.9780273 0.7724609
vt 0.9770508 0.7724609
vt 0.9790039 0.7724609
vt 0.9814453 0.7724609
vt 0.9804688 0.7724609
vt 0.9819336 0.7724609
vt 0.8935547 0.777832
vt 0.8945313 0.777832
vt 0.8935547 0.777832
vt 0.894043 0.777832
vt 0.894043 0.777832
vt 0.8925781 0.777832
vt 0.8935547 0.777832
vt 0.8935547 0.777832
vt 0.8935547 0.777832
vt 0.8916016 0.777832
vt 0.8925781 0.777832
vt 0.8920898 0.777832
vt 0.8920898 0.777832
vt 0.890625 0.777832
vt 0.8916016 0.777832
vt 0.890625 0.777832
vt 0.890625 0.777832
vt 0.8886719 0.777832
vt 0.890625 0.777832
vt 0.8891602 0.777832
vt 0.8891602 0.777832
vt 0.887207 0.777832
vt 0.8886719 0.777832
vt 0.887207 0.777832
vt 0.887207 0.777832
vt 0.8857422 0.777832
vt 0.887207 0.777832
vt 0.8852539 0.777832
vt 0.8852539 0.777832
vt 0.8837891 0.777832
vt 0.8857422 0.777832
vt 0.8837891 0.777832
vt 0.8837891 0.777832
vt 0.8828125 0.777832
vt 0.8837891 0.777832
vt 0.8823242 0.777832
vt 0.8823242 0.777832
vt 0.8818359 0.777832
vt 0.8828125 0.777832
vt 0.8808594 0.777832
vt 0.8808594 0.777832
vt 0.8808594 0.777832
vt 0.8818359 0.777832
vt 0.8803711 0.777832
vt 0.8803711 0.777832
vt 0.8808594 0.777832
vt 0.8808594 0.777832
vt 0.8798828 0.777832
vt 0.439209 0.2626953
vt 0.4353027 0.2626953
vt 0.4353027 0.2626953
vt 0.4389648 0.2626953
vt 0.4389648 0.2626953
vt 0.4348145 0.2626953
vt 0.4353027 0.2626953
vt 0.4382324 0.2626953
vt 0.4382324 0.2626953
vt 0.4345703 0.2626953
vt 0.4348145 0.2626953
vt 0.4372559 0.2626953
vt 0.4372559 0.2626953
vt 0.434082 0.2626953
vt 0.4345703 0.2626953
vt 0.4360352 0.2626953
vt 0.4360352 0.2626953
vt 0.4333496 0.2626953
vt 0.434082 0.2626953
vt 0.4343262 0.2626953
vt 0.4343262 0.2626953
vt 0.4326172 0.2626953
vt 0.4333496 0.2626953
vt 0.4326172 0.2626953
vt 0.4326172 0.2626953
vt 0.4321289 0.2626953
vt 0.4326172 0.2626953
vt 0.4311523 0.2626953
vt 0.4311523 0.2626953
vt 0.4313965 0.2626953
vt 0.4321289 0.2626953
vt 0.4294434 0.2626953
vt 0.4294434 0.2626953
vt 0.4309082 0.2626953
vt 0.4313965 0.2626953
vt 0.4282227 0.2626953
vt 0.4282227 0.2626953
vt 0.4304199 0.2626953
vt 0.4309082 0.2626953
vt 0.4272461 0.2626953
vt 0.4272461 0.2626953
vt 0.4301758 0.2626953
vt 0.4304199 0.2626953
vt 0.4265137 0.2626953
vt 0.4265137 0.2626953
vt 0.4301758 0.2626953
vt 0.4301758 0.2626953
vt 0.4262695 0.2626953
vt 0.4396973 0.2626953
vt 0.4360352 0.2626953
vt 0.4360352 0.2626953
vt 0.4399414 0.2626953
vt 0.4389648 0.2626953
vt 0.4360352 0.2626953
vt 0.4355469 0.2626953
vt 0.4396973 0.2626953
vt 0.4377441 0.2626953
vt 0.4355469 0.2626953
vt 0.4350586 0.2626953
vt 0.4389648 0.2626953
vt 0.4362793 0.2626953
vt 0.4350586 0.2626953
vt 0.4343262 0.2626953
vt 0.4377441 0.2626953
vt 0.4345703 0.2626953
vt 0.4343262 0.2626953
vt 0.4335938 0.2626953
vt 0.4362793 0.2626953
vt 0.4326172 0.2626953
vt 0.4335938 0.2626953
vt 0.4326172 0.2626953
vt 0.4345703 0.2626953
vt 0.4309082 0.2626953
vt 0.4326172 0.2626953
vt 0.4318848 0.2626953
vt 0.4326172 0.2626953
vt 0.4291992 0.2626953
vt 0.4318848 0.2626953
vt 0.4309082 0.2626953
vt 0.4309082 0.2626953
vt 0.4274902 0.2626953
vt 0.4309082 0.2626953
vt 0.4304199 0.2626953
vt 0.4291992 0.2626953
vt 0.4265137 0.2626953
vt 0.4304199 0.2626953
vt 0.4296875 0.2626953
vt 0.4274902 0.2626953
vt 0.4257813 0.2626953
vt 0.4296875 0.2626953
vt 0.4294434 0.2626953
vt 0.4265137 0.2626953
vt 0.4255371 0.2626953
vt 0.4294434 0.2626953
vt 0.4294434 0.2626953
vt 0.4257813 0.2626953
vn -0.7226563 -0.690918 -7.688999E-06
vn -0.7226563 -0.690918 1.013279E-06
vn -0.7226563 -0.690918 0
vn -0.7226563 -0.690918 -2.980232E-06
vn -0.7226563 -0.690918 -1.037121E-05
vn -0.7226563 -0.690918 5.364418E-07
vn -0.7226563 -0.690918 0
vn -0.7226563 -0.690918 0
vn -0.7226563 -0.690918 0
vn -0.7226563 -0.690918 -9.298325E-06
vn -0.7226563 -0.690918 -2.384186E-07
vn -0.7226563 -0.690918 8.34465E-07
vn -0.7226563 -0.690918 0
vn -0.7226563 -0.690918 5.364418E-07
vn -0.7226563 -0.690918 -1.555681E-05
vn -0.7226563 -0.690918 1.132488E-06
vn -0.7226563 -0.690918 -2.104044E-05
vn -0.7226563 -0.690918 0
vn -0.7226563 -0.690918 -4.172325E-07
vn -0.7226563 -0.690918 -5.364418E-07
vn -0.7226563 -0.690918 0
vn -0.7226563 -0.690918 -8.34465E-07
vn -0.7226563 -0.690918 0
vn -0.7226563 -0.690918 -5.364418E-07
vn 0.7226563 0.690918 -3.576279E-06
vn 0.7226563 0.690918 8.940697E-07
vn 0.7226563 0.690918 1.66893E-06
vn 0.7226563 0.690918 -4.827976E-06
vn 0.7226563 0.690918 -6.020069E-06
vn 0.7226563 0.690918 -6.556511E-07
vn 0.7226563 0.690918 -5.960464E-07
vn 0.7226563 0.690918 -4.768372E-07
vn 0.7226563 0.690918 -8.34465E-07
vn 0.7226563 0.690918 5.364418E-06
vn 0.7226563 0.690918 2.384186E-07
vn 0.7226563 0.690918 -3.576279E-07
vn 0.7226563 0.690918 -9.536743E-07
vn 0.7226563 0.690918 -4.768372E-07
vn 0.7226563 0.690918 9.417534E-06
vn 0.7226563 0.690918 2.384186E-07
vn 0.7226563 0.690918 1.251698E-05
vn 0.7226563 0.690918 1.132488E-06
vn 0.7226563 0.690918 -6.556511E-07
vn 0.7226563 0.690918 4.768372E-07
vn 0.7226563 0.690918 -1.311302E-06
vn 0.7226563 0.690918 -6.854534E-06
vn 0.7226563 0.690918 2.920628E-06
vn 0.7226563 0.690918 -1.204014E-05
vn -0.6733398 -0.4174805 0.6103516
vn 0.4614258 0.440918 0.7700195
vn -0.5605469 -0.5356445 0.6318359
vn 0.3237305 0.5849609 0.7436523
vn 0.5991211 0.296875 0.7436523
vn -0.7788086 -0.307373 0.546875
vn -0.4475098 -0.6538086 0.6103516
vn 0.1953125 0.7192383 0.6665039
vn 0.7275391 0.1627197 0.6665039
vn -0.8691406 -0.2127686 0.4467773
vn -0.342041 -0.7641602 0.546875
vn 0.08514404 0.8344727 0.5444336
vn 0.8374023 0.04748535 0.5444336
vn -0.9384766 -0.1402588 0.315918
vn -0.251709 -0.8583984 0.4467773
vn 0.0006055832 0.9228516 0.3850098
vn 0.921875 -0.04095459 0.3850098
vn -0.9819336 -0.09460449 0.1634521
vn -0.182373 -0.9311523 0.315918
vn -0.05255127 0.9785156 0.1992188
vn 0.9750977 -0.09655762 0.1992188
vn -0.9970703 -0.07910156 0
vn -0.1387939 -0.9765625 0.1634521
vn -0.07067871 0.9975586 -1.132488E-06
vn 0.9931641 -0.1155396 -4.172325E-07
vn -0.9819336 -0.09460449 -0.1634521
vn -0.1239014 -0.9921875 -3.576279E-07
vn -0.05255127 0.9785156 -0.1992188
vn 0.9750977 -0.09655762 -0.1992188
vn -0.9384766 -0.1402588 -0.315918
vn -0.1387939 -0.9765625 -0.1634521
vn 0.0006055832 0.9228516 -0.3850098
vn 0.921875 -0.04095459 -0.3850098
vn -0.8691406 -0.2127686 -0.4467773
vn -0.182373 -0.9311523 -0.315918
vn 0.08514404 0.8344727 -0.5444336
vn 0.8374023 0.04748535 -0.5444336
vn -0.7788086 -0.307373 -0.546875
vn -0.251709 -0.8583984 -0.4467773
vn 0.1953125 0.7192383 -0.6665039
vn 0.7275391 0.1627197 -0.6665039
vn -0.6733398 -0.4174805 -0.6103516
vn -0.342041 -0.7641602 -0.546875
vn 0.3237305 0.5849609 -0.7436523
vn 0.5991211 0.296875 -0.7436523
vn -0.5605469 -0.5356445 -0.6318359
vn -0.4475098 -0.6538086 -0.6103516
vn 0.4614258 0.440918 -0.7700195
vn -0.5605469 -0.5356445 0.6318359
vn -0.7226563 -0.690918 -7.688999E-06
vn -0.7226563 -0.690918 0
vn -0.6733398 -0.4174805 0.6103516
vn -0.4475098 -0.6538086 0.6103516
vn -0.7226563 -0.690918 1.013279E-06
vn -0.7226563 -0.690918 -1.037121E-05
vn -0.7788086 -0.307373 0.546875
vn -0.342041 -0.7641602 0.546875
vn -0.7226563 -0.690918 0
vn -0.7226563 -0.690918 -2.980232E-06
vn -0.8691406 -0.2127686 0.4467773
vn -0.251709 -0.8583984 0.4467773
vn -0.7226563 -0.690918 0
vn -0.7226563 -0.690918 -5.364418E-07
vn -0.9384766 -0.1402588 0.315918
vn -0.182373 -0.9311523 0.315918
vn -0.7226563 -0.690918 0
vn -0.7226563 -0.690918 -8.34465E-07
vn -0.9819336 -0.09460449 0.1634521
vn -0.1387939 -0.9765625 0.1634521
vn -0.7226563 -0.690918 5.364418E-07
vn -0.7226563 -0.690918 0
vn -0.9970703 -0.07910156 0
vn -0.1239014 -0.9921875 -3.576279E-07
vn -0.7226563 -0.690918 0
vn -0.7226563 -0.690918 0
vn -0.9819336 -0.09460449 -0.1634521
vn -0.1387939 -0.9765625 -0.1634521
vn -0.7226563 -0.690918 8.34465E-07
vn -0.7226563 -0.690918 0
vn -0.9384766 -0.1402588 -0.315918
vn -0.182373 -0.9311523 -0.315918
vn -0.7226563 -0.690918 5.364418E-07
vn -0.7226563 -0.690918 -4.172325E-07
vn -0.8691406 -0.2127686 -0.4467773
vn -0.251709 -0.8583984 -0.4467773
vn -0.7226563 -0.690918 -2.384186E-07
vn -0.7226563 -0.690918 -5.364418E-07
vn -0.7788086 -0.307373 -0.546875
vn -0.342041 -0.7641602 -0.546875
vn -0.7226563 -0.690918 1.132488E-06
vn -0.7226563 -0.690918 -9.298325E-06
vn -0.6733398 -0.4174805 -0.6103516
vn -0.4475098 -0.6538086 -0.6103516
vn -0.7226563 -0.690918 -1.555681E-05
vn -0.7226563 -0.690918 -2.104044E-05
vn -0.5605469 -0.5356445 -0.6318359
vn 0.3237305 0.5849609 0.7436523
vn 0.7226563 0.690918 -4.827976E-06
vn 0.7226563 0.690918 -6.020069E-06
vn 0.4614258 0.440918 0.7700195
vn 0.1953125 0.7192383 0.6665039
vn 0.7226563 0.690918 -3.576279E-06
vn 0.7226563 0.690918 -1.204014E-05
vn 0.5991211 0.296875 0.7436523
vn 0.08514404 0.8344727 0.5444336
vn 0.7226563 0.690918 1.66893E-06
vn 0.7226563 0.690918 -6.854534E-06
vn 0.7275391 0.1627197 0.6665039
vn 0.0006055832 0.9228516 0.3850098
vn 0.7226563 0.690918 8.940697E-07
vn 0.7226563 0.690918 2.920628E-06
vn 0.8374023 0.04748535 0.5444336
vn -0.05255127 0.9785156 0.1992188
vn 0.7226563 0.690918 -4.768372E-07
vn 0.7226563 0.690918 1.132488E-06
vn 0.921875 -0.04095459 0.3850098
vn -0.07067871 0.9975586 -1.132488E-06
vn 0.7226563 0.690918 -5.960464E-07
vn 0.7226563 0.690918 -1.311302E-06
vn 0.9750977 -0.09655762 0.1992188
vn -0.05255127 0.9785156 -0.1992188
vn 0.7226563 0.690918 -8.34465E-07
vn 0.7226563 0.690918 -6.556511E-07
vn 0.9931641 -0.1155396 -4.172325E-07
vn 0.0006055832 0.9228516 -0.3850098
vn 0.7226563 0.690918 -6.556511E-07
vn 0.7226563 0.690918 4.768372E-07
vn 0.9750977 -0.09655762 -0.1992188
vn 0.08514404 0.8344727 -0.5444336
vn 0.7226563 0.690918 -9.536743E-07
vn 0.7226563 0.690918 5.364418E-06
vn 0.921875 -0.04095459 -0.3850098
vn 0.1953125 0.7192383 -0.6665039
vn 0.7226563 0.690918 -3.576279E-07
vn 0.7226563 0.690918 1.251698E-05
vn 0.8374023 0.04748535 -0.5444336
vn 0.3237305 0.5849609 -0.7436523
vn 0.7226563 0.690918 -4.768372E-07
vn 0.7226563 0.690918 9.417534E-06
vn 0.7275391 0.1627197 -0.6665039
vn 0.4614258 0.440918 -0.7700195
vn 0.7226563 0.690918 2.384186E-07
vn 0.7226563 0.690918 2.384186E-07
vn 0.5991211 0.296875 -0.7436523
g Disc_03_0
f 3/3/3 2/2/2 1/1/1
f 2/2/2 4/4/4 1/1/1
f 1/1/1 4/4/4 5/5/5
f 6/6/6 4/4/4 2/2/2
f 7/7/7 6/6/6 2/2/2
f 8/8/8 7/7/7 2/2/2
f 9/9/9 6/6/6 7/7/7
f 10/10/10 4/4/4 6/6/6
f 11/11/11 10/10/10 6/6/6
f 12/12/12 11/11/11 6/6/6
f 13/13/13 12/12/12 6/6/6
f 14/14/14 11/11/11 12/12/12
f 15/15/15 10/10/10 11/11/11
f 16/16/16 15/15/15 11/11/11
f 17/17/17 10/10/10 15/15/15
f 18/18/18 4/4/4 10/10/10
f 19/19/19 18/18/18 10/10/10
f 20/20/20 19/19/19 10/10/10
f 21/21/21 18/18/18 19/19/19
f 22/22/22 4/4/4 18/18/18
f 23/23/23 22/22/22 18/18/18
f 24/24/24 4/4/4 22/22/22
f 27/27/27 26/26/26 25/25/25
f 26/26/26 28/28/28 25/25/25
f 25/25/25 28/28/28 29/29/29
f 30/30/30 28/28/28 26/26/26
f 31/31/31 30/30/30 26/26/26
f 32/32/32 31/31/31 26/26/26
f 33/33/33 30/30/30 31/31/31
f 34/34/34 28/28/28 30/30/30
f 35/35/35 34/34/34 30/30/30
f 36/36/36 35/35/35 30/30/30
f 37/37/37 36/36/36 30/30/30
f 38/38/38 35/35/35 36/36/36
f 39/39/39 34/34/34 35/35/35
f 40/40/40 39/39/39 35/35/35
f 41/41/41 34/34/34 39/39/39
f 42/42/42 28/28/28 34/34/34
f 43/43/43 42/42/42 34/34/34
f 44/44/44 43/43/43 34/34/34
f 45/45/45 42/42/42 43/43/43
f 46/46/46 28/28/28 42/42/42
f 47/47/47 46/46/46 42/42/42
f 48/48/48 28/28/28 46/46/46
f 51/51/51 50/50/50 49/49/49
f 50/50/50 52/52/52 49/49/49
f 53/53/53 50/50/50 51/51/51
f 49/49/49 52/52/52 54/54/54
f 55/55/55 53/53/53 51/51/51
f 52/52/52 56/56/56 54/54/54
f 57/57/57 53/53/53 55/55/55
f 54/54/54 56/56/56 58/58/58
f 59/59/59 57/57/57 55/55/55
f 56/56/56 60/60/60 58/58/58
f 61/61/61 57/57/57 59/59/59
f 58/58/58 60/60/60 62/62/62
f 63/63/63 61/61/61 59/59/59
f 60/60/60 64/64/64 62/62/62
f 65/65/65 61/61/61 63/63/63
f 62/62/62 64/64/64 66/66/66
f 67/67/67 65/65/65 63/63/63
f 64/64/64 68/68/68 66/66/66
f 69/69/69 65/65/65 67/67/67
f 66/66/66 68/68/68 70/70/70
f 71/71/71 69/69/69 67/67/67
f 68/68/68 72/72/72 70/70/70
f 73/73/73 69/69/69 71/71/71
f 70/70/70 72/72/72 74/74/74
f 75/75/75 73/73/73 71/71/71
f 72/72/72 76/76/76 74/74/74
f 77/77/77 73/73/73 75/75/75
f 74/74/74 76/76/76 78/78/78
f 79/79/79 77/77/77 75/75/75
f 76/76/76 80/80/80 78/78/78
f 81/81/81 77/77/77 79/79/79
f 78/78/78 80/80/80 82/82/82
f 83/83/83 81/81/81 79/79/79
f 80/80/80 84/84/84 82/82/82
f 85/85/85 81/81/81 83/83/83
f 82/82/82 84/84/84 86/86/86
f 87/87/87 85/85/85 83/83/83
f 84/84/84 88/88/88 86/86/86
f 89/89/89 85/85/85 87/87/87
f 86/86/86 88/88/88 90/90/90
f 91/91/91 89/89/89 87/87/87
f 88/88/88 92/92/92 90/90/90
f 93/93/93 89/89/89 91/91/91
f 90/90/90 92/92/92 94/94/94
f 95/95/95 93/93/93 91/91/91
f 92/92/92 96/96/96 94/94/94
f 96/96/96 93/93/93 95/95/95
f 94/94/94 96/96/96 95/95/95
f 99/99/99 98/98/98 97/97/97
f 100/100/100 99/99/99 97/97/97
f 97/97/97 98/98/98 101/101/101
f 102/102/102 99/99/99 100/100/100
f 98/98/98 103/103/103 101/101/101
f 104/104/104 102/102/102 100/100/100
f 101/101/101 103/103/103 105/105/105
f 106/106/106 102/102/102 104/104/104
f 103/103/103 107/107/107 105/105/105
f 108/108/108 106/106/106 104/104/104
f 105/105/105 107/107/107 109/109/109
f 110/110/110 106/106/106 108/108/108
f 107/107/107 111/111/111 109/109/109
f 112/112/112 110/110/110 108/108/108
f 109/109/109 111/111/111 113/113/113
f 114/114/114 110/110/110 112/112/112
f 111/111/111 115/115/115 113/113/113
f 116/116/116 114/114/114 112/112/112
f 113/113/113 115/115/115 117/117/117
f 118/118/118 114/114/114 116/116/116
f 115/115/115 119/119/119 117/117/117
f 120/120/120 118/118/118 116/116/116
f 117/117/117 119/119/119 121/121/121
f 122/122/122 118/118/118 120/120/120
f 119/119/119 123/123/123 121/121/121
f 124/124/124 122/122/122 120/120/120
f 121/121/121 123/123/123 125/125/125
f 126/126/126 122/122/122 124/124/124
f 123/123/123 127/127/127 125/125/125
f 128/128/128 126/126/126 124/124/124
f 125/125/125 127/127/127 129/129/129
f 130/130/130 126/126/126 128/128/128
f 127/127/127 131/131/131 129/129/129
f 132/132/132 130/130/130 128/128/128
f 129/129/129 131/131/131 133/133/133
f 134/134/134 130/130/130 132/132/132
f 131/131/131 135/135/135 133/133/133
f 136/136/136 134/134/134 132/132/132
f 133/133/133 135/135/135 137/137/137
f 138/138/138 134/134/134 136/136/136
f 135/135/135 139/139/139 137/137/137
f 140/140/140 138/138/138 136/136/136
f 137/137/137 139/139/139 141/141/141
f 142/142/142 138/138/138 140/140/140
f 139/139/139 143/143/143 141/141/141
f 144/144/144 142/142/142 140/140/140
f 141/141/141 143/143/143 144/144/144
f 143/143/143 142/142/142 144/144/144
f 147/147/147 146/146/146 145/145/145
f 148/148/148 147/147/147 145/145/145
f 145/145/145 146/146/146 149/149/149
f 150/150/150 147/147/147 148/148/148
f 146/146/146 151/151/151 149/149/149
f 152/152/152 150/150/150 148/148/148
f 149/149/149 151/151/151 153/153/153
f 154/154/154 150/150/150 152/152/152
f 151/151/151 155/155/155 153/153/153
f 156/156/156 154/154/154 152/152/152
f 153/153/153 155/155/155 157/157/157
f 158/158/158 154/154/154 156/156/156
f 155/155/155 159/159/159 157/157/157
f 160/160/160 158/158/158 156/156/156
f 157/157/157 159/159/159 161/161/161
f 162/162/162 158/158/158 160/160/160
f 159/159/159 163/163/163 161/161/161
f 164/164/164 162/162/162 160/160/160
f 161/161/161 163/163/163 165/165/165
f 166/166/166 162/162/162 164/164/164
f 163/163/163 167/167/167 165/165/165
f 168/168/168 166/166/166 164/164/164
f 165/165/165 167/167/167 169/169/169
f 170/170/170 166/166/166 168/168/168
f 167/167/167 171/171/171 169/169/169
f 172/172/172 170/170/170 168/168/168
f 169/169/169 171/171/171 173/173/173
f 174/174/174 170/170/170 172/172/172
f 171/171/171 175/175/175 173/173/173
f 176/176/176 174/174/174 172/172/172
f 173/173/173 175/175/175 177/177/177
f 178/178/178 174/174/174 176/176/176
f 175/175/175 179/179/179 177/177/177
f 180/180/180 178/178/178 176/176/176
f 177/177/177 179/179/179 181/181/181
f 182/182/182 178/178/178 180/180/180
f 179/179/179 183/183/183 181/181/181
f 184/184/184 182/182/182 180/180/180
f 181/181/181 183/183/183 185/185/185
f 186/186/186 182/182/182 184/184/184
f 183/183/183 187/187/187 185/185/185
f 188/188/188 186/186/186 184/184/184
f 185/185/185 187/187/187 189/189/189
f 190/190/190 186/186/186 188/188/188
f 187/187/187 191/191/191 189/189/189
f 192/192/192 190/190/190 188/188/188
f 189/189/189 191/191/191 192/192/192
f 191/191/191 190/190/190 192/192/192
