g fountain_statueR
v 0.2556937 -1.104159 0.4464872
v 0.1763437 -1.10416 0.6805212
v 0.396085 -0.2820177 0.7080371
v 0.4296343 -0.6339967 0.2939022
v -0.2556937 -1.104159 0.4464872
v 0.4296343 -0.6339967 0.2939022
v -0.4296343 -0.6339967 0.2939022
v 0.2556937 -1.104159 0.4464872
v -0.1763437 -1.10416 0.6805212
v -0.2556937 -1.104159 0.4464872
v -0.4296343 -0.6339967 0.2939022
v -0.396085 -0.2820177 0.7080371
v 0.2440627 0.9746671 0.680521
v 0.1651685 0.9746671 0.6805212
v 0.1651685 0.9746671 0.5133393
v 0.2440627 0.9746671 0.4523275
v -0.1651685 0.9746671 0.5133393
v -0.2440627 0.9746671 0.4523275
v -0.1651685 0.9746671 0.6805212
v -0.2440627 0.9746671 0.680521
v 0.1651685 0.9746671 0.6805212
v 0.0597465 1.926289 0.6805212
v 0.0597465 1.926291 0.6200464
v 0.1651685 0.9746671 0.5133393
v 0.1651685 0.9746671 0.5133393
v -0.0597465 1.926291 0.6200464
v -0.1651685 0.9746671 0.5133393
v 0.0597465 1.926291 0.6200464
v -0.1651685 0.9746671 0.5133393
v -0.0597465 1.926291 0.6200464
v -0.0597465 1.926289 0.6805212
v -0.1651685 0.9746671 0.6805212
v 0.0597465 1.926291 0.6200464
v 0.0597465 1.926289 0.6805212
v -0.0597465 1.926289 0.6805212
v -0.0597465 1.926291 0.6200464
v 0.2440627 0.9746671 0.4523275
v 0.4296343 -0.6339967 0.2939022
v 0.396085 -0.2820177 0.7080371
v 0.2440627 0.9746671 0.680521
v -0.2440627 0.9746671 0.4523275
v 0.4296343 -0.6339967 0.2939022
v 0.2440627 0.9746671 0.4523275
v -0.4296343 -0.6339967 0.2939022
v -0.2440627 0.9746671 0.680521
v -0.396085 -0.2820177 0.7080371
v -0.4296343 -0.6339967 0.2939022
v -0.2440627 0.9746671 0.4523275
v -0.0597465 1.926289 0.6805212
v 0.0597465 1.926289 0.6805212
v 0.1651685 0.9746671 0.6805212
v -0.1651685 0.9746671 0.6805212
v -0.1651685 0.9746671 0.6805212
v -0.396085 -0.2820177 0.7080371
v -0.2440627 0.9746671 0.680521
v 0.396085 -0.2820177 0.7080371
v 0.1651685 0.9746671 0.6805212
v 0.2440627 0.9746671 0.680521
v 0.1763437 -1.10416 0.6805212
v -0.1763437 -1.10416 0.6805212
v -0.396085 -0.2820177 0.7080371
v 0.396085 -0.2820177 0.7080371
v 0.9481628 -1.92629 -0.7080371
v 1.592357 -1.926291 0.6805212
v 1.592357 -1.617944 0.6805212
v 0.9481628 -1.617944 -0.7080371
v -0.9481628 -1.92629 -0.7080371
v 0.9481628 -1.617944 -0.7080371
v -0.9481628 -1.617944 -0.7080371
v 0.9481628 -1.92629 -0.7080371
v -1.592357 -1.926291 0.6805212
v -0.9481628 -1.92629 -0.7080371
v -0.9481628 -1.617944 -0.7080371
v -1.592357 -1.617944 0.6805212
v 1.519924 -1.325631 0.6805212
v 1.112947 -1.325631 0.6805212
v 0.6124775 -1.325631 -0.3113947
v 0.9050333 -1.325631 -0.6733849
v -0.6124766 -1.325631 -0.3113947
v -0.9050333 -1.325631 -0.6733849
v -1.113048 -1.325631 0.6805212
v -1.519924 -1.325631 0.6805212
v 1.112947 -1.325631 0.6805212
v 1.112947 -1.091874 0.6805212
v 0.6124775 -1.091873 -0.3113947
v 0.6124775 -1.325631 -0.3113947
v 0.6124775 -1.325631 -0.3113947
v -0.6124766 -1.091873 -0.3113947
v -0.6124766 -1.325631 -0.3113947
v 0.6124775 -1.091873 -0.3113947
v -0.6124766 -1.325631 -0.3113947
v -0.6124766 -1.091873 -0.3113947
v -1.113048 -1.091874 0.6805212
v -1.113048 -1.325631 0.6805212
v 0.6124775 -1.091873 -0.3113947
v 1.112947 -1.091874 0.6805212
v -1.113048 -1.091874 0.6805212
v -0.6124766 -1.091873 -0.3113947
v 0.9050333 -1.325631 -0.6733849
v 0.9481628 -1.617944 -0.7080371
v 1.592357 -1.617944 0.6805212
v 1.519924 -1.325631 0.6805212
v -0.9050333 -1.325631 -0.6733849
v 0.9481628 -1.617944 -0.7080371
v 0.9050333 -1.325631 -0.6733849
v -0.9481628 -1.617944 -0.7080371
v -1.519924 -1.325631 0.6805212
v -1.592357 -1.617944 0.6805212
v -0.9481628 -1.617944 -0.7080371
v -0.9050333 -1.325631 -0.6733849
v -1.113048 -1.091874 0.6805212
v 1.112947 -1.091874 0.6805212
v 1.112947 -1.325631 0.6805212
v -1.113048 -1.325631 0.6805212
v 1.592357 -1.617944 0.6805212
v 1.519924 -1.325631 0.6805212
v -1.592357 -1.617944 0.6805212
v -1.519924 -1.325631 0.6805212
v -1.592357 -1.617944 0.6805212
v 1.592357 -1.617944 0.6805212
v 1.592357 -1.926291 0.6805212
v -1.592357 -1.926291 0.6805212
vt 0.1566162 0.04403687
vt 0.1416016 0.04403687
vt 0.1398926 0.04403687
vt 0.1663818 0.04403687
vt 0.1566162 0.04403687
vt 0.1663818 0.04403687
vt 0.1663818 0.04403687
vt 0.1566162 0.04403687
vt 0.1416016 0.04403687
vt 0.1566162 0.04403687
vt 0.1663818 0.04403687
vt 0.1398926 0.04403687
vt 0.137207 0.1340332
vt 0.137207 0.1340332
vt 0.1490479 0.1340332
vt 0.1534424 0.1340332
vt 0.1490479 0.1340332
vt 0.1534424 0.1340332
vt 0.137207 0.1340332
vt 0.137207 0.1340332
vt 0.1350098 0.0479126
vt 0.1350098 0.0479126
vt 0.1417236 0.0479126
vt 0.1535645 0.0479126
vt 0.1535645 0.0479126
vt 0.1417236 0.0479126
vt 0.1535645 0.0479126
vt 0.1417236 0.0479126
vt 0.1535645 0.0479126
vt 0.1417236 0.0479126
vt 0.1350098 0.0479126
vt 0.1350098 0.0479126
vt 0.1417236 0.06915283
vt 0.1350098 0.06915283
vt 0.1350098 0.06915283
vt 0.1417236 0.06915283
vt 0.1534424 0.08990479
vt 0.1647949 0.08990479
vt 0.1351318 0.08990479
vt 0.137207 0.08990479
vt 0.1534424 0.08990479
vt 0.1647949 0.08990479
vt 0.1534424 0.08990479
vt 0.1647949 0.08990479
vt 0.137207 0.08990479
vt 0.1351318 0.08990479
vt 0.1647949 0.08990479
vt 0.1534424 0.08990479
vt 0.1350098 0.0479126
vt 0.1350098 0.0479126
vt 0.1350098 0.0479126
vt 0.1350098 0.0479126
vt 0.137207 0.08990479
vt 0.1351318 0.08990479
vt 0.137207 0.08990479
vt 0.1351318 0.08990479
vt 0.137207 0.08990479
vt 0.137207 0.08990479
vt 0.1416016 0.04403687
vt 0.1416016 0.04403687
vt 0.1398926 0.04403687
vt 0.1398926 0.04403687
vt 0.1275635 0.01899719
vt 0.1211548 0.01899719
vt 0.1211548 0.01899719
vt 0.1275635 0.01899719
vt 0.1275635 0.01899719
vt 0.1275635 0.01899719
vt 0.1275635 0.01899719
vt 0.1275635 0.01899719
vt 0.1211548 0.01899719
vt 0.1275635 0.01899719
vt 0.1275635 0.01899719
vt 0.1211548 0.01899719
vt 0.1337891 0.1340332
vt 0.1337891 0.1340332
vt 0.1384277 0.1340332
vt 0.1400146 0.1340332
vt 0.1384277 0.1340332
vt 0.1400146 0.1340332
vt 0.1337891 0.1340332
vt 0.1337891 0.1340332
vt 0.1362305 0.08990479
vt 0.1362305 0.08990479
vt 0.1383057 0.08990479
vt 0.1383057 0.08990479
vt 0.1383057 0.08990479
vt 0.1383057 0.08990479
vt 0.1383057 0.08990479
vt 0.1383057 0.08990479
vt 0.1383057 0.08990479
vt 0.1383057 0.08990479
vt 0.1362305 0.08990479
vt 0.1362305 0.08990479
vt 0.1384277 0.1340332
vt 0.1337891 0.1340332
vt 0.1337891 0.1340332
vt 0.1384277 0.1340332
vt 0.1390381 0.08990479
vt 0.1390381 0.08990479
vt 0.1362305 0.08990479
vt 0.1362305 0.08990479
vt 0.1390381 0.08990479
vt 0.1390381 0.08990479
vt 0.1390381 0.08990479
vt 0.1390381 0.08990479
vt 0.1362305 0.08990479
vt 0.1362305 0.08990479
vt 0.1390381 0.08990479
vt 0.1390381 0.08990479
vt 0.1362305 0.08990479
vt 0.1362305 0.08990479
vt 0.1362305 0.08990479
vt 0.1362305 0.08990479
vt 0.1362305 0.08990479
vt 0.1362305 0.08990479
vt 0.1362305 0.08990479
vt 0.1362305 0.08990479
vt 0.1211548 0.01899719
vt 0.1211548 0.01899719
vt 0.1211548 0.01899719
vt 0.1211548 0.01899719
vn 0.9208984 -0.251709 0.2971191
vn 0.9208984 -0.251709 0.2971191
vn 0.9208984 -0.251709 0.2971191
vn 0.9208984 -0.251709 0.2971191
vn 0 -0.3085938 -0.9511719
vn 0 -0.3085938 -0.9511719
vn 0 -0.3085938 -0.9511719
vn 0 -0.3085938 -0.9511719
vn -0.9208984 -0.251709 0.2971191
vn -0.9208984 -0.251709 0.2971191
vn -0.9208984 -0.251709 0.2971191
vn -0.9208984 -0.251709 0.2971191
vn 0 1 0
vn 0 1 0
vn 0 1 0
vn 0 1 0
vn 0 1 0
vn 0 1 0
vn 0 1 0
vn 0 1 0
vn 0.9941406 0.1101074 0
vn 0.9941406 0.1101074 0
vn 0.9941406 0.1101074 0
vn 0.9941406 0.1101074 0
vn 0 0.1114502 -0.9936523
vn 0 0.1114502 -0.9936523
vn 0 0.1114502 -0.9936523
vn 0 0.1114502 -0.9936523
vn -0.9941406 0.1101074 0
vn -0.9941406 0.1101074 0
vn -0.9941406 0.1101074 0
vn -0.9941406 0.1101074 0
vn 0 1 3.302097E-05
vn 0 1 3.302097E-05
vn 0 1 3.302097E-05
vn 0 1 3.302097E-05
vn 0.9931641 0.1175537 -0.01255798
vn 0.9931641 0.1175537 -0.01255798
vn 0.9931641 0.1175537 -0.01255798
vn 0.9931641 0.1175537 -0.01255798
vn 0 0.09802246 -0.9951172
vn 0 0.09802246 -0.9951172
vn 0 0.09802246 -0.9951172
vn 0 0.09802246 -0.9951172
vn -0.9931641 0.1175537 -0.01255798
vn -0.9931641 0.1175537 -0.01255798
vn -0.9931641 0.1175537 -0.01255798
vn -0.9931641 0.1175537 -0.01255798
vn 0 0 1
vn 0 0 1
vn 0 0 1
vn 0 0 1
vn 0 0.02189636 1
vn 0 0.02189636 1
vn 0 0.02189636 1
vn 0 0.02189636 1
vn 0 0.02189636 1
vn 0 0.02189636 1
vn 0 -0.03344727 0.9995117
vn 0 -0.03344727 0.9995117
vn 0 -0.03344727 0.9995117
vn 0 -0.03344727 0.9995117
vn 0.9072266 0 -0.4208984
vn 0.9072266 0 -0.4208984
vn 0.9072266 0 -0.4208984
vn 0.9072266 0 -0.4208984
vn 0 0 -1
vn 0 0 -1
vn 0 0 -1
vn 0 0 -1
vn -0.9072266 0 -0.4208984
vn -0.9072266 0 -0.4208984
vn -0.9072266 0 -0.4208984
vn -0.9072266 0 -0.4208984
vn 0 1 0
vn 0 1 0
vn 0 1 0
vn 0 1 0
vn 0 1 0
vn 0 1 0
vn 0 1 0
vn 0 1 0
vn 0.8925781 0 -0.4504395
vn 0.8925781 0 -0.4504395
vn 0.8925781 0 -0.4504395
vn 0.8925781 0 -0.4504395
vn 0 0 -1
vn 0 0 -1
vn 0 0 -1
vn 0 0 -1
vn -0.8925781 0 -0.4504395
vn -0.8925781 0 -0.4504395
vn -0.8925781 0 -0.4504395
vn -0.8925781 0 -0.4504395
vn 0 1 0
vn 0 1 0
vn 0 1 0
vn 0 1 0
vn 0.890625 0.2001953 -0.4086914
vn 0.890625 0.2001953 -0.4086914
vn 0.890625 0.2001953 -0.4086914
vn 0.890625 0.2001953 -0.4086914
vn 0 0.1177368 -0.9931641
vn 0 0.1177368 -0.9931641
vn 0 0.1177368 -0.9931641
vn 0 0.1177368 -0.9931641
vn -0.890625 0.2001953 -0.4086914
vn -0.890625 0.2001953 -0.4086914
vn -0.890625 0.2001953 -0.4086914
vn -0.890625 0.2001953 -0.4086914
vn 0 0 1
vn 0 0 1
vn 0 0 1
vn 0 0 1
vn 0 0 1
vn 0 0 1
vn 0 0 1
vn 0 0 1
vn 0 0 1
vn 0 0 1
vn 0 0 1
vn 0 0 1
g fountain_statueR_0
f 3/3/3 2/2/2 1/1/1
f 4/4/4 3/3/3 1/1/1
f 7/7/7 6/6/6 5/5/5
f 8/8/8 5/5/5 6/6/6
f 11/11/11 10/10/10 9/9/9
f 12/12/12 11/11/11 9/9/9
f 15/15/15 14/14/14 13/13/13
f 16/16/16 15/15/15 13/13/13
f 15/15/15 16/16/16 17/17/17
f 18/18/18 17/17/17 16/16/16
f 19/19/19 17/17/17 18/18/18
f 20/20/20 19/19/19 18/18/18
f 23/23/23 22/22/22 21/21/21
f 24/24/24 23/23/23 21/21/21
f 27/27/27 26/26/26 25/25/25
f 28/28/28 25/25/25 26/26/26
f 31/31/31 30/30/30 29/29/29
f 32/32/32 31/31/31 29/29/29
f 35/35/35 34/34/34 33/33/33
f 36/36/36 35/35/35 33/33/33
f 39/39/39 38/38/38 37/37/37
f 40/40/40 39/39/39 37/37/37
f 43/43/43 42/42/42 41/41/41
f 44/44/44 41/41/41 42/42/42
f 47/47/47 46/46/46 45/45/45
f 48/48/48 47/47/47 45/45/45
f 51/51/51 50/50/50 49/49/49
f 52/52/52 51/51/51 49/49/49
f 55/55/55 54/54/54 53/53/53
f 53/53/53 54/54/54 56/56/56
f 57/57/57 53/53/53 56/56/56
f 57/57/57 56/56/56 58/58/58
f 61/61/61 60/60/60 59/59/59
f 62/62/62 61/61/61 59/59/59
f 65/65/65 64/64/64 63/63/63
f 66/66/66 65/65/65 63/63/63
f 69/69/69 68/68/68 67/67/67
f 70/70/70 67/67/67 68/68/68
f 73/73/73 72/72/72 71/71/71
f 74/74/74 73/73/73 71/71/71
f 77/77/77 76/76/76 75/75/75
f 78/78/78 77/77/77 75/75/75
f 77/77/77 78/78/78 79/79/79
f 80/80/80 79/79/79 78/78/78
f 81/81/81 79/79/79 80/80/80
f 82/82/82 81/81/81 80/80/80
f 85/85/85 84/84/84 83/83/83
f 86/86/86 85/85/85 83/83/83
f 89/89/89 88/88/88 87/87/87
f 90/90/90 87/87/87 88/88/88
f 93/93/93 92/92/92 91/91/91
f 94/94/94 93/93/93 91/91/91
f 97/97/97 96/96/96 95/95/95
f 98/98/98 97/97/97 95/95/95
f 101/101/101 100/100/100 99/99/99
f 102/102/102 101/101/101 99/99/99
f 105/105/105 104/104/104 103/103/103
f 106/106/106 103/103/103 104/104/104
f 109/109/109 108/108/108 107/107/107
f 110/110/110 109/109/109 107/107/107
f 113/113/113 112/112/112 111/111/111
f 114/114/114 113/113/113 111/111/111
f 113/113/113 114/114/114 115/115/115
f 113/113/113 115/115/115 116/116/116
f 114/114/114 117/117/117 115/115/115
f 118/118/118 117/117/117 114/114/114
f 121/121/121 120/120/120 119/119/119
f 122/122/122 121/121/121 119/119/119
