g H_Platform
v 1.201045 -1.57489E-07 0.4974862
v 0.9192398 -1.57489E-07 0.9192392
v 1.080912 -1.57489E-07 0.7222391
v 1.3 -1.57489E-07 1.104409E-07
v 1.275021 -1.57489E-07 0.2536155
v 1.358986E-06 -1.57489E-07 1.3
v -1.3 -1.57489E-07 5.872781E-07
v 0.4974898 -1.57489E-07 1.201042
v 0.7222422 -1.57489E-07 1.080908
v 0.2536185 -1.57489E-07 1.27502
v -0.9192383 -1.57489E-07 0.9192401
v -0.4974875 -1.57489E-07 1.201044
v -0.253616 -1.57489E-07 1.275023
v -0.7222406 -1.57489E-07 1.080911
v -1.201043 -1.57489E-07 0.4974896
v -1.08091 -1.57489E-07 0.722241
v -1.275021 -1.57489E-07 0.2536184
v 2.861023E-07 -1.57489E-07 -1.3
v -0.9192387 -1.57489E-07 -0.9192389
v -1.201043 -1.57489E-07 -0.4974884
v -1.275021 -1.57489E-07 -0.2536174
v -1.080911 -1.57489E-07 -0.7222413
v -0.4974882 -1.57489E-07 -1.201043
v -0.7222411 -1.57489E-07 -1.080911
v -0.2536172 -1.57489E-07 -1.27502
v 0.9192389 -1.57489E-07 -0.9192389
v 0.4974893 -1.57489E-07 -1.201043
v 0.2536169 -1.57489E-07 -1.27502
v 0.7222417 -1.57489E-07 -1.080911
v 1.201043 -1.57489E-07 -0.4974884
v 1.08091 -1.57489E-07 -0.7222413
v 1.275021 -1.57489E-07 -0.2536176
v 1.149274 0.06445964 -3.663962E-07
v 1.061791 0.06445964 -0.4398082
v 1.12719 0.06445964 -0.2242121
v 1.06179 0.06445964 0.4398071
v 1.127192 0.06445964 0.2242104
v 0.4398082 0.06445964 -1.061791
v -1.061791 0.06445964 -0.4398082
v 0.81266 0.06445964 -0.8126596
v 0.9555863 0.06445964 -0.6385025
v 0.6385029 0.06445964 -0.9555868
v -0.4398081 0.06445964 -1.061791
v 5.245209E-07 0.06445964 -1.149274
v 0.2242127 0.06445964 -1.127191
v -0.2242124 0.06445964 -1.127191
v -0.8126594 0.06445964 -0.8126596
v -0.6385025 0.06445964 -0.9555868
v -0.9555866 0.06445964 -0.6385025
v -0.4398074 0.06445964 1.061792
v -1.061791 0.06445964 0.4398094
v -1.149274 0.06445964 3.488595E-07
v -1.127192 0.06445964 -0.2242121
v -1.127191 0.06445964 0.2242128
v -0.812659 0.06445964 0.8126603
v -0.9555861 0.06445964 0.6385037
v -0.6385018 0.06445964 0.9555875
v 0.4398096 0.06445964 1.06179
v 1.478195E-06 0.06445964 1.149274
v -0.2242114 0.06445964 1.12719
v 0.2242132 0.06445964 1.127191
v 0.812661 0.06445964 0.8126594
v 0.6385038 0.06445964 0.9555866
v 0.9555882 0.06445964 0.6385013
v -0.1865694 0.0670441 0.1624229
v -0.65649 0.0670441 0.5674559
v -0.6564896 0.0670441 0.162423
v 0.1798113 0.0670441 0.1624236
v 0.6568697 0.0670441 0.5674564
v 0.6568697 0.0670441 0.1624236
v -0.1865694 0.0670441 -0.1624235
v 0.1798113 0.0670441 -0.1624228
v -0.6564896 0.0670441 -0.5674571
v -0.6564896 0.0670441 -0.1624235
v 0.6568692 0.0670441 -0.1624235
v 0.6568697 0.0670441 -0.5674566
v 1.275021 0.06445964 -0.2536176
v 1.3 -1.57489E-07 1.104409E-07
v 1.3 0.06445964 1.104409E-07
v 1.275021 -1.57489E-07 -0.2536176
v 1.275021 -1.57489E-07 0.2536155
v 1.201043 0.06445964 -0.4974884
v 1.275021 0.06445964 0.2536155
v 1.201043 -1.57489E-07 -0.4974884
v 1.201045 -1.57489E-07 0.4974862
v 1.08091 0.06445964 -0.7222413
v 1.201045 0.06445964 0.4974862
v 1.08091 -1.57489E-07 -0.7222413
v 1.080912 -1.57489E-07 0.7222391
v 0.9192389 0.06445964 -0.9192389
v 1.080912 0.06445964 0.7222391
v 0.9192389 -1.57489E-07 -0.9192389
v 0.9192398 -1.57489E-07 0.9192392
v 0.7222417 0.06445964 -1.080911
v 0.9192398 0.06445964 0.9192392
v 0.7222417 -1.57489E-07 -1.080911
v 0.7222422 -1.57489E-07 1.080908
v 0.4974893 0.06445964 -1.201043
v 0.7222422 0.06445964 1.080908
v 0.4974893 -1.57489E-07 -1.201043
v 0.4974898 -1.57489E-07 1.201042
v 0.2536169 0.06445964 -1.27502
v 0.4974898 0.06445964 1.201042
v 0.2536169 -1.57489E-07 -1.27502
v 0.2536185 -1.57489E-07 1.27502
v 2.861023E-07 0.06445964 -1.3
v 0.2536185 0.06445964 1.27502
v 2.861023E-07 -1.57489E-07 -1.3
v 1.358986E-06 -1.57489E-07 1.3
v -0.2536172 0.06445964 -1.27502
v 1.358986E-06 0.06445964 1.3
v -0.2536172 -1.57489E-07 -1.27502
v -0.253616 -1.57489E-07 1.275023
v -0.4974882 0.06445964 -1.201043
v -0.253616 0.06445964 1.275023
v -0.4974882 -1.57489E-07 -1.201043
v -0.4974875 -1.57489E-07 1.201044
v -0.7222411 0.06445964 -1.080911
v -0.4974875 0.06445964 1.201044
v -0.7222411 -1.57489E-07 -1.080911
v -0.7222406 -1.57489E-07 1.080911
v -0.9192387 0.06445964 -0.9192389
v -0.7222406 0.06445964 1.080911
v -0.9192387 -1.57489E-07 -0.9192389
v -0.9192383 -1.57489E-07 0.9192401
v -1.080911 0.06445964 -0.7222413
v -0.9192383 0.06445964 0.9192401
v -1.080911 -1.57489E-07 -0.7222413
v -1.08091 -1.57489E-07 0.722241
v -1.201043 0.06445964 -0.4974884
v -1.08091 0.06445964 0.722241
v -1.201043 -1.57489E-07 -0.4974884
v -1.201043 -1.57489E-07 0.4974896
v -1.275021 0.06445964 -0.2536174
v -1.201043 0.06445964 0.4974896
v -1.275021 -1.57489E-07 -0.2536174
v -1.275021 -1.57489E-07 0.2536184
v -1.3 0.06445964 5.872781E-07
v -1.275021 0.06445964 0.2536184
v -1.3 -1.57489E-07 5.872781E-07
v 1.3 0.06445964 1.104409E-07
v 1.12719 0.06445964 -0.2242121
v 1.275021 0.06445964 -0.2536176
v 1.149274 0.06445964 -3.663962E-07
v 1.061791 0.06445964 -0.4398082
v 1.275021 0.06445964 0.2536155
v 1.201043 0.06445964 -0.4974884
v 1.127192 0.06445964 0.2242104
v 0.9555863 0.06445964 -0.6385025
v 1.201045 0.06445964 0.4974862
v 1.08091 0.06445964 -0.7222413
v 1.06179 0.06445964 0.4398071
v 0.81266 0.06445964 -0.8126596
v 1.080912 0.06445964 0.7222391
v 0.9192389 0.06445964 -0.9192389
v 0.9555882 0.06445964 0.6385013
v 0.6385029 0.06445964 -0.9555868
v 0.9192398 0.06445964 0.9192392
v 0.7222417 0.06445964 -1.080911
v 0.812661 0.06445964 0.8126594
v 0.4398082 0.06445964 -1.061791
v 0.7222422 0.06445964 1.080908
v 0.4974893 0.06445964 -1.201043
v 0.6385038 0.06445964 0.9555866
v 0.2242127 0.06445964 -1.127191
v 0.4974898 0.06445964 1.201042
v 0.2536169 0.06445964 -1.27502
v 0.4398096 0.06445964 1.06179
v 5.245209E-07 0.06445964 -1.149274
v 0.2536185 0.06445964 1.27502
v 2.861023E-07 0.06445964 -1.3
v 0.2242132 0.06445964 1.127191
v -0.2242124 0.06445964 -1.127191
v 1.358986E-06 0.06445964 1.3
v -0.2536172 0.06445964 -1.27502
v 1.478195E-06 0.06445964 1.149274
v -0.4398081 0.06445964 -1.061791
v -0.253616 0.06445964 1.275023
v -0.4974882 0.06445964 -1.201043
v -0.2242114 0.06445964 1.12719
v -0.6385025 0.06445964 -0.9555868
v -0.4974875 0.06445964 1.201044
v -0.7222411 0.06445964 -1.080911
v -0.4398074 0.06445964 1.061792
v -0.8126594 0.06445964 -0.8126596
v -0.7222406 0.06445964 1.080911
v -0.9192387 0.06445964 -0.9192389
v -0.6385018 0.06445964 0.9555875
v -0.9555866 0.06445964 -0.6385025
v -0.9192383 0.06445964 0.9192401
v -1.080911 0.06445964 -0.7222413
v -0.812659 0.06445964 0.8126603
v -1.061791 0.06445964 -0.4398082
v -1.08091 0.06445964 0.722241
v -1.201043 0.06445964 -0.4974884
v -0.9555861 0.06445964 0.6385037
v -1.127192 0.06445964 -0.2242121
v -1.201043 0.06445964 0.4974896
v -1.275021 0.06445964 -0.2536174
v -1.061791 0.06445964 0.4398094
v -1.149274 0.06445964 3.488595E-07
v -1.275021 0.06445964 0.2536184
v -1.3 0.06445964 5.872781E-07
v -1.127191 0.06445964 0.2242128
vt 0.1512451 0.03567505
vt 0.1467285 0.03567505
vt 0.1494141 0.03567505
vt 0.152832 0.03567505
vt 0.1524658 0.03567505
vt 0.1322021 0.03567505
vt 0.1115723 0.03567505
vt 0.1401367 0.03567505
vt 0.1436768 0.03567505
vt 0.1362305 0.03567505
vt 0.1176147 0.03567505
vt 0.1242676 0.03567505
vt 0.1281738 0.03567505
vt 0.1207275 0.03567505
vt 0.1130981 0.03567505
vt 0.1150513 0.03567505
vt 0.1119385 0.03567505
vt 0.1322021 0.03567505
vt 0.1176147 0.03567505
vt 0.1130981 0.03567505
vt 0.1119385 0.03567505
vt 0.1150513 0.03567505
vt 0.1242676 0.03567505
vt 0.1207275 0.03567505
vt 0.1281738 0.03567505
vt 0.1467285 0.03567505
vt 0.1401367 0.03567505
vt 0.1362305 0.03567505
vt 0.1436768 0.03567505
vt 0.1512451 0.03567505
vt 0.1494141 0.03567505
vt 0.1524658 0.03567505
vt 0.1503906 0.03567505
vt 0.1490479 0.03567505
vt 0.1501465 0.03567505
vt 0.1490479 0.03567505
vt 0.1501465 0.03567505
vt 0.1391602 0.03567505
vt 0.1153564 0.03567505
vt 0.1451416 0.03567505
vt 0.1473389 0.03567505
vt 0.142334 0.03567505
vt 0.1252441 0.03567505
vt 0.1322021 0.03567505
vt 0.1357422 0.03567505
vt 0.1286621 0.03567505
vt 0.1192627 0.03567505
vt 0.1220703 0.03567505
vt 0.1170044 0.03567505
vt 0.1252441 0.03567505
vt 0.1153564 0.03567505
vt 0.1139526 0.03567505
vt 0.1143188 0.03567505
vt 0.1143188 0.03567505
vt 0.1192627 0.03567505
vt 0.1170044 0.03567505
vt 0.1220703 0.03567505
vt 0.1391602 0.03567505
vt 0.1322021 0.03567505
vt 0.1286621 0.03567505
vt 0.1357422 0.03567505
vt 0.1451416 0.03567505
vt 0.142334 0.03567505
vt 0.1473389 0.03567505
vt 0.1234741 0.1368408
vt 0.1165771 0.1368408
vt 0.1165771 0.1368408
vt 0.1289063 0.1368408
vt 0.1359863 0.1368408
vt 0.1359863 0.1368408
vt 0.1234741 0.1368408
vt 0.1289063 0.1368408
vt 0.1165771 0.1368408
vt 0.1165771 0.1368408
vt 0.1359863 0.1368408
vt 0.1359863 0.1368408
vt 0.1524658 0.01959229
vt 0.152832 0.01959229
vt 0.152832 0.01959229
vt 0.1524658 0.01959229
vt 0.1524658 0.01959229
vt 0.1512451 0.01959229
vt 0.1524658 0.01959229
vt 0.1512451 0.01959229
vt 0.1512451 0.01959229
vt 0.1494141 0.01959229
vt 0.1512451 0.01959229
vt 0.1494141 0.01959229
vt 0.1494141 0.01959229
vt 0.1467285 0.01959229
vt 0.1494141 0.01959229
vt 0.1467285 0.01959229
vt 0.1467285 0.01959229
vt 0.1436768 0.01959229
vt 0.1467285 0.01959229
vt 0.1436768 0.01959229
vt 0.1436768 0.01959229
vt 0.1401367 0.01959229
vt 0.1436768 0.01959229
vt 0.1401367 0.01959229
vt 0.1401367 0.01959229
vt 0.1362305 0.01959229
vt 0.1401367 0.01959229
vt 0.1362305 0.01959229
vt 0.1362305 0.01959229
vt 0.1322021 0.01959229
vt 0.1362305 0.01959229
vt 0.1322021 0.01959229
vt 0.1322021 0.01959229
vt 0.1281738 0.01959229
vt 0.1322021 0.01959229
vt 0.1281738 0.01959229
vt 0.1281738 0.01959229
vt 0.1242676 0.01959229
vt 0.1281738 0.01959229
vt 0.1242676 0.01959229
vt 0.1242676 0.01959229
vt 0.1207275 0.01959229
vt 0.1242676 0.01959229
vt 0.1207275 0.01959229
vt 0.1207275 0.01959229
vt 0.1176147 0.01959229
vt 0.1207275 0.01959229
vt 0.1176147 0.01959229
vt 0.1176147 0.01959229
vt 0.1150513 0.01959229
vt 0.1176147 0.01959229
vt 0.1150513 0.01959229
vt 0.1150513 0.01959229
vt 0.1130981 0.01959229
vt 0.1150513 0.01959229
vt 0.1130981 0.01959229
vt 0.1130981 0.01959229
vt 0.1119385 0.01959229
vt 0.1130981 0.01959229
vt 0.1119385 0.01959229
vt 0.1119385 0.01959229
vt 0.1115723 0.01959229
vt 0.1119385 0.01959229
vt 0.1115723 0.01959229
vt 0.06689453 0.2327881
vt 0.06414795 0.2327881
vt 0.06646729 0.2327881
vt 0.06445313 0.2327881
vt 0.06311035 0.2327881
vt 0.06646729 0.2327881
vt 0.06530762 0.2327881
vt 0.06414795 0.2327881
vt 0.06140137 0.2327881
vt 0.06530762 0.2327881
vt 0.06341553 0.2327881
vt 0.06311035 0.2327881
vt 0.05914307 0.2327881
vt 0.06341553 0.2327881
vt 0.06082153 0.2327881
vt 0.06140137 0.2327881
vt 0.05636597 0.2327881
vt 0.06082153 0.2327881
vt 0.05770874 0.2327881
vt 0.05914307 0.2327881
vt 0.05322266 0.2327881
vt 0.05770874 0.2327881
vt 0.05413818 0.2327881
vt 0.05636597 0.2327881
vt 0.04977417 0.2327881
vt 0.05413818 0.2327881
vt 0.05026245 0.2327881
vt 0.05322266 0.2327881
vt 0.04623413 0.2327881
vt 0.05026245 0.2327881
vt 0.04623413 0.2327881
vt 0.04977417 0.2327881
vt 0.04266357 0.2327881
vt 0.04623413 0.2327881
vt 0.04220581 0.2327881
vt 0.04623413 0.2327881
vt 0.03924561 0.2327881
vt 0.04220581 0.2327881
vt 0.03833008 0.2327881
vt 0.04266357 0.2327881
vt 0.03610229 0.2327881
vt 0.03833008 0.2327881
vt 0.03475952 0.2327881
vt 0.03924561 0.2327881
vt 0.0333252 0.2327881
vt 0.03475952 0.2327881
vt 0.03164673 0.2327881
vt 0.03610229 0.2327881
vt 0.03105164 0.2327881
vt 0.03164673 0.2327881
vt 0.02906799 0.2327881
vt 0.0333252 0.2327881
vt 0.02937317 0.2327881
vt 0.02906799 0.2327881
vt 0.02716064 0.2327881
vt 0.03105164 0.2327881
vt 0.02833557 0.2327881
vt 0.02716064 0.2327881
vt 0.02598572 0.2327881
vt 0.02937317 0.2327881
vt 0.02798462 0.2327881
vt 0.02598572 0.2327881
vt 0.02558899 0.2327881
vt 0.02833557 0.2327881
vn 0 -1 0
vn 0 -1 0
vn 0 -1 0
vn 0 -1 0
vn 0 -1 0
vn 0 -1 0
vn 0 -1 0
vn 0 -1 0
vn 0 -1 0
vn 0 -1 0
vn 0 -1 0
vn 0 -1 0
vn 0 -1 0
vn 0 -1 0
vn 0 -1 0
vn 0 -1 0
vn 0 -1 0
vn 0 -1 0
vn 0 -1 0
vn 0 -1 0
vn 0 -1 0
vn 0 -1 0
vn 0 -1 0
vn 0 -1 0
vn 0 -1 0
vn 0 -1 0
vn 0 -1 0
vn 0 -1 0
vn 0 -1 0
vn 0 -1 0
vn 0 -1 0
vn 0 -1 0
vn 0 1 0
vn 0 1 0
vn 0 1 0
vn 0 1 0
vn 0 1 0
vn 0 1 0
vn 0 1 0
vn 0 1 0
vn 0 1 0
vn 0 1 0
vn 0 1 0
vn 0 1 0
vn 0 1 0
vn 0 1 0
vn 0 1 0
vn 0 1 0
vn 0 1 0
vn 0 1 0
vn 0 1 0
vn 0 1 0
vn 0 1 0
vn 0 1 0
vn 0 1 0
vn 0 1 0
vn 0 1 0
vn 0 1 0
vn 0 1 0
vn 0 1 0
vn 0 1 0
vn 0 1 0
vn 0 1 0
vn 0 1 0
vn 0 1 0
vn 0 1 0
vn 0 1 0
vn 0 1 0
vn 0 1 0
vn 0 1 0
vn 0 1 0
vn 0 1 0
vn 0 1 0
vn 0 1 0
vn 0 1 0
vn 0 1 0
vn 0.980957 0 -0.1950684
vn 1 0 0
vn 1 0 0
vn 0.980957 0 -0.1950684
vn 0.980957 0 0.1950684
vn 0.9238281 0 -0.3825684
vn 0.980957 0 0.1950684
vn 0.9238281 0 -0.3825684
vn 0.9238281 0 0.3825684
vn 0.831543 0 -0.5556641
vn 0.9238281 0 0.3825684
vn 0.831543 0 -0.5556641
vn 0.831543 0 0.5556641
vn 0.7070313 0 -0.7070313
vn 0.831543 0 0.5556641
vn 0.7070313 0 -0.7070313
vn 0.7070313 0 0.7070313
vn 0.5556641 0 -0.831543
vn 0.7070313 0 0.7070313
vn 0.5556641 0 -0.831543
vn 0.5556641 0 0.831543
vn 0.3825684 0 -0.9238281
vn 0.5556641 0 0.831543
vn 0.3825684 0 -0.9238281
vn 0.3825684 0 0.9238281
vn 0.1950684 0 -0.980957
vn 0.3825684 0 0.9238281
vn 0.1950684 0 -0.980957
vn 0.1950684 0 0.980957
vn 0 0 -1
vn 0.1950684 0 0.980957
vn 0 0 -1
vn 0 0 1
vn -0.1950684 0 -0.980957
vn 0 0 1
vn -0.1950684 0 -0.980957
vn -0.1950684 0 0.980957
vn -0.3825684 0 -0.9238281
vn -0.1950684 0 0.980957
vn -0.3825684 0 -0.9238281
vn -0.3825684 0 0.9238281
vn -0.5556641 0 -0.831543
vn -0.3825684 0 0.9238281
vn -0.5556641 0 -0.831543
vn -0.5556641 0 0.831543
vn -0.7070313 0 -0.7070313
vn -0.5556641 0 0.831543
vn -0.7070313 0 -0.7070313
vn -0.7070313 0 0.7070313
vn -0.831543 0 -0.5556641
vn -0.7070313 0 0.7070313
vn -0.831543 0 -0.5556641
vn -0.831543 0 0.5556641
vn -0.9238281 0 -0.3825684
vn -0.831543 0 0.5556641
vn -0.9238281 0 -0.3825684
vn -0.9238281 0 0.3825684
vn -0.980957 0 -0.1950684
vn -0.9238281 0 0.3825684
vn -0.980957 0 -0.1950684
vn -0.980957 0 0.1950684
vn -1 0 0
vn -0.980957 0 0.1950684
vn -1 0 0
vn 0 1 0
vn 0 1 0
vn 0 1 0
vn 0 1 0
vn 0 1 0
vn 0 1 0
vn 0 1 0
vn 0 1 0
vn 0 1 0
vn 0 1 0
vn 0 1 0
vn 0 1 0
vn 0 1 0
vn 0 1 0
vn 0 1 0
vn 0 1 0
vn 0 1 0
vn 0 1 0
vn 0 1 0
vn 0 1 0
vn 0 1 0
vn 0 1 0
vn 0 1 0
vn 0 1 0
vn 0 1 0
vn 0 1 0
vn 0 1 0
vn 0 1 0
vn 0 1 0
vn 0 1 0
vn 0 1 0
vn 0 1 0
vn 0 1 0
vn 0 1 0
vn 0 1 0
vn 0 1 0
vn 0 1 0
vn 0 1 0
vn 0 1 0
vn 0 1 0
vn 0 1 0
vn 0 1 0
vn 0 1 0
vn 0 1 0
vn 0 1 0
vn 0 1 0
vn 0 1 0
vn 0 1 0
vn 0 1 0
vn 0 1 0
vn 0 1 0
vn 0 1 0
vn 0 1 0
vn 0 1 0
vn 0 1 0
vn 0 1 0
vn 0 1 0
vn 0 1 0
vn 0 1 0
vn 0 1 0
vn 0 1 0
vn 0 1 0
vn 0 1 0
vn 0 1 0
g H_Platform_0
f 3/3/3 2/2/2 1/1/1
f 2/2/2 4/4/4 1/1/1
f 1/1/1 4/4/4 5/5/5
f 6/6/6 4/4/4 2/2/2
f 7/7/7 4/4/4 6/6/6
f 8/8/8 6/6/6 2/2/2
f 9/9/9 8/8/8 2/2/2
f 10/10/10 6/6/6 8/8/8
f 11/11/11 7/7/7 6/6/6
f 12/12/12 11/11/11 6/6/6
f 13/13/13 12/12/12 6/6/6
f 14/14/14 11/11/11 12/12/12
f 15/15/15 7/7/7 11/11/11
f 16/16/16 15/15/15 11/11/11
f 17/17/17 7/7/7 15/15/15
f 18/18/18 4/4/4 7/7/7
f 19/19/19 18/18/18 7/7/7
f 20/20/20 19/19/19 7/7/7
f 21/21/21 20/20/20 7/7/7
f 22/22/22 19/19/19 20/20/20
f 23/23/23 18/18/18 19/19/19
f 24/24/24 23/23/23 19/19/19
f 25/25/25 18/18/18 23/23/23
f 26/26/26 4/4/4 18/18/18
f 27/27/27 26/26/26 18/18/18
f 28/28/28 27/27/27 18/18/18
f 29/29/29 26/26/26 27/27/27
f 30/30/30 4/4/4 26/26/26
f 31/31/31 30/30/30 26/26/26
f 32/32/32 4/4/4 30/30/30
f 35/35/35 34/34/34 33/33/33
f 34/34/34 36/36/36 33/33/33
f 33/33/33 36/36/36 37/37/37
f 38/38/38 36/36/36 34/34/34
f 39/39/39 36/36/36 38/38/38
f 40/40/40 38/38/38 34/34/34
f 41/41/41 40/40/40 34/34/34
f 42/42/42 38/38/38 40/40/40
f 43/43/43 39/39/39 38/38/38
f 44/44/44 43/43/43 38/38/38
f 45/45/45 44/44/44 38/38/38
f 46/46/46 43/43/43 44/44/44
f 47/47/47 39/39/39 43/43/43
f 48/48/48 47/47/47 43/43/43
f 49/49/49 39/39/39 47/47/47
f 50/50/50 36/36/36 39/39/39
f 51/51/51 50/50/50 39/39/39
f 52/52/52 51/51/51 39/39/39
f 53/53/53 52/52/52 39/39/39
f 54/54/54 51/51/51 52/52/52
f 55/55/55 50/50/50 51/51/51
f 56/56/56 55/55/55 51/51/51
f 57/57/57 50/50/50 55/55/55
f 58/58/58 36/36/36 50/50/50
f 59/59/59 58/58/58 50/50/50
f 60/60/60 59/59/59 50/50/50
f 61/61/61 58/58/58 59/59/59
f 62/62/62 36/36/36 58/58/58
f 63/63/63 62/62/62 58/58/58
f 64/64/64 36/36/36 62/62/62
f 67/67/67 66/66/66 65/65/65
f 66/66/66 68/68/68 65/65/65
f 69/69/69 68/68/68 66/66/66
f 70/70/70 68/68/68 69/69/69
f 68/68/68 71/71/71 65/65/65
f 72/72/72 71/71/71 68/68/68
f 73/73/73 71/71/71 72/72/72
f 74/74/74 71/71/71 73/73/73
f 75/75/75 73/73/73 72/72/72
f 76/76/76 73/73/73 75/75/75
f 79/79/79 78/78/78 77/77/77
f 80/80/80 77/77/77 78/78/78
f 78/78/78 79/79/79 81/81/81
f 77/77/77 80/80/80 82/82/82
f 83/83/83 81/81/81 79/79/79
f 84/84/84 82/82/82 80/80/80
f 81/81/81 83/83/83 85/85/85
f 82/82/82 84/84/84 86/86/86
f 87/87/87 85/85/85 83/83/83
f 88/88/88 86/86/86 84/84/84
f 85/85/85 87/87/87 89/89/89
f 86/86/86 88/88/88 90/90/90
f 91/91/91 89/89/89 87/87/87
f 92/92/92 90/90/90 88/88/88
f 89/89/89 91/91/91 93/93/93
f 90/90/90 92/92/92 94/94/94
f 95/95/95 93/93/93 91/91/91
f 96/96/96 94/94/94 92/92/92
f 93/93/93 95/95/95 97/97/97
f 94/94/94 96/96/96 98/98/98
f 99/99/99 97/97/97 95/95/95
f 100/100/100 98/98/98 96/96/96
f 97/97/97 99/99/99 101/101/101
f 98/98/98 100/100/100 102/102/102
f 103/103/103 101/101/101 99/99/99
f 104/104/104 102/102/102 100/100/100
f 101/101/101 103/103/103 105/105/105
f 102/102/102 104/104/104 106/106/106
f 107/107/107 105/105/105 103/103/103
f 108/108/108 106/106/106 104/104/104
f 105/105/105 107/107/107 109/109/109
f 106/106/106 108/108/108 110/110/110
f 111/111/111 109/109/109 107/107/107
f 112/112/112 110/110/110 108/108/108
f 109/109/109 111/111/111 113/113/113
f 110/110/110 112/112/112 114/114/114
f 115/115/115 113/113/113 111/111/111
f 116/116/116 114/114/114 112/112/112
f 113/113/113 115/115/115 117/117/117
f 114/114/114 116/116/116 118/118/118
f 119/119/119 117/117/117 115/115/115
f 120/120/120 118/118/118 116/116/116
f 117/117/117 119/119/119 121/121/121
f 118/118/118 120/120/120 122/122/122
f 123/123/123 121/121/121 119/119/119
f 124/124/124 122/122/122 120/120/120
f 121/121/121 123/123/123 125/125/125
f 122/122/122 124/124/124 126/126/126
f 127/127/127 125/125/125 123/123/123
f 128/128/128 126/126/126 124/124/124
f 125/125/125 127/127/127 129/129/129
f 126/126/126 128/128/128 130/130/130
f 131/131/131 129/129/129 127/127/127
f 132/132/132 130/130/130 128/128/128
f 129/129/129 131/131/131 133/133/133
f 130/130/130 132/132/132 134/134/134
f 135/135/135 133/133/133 131/131/131
f 136/136/136 134/134/134 132/132/132
f 133/133/133 135/135/135 137/137/137
f 134/134/134 136/136/136 138/138/138
f 139/139/139 137/137/137 135/135/135
f 140/140/140 138/138/138 136/136/136
f 137/137/137 139/139/139 140/140/140
f 138/138/138 140/140/140 139/139/139
f 143/143/143 142/142/142 141/141/141
f 144/144/144 141/141/141 142/142/142
f 142/142/142 143/143/143 145/145/145
f 141/141/141 144/144/144 146/146/146
f 147/147/147 145/145/145 143/143/143
f 148/148/148 146/146/146 144/144/144
f 145/145/145 147/147/147 149/149/149
f 146/146/146 148/148/148 150/150/150
f 151/151/151 149/149/149 147/147/147
f 152/152/152 150/150/150 148/148/148
f 149/149/149 151/151/151 153/153/153
f 150/150/150 152/152/152 154/154/154
f 155/155/155 153/153/153 151/151/151
f 156/156/156 154/154/154 152/152/152
f 153/153/153 155/155/155 157/157/157
f 154/154/154 156/156/156 158/158/158
f 159/159/159 157/157/157 155/155/155
f 160/160/160 158/158/158 156/156/156
f 157/157/157 159/159/159 161/161/161
f 158/158/158 160/160/160 162/162/162
f 163/163/163 161/161/161 159/159/159
f 164/164/164 162/162/162 160/160/160
f 161/161/161 163/163/163 165/165/165
f 162/162/162 164/164/164 166/166/166
f 167/167/167 165/165/165 163/163/163
f 168/168/168 166/166/166 164/164/164
f 165/165/165 167/167/167 169/169/169
f 166/166/166 168/168/168 170/170/170
f 171/171/171 169/169/169 167/167/167
f 172/172/172 170/170/170 168/168/168
f 169/169/169 171/171/171 173/173/173
f 170/170/170 172/172/172 174/174/174
f 175/175/175 173/173/173 171/171/171
f 176/176/176 174/174/174 172/172/172
f 173/173/173 175/175/175 177/177/177
f 174/174/174 176/176/176 178/178/178
f 179/179/179 177/177/177 175/175/175
f 180/180/180 178/178/178 176/176/176
f 177/177/177 179/179/179 181/181/181
f 178/178/178 180/180/180 182/182/182
f 183/183/183 181/181/181 179/179/179
f 184/184/184 182/182/182 180/180/180
f 181/181/181 183/183/183 185/185/185
f 182/182/182 184/184/184 186/186/186
f 187/187/187 185/185/185 183/183/183
f 188/188/188 186/186/186 184/184/184
f 185/185/185 187/187/187 189/189/189
f 186/186/186 188/188/188 190/190/190
f 191/191/191 189/189/189 187/187/187
f 192/192/192 190/190/190 188/188/188
f 189/189/189 191/191/191 193/193/193
f 190/190/190 192/192/192 194/194/194
f 195/195/195 193/193/193 191/191/191
f 196/196/196 194/194/194 192/192/192
f 193/193/193 195/195/195 197/197/197
f 194/194/194 196/196/196 198/198/198
f 199/199/199 197/197/197 195/195/195
f 200/200/200 198/198/198 196/196/196
f 197/197/197 199/199/199 201/201/201
f 198/198/198 200/200/200 202/202/202
f 203/203/203 201/201/201 199/199/199
f 204/204/204 202/202/202 200/200/200
f 201/201/201 203/203/203 204/204/204
f 202/202/202 204/204/204 203/203/203
