g IceShard
v -0.03981376 1.242705E-07 -0.003648529
v 0.002100506 -0.0431303 0.01122711
v -0.0009967423 1.247874E-07 -0.1012563
v -0.0009967423 1.247874E-07 -0.1012563
v 0.002100506 -0.0431303 0.01122711
v 0.03981403 1.28354E-07 -0.01567825
v 0.01927956 1.404996E-07 0.06826416
v 0.002100506 -0.0431303 0.01122711
v -0.01512524 1.354986E-07 0.1012561
v -0.01512524 1.354986E-07 0.1012561
v 0.002100506 -0.0431303 0.01122711
v -0.03981376 1.242705E-07 -0.003648529
v 0.002100506 -0.0431303 0.01122711
v 0.01927956 1.404996E-07 0.06826416
v 0.03981403 1.28354E-07 -0.01567825
v -0.03981376 1.242705E-07 -0.003648529
v -0.0009967423 1.247874E-07 -0.1012563
v 0.002100525 0.04313058 0.01122681
v -0.0009967423 1.247874E-07 -0.1012563
v 0.03981403 1.28354E-07 -0.01567825
v 0.002100525 0.04313058 0.01122681
v 0.01927956 1.404996E-07 0.06826416
v -0.01512524 1.354986E-07 0.1012561
v 0.002100525 0.04313058 0.01122681
v -0.01512524 1.354986E-07 0.1012561
v -0.03981376 1.242705E-07 -0.003648529
v 0.002100525 0.04313058 0.01122681
v 0.03981403 1.28354E-07 -0.01567825
v 0.01927956 1.404996E-07 0.06826416
v 0.002100525 0.04313058 0.01122681
vt 0.1423432 0.7895644
vt 0.1413901 0.8373248
vt 0.1459157 0.7895644
vt 0.1459157 0.8029733
vt 0.1395952 0.8326422
vt 0.1404334 0.8029733
vt 0.1314294 0.801438
vt 0.1335466 0.8319809
vt 0.1293038 0.801438
vt 0.1293038 0.820638
vt 0.1391176 0.8488863
vt 0.1423432 0.820638
vt 0.1393595 0.8161082
vt 0.1314294 0.7815354
vt 0.1404334 0.7815354
vt 0.1423432 0.8029538
vt 0.1459157 0.8029538
vt 0.1413901 0.8507143
vt 0.1459157 0.7933732
vt 0.1404334 0.7933732
vt 0.1395952 0.8166778
vt 0.1314294 0.8026846
vt 0.1293038 0.8026846
vt 0.1335467 0.8266757
vt 0.1293038 0.8072485
vt 0.1423432 0.8072485
vt 0.1391176 0.8354969
vt 0.1393645 0.8326175
vt 0.1314294 0.813367
vt 0.1365565 0.8500961
vn -0.9292169 -2.272871E-06 -0.3695346
vn -0.1450188 -0.9775678 0.1527444
vn -0.9292169 0 -0.3695346
vn 0.9026175 -4.353999E-07 -0.4304437
vn 0.620084 -0.7266723 -0.2957081
vn 0.9859446 -5.604482E-07 -0.1670723
vn 0.8186188 8.212111E-07 0.5743373
vn -0.1450188 -0.9775678 0.1527444
vn 0.6921315 5.101367E-07 0.7217714
vn -0.9734066 0 0.229084
vn -0.1450188 -0.9775678 0.1527444
vn -0.9734066 2.154658E-06 0.2290841
vn -0.1450188 -0.9775678 0.1527444
vn 0.8186188 8.212111E-07 0.5743373
vn 0.9859446 -5.604482E-07 -0.1670723
vn -0.9292169 -2.272871E-06 -0.3695346
vn -0.9292169 0 -0.3695346
vn -0.1450199 0.9775678 0.1527429
vn 0.9026175 -4.353999E-07 -0.4304437
vn 0.9859446 -5.604482E-07 -0.1670723
vn 0.6200852 0.7266709 -0.2957087
vn 0.8186188 8.212111E-07 0.5743373
vn 0.6921315 5.101367E-07 0.7217714
vn -0.1450199 0.9775678 0.1527429
vn -0.9734066 0 0.229084
vn -0.9734066 2.154658E-06 0.2290841
vn -0.1450199 0.9775678 0.1527429
vn 0.9859446 -5.604482E-07 -0.1670723
vn 0.8186188 8.212111E-07 0.5743373
vn -0.1450199 0.9775678 0.1527429
g IceShard_0
f 3/3/3 2/2/2 1/1/1
f 6/6/6 5/5/5 4/4/4
f 9/9/9 8/8/8 7/7/7
f 12/12/12 11/11/11 10/10/10
f 15/15/15 14/14/14 13/13/13
f 18/18/18 17/17/17 16/16/16
f 21/21/21 20/20/20 19/19/19
f 24/24/24 23/23/23 22/22/22
f 27/27/27 26/26/26 25/25/25
f 30/30/30 29/29/29 28/28/28
