g Man_Green_LHand
v -0.7725989 1.548565 0.0443311
v -0.7508394 1.443132 0.04873261
v -0.7561898 1.495536 0.07966794
v -0.7508394 1.443132 0.04873261
v -0.7665685 1.444508 -0.09825602
v -0.7616999 1.435879 -0.02434712
v -0.7665685 1.444508 -0.09825602
v -0.7837151 1.526409 -0.1234147
v -0.7717941 1.478494 -0.1297198
v -0.7840614 1.55823 -0.04560668
v -0.7837151 1.526409 -0.1234147
v -0.7725989 1.548565 0.0443311
v -0.7725989 1.548565 0.0443311
v -0.7665685 1.444508 -0.09825602
v -0.7508394 1.443132 0.04873261
v -0.7837151 1.526409 -0.1234147
v -0.7725989 1.548565 0.0443311
v -0.8101969 1.558303 -0.04188536
v -0.7840614 1.55823 -0.04560668
v -0.7837151 1.526409 -0.1234147
v -0.8088841 1.5269 -0.1213985
v -0.7717941 1.478494 -0.1297198
v -0.7963484 1.549152 0.04609121
v -0.7769153 1.494765 0.08472248
v -0.7561898 1.495536 0.07966794
v -0.7677812 1.439673 0.05501643
v -0.7508394 1.443132 0.04873261
v -0.7616999 1.435879 -0.02434712
v -0.8186235 1.551014 0.05498079
v -0.8345437 1.560169 -0.03945532
v -0.7936985 1.489698 0.09516071
v -0.8724076 1.546902 0.08098043
v -0.8885399 1.562998 -0.02912313
v -0.876196 1.531662 -0.130432
v -0.8297287 1.521806 -0.1287105
v -0.9436468 1.559763 -0.01236009
v -0.8234091 1.470599 -0.1367237
v -0.8733228 1.463271 -0.1385792
v -0.7981542 1.475985 -0.1340815
v -0.8121059 1.43179 -0.09357167
v -0.7878374 1.438925 -0.09487464
v -0.7665685 1.444508 -0.09825602
v -0.7821599 1.432992 -0.0208261
v -0.8046222 1.424828 -0.01644774
v -0.8618016 1.407337 -0.003296151
v -0.8655044 1.425568 -0.0885912
v -0.7848502 1.429712 0.06672251
v -0.9113938 1.47967 -0.1370511
v -0.8197852 1.415648 0.09193421
v -0.8262373 1.482969 0.1180274
v -0.867876 1.477795 0.1427909
v -0.9120674 1.44327 -0.07930209
v -0.8527456 1.411083 0.1143084
v -0.8828229 1.462349 0.1513253
v -0.9204352 1.507572 0.1213176
v -0.9365975 1.517983 0.1052567
v -0.8860161 1.394333 0.06830581
v -0.917551 1.421606 -0.01156921
v -0.8690441 1.400656 0.122833
v -0.9434782 1.44258 -0.08460342
v -0.9504231 1.44061 -0.008919079
v -0.94133 1.476503 -0.1357748
v -0.9387106 1.527591 -0.1292986
v -0.9749173 1.474661 -0.1294944
v -0.9566982 1.527485 -0.1283728
v -0.9627975 1.557966 -0.01141563
v -0.9682158 1.443884 -0.08340835
v -0.9511914 1.518446 0.1078353
v -0.982669 1.555611 -0.009032305
v -0.9757437 1.523251 -0.1281791
v -0.9722107 1.51469 0.1078429
v -1.017589 1.551272 -0.004681411
v -1.016484 1.520088 -0.1198155
v -1.034998 1.548562 -0.004588305
v -1.015743 1.474783 -0.1186302
v -1.013124 1.515828 0.1010185
v -1.032658 1.518484 -0.1152098
v -0.953266 1.469475 0.1046592
v -0.9703814 1.461888 0.1004228
v -1.014472 1.462338 0.09699208
v -1.027467 1.515428 0.09886371
v -0.9533919 1.464058 0.1012543
v -0.923656 1.505222 0.1289029
v -1.045995 1.470941 -0.1087776
v -1.047353 1.516256 -0.1109955
v -1.116959 1.464191 -0.07964345
v -1.010365 1.445458 -0.07803968
v -1.037532 1.444972 -0.07098867
v -0.973317 1.444436 -0.007928518
v -1.009705 1.448394 -0.006825132
v -1.052138 1.545025 -0.004302999
v -1.124307 1.506008 -0.08276013
v -1.041257 1.515269 0.0967866
v -1.142238 1.52059 -0.001453411
v -1.115282 1.516517 0.08152804
v -1.040742 1.462587 0.09159442
v -1.142846 1.472721 0.003957223
v -1.106927 1.471187 0.07934297
v -1.104885 1.445492 0.003175076
v -1.083303 1.445746 0.06409336
v -1.037937 1.442205 0.05728848
v -1.090571 1.444958 -0.06366794
v -1.037455 1.449237 -0.004244863
v -1.010084 1.440818 0.05780691
v -0.9753227 1.438761 0.05858964
v -0.9551006 1.437445 0.05882347
v -0.9286761 1.418457 0.05724365
v -0.9511101 1.480496 0.09731393
v -0.9377891 1.430484 0.0730008
v -0.935397 1.494384 0.1352759
v -0.9040501 1.394443 0.08522426
v -0.8868247 1.396282 0.1294341
v -0.8983195 1.456392 0.1579746
v -0.9262979 1.44166 0.1660728
v -0.9531703 1.482389 0.1443445
v -0.9647048 1.472716 0.1043279
v -0.9540437 1.427497 0.08184513
v -0.9339026 1.389927 0.1008201
v -0.9144889 1.392533 0.1406369
v -0.9233273 1.391735 0.1465751
v -0.9380406 1.436212 0.1690201
v -0.961177 1.477055 0.1490281
v -0.9758103 1.465501 0.1095893
v -0.9652358 1.424208 0.08975587
v -0.9451278 1.389039 0.1058691
v -0.9712822 1.470679 0.1510129
v -0.9354561 1.3879 0.1470143
v -1.015883 1.438066 0.1192575
v -1.017301 1.408205 0.1188018
v -0.9515066 1.429634 0.1703561
v -0.9984635 1.38068 0.1219632
v -0.9914002 1.381998 0.1579483
v -1.011679 1.409251 0.1605381
v -1.010057 1.444084 0.1575155
vt 0.7568359 0.009567261
vt 0.7568359 0.009567261
vt 0.7568359 0.009567261
vt 0.7568359 0.009567261
vt 0.7568359 0.009567261
vt 0.7568359 0.009567261
vt 0.7568359 0.009567261
vt 0.7568359 0.009567261
vt 0.7568359 0.009567261
vt 0.7568359 0.009567261
vt 0.7568359 0.009567261
vt 0.7568359 0.009567261
vt 0.7568359 0.009567261
vt 0.7568359 0.009567261
vt 0.7568359 0.009567261
vt 0.7568359 0.009567261
vt 0.7568359 0.009567261
vt 0.7568359 0.009567261
vt 0.7568359 0.009567261
vt 0.7568359 0.009567261
vt 0.7568359 0.009567261
vt 0.7568359 0.009567261
vt 0.7568359 0.009567261
vt 0.7568359 0.009567261
vt 0.7568359 0.009567261
vt 0.7568359 0.009567261
vt 0.7568359 0.009567261
vt 0.7568359 0.009567261
vt 0.7568359 0.009567261
vt 0.7568359 0.009567261
vt 0.7568359 0.009567261
vt 0.7568359 0.009567261
vt 0.7568359 0.009567261
vt 0.7568359 0.009567261
vt 0.7568359 0.009567261
vt 0.7568359 0.009567261
vt 0.7568359 0.009567261
vt 0.7568359 0.009567261
vt 0.7568359 0.009567261
vt 0.7568359 0.009567261
vt 0.7568359 0.009567261
vt 0.7568359 0.009567261
vt 0.7568359 0.009567261
vt 0.7568359 0.009567261
vt 0.7568359 0.009567261
vt 0.7568359 0.009567261
vt 0.7568359 0.009567261
vt 0.7568359 0.009567261
vt 0.7568359 0.009567261
vt 0.7568359 0.009567261
vt 0.7568359 0.009567261
vt 0.7568359 0.009567261
vt 0.7568359 0.009567261
vt 0.7568359 0.009567261
vt 0.7568359 0.009567261
vt 0.7568359 0.009567261
vt 0.7568359 0.009567261
vt 0.7568359 0.009567261
vt 0.7568359 0.009567261
vt 0.7568359 0.009567261
vt 0.7568359 0.009567261
vt 0.7568359 0.009567261
vt 0.7568359 0.009567261
vt 0.7568359 0.009567261
vt 0.7568359 0.009567261
vt 0.7568359 0.009567261
vt 0.7568359 0.009567261
vt 0.7568359 0.009567261
vt 0.7568359 0.009567261
vt 0.7568359 0.009567261
vt 0.7568359 0.009567261
vt 0.7568359 0.009567261
vt 0.7568359 0.009567261
vt 0.7568359 0.009567261
vt 0.7568359 0.009567261
vt 0.7568359 0.009567261
vt 0.7568359 0.009567261
vt 0.7568359 0.009567261
vt 0.7568359 0.009567261
vt 0.7568359 0.009567261
vt 0.7568359 0.009567261
vt 0.7568359 0.009567261
vt 0.7568359 0.009567261
vt 0.7568359 0.009567261
vt 0.7568359 0.009567261
vt 0.7568359 0.009567261
vt 0.7568359 0.009567261
vt 0.7568359 0.009567261
vt 0.7568359 0.009567261
vt 0.7568359 0.009567261
vt 0.7568359 0.009567261
vt 0.7568359 0.009567261
vt 0.7568359 0.009567261
vt 0.7568359 0.009567261
vt 0.7568359 0.009567261
vt 0.7568359 0.009567261
vt 0.7568359 0.009567261
vt 0.7568359 0.009567261
vt 0.7568359 0.009567261
vt 0.7568359 0.009567261
vt 0.7568359 0.009567261
vt 0.7568359 0.009567261
vt 0.7568359 0.009567261
vt 0.7568359 0.009567261
vt 0.7568359 0.009567261
vt 0.7568359 0.009567261
vt 0.7568359 0.009567261
vt 0.7568359 0.009567261
vt 0.7568359 0.009567261
vt 0.7568359 0.009567261
vt 0.7568359 0.009567261
vt 0.7568359 0.009567261
vt 0.7568359 0.009567261
vt 0.7568359 0.009567261
vt 0.7568359 0.009567261
vt 0.7568359 0.009567261
vt 0.7568359 0.009567261
vt 0.7568359 0.009567261
vt 0.7568359 0.009567261
vt 0.7568359 0.009567261
vt 0.7568359 0.009567261
vt 0.7568359 0.009567261
vt 0.7568359 0.009567261
vt 0.7568359 0.009567261
vt 0.7568359 0.009567261
vt 0.7568359 0.009567261
vt 0.7568359 0.009567261
vt 0.7568359 0.009567261
vt 0.7568359 0.009567261
vt 0.7568359 0.009567261
vt 0.7568359 0.009567261
vt 0.7568359 0.009567261
vt 0.7568359 0.009567261
vt 0.7568359 0.009567261
vn 0.9682617 0.1931152 -0.159668
vn 0.9682617 0.1931152 -0.159668
vn 0.9682617 0.1931152 -0.159668
vn 0.9287109 -0.3557129 -0.1027222
vn 0.9287109 -0.3557129 -0.1027222
vn 0.9287109 -0.3557129 -0.1027222
vn 0.9692383 0.2297363 0.0871582
vn 0.9692383 0.2297363 0.0871582
vn 0.9692383 0.2297363 0.0871582
vn 0.9643555 0.2463379 -0.09643555
vn 0.9643555 0.2463379 -0.09643555
vn 0.9643555 0.2463379 -0.09643555
vn 0.9750977 0.1968994 -0.102478
vn 0.9750977 0.1968994 -0.102478
vn 0.9750977 0.1968994 -0.102478
vn 0.9799805 0.1779785 -0.08843994
vn 0.06890869 0.8486328 0.5244141
vn 0.02835083 0.9897461 -0.1409912
vn -0.01899719 0.9882813 -0.1525879
vn -0.05966187 0.5541992 -0.8300781
vn 0.02758789 0.6850586 -0.7275391
vn 0.1331787 -0.3081055 -0.9418945
vn 0.1561279 0.8876953 0.4328613
vn 0.3662109 0.1712646 0.9145508
vn 0.2531738 0.03833008 0.9667969
vn 0.487793 -0.746582 0.4523926
vn 0.3376465 -0.8227539 0.4572754
vn 0.1519775 -0.9882813 -0.02130127
vn 0.1958008 0.8769531 0.439209
vn 0.05575562 0.9887695 -0.1381836
vn 0.5131836 0.178833 0.8393555
vn 0.04165649 0.8666992 0.4973145
vn -0.04092407 0.9941406 -0.09863281
vn 0.03289795 0.6538086 -0.7563477
vn 0.140625 0.5483398 -0.8242188
vn -0.09991455 0.9951172 0.01277161
vn 0.1328125 -0.2993164 -0.9448242
vn -0.09338379 -0.4453125 -0.890625
vn 0.1629639 -0.2314453 -0.9589844
vn 0.182373 -0.8881836 -0.4221191
vn 0.204834 -0.878418 -0.4321289
vn 0.1473389 -0.8583984 -0.4912109
vn 0.2414551 -0.9697266 -0.02920532
vn 0.3110352 -0.9482422 -0.06359863
vn 0.0418396 -0.9863281 -0.1583252
vn -0.1534424 -0.9086914 -0.3886719
vn 0.6025391 -0.6933594 0.3955078
vn -0.09637451 -0.3256836 -0.9404297
vn 0.4921875 -0.7436523 0.4528809
vn 0.5102539 0.2049561 0.8349609
vn 0.3464355 0.2988281 0.8891602
vn -0.1973877 -0.9179688 -0.3435059
vn 0.5786133 -0.6401367 0.5058594
vn 0.3681641 0.1280518 0.9208984
vn -0.2449951 0.7412109 0.625
vn -0.1717529 0.6655273 0.7260742
vn 0.01303864 -0.9946289 -0.104187
vn -0.376709 -0.8959961 -0.2348633
vn 0.4953613 -0.7338867 0.4645996
vn 0.002544403 -0.9501953 -0.3112793
vn -0.2973633 -0.949707 -0.0970459
vn -0.05578613 -0.4191895 -0.90625
vn -0.05200195 0.6474609 -0.7607422
vn -0.166748 -0.4597168 -0.8720703
vn -0.1096802 0.6611328 -0.7421875
vn -0.1043091 0.9941406 0.02786255
vn -0.07995605 -0.9501953 -0.3007813
vn 0.01844788 0.5527344 0.8330078
vn -0.1177368 0.9921875 0.03753662
vn -0.1693115 0.5688477 -0.8046875
vn -0.09521484 0.4816895 0.8710938
vn -0.1308594 0.9902344 0.04434204
vn -0.24646 0.5844727 -0.7734375
vn -0.1743164 0.984375 0.02319336
vn -0.2196045 -0.4611816 -0.8598633
vn -0.1298828 0.5634766 0.815918
vn -0.2927246 0.5751953 -0.7636719
vn 0.3330078 -0.3984375 0.8544922
vn 0.03598022 -0.612793 0.7895508
vn -0.1258545 -0.5380859 0.8334961
vn -0.1411133 0.5483398 0.8242188
vn -0.2294922 -0.3598633 0.9042969
vn -0.1643066 0.8925781 0.4194336
vn -0.2548828 -0.4882813 -0.8344727
vn -0.3344727 0.5429688 -0.7705078
vn -0.6328125 -0.5166016 -0.5766602
vn -0.06835938 -0.9526367 -0.2958984
vn -0.05862427 -0.9648438 -0.2561035
vn -0.1271973 -0.9912109 -0.04208374
vn -0.06750488 -0.9970703 -0.03143311
vn -0.2047119 0.9790039 -0.003669739
vn -0.7006836 0.3847656 -0.6010742
vn -0.1489258 0.5415039 0.8271484
vn -0.8120117 0.5834961 -0.02227783
vn -0.5683594 0.4763184 0.6708984
vn -0.1574707 -0.5219727 0.8383789
vn -0.9077148 -0.4143066 0.06304932
vn -0.5688477 -0.4328613 0.6992188
vn -0.3459473 -0.9375 0.03866577
vn -0.2927246 -0.8769531 0.3806152
vn -0.03396606 -0.9785156 0.2038574
vn -0.2108154 -0.9262695 -0.3127441
vn 0.002586365 -0.9995117 -0.03158569
vn -0.05960083 -0.9790039 0.1960449
vn -0.0539856 -0.9702148 0.2358398
vn -0.3325195 -0.9077148 0.2563477
vn -0.5551758 -0.8276367 0.07971191
vn 0.1350098 0.6083984 -0.7822266
vn -0.7070313 -0.2592773 -0.6577148
vn -0.3498535 0.7788086 0.5209961
vn -0.1633301 -0.9326172 -0.3220215
vn 0.3510742 -0.7983398 0.4897461
vn 0.279541 0.1512451 0.9482422
vn 0.2316895 0.08709717 0.96875
vn -0.2868652 0.8217773 0.4921875
vn -0.6152344 0.6308594 -0.4729004
vn -0.4873047 -0.1536865 -0.859375
vn -0.1121826 -0.8950195 -0.4316406
vn 0.3356934 -0.8115234 0.4782715
vn 0.3540039 -0.7368164 0.5761719
vn 0.1530762 0.04708862 0.9873047
vn -0.2832031 0.7822266 0.5546875
vn -0.6040039 0.6445313 -0.4689941
vn -0.4660645 -0.1800537 -0.8662109
vn -0.0916748 -0.8730469 -0.4787598
vn -0.4150391 0.7231445 0.5522461
vn 0.25 -0.8505859 0.4621582
vn -0.8344727 0.3811035 -0.3984375
vn -0.8525391 -0.2844238 -0.4387207
vn 0.01924133 -0.02058411 0.9995117
vn -0.4387207 -0.8061523 -0.3972168
vn -0.2614746 -0.7685547 0.5839844
vn -0.7128906 -0.1903076 0.6748047
vn -0.6079102 0.4501953 0.6542969
g Man_Green_LHand_0
f 3/3/3 2/2/2 1/1/1
f 6/6/6 5/5/5 4/4/4
f 9/9/9 8/8/8 7/7/7
f 12/12/12 11/11/11 10/10/10
f 15/15/15 14/14/14 13/13/13
f 14/14/14 16/16/16 13/13/13
f 19/19/19 18/18/18 17/17/17
f 19/19/19 20/20/20 18/18/18
f 21/21/21 18/18/18 20/20/20
f 20/20/20 22/22/22 21/21/21
f 23/23/23 17/17/17 18/18/18
f 23/23/23 24/24/24 17/17/17
f 25/25/25 17/17/17 24/24/24
f 24/24/24 26/26/26 25/25/25
f 27/27/27 25/25/25 26/26/26
f 27/27/27 26/26/26 28/28/28
f 23/23/23 18/18/18 29/29/29
f 23/23/23 29/29/29 24/24/24
f 18/18/18 21/21/21 30/30/30
f 30/30/30 29/29/29 18/18/18
f 24/24/24 31/31/31 26/26/26
f 31/31/31 24/24/24 29/29/29
f 29/29/29 32/32/32 31/31/31
f 30/30/30 33/33/33 29/29/29
f 32/32/32 29/29/29 33/33/33
f 33/33/33 30/30/30 34/34/34
f 35/35/35 30/30/30 21/21/21
f 35/35/35 34/34/34 30/30/30
f 33/33/33 36/36/36 32/32/32
f 33/33/33 34/34/34 36/36/36
f 35/35/35 21/21/21 37/37/37
f 34/34/34 35/35/35 38/38/38
f 37/37/37 38/38/38 35/35/35
f 39/39/39 37/37/37 21/21/21
f 39/39/39 21/21/21 22/22/22
f 37/37/37 39/39/39 40/40/40
f 37/37/37 40/40/40 38/38/38
f 39/39/39 22/22/22 41/41/41
f 41/41/41 40/40/40 39/39/39
f 42/42/42 41/41/41 22/22/22
f 42/42/42 28/28/28 41/41/41
f 43/43/43 41/41/41 28/28/28
f 43/43/43 28/28/28 26/26/26
f 43/43/43 44/44/44 41/41/41
f 43/43/43 26/26/26 44/44/44
f 40/40/40 41/41/41 44/44/44
f 44/44/44 45/45/45 40/40/40
f 46/46/46 38/38/38 40/40/40
f 46/46/46 40/40/40 45/45/45
f 47/47/47 44/44/44 26/26/26
f 47/47/47 26/26/26 31/31/31
f 38/38/38 46/46/46 48/48/48
f 38/38/38 48/48/48 34/34/34
f 47/47/47 49/49/49 44/44/44
f 45/45/45 44/44/44 49/49/49
f 31/31/31 50/50/50 47/47/47
f 49/49/49 47/47/47 50/50/50
f 50/50/50 31/31/31 32/32/32
f 50/50/50 51/51/51 49/49/49
f 50/50/50 32/32/32 51/51/51
f 52/52/52 48/48/48 46/46/46
f 46/46/46 45/45/45 52/52/52
f 53/53/53 49/49/49 51/51/51
f 49/49/49 53/53/53 45/45/45
f 51/51/51 54/54/54 53/53/53
f 55/55/55 51/51/51 32/32/32
f 51/51/51 55/55/55 54/54/54
f 55/55/55 32/32/32 56/56/56
f 56/56/56 32/32/32 36/36/36
f 57/57/57 45/45/45 53/53/53
f 58/58/58 52/52/52 45/45/45
f 45/45/45 57/57/57 58/58/58
f 59/59/59 53/53/53 54/54/54
f 53/53/53 59/59/59 57/57/57
f 52/52/52 60/60/60 48/48/48
f 58/58/58 61/61/61 52/52/52
f 60/60/60 52/52/52 61/61/61
f 62/62/62 48/48/48 60/60/60
f 48/48/48 62/62/62 34/34/34
f 63/63/63 36/36/36 34/34/34
f 63/63/63 34/34/34 62/62/62
f 62/62/62 60/60/60 64/64/64
f 63/63/63 62/62/62 65/65/65
f 62/62/62 64/64/64 65/65/65
f 36/36/36 63/63/63 66/66/66
f 65/65/65 66/66/66 63/63/63
f 60/60/60 61/61/61 67/67/67
f 67/67/67 64/64/64 60/60/60
f 66/66/66 68/68/68 36/36/36
f 56/56/56 36/36/36 68/68/68
f 66/66/66 65/65/65 69/69/69
f 65/65/65 64/64/64 70/70/70
f 70/70/70 69/69/69 65/65/65
f 69/69/69 71/71/71 66/66/66
f 68/68/68 66/66/66 71/71/71
f 69/69/69 70/70/70 72/72/72
f 69/69/69 72/72/72 71/71/71
f 70/70/70 64/64/64 73/73/73
f 73/73/73 72/72/72 70/70/70
f 72/72/72 73/73/73 74/74/74
f 75/75/75 73/73/73 64/64/64
f 64/64/64 67/67/67 75/75/75
f 76/76/76 71/71/71 72/72/72
f 72/72/72 74/74/74 76/76/76
f 77/77/77 74/74/74 73/73/73
f 73/73/73 75/75/75 77/77/77
f 56/56/56 68/68/68 78/78/78
f 71/71/71 79/79/79 68/68/68
f 79/79/79 78/78/78 68/68/68
f 76/76/76 80/80/80 71/71/71
f 79/79/79 71/71/71 80/80/80
f 81/81/81 76/76/76 74/74/74
f 76/76/76 81/81/81 80/80/80
f 78/78/78 82/82/82 56/56/56
f 55/55/55 56/56/56 82/82/82
f 83/83/83 55/55/55 82/82/82
f 83/83/83 54/54/54 55/55/55
f 75/75/75 84/84/84 77/77/77
f 77/77/77 85/85/85 74/74/74
f 77/77/77 84/84/84 85/85/85
f 84/84/84 86/86/86 85/85/85
f 75/75/75 87/87/87 84/84/84
f 87/87/87 75/75/75 67/67/67
f 84/84/84 88/88/88 86/86/86
f 88/88/88 84/84/84 87/87/87
f 67/67/67 89/89/89 87/87/87
f 89/89/89 67/67/67 61/61/61
f 87/87/87 90/90/90 88/88/88
f 90/90/90 87/87/87 89/89/89
f 91/91/91 74/74/74 85/85/85
f 92/92/92 85/85/85 86/86/86
f 85/85/85 92/92/92 91/91/91
f 91/91/91 93/93/93 74/74/74
f 81/81/81 74/74/74 93/93/93
f 94/94/94 91/91/91 92/92/92
f 92/92/92 86/86/86 94/94/94
f 94/94/94 95/95/95 91/91/91
f 93/93/93 91/91/91 95/95/95
f 93/93/93 96/96/96 81/81/81
f 81/81/81 96/96/96 80/80/80
f 94/94/94 97/97/97 95/95/95
f 97/97/97 94/94/94 86/86/86
f 95/95/95 98/98/98 93/93/93
f 98/98/98 95/95/95 97/97/97
f 96/96/96 93/93/93 98/98/98
f 97/97/97 86/86/86 99/99/99
f 97/97/97 99/99/99 98/98/98
f 98/98/98 100/100/100 96/96/96
f 100/100/100 98/98/98 99/99/99
f 101/101/101 96/96/96 100/100/100
f 96/96/96 101/101/101 80/80/80
f 100/100/100 99/99/99 101/101/101
f 102/102/102 99/99/99 86/86/86
f 102/102/102 86/86/86 88/88/88
f 99/99/99 102/102/102 103/103/103
f 88/88/88 103/103/103 102/102/102
f 103/103/103 101/101/101 99/99/99
f 103/103/103 88/88/88 90/90/90
f 104/104/104 80/80/80 101/101/101
f 101/101/101 103/103/103 104/104/104
f 90/90/90 104/104/104 103/103/103
f 80/80/80 104/104/104 79/79/79
f 90/90/90 89/89/89 104/104/104
f 105/105/105 79/79/79 104/104/104
f 105/105/105 104/104/104 89/89/89
f 79/79/79 105/105/105 78/78/78
f 89/89/89 61/61/61 105/105/105
f 106/106/106 78/78/78 105/105/105
f 106/106/106 105/105/105 61/61/61
f 61/61/61 58/58/58 106/106/106
f 78/78/78 106/106/106 82/82/82
f 107/107/107 106/106/106 58/58/58
f 107/107/107 82/82/82 106/106/106
f 107/107/107 58/58/58 57/57/57
f 82/82/82 107/107/107 108/108/108
f 108/108/108 83/83/83 82/82/82
f 107/107/107 57/57/57 109/109/109
f 109/109/109 108/108/108 107/107/107
f 110/110/110 83/83/83 108/108/108
f 83/83/83 110/110/110 54/54/54
f 111/111/111 109/109/109 57/57/57
f 111/111/111 57/57/57 59/59/59
f 59/59/59 54/54/54 112/112/112
f 112/112/112 111/111/111 59/59/59
f 113/113/113 54/54/54 110/110/110
f 113/113/113 112/112/112 54/54/54
f 113/113/113 110/110/110 114/114/114
f 113/113/113 114/114/114 112/112/112
f 110/110/110 108/108/108 115/115/115
f 115/115/115 114/114/114 110/110/110
f 108/108/108 109/109/109 116/116/116
f 116/116/116 115/115/115 108/108/108
f 109/109/109 111/111/111 117/117/117
f 117/117/117 116/116/116 109/109/109
f 111/111/111 112/112/112 118/118/118
f 118/118/118 117/117/117 111/111/111
f 119/119/119 112/112/112 114/114/114
f 119/119/119 118/118/118 112/112/112
f 119/119/119 114/114/114 120/120/120
f 120/120/120 118/118/118 119/119/119
f 114/114/114 115/115/115 121/121/121
f 121/121/121 120/120/120 114/114/114
f 115/115/115 116/116/116 122/122/122
f 122/122/122 121/121/121 115/115/115
f 116/116/116 117/117/117 123/123/123
f 122/122/122 116/116/116 123/123/123
f 117/117/117 118/118/118 124/124/124
f 124/124/124 123/123/123 117/117/117
f 125/125/125 118/118/118 120/120/120
f 125/125/125 124/124/124 118/118/118
f 126/126/126 122/122/122 123/123/123
f 122/122/122 126/126/126 121/121/121
f 120/120/120 121/121/121 127/127/127
f 127/127/127 125/125/125 120/120/120
f 123/123/123 124/124/124 128/128/128
f 123/123/123 128/128/128 126/126/126
f 124/124/124 125/125/125 129/129/129
f 129/129/129 128/128/128 124/124/124
f 130/130/130 127/127/127 121/121/121
f 130/130/130 121/121/121 126/126/126
f 125/125/125 127/127/127 131/131/131
f 131/131/131 129/129/129 125/125/125
f 132/132/132 131/131/131 127/127/127
f 127/127/127 130/130/130 132/132/132
f 131/131/131 132/132/132 129/129/129
f 133/133/133 132/132/132 130/130/130
f 130/130/130 126/126/126 133/133/133
f 133/133/133 129/129/129 132/132/132
f 128/128/128 129/129/129 134/134/134
f 134/134/134 126/126/126 128/128/128
f 134/134/134 133/133/133 126/126/126
f 133/133/133 134/134/134 129/129/129
