g mesh_Slash_Full
v 1.037121E-07 0 -0.9999995
v 0.05559773 0 -0.2795093
v -1.084336E-07 0 -0.2849847
v 0.1950902 0 -0.9807846
v 0.1090588 0 -0.2632918
v 0.3826832 0 -0.9238787
v 0.1583291 0 -0.2369562
v 0.5555698 0 -0.8314686
v 0.2015144 0 -0.2015147
v 0.707106 0 -0.707106
v 0.236956 0 -0.158329
v 0.8314685 0 -0.5555696
v 0.2632912 0 -0.1090589
v 0.9238783 0 -0.3826829
v 0.2795086 0 -0.05559772
v 0.9807836 0 -0.1950899
v 0.2849846 0 -7.954392E-08
v 0.9999997 0 -3.051758E-07
v 0.2795092 0 0.05559774
v 0.9807847 0 0.19509
v 0.2632917 0 0.109059
v 0.9238789 0 0.3826831
v 0.2369561 0 0.1583292
v 0.8314691 0 0.5555699
v 0.2015147 0 0.2015149
v 0.7071063 0 0.7071064
v 0.1583289 0 0.2369567
v 0.5555698 0 0.8314692
v 0.1090588 0 0.2632918
v 0.3826829 0 0.9238789
v 0.05559756 0 0.2795093
v 0.1950898 0 0.9807847
v -2.825446E-07 0 0.2849847
v -5.072355E-07 0 0.9999995
v -0.05559807 0 0.2795089
v -0.1950908 0 0.9807846
v -0.1090593 0 0.2632914
v -0.3826837 0 0.9238787
v -0.1583295 0 0.2369562
v -0.5555705 0 0.8314688
v -0.2015151 0 0.2015147
v -0.7071069 0 0.7071059
v -0.2369568 0 0.158329
v -0.8314695 0 0.5555695
v -0.263292 0 0.1090589
v -0.9238794 0 0.3826826
v -0.2795091 0 0.05559758
v -0.9807849 0 0.1950896
v -0.2849853 0 -1.729693E-07
v -0.9999997 0 -6.330014E-07
v -0.2795095 0 -0.05559794
v -0.9807849 0 -0.1950908
v -0.2632919 0 -0.1090592
v -0.9238789 0 -0.3826837
v -0.2369563 0 -0.1583293
v -0.8314691 0 -0.5555704
v -0.201515 0 -0.2015149
v -0.7071063 0 -0.7071068
v -0.1583294 0 -0.2369567
v -0.5555698 0 -0.8314694
v -0.1090591 0 -0.2632918
v -0.3826831 0 -0.923879
v -0.05559787 0 -0.2795093
v -0.19509 0 -0.9807847
v -1.084336E-07 0 -0.2849847
v 1.037121E-07 0 -0.9999995
vt 0.9977978 0.9999985
vt 0.9722747 -0.001315837
vt 0.9977978 -0.001315837
vt 0.9722747 0.9999985
vt 0.9431056 -0.001315837
vt 0.9431056 0.9999985
vt 0.9099362 -0.001315837
vt 0.9099362 0.9999985
vt 0.876254 -0.001315837
vt 0.876254 0.9999985
vt 0.8427348 -0.001315837
vt 0.8427348 0.9999985
vt 0.8095531 -0.001315837
vt 0.809553 0.9999985
vt 0.7766896 -0.001315837
vt 0.7766896 0.9999985
vt 0.7440666 -0.001315837
vt 0.7440666 0.9999985
vt 0.7116029 -0.001315837
vt 0.7116029 0.9999985
vt 0.6792356 -0.001315837
vt 0.6792356 0.9999985
vt 0.646922 -0.001315837
vt 0.646922 0.9999985
vt 0.6146392 -0.001315837
vt 0.6146392 0.9999985
vt 0.5823804 -0.001315837
vt 0.5823804 0.9999985
vt 0.5501503 -0.001315837
vt 0.5501503 0.9999985
vt 0.5179621 -0.001315837
vt 0.5179621 0.9999985
vt 0.4858347 -0.001315837
vt 0.4858347 0.9999985
vt 0.4537897 -0.001315837
vt 0.4537897 0.9999985
vt 0.4218505 -0.001315837
vt 0.4218505 0.9999985
vt 0.3900399 -0.001315837
vt 0.3900399 0.9999985
vt 0.3569851 -0.001315837
vt 0.356985 0.9999985
vt 0.322937 -0.001315837
vt 0.322937 0.9999985
vt 0.2892528 -0.001315837
vt 0.2892528 0.9999985
vt 0.2560138 -0.001315837
vt 0.2560138 0.9999985
vt 0.2233199 -0.001315837
vt 0.2233199 0.9999985
vt 0.1912969 -0.001315837
vt 0.1912969 0.9999985
vt 0.1601047 -0.001315837
vt 0.1601047 0.9999985
vt 0.1299486 -0.001315837
vt 0.1299486 0.9999985
vt 0.1010829 -0.001315837
vt 0.1010829 0.9999985
vt 0.07379837 -0.001315837
vt 0.07379837 0.9999985
vt 0.04835437 -0.001315837
vt 0.04835437 0.9999985
vt 0.02203585 -0.001315837
vt 0.02203585 0.9999985
vt -0.0007300257 -0.001315837
vt -0.0007300256 0.9999985
vn 0 1 0
vn 0 1 0
vn 0 1 0
vn 0 1 0
vn 0 1 0
vn 0 1 0
vn 0 1 0
vn 0 1 0
vn 0 1 0
vn 0 1 0
vn 0 1 0
vn 0 1 0
vn 0 1 0
vn 0 1 0
vn 0 1 0
vn 0 1 0
vn 0 1 0
vn 0 1 0
vn 0 1 0
vn 0 1 0
vn 0 1 0
vn 0 1 0
vn 0 1 0
vn 0 1 0
vn 0 1 0
vn 0 1 0
vn 0 1 0
vn 0 1 0
vn 0 1 0
vn 0 1 0
vn 0 1 0
vn 0 1 0
vn 0 1 0
vn 0 1 0
vn 0 1 0
vn 0 1 0
vn 0 1 0
vn 0 1 0
vn 0 1 0
vn 0 1 0
vn 0 1 0
vn 0 1 0
vn 0 1 0
vn 0 1 0
vn 0 1 0
vn 0 1 0
vn 0 1 0
vn 0 1 0
vn 0 1 0
vn 0 1 0
vn 0 1 0
vn 0 1 0
vn 0 1 0
vn 0 1 0
vn 0 1 0
vn 0 1 0
vn 0 1 0
vn 0 1 0
vn 0 1 0
vn 0 1 0
vn 0 1 0
vn 0 1 0
vn 0 1 0
vn 0 1 0
vn 0 1 0
vn 0 1 0
g mesh_Slash_Full_0
f 3/3/3 2/2/2 1/1/1
f 2/2/2 4/4/4 1/1/1
f 2/2/2 5/5/5 4/4/4
f 5/5/5 6/6/6 4/4/4
f 5/5/5 7/7/7 6/6/6
f 7/7/7 8/8/8 6/6/6
f 7/7/7 9/9/9 8/8/8
f 9/9/9 10/10/10 8/8/8
f 9/9/9 11/11/11 10/10/10
f 11/11/11 12/12/12 10/10/10
f 11/11/11 13/13/13 12/12/12
f 13/13/13 14/14/14 12/12/12
f 13/13/13 15/15/15 14/14/14
f 15/15/15 16/16/16 14/14/14
f 15/15/15 17/17/17 16/16/16
f 17/17/17 18/18/18 16/16/16
f 17/17/17 19/19/19 18/18/18
f 19/19/19 20/20/20 18/18/18
f 19/19/19 21/21/21 20/20/20
f 21/21/21 22/22/22 20/20/20
f 21/21/21 23/23/23 22/22/22
f 23/23/23 24/24/24 22/22/22
f 23/23/23 25/25/25 24/24/24
f 25/25/25 26/26/26 24/24/24
f 25/25/25 27/27/27 26/26/26
f 27/27/27 28/28/28 26/26/26
f 27/27/27 29/29/29 28/28/28
f 29/29/29 30/30/30 28/28/28
f 29/29/29 31/31/31 30/30/30
f 31/31/31 32/32/32 30/30/30
f 31/31/31 33/33/33 32/32/32
f 33/33/33 34/34/34 32/32/32
f 33/33/33 35/35/35 34/34/34
f 35/35/35 36/36/36 34/34/34
f 35/35/35 37/37/37 36/36/36
f 37/37/37 38/38/38 36/36/36
f 37/37/37 39/39/39 38/38/38
f 39/39/39 40/40/40 38/38/38
f 39/39/39 41/41/41 40/40/40
f 41/41/41 42/42/42 40/40/40
f 41/41/41 43/43/43 42/42/42
f 43/43/43 44/44/44 42/42/42
f 43/43/43 45/45/45 44/44/44
f 45/45/45 46/46/46 44/44/44
f 45/45/45 47/47/47 46/46/46
f 47/47/47 48/48/48 46/46/46
f 47/47/47 49/49/49 48/48/48
f 49/49/49 50/50/50 48/48/48
f 49/49/49 51/51/51 50/50/50
f 51/51/51 52/52/52 50/50/50
f 51/51/51 53/53/53 52/52/52
f 53/53/53 54/54/54 52/52/52
f 53/53/53 55/55/55 54/54/54
f 55/55/55 56/56/56 54/54/54
f 55/55/55 57/57/57 56/56/56
f 57/57/57 58/58/58 56/56/56
f 57/57/57 59/59/59 58/58/58
f 59/59/59 60/60/60 58/58/58
f 59/59/59 61/61/61 60/60/60
f 61/61/61 62/62/62 60/60/60
f 61/61/61 63/63/63 62/62/62
f 63/63/63 64/64/64 62/62/62
f 63/63/63 65/65/65 64/64/64
f 65/65/65 66/66/66 64/64/64
