g 
v -0.4184355 7.004595E-07 0.7663658
v 0.4184357 7.004595E-07 -0.7663652
v -0.4184355 7.004595E-07 -0.7663652
v 0.4184357 7.004595E-07 0.7663658
v -0.4184355 1.065919 0.7663658
v 0.4184357 1.065915 -0.7663652
v 0.4184357 1.065919 0.7663658
v -0.4184355 1.065915 -0.7663652
v -0.4184355 7.004595E-07 0.7663658
v 0.4184357 1.065919 0.7663658
v 0.4184357 7.004595E-07 0.7663658
v -0.4184355 1.065919 0.7663658
v 0.4184357 7.004595E-07 0.7663658
v 0.4184357 1.065915 -0.7663652
v 0.4184357 7.004595E-07 -0.7663652
v 0.4184357 1.065919 0.7663658
v 0.4184357 7.004595E-07 -0.7663652
v -0.4184355 1.065915 -0.7663652
v -0.4184355 7.004595E-07 -0.7663652
v 0.4184357 1.065915 -0.7663652
v -0.4184355 7.004595E-07 -0.7663652
v -0.4184355 1.065919 0.7663658
v -0.4184355 7.004595E-07 0.7663658
v -0.4184355 1.065915 -0.7663652
v -0.3260707 1.30655 0.6692403
v 0.1293212 1.30655 0.1780942
v 0.1293212 1.30655 0.6692403
v -0.3260707 1.30655 0.1780942
v -0.3260707 1.065919 0.6692403
v 0.1293212 1.30655 0.6692403
v 0.1293212 1.065919 0.6692403
v -0.3260707 1.30655 0.6692403
v 0.1293212 1.065919 0.6692403
v 0.1293212 1.30655 0.1780942
v 0.1293212 1.065919 0.1780942
v 0.1293212 1.30655 0.6692403
v 0.1293212 1.065919 0.1780942
v -0.3260707 1.30655 0.1780942
v -0.3260707 1.065919 0.1780942
v 0.1293212 1.30655 0.1780942
v -0.3260707 1.065919 0.1780942
v -0.3260707 1.30655 0.6692403
v -0.3260707 1.065919 0.6692403
v -0.3260707 1.30655 0.1780942
v -0.3329882 1.30655 -0.110593
v -0.1075095 1.30655 -0.5068566
v -0.1075095 1.30655 -0.110593
v -0.3329882 1.30655 -0.5068566
v -0.3329882 1.065915 -0.1105921
v -0.1075095 1.30655 -0.110593
v -0.1075095 1.065915 -0.1105921
v -0.3329882 1.30655 -0.110593
v -0.1075095 1.065915 -0.1105921
v -0.1075095 1.30655 -0.5068566
v -0.1075095 1.065915 -0.5068566
v -0.1075095 1.30655 -0.110593
v -0.1075095 1.065915 -0.5068566
v -0.3329882 1.30655 -0.5068566
v -0.3329882 1.065915 -0.5068566
v -0.1075095 1.30655 -0.5068566
v -0.3329882 1.065915 -0.5068566
v -0.3329882 1.30655 -0.110593
v -0.3329882 1.065915 -0.1105921
v -0.3329882 1.30655 -0.5068566
v 0.2404259 1.065909 -0.1694443
v 0.05994902 1.065909 -0.1694447
v 0.1501862 1.065909 -0.1452653
v 0.3306642 1.065909 -0.3257424
v 0.3064846 1.065909 -0.2355029
v 0.05994949 1.065909 -0.4820372
v -0.03028908 1.065909 -0.3257405
v -0.006110096 1.065909 -0.2355029
v -0.006109619 1.065909 -0.4159791
v 0.2404257 1.065909 -0.4820372
v 0.1501871 1.065909 -0.5062167
v 0.3064848 1.065909 -0.4159791
v 0.2404257 1.065909 -0.4820372
v 0.2529839 4.952464 -0.3850896
v 0.2095371 4.952464 -0.4285361
v 0.3064848 1.065909 -0.4159791
v 0.2688864 4.952464 -0.3257405
v 0.3306642 1.065909 -0.3257424
v 0.2529837 4.952464 -0.2663915
v 0.3064846 1.065909 -0.2355029
v 0.2095366 4.952464 -0.2229444
v 0.2404259 1.065909 -0.1694443
v 0.1501866 4.952464 -0.2070424
v 0.1501862 1.065909 -0.1452653
v 0.09083853 4.952464 -0.2229449
v 0.05994902 1.065909 -0.1694447
v 0.04739103 4.952464 -0.2663915
v -0.006110096 1.065909 -0.2355029
v 0.03148899 4.952464 -0.3257405
v -0.03028908 1.065909 -0.3257405
v 0.04739151 4.952464 -0.3850896
v -0.006109619 1.065909 -0.4159791
v 0.09083805 4.952464 -0.4285361
v 0.05994949 1.065909 -0.4820372
v 0.1501871 4.952464 -0.4444386
v 0.1501871 1.065909 -0.5062167
v 0.2095371 4.952464 -0.4285361
v 0.2404257 1.065909 -0.4820372
vt 0.1187134 0.06994629
vt 0.1289063 0.06994629
vt 0.1187134 0.06994629
vt 0.1289063 0.06994629
vt 0.1187134 0.06994629
vt 0.1289063 0.06994629
vt 0.1289063 0.06994629
vt 0.1187134 0.06994629
vt 0.1187134 0.08532715
vt 0.1289063 0.08532715
vt 0.1289063 0.08532715
vt 0.1187134 0.08532715
vt 0.1289063 0.05764771
vt 0.1289063 0.05764771
vt 0.1289063 0.05764771
vt 0.1289063 0.05764771
vt 0.1289063 0.06994629
vt 0.1187134 0.06994629
vt 0.1187134 0.06994629
vt 0.1289063 0.06994629
vt 0.1187134 0.06994629
vt 0.1187134 0.06994629
vt 0.1187134 0.06994629
vt 0.1187134 0.06994629
vt 0.1496582 0.06994629
vt 0.1520996 0.06994629
vt 0.1501465 0.06994629
vt 0.1516113 0.06994629
vt 0.147583 0.08532715
vt 0.1501465 0.08532715
vt 0.1479492 0.08532715
vt 0.1496582 0.08532715
vt 0.1479492 0.05764771
vt 0.1520996 0.05764771
vt 0.1541748 0.05764771
vt 0.1501465 0.05764771
vt 0.1541748 0.06994629
vt 0.1516113 0.06994629
vt 0.1538086 0.06994629
vt 0.1520996 0.06994629
vt 0.1538086 0.06994629
vt 0.1496582 0.06994629
vt 0.147583 0.06994629
vt 0.1516113 0.06994629
vt 0.1513672 0.06994629
vt 0.1523438 0.06994629
vt 0.1514893 0.06994629
vt 0.1520996 0.06994629
vt 0.149292 0.08532715
vt 0.1514893 0.08532715
vt 0.1490479 0.08532715
vt 0.1513672 0.08532715
vt 0.1490479 0.05764771
vt 0.1523438 0.05764771
vt 0.1544189 0.05764771
vt 0.1514893 0.05764771
vt 0.1544189 0.06994629
vt 0.1520996 0.06994629
vt 0.1546631 0.06994629
vt 0.1523438 0.06994629
vt 0.1546631 0.06994629
vt 0.1513672 0.06994629
vt 0.149292 0.06994629
vt 0.1520996 0.06994629
vt 0.1671143 0.02282715
vt 0.1654053 0.02282715
vt 0.1656494 0.02282715
vt 0.1724854 0.02282715
vt 0.1691895 0.02282715
vt 0.1724854 0.02282715
vt 0.1680908 0.02282715
vt 0.1662598 0.02282715
vt 0.1704102 0.02282715
vt 0.1741943 0.02282715
vt 0.1739502 0.02282715
vt 0.1733398 0.02282715
vt 0.1741943 0.02282715
vt 0.1733398 0.043396
vt 0.1741943 0.043396
vt 0.1733398 0.02282715
vt 0.1724854 0.043396
vt 0.1724854 0.02282715
vt 0.1716309 0.043396
vt 0.1716309 0.02282715
vt 0.1706543 0.043396
vt 0.1706543 0.02282715
vt 0.1697998 0.043396
vt 0.1697998 0.02282715
vt 0.1689453 0.043396
vt 0.1689453 0.02282715
vt 0.1680908 0.043396
vt 0.1680908 0.02282715
vt 0.1671143 0.043396
vt 0.1671143 0.02282715
vt 0.1662598 0.043396
vt 0.1662598 0.02282715
vt 0.1654053 0.043396
vt 0.1654053 0.02282715
vt 0.1645508 0.043396
vt 0.1645508 0.02282715
vt 0.1635742 0.043396
vt 0.1635742 0.02282715
vn 0 -1 0
vn 0 -1 0
vn 0 -1 0
vn 0 -1 0
vn 0 1 0
vn 0 1 0
vn 0 1 0
vn 0 1 0
vn 0 0 1
vn 0 0 1
vn 0 0 1
vn 0 0 1
vn 1 0 0
vn 1 0 0
vn 1 0 0
vn 1 0 0
vn 0 0 -1
vn 0 0 -1
vn 0 0 -1
vn 0 0 -1
vn -1 0 0
vn -1 0 0
vn -1 0 0
vn -1 0 0
vn 0 1 0
vn 0 1 0
vn 0 1 0
vn 0 1 0
vn 0 0 1
vn 0 0 1
vn 0 0 1
vn 0 0 1
vn 1 0 0
vn 1 0 0
vn 1 0 0
vn 1 0 0
vn 0 0 -1
vn 0 0 -1
vn 0 0 -1
vn 0 0 -1
vn -1 0 0
vn -1 0 0
vn -1 0 0
vn -1 0 0
vn 0 1 0
vn 0 1 0
vn 0 1 0
vn 0 1 0
vn 0 0 1
vn 0 0 1
vn 0 0 1
vn 0 0 1
vn 1 0 0
vn 1 0 0
vn 1 0 0
vn 1 0 0
vn 0 0 -1
vn 0 0 -1
vn 0 0 -1
vn 0 0 -1
vn -1 0 0
vn -1 0 0
vn -1 0 0
vn -1 0 0
vn 0 -1 0
vn 0 -1 0
vn 0 -1 0
vn 0 -1 0
vn 0 -1 0
vn 0 -1 0
vn 0 -1 0
vn 0 -1 0
vn 0 -1 0
vn 0 -1 0
vn 0 -1 0
vn 0 -1 0
vn 0.5 0.01589966 -0.8657227
vn 0.8657227 0.01589966 -0.5
vn 0.5 0.01589966 -0.8657227
vn 0.8657227 0.01589966 -0.5
vn 1 0.01589966 0
vn 1 0.01589966 0
vn 0.8657227 0.01589966 0.5
vn 0.8657227 0.01589966 0.5
vn 0.5 0.01589966 0.8657227
vn 0.5 0.01589966 0.8657227
vn 0 0.01589966 1
vn 0 0.01589966 1
vn -0.5 0.01589966 0.8657227
vn -0.5 0.01589966 0.8657227
vn -0.8657227 0.01589966 0.5
vn -0.8657227 0.01589966 0.5
vn -1 0.01589966 0
vn -1 0.01589966 0
vn -0.8657227 0.01589966 -0.5
vn -0.8657227 0.01589966 -0.5
vn -0.5 0.01589966 -0.8657227
vn -0.5 0.01589966 -0.8657227
vn 0 0.01589966 -1
vn 0 0.01589966 -1
vn 0.5 0.01589966 -0.8657227
vn 0.5 0.01589966 -0.8657227
g _0
f 3/3/3 2/2/2 1/1/1
f 4/4/4 1/1/1 2/2/2
f 7/7/7 6/6/6 5/5/5
f 8/8/8 5/5/5 6/6/6
f 11/11/11 10/10/10 9/9/9
f 12/12/12 9/9/9 10/10/10
f 15/15/15 14/14/14 13/13/13
f 16/16/16 13/13/13 14/14/14
f 19/19/19 18/18/18 17/17/17
f 20/20/20 17/17/17 18/18/18
f 23/23/23 22/22/22 21/21/21
f 24/24/24 21/21/21 22/22/22
f 27/27/27 26/26/26 25/25/25
f 28/28/28 25/25/25 26/26/26
f 31/31/31 30/30/30 29/29/29
f 32/32/32 29/29/29 30/30/30
f 35/35/35 34/34/34 33/33/33
f 36/36/36 33/33/33 34/34/34
f 39/39/39 38/38/38 37/37/37
f 40/40/40 37/37/37 38/38/38
f 43/43/43 42/42/42 41/41/41
f 44/44/44 41/41/41 42/42/42
f 47/47/47 46/46/46 45/45/45
f 48/48/48 45/45/45 46/46/46
f 51/51/51 50/50/50 49/49/49
f 52/52/52 49/49/49 50/50/50
f 55/55/55 54/54/54 53/53/53
f 56/56/56 53/53/53 54/54/54
f 59/59/59 58/58/58 57/57/57
f 60/60/60 57/57/57 58/58/58
f 63/63/63 62/62/62 61/61/61
f 64/64/64 61/61/61 62/62/62
f 67/67/67 66/66/66 65/65/65
f 66/66/66 68/68/68 65/65/65
f 65/65/65 68/68/68 69/69/69
f 70/70/70 68/68/68 66/66/66
f 71/71/71 70/70/70 66/66/66
f 72/72/72 71/71/71 66/66/66
f 73/73/73 70/70/70 71/71/71
f 74/74/74 68/68/68 70/70/70
f 75/75/75 74/74/74 70/70/70
f 76/76/76 68/68/68 74/74/74
f 79/79/79 78/78/78 77/77/77
f 80/80/80 77/77/77 78/78/78
f 78/78/78 81/81/81 80/80/80
f 82/82/82 80/80/80 81/81/81
f 81/81/81 83/83/83 82/82/82
f 84/84/84 82/82/82 83/83/83
f 83/83/83 85/85/85 84/84/84
f 86/86/86 84/84/84 85/85/85
f 85/85/85 87/87/87 86/86/86
f 88/88/88 86/86/86 87/87/87
f 87/87/87 89/89/89 88/88/88
f 90/90/90 88/88/88 89/89/89
f 89/89/89 91/91/91 90/90/90
f 92/92/92 90/90/90 91/91/91
f 91/91/91 93/93/93 92/92/92
f 94/94/94 92/92/92 93/93/93
f 93/93/93 95/95/95 94/94/94
f 96/96/96 94/94/94 95/95/95
f 95/95/95 97/97/97 96/96/96
f 98/98/98 96/96/96 97/97/97
f 97/97/97 99/99/99 98/98/98
f 100/100/100 98/98/98 99/99/99
f 99/99/99 101/101/101 100/100/100
f 102/102/102 100/100/100 101/101/101
