g PineTree_04
v 0.5724894 0.4398974 2.874147E-07
v 1.450618E-07 1.396046 2.874147E-07
v 0.2862445 0.4398971 -0.4957902
v 0.2862445 0.4398971 -0.4957902
v 1.450618E-07 1.396046 2.874147E-07
v -0.2862447 0.4398971 -0.4957902
v -0.2862447 0.4398971 -0.4957902
v 1.450618E-07 1.396046 2.874147E-07
v -0.5724901 0.4398974 2.874147E-07
v -0.5724901 0.4398974 2.874147E-07
v 1.450618E-07 1.396046 2.874147E-07
v -0.2862447 0.4398976 0.4957908
v -0.2862447 0.4398976 0.4957908
v 1.450618E-07 1.396046 2.874147E-07
v 0.2862445 0.4398976 0.4957908
v 0.2862445 0.4398976 0.4957908
v 1.450618E-07 1.396046 2.874147E-07
v 0.5724894 0.4398974 2.874147E-07
v 0.466385 0.7952569 -0.04080362
v 1.450618E-07 1.637876 2.874147E-07
v 0.1978561 0.7952569 -0.4243037
v 0.1978561 0.7952569 -0.4243037
v 1.450618E-07 1.637876 2.874147E-07
v -0.2685288 0.7952569 -0.3834998
v -0.2685288 0.7952569 -0.3834998
v 1.450618E-07 1.637876 2.874147E-07
v -0.4663847 0.7952569 0.04080324
v -0.4663847 0.7952569 0.04080324
v 1.450618E-07 1.637876 2.874147E-07
v -0.1978558 0.7952569 0.4243034
v -0.1978558 0.7952569 0.4243034
v 1.450618E-07 1.637876 2.874147E-07
v 0.2685291 0.7952569 0.3835004
v 0.2685291 0.7952569 0.3835004
v 1.450618E-07 1.637876 2.874147E-07
v 0.466385 0.7952569 -0.04080362
v 0.3328897 1.180084 -0.05869741
v 1.450618E-07 1.87007 2.874147E-07
v 0.1156117 1.180084 -0.31764
v 0.1156117 1.180084 -0.31764
v 1.450618E-07 1.87007 2.874147E-07
v -0.2172783 1.180084 -0.2589423
v -0.2172783 1.180084 -0.2589423
v 1.450618E-07 1.87007 2.874147E-07
v -0.3328894 1.180084 0.05869703
v -0.3328894 1.180084 0.05869703
v 1.450618E-07 1.87007 2.874147E-07
v -0.1156114 1.180084 0.3176396
v -0.1156114 1.180084 0.3176396
v 1.450618E-07 1.87007 2.874147E-07
v 0.2172786 1.180084 0.2589419
v 0.2172786 1.180084 0.2589419
v 1.450618E-07 1.87007 2.874147E-07
v 0.3328897 1.180084 -0.05869741
v -0.1131233 0.5756705 -0.06719751
v -0.09786782 0.5756705 -0.07121248
v -0.1097425 0.5756705 -0.05025072
v -0.1131233 0.5756705 -0.06719751
v -0.060572 0.5756705 -0.1072909
v -0.05696473 -1.907349E-07 -0.1032588
v -0.1008061 -1.907349E-07 -0.06008501
v 0.0903131 -3.099441E-07 0.05037336
v 0.09452834 -1.907349E-07 0.06945258
v 0.1078893 0.5756705 0.06040411
v 0.1090442 -1.907349E-07 0.04431086
v 0.0903131 -3.099441E-07 0.05037336
v 0.1078893 0.5756705 0.06040411
v -0.2862447 0.4398971 -0.4957902
v 0.5724894 0.4398974 2.874147E-07
v 0.2862445 0.4398971 -0.4957902
v -0.2862447 0.4398976 0.4957908
v -0.5724901 0.4398974 2.874147E-07
v 0.2862445 0.4398976 0.4957908
v -0.2685288 0.7952569 -0.3834998
v 0.466385 0.7952569 -0.04080362
v 0.1978561 0.7952569 -0.4243037
v -0.1978558 0.7952569 0.4243034
v -0.4663847 0.7952569 0.04080324
v 0.2685291 0.7952569 0.3835004
v -0.2172783 1.180084 -0.2589423
v 0.3328897 1.180084 -0.05869741
v 0.1156117 1.180084 -0.31764
v -0.1156114 1.180084 0.3176396
v -0.3328894 1.180084 0.05869703
v 0.2172786 1.180084 0.2589419
v 0.1078893 0.5756705 0.06040411
v 0.1209671 -7.152558E-08 -0.0005299555
v 0.1090442 -1.907349E-07 0.04431086
v 0.1224209 0.5756705 -0.001639079
v 0.1038238 0.5756705 -0.06133623
v 0.1049787 -7.152558E-08 -0.05978746
v 0.09452834 -1.907349E-07 0.06945258
v 0.06263032 0.5756705 0.1061013
v 0.1078893 0.5756705 0.06040411
v 0.06170955 -1.907349E-07 0.1022943
v 0.06271186 0.5756705 -0.1095216
v 0.1049787 -7.152558E-08 -0.05978746
v 0.1038238 0.5756705 -0.06133623
v 0.06171336 -7.152558E-08 -0.1033647
v 0.00234523 -1.907349E-07 -0.1192386
v 0.0004254838 0.5756705 -0.1256139
v -0.05696473 -1.907349E-07 -0.1032588
v 0.0004254838 0.5756705 -0.1256139
v -0.060572 0.5756705 -0.1072909
v 0.00234523 -1.907349E-07 -0.1192386
v -0.1233815 0.5756705 -0.001640032
v -0.1131233 0.5756705 -0.06719751
v -0.1097425 0.5756705 -0.05025072
v -0.1008061 -1.907349E-07 -0.06008501
v -0.116361 -4.291534E-07 -0.0005318628
v -0.1003865 -3.099441E-07 0.05878096
v -0.1052254 0.5756701 0.05935793
v -0.060572 0.5756701 0.1040109
v -0.1003865 -3.099441E-07 0.05878096
v -0.1052254 0.5756701 0.05935793
v -0.0569695 -3.099441E-07 0.1022018
v -0.060572 0.5756701 0.1040109
v 0.002344753 -1.907349E-07 0.1180928
v -0.0569695 -3.099441E-07 0.1022018
v 0.0004254838 0.5756701 0.1203559
v 0.06263032 0.5756705 0.1061013
v 0.06170955 -1.907349E-07 0.1022943
vt 0.2368164 0.7412109
vt 0.223877 0.7392578
vt 0.2303467 0.7412109
vt 0.2303467 0.7470703
vt 0.223877 0.7451172
vt 0.2174072 0.7470703
vt 0.2174072 0.734375
vt 0.223877 0.7324219
vt 0.2109375 0.734375
vt 0.2109375 0.7412109
vt 0.223877 0.7392578
vt 0.2174072 0.7412109
vt 0.2174072 0.7470703
vt 0.223877 0.7451172
vt 0.2303467 0.7470703
vt 0.2303467 0.734375
vt 0.223877 0.7324219
vt 0.2368164 0.734375
vt 0.2490234 0.7436523
vt 0.2380371 0.7412109
vt 0.2435303 0.7436523
vt 0.2435303 0.7495117
vt 0.2380371 0.7475586
vt 0.2325439 0.7495117
vt 0.2325439 0.7363281
vt 0.2380371 0.734375
vt 0.2270508 0.7363281
vt 0.2270508 0.7436523
vt 0.2380371 0.7412109
vt 0.2325439 0.7436523
vt 0.2325439 0.7495117
vt 0.2380371 0.7475586
vt 0.2435303 0.7495117
vt 0.2435303 0.7363281
vt 0.2380371 0.734375
vt 0.2490234 0.7363281
vt 0.2279053 0.746582
vt 0.2194824 0.75
vt 0.2237549 0.746582
vt 0.2237549 0.7524414
vt 0.2194824 0.7558594
vt 0.21521 0.7524414
vt 0.21521 0.7392578
vt 0.2194824 0.7431641
vt 0.2109375 0.7392578
vt 0.2109375 0.746582
vt 0.2194824 0.75
vt 0.21521 0.746582
vt 0.21521 0.7524414
vt 0.2194824 0.7558594
vt 0.2237549 0.7524414
vt 0.2237549 0.7392578
vt 0.2194824 0.7431641
vt 0.2279053 0.7392578
vt 0.4938965 0.7304688
vt 0.4958496 0.7304688
vt 0.494873 0.7304688
vt 0.4938965 0.7304688
vt 0.4985352 0.7304688
vt 0.4973145 0.7265625
vt 0.4929199 0.7265625
vt 0.6826172 0.7250977
vt 0.6806641 0.7250977
vt 0.6791992 0.7290039
vt 0.6835938 0.7250977
vt 0.6826172 0.7250977
vt 0.6791992 0.7290039
vt 0.2174072 0.734375
vt 0.2368164 0.734375
vt 0.2303467 0.734375
vt 0.2174072 0.734375
vt 0.2109375 0.734375
vt 0.2303467 0.734375
vt 0.2325439 0.7363281
vt 0.2490234 0.7363281
vt 0.2435303 0.7363281
vt 0.2325439 0.7363281
vt 0.2270508 0.7363281
vt 0.2435303 0.7363281
vt 0.21521 0.7392578
vt 0.2279053 0.7392578
vt 0.2237549 0.7392578
vt 0.21521 0.7392578
vt 0.2109375 0.7392578
vt 0.2237549 0.7392578
vt 0.5 0.7333984
vt 0.5063477 0.7294922
vt 0.5043945 0.7294922
vt 0.5024414 0.7333984
vt 0.503418 0.7333984
vt 0.5063477 0.7294922
vt 0.5009766 0.7241211
vt 0.4968262 0.7280273
vt 0.5 0.7280273
vt 0.4953613 0.7241211
vt 0.5024414 0.7304688
vt 0.5063477 0.7265625
vt 0.503418 0.7304688
vt 0.5043945 0.7265625
vt 0.5014648 0.7265625
vt 0.5009766 0.7304688
vt 0.4973145 0.7294922
vt 0.5009766 0.7333984
vt 0.4985352 0.7333984
vt 0.5014648 0.7294922
vt 0.4934082 0.7280273
vt 0.4938965 0.7280273
vt 0.494873 0.7280273
vt 0.4929199 0.7241211
vt 0.489502 0.7241211
vt 0.4875488 0.7241211
vt 0.4921875 0.7280273
vt 0.4916992 0.7333984
vt 0.4875488 0.7294922
vt 0.4921875 0.7333984
vt 0.4873047 0.7294922
vt 0.4916992 0.7304688
vt 0.4897461 0.7265625
vt 0.4873047 0.7265625
vt 0.4934082 0.7304688
vt 0.4968262 0.7304688
vt 0.4953613 0.7265625
vn 0.8579102 0.5136719 0
vn 0 1 0
vn 0.4289551 0.5136719 -0.7431641
vn 0.4289551 0.5136719 -0.7431641
vn 0 1 0
vn -0.4289551 0.5136719 -0.7431641
vn -0.4289551 0.5136719 -0.7431641
vn 0 1 0
vn -0.8579102 0.5136719 0
vn -0.8579102 0.5136719 0
vn 0 1 0
vn -0.4289551 0.5136719 0.7431641
vn -0.4289551 0.5136719 0.7431641
vn 0 1 0
vn 0.4289551 0.5136719 0.7431641
vn 0.4289551 0.5136719 0.7431641
vn 0 1 0
vn 0.8579102 0.5136719 0
vn 0.8706055 0.4855957 -0.07617188
vn 0 1 0
vn 0.3693848 0.4855957 -0.7919922
vn 0.3693848 0.4855957 -0.7919922
vn 0 1 0
vn -0.5014648 0.4855957 -0.7158203
vn -0.5014648 0.4855957 -0.7158203
vn 0 1 0
vn -0.8706055 0.4855957 0.07617188
vn -0.8706055 0.4855957 0.07617188
vn 0 1 0
vn -0.3693848 0.4855957 0.7919922
vn -0.3693848 0.4855957 0.7919922
vn 0 1 0
vn 0.5014648 0.4855957 0.7158203
vn 0.5014648 0.4855957 0.7158203
vn 0 1 0
vn 0.8706055 0.4855957 -0.07617188
vn 0.8842773 0.4399414 -0.1558838
vn 0 1 0
vn 0.3071289 0.4399414 -0.84375
vn 0.3071289 0.4399414 -0.84375
vn 0 1 0
vn -0.5771484 0.4399414 -0.6879883
vn -0.5771484 0.4399414 -0.6879883
vn 0 1 0
vn -0.8842773 0.4399414 0.1558838
vn -0.8842773 0.4399414 0.1558838
vn 0 1 0
vn -0.3071289 0.4399414 0.84375
vn -0.3071289 0.4399414 0.84375
vn 0 1 0
vn 0.5771484 0.4399414 0.6879883
vn 0.5771484 0.4399414 0.6879883
vn 0 1 0
vn 0.8842773 0.4399414 -0.1558838
vn 0 1 0
vn 0 1 0
vn 0 1 0
vn -0.8378906 0.2325439 -0.4941406
vn -0.4545898 0.02874756 -0.8901367
vn -0.4938965 -0.01760864 -0.8696289
vn -0.8671875 -0.01914978 -0.4973145
vn 0.9760742 -0.02604675 -0.2156982
vn 0.9760742 -0.02604675 -0.2156982
vn 0.9760742 -0.02603149 -0.2156982
vn 0.3078613 -0.02597046 0.9511719
vn 0.3078613 -0.02597046 0.9511719
vn 0.3078613 -0.02593994 0.9511719
vn 0 -1 0
vn 0 -1 0
vn 0 -1 0
vn 0 -1 0
vn 0 -1 0
vn 0 -1 0
vn 0 -1 0
vn 0 -1 0
vn 0 -1 0
vn 0 -1 0
vn 0 -1 0
vn 0 -1 0
vn 0 -1 0
vn 0 -1 0
vn 0 -1 0
vn 0 -1 0
vn 0 -1 0
vn 0 -1 0
vn 0.8745117 -0.003955841 0.4848633
vn 1 -0.002113342 -0.003881454
vn 0.9663086 -0.005245209 0.2570801
vn 0.9995117 -0.002622604 -0.03625488
vn 0.8759766 -0.001525879 -0.4824219
vn 0.8681641 -0.003574371 -0.4963379
vn 0.7075195 -0.005779266 0.706543
vn 0.4868164 -0.004627228 0.8735352
vn 0.8745117 -0.003955841 0.4848633
vn 0.4997559 -0.006530762 0.8662109
vn 0.5273438 -0.005626678 -0.8496094
vn 0.8681641 -0.003574371 -0.4963379
vn 0.8759766 -0.001525879 -0.4824219
vn 0.5019531 -0.01012421 -0.8647461
vn -0.000702858 -0.01152802 -1
vn -0.01905823 -0.009681702 -1
vn -0.4938965 -0.01760864 -0.8696289
vn -0.01905823 -0.009681702 -1
vn -0.4545898 0.02874756 -0.8901367
vn -0.000702858 -0.01152802 -1
vn -0.9975586 0.02284241 0.06231689
vn -0.8378906 0.2325439 -0.4941406
vn 0 1 0
vn -0.8671875 -0.01914978 -0.4973145
vn -1 -0.01218414 0.004123688
vn -0.8647461 -0.009162903 0.5019531
vn -0.859375 -0.007724762 0.5112305
vn -0.5004883 -0.005817413 0.8657227
vn -0.8647461 -0.009162903 0.5019531
vn -0.859375 -0.007724762 0.5112305
vn -0.4995117 -0.005847931 0.8662109
vn -0.5004883 -0.005817413 0.8657227
vn -0.001512527 -0.005794525 1
vn -0.4995117 -0.005847931 0.8662109
vn -0.01876831 -0.004055023 1
vn 0.4868164 -0.004627228 0.8735352
vn 0.4997559 -0.006530762 0.8662109
g PineTree_04_0
f 3/3/3 2/2/2 1/1/1
f 6/6/6 5/5/5 4/4/4
f 9/9/9 8/8/8 7/7/7
f 12/12/12 11/11/11 10/10/10
f 15/15/15 14/14/14 13/13/13
f 18/18/18 17/17/17 16/16/16
f 21/21/21 20/20/20 19/19/19
f 24/24/24 23/23/23 22/22/22
f 27/27/27 26/26/26 25/25/25
f 30/30/30 29/29/29 28/28/28
f 33/33/33 32/32/32 31/31/31
f 36/36/36 35/35/35 34/34/34
f 39/39/39 38/38/38 37/37/37
f 42/42/42 41/41/41 40/40/40
f 45/45/45 44/44/44 43/43/43
f 48/48/48 47/47/47 46/46/46
f 51/51/51 50/50/50 49/49/49
f 54/54/54 53/53/53 52/52/52
f 57/57/57 56/56/56 55/55/55
f 56/56/56 59/59/59 58/58/58
f 59/59/59 60/60/60 58/58/58
f 60/60/60 61/61/61 58/58/58
f 64/64/64 63/63/63 62/62/62
f 67/67/67 66/66/66 65/65/65
f 70/70/70 69/69/69 68/68/68
f 69/69/69 71/71/71 68/68/68
f 71/71/71 72/72/72 68/68/68
f 73/73/73 71/71/71 69/69/69
f 76/76/76 75/75/75 74/74/74
f 75/75/75 77/77/77 74/74/74
f 77/77/77 78/78/78 74/74/74
f 79/79/79 77/77/77 75/75/75
f 82/82/82 81/81/81 80/80/80
f 81/81/81 83/83/83 80/80/80
f 83/83/83 84/84/84 80/80/80
f 85/85/85 83/83/83 81/81/81
f 88/88/88 87/87/87 86/86/86
f 89/89/89 86/86/86 87/87/87
f 89/89/89 87/87/87 90/90/90
f 91/91/91 90/90/90 87/87/87
f 94/94/94 93/93/93 92/92/92
f 95/95/95 92/92/92 93/93/93
f 98/98/98 97/97/97 96/96/96
f 99/99/99 96/96/96 97/97/97
f 99/99/99 100/100/100 96/96/96
f 101/101/101 96/96/96 100/100/100
f 104/104/104 103/103/103 102/102/102
f 105/105/105 102/102/102 103/103/103
f 108/108/108 107/107/107 106/106/106
f 107/107/107 109/109/109 106/106/106
f 109/109/109 110/110/110 106/106/106
f 110/110/110 111/111/111 106/106/106
f 112/112/112 106/106/106 111/111/111
f 115/115/115 114/114/114 113/113/113
f 116/116/116 113/113/113 114/114/114
f 119/119/119 118/118/118 117/117/117
f 120/120/120 117/117/117 118/118/118
f 120/120/120 118/118/118 121/121/121
f 122/122/122 121/121/121 118/118/118
