g Platform
v -104.3788 60.26316 -2.528351
v 104.3789 60.26315 -2.528351
v 9.099484E-06 120.5263 -2.528351
v -1.963623E-05 -120.5263 -2.528351
v -104.3789 -60.26313 -2.528351
v 104.3788 -60.26316 -2.528351
v 104.3788 -60.26316 -2.528351
v -1.963623E-05 -120.5263 7.740601
v 104.3788 -60.26316 7.740601
v -1.963623E-05 -120.5263 -2.528351
v 104.3789 60.26315 -2.528351
v 104.3788 -60.26316 7.740601
v 104.3789 60.26315 7.740601
v 104.3788 -60.26316 -2.528351
v 9.099484E-06 120.5263 -2.528351
v 104.3789 60.26315 7.740601
v 9.099484E-06 120.5263 7.740601
v 104.3789 60.26315 -2.528351
v -104.3788 60.26316 -2.528351
v 9.099484E-06 120.5263 7.740601
v -104.3788 60.26316 7.740601
v 9.099484E-06 120.5263 -2.528351
v -104.3789 -60.26313 -2.528351
v -104.3788 60.26316 7.740601
v -104.3789 -60.26313 7.740601
v -104.3788 60.26316 -2.528351
v -1.963623E-05 -120.5263 -2.528351
v -104.3789 -60.26313 7.740601
v -1.963623E-05 -120.5263 7.740601
v -104.3789 -60.26313 -2.528351
v -92.99197 -53.72331 9.854235
v -2.233011 -114.001 9.854235
v -95.29457 -60.27186 9.854235
v -1.776189E-05 -106.8779 9.854235
v -95.43778 55.23167 9.854235
v -99.84428 -52.39153 9.854235
v -99.84426 55.39519 9.854235
v 92.30935 53.59523 9.854235
v 6.893114E-06 101.9221 9.854235
v -97.89577 58.77008 9.854235
v -6.563266 111.5009 9.854235
v 6.563282 111.5009 9.854235
v 97.42741 59.04047 9.854235
v 88.30855 -50.05755 9.854235
v 99.84427 54.85436 9.854235
v 99.84426 -52.98063 9.854235
v 95.80469 -59.97737 9.854235
v 2.232974 -114.001 9.854235
v 104.3788 -60.26316 9.854235
v -1.963623E-05 -120.5263 7.740601
v -1.963623E-05 -120.5263 9.854235
v 104.3788 -60.26316 7.740601
v 104.3789 60.26315 9.854235
v 104.3788 -60.26316 7.740601
v 104.3788 -60.26316 9.854235
v 104.3789 60.26315 7.740601
v 9.099484E-06 120.5263 9.854235
v 104.3789 60.26315 7.740601
v 104.3789 60.26315 9.854235
v 9.099484E-06 120.5263 7.740601
v -104.3788 60.26316 9.854235
v 9.099484E-06 120.5263 7.740601
v 9.099484E-06 120.5263 9.854235
v -104.3788 60.26316 7.740601
v -104.3789 -60.26313 9.854235
v -104.3788 60.26316 7.740601
v -104.3788 60.26316 9.854235
v -104.3789 -60.26313 7.740601
v -1.963623E-05 -120.5263 9.854235
v -104.3789 -60.26313 7.740601
v -104.3789 -60.26313 9.854235
v -1.963623E-05 -120.5263 7.740601
v -97.89577 58.77008 9.854235
v 9.034707E-06 119.9443 9.854235
v -6.563266 111.5009 9.854235
v 9.099484E-06 120.5263 9.854235
v 6.563282 111.5009 9.854235
v -104.3788 60.26316 9.854235
v 104.3789 60.26315 9.854235
v -95.43778 55.23167 9.854235
v -99.84426 55.39519 9.854235
v -99.84428 -52.39153 9.854235
v 97.42741 59.04047 9.854235
v 92.30935 53.59523 9.854235
v 99.84427 54.85436 9.854235
v -104.3789 -60.26313 9.854235
v 104.3788 -60.26316 9.854235
v -92.99197 -53.72331 9.854235
v -95.29457 -60.27186 9.854235
v -2.233011 -114.001 9.854235
v 99.84426 -52.98063 9.854235
v 88.30855 -50.05755 9.854235
v 95.80469 -59.97737 9.854235
v -1.963623E-05 -120.5263 9.854235
v -1.776189E-05 -106.8779 9.854235
v 2.232974 -114.001 9.854235
v 9.034707E-06 119.9443 9.854235
v 6.563282 111.5009 9.854235
v 6.893114E-06 101.9221 9.854235
v -6.563266 111.5009 9.854235
vt 0.3830566 0.4597168
vt 0.3830566 0.4597168
vt 0.3808594 0.4597168
vt 0.3898926 0.4597168
vt 0.3874512 0.4597168
vt 0.3874512 0.4597168
vt 0.3874512 0.4555664
vt 0.3898926 0.4555664
vt 0.3874512 0.4555664
vt 0.3898926 0.4555664
vt 0.3830566 0.4597168
vt 0.3874512 0.4597168
vt 0.3830566 0.4597168
vt 0.3874512 0.4597168
vt 0.3808594 0.4645996
vt 0.3830566 0.4645996
vt 0.3808594 0.4645996
vt 0.3830566 0.4645996
vt 0.3830566 0.4555664
vt 0.3808594 0.4555664
vt 0.3830566 0.4555664
vt 0.3808594 0.4555664
vt 0.3874512 0.4597168
vt 0.3830566 0.4597168
vt 0.3874512 0.4597168
vt 0.3830566 0.4597168
vt 0.3898926 0.4645996
vt 0.3874512 0.4645996
vt 0.3898926 0.4645996
vt 0.3874512 0.4645996
vt 0.2294922 0.7763672
vt 0.2333984 0.7763672
vt 0.2298584 0.7763672
vt 0.2329102 0.7763672
vt 0.2225342 0.7763672
vt 0.2293701 0.7763672
vt 0.2225342 0.7763672
vt 0.2226563 0.7763672
vt 0.2194824 0.7763672
vt 0.22229 0.7763672
vt 0.2188721 0.7763672
vt 0.2188721 0.7763672
vt 0.22229 0.7763672
vt 0.229248 0.7763672
vt 0.2225342 0.7763672
vt 0.2294922 0.7763672
vt 0.2298584 0.7763672
vt 0.2333984 0.7763672
vt 0.3840332 0.4445801
vt 0.3862305 0.4445801
vt 0.3862305 0.4445801
vt 0.3840332 0.4445801
vt 0.3796387 0.4519043
vt 0.3840332 0.4519043
vt 0.3840332 0.4519043
vt 0.3796387 0.4519043
vt 0.3774414 0.4555664
vt 0.3796387 0.4555664
vt 0.3796387 0.4555664
vt 0.3774414 0.4555664
vt 0.3796387 0.4445801
vt 0.3774414 0.4445801
vt 0.3774414 0.4445801
vt 0.3796387 0.4445801
vt 0.3840332 0.4519043
vt 0.3796387 0.4519043
vt 0.3796387 0.4519043
vt 0.3840332 0.4519043
vt 0.3862305 0.4555664
vt 0.3840332 0.4555664
vt 0.3840332 0.4555664
vt 0.3862305 0.4555664
vt 0.3796387 0.4519043
vt 0.3774414 0.4519043
vt 0.3776855 0.4519043
vt 0.3774414 0.4519043
vt 0.3776855 0.4519043
vt 0.3796387 0.4519043
vt 0.3796387 0.4519043
vt 0.3798828 0.4519043
vt 0.3796387 0.4519043
vt 0.3837891 0.4519043
vt 0.3796387 0.4519043
vt 0.3798828 0.4519043
vt 0.3798828 0.4519043
vt 0.3840332 0.4519043
vt 0.3840332 0.4519043
vt 0.3837891 0.4519043
vt 0.3840332 0.4519043
vt 0.3859863 0.4519043
vt 0.3837891 0.4519043
vt 0.3835449 0.4519043
vt 0.3840332 0.4519043
vt 0.3862305 0.4519043
vt 0.3857422 0.4519043
vt 0.3859863 0.4519043
vt 0.3808594 0.4597168
vt 0.3811035 0.4597168
vt 0.3815918 0.4597168
vt 0.3811035 0.4597168
vn 0 0 -1
vn 0 0 -1
vn 0 0 -1
vn 0 0 -1
vn 0 0 -1
vn 0 0 -1
vn 0.8662109 -0.5 0
vn 0 -1 0
vn 0.8662109 -0.5 0
vn 0 -1 0
vn 0.8662109 0.5 0
vn 0.8662109 -0.5 0
vn 0.8662109 0.5 0
vn 0.8662109 -0.5 0
vn 0 1 0
vn 0.8662109 0.5 0
vn 0 1 0
vn 0.8662109 0.5 0
vn -0.8662109 0.5 0
vn 0 1 0
vn -0.8662109 0.5 0
vn 0 1 0
vn -0.8662109 -0.5 0
vn -0.8662109 0.5 0
vn -0.8662109 -0.5 0
vn -0.8662109 0.5 0
vn 0 -1 0
vn -0.8662109 -0.5 0
vn 0 -1 0
vn -0.8662109 -0.5 0
vn 0 0 1
vn 0 0 1
vn 0 0 1
vn 0 0 1
vn 0 0 1
vn 0 0 1
vn 0 0 1
vn 0 0 1
vn 0 0 1
vn 0 0 1
vn 0 0 1
vn 0 0 1
vn 0 0 1
vn 0 0 1
vn 0 0 1
vn 0 0 1
vn 0 0 1
vn 0 0 1
vn 0.8662109 -0.5 0
vn 0 -1 0
vn 0 -1 0
vn 0.8662109 -0.5 0
vn 0.8662109 0.5 0
vn 0.8662109 -0.5 0
vn 0.8662109 -0.5 0
vn 0.8662109 0.5 0
vn 0 1 0
vn 0.8662109 0.5 0
vn 0.8662109 0.5 0
vn 0 1 0
vn -0.8662109 0.5 0
vn 0 1 0
vn 0 1 0
vn -0.8662109 0.5 0
vn -0.8662109 -0.5 0
vn -0.8662109 0.5 0
vn -0.8662109 0.5 0
vn -0.8662109 -0.5 0
vn 0 -1 0
vn -0.8662109 -0.5 0
vn -0.8662109 -0.5 0
vn 0 -1 0
vn 0 0 1
vn 0 0 1
vn 0 0 1
vn 0 0 1
vn 0 0 1
vn 0 0 1
vn 0 0 1
vn 0 0 1
vn 0 0 1
vn 0 0 1
vn 0 0 1
vn 0 0 1
vn 0 0 1
vn 0 0 1
vn 0 0 1
vn 0 0 1
vn 0 0 1
vn 0 0 1
vn 0 0 1
vn 0 0 1
vn 0 0 1
vn 0 0 1
vn 0 0 1
vn 0 0 1
vn 0 0 1
vn 0 0 1
vn 0 0 1
vn 0 0 1
g Platform_0
f 3/3/3 2/2/2 1/1/1
f 2/2/2 4/4/4 1/1/1
f 1/1/1 4/4/4 5/5/5
f 6/6/6 4/4/4 2/2/2
f 9/9/9 8/8/8 7/7/7
f 10/10/10 7/7/7 8/8/8
f 13/13/13 12/12/12 11/11/11
f 14/14/14 11/11/11 12/12/12
f 17/17/17 16/16/16 15/15/15
f 18/18/18 15/15/15 16/16/16
f 21/21/21 20/20/20 19/19/19
f 22/22/22 19/19/19 20/20/20
f 25/25/25 24/24/24 23/23/23
f 26/26/26 23/23/23 24/24/24
f 29/29/29 28/28/28 27/27/27
f 30/30/30 27/27/27 28/28/28
f 33/33/33 32/32/32 31/31/31
f 32/32/32 34/34/34 31/31/31
f 34/34/34 35/35/35 31/31/31
f 31/31/31 35/35/35 36/36/36
f 35/35/35 37/37/37 36/36/36
f 38/38/38 35/35/35 34/34/34
f 39/39/39 35/35/35 38/38/38
f 40/40/40 35/35/35 39/39/39
f 41/41/41 40/40/40 39/39/39
f 42/42/42 39/39/39 38/38/38
f 43/43/43 42/42/42 38/38/38
f 44/44/44 38/38/38 34/34/34
f 45/45/45 38/38/38 44/44/44
f 46/46/46 45/45/45 44/44/44
f 47/47/47 44/44/44 34/34/34
f 48/48/48 47/47/47 34/34/34
f 51/51/51 50/50/50 49/49/49
f 52/52/52 49/49/49 50/50/50
f 55/55/55 54/54/54 53/53/53
f 56/56/56 53/53/53 54/54/54
f 59/59/59 58/58/58 57/57/57
f 60/60/60 57/57/57 58/58/58
f 63/63/63 62/62/62 61/61/61
f 64/64/64 61/61/61 62/62/62
f 67/67/67 66/66/66 65/65/65
f 68/68/68 65/65/65 66/66/66
f 71/71/71 70/70/70 69/69/69
f 72/72/72 69/69/69 70/70/70
f 75/75/75 74/74/74 73/73/73
f 73/73/73 74/74/74 76/76/76
f 74/74/74 77/77/77 76/76/76
f 78/78/78 73/73/73 76/76/76
f 76/76/76 77/77/77 79/79/79
f 80/80/80 73/73/73 78/78/78
f 81/81/81 80/80/80 78/78/78
f 81/81/81 78/78/78 82/82/82
f 77/77/77 83/83/83 79/79/79
f 83/83/83 84/84/84 79/79/79
f 84/84/84 85/85/85 79/79/79
f 86/86/86 82/82/82 78/78/78
f 79/79/79 85/85/85 87/87/87
f 88/88/88 82/82/82 86/86/86
f 89/89/89 88/88/88 86/86/86
f 89/89/89 86/86/86 90/90/90
f 91/91/91 87/87/87 85/85/85
f 91/91/91 92/92/92 87/87/87
f 92/92/92 93/93/93 87/87/87
f 94/94/94 90/90/90 86/86/86
f 87/87/87 93/93/93 94/94/94
f 95/95/95 90/90/90 94/94/94
f 96/96/96 94/94/94 93/93/93
f 96/96/96 95/95/95 94/94/94
f 99/99/99 98/98/98 97/97/97
f 100/100/100 99/99/99 97/97/97
