g Screen_01
v -0.2263809 0.750748 -0.2446269
v -0.3670099 0.8676568 -0.244627
v -0.2263809 0.8676568 -0.2446268
v -0.36701 0.750748 -0.244627
v -0.3754444 0.8806692 -0.2991467
v -0.2212439 0.8810356 -0.2991465
v -0.3721469 0.8810356 -0.2991467
v -0.3780091 0.8795701 -0.2991467
v -0.379841 0.8777381 -0.2991467
v -0.3809402 0.8751734 -0.2991467
v -0.3813066 0.871876 -0.2991467
v -0.372147 0.7373693 -0.2991467
v -0.3754444 0.7377356 -0.2991467
v -0.3780091 0.7388348 -0.2991467
v -0.3798411 0.7406667 -0.2991467
v -0.3809402 0.7432316 -0.2991467
v -0.3813066 0.7465289 -0.2991467
v -0.2120842 0.7465289 -0.2991465
v -0.2179464 0.8806692 -0.2991465
v -0.2153817 0.8795701 -0.2991465
v -0.2135498 0.8777381 -0.2991465
v -0.2124506 0.8751734 -0.2991465
v -0.2120842 0.871876 -0.2991465
v -0.2124506 0.7432316 -0.2991465
v -0.2135498 0.7406667 -0.2991465
v -0.2153817 0.7388348 -0.2991465
v -0.2179464 0.7377356 -0.2991466
v -0.2212439 0.7373693 -0.2991466
v -0.372147 0.7373693 -0.2991467
v -0.3754445 0.7377356 -0.244627
v -0.372147 0.7373693 -0.244627
v -0.3754444 0.7377356 -0.2991467
v -0.3780092 0.7388348 -0.244627
v -0.3780091 0.7388348 -0.2991467
v -0.3798411 0.7406667 -0.244627
v -0.3798411 0.7406667 -0.2991467
v -0.3809402 0.7432316 -0.244627
v -0.3809402 0.7432316 -0.2991467
v -0.3813067 0.7465289 -0.244627
v -0.3813066 0.7465289 -0.2991467
v -0.3813066 0.871876 -0.2991467
v -0.3813066 0.871876 -0.244627
v -0.3809402 0.8751734 -0.244627
v -0.3809402 0.8751734 -0.2991467
v -0.3798411 0.8777381 -0.244627
v -0.379841 0.8777381 -0.2991467
v -0.3780092 0.8795701 -0.244627
v -0.3780091 0.8795701 -0.2991467
v -0.3754444 0.8806692 -0.244627
v -0.3754444 0.8806692 -0.2991467
v -0.372147 0.8810356 -0.244627
v -0.3721469 0.8810356 -0.2991467
v -0.2212439 0.8810356 -0.2446268
v -0.2212439 0.8810356 -0.2991465
v -0.2179464 0.8806692 -0.2446268
v -0.2179464 0.8806692 -0.2991465
v -0.2153817 0.8795701 -0.2446268
v -0.2153817 0.8795701 -0.2991465
v -0.2135498 0.8777381 -0.2446268
v -0.2135498 0.8777381 -0.2991465
v -0.2124506 0.8751734 -0.2446268
v -0.2124506 0.8751734 -0.2991465
v -0.2120842 0.871876 -0.2446268
v -0.2120842 0.871876 -0.2991465
v -0.2120842 0.7465289 -0.2991465
v -0.2120842 0.7465289 -0.2446268
v -0.2124506 0.7432316 -0.2446268
v -0.2124506 0.7432316 -0.2991465
v -0.2135498 0.7406668 -0.2446268
v -0.2135498 0.7406667 -0.2991465
v -0.2153817 0.7388349 -0.2446268
v -0.2153817 0.7388348 -0.2991465
v -0.2179464 0.7377357 -0.2446268
v -0.2179464 0.7377356 -0.2991466
v -0.2212439 0.7373694 -0.2446269
v -0.2212439 0.7373693 -0.2991466
v -0.3813066 0.7606556 -0.2575925
v -0.5319661 0.7606556 -0.2884617
v -0.5319661 0.7606556 -0.2575926
v -0.3813066 0.7606556 -0.2884616
v -0.3813066 0.7606556 -0.2884616
v -0.5319661 0.8373383 -0.2884617
v -0.5319661 0.7606556 -0.2884617
v -0.3813066 0.8373382 -0.2884616
v -0.3813066 0.8373382 -0.2884616
v -0.5319661 0.8373383 -0.2575926
v -0.5319661 0.8373383 -0.2884617
v -0.3813066 0.8373382 -0.2575925
v -0.3813066 0.8373382 -0.2575925
v -0.5319661 0.7606556 -0.2575926
v -0.5319661 0.8373383 -0.2575926
v -0.3813066 0.7606556 -0.2575925
v -0.36701 0.750748 -0.244627
v -0.2212439 0.7373694 -0.2446269
v -0.372147 0.7373693 -0.244627
v -0.2263809 0.750748 -0.2446269
v -0.3754445 0.7377356 -0.244627
v -0.2179464 0.7377357 -0.2446268
v -0.3780092 0.7388348 -0.244627
v -0.2153817 0.7388349 -0.2446268
v -0.3798411 0.7406667 -0.244627
v -0.3809402 0.7432316 -0.244627
v -0.3813067 0.7465289 -0.244627
v -0.3670099 0.8676568 -0.244627
v -0.2135498 0.7406668 -0.2446268
v -0.3813066 0.871876 -0.244627
v -0.2124506 0.7432316 -0.2446268
v -0.2120842 0.7465289 -0.2446268
v -0.2120842 0.871876 -0.2446268
v -0.2263809 0.8676568 -0.2446268
v -0.3809402 0.8751734 -0.244627
v -0.2124506 0.8751734 -0.2446268
v -0.3798411 0.8777381 -0.244627
v -0.2135498 0.8777381 -0.2446268
v -0.3780092 0.8795701 -0.244627
v -0.3754444 0.8806692 -0.244627
v -0.372147 0.8810356 -0.244627
v -0.2153817 0.8795701 -0.2446268
v -0.2212439 0.8810356 -0.2446268
v -0.2179464 0.8806692 -0.2446268
vt 0.4824219 0.5351563
vt 0.4755859 0.5297852
vt 0.4824219 0.5297852
vt 0.4755859 0.5351563
vt 0.03610229 0.8598633
vt 0.03533936 0.8598633
vt 0.03607178 0.8598633
vt 0.03610229 0.8598633
vt 0.03613281 0.8598633
vt 0.03613281 0.8598633
vt 0.03613281 0.8598633
vt 0.03591919 0.8598633
vt 0.03601074 0.8598633
vt 0.03613281 0.8598633
vt 0.03622437 0.8598633
vt 0.03634644 0.8598633
vt 0.03646851 0.8598633
vt 0.03469849 0.8598633
vt 0.03536987 0.8598633
vt 0.03536987 0.8598633
vt 0.03540039 0.8598633
vt 0.03543091 0.8598633
vt 0.03546143 0.8598633
vt 0.03430176 0.8598633
vt 0.03393555 0.8598633
vt 0.03356934 0.8598633
vt 0.03317261 0.8598633
vt 0.03274536 0.8598633
vt 0.03591919 0.8598633
vt 0.03717041 0.8598633
vt 0.03729248 0.8598633
vt 0.03601074 0.8598633
vt 0.03704834 0.8598633
vt 0.03613281 0.8598633
vt 0.03692627 0.8598633
vt 0.03622437 0.8598633
vt 0.0368042 0.8598633
vt 0.03634644 0.8598633
vt 0.03668213 0.8598633
vt 0.03646851 0.8598633
vt 0.03613281 0.8598633
vt 0.03616333 0.8598633
vt 0.03619385 0.8598633
vt 0.03613281 0.8598633
vt 0.03619385 0.8598633
vt 0.03613281 0.8598633
vt 0.03619385 0.8598633
vt 0.03610229 0.8598633
vt 0.03619385 0.8598633
vt 0.03610229 0.8598633
vt 0.03619385 0.8598633
vt 0.03607178 0.8598633
vt 0.03543091 0.8598633
vt 0.03533936 0.8598633
vt 0.03546143 0.8598633
vt 0.03536987 0.8598633
vt 0.03546143 0.8598633
vt 0.03536987 0.8598633
vt 0.03546143 0.8598633
vt 0.03540039 0.8598633
vt 0.03546143 0.8598633
vt 0.03543091 0.8598633
vt 0.03546143 0.8598633
vt 0.03546143 0.8598633
vt 0.03469849 0.8598633
vt 0.03500366 0.8598633
vt 0.03500366 0.8598633
vt 0.03430176 0.8598633
vt 0.03500366 0.8598633
vt 0.03393555 0.8598633
vt 0.03503418 0.8598633
vt 0.03356934 0.8598633
vt 0.0350647 0.8598633
vt 0.03317261 0.8598633
vt 0.03512573 0.8598633
vt 0.03274536 0.8598633
vt 0.02597046 0.8598633
vt 0.02841187 0.8598633
vt 0.02780151 0.8598633
vt 0.02537537 0.8598633
vt 0.02537537 0.8598633
vt 0.02780151 0.8598633
vt 0.02841187 0.8598633
vt 0.02597046 0.8598633
vt 0.02597046 0.8598633
vt 0.02760315 0.8598633
vt 0.02780151 0.8598633
vt 0.02616882 0.8598633
vt 0.6992188 0.5571289
vt 0.6958008 0.5791016
vt 0.6958008 0.5571289
vt 0.6992188 0.5791016
vt 0.7016602 0.5839844
vt 0.6982422 0.5830078
vt 0.7016602 0.5830078
vt 0.6982422 0.5839844
vt 0.7021484 0.5830078
vt 0.6977539 0.5830078
vt 0.7021484 0.5834961
vt 0.6977539 0.5834961
vt 0.7021484 0.5834961
vt 0.7021484 0.5839844
vt 0.7021484 0.5839844
vt 0.7016602 0.6220703
vt 0.6977539 0.5834961
vt 0.7021484 0.6220703
vt 0.6977539 0.5839844
vt 0.6977539 0.5839844
vt 0.6977539 0.6220703
vt 0.6982422 0.6220703
vt 0.7021484 0.6225586
vt 0.6977539 0.6225586
vt 0.7021484 0.6225586
vt 0.6977539 0.6225586
vt 0.7021484 0.6230469
vt 0.7021484 0.6230469
vt 0.7016602 0.6230469
vt 0.6977539 0.6230469
vt 0.6982422 0.6230469
vt 0.6977539 0.6230469
vn -1.847744E-06 -2.384186E-07 1
vn -5.364418E-07 -2.384186E-07 1
vn -1.192093E-06 0 1
vn -4.172325E-07 0 1
vn 1.013279E-06 -2.563E-06 -1
vn 4.768372E-07 0 -1
vn 1.013279E-06 -9.119511E-06 -1
vn 1.132488E-06 -1.91927E-05 -1
vn 8.34465E-07 -6.318092E-06 -1
vn 7.152557E-07 -1.788139E-07 -1
vn 7.152557E-07 1.192093E-07 -1
vn 4.768372E-07 2.980232E-07 -1
vn 0 2.980232E-07 -1
vn 1.788139E-07 2.980232E-07 -1
vn 3.576279E-07 2.980232E-07 -1
vn 7.748604E-07 2.980232E-07 -1
vn 2.741814E-06 2.980232E-07 -1
vn 1.013279E-06 0 -1
vn 5.960464E-06 2.384186E-07 -1
vn 1.108646E-05 5.364418E-07 -1
vn 3.576279E-07 2.980232E-07 -1
vn 7.748604E-07 2.980232E-07 -1
vn 2.741814E-06 2.980232E-07 -1
vn 9.536743E-07 -2.384186E-07 -1
vn 9.536743E-07 -5.960464E-07 -1
vn 9.536743E-07 3.933907E-06 -1
vn 6.556511E-07 3.165007E-05 -1
vn 7.748604E-07 -6.854534E-06 -1
vn -0.1104126 -0.9936523 -1.192093E-07
vn -0.2548828 -0.9667969 -2.980232E-07
vn -0.1104126 -0.9936523 0
vn -0.2548828 -0.9667969 -3.576279E-07
vn -0.5605469 -0.828125 -7.748604E-07
vn -0.5605469 -0.828125 -2.980232E-07
vn -0.828125 -0.5605469 -4.768372E-07
vn -0.828125 -0.5605469 0
vn -0.9667969 -0.2548828 0
vn -0.9667969 -0.2548828 -6.556511E-07
vn -0.9985352 -0.05529785 -5.364418E-07
vn -0.9985352 -0.05529785 -1.370907E-06
vn -0.9985352 0.05529785 -1.788139E-07
vn -0.9985352 0.05529785 0
vn -0.9667969 0.2548828 0
vn -0.9667969 0.2548828 -6.556511E-07
vn -0.828125 0.5605469 -5.364418E-07
vn -0.828125 0.5605469 -1.132488E-06
vn -0.5605469 0.828125 -7.748604E-07
vn -0.5605469 0.828125 -5.364418E-07
vn -0.2548828 0.9667969 -2.980232E-07
vn -0.2548828 0.9667969 0
vn -0.05529785 0.9985352 0
vn -0.05529785 0.9985352 0
vn 0.05529785 0.9985352 0
vn 0.05529785 0.9985352 0
vn 0.2548828 0.9667969 0
vn 0.2548828 0.9667969 0
vn 0.5605469 0.828125 0
vn 0.5605469 0.828125 0
vn 0.828125 0.5605469 0
vn 0.828125 0.5605469 0
vn 0.9667969 0.2548828 0
vn 0.9667969 0.2548828 0
vn 0.9985352 0.05529785 0
vn 0.9985352 0.05529785 0
vn 0.9985352 -0.05529785 0
vn 0.9985352 -0.05529785 0
vn 0.9667969 -0.2548828 0
vn 0.9667969 -0.2548828 2.980232E-07
vn 0.828125 -0.5605469 5.364418E-07
vn 0.828125 -0.5605469 7.748604E-07
vn 0.5605469 -0.828125 1.132488E-06
vn 0.5605469 -0.828125 1.132488E-06
vn 0.2548828 -0.9667969 1.370907E-06
vn 0.2548828 -0.9667969 1.370907E-06
vn 0.1104126 -0.9936523 1.370907E-06
vn 0.1104126 -0.9936523 1.490116E-06
vn 0 -1 0
vn 0 -1 0
vn 0 -1 0
vn 0 -1 0
vn 1.013279E-06 4.768372E-07 -1
vn 1.013279E-06 4.768372E-07 -1
vn 1.013279E-06 4.768372E-07 -1
vn 1.013279E-06 4.768372E-07 -1
vn 4.768372E-07 1 0
vn 4.768372E-07 1 0
vn 4.768372E-07 1 0
vn 4.768372E-07 1 0
vn -7.748604E-07 -4.768372E-07 1
vn -7.748604E-07 -4.768372E-07 1
vn -7.748604E-07 -4.768372E-07 1
vn -1.013279E-06 0 1
vn -4.172325E-07 0 1
vn -7.033348E-06 -2.682209E-06 1
vn -2.980232E-07 1.192093E-07 1
vn -1.847744E-06 -2.384186E-07 1
vn 0 0 1
vn -4.887581E-06 -2.384186E-07 1
vn 0 0 1
vn -1.370907E-06 1.966953E-06 1
vn 0 0 1
vn 0 0 1
vn 0 0 1
vn -5.364418E-07 -2.384186E-07 1
vn -1.907349E-06 1.311302E-06 1
vn 0 0 1
vn -2.384186E-06 6.556511E-07 1
vn -2.622604E-06 1.192093E-07 1
vn -1.311302E-06 -2.384186E-07 1
vn -1.192093E-06 0 1
vn 0 0 1
vn -1.192093E-06 -3.576279E-07 1
vn 0 0 1
vn -9.536743E-07 -6.556511E-07 1
vn 0 0 1
vn 0 0 1
vn -3.576279E-07 -1.192093E-07 1
vn -6.556511E-07 -9.536743E-07 1
vn -3.695488E-06 1.430511E-06 1
vn -2.44379E-06 1.192093E-07 1
g Screen_01_0
f 3/3/3 2/2/2 1/1/1
f 4/4/4 1/1/1 2/2/2
f 7/7/7 6/6/6 5/5/5
f 5/5/5 6/6/6 8/8/8
f 8/8/8 6/6/6 9/9/9
f 9/9/9 6/6/6 10/10/10
f 10/10/10 6/6/6 11/11/11
f 6/6/6 12/12/12 11/11/11
f 12/12/12 13/13/13 11/11/11
f 13/13/13 14/14/14 11/11/11
f 14/14/14 15/15/15 11/11/11
f 15/15/15 16/16/16 11/11/11
f 11/11/11 16/16/16 17/17/17
f 18/18/18 12/12/12 6/6/6
f 19/19/19 18/18/18 6/6/6
f 20/20/20 18/18/18 19/19/19
f 21/21/21 18/18/18 20/20/20
f 22/22/22 18/18/18 21/21/21
f 23/23/23 18/18/18 22/22/22
f 24/24/24 12/12/12 18/18/18
f 25/25/25 12/12/12 24/24/24
f 26/26/26 12/12/12 25/25/25
f 27/27/27 12/12/12 26/26/26
f 28/28/28 12/12/12 27/27/27
f 31/31/31 30/30/30 29/29/29
f 32/32/32 29/29/29 30/30/30
f 30/30/30 33/33/33 32/32/32
f 34/34/34 32/32/32 33/33/33
f 33/33/33 35/35/35 34/34/34
f 36/36/36 34/34/34 35/35/35
f 35/35/35 37/37/37 36/36/36
f 38/38/38 36/36/36 37/37/37
f 37/37/37 39/39/39 38/38/38
f 40/40/40 38/38/38 39/39/39
f 40/40/40 39/39/39 41/41/41
f 42/42/42 41/41/41 39/39/39
f 42/42/42 43/43/43 41/41/41
f 44/44/44 41/41/41 43/43/43
f 43/43/43 45/45/45 44/44/44
f 46/46/46 44/44/44 45/45/45
f 45/45/45 47/47/47 46/46/46
f 48/48/48 46/46/46 47/47/47
f 47/47/47 49/49/49 48/48/48
f 50/50/50 48/48/48 49/49/49
f 49/49/49 51/51/51 50/50/50
f 52/52/52 50/50/50 51/51/51
f 51/51/51 53/53/53 52/52/52
f 54/54/54 52/52/52 53/53/53
f 53/53/53 55/55/55 54/54/54
f 56/56/56 54/54/54 55/55/55
f 55/55/55 57/57/57 56/56/56
f 58/58/58 56/56/56 57/57/57
f 57/57/57 59/59/59 58/58/58
f 60/60/60 58/58/58 59/59/59
f 59/59/59 61/61/61 60/60/60
f 62/62/62 60/60/60 61/61/61
f 61/61/61 63/63/63 62/62/62
f 64/64/64 62/62/62 63/63/63
f 64/64/64 63/63/63 65/65/65
f 66/66/66 65/65/65 63/63/63
f 66/66/66 67/67/67 65/65/65
f 68/68/68 65/65/65 67/67/67
f 67/67/67 69/69/69 68/68/68
f 70/70/70 68/68/68 69/69/69
f 69/69/69 71/71/71 70/70/70
f 72/72/72 70/70/70 71/71/71
f 71/71/71 73/73/73 72/72/72
f 74/74/74 72/72/72 73/73/73
f 73/73/73 75/75/75 74/74/74
f 76/76/76 74/74/74 75/75/75
f 79/79/79 78/78/78 77/77/77
f 80/80/80 77/77/77 78/78/78
f 83/83/83 82/82/82 81/81/81
f 84/84/84 81/81/81 82/82/82
f 87/87/87 86/86/86 85/85/85
f 88/88/88 85/85/85 86/86/86
f 91/91/91 90/90/90 89/89/89
f 92/92/92 89/89/89 90/90/90
f 95/95/95 94/94/94 93/93/93
f 96/96/96 93/93/93 94/94/94
f 93/93/93 97/97/97 95/95/95
f 96/96/96 94/94/94 98/98/98
f 93/93/93 99/99/99 97/97/97
f 96/96/96 98/98/98 100/100/100
f 93/93/93 101/101/101 99/99/99
f 93/93/93 102/102/102 101/101/101
f 93/93/93 103/103/103 102/102/102
f 93/93/93 104/104/104 103/103/103
f 96/96/96 100/100/100 105/105/105
f 106/106/106 103/103/103 104/104/104
f 96/96/96 105/105/105 107/107/107
f 96/96/96 107/107/107 108/108/108
f 108/108/108 109/109/109 96/96/96
f 110/110/110 96/96/96 109/109/109
f 104/104/104 111/111/111 106/106/106
f 110/110/110 109/109/109 112/112/112
f 104/104/104 113/113/113 111/111/111
f 110/110/110 112/112/112 114/114/114
f 104/104/104 115/115/115 113/113/113
f 104/104/104 116/116/116 115/115/115
f 104/104/104 117/117/117 116/116/116
f 104/104/104 110/110/110 117/117/117
f 110/110/110 114/114/114 118/118/118
f 119/119/119 117/117/117 110/110/110
f 110/110/110 118/118/118 120/120/120
f 110/110/110 120/120/120 119/119/119
