g SubmarinePropeller
v -0.4485711 0.4880503 0.2254025
v 1.303839 2.647739 0.2254036
v 0.4485712 0.4880503 0.2254031
v -1.303839 2.647739 0.225403
v 0.6300638 7.058092 0.2254044
v -0.6300638 7.058092 0.2254038
v -0.488051 -0.4485707 0.2254022
v -2.64774 1.303839 0.2254026
v -0.488051 0.4485714 0.2254027
v -2.64774 -1.303838 0.2254021
v -7.058093 0.6300645 0.2254021
v -7.058093 -0.630063 0.2254016
v 0.488051 0.4485714 0.2254025
v 2.64774 -1.303838 0.2254031
v 0.488051 -0.4485707 0.2254029
v 2.64774 1.303839 0.2254035
v 7.058093 -0.630063 0.2254045
v 7.058093 0.6300645 0.2254041
v 0.4485712 -0.4880503 0.2254022
v -1.303839 -2.647739 0.2254022
v -0.4485712 -0.4880503 0.2254024
v 1.303838 -2.647739 0.2254025
v -0.6300644 -7.058093 0.2254021
v 0.6300632 -7.058093 0.2254021
v -0.4485711 0.4880503 0.2254025
v -0.4485711 0.4880503 -0.225403
v -1.303839 2.647739 -0.2254025
v -1.303839 2.647739 0.225403
v 1.303839 2.647739 0.2254036
v 1.303839 2.647739 -0.225402
v 0.4485714 0.4880503 -0.2254025
v 0.4485712 0.4880503 0.2254031
v 0.4485712 0.4880503 0.2254031
v 0.4485714 0.4880503 -0.2254025
v -0.4485711 0.4880503 -0.225403
v -0.4485711 0.4880503 0.2254025
v -1.303839 2.647739 0.225403
v -1.303839 2.647739 -0.2254025
v -0.6300638 7.058092 -0.2254016
v -0.6300638 7.058092 0.2254038
v -0.6300638 7.058092 0.2254038
v -0.6300638 7.058092 -0.2254016
v 0.6300638 7.058092 -0.2254009
v 0.6300638 7.058092 0.2254044
v 0.6300638 7.058092 0.2254044
v 0.6300638 7.058092 -0.2254009
v 1.303839 2.647739 -0.225402
v 1.303839 2.647739 0.2254036
v -0.488051 -0.4485707 0.2254022
v -0.4880506 -0.4485706 -0.2254034
v -2.64774 -1.303838 -0.2254035
v -2.64774 -1.303838 0.2254021
v -2.64774 1.303839 0.2254026
v -2.64774 1.303839 -0.2254031
v -0.4880506 0.4485715 -0.225403
v -0.488051 0.4485714 0.2254027
v -0.488051 0.4485714 0.2254027
v -0.4880506 0.4485715 -0.225403
v -0.4880506 -0.4485706 -0.2254034
v -0.488051 -0.4485707 0.2254022
v -2.64774 -1.303838 0.2254021
v -2.64774 -1.303838 -0.2254035
v -7.058093 -0.6300629 -0.2254039
v -7.058093 -0.630063 0.2254016
v -7.058093 -0.630063 0.2254016
v -7.058093 -0.6300629 -0.2254039
v -7.058093 0.6300646 -0.2254034
v -7.058093 0.6300645 0.2254021
v -7.058093 0.6300645 0.2254021
v -7.058093 0.6300646 -0.2254034
v -2.64774 1.303839 -0.2254031
v -2.64774 1.303839 0.2254026
v 0.488051 0.4485714 0.2254025
v 0.4880511 0.4485715 -0.2254032
v 2.64774 1.303839 -0.2254021
v 2.64774 1.303839 0.2254035
v 2.64774 -1.303838 0.2254031
v 2.64774 -1.303838 -0.2254026
v 0.4880511 -0.4485706 -0.225403
v 0.488051 -0.4485707 0.2254029
v 0.488051 -0.4485707 0.2254029
v 0.4880511 -0.4485706 -0.225403
v 0.4880511 0.4485715 -0.2254032
v 0.488051 0.4485714 0.2254025
v 2.64774 1.303839 0.2254035
v 2.64774 1.303839 -0.2254021
v 7.058093 0.6300646 -0.2254015
v 7.058093 0.6300645 0.2254041
v 7.058093 0.6300645 0.2254041
v 7.058093 0.6300646 -0.2254015
v 7.058093 -0.6300629 -0.2254013
v 7.058093 -0.630063 0.2254045
v 7.058093 -0.630063 0.2254045
v 7.058093 -0.6300629 -0.2254013
v 2.64774 -1.303838 -0.2254026
v 2.64774 -1.303838 0.2254031
v 0.4485712 -0.4880503 0.2254022
v 0.4485713 -0.4880502 -0.2254034
v 1.303838 -2.647739 -0.2254032
v 1.303838 -2.647739 0.2254025
v -1.303839 -2.647739 0.2254022
v -1.303839 -2.647739 -0.2254037
v -0.4485711 -0.4880502 -0.2254032
v -0.4485712 -0.4880503 0.2254024
v -0.4485712 -0.4880503 0.2254024
v -0.4485711 -0.4880502 -0.2254032
v 0.4485713 -0.4880502 -0.2254034
v 0.4485712 -0.4880503 0.2254022
v 1.303838 -2.647739 0.2254025
v 1.303838 -2.647739 -0.2254032
v 0.6300632 -7.058093 -0.2254038
v 0.6300632 -7.058093 0.2254021
v 0.6300632 -7.058093 0.2254021
v 0.6300632 -7.058093 -0.2254038
v -0.6300644 -7.058093 -0.2254038
v -0.6300644 -7.058093 0.2254021
v -0.6300644 -7.058093 0.2254021
v -0.6300644 -7.058093 -0.2254038
v -1.303839 -2.647739 -0.2254037
v -1.303839 -2.647739 0.2254022
v 1.303839 2.647739 -0.225402
v -0.4485711 0.4880503 -0.225403
v 0.4485714 0.4880503 -0.2254025
v -1.303839 2.647739 -0.2254025
v -0.6300638 7.058092 -0.2254016
v 0.6300638 7.058092 -0.2254009
v -2.64774 1.303839 -0.2254031
v -0.4880506 -0.4485706 -0.2254034
v -0.4880506 0.4485715 -0.225403
v -2.64774 -1.303838 -0.2254035
v -7.058093 -0.6300629 -0.2254039
v -7.058093 0.6300646 -0.2254034
v 2.64774 -1.303838 -0.2254026
v 0.4880511 0.4485715 -0.2254032
v 0.4880511 -0.4485706 -0.225403
v 2.64774 1.303839 -0.2254021
v 7.058093 0.6300646 -0.2254015
v 7.058093 -0.6300629 -0.2254013
v -1.303839 -2.647739 -0.2254037
v 0.4485713 -0.4880502 -0.2254034
v -0.4485711 -0.4880502 -0.2254032
v 1.303838 -2.647739 -0.2254032
v 0.6300632 -7.058093 -0.2254038
v -0.6300644 -7.058093 -0.2254038
vt 0.8764648 0.7807617
vt 0.878418 0.7807617
vt 0.8774414 0.7807617
vt 0.8754883 0.7807617
vt 0.8774414 0.7807617
vt 0.8759766 0.7807617
vt 0.8862305 0.7807617
vt 0.8842773 0.7807617
vt 0.8862305 0.7807617
vt 0.8842773 0.7807617
vt 0.8793945 0.7807617
vt 0.8793945 0.7807617
vt 0.8720703 0.7807617
vt 0.8745117 0.7807617
vt 0.8720703 0.7807617
vt 0.8745117 0.7807617
vt 0.8793945 0.7807617
vt 0.8793945 0.7807617
vt 0.8535156 0.7807617
vt 0.8515625 0.7807617
vt 0.8525391 0.7807617
vt 0.8544922 0.7807617
vt 0.8525391 0.7807617
vt 0.8540039 0.7807617
vt 0.8764648 0.7661133
vt 0.8764648 0.7661133
vt 0.8754883 0.7661133
vt 0.8754883 0.7661133
vt 0.878418 0.7661133
vt 0.878418 0.7661133
vt 0.8774414 0.7661133
vt 0.8774414 0.7661133
vt 0.8774414 0.7661133
vt 0.8774414 0.7661133
vt 0.8764648 0.7661133
vt 0.8764648 0.7661133
vt 0.8754883 0.7661133
vt 0.8754883 0.7661133
vt 0.8759766 0.7661133
vt 0.8759766 0.7661133
vt 0.8759766 0.7998047
vt 0.8759766 0.7998047
vt 0.8774414 0.7998047
vt 0.8774414 0.7998047
vt 0.8774414 0.7661133
vt 0.8774414 0.7661133
vt 0.878418 0.7661133
vt 0.878418 0.7661133
vt 0.8862305 0.7661133
vt 0.8862305 0.7661133
vt 0.8842773 0.7661133
vt 0.8842773 0.7661133
vt 0.8842773 0.7661133
vt 0.8842773 0.7661133
vt 0.8862305 0.7661133
vt 0.8862305 0.7661133
vt 0.8862305 0.7661133
vt 0.8862305 0.7661133
vt 0.8862305 0.7661133
vt 0.8862305 0.7661133
vt 0.8842773 0.7661133
vt 0.8842773 0.7661133
vt 0.8793945 0.7661133
vt 0.8793945 0.7661133
vt 0.8793945 0.7998047
vt 0.8793945 0.7998047
vt 0.8793945 0.7998047
vt 0.8793945 0.7998047
vt 0.8793945 0.7661133
vt 0.8793945 0.7661133
vt 0.8842773 0.7661133
vt 0.8842773 0.7661133
vt 0.8720703 0.7661133
vt 0.8720703 0.7661133
vt 0.8745117 0.7661133
vt 0.8745117 0.7661133
vt 0.8745117 0.7661133
vt 0.8745117 0.7661133
vt 0.8720703 0.7661133
vt 0.8720703 0.7661133
vt 0.8720703 0.7661133
vt 0.8720703 0.7661133
vt 0.8720703 0.7661133
vt 0.8720703 0.7661133
vt 0.8745117 0.7661133
vt 0.8745117 0.7661133
vt 0.8793945 0.7661133
vt 0.8793945 0.7661133
vt 0.8793945 0.7998047
vt 0.8793945 0.7998047
vt 0.8793945 0.7998047
vt 0.8793945 0.7998047
vt 0.8793945 0.7661133
vt 0.8793945 0.7661133
vt 0.8745117 0.7661133
vt 0.8745117 0.7661133
vt 0.8535156 0.7661133
vt 0.8535156 0.7661133
vt 0.8544922 0.7661133
vt 0.8544922 0.7661133
vt 0.8515625 0.7661133
vt 0.8515625 0.7661133
vt 0.8525391 0.7661133
vt 0.8525391 0.7661133
vt 0.8525391 0.7661133
vt 0.8525391 0.7661133
vt 0.8535156 0.7661133
vt 0.8535156 0.7661133
vt 0.8544922 0.7661133
vt 0.8544922 0.7661133
vt 0.8540039 0.7661133
vt 0.8540039 0.7661133
vt 0.8540039 0.7998047
vt 0.8540039 0.7998047
vt 0.8525391 0.7998047
vt 0.8525391 0.7998047
vt 0.8525391 0.7661133
vt 0.8525391 0.7661133
vt 0.8515625 0.7661133
vt 0.8515625 0.7661133
vt 0.878418 0.7807617
vt 0.8764648 0.7807617
vt 0.8774414 0.7807617
vt 0.8754883 0.7807617
vt 0.8759766 0.7807617
vt 0.8774414 0.7807617
vt 0.8842773 0.7807617
vt 0.8862305 0.7807617
vt 0.8862305 0.7807617
vt 0.8842773 0.7807617
vt 0.8793945 0.7807617
vt 0.8793945 0.7807617
vt 0.8745117 0.7807617
vt 0.8720703 0.7807617
vt 0.8720703 0.7807617
vt 0.8745117 0.7807617
vt 0.8793945 0.7807617
vt 0.8793945 0.7807617
vt 0.8515625 0.7807617
vt 0.8535156 0.7807617
vt 0.8525391 0.7807617
vt 0.8544922 0.7807617
vt 0.8540039 0.7807617
vt 0.8525391 0.7807617
vn 0 0 1
vn 0 0 1
vn 0 0 1
vn 0 0 1
vn 0 0 1
vn 0 0 1
vn 0 0 1
vn 0 0 1
vn 0 0 1
vn 0 0 1
vn 0 0 1
vn 0 0 1
vn 0 0 1
vn 0 0 1
vn 0 0 1
vn 0 0 1
vn 0 0 1
vn 0 0 1
vn 0 0 1
vn 0 0 1
vn 0 0 1
vn 0 0 1
vn 0 0 1
vn 0 0 1
vn -0.9296875 -0.3681641 0
vn -0.9296875 -0.3681641 0
vn -0.9296875 -0.3681641 0
vn -0.9296875 -0.3681641 0
vn 0.9296875 -0.3681641 0
vn 0.9296875 -0.3681641 0
vn 0.9296875 -0.3681641 0
vn 0.9296875 -0.3681641 0
vn 0 -1 0
vn 0 -1 0
vn 0 -1 0
vn 0 -1 0
vn -0.9887695 0.151001 0
vn -0.9887695 0.151001 0
vn -0.9887695 0.151001 0
vn -0.9887695 0.151001 0
vn 0 1 0
vn 0 1 0
vn 0 1 0
vn 0 1 0
vn 0.9887695 0.151001 0
vn 0.9887695 0.151001 0
vn 0.9887695 0.151001 0
vn 0.9887695 0.151001 0
vn 0.3681641 -0.9296875 0
vn 0.3681641 -0.9296875 0
vn 0.3681641 -0.9296875 0
vn 0.3681641 -0.9296875 0
vn 0.3681641 0.9296875 0
vn 0.3681641 0.9296875 0
vn 0.3681641 0.9296875 0
vn 0.3681641 0.9296875 0
vn 1 0 0
vn 1 0 0
vn 1 0 0
vn 1 0 0
vn -0.151001 -0.9887695 0
vn -0.151001 -0.9887695 0
vn -0.151001 -0.9887695 0
vn -0.151001 -0.9887695 0
vn -1 0 0
vn -1 0 0
vn -1 0 0
vn -1 0 0
vn -0.151001 0.9887695 0
vn -0.151001 0.9887695 0
vn -0.151001 0.9887695 0
vn -0.151001 0.9887695 0
vn -0.3681641 0.9296875 0
vn -0.3681641 0.9296875 0
vn -0.3681641 0.9296875 0
vn -0.3681641 0.9296875 0
vn -0.3681641 -0.9296875 0
vn -0.3681641 -0.9296875 0
vn -0.3681641 -0.9296875 0
vn -0.3681641 -0.9296875 0
vn -1 0 0
vn -1 0 0
vn -1 0 0
vn -1 0 0
vn 0.151001 0.9887695 0
vn 0.151001 0.9887695 0
vn 0.151001 0.9887695 0
vn 0.151001 0.9887695 0
vn 1 0 0
vn 1 0 0
vn 1 0 0
vn 1 0 0
vn 0.151001 -0.9887695 0
vn 0.151001 -0.9887695 0
vn 0.151001 -0.9887695 0
vn 0.151001 -0.9887695 0
vn 0.9296875 0.3681641 0
vn 0.9296875 0.3681641 0
vn 0.9296875 0.3681641 0
vn 0.9296875 0.3681641 0
vn -0.9296875 0.3681641 0
vn -0.9296875 0.3681641 0
vn -0.9296875 0.3681641 0
vn -0.9296875 0.3681641 0
vn 0 1 0
vn 0 1 0
vn 0 1 0
vn 0 1 0
vn 0.9887695 -0.151001 0
vn 0.9887695 -0.151001 0
vn 0.9887695 -0.151001 0
vn 0.9887695 -0.151001 0
vn 0 -1 0
vn 0 -1 0
vn 0 -1 0
vn 0 -1 0
vn -0.9887695 -0.151001 0
vn -0.9887695 -0.151001 0
vn -0.9887695 -0.151001 0
vn -0.9887695 -0.151001 0
vn 0 0 -1
vn 0 0 -1
vn 0 0 -1
vn 0 0 -1
vn 0 0 -1
vn 0 0 -1
vn 0 0 -1
vn 0 0 -1
vn 0 0 -1
vn 0 0 -1
vn 0 0 -1
vn 0 0 -1
vn 0 0 -1
vn 0 0 -1
vn 0 0 -1
vn 0 0 -1
vn 0 0 -1
vn 0 0 -1
vn 0 0 -1
vn 0 0 -1
vn 0 0 -1
vn 0 0 -1
vn 0 0 -1
vn 0 0 -1
g SubmarinePropeller_0
f 3/3/3 2/2/2 1/1/1
f 2/2/2 4/4/4 1/1/1
f 2/2/2 5/5/5 4/4/4
f 5/5/5 6/6/6 4/4/4
f 9/9/9 8/8/8 7/7/7
f 8/8/8 10/10/10 7/7/7
f 8/8/8 11/11/11 10/10/10
f 11/11/11 12/12/12 10/10/10
f 15/15/15 14/14/14 13/13/13
f 14/14/14 16/16/16 13/13/13
f 14/14/14 17/17/17 16/16/16
f 17/17/17 18/18/18 16/16/16
f 21/21/21 20/20/20 19/19/19
f 20/20/20 22/22/22 19/19/19
f 20/20/20 23/23/23 22/22/22
f 23/23/23 24/24/24 22/22/22
f 27/27/27 26/26/26 25/25/25
f 28/28/28 27/27/27 25/25/25
f 31/31/31 30/30/30 29/29/29
f 32/32/32 31/31/31 29/29/29
f 35/35/35 34/34/34 33/33/33
f 36/36/36 35/35/35 33/33/33
f 39/39/39 38/38/38 37/37/37
f 40/40/40 39/39/39 37/37/37
f 43/43/43 42/42/42 41/41/41
f 44/44/44 43/43/43 41/41/41
f 47/47/47 46/46/46 45/45/45
f 48/48/48 47/47/47 45/45/45
f 51/51/51 50/50/50 49/49/49
f 52/52/52 51/51/51 49/49/49
f 55/55/55 54/54/54 53/53/53
f 56/56/56 55/55/55 53/53/53
f 59/59/59 58/58/58 57/57/57
f 60/60/60 59/59/59 57/57/57
f 63/63/63 62/62/62 61/61/61
f 64/64/64 63/63/63 61/61/61
f 67/67/67 66/66/66 65/65/65
f 68/68/68 67/67/67 65/65/65
f 71/71/71 70/70/70 69/69/69
f 72/72/72 71/71/71 69/69/69
f 75/75/75 74/74/74 73/73/73
f 76/76/76 75/75/75 73/73/73
f 79/79/79 78/78/78 77/77/77
f 80/80/80 79/79/79 77/77/77
f 83/83/83 82/82/82 81/81/81
f 84/84/84 83/83/83 81/81/81
f 87/87/87 86/86/86 85/85/85
f 88/88/88 87/87/87 85/85/85
f 91/91/91 90/90/90 89/89/89
f 92/92/92 91/91/91 89/89/89
f 95/95/95 94/94/94 93/93/93
f 96/96/96 95/95/95 93/93/93
f 99/99/99 98/98/98 97/97/97
f 100/100/100 99/99/99 97/97/97
f 103/103/103 102/102/102 101/101/101
f 104/104/104 103/103/103 101/101/101
f 107/107/107 106/106/106 105/105/105
f 108/108/108 107/107/107 105/105/105
f 111/111/111 110/110/110 109/109/109
f 112/112/112 111/111/111 109/109/109
f 115/115/115 114/114/114 113/113/113
f 116/116/116 115/115/115 113/113/113
f 119/119/119 118/118/118 117/117/117
f 120/120/120 119/119/119 117/117/117
f 123/123/123 122/122/122 121/121/121
f 122/122/122 124/124/124 121/121/121
f 121/121/121 124/124/124 125/125/125
f 126/126/126 121/121/121 125/125/125
f 129/129/129 128/128/128 127/127/127
f 128/128/128 130/130/130 127/127/127
f 127/127/127 130/130/130 131/131/131
f 132/132/132 127/127/127 131/131/131
f 135/135/135 134/134/134 133/133/133
f 134/134/134 136/136/136 133/133/133
f 133/133/133 136/136/136 137/137/137
f 138/138/138 133/133/133 137/137/137
f 141/141/141 140/140/140 139/139/139
f 140/140/140 142/142/142 139/139/139
f 139/139/139 142/142/142 143/143/143
f 144/144/144 139/139/139 143/143/143
