g SWS_Circle_LP
v 233.696 3.71802E-06 -85.05839
v 281.9078 4.485053E-06 -102.6061
v 287.9385 2.990036E-06 -68.40404
v 264.543 5.799749E-06 -132.6828
v 238.1796 2.606519E-06 -59.63021
v 293.9692 1.495018E-06 -34.20203
v 186.6456 3.037401E-06 -69.48763
v 220.7858 4.695458E-06 -107.4196
v 244.2104 1.111502E-06 -25.4282
v 199.5065 -8.820904E-08 2.017988
v 247.1782 7.114445E-06 -162.7595
v 248.694 8.690378E-13 -1.988127E-05
v 300 4.168643E-13 -9.536742E-06
v 293.9692 -1.49502E-06 34.20207
v 244.2104 -1.111503E-06 25.42822
v 287.9385 -2.99004E-06 68.40415
v 203.4209 6.010154E-06 -137.4963
v 152.255 5.836007E-06 -133.5123
v 190.5107 6.987592E-06 -159.8575
v 229.8133 8.429141E-06 -192.8363
v 203.2089 9.404946E-06 -215.1601
v 238.1796 -2.606523E-06 59.63029
v 170.7311 7.713073E-06 -176.4545
v 144.1266 8.688876E-06 -198.7783
v 176.6044 1.038075E-05 -237.4838
v 233.6959 -3.718027E-06 85.05853
v 281.9077 -4.485061E-06 102.6062
v 264.5429 -5.799756E-06 132.683
v 124.347 9.414356E-06 -215.3754
v 150 1.135655E-05 -259.8076
v 117.3648 1.187577E-05 -271.6859
v 188.7625 -3.083553E-06 70.54347
v 220.7857 -4.695464E-06 107.4197
v 247.178 -7.114453E-06 162.7597
v 99.80247 7.804052E-06 -178.5359
v 100.0837 9.800377E-06 -224.2065
v 35.9418 8.629576E-06 -197.4217
v 67.44854 1.031959E-05 -236.0847
v 82.08193 6.511753E-06 -148.9715
v 84.72961 1.239498E-05 -283.5641
v 43.18526 1.070561E-05 -244.9158
v 52.09443 1.291419E-05 -295.4423
v 17.36479 1.291419E-05 -295.4423
v 102.693 5.063876E-06 -115.848
v 17.3648 1.070561E-05 -244.9158
v -17.36484 1.070561E-05 -244.9158
v -37.83407 8.597096E-06 -196.6786
v -17.36485 1.291419E-05 -295.4423
v -43.1853 1.070561E-05 -244.9158
v -52.09449 1.291419E-05 -295.4423
v -84.72967 1.239498E-05 -283.5641
v 44.03431 5.769772E-06 -131.997
v -67.44859 1.031959E-05 -236.0847
v -100.0838 9.800377E-06 -224.2065
v -117.3648 1.187577E-05 -271.6859
v -124.3471 9.414357E-06 -215.3754
v -150 1.135655E-05 -259.8076
v -176.6045 1.038075E-05 -237.4838
v -101.9373 7.747524E-06 -177.2427
v -144.1266 8.688876E-06 -198.7783
v -153.4445 5.831196E-06 -133.4022
v -203.2089 9.404946E-06 -215.1601
v -84.31277 6.418682E-06 -146.8423
v -170.7311 7.713073E-06 -176.4545
v -190.5107 6.987592E-06 -159.8575
v -229.8133 8.429141E-06 -192.8363
v -247.1782 7.114446E-06 -162.7596
v -40.81955 5.547763E-06 -126.918
v -203.4209 6.010154E-06 -137.4963
v -186.0606 3.191209E-06 -73.00636
v -220.7858 4.695458E-06 -107.4196
v -264.543 5.79975E-06 -132.6828
v -104.5984 5.085265E-06 -116.3373
v -233.696 3.718021E-06 -85.0584
v -281.9078 4.485054E-06 -102.6061
v -287.9385 2.990037E-06 -68.40407
v -238.1796 2.60652E-06 -59.63024
v -293.9692 1.49502E-06 -34.20206
v -198.7066 6.834323E-08 -1.563511
v -244.2104 1.111503E-06 -25.42823
v -248.694 2.185868E-12 -5.000682E-05
v -300 2.396935E-12 -5.483548E-05
v -293.9692 -1.495015E-06 34.20195
v -244.2104 -1.111499E-06 25.42813
v -287.9385 -2.990032E-06 68.40396
v -238.1797 -2.606516E-06 59.63013
v -187.7395 -3.099766E-06 70.91438
v -233.696 -3.718017E-06 85.05831
v -281.9078 -4.485049E-06 102.606
v -264.543 -5.799746E-06 132.6827
v -220.7858 -4.695455E-06 107.4195
v -247.1782 -7.114443E-06 162.7595
v -203.421 -6.010151E-06 137.4962
v -190.5107 -6.987589E-06 159.8574
v -229.8134 -8.42914E-06 192.8362
v -203.209 -9.404943E-06 215.16
v -155.6749 -5.641916E-06 129.072
v -170.7312 -7.713071E-06 176.4545
v -101.9141 -7.528838E-06 172.2397
v -144.1267 -8.688874E-06 198.7783
v -176.6045 -1.038075E-05 237.4838
v -124.3471 -9.414354E-06 215.3753
v -150.0001 -1.135655E-05 259.8076
v -117.3649 -1.187576E-05 271.6858
v -121.7743 -4.317325E-06 98.76887
v -100.0838 -9.800375E-06 224.2064
v -33.11228 -8.614189E-06 197.0697
v -67.44865 -1.031959E-05 236.0847
v -84.72975 -1.239498E-05 283.5641
v -43.18538 -1.070561E-05 244.9158
v -52.09458 -1.291419E-05 295.4423
v -17.36495 -1.291419E-05 295.4423
v -17.36492 -1.070561E-05 244.9158
v 17.36471 -1.070561E-05 244.9158
v 17.36468 -1.291419E-05 295.4423
v 43.18515 -1.070561E-05 244.9159
v 52.09431 -1.29142E-05 295.4423
v 84.72948 -1.239498E-05 283.5641
v 34.25409 -8.647281E-06 197.8267
v 67.44843 -1.031959E-05 236.0848
v 117.3647 -1.187577E-05 271.6859
v 99.59329 -7.570136E-06 173.1845
v 100.0836 -9.800379E-06 224.2065
v 25.24891 -6.568772E-06 150.276
v 124.3469 -9.41436E-06 215.3754
v 149.9998 -1.135656E-05 259.8077
v 176.6043 -1.038075E-05 237.4839
v 144.1265 -8.688879E-06 198.7784
v 203.2088 -9.404951E-06 215.1602
v 170.731 -7.713077E-06 176.4546
v 190.5106 -6.987597E-06 159.8576
v 229.8132 -8.429149E-06 192.8364
v 155.2912 -5.581483E-06 127.6894
v 203.4208 -6.01016E-06 137.4964
v 121.2391 -4.221793E-06 96.58338
v 67.31137 -4.872553E-06 111.471
v 133.3656 -2.468204E-06 56.46592
v 82.86715 -2.040852E-06 46.68925
v 139.8151 -1.235481E-07 2.82645
v 91.73734 2.813179E-08 -0.6435802
v 39.34781 -1.212984E-06 27.74985
v 2.12401 -3.444982E-06 78.81201
v -35.24837 8.619679E-07 -19.71953
v 120.5937 2.51407E-06 -57.51521
v 46.67701 2.400522E-07 -5.491754
v 92.25946 1.366492E-06 -31.26169
v 52.34126 2.82802E-06 -64.69756
v -13.65972 3.126686E-06 -71.53024
v -65.46329 3.320409E-06 -75.96211
v -120.32 2.737095E-06 -62.61744
v -80.46419 1.471173E-06 -33.65652
v -137.8997 6.8027E-08 -1.556276
v -98.1473 7.149753E-08 -1.635673
v -131.7434 -2.480158E-06 56.73939
v -69.67937 -2.014971E-06 46.09715
v -79.25591 -5.051955E-06 115.5753
v -19.29726 -5.966252E-06 136.4919
vt 1.279297 0.7880859
vt 1.439453 0.847168
vt 1.459961 0.7314453
vt 1.381836 0.9492188
vt 1.293945 0.7016602
vt 1.479492 0.6157227
vt 1.12207 0.7353516
vt 1.236328 0.8637695
vt 1.314453 0.5859375
vt 1.165039 0.4931641
vt 1.324219 1.050781
vt 1.329102 0.5
vt 1.5 0.5
vt 1.479492 0.3842773
vt 1.314453 0.4138184
vt 1.459961 0.2685547
vt 1.177734 0.965332
vt 1.007813 0.9521484
vt 1.134766 1.041016
vt 1.265625 1.152344
vt 1.177734 1.228516
vt 1.293945 0.2980957
vt 1.069336 1.097656
vt 0.9804688 1.172852
vt 1.088867 1.303711
vt 1.279297 0.2121582
vt 1.439453 0.15271
vt 1.381836 0.05090332
vt 0.9145508 1.228516
vt 1 1.378906
vt 0.8911133 1.419922
vt 1.128906 0.2612305
vt 1.236328 0.1363525
vt 1.324219 -0.05090332
vt 0.8325195 1.104492
vt 0.8334961 1.258789
vt 0.6196289 1.167969
vt 0.7246094 1.298828
vt 0.7734375 1.003906
vt 0.7822266 1.459961
vt 0.644043 1.329102
vt 0.6738281 1.5
vt 0.5581055 1.5
vt 0.8422852 0.8920898
vt 0.5581055 1.329102
vt 0.4421387 1.329102
vt 0.3737793 1.166016
vt 0.4421387 1.5
vt 0.355957 1.329102
vt 0.326416 1.5
vt 0.2175293 1.459961
vt 0.6469727 0.9467773
vt 0.2751465 1.298828
vt 0.1663818 1.258789
vt 0.1087646 1.419922
vt 0.08551025 1.228516
vt 0 1.378906
vt -0.08868408 1.303711
vt 0.1601563 1.099609
vt 0.01957703 1.172852
vt -0.01148224 0.9516602
vt -0.1773682 1.228516
vt 0.2189941 0.9970703
vt -0.0690918 1.097656
vt -0.1350098 1.041016
vt -0.2661133 1.152344
vt -0.3239746 1.050781
vt 0.3640137 0.9296875
vt -0.1781006 0.965332
vt -0.1201782 0.7470703
vt -0.2359619 0.8637695
vt -0.3818359 0.9492188
vt 0.1513672 0.8935547
vt -0.2790527 0.7880859
vt -0.4396973 0.847168
vt -0.4597168 0.7314453
vt -0.2939453 0.7016602
vt -0.4799805 0.6157227
vt -0.1623535 0.5053711
vt -0.3139648 0.5859375
vt -0.3291016 0.5
vt -0.5 0.5
vt -0.4799805 0.3842773
vt -0.3139648 0.4138184
vt -0.4597168 0.2685547
vt -0.2939453 0.2980957
vt -0.1258545 0.2600098
vt -0.2790527 0.2121582
vt -0.4396973 0.15271
vt -0.3818359 0.05090332
vt -0.2359619 0.1363525
vt -0.3239746 -0.05090332
vt -0.1781006 0.03460693
vt -0.1350098 -0.04107666
vt -0.2661133 -0.15271
vt -0.1773682 -0.2282715
vt -0.0189209 0.06311035
vt -0.0690918 -0.097229
vt 0.1602783 -0.08300781
vt 0.01957703 -0.1728516
vt -0.08868408 -0.3037109
vt 0.08551025 -0.2290039
vt -2.384186E-07 -0.3793945
vt 0.1087646 -0.4196777
vt 0.09411621 0.1656494
vt 0.1663818 -0.2587891
vt 0.3896484 -0.1669922
vt 0.2751465 -0.2990723
vt 0.2175293 -0.4597168
vt 0.355957 -0.3291016
vt 0.326416 -0.5
vt 0.4421387 -0.5
vt 0.4421387 -0.3291016
vt 0.5581055 -0.3291016
vt 0.5581055 -0.5
vt 0.644043 -0.3291016
vt 0.6738281 -0.5
vt 0.7822266 -0.4597168
vt 0.6142578 -0.1695557
vt 0.7246094 -0.2990723
vt 0.8911133 -0.4196777
vt 0.8320313 -0.08618164
vt 0.8334961 -0.2587891
vt 0.5839844 -0.008644104
vt 0.9145508 -0.2290039
vt 1 -0.3793945
vt 1.088867 -0.3037109
vt 0.9804688 -0.1728516
vt 1.177734 -0.2282715
vt 1.069336 -0.097229
vt 1.134766 -0.04107666
vt 1.265625 -0.15271
vt 1.017578 0.06781006
vt 1.177734 0.03460693
vt 0.9042969 0.1730957
vt 0.7246094 0.1226807
vt 0.9443359 0.3088379
vt 0.7763672 0.342041
vt 0.9658203 0.4904785
vt 0.8056641 0.5019531
vt 0.6313477 0.4060059
vt 0.5073242 0.2332764
vt 0.3825684 0.5668945
vt 0.9018555 0.6948242
vt 0.6557617 0.5185547
vt 0.8076172 0.605957
vt 0.6743164 0.71875
vt 0.4543457 0.7421875
vt 0.2817383 0.7573242
vt 0.09893799 0.7119141
vt 0.2318115 0.6137695
vt 0.04034424 0.5053711
vt 0.1728516 0.5053711
vt 0.06085205 0.3078613
vt 0.2678223 0.3439941
vt 0.2358398 0.1088257
vt 0.435791 0.03799438
vn 0 1 0
vn 0 1 0
vn 0 1 0
vn 0 1 0
vn 0 1 0
vn 0 1 0
vn 0 1 0
vn 0 1 0
vn 0 1 0
vn 0 1 0
vn 0 1 0
vn 0 1 0
vn 0 1 0
vn 0 1 0
vn 0 1 0
vn 0 1 0
vn 0 1 0
vn 0 1 0
vn 0 1 0
vn 0 1 0
vn 0 1 0
vn 0 1 0
vn 0 1 0
vn 0 1 0
vn 0 1 0
vn 0 1 0
vn 0 1 0
vn 0 1 0
vn 0 1 0
vn 0 1 0
vn 0 1 0
vn 0 1 0
vn 0 1 0
vn 0 1 0
vn 0 1 0
vn 0 1 0
vn 0 1 0
vn 0 1 0
vn 0 1 0
vn 0 1 0
vn 0 1 0
vn 0 1 0
vn 0 1 0
vn 0 1 0
vn 0 1 0
vn 0 1 0
vn 0 1 0
vn 0 1 0
vn 0 1 0
vn 0 1 0
vn 0 1 0
vn 0 1 0
vn 0 1 0
vn 0 1 0
vn 0 1 0
vn 0 1 0
vn 0 1 0
vn 0 1 0
vn 0 1 0
vn 0 1 0
vn 0 1 0
vn 0 1 0
vn 0 1 0
vn 0 1 0
vn 0 1 0
vn 0 1 0
vn 0 1 0
vn 0 1 0
vn 0 1 0
vn 0 1 0
vn 0 1 0
vn 0 1 0
vn 0 1 0
vn 0 1 0
vn 0 1 0
vn 0 1 0
vn 0 1 0
vn 0 1 0
vn 0 1 0
vn 0 1 0
vn 0 1 0
vn 0 1 0
vn 0 1 0
vn 0 1 0
vn 0 1 0
vn 0 1 0
vn 0 1 0
vn 0 1 0
vn 0 1 0
vn 0 1 0
vn 0 1 0
vn 0 1 0
vn 0 1 0
vn 0 1 0
vn 0 1 0
vn 0 1 0
vn 0 1 0
vn 0 1 0
vn 0 1 0
vn 0 1 0
vn 0 1 0
vn 0 1 0
vn 0 1 0
vn 0 1 0
vn 0 1 0
vn 0 1 0
vn 0 1 0
vn 0 1 0
vn 0 1 0
vn 0 1 0
vn 0 1 0
vn 0 1 0
vn 0 1 0
vn 0 1 0
vn 0 1 0
vn 0 1 0
vn 0 1 0
vn 0 1 0
vn 0 1 0
vn 0 1 0
vn 0 1 0
vn 0 1 0
vn 0 1 0
vn 0 1 0
vn 0 1 0
vn 0 1 0
vn 0 1 0
vn 0 1 0
vn 0 1 0
vn 0 1 0
vn 0 1 0
vn 0 1 0
vn 0 1 0
vn 0 1 0
vn 0 1 0
vn 0 1 0
vn 0 1 0
vn 0 1 0
vn 0 1 0
vn 0 1 0
vn 0 1 0
vn 0 1 0
vn 0 1 0
vn 0 1 0
vn 0 1 0
vn 0 1 0
vn 0 1 0
vn 0 1 0
vn 0 1 0
vn 0 1 0
vn 0 1 0
vn 0 1 0
vn 0 1 0
vn 0 1 0
vn 0 1 0
vn 0 1 0
vn 0 1 0
g SWS_Circle_LP_0
f 3/3/3 2/2/2 1/1/1
f 1/1/1 2/2/2 4/4/4
f 1/1/1 5/5/5 3/3/3
f 6/6/6 3/3/3 5/5/5
f 7/7/7 5/5/5 1/1/1
f 1/1/1 8/8/8 7/7/7
f 4/4/4 8/8/8 1/1/1
f 9/9/9 5/5/5 7/7/7
f 5/5/5 9/9/9 6/6/6
f 7/7/7 10/10/10 9/9/9
f 8/8/8 4/4/4 11/11/11
f 6/6/6 9/9/9 12/12/12
f 12/12/12 9/9/9 10/10/10
f 12/12/12 13/13/13 6/6/6
f 14/14/14 13/13/13 12/12/12
f 12/12/12 15/15/15 14/14/14
f 10/10/10 15/15/15 12/12/12
f 16/16/16 14/14/14 15/15/15
f 11/11/11 17/17/17 8/8/8
f 7/7/7 8/8/8 17/17/17
f 17/17/17 18/18/18 7/7/7
f 19/19/19 17/17/17 11/11/11
f 18/18/18 17/17/17 19/19/19
f 11/11/11 20/20/20 19/19/19
f 19/19/19 20/20/20 21/21/21
f 15/15/15 22/22/22 16/16/16
f 22/22/22 15/15/15 10/10/10
f 21/21/21 23/23/23 19/19/19
f 19/19/19 23/23/23 18/18/18
f 24/24/24 23/23/23 21/21/21
f 18/18/18 23/23/23 24/24/24
f 21/21/21 25/25/25 24/24/24
f 16/16/16 22/22/22 26/26/26
f 26/26/26 27/27/27 16/16/16
f 28/28/28 27/27/27 26/26/26
f 29/29/29 24/24/24 25/25/25
f 25/25/25 30/30/30 29/29/29
f 29/29/29 30/30/30 31/31/31
f 26/26/26 22/22/22 32/32/32
f 10/10/10 32/32/32 22/22/22
f 26/26/26 33/33/33 28/28/28
f 32/32/32 33/33/33 26/26/26
f 34/34/34 28/28/28 33/33/33
f 35/35/35 24/24/24 29/29/29
f 24/24/24 35/35/35 18/18/18
f 31/31/31 36/36/36 29/29/29
f 29/29/29 36/36/36 35/35/35
f 37/37/37 35/35/35 36/36/36
f 36/36/36 38/38/38 37/37/37
f 38/38/38 36/36/36 31/31/31
f 39/39/39 35/35/35 37/37/37
f 18/18/18 35/35/35 39/39/39
f 31/31/31 40/40/40 38/38/38
f 41/41/41 38/38/38 40/40/40
f 37/37/37 38/38/38 41/41/41
f 40/40/40 42/42/42 41/41/41
f 41/41/41 42/42/42 43/43/43
f 39/39/39 44/44/44 18/18/18
f 7/7/7 18/18/18 44/44/44
f 43/43/43 45/45/45 41/41/41
f 41/41/41 45/45/45 37/37/37
f 46/46/46 45/45/45 43/43/43
f 37/37/37 45/45/45 46/46/46
f 46/46/46 47/47/47 37/37/37
f 43/43/43 48/48/48 46/46/46
f 49/49/49 46/46/46 48/48/48
f 47/47/47 46/46/46 49/49/49
f 48/48/48 50/50/50 49/49/49
f 49/49/49 50/50/50 51/51/51
f 37/37/37 52/52/52 39/39/39
f 52/52/52 44/44/44 39/39/39
f 51/51/51 53/53/53 49/49/49
f 49/49/49 53/53/53 47/47/47
f 54/54/54 53/53/53 51/51/51
f 47/47/47 53/53/53 54/54/54
f 51/51/51 55/55/55 54/54/54
f 56/56/56 54/54/54 55/55/55
f 55/55/55 57/57/57 56/56/56
f 56/56/56 57/57/57 58/58/58
f 59/59/59 54/54/54 56/56/56
f 54/54/54 59/59/59 47/47/47
f 58/58/58 60/60/60 56/56/56
f 56/56/56 60/60/60 59/59/59
f 61/61/61 59/59/59 60/60/60
f 60/60/60 58/58/58 62/62/62
f 47/47/47 59/59/59 63/63/63
f 63/63/63 59/59/59 61/61/61
f 62/62/62 64/64/64 60/60/60
f 60/60/60 64/64/64 61/61/61
f 65/65/65 64/64/64 62/62/62
f 61/61/61 64/64/64 65/65/65
f 62/62/62 66/66/66 65/65/65
f 65/65/65 66/66/66 67/67/67
f 63/63/63 68/68/68 47/47/47
f 37/37/37 47/47/47 68/68/68
f 68/68/68 52/52/52 37/37/37
f 67/67/67 69/69/69 65/65/65
f 65/65/65 69/69/69 61/61/61
f 70/70/70 61/61/61 69/69/69
f 69/69/69 71/71/71 70/70/70
f 71/71/71 69/69/69 67/67/67
f 67/67/67 72/72/72 71/71/71
f 61/61/61 73/73/73 63/63/63
f 63/63/63 73/73/73 68/68/68
f 73/73/73 61/61/61 70/70/70
f 74/74/74 71/71/71 72/72/72
f 70/70/70 71/71/71 74/74/74
f 72/72/72 75/75/75 74/74/74
f 74/74/74 75/75/75 76/76/76
f 76/76/76 77/77/77 74/74/74
f 74/74/74 77/77/77 70/70/70
f 77/77/77 76/76/76 78/78/78
f 79/79/79 70/70/70 77/77/77
f 77/77/77 80/80/80 79/79/79
f 78/78/78 80/80/80 77/77/77
f 81/81/81 80/80/80 78/78/78
f 79/79/79 80/80/80 81/81/81
f 78/78/78 82/82/82 81/81/81
f 81/81/81 82/82/82 83/83/83
f 83/83/83 84/84/84 81/81/81
f 81/81/81 84/84/84 79/79/79
f 84/84/84 83/83/83 85/85/85
f 85/85/85 86/86/86 84/84/84
f 79/79/79 84/84/84 86/86/86
f 86/86/86 87/87/87 79/79/79
f 88/88/88 86/86/86 85/85/85
f 87/87/87 86/86/86 88/88/88
f 85/85/85 89/89/89 88/88/88
f 88/88/88 89/89/89 90/90/90
f 90/90/90 91/91/91 88/88/88
f 88/88/88 91/91/91 87/87/87
f 91/91/91 90/90/90 92/92/92
f 92/92/92 93/93/93 91/91/91
f 87/87/87 91/91/91 93/93/93
f 94/94/94 93/93/93 92/92/92
f 92/92/92 95/95/95 94/94/94
f 94/94/94 95/95/95 96/96/96
f 97/97/97 93/93/93 94/94/94
f 93/93/93 97/97/97 87/87/87
f 96/96/96 98/98/98 94/94/94
f 94/94/94 98/98/98 97/97/97
f 99/99/99 97/97/97 98/98/98
f 98/98/98 100/100/100 99/99/99
f 100/100/100 98/98/98 96/96/96
f 96/96/96 101/101/101 100/100/100
f 102/102/102 100/100/100 101/101/101
f 99/99/99 100/100/100 102/102/102
f 101/101/101 103/103/103 102/102/102
f 102/102/102 103/103/103 104/104/104
f 87/87/87 97/97/97 105/105/105
f 105/105/105 97/97/97 99/99/99
f 104/104/104 106/106/106 102/102/102
f 102/102/102 106/106/106 99/99/99
f 107/107/107 99/99/99 106/106/106
f 106/106/106 108/108/108 107/107/107
f 108/108/108 106/106/106 104/104/104
f 104/104/104 109/109/109 108/108/108
f 110/110/110 108/108/108 109/109/109
f 107/107/107 108/108/108 110/110/110
f 109/109/109 111/111/111 110/110/110
f 110/110/110 111/111/111 112/112/112
f 112/112/112 113/113/113 110/110/110
f 110/110/110 113/113/113 107/107/107
f 114/114/114 113/113/113 112/112/112
f 107/107/107 113/113/113 114/114/114
f 112/112/112 115/115/115 114/114/114
f 116/116/116 114/114/114 115/115/115
f 115/115/115 117/117/117 116/116/116
f 116/116/116 117/117/117 118/118/118
f 119/119/119 114/114/114 116/116/116
f 114/114/114 119/119/119 107/107/107
f 118/118/118 120/120/120 116/116/116
f 116/116/116 120/120/120 119/119/119
f 120/120/120 118/118/118 121/121/121
f 122/122/122 119/119/119 120/120/120
f 120/120/120 123/123/123 122/122/122
f 121/121/121 123/123/123 120/120/120
f 124/124/124 119/119/119 122/122/122
f 107/107/107 119/119/119 124/124/124
f 125/125/125 123/123/123 121/121/121
f 122/122/122 123/123/123 125/125/125
f 121/121/121 126/126/126 125/125/125
f 125/125/125 126/126/126 127/127/127
f 127/127/127 128/128/128 125/125/125
f 125/125/125 128/128/128 122/122/122
f 128/128/128 127/127/127 129/129/129
f 129/129/129 130/130/130 128/128/128
f 122/122/122 128/128/128 130/130/130
f 131/131/131 130/130/130 129/129/129
f 129/129/129 132/132/132 131/131/131
f 131/131/131 132/132/132 34/34/34
f 133/133/133 130/130/130 131/131/131
f 130/130/130 133/133/133 122/122/122
f 34/34/34 134/134/134 131/131/131
f 131/131/131 134/134/134 133/133/133
f 33/33/33 134/134/134 34/34/34
f 133/133/133 134/134/134 33/33/33
f 33/33/33 32/32/32 133/133/133
f 122/122/122 133/133/133 135/135/135
f 135/135/135 133/133/133 32/32/32
f 135/135/135 136/136/136 122/122/122
f 122/122/122 136/136/136 124/124/124
f 32/32/32 137/137/137 135/135/135
f 137/137/137 32/32/32 10/10/10
f 138/138/138 136/136/136 135/135/135
f 135/135/135 137/137/137 138/138/138
f 10/10/10 139/139/139 137/137/137
f 139/139/139 10/10/10 7/7/7
f 140/140/140 138/138/138 137/137/137
f 137/137/137 139/139/139 140/140/140
f 136/136/136 138/138/138 141/141/141
f 141/141/141 138/138/138 140/140/140
f 124/124/124 136/136/136 142/142/142
f 141/141/141 142/142/142 136/136/136
f 142/142/142 141/141/141 143/143/143
f 7/7/7 144/144/144 139/139/139
f 44/44/44 144/144/144 7/7/7
f 140/140/140 145/145/145 141/141/141
f 141/141/141 145/145/145 143/143/143
f 146/146/146 140/140/140 139/139/139
f 139/139/139 144/144/144 146/146/146
f 145/145/145 140/140/140 146/146/146
f 147/147/147 144/144/144 44/44/44
f 147/147/147 146/146/146 144/144/144
f 146/146/146 147/147/147 145/145/145
f 44/44/44 52/52/52 147/147/147
f 145/145/145 147/147/147 148/148/148
f 148/148/148 147/147/147 52/52/52
f 148/148/148 143/143/143 145/145/145
f 52/52/52 68/68/68 148/148/148
f 68/68/68 149/149/149 148/148/148
f 143/143/143 148/148/148 149/149/149
f 149/149/149 68/68/68 73/73/73
f 73/73/73 150/150/150 149/149/149
f 70/70/70 150/150/150 73/73/73
f 149/149/149 151/151/151 143/143/143
f 150/150/150 151/151/151 149/149/149
f 152/152/152 150/150/150 70/70/70
f 70/70/70 79/79/79 152/152/152
f 153/153/153 151/151/151 150/150/150
f 143/143/143 151/151/151 153/153/153
f 150/150/150 152/152/152 153/153/153
f 154/154/154 152/152/152 79/79/79
f 153/153/153 152/152/152 154/154/154
f 79/79/79 87/87/87 154/154/154
f 105/105/105 154/154/154 87/87/87
f 153/153/153 155/155/155 143/143/143
f 154/154/154 155/155/155 153/153/153
f 155/155/155 154/154/154 105/105/105
f 143/143/143 155/155/155 142/142/142
f 105/105/105 156/156/156 155/155/155
f 142/142/142 155/155/155 156/156/156
f 99/99/99 156/156/156 105/105/105
f 156/156/156 157/157/157 142/142/142
f 157/157/157 156/156/156 99/99/99
f 142/142/142 157/157/157 124/124/124
f 99/99/99 107/107/107 157/157/157
f 124/124/124 157/157/157 107/107/107
