g Target_03
v 0 0 0
v -0.1006743 0.5061243 -0.01966797
v -2.25543E-08 0.51604 -0.01966797
v -0.1974798 0.476759 -0.01966797
v 0.1006732 0.5061243 -0.01966797
v -0.2866962 0.429071 -0.01966797
v 0.1974788 0.476759 -0.01966797
v -0.364895 0.364895 -0.01966797
v 0.2866954 0.429071 -0.01966797
v -0.4290712 0.2866968 -0.01966797
v 0.3648943 0.3648962 -0.01966797
v -0.4767584 0.1974792 -0.01966797
v 0.4290707 0.286698 -0.01966797
v -0.506124 0.100675 -0.01966797
v 0.4767579 0.1974805 -0.01966797
v -0.5160396 0 -0.01966797
v 0.5061238 0.100675 -0.01966797
v -0.506124 -0.100675 -0.01966797
v 0.5160395 1.220703E-06 -0.01966797
v -0.4767583 -0.1974805 -0.01966797
v 0.5061241 -0.1006738 -0.01966797
v -0.429071 -0.2866968 -0.01966797
v 0.4767586 -0.1974792 -0.01966797
v -0.3648949 -0.3648962 -0.01966797
v 0.4290716 -0.2866955 -0.01966797
v -0.2866959 -0.429071 -0.01966797
v 0.3648955 -0.364895 -0.01966797
v -0.1974794 -0.476759 -0.01966797
v 0.2866967 -0.429071 -0.01966797
v -0.1006739 -0.5061243 -0.01966797
v 0.1974803 -0.476759 -0.01966797
v 4.982878E-07 -0.5160388 -0.01966797
v 0.1006748 -0.5061243 -0.01966797
v -3.564172E-08 0.8154443 -0.07118652
v -0.1590853 0.7997766 -0.07118652
v -0.2104759 1.058133 -0.1537427
v -4.715752E-08 1.078864 -0.1537427
v 0.1590836 0.7997766 -0.07118652
v -0.4128633 0.9967395 -0.1537427
v -0.312057 0.7533728 -0.07118652
v 0.2104736 1.058133 -0.1537427
v 0.3120555 0.7533728 -0.07118652
v -0.5993845 0.8970422 -0.1537427
v -0.4530366 0.6780176 -0.07118652
v 0.4128612 0.9967407 -0.1537427
v 0.4530353 0.6780188 -0.07118652
v -0.7628719 0.7628723 -0.1537427
v -0.5766063 0.5766065 -0.07118652
v 0.5993828 0.8970435 -0.1537427
v 0.5766052 0.5766076 -0.07118652
v -0.8970425 0.5993847 -0.1537427
v -0.6780173 0.4530371 -0.07118652
v 0.7628704 0.7628735 -0.1537427
v 0.6780164 0.4530383 -0.07118652
v -0.9967403 0.4128625 -0.1537427
v -0.7533724 0.3120569 -0.07118652
v 0.8970414 0.599386 -0.1537427
v 0.7533718 0.3120593 -0.07118652
v -1.058134 0.2104748 -0.1537427
v -0.7997759 0.1590857 -0.07118652
v 0.9967394 0.412865 -0.1537427
v 0.7997756 0.1590857 -0.07118652
v -1.078864 0 -0.1537427
v -0.8154444 0 -0.07118652
v 1.058133 0.2104785 -0.1537427
v 0.8154444 1.220703E-06 -0.07118652
v -1.058134 -0.2104761 -0.1537427
v -0.7997758 -0.1590857 -0.07118652
v 1.078864 1.220703E-06 -0.1537427
v 0.7997761 -0.1590845 -0.07118652
v -0.9967399 -0.4128638 -0.1537427
v -0.7533723 -0.3120581 -0.07118652
v 1.058134 -0.2104736 -0.1537427
v 0.7533728 -0.3120556 -0.07118652
v -0.8970422 -0.5993847 -0.1537427
v -0.678017 -0.4530371 -0.07118652
v 0.9967408 -0.4128613 -0.1537427
v 0.6780179 -0.4530359 -0.07118652
v -0.7628714 -0.7628723 -0.1537427
v -0.5766059 -0.5766065 -0.07118652
v 0.8970432 -0.5993835 -0.1537427
v 0.5766069 -0.5766052 -0.07118652
v -0.599384 -0.8970428 -0.1537427
v -0.4530361 -0.6780176 -0.07118652
v 0.7628728 -0.7628711 -0.1537427
v 0.4530374 -0.6780164 -0.07118652
v -0.4128625 -0.9967407 -0.1537427
v -0.3120564 -0.7533728 -0.07118652
v 0.5993857 -0.8970422 -0.1537427
v 0.3120579 -0.7533715 -0.07118652
v -0.2104749 -1.058133 -0.1537427
v -0.1590846 -0.799776 -0.07118652
v 0.4128644 -0.9967395 -0.1537427
v 0.1590862 -0.799776 -0.07118652
v 1.041752E-06 -1.078864 -0.1537427
v 7.873913E-07 -0.8154443 -0.07118652
v 0.210477 -1.058133 -0.1537427
v -0.420951 -1.016268 -0.2309521
v -0.6111266 -0.9146167 -0.2309521
v -0.2145984 -1.078864 -0.2309521
v 1.062162E-06 -1.1 -0.2309521
v -0.777817 -0.7778174 -0.2309521
v 0.2146005 -1.078864 -0.2309521
v 0.420953 -1.016266 -0.2309521
v -0.9146163 -0.6111279 -0.2309521
v 0.6111284 -0.9146155 -0.2309521
v -1.016267 -0.4209521 -0.2309521
v 0.7778184 -0.7778161 -0.2309521
v -1.078864 -0.2145996 -0.2309521
v 0.9146174 -0.6111255 -0.2309521
v -1.1 0 -0.2309521
v 1.016268 -0.4209497 -0.2309521
v -1.078864 0.2145996 -0.2309521
v 1.078864 -0.2145984 -0.2309521
v -1.016268 0.4209521 -0.2309521
v 1.1 1.220703E-06 -0.2309521
v -0.9146166 0.6111267 -0.2309521
v 1.078863 0.2146008 -0.2309521
v -0.7778174 0.7778186 -0.2309521
v 1.016267 0.4209534 -0.2309521
v -0.6111273 0.9146167 -0.2309521
v 0.9146155 0.6111292 -0.2309521
v -0.4209518 1.016267 -0.2309521
v 0.7778159 0.7778186 -0.2309521
v -0.2145993 1.078864 -0.2309521
v 0.6111254 0.9146179 -0.2309521
v -4.808418E-08 1.1 -0.2309521
v 0.4209497 1.016268 -0.2309521
v 0.214597 1.078865 -0.2309521
v -3.564172E-08 0.8154443 -0.07118652
v -2.25543E-08 0.51604 -0.01966797
v -0.1006743 0.5061243 -0.01966797
v -0.1590853 0.7997766 -0.07118652
v 0.1590836 0.7997766 -0.07118652
v -0.1974798 0.476759 -0.01966797
v 0.1006732 0.5061243 -0.01966797
v -0.312057 0.7533728 -0.07118652
v 0.3120555 0.7533728 -0.07118652
v -0.2866962 0.429071 -0.01966797
v 0.1974788 0.476759 -0.01966797
v -0.4530366 0.6780176 -0.07118652
v 0.4530353 0.6780188 -0.07118652
v -0.364895 0.364895 -0.01966797
v 0.2866954 0.429071 -0.01966797
v -0.5766063 0.5766065 -0.07118652
v 0.5766052 0.5766076 -0.07118652
v -0.4290712 0.2866968 -0.01966797
v 0.3648943 0.3648962 -0.01966797
v -0.6780173 0.4530371 -0.07118652
v 0.6780164 0.4530383 -0.07118652
v -0.4767584 0.1974792 -0.01966797
v 0.4290707 0.286698 -0.01966797
v -0.7533724 0.3120569 -0.07118652
v 0.7533718 0.3120593 -0.07118652
v -0.506124 0.100675 -0.01966797
v 0.4767579 0.1974805 -0.01966797
v -0.7997759 0.1590857 -0.07118652
v 0.7997756 0.1590857 -0.07118652
v -0.5160396 0 -0.01966797
v 0.5061238 0.100675 -0.01966797
v -0.8154444 0 -0.07118652
v 0.8154444 1.220703E-06 -0.07118652
v -0.506124 -0.100675 -0.01966797
v 0.5160395 1.220703E-06 -0.01966797
v -0.7997758 -0.1590857 -0.07118652
v 0.7997761 -0.1590845 -0.07118652
v -0.4767583 -0.1974805 -0.01966797
v 0.5061241 -0.1006738 -0.01966797
v -0.7533723 -0.3120581 -0.07118652
v 0.7533728 -0.3120556 -0.07118652
v -0.429071 -0.2866968 -0.01966797
v 0.4767586 -0.1974792 -0.01966797
v -0.678017 -0.4530371 -0.07118652
v 0.6780179 -0.4530359 -0.07118652
v -0.3648949 -0.3648962 -0.01966797
v 0.4290716 -0.2866955 -0.01966797
v -0.5766059 -0.5766065 -0.07118652
v 0.5766069 -0.5766052 -0.07118652
v -0.2866959 -0.429071 -0.01966797
v 0.3648955 -0.364895 -0.01966797
v -0.4530361 -0.6780176 -0.07118652
v 0.4530374 -0.6780164 -0.07118652
v -0.1974794 -0.476759 -0.01966797
v 0.2866967 -0.429071 -0.01966797
v -0.3120564 -0.7533728 -0.07118652
v 0.3120579 -0.7533715 -0.07118652
v -0.1006739 -0.5061243 -0.01966797
v 0.1974803 -0.476759 -0.01966797
v -0.1590846 -0.799776 -0.07118652
v 0.1590862 -0.799776 -0.07118652
v 4.982878E-07 -0.5160388 -0.01966797
v 0.1006748 -0.5061243 -0.01966797
v 7.873913E-07 -0.8154443 -0.07118652
vt 0.8666992 0.7841797
vt 0.8647461 0.7841797
vt 0.8666992 0.7841797
vt 0.862793 0.7841797
vt 0.8686523 0.7841797
vt 0.8613281 0.7841797
vt 0.8706055 0.7841797
vt 0.859375 0.7841797
vt 0.8725586 0.7841797
vt 0.8583984 0.7841797
vt 0.8740234 0.7841797
vt 0.8574219 0.7841797
vt 0.8754883 0.7841797
vt 0.8569336 0.7841797
vt 0.8764648 0.7841797
vt 0.8564453 0.7841797
vt 0.8769531 0.7841797
vt 0.8569336 0.7841797
vt 0.8769531 0.7841797
vt 0.8574219 0.7841797
vt 0.8769531 0.7841797
vt 0.8583984 0.7841797
vt 0.8764648 0.7841797
vt 0.859375 0.7841797
vt 0.8754883 0.7841797
vt 0.8608398 0.7841797
vt 0.8740234 0.7841797
vt 0.862793 0.7841797
vt 0.8725586 0.7841797
vt 0.8647461 0.7841797
vt 0.8706055 0.7841797
vt 0.8666992 0.7841797
vt 0.8686523 0.7841797
vt 0.8666992 0.7841797
vt 0.8637695 0.7841797
vt 0.862793 0.7841797
vt 0.8666992 0.7841797
vt 0.8701172 0.7841797
vt 0.8583984 0.7841797
vt 0.8603516 0.7841797
vt 0.8710938 0.7841797
vt 0.8730469 0.7841797
vt 0.8544922 0.7841797
vt 0.8579102 0.7841797
vt 0.875 0.7841797
vt 0.8759766 0.7841797
vt 0.8515625 0.7841797
vt 0.8554688 0.7841797
vt 0.8789063 0.7841797
vt 0.878418 0.7841797
vt 0.8486328 0.7841797
vt 0.8530273 0.7841797
vt 0.8823242 0.7841797
vt 0.8803711 0.7841797
vt 0.8466797 0.7841797
vt 0.8515625 0.7841797
vt 0.8852539 0.7841797
vt 0.8818359 0.7841797
vt 0.8452148 0.7841797
vt 0.8505859 0.7841797
vt 0.887207 0.7841797
vt 0.8828125 0.7841797
vt 0.8447266 0.7841797
vt 0.8505859 0.7841797
vt 0.8881836 0.7841797
vt 0.8833008 0.7841797
vt 0.8452148 0.7841797
vt 0.8505859 0.7841797
vt 0.8886719 0.7841797
vt 0.8828125 0.7841797
vt 0.8466797 0.7841797
vt 0.8515625 0.7841797
vt 0.8881836 0.7841797
vt 0.8818359 0.7841797
vt 0.8486328 0.7841797
vt 0.8530273 0.7841797
vt 0.887207 0.7841797
vt 0.8803711 0.7841797
vt 0.8515625 0.7841797
vt 0.8549805 0.7841797
vt 0.8852539 0.7841797
vt 0.878418 0.7841797
vt 0.8544922 0.7841797
vt 0.8579102 0.7841797
vt 0.8823242 0.7841797
vt 0.8759766 0.7841797
vt 0.8583984 0.7841797
vt 0.8603516 0.7841797
vt 0.8789063 0.7841797
vt 0.8730469 0.7841797
vt 0.8623047 0.7841797
vt 0.8637695 0.7841797
vt 0.875 0.7841797
vt 0.8701172 0.7841797
vt 0.8666992 0.7841797
vt 0.8666992 0.7841797
vt 0.8710938 0.7841797
vt 0.8579102 0.7841797
vt 0.8535156 0.7841797
vt 0.8623047 0.7841797
vt 0.8666992 0.7841797
vt 0.8500977 0.7841797
vt 0.871582 0.7841797
vt 0.8759766 0.7841797
vt 0.847168 0.7841797
vt 0.8798828 0.7841797
vt 0.8452148 0.7841797
vt 0.8833008 0.7841797
vt 0.84375 0.7841797
vt 0.8862305 0.7841797
vt 0.8432617 0.7841797
vt 0.8886719 0.7841797
vt 0.84375 0.7841797
vt 0.8901367 0.7841797
vt 0.8452148 0.7841797
vt 0.890625 0.7841797
vt 0.847168 0.7841797
vt 0.8901367 0.7841797
vt 0.8500977 0.7841797
vt 0.8886719 0.7841797
vt 0.8535156 0.7841797
vt 0.8862305 0.7841797
vt 0.8579102 0.7841797
vt 0.8833008 0.7841797
vt 0.8623047 0.7841797
vt 0.8798828 0.7841797
vt 0.8666992 0.7841797
vt 0.8759766 0.7841797
vt 0.871582 0.7841797
vt 0.9521484 0.855957
vt 0.9521484 0.855957
vt 0.9501953 0.855957
vt 0.9492188 0.855957
vt 0.9555664 0.855957
vt 0.9482422 0.855957
vt 0.9541016 0.855957
vt 0.9458008 0.855957
vt 0.9584961 0.855957
vt 0.9467773 0.855957
vt 0.9560547 0.855957
vt 0.9433594 0.855957
vt 0.9614258 0.855957
vt 0.9448242 0.855957
vt 0.9580078 0.855957
vt 0.940918 0.855957
vt 0.9638672 0.855957
vt 0.9438477 0.855957
vt 0.9594727 0.855957
vt 0.9384766 0.855957
vt 0.9658203 0.855957
vt 0.9428711 0.855957
vt 0.9609375 0.855957
vt 0.9370117 0.855957
vt 0.9672852 0.855957
vt 0.9418945 0.855957
vt 0.9619141 0.855957
vt 0.9360352 0.855957
vt 0.9682617 0.855957
vt 0.9418945 0.855957
vt 0.9624023 0.855957
vt 0.9360352 0.855957
vt 0.96875 0.855957
vt 0.9418945 0.855957
vt 0.9624023 0.855957
vt 0.9360352 0.855957
vt 0.9682617 0.855957
vt 0.9428711 0.855957
vt 0.9624023 0.855957
vt 0.9370117 0.855957
vt 0.9672852 0.855957
vt 0.9438477 0.855957
vt 0.9619141 0.855957
vt 0.9384766 0.855957
vt 0.9658203 0.855957
vt 0.9448242 0.855957
vt 0.9609375 0.855957
vt 0.9404297 0.855957
vt 0.9638672 0.855957
vt 0.9462891 0.855957
vt 0.9594727 0.855957
vt 0.9428711 0.855957
vt 0.9614258 0.855957
vt 0.9482422 0.855957
vt 0.9580078 0.855957
vt 0.9458008 0.855957
vt 0.9584961 0.855957
vt 0.9501953 0.855957
vt 0.9560547 0.855957
vt 0.9492188 0.855957
vt 0.9555664 0.855957
vt 0.9521484 0.855957
vt 0.9541016 0.855957
vt 0.9521484 0.855957
vn 0 -1.192093E-07 1
vn -0.02110291 0.1060791 0.9941406
vn -1.192093E-07 0.1081543 0.9941406
vn -0.04138184 0.09991455 0.9941406
vn 0.02110291 0.1060791 0.9941406
vn -0.06008911 0.08990479 0.9941406
vn 0.04138184 0.09991455 0.9941406
vn -0.07647705 0.07647705 0.9941406
vn 0.06008911 0.08990479 0.9941406
vn -0.08990479 0.06008911 0.9941406
vn 0.07647705 0.07647705 0.9941406
vn -0.09991455 0.04138184 0.9941406
vn 0.08990479 0.06008911 0.9941406
vn -0.1060791 0.02110291 0.9941406
vn 0.09991455 0.04138184 0.9941406
vn -0.1081543 -1.192093E-07 0.9941406
vn 0.1060791 0.02110291 0.9941406
vn -0.1060791 -0.02110291 0.9941406
vn 0.1081543 0 0.9941406
vn -0.09991455 -0.04138184 0.9941406
vn 0.1060791 -0.02110291 0.9941406
vn -0.08990479 -0.06008911 0.9941406
vn 0.09991455 -0.04138184 0.9941406
vn -0.07647705 -0.07647705 0.9941406
vn 0.08990479 -0.06008911 0.9941406
vn -0.06008911 -0.08990479 0.9941406
vn 0.07647705 -0.07647705 0.9941406
vn -0.04138184 -0.09991455 0.9941406
vn 0.06008911 -0.08990479 0.9941406
vn -0.02110291 -0.1060791 0.9941406
vn 0.04138184 -0.09991455 0.9941406
vn 0 -0.1081543 0.9941406
vn 0.02110291 -0.1060791 0.9941406
vn -2.384186E-07 0.2387695 0.9711914
vn -0.04656982 0.2341309 0.9711914
vn -0.1431885 0.7197266 0.6796875
vn -5.960464E-07 0.7338867 0.6796875
vn 0.04656982 0.2341309 0.9711914
vn -0.2807617 0.6777344 0.6796875
vn -0.09136963 0.2205811 0.9711914
vn 0.1431885 0.7197266 0.6796875
vn 0.09136963 0.2205811 0.9711914
vn -0.4077148 0.6098633 0.6796875
vn -0.1326904 0.1984863 0.9711914
vn 0.2807617 0.6777344 0.6796875
vn 0.1326904 0.1984863 0.9711914
vn -0.519043 0.519043 0.6796875
vn -0.1688232 0.1688232 0.9711914
vn 0.4077148 0.6098633 0.6796875
vn 0.1688232 0.1688232 0.9711914
vn -0.6098633 0.4077148 0.6796875
vn -0.1984863 0.1326904 0.9711914
vn 0.519043 0.519043 0.6796875
vn 0.1984863 0.1326904 0.9711914
vn -0.6777344 0.2807617 0.6796875
vn -0.2205811 0.09136963 0.9711914
vn 0.6098633 0.4077148 0.6796875
vn 0.2205811 0.09136963 0.9711914
vn -0.7197266 0.1431885 0.6796875
vn -0.2341309 0.04656982 0.9711914
vn 0.6777344 0.2807617 0.6796875
vn 0.2341309 0.04656982 0.9711914
vn -0.7338867 -2.980232E-07 0.6796875
vn -0.2387695 -1.192093E-07 0.9711914
vn 0.7197266 0.1431885 0.6796875
vn 0.2387695 2.384186E-07 0.9711914
vn -0.7197266 -0.1431885 0.6796875
vn -0.2341309 -0.04656982 0.9711914
vn 0.7338867 1.072884E-06 0.6796875
vn 0.2341309 -0.04656982 0.9711914
vn -0.6777344 -0.2807617 0.6796875
vn -0.2205811 -0.09136963 0.9711914
vn 0.7197266 -0.1431885 0.6796875
vn 0.2205811 -0.09136963 0.9711914
vn -0.6098633 -0.4077148 0.6796875
vn -0.1984863 -0.1326904 0.9711914
vn 0.6777344 -0.2807617 0.6796875
vn 0.1984863 -0.1326904 0.9711914
vn -0.519043 -0.519043 0.6796875
vn -0.1688232 -0.1688232 0.9711914
vn 0.6098633 -0.4077148 0.6796875
vn 0.1688232 -0.1688232 0.9711914
vn -0.4077148 -0.6098633 0.6796875
vn -0.1326904 -0.1984863 0.9711914
vn 0.519043 -0.519043 0.6796875
vn 0.1326904 -0.1984863 0.9711914
vn -0.2807617 -0.6777344 0.6796875
vn -0.09136963 -0.2205811 0.9711914
vn 0.4077148 -0.6098633 0.6796875
vn 0.09136963 -0.2205811 0.9711914
vn -0.1431885 -0.7197266 0.6796875
vn -0.04656982 -0.2341309 0.9711914
vn 0.2807617 -0.6777344 0.6796875
vn 0.04656982 -0.2341309 0.9711914
vn 6.556511E-07 -0.7338867 0.6796875
vn 2.384186E-07 -0.2387695 0.9711914
vn 0.1431885 -0.7197266 0.6796875
vn -0.3691406 -0.8911133 0.263916
vn -0.5356445 -0.8017578 0.263916
vn -0.1881104 -0.9458008 0.263916
vn 8.940697E-07 -0.9643555 0.2641602
vn -0.6821289 -0.6821289 0.263916
vn 0.1881104 -0.9458008 0.263916
vn 0.3691406 -0.8911133 0.263916
vn -0.8017578 -0.5356445 0.263916
vn 0.5356445 -0.8017578 0.263916
vn -0.8911133 -0.3691406 0.263916
vn 0.6821289 -0.6821289 0.263916
vn -0.9458008 -0.1881104 0.263916
vn 0.8017578 -0.5356445 0.263916
vn -0.9643555 -3.576279E-07 0.263916
vn 0.8911133 -0.3691406 0.263916
vn -0.9458008 0.1881104 0.2641602
vn 0.9458008 -0.1881104 0.263916
vn -0.8911133 0.3691406 0.2641602
vn 0.9643555 1.490116E-06 0.263916
vn -0.8017578 0.5356445 0.2641602
vn 0.9458008 0.1881104 0.263916
vn -0.6821289 0.6821289 0.2641602
vn 0.8911133 0.3691406 0.263916
vn -0.5356445 0.8017578 0.2641602
vn 0.8017578 0.5356445 0.2641602
vn -0.3691406 0.8911133 0.2641602
vn 0.6821289 0.6821289 0.263916
vn -0.1881104 0.9458008 0.2641602
vn 0.5356445 0.8017578 0.263916
vn -7.152557E-07 0.9643555 0.263916
vn 0.3691406 0.8911133 0.263916
vn 0.1881104 0.9458008 0.263916
vn -2.384186E-07 0.2387695 0.9711914
vn -1.192093E-07 0.1081543 0.9941406
vn -0.02110291 0.1060791 0.9941406
vn -0.04656982 0.2341309 0.9711914
vn 0.04656982 0.2341309 0.9711914
vn -0.04138184 0.09991455 0.9941406
vn 0.02110291 0.1060791 0.9941406
vn -0.09136963 0.2205811 0.9711914
vn 0.09136963 0.2205811 0.9711914
vn -0.06008911 0.08990479 0.9941406
vn 0.04138184 0.09991455 0.9941406
vn -0.1326904 0.1984863 0.9711914
vn 0.1326904 0.1984863 0.9711914
vn -0.07647705 0.07647705 0.9941406
vn 0.06008911 0.08990479 0.9941406
vn -0.1688232 0.1688232 0.9711914
vn 0.1688232 0.1688232 0.9711914
vn -0.08990479 0.06008911 0.9941406
vn 0.07647705 0.07647705 0.9941406
vn -0.1984863 0.1326904 0.9711914
vn 0.1984863 0.1326904 0.9711914
vn -0.09991455 0.04138184 0.9941406
vn 0.08990479 0.06008911 0.9941406
vn -0.2205811 0.09136963 0.9711914
vn 0.2205811 0.09136963 0.9711914
vn -0.1060791 0.02110291 0.9941406
vn 0.09991455 0.04138184 0.9941406
vn -0.2341309 0.04656982 0.9711914
vn 0.2341309 0.04656982 0.9711914
vn -0.1081543 -1.192093E-07 0.9941406
vn 0.1060791 0.02110291 0.9941406
vn -0.2387695 -1.192093E-07 0.9711914
vn 0.2387695 2.384186E-07 0.9711914
vn -0.1060791 -0.02110291 0.9941406
vn 0.1081543 0 0.9941406
vn -0.2341309 -0.04656982 0.9711914
vn 0.2341309 -0.04656982 0.9711914
vn -0.09991455 -0.04138184 0.9941406
vn 0.1060791 -0.02110291 0.9941406
vn -0.2205811 -0.09136963 0.9711914
vn 0.2205811 -0.09136963 0.9711914
vn -0.08990479 -0.06008911 0.9941406
vn 0.09991455 -0.04138184 0.9941406
vn -0.1984863 -0.1326904 0.9711914
vn 0.1984863 -0.1326904 0.9711914
vn -0.07647705 -0.07647705 0.9941406
vn 0.08990479 -0.06008911 0.9941406
vn -0.1688232 -0.1688232 0.9711914
vn 0.1688232 -0.1688232 0.9711914
vn -0.06008911 -0.08990479 0.9941406
vn 0.07647705 -0.07647705 0.9941406
vn -0.1326904 -0.1984863 0.9711914
vn 0.1326904 -0.1984863 0.9711914
vn -0.04138184 -0.09991455 0.9941406
vn 0.06008911 -0.08990479 0.9941406
vn -0.09136963 -0.2205811 0.9711914
vn 0.09136963 -0.2205811 0.9711914
vn -0.02110291 -0.1060791 0.9941406
vn 0.04138184 -0.09991455 0.9941406
vn -0.04656982 -0.2341309 0.9711914
vn 0.04656982 -0.2341309 0.9711914
vn 0 -0.1081543 0.9941406
vn 0.02110291 -0.1060791 0.9941406
vn 2.384186E-07 -0.2387695 0.9711914
g Target_03_0
f 3/3/3 2/2/2 1/1/1
f 2/2/2 4/4/4 1/1/1
f 5/5/5 3/3/3 1/1/1
f 4/4/4 6/6/6 1/1/1
f 7/7/7 5/5/5 1/1/1
f 6/6/6 8/8/8 1/1/1
f 9/9/9 7/7/7 1/1/1
f 8/8/8 10/10/10 1/1/1
f 11/11/11 9/9/9 1/1/1
f 10/10/10 12/12/12 1/1/1
f 13/13/13 11/11/11 1/1/1
f 12/12/12 14/14/14 1/1/1
f 15/15/15 13/13/13 1/1/1
f 14/14/14 16/16/16 1/1/1
f 17/17/17 15/15/15 1/1/1
f 16/16/16 18/18/18 1/1/1
f 19/19/19 17/17/17 1/1/1
f 18/18/18 20/20/20 1/1/1
f 21/21/21 19/19/19 1/1/1
f 20/20/20 22/22/22 1/1/1
f 23/23/23 21/21/21 1/1/1
f 22/22/22 24/24/24 1/1/1
f 25/25/25 23/23/23 1/1/1
f 24/24/24 26/26/26 1/1/1
f 27/27/27 25/25/25 1/1/1
f 26/26/26 28/28/28 1/1/1
f 29/29/29 27/27/27 1/1/1
f 28/28/28 30/30/30 1/1/1
f 31/31/31 29/29/29 1/1/1
f 30/30/30 32/32/32 1/1/1
f 33/33/33 31/31/31 1/1/1
f 32/32/32 33/33/33 1/1/1
f 36/36/36 35/35/35 34/34/34
f 37/37/37 36/36/36 34/34/34
f 37/37/37 34/34/34 38/38/38
f 36/36/36 39/39/39 35/35/35
f 39/39/39 40/40/40 35/35/35
f 41/41/41 37/37/37 38/38/38
f 41/41/41 38/38/38 42/42/42
f 39/39/39 43/43/43 40/40/40
f 43/43/43 44/44/44 40/40/40
f 45/45/45 41/41/41 42/42/42
f 45/45/45 42/42/42 46/46/46
f 43/43/43 47/47/47 44/44/44
f 47/47/47 48/48/48 44/44/44
f 49/49/49 45/45/45 46/46/46
f 49/49/49 46/46/46 50/50/50
f 47/47/47 51/51/51 48/48/48
f 51/51/51 52/52/52 48/48/48
f 53/53/53 49/49/49 50/50/50
f 53/53/53 50/50/50 54/54/54
f 51/51/51 55/55/55 52/52/52
f 55/55/55 56/56/56 52/52/52
f 57/57/57 53/53/53 54/54/54
f 57/57/57 54/54/54 58/58/58
f 55/55/55 59/59/59 56/56/56
f 59/59/59 60/60/60 56/56/56
f 61/61/61 57/57/57 58/58/58
f 61/61/61 58/58/58 62/62/62
f 59/59/59 63/63/63 60/60/60
f 63/63/63 64/64/64 60/60/60
f 65/65/65 61/61/61 62/62/62
f 65/65/65 62/62/62 66/66/66
f 63/63/63 67/67/67 64/64/64
f 67/67/67 68/68/68 64/64/64
f 69/69/69 65/65/65 66/66/66
f 69/69/69 66/66/66 70/70/70
f 67/67/67 71/71/71 68/68/68
f 71/71/71 72/72/72 68/68/68
f 73/73/73 69/69/69 70/70/70
f 73/73/73 70/70/70 74/74/74
f 71/71/71 75/75/75 72/72/72
f 75/75/75 76/76/76 72/72/72
f 77/77/77 73/73/73 74/74/74
f 77/77/77 74/74/74 78/78/78
f 75/75/75 79/79/79 76/76/76
f 79/79/79 80/80/80 76/76/76
f 81/81/81 77/77/77 78/78/78
f 81/81/81 78/78/78 82/82/82
f 79/79/79 83/83/83 80/80/80
f 83/83/83 84/84/84 80/80/80
f 85/85/85 81/81/81 82/82/82
f 85/85/85 82/82/82 86/86/86
f 83/83/83 87/87/87 84/84/84
f 87/87/87 88/88/88 84/84/84
f 89/89/89 85/85/85 86/86/86
f 89/89/89 86/86/86 90/90/90
f 87/87/87 91/91/91 88/88/88
f 91/91/91 92/92/92 88/88/88
f 93/93/93 89/89/89 90/90/90
f 93/93/93 90/90/90 94/94/94
f 91/91/91 95/95/95 92/92/92
f 95/95/95 96/96/96 92/92/92
f 97/97/97 94/94/94 96/96/96
f 97/97/97 93/93/93 94/94/94
f 95/95/95 97/97/97 96/96/96
f 98/98/98 87/87/87 83/83/83
f 99/99/99 98/98/98 83/83/83
f 98/98/98 100/100/100 87/87/87
f 100/100/100 91/91/91 87/87/87
f 99/99/99 83/83/83 79/79/79
f 100/100/100 101/101/101 91/91/91
f 101/101/101 95/95/95 91/91/91
f 102/102/102 99/99/99 79/79/79
f 101/101/101 103/103/103 95/95/95
f 103/103/103 97/97/97 95/95/95
f 102/102/102 79/79/79 75/75/75
f 103/103/103 104/104/104 97/97/97
f 104/104/104 93/93/93 97/97/97
f 105/105/105 102/102/102 75/75/75
f 104/104/104 106/106/106 93/93/93
f 105/105/105 75/75/75 71/71/71
f 106/106/106 89/89/89 93/93/93
f 107/107/107 105/105/105 71/71/71
f 106/106/106 108/108/108 89/89/89
f 107/107/107 71/71/71 67/67/67
f 108/108/108 85/85/85 89/89/89
f 109/109/109 107/107/107 67/67/67
f 108/108/108 110/110/110 85/85/85
f 109/109/109 67/67/67 63/63/63
f 110/110/110 81/81/81 85/85/85
f 111/111/111 109/109/109 63/63/63
f 110/110/110 112/112/112 81/81/81
f 111/111/111 63/63/63 59/59/59
f 112/112/112 77/77/77 81/81/81
f 113/113/113 111/111/111 59/59/59
f 112/112/112 114/114/114 77/77/77
f 113/113/113 59/59/59 55/55/55
f 114/114/114 73/73/73 77/77/77
f 115/115/115 113/113/113 55/55/55
f 114/114/114 116/116/116 73/73/73
f 115/115/115 55/55/55 51/51/51
f 116/116/116 69/69/69 73/73/73
f 117/117/117 115/115/115 51/51/51
f 116/116/116 118/118/118 69/69/69
f 117/117/117 51/51/51 47/47/47
f 118/118/118 65/65/65 69/69/69
f 119/119/119 117/117/117 47/47/47
f 118/118/118 120/120/120 65/65/65
f 119/119/119 47/47/47 43/43/43
f 120/120/120 61/61/61 65/65/65
f 121/121/121 119/119/119 43/43/43
f 120/120/120 122/122/122 61/61/61
f 121/121/121 43/43/43 39/39/39
f 122/122/122 57/57/57 61/61/61
f 123/123/123 121/121/121 39/39/39
f 122/122/122 124/124/124 57/57/57
f 123/123/123 39/39/39 36/36/36
f 124/124/124 53/53/53 57/57/57
f 125/125/125 123/123/123 36/36/36
f 124/124/124 126/126/126 53/53/53
f 125/125/125 36/36/36 37/37/37
f 126/126/126 49/49/49 53/53/53
f 127/127/127 125/125/125 37/37/37
f 126/126/126 128/128/128 49/49/49
f 127/127/127 37/37/37 41/41/41
f 128/128/128 45/45/45 49/49/49
f 129/129/129 127/127/127 41/41/41
f 129/129/129 41/41/41 45/45/45
f 128/128/128 129/129/129 45/45/45
f 132/132/132 131/131/131 130/130/130
f 133/133/133 132/132/132 130/130/130
f 130/130/130 131/131/131 134/134/134
f 135/135/135 132/132/132 133/133/133
f 131/131/131 136/136/136 134/134/134
f 137/137/137 135/135/135 133/133/133
f 134/134/134 136/136/136 138/138/138
f 139/139/139 135/135/135 137/137/137
f 136/136/136 140/140/140 138/138/138
f 141/141/141 139/139/139 137/137/137
f 138/138/138 140/140/140 142/142/142
f 143/143/143 139/139/139 141/141/141
f 140/140/140 144/144/144 142/142/142
f 145/145/145 143/143/143 141/141/141
f 142/142/142 144/144/144 146/146/146
f 147/147/147 143/143/143 145/145/145
f 144/144/144 148/148/148 146/146/146
f 149/149/149 147/147/147 145/145/145
f 146/146/146 148/148/148 150/150/150
f 151/151/151 147/147/147 149/149/149
f 148/148/148 152/152/152 150/150/150
f 153/153/153 151/151/151 149/149/149
f 150/150/150 152/152/152 154/154/154
f 155/155/155 151/151/151 153/153/153
f 152/152/152 156/156/156 154/154/154
f 157/157/157 155/155/155 153/153/153
f 154/154/154 156/156/156 158/158/158
f 159/159/159 155/155/155 157/157/157
f 156/156/156 160/160/160 158/158/158
f 161/161/161 159/159/159 157/157/157
f 158/158/158 160/160/160 162/162/162
f 163/163/163 159/159/159 161/161/161
f 160/160/160 164/164/164 162/162/162
f 165/165/165 163/163/163 161/161/161
f 162/162/162 164/164/164 166/166/166
f 167/167/167 163/163/163 165/165/165
f 164/164/164 168/168/168 166/166/166
f 169/169/169 167/167/167 165/165/165
f 166/166/166 168/168/168 170/170/170
f 171/171/171 167/167/167 169/169/169
f 168/168/168 172/172/172 170/170/170
f 173/173/173 171/171/171 169/169/169
f 170/170/170 172/172/172 174/174/174
f 175/175/175 171/171/171 173/173/173
f 172/172/172 176/176/176 174/174/174
f 177/177/177 175/175/175 173/173/173
f 174/174/174 176/176/176 178/178/178
f 179/179/179 175/175/175 177/177/177
f 176/176/176 180/180/180 178/178/178
f 181/181/181 179/179/179 177/177/177
f 178/178/178 180/180/180 182/182/182
f 183/183/183 179/179/179 181/181/181
f 180/180/180 184/184/184 182/182/182
f 185/185/185 183/183/183 181/181/181
f 182/182/182 184/184/184 186/186/186
f 187/187/187 183/183/183 185/185/185
f 184/184/184 188/188/188 186/186/186
f 189/189/189 187/187/187 185/185/185
f 186/186/186 188/188/188 190/190/190
f 191/191/191 187/187/187 189/189/189
f 188/188/188 192/192/192 190/190/190
f 193/193/193 191/191/191 189/189/189
f 190/190/190 192/192/192 193/193/193
f 192/192/192 191/191/191 193/193/193
