g tile-mainroad-straight
v -15 0 0
v -15 -1.490136E-06 15
v -15 -2.000001 15
v -15 -1.999999 0
v -15 -2.000001 -15
v -15 -1.490136E-06 -15
v -8.250042 -1.490136E-06 15
v -8.250042 -2.000001 15
v -15 -2.000001 15
v -15 -1.490136E-06 15
v -8.250042 -1.490136E-06 15
v -15 -1.490136E-06 15
v -15 0 0
v -8.250042 0 0
v -8.250042 -1.490136E-06 -15
v -15 -1.490136E-06 -15
v 15 0 0
v 15 -2.000001 15
v 15 -1.490136E-06 15
v 15 -1.999999 0
v 15 -2.000001 -15
v 15 -1.490136E-06 -15
v 8.250042 -1.490136E-06 15
v 15 -1.490136E-06 15
v 15 -2.000001 15
v 8.250042 -2.000001 15
v 8.250042 -1.490136E-06 15
v 15 0 0
v 15 -1.490136E-06 15
v 8.250042 0 0
v 8.250042 -1.490136E-06 -15
v 15 -1.490136E-06 -15
v -8.250042 -1.490136E-06 -15
v -15 -1.490136E-06 -15
v -15 -2.000001 -15
v -8.250042 -2.000001 -15
v 8.250042 -1.490136E-06 -15
v 8.250042 -2.000001 -15
v 15 -2.000001 -15
v 15 -1.490136E-06 -15
v -8.250042 -2.000001 15
v -15 -6.000003 15
v -15 -2.000001 15
v -6.250043 -2.000001 15
v 6.250043 -2.000001 15
v 15 -6.000003 15
v 8.250042 -2.000001 15
v 15 -2.000001 15
v -15 -2.000001 15
v -15 -6.000003 15
v -15 -6.000001 0
v -15 -1.999999 0
v -15 -2.000001 -15
v -15 -6.000003 -15
v 15 -2.000001 15
v 15 -6.000001 0
v 15 -6.000003 15
v 15 -1.999999 0
v 15 -2.000001 -15
v 15 -6.000003 -15
v -8.250042 -2.000001 -15
v -15 -2.000001 -15
v -15 -6.000003 -15
v -6.250043 -2.000001 -15
v 6.250043 -2.000001 -15
v 15 -6.000003 -15
v 8.250042 -2.000001 -15
v 15 -2.000001 -15
v -6.250043 -2.000001 15
v -8.250042 -2.000001 15
v -6.250041 -0.2000022 15
v -6.250043 -1.490136E-06 15
v -6.250041 -0.2000022 15
v -8.250042 -1.490136E-06 15
v 6.250043 -2.000001 15
v 6.250041 -0.2000022 15
v 8.250042 -2.000001 15
v 6.250043 -1.490136E-06 15
v 8.250042 -1.490136E-06 15
v 6.250041 -0.2000022 15
v -6.250043 -2.000001 -15
v -6.250041 -0.2000022 -15
v -8.250042 -2.000001 -15
v -6.250043 -1.490136E-06 -15
v -8.250042 -1.490136E-06 -15
v -6.250041 -0.2000022 -15
v 6.250043 -2.000001 -15
v 8.250042 -2.000001 -15
v 6.250041 -0.2000022 -15
v 6.250043 -1.490136E-06 -15
v 6.250041 -0.2000022 -15
v 8.250042 -1.490136E-06 -15
v -6.250043 0 0
v -6.250041 -0.2000022 15
v -6.250043 -1.490136E-06 15
v -6.250041 -0.2000003 0
v -6.250041 -0.2000022 -15
v -6.250043 -1.490136E-06 -15
v -6.250043 -1.490136E-06 15
v -8.250042 -1.490136E-06 15
v -8.250042 0 0
v -6.250043 0 0
v -6.250043 -1.490136E-06 -15
v -8.250042 0 0
v -8.250042 -1.490136E-06 -15
v 6.250043 0 0
v 6.250043 -1.490136E-06 15
v 6.250041 -0.2000022 15
v 6.250041 -0.2000003 0
v 6.250041 -0.2000022 -15
v 6.250043 -1.490136E-06 -15
v 6.250043 -1.490136E-06 15
v 8.250042 0 0
v 8.250042 -1.490136E-06 15
v 6.250043 0 0
v 6.250043 -1.490136E-06 -15
v 8.250042 0 0
v 8.250042 -1.490136E-06 -15
v -0.1500244 -0.2000022 15
v -6.250043 -2.000001 15
v -6.250041 -0.2000022 15
v 6.250043 -2.000001 15
v 0.1500244 -0.2000022 15
v 6.250041 -0.2000022 15
v 0.1500244 -0.2000022 -15
v 6.250043 -2.000001 -15
v 6.250041 -0.2000022 -15
v -0.1500244 -0.2000022 -15
v -6.250043 -2.000001 -15
v -6.250041 -0.2000022 -15
v -3.09726 -0.2000003 13.33
v -6.250041 -0.2000022 15
v -3.297363 -0.2000003 13.33
v -3.297363 -0.1999993 11.66336
v -0.1500244 -0.2000022 15
v -3.09726 -0.1999993 11.66336
v -3.09726 -0.1999992 8.330048
v -3.297363 -0.1999992 8.330048
v -3.09726 -0.1999991 6.663396
v -0.1500244 -0.2000022 0
v -3.297363 -0.1999991 6.663396
v -3.09726 -0.199999 3.330104
v -3.297363 -0.199999 3.330104
v -6.250041 -0.2000003 0
v -3.09726 -0.1999989 1.663457
v -3.297363 -0.1999989 1.663457
v -3.09726 -0.1999989 0
v -3.297363 -0.1999989 0
v -3.297363 -0.1999989 -1.663457
v -3.09726 -0.1999989 -1.663457
v -3.297363 -0.199999 -3.330104
v -3.09726 -0.199999 -3.330104
v -6.250041 -0.2000022 -15
v -3.297363 -0.1999991 -6.663396
v -3.09726 -0.1999991 -6.663396
v -0.1500244 -0.2000022 -15
v -3.297363 -0.1999992 -8.330048
v -3.09726 -0.1999992 -8.330048
v -3.297363 -0.1999993 -11.66336
v -3.09726 -0.1999993 -11.66336
v -3.297363 -0.2000003 -13.33
v -3.09726 -0.2000003 -13.33
v 3.09726 -0.2000003 13.33
v 3.297363 -0.2000003 13.33
v 6.250041 -0.2000022 15
v 3.297363 -0.1999993 11.66336
v 0.1500244 -0.2000022 15
v 3.09726 -0.1999993 11.66336
v 3.09726 -0.1999992 8.330048
v 3.297363 -0.1999992 8.330048
v 3.09726 -0.1999991 6.663396
v 0.1500244 -0.2000022 0
v 3.297363 -0.1999991 6.663396
v 3.09726 -0.199999 3.330104
v 3.297363 -0.199999 3.330104
v 6.250041 -0.2000003 0
v 3.09726 -0.1999989 1.663457
v 3.297363 -0.1999989 1.663457
v 3.09726 -0.1999989 0
v 3.297363 -0.1999989 0
v 3.297363 -0.1999989 -1.663457
v 3.09726 -0.1999989 -1.663457
v 3.297363 -0.199999 -3.330104
v 3.09726 -0.199999 -3.330104
v 6.250041 -0.2000022 -15
v 3.297363 -0.1999991 -6.663396
v 3.09726 -0.1999991 -6.663396
v 0.1500244 -0.2000022 -15
v 3.297363 -0.1999992 -8.330048
v 3.09726 -0.1999992 -8.330048
v 3.297363 -0.1999993 -11.66336
v 3.09726 -0.1999993 -11.66336
v 3.297363 -0.2000003 -13.33
v 3.09726 -0.2000003 -13.33
v -3.09726 -0.1999993 11.66336
v -3.09726 -0.2000003 13.33
v -3.297363 -0.2000003 13.33
v -3.297363 -0.1999993 11.66336
v -3.09726 -0.1999991 6.663396
v -3.09726 -0.1999992 8.330048
v -3.297363 -0.1999992 8.330048
v -3.297363 -0.1999991 6.663396
v -3.09726 -0.1999989 1.663457
v -3.09726 -0.199999 3.330104
v -3.297363 -0.199999 3.330104
v -3.297363 -0.1999989 1.663457
v 3.09726 -0.1999993 11.66336
v 3.297363 -0.1999993 11.66336
v 3.297363 -0.2000003 13.33
v 3.09726 -0.2000003 13.33
v 3.09726 -0.1999991 6.663396
v 3.297363 -0.1999991 6.663396
v 3.297363 -0.1999992 8.330048
v 3.09726 -0.1999992 8.330048
v 3.09726 -0.1999989 1.663457
v 3.297363 -0.1999989 1.663457
v 3.297363 -0.199999 3.330104
v 3.09726 -0.199999 3.330104
v -3.09726 -0.1999993 -11.66336
v -3.297363 -0.1999993 -11.66336
v -3.297363 -0.2000003 -13.33
v -3.09726 -0.2000003 -13.33
v -3.09726 -0.1999991 -6.663396
v -3.297363 -0.1999991 -6.663396
v -3.297363 -0.1999992 -8.330048
v -3.09726 -0.1999992 -8.330048
v -3.09726 -0.1999989 -1.663457
v -3.297363 -0.1999989 -1.663457
v -3.297363 -0.199999 -3.330104
v -3.09726 -0.199999 -3.330104
v 3.09726 -0.1999991 -6.663396
v 3.09726 -0.1999992 -8.330048
v 3.297363 -0.1999992 -8.330048
v 3.297363 -0.1999991 -6.663396
v 3.09726 -0.1999989 -1.663457
v 3.09726 -0.199999 -3.330104
v 3.297363 -0.199999 -3.330104
v 3.297363 -0.1999989 -1.663457
v 3.09726 -0.1999993 -11.66336
v 3.09726 -0.2000003 -13.33
v 3.297363 -0.2000003 -13.33
v 3.297363 -0.1999993 -11.66336
v 0.1500244 -0.2000022 -15
v -0.1500244 -0.2000022 0
v -0.1500244 -0.2000022 -15
v 0.1500244 -0.2000022 0
v 0.1500244 -0.2000022 15
v -0.1500244 -0.2000022 15
vt 0.2736816 0.3190918
vt 0.2736816 0.03796387
vt 0.236084 0.03796387
vt 0.236084 0.3190918
vt 0.236084 0.6000977
vt 0.2736816 0.6000977
vt 0.4001465 0.03796387
vt 0.4001465 0.0004861355
vt 0.2736816 0.0004861355
vt 0.2736816 0.03796387
vt 0.4001465 0.03796387
vt 0.2736816 0.03796387
vt 0.2736816 0.3190918
vt 0.4001465 0.3190918
vt 0.4001465 0.6000977
vt 0.2736816 0.6000977
vt 0.5273438 0.3190918
vt 0.5649414 0.03796387
vt 0.5273438 0.03796387
vt 0.5649414 0.3190918
vt 0.5649414 0.6000977
vt 0.5273438 0.6000977
vt 0.401123 0.03796387
vt 0.5273438 0.03796387
vt 0.5273438 0.0004861355
vt 0.401123 0.0004861355
vt 0.401123 0.03796387
vt 0.5273438 0.3190918
vt 0.5273438 0.03796387
vt 0.401123 0.3190918
vt 0.401123 0.6000977
vt 0.5273438 0.6000977
vt 0.4001465 0.6000977
vt 0.2736816 0.6000977
vt 0.2736816 0.6376953
vt 0.4001465 0.6376953
vt 0.401123 0.6000977
vt 0.401123 0.6376953
vt 0.5273438 0.6376953
vt 0.5273438 0.6000977
vt 0.7939453 0.1269531
vt 0.8686523 0.0004861355
vt 0.7939453 0.0004861355
vt 0.7939453 0.1644287
vt 0.7939453 0.3986816
vt 0.8686523 0.5625
vt 0.7939453 0.4362793
vt 0.7939453 0.5625
vt 0.565918 0.5625
vt 0.6411133 0.5625
vt 0.6411133 0.2814941
vt 0.565918 0.2814941
vt 0.565918 0.0004861355
vt 0.6411133 0.0004861355
vt 0.6420898 0.0004861355
vt 0.7167969 0.2814941
vt 0.7167969 0.0004861355
vt 0.6420898 0.2814941
vt 0.6420898 0.5625
vt 0.7167969 0.5625
vt 0.7177734 0.4362793
vt 0.7177734 0.5625
vt 0.7929688 0.5625
vt 0.7177734 0.3986816
vt 0.7177734 0.1644287
vt 0.7929688 0.0004861355
vt 0.7177734 0.1269531
vt 0.7177734 0.0004861355
vt 0.9926758 0.02218628
vt 0.9545898 0.0004861355
vt 0.9736328 0.05679321
vt 0.9692383 0.05938721
vt 0.9736328 0.05679321
vt 0.9326172 0.03894043
vt 0.9306641 0.6079102
vt 0.9111328 0.5732422
vt 0.8925781 0.6293945
vt 0.9067383 0.5708008
vt 0.8706055 0.5913086
vt 0.9111328 0.5732422
vt 0.9926758 0.6079102
vt 0.9736328 0.5732422
vt 0.9545898 0.6293945
vt 0.9692383 0.5708008
vt 0.9326172 0.5913086
vt 0.9736328 0.5732422
vt 0.9306641 0.02218628
vt 0.8925781 0.0004861355
vt 0.9111328 0.05679321
vt 0.9067383 0.05938721
vt 0.9111328 0.05679321
vt 0.8706055 0.03894043
vt 0.96875 0.3149414
vt 0.9736328 0.05679321
vt 0.9692383 0.05938721
vt 0.9746094 0.3149414
vt 0.9736328 0.5732422
vt 0.9692383 0.5708008
vt 0.9692383 0.05938721
vt 0.9326172 0.03894043
vt 0.9316406 0.3149414
vt 0.96875 0.3149414
vt 0.9692383 0.5708008
vt 0.9316406 0.3149414
vt 0.9326172 0.5913086
vt 0.90625 0.3149414
vt 0.9067383 0.5708008
vt 0.9111328 0.5732422
vt 0.9125977 0.3149414
vt 0.9111328 0.05679321
vt 0.9067383 0.05938721
vt 0.9067383 0.5708008
vt 0.8696289 0.3149414
vt 0.8706055 0.5913086
vt 0.90625 0.3149414
vt 0.9067383 0.05938721
vt 0.8696289 0.3149414
vt 0.8706055 0.03894043
vt 0.1151733 0.03448486
vt 0.00100708 0.0006051064
vt 0.0009660721 0.03433228
vt 0.2351074 0.0004861355
vt 0.1208496 0.03421021
vt 0.2351074 0.03421021
vt 0.1208496 0.5961914
vt 0.2351074 0.6303711
vt 0.2351074 0.5961914
vt 0.1142578 0.5961914
vt 0.0005550385 0.6293945
vt 0.0004861355 0.5961914
vt 0.05999756 0.06567383
vt 0.0009660721 0.03433228
vt 0.0562439 0.06567383
vt 0.05621338 0.09692383
vt 0.1151733 0.03448486
vt 0.05996704 0.09692383
vt 0.05993652 0.1593018
vt 0.05618286 0.1593018
vt 0.05993652 0.1905518
vt 0.1151123 0.3154297
vt 0.05618286 0.1905518
vt 0.05990601 0.2529297
vt 0.05615234 0.2529297
vt 0.0008192062 0.3151855
vt 0.05990601 0.2841797
vt 0.05615234 0.2841797
vt 0.05987549 0.3154297
vt 0.05612183 0.3154297
vt 0.05606079 0.3464355
vt 0.05981445 0.3464355
vt 0.05599976 0.3776855
vt 0.05975342 0.3776855
vt 0.0004861355 0.5961914
vt 0.05587769 0.4399414
vt 0.05960083 0.4399414
vt 0.1142578 0.5961914
vt 0.05581665 0.4711914
vt 0.05953979 0.4711914
vt 0.05569458 0.5336914
vt 0.05941772 0.5336914
vt 0.05563354 0.5649414
vt 0.05932617 0.5649414
vt 0.1760254 0.06555176
vt 0.1798096 0.06549072
vt 0.2351074 0.03421021
vt 0.1798096 0.09674072
vt 0.1208496 0.03421021
vt 0.1760254 0.09674072
vt 0.1760254 0.1591797
vt 0.1798096 0.1591797
vt 0.1760254 0.1904297
vt 0.1207886 0.3154297
vt 0.1798096 0.1904297
vt 0.1760254 0.2529297
vt 0.1798096 0.2529297
vt 0.2351074 0.3154297
vt 0.1760254 0.2841797
vt 0.1798096 0.2841797
vt 0.1760254 0.3154297
vt 0.1798096 0.3154297
vt 0.1798096 0.3464355
vt 0.1760254 0.3464355
vt 0.1798096 0.3776855
vt 0.1760254 0.3776855
vt 0.2351074 0.5961914
vt 0.1798096 0.4401855
vt 0.1760254 0.4401855
vt 0.1208496 0.5961914
vt 0.1798096 0.4714355
vt 0.1760254 0.4714355
vt 0.1798096 0.5336914
vt 0.1760254 0.5336914
vt 0.1798096 0.5649414
vt 0.1760254 0.5649414
vt 0.6030273 0.5947266
vt 0.6030273 0.5634766
vt 0.5991211 0.5634766
vt 0.5991211 0.5947266
vt 0.565918 0.5996094
vt 0.597168 0.5996094
vt 0.597168 0.5957031
vt 0.565918 0.5957031
vt 0.5800781 0.5634766
vt 0.5800781 0.5947266
vt 0.5839844 0.5947266
vt 0.5839844 0.5634766
vt 0.5893555 0.5947266
vt 0.5932617 0.5947266
vt 0.5932617 0.5634766
vt 0.5893555 0.5634766
vt 0.5742188 0.5634766
vt 0.5708008 0.5634766
vt 0.5708008 0.5947266
vt 0.5742188 0.5947266
vt 0.565918 0.6054688
vt 0.565918 0.6088867
vt 0.597168 0.6088867
vt 0.597168 0.6054688
vt 0.5981445 0.5634766
vt 0.5942383 0.5634766
vt 0.5942383 0.5947266
vt 0.5981445 0.5947266
vt 0.5698242 0.5634766
vt 0.565918 0.5634766
vt 0.565918 0.5947266
vt 0.5698242 0.5947266
vt 0.5883789 0.5634766
vt 0.5849609 0.5634766
vt 0.5849609 0.5947266
vt 0.5883789 0.5947266
vt 0.5791016 0.5947266
vt 0.5791016 0.5634766
vt 0.5751953 0.5634766
vt 0.5751953 0.5947266
vt 0.597168 0.6005859
vt 0.565918 0.6005859
vt 0.565918 0.6044922
vt 0.597168 0.6044922
vt 0.6035156 0.5634766
vt 0.6035156 0.5947266
vt 0.6074219 0.5947266
vt 0.6074219 0.5634766
vt 0.9995117 0.5625
vt 0.9936523 0.2814941
vt 0.9936523 0.5625
vt 0.9995117 0.2814941
vt 0.9995117 0.0004861355
vt 0.9936523 0.0004861355
vn -1 0 0
vn -1 0 0
vn -1 0 0
vn -1 0 0
vn -1 0 0
vn -1 0 0
vn 0 0 1
vn 0 0 1
vn 0 0 1
vn 0 0 1
vn 0 1 0
vn 0 1 0
vn 0 1 0
vn 0 1 0
vn 0 1 0
vn 0 1 0
vn 1 0 0
vn 1 0 0
vn 1 0 0
vn 1 0 0
vn 1 0 0
vn 1 0 0
vn 0 0 1
vn 0 0 1
vn 0 0 1
vn 0 0 1
vn 0 1 0
vn 0 1 0
vn 0 1 0
vn 0 1 0
vn 0 1 0
vn 0 1 0
vn 0 0 -1
vn 0 0 -1
vn 0 0 -1
vn 0 0 -1
vn 0 0 -1
vn 0 0 -1
vn 0 0 -1
vn 0 0 -1
vn 0 0 1
vn 0 0 1
vn 0 0 1
vn 0 0 1
vn 0 0 1
vn 0 0 1
vn 0 0 1
vn 0 0 1
vn -1 0 0
vn -1 0 0
vn -1 0 0
vn -1 0 0
vn -1 0 0
vn -1 0 0
vn 1 0 0
vn 1 0 0
vn 1 0 0
vn 1 0 0
vn 1 0 0
vn 1 0 0
vn 0 0 -1
vn 0 0 -1
vn 0 0 -1
vn 0 0 -1
vn 0 0 -1
vn 0 0 -1
vn 0 0 -1
vn 0 0 -1
vn 0 0 1
vn 0 0 1
vn 0 0 1
vn 0 0 1
vn 0 0 1
vn 0 0 1
vn 0 0 1
vn 0 0 1
vn 0 0 1
vn 0 0 1
vn 0 0 1
vn 0 0 1
vn 0 0 -1
vn 0 0 -1
vn 0 0 -1
vn 0 0 -1
vn 0 0 -1
vn 0 0 -1
vn 0 0 -1
vn 0 0 -1
vn 0 0 -1
vn 0 0 -1
vn 0 0 -1
vn 0 0 -1
vn 1 0 0
vn 1 0 0
vn 1 0 0
vn 1 0 0
vn 1 0 0
vn 1 0 0
vn 0 1 0
vn 0 1 0
vn 0 1 0
vn 0 1 0
vn 0 1 0
vn 0 1 0
vn 0 1 0
vn -1 0 0
vn -1 0 0
vn -1 0 0
vn -1 0 0
vn -1 0 0
vn -1 0 0
vn 0 1 0
vn 0 1 0
vn 0 1 0
vn 0 1 0
vn 0 1 0
vn 0 1 0
vn 0 1 0
vn 0 0 1
vn 0 0 1
vn 0 0 1
vn 0 0 1
vn 0 0 1
vn 0 0 1
vn 0 0 -1
vn 0 0 -1
vn 0 0 -1
vn 0 0 -1
vn 0 0 -1
vn 0 0 -1
vn 0 1 0
vn 0 1 0
vn 0 1 0
vn 0 1 0
vn 0 1 0
vn 0 1 0
vn 0 1 0
vn 0 1 0
vn 0 1 0
vn 0 1 0
vn 0 1 0
vn 0 1 0
vn 0 1 0
vn 0 1 0
vn 0 1 0
vn 0 1 0
vn 0 1 0
vn 0 1 0
vn 0 1 0
vn 0 1 0
vn 0 1 0
vn 0 1 0
vn 0 1 0
vn 0 1 0
vn 0 1 0
vn 0 1 0
vn 0 1 0
vn 0 1 0
vn 0 1 0
vn 0 1 0
vn 0 1 0
vn 0 1 0
vn 0 1 0
vn 0 1 0
vn 0 1 0
vn 0 1 0
vn 0 1 0
vn 0 1 0
vn 0 1 0
vn 0 1 0
vn 0 1 0
vn 0 1 0
vn 0 1 0
vn 0 1 0
vn 0 1 0
vn 0 1 0
vn 0 1 0
vn 0 1 0
vn 0 1 0
vn 0 1 0
vn 0 1 0
vn 0 1 0
vn 0 1 0
vn 0 1 0
vn 0 1 0
vn 0 1 0
vn 0 1 0
vn 0 1 0
vn 0 1 0
vn 0 1 0
vn 0 1 0
vn 0 1 0
vn 0 1 0
vn 0 1 0
vn 0 1 0
vn 0 1 0
vn 0 1 0
vn 0 1 0
vn 0 1 0
vn 0 1 0
vn 0 1 0
vn 0 1 0
vn 0 1 0
vn 0 1 0
vn 0 1 0
vn 0 1 0
vn 0 1 0
vn 0 1 0
vn 0 1 0
vn 0 1 0
vn 0 1 0
vn 0 1 0
vn 0 1 0
vn 0 1 0
vn 0 1 0
vn 0 1 0
vn 0 1 0
vn 0 1 0
vn 0 1 0
vn 0 1 0
vn 0 1 0
vn 0 1 0
vn 0 1 0
vn 0 1 0
vn 0 1 0
vn 0 1 0
vn 0 1 0
vn 0 1 0
vn 0 1 0
vn 0 1 0
vn 0 1 0
vn 0 1 0
vn 0 1 0
vn 0 1 0
vn 0 1 0
vn 0 1 0
vn 0 1 0
vn 0 1 0
vn 0 1 0
vn 0 1 0
vn 0 1 0
vn 0 1 0
vn 0 1 0
vn 0 1 0
vn 0 1 0
vn 0 1 0
vn 0 1 0
vn 0 1 0
g tile-mainroad-straight_0
f 3/3/3 2/2/2 1/1/1
f 4/4/4 3/3/3 1/1/1
f 5/5/5 4/4/4 1/1/1
f 6/6/6 5/5/5 1/1/1
f 9/9/9 8/8/8 7/7/7
f 10/10/10 9/9/9 7/7/7
f 13/13/13 12/12/12 11/11/11
f 14/14/14 13/13/13 11/11/11
f 13/13/13 14/14/14 15/15/15
f 16/16/16 13/13/13 15/15/15
f 19/19/19 18/18/18 17/17/17
f 18/18/18 20/20/20 17/17/17
f 20/20/20 21/21/21 17/17/17
f 21/21/21 22/22/22 17/17/17
f 25/25/25 24/24/24 23/23/23
f 26/26/26 25/25/25 23/23/23
f 29/29/29 28/28/28 27/27/27
f 28/28/28 30/30/30 27/27/27
f 30/30/30 28/28/28 31/31/31
f 28/28/28 32/32/32 31/31/31
f 35/35/35 34/34/34 33/33/33
f 36/36/36 35/35/35 33/33/33
f 39/39/39 38/38/38 37/37/37
f 40/40/40 39/39/39 37/37/37
g tile-mainroad-straight_1
f 43/43/43 42/42/42 41/41/41
f 41/41/41 42/42/42 44/44/44
f 44/44/44 42/42/42 45/45/45
f 42/42/42 46/46/46 45/45/45
f 46/46/46 47/47/47 45/45/45
f 46/46/46 48/48/48 47/47/47
f 51/51/51 50/50/50 49/49/49
f 52/52/52 51/51/51 49/49/49
f 51/51/51 52/52/52 53/53/53
f 54/54/54 51/51/51 53/53/53
f 57/57/57 56/56/56 55/55/55
f 56/56/56 58/58/58 55/55/55
f 58/58/58 56/56/56 59/59/59
f 56/56/56 60/60/60 59/59/59
f 63/63/63 62/62/62 61/61/61
f 63/63/63 61/61/61 64/64/64
f 63/63/63 64/64/64 65/65/65
f 66/66/66 63/63/63 65/65/65
f 67/67/67 66/66/66 65/65/65
f 68/68/68 66/66/66 67/67/67
g tile-mainroad-straight_2
f 71/71/71 70/70/70 69/69/69
f 70/70/70 73/73/73 72/72/72
f 74/74/74 70/70/70 72/72/72
f 77/77/77 76/76/76 75/75/75
f 77/77/77 79/79/79 78/78/78
f 80/80/80 77/77/77 78/78/78
f 83/83/83 82/82/82 81/81/81
f 83/83/83 85/85/85 84/84/84
f 86/86/86 83/83/83 84/84/84
f 89/89/89 88/88/88 87/87/87
f 88/88/88 91/91/91 90/90/90
f 92/92/92 88/88/88 90/90/90
f 95/95/95 94/94/94 93/93/93
f 94/94/94 96/96/96 93/93/93
f 96/96/96 97/97/97 93/93/93
f 97/97/97 98/98/98 93/93/93
f 101/101/101 100/100/100 99/99/99
f 102/102/102 101/101/101 99/99/99
f 104/104/104 102/102/102 103/103/103
f 105/105/105 104/104/104 103/103/103
f 108/108/108 107/107/107 106/106/106
f 109/109/109 108/108/108 106/106/106
f 110/110/110 109/109/109 106/106/106
f 111/111/111 110/110/110 106/106/106
f 114/114/114 113/113/113 112/112/112
f 113/113/113 115/115/115 112/112/112
f 115/115/115 117/117/117 116/116/116
f 117/117/117 118/118/118 116/116/116
g tile-mainroad-straight_3
f 121/121/121 120/120/120 119/119/119
f 119/119/119 120/120/120 122/122/122
f 123/123/123 119/119/119 122/122/122
f 122/122/122 124/124/124 123/123/123
f 127/127/127 126/126/126 125/125/125
f 128/128/128 125/125/125 126/126/126
f 129/129/129 128/128/128 126/126/126
f 128/128/128 129/129/129 130/130/130
f 133/133/133 132/132/132 131/131/131
f 134/134/134 132/132/132 133/133/133
f 132/132/132 135/135/135 131/131/131
f 135/135/135 136/136/136 131/131/131
f 134/134/134 136/136/136 137/137/137
f 135/135/135 137/137/137 136/136/136
f 138/138/138 134/134/134 137/137/137
f 138/138/138 132/132/132 134/134/134
f 135/135/135 139/139/139 137/137/137
f 135/135/135 140/140/140 139/139/139
f 132/132/132 138/138/138 141/141/141
f 141/141/141 139/139/139 142/142/142
f 140/140/140 142/142/142 139/139/139
f 141/141/141 143/143/143 132/132/132
f 143/143/143 141/141/141 142/142/142
f 143/143/143 144/144/144 132/132/132
f 140/140/140 145/145/145 142/142/142
f 146/146/146 144/144/144 143/143/143
f 146/146/146 145/145/145 147/147/147
f 140/140/140 147/147/147 145/145/145
f 148/148/148 144/144/144 146/146/146
f 148/148/148 146/146/146 147/147/147
f 144/144/144 148/148/148 149/149/149
f 149/149/149 148/148/148 147/147/147
f 150/150/150 149/149/149 147/147/147
f 147/147/147 140/140/140 150/150/150
f 144/144/144 149/149/149 151/151/151
f 150/150/150 140/140/140 152/152/152
f 144/144/144 151/151/151 153/153/153
f 154/154/154 151/151/151 152/152/152
f 151/151/151 154/154/154 153/153/153
f 152/152/152 140/140/140 155/155/155
f 155/155/155 154/154/154 152/152/152
f 140/140/140 156/156/156 155/155/155
f 157/157/157 153/153/153 154/154/154
f 155/155/155 156/156/156 158/158/158
f 159/159/159 157/157/157 158/158/158
f 153/153/153 157/157/157 159/159/159
f 160/160/160 159/159/159 158/158/158
f 158/158/158 156/156/156 160/160/160
f 153/153/153 159/159/159 161/161/161
f 160/160/160 156/156/156 162/162/162
f 153/153/153 161/161/161 162/162/162
f 156/156/156 153/153/153 162/162/162
f 165/165/165 164/164/164 163/163/163
f 165/165/165 166/166/166 164/164/164
f 167/167/167 165/165/165 163/163/163
f 168/168/168 167/167/167 163/163/163
f 168/168/168 166/166/166 169/169/169
f 169/169/169 167/167/167 168/168/168
f 166/166/166 170/170/170 169/169/169
f 165/165/165 170/170/170 166/166/166
f 171/171/171 167/167/167 169/169/169
f 172/172/172 167/167/167 171/171/171
f 170/170/170 165/165/165 173/173/173
f 171/171/171 173/173/173 174/174/174
f 174/174/174 172/172/172 171/171/171
f 175/175/175 173/173/173 165/165/165
f 173/173/173 175/175/175 174/174/174
f 176/176/176 175/175/175 165/165/165
f 177/177/177 172/172/172 174/174/174
f 176/176/176 178/178/178 175/175/175
f 177/177/177 178/178/178 179/179/179
f 179/179/179 172/172/172 177/177/177
f 176/176/176 180/180/180 178/178/178
f 178/178/178 180/180/180 179/179/179
f 180/180/180 176/176/176 181/181/181
f 180/180/180 181/181/181 179/179/179
f 181/181/181 182/182/182 179/179/179
f 172/172/172 179/179/179 182/182/182
f 181/181/181 176/176/176 183/183/183
f 172/172/172 182/182/182 184/184/184
f 183/183/183 176/176/176 185/185/185
f 183/183/183 186/186/186 184/184/184
f 186/186/186 183/183/183 185/185/185
f 172/172/172 184/184/184 187/187/187
f 186/186/186 187/187/187 184/184/184
f 188/188/188 172/172/172 187/187/187
f 185/185/185 189/189/189 186/186/186
f 188/188/188 187/187/187 190/190/190
f 189/189/189 191/191/191 190/190/190
f 189/189/189 185/185/185 191/191/191
f 191/191/191 192/192/192 190/190/190
f 188/188/188 190/190/190 192/192/192
f 191/191/191 185/185/185 193/193/193
f 188/188/188 192/192/192 194/194/194
f 193/193/193 185/185/185 194/194/194
f 185/185/185 188/188/188 194/194/194
g tile-mainroad-straight_4
f 197/197/197 196/196/196 195/195/195
f 198/198/198 197/197/197 195/195/195
f 201/201/201 200/200/200 199/199/199
f 202/202/202 201/201/201 199/199/199
f 205/205/205 204/204/204 203/203/203
f 206/206/206 205/205/205 203/203/203
f 209/209/209 208/208/208 207/207/207
f 210/210/210 209/209/209 207/207/207
f 213/213/213 212/212/212 211/211/211
f 214/214/214 213/213/213 211/211/211
f 217/217/217 216/216/216 215/215/215
f 218/218/218 217/217/217 215/215/215
f 221/221/221 220/220/220 219/219/219
f 222/222/222 221/221/221 219/219/219
f 225/225/225 224/224/224 223/223/223
f 226/226/226 225/225/225 223/223/223
f 229/229/229 228/228/228 227/227/227
f 230/230/230 229/229/229 227/227/227
f 233/233/233 232/232/232 231/231/231
f 234/234/234 233/233/233 231/231/231
f 237/237/237 236/236/236 235/235/235
f 238/238/238 237/237/237 235/235/235
f 241/241/241 240/240/240 239/239/239
f 242/242/242 241/241/241 239/239/239
g tile-mainroad-straight_5
f 245/245/245 244/244/244 243/243/243
f 244/244/244 246/246/246 243/243/243
f 246/246/246 244/244/244 247/247/247
f 244/244/244 248/248/248 247/247/247
