g Avant bras droit
v -0.5614544 1.576626 -0.0171223
v -0.5614547 1.576626 -0.1703779
v -0.5614547 1.423371 -0.1703779
v -0.5614544 1.423372 -0.01712227
v -0.5942901 1.576626 0.01571223
v -0.5942901 1.423372 0.01571226
v -0.8512042 1.430076 0.006136165
v -0.8512042 1.569922 0.006136129
v -0.8713883 1.438853 -0.006402934
v -0.8713883 1.561144 -0.006402962
v -0.9022665 1.432545 0.002608144
v -0.9022665 1.567452 0.002608116
v -0.9351023 1.576626 -0.01712164
v -0.9351023 1.423372 -0.01712161
v -0.9351026 1.423371 -0.1703772
v -0.9351026 1.576626 -0.1703773
v -0.5614547 1.576626 -0.1703779
v -0.5942906 1.423371 -0.2032123
v -0.5614547 1.423371 -0.1703779
v -0.5942906 1.576626 -0.2032123
v -0.8512045 1.569922 -0.1936353
v -0.8512045 1.430075 -0.1936352
v -0.8713886 1.561144 -0.1810961
v -0.8713886 1.438853 -0.1810961
v -0.9022667 1.567452 -0.1901071
v -0.9022667 1.432545 -0.1901071
v -0.9351026 1.423371 -0.1703772
v -0.9351026 1.576626 -0.1703773
v -0.8713883 1.438853 -0.006402934
v -0.9022666 1.403641 -0.02629543
v -0.9022665 1.432545 0.002608144
v -0.9351023 1.423372 -0.01712161
v -0.8713883 1.412652 -0.03260354
v -0.8512042 1.430076 0.006136165
v -0.9022667 1.403641 -0.1612035
v -0.9351026 1.423371 -0.1703772
v -0.9022667 1.432545 -0.1901071
v -0.8713886 1.412652 -0.1548955
v -0.8713886 1.438853 -0.1810961
v -0.8512045 1.400113 -0.1636734
v -0.8512045 1.430075 -0.1936352
v -0.8512042 1.400113 -0.02382569
v -0.5942901 1.423372 0.01571226
v -0.5942905 1.390536 -0.1703778
v -0.5942906 1.423371 -0.2032123
v -0.5614547 1.423371 -0.1703779
v -0.5942902 1.390536 -0.0171222
v -0.5614544 1.423372 -0.01712227
v -0.8713886 1.561144 -0.1810961
v -0.9022667 1.596357 -0.1612035
v -0.9022667 1.567452 -0.1901071
v -0.9351026 1.576626 -0.1703773
v -0.8713886 1.587345 -0.1548955
v -0.8512045 1.569922 -0.1936353
v -0.9022666 1.596357 -0.02629547
v -0.9351023 1.576626 -0.01712164
v -0.9022665 1.567452 0.002608116
v -0.8713883 1.587345 -0.03260358
v -0.8713883 1.561144 -0.006402962
v -0.8512045 1.599885 -0.1636734
v -0.5942906 1.576626 -0.2032123
v -0.8512042 1.599885 -0.02382574
v -0.8512042 1.569922 0.006136129
v -0.5942905 1.609461 -0.1703779
v -0.5614547 1.576626 -0.1703779
v -0.5614544 1.576626 -0.0171223
v -0.5942902 1.609461 -0.01712225
v -0.5942901 1.576626 0.01571223
vt 0.08496094 0.7827148
vt 0.08496094 0.784668
vt 0.06835938 0.784668
vt 0.06835938 0.7827148
vt 0.08496094 0.7817383
vt 0.06835938 0.7817383
vt 0.06835938 0.7451172
vt 0.08496094 0.7451172
vt 0.06835938 0.7426758
vt 0.08496094 0.7426758
vt 0.06835938 0.7397461
vt 0.08496094 0.7397461
vt 0.08496094 0.7387695
vt 0.06835938 0.7387695
vt 0.06835938 0.7373047
vt 0.08496094 0.7373047
vt 0.02694702 0.7827148
vt 0.04351807 0.7817383
vt 0.04351807 0.7827148
vt 0.02694702 0.7817383
vt 0.02694702 0.7451172
vt 0.04351807 0.7451172
vt 0.02694702 0.7426758
vt 0.04351807 0.7426758
vt 0.02694702 0.7397461
vt 0.04351807 0.7397461
vt 0.04351807 0.7387695
vt 0.02694702 0.7387695
vt 0.06835938 0.7241211
vt 0.06463623 0.7207031
vt 0.06835938 0.7207031
vt 0.06463623 0.7163086
vt 0.06463623 0.7241211
vt 0.06835938 0.7260742
vt 0.04724121 0.7207031
vt 0.04724121 0.7163086
vt 0.04351807 0.7207031
vt 0.04724121 0.7241211
vt 0.04351807 0.7241211
vt 0.04724121 0.7260742
vt 0.04351807 0.7260742
vt 0.06463623 0.7260742
vt 0.06835938 0.7631836
vt 0.04724121 0.7631836
vt 0.04351807 0.7631836
vt 0.04724121 0.7675781
vt 0.06463623 0.7631836
vt 0.06463623 0.7675781
vt 0.109375 0.765625
vt 0.1057129 0.7626953
vt 0.109375 0.7626953
vt 0.1057129 0.7587891
vt 0.1057129 0.765625
vt 0.109375 0.7680664
vt 0.08862305 0.7626953
vt 0.08862305 0.7587891
vt 0.08496094 0.7626953
vt 0.08862305 0.765625
vt 0.08496094 0.765625
vt 0.1057129 0.7680664
vt 0.109375 0.8046875
vt 0.08862305 0.7680664
vt 0.08496094 0.7680664
vt 0.1057129 0.8046875
vt 0.1057129 0.809082
vt 0.08862305 0.809082
vt 0.08862305 0.8046875
vt 0.08496094 0.8046875
vn 0.9755859 0.1551514 0.1551514
vn 0.9755859 0.1551514 -0.1551514
vn 0.9755859 -0.1551514 -0.1551514
vn 0.9755859 -0.1551514 0.1551514
vn 0.06835938 0.1635742 0.984375
vn 0.06835938 -0.1635742 0.984375
vn -0.07568359 -0.1732178 0.9819336
vn -0.07568359 0.1732178 0.9819336
vn -0.09759521 -0.1589355 0.9824219
vn -0.09759521 0.1589355 0.9824219
vn -0.1888428 -0.1096191 0.9760742
vn -0.1888428 0.1096191 0.9760742
vn -0.9775391 0.1496582 0.1496582
vn -0.9775391 -0.1496582 0.1496582
vn -0.9775391 -0.1496582 -0.1496582
vn -0.9775391 0.1496582 -0.1496582
vn 0.9755859 0.1551514 -0.1551514
vn 0.06835938 -0.1635742 -0.984375
vn 0.9755859 -0.1551514 -0.1551514
vn 0.06835938 0.1635742 -0.984375
vn -0.07568359 0.1732178 -0.9819336
vn -0.07568359 -0.1732178 -0.9819336
vn -0.09759521 0.1589355 -0.9824219
vn -0.09759521 -0.1589355 -0.9824219
vn -0.1888428 0.1096191 -0.9760742
vn -0.1888428 -0.1096191 -0.9760742
vn -0.9775391 -0.1496582 -0.1496582
vn -0.9775391 0.1496582 -0.1496582
vn -0.09759521 -0.1589355 0.9824219
vn -0.1889648 -0.9760742 0.1096191
vn -0.1888428 -0.1096191 0.9760742
vn -0.9775391 -0.1496582 0.1496582
vn -0.09759521 -0.9824219 0.1590576
vn -0.07568359 -0.1732178 0.9819336
vn -0.1889648 -0.9760742 -0.1096191
vn -0.9775391 -0.1496582 -0.1496582
vn -0.1888428 -0.1096191 -0.9760742
vn -0.09759521 -0.9824219 -0.1590576
vn -0.09759521 -0.1589355 -0.9824219
vn -0.07568359 -0.9819336 -0.1732178
vn -0.07568359 -0.1732178 -0.9819336
vn -0.07568359 -0.9819336 0.1732178
vn 0.06835938 -0.1635742 0.984375
vn 0.06835938 -0.984375 -0.1635742
vn 0.06835938 -0.1635742 -0.984375
vn 0.9755859 -0.1551514 -0.1551514
vn 0.06835938 -0.984375 0.1635742
vn 0.9755859 -0.1551514 0.1551514
vn -0.09759521 0.1589355 -0.9824219
vn -0.1889648 0.9760742 -0.1096191
vn -0.1888428 0.1096191 -0.9760742
vn -0.9775391 0.1496582 -0.1496582
vn -0.09759521 0.9824219 -0.1590576
vn -0.07568359 0.1732178 -0.9819336
vn -0.1889648 0.9760742 0.1096191
vn -0.9775391 0.1496582 0.1496582
vn -0.1888428 0.1096191 0.9760742
vn -0.09759521 0.9824219 0.1590576
vn -0.09759521 0.1589355 0.9824219
vn -0.07568359 0.9819336 -0.1732178
vn 0.06835938 0.1635742 -0.984375
vn -0.07568359 0.9819336 0.1732178
vn -0.07568359 0.1732178 0.9819336
vn 0.06835938 0.984375 -0.1635742
vn 0.9755859 0.1551514 -0.1551514
vn 0.9755859 0.1551514 0.1551514
vn 0.06835938 0.984375 0.1635742
vn 0.06835938 0.1635742 0.984375
g Avant bras droit_0
f 3/3/3 2/2/2 1/1/1
f 4/4/4 3/3/3 1/1/1
f 1/1/1 5/5/5 4/4/4
f 5/5/5 6/6/6 4/4/4
f 6/6/6 5/5/5 7/7/7
f 5/5/5 8/8/8 7/7/7
f 7/7/7 8/8/8 9/9/9
f 8/8/8 10/10/10 9/9/9
f 9/9/9 10/10/10 11/11/11
f 10/10/10 12/12/12 11/11/11
f 12/12/12 13/13/13 11/11/11
f 13/13/13 14/14/14 11/11/11
f 14/14/14 13/13/13 15/15/15
f 13/13/13 16/16/16 15/15/15
f 19/19/19 18/18/18 17/17/17
f 18/18/18 20/20/20 17/17/17
f 20/20/20 18/18/18 21/21/21
f 18/18/18 22/22/22 21/21/21
f 21/21/21 22/22/22 23/23/23
f 22/22/22 24/24/24 23/23/23
f 23/23/23 24/24/24 25/25/25
f 24/24/24 26/26/26 25/25/25
f 26/26/26 27/27/27 25/25/25
f 27/27/27 28/28/28 25/25/25
f 31/31/31 30/30/30 29/29/29
f 31/31/31 32/32/32 30/30/30
f 30/30/30 33/33/33 29/29/29
f 29/29/29 33/33/33 34/34/34
f 35/35/35 30/30/30 32/32/32
f 36/36/36 35/35/35 32/32/32
f 37/37/37 35/35/35 36/36/36
f 30/30/30 35/35/35 38/38/38
f 35/35/35 37/37/37 38/38/38
f 33/33/33 30/30/30 38/38/38
f 37/37/37 39/39/39 38/38/38
f 38/38/38 39/39/39 40/40/40
f 33/33/33 38/38/38 40/40/40
f 39/39/39 41/41/41 40/40/40
f 33/33/33 42/42/42 34/34/34
f 42/42/42 33/33/33 40/40/40
f 34/34/34 42/42/42 43/43/43
f 40/40/40 41/41/41 44/44/44
f 42/42/42 40/40/40 44/44/44
f 41/41/41 45/45/45 44/44/44
f 45/45/45 46/46/46 44/44/44
f 42/42/42 47/47/47 43/43/43
f 47/47/47 42/42/42 44/44/44
f 44/44/44 46/46/46 47/47/47
f 43/43/43 47/47/47 48/48/48
f 46/46/46 48/48/48 47/47/47
f 51/51/51 50/50/50 49/49/49
f 50/50/50 51/51/51 52/52/52
f 50/50/50 53/53/53 49/49/49
f 49/49/49 53/53/53 54/54/54
f 50/50/50 52/52/52 55/55/55
f 53/53/53 50/50/50 55/55/55
f 52/52/52 56/56/56 55/55/55
f 57/57/57 55/55/55 56/56/56
f 55/55/55 57/57/57 58/58/58
f 58/58/58 53/53/53 55/55/55
f 57/57/57 59/59/59 58/58/58
f 53/53/53 60/60/60 54/54/54
f 60/60/60 53/53/53 58/58/58
f 54/54/54 60/60/60 61/61/61
f 58/58/58 59/59/59 62/62/62
f 62/62/62 60/60/60 58/58/58
f 59/59/59 63/63/63 62/62/62
f 60/60/60 64/64/64 61/61/61
f 64/64/64 60/60/60 62/62/62
f 64/64/64 65/65/65 61/61/61
f 65/65/65 64/64/64 66/66/66
f 62/62/62 63/63/63 67/67/67
f 67/67/67 64/64/64 62/62/62
f 64/64/64 67/67/67 66/66/66
f 63/63/63 68/68/68 67/67/67
f 68/68/68 66/66/66 67/67/67
