g Bras droit
v -0.2333309 1.576623 -0.01711892
v -0.2333254 1.576625 -0.1703745
v -0.2333288 1.423371 -0.1703763
v -0.2333343 1.423369 -0.01712073
v -0.2661679 1.576624 0.01571438
v -0.2661713 1.42337 0.01571257
v -0.5741476 1.423376 0.01570157
v -0.5741442 1.57663 0.01570339
v -0.6069789 1.576632 -0.01713226
v -0.6069822 1.423377 -0.01713407
v -0.6069768 1.423379 -0.1703897
v -0.6069735 1.576633 -0.1703879
v -0.2333254 1.576625 -0.1703745
v -0.2661635 1.423372 -0.203212
v -0.2333288 1.423371 -0.1703763
v -0.2661601 1.576626 -0.2032102
v -0.5741364 1.576633 -0.2032212
v -0.5741398 1.423379 -0.203223
v -0.6069768 1.423379 -0.1703897
v -0.6069735 1.576633 -0.1703879
v -0.2661709 1.390534 -0.01712229
v -0.2333343 1.423369 -0.01712073
v -0.2333288 1.423371 -0.1703763
v -0.2661713 1.42337 0.01571257
v -0.2661654 1.390536 -0.1703779
v -0.2661635 1.423372 -0.203212
v -0.5741398 1.423379 -0.203223
v -0.5741472 1.390541 -0.01713329
v -0.5741476 1.423376 0.01570157
v -0.6069822 1.423377 -0.01713407
v -0.5741417 1.390543 -0.1703889
v -0.6069768 1.423379 -0.1703897
v -0.2333309 1.576623 -0.01711892
v -0.2661606 1.609462 -0.1703753
v -0.2333254 1.576625 -0.1703745
v -0.2661601 1.576626 -0.2032102
v -0.2661661 1.60946 -0.0171197
v -0.2661679 1.576624 0.01571438
v -0.5741442 1.57663 0.01570339
v -0.5741423 1.609466 -0.0171307
v -0.6069789 1.576632 -0.01713226
v -0.6069735 1.576633 -0.1703879
v -0.5741369 1.609468 -0.1703863
v -0.5741364 1.576633 -0.2032212
vt 0.08496094 0.8310547
vt 0.08496094 0.8330078
vt 0.06835938 0.8330078
vt 0.06835938 0.8310547
vt 0.08496094 0.8300781
vt 0.06835938 0.8300781
vt 0.06835938 0.7880859
vt 0.08496094 0.7880859
vt 0.08496094 0.7866211
vt 0.06835938 0.7866211
vt 0.06835938 0.7856445
vt 0.08496094 0.7856445
vt 0.02694702 0.8310547
vt 0.04351807 0.8300781
vt 0.04351807 0.8310547
vt 0.02694702 0.8300781
vt 0.02694702 0.7880859
vt 0.04351807 0.7880859
vt 0.04351807 0.7866211
vt 0.02694702 0.7866211
vt 0.06463623 0.8110352
vt 0.06463623 0.8154297
vt 0.04724121 0.8154297
vt 0.06835938 0.8110352
vt 0.04724121 0.8110352
vt 0.04351807 0.8110352
vt 0.04351807 0.769043
vt 0.06463623 0.769043
vt 0.06835938 0.769043
vt 0.06463623 0.7646484
vt 0.04724121 0.769043
vt 0.04724121 0.7646484
vt 0.08862305 0.8569336
vt 0.1057129 0.8530273
vt 0.1057129 0.8569336
vt 0.109375 0.8530273
vt 0.08862305 0.8530273
vt 0.08496094 0.8530273
vt 0.08496094 0.8110352
vt 0.08862305 0.8110352
vt 0.08862305 0.8066406
vt 0.1057129 0.8066406
vt 0.1057129 0.8110352
vt 0.109375 0.8110352
vn 0.9755859 0.1551514 0.1551514
vn 0.9755859 0.1551514 -0.1550293
vn 0.9755859 -0.1551514 -0.1550293
vn 0.9755859 -0.1551514 0.1551514
vn 0.08447266 0.1640625 0.9829102
vn 0.08447266 -0.1641846 0.9829102
vn -0.08453369 -0.1641846 0.9829102
vn -0.08453369 0.1641846 0.9829102
vn -0.9755859 0.1551514 0.1550293
vn -0.9755859 -0.1551514 0.1550293
vn -0.9755859 -0.1551514 -0.1551514
vn -0.9755859 0.1551514 -0.1551514
vn 0.9755859 0.1551514 -0.1550293
vn 0.08453369 -0.1641846 -0.9829102
vn 0.9755859 -0.1551514 -0.1550293
vn 0.08453369 0.1641846 -0.9829102
vn -0.08447266 0.1641846 -0.9829102
vn -0.08447266 -0.1640625 -0.9829102
vn -0.9755859 -0.1551514 -0.1551514
vn -0.9755859 0.1551514 -0.1551514
vn 0.08447266 -0.9829102 0.1641846
vn 0.9755859 -0.1551514 0.1551514
vn 0.9755859 -0.1551514 -0.1550293
vn 0.08447266 -0.1641846 0.9829102
vn 0.08447266 -0.9829102 -0.1641846
vn 0.08453369 -0.1641846 -0.9829102
vn -0.08447266 -0.1640625 -0.9829102
vn -0.08453369 -0.9829102 0.1641846
vn -0.08453369 -0.1641846 0.9829102
vn -0.9755859 -0.1551514 0.1550293
vn -0.08453369 -0.9829102 -0.1641846
vn -0.9755859 -0.1551514 -0.1551514
vn 0.9755859 0.1551514 0.1551514
vn 0.08453369 0.9829102 -0.1640625
vn 0.9755859 0.1551514 -0.1550293
vn 0.08453369 0.1641846 -0.9829102
vn 0.08453369 0.9829102 0.1641846
vn 0.08447266 0.1640625 0.9829102
vn -0.08453369 0.1641846 0.9829102
vn -0.08447266 0.9829102 0.1641846
vn -0.9755859 0.1551514 0.1550293
vn -0.9755859 0.1551514 -0.1551514
vn -0.08447266 0.9829102 -0.1641846
vn -0.08447266 0.1641846 -0.9829102
g Bras droit_0
f 3/3/3 2/2/2 1/1/1
f 4/4/4 3/3/3 1/1/1
f 1/1/1 5/5/5 4/4/4
f 5/5/5 6/6/6 4/4/4
f 6/6/6 5/5/5 7/7/7
f 5/5/5 8/8/8 7/7/7
f 8/8/8 9/9/9 7/7/7
f 9/9/9 10/10/10 7/7/7
f 10/10/10 9/9/9 11/11/11
f 9/9/9 12/12/12 11/11/11
f 15/15/15 14/14/14 13/13/13
f 14/14/14 16/16/16 13/13/13
f 16/16/16 14/14/14 17/17/17
f 14/14/14 18/18/18 17/17/17
f 18/18/18 19/19/19 17/17/17
f 19/19/19 20/20/20 17/17/17
f 23/23/23 22/22/22 21/21/21
f 24/24/24 21/21/21 22/22/22
f 25/25/25 23/23/23 21/21/21
f 26/26/26 23/23/23 25/25/25
f 27/27/27 26/26/26 25/25/25
f 28/28/28 21/21/21 24/24/24
f 21/21/21 28/28/28 25/25/25
f 29/29/29 28/28/28 24/24/24
f 29/29/29 30/30/30 28/28/28
f 31/31/31 27/27/27 25/25/25
f 28/28/28 31/31/31 25/25/25
f 31/31/31 28/28/28 30/30/30
f 27/27/27 31/31/31 32/32/32
f 32/32/32 31/31/31 30/30/30
f 35/35/35 34/34/34 33/33/33
f 34/34/34 35/35/35 36/36/36
f 34/34/34 37/37/37 33/33/33
f 38/38/38 33/33/33 37/37/37
f 39/39/39 38/38/38 37/37/37
f 40/40/40 39/39/39 37/37/37
f 37/37/37 34/34/34 40/40/40
f 39/39/39 40/40/40 41/41/41
f 42/42/42 41/41/41 40/40/40
f 43/43/43 34/34/34 36/36/36
f 34/34/34 43/43/43 40/40/40
f 43/43/43 42/42/42 40/40/40
f 44/44/44 43/43/43 36/36/36
f 43/43/43 44/44/44 42/42/42
