g Bridge1.008
v 2.442555 0.2099474 -1.370806
v 2.692902 0.2099474 -1.157747
v -2.653868 0.2099474 -0.8912833
v 2.692902 0.2099474 -1.157747
v 2.803902 0.2099474 -0.8483168
v -2.653868 0.2099474 -0.8912833
v 2.803902 0.2099474 -0.8483168
v -2.76209 0.2099474 -0.5430516
v -2.653868 0.2099474 -0.8912833
v 1.837882 0.2099474 1.617152
v -0.7380937 0.2099474 1.615817
v -1.111022 0.2099474 1.56842
v 1.196934 0.2099474 1.897445
v 0.8458601 0.2099474 1.973838
v 0.4877949 0.2099474 1.944202
v -2.653868 -0.2099474 -0.8912833
v 2.692902 -0.2099474 -1.157747
v 2.442555 -0.2099474 -1.370806
v -2.653868 -0.2099474 -0.8912833
v 2.803902 -0.2099474 -0.8483168
v 2.692902 -0.2099474 -1.157747
v -2.653868 -0.2099474 -0.8912833
v -2.76209 -0.2099474 -0.5430516
v 2.803902 -0.2099474 -0.8483168
v -1.111022 -0.2099474 1.56842
v -0.7380936 -0.2099474 1.615817
v 1.837882 -0.2099474 1.617152
v 0.4877949 -0.2099474 1.944202
v 0.8458599 -0.2099474 1.973838
v 1.196934 -0.2099474 1.897445
v 2.803902 -0.2099474 -0.8483168
v 2.829891 0.2099474 -0.06117499
v 2.803902 0.2099474 -0.8483168
v 2.829891 -0.2099474 -0.06117501
v 2.783711 0.2099474 0.3018255
v 2.783711 -0.2099474 0.3018255
v 2.654592 -0.2099474 0.6442144
v 2.371778 0.2099474 1.137971
v 2.654592 0.2099474 0.6442144
v 2.371778 -0.2099474 1.137971
v 2.137628 0.2099474 1.414105
v 2.137628 -0.2099474 1.414105
v 1.837882 -0.2099474 1.617152
v 1.196934 0.2099474 1.897445
v 1.837882 0.2099474 1.617152
v 1.196934 -0.2099474 1.897445
v 0.8458601 0.2099474 1.973838
v 0.8458599 -0.2099474 1.973838
v 0.4877949 -0.2099474 1.944202
v -0.3709764 0.2099474 1.696728
v 0.4877949 0.2099474 1.944202
v -0.3709764 -0.2099474 1.696728
v -0.7380937 0.2099474 1.615817
v -0.7380936 -0.2099474 1.615817
v -1.111022 -0.2099474 1.56842
v -1.690157 0.2099474 1.532017
v -1.111022 0.2099474 1.56842
v -1.690157 -0.2099474 1.532017
v -2.01026 0.2099474 1.418403
v -2.01026 -0.2099474 1.418403
v -2.249847 -0.2099474 1.177628
v -2.542884 0.2099474 0.6470894
v -2.249847 0.2099474 1.177628
v -2.542884 -0.2099474 0.6470894
v -2.68455 0.2099474 0.3033162
v -2.68455 -0.2099474 0.3033162
v -2.768248 0.2099474 -0.05895942
v -2.768248 -0.2099474 -0.05895942
v -2.781899 0.2099474 -0.1789293
v -2.781899 -0.2099474 -0.1789293
v -2.76209 0.2099474 -0.5430516
v -2.76209 -0.2099474 -0.5430516
v -2.653868 0.2099474 -0.8912833
v -2.653868 -0.2099474 -0.8912833
v -2.125436 0.2099474 -1.934262
v -2.125436 -0.2099474 -1.934262
v 1.927884 -0.2099474 -1.584584
v 2.442555 0.2099474 -1.370806
v 1.927884 0.2099474 -1.584584
v 2.442555 -0.2099474 -1.370806
v 2.692902 0.2099474 -1.157747
v 2.692902 -0.2099474 -1.157747
v -2.125436 0.2099474 -1.934262
v -1.901953 0.2099474 -2.131498
v -1.603882 0.2099474 -2.131086
v -0.292404 0.2099474 -1.607071
v -2.653868 0.2099474 -0.8912833
v 0.06469422 0.2099474 -1.526785
v 2.442555 0.2099474 -1.370806
v 0.43068 0.2099474 -1.531189
v 1.927884 0.2099474 -1.584584
v 1.206733 0.2099474 -1.665209
v 1.572152 0.2099474 -1.668223
v 2.803902 0.2099474 -0.8483168
v 2.829891 0.2099474 -0.06117499
v -2.76209 0.2099474 -0.5430516
v -2.781899 0.2099474 -0.1789293
v -2.768248 0.2099474 -0.05895942
v 2.829891 0.2099474 -0.06117499
v 2.783711 0.2099474 0.3018255
v -2.768248 0.2099474 -0.05895942
v -2.68455 0.2099474 0.3033162
v 2.783711 0.2099474 0.3018255
v 2.654592 0.2099474 0.6442144
v -2.68455 0.2099474 0.3033162
v -2.542884 0.2099474 0.6470894
v 2.371778 0.2099474 1.137971
v -2.249847 0.2099474 1.177628
v 2.371778 0.2099474 1.137971
v 2.137628 0.2099474 1.414105
v -2.249847 0.2099474 1.177628
v -2.01026 0.2099474 1.418403
v 2.137628 0.2099474 1.414105
v 1.837882 0.2099474 1.617152
v -2.01026 0.2099474 1.418403
v -1.690157 0.2099474 1.532017
v -1.111022 0.2099474 1.56842
v 1.837882 0.2099474 1.617152
v -0.3709764 0.2099474 1.696728
v -0.7380937 0.2099474 1.615817
v 1.196934 0.2099474 1.897445
v 0.4877949 0.2099474 1.944202
v -0.292404 -0.2099474 -1.607071
v 0.06469422 -0.2099474 -1.526785
v 0.06469422 0.2099474 -1.526785
v -0.292404 0.2099474 -1.607071
v -1.603882 -0.2099474 -2.131086
v -1.603882 0.2099474 -2.131086
v -1.901953 -0.2099474 -2.131498
v -1.901953 0.2099474 -2.131498
v 0.06469422 -0.2099474 -1.526785
v 0.43068 0.2099474 -1.531189
v 0.06469422 0.2099474 -1.526785
v 0.43068 -0.2099474 -1.531189
v 1.206733 0.2099474 -1.665209
v 1.206733 -0.2099474 -1.665209
v 1.572152 0.2099474 -1.668223
v 1.572152 -0.2099474 -1.668223
v 1.927884 0.2099474 -1.584584
v 1.572152 0.2099474 -1.668223
v 1.572152 -0.2099474 -1.668223
v 1.927884 -0.2099474 -1.584584
v 2.803902 0.2099474 -0.8483168
v 2.692902 0.2099474 -1.157747
v 2.692902 -0.2099474 -1.157747
v 2.803902 -0.2099474 -0.8483168
v 2.654592 0.2099474 0.6442144
v 2.783711 0.2099474 0.3018255
v 2.783711 -0.2099474 0.3018255
v 2.654592 -0.2099474 0.6442144
v 1.837882 0.2099474 1.617152
v 2.137628 0.2099474 1.414105
v 2.137628 -0.2099474 1.414105
v 1.837882 -0.2099474 1.617152
v 0.4877949 0.2099474 1.944202
v 0.8458601 0.2099474 1.973838
v 0.8458599 -0.2099474 1.973838
v 0.4877949 -0.2099474 1.944202
v -1.111022 0.2099474 1.56842
v -0.7380937 0.2099474 1.615817
v -0.7380936 -0.2099474 1.615817
v -1.111022 -0.2099474 1.56842
v -2.249847 0.2099474 1.177628
v -2.01026 0.2099474 1.418403
v -2.01026 -0.2099474 1.418403
v -2.249847 -0.2099474 1.177628
v -1.901953 0.2099474 -2.131498
v -2.125436 0.2099474 -1.934262
v -2.125436 -0.2099474 -1.934262
v -1.901953 -0.2099474 -2.131498
v 1.927884 -0.2099474 -1.584584
v 1.572152 -0.2099474 -1.668223
v 1.206733 -0.2099474 -1.665209
v 0.43068 -0.2099474 -1.531189
v 2.442555 -0.2099474 -1.370806
v 0.06469422 -0.2099474 -1.526785
v -2.653868 -0.2099474 -0.8912833
v -0.292404 -0.2099474 -1.607071
v -2.125436 -0.2099474 -1.934262
v -1.603882 -0.2099474 -2.131086
v -1.901953 -0.2099474 -2.131498
v -2.76209 -0.2099474 -0.5430516
v 2.829891 -0.2099474 -0.06117501
v 2.803902 -0.2099474 -0.8483168
v -2.781899 -0.2099474 -0.1789293
v -2.768248 -0.2099474 -0.05895942
v -2.768248 -0.2099474 -0.05895942
v 2.783711 -0.2099474 0.3018255
v 2.829891 -0.2099474 -0.06117501
v -2.68455 -0.2099474 0.3033162
v -2.68455 -0.2099474 0.3033162
v 2.654592 -0.2099474 0.6442144
v 2.783711 -0.2099474 0.3018255
v -2.542884 -0.2099474 0.6470894
v 2.371778 -0.2099474 1.137971
v -2.249847 -0.2099474 1.177628
v -2.249847 -0.2099474 1.177628
v 2.137628 -0.2099474 1.414105
v 2.371778 -0.2099474 1.137971
v -2.01026 -0.2099474 1.418403
v -2.01026 -0.2099474 1.418403
v 1.837882 -0.2099474 1.617152
v 2.137628 -0.2099474 1.414105
v -1.690157 -0.2099474 1.532017
v -1.111022 -0.2099474 1.56842
v -0.7380936 -0.2099474 1.615817
v -0.3709764 -0.2099474 1.696728
v 1.837882 -0.2099474 1.617152
v 1.196934 -0.2099474 1.897445
v 0.4877949 -0.2099474 1.944202
vt 0.4428711 0.3791504
vt 0.6992188 0.7822266
vt 0.04907227 0.369873
vt 0.6992188 0.7822266
vt 0.4731445 0.3168945
vt 0.04907227 0.369873
vt 0.4731445 0.3168945
vt 0.1331787 0.7817383
vt 0.04907227 0.369873
vt 0.4018555 0.07385254
vt 0.3637695 0.6723633
vt 0.1502686 0.04040527
vt 0.347168 0.03869629
vt 0.4694824 0.6757813
vt 0.2866211 0.01971436
vt 0.5488281 0.369873
vt 0.8657227 0.4487305
vt 0.9428711 0.3791504
vt 0.5488281 0.369873
vt 0.9731445 0.3168945
vt 0.8657227 0.4487305
vt 0.5488281 0.369873
vt 0.2998047 0.4482422
vt 0.9731445 0.3168945
vt 0.6503906 0.04040527
vt 0.5302734 0.3391113
vt 0.9018555 0.07385254
vt 0.7866211 0.01971436
vt 0.6362305 0.3425293
vt 0.847168 0.03869629
vt 0.7958984 0.5
vt 0.7495117 1
vt 0.7958984 1
vt 0.7495117 0.5
vt 0.6455078 0.7387695
vt 0.8125 0.4055176
vt 0.7011719 0.5
vt 0.6621094 1
vt 0.7011719 1
vt 0.6621094 0.5
vt 0.5668945 0.6992188
vt 0.7333984 0.3659668
vt 0.612793 0.5
vt 0.5688477 1
vt 0.612793 1
vt 0.5688477 0.5
vt 0.4694824 0.6757813
vt 0.6362305 0.3425293
vt 0.5244141 0.5
vt 0.4753418 1
vt 0.5244141 1
vt 0.4753418 0.5
vt 0.3637695 0.6723633
vt 0.5302734 0.3391113
vt 0.4289551 0.5
vt 0.3894043 1
vt 0.4289551 1
vt 0.3894043 0.5
vt 0.2670898 0.7001953
vt 0.4335938 0.3666992
vt 0.3383789 0.5
vt 0.2978516 1
vt 0.3383789 1
vt 0.2978516 0.5
vt 0.1873779 0.7392578
vt 0.3540039 0.4060059
vt 0.2335205 1
vt 0.2335205 0.5
vt 0.2210693 1
vt 0.2210693 0.5
vt 0.1331787 0.7817383
vt 0.2998047 0.4482422
vt 0.1639404 1
vt 0.1639404 0.5
vt 0.1087646 1
vt 0.1087646 0.5
vt 0.8828125 0.5
vt 0.8442383 1
vt 0.8828125 1
vt 0.8442383 0.5
vt 0.6992188 0.7822266
vt 0.8657227 0.4487305
vt 0.1028442 0.4318848
vt 0.1013794 0.8149414
vt 0.1428223 0.4584961
vt 0.227417 0.4833984
vt 0.04907227 0.369873
vt 0.2509766 0.4960938
vt 0.4428711 0.3791504
vt 0.2817383 0.4807129
vt 0.4052734 0.4226074
vt 0.3479004 0.4611816
vt 0.7324219 0.8149414
vt 0.4731445 0.3168945
vt 0.4829102 0.2486572
vt 0.1331787 0.7817383
vt 0.02339172 0.2919922
vt 0.02073669 0.2734375
vt 0.4829102 0.2486572
vt 0.6455078 0.7387695
vt 0.02073669 0.2734375
vt 0.1873779 0.7392578
vt 0.6455078 0.7387695
vt 0.4714355 0.1807861
vt 0.1873779 0.7392578
vt 0.0280304 0.1817627
vt 0.4475098 0.1279297
vt 0.05303955 0.1269531
vt 0.4475098 0.1279297
vt 0.5668945 0.6992188
vt 0.05303955 0.1269531
vt 0.2670898 0.7001953
vt 0.5668945 0.6992188
vt 0.4018555 0.07385254
vt 0.2670898 0.7001953
vt 0.100769 0.07214355
vt 0.1502686 0.04040527
vt 0.4018555 0.07385254
vt 0.2133789 0.01971436
vt 0.3637695 0.6723633
vt 0.347168 0.03869629
vt 0.2866211 0.01971436
vt 0.01583862 0.5
vt -1.788139E-07 0.5
vt -1.788139E-07 1
vt 0.01583862 1
vt 0.07507324 0.5
vt 0.07507324 1
vt 0.2680664 0.4814453
vt 0.1013794 0.8149414
vt 1 0.5
vt 0.9775391 1
vt 1 1
vt 0.9775391 0.5
vt 0.9311523 1
vt 0.9311523 0.5
vt 0.7324219 0.8149414
vt 0.8989258 0.4816895
vt 0.8828125 1
vt 0.7324219 0.8149414
vt 0.8989258 0.4816895
vt 0.8828125 0.5
vt 0.7958984 1
vt 0.6992188 0.7822266
vt 0.8657227 0.4487305
vt 0.7958984 0.5
vt 0.7011719 1
vt 0.6455078 0.7387695
vt 0.8125 0.4055176
vt 0.7011719 0.5
vt 0.612793 1
vt 0.5668945 0.6992188
vt 0.7333984 0.3659668
vt 0.612793 0.5
vt 0.5244141 1
vt 0.4694824 0.6757813
vt 0.6362305 0.3425293
vt 0.5244141 0.5
vt 0.4289551 1
vt 0.3637695 0.6723633
vt 0.5302734 0.3391113
vt 0.4289551 0.5
vt 0.3383789 1
vt 0.2670898 0.7001953
vt 0.4335938 0.3666992
vt 0.3383789 0.5
vt 0.1013794 0.8149414
vt 0.1087646 1
vt 0.1087646 0.5
vt 0.2680664 0.4814453
vt 0.9052734 0.4226074
vt 0.8989258 0.4816895
vt 0.8481445 0.4611816
vt 0.7817383 0.4807129
vt 0.9428711 0.3791504
vt 0.7509766 0.4960938
vt 0.5488281 0.369873
vt 0.7275391 0.4833984
vt 0.6030273 0.4318848
vt 0.6430664 0.4584961
vt 0.2680664 0.4814453
vt 0.2998047 0.4482422
vt 0.9829102 0.2486572
vt 0.9731445 0.3168945
vt 0.5234375 0.2919922
vt 0.5205078 0.2734375
vt 0.5205078 0.2734375
vt 0.8125 0.4055176
vt 0.9829102 0.2486572
vt 0.3540039 0.4060059
vt 0.3540039 0.4060059
vt 0.9716797 0.1807861
vt 0.8125 0.4055176
vt 0.527832 0.1817627
vt 0.9472656 0.1279297
vt 0.5532227 0.1269531
vt 0.5532227 0.1269531
vt 0.7333984 0.3659668
vt 0.9472656 0.1279297
vt 0.4335938 0.3666992
vt 0.4335938 0.3666992
vt 0.9018555 0.07385254
vt 0.7333984 0.3659668
vt 0.6005859 0.07214355
vt 0.6503906 0.04040527
vt 0.5302734 0.3391113
vt 0.7133789 0.01971436
vt 0.9018555 0.07385254
vt 0.847168 0.03869629
vt 0.7866211 0.01971436
vn 0 1 0
vn 0 1 0
vn 0 1 0
vn 0 1 0
vn 0 1 0
vn 0 1 0
vn 0 1 0
vn 0 1 0
vn 0 1 0
vn 0 1 0
vn 0 1 0
vn 0 1 0
vn 0 1 0
vn 0 1 0
vn 0 1 0
vn 0 -1 0
vn 0 -1 0
vn 0 -1 0
vn 0 -1 0
vn 0 -1 0
vn 0 -1 0
vn 0 -1 0
vn 0 -1 0
vn 0 -1 0
vn 0 -1 0
vn 0 -1 0
vn 0 -1 0
vn 0 -1 0
vn 0 -1 0
vn 0 -1 0
vn 0.9921875 0 -0.1239624
vn 1 0 0.01754761
vn 0.9921875 0 -0.1239624
vn 1 0 0.01754761
vn 0.9707031 0 0.2412109
vn 0.9707031 0 0.2412109
vn 0.8969727 0 0.4418945
vn 0.8300781 0 0.5576172
vn 0.8969727 0 0.4418945
vn 0.8300781 0 0.5576172
vn 0.6679688 0 0.7441406
vn 0.6679688 0 0.7441406
vn 0.4570313 0 0.8896484
vn 0.3383789 0 0.940918
vn 0.4570313 0 0.8896484
vn 0.3383789 0 0.940918
vn 0.0657959 0 0.9980469
vn 0.0657959 0 0.9980469
vn -0.2220459 0 0.9750977
vn -0.2587891 0 0.9658203
vn -0.2220459 0 0.9750977
vn -0.2587891 0 0.9658203
vn -0.1707764 0 0.9853516
vn -0.1707764 0 0.9853516
vn -0.08770752 0 0.9960938
vn -0.1645508 0 0.9863281
vn -0.08770752 0 0.9960938
vn -0.1645508 0 0.9863281
vn -0.5351563 0 0.8447266
vn -0.5351563 0 0.8447266
vn -0.8227539 0 0.5683594
vn -0.8955078 0 0.4453125
vn -0.8227539 0 0.5683594
vn -0.8955078 0 0.4453125
vn -0.9526367 0 0.3039551
vn -0.9526367 0 0.3039551
vn -0.9804688 0 0.197876
vn -0.9804688 0 0.197876
vn -1 0 -0.0127182
vn -1 0 -0.0127182
vn -0.984375 0 -0.1768799
vn -0.984375 0 -0.1768799
vn -0.9091797 0 -0.4160156
vn -0.9091797 0 -0.4160156
vn -0.8549805 0 -0.5185547
vn -0.8549805 0 -0.5185547
vn 0.3232422 0 -0.9462891
vn 0.4873047 0 -0.8730469
vn 0.3232422 0 -0.9462891
vn 0.4873047 0 -0.8730469
vn 0.8222656 0 -0.5688477
vn 0.8222656 0 -0.5688477
vn 0 1 0
vn 0 1 0
vn 0 1 0
vn 0 1 0
vn 0 1 0
vn 0 1 0
vn 0 1 0
vn 0 1 0
vn 0 1 0
vn 0 1 0
vn 0 1 0
vn 0 1 0
vn 0 1 0
vn 0 1 0
vn 0 1 0
vn 0 1 0
vn 0 1 0
vn 0 1 0
vn 0 1 0
vn 0 1 0
vn 0 1 0
vn 0 1 0
vn 0 1 0
vn 0 1 0
vn 0 1 0
vn 0 1 0
vn 0 1 0
vn 0 1 0
vn 0 1 0
vn 0 1 0
vn 0 1 0
vn 0 1 0
vn 0 1 0
vn 0 1 0
vn 0 1 0
vn 0 1 0
vn 0 1 0
vn 0 1 0
vn 0 1 0
vn 0 1 0
vn 0.3405762 0 -0.9404297
vn 0.1043701 0 -0.9946289
vn 0.1043701 0 -0.9946289
vn 0.3405762 0 -0.9404297
vn 0.3098145 0 -0.9506836
vn 0.3098145 0 -0.9506836
vn -0.3530273 0 -0.9355469
vn -0.3530273 0 -0.9355469
vn 0.1043701 0 -0.9946289
vn -0.1203003 0 -0.9926758
vn 0.1043701 0 -0.9946289
vn -0.1203003 0 -0.9926758
vn -0.1192017 0 -0.9926758
vn -0.1192017 0 -0.9926758
vn 0.111084 0 -0.9936523
vn 0.111084 0 -0.9936523
vn 0.3232422 0 -0.9462891
vn 0.111084 0 -0.9936523
vn 0.111084 0 -0.9936523
vn 0.3232422 0 -0.9462891
vn 0.9921875 0 -0.1239624
vn 0.8222656 0 -0.5688477
vn 0.8222656 0 -0.5688477
vn 0.9921875 0 -0.1239624
vn 0.8969727 0 0.4418945
vn 0.9707031 0 0.2412109
vn 0.9707031 0 0.2412109
vn 0.8969727 0 0.4418945
vn 0.4570313 0 0.8896484
vn 0.6679688 0 0.7441406
vn 0.6679688 0 0.7441406
vn 0.4570313 0 0.8896484
vn -0.2220459 0 0.9750977
vn 0.0657959 0 0.9980469
vn 0.0657959 0 0.9980469
vn -0.2220459 0 0.9750977
vn -0.08770752 0 0.9960938
vn -0.1707764 0 0.9853516
vn -0.1707764 0 0.9853516
vn -0.08770752 0 0.9960938
vn -0.8227539 0 0.5683594
vn -0.5351563 0 0.8447266
vn -0.5351563 0 0.8447266
vn -0.8227539 0 0.5683594
vn -0.3530273 0 -0.9355469
vn -0.8549805 0 -0.5185547
vn -0.8549805 0 -0.5185547
vn -0.3530273 0 -0.9355469
vn 0 -1 0
vn 0 -1 0
vn 0 -1 0
vn 0 -1 0
vn 0 -1 0
vn 0 -1 0
vn 0 -1 0
vn 0 -1 0
vn 0 -1 0
vn 0 -1 0
vn 0 -1 0
vn 0 -1 0
vn 0 -1 0
vn 0 -1 0
vn 0 -1 0
vn 0 -1 0
vn 0 -1 0
vn 0 -1 0
vn 0 -1 0
vn 0 -1 0
vn 0 -1 0
vn 0 -1 0
vn 0 -1 0
vn 0 -1 0
vn 0 -1 0
vn 0 -1 0
vn 0 -1 0
vn 0 -1 0
vn 0 -1 0
vn 0 -1 0
vn 0 -1 0
vn 0 -1 0
vn 0 -1 0
vn 0 -1 0
vn 0 -1 0
vn 0 -1 0
vn 0 -1 0
vn 0 -1 0
vn 0 -1 0
vn 0 -1 0
g Bridge1.008_0
f 3/3/3 2/2/2 1/1/1
f 6/6/6 5/5/5 4/4/4
f 9/9/9 8/8/8 7/7/7
f 12/12/12 11/11/11 10/10/10
f 15/15/15 14/14/14 13/13/13
f 18/18/18 17/17/17 16/16/16
f 21/21/21 20/20/20 19/19/19
f 24/24/24 23/23/23 22/22/22
f 27/27/27 26/26/26 25/25/25
f 30/30/30 29/29/29 28/28/28
f 33/33/33 32/32/32 31/31/31
f 32/32/32 34/34/34 31/31/31
f 34/34/34 32/32/32 35/35/35
f 36/36/36 34/34/34 35/35/35
f 39/39/39 38/38/38 37/37/37
f 38/38/38 40/40/40 37/37/37
f 40/40/40 38/38/38 41/41/41
f 42/42/42 40/40/40 41/41/41
f 45/45/45 44/44/44 43/43/43
f 44/44/44 46/46/46 43/43/43
f 46/46/46 44/44/44 47/47/47
f 48/48/48 46/46/46 47/47/47
f 51/51/51 50/50/50 49/49/49
f 50/50/50 52/52/52 49/49/49
f 52/52/52 50/50/50 53/53/53
f 54/54/54 52/52/52 53/53/53
f 57/57/57 56/56/56 55/55/55
f 56/56/56 58/58/58 55/55/55
f 58/58/58 56/56/56 59/59/59
f 60/60/60 58/58/58 59/59/59
f 63/63/63 62/62/62 61/61/61
f 62/62/62 64/64/64 61/61/61
f 64/64/64 62/62/62 65/65/65
f 66/66/66 64/64/64 65/65/65
f 66/66/66 65/65/65 67/67/67
f 68/68/68 66/66/66 67/67/67
f 67/67/67 69/69/69 68/68/68
f 69/69/69 70/70/70 68/68/68
f 70/70/70 69/69/69 71/71/71
f 72/72/72 70/70/70 71/71/71
f 72/72/72 71/71/71 73/73/73
f 74/74/74 72/72/72 73/73/73
f 73/73/73 75/75/75 74/74/74
f 75/75/75 76/76/76 74/74/74
f 79/79/79 78/78/78 77/77/77
f 78/78/78 80/80/80 77/77/77
f 80/80/80 78/78/78 81/81/81
f 82/82/82 80/80/80 81/81/81
f 85/85/85 84/84/84 83/83/83
f 83/83/83 86/86/86 85/85/85
f 83/83/83 87/87/87 86/86/86
f 87/87/87 88/88/88 86/86/86
f 87/87/87 89/89/89 88/88/88
f 90/90/90 88/88/88 89/89/89
f 90/90/90 89/89/89 91/91/91
f 92/92/92 90/90/90 91/91/91
f 91/91/91 93/93/93 92/92/92
f 96/96/96 95/95/95 94/94/94
f 96/96/96 97/97/97 95/95/95
f 97/97/97 98/98/98 95/95/95
f 101/101/101 100/100/100 99/99/99
f 101/101/101 102/102/102 100/100/100
f 105/105/105 104/104/104 103/103/103
f 105/105/105 106/106/106 104/104/104
f 106/106/106 107/107/107 104/104/104
f 106/106/106 108/108/108 107/107/107
f 111/111/111 110/110/110 109/109/109
f 111/111/111 112/112/112 110/110/110
f 115/115/115 114/114/114 113/113/113
f 115/115/115 116/116/116 114/114/114
f 116/116/116 117/117/117 114/114/114
f 120/120/120 119/119/119 118/118/118
f 119/119/119 121/121/121 118/118/118
f 119/119/119 122/122/122 121/121/121
f 125/125/125 124/124/124 123/123/123
f 126/126/126 125/125/125 123/123/123
f 126/126/126 123/123/123 127/127/127
f 128/128/128 126/126/126 127/127/127
f 127/127/127 129/129/129 128/128/128
f 129/129/129 130/130/130 128/128/128
f 133/133/133 132/132/132 131/131/131
f 132/132/132 134/134/134 131/131/131
f 132/132/132 135/135/135 134/134/134
f 135/135/135 136/136/136 134/134/134
f 136/136/136 135/135/135 137/137/137
f 138/138/138 136/136/136 137/137/137
f 141/141/141 140/140/140 139/139/139
f 142/142/142 141/141/141 139/139/139
f 145/145/145 144/144/144 143/143/143
f 146/146/146 145/145/145 143/143/143
f 149/149/149 148/148/148 147/147/147
f 150/150/150 149/149/149 147/147/147
f 153/153/153 152/152/152 151/151/151
f 154/154/154 153/153/153 151/151/151
f 157/157/157 156/156/156 155/155/155
f 158/158/158 157/157/157 155/155/155
f 161/161/161 160/160/160 159/159/159
f 162/162/162 161/161/161 159/159/159
f 165/165/165 164/164/164 163/163/163
f 166/166/166 165/165/165 163/163/163
f 169/169/169 168/168/168 167/167/167
f 170/170/170 169/169/169 167/167/167
f 173/173/173 172/172/172 171/171/171
f 171/171/171 174/174/174 173/173/173
f 171/171/171 175/175/175 174/174/174
f 175/175/175 176/176/176 174/174/174
f 176/176/176 175/175/175 177/177/177
f 178/178/178 176/176/176 177/177/177
f 178/178/178 177/177/177 179/179/179
f 180/180/180 178/178/178 179/179/179
f 179/179/179 181/181/181 180/180/180
f 184/184/184 183/183/183 182/182/182
f 183/183/183 185/185/185 182/182/182
f 183/183/183 186/186/186 185/185/185
f 189/189/189 188/188/188 187/187/187
f 188/188/188 190/190/190 187/187/187
f 193/193/193 192/192/192 191/191/191
f 192/192/192 194/194/194 191/191/191
f 192/192/192 195/195/195 194/194/194
f 195/195/195 196/196/196 194/194/194
f 199/199/199 198/198/198 197/197/197
f 198/198/198 200/200/200 197/197/197
f 203/203/203 202/202/202 201/201/201
f 202/202/202 204/204/204 201/201/201
f 202/202/202 205/205/205 204/204/204
f 208/208/208 207/207/207 206/206/206
f 208/208/208 209/209/209 207/207/207
f 209/209/209 210/210/210 207/207/207
