g Cube.003
v 0.02088609 -0.1735028 0.00615089
v 0.006236047 -0.1079264 0.00615093
v 0.006236047 -0.1079264 -0.03680165
v 0.02088609 -0.1735027 -0.03680169
v -0.09745649 -0.1716142 -0.04594706
v -0.1656195 -0.07080696 -0.04594701
v -0.1817712 -0.1455864 -0.04594706
v -0.07969169 -0.08936667 -0.04594701
v 0.02088609 -0.1735027 -0.03680169
v 0.006236047 -0.1079264 -0.03680165
v -0.1817712 -0.1455864 -0.04594706
v -0.1656195 -0.07080696 -0.04594701
v -0.1656195 -0.070807 0.01529632
v -0.1817712 -0.1455865 0.01529627
v -0.09745649 -0.1716142 0.01529627
v 0.006236047 -0.1079264 0.00615093
v 0.02088609 -0.1735028 0.00615089
v -0.07969169 -0.0893667 0.01529632
v -0.1817712 -0.1455865 0.01529627
v -0.1656195 -0.070807 0.01529632
v -0.09745649 -0.1716142 -0.04594706
v -0.1817712 -0.1455864 -0.04594706
v -0.1817712 -0.1455865 0.01529627
v -0.09745649 -0.1716142 0.01529627
v 0.02088609 -0.1735027 -0.03680169
v 0.02088609 -0.1735028 0.00615089
v -0.07969169 -0.08936667 -0.04594701
v 0.006236047 -0.1079264 -0.03680165
v 0.006236047 -0.1079264 0.00615093
v -0.07969169 -0.0893667 0.01529632
v -0.1656195 -0.07080696 -0.04594701
v -0.1656195 -0.070807 0.01529632
v 0.1442674 0.09164304 -0.1473461
v -0.07100464 0.1187396 -0.1018968
v -0.06710573 0.07345267 -0.1473537
v 0.1403685 0.1369299 -0.1018892
v -0.07101198 0.1187364 0.1102517
v 0.1403612 0.1369268 0.1102592
v -0.06711616 0.0734482 0.1557075
v 0.144257 0.09163857 0.1557151
v -0.112402 0.06955151 0.1102495
v -0.07101198 0.1187364 0.1102517
v -0.06711616 0.0734482 0.1557075
v -0.1123947 0.06955468 -0.1018989
v -0.07100464 0.1187396 -0.1018968
v -0.06710573 0.07345267 -0.1473537
v 0.144824 0.08517415 -0.1408536
v -0.0643537 0.06736626 -0.141054
v -0.06719072 0.1109985 -0.09876049
v 0.1410958 0.1284779 -0.09837577
v -0.06719774 0.1109954 0.1071154
v 0.1410887 0.1284751 0.1067455
v -0.06436354 0.06736185 0.1494078
v 0.1448138 0.08516999 0.1492225
v -0.1055852 0.063815 0.1080293
v -0.06436354 0.06736185 0.1494078
v -0.06719774 0.1109954 0.1071154
v -0.1055779 0.06381817 -0.09967842
v -0.06719072 0.1109985 -0.09876049
v -0.0643537 0.06736626 -0.141054
v 0.1442674 0.09164304 -0.1473461
v -0.06710573 0.07345267 -0.1473537
v -0.0643537 0.06736626 -0.141054
v 0.144824 0.08517415 -0.1408536
v 0.1403685 0.1369299 -0.1018892
v 0.1442674 0.09164304 -0.1473461
v 0.144824 0.08517415 -0.1408536
v 0.1410958 0.1284779 -0.09837577
v 0.1403612 0.1369268 0.1102592
v 0.1410887 0.1284751 0.1067455
v 0.144257 0.09163857 0.1557151
v 0.1448138 0.08516999 0.1492225
v -0.06710573 0.07345267 -0.1473537
v -0.1055779 0.06381817 -0.09967842
v -0.0643537 0.06736626 -0.141054
v -0.1123947 0.06955468 -0.1018989
v -0.1055852 0.063815 0.1080293
v -0.112402 0.06955151 0.1102495
v -0.06436354 0.06736185 0.1494078
v -0.06711616 0.0734482 0.1557075
v -0.06711616 0.0734482 0.1557075
v 0.144257 0.09163857 0.1557151
v 0.1448138 0.08516999 0.1492225
v -0.06436354 0.06736185 0.1494078
v -0.0624905 0.06180683 -0.1344466
v -0.06249475 -0.09302298 -0.1344489
v 0.1315891 -0.09302636 -0.134442
v 0.1315934 0.06180346 -0.1344397
v -0.06249104 0.09497938 -0.09286153
v 0.1315928 0.09497601 -0.09285463
v -0.06249797 0.09497751 0.1012169
v 0.1315859 0.09497414 0.1012238
v -0.06250034 0.06180424 0.1428009
v 0.1315835 0.06180085 0.1428078
v -0.06250463 -0.09302559 0.1427987
v 0.1315793 -0.09302906 0.1428055
v -0.06250401 -0.1261983 0.1012136
v 0.1315798 -0.1262017 0.1012205
v 0.1315867 -0.1261999 -0.0928579
v -0.06249712 -0.1261965 -0.09286479
v -0.06249475 -0.09302298 -0.1344489
v 0.1315891 -0.09302636 -0.134442
v 0.173164 -0.09302933 0.1012225
v 0.1315793 -0.09302906 0.1428055
v 0.1315835 0.06180085 0.1428078
v 0.1315798 -0.1262017 0.1012205
v 0.1731682 0.0618005 0.1012248
v 0.1315859 0.09497414 0.1012238
v 0.1315928 0.09497601 -0.09285463
v 0.1731709 -0.09302755 -0.09285593
v 0.1315867 -0.1261999 -0.0928579
v 0.1315891 -0.09302636 -0.134442
v 0.1731752 0.06180235 -0.09285364
v 0.1315934 0.06180346 -0.1344397
v -0.0624905 0.06180683 -0.1344466
v -0.1040794 -0.0930227 -0.0928658
v -0.06249475 -0.09302298 -0.1344489
v -0.06249712 -0.1261965 -0.09286479
v -0.1040751 0.06180719 -0.0928635
v -0.06249104 0.09497938 -0.09286153
v -0.06249797 0.09497751 0.1012169
v -0.104082 0.06180533 0.1012149
v -0.06250034 0.06180424 0.1428009
v -0.06250463 -0.09302559 0.1427987
v -0.1040862 -0.09302448 0.1012126
v -0.06250401 -0.1261983 0.1012136
vt 0.4255371 0
vt 0.625 0
vt 0.625 0.25
vt 0.4255371 0.25
vt 0.375 0.375
vt 0.625 0.5
vt 0.375 0.5
vt 0.625 0.375
vt 0.4255371 0.25
vt 0.625 0.25
vt 0.375 0.5
vt 0.625 0.5
vt 0.625 0.75
vt 0.375 0.75
vt 0.375 0.875
vt 0.625 1
vt 0.4255371 1
vt 0.625 0.875
vt 0.375 0.75
vt 0.625 0.75
vt 0.25 0.5
vt 0.375 0.5
vt 0.375 0.75
vt 0.25 0.75
vt 0.1104126 0.5
vt 0.1104126 0.75
vt 0.75 0.5
vt 0.875 0.5
vt 0.875 0.75
vt 0.75 0.75
vt 0.625 0.5
vt 0.625 0.75
vt 0 0
vt 0 0
vt 0 0
vt 0 0
vt 0 0
vt 0 0
vt 0 0
vt 0 0
vt 0 0
vt 0 0
vt 0 0
vt 0 0
vt 0 0
vt 0 0
vt 0 0
vt 0 0
vt 0 0
vt 0 0
vt 0 0
vt 0 0
vt 0 0
vt 0 0
vt 0 0
vt 0 0
vt 0 0
vt 0 0
vt 0 0
vt 0 0
vt 0 0
vt 0 0
vt 0 0
vt 0 0
vt 0 0
vt 0 0
vt 0 0
vt 0 0
vt 0 0
vt 0 0
vt 0 0
vt 0 0
vt 0 0
vt 0 0
vt 0 0
vt 0 0
vt 0 0
vt 0 0
vt 0 0
vt 0 0
vt 0 0
vt 0 0
vt 0 0
vt 0 0
vt 0 0
vt 0 0
vt 0 0
vt 0 0
vt 0 0
vt 0 0
vt 0 0
vt 0 0
vt 0 0
vt 0 0
vt 0 0
vt 0 0
vt 0 0
vt 0 0
vt 0 0
vt 0 0
vt 0 0
vt 0 0
vt 0 0
vt 0 0
vt 0 0
vt 0 0
vt 0 0
vt 0 0
vt 0 0
vt 0 0
vt 0 0
vt 0 0
vt 0 0
vt 0 0
vt 0 0
vt 0 0
vt 0 0
vt 0 0
vt 0 0
vt 0 0
vt 0 0
vt 0 0
vt 0 0
vt 0 0
vt 0 0
vt 0 0
vn 0.9760742 0.2180176 0
vn 0.9760742 0.2180176 0
vn 0.9760742 0.2180176 0
vn 0.9760742 0.2180176 0
vn 0.04446411 -0.0009360313 -0.9990234
vn 0 0 -1
vn 0 0 -1
vn 0.0461731 -0.000972271 -0.9990234
vn 0.08898926 -0.001874924 -0.9960938
vn 0.08898926 -0.001874924 -0.9960938
vn -0.9775391 0.2111816 0
vn -0.9775391 0.2111816 0
vn -0.9775391 0.2111816 0
vn -0.9775391 0.2111816 0
vn 0.04446411 -0.0009374619 0.9990234
vn 0.08898926 -0.001875877 0.9960938
vn 0.08898926 -0.001875877 0.9960938
vn 0.0461731 -0.0009732246 0.9990234
vn 0 0 1
vn 0 0 1
vn -0.1512451 -0.9882813 0
vn -0.2949219 -0.9555664 0
vn -0.2949219 -0.9555664 0
vn -0.1512451 -0.9882813 0
vn -0.01596069 -1 0
vn -0.01596069 -1 0
vn 0.2111816 0.9775391 0
vn 0.2111816 0.9775391 0
vn 0.2111816 0.9775391 0
vn 0.2111816 0.9775391 0
vn 0.2111816 0.9775391 0
vn 0.2111816 0.9775391 0
vn -0.06060791 0.7045898 -0.7070313
vn -0.2381592 0.9589844 -0.1551514
vn -0.1074219 0.699707 -0.706543
vn -0.08441162 0.980957 -0.1737061
vn -0.2381592 0.9589844 0.1551514
vn -0.08447266 0.980957 0.1738281
vn -0.1074829 0.699707 0.706543
vn -0.06063843 0.7045898 0.7070313
vn -0.7641602 0.6430664 0.04705811
vn -0.2381592 0.9589844 0.1551514
vn -0.1074829 0.699707 0.706543
vn -0.7641602 0.6430664 -0.04708862
vn -0.2381592 0.9589844 -0.1551514
vn -0.1074219 0.699707 -0.706543
vn 0.05770874 -0.6948242 0.7167969
vn 0.1032715 -0.6904297 0.7158203
vn 0.2358398 -0.9589844 0.1560059
vn 0.08221436 -0.9814453 0.1733398
vn 0.2358398 -0.9589844 -0.1560059
vn 0.08221436 -0.9814453 -0.1733398
vn 0.1033325 -0.6904297 -0.7158203
vn 0.05776978 -0.6948242 -0.7167969
vn 0.7744141 -0.6308594 -0.04614258
vn 0.1033325 -0.6904297 -0.7158203
vn 0.2358398 -0.9589844 -0.1560059
vn 0.7744141 -0.6308594 0.0461731
vn 0.2358398 -0.9589844 0.1560059
vn 0.1032715 -0.6904297 0.7158203
vn 0.06063843 -0.7045898 -0.7070313
vn -0.04730225 -0.7285156 -0.6831055
vn -0.05618286 -0.7299805 -0.6811523
vn 0.06063843 -0.7045898 -0.7070313
vn 0.9960938 0.08575439 3.486872E-05
vn 0.9960938 0.08575439 3.260374E-05
vn 0.9960938 0.08575439 3.260374E-05
vn 0.9960938 0.08575439 3.486872E-05
vn 0.9960938 0.08575439 3.558397E-05
vn 0.9960938 0.08575439 3.558397E-05
vn 0.9960938 0.08575439 3.552437E-05
vn 0.9960938 0.08575439 3.552437E-05
vn -0.04730225 -0.7285156 -0.6831055
vn -0.6157227 -0.7783203 -0.1206055
vn -0.05618286 -0.7299805 -0.6811523
vn -0.6181641 -0.777832 -0.1114502
vn -0.6157227 -0.7783203 0.1205444
vn -0.6181641 -0.777832 0.1113892
vn -0.05621338 -0.7299805 0.6806641
vn -0.04736328 -0.7285156 0.6831055
vn -0.04736328 -0.7285156 0.6831055
vn 0.06060791 -0.7045898 0.7070313
vn 0.06060791 -0.7045898 0.7070313
vn -0.05621338 -0.7299805 0.6806641
vn -0.1535645 0.1925049 -0.9692383
vn -0.1535645 -0.1925049 -0.9692383
vn 0.1535645 -0.1925049 -0.9692383
vn 0.1536865 0.1925049 -0.9692383
vn -0.1256104 0.9838867 -0.1256104
vn 0.1256104 0.9838867 -0.1256104
vn -0.1256104 0.9838867 0.1256104
vn 0.1256104 0.9838867 0.1256104
vn -0.1535645 0.1925049 0.9692383
vn 0.1535645 0.1925049 0.9692383
vn -0.1536865 -0.1925049 0.9692383
vn 0.1535645 -0.1925049 0.9692383
vn -0.1256104 -0.9838867 0.1256104
vn 0.1256104 -0.9838867 0.1256104
vn 0.1256104 -0.9838867 -0.1256104
vn -0.1256104 -0.9838867 -0.1256104
vn -0.1535645 -0.1925049 -0.9692383
vn 0.1535645 -0.1925049 -0.9692383
vn 0.9692383 -0.1925049 0.1535645
vn 0.1535645 -0.1925049 0.9692383
vn 0.1535645 0.1925049 0.9692383
vn 0.1256104 -0.9838867 0.1256104
vn 0.9692383 0.1925049 0.1535645
vn 0.1256104 0.9838867 0.1256104
vn 0.1256104 0.9838867 -0.1256104
vn 0.9692383 -0.1925049 -0.1535645
vn 0.1256104 -0.9838867 -0.1256104
vn 0.1535645 -0.1925049 -0.9692383
vn 0.9692383 0.1925049 -0.1535645
vn 0.1536865 0.1925049 -0.9692383
vn -0.1535645 0.1925049 -0.9692383
vn -0.9692383 -0.1925049 -0.1535645
vn -0.1535645 -0.1925049 -0.9692383
vn -0.1256104 -0.9838867 -0.1256104
vn -0.9692383 0.1925049 -0.1535645
vn -0.1256104 0.9838867 -0.1256104
vn -0.1256104 0.9838867 0.1256104
vn -0.9692383 0.1925049 0.1535645
vn -0.1535645 0.1925049 0.9692383
vn -0.1536865 -0.1925049 0.9692383
vn -0.9692383 -0.1925049 0.1535645
vn -0.1256104 -0.9838867 0.1256104
g Cube.003_0
f 3/3/3 2/2/2 1/1/1
f 4/4/4 3/3/3 1/1/1
f 7/7/7 6/6/6 5/5/5
f 6/6/6 8/8/8 5/5/5
f 5/5/5 8/8/8 9/9/9
f 8/8/8 10/10/10 9/9/9
f 13/13/13 12/12/12 11/11/11
f 14/14/14 13/13/13 11/11/11
f 17/17/17 16/16/16 15/15/15
f 16/16/16 18/18/18 15/15/15
f 15/15/15 18/18/18 19/19/19
f 18/18/18 20/20/20 19/19/19
f 23/23/23 22/22/22 21/21/21
f 24/24/24 23/23/23 21/21/21
f 24/24/24 21/21/21 25/25/25
f 26/26/26 24/24/24 25/25/25
f 29/29/29 28/28/28 27/27/27
f 30/30/30 29/29/29 27/27/27
f 30/30/30 27/27/27 31/31/31
f 32/32/32 30/30/30 31/31/31
f 35/35/35 34/34/34 33/33/33
f 34/34/34 36/36/36 33/33/33
f 36/36/36 34/34/34 37/37/37
f 38/38/38 36/36/36 37/37/37
f 37/37/37 39/39/39 38/38/38
f 39/39/39 40/40/40 38/38/38
f 43/43/43 42/42/42 41/41/41
f 44/44/44 41/41/41 42/42/42
f 45/45/45 44/44/44 42/42/42
f 45/45/45 46/46/46 44/44/44
f 49/49/49 48/48/48 47/47/47
f 50/50/50 49/49/49 47/47/47
f 49/49/49 50/50/50 51/51/51
f 50/50/50 52/52/52 51/51/51
f 53/53/53 51/51/51 52/52/52
f 54/54/54 53/53/53 52/52/52
f 57/57/57 56/56/56 55/55/55
f 55/55/55 58/58/58 57/57/57
f 58/58/58 59/59/59 57/57/57
f 60/60/60 59/59/59 58/58/58
f 63/63/63 62/62/62 61/61/61
f 64/64/64 63/63/63 61/61/61
f 67/67/67 66/66/66 65/65/65
f 68/68/68 67/67/67 65/65/65
f 68/68/68 65/65/65 69/69/69
f 70/70/70 68/68/68 69/69/69
f 70/70/70 69/69/69 71/71/71
f 72/72/72 70/70/70 71/71/71
f 75/75/75 74/74/74 73/73/73
f 74/74/74 76/76/76 73/73/73
f 74/74/74 77/77/77 76/76/76
f 77/77/77 78/78/78 76/76/76
f 77/77/77 79/79/79 78/78/78
f 79/79/79 80/80/80 78/78/78
f 83/83/83 82/82/82 81/81/81
f 84/84/84 83/83/83 81/81/81
g Cube.003_1
f 87/87/87 86/86/86 85/85/85
f 88/88/88 87/87/87 85/85/85
f 85/85/85 89/89/89 88/88/88
f 89/89/89 90/90/90 88/88/88
f 90/90/90 89/89/89 91/91/91
f 92/92/92 90/90/90 91/91/91
f 91/91/91 93/93/93 92/92/92
f 93/93/93 94/94/94 92/92/92
f 94/94/94 93/93/93 95/95/95
f 96/96/96 94/94/94 95/95/95
f 95/95/95 97/97/97 96/96/96
f 97/97/97 98/98/98 96/96/96
f 98/98/98 97/97/97 99/99/99
f 97/97/97 100/100/100 99/99/99
f 100/100/100 101/101/101 99/99/99
f 101/101/101 102/102/102 99/99/99
f 105/105/105 104/104/104 103/103/103
f 104/104/104 106/106/106 103/103/103
f 107/107/107 105/105/105 103/103/103
f 105/105/105 107/107/107 108/108/108
f 109/109/109 108/108/108 107/107/107
f 110/110/110 103/103/103 106/106/106
f 103/103/103 110/110/110 107/107/107
f 111/111/111 110/110/110 106/106/106
f 112/112/112 110/110/110 111/111/111
f 113/113/113 109/109/109 107/107/107
f 110/110/110 113/113/113 107/107/107
f 110/110/110 112/112/112 113/113/113
f 109/109/109 113/113/113 114/114/114
f 112/112/112 114/114/114 113/113/113
f 117/117/117 116/116/116 115/115/115
f 117/117/117 118/118/118 116/116/116
f 116/116/116 119/119/119 115/115/115
f 120/120/120 115/115/115 119/119/119
f 120/120/120 119/119/119 121/121/121
f 119/119/119 122/122/122 121/121/121
f 122/122/122 119/119/119 116/116/116
f 123/123/123 121/121/121 122/122/122
f 123/123/123 122/122/122 124/124/124
f 116/116/116 118/118/118 125/125/125
f 125/125/125 122/122/122 116/116/116
f 122/122/122 125/125/125 124/124/124
f 118/118/118 126/126/126 125/125/125
f 124/124/124 125/125/125 126/126/126
