g Cube.212
v -1.008013 -1.745564 1.008013
v -1.008013 -1.745564 -1.008013
v -0.5990134 0.2704609 -0.5990134
v -0.5990134 0.2704609 0.5990134
v -1.008013 -1.745564 -1.008013
v 1.008013 -1.745564 -1.008013
v 0.5990134 0.2704609 -0.5990134
v -0.5990134 0.2704609 -0.5990134
v 1.008013 -1.745564 -1.008013
v 1.008013 -1.745564 1.008013
v 0.5990134 0.2704609 0.5990134
v 0.5990134 0.2704609 -0.5990134
v 1.008013 -1.745564 1.008013
v -1.008013 -1.745564 1.008013
v -0.5990134 0.2704609 0.5990134
v 0.5990134 0.2704609 0.5990134
v -1.008013 -1.745564 -1.008013
v -1.008013 -1.745564 1.008013
v 1.008013 -1.745564 1.008013
v 1.008013 -1.745564 -1.008013
v 0.446308 0.2704609 -0.4463081
v 0.446308 0.2704609 0.4463081
v -0.4463082 0.2704609 0.4463081
v -0.4463082 0.2704609 -0.4463081
v 0.5990134 0.2704609 -0.5990134
v 0.5990134 0.6023212 -0.5990134
v -0.5990134 0.6023212 -0.5990134
v -0.5990134 0.2704609 -0.5990134
v -0.5990134 0.2704609 0.5990134
v -0.5990134 0.6023212 0.5990134
v 0.5990134 0.6023212 0.5990134
v 0.5990134 0.2704609 0.5990134
v -0.5990134 0.2704609 -0.5990134
v -0.5990134 0.6023212 -0.5990134
v -0.5990134 0.6023212 0.5990134
v -0.5990134 0.2704609 0.5990134
v -0.4463082 0.2704609 -0.4463081
v -0.4463082 0.6023212 -0.4463081
v 0.446308 0.6023212 -0.4463081
v 0.446308 0.2704609 -0.4463081
v -0.5990134 0.6023212 -0.5990134
v -0.4463082 0.6023212 0.4463081
v -0.5990134 0.6023212 0.5990134
v -0.4463082 0.6023212 -0.4463081
v 0.5990134 0.6023212 -0.5990134
v 0.446308 0.6023212 -0.4463081
v 0.5990134 0.6023212 0.5990134
v 0.446308 0.6023212 0.4463081
v -0.5990134 0.6023212 0.5990134
v -0.4463082 0.6023212 0.4463081
v 0.446308 0.2704609 -0.4463081
v 0.446308 0.6023212 -0.4463081
v 0.446308 0.6023212 0.4463081
v 0.446308 0.2704609 0.4463081
v -0.4463082 0.2704609 0.4463081
v -0.4463082 0.6023212 0.4463081
v -0.4463082 0.6023212 -0.4463081
v -0.4463082 0.2704609 -0.4463081
v 0.5990134 0.2704609 0.5990134
v 0.5990134 0.6023212 0.5990134
v 0.5990134 0.6023212 -0.5990134
v 0.5990134 0.2704609 -0.5990134
v 0.446308 0.2704609 0.4463081
v 0.446308 0.6023212 0.4463081
v -0.4463082 0.6023212 0.4463081
v -0.4463082 0.2704609 0.4463081
vt 0.375 0
vt 0.375 0.25
vt 0.625 0.25
vt 0.625 0
vt 0.375 0.25
vt 0.375 0.5
vt 0.625 0.5
vt 0.625 0.25
vt 0.375 0.5
vt 0.375 0.75
vt 0.625 0.75
vt 0.625 0.5
vt 0.375 0.75
vt 0.375 1
vt 0.625 1
vt 0.625 0.75
vt 0.125 0.5
vt 0.125 0.75
vt 0.375 0.75
vt 0.375 0.5
vt 0.625 0.5
vt 0.625 0.75
vt 0.875 0.75
vt 0.875 0.5
vt 0.625 0.5
vt 0.625 0.5
vt 0.625 0.25
vt 0.625 0.25
vt 0.625 1
vt 0.625 1
vt 0.625 0.75
vt 0.625 0.75
vt 0.625 0.25
vt 0.625 0.25
vt 0.625 0
vt 0.625 0
vt 0.875 0.5
vt 0.875 0.5
vt 0.625 0.5
vt 0.625 0.5
vt 0.625 0.25
vt 0.625 0
vt 0.625 0
vt 0.625 0.25
vt 0.625 0.5
vt 0.625 0.5
vt 0.625 0.75
vt 0.625 0.75
vt 0.625 1
vt 0.625 1
vt 0.625 0.5
vt 0.625 0.5
vt 0.625 0.75
vt 0.625 0.75
vt 0.875 0.75
vt 0.875 0.75
vt 0.875 0.5
vt 0.875 0.5
vt 0.625 0.75
vt 0.625 0.75
vt 0.625 0.5
vt 0.625 0.5
vt 0.625 0.75
vt 0.625 0.75
vt 0.875 0.75
vt 0.875 0.75
vn -0.9799805 0.1988525 0
vn -0.9799805 0.1988525 0
vn -0.9799805 0.1988525 0
vn -0.9799805 0.1988525 0
vn 0 0.1988525 -0.9799805
vn 0 0.1988525 -0.9799805
vn 0 0.1988525 -0.9799805
vn 0 0.1988525 -0.9799805
vn 0.9799805 0.1988525 0
vn 0.9799805 0.1988525 0
vn 0.9799805 0.1988525 0
vn 0.9799805 0.1988525 0
vn 0 0.1988525 0.9799805
vn 0 0.1988525 0.9799805
vn 0 0.1988525 0.9799805
vn 0 0.1988525 0.9799805
vn 0 -1 0
vn 0 -1 0
vn 0 -1 0
vn 0 -1 0
vn 0 1 0
vn 0 1 0
vn 0 1 0
vn 0 1 0
vn 0 0 -1
vn 0 0 -1
vn 0 0 -1
vn 0 0 -1
vn 0 0 1
vn 0 0 1
vn 0 0 1
vn 0 0 1
vn -1 0 0
vn -1 0 0
vn -1 0 0
vn -1 0 0
vn 0 0 1
vn 0 0 1
vn 0 0 1
vn 0 0 1
vn 0 1 0
vn 0 1 0
vn 0 1 0
vn 0 1 0
vn 0 1 0
vn 0 1 0
vn 0 1 0
vn 0 1 0
vn 0 1 0
vn 0 1 0
vn -1 0 0
vn -1 0 0
vn -1 0 0
vn -1 0 0
vn 1 0 0
vn 1 0 0
vn 1 0 0
vn 1 0 0
vn 1 0 0
vn 1 0 0
vn 1 0 0
vn 1 0 0
vn 0 0 -1
vn 0 0 -1
vn 0 0 -1
vn 0 0 -1
g Cube.212_0
f 3/3/3 2/2/2 1/1/1
f 4/4/4 3/3/3 1/1/1
f 7/7/7 6/6/6 5/5/5
f 8/8/8 7/7/7 5/5/5
f 11/11/11 10/10/10 9/9/9
f 12/12/12 11/11/11 9/9/9
f 15/15/15 14/14/14 13/13/13
f 16/16/16 15/15/15 13/13/13
f 19/19/19 18/18/18 17/17/17
f 20/20/20 19/19/19 17/17/17
f 23/23/23 22/22/22 21/21/21
f 24/24/24 23/23/23 21/21/21
g Cube.212_1
f 27/27/27 26/26/26 25/25/25
f 28/28/28 27/27/27 25/25/25
f 31/31/31 30/30/30 29/29/29
f 32/32/32 31/31/31 29/29/29
f 35/35/35 34/34/34 33/33/33
f 36/36/36 35/35/35 33/33/33
f 39/39/39 38/38/38 37/37/37
f 40/40/40 39/39/39 37/37/37
f 43/43/43 42/42/42 41/41/41
f 42/42/42 44/44/44 41/41/41
f 41/41/41 44/44/44 45/45/45
f 44/44/44 46/46/46 45/45/45
f 45/45/45 46/46/46 47/47/47
f 46/46/46 48/48/48 47/47/47
f 47/47/47 48/48/48 49/49/49
f 48/48/48 50/50/50 49/49/49
f 53/53/53 52/52/52 51/51/51
f 54/54/54 53/53/53 51/51/51
f 57/57/57 56/56/56 55/55/55
f 58/58/58 57/57/57 55/55/55
f 61/61/61 60/60/60 59/59/59
f 62/62/62 61/61/61 59/59/59
f 65/65/65 64/64/64 63/63/63
f 66/66/66 65/65/65 63/63/63
