g Cube.257
v -0.322226 -0.2483425 0.3567241
v -0.4134815 0.7067478 -0.2290182
v -0.1105313 0.4453529 0.3009484
v -0.3917755 0.1499438 -0.3319672
v -0.6064752 -0.9860674 0.4312841
v -0.6062716 -0.9860039 -0.4496068
v -0.09806705 -0.9860674 -0.4495725
v 0.9057577 -0.9860674 0.4312841
v 0.9057577 -0.9860674 -0.4495725
v -0.09806705 -0.9860674 0.4312841
v -0.4240776 -0.9860674 -0.4495725
v -0.4240776 -0.9860674 0.4312841
v -0.6062716 -0.9860039 -0.4496068
v -0.6064752 -0.9860674 0.4312841
v -0.2805568 0.9387521 -0.2258744
v -0.1105313 0.4453529 0.3009484
v -0.4134815 0.7067478 -0.2290182
v -0.02607476 0.6933723 0.3043777
v -0.1074886 1.345669 -0.2438022
v -0.02974659 1.19935 0.2771903
v 0.4939128 1.038663 -0.2206642
v -0.02974659 1.19935 0.2771903
v -0.1074886 1.345669 -0.2438022
v 0.4470321 0.9575294 0.2949805
v 0.5552113 0.2833034 -0.4293863
v 0.929481 -0.04710668 0.2148124
v 0.9057577 -0.9860674 -0.4495725
v 0.9057577 -0.9860674 0.4312841
v 0.929481 -0.04710668 0.2148124
v -0.02974659 1.19935 0.2771903
v 0.4470321 0.9575294 0.2949805
v 0.1625433 -0.01953628 0.3326527
v 0.9057577 -0.9860674 0.4312841
v -0.02607476 0.6933723 0.3043777
v -0.09806705 -0.9860674 0.4312841
v -0.1096039 -0.1628884 0.3457802
v -0.1105313 0.4453529 0.3009484
v -0.4240776 -0.9860674 0.4312841
v -0.322226 -0.2483425 0.3567241
v -0.6064752 -0.9860674 0.4312841
v -0.3917755 0.1499438 -0.3319672
v -0.2805568 0.9387521 -0.2258744
v -0.4134815 0.7067478 -0.2290182
v -0.2356749 0.2435196 -0.3399049
v -0.6062716 -0.9860039 -0.4496068
v -0.1074886 1.345669 -0.2438022
v -0.4240776 -0.9860674 -0.4495725
v -0.1154996 0.3641471 -0.3336613
v 0.4939128 1.038663 -0.2206642
v -0.09806705 -0.9860674 -0.4495725
v 0.5552113 0.2833034 -0.4293863
v 0.9057577 -0.9860674 -0.4495725
vt 0.5 0
vt 0.625 0.25
vt 0.625 0
vt 0.5 0.25
vt 0.375 0
vt 0.375 0.25
vt 0.2091064 0.5
vt 0.375 0.75
vt 0.375 0.5
vt 0.2091064 0.75
vt 0.1551514 0.5
vt 0.1551514 0.75
vt 0.125 0.5
vt 0.125 0.75
vt 0.8447266 0.5
vt 0.875 0.75
vt 0.875 0.5
vt 0.8447266 0.75
vt 0.7529297 0.5
vt 0.7529297 0.75
vt 0.625 0.5
vt 0.7529297 0.75
vt 0.7529297 0.5
vt 0.625 0.75
vt 0.5 0.5
vt 0.5 0.75
vt 0.375 0.5
vt 0.375 0.75
vt 0.5 0.75
vt 0.625 0.8779297
vt 0.625 0.75
vt 0.5 0.8969727
vt 0.375 0.75
vt 0.625 0.9697266
vt 0.375 0.9160156
vt 0.5 0.9697266
vt 0.625 1
vt 0.375 0.9697266
vt 0.5 1
vt 0.375 1
vt 0.5 0.25
vt 0.625 0.2802734
vt 0.625 0.25
vt 0.5 0.2802734
vt 0.375 0.25
vt 0.625 0.3720703
vt 0.375 0.2802734
vt 0.5 0.3530273
vt 0.625 0.5
vt 0.375 0.3339844
vt 0.5 0.5
vt 0.375 0.5
vn -0.9604492 0.2285156 0.1594238
vn -0.8808594 0.2010498 0.4282227
vn -0.7919922 0.170166 0.5864258
vn -0.9545898 0.196167 0.2244873
vn -0.9614258 0.253418 0.1068115
vn -0.9614258 0.253418 0.1068115
vn 0 -1 0
vn 0 -1 0
vn 0 -1 0
vn 0 -1 0
vn -6.252527E-05 -1 -1.293421E-05
vn -6.252527E-05 -1 -1.293421E-05
vn -0.000174284 -1 -3.612041E-05
vn -0.000174284 -1 -3.612041E-05
vn -0.8691406 0.2408447 0.4318848
vn -0.7919922 0.170166 0.5864258
vn -0.8808594 0.2010498 0.4282227
vn -0.5180664 0.1950684 0.8325195
vn -0.9145508 0.1873779 0.3588867
vn -0.9145508 0.1873779 0.3588867
vn 0.8330078 0.5512695 -0.04244995
vn 0.440918 0.8793945 0.1798096
vn 0.440918 0.8793945 0.1798096
vn 0.8310547 0.5551758 -0.04049683
vn 0.9570313 0.2276611 -0.1806641
vn 0.965332 0.171875 -0.1973877
vn 0.9697266 0.1247559 -0.2109375
vn 0.9697266 0.1247559 -0.2109375
vn 0.07342529 0.1051636 0.9916992
vn 0.08135986 0.01544952 0.996582
vn 0.08325195 0.01418304 0.996582
vn 0.06573486 0.09075928 0.9936523
vn 0.06799316 0.152832 0.9858398
vn -0.5180664 0.1950684 0.8325195
vn 0.0475769 0.1386719 0.9892578
vn -0.006210327 0.08959961 0.9960938
vn -0.7919922 0.170166 0.5864258
vn 0.001339912 0.1015625 0.9946289
vn -0.006450653 0.09454346 0.9956055
vn 0.005989075 0.09973145 0.9951172
vn -0.08007813 0.1149902 -0.9902344
vn -0.2331543 0.1186523 -0.965332
vn -0.1934814 0.1574707 -0.9682617
vn -0.06866455 0.1045532 -0.9921875
vn -0.05203247 0.1043091 -0.9931641
vn -0.02391052 0.164917 -0.9858398
vn -0.02883911 0.09521484 -0.9951172
vn -0.05526733 0.09344482 -0.9941406
vn -0.004623413 0.1693115 -0.9853516
vn -0.04571533 0.05300903 -0.9975586
vn -0.04199219 0.07659912 -0.9960938
vn -0.05490112 0.04412842 -0.9975586
g Cube.257_0
f 3/3/3 2/2/2 1/1/1
f 2/2/2 4/4/4 1/1/1
f 1/1/1 4/4/4 5/5/5
f 4/4/4 6/6/6 5/5/5
f 9/9/9 8/8/8 7/7/7
f 8/8/8 10/10/10 7/7/7
f 7/7/7 10/10/10 11/11/11
f 10/10/10 12/12/12 11/11/11
f 11/11/11 12/12/12 13/13/13
f 12/12/12 14/14/14 13/13/13
f 17/17/17 16/16/16 15/15/15
f 16/16/16 18/18/18 15/15/15
f 15/15/15 18/18/18 19/19/19
f 18/18/18 20/20/20 19/19/19
f 23/23/23 22/22/22 21/21/21
f 22/22/22 24/24/24 21/21/21
f 21/21/21 24/24/24 25/25/25
f 24/24/24 26/26/26 25/25/25
f 25/25/25 26/26/26 27/27/27
f 26/26/26 28/28/28 27/27/27
f 31/31/31 30/30/30 29/29/29
f 30/30/30 32/32/32 29/29/29
f 29/29/29 32/32/32 33/33/33
f 30/30/30 34/34/34 32/32/32
f 32/32/32 35/35/35 33/33/33
f 34/34/34 36/36/36 32/32/32
f 32/32/32 36/36/36 35/35/35
f 34/34/34 37/37/37 36/36/36
f 36/36/36 38/38/38 35/35/35
f 37/37/37 39/39/39 36/36/36
f 36/36/36 39/39/39 38/38/38
f 39/39/39 40/40/40 38/38/38
f 43/43/43 42/42/42 41/41/41
f 42/42/42 44/44/44 41/41/41
f 41/41/41 44/44/44 45/45/45
f 42/42/42 46/46/46 44/44/44
f 44/44/44 47/47/47 45/45/45
f 46/46/46 48/48/48 44/44/44
f 44/44/44 48/48/48 47/47/47
f 46/46/46 49/49/49 48/48/48
f 48/48/48 50/50/50 47/47/47
f 49/49/49 51/51/51 48/48/48
f 48/48/48 51/51/51 50/50/50
f 51/51/51 52/52/52 50/50/50
