g Cube.188
v -1.078179 -0.1305858 3.234538
v -2.233863 -0.1305858 3.234538
v -2.233863 0.1305858 3.234538
v -1.078179 0.1305858 3.234538
v 1.078179 -0.1305858 3.234538
v 1.078179 0.1305858 3.234538
v 2.233863 -0.1305858 3.234538
v 2.233863 0.1305858 3.234538
v -3.234538 0.1305858 -2.233863
v -2.233863 0.1305858 -3.234538
v -1.078179 0.1305858 -3.234538
v -1.078179 0.1305858 3.234538
v -3.234538 0.1305858 2.233863
v -2.233863 0.1305858 3.234538
v 1.078179 0.1305858 -3.234538
v 1.078179 0.1305858 3.234538
v 2.233863 0.1305858 -3.234538
v 3.234538 0.1305858 -2.233863
v 3.234538 0.1305858 2.233863
v 2.233863 0.1305858 3.234538
v 3.234538 -0.1305858 -2.233863
v 3.234538 -0.1305858 2.233863
v 3.234538 0.1305858 2.233863
v 3.234538 0.1305858 -2.233863
v -2.233863 -0.1305858 -3.234538
v -1.078179 0.1305858 -3.234538
v -2.233863 0.1305858 -3.234538
v -1.078179 -0.1305858 -3.234538
v 1.078179 0.1305858 -3.234538
v 1.078179 -0.1305858 -3.234538
v 2.233863 0.1305858 -3.234538
v 2.233863 -0.1305858 -3.234538
v -3.234538 -0.1305858 2.233863
v -3.234538 -0.1305858 -2.233863
v -3.234538 0.1305858 -2.233863
v -3.234538 0.1305858 2.233863
v 3.234538 -0.1305858 -2.233863
v 2.233863 -0.1305858 -3.234538
v 1.078179 -0.1305858 -3.234538
v 1.078179 -0.1305858 3.234538
v 3.234538 -0.1305858 2.233863
v 2.233863 -0.1305858 3.234538
v -1.078179 -0.1305858 -3.234538
v -1.078179 -0.1305858 3.234538
v -2.233863 -0.1305858 -3.234538
v -3.234538 -0.1305858 -2.233863
v -3.234538 -0.1305858 2.233863
v -2.233863 -0.1305858 3.234538
v -2.233863 -0.1305858 3.234538
v -3.234538 -0.1305858 2.233863
v -3.234538 0.1305858 2.233863
v -2.233863 0.1305858 3.234538
v -2.233863 0.1305858 -3.234538
v -3.234538 0.1305858 -2.233863
v -3.234538 -0.1305858 -2.233863
v -2.233863 -0.1305858 -3.234538
v 3.234538 0.1305858 -2.233863
v 2.233863 0.1305858 -3.234538
v 2.233863 -0.1305858 -3.234538
v 3.234538 -0.1305858 -2.233863
v 2.233863 0.1305858 3.234538
v 3.234538 0.1305858 2.233863
v 3.234538 -0.1305858 2.233863
v 2.233863 -0.1305858 3.234538
vt 0.375 0.9165039
vt 0.375 0.9614258
vt 0.625 0.9614258
vt 0.625 0.9165039
vt 0.375 0.8334961
vt 0.625 0.8334961
vt 0.375 0.7885742
vt 0.625 0.7885742
vt 0.875 0.5385742
vt 0.8364258 0.5
vt 0.7915039 0.5
vt 0.7915039 0.75
vt 0.875 0.7114258
vt 0.8364258 0.75
vt 0.7084961 0.5
vt 0.7084961 0.75
vt 0.6635742 0.5
vt 0.625 0.5385742
vt 0.625 0.7114258
vt 0.6635742 0.75
vt 0.375 0.5385742
vt 0.375 0.7114258
vt 0.625 0.7114258
vt 0.625 0.5385742
vt 0.375 0.2885742
vt 0.625 0.333252
vt 0.625 0.2885742
vt 0.375 0.333252
vt 0.625 0.416748
vt 0.375 0.416748
vt 0.625 0.4614258
vt 0.375 0.4614258
vt 0.375 0.03866577
vt 0.375 0.2113037
vt 0.625 0.2113037
vt 0.625 0.03866577
vt 0.375 0.5385742
vt 0.3364258 0.5
vt 0.291748 0.5
vt 0.291748 0.75
vt 0.375 0.7114258
vt 0.3364258 0.75
vt 0.208374 0.5
vt 0.208374 0.75
vt 0.1636963 0.5
vt 0.125 0.5385742
vt 0.125 0.7114258
vt 0.1636963 0.75
vt 0.375 0
vt 0.375 0.03866577
vt 0.625 0.03866577
vt 0.625 0
vt 0.625 0.2885742
vt 0.625 0.2113037
vt 0.375 0.2113037
vt 0.375 0.2885742
vt 0.625 0.5385742
vt 0.625 0.4614258
vt 0.375 0.4614258
vt 0.375 0.5385742
vt 0.625 0.7885742
vt 0.625 0.7114258
vt 0.375 0.7114258
vt 0.375 0.7885742
vn 0 1.788139E-07 1
vn 0 1.788139E-07 1
vn 0 1.788139E-07 1
vn 0 1.788139E-07 1
vn 0 0 1
vn 0 0 1
vn 0 0 1
vn 0 0 1
vn 0 1 0
vn 0 1 0
vn 0 1 0
vn 0 1 0
vn 0 1 0
vn 0 1 0
vn 0 1 0
vn 0 1 0
vn 0 1 0
vn 0 1 0
vn 0 1 0
vn 0 1 0
vn 1 0 0
vn 1 0 0
vn 1 0 0
vn 1 0 0
vn 0 0 -1
vn 0 0 -1
vn 0 0 -1
vn 0 0 -1
vn 0 1.788139E-07 -1
vn 0 1.788139E-07 -1
vn 0 1.788139E-07 -1
vn 0 1.788139E-07 -1
vn -1 0 0
vn -1 0 0
vn -1 0 0
vn -1 0 0
vn 0 -1 0
vn 0 -1 0
vn 0 -1 0
vn 0 -1 0
vn 0 -1 0
vn 0 -1 0
vn 0 -1 0
vn 0 -1 0
vn 0 -1 0
vn 0 -1 0
vn 0 -1 0
vn 0 -1 0
vn -0.7070313 0 0.7070313
vn -0.7070313 0 0.7070313
vn -0.7070313 0 0.7070313
vn -0.7070313 0 0.7070313
vn -0.7070313 0 -0.7070313
vn -0.7070313 0 -0.7070313
vn -0.7070313 0 -0.7070313
vn -0.7070313 0 -0.7070313
vn 0.7070313 -1.788139E-07 -0.7070313
vn 0.7070313 -1.788139E-07 -0.7070313
vn 0.7070313 -1.788139E-07 -0.7070313
vn 0.7070313 -1.788139E-07 -0.7070313
vn 0.7070313 0 0.7070313
vn 0.7070313 0 0.7070313
vn 0.7070313 0 0.7070313
vn 0.7070313 0 0.7070313
g Cube.188_0
f 3/3/3 2/2/2 1/1/1
f 4/4/4 3/3/3 1/1/1
f 4/4/4 1/1/1 5/5/5
f 6/6/6 4/4/4 5/5/5
f 6/6/6 5/5/5 7/7/7
f 8/8/8 6/6/6 7/7/7
f 11/11/11 10/10/10 9/9/9
f 9/9/9 12/12/12 11/11/11
f 9/9/9 13/13/13 12/12/12
f 13/13/13 14/14/14 12/12/12
f 11/11/11 12/12/12 15/15/15
f 12/12/12 16/16/16 15/15/15
f 17/17/17 15/15/15 16/16/16
f 16/16/16 18/18/18 17/17/17
f 16/16/16 19/19/19 18/18/18
f 16/16/16 20/20/20 19/19/19
f 23/23/23 22/22/22 21/21/21
f 24/24/24 23/23/23 21/21/21
f 27/27/27 26/26/26 25/25/25
f 26/26/26 28/28/28 25/25/25
f 26/26/26 29/29/29 28/28/28
f 29/29/29 30/30/30 28/28/28
f 29/29/29 31/31/31 30/30/30
f 31/31/31 32/32/32 30/30/30
f 35/35/35 34/34/34 33/33/33
f 36/36/36 35/35/35 33/33/33
f 39/39/39 38/38/38 37/37/37
f 37/37/37 40/40/40 39/39/39
f 37/37/37 41/41/41 40/40/40
f 41/41/41 42/42/42 40/40/40
f 39/39/39 40/40/40 43/43/43
f 40/40/40 44/44/44 43/43/43
f 45/45/45 43/43/43 44/44/44
f 44/44/44 46/46/46 45/45/45
f 44/44/44 47/47/47 46/46/46
f 44/44/44 48/48/48 47/47/47
f 51/51/51 50/50/50 49/49/49
f 52/52/52 51/51/51 49/49/49
f 55/55/55 54/54/54 53/53/53
f 56/56/56 55/55/55 53/53/53
f 59/59/59 58/58/58 57/57/57
f 60/60/60 59/59/59 57/57/57
f 63/63/63 62/62/62 61/61/61
f 64/64/64 63/63/63 61/61/61
