g Cube.256
v -1.114345 -0.09442295 0.3108744
v -1.114345 -0.09442295 -0.3108743
v -1.114345 0.09442295 -0.3108743
v -1.114345 0.09442295 0.3108744
v -0.2421017 -0.09442295 -0.2606483
v 1.114345 -0.09442295 -0.3108743
v 1.114345 0.09442295 -0.3108743
v -0.2421017 0.09442295 -0.2606483
v -1.114345 -0.09442295 -0.3108743
v -1.114345 0.09442295 -0.3108743
v 1.114345 -0.09442295 -0.3108743
v 1.114345 -0.09442295 0.3108744
v 1.114345 0.09442295 0.3108744
v 1.114345 0.09442295 -0.3108743
v 0.2421017 -0.09442295 0.2606482
v -1.114345 -0.09442295 0.3108744
v -1.114345 0.09442295 0.3108744
v 0.2421017 0.09442295 0.2606482
v 1.114345 -0.09442295 0.3108744
v 1.114345 0.09442295 0.3108744
v -0.2421017 -0.09442295 -0.2606483
v 1.114345 -0.09442295 0.3108744
v 1.114345 -0.09442295 -0.3108743
v 0.2421017 -0.09442295 0.2606482
v -1.114345 -0.09442295 -0.3108743
v -1.114345 -0.09442295 0.3108744
v -0.2421017 0.09442295 -0.2606483
v -1.114345 0.09442295 0.3108744
v -1.114345 0.09442295 -0.3108743
v 0.2421017 0.09442295 0.2606482
v 1.114345 0.09442295 -0.3108743
v 1.114345 0.09442295 0.3108744
vt 0.375 0
vt 0.375 0.25
vt 0.625 0.25
vt 0.625 0
vt 0.375 0.375
vt 0.375 0.5
vt 0.625 0.5
vt 0.625 0.375
vt 0.375 0.25
vt 0.625 0.25
vt 0.375 0.5
vt 0.375 0.75
vt 0.625 0.75
vt 0.625 0.5
vt 0.375 0.875
vt 0.375 1
vt 0.625 1
vt 0.625 0.875
vt 0.375 0.75
vt 0.625 0.75
vt 0.25 0.5
vt 0.375 0.75
vt 0.375 0.5
vt 0.25 0.75
vt 0.125 0.5
vt 0.125 0.75
vt 0.75 0.5
vt 0.875 0.75
vt 0.875 0.5
vt 0.75 0.75
vt 0.625 0.5
vt 0.625 0.75
vn -1 0 0
vn -1 0 0
vn -1 0 0
vn -1 0 0
vn 0 0 -1
vn -0.0369873 0 -0.9995117
vn -0.0369873 0 -0.9995117
vn 0 0 -1
vn 0.05749512 0 -0.9985352
vn 0.05749512 0 -0.9985352
vn 1 0 0
vn 1 0 0
vn 1 0 0
vn 1 0 0
vn 0 0 1
vn 0.0369873 0 0.9995117
vn 0.0369873 0 0.9995117
vn 0 0 1
vn -0.05749512 0 0.9985352
vn -0.05749512 0 0.9985352
vn 0 -1 0
vn 0 -1 0
vn 0 -1 0
vn 0 -1 0
vn 0 -1 0
vn 0 -1 0
vn 0 1 0
vn 0 1 0
vn 0 1 0
vn 0 1 0
vn 0 1 0
vn 0 1 0
g Cube.256_0
f 3/3/3 2/2/2 1/1/1
f 4/4/4 3/3/3 1/1/1
f 7/7/7 6/6/6 5/5/5
f 8/8/8 7/7/7 5/5/5
f 8/8/8 5/5/5 9/9/9
f 10/10/10 8/8/8 9/9/9
f 13/13/13 12/12/12 11/11/11
f 14/14/14 13/13/13 11/11/11
f 17/17/17 16/16/16 15/15/15
f 18/18/18 17/17/17 15/15/15
f 18/18/18 15/15/15 19/19/19
f 20/20/20 18/18/18 19/19/19
f 23/23/23 22/22/22 21/21/21
f 22/22/22 24/24/24 21/21/21
f 21/21/21 24/24/24 25/25/25
f 24/24/24 26/26/26 25/25/25
f 29/29/29 28/28/28 27/27/27
f 28/28/28 30/30/30 27/27/27
f 27/27/27 30/30/30 31/31/31
f 30/30/30 32/32/32 31/31/31
