g Cube.189
v -0.1757398 -0.3780155 0.1038928
v -0.1757398 -0.3780155 -0.2621336
v -0.1964376 0.5122731 -0.2621334
v -0.1964376 0.5122731 0.1038928
v -0.1757398 -0.3780155 -0.2621336
v 0.1727018 0.5122731 -0.2621334
v -0.1964376 0.5122731 -0.2621334
v 0.1520042 -0.2081689 -0.2621336
v -0.1964376 -1.098457 -0.2621334
v 0.1727018 -1.098457 -0.2621334
v 0.1520042 -0.2081689 -0.2621336
v 0.1520042 -0.2081689 0.1038928
v 0.1727018 0.5122731 0.1038928
v 0.1727018 0.5122731 -0.2621334
v 0.1520042 -0.2081689 0.1038928
v -0.1964376 0.5122731 0.1038928
v 0.1727018 0.5122731 0.1038928
v -0.1757398 -0.3780155 0.1038928
v 0.1727018 -1.098457 0.1038928
v -0.1964376 -1.098457 0.1038928
v -0.1964376 -1.098457 -0.2621334
v -0.1964376 -1.098457 0.1038928
v 0.1727018 -1.098457 0.1038928
v 0.1727018 -1.098457 -0.2621334
v 0.1727018 0.5122731 -0.2621334
v 0.1727018 0.5122731 0.1038928
v -0.1964376 0.5122731 0.1038928
v -0.1964376 0.5122731 -0.2621334
v 0.1727018 -1.098457 -0.2621334
v 0.1727018 -1.098457 0.1038928
v 0.1520042 -0.2081689 0.1038928
v 0.1520042 -0.2081689 -0.2621336
v -0.1964376 -1.098457 0.1038928
v -0.1964376 -1.098457 -0.2621334
v -0.1757398 -0.3780155 -0.2621336
v -0.1757398 -0.3780155 0.1038928
v -1.024169 0.09656631 0.1611018
v -1.024169 0.09656631 -0.002862215
v -0.9337707 0.7597427 -0.002862215
v -0.9337707 0.7597427 0.1611018
v 0.1398065 -0.01614112 -0.002862215
v 0.9575052 -0.1735584 -0.002862215
v 1.047904 0.4896181 -0.002862215
v -0.1160722 0.6023255 -0.002862215
v 0.9575052 -0.1735584 -0.002862215
v 0.9575052 -0.1735584 0.1611018
v 1.047904 0.4896181 0.1611018
v 1.047904 0.4896181 -0.002862215
v 0.1398065 -0.01614112 0.1611018
v -1.024169 0.09656631 0.1611018
v -0.9337707 0.7597427 0.1611018
v -0.1160722 0.6023255 0.1611018
v 0.1398065 -0.01614112 -0.002862215
v 0.1398065 -0.01614112 0.1611018
v 0.9575052 -0.1735584 0.1611018
v 0.9575052 -0.1735584 -0.002862215
v -0.1160722 0.6023255 -0.002862215
v -0.1160722 0.6023255 0.1611018
v -0.9337707 0.7597427 0.1611018
v -0.9337707 0.7597427 -0.002862215
v 1.047904 0.4896181 -0.002862215
v 1.047904 0.4896181 0.1611018
v -0.1160722 0.6023255 0.1611018
v -0.1160722 0.6023255 -0.002862215
v -1.024169 0.09656631 -0.002862215
v -1.024169 0.09656631 0.1611018
v 0.1398065 -0.01614112 0.1611018
v 0.1398065 -0.01614112 -0.002862215
v 0.9575052 -0.1735584 0.1611018
v 0.1398065 -0.01614112 0.1611018
v -0.1160722 0.6023255 0.1611018
v 1.047904 0.4896181 0.1611018
v -1.024169 0.09656631 -0.002862215
v 0.1398065 -0.01614112 -0.002862215
v -0.1160722 0.6023255 -0.002862215
v -0.9337707 0.7597427 -0.002862215
vt 0.5 0
vt 0.5 0.25
vt 0.625 0.25
vt 0.625 0
vt 0.5 0.25
vt 0.625 0.5
vt 0.625 0.25
vt 0.5 0.5
vt 0.375 0.25
vt 0.375 0.5
vt 0.5 0.5
vt 0.5 0.75
vt 0.625 0.75
vt 0.625 0.5
vt 0.5 0.75
vt 0.625 1
vt 0.625 0.75
vt 0.5 1
vt 0.375 0.75
vt 0.375 1
vt 0.125 0.5
vt 0.125 0.75
vt 0.375 0.75
vt 0.375 0.5
vt 0.625 0.5
vt 0.625 0.75
vt 0.875 0.75
vt 0.875 0.5
vt 0.375 0.5
vt 0.375 0.75
vt 0.5 0.75
vt 0.5 0.5
vt 0.375 0
vt 0.375 0.25
vt 0.5 0.25
vt 0.5 0
vt 0.375 0
vt 0.375 0.25
vt 0.625 0.25
vt 0.625 0
vt 0.375 0.375
vt 0.375 0.5
vt 0.625 0.5
vt 0.625 0.375
vt 0.375 0.5
vt 0.375 0.75
vt 0.625 0.75
vt 0.625 0.5
vt 0.375 0.875
vt 0.375 1
vt 0.625 1
vt 0.625 0.875
vt 0.25 0.5
vt 0.25 0.75
vt 0.375 0.75
vt 0.375 0.5
vt 0.75 0.5
vt 0.75 0.75
vt 0.875 0.75
vt 0.875 0.5
vt 0.625 0.5
vt 0.625 0.75
vt 0.75 0.75
vt 0.75 0.5
vt 0.125 0.5
vt 0.125 0.75
vt 0.25 0.75
vt 0.25 0.5
vt 0.375 0.75
vt 0.375 0.875
vt 0.625 0.875
vt 0.625 0.75
vt 0.375 0.25
vt 0.375 0.375
vt 0.625 0.375
vt 0.625 0.25
vn -0.9995117 -0.02323914 0
vn -0.9995117 -0.02323914 0
vn -0.9995117 -0.02323914 0
vn -0.9995117 -0.02323914 0
vn 0 2.980232E-07 -1
vn 0 2.980232E-07 -1
vn 0 2.980232E-07 -1
vn 0 2.980232E-07 -1
vn 0 -2.980232E-07 -1
vn 0 -2.980232E-07 -1
vn 0.9995117 -0.02871704 0
vn 0.9995117 -0.02871704 0
vn 0.9995117 -0.02871704 0
vn 0.9995117 -0.02871704 0
vn 0 0 1
vn 0 0 1
vn 0 0 1
vn 0 0 1
vn 0 0 1
vn 0 0 1
vn 0 -1 0
vn 0 -1 0
vn 0 -1 0
vn 0 -1 0
vn 0 1 0
vn 0 1 0
vn 0 1 0
vn 0 1 0
vn 0.9995117 0.02323914 0
vn 0.9995117 0.02323914 0
vn 0.9995117 0.02323914 0
vn 0.9995117 0.02323914 0
vn -0.9995117 0.02871704 0
vn -0.9995117 0.02871704 0
vn -0.9995117 0.02871704 0
vn -0.9995117 0.02871704 0
vn -0.9907227 0.1350098 0
vn -0.9907227 0.1350098 0
vn -0.9907227 0.1350098 0
vn -0.9907227 0.1350098 0
vn 0 0 -1
vn 0 0 -1
vn 0 0 -1
vn 0 0 -1
vn 0.9907227 -0.1350098 0
vn 0.9907227 -0.1350098 0
vn 0.9907227 -0.1350098 0
vn 0.9907227 -0.1350098 0
vn 0 0 1
vn 0 0 1
vn 0 0 1
vn 0 0 1
vn -0.1890869 -0.9819336 0
vn -0.1890869 -0.9819336 0
vn -0.1890869 -0.9819336 0
vn -0.1890869 -0.9819336 0
vn 0.1890869 0.9819336 0
vn 0.1890869 0.9819336 0
vn 0.1890869 0.9819336 0
vn 0.1890869 0.9819336 0
vn 0.09637451 0.9951172 0
vn 0.09637451 0.9951172 0
vn 0.09637451 0.9951172 0
vn 0.09637451 0.9951172 0
vn -0.09637451 -0.9951172 0
vn -0.09637451 -0.9951172 0
vn -0.09637451 -0.9951172 0
vn -0.09637451 -0.9951172 0
vn 0 0 1
vn 0 0 1
vn 0 0 1
vn 0 0 1
vn 0 0 -1
vn 0 0 -1
vn 0 0 -1
vn 0 0 -1
g Cube.189_0
f 3/3/3 2/2/2 1/1/1
f 4/4/4 3/3/3 1/1/1
f 7/7/7 6/6/6 5/5/5
f 6/6/6 8/8/8 5/5/5
f 5/5/5 8/8/8 9/9/9
f 8/8/8 10/10/10 9/9/9
f 13/13/13 12/12/12 11/11/11
f 14/14/14 13/13/13 11/11/11
f 17/17/17 16/16/16 15/15/15
f 16/16/16 18/18/18 15/15/15
f 15/15/15 18/18/18 19/19/19
f 18/18/18 20/20/20 19/19/19
f 23/23/23 22/22/22 21/21/21
f 24/24/24 23/23/23 21/21/21
f 27/27/27 26/26/26 25/25/25
f 28/28/28 27/27/27 25/25/25
f 31/31/31 30/30/30 29/29/29
f 32/32/32 31/31/31 29/29/29
f 35/35/35 34/34/34 33/33/33
f 36/36/36 35/35/35 33/33/33
f 39/39/39 38/38/38 37/37/37
f 40/40/40 39/39/39 37/37/37
f 43/43/43 42/42/42 41/41/41
f 44/44/44 43/43/43 41/41/41
f 47/47/47 46/46/46 45/45/45
f 48/48/48 47/47/47 45/45/45
f 51/51/51 50/50/50 49/49/49
f 52/52/52 51/51/51 49/49/49
f 55/55/55 54/54/54 53/53/53
f 56/56/56 55/55/55 53/53/53
f 59/59/59 58/58/58 57/57/57
f 60/60/60 59/59/59 57/57/57
f 63/63/63 62/62/62 61/61/61
f 64/64/64 63/63/63 61/61/61
f 67/67/67 66/66/66 65/65/65
f 68/68/68 67/67/67 65/65/65
f 71/71/71 70/70/70 69/69/69
f 72/72/72 71/71/71 69/69/69
f 75/75/75 74/74/74 73/73/73
f 76/76/76 75/75/75 73/73/73
