g CuisseGauche
v 0.2204921 0.788356 -0.1140628
v 0.06075731 0.7883564 -0.1140628
v 0.06075667 0.5136707 -0.1139723
v 0.2204915 0.5136703 -0.1139723
v 0.2547157 0.5136815 -0.07974989
v 0.2547164 0.7883672 -0.07984038
v 0.2547164 0.7884198 0.0798935
v 0.2547157 0.5137342 0.07998399
v 0.2204915 0.5137455 0.1142064
v 0.2204921 0.7884311 0.1141159
v 0.06075731 0.7884315 0.1141159
v 0.06075667 0.5137458 0.1142064
v 0.02653197 0.5137347 0.07998399
v 0.02653261 0.7884203 0.0798935
v 0.02653197 0.5136821 -0.07974989
v 0.02653261 0.7883677 -0.07984038
v 0.06075667 0.5136707 -0.1139723
v 0.06075731 0.7883564 -0.1140628
v 0.06075658 0.4795105 0.07999527
v 0.02653197 0.5136821 -0.07974989
v 0.02653197 0.5137347 0.07998399
v 0.06075667 0.5137458 0.1142064
v 0.06075658 0.4794579 -0.07973861
v 0.06075667 0.5136707 -0.1139723
v 0.2204915 0.5136703 -0.1139723
v 0.2204914 0.4795101 0.07999527
v 0.2204915 0.5137455 0.1142064
v 0.2547157 0.5137342 0.07998399
v 0.2204914 0.4794575 -0.07973861
v 0.2547157 0.5136815 -0.07974989
v 0.02653261 0.7884203 0.0798935
v 0.02653261 0.7883677 -0.07984038
v 0.06075739 0.8225918 -0.07985166
v 0.06075731 0.7883564 -0.1140628
v 0.06075739 0.8226445 0.07988223
v 0.06075731 0.7884315 0.1141159
v 0.2204921 0.7884311 0.1141159
v 0.2204922 0.8226441 0.07988223
v 0.2547164 0.7884198 0.0798935
v 0.2547164 0.7883672 -0.07984038
v 0.2204922 0.8225915 -0.07985166
v 0.2204921 0.788356 -0.1140628
vt 0.2154666 0.8152651
vt 0.2347186 0.8152651
vt 0.2347186 0.7641463
vt 0.2154666 0.7641463
vt 0.2113417 0.7641463
vt 0.2113417 0.8152651
vt 0.1920895 0.8152651
vt 0.1920895 0.7641463
vt 0.1879647 0.7641463
vt 0.1879647 0.8152651
vt 0.1687127 0.8152651
vt 0.1687127 0.7641463
vt 0.1645878 0.7641463
vt 0.1645878 0.8152651
vt 0.1453357 0.7641463
vt 0.1453357 0.8152651
vt 0.1412109 0.7641463
vt 0.1412108 0.8152651
vt 0.2098075 0.7115191
vt 0.1654303 0.7120562
vt 0.2098075 0.7120562
vt 0.2193152 0.7115191
vt 0.1654303 0.7115191
vt 0.1559226 0.7115191
vt 0.1559226 0.7090127
vt 0.2098075 0.7090127
vt 0.2193152 0.7090127
vt 0.2098075 0.7084757
vt 0.1654303 0.7090127
vt 0.1654303 0.7084757
vt 0.1618673 0.8659157
vt 0.2101892 0.8659157
vt 0.2101892 0.8653309
vt 0.220542 0.8653309
vt 0.1618673 0.8653309
vt 0.1515145 0.8653309
vt 0.1515145 0.8626017
vt 0.1618673 0.8626017
vt 0.1618673 0.862017
vt 0.2101892 0.862017
vt 0.2101892 0.8626017
vt 0.220542 0.8626017
vn 0.1625696 0.09692621 -0.9819249
vn -0.162569 0.09692682 -0.9819249
vn -0.1625693 -0.0975731 -0.9818609
vn 0.1625692 -0.09757391 -0.9818608
vn 0.9818904 -0.09731112 -0.1625478
vn 0.9818909 0.0971993 -0.1626119
vn 0.9818909 0.09730647 0.1625477
vn 0.9818904 -0.09720407 0.1626118
vn 0.1625693 -0.09692693 0.9819248
vn 0.1625697 0.09757309 0.9818608
vn -0.1625689 0.0975738 0.9818609
vn -0.1625693 -0.09692612 0.9819249
vn -0.9818904 -0.09720056 0.1626139
vn -0.98189 0.09731229 0.1625498
vn -0.9818904 -0.09730768 -0.1625498
vn -0.98189 0.09720521 -0.1626138
vn -0.1625693 -0.0975731 -0.9818609
vn -0.162569 0.09692682 -0.9819249
vn -0.1551235 -0.975589 0.155444
vn -0.9818904 -0.09730768 -0.1625498
vn -0.9818904 -0.09720056 0.1626139
vn -0.1625693 -0.09692612 0.9819249
vn -0.1551234 -0.9756913 -0.154801
vn -0.1625693 -0.0975731 -0.9818609
vn 0.1625692 -0.09757391 -0.9818608
vn 0.155119 -0.9755897 0.1554441
vn 0.1625693 -0.09692693 0.9819248
vn 0.9818904 -0.09720407 0.1626118
vn 0.1551191 -0.9756918 -0.1548012
vn 0.9818904 -0.09731112 -0.1625478
vn -0.98189 0.09731229 0.1625498
vn -0.98189 0.09720521 -0.1626138
vn -0.1551192 0.9755896 -0.1554443
vn -0.162569 0.09692682 -0.9819249
vn -0.1551191 0.9756918 0.1548015
vn -0.1625689 0.0975738 0.9818609
vn 0.1625697 0.09757309 0.9818608
vn 0.1551241 0.975691 0.1548017
vn 0.9818909 0.09730647 0.1625477
vn 0.9818909 0.0971993 -0.1626119
vn 0.155124 0.9755889 -0.1554444
vn 0.1625696 0.09692621 -0.9819249
g CuisseGauche_0
f 3/3/3 2/2/2 1/1/1
f 4/4/4 3/3/3 1/1/1
f 5/5/5 4/4/4 1/1/1
f 6/6/6 5/5/5 1/1/1
f 6/6/6 7/7/7 5/5/5
f 7/7/7 8/8/8 5/5/5
f 8/8/8 7/7/7 9/9/9
f 7/7/7 10/10/10 9/9/9
f 10/10/10 11/11/11 9/9/9
f 11/11/11 12/12/12 9/9/9
f 12/12/12 11/11/11 13/13/13
f 11/11/11 14/14/14 13/13/13
f 15/15/15 13/13/13 14/14/14
f 16/16/16 15/15/15 14/14/14
f 17/17/17 15/15/15 16/16/16
f 18/18/18 17/17/17 16/16/16
f 21/21/21 20/20/20 19/19/19
f 19/19/19 22/22/22 21/21/21
f 20/20/20 23/23/23 19/19/19
f 20/20/20 24/24/24 23/23/23
f 24/24/24 25/25/25 23/23/23
f 19/19/19 26/26/26 22/22/22
f 26/26/26 19/19/19 23/23/23
f 26/26/26 27/27/27 22/22/22
f 28/28/28 27/27/27 26/26/26
f 25/25/25 29/29/29 23/23/23
f 29/29/29 26/26/26 23/23/23
f 26/26/26 29/29/29 28/28/28
f 29/29/29 25/25/25 30/30/30
f 29/29/29 30/30/30 28/28/28
f 33/33/33 32/32/32 31/31/31
f 32/32/32 33/33/33 34/34/34
f 35/35/35 33/33/33 31/31/31
f 31/31/31 36/36/36 35/35/35
f 36/36/36 37/37/37 35/35/35
f 37/37/37 38/38/38 35/35/35
f 33/33/33 35/35/35 38/38/38
f 38/38/38 37/37/37 39/39/39
f 39/39/39 40/40/40 38/38/38
f 33/33/33 41/41/41 34/34/34
f 41/41/41 33/33/33 38/38/38
f 40/40/40 41/41/41 38/38/38
f 41/41/41 42/42/42 34/34/34
f 42/42/42 41/41/41 40/40/40
