g Cuisse droite
v -0.2204929 0.7883977 -0.1140953
v -0.06076065 0.5137106 -0.1141158
v -0.06075815 0.7883963 -0.1140953
v -0.2204954 0.5137121 -0.1141158
v -0.2547197 0.5137099 -0.07989342
v -0.2547172 0.7883955 -0.07987293
v -0.2547172 0.7883836 0.07986094
v -0.2547197 0.5136979 0.07984046
v -0.2204954 0.5136951 0.1140629
v -0.2204929 0.7883807 0.1140833
v -0.06075815 0.7883793 0.1140833
v -0.06076066 0.5136936 0.1140629
v -0.02653596 0.5136958 0.07984046
v -0.02653345 0.7883815 0.07986094
v -0.02653596 0.5137078 -0.07989342
v -0.02653345 0.7883934 -0.07987293
v -0.06076065 0.5137106 -0.1141158
v -0.06075815 0.7883963 -0.1140953
v -0.06076097 0.4794721 0.0798379
v -0.02653596 0.5136958 0.07984046
v -0.02653596 0.5137078 -0.07989342
v -0.06076066 0.5136936 0.1140629
v -0.06076097 0.479484 -0.07989597
v -0.06076065 0.5137106 -0.1141158
v -0.2204954 0.5137121 -0.1141158
v -0.2204958 0.4794735 0.0798379
v -0.2204954 0.5136951 0.1140629
v -0.2547197 0.5136979 0.07984046
v -0.2204958 0.4794854 -0.07989597
v -0.2547197 0.5137099 -0.07989342
v -0.02653345 0.7883815 0.07986094
v -0.06075784 0.8226179 -0.07987038
v -0.02653345 0.7883934 -0.07987293
v -0.06075815 0.7883963 -0.1140953
v -0.06075784 0.822606 0.0798635
v -0.06075815 0.7883793 0.1140833
v -0.2204929 0.7883807 0.1140833
v -0.2204926 0.8226075 0.0798635
v -0.2547172 0.7883836 0.07986094
v -0.2547172 0.7883955 -0.07987293
v -0.2204926 0.8226194 -0.07987038
v -0.2204929 0.7883977 -0.1140953
vt 0.2154541 0.8154297
vt 0.2347412 0.7641602
vt 0.2347412 0.8154297
vt 0.2154541 0.7641602
vt 0.2113037 0.7641602
vt 0.2113037 0.8154297
vt 0.1921387 0.8154297
vt 0.1921387 0.7641602
vt 0.1879883 0.7641602
vt 0.1879883 0.8154297
vt 0.1687012 0.8154297
vt 0.1687012 0.7641602
vt 0.1645508 0.7641602
vt 0.1645508 0.8154297
vt 0.1453857 0.7641602
vt 0.1453857 0.8154297
vt 0.1412354 0.7641602
vt 0.1412354 0.8154297
vt 0.2098389 0.7114258
vt 0.2098389 0.7119141
vt 0.1654053 0.7119141
vt 0.2193604 0.7114258
vt 0.1654053 0.7114258
vt 0.1558838 0.7114258
vt 0.1558838 0.7089844
vt 0.2098389 0.7089844
vt 0.2193604 0.7089844
vt 0.2098389 0.7084961
vt 0.1654053 0.7089844
vt 0.1654053 0.7084961
vt 0.1618652 0.8657227
vt 0.2102051 0.8652344
vt 0.2102051 0.8657227
vt 0.2205811 0.8652344
vt 0.1618652 0.8652344
vt 0.1514893 0.8652344
vt 0.1514893 0.862793
vt 0.1618652 0.862793
vt 0.1618652 0.8618164
vt 0.2102051 0.8618164
vt 0.2102051 0.862793
vt 0.2205811 0.862793
vn -0.1625977 0.09735107 -0.9819336
vn 0.1625977 -0.09716797 -0.9819336
vn 0.1625977 0.09735107 -0.9819336
vn -0.1625977 -0.09716797 -0.9819336
vn -0.9819336 -0.097229 -0.1625977
vn -0.9819336 0.09729004 -0.1625977
vn -0.9819336 0.097229 0.1625977
vn -0.9819336 -0.097229 0.1625977
vn -0.1625977 -0.09735107 0.9819336
vn -0.1625977 0.09716797 0.9819336
vn 0.1625977 0.09716797 0.9819336
vn 0.1625977 -0.09735107 0.9819336
vn 0.9819336 -0.09729004 0.1625977
vn 0.9819336 0.097229 0.1625977
vn 0.9819336 -0.097229 -0.1625977
vn 0.9819336 0.09729004 -0.1625977
vn 0.1625977 -0.09716797 -0.9819336
vn 0.1625977 0.09735107 -0.9819336
vn 0.1551514 -0.9755859 0.1550293
vn 0.9819336 -0.09729004 0.1625977
vn 0.9819336 -0.097229 -0.1625977
vn 0.1625977 -0.09735107 0.9819336
vn 0.1551514 -0.9755859 -0.1551514
vn 0.1625977 -0.09716797 -0.9819336
vn -0.1625977 -0.09716797 -0.9819336
vn -0.1551514 -0.9755859 0.1550293
vn -0.1625977 -0.09735107 0.9819336
vn -0.9819336 -0.097229 0.1625977
vn -0.1551514 -0.9755859 -0.1551514
vn -0.9819336 -0.097229 -0.1625977
vn 0.9819336 0.097229 0.1625977
vn 0.1551514 0.9755859 -0.1550293
vn 0.9819336 0.09729004 -0.1625977
vn 0.1625977 0.09735107 -0.9819336
vn 0.1551514 0.9755859 0.1551514
vn 0.1625977 0.09716797 0.9819336
vn -0.1625977 0.09716797 0.9819336
vn -0.1551514 0.9755859 0.1551514
vn -0.9819336 0.097229 0.1625977
vn -0.9819336 0.09729004 -0.1625977
vn -0.1551514 0.9755859 -0.1550293
vn -0.1625977 0.09735107 -0.9819336
g Cuisse droite_0
f 3/3/3 2/2/2 1/1/1
f 2/2/2 4/4/4 1/1/1
f 4/4/4 5/5/5 1/1/1
f 5/5/5 6/6/6 1/1/1
f 7/7/7 6/6/6 5/5/5
f 8/8/8 7/7/7 5/5/5
f 7/7/7 8/8/8 9/9/9
f 10/10/10 7/7/7 9/9/9
f 11/11/11 10/10/10 9/9/9
f 12/12/12 11/11/11 9/9/9
f 11/11/11 12/12/12 13/13/13
f 14/14/14 11/11/11 13/13/13
f 13/13/13 15/15/15 14/14/14
f 15/15/15 16/16/16 14/14/14
f 15/15/15 17/17/17 16/16/16
f 17/17/17 18/18/18 16/16/16
f 21/21/21 20/20/20 19/19/19
f 22/22/22 19/19/19 20/20/20
f 23/23/23 21/21/21 19/19/19
f 24/24/24 21/21/21 23/23/23
f 25/25/25 24/24/24 23/23/23
f 26/26/26 19/19/19 22/22/22
f 19/19/19 26/26/26 23/23/23
f 27/27/27 26/26/26 22/22/22
f 27/27/27 28/28/28 26/26/26
f 29/29/29 25/25/25 23/23/23
f 26/26/26 29/29/29 23/23/23
f 29/29/29 26/26/26 28/28/28
f 25/25/25 29/29/29 30/30/30
f 30/30/30 29/29/29 28/28/28
f 33/33/33 32/32/32 31/31/31
f 32/32/32 33/33/33 34/34/34
f 32/32/32 35/35/35 31/31/31
f 36/36/36 31/31/31 35/35/35
f 37/37/37 36/36/36 35/35/35
f 38/38/38 37/37/37 35/35/35
f 35/35/35 32/32/32 38/38/38
f 37/37/37 38/38/38 39/39/39
f 40/40/40 39/39/39 38/38/38
f 41/41/41 32/32/32 34/34/34
f 32/32/32 41/41/41 38/38/38
f 41/41/41 40/40/40 38/38/38
f 42/42/42 41/41/41 34/34/34
f 41/41/41 42/42/42 40/40/40
