g Cylinder.091
v 0.2617092 -0.9618725 -0.1845149
v -0.1789686 0.9843847 -0.1633798
v -0.2617091 0.9618725 -0.1845149
v 0.3444496 -0.9393603 -0.1633798
v -0.1151831 1.00174 -0.1048164
v 0.4082351 -0.9220053 -0.1048164
v -0.08496478 1.009962 -0.02224076
v 0.4384534 -0.9137836 -0.02224076
v -0.09523645 1.007167 0.06542996
v 0.4281817 -0.9165783 0.06542996
v -0.1436451 0.9939957 0.1381115
v 0.3797731 -0.9297494 0.1381115
v -0.2191008 0.9734654 0.1791533
v 0.3043175 -0.9502797 0.1791533
v -0.3043175 0.9502794 0.1791533
v 0.2191008 -0.9734656 0.1791533
v -0.379773 0.9297494 0.1381115
v 0.1436452 -0.9939958 0.1381115
v -0.4281816 0.9165782 0.06542997
v 0.09523645 -1.007167 0.06542997
v -0.4384534 0.9137834 -0.02224082
v 0.08496475 -1.009962 -0.02224082
v -0.4082352 0.9220054 -0.1048165
v 0.1151831 -1.00174 -0.1048165
v -0.3444495 0.9393603 -0.1633799
v 0.1789687 -0.9843849 -0.1633799
v -0.2617091 0.9618725 -0.1845149
v 0.2617092 -0.9618725 -0.1845149
v -0.3444495 0.9393603 -0.1633799
v -0.2617091 0.9618725 -0.1845149
v -0.1789686 0.9843847 -0.1633798
v -0.4082352 0.9220054 -0.1048165
v -0.1151831 1.00174 -0.1048164
v -0.4384534 0.9137834 -0.02224082
v -0.08496478 1.009962 -0.02224076
v -0.4281816 0.9165782 0.06542997
v -0.09523645 1.007167 0.06542996
v -0.1436451 0.9939957 0.1381115
v -0.379773 0.9297494 0.1381115
v -0.3043175 0.9502794 0.1791533
v -0.2191008 0.9734654 0.1791533
v 0.3444496 -0.9393603 -0.1633798
v 0.2617092 -0.9618725 -0.1845149
v 0.1789687 -0.9843849 -0.1633799
v 0.1151831 -1.00174 -0.1048165
v 0.4082351 -0.9220053 -0.1048164
v 0.08496475 -1.009962 -0.02224082
v 0.4384534 -0.9137836 -0.02224076
v 0.09523645 -1.007167 0.06542997
v 0.4281817 -0.9165783 0.06542996
v 0.3797731 -0.9297494 0.1381115
v 0.1436452 -0.9939958 0.1381115
v 0.3043175 -0.9502797 0.1791533
v 0.2191008 -0.9734656 0.1791533
vt 1 0.5
vt 0.9228516 1
vt 1 1
vt 0.9228516 0.5
vt 0.8461914 1
vt 0.8461914 0.5
vt 0.769043 1
vt 0.769043 0.5
vt 0.6923828 1
vt 0.6923828 0.5
vt 0.6152344 1
vt 0.6152344 0.5
vt 0.5385742 1
vt 0.5385742 0.5
vt 0.4614258 1
vt 0.4614258 0.5
vt 0.3845215 1
vt 0.3845215 0.5
vt 0.3076172 1
vt 0.3076172 0.5
vt 0.2307129 1
vt 0.2307129 0.5
vt 0.1538086 1
vt 0.1538086 0.5
vt 0.0769043 1
vt 0.0769043 0.5
vt 5.960464E-08 1
vt 5.960464E-08 0.5
vt 0.1384277 0.4624023
vt 0.25 0.4899902
vt 0.3615723 0.4624023
vt 0.05249023 0.3862305
vt 0.4475098 0.3862305
vt 0.01174927 0.2788086
vt 0.4882813 0.2788086
vt 0.02558899 0.164917
vt 0.4743652 0.164917
vt 0.4091797 0.07037354
vt 0.09082031 0.07037354
vt 0.1925049 0.01696777
vt 0.307373 0.01696777
vt 0.8613281 0.4624023
vt 0.75 0.4899902
vt 0.6386719 0.4624023
vt 0.5522461 0.3862305
vt 0.9477539 0.3862305
vt 0.5117188 0.2788086
vt 0.9882813 0.2788086
vt 0.5253906 0.164917
vt 0.9746094 0.164917
vt 0.9091797 0.07037354
vt 0.5908203 0.07037354
vt 0.8076172 0.01696777
vt 0.6923828 0.01696777
vn 0 0 -1
vn 0.4484863 0.1220093 -0.8852539
vn 0 0 -1
vn 0.4484863 0.1220093 -0.8852539
vn 0.7939453 0.2160645 -0.5678711
vn 0.7939453 0.2160645 -0.5678711
vn 0.9580078 0.2607422 -0.1205444
vn 0.9580078 0.2607422 -0.1205444
vn 0.9023438 0.2454834 0.3544922
vn 0.9023438 0.2454834 0.3544922
vn 0.6396484 0.1740723 0.7485352
vn 0.6396484 0.1740723 0.7485352
vn 0.230957 0.06280518 0.9707031
vn 0.230957 0.06280518 0.9707031
vn -0.230957 -0.06280518 0.9707031
vn -0.230957 -0.06280518 0.9707031
vn -0.6396484 -0.1740723 0.7485352
vn -0.6396484 -0.1740723 0.7485352
vn -0.9023438 -0.2454834 0.3544922
vn -0.9023438 -0.2454834 0.3544922
vn -0.9580078 -0.2607422 -0.1205444
vn -0.9580078 -0.2607422 -0.1205444
vn -0.7939453 -0.2160645 -0.5678711
vn -0.7939453 -0.2160645 -0.5678711
vn -0.4484863 -0.1220093 -0.8852539
vn -0.4484863 -0.1220093 -0.8852539
vn 0 0 -1
vn 0 0 -1
vn -0.2624512 0.9648438 0
vn -0.2624512 0.9648438 0
vn -0.2624512 0.9648438 0
vn -0.2624512 0.9648438 0
vn -0.2624512 0.9648438 0
vn -0.2624512 0.9648438 0
vn -0.2624512 0.9648438 0
vn -0.2624512 0.9648438 0
vn -0.2624512 0.9648438 0
vn -0.2624512 0.9648438 0
vn -0.2624512 0.9648438 0
vn -0.2624512 0.9648438 0
vn -0.2624512 0.9648438 0
vn 0.2624512 -0.9648438 0
vn 0.2624512 -0.9648438 0
vn 0.2624512 -0.9648438 0
vn 0.2624512 -0.9648438 0
vn 0.2624512 -0.9648438 0
vn 0.2624512 -0.9648438 0
vn 0.2624512 -0.9648438 0
vn 0.2624512 -0.9648438 0
vn 0.2624512 -0.9648438 0
vn 0.2624512 -0.9648438 0
vn 0.2624512 -0.9648438 0
vn 0.2624512 -0.9648438 0
vn 0.2624512 -0.9648438 0
g Cylinder.091_0
f 3/3/3 2/2/2 1/1/1
f 2/2/2 4/4/4 1/1/1
f 2/2/2 5/5/5 4/4/4
f 5/5/5 6/6/6 4/4/4
f 5/5/5 7/7/7 6/6/6
f 7/7/7 8/8/8 6/6/6
f 7/7/7 9/9/9 8/8/8
f 9/9/9 10/10/10 8/8/8
f 9/9/9 11/11/11 10/10/10
f 11/11/11 12/12/12 10/10/10
f 11/11/11 13/13/13 12/12/12
f 13/13/13 14/14/14 12/12/12
f 13/13/13 15/15/15 14/14/14
f 15/15/15 16/16/16 14/14/14
f 15/15/15 17/17/17 16/16/16
f 17/17/17 18/18/18 16/16/16
f 17/17/17 19/19/19 18/18/18
f 19/19/19 20/20/20 18/18/18
f 19/19/19 21/21/21 20/20/20
f 21/21/21 22/22/22 20/20/20
f 21/21/21 23/23/23 22/22/22
f 23/23/23 24/24/24 22/22/22
f 23/23/23 25/25/25 24/24/24
f 25/25/25 26/26/26 24/24/24
f 25/25/25 27/27/27 26/26/26
f 27/27/27 28/28/28 26/26/26
f 31/31/31 30/30/30 29/29/29
f 29/29/29 32/32/32 31/31/31
f 32/32/32 33/33/33 31/31/31
f 32/32/32 34/34/34 33/33/33
f 34/34/34 35/35/35 33/33/33
f 34/34/34 36/36/36 35/35/35
f 36/36/36 37/37/37 35/35/35
f 36/36/36 38/38/38 37/37/37
f 36/36/36 39/39/39 38/38/38
f 39/39/39 40/40/40 38/38/38
f 40/40/40 41/41/41 38/38/38
f 44/44/44 43/43/43 42/42/42
f 42/42/42 45/45/45 44/44/44
f 42/42/42 46/46/46 45/45/45
f 46/46/46 47/47/47 45/45/45
f 46/46/46 48/48/48 47/47/47
f 48/48/48 49/49/49 47/47/47
f 48/48/48 50/50/50 49/49/49
f 50/50/50 51/51/51 49/49/49
f 51/51/51 52/52/52 49/49/49
f 51/51/51 53/53/53 52/52/52
f 53/53/53 54/54/54 52/52/52
