g Epaule gauche
v 0.3970347 1.597044 -0.2323761
v 0.2029551 1.402956 -0.2323714
v 0.3970389 1.402961 -0.2323784
v 0.2029508 1.59704 -0.2323692
v 0.3970352 1.638627 -0.190791
v 0.2029514 1.638623 -0.1907842
v 0.3970422 1.638625 0.003287352
v 0.2029583 1.638621 0.003294255
v 0.3970445 1.597041 0.04487142
v 0.2029607 1.597037 0.04487833
v 0.3970488 1.402957 0.04486917
v 0.2029649 1.402953 0.04487607
v 0.3970482 1.361374 0.003284121
v 0.2029644 1.36137 0.003291024
v 0.2029575 1.361372 -0.1907874
v 0.3970413 1.361377 -0.1907943
v 0.3970389 1.402961 -0.2323784
v 0.2029551 1.402956 -0.2323714
v 0.2029644 1.36137 0.003291024
v 0.2029575 1.361372 -0.1907874
v 0.1613733 1.402955 -0.1907854
v 0.2029551 1.402956 -0.2323714
v 0.1613802 1.402953 0.003292988
v 0.2029649 1.402953 0.04487607
v 0.2029607 1.597037 0.04487833
v 0.161376 1.597036 0.00329525
v 0.2029583 1.638621 0.003294255
v 0.2029514 1.638623 -0.1907842
v 0.161369 1.597039 -0.1907831
v 0.2029508 1.59704 -0.2323692
v 0.4386304 1.402959 0.003283126
v 0.3970413 1.361377 -0.1907943
v 0.3970482 1.361374 0.003284121
v 0.3970488 1.402957 0.04486917
v 0.4386235 1.402961 -0.1907953
v 0.3970389 1.402961 -0.2323784
v 0.3970347 1.597044 -0.2323761
v 0.4386262 1.597043 0.003285388
v 0.3970445 1.597041 0.04487142
v 0.3970422 1.638625 0.003287352
v 0.4386193 1.597045 -0.190793
v 0.3970352 1.638627 -0.190791
vt 0.3344727 0.8139648
vt 0.3486328 0.8339844
vt 0.3486328 0.8139648
vt 0.3344727 0.8339844
vt 0.3312988 0.8139648
vt 0.3312988 0.8339844
vt 0.3171387 0.8139648
vt 0.3171387 0.8339844
vt 0.314209 0.8139648
vt 0.314209 0.8339844
vt 0.3000488 0.8139648
vt 0.3000488 0.8339844
vt 0.296875 0.8139648
vt 0.296875 0.8339844
vt 0.2827148 0.8339844
vt 0.2827148 0.8139648
vt 0.2797852 0.8139648
vt 0.2797852 0.8339844
vt 0.3308105 0.8637695
vt 0.296875 0.8637695
vt 0.296875 0.8642578
vt 0.2895508 0.8642578
vt 0.3308105 0.8642578
vt 0.3381348 0.8642578
vt 0.3381348 0.8657227
vt 0.3308105 0.8657227
vt 0.3308105 0.8657227
vt 0.296875 0.8657227
vt 0.296875 0.8657227
vt 0.2895508 0.8657227
vt 0.2966309 0.7836914
vt 0.3300781 0.7836914
vt 0.2966309 0.7836914
vt 0.2893066 0.7836914
vt 0.3300781 0.7836914
vt 0.3371582 0.7836914
vt 0.3371582 0.784668
vt 0.2966309 0.784668
vt 0.2893066 0.784668
vt 0.2966309 0.7851563
vt 0.3300781 0.784668
vt 0.3300781 0.7851563
vn 0.1550293 0.1551514 -0.9755859
vn -0.1551514 -0.1551514 -0.9755859
vn 0.1551514 -0.1551514 -0.9755859
vn -0.1551514 0.1551514 -0.9755859
vn 0.1551514 0.9755859 -0.1551514
vn -0.1551514 0.9755859 -0.1551514
vn 0.1551514 0.9755859 0.1551514
vn -0.1551514 0.9755859 0.1551514
vn 0.1551514 0.1551514 0.9755859
vn -0.1551514 0.1551514 0.9755859
vn 0.1551514 -0.1551514 0.9755859
vn -0.1550293 -0.1551514 0.9755859
vn 0.1551514 -0.9755859 0.1551514
vn -0.1551514 -0.9755859 0.1551514
vn -0.1551514 -0.9755859 -0.1551514
vn 0.1551514 -0.9755859 -0.1551514
vn 0.1551514 -0.1551514 -0.9755859
vn -0.1551514 -0.1551514 -0.9755859
vn -0.1551514 -0.9755859 0.1551514
vn -0.1551514 -0.9755859 -0.1551514
vn -0.9755859 -0.1551514 -0.1550293
vn -0.1551514 -0.1551514 -0.9755859
vn -0.9755859 -0.1551514 0.1551514
vn -0.1550293 -0.1551514 0.9755859
vn -0.1551514 0.1551514 0.9755859
vn -0.9755859 0.1551514 0.1551514
vn -0.1551514 0.9755859 0.1551514
vn -0.1551514 0.9755859 -0.1551514
vn -0.9755859 0.1551514 -0.1550293
vn -0.1551514 0.1551514 -0.9755859
vn 0.9755859 -0.1551514 0.1550293
vn 0.1551514 -0.9755859 -0.1551514
vn 0.1551514 -0.9755859 0.1551514
vn 0.1551514 -0.1551514 0.9755859
vn 0.9755859 -0.1551514 -0.1551514
vn 0.1551514 -0.1551514 -0.9755859
vn 0.1550293 0.1551514 -0.9755859
vn 0.9755859 0.1551514 0.1550293
vn 0.1551514 0.1551514 0.9755859
vn 0.1551514 0.9755859 0.1551514
vn 0.9755859 0.1551514 -0.1551514
vn 0.1551514 0.9755859 -0.1551514
g Epaule gauche_0
f 3/3/3 2/2/2 1/1/1
f 2/2/2 4/4/4 1/1/1
f 5/5/5 1/1/1 4/4/4
f 6/6/6 5/5/5 4/4/4
f 5/5/5 6/6/6 7/7/7
f 6/6/6 8/8/8 7/7/7
f 9/9/9 7/7/7 8/8/8
f 10/10/10 9/9/9 8/8/8
f 9/9/9 10/10/10 11/11/11
f 10/10/10 12/12/12 11/11/11
f 13/13/13 11/11/11 12/12/12
f 14/14/14 13/13/13 12/12/12
f 13/13/13 14/14/14 15/15/15
f 16/16/16 13/13/13 15/15/15
f 17/17/17 16/16/16 15/15/15
f 18/18/18 17/17/17 15/15/15
f 21/21/21 20/20/20 19/19/19
f 21/21/21 22/22/22 20/20/20
f 23/23/23 21/21/21 19/19/19
f 19/19/19 24/24/24 23/23/23
f 24/24/24 25/25/25 23/23/23
f 25/25/25 26/26/26 23/23/23
f 21/21/21 23/23/23 26/26/26
f 26/26/26 25/25/25 27/27/27
f 27/27/27 28/28/28 26/26/26
f 22/22/22 21/21/21 29/29/29
f 29/29/29 21/21/21 26/26/26
f 28/28/28 29/29/29 26/26/26
f 30/30/30 22/22/22 29/29/29
f 29/29/29 28/28/28 30/30/30
f 33/33/33 32/32/32 31/31/31
f 31/31/31 34/34/34 33/33/33
f 32/32/32 35/35/35 31/31/31
f 32/32/32 36/36/36 35/35/35
f 35/35/35 36/36/36 37/37/37
f 31/31/31 38/38/38 34/34/34
f 38/38/38 31/31/31 35/35/35
f 38/38/38 39/39/39 34/34/34
f 40/40/40 39/39/39 38/38/38
f 41/41/41 35/35/35 37/37/37
f 41/41/41 38/38/38 35/35/35
f 38/38/38 41/41/41 40/40/40
f 37/37/37 42/42/42 41/41/41
f 41/41/41 42/42/42 40/40/40
