g Foot_right
v -0.07760698 -0.001019776 0.01054586
v -0.07760693 0.1906031 0.01054585
v -0.08177589 0.0002533793 0.1458897
v -0.08264881 -0.03960425 0.1458897
v -0.07760698 -0.04973745 0.01054586
v -0.0828708 -0.04973745 0.1458897
v -0.07760698 -0.04973745 -0.2346534
v -0.07760702 -0.001019776 -0.2346534
v 0.07760696 -0.001019776 0.01054586
v 0.07760701 0.1906031 0.01054585
v -0.07760693 0.1906031 0.01054585
v -0.07760698 -0.001019776 0.01054586
v 0.08264883 -0.03960425 0.1458897
v 0.08177589 0.0002533793 0.1458897
v 0.07760701 0.1906031 0.01054585
v 0.07760696 -0.001019776 0.01054586
v 0.08287076 -0.04973745 0.1458897
v 0.07760695 -0.04973745 0.01054586
v 0.07760698 -0.001019955 -0.2346534
v 0.07760697 -0.04973763 -0.2346534
v -0.0828708 -0.04973745 0.1458897
v 0.08264883 -0.03960425 0.1458897
v 0.08287076 -0.04973745 0.1458897
v -0.08264881 -0.03960425 0.1458897
v 0.08177589 0.0002533793 0.1458897
v -0.08177589 0.0002533793 0.1458897
v -0.07760693 0.1906031 0.01054585
v 0.08177589 0.0002533793 0.1458897
v 0.07760701 0.1906031 0.01054585
v 0.07760696 -0.001019776 0.01054586
v -0.07760698 -0.001019776 0.01054586
v -0.07760702 -0.001019776 -0.2346534
v 0.07760698 -0.001019955 -0.2346534
v 0.07760697 -0.04973763 -0.2346534
v 0.07760698 -0.001019955 -0.2346534
v -0.07760702 -0.001019776 -0.2346534
v -0.07760698 -0.04973745 -0.2346534
v 0.07760695 -0.04973745 0.01054586
v -0.0828708 -0.04973745 0.1458897
v 0.08287076 -0.04973745 0.1458897
v -0.07760698 -0.04973745 0.01054586
v 0.07760697 -0.04973763 -0.2346534
v -0.07760698 -0.04973745 -0.2346534
vt 0 0
vt 0 0
vt 0 0
vt 0 0
vt 0 0
vt 0 0
vt 0 0
vt 0 0
vt 0 0
vt 0 0
vt 0 0
vt 0 0
vt 0 0
vt 0 0
vt 0 0
vt 0 0
vt 0 0
vt 0 0
vt 0 0
vt 0 0
vt 0 0
vt 0 0
vt 0 0
vt 0 0
vt 0 0
vt 0 0
vt 0 0
vt 0 0
vt 0 0
vt 0 0
vt 0 0
vt 0 0
vt 0 0
vt 0 0
vt 0 0
vt 0 0
vt 0 0
vt 0 0
vt 0 0
vt 0 0
vt 0 0
vt 0 0
vt 0 0
vn -0.9997861 0.002432136 -0.0205408
vn -0.9995177 0.003769423 -0.03082296
vn -0.9995177 0.003769424 -0.03082296
vn -0.9994612 0.003769385 -0.0326063
vn -0.9999555 0.000942728 -0.00938438
vn -0.9992892 0.003769217 -0.03750777
vn -1 0 0
vn -1 0 0
vn 0 0 -1
vn 0 0 -1
vn 0 0 -1
vn 0 0 -1
vn 0.9994611 0.003768879 -0.03260643
vn 0.9995177 0.003769085 -0.03082307
vn 0.9995177 0.003769085 -0.03082308
vn 0.9997861 0.002431961 -0.02054089
vn 0.9992892 0.003768249 -0.03750795
vn 0.9999555 0.0009427057 -0.009384448
vn 1 0 0
vn 1 0 0
vn 0 0 1
vn 0 0 1
vn 0 0 1
vn 0 0 1
vn 0 0.503058 0.8642526
vn 0 0.503058 0.8642526
vn 0 0.5794785 0.8149875
vn 0 0.503058 0.8642526
vn 0 0.5794785 0.8149875
vn 0 1 0
vn 0 1 0
vn 0 1 0
vn 0 1 0
vn 0 0 -1
vn 0 0 -1
vn 0 0 -1
vn 0 0 -1
vn 0 -1 0
vn 0 -1 0
vn 0 -1 0
vn 0 -1 0
vn 0 -1 0
vn 0 -1 0
g Foot_right_0
f 3/3/3 2/2/2 1/1/1
f 4/4/4 3/3/3 1/1/1
f 4/4/4 1/1/1 5/5/5
f 6/6/6 4/4/4 5/5/5
f 7/7/7 5/5/5 1/1/1
f 8/8/8 7/7/7 1/1/1
f 11/11/11 10/10/10 9/9/9
f 12/12/12 11/11/11 9/9/9
f 15/15/15 14/14/14 13/13/13
f 16/16/16 15/15/15 13/13/13
f 16/16/16 13/13/13 17/17/17
f 18/18/18 16/16/16 17/17/17
f 19/19/19 16/16/16 18/18/18
f 20/20/20 19/19/19 18/18/18
f 23/23/23 22/22/22 21/21/21
f 22/22/22 24/24/24 21/21/21
f 22/22/22 25/25/25 24/24/24
f 25/25/25 26/26/26 24/24/24
f 26/26/26 28/28/28 27/27/27
f 28/28/28 29/29/29 27/27/27
f 32/32/32 31/31/31 30/30/30
f 33/33/33 32/32/32 30/30/30
f 36/36/36 35/35/35 34/34/34
f 37/37/37 36/36/36 34/34/34
f 40/40/40 39/39/39 38/38/38
f 39/39/39 41/41/41 38/38/38
f 42/42/42 38/38/38 41/41/41
f 43/43/43 42/42/42 41/41/41
