g Foot_left.023
v 0.05432878 -0.0793771 0.1927882
v -0.05432875 -0.0793771 0.1927882
v -0.05432875 -4.01185E-09 0.139856
v 0.05432878 -5.874495E-09 0.139856
v -0.07937712 -0.113391 0.1587764
v -0.1133908 -0.07937708 -0.1058442
v -0.1133908 -0.07937709 0.1587764
v -0.07937712 -0.0793771 0.1927882
v -0.07937713 -0.113391 -0.1058442
v -0.07937713 -0.07937709 -0.139856
v -0.05432877 -0.07937709 -0.139856
v -0.05432875 -0.113391 0.1587764
v -0.05432875 -0.0793771 0.1927882
v -0.05432877 -0.113391 -0.1058442
v 0.05432876 -0.07937709 -0.139856
v 0.05432878 -0.113391 0.1587764
v 0.05432878 -0.0793771 0.1927882
v 0.05432876 -0.113391 -0.1058442
v 0.0793771 -0.07937709 -0.139856
v 0.07937711 -0.113391 0.1587764
v 0.07937711 -0.0793771 0.1927882
v 0.1133908 -0.07937709 0.1587764
v 0.0793771 -0.113391 -0.1058442
v 0.1133908 -0.07937708 -0.1058442
v -0.1133908 0.07937709 -0.1058442
v -0.07937713 -2.149206E-09 -0.139856
v -0.07937713 0.07937708 -0.139856
v -0.1133908 -2.149206E-09 -0.1058442
v -0.07937713 -0.07937709 -0.139856
v -0.1133908 0.07937708 0.0529119
v -0.1133908 -0.07937708 -0.1058442
v -0.1133908 -2.149206E-09 0.1058442
v -0.1133908 -0.07937709 0.1587764
v -0.07937712 0.07937709 0.08692373
v -0.07937712 -2.149206E-09 0.139856
v -0.07937712 -0.0793771 0.1927882
v -0.05432875 0.07937709 0.08692373
v 0.05432878 0.07937709 0.08692373
v 0.07937711 -7.737142E-09 0.139856
v 0.07937711 0.07937709 0.08692373
v 0.1133908 0.07937708 0.0529119
v 0.07937711 -0.0793771 0.1927882
v 0.1133908 -7.737142E-09 0.1058442
v 0.1133908 -0.07937709 0.1587764
v 0.1133908 -0.07937708 -0.1058442
v 0.1133908 3.43873E-09 -0.1058442
v 0.1133908 0.07937709 -0.1058442
v 0.0793771 0.07937708 -0.139856
v 0.0793771 -7.737142E-09 -0.139856
v 0.0793771 -0.07937709 -0.139856
v 0.05432876 -0.07937709 -0.139856
v 0.05432876 -5.874495E-09 -0.139856
v 0.05432876 0.07937708 -0.139856
v -0.05432877 -0.07937709 -0.139856
v -0.05432877 -4.01185E-09 -0.139856
v -0.07937713 -0.07937709 -0.139856
v -0.05432877 0.07937708 -0.139856
v -0.07937713 -2.149206E-09 -0.139856
v -0.07937713 0.07937708 -0.139856
v 0.05432876 0.07937708 -0.139856
v 0.0793771 0.07937708 -0.139856
v 0.0793771 0.113391 -0.1058442
v 0.1133908 0.07937709 -0.1058442
v 0.05432876 0.113391 -0.1058442
v -0.05432877 0.07937708 -0.139856
v 0.07937711 0.113391 0.0529119
v 0.1133908 0.07937708 0.0529119
v 0.07937711 0.07937709 0.08692373
v 0.05432878 0.113391 0.0529119
v 0.05432878 0.07937709 0.08692373
v -0.05432877 0.113391 -0.1058442
v -0.07937713 0.07937708 -0.139856
v -0.05432875 0.113391 0.05291191
v -0.05432875 0.07937709 0.08692373
v -0.07937713 0.113391 -0.1058442
v -0.1133908 0.07937709 -0.1058442
v -0.1133908 0.07937708 0.0529119
v -0.07937712 0.113391 0.0529119
v -0.07937712 0.07937709 0.08692373
vt 0.3051758 0.8300781
vt 0.2990723 0.8300781
vt 0.2990723 0.8496094
vt 0.3051758 0.8496094
vt 0.3242188 0.7685547
vt 0.2937012 0.769043
vt 0.3242188 0.769043
vt 0.3308105 0.7685547
vt 0.2937012 0.7685547
vt 0.2871094 0.7685547
vt 0.2871094 0.7680664
vt 0.3242188 0.7680664
vt 0.3308105 0.7680664
vt 0.2937012 0.7680664
vt 0.2871094 0.7675781
vt 0.3242188 0.7675781
vt 0.3308105 0.7675781
vt 0.2937012 0.7675781
vt 0.2871094 0.7670898
vt 0.3242188 0.7670898
vt 0.3308105 0.7670898
vt 0.3242188 0.7666016
vt 0.2937012 0.7670898
vt 0.2937012 0.7666016
vt 0.2702637 0.8686523
vt 0.2663574 0.8496094
vt 0.2663574 0.8686523
vt 0.2702637 0.8496094
vt 0.2663574 0.8300781
vt 0.2888184 0.8686523
vt 0.2702637 0.8300781
vt 0.2888184 0.8496094
vt 0.2888184 0.8300781
vt 0.2929688 0.8686523
vt 0.2929688 0.8496094
vt 0.2929688 0.8300781
vt 0.2990723 0.8686523
vt 0.3051758 0.8686523
vt 0.3115234 0.8496094
vt 0.3115234 0.8686523
vt 0.3154297 0.8686523
vt 0.3115234 0.8300781
vt 0.3154297 0.8496094
vt 0.3154297 0.8300781
vt 0.3339844 0.8300781
vt 0.3339844 0.8496094
vt 0.3339844 0.8686523
vt 0.3381348 0.8686523
vt 0.3381348 0.8496094
vt 0.3381348 0.8300781
vt 0.3442383 0.8300781
vt 0.3442383 0.8496094
vt 0.3442383 0.8686523
vt 0.3503418 0.8300781
vt 0.3503418 0.8496094
vt 0.3566895 0.8300781
vt 0.3503418 0.8686523
vt 0.3566895 0.8496094
vt 0.3566895 0.8686523
vt 0.3320313 0.9233398
vt 0.3320313 0.9223633
vt 0.3256836 0.9223633
vt 0.3256836 0.921875
vt 0.3256836 0.9233398
vt 0.3320313 0.9238281
vt 0.2954102 0.9223633
vt 0.2954102 0.921875
vt 0.2888184 0.9223633
vt 0.2954102 0.9233398
vt 0.2888184 0.9233398
vt 0.3256836 0.9238281
vt 0.3320313 0.9248047
vt 0.2954102 0.9238281
vt 0.2888184 0.9238281
vt 0.3256836 0.9248047
vt 0.3256836 0.925293
vt 0.2954102 0.925293
vt 0.2954102 0.9248047
vt 0.2888184 0.9248047
vn 0 0.5546875 0.8320313
vn 0 0.5546875 0.8320313
vn 0 0.5546875 0.8320313
vn 0 0.5546875 0.8320313
vn -0.4853516 -0.8720703 0.06396484
vn -0.9526367 -0.2885742 -0.09484863
vn -0.9501953 -0.2751465 0.145874
vn -0.21521 -0.6904297 0.6904297
vn -0.4853516 -0.8720703 -0.06396484
vn -0.4541016 -0.1821289 -0.8720703
vn 0 -0.2873535 -0.9580078
vn 0 -0.9936523 0.1131592
vn 0 -0.7070313 0.7070313
vn 0 -0.9936523 -0.1131592
vn 0 -0.2873535 -0.9580078
vn 0 -0.9936523 0.1131592
vn 0 -0.7070313 0.7070313
vn 0 -0.9936523 -0.1131592
vn 0.4541016 -0.1821289 -0.8720703
vn 0.4853516 -0.8720703 0.06396484
vn 0.21521 -0.6904297 0.6904297
vn 0.9501953 -0.2751465 0.145874
vn 0.4853516 -0.8720703 -0.06396484
vn 0.9526367 -0.2885742 -0.09484863
vn -0.9624023 0.2401123 -0.1280518
vn -0.4990234 0 -0.8666992
vn -0.4541016 0.1821289 -0.8720703
vn -0.9907227 0 -0.137085
vn -0.4541016 -0.1821289 -0.8720703
vn -0.9658203 0.2457275 0.08251953
vn -0.9526367 -0.2885742 -0.09484863
vn -0.9873047 0.08764648 0.1313477
vn -0.9501953 -0.2751465 0.145874
vn -0.4189453 0.5351563 0.7338867
vn -0.4321289 0.5004883 0.7504883
vn -0.385498 0.5117188 0.7675781
vn 0 0.6083984 0.793457
vn 0 0.6083984 0.793457
vn 0.4321289 0.5004883 0.7504883
vn 0.4189453 0.5351563 0.7338867
vn 0.9658203 0.2457275 0.08251953
vn 0.385498 0.5117188 0.7675781
vn 0.9873047 0.08764648 0.1313477
vn 0.9501953 -0.2751465 0.145874
vn 0.9526367 -0.2885742 -0.09484863
vn 0.9907227 0 -0.137085
vn 0.9624023 0.2401123 -0.1280518
vn 0.4541016 0.1821289 -0.8720703
vn 0.4990234 0 -0.8666992
vn 0.4541016 -0.1821289 -0.8720703
vn 0 -0.2873535 -0.9580078
vn 0 0 -1
vn 0 0.2873535 -0.9580078
vn 0 -0.2873535 -0.9580078
vn 0 0 -1
vn -0.4541016 -0.1821289 -0.8720703
vn 0 0.2873535 -0.9580078
vn -0.4990234 0 -0.8666992
vn -0.4541016 0.1821289 -0.8720703
vn 0 0.2873535 -0.9580078
vn 0.4541016 0.1821289 -0.8720703
vn 0.4760742 0.8735352 -0.1018677
vn 0.9624023 0.2401123 -0.1280518
vn 0 0.9848633 -0.1737061
vn 0 0.2873535 -0.9580078
vn 0.4760742 0.8735352 0.1018677
vn 0.9658203 0.2457275 0.08251953
vn 0.4189453 0.5351563 0.7338867
vn 0 0.9848633 0.1737061
vn 0 0.6083984 0.793457
vn 0 0.9848633 -0.1737061
vn -0.4541016 0.1821289 -0.8720703
vn 0 0.9848633 0.1737061
vn 0 0.6083984 0.793457
vn -0.4760742 0.8735352 -0.1018677
vn -0.9624023 0.2401123 -0.1280518
vn -0.9658203 0.2457275 0.08251953
vn -0.4760742 0.8735352 0.1018677
vn -0.4189453 0.5351563 0.7338867
g Foot_left.023_0
f 3/3/3 2/2/2 1/1/1
f 4/4/4 3/3/3 1/1/1
f 7/7/7 6/6/6 5/5/5
f 5/5/5 8/8/8 7/7/7
f 6/6/6 9/9/9 5/5/5
f 6/6/6 10/10/10 9/9/9
f 10/10/10 11/11/11 9/9/9
f 5/5/5 12/12/12 8/8/8
f 12/12/12 5/5/5 9/9/9
f 12/12/12 13/13/13 8/8/8
f 11/11/11 14/14/14 9/9/9
f 14/14/14 12/12/12 9/9/9
f 11/11/11 15/15/15 14/14/14
f 12/12/12 16/16/16 13/13/13
f 16/16/16 12/12/12 14/14/14
f 16/16/16 17/17/17 13/13/13
f 15/15/15 18/18/18 14/14/14
f 18/18/18 16/16/16 14/14/14
f 15/15/15 19/19/19 18/18/18
f 16/16/16 20/20/20 17/17/17
f 20/20/20 16/16/16 18/18/18
f 20/20/20 21/21/21 17/17/17
f 22/22/22 21/21/21 20/20/20
f 19/19/19 23/23/23 18/18/18
f 23/23/23 20/20/20 18/18/18
f 20/20/20 23/23/23 22/22/22
f 23/23/23 19/19/19 24/24/24
f 23/23/23 24/24/24 22/22/22
g Foot_left.023_1
f 27/27/27 26/26/26 25/25/25
f 26/26/26 28/28/28 25/25/25
f 26/26/26 29/29/29 28/28/28
f 25/25/25 28/28/28 30/30/30
f 29/29/29 31/31/31 28/28/28
f 28/28/28 32/32/32 30/30/30
f 28/28/28 31/31/31 32/32/32
f 31/31/31 33/33/33 32/32/32
f 34/34/34 30/30/30 32/32/32
f 35/35/35 32/32/32 33/33/33
f 35/35/35 34/34/34 32/32/32
f 36/36/36 35/35/35 33/33/33
f 35/35/35 36/36/36 2/2/2
f 3/3/3 35/35/35 2/2/2
f 34/34/34 35/35/35 3/3/3
f 37/37/37 34/34/34 3/3/3
f 37/37/37 3/3/3 4/4/4
f 38/38/38 37/37/37 4/4/4
f 38/38/38 4/4/4 39/39/39
f 40/40/40 38/38/38 39/39/39
f 41/41/41 40/40/40 39/39/39
f 39/39/39 4/4/4 42/42/42
f 4/4/4 1/1/1 42/42/42
f 43/43/43 39/39/39 42/42/42
f 43/43/43 41/41/41 39/39/39
f 44/44/44 43/43/43 42/42/42
f 43/43/43 44/44/44 45/45/45
f 41/41/41 43/43/43 46/46/46
f 46/46/46 43/43/43 45/45/45
f 47/47/47 41/41/41 46/46/46
f 47/47/47 46/46/46 48/48/48
f 46/46/46 45/45/45 49/49/49
f 46/46/46 49/49/49 48/48/48
f 45/45/45 50/50/50 49/49/49
f 50/50/50 51/51/51 49/49/49
f 49/49/49 52/52/52 48/48/48
f 51/51/51 52/52/52 49/49/49
f 52/52/52 53/53/53 48/48/48
f 51/51/51 54/54/54 52/52/52
f 52/52/52 55/55/55 53/53/53
f 54/54/54 55/55/55 52/52/52
f 54/54/54 56/56/56 55/55/55
f 55/55/55 57/57/57 53/53/53
f 56/56/56 58/58/58 55/55/55
f 55/55/55 58/58/58 57/57/57
f 58/58/58 59/59/59 57/57/57
f 62/62/62 61/61/61 60/60/60
f 61/61/61 62/62/62 63/63/63
f 64/64/64 62/62/62 60/60/60
f 64/64/64 60/60/60 65/65/65
f 63/63/63 62/62/62 66/66/66
f 62/62/62 64/64/64 66/66/66
f 67/67/67 63/63/63 66/66/66
f 66/66/66 68/68/68 67/67/67
f 68/68/68 66/66/66 69/69/69
f 64/64/64 69/69/69 66/66/66
f 70/70/70 68/68/68 69/69/69
f 71/71/71 64/64/64 65/65/65
f 64/64/64 71/71/71 69/69/69
f 71/71/71 65/65/65 72/72/72
f 70/70/70 69/69/69 73/73/73
f 71/71/71 73/73/73 69/69/69
f 74/74/74 70/70/70 73/73/73
f 75/75/75 71/71/71 72/72/72
f 71/71/71 75/75/75 73/73/73
f 76/76/76 75/75/75 72/72/72
f 75/75/75 76/76/76 77/77/77
f 74/74/74 73/73/73 78/78/78
f 75/75/75 78/78/78 73/73/73
f 78/78/78 75/75/75 77/77/77
f 79/79/79 74/74/74 78/78/78
f 77/77/77 79/79/79 78/78/78
