g Foot_left.019
v -0.1230521 0.07937708 -0.1189523
v -0.08614034 7.546044E-09 -0.1529642
v -0.08614034 0.07937708 -0.1529642
v -0.1230521 9.157369E-09 -0.1189523
v -0.08614034 -0.0793771 -0.1529642
v -0.1230521 0.07937708 0.03980369
v -0.1230521 -0.0793771 -0.1189523
v -0.1230521 -1.051876E-09 0.1632219
v -0.1230521 -0.0793771 0.168588
v -0.08614033 0.07937708 0.07381555
v -0.08614033 5.594538E-10 0.1972338
v -0.08614033 -0.0793771 0.2025998
v 0.08614034 -0.0793771 0.2025998
v 0.08614034 5.594512E-10 0.1972338
v 0.08614034 0.07937708 0.07381555
v 0.1230521 0.07937708 0.03980369
v 0.1230521 -1.051876E-09 0.1632219
v 0.1230521 -0.0793771 0.168588
v 0.1230521 -0.0793771 -0.1189524
v 0.1230521 9.157372E-09 -0.1189524
v 0.1230521 0.07937708 -0.1189523
v 0.08614033 0.07937708 -0.1529642
v 0.08614033 3.934879E-10 -0.1529642
v 0.08614033 -0.0793771 -0.1529642
v -0.08614034 -0.0793771 -0.1529642
v -0.08614034 7.546044E-09 -0.1529642
v -0.08614034 0.07937708 -0.1529642
v -0.08614033 -0.113391 0.168588
v -0.1230521 -0.0793771 -0.1189523
v -0.1230521 -0.0793771 0.168588
v -0.08614033 -0.0793771 0.2025998
v -0.08614034 -0.113391 -0.1189524
v -0.08614034 -0.0793771 -0.1529642
v 0.08614033 -0.0793771 -0.1529642
v 0.08614034 -0.113391 0.168588
v 0.08614034 -0.0793771 0.2025998
v 0.1230521 -0.0793771 0.168588
v 0.08614033 -0.113391 -0.1189524
v 0.1230521 -0.0793771 -0.1189524
v -0.08614034 0.07937708 -0.1529642
v 0.08614033 0.07937708 -0.1529642
v 0.08614033 0.113391 -0.1189523
v 0.1230521 0.07937708 -0.1189523
v -0.08614034 0.113391 -0.1189523
v -0.1230521 0.07937708 -0.1189523
v -0.1230521 0.07937708 0.03980369
v 0.08614034 0.113391 0.03980369
v 0.1230521 0.07937708 0.03980369
v 0.08614034 0.07937708 0.07381555
v -0.08614033 0.113391 0.0398037
v -0.08614033 0.07937708 0.07381555
vt 0.2702637 0.8686523
vt 0.2663574 0.8496094
vt 0.2663574 0.8686523
vt 0.2702637 0.8496094
vt 0.2663574 0.8300781
vt 0.2888184 0.8686523
vt 0.2702637 0.8300781
vt 0.2888184 0.8496094
vt 0.2888184 0.8300781
vt 0.2929688 0.8686523
vt 0.2929688 0.8496094
vt 0.2929688 0.8300781
vt 0.3115234 0.8300781
vt 0.3115234 0.8496094
vt 0.3115234 0.8686523
vt 0.3154297 0.8686523
vt 0.3154297 0.8496094
vt 0.3154297 0.8300781
vt 0.3339844 0.8300781
vt 0.3339844 0.8496094
vt 0.3339844 0.8686523
vt 0.3381348 0.8686523
vt 0.3381348 0.8496094
vt 0.3381348 0.8300781
vt 0.3566895 0.8300781
vt 0.3566895 0.8496094
vt 0.3566895 0.8686523
vt 0.3242188 0.7685547
vt 0.2937012 0.769043
vt 0.3242188 0.769043
vt 0.3308105 0.7685547
vt 0.2937012 0.7685547
vt 0.2871094 0.7685547
vt 0.2871094 0.7670898
vt 0.3242188 0.7670898
vt 0.3308105 0.7670898
vt 0.3242188 0.7666016
vt 0.2937012 0.7670898
vt 0.2937012 0.7666016
vt 0.3320313 0.9248047
vt 0.3320313 0.9223633
vt 0.3256836 0.9223633
vt 0.3256836 0.921875
vt 0.3256836 0.9248047
vt 0.3256836 0.925293
vt 0.2954102 0.925293
vt 0.2954102 0.9223633
vt 0.2954102 0.921875
vt 0.2888184 0.9223633
vt 0.2954102 0.9248047
vt 0.2888184 0.9248047
vn -0.9648438 0.2325439 -0.1236572
vn -0.1605225 0 -0.9868164
vn -0.1292725 0.2626953 -0.9560547
vn -0.9916992 0 -0.1276855
vn -0.1292725 -0.2626953 -0.9560547
vn -0.9682617 0.2431641 0.059021
vn -0.9511719 -0.2954102 -0.08929443
vn -0.9672852 0.1733398 0.18396
vn -0.9501953 -0.2971191 0.09387207
vn -0.09912109 0.8115234 0.5756836
vn -0.1079712 0.612793 0.7827148
vn -0.1279297 -0.2192383 0.9672852
vn 0.1279297 -0.2192383 0.9672852
vn 0.1079712 0.612793 0.7827148
vn 0.09912109 0.8115234 0.5756836
vn 0.9682617 0.2431641 0.059021
vn 0.9672852 0.1733398 0.18396
vn 0.9501953 -0.2971191 0.09387207
vn 0.9511719 -0.2954102 -0.08929443
vn 0.9916992 0 -0.1276855
vn 0.9648438 0.2325439 -0.1236572
vn 0.1292725 0.2626953 -0.9560547
vn 0.1605225 0 -0.9868164
vn 0.1292725 -0.2626953 -0.9560547
vn -0.1292725 -0.2626953 -0.9560547
vn -0.1605225 0 -0.9868164
vn -0.1292725 0.2626953 -0.9560547
vn -0.1507568 -0.984375 0.09313965
vn -0.9511719 -0.2954102 -0.08929443
vn -0.9501953 -0.2971191 0.09387207
vn -0.1279297 -0.2192383 0.9672852
vn -0.1507568 -0.984375 -0.09313965
vn -0.1292725 -0.2626953 -0.9560547
vn 0.1292725 -0.2626953 -0.9560547
vn 0.1507568 -0.984375 0.09313965
vn 0.1279297 -0.2192383 0.9672852
vn 0.9501953 -0.2971191 0.09387207
vn 0.1507568 -0.984375 -0.09313965
vn 0.9511719 -0.2954102 -0.08929443
vn -0.1292725 0.2626953 -0.9560547
vn 0.1292725 0.2626953 -0.9560547
vn 0.1434326 0.9775391 -0.1556396
vn 0.9648438 0.2325439 -0.1236572
vn -0.1434326 0.9775391 -0.1556396
vn -0.9648438 0.2325439 -0.1236572
vn -0.9682617 0.2431641 0.059021
vn 0.1434326 0.9775391 0.1556396
vn 0.9682617 0.2431641 0.059021
vn 0.09912109 0.8115234 0.5756836
vn -0.1434326 0.9775391 0.1556396
vn -0.09912109 0.8115234 0.5756836
g Foot_left.019_0
f 3/3/3 2/2/2 1/1/1
f 2/2/2 4/4/4 1/1/1
f 2/2/2 5/5/5 4/4/4
f 1/1/1 4/4/4 6/6/6
f 5/5/5 7/7/7 4/4/4
f 4/4/4 8/8/8 6/6/6
f 4/4/4 7/7/7 8/8/8
f 7/7/7 9/9/9 8/8/8
f 10/10/10 6/6/6 8/8/8
f 11/11/11 8/8/8 9/9/9
f 11/11/11 10/10/10 8/8/8
f 12/12/12 11/11/11 9/9/9
f 11/11/11 12/12/12 13/13/13
f 10/10/10 11/11/11 14/14/14
f 14/14/14 11/11/11 13/13/13
f 15/15/15 10/10/10 14/14/14
f 16/16/16 15/15/15 14/14/14
f 17/17/17 14/14/14 13/13/13
f 17/17/17 16/16/16 14/14/14
f 18/18/18 17/17/17 13/13/13
f 17/17/17 18/18/18 19/19/19
f 16/16/16 17/17/17 20/20/20
f 20/20/20 17/17/17 19/19/19
f 21/21/21 16/16/16 20/20/20
f 21/21/21 20/20/20 22/22/22
f 20/20/20 19/19/19 23/23/23
f 20/20/20 23/23/23 22/22/22
f 19/19/19 24/24/24 23/23/23
f 24/24/24 25/25/25 23/23/23
f 25/25/25 26/26/26 23/23/23
f 23/23/23 26/26/26 22/22/22
f 26/26/26 27/27/27 22/22/22
f 30/30/30 29/29/29 28/28/28
f 28/28/28 31/31/31 30/30/30
f 29/29/29 32/32/32 28/28/28
f 29/29/29 33/33/33 32/32/32
f 33/33/33 34/34/34 32/32/32
f 28/28/28 35/35/35 31/31/31
f 35/35/35 28/28/28 32/32/32
f 35/35/35 36/36/36 31/31/31
f 37/37/37 36/36/36 35/35/35
f 34/34/34 38/38/38 32/32/32
f 38/38/38 35/35/35 32/32/32
f 35/35/35 38/38/38 37/37/37
f 38/38/38 34/34/34 39/39/39
f 38/38/38 39/39/39 37/37/37
f 42/42/42 41/41/41 40/40/40
f 41/41/41 42/42/42 43/43/43
f 44/44/44 42/42/42 40/40/40
f 45/45/45 44/44/44 40/40/40
f 44/44/44 45/45/45 46/46/46
f 43/43/43 42/42/42 47/47/47
f 42/42/42 44/44/44 47/47/47
f 48/48/48 43/43/43 47/47/47
f 47/47/47 49/49/49 48/48/48
f 50/50/50 44/44/44 46/46/46
f 44/44/44 50/50/50 47/47/47
f 49/49/49 47/47/47 50/50/50
f 46/46/46 51/51/51 50/50/50
f 51/51/51 49/49/49 50/50/50
