g Foot_left.010
v 0.06873491 0.0793771 -0.1483288
v -0.06873493 0.0793771 -0.1483287
v -0.06873493 -0.07937708 -0.1483287
v 0.06873491 -0.07937708 -0.1483287
v 0.09818833 -0.07937708 -0.1143169
v 0.09818833 0.07937711 -0.1143169
v 0.09818833 0.0793771 0.04443916
v 0.09818833 -0.07937708 0.1841946
v 0.06873493 -0.07937708 0.2182065
v 0.06873493 0.07937711 0.07845099
v -0.06873492 0.07937711 0.07845099
v -0.06873492 -0.07937708 0.2182065
v -0.09818833 -0.07937708 0.1841946
v -0.09818833 0.0793771 0.04443916
v -0.09818834 -0.07937708 -0.1143169
v -0.09818834 0.07937711 -0.1143169
v -0.06873493 -0.07937708 -0.1483287
v -0.06873493 0.0793771 -0.1483287
v -0.06873492 -0.113391 0.1841946
v -0.09818834 -0.07937708 -0.1143169
v -0.09818833 -0.07937708 0.1841946
v -0.06873492 -0.07937708 0.2182065
v -0.06873493 -0.113391 -0.1143169
v -0.06873493 -0.07937708 -0.1483287
v 0.06873491 -0.07937708 -0.1483287
v 0.06873493 -0.113391 0.1841946
v 0.06873493 -0.07937708 0.2182065
v 0.09818833 -0.07937708 0.1841946
v 0.06873491 -0.113391 -0.1143169
v 0.09818833 -0.07937708 -0.1143169
v -0.09818833 0.0793771 0.04443916
v -0.09818834 0.07937711 -0.1143169
v -0.06873493 0.1133911 -0.1143169
v -0.06873493 0.0793771 -0.1483287
v -0.06873492 0.1133911 0.04443916
v -0.06873492 0.07937711 0.07845099
v 0.06873493 0.07937711 0.07845099
v 0.06873493 0.1133911 0.04443916
v 0.09818833 0.0793771 0.04443916
v 0.09818833 0.07937711 -0.1143169
v 0.06873491 0.1133911 -0.1143169
v 0.06873491 0.0793771 -0.1483288
vt 0.3381348 0.8686523
vt 0.3566895 0.8686523
vt 0.3566895 0.8300781
vt 0.3381348 0.8300781
vt 0.3339844 0.8300781
vt 0.3339844 0.8686523
vt 0.3154297 0.8686523
vt 0.3154297 0.8300781
vt 0.3115234 0.8300781
vt 0.3115234 0.8686523
vt 0.2929688 0.8686523
vt 0.2929688 0.8300781
vt 0.2888184 0.8300781
vt 0.2888184 0.8686523
vt 0.2702637 0.8300781
vt 0.2702637 0.8686523
vt 0.2663574 0.8300781
vt 0.2663574 0.8686523
vt 0.3242188 0.7685547
vt 0.2937012 0.769043
vt 0.3242188 0.769043
vt 0.3308105 0.7685547
vt 0.2937012 0.7685547
vt 0.2871094 0.7685547
vt 0.2871094 0.7670898
vt 0.3242188 0.7670898
vt 0.3308105 0.7670898
vt 0.3242188 0.7666016
vt 0.2937012 0.7670898
vt 0.2937012 0.7666016
vt 0.2954102 0.925293
vt 0.3256836 0.925293
vt 0.3256836 0.9248047
vt 0.3320313 0.9248047
vt 0.2954102 0.9248047
vt 0.2888184 0.9248047
vt 0.2888184 0.9223633
vt 0.2954102 0.9223633
vt 0.2954102 0.921875
vt 0.3256836 0.921875
vt 0.3256836 0.9223633
vt 0.3320313 0.9223633
vn 0.1781006 0.1541748 -0.9716797
vn -0.1781006 0.1541748 -0.9716797
vn -0.1781006 -0.1541748 -0.9716797
vn 0.1781006 -0.1541748 -0.9716797
vn 0.9804688 -0.1717529 -0.09448242
vn 0.9887695 0.1047974 -0.1047974
vn 0.9907227 0.1235352 0.05523682
vn 0.9804688 -0.09613037 0.1728516
vn 0.1077271 0.6567383 0.7460938
vn 0.1678467 0.6586914 0.7333984
vn -0.1678467 0.6586914 0.7333984
vn -0.1077271 0.6567383 0.7460938
vn -0.9804688 -0.09613037 0.1728516
vn -0.9907227 0.1235962 0.05523682
vn -0.9804688 -0.1717529 -0.09448242
vn -0.9887695 0.1047974 -0.1047974
vn -0.1781006 -0.1541748 -0.9716797
vn -0.1781006 0.1541748 -0.9716797
vn -0.1877441 -0.9780273 0.08917236
vn -0.9804688 -0.1717529 -0.09448242
vn -0.9804688 -0.09613037 0.1728516
vn -0.05239868 -0.7060547 0.7060547
vn -0.1877441 -0.9780273 -0.08917236
vn -0.1781006 -0.1541748 -0.9716797
vn 0.1781006 -0.1541748 -0.9716797
vn 0.1877441 -0.9780273 0.08917236
vn 0.05239868 -0.7060547 0.7060547
vn 0.9804688 -0.09613037 0.1728516
vn 0.1877441 -0.9780273 -0.08917236
vn 0.9804688 -0.1717529 -0.09448242
vn -0.9907227 0.1235962 0.05523682
vn -0.9887695 0.1047974 -0.1047974
vn -0.1781006 0.9716797 -0.1541748
vn -0.1781006 0.1541748 -0.9716797
vn -0.1781006 0.9716797 0.1541748
vn -0.1678467 0.6586914 0.7333984
vn 0.1678467 0.6586914 0.7333984
vn 0.1781006 0.9716797 0.1541748
vn 0.9907227 0.1235352 0.05523682
vn 0.9887695 0.1047974 -0.1047974
vn 0.1781006 0.9716797 -0.1541748
vn 0.1781006 0.1541748 -0.9716797
g Foot_left.010_0
f 3/3/3 2/2/2 1/1/1
f 4/4/4 3/3/3 1/1/1
f 5/5/5 4/4/4 1/1/1
f 6/6/6 5/5/5 1/1/1
f 6/6/6 7/7/7 5/5/5
f 7/7/7 8/8/8 5/5/5
f 8/8/8 7/7/7 9/9/9
f 7/7/7 10/10/10 9/9/9
f 10/10/10 11/11/11 9/9/9
f 11/11/11 12/12/12 9/9/9
f 12/12/12 11/11/11 13/13/13
f 11/11/11 14/14/14 13/13/13
f 15/15/15 13/13/13 14/14/14
f 16/16/16 15/15/15 14/14/14
f 17/17/17 15/15/15 16/16/16
f 18/18/18 17/17/17 16/16/16
f 21/21/21 20/20/20 19/19/19
f 19/19/19 22/22/22 21/21/21
f 20/20/20 23/23/23 19/19/19
f 20/20/20 24/24/24 23/23/23
f 24/24/24 25/25/25 23/23/23
f 19/19/19 26/26/26 22/22/22
f 26/26/26 19/19/19 23/23/23
f 26/26/26 27/27/27 22/22/22
f 28/28/28 27/27/27 26/26/26
f 25/25/25 29/29/29 23/23/23
f 29/29/29 26/26/26 23/23/23
f 26/26/26 29/29/29 28/28/28
f 29/29/29 25/25/25 30/30/30
f 29/29/29 30/30/30 28/28/28
f 33/33/33 32/32/32 31/31/31
f 32/32/32 33/33/33 34/34/34
f 35/35/35 33/33/33 31/31/31
f 31/31/31 36/36/36 35/35/35
f 36/36/36 37/37/37 35/35/35
f 37/37/37 38/38/38 35/35/35
f 33/33/33 35/35/35 38/38/38
f 38/38/38 37/37/37 39/39/39
f 39/39/39 40/40/40 38/38/38
f 33/33/33 41/41/41 34/34/34
f 41/41/41 33/33/33 38/38/38
f 40/40/40 41/41/41 38/38/38
f 41/41/41 42/42/42 34/34/34
f 42/42/42 41/41/41 40/40/40
