g Foot_left.008
v -0.1133907 0.07937709 -0.1073118
v -0.07937708 -2.929816E-10 -0.1413237
v -0.07937708 0.07937708 -0.1413237
v -0.1133907 1.318343E-09 -0.1073118
v -0.07937708 -0.07937709 -0.1413237
v -0.1133907 0.07937708 0.0514442
v -0.1133907 -0.07937709 -0.1073118
v -0.1133907 -3.346712E-09 0.1408325
v -0.1133907 -0.0793771 0.1408325
v -0.07937708 0.07937709 0.08545604
v -0.07937708 -1.735383E-09 0.1748443
v -0.07937708 -0.0793771 0.1748443
v 0.07937716 -0.0793771 0.1748443
v 0.07937716 -8.887937E-09 0.1748443
v 0.07937716 0.07937709 0.08545604
v 0.1133908 0.07937708 0.0514442
v 0.1133908 -1.049927E-08 0.1408325
v 0.1133908 -0.0793771 0.1408325
v 0.1133908 -0.07937709 -0.1073119
v 0.1133908 1.318345E-09 -0.1073119
v 0.1133908 0.07937709 -0.1073119
v 0.07937714 0.07937708 -0.1413237
v 0.07937714 -7.445538E-09 -0.1413237
v 0.07937714 -0.07937709 -0.1413237
v -0.07937708 -0.07937709 -0.1413237
v -0.07937708 -2.929816E-10 -0.1413237
v -0.07937708 0.07937708 -0.1413237
v -0.07937708 -0.113391 0.1408325
v -0.1133907 -0.07937709 -0.1073118
v -0.1133907 -0.0793771 0.1408325
v -0.07937708 -0.0793771 0.1748443
v -0.07937708 -0.113391 -0.1073119
v -0.07937708 -0.07937709 -0.1413237
v 0.07937714 -0.07937709 -0.1413237
v 0.07937716 -0.113391 0.1408325
v 0.07937716 -0.0793771 0.1748443
v 0.1133908 -0.0793771 0.1408325
v 0.07937714 -0.113391 -0.1073119
v 0.1133908 -0.07937709 -0.1073119
v -0.07937708 0.07937708 -0.1413237
v 0.07937714 0.07937708 -0.1413237
v 0.07937714 0.113391 -0.1073118
v 0.1133908 0.07937709 -0.1073119
v -0.07937708 0.113391 -0.1073118
v -0.1133907 0.07937709 -0.1073118
v -0.1133907 0.07937708 0.0514442
v 0.07937716 0.113391 0.0514442
v 0.1133908 0.07937708 0.0514442
v 0.07937716 0.07937709 0.08545604
v -0.07937708 0.113391 0.05144421
v -0.07937708 0.07937709 0.08545604
vt 0.2702637 0.8686523
vt 0.2663574 0.8496094
vt 0.2663574 0.8686523
vt 0.2702637 0.8496094
vt 0.2663574 0.8300781
vt 0.2888184 0.8686523
vt 0.2702637 0.8300781
vt 0.2888184 0.8496094
vt 0.2888184 0.8300781
vt 0.2929688 0.8686523
vt 0.2929688 0.8496094
vt 0.2929688 0.8300781
vt 0.3115234 0.8300781
vt 0.3115234 0.8496094
vt 0.3115234 0.8686523
vt 0.3154297 0.8686523
vt 0.3154297 0.8496094
vt 0.3154297 0.8300781
vt 0.3339844 0.8300781
vt 0.3339844 0.8496094
vt 0.3339844 0.8686523
vt 0.3381348 0.8686523
vt 0.3381348 0.8496094
vt 0.3381348 0.8300781
vt 0.3566895 0.8300781
vt 0.3566895 0.8496094
vt 0.3566895 0.8686523
vt 0.3242188 0.7685547
vt 0.2937012 0.769043
vt 0.3242188 0.769043
vt 0.3308105 0.7685547
vt 0.2937012 0.7685547
vt 0.2871094 0.7685547
vt 0.2871094 0.7670898
vt 0.3242188 0.7670898
vt 0.3308105 0.7670898
vt 0.3242188 0.7666016
vt 0.2937012 0.7670898
vt 0.2937012 0.7666016
vt 0.3320313 0.9248047
vt 0.3320313 0.9223633
vt 0.3256836 0.9223633
vt 0.3256836 0.921875
vt 0.3256836 0.9248047
vt 0.3256836 0.925293
vt 0.2954102 0.925293
vt 0.2954102 0.9223633
vt 0.2954102 0.921875
vt 0.2888184 0.9223633
vt 0.2954102 0.9248047
vt 0.2888184 0.9248047
vn -0.9663086 0.2269287 -0.1210327
vn -0.1737061 0 -0.9848633
vn -0.1397705 0.2619629 -0.9550781
vn -0.9916992 0 -0.1297607
vn -0.1397705 -0.2619629 -0.9550781
vn -0.9707031 0.2322998 0.06384277
vn -0.9580078 -0.270752 -0.09466553
vn -0.9755859 0.119873 0.1849365
vn -0.9580078 -0.270752 0.09466553
vn -0.1228638 0.7324219 0.6699219
vn -0.1304932 0.4743652 0.8706055
vn -0.1397705 -0.2619629 0.9550781
vn 0.1397705 -0.2619629 0.9550781
vn 0.1304932 0.4743652 0.8706055
vn 0.1228638 0.7324219 0.6699219
vn 0.9707031 0.2322998 0.06384277
vn 0.9755859 0.119873 0.1849365
vn 0.9580078 -0.270752 0.09466553
vn 0.9580078 -0.270752 -0.09466553
vn 0.9916992 0 -0.1297607
vn 0.9663086 0.2269287 -0.1210327
vn 0.1397705 0.2619629 -0.9550781
vn 0.1737061 0 -0.9848633
vn 0.1397705 -0.2619629 -0.9550781
vn -0.1397705 -0.2619629 -0.9550781
vn -0.1737061 0 -0.9848633
vn -0.1397705 0.2619629 -0.9550781
vn -0.161499 -0.980957 0.105896
vn -0.9580078 -0.270752 -0.09466553
vn -0.9580078 -0.270752 0.09466553
vn -0.1397705 -0.2619629 0.9550781
vn -0.161499 -0.980957 -0.105896
vn -0.1397705 -0.2619629 -0.9550781
vn 0.1397705 -0.2619629 -0.9550781
vn 0.161499 -0.980957 0.105896
vn 0.1397705 -0.2619629 0.9550781
vn 0.9580078 -0.270752 0.09466553
vn 0.161499 -0.980957 -0.105896
vn 0.9580078 -0.270752 -0.09466553
vn -0.1397705 0.2619629 -0.9550781
vn 0.1397705 0.2619629 -0.9550781
vn 0.1551514 0.9755859 -0.1551514
vn 0.9663086 0.2269287 -0.1210327
vn -0.1551514 0.9755859 -0.1551514
vn -0.9663086 0.2269287 -0.1210327
vn -0.9707031 0.2322998 0.06384277
vn 0.1551514 0.9755859 0.1551514
vn 0.9707031 0.2322998 0.06384277
vn 0.1228638 0.7324219 0.6699219
vn -0.1551514 0.9755859 0.1551514
vn -0.1228638 0.7324219 0.6699219
g Foot_left.008_0
f 3/3/3 2/2/2 1/1/1
f 2/2/2 4/4/4 1/1/1
f 2/2/2 5/5/5 4/4/4
f 1/1/1 4/4/4 6/6/6
f 5/5/5 7/7/7 4/4/4
f 4/4/4 8/8/8 6/6/6
f 4/4/4 7/7/7 8/8/8
f 7/7/7 9/9/9 8/8/8
f 10/10/10 6/6/6 8/8/8
f 11/11/11 8/8/8 9/9/9
f 11/11/11 10/10/10 8/8/8
f 12/12/12 11/11/11 9/9/9
f 11/11/11 12/12/12 13/13/13
f 10/10/10 11/11/11 14/14/14
f 14/14/14 11/11/11 13/13/13
f 15/15/15 10/10/10 14/14/14
f 16/16/16 15/15/15 14/14/14
f 17/17/17 14/14/14 13/13/13
f 17/17/17 16/16/16 14/14/14
f 18/18/18 17/17/17 13/13/13
f 17/17/17 18/18/18 19/19/19
f 16/16/16 17/17/17 20/20/20
f 20/20/20 17/17/17 19/19/19
f 21/21/21 16/16/16 20/20/20
f 21/21/21 20/20/20 22/22/22
f 20/20/20 19/19/19 23/23/23
f 20/20/20 23/23/23 22/22/22
f 19/19/19 24/24/24 23/23/23
f 24/24/24 25/25/25 23/23/23
f 25/25/25 26/26/26 23/23/23
f 23/23/23 26/26/26 22/22/22
f 26/26/26 27/27/27 22/22/22
f 30/30/30 29/29/29 28/28/28
f 28/28/28 31/31/31 30/30/30
f 29/29/29 32/32/32 28/28/28
f 29/29/29 33/33/33 32/32/32
f 33/33/33 34/34/34 32/32/32
f 28/28/28 35/35/35 31/31/31
f 35/35/35 28/28/28 32/32/32
f 35/35/35 36/36/36 31/31/31
f 37/37/37 36/36/36 35/35/35
f 34/34/34 38/38/38 32/32/32
f 38/38/38 35/35/35 32/32/32
f 35/35/35 38/38/38 37/37/37
f 38/38/38 34/34/34 39/39/39
f 38/38/38 39/39/39 37/37/37
f 42/42/42 41/41/41 40/40/40
f 41/41/41 42/42/42 43/43/43
f 44/44/44 42/42/42 40/40/40
f 45/45/45 44/44/44 40/40/40
f 44/44/44 45/45/45 46/46/46
f 43/43/43 42/42/42 47/47/47
f 42/42/42 44/44/44 47/47/47
f 48/48/48 43/43/43 47/47/47
f 47/47/47 49/49/49 48/48/48
f 50/50/50 44/44/44 46/46/46
f 44/44/44 50/50/50 47/47/47
f 49/49/49 47/47/47 50/50/50
f 46/46/46 51/51/51 50/50/50
f 51/51/51 49/49/49 50/50/50
