g Foot_right.012
v 0.09826108 -0.05526271 0.0266036
v 0.09826108 0.03983163 -0.004757924
v 0.09826108 0.03983163 -0.0201111
v 0.09826108 -0.05526271 0.01125042
v 0.09826108 -0.05526271 0.01125042
v 0.09826108 0.03983163 -0.0201111
v -0.09815134 0.03983163 -0.0201111
v -0.09815134 -0.05526271 0.01125042
v -0.09815134 -0.05526271 0.01125042
v -0.09815134 0.03983163 -0.0201111
v -0.09815134 0.03983163 -0.004757924
v -0.09815134 -0.05526271 0.0266036
v -0.09815134 -0.05526271 0.0266036
v -0.09815134 0.03983163 -0.004757924
v 0.09826108 0.03983163 -0.004757924
v 0.09826108 -0.05526271 0.0266036
v 0.09826108 -0.05526271 0.01125042
v -0.09815134 -0.05526271 0.01125042
v -0.09815134 -0.05526271 0.0266036
v 0.09826108 -0.05526271 0.0266036
v -0.09815134 0.03983163 -0.0201111
v 0.09826108 0.03983163 -0.0201111
v 0.09826108 0.03983163 -0.004757924
v -0.09815134 0.03983163 -0.004757924
v 0.09826107 -0.05526271 -0.01739001
v 0.09826107 0.03983162 -0.04875154
v 0.09826107 0.03983162 -0.06410471
v 0.09826107 -0.05526271 -0.03274319
v 0.09826107 -0.05526271 -0.03274319
v 0.09826107 0.03983162 -0.06410471
v -0.09815136 0.03983162 -0.06410471
v -0.09815136 -0.05526271 -0.03274319
v -0.09815136 -0.05526271 -0.03274319
v -0.09815136 0.03983162 -0.06410471
v -0.09815136 0.03983162 -0.04875154
v -0.09815136 -0.05526271 -0.01739001
v -0.09815136 -0.05526271 -0.01739001
v -0.09815136 0.03983162 -0.04875154
v 0.09826107 0.03983162 -0.04875154
v 0.09826107 -0.05526271 -0.01739001
v 0.09826107 -0.05526271 -0.03274319
v -0.09815136 -0.05526271 -0.03274319
v -0.09815136 -0.05526271 -0.01739001
v 0.09826107 -0.05526271 -0.01739001
v -0.09815136 0.03983162 -0.06410471
v 0.09826107 0.03983162 -0.06410471
v 0.09826107 0.03983162 -0.04875154
v -0.09815136 0.03983162 -0.04875154
v -0.0635049 0.08452076 -0.1369016
v 0.06343175 -0.07423339 -0.1369016
v 0.06343175 0.08452076 -0.1369016
v -0.0635049 -0.07423339 -0.1369016
v -0.09070153 -0.0742334 -0.1028898
v -0.09070153 0.08452077 -0.1028898
v -0.09070153 0.08452076 0.05586622
v -0.09070153 -0.07423339 0.1999149
v -0.0635049 -0.07423339 0.2339267
v -0.0635049 0.08452076 0.08987805
v 0.06343175 0.08452076 0.08987805
v 0.06343175 -0.07423339 0.2339267
v 0.09062838 -0.07423339 0.1999149
v 0.09062838 0.08452076 0.05586622
v 0.09062839 -0.07423339 -0.1028898
v 0.09062839 0.08452077 -0.1028898
v 0.06343175 -0.07423339 -0.1369016
v 0.06343175 0.08452076 -0.1369016
v 0.06343175 -0.1082473 0.1999149
v 0.09062838 -0.07423339 0.1999149
v 0.09062839 -0.07423339 -0.1028898
v 0.06343175 -0.07423339 0.2339267
v 0.06343175 -0.1082473 -0.1028898
v 0.06343175 -0.07423339 -0.1369016
v -0.0635049 -0.07423339 -0.1369016
v -0.0635049 -0.1082473 0.1999149
v -0.0635049 -0.07423339 0.2339267
v -0.09070153 -0.07423339 0.1999149
v -0.0635049 -0.1082473 -0.1028898
v -0.09070153 -0.0742334 -0.1028898
v 0.09062838 0.08452076 0.05586622
v 0.06343175 0.1185347 -0.1028898
v 0.09062839 0.08452077 -0.1028898
v 0.06343175 0.08452076 -0.1369016
v 0.06343175 0.1185347 0.05586622
v 0.06343175 0.08452076 0.08987805
v -0.0635049 0.08452076 0.08987805
v -0.0635049 0.1185347 0.05586622
v -0.09070153 0.08452076 0.05586622
v -0.09070153 0.08452077 -0.1028898
v -0.0635049 0.1185347 -0.1028898
v -0.0635049 0.08452076 -0.1369016
vt 0.375 0
vt 0.625 0
vt 0.625 0.25
vt 0.375 0.25
vt 0.375 0.25
vt 0.625 0.25
vt 0.625 0.5
vt 0.375 0.5
vt 0.375 0.5
vt 0.625 0.5
vt 0.625 0.75
vt 0.375 0.75
vt 0.375 0.75
vt 0.625 0.75
vt 0.625 1
vt 0.375 1
vt 0.125 0.5
vt 0.375 0.5
vt 0.375 0.75
vt 0.125 0.75
vt 0.625 0.5
vt 0.875 0.5
vt 0.875 0.75
vt 0.625 0.75
vt 0.375 0
vt 0.625 0
vt 0.625 0.25
vt 0.375 0.25
vt 0.375 0.25
vt 0.625 0.25
vt 0.625 0.5
vt 0.375 0.5
vt 0.375 0.5
vt 0.625 0.5
vt 0.625 0.75
vt 0.375 0.75
vt 0.375 0.75
vt 0.625 0.75
vt 0.625 1
vt 0.375 1
vt 0.125 0.5
vt 0.375 0.5
vt 0.375 0.75
vt 0.125 0.75
vt 0.625 0.5
vt 0.875 0.5
vt 0.875 0.75
vt 0.625 0.75
vt 0 0
vt 0 0
vt 0 0
vt 0 0
vt 0 0
vt 0 0
vt 0 0
vt 0 0
vt 0 0
vt 0 0
vt 0 0
vt 0 0
vt 0 0
vt 0 0
vt 0 0
vt 0 0
vt 0 0
vt 0 0
vt 0 0
vt 0 0
vt 0 0
vt 0 0
vt 0 0
vt 0 0
vt 0 0
vt 0 0
vt 0 0
vt 0 0
vt 0 0
vt 0 0
vt 0 0
vt 0 0
vt 0 0
vt 0 0
vt 0 0
vt 0 0
vt 0 0
vt 0 0
vt 0 0
vt 0 0
vt 0 0
vt 0 0
vn 1 0 0
vn 1 0 0
vn 1 0 0
vn 1 0 0
vn 0 -0.3132324 -0.949707
vn 0 -0.3132324 -0.949707
vn 0 -0.3132324 -0.949707
vn 0 -0.3132324 -0.949707
vn -1 0 0
vn -1 0 0
vn -1 0 0
vn -1 0 0
vn 0 0.3132324 0.949707
vn 0 0.3132324 0.949707
vn 0 0.3132324 0.949707
vn 0 0.3132324 0.949707
vn 0 -1 0
vn 0 -1 0
vn 0 -1 0
vn 0 -1 0
vn 0 1 0
vn 0 1 0
vn 0 1 0
vn 0 1 0
vn 1 0 0
vn 1 0 0
vn 1 0 0
vn 1 0 0
vn 0 -0.3132324 -0.949707
vn 0 -0.3132324 -0.949707
vn 0 -0.3132324 -0.949707
vn 0 -0.3132324 -0.949707
vn -1 0 0
vn -1 0 0
vn -1 0 0
vn -1 0 0
vn 0 0.3132324 0.949707
vn 0 0.3132324 0.949707
vn 0 0.3132324 0.949707
vn 0 0.3132324 0.949707
vn 0 -1 0
vn 0 -1 0
vn 0 -1 0
vn 0 -1 0
vn 0 1 0
vn 0 1 0
vn 0 1 0
vn 0 1 0
vn -0.1921387 0.1535645 -0.9692383
vn 0.1921387 -0.1535645 -0.9692383
vn 0.1921387 0.1535645 -0.9692383
vn -0.1921387 -0.1535645 -0.9692383
vn -0.9833984 -0.1599121 -0.08685303
vn -0.9907227 0.09649658 -0.09649658
vn -0.9921875 0.1131592 0.04940796
vn -0.9829102 -0.08612061 0.1621094
vn -0.1122437 0.6679688 0.7358398
vn -0.1811523 0.6665039 0.7231445
vn 0.1811523 0.6665039 0.7231445
vn 0.1122437 0.6679688 0.7358398
vn 0.9829102 -0.08612061 0.1621094
vn 0.9921875 0.1131592 0.04940796
vn 0.9833984 -0.1599121 -0.08685303
vn 0.9907227 0.09649658 -0.09649658
vn 0.1921387 -0.1535645 -0.9692383
vn 0.1921387 0.1535645 -0.9692383
vn 0.2027588 -0.9750977 0.08764648
vn 0.9829102 -0.08612061 0.1621094
vn 0.9833984 -0.1599121 -0.08685303
vn 0.05563354 -0.7060547 0.7060547
vn 0.2027588 -0.9750977 -0.08764648
vn 0.1921387 -0.1535645 -0.9692383
vn -0.1921387 -0.1535645 -0.9692383
vn -0.2027588 -0.9750977 0.08764648
vn -0.05563354 -0.7060547 0.7060547
vn -0.9829102 -0.08612061 0.1621094
vn -0.2027588 -0.9750977 -0.08764648
vn -0.9833984 -0.1599121 -0.08685303
vn 0.9921875 0.1131592 0.04940796
vn 0.1921387 0.9692383 -0.1535645
vn 0.9907227 0.09649658 -0.09649658
vn 0.1921387 0.1535645 -0.9692383
vn 0.1921387 0.9692383 0.1535645
vn 0.1811523 0.6665039 0.7231445
vn -0.1811523 0.6665039 0.7231445
vn -0.1921387 0.9692383 0.1535645
vn -0.9921875 0.1131592 0.04940796
vn -0.9907227 0.09649658 -0.09649658
vn -0.1921387 0.9692383 -0.1535645
vn -0.1921387 0.1535645 -0.9692383
g Foot_right.012_0
f 3/3/3 2/2/2 1/1/1
f 4/4/4 3/3/3 1/1/1
f 7/7/7 6/6/6 5/5/5
f 8/8/8 7/7/7 5/5/5
f 11/11/11 10/10/10 9/9/9
f 12/12/12 11/11/11 9/9/9
f 15/15/15 14/14/14 13/13/13
f 16/16/16 15/15/15 13/13/13
f 19/19/19 18/18/18 17/17/17
f 20/20/20 19/19/19 17/17/17
f 23/23/23 22/22/22 21/21/21
f 24/24/24 23/23/23 21/21/21
f 27/27/27 26/26/26 25/25/25
f 28/28/28 27/27/27 25/25/25
f 31/31/31 30/30/30 29/29/29
f 32/32/32 31/31/31 29/29/29
f 35/35/35 34/34/34 33/33/33
f 36/36/36 35/35/35 33/33/33
f 39/39/39 38/38/38 37/37/37
f 40/40/40 39/39/39 37/37/37
f 43/43/43 42/42/42 41/41/41
f 44/44/44 43/43/43 41/41/41
f 47/47/47 46/46/46 45/45/45
f 48/48/48 47/47/47 45/45/45
g Foot_right.012_1
f 51/51/51 50/50/50 49/49/49
f 50/50/50 52/52/52 49/49/49
f 52/52/52 53/53/53 49/49/49
f 53/53/53 54/54/54 49/49/49
f 55/55/55 54/54/54 53/53/53
f 56/56/56 55/55/55 53/53/53
f 55/55/55 56/56/56 57/57/57
f 58/58/58 55/55/55 57/57/57
f 59/59/59 58/58/58 57/57/57
f 60/60/60 59/59/59 57/57/57
f 59/59/59 60/60/60 61/61/61
f 62/62/62 59/59/59 61/61/61
f 61/61/61 63/63/63 62/62/62
f 63/63/63 64/64/64 62/62/62
f 63/63/63 65/65/65 64/64/64
f 65/65/65 66/66/66 64/64/64
f 69/69/69 68/68/68 67/67/67
f 70/70/70 67/67/67 68/68/68
f 71/71/71 69/69/69 67/67/67
f 72/72/72 69/69/69 71/71/71
f 73/73/73 72/72/72 71/71/71
f 74/74/74 67/67/67 70/70/70
f 67/67/67 74/74/74 71/71/71
f 75/75/75 74/74/74 70/70/70
f 75/75/75 76/76/76 74/74/74
f 77/77/77 73/73/73 71/71/71
f 74/74/74 77/77/77 71/71/71
f 77/77/77 74/74/74 76/76/76
f 73/73/73 77/77/77 78/78/78
f 78/78/78 77/77/77 76/76/76
f 81/81/81 80/80/80 79/79/79
f 80/80/80 81/81/81 82/82/82
f 80/80/80 83/83/83 79/79/79
f 84/84/84 79/79/79 83/83/83
f 85/85/85 84/84/84 83/83/83
f 86/86/86 85/85/85 83/83/83
f 83/83/83 80/80/80 86/86/86
f 85/85/85 86/86/86 87/87/87
f 88/88/88 87/87/87 86/86/86
f 89/89/89 80/80/80 82/82/82
f 80/80/80 89/89/89 86/86/86
f 89/89/89 88/88/88 86/86/86
f 90/90/90 89/89/89 82/82/82
f 89/89/89 90/90/90 88/88/88
