g Foot_right.020
v 0.01532131 -0.0793771 0.1636899
v 0.01532131 0.07937708 0.09662317
v 0.07937716 0.07937708 0.09662317
v 0.07937716 -0.0793771 0.1636899
v 0.1133908 -0.07937709 0.1296781
v 0.1133908 0.07937708 0.06261133
v 0.1133908 -0.07937709 -0.09614471
v 0.1133908 0.07937708 -0.09614471
v 0.07937716 -0.0793771 -0.1301565
v 0.07937716 0.07937708 -0.1301565
v 0.07937716 0.07937708 -0.1301565
v 0.01532131 0.113391 -0.09614471
v 0.01532131 0.07937708 -0.1301565
v 0.07937716 0.113391 -0.09614471
v 0.1133908 0.07937708 -0.09614471
v 0.01532131 0.113391 0.06261134
v 0.1133908 0.07937708 0.06261133
v 0.07937716 0.113391 0.06261134
v 0.01532131 0.07937708 0.09662317
v 0.07937716 0.07937708 0.09662317
v 0.01532131 0.07937708 -0.1301565
v 0.07937716 -0.0793771 -0.1301565
v 0.07937716 0.07937708 -0.1301565
v 0.01532131 -0.0793771 -0.1301565
v -0.01532125 0.07937708 -0.1301565
v -0.01532125 -0.0793771 -0.1301565
v -0.07937707 0.07937708 -0.1301565
v -0.07937707 -0.0793771 -0.1301565
v -0.1133907 -0.07937709 -0.09614471
v -0.1133907 0.07937708 -0.09614471
v -0.1133907 0.07937708 0.06261133
v -0.1133907 -0.07937709 0.1296781
v -0.07937709 -0.0793771 0.1636899
v -0.07937709 0.07937708 0.09662317
v -0.01532125 0.07937708 0.09662317
v -0.01532125 -0.0793771 0.1636899
v -0.01532125 0.113391 0.06261134
v -0.01532125 0.07937708 0.09662317
v -0.07937709 0.07937708 0.09662317
v -0.07937709 0.113391 0.06261133
v -0.1133907 0.07937708 0.06261133
v -0.01532125 0.113391 -0.09614471
v -0.1133907 0.07937708 -0.09614471
v -0.07937707 0.113391 -0.09614471
v -0.01532125 0.07937708 -0.1301565
v -0.07937707 0.07937708 -0.1301565
v -0.01532125 -0.0793771 0.1636899
v -0.07937709 -0.113391 0.1296781
v -0.07937709 -0.0793771 0.1636899
v -0.1133907 -0.07937709 0.1296781
v -0.01532125 -0.113391 0.1296781
v 0.01532131 -0.0793771 0.1636899
v -0.07937707 -0.113391 -0.09614471
v -0.1133907 -0.07937709 -0.09614471
v -0.07937707 -0.0793771 -0.1301565
v -0.01532125 -0.113391 -0.09614471
v -0.01532125 -0.0793771 -0.1301565
v 0.01532131 -0.113391 -0.09614471
v 0.01532131 -0.0793771 -0.1301565
v 0.01532131 -0.113391 0.1296781
v 0.07937716 -0.0793771 0.1636899
v 0.07937716 -0.113391 -0.09614471
v 0.07937716 -0.0793771 -0.1301565
v 0.1133908 -0.07937709 -0.09614471
v 0.07937716 -0.113391 0.1296781
v 0.1133908 -0.07937709 0.1296781
vt 0.2990723 0.8300781
vt 0.2990723 0.8686523
vt 0.2929688 0.8686523
vt 0.2929688 0.8300781
vt 0.2888184 0.8300781
vt 0.2888184 0.8686523
vt 0.2702637 0.8300781
vt 0.2702637 0.8686523
vt 0.2663574 0.8300781
vt 0.2663574 0.8686523
vt 0.3320313 0.9248047
vt 0.3256836 0.9238281
vt 0.3320313 0.9238281
vt 0.3256836 0.9248047
vt 0.3256836 0.925293
vt 0.2954102 0.9238281
vt 0.2954102 0.925293
vt 0.2954102 0.9248047
vt 0.2888184 0.9238281
vt 0.2888184 0.9248047
vt 0.3503418 0.8686523
vt 0.3566895 0.8300781
vt 0.3566895 0.8686523
vt 0.3503418 0.8300781
vt 0.3442383 0.8686523
vt 0.3442383 0.8300781
vt 0.3381348 0.8686523
vt 0.3381348 0.8300781
vt 0.3339844 0.8300781
vt 0.3339844 0.8686523
vt 0.3154297 0.8686523
vt 0.3154297 0.8300781
vt 0.3115234 0.8300781
vt 0.3115234 0.8686523
vt 0.3051758 0.8686523
vt 0.3051758 0.8300781
vt 0.2954102 0.9233398
vt 0.2888184 0.9233398
vt 0.2888184 0.9223633
vt 0.2954102 0.9223633
vt 0.2954102 0.921875
vt 0.3256836 0.9233398
vt 0.3256836 0.921875
vt 0.3256836 0.9223633
vt 0.3320313 0.9233398
vt 0.3320313 0.9223633
vt 0.3308105 0.7675781
vt 0.3242188 0.7670898
vt 0.3308105 0.7670898
vt 0.3242188 0.7666016
vt 0.3242188 0.7675781
vt 0.3308105 0.7680664
vt 0.2937012 0.7670898
vt 0.2937012 0.7666016
vt 0.2871094 0.7670898
vt 0.2937012 0.7675781
vt 0.2871094 0.7675781
vt 0.2937012 0.7680664
vt 0.2871094 0.7680664
vt 0.3242188 0.7680664
vt 0.3308105 0.7685547
vt 0.2937012 0.7685547
vt 0.2871094 0.7685547
vt 0.2937012 0.769043
vt 0.3242188 0.7685547
vt 0.3242188 0.769043
vn 0 0.3891602 0.9213867
vn 0 0.4643555 0.8857422
vn 0.3012695 0.4265137 0.8530273
vn 0.2651367 0.1982422 0.9433594
vn 0.9741211 -0.1409912 0.1766357
vn 0.9829102 0.1552734 0.09777832
vn 0.9755859 -0.178833 -0.1282959
vn 0.9814453 0.1361084 -0.1361084
vn 0.3012695 -0.1335449 -0.9443359
vn 0.3012695 0.1335449 -0.9443359
vn 0.3012695 0.1335449 -0.9443359
vn 0 0.9848633 -0.1737061
vn 0 0.1737061 -0.9848633
vn 0.3012695 0.9443359 -0.1335449
vn 0.9814453 0.1361084 -0.1361084
vn 0 0.9848633 0.1737061
vn 0.9829102 0.1552734 0.09777832
vn 0.3012695 0.9443359 0.1335449
vn 0 0.4643555 0.8857422
vn 0.3012695 0.4265137 0.8530273
vn 0 0.1737061 -0.9848633
vn 0.3012695 -0.1335449 -0.9443359
vn 0.3012695 0.1335449 -0.9443359
vn 0 -0.1737061 -0.9848633
vn 0 0.1737061 -0.9848633
vn 0 -0.1737061 -0.9848633
vn -0.3012695 0.1335449 -0.9443359
vn -0.3012695 -0.1335449 -0.9443359
vn -0.9755859 -0.178833 -0.1282959
vn -0.9814453 0.1361084 -0.1361084
vn -0.9829102 0.1552734 0.09777832
vn -0.9741211 -0.1409912 0.1766357
vn -0.2651367 0.1982422 0.9433594
vn -0.3012695 0.4265137 0.8530273
vn 0 0.4643555 0.8857422
vn 0 0.3891602 0.9213867
vn 0 0.9848633 0.1737061
vn 0 0.4643555 0.8857422
vn -0.3012695 0.4265137 0.8530273
vn -0.3012695 0.9443359 0.1335449
vn -0.9829102 0.1552734 0.09777832
vn 0 0.9848633 -0.1737061
vn -0.9814453 0.1361084 -0.1361084
vn -0.3012695 0.9443359 -0.1335449
vn 0 0.1737061 -0.9848633
vn -0.3012695 0.1335449 -0.9443359
vn 0 -0.7070313 0.7070313
vn -0.3088379 -0.9458008 0.09820557
vn -0.2651367 0.1982422 0.9433594
vn -0.9741211 -0.1409912 0.1766357
vn 0 -0.9916992 0.1297607
vn 0 -0.7070313 0.7070313
vn -0.3088379 -0.9458008 -0.09820557
vn -0.9755859 -0.178833 -0.1282959
vn -0.3012695 -0.1335449 -0.9443359
vn 0 -0.9916992 -0.1297607
vn 0 -0.1737061 -0.9848633
vn 0 -0.9916992 -0.1297607
vn 0 -0.1737061 -0.9848633
vn 0 -0.9916992 0.1297607
vn 0.2651367 0.1982422 0.9433594
vn 0.3088379 -0.9458008 -0.09820557
vn 0.3012695 -0.1335449 -0.9443359
vn 0.9755859 -0.178833 -0.1282959
vn 0.3088379 -0.9458008 0.09820557
vn 0.9741211 -0.1409912 0.1766357
g Foot_right.020_0
f 3/3/3 2/2/2 1/1/1
f 4/4/4 3/3/3 1/1/1
f 3/3/3 4/4/4 5/5/5
f 6/6/6 3/3/3 5/5/5
f 5/5/5 7/7/7 6/6/6
f 7/7/7 8/8/8 6/6/6
f 7/7/7 9/9/9 8/8/8
f 9/9/9 10/10/10 8/8/8
f 13/13/13 12/12/12 11/11/11
f 12/12/12 14/14/14 11/11/11
f 14/14/14 15/15/15 11/11/11
f 14/14/14 12/12/12 16/16/16
f 15/15/15 14/14/14 17/17/17
f 18/18/18 14/14/14 16/16/16
f 14/14/14 18/18/18 17/17/17
f 16/16/16 19/19/19 18/18/18
f 20/20/20 17/17/17 18/18/18
f 19/19/19 20/20/20 18/18/18
f 23/23/23 22/22/22 21/21/21
f 22/22/22 24/24/24 21/21/21
f 21/21/21 24/24/24 25/25/25
f 24/24/24 26/26/26 25/25/25
f 25/25/25 26/26/26 27/27/27
f 26/26/26 28/28/28 27/27/27
f 28/28/28 29/29/29 27/27/27
f 29/29/29 30/30/30 27/27/27
f 31/31/31 30/30/30 29/29/29
f 32/32/32 31/31/31 29/29/29
f 31/31/31 32/32/32 33/33/33
f 34/34/34 31/31/31 33/33/33
f 35/35/35 34/34/34 33/33/33
f 36/36/36 35/35/35 33/33/33
f 39/39/39 38/38/38 37/37/37
f 40/40/40 39/39/39 37/37/37
f 39/39/39 40/40/40 41/41/41
f 37/37/37 42/42/42 40/40/40
f 43/43/43 41/41/41 40/40/40
f 42/42/42 44/44/44 40/40/40
f 44/44/44 43/43/43 40/40/40
f 44/44/44 42/42/42 45/45/45
f 44/44/44 46/46/46 43/43/43
f 46/46/46 44/44/44 45/45/45
g Foot_right.020_1
f 2/2/2 35/35/35 36/36/36
f 1/1/1 2/2/2 36/36/36
f 38/38/38 19/19/19 16/16/16
f 37/37/37 38/38/38 16/16/16
f 16/16/16 12/12/12 37/37/37
f 12/12/12 42/42/42 37/37/37
f 42/42/42 12/12/12 13/13/13
f 45/45/45 42/42/42 13/13/13
f 49/49/49 48/48/48 47/47/47
f 49/49/49 50/50/50 48/48/48
f 48/48/48 51/51/51 47/47/47
f 47/47/47 51/51/51 52/52/52
f 53/53/53 48/48/48 50/50/50
f 54/54/54 53/53/53 50/50/50
f 55/55/55 53/53/53 54/54/54
f 48/48/48 53/53/53 56/56/56
f 53/53/53 55/55/55 56/56/56
f 51/51/51 48/48/48 56/56/56
f 55/55/55 57/57/57 56/56/56
f 56/56/56 57/57/57 58/58/58
f 51/51/51 56/56/56 58/58/58
f 57/57/57 59/59/59 58/58/58
f 51/51/51 60/60/60 52/52/52
f 60/60/60 51/51/51 58/58/58
f 52/52/52 60/60/60 61/61/61
f 58/58/58 59/59/59 62/62/62
f 60/60/60 58/58/58 62/62/62
f 59/59/59 63/63/63 62/62/62
f 63/63/63 64/64/64 62/62/62
f 60/60/60 65/65/65 61/61/61
f 65/65/65 60/60/60 62/62/62
f 62/62/62 64/64/64 65/65/65
f 61/61/61 65/65/65 66/66/66
f 64/64/64 66/66/66 65/65/65
