g Foot_left.014
v -0.00612821 -0.1460554 -0.1387072
v 0.06602815 -0.1120415 -0.172719
v -0.00612821 -0.1120415 -0.172719
v 0.06602815 -0.1460554 -0.1387072
v 0.09694768 -0.1120415 -0.1387072
v 0.09694768 -0.1120415 0.130001
v 0.06602816 -0.1460554 0.130001
v -0.00612821 -0.1460554 0.130001
v 0.06602816 -0.1120415 0.1640128
v -0.00612821 -0.1120415 0.1640128
v -0.00612821 -0.1460554 -0.1387072
v -0.00612821 -0.1120415 -0.172719
v -0.07828457 -0.1120415 -0.172719
v -0.07828457 -0.1460554 -0.1387072
v -0.1092041 -0.1120415 -0.1387072
v -0.1092041 -0.1120415 0.130001
v -0.07828458 -0.1460554 0.130001
v -0.00612821 -0.1460554 0.130001
v -0.07828458 -0.1120415 0.1640128
v -0.00612821 -0.1120415 0.1640128
v -0.00612821 0.08072662 0.02004887
v -0.00612821 0.04671267 0.05406071
v -0.07828458 0.04671267 0.05406071
v -0.07828458 0.08072662 0.02004887
v -0.1092041 0.04671266 0.02004887
v -0.00612821 0.08072662 -0.1387072
v -0.1092041 0.04671267 -0.1387072
v -0.07828457 0.08072662 -0.1387072
v -0.00612821 0.04671266 -0.172719
v -0.07828457 0.04671266 -0.172719
v -0.00612821 0.08072662 0.02004887
v 0.06602816 0.04671267 0.05406071
v -0.00612821 0.04671267 0.05406071
v 0.06602816 0.08072662 0.02004887
v 0.09694768 0.04671266 0.02004887
v -0.00612821 0.08072662 -0.1387072
v 0.09694768 0.04671267 -0.1387072
v 0.06602815 0.08072662 -0.1387072
v -0.00612821 0.04671266 -0.172719
v 0.06602815 0.04671266 -0.172719
v -0.07828457 0.04671266 -0.172719
v -0.00612821 0.03780649 -0.172719
v -0.00612821 0.04671266 -0.172719
v -0.07828457 0.03780649 -0.172719
v -0.00612821 -0.006205398 -0.172719
v -0.1092041 0.0378065 -0.1387072
v -0.1092041 0.04671267 -0.1387072
v -0.1092041 0.04671266 0.02004887
v -0.07828457 -0.006205401 -0.172719
v -0.00612821 -0.03266443 -0.172719
v -0.1092041 -0.006205391 -0.1387072
v -0.1092041 0.02783899 0.04619244
v -0.07828457 -0.03266443 -0.172719
v -0.00612821 -0.1120415 -0.172719
v -0.07828457 -0.1120415 -0.172719
v -0.1092041 -0.1120415 -0.1387072
v -0.1092041 -0.03266442 -0.1387072
v -0.1092041 -0.01334843 0.1032447
v -0.1092041 -0.03266443 0.130001
v -0.1092041 -0.1120415 0.130001
v -0.07828458 -0.1120415 0.1640128
v -0.07828458 0.03780649 0.06639742
v -0.07828458 0.04671267 0.05406071
v -0.00612821 0.04671267 0.05406071
v -0.00612821 0.03780649 0.06639742
v -0.07828458 -0.006205397 0.1273621
v -0.00612821 -0.006205395 0.1273621
v -0.07828458 -0.03266443 0.1640128
v -0.00612821 -0.03266443 0.1640128
v -0.00612821 -0.1120415 0.1640128
v 0.06602815 0.04671266 -0.172719
v -0.00612821 0.04671266 -0.172719
v -0.00612821 0.03780649 -0.172719
v 0.06602815 0.03780649 -0.172719
v -0.00612821 -0.006205398 -0.172719
v 0.09694768 0.0378065 -0.1387072
v 0.09694768 0.04671267 -0.1387072
v 0.09694768 0.04671266 0.02004887
v 0.06602815 -0.006205401 -0.172719
v -0.00612821 -0.03266443 -0.172719
v 0.09694768 -0.006205391 -0.1387072
v 0.09694769 0.02783899 0.04619244
v 0.06602815 -0.03266443 -0.172719
v -0.00612821 -0.1120415 -0.172719
v 0.06602815 -0.1120415 -0.172719
v 0.09694768 -0.1120415 -0.1387072
v 0.09694768 -0.03266442 -0.1387072
v 0.09694768 -0.01334843 0.1032447
v 0.09694768 -0.03266443 0.130001
v 0.09694768 -0.1120415 0.130001
v 0.06602816 -0.1120415 0.1640128
v 0.06602816 0.03780649 0.06639742
v 0.06602816 0.04671267 0.05406071
v -0.00612821 0.04671267 0.05406071
v -0.00612821 0.03780649 0.06639742
v 0.06602816 -0.006205397 0.1273621
v -0.00612821 -0.006205395 0.1273621
v 0.06602816 -0.03266443 0.1640128
v -0.00612821 -0.03266443 0.1640128
v -0.00612821 -0.1120415 0.1640128
v 0.06602816 0.008010317 0.1273621
v 0.09694769 0.04205471 0.04619243
v 0.09694768 0.0008672843 0.1032447
v 0.06602816 0.05202221 0.06639743
v 0.03805921 0.1058505 0.06639742
v 0.03805921 0.06183861 0.1273621
v -0.03409716 0.06183859 0.1273621
v 0.03805921 0.1058505 0.06639742
v 0.03805921 0.06183861 0.1273621
v -0.03409716 0.1058505 0.06639742
v -0.06501669 0.09588299 0.0653045
v -0.06501669 0.05469557 0.1223568
v 0.05868343 0.0006532769 0.1220512
v 0.09136885 -0.007634412 0.09710725
v 0.09136885 0.03355301 0.04005495
v 0.05843467 0.04486911 0.06123329
v 0.03403663 0.09667616 0.05977419
v 0.03225387 0.05345816 0.1213121
v -0.03271315 0.05206543 0.1203065
v 0.03225387 0.05345816 0.1213121
v 0.03403663 0.09667616 0.05977419
v -0.03277922 0.09606992 0.05933665
v -0.06227363 0.08634084 0.05841576
v -0.06227362 0.04515341 0.1154681
v 0.09694769 0.04205471 0.04619243
v 0.09136885 0.03355301 0.04005495
v 0.09136885 -0.007634412 0.09710725
v 0.09694768 0.0008672843 0.1032447
v -0.06501669 0.05469557 0.1223568
v -0.06227362 0.04515341 0.1154681
v -0.06227363 0.08634084 0.05841576
v -0.06501669 0.09588299 0.0653045
v 0.09694768 0.0008672843 0.1032447
v 0.09136885 -0.007634412 0.09710725
v 0.05868343 0.0006532769 0.1220512
v 0.06602816 0.008010317 0.1273621
v 0.03225387 0.05345816 0.1213121
v 0.03805921 0.06183861 0.1273621
v -0.03271315 0.05206543 0.1203065
v -0.03409716 0.06183859 0.1273621
v -0.06227362 0.04515341 0.1154681
v -0.06501669 0.05469557 0.1223568
v 0.06602816 0.05202221 0.06639743
v 0.09136885 0.03355301 0.04005495
v 0.09694769 0.04205471 0.04619243
v 0.05843467 0.04486911 0.06123329
v 0.03805921 0.1058505 0.06639742
v 0.03403663 0.09667616 0.05977419
v -0.03409716 0.1058505 0.06639742
v -0.03277922 0.09606992 0.05933665
v -0.06501669 0.09588299 0.0653045
v -0.06227363 0.08634084 0.05841576
vt 0.2937012 0.7675781
vt 0.2871094 0.7670898
vt 0.2871094 0.7675781
vt 0.2937012 0.7670898
vt 0.2937012 0.7666016
vt 0.3242188 0.7666016
vt 0.3242188 0.7670898
vt 0.3242188 0.7675781
vt 0.3308105 0.7670898
vt 0.3308105 0.7675781
vt 0.2937012 0.7675781
vt 0.2871094 0.7675781
vt 0.2871094 0.7670898
vt 0.2937012 0.7670898
vt 0.2937012 0.7666016
vt 0.3242188 0.7666016
vt 0.3242188 0.7670898
vt 0.3242188 0.7675781
vt 0.3308105 0.7670898
vt 0.3308105 0.7675781
vt 0.2954102 0.9238281
vt 0.2888184 0.9238281
vt 0.2888184 0.9223633
vt 0.2954102 0.9223633
vt 0.2954102 0.921875
vt 0.3256836 0.9238281
vt 0.3256836 0.921875
vt 0.3256836 0.9223633
vt 0.3320313 0.9238281
vt 0.3320313 0.9223633
vt 0.2954102 0.9238281
vt 0.2888184 0.9223633
vt 0.2888184 0.9238281
vt 0.2954102 0.9223633
vt 0.2954102 0.921875
vt 0.3256836 0.9238281
vt 0.3256836 0.921875
vt 0.3256836 0.9223633
vt 0.3320313 0.9238281
vt 0.3320313 0.9223633
vt 0.3381348 0.8686523
vt 0.3474121 0.8662109
vt 0.3474121 0.8686523
vt 0.3381348 0.8662109
vt 0.3474121 0.855957
vt 0.3339844 0.8662109
vt 0.3339844 0.8686523
vt 0.3154297 0.8686523
vt 0.3381348 0.855957
vt 0.3474121 0.8496094
vt 0.3339844 0.855957
vt 0.3154297 0.8642578
vt 0.3381348 0.8496094
vt 0.3474121 0.8300781
vt 0.3381348 0.8300781
vt 0.3339844 0.8300781
vt 0.3339844 0.8496094
vt 0.3154297 0.8540039
vt 0.3154297 0.8496094
vt 0.3154297 0.8300781
vt 0.3115234 0.8300781
vt 0.3115234 0.8662109
vt 0.3115234 0.8686523
vt 0.3022461 0.8686523
vt 0.3022461 0.8662109
vt 0.3115234 0.855957
vt 0.3022461 0.855957
vt 0.3115234 0.8496094
vt 0.3022461 0.8496094
vt 0.3022461 0.8300781
vt 0.3381348 0.8686523
vt 0.3474121 0.8686523
vt 0.3474121 0.8662109
vt 0.3381348 0.8662109
vt 0.3474121 0.855957
vt 0.3339844 0.8662109
vt 0.3339844 0.8686523
vt 0.3154297 0.8686523
vt 0.3381348 0.855957
vt 0.3474121 0.8496094
vt 0.3339844 0.855957
vt 0.3154297 0.8642578
vt 0.3381348 0.8496094
vt 0.3474121 0.8300781
vt 0.3381348 0.8300781
vt 0.3339844 0.8300781
vt 0.3339844 0.8496094
vt 0.3154297 0.8540039
vt 0.3154297 0.8496094
vt 0.3154297 0.8300781
vt 0.3115234 0.8300781
vt 0.3115234 0.8662109
vt 0.3115234 0.8686523
vt 0.3022461 0.8686523
vt 0.3022461 0.8662109
vt 0.3115234 0.855957
vt 0.3022461 0.855957
vt 0.3115234 0.8496094
vt 0.3022461 0.8496094
vt 0.3022461 0.8300781
vt 0.3115234 0.855957
vt 0.3154297 0.8642578
vt 0.3154297 0.8540039
vt 0.3115234 0.8662109
vt 0.3022461 0.8662109
vt 0.3022461 0.855957
vt 0.3115234 0.855957
vt 0.3022461 0.8662109
vt 0.3022461 0.855957
vt 0.3115234 0.8662109
vt 0.3154297 0.8642578
vt 0.3154297 0.8540039
vt 0.3115234 0.855957
vt 0.3154297 0.8540039
vt 0.3154297 0.8642578
vt 0.3115234 0.8662109
vt 0.3022461 0.8662109
vt 0.3022461 0.855957
vt 0.3115234 0.855957
vt 0.3022461 0.855957
vt 0.3022461 0.8662109
vt 0.3115234 0.8662109
vt 0.3154297 0.8642578
vt 0.3154297 0.8540039
vt 0.3154297 0.8642578
vt 0.3154297 0.8642578
vt 0.3154297 0.8540039
vt 0.3154297 0.8540039
vt 0.3154297 0.8540039
vt 0.3154297 0.8540039
vt 0.3154297 0.8642578
vt 0.3154297 0.8642578
vt 0.3154297 0.8540039
vt 0.3154297 0.8540039
vt 0.3115234 0.855957
vt 0.3115234 0.855957
vt 0.3022461 0.855957
vt 0.3022461 0.855957
vt 0.3115234 0.855957
vt 0.3115234 0.855957
vt 0.3154297 0.8540039
vt 0.3154297 0.8540039
vt 0.3115234 0.8662109
vt 0.3154297 0.8642578
vt 0.3154297 0.8642578
vt 0.3115234 0.8662109
vt 0.3022461 0.8662109
vt 0.3022461 0.8662109
vt 0.3115234 0.8662109
vt 0.3115234 0.8662109
vt 0.3154297 0.8642578
vt 0.3154297 0.8642578
vn 0 -0.9936523 -0.1116333
vn 0.2619629 -0.2381592 -0.9350586
vn 0 -0.2873535 -0.9580078
vn 0.296875 -0.9511719 -0.08721924
vn 0.9648438 -0.2493896 -0.08111572
vn 0.9648438 -0.2493896 0.08111572
vn 0.296875 -0.9511719 0.08721924
vn 0 -0.9936523 0.1116333
vn 0.2619629 -0.2381592 0.9350586
vn 0 -0.2873535 0.9580078
vn 0 -0.9936523 -0.1116333
vn 0 -0.2873535 -0.9580078
vn -0.2619629 -0.2381592 -0.9350586
vn -0.296875 -0.9511719 -0.08721924
vn -0.9648438 -0.2493896 -0.08111572
vn -0.9648438 -0.2493896 0.08111572
vn -0.296875 -0.9511719 0.08721924
vn 0 -0.9936523 0.1116333
vn -0.2619629 -0.2381592 0.9350586
vn 0 -0.2873535 0.9580078
vn 0 0.9848633 0.1737061
vn 0 0.7338867 0.6796875
vn -0.1691895 0.7348633 0.6567383
vn -0.2858887 0.9482422 0.1384277
vn -0.8657227 0.4970703 0.05496216
vn 0 0.9848633 -0.1737061
vn -0.8457031 0.5292969 -0.06463623
vn -0.2858887 0.9482422 -0.1384277
vn 0 0.6210938 -0.7836914
vn -0.1444092 0.5952148 -0.7905273
vn 0 0.9848633 0.1737061
vn 0.1691895 0.7348633 0.6567383
vn 0 0.7338867 0.6796875
vn 0.2858887 0.9482422 0.1384277
vn 0.8657227 0.4970703 0.05496216
vn 0 0.9848633 -0.1737061
vn 0.8457031 0.5292969 -0.06463623
vn 0.2858887 0.9482422 -0.1384277
vn 0 0.6210938 -0.7836914
vn 0.1444092 0.5952148 -0.7905273
vn -0.1444092 0.5952148 -0.7905273
vn 0 0 -1
vn 0 0.6210938 -0.7836914
vn -0.3132324 0 -0.949707
vn 0 0 -1
vn -0.9916992 0 -0.1273193
vn -0.8457031 0.5292969 -0.06463623
vn -0.8657227 0.4970703 0.05496216
vn -0.3132324 0 -0.949707
vn 0 0 -1
vn -0.9921875 0 -0.1264648
vn -0.987793 0.1273193 0.09191895
vn -0.3132324 0 -0.949707
vn 0 -0.2873535 -0.9580078
vn -0.2619629 -0.2381592 -0.9350586
vn -0.9648438 -0.2493896 -0.08111572
vn -0.9941406 0 -0.105896
vn -0.9711914 0.1934814 0.1396484
vn -0.9907227 0.04992676 0.1246948
vn -0.9648438 -0.2493896 0.08111572
vn -0.2619629 -0.2381592 0.9350586
vn -0.2094727 0.7929688 0.5722656
vn -0.1691895 0.7348633 0.6567383
vn 0 0.7338867 0.6796875
vn 0 0.8110352 0.5854492
vn -0.1706543 0.7988281 0.5766602
vn 0 0.8110352 0.5854492
vn -0.276123 0.2817383 0.9189453
vn 0 0.3271484 0.9448242
vn 0 -0.2873535 0.9580078
vn 0.1444092 0.5952148 -0.7905273
vn 0 0.6210938 -0.7836914
vn 0 0 -1
vn 0.3132324 0 -0.949707
vn 0 0 -1
vn 0.9916992 0 -0.1273193
vn 0.8457031 0.5292969 -0.06463623
vn 0.8657227 0.4970703 0.05496216
vn 0.3132324 0 -0.949707
vn 0 0 -1
vn 0.9921875 0 -0.1264648
vn 0.987793 0.1273193 0.09191895
vn 0.3132324 0 -0.949707
vn 0 -0.2873535 -0.9580078
vn 0.2619629 -0.2381592 -0.9350586
vn 0.9648438 -0.2493896 -0.08111572
vn 0.9941406 0 -0.105896
vn 0.9711914 0.1934814 0.1396484
vn 0.9907227 0.04992676 0.1246948
vn 0.9648438 -0.2493896 0.08111572
vn 0.2619629 -0.2381592 0.9350586
vn 0.2094727 0.7929688 0.5722656
vn 0.1691895 0.7348633 0.6567383
vn 0 0.7338867 0.6796875
vn 0 0.8110352 0.5854492
vn 0.1706543 0.7988281 0.5766602
vn 0 0.8110352 0.5854492
vn 0.276123 0.2817383 0.9189453
vn 0 0.3271484 0.9448242
vn 0 -0.2873535 0.9580078
vn 0.7260742 0.5576172 0.4025879
vn 0.5415039 0.6816406 0.4921875
vn 0.5415039 0.6816406 0.4921875
vn 0.7451172 0.5405273 0.3903809
vn 0.300293 0.7734375 0.5581055
vn 0.4719238 0.7148438 0.5161133
vn -0.08258057 0.8081055 0.5834961
vn 0.300293 0.7734375 0.5581055
vn 0.4719238 0.7148438 0.5161133
vn -0.07659912 0.8085938 0.5834961
vn -0.2714844 0.7802734 0.5634766
vn -0.2714844 0.7802734 0.5634766
vn -0.7231445 -0.5576172 -0.4069824
vn -0.5473633 -0.6782227 -0.4902344
vn -0.5473633 -0.6782227 -0.4902344
vn -0.7490234 -0.534668 -0.3911133
vn -0.3017578 -0.7749023 -0.5556641
vn -0.4770508 -0.7128906 -0.5141602
vn 0.09899902 -0.8095703 -0.5786133
vn -0.4770508 -0.7128906 -0.5141602
vn -0.3017578 -0.7749023 -0.5556641
vn 0.09320068 -0.8100586 -0.5786133
vn 0.2746582 -0.7797852 -0.5629883
vn 0.2746582 -0.7797852 -0.5629883
vn 0.8828125 -0.3808594 -0.2749023
vn 0.8828125 -0.3808594 -0.2749023
vn 0.8828125 -0.3808594 -0.2749023
vn 0.8828125 -0.3808594 -0.2749023
vn -0.9741211 -0.184082 -0.1328125
vn -0.9741211 -0.184082 -0.1328125
vn -0.9741211 -0.184082 -0.1328125
vn -0.9741211 -0.184082 -0.1328125
vn 0.3137207 -0.7104492 0.6298828
vn 0.3137207 -0.7104492 0.6298828
vn -0.1254883 -0.5073242 0.8525391
vn -0.1744385 -0.4743652 0.862793
vn -0.2171631 -0.4455566 0.8686523
vn -0.2351074 -0.4321289 0.8706055
vn 0.001317024 -0.5849609 0.8110352
vn 0.001251221 -0.5849609 0.8110352
vn 0.00387001 -0.5849609 0.8110352
vn 0.00387001 -0.5849609 0.8110352
vn 0.230957 0.465332 -0.8544922
vn -0.2205811 0.6860352 -0.6933594
vn -0.2205811 0.6860352 -0.6933594
vn 0.1982422 0.4873047 -0.8505859
vn 0.2070313 0.4716797 -0.8574219
vn 0.2451172 0.4467773 -0.8603516
vn -0.04821777 0.578125 -0.8144531
vn -0.05090332 0.5776367 -0.8149414
vn -0.1542969 0.5566406 -0.8164063
vn -0.1542969 0.5566406 -0.8164063
g Foot_left.014_0
f 3/3/3 2/2/2 1/1/1
f 2/2/2 4/4/4 1/1/1
f 4/4/4 2/2/2 5/5/5
f 4/4/4 5/5/5 6/6/6
f 4/4/4 7/7/7 1/1/1
f 7/7/7 4/4/4 6/6/6
f 7/7/7 8/8/8 1/1/1
f 6/6/6 9/9/9 7/7/7
f 8/8/8 7/7/7 10/10/10
f 7/7/7 9/9/9 10/10/10
f 13/13/13 12/12/12 11/11/11
f 14/14/14 13/13/13 11/11/11
f 13/13/13 14/14/14 15/15/15
f 15/15/15 14/14/14 16/16/16
f 17/17/17 14/14/14 11/11/11
f 14/14/14 17/17/17 16/16/16
f 18/18/18 17/17/17 11/11/11
f 19/19/19 16/16/16 17/17/17
f 17/17/17 18/18/18 20/20/20
f 19/19/19 17/17/17 20/20/20
f 23/23/23 22/22/22 21/21/21
f 24/24/24 23/23/23 21/21/21
f 23/23/23 24/24/24 25/25/25
f 21/21/21 26/26/26 24/24/24
f 27/27/27 25/25/25 24/24/24
f 26/26/26 28/28/28 24/24/24
f 28/28/28 27/27/27 24/24/24
f 28/28/28 26/26/26 29/29/29
f 28/28/28 30/30/30 27/27/27
f 30/30/30 28/28/28 29/29/29
f 33/33/33 32/32/32 31/31/31
f 32/32/32 34/34/34 31/31/31
f 34/34/34 32/32/32 35/35/35
f 36/36/36 31/31/31 34/34/34
f 35/35/35 37/37/37 34/34/34
f 38/38/38 36/36/36 34/34/34
f 37/37/37 38/38/38 34/34/34
f 36/36/36 38/38/38 39/39/39
f 40/40/40 38/38/38 37/37/37
f 38/38/38 40/40/40 39/39/39
f 43/43/43 42/42/42 41/41/41
f 42/42/42 44/44/44 41/41/41
f 42/42/42 45/45/45 44/44/44
f 44/44/44 46/46/46 41/41/41
f 46/46/46 47/47/47 41/41/41
f 48/48/48 47/47/47 46/46/46
f 45/45/45 49/49/49 44/44/44
f 45/45/45 50/50/50 49/49/49
f 51/51/51 46/46/46 44/44/44
f 49/49/49 51/51/51 44/44/44
f 52/52/52 48/48/48 46/46/46
f 52/52/52 46/46/46 51/51/51
f 50/50/50 53/53/53 49/49/49
f 50/50/50 54/54/54 53/53/53
f 54/54/54 55/55/55 53/53/53
f 55/55/55 56/56/56 53/53/53
f 53/53/53 57/57/57 49/49/49
f 57/57/57 51/51/51 49/49/49
f 56/56/56 57/57/57 53/53/53
f 58/58/58 51/51/51 57/57/57
f 58/58/58 52/52/52 51/51/51
f 59/59/59 57/57/57 56/56/56
f 59/59/59 58/58/58 57/57/57
f 60/60/60 59/59/59 56/56/56
f 59/59/59 60/60/60 61/61/61
f 48/48/48 52/52/52 62/62/62
f 63/63/63 48/48/48 62/62/62
f 64/64/64 63/63/63 62/62/62
f 65/65/65 64/64/64 62/62/62
f 62/62/62 52/52/52 66/66/66
f 65/65/65 62/62/62 66/66/66
f 52/52/52 58/58/58 66/66/66
f 67/67/67 65/65/65 66/66/66
f 58/58/58 59/59/59 68/68/68
f 66/66/66 58/58/58 68/68/68
f 67/67/67 66/66/66 68/68/68
f 68/68/68 59/59/59 61/61/61
f 69/69/69 67/67/67 68/68/68
f 69/69/69 68/68/68 61/61/61
f 70/70/70 69/69/69 61/61/61
f 73/73/73 72/72/72 71/71/71
f 74/74/74 73/73/73 71/71/71
f 75/75/75 73/73/73 74/74/74
f 76/76/76 74/74/74 71/71/71
f 77/77/77 76/76/76 71/71/71
f 77/77/77 78/78/78 76/76/76
f 79/79/79 75/75/75 74/74/74
f 80/80/80 75/75/75 79/79/79
f 76/76/76 81/81/81 74/74/74
f 81/81/81 79/79/79 74/74/74
f 78/78/78 82/82/82 76/76/76
f 76/76/76 82/82/82 81/81/81
f 83/83/83 80/80/80 79/79/79
f 84/84/84 80/80/80 83/83/83
f 85/85/85 84/84/84 83/83/83
f 86/86/86 85/85/85 83/83/83
f 87/87/87 83/83/83 79/79/79
f 81/81/81 87/87/87 79/79/79
f 87/87/87 86/86/86 83/83/83
f 81/81/81 88/88/88 87/87/87
f 82/82/82 88/88/88 81/81/81
f 87/87/87 89/89/89 86/86/86
f 88/88/88 89/89/89 87/87/87
f 89/89/89 90/90/90 86/86/86
f 90/90/90 89/89/89 91/91/91
f 82/82/82 78/78/78 92/92/92
f 78/78/78 93/93/93 92/92/92
f 93/93/93 94/94/94 92/92/92
f 94/94/94 95/95/95 92/92/92
f 82/82/82 92/92/92 96/96/96
f 92/92/92 95/95/95 96/96/96
f 88/88/88 82/82/82 96/96/96
f 95/95/95 97/97/97 96/96/96
f 89/89/89 88/88/88 98/98/98
f 88/88/88 96/96/96 98/98/98
f 96/96/96 97/97/97 98/98/98
f 89/89/89 98/98/98 91/91/91
f 97/97/97 99/99/99 98/98/98
f 98/98/98 99/99/99 91/91/91
f 99/99/99 100/100/100 91/91/91
g Foot_left.014_1
f 103/103/103 102/102/102 101/101/101
f 102/102/102 104/104/104 101/101/101
f 104/104/104 105/105/105 101/101/101
f 105/105/105 106/106/106 101/101/101
f 109/109/109 108/108/108 107/107/107
f 108/108/108 110/110/110 107/107/107
f 110/110/110 111/111/111 107/107/107
f 111/111/111 112/112/112 107/107/107
f 115/115/115 114/114/114 113/113/113
f 116/116/116 115/115/115 113/113/113
f 117/117/117 116/116/116 113/113/113
f 118/118/118 117/117/117 113/113/113
f 121/121/121 120/120/120 119/119/119
f 122/122/122 121/121/121 119/119/119
f 123/123/123 122/122/122 119/119/119
f 124/124/124 123/123/123 119/119/119
f 127/127/127 126/126/126 125/125/125
f 128/128/128 127/127/127 125/125/125
f 131/131/131 130/130/130 129/129/129
f 132/132/132 131/131/131 129/129/129
f 135/135/135 134/134/134 133/133/133
f 136/136/136 135/135/135 133/133/133
f 137/137/137 135/135/135 136/136/136
f 138/138/138 137/137/137 136/136/136
f 139/139/139 137/137/137 138/138/138
f 140/140/140 139/139/139 138/138/138
f 141/141/141 139/139/139 140/140/140
f 142/142/142 141/141/141 140/140/140
f 145/145/145 144/144/144 143/143/143
f 144/144/144 146/146/146 143/143/143
f 143/143/143 146/146/146 147/147/147
f 146/146/146 148/148/148 147/147/147
f 147/147/147 148/148/148 149/149/149
f 148/148/148 150/150/150 149/149/149
f 149/149/149 150/150/150 151/151/151
f 150/150/150 152/152/152 151/151/151
