g Hand_left.016
v 0.0970419 -0.09704192 -0.1386237
v -0.09704188 0.09704186 -0.1386238
v -0.09704188 -0.09704192 -0.1386237
v 0.0970419 0.09704186 -0.1386238
v 0.1386252 -0.09704193 -0.09703919
v 0.1386253 0.09704185 -0.09703922
v 0.1386252 -0.09704184 0.09703922
v 0.1386253 0.09704182 0.09703918
v 0.0970419 -0.09704185 0.1386238
v 0.0970419 0.09704193 0.1386237
v -0.09704188 -0.09704185 0.1386238
v -0.09704188 0.09704193 0.1386237
v -0.1386253 -0.09704184 0.09703922
v -0.1386253 0.09704182 0.09703918
v -0.1386253 0.09704185 -0.09703922
v -0.1386253 -0.09704193 -0.09703919
v -0.09704188 -0.09704192 -0.1386237
v -0.09704188 0.09704186 -0.1386238
v -0.09704188 0.1386251 0.09703919
v 0.0970419 0.09704193 0.1386237
v -0.09704188 0.09704193 0.1386237
v -0.1386253 0.09704182 0.09703918
v 0.097042 0.1386251 0.09703919
v 0.1386253 0.09704182 0.09703918
v 0.1386253 0.09704185 -0.09703922
v -0.09704188 0.1386251 -0.09703922
v -0.1386253 0.09704185 -0.09703922
v -0.09704188 0.09704186 -0.1386238
v 0.097042 0.1386251 -0.09703922
v 0.0970419 0.09704186 -0.1386238
v 0.0970419 -0.09704192 -0.1386237
v -0.09704188 -0.09704192 -0.1386237
v -0.09704188 -0.1386251 -0.09703919
v -0.1386253 -0.09704193 -0.09703919
v 0.0970419 -0.1386251 -0.09703919
v 0.1386252 -0.09704193 -0.09703919
v 0.1386252 -0.09704184 0.09703922
v 0.0970419 -0.1386251 0.0970392
v 0.0970419 -0.09704185 0.1386238
v -0.09704188 -0.09704185 0.1386238
v -0.09704188 -0.1386251 0.0970392
v -0.1386253 -0.09704184 0.09703922
vt 0.2075195 0.8916016
vt 0.2227783 0.9038086
vt 0.2227783 0.8916016
vt 0.2075195 0.9038086
vt 0.2042236 0.8916016
vt 0.2042236 0.9038086
vt 0.1890869 0.8916016
vt 0.1890869 0.9038086
vt 0.185791 0.8916016
vt 0.185791 0.9038086
vt 0.1706543 0.8916016
vt 0.1706543 0.9038086
vt 0.1673584 0.8916016
vt 0.1673584 0.9038086
vt 0.1522217 0.9038086
vt 0.1522217 0.8916016
vt 0.1489258 0.8916016
vt 0.1489258 0.9038086
vt 0.2036133 0.9228516
vt 0.2114258 0.9233398
vt 0.2114258 0.9228516
vt 0.2036133 0.9223633
vt 0.2036133 0.9233398
vt 0.2036133 0.9238281
vt 0.1671143 0.9238281
vt 0.1671143 0.9228516
vt 0.1671143 0.9223633
vt 0.1594238 0.9228516
vt 0.1671143 0.9233398
vt 0.1594238 0.9233398
vt 0.2105713 0.8730469
vt 0.2105713 0.8725586
vt 0.2028809 0.8725586
vt 0.2028809 0.8725586
vt 0.2028809 0.8730469
vt 0.2028809 0.8735352
vt 0.1669922 0.8735352
vt 0.1669922 0.8730469
vt 0.1593018 0.8730469
vt 0.1593018 0.8725586
vt 0.1669922 0.8725586
vt 0.1669922 0.8725586
vn 0.1551514 -0.1551514 -0.9755859
vn -0.1551514 0.1551514 -0.9755859
vn -0.1551514 -0.1551514 -0.9755859
vn 0.1551514 0.1551514 -0.9755859
vn 0.9755859 -0.1551514 -0.1551514
vn 0.9755859 0.1551514 -0.1551514
vn 0.9755859 -0.1551514 0.1551514
vn 0.9755859 0.1551514 0.1551514
vn 0.1551514 -0.1551514 0.9755859
vn 0.1551514 0.1551514 0.9755859
vn -0.1551514 -0.1551514 0.9755859
vn -0.1551514 0.1551514 0.9755859
vn -0.9755859 -0.1551514 0.1551514
vn -0.9755859 0.1551514 0.1551514
vn -0.9755859 0.1551514 -0.1551514
vn -0.9755859 -0.1551514 -0.1551514
vn -0.1551514 -0.1551514 -0.9755859
vn -0.1551514 0.1551514 -0.9755859
vn -0.1551514 0.9755859 0.1551514
vn 0.1551514 0.1551514 0.9755859
vn -0.1551514 0.1551514 0.9755859
vn -0.9755859 0.1551514 0.1551514
vn 0.1551514 0.9755859 0.1551514
vn 0.9755859 0.1551514 0.1551514
vn 0.9755859 0.1551514 -0.1551514
vn -0.1551514 0.9755859 -0.1551514
vn -0.9755859 0.1551514 -0.1551514
vn -0.1551514 0.1551514 -0.9755859
vn 0.1551514 0.9755859 -0.1551514
vn 0.1551514 0.1551514 -0.9755859
vn 0.1551514 -0.1551514 -0.9755859
vn -0.1551514 -0.1551514 -0.9755859
vn -0.1551514 -0.9755859 -0.1551514
vn -0.9755859 -0.1551514 -0.1551514
vn 0.1551514 -0.9755859 -0.1551514
vn 0.9755859 -0.1551514 -0.1551514
vn 0.9755859 -0.1551514 0.1551514
vn 0.1551514 -0.9755859 0.1551514
vn 0.1551514 -0.1551514 0.9755859
vn -0.1551514 -0.1551514 0.9755859
vn -0.1551514 -0.9755859 0.1551514
vn -0.9755859 -0.1551514 0.1551514
g Hand_left.016_0
f 3/3/3 2/2/2 1/1/1
f 2/2/2 4/4/4 1/1/1
f 5/5/5 1/1/1 4/4/4
f 6/6/6 5/5/5 4/4/4
f 5/5/5 6/6/6 7/7/7
f 6/6/6 8/8/8 7/7/7
f 9/9/9 7/7/7 8/8/8
f 10/10/10 9/9/9 8/8/8
f 9/9/9 10/10/10 11/11/11
f 10/10/10 12/12/12 11/11/11
f 13/13/13 11/11/11 12/12/12
f 14/14/14 13/13/13 12/12/12
f 13/13/13 14/14/14 15/15/15
f 16/16/16 13/13/13 15/15/15
f 17/17/17 16/16/16 15/15/15
f 18/18/18 17/17/17 15/15/15
f 21/21/21 20/20/20 19/19/19
f 22/22/22 21/21/21 19/19/19
f 20/20/20 23/23/23 19/19/19
f 23/23/23 20/20/20 24/24/24
f 24/24/24 25/25/25 23/23/23
f 19/19/19 26/26/26 22/22/22
f 26/26/26 19/19/19 23/23/23
f 26/26/26 27/27/27 22/22/22
f 26/26/26 28/28/28 27/27/27
f 25/25/25 29/29/29 23/23/23
f 29/29/29 26/26/26 23/23/23
f 28/28/28 26/26/26 29/29/29
f 29/29/29 25/25/25 30/30/30
f 30/30/30 28/28/28 29/29/29
f 33/33/33 32/32/32 31/31/31
f 34/34/34 32/32/32 33/33/33
f 35/35/35 33/33/33 31/31/31
f 31/31/31 36/36/36 35/35/35
f 35/35/35 36/36/36 37/37/37
f 38/38/38 35/35/35 37/37/37
f 35/35/35 38/38/38 33/33/33
f 37/37/37 39/39/39 38/38/38
f 38/38/38 39/39/39 40/40/40
f 34/34/34 33/33/33 41/41/41
f 38/38/38 41/41/41 33/33/33
f 41/41/41 38/38/38 40/40/40
f 42/42/42 34/34/34 41/41/41
f 41/41/41 40/40/40 42/42/42
