g Hand_right.012
v -0.102883 -0.1680202 -0.1392224
v 0.09120083 -0.1680202 -0.1392224
v 0.09120083 0.0260636 -0.1392224
v -0.102883 0.0260636 -0.1392224
v -0.1444662 -0.1680202 -0.09763785
v -0.1444663 0.02606359 -0.09763787
v -0.1444662 -0.1680202 -0.06797751
v -0.1444663 0.02606359 -0.06797755
v -0.1444662 -0.1680201 0.0667802
v -0.1444663 0.02606357 0.06678017
v -0.1444662 -0.1680201 0.09644055
v -0.1444663 0.02606356 0.09644052
v -0.102883 -0.1680201 0.1380251
v -0.102883 0.02606367 0.1380251
v 0.09120083 -0.1680201 0.1380251
v 0.09120083 0.02606367 0.1380251
v 0.1327842 -0.1680201 0.09644055
v 0.1327842 0.02606356 0.09644052
v 0.1327842 0.02606357 0.06678015
v 0.1327842 -0.1680202 0.0667802
v 0.1327842 0.02606359 -0.06797758
v 0.1327842 -0.1680202 -0.06797751
v 0.1327842 0.02606359 -0.09763787
v 0.1327842 -0.1680202 -0.09763785
v 0.09120083 -0.1680202 -0.1392224
v 0.09120083 0.0260636 -0.1392224
v 0.1327842 0.02606356 0.09644052
v 0.09120083 0.06764681 0.06678015
v 0.1327842 0.02606357 0.06678015
v 0.09120083 0.0676468 0.09644052
v 0.09120083 0.02606367 0.1380251
v -0.102883 0.02606367 0.1380251
v -0.1028831 0.0676468 0.09644052
v -0.1444663 0.02606356 0.09644052
v -0.1444663 0.02606357 0.06678017
v -0.1028831 0.0676468 0.08709884
v -0.1444663 0.02606359 -0.06797755
v -0.1028831 0.06764684 -0.08829623
v -0.1444663 0.02606359 -0.09763787
v -0.1028831 0.06764684 -0.09763788
v -0.102883 0.0260636 -0.1392224
v 0.09120083 0.0260636 -0.1392224
v 0.09120083 0.06764684 -0.09763788
v 0.09120083 0.06764683 -0.06797756
v 0.1327842 0.02606359 -0.09763787
v 0.1327842 0.02606359 -0.06797758
v 0.09120083 -0.1680201 0.1380251
v -0.102883 -0.2096034 0.09644055
v -0.102883 -0.1680201 0.1380251
v -0.1444662 -0.1680201 0.09644055
v 0.09120083 -0.2096034 0.09644055
v 0.1327842 -0.1680201 0.09644055
v 0.1327842 -0.1680202 0.0667802
v 0.09120083 -0.2096033 0.0667802
v 0.1327842 -0.1680202 -0.06797751
v -0.102883 -0.2096033 0.06678022
v -0.1444662 -0.1680201 0.0667802
v 0.09120083 -0.2096033 -0.06797753
v 0.1327842 -0.1680202 -0.09763785
v -0.102883 -0.2096033 -0.0679775
v -0.1444662 -0.1680202 -0.06797751
v 0.09120083 -0.2096033 -0.09763785
v 0.09120083 -0.1680202 -0.1392224
v -0.102883 -0.1680202 -0.1392224
v -0.102883 -0.2096033 -0.09763785
v -0.1444662 -0.1680202 -0.09763785
v -0.002865143 0.09116796 0.05187156
v 0.02187321 0.1406158 0.03193003
v 0.04661155 0.09116796 0.05187157
v 0.04661155 0.09116796 0.05187157
v 0.02187321 0.1406158 0.03193003
v 0.04661155 0.09116798 0.01198851
v 0.04661155 0.09116798 0.01198851
v 0.02187321 0.1406158 0.03193003
v -0.002865143 0.09116798 0.0119885
v -0.002865143 0.09116798 0.0119885
v 0.02187321 0.1406158 0.03193003
v -0.002865143 0.09116796 0.05187156
v -0.002865143 0.09116776 -0.008875387
v 0.02187321 0.1406157 -0.02881692
v 0.04661155 0.09116776 -0.008875387
v 0.04661155 0.09116776 -0.008875387
v 0.02187321 0.1406157 -0.02881692
v 0.04661155 0.09116776 -0.04875843
v 0.04661155 0.09116776 -0.04875843
v 0.02187321 0.1406157 -0.02881692
v -0.002865143 0.09116776 -0.04875843
v -0.002865143 0.09116776 -0.04875843
v 0.02187321 0.1406157 -0.02881692
v -0.002865143 0.09116776 -0.008875387
v -0.07188583 0.0911682 0.05187156
v -0.04714748 0.1406162 0.03193003
v -0.02240913 0.0911682 0.05187156
v -0.02240913 0.0911682 0.05187156
v -0.04714748 0.1406162 0.03193003
v -0.02240913 0.09116821 0.0119885
v -0.02240913 0.09116821 0.0119885
v -0.04714748 0.1406162 0.03193003
v -0.07188583 0.09116821 0.0119885
v -0.07188583 0.09116821 0.0119885
v -0.04714748 0.1406162 0.03193003
v -0.07188583 0.0911682 0.05187156
v -0.07188594 0.09116809 -0.008875387
v -0.04714748 0.1406161 -0.02881692
v -0.02240913 0.09116809 -0.008875387
v -0.02240913 0.09116809 -0.008875387
v -0.04714748 0.1406161 -0.02881692
v -0.02240913 0.0911681 -0.04875843
v -0.02240913 0.0911681 -0.04875843
v -0.04714748 0.1406161 -0.02881692
v -0.07188594 0.0911681 -0.04875844
v -0.07188594 0.0911681 -0.04875844
v -0.04714748 0.1406161 -0.02881692
v -0.07188594 0.09116809 -0.008875387
v 0.04661155 0.09116796 0.05187157
v 0.04661155 0.09116798 0.01198851
v -0.002865143 0.09116798 0.0119885
v -0.002865143 0.09116796 0.05187156
v 0.04661155 0.09116776 -0.008875387
v 0.04661155 0.09116776 -0.04875843
v -0.002865143 0.09116776 -0.04875843
v -0.002865143 0.09116776 -0.008875387
v -0.02240913 0.0911682 0.05187156
v -0.02240913 0.09116821 0.0119885
v -0.07188583 0.09116821 0.0119885
v -0.07188583 0.0911682 0.05187156
v -0.02240913 0.09116809 -0.008875387
v -0.02240913 0.0911681 -0.04875843
v -0.07188594 0.0911681 -0.04875844
v -0.07188594 0.09116809 -0.008875387
v 0.1327842 0.02606357 0.06678015
v 0.09153271 0.09640731 0.06678016
v 0.1331161 0.05482405 0.06678016
v 0.09120083 0.06764681 0.06678015
v -0.1025512 0.09640731 0.08709884
v -0.1028831 0.0676468 0.08709884
v 0.1331161 0.05482405 0.06678016
v 0.09153271 0.09640733 -0.06797756
v 0.1331161 0.05482408 -0.06797757
v 0.09153271 0.09640731 0.06678016
v -0.1025512 0.09640731 0.08709884
v -0.1025512 0.09640733 -0.08829623
v -0.1028831 0.06764684 -0.08829623
v 0.09153271 0.09640733 -0.06797756
v -0.1025512 0.09640733 -0.08829623
v 0.09120083 0.06764683 -0.06797756
v 0.1331161 0.05482408 -0.06797757
v 0.1327842 0.02606359 -0.06797758
v -0.1025512 0.09640733 -0.08829623
v -0.1025512 0.09640731 0.08709884
v 0.1331161 0.05482405 0.06678016
v 0.1331161 0.05482408 -0.06797757
vt 0.2075195 0.8916016
vt 0.2227783 0.8916016
vt 0.2227783 0.9038086
vt 0.2075195 0.9038086
vt 0.2042236 0.8916016
vt 0.2042236 0.9038086
vt 0.1992188 0.8916016
vt 0.1992188 0.9038086
vt 0.1940918 0.8916016
vt 0.1940918 0.9038086
vt 0.1890869 0.8916016
vt 0.1890869 0.9038086
vt 0.185791 0.8916016
vt 0.185791 0.9038086
vt 0.1706543 0.8916016
vt 0.1706543 0.9038086
vt 0.1673584 0.8916016
vt 0.1673584 0.9038086
vt 0.1623535 0.9038086
vt 0.1623535 0.8916016
vt 0.1572266 0.9038086
vt 0.1572266 0.8916016
vt 0.1522217 0.9038086
vt 0.1522217 0.8916016
vt 0.1489258 0.8916016
vt 0.1489258 0.9038086
vt 0.2036133 0.9223633
vt 0.1914063 0.9228516
vt 0.1914063 0.9223633
vt 0.2036133 0.9228516
vt 0.2114258 0.9228516
vt 0.2114258 0.9233398
vt 0.2036133 0.9233398
vt 0.2036133 0.9238281
vt 0.1914063 0.9238281
vt 0.1914063 0.9233398
vt 0.1793213 0.9238281
vt 0.1793213 0.9233398
vt 0.1671143 0.9238281
vt 0.1671143 0.9233398
vt 0.1594238 0.9233398
vt 0.1594238 0.9228516
vt 0.1671143 0.9228516
vt 0.1793213 0.9228516
vt 0.1671143 0.9223633
vt 0.1793213 0.9223633
vt 0.1593018 0.8725586
vt 0.1669922 0.8730469
vt 0.1593018 0.8730469
vt 0.1669922 0.8735352
vt 0.1669922 0.8725586
vt 0.1669922 0.8725586
vt 0.1789551 0.8725586
vt 0.1789551 0.8725586
vt 0.190918 0.8725586
vt 0.1789551 0.8730469
vt 0.1789551 0.8735352
vt 0.190918 0.8725586
vt 0.2028809 0.8725586
vt 0.190918 0.8730469
vt 0.190918 0.8735352
vt 0.2028809 0.8725586
vt 0.2105713 0.8725586
vt 0.2105713 0.8730469
vt 0.2028809 0.8730469
vt 0.2028809 0.8735352
vt 0 0
vt 0 0
vt 0 0
vt 0 0
vt 0 0
vt 0 0
vt 0 0
vt 0 0
vt 0 0
vt 0 0
vt 0 0
vt 0 0
vt 0 0
vt 0 0
vt 0 0
vt 0 0
vt 0 0
vt 0 0
vt 0 0
vt 0 0
vt 0 0
vt 0 0
vt 0 0
vt 0 0
vt 0 0
vt 0 0
vt 0 0
vt 0 0
vt 0 0
vt 0 0
vt 0 0
vt 0 0
vt 0 0
vt 0 0
vt 0 0
vt 0 0
vt 0 0
vt 0 0
vt 0 0
vt 0 0
vt 0 0
vt 0 0
vt 0 0
vt 0 0
vt 0 0
vt 0 0
vt 0 0
vt 0 0
vt 0 0
vt 0 0
vt 0 0
vt 0 0
vt 0 0
vt 0 0
vt 0 0
vt 0 0
vt 0 0
vt 0 0
vt 0 0
vt 0 0
vt 0 0
vt 0 0
vt 0 0
vt 0 0
vt 0.1914063 0.9223633
vt 0.1914063 0.9228516
vt 0.1914063 0.9223633
vt 0.1914063 0.9228516
vt 0.1914063 0.9233398
vt 0.1914063 0.9233398
vt 0.1914063 0.9223633
vt 0.1793213 0.9228516
vt 0.1793213 0.9223633
vt 0.1914063 0.9228516
vt 0.1914063 0.9233398
vt 0.1793213 0.9233398
vt 0.1793213 0.9233398
vt 0.1793213 0.9228516
vt 0.1793213 0.9233398
vt 0.1793213 0.9228516
vt 0.1793213 0.9223633
vt 0.1793213 0.9223633
vt 0.1793213 0.9233398
vt 0.1914063 0.9233398
vt 0.1623535 0.9038086
vt 0.1572266 0.9038086
vn -0.1551514 -0.1551514 -0.9755859
vn 0.1551514 -0.1551514 -0.9755859
vn 0.1551514 0.1551514 -0.9755859
vn -0.1551514 0.1551514 -0.9755859
vn -0.8706055 -0.100769 -0.4814453
vn -0.8666992 0.07904053 -0.4926758
vn -0.9848633 -0.1737061 0
vn -0.9790039 0.2049561 0
vn -0.9848633 -0.1737061 0
vn -0.9790039 0.2049561 0
vn -0.8706055 -0.100769 0.4814453
vn -0.8666992 0.07904053 0.4926758
vn -0.1551514 -0.1551514 0.9755859
vn -0.1551514 0.1551514 0.9755859
vn 0.1551514 -0.1551514 0.9755859
vn 0.1551514 0.1551514 0.9755859
vn 0.8706055 -0.100769 0.4814453
vn 0.8706055 0.100769 0.4814453
vn 0.9995117 0.03210449 0
vn 0.9848633 -0.1737061 0
vn 0.9995117 0.03210449 0
vn 0.9848633 -0.1737061 0
vn 0.8706055 0.100769 -0.4814453
vn 0.8706055 -0.100769 -0.4814453
vn 0.1551514 -0.1551514 -0.9755859
vn 0.1551514 0.1551514 -0.9755859
vn 0.8706055 0.100769 0.4814453
vn 0.2504883 0.9682617 0
vn 0.9995117 0.03210449 0
vn 0.1112061 0.8398438 0.53125
vn 0.1551514 0.1551514 0.9755859
vn -0.1551514 0.1551514 0.9755859
vn -0.08740234 0.8339844 0.5444336
vn -0.8666992 0.07904053 0.4926758
vn -0.9790039 0.2049561 0
vn -0.737793 0.6748047 0
vn -0.9790039 0.2049561 0
vn -0.737793 0.6748047 0
vn -0.8666992 0.07904053 -0.4926758
vn -0.08740234 0.8339844 -0.5444336
vn -0.1551514 0.1551514 -0.9755859
vn 0.1551514 0.1551514 -0.9755859
vn 0.1112061 0.8398438 -0.53125
vn 0.2504883 0.9682617 0
vn 0.8706055 0.100769 -0.4814453
vn 0.9995117 0.03210449 0
vn 0.1551514 -0.1551514 0.9755859
vn -0.100769 -0.8706055 0.4814453
vn -0.1551514 -0.1551514 0.9755859
vn -0.8706055 -0.100769 0.4814453
vn 0.100769 -0.8706055 0.4814453
vn 0.8706055 -0.100769 0.4814453
vn 0.9848633 -0.1737061 0
vn 0.1737061 -0.9848633 0
vn 0.9848633 -0.1737061 0
vn -0.1737061 -0.9848633 0
vn -0.9848633 -0.1737061 0
vn 0.1737061 -0.9848633 0
vn 0.8706055 -0.100769 -0.4814453
vn -0.1737061 -0.9848633 0
vn -0.9848633 -0.1737061 0
vn 0.100769 -0.8706055 -0.4814453
vn 0.1551514 -0.1551514 -0.9755859
vn -0.1551514 -0.1551514 -0.9755859
vn -0.100769 -0.8706055 -0.4814453
vn -0.8706055 -0.100769 -0.4814453
vn 0 0.3740234 0.9272461
vn 0 0.3740234 0.9272461
vn 0 0.3740234 0.9272461
vn 0.8945313 0.4475098 0
vn 0.8945313 0.4475098 0
vn 0.8945313 0.4475098 0
vn 0 0.3740234 -0.9272461
vn 0 0.3740234 -0.9272461
vn 0 0.3740234 -0.9272461
vn -0.8945313 0.4475098 0
vn -0.8945313 0.4475098 0
vn -0.8945313 0.4475098 0
vn 0 0.3740234 0.9272461
vn 0 0.3740234 0.9272461
vn 0 0.3740234 0.9272461
vn 0.8945313 0.4475098 0
vn 0.8945313 0.4475098 0
vn 0.8945313 0.4475098 0
vn 0 0.3740234 -0.9272461
vn 0 0.3740234 -0.9272461
vn 0 0.3740234 -0.9272461
vn -0.8945313 0.4475098 0
vn -0.8945313 0.4475098 0
vn -0.8945313 0.4475098 0
vn 0 0.3740234 0.9272461
vn 0 0.3740234 0.9272461
vn 0 0.3740234 0.9272461
vn 0.8945313 0.4475098 0
vn 0.8945313 0.4475098 0
vn 0.8945313 0.4475098 0
vn 0 0.3740234 -0.9272461
vn 0 0.3740234 -0.9272461
vn 0 0.3740234 -0.9272461
vn -0.8945313 0.4475098 0
vn -0.8945313 0.4475098 0
vn -0.8945313 0.4475098 0
vn 0 0.3740234 0.9272461
vn 0 0.3740234 0.9272461
vn 0 0.3740234 0.9272461
vn 0.8945313 0.4475098 0
vn 0.8945313 0.4475098 0
vn 0.8945313 0.4475098 0
vn 0 0.3740234 -0.9272461
vn 0 0.3740234 -0.9272461
vn 0 0.3740234 -0.9272461
vn -0.8945313 0.4475098 0
vn -0.8945313 0.4475098 0
vn -0.8945313 0.4475098 0
vn 0 -1 0
vn 0 -1 0
vn 0 -1 0
vn 0 -1 0
vn 0 -1 0
vn 0 -1 0
vn 0 -1 0
vn 0 -1 0
vn 0 -1 0
vn 0 -1 0
vn 0 -1 0
vn 0 -1 0
vn 0 -1 0
vn 0 -1 0
vn 0 -1 0
vn 0 -1 0
vn 0 0 1
vn 0.09381104 -0.001083374 0.9956055
vn 0 0 1
vn 0.07897949 -0.0009117126 0.9970703
vn 0.104126 -0.00120163 0.9946289
vn 0.104126 -0.00120163 0.9946289
vn 0.862793 0.5058594 0
vn 0.1469727 0.9892578 0
vn 0.862793 0.5058594 0
vn 0.1469727 0.9892578 0
vn 0 1 0
vn 0 1 0
vn 0.104126 -0.00120163 -0.9946289
vn 0.09381104 -0.00108242 -0.9956055
vn 0.104126 -0.00120163 -0.9946289
vn 0.07897949 -0.0009112358 -0.9970703
vn 0 0 -1
vn 0 0 -1
vn -1 0.01153564 0
vn -1 0.01153564 0
vn 0.862793 0.5058594 0
vn 0.862793 0.5058594 0
g Hand_right.012_0
f 3/3/3 2/2/2 1/1/1
f 4/4/4 3/3/3 1/1/1
f 1/1/1 5/5/5 4/4/4
f 5/5/5 6/6/6 4/4/4
f 6/6/6 5/5/5 7/7/7
f 8/8/8 6/6/6 7/7/7
f 8/8/8 7/7/7 9/9/9
f 10/10/10 8/8/8 9/9/9
f 10/10/10 9/9/9 11/11/11
f 12/12/12 10/10/10 11/11/11
f 11/11/11 13/13/13 12/12/12
f 13/13/13 14/14/14 12/12/12
f 14/14/14 13/13/13 15/15/15
f 16/16/16 14/14/14 15/15/15
f 15/15/15 17/17/17 16/16/16
f 17/17/17 18/18/18 16/16/16
f 18/18/18 17/17/17 19/19/19
f 17/17/17 20/20/20 19/19/19
f 19/19/19 20/20/20 21/21/21
f 20/20/20 22/22/22 21/21/21
f 21/21/21 22/22/22 23/23/23
f 22/22/22 24/24/24 23/23/23
f 24/24/24 25/25/25 23/23/23
f 25/25/25 26/26/26 23/23/23
f 29/29/29 28/28/28 27/27/27
f 28/28/28 30/30/30 27/27/27
f 31/31/31 27/27/27 30/30/30
f 32/32/32 31/31/31 30/30/30
f 30/30/30 28/28/28 33/33/33
f 33/33/33 32/32/32 30/30/30
f 32/32/32 33/33/33 34/34/34
f 35/35/35 34/34/34 33/33/33
f 28/28/28 36/36/36 33/33/33
f 36/36/36 35/35/35 33/33/33
f 37/37/37 35/35/35 36/36/36
f 38/38/38 37/37/37 36/36/36
f 39/39/39 37/37/37 38/38/38
f 40/40/40 39/39/39 38/38/38
f 39/39/39 40/40/40 41/41/41
f 42/42/42 41/41/41 40/40/40
f 43/43/43 40/40/40 38/38/38
f 43/43/43 42/42/42 40/40/40
f 44/44/44 43/43/43 38/38/38
f 42/42/42 43/43/43 45/45/45
f 43/43/43 44/44/44 46/46/46
f 45/45/45 43/43/43 46/46/46
f 49/49/49 48/48/48 47/47/47
f 49/49/49 50/50/50 48/48/48
f 48/48/48 51/51/51 47/47/47
f 47/47/47 51/51/51 52/52/52
f 53/53/53 52/52/52 51/51/51
f 54/54/54 53/53/53 51/51/51
f 51/51/51 48/48/48 54/54/54
f 55/55/55 53/53/53 54/54/54
f 56/56/56 48/48/48 50/50/50
f 48/48/48 56/56/56 54/54/54
f 57/57/57 56/56/56 50/50/50
f 58/58/58 55/55/55 54/54/54
f 54/54/54 56/56/56 58/58/58
f 59/59/59 55/55/55 58/58/58
f 60/60/60 56/56/56 57/57/57
f 56/56/56 60/60/60 58/58/58
f 61/61/61 60/60/60 57/57/57
f 62/62/62 59/59/59 58/58/58
f 58/58/58 60/60/60 62/62/62
f 63/63/63 59/59/59 62/62/62
f 63/63/63 62/62/62 64/64/64
f 65/65/65 60/60/60 61/61/61
f 60/60/60 65/65/65 62/62/62
f 62/62/62 65/65/65 64/64/64
f 66/66/66 65/65/65 61/61/61
f 66/66/66 64/64/64 65/65/65
g Hand_right.012_1
f 69/69/69 68/68/68 67/67/67
f 72/72/72 71/71/71 70/70/70
f 75/75/75 74/74/74 73/73/73
f 78/78/78 77/77/77 76/76/76
f 81/81/81 80/80/80 79/79/79
f 84/84/84 83/83/83 82/82/82
f 87/87/87 86/86/86 85/85/85
f 90/90/90 89/89/89 88/88/88
f 93/93/93 92/92/92 91/91/91
f 96/96/96 95/95/95 94/94/94
f 99/99/99 98/98/98 97/97/97
f 102/102/102 101/101/101 100/100/100
f 105/105/105 104/104/104 103/103/103
f 108/108/108 107/107/107 106/106/106
f 111/111/111 110/110/110 109/109/109
f 114/114/114 113/113/113 112/112/112
f 117/117/117 116/116/116 115/115/115
f 118/118/118 117/117/117 115/115/115
f 121/121/121 120/120/120 119/119/119
f 122/122/122 121/121/121 119/119/119
f 125/125/125 124/124/124 123/123/123
f 126/126/126 125/125/125 123/123/123
f 129/129/129 128/128/128 127/127/127
f 130/130/130 129/129/129 127/127/127
g Hand_right.012_2
f 133/133/133 132/132/132 131/131/131
f 132/132/132 134/134/134 131/131/131
f 132/132/132 135/135/135 134/134/134
f 135/135/135 136/136/136 134/134/134
f 139/139/139 138/138/138 137/137/137
f 138/138/138 140/140/140 137/137/137
f 140/140/140 138/138/138 141/141/141
f 138/138/138 142/142/142 141/141/141
f 145/145/145 144/144/144 143/143/143
f 144/144/144 146/146/146 143/143/143
f 144/144/144 147/147/147 146/146/146
f 147/147/147 148/148/148 146/146/146
f 149/149/149 38/38/38 36/36/36
f 150/150/150 149/149/149 36/36/36
f 151/151/151 19/19/19 21/21/21
f 152/152/152 151/151/151 21/21/21
