g Hips.018
v -0.1616768 -0.145445 -0.086954
v -0.1399984 -0.0889299 -0.1434676
v -0.2061177 -0.0889299 -0.1434676
v -0.2061177 -0.1454449 -0.086954
v -0.2626322 -0.08892991 -0.08695399
v -0.2626322 -0.08892993 0.08695396
v -0.2061177 -0.145445 0.08695396
v -0.1399984 -0.145445 0.08695396
v -0.2061177 -0.08892994 0.1434676
v -0.1399984 -0.08892994 0.1434676
v -0.2061177 -0.08892994 0.1434676
v -0.1363441 5.587935E-09 0.1434676
v -0.1399984 -0.08892994 0.1434676
v -0.2061177 5.587935E-09 0.1434676
v -0.1399984 0.08892995 0.1434676
v -0.2061177 0.08892995 0.1434676
v -0.2626322 0.08892995 0.086954
v -0.2626322 1.117587E-08 0.08695398
v -0.2626322 -0.08892993 0.08695396
v -0.2626322 -0.08892991 -0.08695399
v -0.2626322 4.470348E-08 -0.08695398
v -0.2626322 0.08892999 -0.08695396
v -0.2061177 0.08893 -0.1434676
v -0.2061177 5.029142E-08 -0.1434676
v -0.2061177 -0.0889299 -0.1434676
v -0.08631887 0.08893 -0.1434676
v -0.1399984 -0.0889299 -0.1434676
v -0.1023244 5.029142E-08 -0.1434676
v -0.1399984 0.145445 0.08695401
v -0.1399984 0.08892995 0.1434676
v -0.2061177 0.08892995 0.1434676
v -0.2061177 0.145445 0.08695401
v -0.2626322 0.08892995 0.086954
v -0.1399984 0.145445 -0.08695395
v -0.2626322 0.08892999 -0.08695396
v -0.2061177 0.145445 -0.08695395
v -0.08631887 0.08893 -0.1434676
v -0.2061177 0.08893 -0.1434676
v 0.1616768 -0.145445 -0.086954
v 0.2061177 -0.0889299 -0.1434676
v 0.1399984 -0.0889299 -0.1434676
v 0.2061177 -0.1454449 -0.086954
v 0.2626322 -0.08892991 -0.08695399
v 0.2626322 -0.08892993 0.08695396
v 0.2061177 -0.145445 0.08695396
v 0.1399984 -0.145445 0.08695396
v 0.2061177 -0.08892994 0.1434676
v 0.1399984 -0.08892994 0.1434676
v 0.1399984 0.145445 0.08695401
v 0.2061177 0.08892995 0.1434676
v 0.1399984 0.08892995 0.1434676
v 0.2061177 0.145445 0.08695401
v 0.2626322 0.08892995 0.086954
v 0.1399984 0.145445 -0.08695395
v 0.2626322 0.08892999 -0.08695396
v 0.2061177 0.145445 -0.08695395
v 0.08631887 0.08893 -0.1434676
v 0.2061177 0.08893 -0.1434676
v 0.2061177 -0.08892994 0.1434676
v 0.1399984 -0.08892994 0.1434676
v 0.1363441 5.587935E-09 0.1434676
v 0.2061177 5.587935E-09 0.1434676
v 0.1399984 0.08892995 0.1434676
v 0.2061177 0.08892995 0.1434676
v 0.2626322 0.08892995 0.086954
v 0.2626322 1.117587E-08 0.08695398
v 0.2626322 -0.08892993 0.08695396
v 0.2626322 -0.08892991 -0.08695399
v 0.2626322 4.470348E-08 -0.08695398
v 0.2626322 0.08892999 -0.08695396
v 0.2061177 0.08893 -0.1434676
v 0.2061177 5.029142E-08 -0.1434676
v 0.2061177 -0.0889299 -0.1434676
v 0.1399984 -0.0889299 -0.1434676
v 0.1023244 5.029142E-08 -0.1434676
v 0.08631887 0.08893 -0.1434676
v 0 0.08892995 0.1434676
v 0 5.587935E-09 0.1434676
v 0 -0.08892994 0.1434676
v 0 0.145445 0.08695401
v 0 0.08892995 0.1434676
v 0 0.145445 -0.08695395
v 0 0.08893 -0.1434676
v 0 -0.08892994 0.1434676
v 0 -0.145445 0.08695396
v 0 -0.1454449 -0.086954
v 0 -0.0889299 -0.1434676
v 0 0.08893 -0.1434676
v 0 0.145445 -0.08695395
v 0 0.145445 0.08695401
v 0 0.08892995 0.1434676
v 0 -0.08892994 0.1434676
v 0 -0.145445 0.08695396
v 0 -0.1454449 -0.086954
v 0 -0.0889299 -0.1434676
v 0 0.08892995 0.1434676
v 0 5.587935E-09 0.1434676
v 0 -0.08892994 0.1434676
v 0 -0.0889299 -0.1434676
v 0 5.029142E-08 -0.1434676
v 0 0.08893 -0.1434676
v 0 5.029142E-08 -0.1434676
v 0 0.08893 -0.1434676
v 0 -0.0889299 -0.1434676
vt 0.2132568 0.7895508
vt 0.2099609 0.7890625
vt 0.2199707 0.7890625
vt 0.2199707 0.7895508
vt 0.2286377 0.7895508
vt 0.2286377 0.7905273
vt 0.2199707 0.7905273
vt 0.2099609 0.7905273
vt 0.2199707 0.7910156
vt 0.2099609 0.7910156
vt 0.1882324 0.8178711
vt 0.1837158 0.8286133
vt 0.1837158 0.8178711
vt 0.1882324 0.8286133
vt 0.1837158 0.8398438
vt 0.1882324 0.8398438
vt 0.1921387 0.8398438
vt 0.1921387 0.8286133
vt 0.1921387 0.8178711
vt 0.2034912 0.8178711
vt 0.2034912 0.8286133
vt 0.2034912 0.8398438
vt 0.2073975 0.8398438
vt 0.2073975 0.8286133
vt 0.2073975 0.8178711
vt 0.2119141 0.8398438
vt 0.2119141 0.8178711
vt 0.2119141 0.8286133
vt 0.2145996 0.8701172
vt 0.2145996 0.8696289
vt 0.2253418 0.8696289
vt 0.2253418 0.8701172
vt 0.2346191 0.8701172
vt 0.2145996 0.8710938
vt 0.2346191 0.8710938
vt 0.2253418 0.8710938
vt 0.2145996 0.8710938
vt 0.2253418 0.8710938
vt 0.2132568 0.7895508
vt 0.2199707 0.7890625
vt 0.2099609 0.7890625
vt 0.2199707 0.7895508
vt 0.2286377 0.7895508
vt 0.2286377 0.7905273
vt 0.2199707 0.7905273
vt 0.2099609 0.7905273
vt 0.2199707 0.7910156
vt 0.2099609 0.7910156
vt 0.2145996 0.8701172
vt 0.2253418 0.8696289
vt 0.2145996 0.8696289
vt 0.2253418 0.8701172
vt 0.2346191 0.8701172
vt 0.2145996 0.8710938
vt 0.2346191 0.8710938
vt 0.2253418 0.8710938
vt 0.2145996 0.8710938
vt 0.2253418 0.8710938
vt 0.1882324 0.8178711
vt 0.1837158 0.8178711
vt 0.1837158 0.8286133
vt 0.1882324 0.8286133
vt 0.1837158 0.8398438
vt 0.1882324 0.8398438
vt 0.1921387 0.8398438
vt 0.1921387 0.8286133
vt 0.1921387 0.8178711
vt 0.2034912 0.8178711
vt 0.2034912 0.8286133
vt 0.2034912 0.8398438
vt 0.2073975 0.8398438
vt 0.2073975 0.8286133
vt 0.2073975 0.8178711
vt 0.2119141 0.8178711
vt 0.2119141 0.8286133
vt 0.2119141 0.8398438
vt 0.1740723 0.8398438
vt 0.1740723 0.8286133
vt 0.1740723 0.8178711
vt 0.1916504 0.8701172
vt 0.1916504 0.8696289
vt 0.1916504 0.8710938
vt 0.1916504 0.8710938
vt 0.1884766 0.7910156
vt 0.1884766 0.7905273
vt 0.1884766 0.7895508
vt 0.1884766 0.7890625
vt 0.1916504 0.8710938
vt 0.1916504 0.8710938
vt 0.1916504 0.8701172
vt 0.1916504 0.8696289
vt 0.1884766 0.7910156
vt 0.1884766 0.7905273
vt 0.1884766 0.7895508
vt 0.1884766 0.7890625
vt 0.1740723 0.8398438
vt 0.1740723 0.8286133
vt 0.1740723 0.8178711
vt 0.2216797 0.8178711
vt 0.2216797 0.8286133
vt 0.2216797 0.8398438
vt 0.2216797 0.8286133
vt 0.2216797 0.8398438
vt 0.2216797 0.8178711
vn 0 -0.9731445 -0.230835
vn 0 -0.385498 -0.9228516
vn -0.2340088 -0.2741699 -0.9326172
vn -0.4133301 -0.8964844 -0.1589355
vn -0.9291992 -0.3505859 -0.1151733
vn -0.9291992 -0.3225098 0.1802979
vn -0.4033203 -0.8974609 0.1777344
vn 0 -0.9726563 0.2321777
vn -0.3447266 -0.2717285 0.8984375
vn 0 -0.3640137 0.9316406
vn -0.3447266 -0.2717285 0.8984375
vn 0 0 1
vn 0 -0.3640137 0.9316406
vn -0.4133301 0 0.9106445
vn 0 0.3640137 0.9316406
vn -0.3447266 0.2717285 0.8984375
vn -0.9291992 0.3225098 0.1802979
vn -0.9711914 0 0.2381592
vn -0.9291992 -0.3225098 0.1802979
vn -0.9291992 -0.3505859 -0.1151733
vn -0.9814453 0 -0.1922607
vn -0.9291992 0.3225098 -0.1802979
vn -0.3232422 0.3354492 -0.8847656
vn -0.3505859 0 -0.9365234
vn -0.2340088 -0.2741699 -0.9326172
vn 0 0.4240723 -0.9057617
vn 0 -0.385498 -0.9228516
vn 0 0 -1
vn 0 0.9711914 0.2381592
vn 0 0.3640137 0.9316406
vn -0.3447266 0.2717285 0.8984375
vn -0.3793945 0.9101563 0.1672363
vn -0.9291992 0.3225098 0.1802979
vn 0 0.9726563 -0.2319336
vn -0.9291992 0.3225098 -0.1802979
vn -0.3586426 0.9101563 -0.2080078
vn 0 0.4240723 -0.9057617
vn -0.3232422 0.3354492 -0.8847656
vn 0 -0.9731445 -0.230835
vn 0.3322754 -0.2285156 -0.9150391
vn 0 -0.385498 -0.9228516
vn 0.4133301 -0.8964844 -0.1589355
vn 0.9291992 -0.3225098 -0.1802979
vn 0.9291992 -0.3225098 0.1802979
vn 0.4033203 -0.8974609 0.1777344
vn 0 -0.9726563 0.2321777
vn 0.3447266 -0.2717285 0.8984375
vn 0 -0.3640137 0.9316406
vn 0 0.9711914 0.2381592
vn 0.3447266 0.2717285 0.8984375
vn 0 0.3640137 0.9316406
vn 0.3793945 0.9101563 0.1672363
vn 0.9291992 0.3225098 0.1802979
vn 0 0.9726563 -0.2319336
vn 0.9291992 0.3225098 -0.1802979
vn 0.3586426 0.9101563 -0.2080078
vn 0 0.3710938 -0.9287109
vn 0.2644043 0.2744141 -0.9243164
vn 0.3447266 -0.2717285 0.8984375
vn 0 -0.3640137 0.9316406
vn 0 0 1
vn 0.4133301 0 0.9106445
vn 0 0.3640137 0.9316406
vn 0.3447266 0.2717285 0.8984375
vn 0.9291992 0.3225098 0.1802979
vn 0.9711914 0 0.2381592
vn 0.9291992 -0.3225098 0.1802979
vn 0.9291992 -0.3225098 -0.1802979
vn 0.9711914 0 -0.2381592
vn 0.9291992 0.3225098 -0.1802979
vn 0.2644043 0.2744141 -0.9243164
vn 0.3427734 0 -0.9394531
vn 0.3322754 -0.2285156 -0.9150391
vn 0 -0.385498 -0.9228516
vn 0 0 -1
vn 0 0.3710938 -0.9287109
vn 0 0.3647461 0.9311523
vn 0 0 1
vn 0 -0.3647461 0.9311523
vn 0 0.9711914 0.2381592
vn 0 0.3647461 0.9311523
vn 0 0.9790039 -0.2036133
vn 0 0.3969727 -0.9179688
vn 0 -0.3647461 0.9311523
vn 0 -0.9741211 0.225708
vn 0 -0.9711914 -0.2381592
vn 0 -0.4040527 -0.9145508
vn 0 0.3969727 -0.9179688
vn 0 0.9790039 -0.2036133
vn 0 0.9711914 0.2381592
vn 0 0.3647461 0.9311523
vn 0 -0.3647461 0.9311523
vn 0 -0.9741211 0.225708
vn 0 -0.9711914 -0.2381592
vn 0 -0.4040527 -0.9145508
vn 0 0.3647461 0.9311523
vn 0 0 1
vn 0 -0.3647461 0.9311523
vn 0 -0.4040527 -0.9145508
vn 0 0 -1
vn 0 0.3969727 -0.9179688
vn 0 0 -1
vn 0 0.3969727 -0.9179688
vn 0 -0.4040527 -0.9145508
g Hips.018_0
f 3/3/3 2/2/2 1/1/1
f 4/4/4 3/3/3 1/1/1
f 3/3/3 4/4/4 5/5/5
f 5/5/5 4/4/4 6/6/6
f 7/7/7 4/4/4 1/1/1
f 4/4/4 7/7/7 6/6/6
f 8/8/8 7/7/7 1/1/1
f 9/9/9 6/6/6 7/7/7
f 7/7/7 8/8/8 10/10/10
f 9/9/9 7/7/7 10/10/10
f 13/13/13 12/12/12 11/11/11
f 12/12/12 14/14/14 11/11/11
f 12/12/12 15/15/15 14/14/14
f 15/15/15 16/16/16 14/14/14
f 16/16/16 17/17/17 14/14/14
f 14/14/14 18/18/18 11/11/11
f 17/17/17 18/18/18 14/14/14
f 18/18/18 19/19/19 11/11/11
f 19/19/19 18/18/18 20/20/20
f 18/18/18 17/17/17 21/21/21
f 18/18/18 21/21/21 20/20/20
f 17/17/17 22/22/22 21/21/21
f 21/21/21 22/22/22 23/23/23
f 21/21/21 24/24/24 20/20/20
f 24/24/24 21/21/21 23/23/23
f 25/25/25 20/20/20 24/24/24
f 26/26/26 24/24/24 23/23/23
f 27/27/27 25/25/25 24/24/24
f 26/26/26 28/28/28 24/24/24
f 28/28/28 27/27/27 24/24/24
f 31/31/31 30/30/30 29/29/29
f 32/32/32 31/31/31 29/29/29
f 31/31/31 32/32/32 33/33/33
f 29/29/29 34/34/34 32/32/32
f 35/35/35 33/33/33 32/32/32
f 34/34/34 36/36/36 32/32/32
f 36/36/36 35/35/35 32/32/32
f 36/36/36 34/34/34 37/37/37
f 36/36/36 38/38/38 35/35/35
f 38/38/38 36/36/36 37/37/37
f 41/41/41 40/40/40 39/39/39
f 40/40/40 42/42/42 39/39/39
f 42/42/42 40/40/40 43/43/43
f 42/42/42 43/43/43 44/44/44
f 42/42/42 45/45/45 39/39/39
f 45/45/45 42/42/42 44/44/44
f 45/45/45 46/46/46 39/39/39
f 44/44/44 47/47/47 45/45/45
f 46/46/46 45/45/45 48/48/48
f 45/45/45 47/47/47 48/48/48
f 51/51/51 50/50/50 49/49/49
f 50/50/50 52/52/52 49/49/49
f 52/52/52 50/50/50 53/53/53
f 54/54/54 49/49/49 52/52/52
f 53/53/53 55/55/55 52/52/52
f 56/56/56 54/54/54 52/52/52
f 55/55/55 56/56/56 52/52/52
f 54/54/54 56/56/56 57/57/57
f 58/58/58 56/56/56 55/55/55
f 56/56/56 58/58/58 57/57/57
f 61/61/61 60/60/60 59/59/59
f 62/62/62 61/61/61 59/59/59
f 63/63/63 61/61/61 62/62/62
f 64/64/64 63/63/63 62/62/62
f 65/65/65 64/64/64 62/62/62
f 66/66/66 62/62/62 59/59/59
f 66/66/66 65/65/65 62/62/62
f 67/67/67 66/66/66 59/59/59
f 66/66/66 67/67/67 68/68/68
f 65/65/65 66/66/66 69/69/69
f 69/69/69 66/66/66 68/68/68
f 70/70/70 65/65/65 69/69/69
f 70/70/70 69/69/69 71/71/71
f 69/69/69 68/68/68 72/72/72
f 69/69/69 72/72/72 71/71/71
f 68/68/68 73/73/73 72/72/72
f 73/73/73 74/74/74 72/72/72
f 74/74/74 75/75/75 72/72/72
f 72/72/72 75/75/75 71/71/71
f 75/75/75 76/76/76 71/71/71
g Hips.018_1
f 77/77/77 15/15/15 12/12/12
f 78/78/78 77/77/77 12/12/12
f 78/78/78 12/12/12 13/13/13
f 79/79/79 78/78/78 13/13/13
f 30/30/30 81/81/81 80/80/80
f 29/29/29 30/30/30 80/80/80
f 80/80/80 82/82/82 29/29/29
f 82/82/82 34/34/34 29/29/29
f 34/34/34 82/82/82 83/83/83
f 37/37/37 34/34/34 83/83/83
f 10/10/10 8/8/8 84/84/84
f 8/8/8 85/85/85 84/84/84
f 85/85/85 8/8/8 86/86/86
f 8/8/8 1/1/1 86/86/86
f 1/1/1 2/2/2 86/86/86
f 2/2/2 87/87/87 86/86/86
f 54/54/54 57/57/57 88/88/88
f 89/89/89 54/54/54 88/88/88
f 54/54/54 89/89/89 49/49/49
f 89/89/89 90/90/90 49/49/49
f 51/51/51 49/49/49 90/90/90
f 91/91/91 51/51/51 90/90/90
f 46/46/46 48/48/48 92/92/92
f 93/93/93 46/46/46 92/92/92
f 46/46/46 93/93/93 94/94/94
f 39/39/39 46/46/46 94/94/94
f 41/41/41 39/39/39 94/94/94
f 95/95/95 41/41/41 94/94/94
f 63/63/63 96/96/96 61/61/61
f 96/96/96 97/97/97 61/61/61
f 61/61/61 97/97/97 60/60/60
f 97/97/97 98/98/98 60/60/60
f 74/74/74 99/99/99 75/75/75
f 99/99/99 100/100/100 75/75/75
f 75/75/75 100/100/100 76/76/76
f 100/100/100 101/101/101 76/76/76
f 103/103/103 102/102/102 26/26/26
f 102/102/102 28/28/28 26/26/26
f 102/102/102 104/104/104 28/28/28
f 104/104/104 27/27/27 28/28/28
