g LowerArm_right.016
v 0.2141718 0.07662708 0.0766274
v 0.2141715 0.0766271 -0.07662817
v 0.2141715 -0.07662714 -0.07662816
v 0.2141718 -0.07662705 0.07662742
v 0.181336 0.07662707 0.1094619
v 0.181336 -0.07662705 0.1094619
v -0.08204286 -0.07662705 0.1094624
v -0.08204286 0.07662707 0.1094624
v -0.1266403 -0.07662705 0.1094625
v -0.1266403 0.07662707 0.1094625
v -0.1594761 0.07662708 0.07662807
v -0.1594761 -0.07662705 0.07662807
v -0.1594764 -0.07662714 -0.07662751
v -0.1594764 0.0766271 -0.07662751
v -0.1266406 0.07662711 -0.109462
v -0.1594764 0.0766271 -0.07662751
v -0.1594764 -0.07662714 -0.07662751
v -0.1266406 -0.07662713 -0.109462
v -0.08204321 -0.07662713 -0.1094621
v -0.08204321 0.07662711 -0.1094621
v 0.1813356 -0.07662713 -0.1094626
v 0.1813356 0.07662711 -0.1094626
v 0.2141715 0.0766271 -0.07662817
v 0.2141715 -0.07662714 -0.07662816
v -0.08204321 0.07662711 -0.1094621
v -0.1266405 0.1094627 -0.07662757
v -0.1266406 0.07662711 -0.109462
v -0.1594764 0.0766271 -0.07662751
v -0.08204315 0.1094627 -0.07662766
v 0.1813356 0.07662711 -0.1094626
v -0.1266403 0.1094627 0.07662801
v -0.1594761 0.07662708 0.07662807
v -0.1266403 0.07662707 0.1094625
v -0.08204292 0.1094627 0.07662792
v -0.08204286 0.07662707 0.1094624
v 0.1813356 0.1094627 -0.07662812
v 0.2141715 0.0766271 -0.07662817
v 0.2141718 0.07662708 0.0766274
v 0.1813359 0.1094627 0.07662746
v 0.181336 0.07662707 0.1094619
v -0.1594764 -0.07662714 -0.07662751
v -0.1266405 -0.1094628 -0.07662755
v -0.1266406 -0.07662713 -0.109462
v -0.1594761 -0.07662705 0.07662807
v -0.08204315 -0.1094628 -0.07662763
v -0.08204321 -0.07662713 -0.1094621
v -0.1266403 -0.1094627 0.07662804
v -0.1266403 -0.07662705 0.1094625
v -0.08204286 -0.07662705 0.1094624
v -0.08204292 -0.1094627 0.07662794
v 0.181336 -0.07662705 0.1094619
v 0.1813356 -0.1094628 -0.07662809
v 0.1813356 -0.07662713 -0.1094626
v 0.2141715 -0.07662714 -0.07662816
v 0.1813359 -0.1094627 0.07662748
v 0.2141718 -0.07662705 0.07662742
vt 0.08496094 0.7827148
vt 0.08496094 0.784668
vt 0.06835938 0.784668
vt 0.06835938 0.7827148
vt 0.08496094 0.7817383
vt 0.06835938 0.7817383
vt 0.06835938 0.7456055
vt 0.08496094 0.7456055
vt 0.06835938 0.7397461
vt 0.08496094 0.7397461
vt 0.08496094 0.7387695
vt 0.06835938 0.7387695
vt 0.06835938 0.7373047
vt 0.08496094 0.7373047
vt 0.02694702 0.7397461
vt 0.02694702 0.7387695
vt 0.04351807 0.7387695
vt 0.04351807 0.7397461
vt 0.04351807 0.7456055
vt 0.02694702 0.7456055
vt 0.04351807 0.7817383
vt 0.02694702 0.7817383
vt 0.02694702 0.7827148
vt 0.04351807 0.7827148
vt 0.109375 0.769043
vt 0.1057129 0.7626953
vt 0.109375 0.7626953
vt 0.1057129 0.7587891
vt 0.1057129 0.769043
vt 0.109375 0.8046875
vt 0.08862305 0.7626953
vt 0.08862305 0.7587891
vt 0.08496094 0.7626953
vt 0.08862305 0.769043
vt 0.08496094 0.769043
vt 0.1057129 0.8046875
vt 0.1057129 0.809082
vt 0.08862305 0.809082
vt 0.08862305 0.8046875
vt 0.08496094 0.8046875
vt 0.04724121 0.7163086
vt 0.04724121 0.7207031
vt 0.04351807 0.7207031
vt 0.06463623 0.7163086
vt 0.04724121 0.7270508
vt 0.04351807 0.7270508
vt 0.06463623 0.7207031
vt 0.06835938 0.7207031
vt 0.06835938 0.7270508
vt 0.06463623 0.7270508
vt 0.06835938 0.7631836
vt 0.04724121 0.7631836
vt 0.04351807 0.7631836
vt 0.04724121 0.7675781
vt 0.06463623 0.7631836
vt 0.06463623 0.7675781
vn 0.9755859 0.1551514 0.1551514
vn 0.9755859 0.1551514 -0.1551514
vn 0.9755859 -0.1551514 -0.1551514
vn 0.9755859 -0.1551514 0.1551514
vn 0.09729004 0.1625977 0.9819336
vn 0.09729004 -0.1625977 0.9819336
vn 0 -0.1737061 0.9848633
vn 0 0.1737061 0.9848633
vn -0.3635254 -0.1229858 0.9233398
vn -0.3635254 0.1229858 0.9233398
vn -0.9755859 0.1551514 0.1551514
vn -0.9755859 -0.1551514 0.1551514
vn -0.9755859 -0.1551514 -0.1551514
vn -0.9755859 0.1551514 -0.1551514
vn -0.3635254 0.1229858 -0.9233398
vn -0.9755859 0.1551514 -0.1551514
vn -0.9755859 -0.1551514 -0.1551514
vn -0.3635254 -0.1229858 -0.9233398
vn 0 -0.1737061 -0.9848633
vn 0 0.1737061 -0.9848633
vn 0.09729004 -0.1625977 -0.9819336
vn 0.09729004 0.1625977 -0.9819336
vn 0.9755859 0.1551514 -0.1551514
vn 0.9755859 -0.1551514 -0.1551514
vn 0 0.1737061 -0.9848633
vn -0.3635254 0.9233398 -0.1229858
vn -0.3635254 0.1229858 -0.9233398
vn -0.9755859 0.1551514 -0.1551514
vn 0 0.9848633 -0.1737061
vn 0.09729004 0.1625977 -0.9819336
vn -0.3635254 0.9233398 0.1229858
vn -0.9755859 0.1551514 0.1551514
vn -0.3635254 0.1229858 0.9233398
vn 0 0.9848633 0.1737061
vn 0 0.1737061 0.9848633
vn 0.09729004 0.9819336 -0.1625977
vn 0.9755859 0.1551514 -0.1551514
vn 0.9755859 0.1551514 0.1551514
vn 0.09729004 0.9819336 0.1625977
vn 0.09729004 0.1625977 0.9819336
vn -0.9755859 -0.1551514 -0.1551514
vn -0.3635254 -0.9233398 -0.1229858
vn -0.3635254 -0.1229858 -0.9233398
vn -0.9755859 -0.1551514 0.1551514
vn 0 -0.9848633 -0.1737061
vn 0 -0.1737061 -0.9848633
vn -0.3635254 -0.9233398 0.1229858
vn -0.3635254 -0.1229858 0.9233398
vn 0 -0.1737061 0.9848633
vn 0 -0.9848633 0.1737061
vn 0.09729004 -0.1625977 0.9819336
vn 0.09729004 -0.9819336 -0.1625977
vn 0.09729004 -0.1625977 -0.9819336
vn 0.9755859 -0.1551514 -0.1551514
vn 0.09729004 -0.9819336 0.1625977
vn 0.9755859 -0.1551514 0.1551514
g LowerArm_right.016_0
f 3/3/3 2/2/2 1/1/1
f 4/4/4 3/3/3 1/1/1
f 1/1/1 5/5/5 4/4/4
f 5/5/5 6/6/6 4/4/4
f 6/6/6 5/5/5 7/7/7
f 5/5/5 8/8/8 7/7/7
f 7/7/7 8/8/8 9/9/9
f 8/8/8 10/10/10 9/9/9
f 10/10/10 11/11/11 9/9/9
f 11/11/11 12/12/12 9/9/9
f 12/12/12 11/11/11 13/13/13
f 11/11/11 14/14/14 13/13/13
f 17/17/17 16/16/16 15/15/15
f 18/18/18 17/17/17 15/15/15
f 19/19/19 18/18/18 15/15/15
f 20/20/20 19/19/19 15/15/15
f 21/21/21 19/19/19 20/20/20
f 22/22/22 21/21/21 20/20/20
f 21/21/21 22/22/22 23/23/23
f 24/24/24 21/21/21 23/23/23
f 27/27/27 26/26/26 25/25/25
f 26/26/26 27/27/27 28/28/28
f 26/26/26 29/29/29 25/25/25
f 25/25/25 29/29/29 30/30/30
f 26/26/26 28/28/28 31/31/31
f 29/29/29 26/26/26 31/31/31
f 28/28/28 32/32/32 31/31/31
f 33/33/33 31/31/31 32/32/32
f 31/31/31 33/33/33 34/34/34
f 34/34/34 29/29/29 31/31/31
f 33/33/33 35/35/35 34/34/34
f 29/29/29 36/36/36 30/30/30
f 36/36/36 29/29/29 34/34/34
f 36/36/36 37/37/37 30/30/30
f 37/37/37 36/36/36 38/38/38
f 34/34/34 35/35/35 39/39/39
f 39/39/39 36/36/36 34/34/34
f 36/36/36 39/39/39 38/38/38
f 35/35/35 40/40/40 39/39/39
f 40/40/40 38/38/38 39/39/39
f 43/43/43 42/42/42 41/41/41
f 41/41/41 42/42/42 44/44/44
f 42/42/42 43/43/43 45/45/45
f 43/43/43 46/46/46 45/45/45
f 42/42/42 47/47/47 44/44/44
f 47/47/47 42/42/42 45/45/45
f 48/48/48 44/44/44 47/47/47
f 48/48/48 47/47/47 49/49/49
f 47/47/47 50/50/50 49/49/49
f 50/50/50 47/47/47 45/45/45
f 49/49/49 50/50/50 51/51/51
f 45/45/45 46/46/46 52/52/52
f 50/50/50 45/45/45 52/52/52
f 46/46/46 53/53/53 52/52/52
f 53/53/53 54/54/54 52/52/52
f 50/50/50 55/55/55 51/51/51
f 55/55/55 50/50/50 52/52/52
f 52/52/52 54/54/54 55/55/55
f 51/51/51 55/55/55 56/56/56
f 54/54/54 56/56/56 55/55/55
