g LowerArm_right.007
v 0.1821723 0.07210818 0.07492648
v 0.1821723 0.0721082 -0.07492722
v 0.1821723 -0.07774428 -0.07492721
v 0.1821723 -0.07774419 0.0749265
v 0.1821723 0.07210817 0.1070322
v 0.1821723 -0.07774419 0.1070322
v 0.1821723 -0.07774419 0.0749265
v 0.1821723 -0.1098509 0.07492655
v 0.1821723 -0.07774419 0.1070322
v 0.1821723 -0.07774428 -0.07492721
v 0.1821723 -0.109851 -0.07492717
v 0.1821723 -0.07774428 -0.1070328
v 0.0325244 -0.07944512 0.1094622
v 0.0325244 0.07380899 0.1094622
v 0.1821723 0.07210817 0.1070322
v 0.1821723 -0.07774419 0.1070322
v 0.1821723 -0.07774419 0.1070322
v 0.0325244 -0.1122807 0.07662776
v 0.0325244 -0.07944512 0.1094622
v 0.1821723 -0.1098509 0.07492655
v 0.1821723 -0.109851 -0.07492717
v 0.0325244 -0.1122808 -0.0766278
v 0.0325244 -0.07944521 -0.1094623
v 0.1821723 -0.07774428 -0.1070328
v 0.1821723 0.1042148 0.07492653
v 0.1821723 0.07210817 0.1070322
v 0.0325244 0.07380899 0.1094622
v 0.0325244 0.1066446 0.07662774
v 0.1821723 0.1042148 -0.07492719
v 0.0325244 0.1066446 -0.07662782
v 0.1821723 0.0721082 -0.1070328
v 0.0325244 0.07380903 -0.1094623
v 0.0325244 0.07380903 -0.1094623
v 0.0325244 -0.07944521 -0.1094623
v 0.1821723 -0.07774428 -0.1070328
v 0.1821723 0.0721082 -0.1070328
v 0.1821723 0.0721082 -0.07492722
v 0.1821723 0.0721082 -0.1070328
v 0.1821723 -0.07774428 -0.1070328
v 0.1821723 -0.07774428 -0.07492721
v 0.1821723 0.0721082 -0.1070328
v 0.1821723 0.0721082 -0.07492722
v 0.1821723 0.1042148 -0.07492719
v 0.1821723 0.07210818 0.07492648
v 0.1821723 0.1042148 0.07492653
v 0.1821723 0.07210817 0.1070322
v 0.0325244 0.07380899 0.1094622
v 0.0325244 -0.07944512 0.1094622
v 0.0325244 -0.1319375 0.1814861
v 0.0325244 0.1221548 0.1814861
v 0.0325244 -0.07944512 0.1094622
v 0.0325244 -0.1863782 0.1270472
v 0.0325244 -0.1319375 0.1814861
v 0.0325244 -0.1122807 0.07662776
v 0.0325244 -0.1863783 -0.1270474
v 0.0325244 -0.1122808 -0.0766278
v 0.0325244 -0.1319375 -0.1814862
v 0.0325244 -0.07944521 -0.1094623
v 0.0325244 0.1066446 0.07662774
v 0.0325244 0.07380899 0.1094622
v 0.0325244 0.1221548 0.1814861
v 0.0325244 0.2320909 0.1270472
v 0.0325244 0.1066446 -0.07662782
v 0.0325244 0.2320909 -0.1270474
v 0.0325244 0.07380903 -0.1094623
v 0.0325244 0.1221548 -0.1814862
v -0.01829361 0.1052425 -0.1543651
v 0.0325244 -0.1319375 -0.1814862
v 0.0325244 0.1221548 -0.1814862
v -0.01829361 -0.1108787 -0.1543651
v -0.1221391 0.1052425 -0.1543649
v -0.1221391 -0.1108787 -0.1543649
v 0.0325244 -0.07944521 -0.1094623
v 0.0325244 0.07380903 -0.1094623
v 0.0325244 0.1221548 -0.1814862
v 0.0325244 -0.1319375 -0.1814862
v -0.01829361 0.1052425 -0.1543651
v -0.1221391 0.1515477 -0.1080613
v -0.1221391 0.1052425 -0.1543649
v -0.01829361 0.1832405 -0.1080615
v 0.0325244 0.1221548 -0.1814862
v -0.1221391 0.1515477 0.1080618
v 0.0325244 0.2320909 -0.1270474
v -0.01829361 0.1832405 0.1080616
v -0.1221391 0.1052425 0.1543655
v 0.0325244 0.2320909 0.1270472
v -0.01829361 0.1052425 0.1543652
v 0.0325244 0.1221548 0.1814861
v 0.0325244 -0.1863783 -0.1270474
v 0.0325244 -0.1319375 -0.1814862
v -0.01829361 -0.1108787 -0.1543651
v -0.01829361 -0.1571839 -0.1080615
v -0.1221391 -0.1108787 -0.1543649
v -0.1221391 -0.1571839 -0.1080612
v -0.1221391 -0.1571838 0.1080619
v -0.01829361 -0.1571838 0.1080616
v 0.0325244 -0.1863782 0.1270472
v 0.0325244 -0.1319375 0.1814861
v -0.01829361 -0.1108786 0.1543652
v -0.1221391 -0.1108786 0.1543655
v -0.1221391 -0.1108786 0.1543655
v -0.1221391 0.1052425 0.1543655
v -0.01829361 0.1052425 0.1543652
v -0.01829361 -0.1108786 0.1543652
v 0.0325244 0.1221548 0.1814861
v 0.0325244 -0.1319375 0.1814861
v -0.1221391 0.07380899 0.1094625
v -0.1221391 0.1515477 0.1080618
v -0.1221391 0.1052425 0.1543655
v -0.1221391 0.1066446 0.07662801
v -0.1514729 0.073809 0.07662807
v -0.1221391 0.1515477 -0.1080613
v -0.1514732 0.07380902 -0.07662751
v -0.1221391 0.1066446 -0.07662756
v -0.1221391 0.1052425 -0.1543649
v -0.1221391 0.07380903 -0.109462
v -0.1221391 0.07380903 -0.109462
v -0.1221391 -0.1108787 -0.1543649
v -0.1221391 0.1052425 -0.1543649
v -0.1221391 -0.07944521 -0.109462
v -0.1514732 -0.07944521 -0.07662749
v -0.1514732 0.07380902 -0.07662751
v -0.1221391 -0.07944521 -0.109462
v -0.1221391 -0.1571839 -0.1080612
v -0.1221391 -0.1108787 -0.1543649
v -0.1221391 -0.1122808 -0.07662754
v -0.1514732 -0.07944521 -0.07662749
v -0.1221391 -0.1571838 0.1080619
v -0.1514729 -0.07944512 0.07662808
v -0.1221391 -0.1122807 0.07662804
v -0.1221391 -0.1108786 0.1543655
v -0.1221391 -0.07944512 0.1094625
v -0.1514732 -0.07944521 -0.07662749
v -0.1514732 0.07380902 -0.07662751
v -0.1514729 0.073809 0.07662807
v -0.1514729 -0.07944512 0.07662808
v -0.1221391 -0.07944512 0.1094625
v -0.1221391 0.07380899 0.1094625
v -0.1221391 0.1052425 0.1543655
v -0.1221391 -0.1108786 0.1543655
vt 0.08496094 0.7827148
vt 0.08496094 0.784668
vt 0.06835938 0.784668
vt 0.06835938 0.7827148
vt 0.08496094 0.7817383
vt 0.06835938 0.7817383
vt 0.06463623 0.7675781
vt 0.06463623 0.7631836
vt 0.06835938 0.7631836
vt 0.04724121 0.7675781
vt 0.04724121 0.7631836
vt 0.04351807 0.7631836
vt 0.06835938 0.7597656
vt 0.08496094 0.7597656
vt 0.08496094 0.7817383
vt 0.06835938 0.7817383
vt 0.06835938 0.7631836
vt 0.06463623 0.7412109
vt 0.06835938 0.7412109
vt 0.06463623 0.7631836
vt 0.04724121 0.7631836
vt 0.04724121 0.7412109
vt 0.04351807 0.7412109
vt 0.04351807 0.7631836
vt 0.08862305 0.8046875
vt 0.08496094 0.8046875
vt 0.08496094 0.7827148
vt 0.08862305 0.7827148
vt 0.1057129 0.8046875
vt 0.1057129 0.7827148
vt 0.109375 0.8046875
vt 0.109375 0.7827148
vt 0.02694702 0.7597656
vt 0.04351807 0.7597656
vt 0.04351807 0.7817383
vt 0.02694702 0.7817383
vt 0.02694702 0.7827148
vt 0.02694702 0.7817383
vt 0.04351807 0.7817383
vt 0.04351807 0.7827148
vt 0.109375 0.8046875
vt 0.1057129 0.809082
vt 0.1057129 0.8046875
vt 0.08862305 0.809082
vt 0.08862305 0.8046875
vt 0.08496094 0.8046875
vt 0.08496094 0.7597656
vt 0.06835938 0.7597656
vt 0.06835938 0.7597656
vt 0.08496094 0.7597656
vt 0.06835938 0.7412109
vt 0.06463623 0.7412109
vt 0.06835938 0.7412109
vt 0.06463623 0.7412109
vt 0.04724121 0.7412109
vt 0.04724121 0.7412109
vt 0.04351807 0.7412109
vt 0.04351807 0.7412109
vt 0.08862305 0.7827148
vt 0.08496094 0.7827148
vt 0.08496094 0.7827148
vt 0.08862305 0.7827148
vt 0.1057129 0.7827148
vt 0.1057129 0.7827148
vt 0.109375 0.7827148
vt 0.109375 0.7827148
vt 0.02694702 0.753418
vt 0.04351807 0.7597656
vt 0.02694702 0.7597656
vt 0.04351807 0.753418
vt 0.02694702 0.7397461
vt 0.04351807 0.7397461
vt 0.04351807 0.7597656
vt 0.02694702 0.7597656
vt 0.02694702 0.7597656
vt 0.04351807 0.7597656
vt 0.109375 0.7763672
vt 0.1057129 0.7626953
vt 0.109375 0.7626953
vt 0.1057129 0.7763672
vt 0.109375 0.7827148
vt 0.08862305 0.7626953
vt 0.1057129 0.7827148
vt 0.08862305 0.7763672
vt 0.08496094 0.7626953
vt 0.08862305 0.7827148
vt 0.08496094 0.7763672
vt 0.08496094 0.7827148
vt 0.04724121 0.7412109
vt 0.04351807 0.7412109
vt 0.04351807 0.734375
vt 0.04724121 0.734375
vt 0.04351807 0.7207031
vt 0.04724121 0.7207031
vt 0.06463623 0.7207031
vt 0.06463623 0.734375
vt 0.06463623 0.7412109
vt 0.06835938 0.7412109
vt 0.06835938 0.734375
vt 0.06835938 0.7207031
vt 0.06835938 0.7397461
vt 0.08496094 0.7397461
vt 0.08496094 0.753418
vt 0.06835938 0.753418
vt 0.08496094 0.7597656
vt 0.06835938 0.7597656
vt 0.08496094 0.7626953
vt 0.08862305 0.7626953
vt 0.08496094 0.7626953
vt 0.08862305 0.7626953
vt 0.08862305 0.7587891
vt 0.1057129 0.7626953
vt 0.1057129 0.7587891
vt 0.1057129 0.7626953
vt 0.109375 0.7626953
vt 0.109375 0.7626953
vt 0.02694702 0.7397461
vt 0.04351807 0.7397461
vt 0.02694702 0.7397461
vt 0.04351807 0.7397461
vt 0.04351807 0.7387695
vt 0.02694702 0.7387695
vt 0.04351807 0.7207031
vt 0.04724121 0.7207031
vt 0.04351807 0.7207031
vt 0.04724121 0.7207031
vt 0.04724121 0.7163086
vt 0.06463623 0.7207031
vt 0.06463623 0.7163086
vt 0.06463623 0.7207031
vt 0.06835938 0.7207031
vt 0.06835938 0.7207031
vt 0.06835938 0.7373047
vt 0.08496094 0.7373047
vt 0.08496094 0.7387695
vt 0.06835938 0.7387695
vt 0.06835938 0.7397461
vt 0.08496094 0.7397461
vt 0.08496094 0.7397461
vt 0.06835938 0.7397461
vn 1 0 0
vn 1 0 0
vn 1 0 0
vn 1 0 0
vn 1 0 0
vn 1 0 0
vn 1 0 0
vn 1 0 0
vn 1 0 0
vn 1 0 0
vn 1 0 0
vn 1 0 0
vn 0.01797485 -0.1744385 0.984375
vn 0.01797485 0.1744385 0.984375
vn 0.01795959 0.1730957 0.9848633
vn 0.01795959 -0.1730957 0.9848633
vn 0.01795959 -0.1730957 0.9848633
vn 0.01797485 -0.984375 0.1744385
vn 0.01797485 -0.1744385 0.984375
vn 0.01795959 -0.9848633 0.1730957
vn 0.01795959 -0.9848633 -0.1730957
vn 0.01797485 -0.984375 -0.1744385
vn 0.01795959 -0.1744385 -0.984375
vn 0.01795959 -0.1730957 -0.9848633
vn 0.01795959 0.9848633 0.1730957
vn 0.01795959 0.1730957 0.9848633
vn 0.01797485 0.1744385 0.984375
vn 0.01797485 0.984375 0.1744385
vn 0.01795959 0.9848633 -0.1730957
vn 0.01797485 0.984375 -0.1744385
vn 0.01795959 0.1730957 -0.9848633
vn 0.01795959 0.1744385 -0.984375
vn 0.01795959 0.1744385 -0.984375
vn 0.01795959 -0.1744385 -0.984375
vn 0.01795959 -0.1730957 -0.9848633
vn 0.01795959 0.1730957 -0.9848633
vn 1 0 0
vn 1 0 0
vn 1 0 0
vn 1 0 0
vn 1 0 0
vn 1 0 0
vn 1 0 0
vn 1 0 0
vn 1 0 0
vn 1 0 0
vn 1 0 0
vn 1 0 0
vn 1 0 0
vn 1 0 0
vn 1 0 0
vn 1 0 0
vn 1 0 0
vn 1 0 0
vn 1 0 0
vn 1 0 0
vn 1 0 0
vn 1 0 0
vn 1 0 0
vn 1 0 0
vn 1 0 0
vn 1 0 0
vn 1 0 0
vn 1 0 0
vn 1 0 0
vn 1 0 0
vn -0.2421875 0.147583 -0.9589844
vn -0.519043 -0.1745605 -0.8369141
vn -0.5229492 0.1508789 -0.8388672
vn -0.2230225 -0.161499 -0.9614258
vn -0.02503967 0.1640625 -0.9863281
vn 0 -0.1737061 -0.9848633
vn 1 0 0
vn 1 0 0
vn 1 0 0
vn 1 0 0
vn -0.2421875 0.147583 -0.9589844
vn -0.2573242 0.9345703 -0.2449951
vn -0.02503967 0.1640625 -0.9863281
vn -0.4956055 0.8398438 -0.22229
vn -0.5229492 0.1508789 -0.8388672
vn -0.2573242 0.9345703 0.2449951
vn -0.7080078 0.6806641 -0.1885986
vn -0.4956055 0.8398438 0.22229
vn -0.02503967 0.1640625 0.9863281
vn -0.7080078 0.6806641 0.1885986
vn -0.2421875 0.147583 0.9589844
vn -0.5229492 0.1508789 0.8388672
vn -0.5366211 -0.8276367 -0.1643066
vn -0.519043 -0.1745605 -0.8369141
vn -0.2230225 -0.161499 -0.9614258
vn -0.234375 -0.9584961 -0.1634521
vn 0 -0.1737061 -0.9848633
vn 0 -0.9848633 -0.1737061
vn 0 -0.9848633 0.1737061
vn -0.234375 -0.9584961 0.1634521
vn -0.5366211 -0.8276367 0.1643066
vn -0.519043 -0.1745605 0.8369141
vn -0.2230225 -0.161499 0.9614258
vn 0 -0.1737061 0.9848633
vn 0 -0.1737061 0.9848633
vn -0.02503967 0.1640625 0.9863281
vn -0.2421875 0.147583 0.9589844
vn -0.2230225 -0.161499 0.9614258
vn -0.5229492 0.1508789 0.8388672
vn -0.519043 -0.1745605 0.8369141
vn -0.9726563 0.01495361 0.230835
vn -1 0 0
vn -1 0 0
vn -0.9726563 0.230835 0.01495361
vn -0.9804688 0.1397705 0.1397705
vn -1 0 0
vn -0.9804688 0.1397705 -0.1397705
vn -0.9726563 0.230835 -0.01495361
vn -1 0 0
vn -0.9726563 0.01495361 -0.230835
vn -0.9726563 0.01495361 -0.230835
vn -1 0 0
vn -1 0 0
vn -0.9726563 -0.01495361 -0.230835
vn -0.9804688 -0.1397705 -0.1397705
vn -0.9804688 0.1397705 -0.1397705
vn -0.9726563 -0.01495361 -0.230835
vn -1 0 0
vn -1 0 0
vn -0.9726563 -0.230835 -0.01495361
vn -0.9804688 -0.1397705 -0.1397705
vn -1 0 0
vn -0.9804688 -0.1397705 0.1397705
vn -0.9726563 -0.230835 0.01495361
vn -1 0 0
vn -0.9726563 -0.01495361 0.230835
vn -0.9804688 -0.1397705 -0.1397705
vn -0.9804688 0.1397705 -0.1397705
vn -0.9804688 0.1397705 0.1397705
vn -0.9804688 -0.1397705 0.1397705
vn -0.9726563 -0.01495361 0.230835
vn -0.9726563 0.01495361 0.230835
vn -1 0 0
vn -1 0 0
g LowerArm_right.007_0
f 3/3/3 2/2/2 1/1/1
f 4/4/4 3/3/3 1/1/1
f 1/1/1 5/5/5 4/4/4
f 5/5/5 6/6/6 4/4/4
f 9/9/9 8/8/8 7/7/7
f 10/10/10 7/7/7 8/8/8
f 11/11/11 10/10/10 8/8/8
f 12/12/12 10/10/10 11/11/11
f 15/15/15 14/14/14 13/13/13
f 16/16/16 15/15/15 13/13/13
f 19/19/19 18/18/18 17/17/17
f 18/18/18 20/20/20 17/17/17
f 20/20/20 18/18/18 21/21/21
f 18/18/18 22/22/22 21/21/21
f 22/22/22 23/23/23 21/21/21
f 23/23/23 24/24/24 21/21/21
f 27/27/27 26/26/26 25/25/25
f 28/28/28 27/27/27 25/25/25
f 25/25/25 29/29/29 28/28/28
f 29/29/29 30/30/30 28/28/28
f 30/30/30 29/29/29 31/31/31
f 32/32/32 30/30/30 31/31/31
f 35/35/35 34/34/34 33/33/33
f 36/36/36 35/35/35 33/33/33
f 39/39/39 38/38/38 37/37/37
f 40/40/40 39/39/39 37/37/37
f 43/43/43 42/42/42 41/41/41
f 42/42/42 43/43/43 44/44/44
f 43/43/43 45/45/45 44/44/44
f 46/46/46 44/44/44 45/45/45
g LowerArm_right.007_1
f 49/49/49 48/48/48 47/47/47
f 50/50/50 49/49/49 47/47/47
f 53/53/53 52/52/52 51/51/51
f 52/52/52 54/54/54 51/51/51
f 52/52/52 55/55/55 54/54/54
f 55/55/55 56/56/56 54/54/54
f 55/55/55 57/57/57 56/56/56
f 57/57/57 58/58/58 56/56/56
f 61/61/61 60/60/60 59/59/59
f 62/62/62 61/61/61 59/59/59
f 62/62/62 59/59/59 63/63/63
f 64/64/64 62/62/62 63/63/63
f 64/64/64 63/63/63 65/65/65
f 66/66/66 64/64/64 65/65/65
f 69/69/69 68/68/68 67/67/67
f 68/68/68 70/70/70 67/67/67
f 67/67/67 70/70/70 71/71/71
f 70/70/70 72/72/72 71/71/71
f 75/75/75 74/74/74 73/73/73
f 76/76/76 75/75/75 73/73/73
f 79/79/79 78/78/78 77/77/77
f 78/78/78 80/80/80 77/77/77
f 77/77/77 80/80/80 81/81/81
f 80/80/80 78/78/78 82/82/82
f 80/80/80 83/83/83 81/81/81
f 84/84/84 80/80/80 82/82/82
f 83/83/83 80/80/80 84/84/84
f 82/82/82 85/85/85 84/84/84
f 86/86/86 83/83/83 84/84/84
f 85/85/85 87/87/87 84/84/84
f 84/84/84 87/87/87 86/86/86
f 87/87/87 88/88/88 86/86/86
f 91/91/91 90/90/90 89/89/89
f 92/92/92 91/91/91 89/89/89
f 93/93/93 91/91/91 92/92/92
f 94/94/94 93/93/93 92/92/92
f 95/95/95 94/94/94 92/92/92
f 96/96/96 92/92/92 89/89/89
f 96/96/96 95/95/95 92/92/92
f 97/97/97 96/96/96 89/89/89
f 96/96/96 97/97/97 98/98/98
f 99/99/99 96/96/96 98/98/98
f 95/95/95 96/96/96 99/99/99
f 100/100/100 95/95/95 99/99/99
f 103/103/103 102/102/102 101/101/101
f 104/104/104 103/103/103 101/101/101
f 105/105/105 103/103/103 104/104/104
f 106/106/106 105/105/105 104/104/104
f 109/109/109 108/108/108 107/107/107
f 108/108/108 110/110/110 107/107/107
f 107/107/107 110/110/110 111/111/111
f 108/108/108 112/112/112 110/110/110
f 113/113/113 111/111/111 110/110/110
f 112/112/112 114/114/114 110/110/110
f 114/114/114 113/113/113 110/110/110
f 112/112/112 115/115/115 114/114/114
f 114/114/114 116/116/116 113/113/113
f 115/115/115 116/116/116 114/114/114
f 119/119/119 118/118/118 117/117/117
f 118/118/118 120/120/120 117/117/117
f 120/120/120 121/121/121 117/117/117
f 121/121/121 122/122/122 117/117/117
f 125/125/125 124/124/124 123/123/123
f 124/124/124 126/126/126 123/123/123
f 123/123/123 126/126/126 127/127/127
f 124/124/124 128/128/128 126/126/126
f 127/127/127 126/126/126 129/129/129
f 128/128/128 130/130/130 126/126/126
f 126/126/126 130/130/130 129/129/129
f 128/128/128 131/131/131 130/130/130
f 132/132/132 129/129/129 130/130/130
f 131/131/131 132/132/132 130/130/130
f 135/135/135 134/134/134 133/133/133
f 136/136/136 135/135/135 133/133/133
f 135/135/135 136/136/136 137/137/137
f 138/138/138 135/135/135 137/137/137
f 139/139/139 138/138/138 137/137/137
f 140/140/140 139/139/139 137/137/137
