g LowerLeg_right.018
v 0.125259 0.04923015 -0.08000783
v 0.08768439 0.04923015 -0.1143204
v 0.08768487 -0.1529726 -0.1144071
v 0.1252596 -0.152988 -0.08010781
v 0.125259 0.04923016 0.08007023
v 0.1252596 -0.1530599 0.07997026
v 0.08768439 0.04923017 0.1143562
v 0.08768487 -0.1530754 0.1142695
v -4.470348E-08 -0.1530756 0.1142695
v -4.470348E-08 0.04923017 0.1143507
v -4.470348E-08 0.04923015 -0.1143259
v -4.470348E-08 -0.1529728 -0.1144071
v 0.08768487 -0.1529726 -0.1144071
v 0.08768439 0.04923015 -0.1143204
v -4.470348E-08 0.04923015 -0.1143259
v -0.08768447 0.04923015 -0.1143204
v -0.08768497 -0.1529726 -0.1144071
v -4.470348E-08 -0.1529728 -0.1144071
v -0.1252591 0.04923015 -0.08000783
v -0.08768497 -0.1529726 -0.1144071
v -0.08768447 0.04923015 -0.1143204
v -0.1252597 -0.152988 -0.08010781
v -0.1252591 0.04923016 0.08007023
v -0.1252597 -0.1530599 0.07997026
v -0.08768447 0.04923017 0.1143562
v -0.08768497 -0.1530754 0.1142695
v -4.470348E-08 -0.1530756 0.1142695
v -4.470348E-08 0.04923017 0.1143507
v -0.08768497 -0.1530754 0.1142695
v -4.470348E-08 -0.1530756 0.1142695
v -4.470348E-08 -0.1873583 0.07995484
v -0.08768505 -0.1873581 0.07995484
v -0.1252597 -0.1530599 0.07997026
v -0.1252597 -0.152988 -0.08010781
v -0.08768505 -0.1872861 -0.08012322
v -4.470348E-08 -0.1872863 -0.08012322
v -0.08768497 -0.1529726 -0.1144071
v -4.470348E-08 -0.1529728 -0.1144071
v 0.08768487 -0.1530754 0.1142695
v -4.470348E-08 -0.1873583 0.07995484
v -4.470348E-08 -0.1530756 0.1142695
v 0.08768497 -0.1873581 0.07995484
v 0.1252596 -0.1530599 0.07997026
v 0.1252596 -0.152988 -0.08010781
v 0.08768497 -0.1872861 -0.08012322
v -4.470348E-08 -0.1872863 -0.08012322
v 0.08768487 -0.1529726 -0.1144071
v -4.470348E-08 -0.1529728 -0.1144071
v 0.1252589 0.1222913 -0.07998408
v 0.08768415 0.1223066 -0.1142834
v 0.1252589 0.1222193 0.08009398
v 0.08768415 0.1222038 0.1143933
v -4.470348E-08 0.1222036 0.1143933
v -4.470348E-08 0.1223064 -0.1142834
v 0.08768415 0.1223066 -0.1142834
v -4.470348E-08 0.1223064 -0.1142834
v -0.08768425 0.1223066 -0.1142834
v -0.125259 0.1222913 -0.07998408
v -0.08768425 0.1223066 -0.1142834
v -0.125259 0.1222193 0.08009398
v -0.08768425 0.1222038 0.1143933
v -4.470348E-08 0.1222036 0.1143933
v -0.08768425 0.1223066 -0.1142834
v -4.470348E-08 0.1223064 -0.1142834
v -4.470348E-08 0.156589 -0.07996866
v -0.08768415 0.1565892 -0.07996866
v -0.125259 0.1222913 -0.07998408
v -4.470348E-08 0.1565171 0.0801094
v -0.125259 0.1222193 0.08009398
v -0.08768415 0.1565173 0.0801094
v -4.470348E-08 0.1222036 0.1143933
v -0.08768425 0.1222038 0.1143933
v 0.08768415 0.1223066 -0.1142834
v -4.470348E-08 0.156589 -0.07996866
v -4.470348E-08 0.1223064 -0.1142834
v 0.08768407 0.1565892 -0.07996866
v 0.1252589 0.1222913 -0.07998408
v -4.470348E-08 0.1565171 0.0801094
v 0.1252589 0.1222193 0.08009398
v 0.08768407 0.1565173 0.0801094
v -4.470348E-08 0.1222036 0.1143933
v 0.08768415 0.1222038 0.1143933
vt 0.1444092 0.7539063
vt 0.1402588 0.7480469
vt 0.1402588 0.7109375
vt 0.1444092 0.7109375
vt 0.1636963 0.7539063
vt 0.1636963 0.7109375
vt 0.1678467 0.7480469
vt 0.1678467 0.7109375
vt 0.1774902 0.7109375
vt 0.1774902 0.7456055
vt 0.2244873 0.7456055
vt 0.2244873 0.7109375
vt 0.2341309 0.7109375
vt 0.2341309 0.7480469
vt 0.2244873 0.7456055
vt 0.2341309 0.7480469
vt 0.2341309 0.7109375
vt 0.2244873 0.7109375
vt 0.1444092 0.7539063
vt 0.1402588 0.7109375
vt 0.1402588 0.7480469
vt 0.1444092 0.7109375
vt 0.1636963 0.7539063
vt 0.1636963 0.7109375
vt 0.1678467 0.7480469
vt 0.1678467 0.7109375
vt 0.1774902 0.7109375
vt 0.1774902 0.7456055
vt 0.2218018 0.6669922
vt 0.2218018 0.6655273
vt 0.2110596 0.6655273
vt 0.2110596 0.6669922
vt 0.2110596 0.6674805
vt 0.1610107 0.6674805
vt 0.1610107 0.6669922
vt 0.1610107 0.6655273
vt 0.1502686 0.6669922
vt 0.1502686 0.6655273
vt 0.2218018 0.6669922
vt 0.2110596 0.6655273
vt 0.2218018 0.6655273
vt 0.2110596 0.6669922
vt 0.2110596 0.6674805
vt 0.1610107 0.6674805
vt 0.1610107 0.6669922
vt 0.1610107 0.6655273
vt 0.1502686 0.6669922
vt 0.1502686 0.6655273
vt 0.1444092 0.7636719
vt 0.1402588 0.7636719
vt 0.1636963 0.7636719
vt 0.1678467 0.7636719
vt 0.1774902 0.7636719
vt 0.2244873 0.7636719
vt 0.2341309 0.7636719
vt 0.2244873 0.7636719
vt 0.2341309 0.7636719
vt 0.1444092 0.7636719
vt 0.1402588 0.7636719
vt 0.1636963 0.7636719
vt 0.1678467 0.7636719
vt 0.1774902 0.7636719
vt 0.2158203 0.8056641
vt 0.2158203 0.8046875
vt 0.2054443 0.8046875
vt 0.2054443 0.8056641
vt 0.2054443 0.8061523
vt 0.1571045 0.8046875
vt 0.1571045 0.8061523
vt 0.1571045 0.8056641
vt 0.1467285 0.8046875
vt 0.1467285 0.8056641
vt 0.2158203 0.8056641
vt 0.2054443 0.8046875
vt 0.2158203 0.8046875
vt 0.2054443 0.8056641
vt 0.2054443 0.8061523
vt 0.1571045 0.8046875
vt 0.1571045 0.8061523
vt 0.1571045 0.8056641
vt 0.1467285 0.8046875
vt 0.1467285 0.8056641
vn 0.9819336 8.785725E-05 -0.1896973
vn 0.2641602 0.0004341602 -0.9643555
vn 0.2454834 -0.1149292 -0.9624023
vn 0.9750977 -0.1385498 -0.1728516
vn 0.9819336 -8.279085E-05 0.1898193
vn 0.9750977 -0.1386719 0.1728516
vn 0.263916 -0.0004327297 0.9643555
vn 0.2453613 -0.1157227 0.9624023
vn 0 -0.1439209 0.9897461
vn 0 -0.000449419 1
vn 0 0.000449419 -1
vn 0 -0.1430664 -0.9897461
vn 0.2454834 -0.1149292 -0.9624023
vn 0.2641602 0.0004341602 -0.9643555
vn 0 0.000449419 -1
vn -0.2641602 0.0004341602 -0.9643555
vn -0.2454834 -0.1149292 -0.9624023
vn 0 -0.1430664 -0.9897461
vn -0.9819336 8.785725E-05 -0.1896973
vn -0.2454834 -0.1149292 -0.9624023
vn -0.2641602 0.0004341602 -0.9643555
vn -0.9750977 -0.1385498 -0.1728516
vn -0.9819336 -8.279085E-05 0.1898193
vn -0.9750977 -0.1386719 0.1728516
vn -0.263916 -0.0004327297 0.9643555
vn -0.2453613 -0.1157227 0.9624023
vn 0 -0.1439209 0.9897461
vn 0 -0.000449419 1
vn -0.2453613 -0.1157227 0.9624023
vn 0 -0.1439209 0.9897461
vn 0 -0.9848633 0.1733398
vn -0.2408447 -0.9604492 0.1405029
vn -0.9750977 -0.1386719 0.1728516
vn -0.9750977 -0.1385498 -0.1728516
vn -0.2408447 -0.9604492 -0.1413574
vn 0 -0.9848633 -0.1741943
vn -0.2454834 -0.1149292 -0.9624023
vn 0 -0.1430664 -0.9897461
vn 0.2453613 -0.1157227 0.9624023
vn 0 -0.9848633 0.1733398
vn 0 -0.1439209 0.9897461
vn 0.2408447 -0.9604492 0.1405029
vn 0.9750977 -0.1386719 0.1728516
vn 0.9750977 -0.1385498 -0.1728516
vn 0.2408447 -0.9604492 -0.1413574
vn 0 -0.9848633 -0.1741943
vn 0.2454834 -0.1149292 -0.9624023
vn 0 -0.1430664 -0.9897461
vn 0.9418945 0.3017578 -0.1479492
vn 0.2172852 0.2580566 -0.9414063
vn 0.9418945 0.3015137 0.1480713
vn 0.2171631 0.2573242 0.9414063
vn 0 0.3039551 0.9526367
vn 0 0.3046875 -0.9526367
vn 0.2172852 0.2580566 -0.9414063
vn 0 0.3046875 -0.9526367
vn -0.2172852 0.2580566 -0.9414063
vn -0.9418945 0.3017578 -0.1479492
vn -0.2172852 0.2580566 -0.9414063
vn -0.9418945 0.3015137 0.1480713
vn -0.2171631 0.2573242 0.9414063
vn 0 0.3039551 0.9526367
vn -0.2172852 0.2580566 -0.9414063
vn 0 0.3046875 -0.9526367
vn 0 0.9848633 -0.1733398
vn -0.2408447 0.9604492 -0.1405029
vn -0.9418945 0.3017578 -0.1479492
vn 0 0.9848633 0.1741943
vn -0.9418945 0.3015137 0.1480713
vn -0.2408447 0.9604492 0.1413574
vn 0 0.3039551 0.9526367
vn -0.2171631 0.2573242 0.9414063
vn 0.2172852 0.2580566 -0.9414063
vn 0 0.9848633 -0.1733398
vn 0 0.3046875 -0.9526367
vn 0.2408447 0.9604492 -0.1405029
vn 0.9418945 0.3017578 -0.1479492
vn 0 0.9848633 0.1741943
vn 0.9418945 0.3015137 0.1480713
vn 0.2408447 0.9604492 0.1413574
vn 0 0.3039551 0.9526367
vn 0.2171631 0.2573242 0.9414063
g LowerLeg_right.018_0
f 3/3/3 2/2/2 1/1/1
f 4/4/4 3/3/3 1/1/1
f 4/4/4 1/1/1 5/5/5
f 6/6/6 4/4/4 5/5/5
f 5/5/5 7/7/7 6/6/6
f 7/7/7 8/8/8 6/6/6
f 8/8/8 7/7/7 9/9/9
f 7/7/7 10/10/10 9/9/9
f 13/13/13 12/12/12 11/11/11
f 14/14/14 13/13/13 11/11/11
f 17/17/17 16/16/16 15/15/15
f 18/18/18 17/17/17 15/15/15
f 21/21/21 20/20/20 19/19/19
f 20/20/20 22/22/22 19/19/19
f 19/19/19 22/22/22 23/23/23
f 22/22/22 24/24/24 23/23/23
f 25/25/25 23/23/23 24/24/24
f 26/26/26 25/25/25 24/24/24
f 25/25/25 26/26/26 27/27/27
f 28/28/28 25/25/25 27/27/27
f 31/31/31 30/30/30 29/29/29
f 32/32/32 31/31/31 29/29/29
f 32/32/32 29/29/29 33/33/33
f 33/33/33 34/34/34 32/32/32
f 31/31/31 32/32/32 35/35/35
f 34/34/34 35/35/35 32/32/32
f 36/36/36 31/31/31 35/35/35
f 34/34/34 37/37/37 35/35/35
f 38/38/38 36/36/36 35/35/35
f 37/37/37 38/38/38 35/35/35
f 41/41/41 40/40/40 39/39/39
f 40/40/40 42/42/42 39/39/39
f 39/39/39 42/42/42 43/43/43
f 44/44/44 43/43/43 42/42/42
f 42/42/42 40/40/40 45/45/45
f 45/45/45 44/44/44 42/42/42
f 40/40/40 46/46/46 45/45/45
f 47/47/47 44/44/44 45/45/45
f 46/46/46 48/48/48 45/45/45
f 48/48/48 47/47/47 45/45/45
g LowerLeg_right.018_1
f 2/2/2 50/50/50 49/49/49
f 1/1/1 2/2/2 49/49/49
f 1/1/1 49/49/49 51/51/51
f 5/5/5 1/1/1 51/51/51
f 51/51/51 52/52/52 5/5/5
f 52/52/52 7/7/7 5/5/5
f 7/7/7 52/52/52 10/10/10
f 52/52/52 53/53/53 10/10/10
f 14/14/14 11/11/11 54/54/54
f 55/55/55 14/14/14 54/54/54
f 16/16/16 57/57/57 56/56/56
f 15/15/15 16/16/16 56/56/56
f 59/59/59 21/21/21 58/58/58
f 21/21/21 19/19/19 58/58/58
f 58/58/58 19/19/19 60/60/60
f 19/19/19 23/23/23 60/60/60
f 61/61/61 60/60/60 23/23/23
f 25/25/25 61/61/61 23/23/23
f 61/61/61 25/25/25 28/28/28
f 62/62/62 61/61/61 28/28/28
f 65/65/65 64/64/64 63/63/63
f 66/66/66 65/65/65 63/63/63
f 67/67/67 66/66/66 63/63/63
f 65/65/65 66/66/66 68/68/68
f 66/66/66 67/67/67 69/69/69
f 66/66/66 70/70/70 68/68/68
f 70/70/70 66/66/66 69/69/69
f 71/71/71 68/68/68 70/70/70
f 69/69/69 72/72/72 70/70/70
f 72/72/72 71/71/71 70/70/70
f 75/75/75 74/74/74 73/73/73
f 74/74/74 76/76/76 73/73/73
f 76/76/76 77/77/77 73/73/73
f 76/76/76 74/74/74 78/78/78
f 77/77/77 76/76/76 79/79/79
f 80/80/80 76/76/76 78/78/78
f 76/76/76 80/80/80 79/79/79
f 78/78/78 81/81/81 80/80/80
f 82/82/82 79/79/79 80/80/80
f 81/81/81 82/82/82 80/80/80
