g LowerArm_left.008
v 0.1514731 -0.07944498 -0.07662752
v 0.1514729 0.07380923 0.07662804
v 0.1514731 0.07380925 -0.07662752
v 0.1514729 -0.0794449 0.07662807
v 0.122139 -0.0794449 0.1094625
v 0.122139 0.07380922 0.1094625
v 0.122139 0.1052427 0.1543654
v 0.122139 -0.1108784 0.1543655
v -0.03252445 -0.07944497 -0.1094623
v -0.03252445 -0.1319373 -0.1814862
v -0.03252445 0.1221551 -0.1814862
v -0.03252445 0.07380925 -0.1094623
v 0.122139 0.07380925 -0.1094621
v 0.1514731 -0.07944498 -0.07662752
v 0.1514731 0.07380925 -0.07662752
v 0.122139 -0.07944497 -0.109462
v 0.122139 -0.1108785 -0.1543649
v 0.122139 0.1052428 -0.1543649
v 0.122139 0.07380922 0.1094625
v 0.122139 0.1052427 0.1543654
v 0.122139 0.1515479 0.1080618
v 0.122139 0.1066448 0.07662798
v 0.1514729 0.07380923 0.07662804
v 0.122139 0.151548 -0.1080613
v 0.1514731 0.07380925 -0.07662752
v 0.122139 0.1066449 -0.07662758
v 0.122139 0.1052428 -0.1543649
v 0.122139 0.07380925 -0.1094621
v -0.03252445 -0.0794449 0.1094622
v -0.03252445 -0.1319373 0.1814861
v -0.03252445 -0.1863779 0.1270472
v -0.03252445 -0.1122805 0.07662774
v -0.03252445 -0.1863781 -0.1270474
v -0.03252445 -0.1122806 -0.07662782
v -0.03252445 -0.1319373 -0.1814862
v -0.03252445 -0.07944497 -0.1094623
v -0.03252445 0.1066448 0.07662772
v -0.03252445 0.122155 0.1814861
v -0.03252445 0.07380922 0.1094622
v -0.03252445 0.2320911 0.1270472
v -0.03252445 0.1066449 -0.07662784
v -0.03252445 0.2320911 -0.1270474
v -0.03252445 0.07380925 -0.1094623
v -0.03252445 0.1221551 -0.1814862
v 0.01829355 -0.1108784 0.1543652
v 0.122139 -0.1108784 0.1543655
v 0.122139 -0.1571836 0.1080618
v 0.01829355 -0.1571836 0.1080616
v -0.03252445 -0.1319373 0.1814861
v -0.03252445 -0.1863779 0.1270472
v -0.03252445 -0.1863781 -0.1270474
v 0.01829355 -0.1571836 -0.1080615
v 0.122139 -0.1571836 -0.1080613
v 0.122139 -0.1108785 -0.1543649
v 0.01829355 -0.1108785 -0.1543651
v -0.03252445 -0.1319373 -0.1814862
v 0.01829355 0.1052428 -0.1543651
v 0.122139 0.1052428 -0.1543649
v 0.122139 0.151548 -0.1080613
v 0.01829355 0.1832407 -0.1080615
v -0.03252445 0.1221551 -0.1814862
v 0.122139 0.1515479 0.1080618
v -0.03252445 0.2320911 -0.1270474
v 0.01829355 0.1832407 0.1080616
v 0.122139 0.1052427 0.1543654
v -0.03252445 0.2320911 0.1270472
v 0.01829355 0.1052427 0.1543652
v -0.03252445 0.122155 0.1814861
v 0.01829355 0.1052428 -0.1543651
v -0.03252445 0.1221551 -0.1814862
v -0.03252445 -0.1319373 -0.1814862
v 0.01829355 -0.1108785 -0.1543651
v 0.122139 0.1052428 -0.1543649
v 0.122139 -0.1108785 -0.1543649
v 0.01829355 -0.1108784 0.1543652
v -0.03252445 -0.1319373 0.1814861
v -0.03252445 0.122155 0.1814861
v 0.01829355 0.1052427 0.1543652
v 0.122139 -0.1108784 0.1543655
v 0.122139 0.1052427 0.1543654
v 0.122139 -0.07944497 -0.109462
v 0.122139 -0.1108785 -0.1543649
v 0.122139 -0.1571836 -0.1080613
v 0.122139 -0.1122806 -0.07662756
v 0.1514731 -0.07944498 -0.07662752
v 0.122139 -0.1571836 0.1080618
v 0.1514729 -0.0794449 0.07662807
v 0.122139 -0.1122805 0.07662801
v 0.122139 -0.1108784 0.1543655
v 0.122139 -0.0794449 0.1094625
v -0.03252445 0.07380922 0.1094622
v -0.03252445 0.122155 0.1814861
v -0.03252445 -0.1319373 0.1814861
v -0.03252445 -0.0794449 0.1094622
v -0.03252445 -0.0794449 0.1094622
v -0.1821724 -0.07774396 0.1070322
v -0.1821724 0.0721084 0.1070322
v -0.03252445 0.07380922 0.1094622
v -0.1821724 0.0721084 0.07492647
v -0.1821724 -0.07774405 -0.07492724
v -0.1821724 0.07210843 -0.07492724
v -0.1821724 -0.07774395 0.07492647
v -0.1821724 0.0721084 0.1070322
v -0.1821724 -0.07774396 0.1070322
v -0.03252445 0.07380925 -0.1094623
v -0.1821724 0.07210843 -0.1070328
v -0.1821724 -0.07774404 -0.1070328
v -0.03252445 -0.07944497 -0.1094623
v -0.1821724 0.07210843 -0.07492724
v -0.1821724 -0.07774405 -0.07492724
v -0.1821724 -0.07774404 -0.1070328
v -0.1821724 0.07210843 -0.1070328
v -0.1821724 -0.07774395 0.07492647
v -0.1821724 -0.07774396 0.1070322
v -0.1821724 -0.1098507 0.07492653
v -0.1821724 -0.07774405 -0.07492724
v -0.1821724 -0.1098508 -0.07492719
v -0.1821724 -0.07774404 -0.1070328
v -0.1821724 0.104215 0.07492651
v -0.1821724 0.0721084 0.1070322
v -0.1821724 0.0721084 0.07492647
v -0.1821724 0.1042151 -0.07492721
v -0.1821724 0.07210843 -0.07492724
v -0.1821724 0.07210843 -0.1070328
v -0.1821724 -0.1098508 -0.07492719
v -0.03252445 -0.07944497 -0.1094623
v -0.1821724 -0.07774404 -0.1070328
v -0.03252445 -0.1122806 -0.07662782
v -0.03252445 -0.1122805 0.07662774
v -0.1821724 -0.1098507 0.07492653
v -0.1821724 -0.07774396 0.1070322
v -0.03252445 -0.0794449 0.1094622
v -0.1821724 0.07210843 -0.1070328
v -0.03252445 0.07380925 -0.1094623
v -0.03252445 0.1066449 -0.07662784
v -0.1821724 0.1042151 -0.07492721
v -0.03252445 0.1066448 0.07662772
v -0.1821724 0.104215 0.07492651
v -0.03252445 0.07380922 0.1094622
v -0.1821724 0.0721084 0.1070322
vt 0.06835938 0.7373047
vt 0.08496094 0.7387695
vt 0.08496094 0.7373047
vt 0.06835938 0.7387695
vt 0.06835938 0.7397461
vt 0.08496094 0.7397461
vt 0.08496094 0.7397461
vt 0.06835938 0.7397461
vt 0.04351807 0.7597656
vt 0.04351807 0.7597656
vt 0.02694702 0.7597656
vt 0.02694702 0.7597656
vt 0.02694702 0.7397461
vt 0.04351807 0.7387695
vt 0.02694702 0.7387695
vt 0.04351807 0.7397461
vt 0.04351807 0.7397461
vt 0.02694702 0.7397461
vt 0.08496094 0.7626953
vt 0.08496094 0.7626953
vt 0.08862305 0.7626953
vt 0.08862305 0.7626953
vt 0.08862305 0.7587891
vt 0.1057129 0.7626953
vt 0.1057129 0.7587891
vt 0.1057129 0.7626953
vt 0.109375 0.7626953
vt 0.109375 0.7626953
vt 0.06835938 0.7412109
vt 0.06835938 0.7412109
vt 0.06463623 0.7412109
vt 0.06463623 0.7412109
vt 0.04724121 0.7412109
vt 0.04724121 0.7412109
vt 0.04351807 0.7412109
vt 0.04351807 0.7412109
vt 0.08862305 0.7827148
vt 0.08496094 0.7827148
vt 0.08496094 0.7827148
vt 0.08862305 0.7827148
vt 0.1057129 0.7827148
vt 0.1057129 0.7827148
vt 0.109375 0.7827148
vt 0.109375 0.7827148
vt 0.06835938 0.734375
vt 0.06835938 0.7207031
vt 0.06463623 0.7207031
vt 0.06463623 0.734375
vt 0.06835938 0.7412109
vt 0.06463623 0.7412109
vt 0.04724121 0.7412109
vt 0.04724121 0.734375
vt 0.04724121 0.7207031
vt 0.04351807 0.7207031
vt 0.04351807 0.734375
vt 0.04351807 0.7412109
vt 0.109375 0.7763672
vt 0.109375 0.7626953
vt 0.1057129 0.7626953
vt 0.1057129 0.7763672
vt 0.109375 0.7827148
vt 0.08862305 0.7626953
vt 0.1057129 0.7827148
vt 0.08862305 0.7763672
vt 0.08496094 0.7626953
vt 0.08862305 0.7827148
vt 0.08496094 0.7763672
vt 0.08496094 0.7827148
vt 0.02694702 0.753418
vt 0.02694702 0.7597656
vt 0.04351807 0.7597656
vt 0.04351807 0.753418
vt 0.02694702 0.7397461
vt 0.04351807 0.7397461
vt 0.06835938 0.753418
vt 0.06835938 0.7597656
vt 0.08496094 0.7597656
vt 0.08496094 0.753418
vt 0.06835938 0.7397461
vt 0.08496094 0.7397461
vt 0.04351807 0.7207031
vt 0.04351807 0.7207031
vt 0.04724121 0.7207031
vt 0.04724121 0.7207031
vt 0.04724121 0.7163086
vt 0.06463623 0.7207031
vt 0.06463623 0.7163086
vt 0.06463623 0.7207031
vt 0.06835938 0.7207031
vt 0.06835938 0.7207031
vt 0.08496094 0.7597656
vt 0.08496094 0.7597656
vt 0.06835938 0.7597656
vt 0.06835938 0.7597656
vt 0.06835938 0.7597656
vt 0.06835938 0.7817383
vt 0.08496094 0.7817383
vt 0.08496094 0.7597656
vt 0.08496094 0.7827148
vt 0.06835938 0.784668
vt 0.08496094 0.784668
vt 0.06835938 0.7827148
vt 0.08496094 0.7817383
vt 0.06835938 0.7817383
vt 0.02694702 0.7597656
vt 0.02694702 0.7817383
vt 0.04351807 0.7817383
vt 0.04351807 0.7597656
vt 0.02694702 0.7827148
vt 0.04351807 0.7827148
vt 0.04351807 0.7817383
vt 0.02694702 0.7817383
vt 0.06463623 0.7675781
vt 0.06835938 0.7631836
vt 0.06463623 0.7631836
vt 0.04724121 0.7675781
vt 0.04724121 0.7631836
vt 0.04351807 0.7631836
vt 0.08862305 0.8046875
vt 0.08496094 0.8046875
vt 0.08862305 0.809082
vt 0.1057129 0.8046875
vt 0.1057129 0.809082
vt 0.109375 0.8046875
vt 0.04724121 0.7631836
vt 0.04351807 0.7412109
vt 0.04351807 0.7631836
vt 0.04724121 0.7412109
vt 0.06463623 0.7412109
vt 0.06463623 0.7631836
vt 0.06835938 0.7631836
vt 0.06835938 0.7412109
vt 0.109375 0.8046875
vt 0.109375 0.7827148
vt 0.1057129 0.7827148
vt 0.1057129 0.8046875
vt 0.08862305 0.7827148
vt 0.08862305 0.8046875
vt 0.08496094 0.7827148
vt 0.08496094 0.8046875
vn 0.9804688 -0.1397705 -0.1397705
vn 0.9804688 0.1397705 0.1397705
vn 0.9804688 0.1397705 -0.1397705
vn 0.9804688 -0.1397705 0.1397705
vn 0.9726563 -0.01495361 0.230835
vn 0.9726563 0.01495361 0.230835
vn 1 0 0
vn 1 0 0
vn -1 0 0
vn -1 0 0
vn -1 0 0
vn -1 0 0
vn 0.9726563 0.01495361 -0.230835
vn 0.9804688 -0.1397705 -0.1397705
vn 0.9804688 0.1397705 -0.1397705
vn 0.9726563 -0.01495361 -0.230835
vn 1 0 0
vn 1 0 0
vn 0.9726563 0.01495361 0.230835
vn 1 0 0
vn 1 0 0
vn 0.9726563 0.230835 0.01495361
vn 0.9804688 0.1397705 0.1397705
vn 1 0 0
vn 0.9804688 0.1397705 -0.1397705
vn 0.9726563 0.230835 -0.01495361
vn 1 0 0
vn 0.9726563 0.01495361 -0.230835
vn -1 0 0
vn -1 0 0
vn -1 0 0
vn -1 0 0
vn -1 0 0
vn -1 0 0
vn -1 0 0
vn -1 0 0
vn -1 0 0
vn -1 0 0
vn -1 0 0
vn -1 0 0
vn -1 0 0
vn -1 0 0
vn -1 0 0
vn -1 0 0
vn 0.2230225 -0.161499 0.9614258
vn 0 -0.1737061 0.9848633
vn 0 -0.9848633 0.1737061
vn 0.234375 -0.9584961 0.1634521
vn 0.519043 -0.1745605 0.8369141
vn 0.5366211 -0.8276367 0.1643066
vn 0.5366211 -0.8276367 -0.1643066
vn 0.234375 -0.9584961 -0.1634521
vn 0 -0.9848633 -0.1737061
vn 0 -0.1737061 -0.9848633
vn 0.2230225 -0.161499 -0.9614258
vn 0.519043 -0.1745605 -0.8369141
vn 0.2421875 0.147583 -0.9589844
vn 0.02503967 0.1640625 -0.9863281
vn 0.2573242 0.9345703 -0.2449951
vn 0.4956055 0.8398438 -0.22229
vn 0.5229492 0.1508789 -0.8388672
vn 0.2573242 0.9345703 0.2449951
vn 0.7080078 0.6806641 -0.1885986
vn 0.4956055 0.8398438 0.22229
vn 0.02503967 0.1640625 0.9863281
vn 0.7080078 0.6806641 0.1885986
vn 0.2421875 0.147583 0.9589844
vn 0.5229492 0.1508789 0.8388672
vn 0.2421875 0.147583 -0.9589844
vn 0.5229492 0.1508789 -0.8388672
vn 0.519043 -0.1745605 -0.8369141
vn 0.2230225 -0.161499 -0.9614258
vn 0.02503967 0.1640625 -0.9863281
vn 0 -0.1737061 -0.9848633
vn 0.2230225 -0.161499 0.9614258
vn 0.519043 -0.1745605 0.8369141
vn 0.5229492 0.1508789 0.8388672
vn 0.2421875 0.147583 0.9589844
vn 0 -0.1737061 0.9848633
vn 0.02503967 0.1640625 0.9863281
vn 0.9726563 -0.01495361 -0.230835
vn 1 0 0
vn 1 0 0
vn 0.9726563 -0.230835 -0.01495361
vn 0.9804688 -0.1397705 -0.1397705
vn 1 0 0
vn 0.9804688 -0.1397705 0.1397705
vn 0.9726563 -0.230835 0.01495361
vn 1 0 0
vn 0.9726563 -0.01495361 0.230835
vn -1 0 0
vn -1 0 0
vn -1 0 0
vn -1 0 0
vn -0.01797485 -0.1744385 0.984375
vn -0.01795959 -0.1730957 0.9848633
vn -0.01795959 0.1730957 0.9848633
vn -0.01797485 0.1744385 0.984375
vn -1 0 0
vn -1 0 0
vn -1 0 0
vn -1 0 0
vn -1 0 0
vn -1 0 0
vn -0.01795959 0.1744385 -0.984375
vn -0.01795959 0.1730957 -0.9848633
vn -0.01795959 -0.1730957 -0.9848633
vn -0.01795959 -0.1744385 -0.984375
vn -1 0 0
vn -1 0 0
vn -1 0 0
vn -1 0 0
vn -1 0 0
vn -1 0 0
vn -1 0 0
vn -1 0 0
vn -1 0 0
vn -1 0 0
vn -1 0 0
vn -1 0 0
vn -1 0 0
vn -1 0 0
vn -1 0 0
vn -1 0 0
vn -0.01795959 -0.9848633 -0.1730957
vn -0.01795959 -0.1744385 -0.984375
vn -0.01795959 -0.1730957 -0.9848633
vn -0.01797485 -0.984375 -0.1744385
vn -0.01797485 -0.984375 0.1744385
vn -0.01795959 -0.9848633 0.1730957
vn -0.01795959 -0.1730957 0.9848633
vn -0.01797485 -0.1744385 0.984375
vn -0.01795959 0.1730957 -0.9848633
vn -0.01795959 0.1744385 -0.984375
vn -0.01797485 0.984375 -0.1744385
vn -0.01795959 0.9848633 -0.1730957
vn -0.01797485 0.984375 0.1744385
vn -0.01795959 0.9848633 0.1730957
vn -0.01797485 0.1744385 0.984375
vn -0.01795959 0.1730957 0.9848633
g LowerArm_left.008_0
f 3/3/3 2/2/2 1/1/1
f 2/2/2 4/4/4 1/1/1
f 4/4/4 2/2/2 5/5/5
f 2/2/2 6/6/6 5/5/5
f 6/6/6 7/7/7 5/5/5
f 7/7/7 8/8/8 5/5/5
f 11/11/11 10/10/10 9/9/9
f 12/12/12 11/11/11 9/9/9
f 15/15/15 14/14/14 13/13/13
f 14/14/14 16/16/16 13/13/13
f 16/16/16 17/17/17 13/13/13
f 17/17/17 18/18/18 13/13/13
f 21/21/21 20/20/20 19/19/19
f 22/22/22 21/21/21 19/19/19
f 22/22/22 19/19/19 23/23/23
f 24/24/24 21/21/21 22/22/22
f 23/23/23 25/25/25 22/22/22
f 26/26/26 24/24/24 22/22/22
f 25/25/25 26/26/26 22/22/22
f 27/27/27 24/24/24 26/26/26
f 28/28/28 26/26/26 25/25/25
f 28/28/28 27/27/27 26/26/26
f 31/31/31 30/30/30 29/29/29
f 32/32/32 31/31/31 29/29/29
f 33/33/33 31/31/31 32/32/32
f 34/34/34 33/33/33 32/32/32
f 35/35/35 33/33/33 34/34/34
f 36/36/36 35/35/35 34/34/34
f 39/39/39 38/38/38 37/37/37
f 38/38/38 40/40/40 37/37/37
f 37/37/37 40/40/40 41/41/41
f 40/40/40 42/42/42 41/41/41
f 41/41/41 42/42/42 43/43/43
f 42/42/42 44/44/44 43/43/43
f 47/47/47 46/46/46 45/45/45
f 48/48/48 47/47/47 45/45/45
f 48/48/48 45/45/45 49/49/49
f 50/50/50 48/48/48 49/49/49
f 48/48/48 50/50/50 51/51/51
f 47/47/47 48/48/48 52/52/52
f 52/52/52 48/48/48 51/51/51
f 53/53/53 47/47/47 52/52/52
f 54/54/54 53/53/53 52/52/52
f 55/55/55 54/54/54 52/52/52
f 55/55/55 52/52/52 51/51/51
f 56/56/56 55/55/55 51/51/51
f 59/59/59 58/58/58 57/57/57
f 60/60/60 59/59/59 57/57/57
f 60/60/60 57/57/57 61/61/61
f 59/59/59 60/60/60 62/62/62
f 63/63/63 60/60/60 61/61/61
f 60/60/60 64/64/64 62/62/62
f 60/60/60 63/63/63 64/64/64
f 65/65/65 62/62/62 64/64/64
f 63/63/63 66/66/66 64/64/64
f 67/67/67 65/65/65 64/64/64
f 67/67/67 64/64/64 66/66/66
f 68/68/68 67/67/67 66/66/66
f 71/71/71 70/70/70 69/69/69
f 72/72/72 71/71/71 69/69/69
f 72/72/72 69/69/69 73/73/73
f 74/74/74 72/72/72 73/73/73
f 77/77/77 76/76/76 75/75/75
f 78/78/78 77/77/77 75/75/75
f 78/78/78 75/75/75 79/79/79
f 80/80/80 78/78/78 79/79/79
f 83/83/83 82/82/82 81/81/81
f 84/84/84 83/83/83 81/81/81
f 84/84/84 81/81/81 85/85/85
f 86/86/86 83/83/83 84/84/84
f 84/84/84 85/85/85 87/87/87
f 88/88/88 86/86/86 84/84/84
f 88/88/88 84/84/84 87/87/87
f 89/89/89 86/86/86 88/88/88
f 87/87/87 90/90/90 88/88/88
f 90/90/90 89/89/89 88/88/88
f 93/93/93 92/92/92 91/91/91
f 94/94/94 93/93/93 91/91/91
g LowerArm_left.008_1
f 97/97/97 96/96/96 95/95/95
f 98/98/98 97/97/97 95/95/95
f 101/101/101 100/100/100 99/99/99
f 100/100/100 102/102/102 99/99/99
f 103/103/103 99/99/99 102/102/102
f 104/104/104 103/103/103 102/102/102
f 107/107/107 106/106/106 105/105/105
f 108/108/108 107/107/107 105/105/105
f 111/111/111 110/110/110 109/109/109
f 112/112/112 111/111/111 109/109/109
f 115/115/115 114/114/114 113/113/113
f 113/113/113 116/116/116 115/115/115
f 116/116/116 117/117/117 115/115/115
f 116/116/116 118/118/118 117/117/117
f 121/121/121 120/120/120 119/119/119
f 119/119/119 122/122/122 121/121/121
f 122/122/122 123/123/123 121/121/121
f 123/123/123 122/122/122 124/124/124
f 127/127/127 126/126/126 125/125/125
f 126/126/126 128/128/128 125/125/125
f 128/128/128 129/129/129 125/125/125
f 129/129/129 130/130/130 125/125/125
f 130/130/130 129/129/129 131/131/131
f 129/129/129 132/132/132 131/131/131
f 135/135/135 134/134/134 133/133/133
f 136/136/136 135/135/135 133/133/133
f 135/135/135 136/136/136 137/137/137
f 136/136/136 138/138/138 137/137/137
f 139/139/139 137/137/137 138/138/138
f 140/140/140 139/139/139 138/138/138
