g LowerArm_left.023
v -0.1868241 0.07662711 0.07662746
v -0.1868238 -0.07662711 -0.0766281
v -0.1868238 0.07662713 -0.07662812
v -0.1868241 -0.07662702 0.07662746
v -0.1539883 0.0766271 0.109462
v -0.1539883 -0.07662702 0.109462
v -0.09498171 -0.07662702 0.1094622
v -0.09498173 0.0766271 0.1094622
v 0.09498099 -0.07662702 0.1094624
v 0.09498097 0.0766271 0.1094623
v 0.1539879 -0.07662702 0.1094625
v 0.1539879 0.0766271 0.1094625
v 0.1868238 0.07662711 0.07662812
v 0.1868238 -0.07662702 0.07662813
v 0.1868241 -0.07662711 -0.07662746
v 0.1868241 0.07662713 -0.07662746
v 0.1539882 0.07662714 -0.109462
v 0.1868241 -0.07662711 -0.07662746
v 0.1868241 0.07662713 -0.07662746
v 0.1539882 -0.0766271 -0.109462
v 0.09498163 -0.0766271 -0.1094621
v 0.09498165 0.07662714 -0.1094622
v -0.09498103 -0.0766271 -0.1094623
v -0.09498101 0.07662714 -0.1094624
v -0.1539879 -0.0766271 -0.1094625
v -0.1539879 0.07662714 -0.1094625
v -0.1868238 0.07662713 -0.07662812
v -0.1868238 -0.07662711 -0.0766281
v -0.1539882 -0.1094626 0.07662753
v -0.1868238 -0.07662711 -0.0766281
v -0.1868241 -0.07662702 0.07662746
v -0.1539883 -0.07662702 0.109462
v -0.153988 -0.1094627 -0.07662804
v -0.1539879 -0.0766271 -0.1094625
v -0.09498103 -0.0766271 -0.1094623
v -0.0949816 -0.1094626 0.07662771
v -0.09498171 -0.07662702 0.1094622
v -0.09498111 -0.1094627 -0.07662787
v 0.09498163 -0.0766271 -0.1094621
v 0.09498107 -0.1094626 0.07662789
v 0.09498099 -0.07662702 0.1094624
v 0.09498154 -0.1094627 -0.07662769
v 0.1539882 -0.0766271 -0.109462
v 0.153988 -0.1094626 0.07662807
v 0.1539879 -0.07662702 0.1094625
v 0.1868238 -0.07662702 0.07662813
v 0.1539882 -0.1094627 -0.0766275
v 0.1868241 -0.07662711 -0.07662746
v 0.09498165 0.07662714 -0.1094622
v 0.1539882 0.07662714 -0.109462
v 0.1539882 0.1094628 -0.07662753
v 0.1868241 0.07662713 -0.07662746
v 0.09498153 0.1094628 -0.07662771
v -0.09498101 0.07662714 -0.1094624
v 0.153988 0.1094627 0.07662805
v 0.1868238 0.07662711 0.07662812
v 0.1539879 0.0766271 0.1094625
v 0.09498109 0.1094627 0.07662787
v 0.09498097 0.0766271 0.1094623
v -0.09498113 0.1094628 -0.07662789
v -0.1539879 0.07662714 -0.1094625
v -0.09498159 0.1094627 0.07662769
v -0.09498173 0.0766271 0.1094622
v -0.153988 0.1094628 -0.07662807
v -0.1868238 0.07662713 -0.07662812
v -0.1868241 0.07662711 0.07662746
v -0.1539882 0.1094627 0.07662751
v -0.1539883 0.0766271 0.109462
vt 0.08496094 0.7827148
vt 0.06835938 0.784668
vt 0.08496094 0.784668
vt 0.06835938 0.7827148
vt 0.08496094 0.7817383
vt 0.06835938 0.7817383
vt 0.06835938 0.7680664
vt 0.08496094 0.7680664
vt 0.06835938 0.7539063
vt 0.08496094 0.7539063
vt 0.06835938 0.7397461
vt 0.08496094 0.7397461
vt 0.08496094 0.7387695
vt 0.06835938 0.7387695
vt 0.06835938 0.7373047
vt 0.08496094 0.7373047
vt 0.02694702 0.7397461
vt 0.04351807 0.7387695
vt 0.02694702 0.7387695
vt 0.04351807 0.7397461
vt 0.04351807 0.7539063
vt 0.02694702 0.7539063
vt 0.04351807 0.7680664
vt 0.02694702 0.7680664
vt 0.04351807 0.7817383
vt 0.02694702 0.7817383
vt 0.02694702 0.7827148
vt 0.04351807 0.7827148
vt 0.06463623 0.7631836
vt 0.04724121 0.7675781
vt 0.06463623 0.7675781
vt 0.06835938 0.7631836
vt 0.04724121 0.7631836
vt 0.04351807 0.7631836
vt 0.04351807 0.7490234
vt 0.06463623 0.7490234
vt 0.06835938 0.7490234
vt 0.04724121 0.7490234
vt 0.04351807 0.7348633
vt 0.06463623 0.7348633
vt 0.06835938 0.7348633
vt 0.04724121 0.7348633
vt 0.04351807 0.7207031
vt 0.06463623 0.7207031
vt 0.06835938 0.7207031
vt 0.06463623 0.7163086
vt 0.04724121 0.7207031
vt 0.04724121 0.7163086
vt 0.109375 0.7768555
vt 0.109375 0.7626953
vt 0.1057129 0.7626953
vt 0.1057129 0.7587891
vt 0.1057129 0.7768555
vt 0.109375 0.7910156
vt 0.08862305 0.7626953
vt 0.08862305 0.7587891
vt 0.08496094 0.7626953
vt 0.08862305 0.7768555
vt 0.08496094 0.7768555
vt 0.1057129 0.7910156
vt 0.109375 0.8046875
vt 0.08862305 0.7910156
vt 0.08496094 0.7910156
vt 0.1057129 0.8046875
vt 0.1057129 0.809082
vt 0.08862305 0.809082
vt 0.08862305 0.8046875
vt 0.08496094 0.8046875
vn -0.9755859 0.1551514 0.1551514
vn -0.9755859 -0.1551514 -0.1551514
vn -0.9755859 0.1551514 -0.1551514
vn -0.9755859 -0.1551514 0.1551514
vn -0.3100586 0.1320801 0.9414063
vn -0.3100586 -0.1320801 0.9414063
vn 0 -0.1737061 0.9848633
vn 0 0.1737061 0.9848633
vn 0 -0.1737061 0.9848633
vn 0 0.1737061 0.9848633
vn 0.3100586 -0.1320801 0.9414063
vn 0.3100586 0.1320801 0.9414063
vn 0.9755859 0.1551514 0.1551514
vn 0.9755859 -0.1551514 0.1551514
vn 0.9755859 -0.1551514 -0.1551514
vn 0.9755859 0.1551514 -0.1551514
vn 0.3100586 0.1320801 -0.9414063
vn 0.9755859 -0.1551514 -0.1551514
vn 0.9755859 0.1551514 -0.1551514
vn 0.3100586 -0.1320801 -0.9414063
vn 0 -0.1737061 -0.9848633
vn 0 0.1737061 -0.9848633
vn 0 -0.1737061 -0.9848633
vn 0 0.1737061 -0.9848633
vn -0.3100586 -0.1320801 -0.9414063
vn -0.3100586 0.1320801 -0.9414063
vn -0.9755859 0.1551514 -0.1551514
vn -0.9755859 -0.1551514 -0.1551514
vn -0.3100586 -0.9414063 0.1320801
vn -0.9755859 -0.1551514 -0.1551514
vn -0.9755859 -0.1551514 0.1551514
vn -0.3100586 -0.1320801 0.9414063
vn -0.3100586 -0.9414063 -0.1320801
vn -0.3100586 -0.1320801 -0.9414063
vn 0 -0.1737061 -0.9848633
vn 0 -0.9848633 0.1737061
vn 0 -0.1737061 0.9848633
vn 0 -0.9848633 -0.1737061
vn 0 -0.1737061 -0.9848633
vn 0 -0.9848633 0.1737061
vn 0 -0.1737061 0.9848633
vn 0 -0.9848633 -0.1737061
vn 0.3100586 -0.1320801 -0.9414063
vn 0.3100586 -0.9414063 0.1320801
vn 0.3100586 -0.1320801 0.9414063
vn 0.9755859 -0.1551514 0.1551514
vn 0.3100586 -0.9414063 -0.1320801
vn 0.9755859 -0.1551514 -0.1551514
vn 0 0.1737061 -0.9848633
vn 0.3100586 0.1320801 -0.9414063
vn 0.3100586 0.9414063 -0.1320801
vn 0.9755859 0.1551514 -0.1551514
vn 0 0.9848633 -0.1737061
vn 0 0.1737061 -0.9848633
vn 0.3100586 0.9414063 0.1320801
vn 0.9755859 0.1551514 0.1551514
vn 0.3100586 0.1320801 0.9414063
vn 0 0.9848633 0.1737061
vn 0 0.1737061 0.9848633
vn 0 0.9848633 -0.1737061
vn -0.3100586 0.1320801 -0.9414063
vn 0 0.9848633 0.1737061
vn 0 0.1737061 0.9848633
vn -0.3100586 0.9414063 -0.1320801
vn -0.9755859 0.1551514 -0.1551514
vn -0.9755859 0.1551514 0.1551514
vn -0.3100586 0.9414063 0.1320801
vn -0.3100586 0.1320801 0.9414063
g LowerArm_left.023_0
f 3/3/3 2/2/2 1/1/1
f 2/2/2 4/4/4 1/1/1
f 5/5/5 1/1/1 4/4/4
f 6/6/6 5/5/5 4/4/4
f 5/5/5 6/6/6 7/7/7
f 8/8/8 5/5/5 7/7/7
f 8/8/8 7/7/7 9/9/9
f 10/10/10 8/8/8 9/9/9
f 10/10/10 9/9/9 11/11/11
f 12/12/12 10/10/10 11/11/11
f 13/13/13 12/12/12 11/11/11
f 14/14/14 13/13/13 11/11/11
f 13/13/13 14/14/14 15/15/15
f 16/16/16 13/13/13 15/15/15
f 19/19/19 18/18/18 17/17/17
f 18/18/18 20/20/20 17/17/17
f 20/20/20 21/21/21 17/17/17
f 21/21/21 22/22/22 17/17/17
f 21/21/21 23/23/23 22/22/22
f 23/23/23 24/24/24 22/22/22
f 23/23/23 25/25/25 24/24/24
f 25/25/25 26/26/26 24/24/24
f 26/26/26 25/25/25 27/27/27
f 25/25/25 28/28/28 27/27/27
f 31/31/31 30/30/30 29/29/29
f 29/29/29 32/32/32 31/31/31
f 30/30/30 33/33/33 29/29/29
f 30/30/30 34/34/34 33/33/33
f 34/34/34 35/35/35 33/33/33
f 29/29/29 36/36/36 32/32/32
f 36/36/36 29/29/29 33/33/33
f 36/36/36 37/37/37 32/32/32
f 35/35/35 38/38/38 33/33/33
f 38/38/38 36/36/36 33/33/33
f 35/35/35 39/39/39 38/38/38
f 36/36/36 40/40/40 37/37/37
f 40/40/40 36/36/36 38/38/38
f 40/40/40 41/41/41 37/37/37
f 39/39/39 42/42/42 38/38/38
f 42/42/42 40/40/40 38/38/38
f 39/39/39 43/43/43 42/42/42
f 40/40/40 44/44/44 41/41/41
f 44/44/44 40/40/40 42/42/42
f 44/44/44 45/45/45 41/41/41
f 46/46/46 45/45/45 44/44/44
f 43/43/43 47/47/47 42/42/42
f 47/47/47 44/44/44 42/42/42
f 44/44/44 47/47/47 46/46/46
f 47/47/47 43/43/43 48/48/48
f 47/47/47 48/48/48 46/46/46
f 51/51/51 50/50/50 49/49/49
f 50/50/50 51/51/51 52/52/52
f 53/53/53 51/51/51 49/49/49
f 53/53/53 49/49/49 54/54/54
f 52/52/52 51/51/51 55/55/55
f 51/51/51 53/53/53 55/55/55
f 56/56/56 52/52/52 55/55/55
f 55/55/55 57/57/57 56/56/56
f 57/57/57 55/55/55 58/58/58
f 53/53/53 58/58/58 55/55/55
f 59/59/59 57/57/57 58/58/58
f 60/60/60 53/53/53 54/54/54
f 53/53/53 60/60/60 58/58/58
f 60/60/60 54/54/54 61/61/61
f 59/59/59 58/58/58 62/62/62
f 60/60/60 62/62/62 58/58/58
f 63/63/63 59/59/59 62/62/62
f 64/64/64 60/60/60 61/61/61
f 60/60/60 64/64/64 62/62/62
f 65/65/65 64/64/64 61/61/61
f 64/64/64 65/65/65 66/66/66
f 63/63/63 62/62/62 67/67/67
f 64/64/64 67/67/67 62/62/62
f 67/67/67 64/64/64 66/66/66
f 68/68/68 63/63/63 67/67/67
f 66/66/66 68/68/68 67/67/67
