g LowerArm_left.018
v -0.1868241 0.07662708 0.07662745
v -0.1868238 -0.07662714 -0.07662811
v -0.1868238 0.0766271 -0.07662812
v -0.1868241 -0.07662705 0.07662746
v -0.1539883 0.07662707 0.109462
v -0.1539883 -0.07662705 0.109462
v 0.1539879 -0.07662705 0.1094625
v 0.1539879 0.07662707 0.1094625
v 0.1868238 0.07662708 0.07662811
v 0.1868238 -0.07662705 0.07662812
v 0.1868241 -0.07662714 -0.07662746
v 0.1868241 0.0766271 -0.07662746
v 0.1539883 0.07662711 -0.109462
v 0.1868241 -0.07662714 -0.07662746
v 0.1868241 0.0766271 -0.07662746
v 0.1539883 -0.07662713 -0.109462
v -0.1539879 -0.07662713 -0.1094625
v -0.1539879 0.07662711 -0.1094625
v -0.1868238 0.0766271 -0.07662812
v -0.1868238 -0.07662714 -0.07662811
v -0.1539882 -0.1094627 0.07662752
v -0.1868238 -0.07662714 -0.07662811
v -0.1868241 -0.07662705 0.07662746
v -0.1539883 -0.07662705 0.109462
v -0.1539879 -0.1094628 -0.07662805
v -0.1539879 -0.07662713 -0.1094625
v 0.1539883 -0.07662713 -0.109462
v 0.153988 -0.1094627 0.07662807
v 0.1539879 -0.07662705 0.1094625
v 0.1868238 -0.07662705 0.07662812
v 0.1539882 -0.1094628 -0.07662751
v 0.1868241 -0.07662714 -0.07662746
v -0.1539879 0.07662711 -0.1094625
v 0.1539883 0.07662711 -0.109462
v 0.1539882 0.1094627 -0.07662753
v 0.1868241 0.0766271 -0.07662746
v -0.1539879 0.1094627 -0.07662807
v -0.1868238 0.0766271 -0.07662812
v -0.1868241 0.07662708 0.07662745
v 0.153988 0.1094627 0.07662804
v 0.1868238 0.07662708 0.07662811
v 0.1539879 0.07662707 0.1094625
v -0.1539882 0.1094627 0.07662751
v -0.1539883 0.07662707 0.109462
vt 0.08496094 0.7827148
vt 0.06835938 0.784668
vt 0.08496094 0.784668
vt 0.06835938 0.7827148
vt 0.08496094 0.7817383
vt 0.06835938 0.7817383
vt 0.06835938 0.7397461
vt 0.08496094 0.7397461
vt 0.08496094 0.7387695
vt 0.06835938 0.7387695
vt 0.06835938 0.7373047
vt 0.08496094 0.7373047
vt 0.02694702 0.7397461
vt 0.04351807 0.7387695
vt 0.02694702 0.7387695
vt 0.04351807 0.7397461
vt 0.04351807 0.7817383
vt 0.02694702 0.7817383
vt 0.02694702 0.7827148
vt 0.04351807 0.7827148
vt 0.06463623 0.7631836
vt 0.04724121 0.7675781
vt 0.06463623 0.7675781
vt 0.06835938 0.7631836
vt 0.04724121 0.7631836
vt 0.04351807 0.7631836
vt 0.04351807 0.7207031
vt 0.06463623 0.7207031
vt 0.06835938 0.7207031
vt 0.06463623 0.7163086
vt 0.04724121 0.7207031
vt 0.04724121 0.7163086
vt 0.109375 0.8046875
vt 0.109375 0.7626953
vt 0.1057129 0.7626953
vt 0.1057129 0.7587891
vt 0.1057129 0.8046875
vt 0.1057129 0.809082
vt 0.08862305 0.809082
vt 0.08862305 0.7626953
vt 0.08862305 0.7587891
vt 0.08496094 0.7626953
vt 0.08862305 0.8046875
vt 0.08496094 0.8046875
vn -0.9755859 0.1551514 0.1551514
vn -0.9755859 -0.1551514 -0.1551514
vn -0.9755859 0.1551514 -0.1551514
vn -0.9755859 -0.1551514 0.1551514
vn -0.08453369 0.1641846 0.9829102
vn -0.08453369 -0.1641846 0.9829102
vn 0.08453369 -0.1641846 0.9829102
vn 0.08453369 0.1641846 0.9829102
vn 0.9755859 0.1551514 0.1551514
vn 0.9755859 -0.1551514 0.1551514
vn 0.9755859 -0.1551514 -0.1551514
vn 0.9755859 0.1551514 -0.1551514
vn 0.08453369 0.1641846 -0.9829102
vn 0.9755859 -0.1551514 -0.1551514
vn 0.9755859 0.1551514 -0.1551514
vn 0.08453369 -0.1641846 -0.9829102
vn -0.08453369 -0.1641846 -0.9829102
vn -0.08453369 0.1641846 -0.9829102
vn -0.9755859 0.1551514 -0.1551514
vn -0.9755859 -0.1551514 -0.1551514
vn -0.08453369 -0.9829102 0.1641846
vn -0.9755859 -0.1551514 -0.1551514
vn -0.9755859 -0.1551514 0.1551514
vn -0.08453369 -0.1641846 0.9829102
vn -0.08453369 -0.9829102 -0.1641846
vn -0.08453369 -0.1641846 -0.9829102
vn 0.08453369 -0.1641846 -0.9829102
vn 0.08453369 -0.9829102 0.1641846
vn 0.08453369 -0.1641846 0.9829102
vn 0.9755859 -0.1551514 0.1551514
vn 0.08453369 -0.9829102 -0.1641846
vn 0.9755859 -0.1551514 -0.1551514
vn -0.08453369 0.1641846 -0.9829102
vn 0.08453369 0.1641846 -0.9829102
vn 0.08453369 0.9829102 -0.1641846
vn 0.9755859 0.1551514 -0.1551514
vn -0.08453369 0.9829102 -0.1641846
vn -0.9755859 0.1551514 -0.1551514
vn -0.9755859 0.1551514 0.1551514
vn 0.08453369 0.9829102 0.1641846
vn 0.9755859 0.1551514 0.1551514
vn 0.08453369 0.1641846 0.9829102
vn -0.08453369 0.9829102 0.1641846
vn -0.08453369 0.1641846 0.9829102
g LowerArm_left.018_0
f 3/3/3 2/2/2 1/1/1
f 2/2/2 4/4/4 1/1/1
f 5/5/5 1/1/1 4/4/4
f 6/6/6 5/5/5 4/4/4
f 5/5/5 6/6/6 7/7/7
f 8/8/8 5/5/5 7/7/7
f 9/9/9 8/8/8 7/7/7
f 10/10/10 9/9/9 7/7/7
f 9/9/9 10/10/10 11/11/11
f 12/12/12 9/9/9 11/11/11
f 15/15/15 14/14/14 13/13/13
f 14/14/14 16/16/16 13/13/13
f 16/16/16 17/17/17 13/13/13
f 17/17/17 18/18/18 13/13/13
f 18/18/18 17/17/17 19/19/19
f 17/17/17 20/20/20 19/19/19
f 23/23/23 22/22/22 21/21/21
f 21/21/21 24/24/24 23/23/23
f 22/22/22 25/25/25 21/21/21
f 22/22/22 26/26/26 25/25/25
f 26/26/26 27/27/27 25/25/25
f 21/21/21 28/28/28 24/24/24
f 28/28/28 21/21/21 25/25/25
f 28/28/28 29/29/29 24/24/24
f 30/30/30 29/29/29 28/28/28
f 27/27/27 31/31/31 25/25/25
f 31/31/31 28/28/28 25/25/25
f 28/28/28 31/31/31 30/30/30
f 31/31/31 27/27/27 32/32/32
f 31/31/31 32/32/32 30/30/30
f 35/35/35 34/34/34 33/33/33
f 34/34/34 35/35/35 36/36/36
f 37/37/37 35/35/35 33/33/33
f 38/38/38 37/37/37 33/33/33
f 37/37/37 38/38/38 39/39/39
f 36/36/36 35/35/35 40/40/40
f 35/35/35 37/37/37 40/40/40
f 41/41/41 36/36/36 40/40/40
f 40/40/40 42/42/42 41/41/41
f 43/43/43 37/37/37 39/39/39
f 37/37/37 43/43/43 40/40/40
f 42/42/42 40/40/40 43/43/43
f 39/39/39 44/44/44 43/43/43
f 44/44/44 42/42/42 43/43/43
