g Oreille Gauche
v 0.5074742 0.429708 -0.03043073
v 0.3951729 0.429708 0.06380154
v 0.2948485 0.429708 -0.05576032
v 0.4071503 0.429708 -0.1499925
v 0.3871236 0.3985526 -0.1738591
v 0.2748222 0.1730077 -0.07962687
v 0.3871236 0.1730077 -0.1738591
v 0.2748222 0.3985526 -0.07962687
v 0.2693277 0.3985526 -0.03434573
v 0.2693277 0.1730079 -0.03434573
v 0.3696516 0.3985526 0.0852161
v 0.3696516 0.1730079 0.0852161
v 0.4151991 0.1730077 0.08766808
v 0.4151991 0.2309958 0.08766808
v 0.5275009 0.1730077 -0.006564177
v 0.4151991 0.3361837 0.08766808
v 0.4151991 0.3985526 0.08766808
v 0.499115 0.2309958 0.0172544
v 0.5275009 0.3985526 -0.006564191
v 0.499115 0.3361837 0.01725438
v 0.5329955 0.1730074 -0.05184527
v 0.5329955 0.3985526 -0.05184526
v 0.4326711 0.1730074 -0.1714071
v 0.4326711 0.3985526 -0.1714071
v 0.3871236 0.3985526 -0.1738591
v 0.3871236 0.1730077 -0.1738591
v 0.2948485 0.141852 -0.05576032
v 0.3951729 0.141852 0.06380154
v 0.5074742 0.141852 -0.03043072
v 0.4071503 0.141852 -0.1499926
v 0.4151991 0.3361837 0.08766808
v 0.499115 0.3361837 0.01725438
v 0.499115 0.2309958 0.0172544
v 0.4151991 0.2309958 0.08766808
v 0.5275009 0.3985526 -0.006564191
v 0.4151991 0.3985526 0.08766808
v 0.3951729 0.429708 0.06380154
v 0.3696516 0.3985526 0.0852161
v 0.5074742 0.429708 -0.03043073
v 0.5329955 0.3985526 -0.05184526
v 0.2948485 0.429708 -0.05576032
v 0.2693277 0.3985526 -0.03434573
v 0.2748222 0.3985526 -0.07962687
v 0.4071503 0.429708 -0.1499925
v 0.4326711 0.3985526 -0.1714071
v 0.3871236 0.3985526 -0.1738591
v 0.3951729 0.141852 0.06380154
v 0.2693277 0.1730079 -0.03434573
v 0.3696516 0.1730079 0.0852161
v 0.4151991 0.1730077 0.08766808
v 0.2948485 0.141852 -0.05576032
v 0.2748222 0.1730077 -0.07962687
v 0.3871236 0.1730077 -0.1738591
v 0.4071503 0.141852 -0.1499926
v 0.4326711 0.1730074 -0.1714071
v 0.5074742 0.141852 -0.03043072
v 0.5275009 0.1730077 -0.006564177
v 0.5329955 0.1730074 -0.05184527
vt 0.0748291 0.8300781
vt 0.05334473 0.8300781
vt 0.05334473 0.8320313
vt 0.0748291 0.8320313
vt 0.03436279 0.7983398
vt 0.04870605 0.746582
vt 0.03436279 0.746582
vt 0.04870605 0.7983398
vt 0.05166626 0.7983398
vt 0.05166626 0.746582
vt 0.06658936 0.7983398
vt 0.06658936 0.746582
vt 0.06982422 0.746582
vt 0.06982422 0.7597656
vt 0.08416748 0.746582
vt 0.06982422 0.7841797
vt 0.06982422 0.7983398
vt 0.08056641 0.7597656
vt 0.08416748 0.7983398
vt 0.08056641 0.7841797
vt 0.08746338 0.746582
vt 0.08746338 0.7983398
vt 0.102356 0.746582
vt 0.102356 0.7983398
vt 0.1053467 0.7983398
vt 0.1053467 0.746582
vt 0.05160522 0.7060547
vt 0.05160522 0.7094727
vt 0.07775879 0.7094727
vt 0.07775879 0.7060547
vt 0.06982422 0.652832
vt 0.08056641 0.652832
vt 0.08056641 0.6289063
vt 0.06982422 0.6289063
vt 0.0748291 0.8120117
vt 0.05334473 0.8120117
vt 0.05334473 0.8120117
vt 0.0484314 0.8120117
vt 0.0748291 0.8120117
vt 0.07971191 0.8120117
vt 0.05334473 0.8139648
vt 0.0484314 0.8139648
vt 0.05334473 0.8144531
vt 0.0748291 0.8139648
vt 0.07971191 0.8139648
vt 0.0748291 0.8144531
vt 0.05160522 0.7255859
vt 0.0456543 0.722168
vt 0.0456543 0.7255859
vt 0.05160522 0.7260742
vt 0.05160522 0.722168
vt 0.05160522 0.7216797
vt 0.07775879 0.7216797
vt 0.07775879 0.722168
vt 0.0836792 0.722168
vt 0.07775879 0.7255859
vt 0.07775879 0.7260742
vt 0.0836792 0.7255859
vn 0.2114258 0.9775391 0.01277161
vn -0.0241394 0.9775391 0.2104492
vn -0.2114258 0.9775391 -0.01277161
vn 0.0241394 0.9775391 -0.2104492
vn -0.5092773 0.1061401 -0.8540039
vn -0.7524414 -0.1061401 -0.6499023
vn -0.5092773 -0.1061401 -0.8540039
vn -0.7524414 0.1061401 -0.6499023
vn -0.8549805 0.1143799 0.5058594
vn -0.8549805 -0.1143799 0.5058594
vn -0.7299805 0.1309814 0.6708984
vn -0.6977539 -0.1245117 0.7055664
vn 0.4406738 -0.291748 0.8491211
vn 0.5698242 0 0.8217773
vn 0.8491211 -0.230835 0.4750977
vn 0.5366211 0 0.84375
vn 0.5366211 0.3312988 0.7758789
vn 0.6425781 0 0.7661133
vn 0.8466797 0.2269287 0.4812012
vn 0.6425781 0 0.7661133
vn 0.8549805 -0.1143799 -0.5058594
vn 0.8549805 0.1143799 -0.5058594
vn 0.6464844 -0.1143799 -0.7543945
vn 0.6464844 0.1143799 -0.7543945
vn -0.5092773 0.1061401 -0.8540039
vn -0.5092773 -0.1061401 -0.8540039
vn -0.2114258 -0.9775391 -0.01277161
vn -0.0241394 -0.9775391 0.2104492
vn 0.2114258 -0.9775391 0.01277161
vn 0.0241394 -0.9775391 -0.2104492
vn 0.5366211 0 0.84375
vn 0.6425781 0 0.7661133
vn 0.6425781 0 0.7661133
vn 0.5698242 0 0.8217773
vn 0.8466797 0.2269287 0.4812012
vn 0.5366211 0.3312988 0.7758789
vn -0.0241394 0.9775391 0.2104492
vn -0.7299805 0.1309814 0.6708984
vn 0.2114258 0.9775391 0.01277161
vn 0.8549805 0.1143799 -0.5058594
vn -0.2114258 0.9775391 -0.01277161
vn -0.8549805 0.1143799 0.5058594
vn -0.7524414 0.1061401 -0.6499023
vn 0.0241394 0.9775391 -0.2104492
vn 0.6464844 0.1143799 -0.7543945
vn -0.5092773 0.1061401 -0.8540039
vn -0.0241394 -0.9775391 0.2104492
vn -0.8549805 -0.1143799 0.5058594
vn -0.6977539 -0.1245117 0.7055664
vn 0.4406738 -0.291748 0.8491211
vn -0.2114258 -0.9775391 -0.01277161
vn -0.7524414 -0.1061401 -0.6499023
vn -0.5092773 -0.1061401 -0.8540039
vn 0.0241394 -0.9775391 -0.2104492
vn 0.6464844 -0.1143799 -0.7543945
vn 0.2114258 -0.9775391 0.01277161
vn 0.8491211 -0.230835 0.4750977
vn 0.8549805 -0.1143799 -0.5058594
g Oreille Gauche_0
f 3/3/3 2/2/2 1/1/1
f 4/4/4 3/3/3 1/1/1
f 7/7/7 6/6/6 5/5/5
f 6/6/6 8/8/8 5/5/5
f 9/9/9 8/8/8 6/6/6
f 10/10/10 9/9/9 6/6/6
f 11/11/11 9/9/9 10/10/10
f 12/12/12 11/11/11 10/10/10
f 11/11/11 12/12/12 13/13/13
f 11/11/11 13/13/13 14/14/14
f 14/14/14 13/13/13 15/15/15
f 11/11/11 14/14/14 16/16/16
f 16/16/16 17/17/17 11/11/11
f 18/18/18 14/14/14 15/15/15
f 17/17/17 16/16/16 19/19/19
f 18/18/18 15/15/15 20/20/20
f 16/16/16 20/20/20 19/19/19
f 15/15/15 19/19/19 20/20/20
f 19/19/19 15/15/15 21/21/21
f 22/22/22 19/19/19 21/21/21
f 21/21/21 23/23/23 22/22/22
f 23/23/23 24/24/24 22/22/22
f 25/25/25 24/24/24 23/23/23
f 26/26/26 25/25/25 23/23/23
f 29/29/29 28/28/28 27/27/27
f 30/30/30 29/29/29 27/27/27
f 33/33/33 32/32/32 31/31/31
f 34/34/34 33/33/33 31/31/31
f 37/37/37 36/36/36 35/35/35
f 38/38/38 36/36/36 37/37/37
f 39/39/39 37/37/37 35/35/35
f 39/39/39 35/35/35 40/40/40
f 37/37/37 41/41/41 38/38/38
f 41/41/41 42/42/42 38/38/38
f 42/42/42 41/41/41 43/43/43
f 39/39/39 40/40/40 44/44/44
f 43/43/43 41/41/41 44/44/44
f 40/40/40 45/45/45 44/44/44
f 46/46/46 43/43/43 44/44/44
f 46/46/46 44/44/44 45/45/45
f 49/49/49 48/48/48 47/47/47
f 47/47/47 50/50/50 49/49/49
f 48/48/48 51/51/51 47/47/47
f 48/48/48 52/52/52 51/51/51
f 51/51/51 52/52/52 53/53/53
f 54/54/54 51/51/51 53/53/53
f 54/54/54 53/53/53 55/55/55
f 50/50/50 47/47/47 56/56/56
f 56/56/56 54/54/54 55/55/55
f 57/57/57 50/50/50 56/56/56
f 58/58/58 56/56/56 55/55/55
f 58/58/58 57/57/57 56/56/56
