g Pied droit
v -0.2200078 0.1731269 -0.1134467
v -0.06125359 0.01437275 -0.1134467
v -0.06125359 0.1731269 -0.1134467
v -0.2200078 0.01437275 -0.1134467
v -0.2540215 0.01437276 -0.07943486
v -0.2540215 0.173127 -0.07943488
v -0.2540215 0.173127 0.07932119
v -0.2540215 0.01437278 0.07932121
v -0.2200078 0.01437279 0.113333
v -0.2200078 0.173127 0.113333
v -0.06125358 0.173127 0.113333
v -0.06125358 0.01437279 0.113333
v -0.02723992 0.01437278 0.0793212
v -0.02723992 0.173127 0.07932118
v -0.02723993 0.01437276 -0.07943486
v -0.02723993 0.173127 -0.07943489
v -0.06125359 0.01437275 -0.1134467
v -0.06125359 0.1731269 -0.1134467
v -0.06125358 -0.01964114 0.07932121
v -0.02723992 0.01437278 0.0793212
v -0.02723993 0.01437276 -0.07943486
v -0.06125358 0.01437279 0.113333
v -0.06125359 -0.01964116 -0.07943486
v -0.06125359 0.01437275 -0.1134467
v -0.2200078 0.01437275 -0.1134467
v -0.2200078 -0.01964114 0.07932121
v -0.2200078 0.01437279 0.113333
v -0.2540215 0.01437278 0.07932121
v -0.2200078 -0.01964116 -0.07943485
v -0.2540215 0.01437276 -0.07943486
v -0.02723992 0.173127 0.07932118
v -0.06125359 0.2071409 -0.07943489
v -0.02723993 0.173127 -0.07943489
v -0.06125359 0.1731269 -0.1134467
v -0.06125358 0.2071409 0.07932118
v -0.06125358 0.173127 0.113333
v -0.2200078 0.173127 0.113333
v -0.2200078 0.2071409 0.07932118
v -0.2540215 0.173127 0.07932119
v -0.2540215 0.173127 -0.07943488
v -0.2200078 0.2071409 -0.07943489
v -0.2200078 0.1731269 -0.1134467
vt 0.3381348 0.8686523
vt 0.3566895 0.8300781
vt 0.3566895 0.8686523
vt 0.3381348 0.8300781
vt 0.3339844 0.8300781
vt 0.3339844 0.8686523
vt 0.3154297 0.8686523
vt 0.3154297 0.8300781
vt 0.3115234 0.8300781
vt 0.3115234 0.8686523
vt 0.2929688 0.8686523
vt 0.2929688 0.8300781
vt 0.2888184 0.8300781
vt 0.2888184 0.8686523
vt 0.2702637 0.8300781
vt 0.2702637 0.8686523
vt 0.2663574 0.8300781
vt 0.2663574 0.8686523
vt 0.3242188 0.7685547
vt 0.3242188 0.769043
vt 0.2937012 0.769043
vt 0.3308105 0.7685547
vt 0.2937012 0.7685547
vt 0.2871094 0.7685547
vt 0.2871094 0.7670898
vt 0.3242188 0.7670898
vt 0.3308105 0.7670898
vt 0.3242188 0.7666016
vt 0.2937012 0.7670898
vt 0.2937012 0.7666016
vt 0.2954102 0.925293
vt 0.3256836 0.9248047
vt 0.3256836 0.925293
vt 0.3320313 0.9248047
vt 0.2954102 0.9248047
vt 0.2888184 0.9248047
vt 0.2888184 0.9223633
vt 0.2954102 0.9223633
vt 0.2954102 0.921875
vt 0.3256836 0.921875
vt 0.3256836 0.9223633
vt 0.3320313 0.9223633
vn -0.1551514 0.1551514 -0.9755859
vn 0.1551514 -0.1551514 -0.9755859
vn 0.1551514 0.1551514 -0.9755859
vn -0.1551514 -0.1551514 -0.9755859
vn -0.9755859 -0.1551514 -0.1551514
vn -0.9755859 0.1551514 -0.1551514
vn -0.9755859 0.1551514 0.1551514
vn -0.9755859 -0.1551514 0.1551514
vn -0.1551514 -0.1551514 0.9755859
vn -0.1551514 0.1551514 0.9755859
vn 0.1551514 0.1551514 0.9755859
vn 0.1551514 -0.1551514 0.9755859
vn 0.9755859 -0.1551514 0.1551514
vn 0.9755859 0.1551514 0.1551514
vn 0.9755859 -0.1551514 -0.1551514
vn 0.9755859 0.1551514 -0.1551514
vn 0.1551514 -0.1551514 -0.9755859
vn 0.1551514 0.1551514 -0.9755859
vn 0.1551514 -0.9755859 0.1551514
vn 0.9755859 -0.1551514 0.1551514
vn 0.9755859 -0.1551514 -0.1551514
vn 0.1551514 -0.1551514 0.9755859
vn 0.1551514 -0.9755859 -0.1551514
vn 0.1551514 -0.1551514 -0.9755859
vn -0.1551514 -0.1551514 -0.9755859
vn -0.1551514 -0.9755859 0.1551514
vn -0.1551514 -0.1551514 0.9755859
vn -0.9755859 -0.1551514 0.1551514
vn -0.1551514 -0.9755859 -0.1551514
vn -0.9755859 -0.1551514 -0.1551514
vn 0.9755859 0.1551514 0.1551514
vn 0.1551514 0.9755859 -0.1551514
vn 0.9755859 0.1551514 -0.1551514
vn 0.1551514 0.1551514 -0.9755859
vn 0.1551514 0.9755859 0.1551514
vn 0.1551514 0.1551514 0.9755859
vn -0.1551514 0.1551514 0.9755859
vn -0.1551514 0.9755859 0.1551514
vn -0.9755859 0.1551514 0.1551514
vn -0.9755859 0.1551514 -0.1551514
vn -0.1551514 0.9755859 -0.1551514
vn -0.1551514 0.1551514 -0.9755859
g Pied droit_0
f 3/3/3 2/2/2 1/1/1
f 2/2/2 4/4/4 1/1/1
f 4/4/4 5/5/5 1/1/1
f 5/5/5 6/6/6 1/1/1
f 7/7/7 6/6/6 5/5/5
f 8/8/8 7/7/7 5/5/5
f 7/7/7 8/8/8 9/9/9
f 10/10/10 7/7/7 9/9/9
f 11/11/11 10/10/10 9/9/9
f 12/12/12 11/11/11 9/9/9
f 11/11/11 12/12/12 13/13/13
f 14/14/14 11/11/11 13/13/13
f 13/13/13 15/15/15 14/14/14
f 15/15/15 16/16/16 14/14/14
f 15/15/15 17/17/17 16/16/16
f 17/17/17 18/18/18 16/16/16
f 21/21/21 20/20/20 19/19/19
f 22/22/22 19/19/19 20/20/20
f 23/23/23 21/21/21 19/19/19
f 24/24/24 21/21/21 23/23/23
f 25/25/25 24/24/24 23/23/23
f 26/26/26 19/19/19 22/22/22
f 19/19/19 26/26/26 23/23/23
f 27/27/27 26/26/26 22/22/22
f 27/27/27 28/28/28 26/26/26
f 29/29/29 25/25/25 23/23/23
f 26/26/26 29/29/29 23/23/23
f 29/29/29 26/26/26 28/28/28
f 25/25/25 29/29/29 30/30/30
f 30/30/30 29/29/29 28/28/28
f 33/33/33 32/32/32 31/31/31
f 32/32/32 33/33/33 34/34/34
f 32/32/32 35/35/35 31/31/31
f 36/36/36 31/31/31 35/35/35
f 37/37/37 36/36/36 35/35/35
f 38/38/38 37/37/37 35/35/35
f 35/35/35 32/32/32 38/38/38
f 37/37/37 38/38/38 39/39/39
f 40/40/40 39/39/39 38/38/38
f 41/41/41 32/32/32 34/34/34
f 32/32/32 41/41/41 38/38/38
f 41/41/41 40/40/40 38/38/38
f 42/42/42 41/41/41 34/34/34
f 41/41/41 42/42/42 40/40/40
