g Sangle armure droit
v -0.09753129 1.542858 -0.2268128
v -0.09753129 1.555044 -0.2268128
v -0.1950626 1.555044 -0.2268128
v -0.1950626 1.542858 -0.2268128
v -0.09753129 1.621483 -0.1481874
v -0.09753129 1.555044 -0.2268128
v -0.09753129 1.542858 -0.2268128
v -0.09753129 1.633669 -0.1481873
v -0.09753129 1.621483 0.1137144
v -0.09753129 1.633669 0.1137145
v -0.09753129 1.542858 0.1923381
v -0.09753129 1.555044 0.1923381
v -0.1950626 1.555044 -0.2268128
v -0.09753129 1.555044 -0.2268128
v -0.09753129 1.633669 -0.1481873
v -0.1950626 1.633669 -0.1481873
v -0.09753129 1.633669 0.1137145
v -0.1950626 1.633669 0.1137145
v -0.09753129 1.555044 0.1923381
v -0.1950626 1.555044 0.1923381
v -0.1950626 1.542858 0.1923381
v -0.1950626 1.555044 0.1923381
v -0.09753129 1.555044 0.1923381
v -0.09753129 1.542858 0.1923381
v -0.1950626 1.542858 -0.2268128
v -0.1950626 1.555044 -0.2268128
v -0.1950626 1.633669 -0.1481873
v -0.1950626 1.621483 -0.1481874
v -0.1950626 1.633669 0.1137145
v -0.1950626 1.621483 0.1137144
v -0.1950626 1.555044 0.1923381
v -0.1950626 1.542858 0.1923381
v -0.09768129 1.542858 -0.2266628
v -0.1949126 1.542858 -0.2266628
v -0.1949257 1.554977 -0.2266512
v -0.09766821 1.554977 -0.2266512
v -0.09768129 1.621483 -0.1481874
v -0.09768129 1.542858 -0.2266628
v -0.09766821 1.554977 -0.2266512
v -0.09766821 1.633507 -0.1481203
v -0.09768129 1.621483 0.1137144
v -0.09766821 1.633507 0.1136476
v -0.09768129 1.542858 0.1921881
v -0.09766821 1.554977 0.1921766
v -0.1949257 1.554977 -0.2266512
v -0.09766821 1.633507 -0.1481203
v -0.09766821 1.554977 -0.2266512
v -0.1949257 1.633507 -0.1481203
v -0.09766821 1.633507 0.1136476
v -0.1949257 1.633507 0.1136476
v -0.09766821 1.554977 0.1921766
v -0.1949257 1.554977 0.1921766
v -0.1949126 1.542858 0.1921881
v -0.09768129 1.542858 0.1921881
v -0.09766821 1.554977 0.1921766
v -0.1949257 1.554977 0.1921766
v -0.1949126 1.542858 -0.2266628
v -0.1949257 1.633507 -0.1481203
v -0.1949257 1.554977 -0.2266512
v -0.1949126 1.621483 -0.1481874
v -0.1949257 1.633507 0.1136476
v -0.1949126 1.621483 0.1137144
v -0.1949257 1.554977 0.1921766
v -0.1949126 1.542858 0.1921881
v -0.09753129 1.621483 0.1137144
v -0.09768129 1.542858 0.1921881
v -0.09753129 1.542858 0.1923381
v -0.09768129 1.621483 0.1137144
v -0.09753129 1.621483 -0.1481874
v -0.09768129 1.621483 -0.1481874
v -0.09753129 1.542858 -0.2268128
v -0.09768129 1.542858 -0.2266628
v -0.1950626 1.542858 -0.2268128
v -0.1949126 1.542858 -0.2266628
v -0.09768129 1.542858 -0.2266628
v -0.09753129 1.542858 -0.2268128
v -0.1950626 1.542858 0.1923381
v -0.1949126 1.542858 0.1921881
v -0.1949126 1.621483 0.1137144
v -0.1950626 1.621483 0.1137144
v -0.1949126 1.621483 -0.1481874
v -0.1950626 1.621483 -0.1481874
v -0.1949126 1.542858 -0.2266628
v -0.1950626 1.542858 -0.2268128
v -0.09753129 1.542858 0.1923381
v -0.09768129 1.542858 0.1921881
v -0.1949126 1.542858 0.1921881
v -0.1950626 1.542858 0.1923381
v -0.1949126 1.542858 0.1921881
v -0.09768129 1.542858 0.1921881
v -0.09768129 1.621483 0.1137144
v -0.1950626 1.621483 0.1137144
v -0.1950626 1.542858 0.1923381
v -0.1949126 1.621483 -0.1481874
v -0.09768129 1.542858 -0.2266628
v -0.1949126 1.542858 -0.2266628
v -0.09768129 1.621483 -0.1481874
v -0.09768129 1.621483 0.1137144
v -0.1949126 1.621483 0.1137144
vt 0.3364487 0.8168017
vt 0.3364487 0.8168017
vt 0.3406733 0.8168017
vt 0.3406733 0.8168017
vt 0.3168334 0.8695575
vt 0.3168334 0.8686756
vt 0.3168334 0.8686756
vt 0.3168334 0.8695575
vt 0.3168334 0.8724948
vt 0.3168334 0.8724948
vt 0.3168334 0.8733765
vt 0.3168334 0.8733765
vt 0.328853 0.8686756
vt 0.3168334 0.8686756
vt 0.3168334 0.8695575
vt 0.328853 0.8695575
vt 0.3168334 0.8724948
vt 0.3288529 0.8724948
vt 0.3168334 0.8733765
vt 0.3288529 0.8733765
vt 0.2877299 0.8168017
vt 0.2877299 0.8168017
vt 0.2919545 0.8168017
vt 0.2919545 0.8168017
vt 0.328853 0.8686756
vt 0.328853 0.8686756
vt 0.328853 0.8695575
vt 0.328853 0.8695575
vt 0.3288529 0.8724948
vt 0.3288529 0.8724948
vt 0.3288529 0.8733765
vt 0.3288529 0.8733765
vt 0.3364487 0.8168017
vt 0.3406733 0.8168017
vt 0.3406733 0.8168017
vt 0.3364487 0.8168017
vt 0.3168334 0.8695575
vt 0.3168334 0.8686756
vt 0.3168334 0.8686756
vt 0.3168334 0.8695575
vt 0.3168334 0.8724948
vt 0.3168334 0.8724948
vt 0.3168334 0.8733765
vt 0.3168334 0.8733765
vt 0.328853 0.8686756
vt 0.3168334 0.8695575
vt 0.3168334 0.8686756
vt 0.328853 0.8695575
vt 0.3168334 0.8724948
vt 0.3288529 0.8724948
vt 0.3168334 0.8733765
vt 0.3288529 0.8733765
vt 0.2877299 0.8168017
vt 0.2919545 0.8168017
vt 0.2919545 0.8168017
vt 0.2877299 0.8168017
vt 0.328853 0.8686756
vt 0.328853 0.8695575
vt 0.328853 0.8686756
vt 0.328853 0.8695575
vt 0.3288529 0.8724948
vt 0.3288529 0.8724948
vt 0.3288529 0.8733765
vt 0.3288529 0.8733765
vt 0.3168334 0.8724948
vt 0.3168334 0.8733765
vt 0.3168334 0.8733765
vt 0.3168334 0.8724948
vt 0.3168334 0.8695575
vt 0.3168334 0.8695575
vt 0.3168334 0.8686756
vt 0.3168334 0.8686756
vt 0.3406733 0.8168017
vt 0.3406733 0.8168017
vt 0.3364487 0.8168017
vt 0.3364487 0.8168017
vt 0.3288529 0.8733765
vt 0.3288529 0.8733765
vt 0.3288529 0.8724948
vt 0.3288529 0.8724948
vt 0.328853 0.8695575
vt 0.328853 0.8695575
vt 0.328853 0.8686756
vt 0.328853 0.8686756
vt 0.2919545 0.8168017
vt 0.2919545 0.8168017
vt 0.2877299 0.8168017
vt 0.2877299 0.8168017
vt 0 0
vt 0 0
vt 0 0
vt 0 0
vt 0 0
vt 0 0
vt 0 0
vt 0 0
vt 0 0
vt 0 0
vt 0 0
vn 0 0 -1
vn 0 0.6545627 -0.7560077
vn 0 0.6545627 -0.7560077
vn 0 0 -1
vn 1 0 0
vn 1 0 0
vn 1 0 0
vn 1 0 0
vn 1 0 0
vn 1 0 0
vn 1 0 0
vn 1 0 0
vn 0 0.6545627 -0.7560077
vn 0 0.6545627 -0.7560077
vn 0 0.9743648 -0.2249737
vn 0 0.9743648 -0.2249737
vn 0 0.9743645 0.2249748
vn 0 0.9743645 0.2249748
vn 0 0.6545532 0.756016
vn 0 0.6545532 0.756016
vn 0 0 1
vn 0 0.6545532 0.756016
vn 0 0.6545532 0.756016
vn 0 0 1
vn -1 0 0
vn -1 0 0
vn -1 0 0
vn -1 0 0
vn -1 0 0
vn -1 0 0
vn -1 0 0
vn -1 0 0
vn 0 -0.0009620283 0.9999995
vn 0 -0.0009620283 0.9999995
vn 0 -0.6548745 0.7557376
vn 0 -0.6548745 0.7557376
vn -0.9999994 0.001088345 -0.0003394184
vn -0.9999988 0.001087849 -0.001088886
vn -0.9999988 0.001087849 -0.001088886
vn -0.9999994 0.001088477 -0.0001407245
vn -0.9999994 0.001088341 0.0003394178
vn -0.9999994 0.001088475 0.0001407259
vn -0.9999988 0.001087836 0.001088899
vn -0.9999988 0.001087836 0.001088899
vn 0 -0.6548745 0.7557376
vn 0 -0.9743911 0.2248599
vn 0 -0.6548745 0.7557376
vn 0 -0.9743911 0.2248599
vn 0 -0.9743909 -0.224861
vn 0 -0.9743909 -0.224861
vn 0 -0.654865 -0.7557458
vn 0 -0.654865 -0.7557458
vn 0 -0.0009502243 -0.9999995
vn 0 -0.0009502243 -0.9999995
vn 0 -0.654865 -0.7557458
vn 0 -0.654865 -0.7557458
vn 0.9999988 0.001087849 -0.001088886
vn 0.9999994 0.001088477 -0.0001407246
vn 0.9999988 0.001087849 -0.001088886
vn 0.9999994 0.001088345 -0.0003394185
vn 0.9999994 0.001088475 0.0001407259
vn 0.9999994 0.001088341 0.0003394179
vn 0.9999988 0.001087837 0.001088899
vn 0.9999988 0.001087836 0.001088899
vn 0.1118054 -0.9682446 -0.223611
vn 0.189316 -0.9059785 -0.3786323
vn 0.2243498 -0.8650638 -0.4487001
vn 0.1118054 -0.9682446 -0.223611
vn 0.1118025 -0.968245 0.2236111
vn 0.1118025 -0.968245 0.2236111
vn 0.2243423 -0.8650675 0.4486967
vn 0.1893106 -0.90598 0.3786315
vn -0.2243423 -0.8650675 0.4486967
vn -0.1893106 -0.90598 0.3786315
vn 0.1893106 -0.90598 0.3786315
vn 0.2243423 -0.8650675 0.4486967
vn -0.2243498 -0.8650638 -0.4487001
vn -0.189316 -0.9059785 -0.3786323
vn -0.1118054 -0.9682446 -0.223611
vn -0.1118054 -0.9682446 -0.223611
vn -0.1118025 -0.968245 0.2236111
vn -0.1118025 -0.968245 0.2236111
vn -0.1893106 -0.90598 0.3786315
vn -0.2243423 -0.8650675 0.4486967
vn 0.2243498 -0.8650638 -0.4487001
vn 0.189316 -0.9059785 -0.3786323
vn -0.189316 -0.9059785 -0.3786323
vn -0.2243498 -0.8650638 -0.4487001
vn -0.001449507 -0.7064246 -0.7077868
vn 0 -0.7064239 -0.707789
vn 0 -0.7064239 -0.7077889
vn 0 -0.7064239 -0.7077889
vn -0.5773538 -0.5773425 -0.5773544
vn 0 -0.9743431 0.2250679
vn 0 -0.7064323 0.7077807
vn 0 -0.7064323 0.7077807
vn 0 -0.9743431 0.2250679
vn 0 -1 0
vn 0 -1 0
g Sangle armure droit_0
f 3/3/3 2/2/2 1/1/1
f 4/4/4 3/3/3 1/1/1
f 7/7/7 6/6/6 5/5/5
f 6/6/6 8/8/8 5/5/5
f 5/5/5 8/8/8 9/9/9
f 8/8/8 10/10/10 9/9/9
f 9/9/9 10/10/10 11/11/11
f 10/10/10 12/12/12 11/11/11
f 15/15/15 14/14/14 13/13/13
f 16/16/16 15/15/15 13/13/13
f 15/15/15 16/16/16 17/17/17
f 16/16/16 18/18/18 17/17/17
f 19/19/19 17/17/17 18/18/18
f 20/20/20 19/19/19 18/18/18
f 23/23/23 22/22/22 21/21/21
f 24/24/24 23/23/23 21/21/21
f 27/27/27 26/26/26 25/25/25
f 28/28/28 27/27/27 25/25/25
f 29/29/29 27/27/27 28/28/28
f 30/30/30 29/29/29 28/28/28
f 31/31/31 29/29/29 30/30/30
f 32/32/32 31/31/31 30/30/30
f 35/35/35 34/34/34 33/33/33
f 36/36/36 35/35/35 33/33/33
f 39/39/39 38/38/38 37/37/37
f 40/40/40 39/39/39 37/37/37
f 40/40/40 37/37/37 41/41/41
f 42/42/42 40/40/40 41/41/41
f 42/42/42 41/41/41 43/43/43
f 44/44/44 42/42/42 43/43/43
f 47/47/47 46/46/46 45/45/45
f 46/46/46 48/48/48 45/45/45
f 48/48/48 46/46/46 49/49/49
f 50/50/50 48/48/48 49/49/49
f 49/49/49 51/51/51 50/50/50
f 51/51/51 52/52/52 50/50/50
f 55/55/55 54/54/54 53/53/53
f 56/56/56 55/55/55 53/53/53
f 59/59/59 58/58/58 57/57/57
f 58/58/58 60/60/60 57/57/57
f 58/58/58 61/61/61 60/60/60
f 61/61/61 62/62/62 60/60/60
f 61/61/61 63/63/63 62/62/62
f 63/63/63 64/64/64 62/62/62
f 67/67/67 66/66/66 65/65/65
f 66/66/66 68/68/68 65/65/65
f 65/65/65 68/68/68 69/69/69
f 68/68/68 70/70/70 69/69/69
f 69/69/69 70/70/70 71/71/71
f 70/70/70 72/72/72 71/71/71
f 75/75/75 74/74/74 73/73/73
f 76/76/76 75/75/75 73/73/73
f 79/79/79 78/78/78 77/77/77
f 80/80/80 79/79/79 77/77/77
f 81/81/81 79/79/79 80/80/80
f 82/82/82 81/81/81 80/80/80
f 83/83/83 81/81/81 82/82/82
f 84/84/84 83/83/83 82/82/82
f 87/87/87 86/86/86 85/85/85
f 88/88/88 87/87/87 85/85/85
f 91/91/91 90/90/90 89/89/89
f 89/89/89 92/92/92 91/91/91
f 89/89/89 93/93/93 92/92/92
f 96/96/96 95/95/95 94/94/94
f 95/95/95 97/97/97 94/94/94
f 97/97/97 98/98/98 94/94/94
f 98/98/98 99/99/99 94/94/94
