g Shoulder_right.017
v -0.09703485 0.07786427 -0.1386261
v -0.0970391 -0.07785811 -0.1386284
v 0.09704474 -0.07786154 -0.1386214
v 0.09704903 0.07786083 -0.1386192
v -0.09703539 0.111228 -0.097041
v 0.09704844 0.1112246 -0.09703411
v -0.09704232 0.1112262 0.09703739
v 0.09704152 0.1112227 0.09704429
v -0.09704468 0.0778616 0.1386214
v 0.09703914 0.07785828 0.1386283
v -0.09704898 -0.07786079 0.1386192
v 0.09703489 -0.07786421 0.1386261
v -0.0970484 -0.1112248 0.0970341
v 0.09703544 -0.1112281 0.097041
v 0.09704236 -0.1112263 -0.09703741
v -0.09704152 -0.1112228 -0.09704431
v -0.0970391 -0.07785811 -0.1386284
v 0.09704474 -0.07786154 -0.1386214
v 0.1386196 -0.07786456 0.09704298
v 0.09703489 -0.07786421 0.1386261
v 0.09703914 0.07785828 0.1386283
v 0.09703544 -0.1112281 0.097041
v 0.1386238 0.07785783 0.09704526
v 0.09704152 0.1112227 0.09704429
v 0.09704844 0.1112246 -0.09703411
v 0.1386265 -0.07786269 -0.09703541
v 0.09704236 -0.1112263 -0.09703741
v 0.09704474 -0.07786154 -0.1386214
v 0.1386308 0.07785968 -0.09703312
v 0.09704903 0.07786083 -0.1386192
v -0.09703485 0.07786427 -0.1386261
v -0.1386237 -0.07785789 -0.09704528
v -0.0970391 -0.07785811 -0.1386284
v -0.09704152 -0.1112228 -0.09704431
v -0.1386195 0.07786461 -0.097043
v -0.09703539 0.111228 -0.097041
v -0.09704232 0.1112262 0.09703739
v -0.1386263 0.07786275 0.09703541
v -0.09704468 0.0778616 0.1386214
v -0.09704898 -0.07786079 0.1386192
v -0.1386306 -0.07785963 0.09703312
v -0.0970484 -0.1112248 0.0970341
vt 0.3344727 0.8139648
vt 0.3486328 0.8139648
vt 0.3486328 0.8339844
vt 0.3344727 0.8339844
vt 0.3312988 0.8139648
vt 0.3312988 0.8339844
vt 0.3171387 0.8139648
vt 0.3171387 0.8339844
vt 0.314209 0.8139648
vt 0.314209 0.8339844
vt 0.3000488 0.8139648
vt 0.3000488 0.8339844
vt 0.296875 0.8139648
vt 0.296875 0.8339844
vt 0.2827148 0.8339844
vt 0.2827148 0.8139648
vt 0.2797852 0.8139648
vt 0.2797852 0.8339844
vt 0.3308105 0.8642578
vt 0.3381348 0.8642578
vt 0.3381348 0.8657227
vt 0.3308105 0.8637695
vt 0.3308105 0.8657227
vt 0.3308105 0.8657227
vt 0.296875 0.8657227
vt 0.296875 0.8642578
vt 0.296875 0.8637695
vt 0.2895508 0.8642578
vt 0.296875 0.8657227
vt 0.2895508 0.8657227
vt 0.3371582 0.784668
vt 0.3300781 0.7836914
vt 0.3371582 0.7836914
vt 0.3300781 0.7836914
vt 0.3300781 0.784668
vt 0.3300781 0.7851563
vt 0.2966309 0.7851563
vt 0.2966309 0.784668
vt 0.2893066 0.784668
vt 0.2893066 0.7836914
vt 0.2966309 0.7836914
vt 0.2966309 0.7836914
vn -0.1535645 0.1915283 -0.9692383
vn -0.1535645 -0.1914063 -0.9692383
vn 0.1536865 -0.1915283 -0.9692383
vn 0.1536865 0.1915283 -0.9692383
vn -0.1263428 0.9838867 -0.1263428
vn 0.1263428 0.9838867 -0.1263428
vn -0.1263428 0.9838867 0.1263428
vn 0.1263428 0.9838867 0.1263428
vn -0.1536865 0.1915283 0.9692383
vn 0.1535645 0.1914063 0.9692383
vn -0.1536865 -0.1915283 0.9692383
vn 0.1535645 -0.1915283 0.9692383
vn -0.1263428 -0.9838867 0.1263428
vn 0.1263428 -0.9838867 0.1263428
vn 0.1263428 -0.9838867 -0.1263428
vn -0.1263428 -0.9838867 -0.1263428
vn -0.1535645 -0.1914063 -0.9692383
vn 0.1536865 -0.1915283 -0.9692383
vn 0.9692383 -0.1915283 0.1536865
vn 0.1535645 -0.1915283 0.9692383
vn 0.1535645 0.1914063 0.9692383
vn 0.1263428 -0.9838867 0.1263428
vn 0.9692383 0.1914063 0.1536865
vn 0.1263428 0.9838867 0.1263428
vn 0.1263428 0.9838867 -0.1263428
vn 0.9692383 -0.1915283 -0.1535645
vn 0.1263428 -0.9838867 -0.1263428
vn 0.1536865 -0.1915283 -0.9692383
vn 0.9692383 0.1914063 -0.1535645
vn 0.1536865 0.1915283 -0.9692383
vn -0.1535645 0.1915283 -0.9692383
vn -0.9692383 -0.1914063 -0.1536865
vn -0.1535645 -0.1914063 -0.9692383
vn -0.1263428 -0.9838867 -0.1263428
vn -0.9692383 0.1915283 -0.1536865
vn -0.1263428 0.9838867 -0.1263428
vn -0.1263428 0.9838867 0.1263428
vn -0.9692383 0.1915283 0.1535645
vn -0.1536865 0.1915283 0.9692383
vn -0.1536865 -0.1915283 0.9692383
vn -0.9692383 -0.1914063 0.1535645
vn -0.1263428 -0.9838867 0.1263428
g Shoulder_right.017_0
f 3/3/3 2/2/2 1/1/1
f 4/4/4 3/3/3 1/1/1
f 1/1/1 5/5/5 4/4/4
f 5/5/5 6/6/6 4/4/4
f 6/6/6 5/5/5 7/7/7
f 8/8/8 6/6/6 7/7/7
f 7/7/7 9/9/9 8/8/8
f 9/9/9 10/10/10 8/8/8
f 10/10/10 9/9/9 11/11/11
f 12/12/12 10/10/10 11/11/11
f 11/11/11 13/13/13 12/12/12
f 13/13/13 14/14/14 12/12/12
f 14/14/14 13/13/13 15/15/15
f 13/13/13 16/16/16 15/15/15
f 16/16/16 17/17/17 15/15/15
f 17/17/17 18/18/18 15/15/15
f 21/21/21 20/20/20 19/19/19
f 20/20/20 22/22/22 19/19/19
f 23/23/23 21/21/21 19/19/19
f 21/21/21 23/23/23 24/24/24
f 25/25/25 24/24/24 23/23/23
f 26/26/26 19/19/19 22/22/22
f 19/19/19 26/26/26 23/23/23
f 27/27/27 26/26/26 22/22/22
f 28/28/28 26/26/26 27/27/27
f 29/29/29 25/25/25 23/23/23
f 26/26/26 29/29/29 23/23/23
f 26/26/26 28/28/28 29/29/29
f 25/25/25 29/29/29 30/30/30
f 28/28/28 30/30/30 29/29/29
f 33/33/33 32/32/32 31/31/31
f 33/33/33 34/34/34 32/32/32
f 32/32/32 35/35/35 31/31/31
f 36/36/36 31/31/31 35/35/35
f 36/36/36 35/35/35 37/37/37
f 35/35/35 38/38/38 37/37/37
f 38/38/38 35/35/35 32/32/32
f 39/39/39 37/37/37 38/38/38
f 39/39/39 38/38/38 40/40/40
f 32/32/32 34/34/34 41/41/41
f 41/41/41 38/38/38 32/32/32
f 38/38/38 41/41/41 40/40/40
f 34/34/34 42/42/42 41/41/41
f 40/40/40 41/41/41 42/42/42
