g Shoulder_right.015
v 0.087745 -0.1108006 -0.09703717
v 0.0877474 -0.07756352 -0.1386212
v 0.07180315 -0.07756216 -0.138624
v 0.08287656 -0.1107991 -0.09703998
v 0.007108554 -0.07756096 -0.1386263
v 0.08286964 -0.110801 0.09703841
v 0.08773807 -0.1108024 0.09704121
v 0.08773749 -0.07756623 0.1386263
v 0.01818197 -0.110798 -0.09704228
v -0.1063365 -0.07756015 -0.1386281
v -0.1063389 -0.1107971 -0.09704407
v -0.1063458 -0.110799 0.0970343
v 0.01817505 -0.1107998 0.0970361
v 0.07179331 -0.07756476 0.1386235
v 0.08774178 0.07756002 0.1386285
v 0.007098713 -0.07756367 0.1386212
v -0.1063463 -0.07756275 0.1386193
v 0.02086973 0.07756139 0.1386257
v 0.08774419 0.1107968 0.09704448
v -0.04382486 0.07756258 0.1386234
v -0.1063421 0.07756341 0.1386216
v 0.009623794 0.1107982 0.09704168
v 0.08775106 0.1107987 -0.0970339
v -0.0550708 0.1107993 0.09703938
v -0.1063397 0.1108002 0.09703758
v 0.009630718 0.1108 -0.09703671
v 0.08775163 0.07756262 -0.1386189
v -0.05506387 0.1108012 -0.097039
v -0.1063328 0.1108021 -0.0970408
v 0.02087957 0.07756399 -0.1386217
v 0.0877474 -0.07756352 -0.1386212
v 0.07180315 -0.07756216 -0.138624
v -0.04381502 0.0775651 -0.1386241
v -0.1063323 0.07756601 -0.1386259
v 0.007108554 -0.07756096 -0.1386263
v -0.1063365 -0.07756015 -0.1386281
v 0.1293222 -0.07756649 0.09704318
v 0.08773749 -0.07756623 0.1386263
v 0.08774178 0.07756002 0.1386285
v 0.08773807 -0.1108024 0.09704121
v 0.1293265 0.07755966 0.09704546
v 0.08774419 0.1107968 0.09704448
v 0.08775106 0.1107987 -0.0970339
v 0.1293291 -0.07756472 -0.09703521
v 0.087745 -0.1108006 -0.09703717
v 0.0877474 -0.07756352 -0.1386212
v 0.1293334 0.07756152 -0.0970329
v 0.08775163 0.07756262 -0.1386189
v -0.1063463 -0.07756275 0.1386193
v -0.1479238 0.07756451 0.0970356
v -0.1063421 0.07756341 0.1386216
v -0.1063397 0.1108002 0.09703758
v -0.147928 -0.07756165 0.09703331
v -0.1063458 -0.110799 0.0970343
v -0.1063389 -0.1107971 -0.09704407
v -0.1479211 -0.07755987 -0.09704506
v -0.1063365 -0.07756015 -0.1386281
v -0.1063323 0.07756601 -0.1386259
v -0.1479168 0.07756637 -0.09704279
v -0.1063328 0.1108021 -0.0970408
vt 0.2827148 0.8339844
vt 0.2797852 0.8339844
vt 0.2797852 0.8256836
vt 0.2827148 0.8256836
vt 0.2797852 0.8193359
vt 0.296875 0.8256836
vt 0.296875 0.8339844
vt 0.3000488 0.8339844
vt 0.2827148 0.8193359
vt 0.2797852 0.8139648
vt 0.2827148 0.8139648
vt 0.296875 0.8139648
vt 0.296875 0.8193359
vt 0.3000488 0.8256836
vt 0.314209 0.8339844
vt 0.3000488 0.8193359
vt 0.3000488 0.8139648
vt 0.314209 0.8256836
vt 0.3171387 0.8339844
vt 0.314209 0.8193359
vt 0.314209 0.8139648
vt 0.3171387 0.8256836
vt 0.3312988 0.8339844
vt 0.3171387 0.8193359
vt 0.3171387 0.8139648
vt 0.3312988 0.8256836
vt 0.3344727 0.8339844
vt 0.3312988 0.8193359
vt 0.3312988 0.8139648
vt 0.3344727 0.8256836
vt 0.3486328 0.8339844
vt 0.3486328 0.8256836
vt 0.3344727 0.8193359
vt 0.3344727 0.8139648
vt 0.3486328 0.8193359
vt 0.3486328 0.8139648
vt 0.3308105 0.8642578
vt 0.3381348 0.8642578
vt 0.3381348 0.8657227
vt 0.3308105 0.8637695
vt 0.3308105 0.8657227
vt 0.3308105 0.8657227
vt 0.296875 0.8657227
vt 0.296875 0.8642578
vt 0.296875 0.8637695
vt 0.2895508 0.8642578
vt 0.296875 0.8657227
vt 0.2895508 0.8657227
vt 0.2893066 0.7836914
vt 0.2966309 0.784668
vt 0.2893066 0.784668
vt 0.2966309 0.7851563
vt 0.2966309 0.7836914
vt 0.2966309 0.7836914
vt 0.3300781 0.7836914
vt 0.3300781 0.7836914
vt 0.3371582 0.7836914
vt 0.3371582 0.784668
vt 0.3300781 0.784668
vt 0.3300781 0.7851563
vn 0.5664063 -0.8208008 -0.07000732
vn 0.4494629 -0.06365967 -0.8911133
vn 4.637241E-05 -0.1820068 -0.9833984
vn -2.622604E-05 -0.9907227 -0.137085
vn 2.318621E-05 -0.2614746 -0.965332
vn -4.708767E-05 -0.9907227 0.137085
vn 0.5664063 -0.8208008 0.07006836
vn 0.4492188 -0.06365967 0.8911133
vn 0 -0.9912109 -0.1320801
vn -0.2646484 -0.2109375 -0.940918
vn -0.1799316 -0.9770508 -0.1154175
vn -0.1799316 -0.9770508 0.1154175
vn -1.382828E-05 -0.9912109 0.131958
vn -5.763769E-05 -0.1820068 0.9833984
vn 0.3928223 0.2030029 0.8969727
vn -2.861023E-05 -0.2614746 0.965332
vn -0.2646484 -0.2109375 0.940918
vn -3.743172E-05 0.255127 0.9667969
vn 0.2493896 0.9628906 0.1047363
vn -2.324581E-05 0.1761475 0.984375
vn -0.2912598 0.1230469 0.9487305
vn 1.257658E-05 0.9907227 0.1343994
vn 0.2493896 0.9628906 -0.1046753
vn 1.215935E-05 0.9897461 0.144043
vn -0.3125 0.9438477 0.1079712
vn 2.253056E-05 0.9907227 -0.1342773
vn 0.3928223 0.2030029 -0.8969727
vn 2.18153E-05 0.9897461 -0.144043
vn -0.3125 0.9438477 -0.1079712
vn 4.678965E-05 0.255127 -0.9667969
vn 0.4494629 -0.06365967 -0.8911133
vn 4.637241E-05 -0.1820068 -0.9833984
vn 2.914667E-05 0.1762695 -0.984375
vn -0.2912598 0.1230469 -0.9487305
vn 2.318621E-05 -0.2614746 -0.965332
vn -0.2646484 -0.2109375 -0.940918
vn 0.9692383 -0.1921387 0.1536865
vn 0.4492188 -0.06365967 0.8911133
vn 0.3928223 0.2030029 0.8969727
vn 0.5664063 -0.8208008 0.07006836
vn 0.9692383 0.1921387 0.1536865
vn 0.2493896 0.9628906 0.1047363
vn 0.2493896 0.9628906 -0.1046753
vn 0.9692383 -0.1921387 -0.1535645
vn 0.5664063 -0.8208008 -0.07000732
vn 0.4494629 -0.06365967 -0.8911133
vn 0.9692383 0.1921387 -0.1535645
vn 0.3928223 0.2030029 -0.8969727
vn -0.2646484 -0.2109375 0.940918
vn -0.9692383 0.1921387 0.1535645
vn -0.2912598 0.1230469 0.9487305
vn -0.3125 0.9438477 0.1079712
vn -0.9692383 -0.1921387 0.1535645
vn -0.1799316 -0.9770508 0.1154175
vn -0.1799316 -0.9770508 -0.1154175
vn -0.9692383 -0.1921387 -0.1536865
vn -0.2646484 -0.2109375 -0.940918
vn -0.2912598 0.1230469 -0.9487305
vn -0.9692383 0.1921387 -0.1536865
vn -0.3125 0.9438477 -0.1079712
g Shoulder_right.015_0
f 3/3/3 2/2/2 1/1/1
f 4/4/4 3/3/3 1/1/1
f 5/5/5 3/3/3 4/4/4
f 6/6/6 4/4/4 1/1/1
f 7/7/7 6/6/6 1/1/1
f 6/6/6 7/7/7 8/8/8
f 9/9/9 5/5/5 4/4/4
f 10/10/10 5/5/5 9/9/9
f 11/11/11 10/10/10 9/9/9
f 12/12/12 11/11/11 9/9/9
f 13/13/13 9/9/9 4/4/4
f 6/6/6 13/13/13 4/4/4
f 13/13/13 12/12/12 9/9/9
f 14/14/14 6/6/6 8/8/8
f 13/13/13 6/6/6 14/14/14
f 8/8/8 15/15/15 14/14/14
f 12/12/12 13/13/13 16/16/16
f 16/16/16 13/13/13 14/14/14
f 17/17/17 12/12/12 16/16/16
f 15/15/15 18/18/18 14/14/14
f 14/14/14 18/18/18 16/16/16
f 18/18/18 15/15/15 19/19/19
f 16/16/16 20/20/20 17/17/17
f 18/18/18 20/20/20 16/16/16
f 20/20/20 21/21/21 17/17/17
f 22/22/22 18/18/18 19/19/19
f 20/20/20 18/18/18 22/22/22
f 19/19/19 23/23/23 22/22/22
f 21/21/21 20/20/20 24/24/24
f 24/24/24 20/20/20 22/22/22
f 25/25/25 21/21/21 24/24/24
f 23/23/23 26/26/26 22/22/22
f 22/22/22 26/26/26 24/24/24
f 26/26/26 23/23/23 27/27/27
f 24/24/24 28/28/28 25/25/25
f 26/26/26 28/28/28 24/24/24
f 28/28/28 29/29/29 25/25/25
f 30/30/30 26/26/26 27/27/27
f 28/28/28 26/26/26 30/30/30
f 27/27/27 31/31/31 30/30/30
f 31/31/31 32/32/32 30/30/30
f 29/29/29 28/28/28 33/33/33
f 33/33/33 28/28/28 30/30/30
f 30/30/30 32/32/32 33/33/33
f 34/34/34 29/29/29 33/33/33
f 32/32/32 35/35/35 33/33/33
f 33/33/33 35/35/35 34/34/34
f 35/35/35 36/36/36 34/34/34
f 39/39/39 38/38/38 37/37/37
f 38/38/38 40/40/40 37/37/37
f 41/41/41 39/39/39 37/37/37
f 39/39/39 41/41/41 42/42/42
f 43/43/43 42/42/42 41/41/41
f 44/44/44 37/37/37 40/40/40
f 37/37/37 44/44/44 41/41/41
f 45/45/45 44/44/44 40/40/40
f 46/46/46 44/44/44 45/45/45
f 47/47/47 43/43/43 41/41/41
f 44/44/44 47/47/47 41/41/41
f 44/44/44 46/46/46 47/47/47
f 43/43/43 47/47/47 48/48/48
f 46/46/46 48/48/48 47/47/47
f 51/51/51 50/50/50 49/49/49
f 51/51/51 52/52/52 50/50/50
f 50/50/50 53/53/53 49/49/49
f 49/49/49 53/53/53 54/54/54
f 55/55/55 54/54/54 53/53/53
f 56/56/56 55/55/55 53/53/53
f 53/53/53 50/50/50 56/56/56
f 57/57/57 55/55/55 56/56/56
f 57/57/57 56/56/56 58/58/58
f 59/59/59 50/50/50 52/52/52
f 50/50/50 59/59/59 56/56/56
f 56/56/56 59/59/59 58/58/58
f 60/60/60 59/59/59 52/52/52
f 60/60/60 58/58/58 59/59/59
