g Shoulder_left.011
v -0.1386196 -0.09704601 0.09704299
v -0.09703485 -0.09704567 0.1386261
v -0.0970354 -0.1386286 0.09704101
v -0.09703909 0.09703822 0.1386283
v -0.1386238 0.09703777 0.09704527
v -0.09704149 0.1386219 0.09704429
v -0.09703485 -0.09704567 0.1386261
v 0.09704844 -0.1386243 0.09703411
v -0.0970354 -0.1386286 0.09704101
v 0.097049 -0.09704132 0.1386192
v -0.09703909 0.09703822 0.1386283
v 0.09704474 0.09704246 0.1386214
v -0.09704149 0.1386219 0.09704429
v 0.09704236 0.1386262 0.09703737
v 0.09704844 -0.1386243 0.09703411
v 0.097049 -0.09704132 0.1386192
v 0.1386306 -0.09703994 0.09703312
v 0.1386264 0.09704383 0.09703541
v 0.09704474 0.09704246 0.1386214
v 0.09704236 0.1386262 0.09703737
v 0.09703489 0.0970457 -0.1386261
v -0.0970447 -0.09704231 -0.1386214
v 0.09703914 -0.09703807 -0.1386284
v -0.09704896 0.09704147 -0.1386192
v 0.09703545 0.1386285 -0.09704101
v -0.09704839 0.1386243 -0.09703412
v 0.09703775 0.1386277 -0.0323482
v -0.09704609 0.1386234 -0.03234131
v 0.09704005 0.138627 0.03234458
v -0.09704379 0.1386226 0.03235149
v -0.09704231 -0.1386264 -0.09703739
v 0.09703914 -0.09703807 -0.1386284
v -0.0970447 -0.09704231 -0.1386214
v 0.09704154 -0.138622 -0.09704429
v 0.09704383 -0.1386228 -0.03235148
v -0.09704001 -0.1386272 -0.03234459
v 0.09704611 -0.1386235 0.03234132
v -0.09703771 -0.1386279 0.03234821
v -0.1386261 0.09703859 0.03235247
v -0.09704609 0.1386234 -0.03234131
v -0.09704379 0.1386226 0.03235149
v -0.1386284 0.09703938 -0.03234031
v -0.09704839 0.1386243 -0.09703412
v -0.1386242 -0.09704451 -0.03234261
v -0.1386219 -0.0970453 0.03235019
v -0.09703771 -0.1386279 0.03234821
v -0.09704001 -0.1386272 -0.03234459
v -0.1386265 -0.0970438 -0.0970354
v -0.09704231 -0.1386264 -0.09703739
v -0.0970447 -0.09704231 -0.1386214
v -0.1386307 0.09704009 -0.09703312
v -0.09704896 0.09704147 -0.1386192
v 0.1386284 -0.09703925 0.03234031
v 0.09704383 -0.1386228 -0.03235148
v 0.09704611 -0.1386235 0.03234132
v 0.138626 -0.09703844 -0.03235248
v 0.1386241 0.09704465 0.03234262
v 0.09704154 -0.138622 -0.09704429
v 0.1386218 0.09704534 -0.03235018
v 0.09704005 0.138627 0.03234458
v 0.09703775 0.1386277 -0.0323482
v 0.1386238 -0.09703773 -0.09704527
v 0.09703914 -0.09703807 -0.1386284
v 0.09703489 0.0970457 -0.1386261
v 0.1386195 0.09704615 -0.09704299
v 0.09703545 0.1386285 -0.09704101
vt 0.3308105 0.8642578
vt 0.3381348 0.8642578
vt 0.3308105 0.8637695
vt 0.3381348 0.8657227
vt 0.3308105 0.8657227
vt 0.3308105 0.8657227
vt 0.3000488 0.8339844
vt 0.296875 0.8139648
vt 0.296875 0.8339844
vt 0.3000488 0.8139648
vt 0.314209 0.8339844
vt 0.314209 0.8139648
vt 0.3171387 0.8339844
vt 0.3171387 0.8139648
vt 0.2966309 0.7836914
vt 0.2893066 0.7836914
vt 0.2966309 0.7836914
vt 0.2966309 0.784668
vt 0.2893066 0.784668
vt 0.2966309 0.7851563
vt 0.3344727 0.8139648
vt 0.3486328 0.8339844
vt 0.3486328 0.8139648
vt 0.3344727 0.8339844
vt 0.3312988 0.8139648
vt 0.3312988 0.8339844
vt 0.3266602 0.8139648
vt 0.3266602 0.8339844
vt 0.3220215 0.8139648
vt 0.3220215 0.8339844
vt 0.2827148 0.8339844
vt 0.2797852 0.8139648
vt 0.2797852 0.8339844
vt 0.2827148 0.8139648
vt 0.2875977 0.8139648
vt 0.2875977 0.8339844
vt 0.2922363 0.8139648
vt 0.2922363 0.8339844
vt 0.3193359 0.8657227
vt 0.3081055 0.8657227
vt 0.3193359 0.8657227
vt 0.3081055 0.8657227
vt 0.296875 0.8657227
vt 0.3081055 0.8642578
vt 0.3193359 0.8642578
vt 0.3193359 0.8637695
vt 0.3081055 0.8637695
vt 0.296875 0.8642578
vt 0.296875 0.8637695
vt 0.2895508 0.8642578
vt 0.296875 0.8657227
vt 0.2895508 0.8657227
vt 0.3076172 0.7836914
vt 0.3188477 0.7836914
vt 0.3076172 0.7836914
vt 0.3188477 0.7836914
vt 0.3076172 0.784668
vt 0.3300781 0.7836914
vt 0.3188477 0.784668
vt 0.3076172 0.7851563
vt 0.3188477 0.7851563
vt 0.3300781 0.7836914
vt 0.3371582 0.7836914
vt 0.3371582 0.784668
vt 0.3300781 0.784668
vt 0.3300781 0.7851563
vn -0.9326172 -0.1275635 0.3376465
vn -0.1550293 -0.1551514 0.9755859
vn -0.1274414 -0.9326172 0.3374023
vn -0.1551514 0.1551514 0.9755859
vn -0.9326172 0.1274414 0.3376465
vn -0.1275635 0.9326172 0.3376465
vn -0.1550293 -0.1551514 0.9755859
vn 0.1275635 -0.9326172 0.3374023
vn -0.1274414 -0.9326172 0.3374023
vn 0.1551514 -0.1551514 0.9755859
vn -0.1551514 0.1551514 0.9755859
vn 0.1551514 0.1551514 0.9755859
vn -0.1275635 0.9326172 0.3376465
vn 0.1274414 0.9326172 0.3376465
vn 0.1275635 -0.9326172 0.3374023
vn 0.1551514 -0.1551514 0.9755859
vn 0.9326172 -0.1274414 0.3374023
vn 0.9326172 0.1275635 0.3374023
vn 0.1551514 0.1551514 0.9755859
vn 0.1274414 0.9326172 0.3376465
vn 0.1550293 0.1551514 -0.9755859
vn -0.1551514 -0.1551514 -0.9755859
vn 0.1551514 -0.1551514 -0.9755859
vn -0.1551514 0.1551514 -0.9755859
vn 0.1274414 0.9326172 -0.3374023
vn -0.1275635 0.9326172 -0.3374023
vn 0.1737061 0.9848633 0
vn -0.1738281 0.9848633 1.806021E-05
vn 0.1737061 0.9848633 0
vn -0.1738281 0.9848633 1.764297E-05
vn -0.1274414 -0.9326172 -0.3376465
vn 0.1551514 -0.1551514 -0.9755859
vn -0.1551514 -0.1551514 -0.9755859
vn 0.1275635 -0.9326172 -0.3376465
vn 0.1738281 -0.9848633 -1.758337E-05
vn -0.1737061 -0.9848633 0
vn 0.1738281 -0.9848633 -1.728535E-05
vn -0.1737061 -0.9848633 0
vn -0.9848633 0.1737061 3.713369E-05
vn -0.1738281 0.9848633 1.806021E-05
vn -0.1738281 0.9848633 1.764297E-05
vn -0.9848633 0.1737061 3.713369E-05
vn -0.1275635 0.9326172 -0.3374023
vn -0.9848633 -0.1738281 3.302097E-05
vn -0.9848633 -0.1738281 3.314018E-05
vn -0.1737061 -0.9848633 0
vn -0.1737061 -0.9848633 0
vn -0.9326172 -0.1275635 -0.3374023
vn -0.1274414 -0.9326172 -0.3376465
vn -0.1551514 -0.1551514 -0.9755859
vn -0.9326172 0.1274414 -0.3374023
vn -0.1551514 0.1551514 -0.9755859
vn 0.9848633 -0.1737061 -3.713369E-05
vn 0.1738281 -0.9848633 -1.758337E-05
vn 0.1738281 -0.9848633 -1.728535E-05
vn 0.9848633 -0.1737061 -3.707409E-05
vn 0.9848633 0.1738281 -3.308058E-05
vn 0.1275635 -0.9326172 -0.3376465
vn 0.9848633 0.1738281 -3.302097E-05
vn 0.1737061 0.9848633 0
vn 0.1737061 0.9848633 0
vn 0.9326172 -0.1274414 -0.3376465
vn 0.1551514 -0.1551514 -0.9755859
vn 0.1550293 0.1551514 -0.9755859
vn 0.9326172 0.1275635 -0.3376465
vn 0.1274414 0.9326172 -0.3374023
g Shoulder_left.011_0
f 3/3/3 2/2/2 1/1/1
f 2/2/2 4/4/4 1/1/1
f 4/4/4 5/5/5 1/1/1
f 5/5/5 4/4/4 6/6/6
f 9/9/9 8/8/8 7/7/7
f 8/8/8 10/10/10 7/7/7
f 11/11/11 7/7/7 10/10/10
f 12/12/12 11/11/11 10/10/10
f 11/11/11 12/12/12 13/13/13
f 12/12/12 14/14/14 13/13/13
f 17/17/17 16/16/16 15/15/15
f 17/17/17 18/18/18 16/16/16
f 18/18/18 19/19/19 16/16/16
f 20/20/20 19/19/19 18/18/18
f 23/23/23 22/22/22 21/21/21
f 22/22/22 24/24/24 21/21/21
f 25/25/25 21/21/21 24/24/24
f 26/26/26 25/25/25 24/24/24
f 25/25/25 26/26/26 27/27/27
f 26/26/26 28/28/28 27/27/27
f 27/27/27 28/28/28 29/29/29
f 28/28/28 30/30/30 29/29/29
f 33/33/33 32/32/32 31/31/31
f 32/32/32 34/34/34 31/31/31
f 34/34/34 35/35/35 31/31/31
f 35/35/35 36/36/36 31/31/31
f 35/35/35 37/37/37 36/36/36
f 37/37/37 38/38/38 36/36/36
f 41/41/41 40/40/40 39/39/39
f 40/40/40 42/42/42 39/39/39
f 40/40/40 43/43/43 42/42/42
f 42/42/42 44/44/44 39/39/39
f 44/44/44 45/45/45 39/39/39
f 45/45/45 44/44/44 46/46/46
f 44/44/44 47/47/47 46/46/46
f 44/44/44 48/48/48 47/47/47
f 48/48/48 44/44/44 42/42/42
f 48/48/48 49/49/49 47/47/47
f 48/48/48 50/50/50 49/49/49
f 43/43/43 51/51/51 42/42/42
f 51/51/51 48/48/48 42/42/42
f 50/50/50 48/48/48 51/51/51
f 51/51/51 43/43/43 52/52/52
f 52/52/52 50/50/50 51/51/51
f 55/55/55 54/54/54 53/53/53
f 54/54/54 56/56/56 53/53/53
f 57/57/57 53/53/53 56/56/56
f 54/54/54 58/58/58 56/56/56
f 59/59/59 57/57/57 56/56/56
f 57/57/57 59/59/59 60/60/60
f 59/59/59 61/61/61 60/60/60
f 58/58/58 62/62/62 56/56/56
f 59/59/59 56/56/56 62/62/62
f 58/58/58 63/63/63 62/62/62
f 62/62/62 63/63/63 64/64/64
f 59/59/59 65/65/65 61/61/61
f 65/65/65 59/59/59 62/62/62
f 65/65/65 62/62/62 64/64/64
f 65/65/65 66/66/66 61/61/61
f 64/64/64 66/66/66 65/65/65
g Shoulder_left.011_1
f 8/8/8 9/9/9 38/38/38
f 37/37/37 8/8/8 38/38/38
f 57/57/57 60/60/60 20/20/20
f 18/18/18 57/57/57 20/20/20
f 57/57/57 18/18/18 53/53/53
f 18/18/18 17/17/17 53/53/53
f 55/55/55 53/53/53 17/17/17
f 15/15/15 55/55/55 17/17/17
f 6/6/6 41/41/41 5/5/5
f 41/41/41 39/39/39 5/5/5
f 39/39/39 45/45/45 5/5/5
f 45/45/45 1/1/1 5/5/5
f 1/1/1 45/45/45 3/3/3
f 45/45/45 46/46/46 3/3/3
f 30/30/30 13/13/13 14/14/14
f 29/29/29 30/30/30 14/14/14
