g Shoulder_right.012
v -0.09182032 0.09717935 -0.1385843
v -0.09182456 -0.09690453 -0.1385866
v 0.1022091 -0.09690877 -0.1385797
v 0.1022133 0.09717502 -0.1385774
v -0.09182089 0.138762 -0.09699923
v 0.1022128 0.1387578 -0.09699231
v -0.09182781 0.1387597 0.09707922
v 0.1022058 0.1387555 0.09708615
v -0.09183022 0.09717599 0.1386633
v 0.1022035 0.09717176 0.1386702
v -0.09183446 -0.09690789 0.138661
v 0.1021992 -0.09691213 0.1386679
v -0.09183388 -0.1384908 0.09707588
v 0.1021997 -0.1384951 0.09708281
v 0.1022067 -0.1384927 -0.09699563
v -0.09182696 -0.1384885 -0.09700257
v -0.09182456 -0.09690453 -0.1385866
v 0.1022091 -0.09690877 -0.1385797
v 0.1437733 -0.09691258 0.0970848
v 0.1021992 -0.09691213 0.1386679
v 0.1022035 0.09717176 0.1386702
v 0.1021997 -0.1384951 0.09708281
v 0.1437775 0.09717131 0.09708712
v 0.1022058 0.1387555 0.09708615
v 0.1022128 0.1387578 -0.09699231
v 0.1437802 -0.09691027 -0.09699364
v 0.1022067 -0.1384927 -0.09699563
v 0.1022091 -0.09690877 -0.1385797
v 0.1437844 0.09717362 -0.09699132
v 0.1022133 0.09717502 -0.1385774
v -0.1334054 -0.0969064 0.0970749
v -0.09183388 -0.1384908 0.09707588
v -0.09182696 -0.1384885 -0.09700257
v -0.09183446 -0.09690789 0.138661
v -0.1333984 -0.09690408 -0.09700354
v -0.09182456 -0.09690453 -0.1385866
v -0.09182032 0.09717935 -0.1385843
v -0.1334011 0.09717738 0.09707723
v -0.09183022 0.09717599 0.1386633
v -0.09182781 0.1387597 0.09707922
v -0.1333942 0.09717969 -0.09700122
v -0.09182089 0.138762 -0.09699923
v -0.04616212 0.1060565 -0.15238
v -0.005716238 -0.1063349 -0.1523826
v 0.06892974 -0.1063349 -0.1523801
v 0.01781362 0.1060565 -0.1523776
v -0.06075711 0.1511848 -0.1068153
v 0.00919753 0.1511848 -0.1068128
v -0.07175723 0.1511848 0.1067515
v -0.01006757 0.1511848 0.106754
v -0.06574233 0.1060565 0.1524767
v -0.001766424 0.1060565 0.1524792
v -0.03766156 -0.106335 0.1524742
v 0.03698459 -0.106335 0.1524766
v -0.03164357 -0.1513157 0.1067479
v 0.0452887 -0.1513157 0.1067504
v 0.08037023 -0.1513157 -0.1071335
v 0.01041564 -0.1513157 -0.107136
v -0.005716238 -0.1063349 -0.1523826
v 0.06892974 -0.1063349 -0.1523801
v 0.01781362 0.1060565 -0.1523776
v 0.06892974 -0.1063349 -0.1523801
v 0.06892923 -0.09944936 -0.1381219
v 0.0178131 0.1006627 -0.1374912
v 0.00919753 0.1511848 -0.1068128
v 0.00919753 0.1367218 -0.1003689
v -0.01006757 0.1511848 0.106754
v -0.01006757 0.1365652 0.100674
v -0.001766424 0.1060565 0.1524792
v -0.001765966 0.1005448 0.1376358
v 0.03698459 -0.106335 0.1524766
v 0.0369851 -0.0996094 0.1381426
v 0.0452887 -0.1513157 0.1067504
v 0.0452887 -0.1364478 0.1013054
v 0.08037023 -0.1513157 -0.1071335
v 0.08037023 -0.1366652 -0.1011279
v 0.06892974 -0.1063349 -0.1523801
v 0.06892923 -0.09944936 -0.1381219
v -0.04616263 0.09918207 -0.1381166
v 0.06892923 -0.09944936 -0.1381219
v -0.005716752 -0.1011233 -0.1374309
v 0.0178131 0.1006627 -0.1374912
v -0.06075711 0.1363231 -0.1013538
v 0.00919753 0.1367218 -0.1003689
v -0.07175723 0.1365024 0.1008247
v -0.01006757 0.1365652 0.100674
v -0.06574181 0.09951025 0.1380595
v -0.001765966 0.1005448 0.1376358
v -0.03766104 -0.1006513 0.137696
v 0.0369851 -0.0996094 0.1381426
v -0.03164357 -0.1369059 0.1001861
v 0.0452887 -0.1364478 0.1013054
v 0.08037023 -0.1366652 -0.1011279
v 0.01041564 -0.1367159 -0.1010082
v -0.005716752 -0.1011233 -0.1374309
v 0.06892923 -0.09944936 -0.1381219
v 0.01041564 -0.1513157 -0.107136
v -0.005716238 -0.1063349 -0.1523826
v -0.005716752 -0.1011233 -0.1374309
v 0.01041564 -0.1367159 -0.1010082
v -0.03164357 -0.1513157 0.1067479
v -0.03164357 -0.1369059 0.1001861
v -0.03766156 -0.106335 0.1524742
v -0.03766104 -0.1006513 0.137696
v -0.06574233 0.1060565 0.1524767
v -0.06574181 0.09951025 0.1380595
v -0.07175723 0.1511848 0.1067515
v -0.07175723 0.1365024 0.1008247
v -0.06075711 0.1511848 -0.1068153
v -0.06075711 0.1363231 -0.1013538
v -0.04616212 0.1060565 -0.15238
v -0.04616263 0.09918207 -0.1381166
v -0.005716238 -0.1063349 -0.1523826
v -0.005716752 -0.1011233 -0.1374309
vt 0.3344727 0.8139648
vt 0.3486328 0.8139648
vt 0.3486328 0.8339844
vt 0.3344727 0.8339844
vt 0.3312988 0.8139648
vt 0.3312988 0.8339844
vt 0.3171387 0.8139648
vt 0.3171387 0.8339844
vt 0.314209 0.8139648
vt 0.314209 0.8339844
vt 0.3000488 0.8139648
vt 0.3000488 0.8339844
vt 0.296875 0.8139648
vt 0.296875 0.8339844
vt 0.2827148 0.8339844
vt 0.2827148 0.8139648
vt 0.2797852 0.8139648
vt 0.2797852 0.8339844
vt 0.3308105 0.8642578
vt 0.3381348 0.8642578
vt 0.3381348 0.8657227
vt 0.3308105 0.8637695
vt 0.3308105 0.8657227
vt 0.3308105 0.8657227
vt 0.296875 0.8657227
vt 0.296875 0.8642578
vt 0.296875 0.8637695
vt 0.2895508 0.8642578
vt 0.296875 0.8657227
vt 0.2895508 0.8657227
vt 0.2966309 0.7836914
vt 0.2966309 0.7836914
vt 0.3300781 0.7836914
vt 0.2893066 0.7836914
vt 0.3300781 0.7836914
vt 0.3371582 0.7836914
vt 0.3371582 0.784668
vt 0.2966309 0.784668
vt 0.2893066 0.784668
vt 0.2966309 0.7851563
vt 0.3300781 0.784668
vt 0.3300781 0.7851563
vt 0.3344727 0.8188477
vt 0.3486328 0.8188477
vt 0.3486328 0.8251953
vt 0.3344727 0.8251953
vt 0.3273926 0.8203125
vt 0.3273926 0.8271484
vt 0.3171387 0.8188477
vt 0.3171387 0.8251953
vt 0.314209 0.8188477
vt 0.314209 0.8251953
vt 0.3000488 0.8188477
vt 0.3000488 0.8251953
vt 0.296875 0.8188477
vt 0.296875 0.8251953
vt 0.2866211 0.8271484
vt 0.2866211 0.8203125
vt 0.2797852 0.8188477
vt 0.2797852 0.8251953
vt 0.3344727 0.8251953
vt 0.3486328 0.8251953
vt 0.3486328 0.8251953
vt 0.3344727 0.8251953
vt 0.3273926 0.8271484
vt 0.3273926 0.8271484
vt 0.3171387 0.8251953
vt 0.3171387 0.8251953
vt 0.314209 0.8251953
vt 0.314209 0.8251953
vt 0.3000488 0.8251953
vt 0.3000488 0.8251953
vt 0.296875 0.8251953
vt 0.296875 0.8251953
vt 0.2866211 0.8271484
vt 0.2866211 0.8271484
vt 0.2797852 0.8251953
vt 0.2797852 0.8251953
vt 0.3344727 0.8188477
vt 0.3486328 0.8251953
vt 0.3486328 0.8188477
vt 0.3344727 0.8251953
vt 0.3273926 0.8203125
vt 0.3273926 0.8271484
vt 0.3171387 0.8188477
vt 0.3171387 0.8251953
vt 0.314209 0.8188477
vt 0.314209 0.8251953
vt 0.3000488 0.8188477
vt 0.3000488 0.8251953
vt 0.296875 0.8188477
vt 0.296875 0.8251953
vt 0.2866211 0.8271484
vt 0.2866211 0.8203125
vt 0.2797852 0.8188477
vt 0.2797852 0.8251953
vt 0.2866211 0.8203125
vt 0.2797852 0.8188477
vt 0.2797852 0.8188477
vt 0.2866211 0.8203125
vt 0.296875 0.8188477
vt 0.296875 0.8188477
vt 0.3000488 0.8188477
vt 0.3000488 0.8188477
vt 0.314209 0.8188477
vt 0.314209 0.8188477
vt 0.3171387 0.8188477
vt 0.3171387 0.8188477
vt 0.3273926 0.8203125
vt 0.3273926 0.8203125
vt 0.3344727 0.8188477
vt 0.3344727 0.8188477
vt 0.3486328 0.8188477
vt 0.3486328 0.8188477
vn -0.1551514 0.1551514 -0.9755859
vn -0.1551514 -0.1551514 -0.9755859
vn 0.1551514 -0.1551514 -0.9755859
vn 0.1551514 0.1551514 -0.9755859
vn -0.1551514 0.9755859 -0.1551514
vn 0.1551514 0.9755859 -0.1551514
vn -0.1551514 0.9755859 0.1551514
vn 0.1551514 0.9755859 0.1551514
vn -0.1551514 0.1551514 0.9755859
vn 0.1551514 0.1551514 0.9755859
vn -0.1551514 -0.1551514 0.9755859
vn 0.1551514 -0.1551514 0.9755859
vn -0.1551514 -0.9755859 0.1551514
vn 0.1551514 -0.9755859 0.1551514
vn 0.1551514 -0.9755859 -0.1551514
vn -0.1551514 -0.9755859 -0.1551514
vn -0.1551514 -0.1551514 -0.9755859
vn 0.1551514 -0.1551514 -0.9755859
vn 0.9755859 -0.1551514 0.1551514
vn 0.1551514 -0.1551514 0.9755859
vn 0.1551514 0.1551514 0.9755859
vn 0.1551514 -0.9755859 0.1551514
vn 0.9755859 0.1550293 0.1551514
vn 0.1551514 0.9755859 0.1551514
vn 0.1551514 0.9755859 -0.1551514
vn 0.9755859 -0.1551514 -0.1550293
vn 0.1551514 -0.9755859 -0.1551514
vn 0.1551514 -0.1551514 -0.9755859
vn 0.9755859 0.1550293 -0.1550293
vn 0.1551514 0.1551514 -0.9755859
vn -0.9755859 -0.1550293 0.1550293
vn -0.1551514 -0.9755859 0.1551514
vn -0.1551514 -0.9755859 -0.1551514
vn -0.1551514 -0.1551514 0.9755859
vn -0.9755859 -0.1550293 -0.1551514
vn -0.1551514 -0.1551514 -0.9755859
vn -0.1551514 0.1551514 -0.9755859
vn -0.9755859 0.1551514 0.1550293
vn -0.1551514 0.1551514 0.9755859
vn -0.1551514 0.9755859 0.1551514
vn -0.9755859 0.1551514 -0.1551514
vn -0.1551514 0.9755859 -0.1551514
vn 3.546476E-05 0.2077637 -0.9780273
vn 3.546476E-05 -0.1418457 -0.9897461
vn 3.486872E-05 -0.2202148 -0.9755859
vn 3.582239E-05 0.1403809 -0.9902344
vn 0 0.9887695 -0.1495361
vn 0 0.980957 -0.1942139
vn 0 0.9868164 0.161499
vn 0 0.9858398 0.1682129
vn -3.606081E-05 0.1815186 0.9833984
vn -3.618002E-05 0.1374512 0.9907227
vn -3.498793E-05 -0.1677246 0.9858398
vn -3.445148E-05 -0.2188721 0.9755859
vn 0 -0.9790039 0.2027588
vn 0 -0.9887695 0.1507568
vn 0 -0.9858398 -0.1674805
vn 0 -0.9848633 -0.1729736
vn 3.546476E-05 -0.1418457 -0.9897461
vn 3.486872E-05 -0.2202148 -0.9755859
vn 0.9765625 0.2142334 0.01047516
vn 0.9755859 0.2155762 -0.04266357
vn 0.9750977 0.2182617 -0.03942871
vn 0.9775391 0.2111816 0.01318359
vn 0.9951172 0.02554321 0.09442139
vn 0.9951172 0.02394104 0.09429932
vn 0.9985352 0.02355957 0.05059814
vn 0.9985352 0.02323914 0.0512085
vn 0.9858398 0.1679688 -0.01409912
vn 0.9858398 0.1663818 -0.01618958
vn 0.9858398 0.1643066 0.03007507
vn 0.9858398 0.1660156 0.02818298
vn 0.987793 0.01715088 0.1536865
vn 0.9882813 0.01893616 0.1525879
vn 0.9946289 0.02677917 0.09997559
vn 0.9946289 0.0269165 0.09967041
vn 0.9755859 0.2155762 -0.04266357
vn 0.9750977 0.2182617 -0.03942871
vn 0.0007653236 -0.1853027 0.9829102
vn -0.0008811951 0.1966553 0.9804688
vn -0.0003693104 0.1224365 0.9926758
vn 0.0006670952 -0.1229248 0.9921875
vn 0.003292084 -0.9916992 0.130249
vn 0.003206253 -0.9848633 0.1738281
vn 0.003572464 -0.9902344 -0.1409912
vn 0.003574371 -0.9887695 -0.1496582
vn 0.0008192062 -0.1606445 -0.9868164
vn 0.0006561279 -0.1202393 -0.9926758
vn 0.0001820326 0.1480713 -0.9887695
vn 0.0001850128 0.1964111 -0.9804688
vn -0.002716064 0.9833984 -0.1816406
vn -0.00292778 0.9912109 -0.1329346
vn -0.003847122 0.9892578 0.1452637
vn -0.003871918 0.987793 0.1555176
vn -0.0003693104 0.1224365 0.9926758
vn -0.0008811951 0.1966553 0.9804688
vn -0.9921875 -0.04678345 -0.1154175
vn -0.9804688 -0.1939697 0.02914429
vn -0.9804688 -0.1942139 0.03414917
vn -0.9921875 -0.04577637 -0.1173706
vn -0.9853516 -0.01945496 -0.1696777
vn -0.9848633 -0.01820374 -0.171875
vn -0.9921875 -0.1223145 -0.01180267
vn -0.9926758 -0.12146 -0.01291656
vn -0.9926758 -0.1203003 0.02006531
vn -0.9926758 -0.1212158 0.01907349
vn -0.9995117 -0.01481628 -0.02528381
vn -0.9995117 -0.01499176 -0.02497864
vn -0.9960938 -0.03433228 -0.08032227
vn -0.9960938 -0.03692627 -0.08233643
vn -0.980957 -0.1860352 -0.05157471
vn -0.9814453 -0.1867676 -0.04696655
vn -0.9804688 -0.1939697 0.02914429
vn -0.9804688 -0.1942139 0.03414917
g Shoulder_right.012_0
f 3/3/3 2/2/2 1/1/1
f 4/4/4 3/3/3 1/1/1
f 1/1/1 5/5/5 4/4/4
f 5/5/5 6/6/6 4/4/4
f 6/6/6 5/5/5 7/7/7
f 8/8/8 6/6/6 7/7/7
f 7/7/7 9/9/9 8/8/8
f 9/9/9 10/10/10 8/8/8
f 10/10/10 9/9/9 11/11/11
f 12/12/12 10/10/10 11/11/11
f 11/11/11 13/13/13 12/12/12
f 13/13/13 14/14/14 12/12/12
f 14/14/14 13/13/13 15/15/15
f 13/13/13 16/16/16 15/15/15
f 16/16/16 17/17/17 15/15/15
f 17/17/17 18/18/18 15/15/15
f 21/21/21 20/20/20 19/19/19
f 20/20/20 22/22/22 19/19/19
f 23/23/23 21/21/21 19/19/19
f 21/21/21 23/23/23 24/24/24
f 25/25/25 24/24/24 23/23/23
f 26/26/26 19/19/19 22/22/22
f 19/19/19 26/26/26 23/23/23
f 27/27/27 26/26/26 22/22/22
f 28/28/28 26/26/26 27/27/27
f 29/29/29 25/25/25 23/23/23
f 26/26/26 29/29/29 23/23/23
f 26/26/26 28/28/28 29/29/29
f 25/25/25 29/29/29 30/30/30
f 28/28/28 30/30/30 29/29/29
f 33/33/33 32/32/32 31/31/31
f 34/34/34 31/31/31 32/32/32
f 35/35/35 33/33/33 31/31/31
f 36/36/36 33/33/33 35/35/35
f 36/36/36 35/35/35 37/37/37
f 38/38/38 31/31/31 34/34/34
f 31/31/31 38/38/38 35/35/35
f 39/39/39 38/38/38 34/34/34
f 39/39/39 40/40/40 38/38/38
f 35/35/35 41/41/41 37/37/37
f 38/38/38 41/41/41 35/35/35
f 41/41/41 38/38/38 40/40/40
f 42/42/42 37/37/37 41/41/41
f 42/42/42 41/41/41 40/40/40
g Shoulder_right.012_1
f 45/45/45 44/44/44 43/43/43
f 46/46/46 45/45/45 43/43/43
f 43/43/43 47/47/47 46/46/46
f 47/47/47 48/48/48 46/46/46
f 48/48/48 47/47/47 49/49/49
f 50/50/50 48/48/48 49/49/49
f 49/49/49 51/51/51 50/50/50
f 51/51/51 52/52/52 50/50/50
f 52/52/52 51/51/51 53/53/53
f 54/54/54 52/52/52 53/53/53
f 53/53/53 55/55/55 54/54/54
f 55/55/55 56/56/56 54/54/54
f 56/56/56 55/55/55 57/57/57
f 55/55/55 58/58/58 57/57/57
f 58/58/58 59/59/59 57/57/57
f 59/59/59 60/60/60 57/57/57
f 63/63/63 62/62/62 61/61/61
f 64/64/64 63/63/63 61/61/61
f 64/64/64 61/61/61 65/65/65
f 66/66/66 64/64/64 65/65/65
f 66/66/66 65/65/65 67/67/67
f 68/68/68 66/66/66 67/67/67
f 68/68/68 67/67/67 69/69/69
f 70/70/70 68/68/68 69/69/69
f 70/70/70 69/69/69 71/71/71
f 72/72/72 70/70/70 71/71/71
f 72/72/72 71/71/71 73/73/73
f 74/74/74 72/72/72 73/73/73
f 74/74/74 73/73/73 75/75/75
f 76/76/76 74/74/74 75/75/75
f 76/76/76 75/75/75 77/77/77
f 78/78/78 76/76/76 77/77/77
f 81/81/81 80/80/80 79/79/79
f 80/80/80 82/82/82 79/79/79
f 83/83/83 79/79/79 82/82/82
f 84/84/84 83/83/83 82/82/82
f 83/83/83 84/84/84 85/85/85
f 84/84/84 86/86/86 85/85/85
f 87/87/87 85/85/85 86/86/86
f 88/88/88 87/87/87 86/86/86
f 87/87/87 88/88/88 89/89/89
f 88/88/88 90/90/90 89/89/89
f 91/91/91 89/89/89 90/90/90
f 92/92/92 91/91/91 90/90/90
f 91/91/91 92/92/92 93/93/93
f 94/94/94 91/91/91 93/93/93
f 95/95/95 94/94/94 93/93/93
f 96/96/96 95/95/95 93/93/93
f 99/99/99 98/98/98 97/97/97
f 100/100/100 99/99/99 97/97/97
f 100/100/100 97/97/97 101/101/101
f 102/102/102 100/100/100 101/101/101
f 102/102/102 101/101/101 103/103/103
f 104/104/104 102/102/102 103/103/103
f 104/104/104 103/103/103 105/105/105
f 106/106/106 104/104/104 105/105/105
f 106/106/106 105/105/105 107/107/107
f 108/108/108 106/106/106 107/107/107
f 108/108/108 107/107/107 109/109/109
f 110/110/110 108/108/108 109/109/109
f 110/110/110 109/109/109 111/111/111
f 112/112/112 110/110/110 111/111/111
f 112/112/112 111/111/111 113/113/113
f 114/114/114 112/112/112 113/113/113
