g Shoulder_left.012
v -0.103045 -0.1375157 -0.09698854
v -0.06322552 -0.09660859 -0.1385757
v -0.1030473 -0.09660859 -0.1385726
v -0.07362991 -0.1375157 -0.09742683
v 0.004660149 -0.09660859 -0.1385779
v -0.04172559 -0.1375158 0.09708679
v -0.1030381 -0.1375158 0.09708986
v -0.1030375 -0.09660864 0.1386749
v -0.01001078 -0.1375157 -0.09742913
v 0.09103648 -0.09660859 -0.1385795
v 0.09103888 -0.1375157 -0.09699544
v 0.09104578 -0.1375158 0.09708295
v 0.02823935 -0.1375158 0.09708452
v -0.03417351 -0.09660864 0.1386718
v -0.1030417 0.09654771 0.1386772
v 0.03371232 -0.09660864 0.1386696
v 0.09104636 -0.09660864 0.138668
v 0.00106802 0.09654771 0.1386741
v -0.1030441 0.137589 0.09709313
v 0.05924998 0.09654771 0.1386718
v 0.09104209 0.09654771 0.1386703
v 0.008617343 0.137589 0.09709007
v -0.103051 0.137589 -0.09698527
v 0.06472015 0.137589 0.0970878
v 0.09103972 0.137589 0.09708623
v -0.008902959 0.137589 -0.09713515
v -0.1030516 0.09654776 -0.1385703
v 0.0547162 0.137589 -0.09713743
v 0.0910328 0.137589 -0.09699216
v -0.01673873 0.09654776 -0.1385734
v -0.1030473 -0.09660859 -0.1385726
v -0.06322552 -0.09660859 -0.1385757
v 0.04144303 0.09654776 -0.1385756
v 0.09103225 0.09654776 -0.1385772
v 0.004660149 -0.09660859 -0.1385779
v 0.09103648 -0.09660859 -0.1385795
v -0.1446222 -0.09660863 0.09709183
v -0.1030417 0.09654771 0.1386772
v -0.1030375 -0.09660864 0.1386749
v -0.1030381 -0.1375158 0.09708986
v -0.1446265 0.09654772 0.09709411
v -0.1030441 0.137589 0.09709313
v -0.103051 0.137589 -0.09698527
v -0.1446291 -0.0966086 -0.09698657
v -0.103045 -0.1375157 -0.09698854
v -0.1030473 -0.09660859 -0.1385726
v -0.1446334 0.09654775 -0.09698427
v -0.1030516 0.09654776 -0.1385703
v 0.09104636 -0.09660864 0.138668
v 0.09104209 0.09654771 0.1386703
v 0.1326237 0.09654772 0.09708425
v 0.09103972 0.137589 0.09708623
v 0.132628 -0.09660863 0.09708197
v 0.09104578 -0.1375158 0.09708295
v 0.09103888 -0.1375157 -0.09699544
v 0.1326211 -0.0966086 -0.09699643
v 0.09103648 -0.09660859 -0.1385795
v 0.09103225 0.09654776 -0.1385772
v 0.1326168 0.09654775 -0.09699415
v 0.0910328 0.137589 -0.09699216
v -0.08126108 -0.1512103 -0.1071265
v 0.004825344 -0.1062295 -0.1523755
v -0.06982061 -0.1062295 -0.152373
v -0.01130656 -0.1512103 -0.107129
v 0.03075265 -0.1512104 0.106755
v -0.04617962 -0.1512104 0.1067575
v -0.0378755 -0.1062296 0.1524837
v 0.03677064 -0.1062296 0.1524812
v 0.0008755015 0.1061619 0.1524862
v 0.0648514 0.1061619 0.1524837
v 0.009176617 0.1512902 0.1067611
v 0.07086631 0.1512902 0.1067586
v -0.01008842 0.1512902 -0.1068057
v 0.05986616 0.1512902 -0.1068082
v -0.01870451 0.1061619 -0.1523705
v 0.0452712 0.1061619 -0.152373
v -0.06982061 -0.1062295 -0.152373
v 0.004825344 -0.1062295 -0.1523755
v -0.08126108 -0.1365598 -0.1011209
v -0.06982011 -0.09934396 -0.1381148
v 0.00482583 -0.1010179 -0.1374239
v -0.01130656 -0.1366105 -0.1010011
v 0.03075265 -0.1368005 0.1001932
v -0.04617962 -0.1363423 0.1013124
v -0.037876 -0.09950399 0.1381496
v 0.03677015 -0.1005459 0.137703
v 0.0008750152 0.1006502 0.1376428
v 0.06485092 0.09961565 0.1380665
v 0.009176617 0.1366706 0.1006811
v 0.07086631 0.1366078 0.1008318
v -0.01008842 0.1368272 -0.1003619
v 0.05986616 0.1364285 -0.1013468
v -0.01870402 0.1007681 -0.1374841
v 0.04527168 0.09928758 -0.1381095
v -0.06982011 -0.09934396 -0.1381148
v 0.00482583 -0.1010179 -0.1374239
v -0.06982061 -0.1062295 -0.152373
v -0.06982011 -0.09934396 -0.1381148
v -0.08126108 -0.1365598 -0.1011209
v -0.08126108 -0.1512103 -0.1071265
v -0.04617962 -0.1363423 0.1013124
v -0.04617962 -0.1512104 0.1067575
v -0.037876 -0.09950399 0.1381496
v -0.0378755 -0.1062296 0.1524837
v 0.0008750152 0.1006502 0.1376428
v 0.0008755015 0.1061619 0.1524862
v 0.009176617 0.1366706 0.1006811
v 0.009176617 0.1512902 0.1067611
v -0.01008842 0.1368272 -0.1003619
v -0.01008842 0.1512902 -0.1068057
v -0.01870402 0.1007681 -0.1374841
v -0.01870451 0.1061619 -0.1523705
v -0.06982011 -0.09934396 -0.1381148
v -0.06982061 -0.1062295 -0.152373
v -0.01130656 -0.1512103 -0.107129
v 0.00482583 -0.1010179 -0.1374239
v 0.004825344 -0.1062295 -0.1523755
v -0.01130656 -0.1366105 -0.1010011
v 0.03075265 -0.1512104 0.106755
v 0.03075265 -0.1368005 0.1001932
v 0.03677064 -0.1062296 0.1524812
v 0.03677015 -0.1005459 0.137703
v 0.0648514 0.1061619 0.1524837
v 0.06485092 0.09961565 0.1380665
v 0.07086631 0.1512902 0.1067586
v 0.07086631 0.1366078 0.1008318
v 0.05986616 0.1512902 -0.1068082
v 0.05986616 0.1364285 -0.1013468
v 0.0452712 0.1061619 -0.152373
v 0.04527168 0.09928758 -0.1381095
v 0.004825344 -0.1062295 -0.1523755
v 0.00482583 -0.1010179 -0.1374239
vt 0.2827148 0.8339844
vt 0.2797852 0.8251953
vt 0.2797852 0.8339844
vt 0.2866211 0.8271484
vt 0.2797852 0.8188477
vt 0.296875 0.8251953
vt 0.296875 0.8339844
vt 0.3000488 0.8339844
vt 0.2866211 0.8203125
vt 0.2797852 0.8139648
vt 0.2827148 0.8139648
vt 0.296875 0.8139648
vt 0.296875 0.8188477
vt 0.3000488 0.8251953
vt 0.314209 0.8339844
vt 0.3000488 0.8188477
vt 0.3000488 0.8139648
vt 0.314209 0.8251953
vt 0.3171387 0.8339844
vt 0.314209 0.8188477
vt 0.314209 0.8139648
vt 0.3171387 0.8251953
vt 0.3312988 0.8339844
vt 0.3171387 0.8188477
vt 0.3171387 0.8139648
vt 0.3273926 0.8271484
vt 0.3344727 0.8339844
vt 0.3273926 0.8203125
vt 0.3312988 0.8139648
vt 0.3344727 0.8251953
vt 0.3486328 0.8339844
vt 0.3486328 0.8251953
vt 0.3344727 0.8188477
vt 0.3344727 0.8139648
vt 0.3486328 0.8188477
vt 0.3486328 0.8139648
vt 0.3308105 0.8642578
vt 0.3381348 0.8657227
vt 0.3381348 0.8642578
vt 0.3308105 0.8637695
vt 0.3308105 0.8657227
vt 0.3308105 0.8657227
vt 0.296875 0.8657227
vt 0.296875 0.8642578
vt 0.296875 0.8637695
vt 0.2895508 0.8642578
vt 0.296875 0.8657227
vt 0.2895508 0.8657227
vt 0.2893066 0.7836914
vt 0.2893066 0.784668
vt 0.2966309 0.784668
vt 0.2966309 0.7851563
vt 0.2966309 0.7836914
vt 0.2966309 0.7836914
vt 0.3300781 0.7836914
vt 0.3300781 0.7836914
vt 0.3371582 0.7836914
vt 0.3371582 0.784668
vt 0.3300781 0.784668
vt 0.3300781 0.7851563
vt 0.2866211 0.8271484
vt 0.2797852 0.8188477
vt 0.2797852 0.8251953
vt 0.2866211 0.8203125
vt 0.296875 0.8188477
vt 0.296875 0.8251953
vt 0.3000488 0.8251953
vt 0.3000488 0.8188477
vt 0.314209 0.8251953
vt 0.314209 0.8188477
vt 0.3171387 0.8251953
vt 0.3171387 0.8188477
vt 0.3273926 0.8271484
vt 0.3273926 0.8203125
vt 0.3344727 0.8251953
vt 0.3344727 0.8188477
vt 0.3486328 0.8251953
vt 0.3486328 0.8188477
vt 0.2866211 0.8271484
vt 0.2797852 0.8251953
vt 0.2797852 0.8188477
vt 0.2866211 0.8203125
vt 0.296875 0.8188477
vt 0.296875 0.8251953
vt 0.3000488 0.8251953
vt 0.3000488 0.8188477
vt 0.314209 0.8251953
vt 0.314209 0.8188477
vt 0.3171387 0.8251953
vt 0.3171387 0.8188477
vt 0.3273926 0.8271484
vt 0.3273926 0.8203125
vt 0.3344727 0.8251953
vt 0.3344727 0.8188477
vt 0.3486328 0.8251953
vt 0.3486328 0.8188477
vt 0.2797852 0.8251953
vt 0.2797852 0.8251953
vt 0.2866211 0.8271484
vt 0.2866211 0.8271484
vt 0.296875 0.8251953
vt 0.296875 0.8251953
vt 0.3000488 0.8251953
vt 0.3000488 0.8251953
vt 0.314209 0.8251953
vt 0.314209 0.8251953
vt 0.3171387 0.8251953
vt 0.3171387 0.8251953
vt 0.3273926 0.8271484
vt 0.3273926 0.8271484
vt 0.3344727 0.8251953
vt 0.3344727 0.8251953
vt 0.3486328 0.8251953
vt 0.3486328 0.8251953
vt 0.2866211 0.8203125
vt 0.2797852 0.8188477
vt 0.2797852 0.8188477
vt 0.2866211 0.8203125
vt 0.296875 0.8188477
vt 0.296875 0.8188477
vt 0.3000488 0.8188477
vt 0.3000488 0.8188477
vt 0.314209 0.8188477
vt 0.314209 0.8188477
vt 0.3171387 0.8188477
vt 0.3171387 0.8188477
vt 0.3273926 0.8203125
vt 0.3273926 0.8203125
vt 0.3344727 0.8188477
vt 0.3344727 0.8188477
vt 0.3486328 0.8188477
vt 0.3486328 0.8188477
vn -0.4077148 -0.9082031 -0.09466553
vn -0.0003166199 -0.1479492 -0.9887695
vn -0.3603516 -0.08392334 -0.9291992
vn -0.0003979206 -0.987793 -0.1551514
vn 0.0002880096 -0.2075195 -0.9780273
vn 0 -0.980957 0.1929932
vn -0.3845215 -0.9116211 0.1461182
vn -0.2919922 -0.1114502 0.949707
vn 0.000207305 -0.9838867 -0.1789551
vn 0.3146973 -0.1628418 -0.9350586
vn 0.2834473 -0.9477539 -0.1463623
vn 0.2983398 -0.9487305 0.1061401
vn 0 -0.9882813 0.151123
vn 3.570318E-05 -0.1580811 0.9873047
vn -0.2741699 0.161377 0.9482422
vn 3.367662E-05 -0.1988525 0.9799805
vn 0.3967285 -0.1417236 0.9072266
vn 3.427267E-05 0.1954346 0.980957
vn -0.2470703 0.9580078 0.1446533
vn 3.641844E-05 0.1499023 0.9887695
vn 0.421875 0.08746338 0.9023438
vn 0 0.9848633 0.1719971
vn -0.2529297 0.9589844 -0.1265869
vn 0 0.9868164 0.1627197
vn 0.4699707 0.8774414 0.09716797
vn -7.683039E-05 0.9873047 -0.1575928
vn -0.3269043 0.1641846 -0.9306641
vn 0.0001466274 0.9829102 -0.1851807
vn 0.4555664 0.8813477 -0.1244507
vn -0.000143528 0.2034912 -0.9790039
vn -0.3603516 -0.08392334 -0.9291992
vn -0.0003166199 -0.1479492 -0.9887695
vn 5.614758E-05 0.1464844 -0.9892578
vn 0.3422852 0.09381104 -0.9350586
vn 0.0002880096 -0.2075195 -0.9780273
vn 0.3146973 -0.1628418 -0.9350586
vn -0.9755859 -0.1561279 0.1552734
vn -0.2741699 0.161377 0.9482422
vn -0.2919922 -0.1114502 0.949707
vn -0.3845215 -0.9116211 0.1461182
vn -0.9755859 0.1560059 0.1552734
vn -0.2470703 0.9580078 0.1446533
vn -0.2529297 0.9589844 -0.1265869
vn -0.9755859 -0.1561279 -0.1551514
vn -0.4077148 -0.9082031 -0.09466553
vn -0.3603516 -0.08392334 -0.9291992
vn -0.9755859 0.1560059 -0.1551514
vn -0.3269043 0.1641846 -0.9306641
vn 0.3967285 -0.1417236 0.9072266
vn 0.421875 0.08746338 0.9023438
vn 0.9755859 0.1560059 0.1551514
vn 0.4699707 0.8774414 0.09716797
vn 0.9755859 -0.1560059 0.1551514
vn 0.2983398 -0.9487305 0.1061401
vn 0.2834473 -0.9477539 -0.1463623
vn 0.9755859 -0.1560059 -0.1552734
vn 0.3146973 -0.1628418 -0.9350586
vn 0.3422852 0.09381104 -0.9350586
vn 0.9755859 0.1560059 -0.1552734
vn 0.4555664 0.8813477 -0.1244507
vn 0 -0.9858398 -0.1674805
vn -3.540516E-05 -0.1418457 -0.9897461
vn -3.480911E-05 -0.2202148 -0.9755859
vn 0 -0.9848633 -0.1729736
vn 0 -0.9790039 0.2027588
vn 0 -0.9887695 0.1507568
vn 3.451109E-05 -0.2188721 0.9755859
vn 3.498793E-05 -0.1677246 0.9858398
vn 3.612041E-05 0.1374512 0.9907227
vn 3.600121E-05 0.1815186 0.9833984
vn 0 0.9858398 0.1682129
vn 0 0.9868164 0.161499
vn 0 0.980957 -0.1942139
vn 0 0.9887695 -0.1495361
vn -3.570318E-05 0.1403809 -0.9902344
vn -3.534555E-05 0.2077637 -0.9780273
vn -3.480911E-05 -0.2202148 -0.9755859
vn -3.540516E-05 -0.1418457 -0.9897461
vn 0.003847122 0.9892578 0.1452637
vn 0.0008816719 0.1966553 0.9804688
vn 0.0003695488 0.1224365 0.9926758
vn 0.003871918 0.987793 0.1555176
vn 0.002717972 0.9833984 -0.1816406
vn 0.00292778 0.9912109 -0.1329346
vn -0.0001846552 0.1964111 -0.9804688
vn -0.000181675 0.1480713 -0.9887695
vn -0.0006561279 -0.1202393 -0.9926758
vn -0.0008192062 -0.1606445 -0.9868164
vn -0.003574371 -0.9887695 -0.1496582
vn -0.003572464 -0.9902344 -0.1409912
vn -0.003206253 -0.9848633 0.1738281
vn -0.003292084 -0.9916992 0.130249
vn -0.0006670952 -0.1229248 0.9921875
vn -0.0007653236 -0.1853027 0.9829102
vn 0.0008816719 0.1966553 0.9804688
vn 0.0003695488 0.1224365 0.9926758
vn -0.9755859 0.2155762 -0.04266357
vn -0.9750977 0.2182617 -0.03942871
vn -0.9946289 0.0269165 0.09967041
vn -0.9946289 0.02677917 0.09997559
vn -0.9882813 0.01893616 0.1525879
vn -0.987793 0.01715088 0.1536865
vn -0.9858398 0.1660156 0.02818298
vn -0.9858398 0.1643066 0.03007507
vn -0.9858398 0.1663818 -0.01618958
vn -0.9858398 0.1679688 -0.01409912
vn -0.9985352 0.02323914 0.0512085
vn -0.9985352 0.02355957 0.05059814
vn -0.9951172 0.02394104 0.09429932
vn -0.9951172 0.02554321 0.09442139
vn -0.9775391 0.2111816 0.01318359
vn -0.9765625 0.2142334 0.01047516
vn -0.9750977 0.2182617 -0.03942871
vn -0.9755859 0.2155762 -0.04266357
vn 0.9921875 -0.04678345 -0.1154175
vn 0.9804688 -0.1942139 0.03414917
vn 0.9804688 -0.1939697 0.02914429
vn 0.9921875 -0.04577637 -0.1173706
vn 0.9853516 -0.01945496 -0.1696777
vn 0.9848633 -0.01820374 -0.171875
vn 0.9921875 -0.1223145 -0.01180267
vn 0.9926758 -0.12146 -0.01291656
vn 0.9926758 -0.1203003 0.02006531
vn 0.9926758 -0.1212158 0.01907349
vn 0.9995117 -0.01481628 -0.02528381
vn 0.9995117 -0.01499176 -0.02497864
vn 0.9960938 -0.03433228 -0.08032227
vn 0.9960938 -0.03692627 -0.08233643
vn 0.980957 -0.1860352 -0.05157471
vn 0.9814453 -0.1867676 -0.04696655
vn 0.9804688 -0.1939697 0.02914429
vn 0.9804688 -0.1942139 0.03414917
g Shoulder_left.012_0
f 3/3/3 2/2/2 1/1/1
f 2/2/2 4/4/4 1/1/1
f 2/2/2 5/5/5 4/4/4
f 4/4/4 6/6/6 1/1/1
f 6/6/6 7/7/7 1/1/1
f 7/7/7 6/6/6 8/8/8
f 5/5/5 9/9/9 4/4/4
f 5/5/5 10/10/10 9/9/9
f 10/10/10 11/11/11 9/9/9
f 11/11/11 12/12/12 9/9/9
f 9/9/9 13/13/13 4/4/4
f 13/13/13 6/6/6 4/4/4
f 12/12/12 13/13/13 9/9/9
f 6/6/6 14/14/14 8/8/8
f 6/6/6 13/13/13 14/14/14
f 15/15/15 8/8/8 14/14/14
f 13/13/13 12/12/12 16/16/16
f 13/13/13 16/16/16 14/14/14
f 12/12/12 17/17/17 16/16/16
f 18/18/18 15/15/15 14/14/14
f 18/18/18 14/14/14 16/16/16
f 15/15/15 18/18/18 19/19/19
f 20/20/20 16/16/16 17/17/17
f 20/20/20 18/18/18 16/16/16
f 21/21/21 20/20/20 17/17/17
f 18/18/18 22/22/22 19/19/19
f 18/18/18 20/20/20 22/22/22
f 23/23/23 19/19/19 22/22/22
f 20/20/20 21/21/21 24/24/24
f 20/20/20 24/24/24 22/22/22
f 21/21/21 25/25/25 24/24/24
f 26/26/26 23/23/23 22/22/22
f 26/26/26 22/22/22 24/24/24
f 23/23/23 26/26/26 27/27/27
f 28/28/28 24/24/24 25/25/25
f 28/28/28 26/26/26 24/24/24
f 29/29/29 28/28/28 25/25/25
f 26/26/26 30/30/30 27/27/27
f 26/26/26 28/28/28 30/30/30
f 31/31/31 27/27/27 30/30/30
f 32/32/32 31/31/31 30/30/30
f 28/28/28 29/29/29 33/33/33
f 28/28/28 33/33/33 30/30/30
f 32/32/32 30/30/30 33/33/33
f 29/29/29 34/34/34 33/33/33
f 35/35/35 32/32/32 33/33/33
f 35/35/35 33/33/33 34/34/34
f 36/36/36 35/35/35 34/34/34
f 39/39/39 38/38/38 37/37/37
f 40/40/40 39/39/39 37/37/37
f 38/38/38 41/41/41 37/37/37
f 41/41/41 38/38/38 42/42/42
f 42/42/42 43/43/43 41/41/41
f 37/37/37 44/44/44 40/40/40
f 44/44/44 37/37/37 41/41/41
f 44/44/44 45/45/45 40/40/40
f 44/44/44 46/46/46 45/45/45
f 43/43/43 47/47/47 41/41/41
f 47/47/47 44/44/44 41/41/41
f 46/46/46 44/44/44 47/47/47
f 47/47/47 43/43/43 48/48/48
f 48/48/48 46/46/46 47/47/47
f 51/51/51 50/50/50 49/49/49
f 52/52/52 50/50/50 51/51/51
f 53/53/53 51/51/51 49/49/49
f 53/53/53 49/49/49 54/54/54
f 54/54/54 55/55/55 53/53/53
f 55/55/55 56/56/56 53/53/53
f 51/51/51 53/53/53 56/56/56
f 55/55/55 57/57/57 56/56/56
f 56/56/56 57/57/57 58/58/58
f 51/51/51 59/59/59 52/52/52
f 59/59/59 51/51/51 56/56/56
f 59/59/59 56/56/56 58/58/58
f 59/59/59 60/60/60 52/52/52
f 58/58/58 60/60/60 59/59/59
g Shoulder_left.012_1
f 63/63/63 62/62/62 61/61/61
f 62/62/62 64/64/64 61/61/61
f 64/64/64 65/65/65 61/61/61
f 65/65/65 66/66/66 61/61/61
f 66/66/66 65/65/65 67/67/67
f 65/65/65 68/68/68 67/67/67
f 69/69/69 67/67/67 68/68/68
f 70/70/70 69/69/69 68/68/68
f 69/69/69 70/70/70 71/71/71
f 70/70/70 72/72/72 71/71/71
f 73/73/73 71/71/71 72/72/72
f 74/74/74 73/73/73 72/72/72
f 73/73/73 74/74/74 75/75/75
f 74/74/74 76/76/76 75/75/75
f 77/77/77 75/75/75 76/76/76
f 78/78/78 77/77/77 76/76/76
f 81/81/81 80/80/80 79/79/79
f 82/82/82 81/81/81 79/79/79
f 83/83/83 82/82/82 79/79/79
f 84/84/84 83/83/83 79/79/79
f 83/83/83 84/84/84 85/85/85
f 86/86/86 83/83/83 85/85/85
f 85/85/85 87/87/87 86/86/86
f 87/87/87 88/88/88 86/86/86
f 88/88/88 87/87/87 89/89/89
f 90/90/90 88/88/88 89/89/89
f 89/89/89 91/91/91 90/90/90
f 91/91/91 92/92/92 90/90/90
f 92/92/92 91/91/91 93/93/93
f 94/94/94 92/92/92 93/93/93
f 93/93/93 95/95/95 94/94/94
f 95/95/95 96/96/96 94/94/94
f 99/99/99 98/98/98 97/97/97
f 100/100/100 99/99/99 97/97/97
f 101/101/101 99/99/99 100/100/100
f 102/102/102 101/101/101 100/100/100
f 103/103/103 101/101/101 102/102/102
f 104/104/104 103/103/103 102/102/102
f 105/105/105 103/103/103 104/104/104
f 106/106/106 105/105/105 104/104/104
f 107/107/107 105/105/105 106/106/106
f 108/108/108 107/107/107 106/106/106
f 109/109/109 107/107/107 108/108/108
f 110/110/110 109/109/109 108/108/108
f 111/111/111 109/109/109 110/110/110
f 112/112/112 111/111/111 110/110/110
f 113/113/113 111/111/111 112/112/112
f 114/114/114 113/113/113 112/112/112
f 117/117/117 116/116/116 115/115/115
f 116/116/116 118/118/118 115/115/115
f 115/115/115 118/118/118 119/119/119
f 118/118/118 120/120/120 119/119/119
f 119/119/119 120/120/120 121/121/121
f 120/120/120 122/122/122 121/121/121
f 121/121/121 122/122/122 123/123/123
f 122/122/122 124/124/124 123/123/123
f 123/123/123 124/124/124 125/125/125
f 124/124/124 126/126/126 125/125/125
f 125/125/125 126/126/126 127/127/127
f 126/126/126 128/128/128 127/127/127
f 127/127/127 128/128/128 129/129/129
f 128/128/128 130/130/130 129/129/129
f 129/129/129 130/130/130 131/131/131
f 130/130/130 132/132/132 131/131/131
