g Sphere.017
v -0.2136355 -0.9078943 0.2088645
v -0.3404636 -0.8181617 -0.3889301
v -0.6635339 -0.6683329 -0.1036235
v -0.7201241 -0.4916069 0.5395011
v -0.1197409 -0.6406428 0.7771462
v -0.9448301 -0.3024071 0.151595
v -0.7666539 -0.1824673 -0.475731
v -0.9643373 0.2333244 0.09039269
v -0.6625085 0.2770507 -0.5387008
v -0.8862444 0.08085629 0.6680464
v -0.7409431 0.610755 -0.02527521
v -0.4523802 0.7027468 -0.3587263
v -0.1113732 0.9202421 0.1558357
v -0.0574703 0.7379723 -0.5049227
v 0.1796113 0.863471 -0.1685329
v -0.7179806 0.624841 0.5044183
v -0.5852687 -0.2333302 0.9165503
v -0.3933087 0.5842673 0.8519362
v -0.2398553 0.00853478 1.059346
v 0.1320315 0.3043749 0.9631741
v 0.1536251 0.6327254 0.7320899
v 0.3628434 -0.100142 0.9002364
v 0.6761781 0.27705 0.5693572
v 0.4601091 0.7027469 0.3965591
v 0.5376735 0.7347468 -0.2038797
v 0.1796113 0.863471 -0.1685329
v 0.8927232 0.3730695 -0.05566647
v 0.3770801 0.5054664 -0.7820102
v -0.0574703 0.7379723 -0.5049227
v 0.859907 0.2014799 -0.6501613
v 1.043118 0.005641109 -0.1562067
v 0.8285172 -0.2622153 0.4154288
v 0.2489555 -0.6683331 0.6516621
v -0.08895746 0.3730693 -0.8682231
v -0.4523802 0.7027468 -0.3587263
v -0.6625085 0.2770507 -0.5387008
v 0.3714251 0.005094807 -1.018077
v -0.2016127 -0.0006892041 -0.9563324
v -0.7666539 -0.1824673 -0.475731
v 0.7531279 -0.4656869 -0.7555065
v 0.8464975 -0.6208869 -0.01562082
v 0.2812165 -0.9304985 0.1059556
v -0.2136355 -0.9078943 0.2088645
v 0.3349457 -0.4414574 -0.9670832
v -0.2846021 -0.3645135 -0.8603546
v 0.6529958 -0.7772297 -0.2808647
v 0.1632439 -0.8830314 -0.5236667
v -0.3404636 -0.8181617 -0.3889301
v -0.6635339 -0.6683329 -0.1036235
vt 0.3242188 0.0612793
vt 1.192093E-07 0.125
vt 0.01808167 0.2332764
vt 0.1601563 0.2486572
vt 0.3215332 0.2116699
vt 0.07250977 0.347168
vt 0 0.4379883
vt 0.07458496 0.53125
vt 0 0.59375
vt 0.1634521 0.4533691
vt 0.07214355 0.6845703
vt 0.01808167 0.7666016
vt 0.2010498 0.8632813
vt 1.192093E-07 0.875
vt 0.009994507 0.9638672
vt 0.1672363 0.6494141
vt 0.2357178 0.3408203
vt 0.2580566 0.6318359
vt 0.3024902 0.4274902
vt 0.3537598 0.5581055
vt 0.3491211 0.6972656
vt 0.4030762 0.4399414
vt 0.4523926 0.5966797
vt 0.4282227 0.7680664
vt 0.5805664 0.8505859
vt 0.6279297 0.9453125
vt 0.5551758 0.6977539
vt 0.7666016 0.7680664
vt 0.9125977 0.8540039
vt 0.668457 0.6625977
vt 0.5795898 0.5595703
vt 0.4992676 0.4377441
vt 0.4282227 0.2319336
vt 0.8730469 0.6977539
vt 0.9760742 0.7680664
vt 0.9760742 0.5966797
vt 0.7841797 0.5932617
vt 0.8779297 0.5585938
vt 0.9750977 0.4377441
vt 0.6943359 0.4394531
vt 0.5751953 0.3505859
vt 0.5805664 0.1494141
vt 0.7280273 0.04800415
vt 0.7841797 0.4387207
vt 0.8837891 0.4243164
vt 0.6430664 0.2822266
vt 0.7666016 0.2320557
vt 0.8989258 0.2033691
vt 0.9760742 0.2319336
vn -0.2531738 -0.9433594 0.21521
vn -0.4499512 -0.730957 -0.5126953
vn -0.6967773 -0.6650391 -0.2685547
vn -0.6416016 -0.6572266 0.3955078
vn -0.07489014 -0.6928711 0.7172852
vn -0.9487305 -0.3151855 -0.02566528
vn -0.7773438 -0.2332764 -0.5839844
vn -0.9731445 0.2026367 -0.1090088
vn -0.675293 0.2817383 -0.6816406
vn -0.8339844 0.09313965 0.5439453
vn -0.6069336 0.7832031 -0.1350098
vn -0.4760742 0.7841797 -0.3984375
vn -0.109314 0.9829102 0.1478271
vn -0.09442139 0.8544922 -0.5102539
vn 0.1593018 0.9555664 -0.2475586
vn -0.5976563 0.7641602 0.2425537
vn -0.4831543 -0.2683105 0.8334961
vn -0.208252 0.7104492 0.6723633
vn -0.08532715 -0.06512451 0.9941406
vn 0.3544922 0.3591309 0.8632813
vn 0.2695313 0.7763672 0.5698242
vn 0.4816895 -0.1925049 0.8549805
vn 0.7651367 0.3361816 0.5493164
vn 0.494873 0.7607422 0.4199219
vn 0.5336914 0.831543 -0.1544189
vn 0.1593018 0.9555664 -0.2475586
vn 0.8383789 0.5175781 0.1713867
vn 0.3181152 0.6538086 -0.6865234
vn -0.09442139 0.8544922 -0.5102539
vn 0.7763672 0.3029785 -0.5527344
vn 0.9980469 0.05145264 0.03945923
vn 0.8105469 -0.2504883 0.5292969
vn 0.4150391 -0.6591797 0.6269531
vn -0.3266602 0.4914551 -0.8071289
vn -0.4760742 0.7841797 -0.3984375
vn -0.675293 0.2817383 -0.6816406
vn 0.2722168 0.1312256 -0.953125
vn -0.4731445 0.142334 -0.8696289
vn -0.7773438 -0.2332764 -0.5839844
vn 0.7182617 -0.3967285 -0.5717773
vn 0.8198242 -0.5488281 0.1638184
vn 0.2458496 -0.9487305 0.199585
vn -0.2531738 -0.9433594 0.21521
vn -0.001907349 -0.5424805 -0.840332
vn -0.4882813 -0.4301758 -0.7592773
vn 0.5053711 -0.8388672 -0.2023926
vn -0.06161499 -0.8388672 -0.5410156
vn -0.4499512 -0.730957 -0.5126953
vn -0.6967773 -0.6650391 -0.2685547
g Sphere.017_0
f 3/3/3 2/2/2 1/1/1
f 4/4/4 3/3/3 1/1/1
f 4/4/4 1/1/1 5/5/5
f 6/6/6 3/3/3 4/4/4
f 7/7/7 3/3/3 6/6/6
f 8/8/8 7/7/7 6/6/6
f 9/9/9 7/7/7 8/8/8
f 10/10/10 6/6/6 4/4/4
f 8/8/8 6/6/6 10/10/10
f 9/9/9 8/8/8 11/11/11
f 12/12/12 9/9/9 11/11/11
f 13/13/13 12/12/12 11/11/11
f 14/14/14 12/12/12 13/13/13
f 15/15/15 14/14/14 13/13/13
f 11/11/11 8/8/8 16/16/16
f 8/8/8 10/10/10 16/16/16
f 16/16/16 13/13/13 11/11/11
f 10/10/10 4/4/4 17/17/17
f 17/17/17 4/4/4 5/5/5
f 16/16/16 10/10/10 18/18/18
f 18/18/18 10/10/10 17/17/17
f 16/16/16 18/18/18 13/13/13
f 17/17/17 5/5/5 19/19/19
f 18/18/18 17/17/17 19/19/19
f 18/18/18 19/19/19 20/20/20
f 18/18/18 21/21/21 13/13/13
f 21/21/21 18/18/18 20/20/20
f 20/20/20 19/19/19 22/22/22
f 19/19/19 5/5/5 22/22/22
f 20/20/20 23/23/23 21/21/21
f 23/23/23 20/20/20 22/22/22
f 21/21/21 24/24/24 13/13/13
f 23/23/23 24/24/24 21/21/21
f 25/25/25 13/13/13 24/24/24
f 26/26/26 13/13/13 25/25/25
f 27/27/27 24/24/24 23/23/23
f 24/24/24 27/27/27 25/25/25
f 26/26/26 25/25/25 28/28/28
f 26/26/26 28/28/28 29/29/29
f 27/27/27 30/30/30 25/25/25
f 25/25/25 30/30/30 28/28/28
f 31/31/31 27/27/27 23/23/23
f 27/27/27 31/31/31 30/30/30
f 23/23/23 22/22/22 32/32/32
f 23/23/23 32/32/32 31/31/31
f 5/5/5 33/33/33 22/22/22
f 22/22/22 33/33/33 32/32/32
f 29/29/29 28/28/28 34/34/34
f 29/29/29 34/34/34 35/35/35
f 36/36/36 35/35/35 34/34/34
f 28/28/28 30/30/30 37/37/37
f 28/28/28 37/37/37 34/34/34
f 38/38/38 36/36/36 34/34/34
f 34/34/34 37/37/37 38/38/38
f 39/39/39 36/36/36 38/38/38
f 31/31/31 40/40/40 30/30/30
f 30/30/30 40/40/40 37/37/37
f 31/31/31 32/32/32 41/41/41
f 32/32/32 33/33/33 41/41/41
f 31/31/31 41/41/41 40/40/40
f 5/5/5 42/42/42 33/33/33
f 41/41/41 33/33/33 42/42/42
f 5/5/5 43/43/43 42/42/42
f 37/37/37 44/44/44 38/38/38
f 37/37/37 40/40/40 44/44/44
f 45/45/45 39/39/39 38/38/38
f 44/44/44 45/45/45 38/38/38
f 40/40/40 41/41/41 46/46/46
f 46/46/46 41/41/41 42/42/42
f 42/42/42 43/43/43 47/47/47
f 46/46/46 42/42/42 47/47/47
f 40/40/40 46/46/46 47/47/47
f 40/40/40 47/47/47 44/44/44
f 45/45/45 44/44/44 47/47/47
f 47/47/47 43/43/43 48/48/48
f 48/48/48 45/45/45 47/47/47
f 39/39/39 45/45/45 48/48/48
f 49/49/49 39/39/39 48/48/48
