g Spine2.004
v -0.2736872 0.144594 -0.03224267
v -0.2736872 -0.1433196 -0.03224269
v -0.2736872 -0.1433196 -0.1309507
v -0.2736872 0.1445941 -0.1309506
v -0.1950627 -0.1433196 -0.2095762
v -0.1950627 0.1445941 -0.2095761
v 0.2736872 -0.1433196 0.03224311
v 0.2736872 0.144594 0.1309511
v 0.2736872 0.144594 0.03224314
v 0.2736872 -0.1433197 0.1309511
v 0.1950627 -0.1433197 0.2095747
v 0.1950627 0.144594 0.2095748
v -1.780876E-26 0.144594 0.2095748
v 1.76518E-26 -0.1433197 0.2095747
v -0.1950627 0.144594 0.2095748
v -0.1950627 -0.1433197 0.2095747
v -0.2736872 -0.1433197 0.1309511
v -0.2736872 0.144594 0.1309511
v -0.2736872 -0.1433196 0.03224311
v -0.2736872 0.144594 0.03224313
v -1.780876E-26 0.1445941 -0.2095761
v -0.1950627 0.1445941 -0.2095761
v -0.1950627 -0.1433196 -0.2095762
v 1.76518E-26 -0.1433196 -0.2095762
v 0.1950627 0.1445941 -0.2095761
v 0.1950627 -0.1433196 -0.2095762
v 0.2736872 -0.1433196 -0.1309507
v 0.2736872 0.1445941 -0.1309506
v 0.2736872 0.144594 -0.03224266
v 0.2736872 -0.1433196 -0.0322427
v -0.1950627 -0.2219446 -0.03224271
v -0.2736872 -0.1433196 -0.1309507
v -0.2736872 -0.1433196 -0.03224269
v -0.1950627 -0.2219446 -0.1309507
v -0.1950627 -0.1433196 -0.2095762
v 2.733556E-26 -0.2219446 -0.0322427
v 1.76518E-26 -0.1433196 -0.2095762
v 2.733556E-26 -0.2219446 -0.1309507
v 0.1950627 -0.2219446 -0.0322427
v 0.1950627 -0.1433196 -0.2095762
v 0.1950627 -0.2219446 -0.1309507
v 0.2736872 -0.1433196 -0.0322427
v 0.2736872 -0.1433196 -0.1309507
v 0.1950627 0.2232193 -0.03224266
v 0.2736872 0.1445941 -0.1309506
v 0.2736872 0.144594 -0.03224266
v 0.1950627 0.2232193 -0.1309506
v 0.1950627 0.1445941 -0.2095761
v -1.780876E-26 0.1445941 -0.2095761
v -2.749255E-26 0.2232193 -0.1309506
v -2.749255E-26 0.2232193 -0.03224266
v -0.1950627 0.1445941 -0.2095761
v -0.1950627 0.2232193 -0.1309506
v -0.1950627 0.2232193 -0.03224266
v -0.2736872 0.1445941 -0.1309506
v -0.2736872 0.144594 -0.03224267
v -0.2736872 0.144594 0.1309511
v -0.2736872 0.144594 0.03224313
v -0.1950627 0.2232193 0.03224315
v -0.1950627 0.2232193 0.1309512
v -0.1950627 0.144594 0.2095748
v -1.780876E-26 0.144594 0.2095748
v -2.341119E-26 0.1900816 0.1309512
v -2.749255E-26 0.2232193 0.03224315
v 0.1950627 0.144594 0.2095748
v 0.1950627 0.2232193 0.1309512
v 0.1950627 0.2232193 0.03224314
v 0.2736872 0.144594 0.1309511
v 0.2736872 0.144594 0.03224314
v 0.2736872 -0.1433197 0.1309511
v 0.2736872 -0.1433196 0.03224311
v 0.1950627 -0.2219446 0.03224311
v 0.1950627 -0.2219447 0.1309511
v 0.1950627 -0.1433197 0.2095747
v 2.733556E-26 -0.2219446 0.0322431
v 1.76518E-26 -0.1433197 0.2095747
v 2.733556E-26 -0.2219447 0.1309511
v -0.1950627 -0.2219446 0.03224309
v -0.1950627 -0.1433197 0.2095747
v -0.1950627 -0.2219447 0.1309511
v -0.2736872 -0.1433196 0.03224311
v -0.2736872 -0.1433197 0.1309511
vt 0.276123 0.8168945
vt 0.276123 0.7524414
vt 0.2719727 0.7524414
vt 0.2719727 0.8168945
vt 0.2685547 0.7524414
vt 0.2685547 0.8168945
vt 0.3122559 0.7524414
vt 0.3081055 0.8168945
vt 0.3122559 0.8168945
vt 0.3081055 0.7524414
vt 0.3046875 0.7524414
vt 0.3046875 0.8168945
vt 0.2961426 0.8168945
vt 0.2961426 0.7524414
vt 0.2878418 0.8168945
vt 0.2878418 0.7524414
vt 0.2844238 0.7524414
vt 0.2844238 0.8168945
vt 0.2802734 0.7524414
vt 0.2802734 0.8168945
vt 0.3322754 0.8168945
vt 0.3405762 0.8168945
vt 0.3405762 0.7524414
vt 0.3322754 0.7524414
vt 0.3237305 0.8168945
vt 0.3237305 0.7524414
vt 0.3203125 0.7524414
vt 0.3203125 0.8168945
vt 0.3161621 0.8168945
vt 0.3161621 0.7524414
vt 0.3295898 0.6982422
vt 0.3388672 0.6987305
vt 0.3388672 0.6982422
vt 0.3295898 0.6987305
vt 0.3295898 0.699707
vt 0.3066406 0.6982422
vt 0.3066406 0.699707
vt 0.3066406 0.6987305
vt 0.2836914 0.6982422
vt 0.2836914 0.699707
vt 0.2836914 0.6987305
vt 0.2744141 0.6982422
vt 0.2744141 0.6987305
vt 0.2807617 0.8706055
vt 0.2709961 0.8696289
vt 0.2709961 0.8706055
vt 0.2807617 0.8696289
vt 0.2807617 0.8686523
vt 0.3049316 0.8686523
vt 0.3049316 0.8696289
vt 0.3049316 0.8706055
vt 0.3288574 0.8686523
vt 0.3288574 0.8696289
vt 0.3288574 0.8706055
vt 0.338623 0.8696289
vt 0.338623 0.8706055
vt 0.338623 0.8725586
vt 0.338623 0.871582
vt 0.3288574 0.871582
vt 0.3288574 0.8725586
vt 0.3288574 0.8735352
vt 0.3049316 0.8735352
vt 0.3049316 0.8725586
vt 0.3049316 0.871582
vt 0.2807617 0.8735352
vt 0.2807617 0.8725586
vt 0.2807617 0.871582
vt 0.2709961 0.8725586
vt 0.2709961 0.871582
vt 0.2744141 0.6962891
vt 0.2744141 0.6972656
vt 0.2836914 0.6972656
vt 0.2836914 0.6962891
vt 0.2836914 0.6953125
vt 0.3066406 0.6972656
vt 0.3066406 0.6953125
vt 0.3066406 0.6962891
vt 0.3295898 0.6972656
vt 0.3295898 0.6953125
vt 0.3295898 0.6962891
vt 0.3388672 0.6972656
vt 0.3388672 0.6962891
vn -0.9775391 0.2097168 0
vn -0.9775391 -0.2097168 0
vn -0.9165039 -0.1478271 -0.3718262
vn -0.9165039 0.1478271 -0.3718262
vn -0.2449951 -0.1726074 -0.9541016
vn -0.2449951 0.1726074 -0.9541016
vn 0.9775391 -0.2097168 0
vn 0.9165039 0.1478271 0.3718262
vn 0.9775391 0.2097168 0
vn 0.9165039 -0.1478271 0.3718262
vn 0.2449951 -0.1724854 0.9541016
vn 0.2401123 0.1785889 0.9541016
vn 0 0.2192383 0.9755859
vn 0 -0.2097168 0.9775391
vn -0.2401123 0.1785889 0.9541016
vn -0.2449951 -0.1724854 0.9541016
vn -0.9165039 -0.1478271 0.3718262
vn -0.9165039 0.1478271 0.3718262
vn -0.9775391 -0.2097168 0
vn -0.9775391 0.2097168 0
vn 0 0.2097168 -0.9775391
vn -0.2449951 0.1726074 -0.9541016
vn -0.2449951 -0.1726074 -0.9541016
vn 0 -0.2097168 -0.9775391
vn 0.2449951 0.1726074 -0.9541016
vn 0.2449951 -0.1726074 -0.9541016
vn 0.9165039 -0.1478271 -0.3718262
vn 0.9165039 0.1478271 -0.3718262
vn 0.9775391 0.2097168 0
vn 0.9775391 -0.2097168 0
vn -0.276123 -0.9609375 0
vn -0.9165039 -0.1478271 -0.3718262
vn -0.9775391 -0.2097168 0
vn -0.2016602 -0.9121094 -0.3571777
vn -0.2449951 -0.1726074 -0.9541016
vn 0 -1 0
vn 0 -0.2097168 -0.9775391
vn 0 -0.9140625 -0.4052734
vn 0.276123 -0.9609375 0
vn 0.2449951 -0.1726074 -0.9541016
vn 0.2016602 -0.9121094 -0.3571777
vn 0.9775391 -0.2097168 0
vn 0.9165039 -0.1478271 -0.3718262
vn 0.276123 0.9609375 0
vn 0.9165039 0.1478271 -0.3718262
vn 0.9775391 0.2097168 0
vn 0.2016602 0.9121094 -0.3571777
vn 0.2449951 0.1726074 -0.9541016
vn 0 0.2097168 -0.9775391
vn 0 0.9140625 -0.4052734
vn 0 1 0
vn -0.2449951 0.1726074 -0.9541016
vn -0.2016602 0.9121094 -0.3571777
vn -0.276123 0.9609375 0
vn -0.9165039 0.1478271 -0.3718262
vn -0.9775391 0.2097168 0
vn -0.9165039 0.1478271 0.3718262
vn -0.9775391 0.2097168 0
vn -0.2425537 0.9677734 0.07000732
vn -0.1491699 0.9238281 0.3520508
vn -0.2401123 0.1785889 0.9541016
vn 0 0.2192383 0.9755859
vn 0 0.909668 0.4155273
vn 0 0.9951172 0.1010132
vn 0.2401123 0.1785889 0.9541016
vn 0.1491699 0.9238281 0.3520508
vn 0.2425537 0.9677734 0.07000732
vn 0.9165039 0.1478271 0.3718262
vn 0.9775391 0.2097168 0
vn 0.9165039 -0.1478271 0.3718262
vn 0.9775391 -0.2097168 0
vn 0.276123 -0.9609375 0
vn 0.2016602 -0.9121094 0.3571777
vn 0.2449951 -0.1724854 0.9541016
vn 0 -1 0
vn 0 -0.2097168 0.9775391
vn 0 -0.9140625 0.4052734
vn -0.276123 -0.9609375 0
vn -0.2449951 -0.1724854 0.9541016
vn -0.2016602 -0.9121094 0.3571777
vn -0.9775391 -0.2097168 0
vn -0.9165039 -0.1478271 0.3718262
g Spine2.004_0
f 3/3/3 2/2/2 1/1/1
f 4/4/4 3/3/3 1/1/1
f 5/5/5 3/3/3 4/4/4
f 6/6/6 5/5/5 4/4/4
f 9/9/9 8/8/8 7/7/7
f 8/8/8 10/10/10 7/7/7
f 10/10/10 8/8/8 11/11/11
f 8/8/8 12/12/12 11/11/11
f 12/12/12 13/13/13 11/11/11
f 13/13/13 14/14/14 11/11/11
f 13/13/13 15/15/15 14/14/14
f 15/15/15 16/16/16 14/14/14
f 16/16/16 15/15/15 17/17/17
f 15/15/15 18/18/18 17/17/17
f 19/19/19 17/17/17 18/18/18
f 20/20/20 19/19/19 18/18/18
f 23/23/23 22/22/22 21/21/21
f 24/24/24 23/23/23 21/21/21
f 24/24/24 21/21/21 25/25/25
f 26/26/26 24/24/24 25/25/25
f 27/27/27 26/26/26 25/25/25
f 28/28/28 27/27/27 25/25/25
f 28/28/28 29/29/29 27/27/27
f 29/29/29 30/30/30 27/27/27
f 33/33/33 32/32/32 31/31/31
f 32/32/32 34/34/34 31/31/31
f 32/32/32 35/35/35 34/34/34
f 36/36/36 31/31/31 34/34/34
f 35/35/35 37/37/37 34/34/34
f 38/38/38 36/36/36 34/34/34
f 37/37/37 38/38/38 34/34/34
f 39/39/39 36/36/36 38/38/38
f 37/37/37 40/40/40 38/38/38
f 41/41/41 39/39/39 38/38/38
f 40/40/40 41/41/41 38/38/38
f 39/39/39 41/41/41 42/42/42
f 41/41/41 40/40/40 43/43/43
f 41/41/41 43/43/43 42/42/42
f 46/46/46 45/45/45 44/44/44
f 45/45/45 47/47/47 44/44/44
f 48/48/48 47/47/47 45/45/45
f 47/47/47 48/48/48 49/49/49
f 47/47/47 50/50/50 44/44/44
f 50/50/50 47/47/47 49/49/49
f 50/50/50 51/51/51 44/44/44
f 50/50/50 49/49/49 52/52/52
f 50/50/50 53/53/53 51/51/51
f 53/53/53 50/50/50 52/52/52
f 53/53/53 54/54/54 51/51/51
f 55/55/55 53/53/53 52/52/52
f 54/54/54 53/53/53 56/56/56
f 53/53/53 55/55/55 56/56/56
f 59/59/59 58/58/58 57/57/57
f 60/60/60 59/59/59 57/57/57
f 57/57/57 61/61/61 60/60/60
f 61/61/61 62/62/62 60/60/60
f 59/59/59 60/60/60 63/63/63
f 62/62/62 63/63/63 60/60/60
f 64/64/64 59/59/59 63/63/63
f 62/62/62 65/65/65 63/63/63
f 64/64/64 63/63/63 66/66/66
f 65/65/65 66/66/66 63/63/63
f 67/67/67 64/64/64 66/66/66
f 66/66/66 65/65/65 68/68/68
f 69/69/69 67/67/67 66/66/66
f 68/68/68 69/69/69 66/66/66
f 72/72/72 71/71/71 70/70/70
f 73/73/73 72/72/72 70/70/70
f 70/70/70 74/74/74 73/73/73
f 72/72/72 73/73/73 75/75/75
f 73/73/73 74/74/74 76/76/76
f 73/73/73 77/77/77 75/75/75
f 77/77/77 73/73/73 76/76/76
f 75/75/75 77/77/77 78/78/78
f 77/77/77 76/76/76 79/79/79
f 77/77/77 80/80/80 78/78/78
f 80/80/80 77/77/77 79/79/79
f 81/81/81 78/78/78 80/80/80
f 80/80/80 79/79/79 82/82/82
f 82/82/82 81/81/81 80/80/80
g Spine2.004_1
f 69/69/69 46/46/46 67/67/67
f 46/46/46 44/44/44 67/67/67
f 44/44/44 51/51/51 67/67/67
f 51/51/51 64/64/64 67/67/67
f 51/51/51 54/54/54 64/64/64
f 54/54/54 59/59/59 64/64/64
f 59/59/59 54/54/54 58/58/58
f 54/54/54 56/56/56 58/58/58
f 39/39/39 42/42/42 71/71/71
f 72/72/72 39/39/39 71/71/71
f 39/39/39 72/72/72 36/36/36
f 72/72/72 75/75/75 36/36/36
f 36/36/36 75/75/75 31/31/31
f 75/75/75 78/78/78 31/31/31
f 33/33/33 31/31/31 78/78/78
f 81/81/81 33/33/33 78/78/78
f 9/9/9 7/7/7 30/30/30
f 29/29/29 9/9/9 30/30/30
f 2/2/2 19/19/19 20/20/20
f 1/1/1 2/2/2 20/20/20
