g TrainingCamp_1.003
v 0.003479959 -0.8211278 0.05232707
v 0.0553815 -0.1005416 0.09012056
v -0.001619549 -0.1009359 0.05697577
v 0.06048101 -0.8207337 0.08547185
v 0.06501673 -0.1012749 0.1553469
v 0.07011642 -0.821467 0.1506981
v 0.02003057 -0.1025834 0.2035381
v 0.0251303 -0.8227754 0.1988893
v -0.04570139 -0.1034819 0.1984052
v -0.04060169 -0.8236738 0.1937563
v -0.08268169 -0.1032937 0.1438133
v -0.07758217 -0.8234856 0.1391646
v -0.06306345 -0.1021607 0.08087132
v -0.05796394 -0.8223526 0.07622263
v -0.001619549 -0.1009359 0.05697577
v 0.003479959 -0.8211278 0.05232707
v -0.06306345 -0.1021607 0.08087132
v -0.001619549 -0.1009359 0.05697577
v 0.0553815 -0.1005416 0.09012056
v -0.08268169 -0.1032937 0.1438133
v 0.06501673 -0.1012749 0.1553469
v -0.04570139 -0.1034819 0.1984052
v 0.02003057 -0.1025834 0.2035381
v 0.06048101 -0.8207337 0.08547185
v 0.003479959 -0.8211278 0.05232707
v -0.05796394 -0.8223526 0.07622263
v -0.07758217 -0.8234856 0.1391646
v 0.07011642 -0.821467 0.1506981
v -0.04060169 -0.8236738 0.1937563
v 0.0251303 -0.8227754 0.1988893
v -0.0300302 -0.587622 0.4047828
v 0.3837723 -0.5419069 0.2627483
v -0.02053206 -0.6415589 0.2745319
v 0.3742744 -0.4879699 0.392999
v 0.6857306 -0.2696525 0.1720261
v 0.6762325 -0.2157155 0.302277
v 0.8044328 0.1022541 0.02667487
v 0.7949347 0.1561912 0.1569257
v 0.7080725 0.4741607 -0.134359
v 0.6985747 0.5280977 -0.004108161
v 0.4224699 0.7464151 -0.2679264
v 0.4129719 0.8003522 -0.1376755
v 0.02415164 0.8460672 -0.3382381
v 0.01465357 0.9000043 -0.2079873
v -0.3801529 0.7464154 -0.3264544
v -0.3896509 0.8003523 -0.1962034
v -0.682111 0.4741609 -0.2357325
v -0.691609 0.528098 -0.1054817
v -0.8008134 0.1022544 -0.09038123
v -0.8103111 0.1561915 0.03986957
v -0.7044535 -0.2696522 0.07065248
v -0.7139513 -0.2157151 0.2009033
v -0.4188509 -0.5419068 0.20422
v -0.4283488 -0.4879697 0.3344708
v -0.02053206 -0.6415589 0.2745319
v -0.0300302 -0.587622 0.4047828
v 0.6857306 -0.2696525 0.1720261
v 0.8044328 0.1022541 0.02667487
v 0.7080725 0.4741607 -0.134359
v 0.4224699 0.7464151 -0.2679264
v 0.3837723 -0.5419069 0.2627483
v 0.02415164 0.8460672 -0.3382381
v -0.02053206 -0.6415589 0.2745319
v -0.3801529 0.7464154 -0.3264544
v -0.4188509 -0.5419068 0.20422
v -0.682111 0.4741609 -0.2357325
v -0.7044535 -0.2696522 0.07065248
v -0.8008134 0.1022544 -0.09038123
v -0.4283488 -0.4879697 0.3344708
v -0.02458553 -0.4063576 0.3301179
v -0.0300302 -0.587622 0.4047828
v -0.3258356 -0.3309903 0.2769407
v -0.7139513 -0.2157151 0.2009033
v -0.5418378 -0.125083 0.1759231
v -0.8103111 0.1561915 0.03986957
v -0.6147155 0.1561914 0.05413258
v -0.691609 0.528098 -0.1054817
v -0.5249403 0.4374658 -0.05579714
v -0.3896509 0.8003523 -0.1962034
v -0.2965682 0.6433728 -0.1244105
v 0.01465357 0.9000043 -0.2079873
v 0.009209175 0.71874 -0.1333226
v 0.4129719 0.8003522 -0.1376755
v 0.310459 0.6433728 -0.08014557
v 0.6985747 0.5280977 -0.004108161
v 0.5264614 0.4374656 0.02087202
v 0.7949347 0.1561912 0.1569257
v 0.5993387 0.1561911 0.1426627
v 0.6762325 -0.2157155 0.302277
v 0.509564 -0.1250833 0.2525923
v 0.3742744 -0.4879699 0.392999
v 0.2811918 -0.3309905 0.3212058
v -0.0300302 -0.587622 0.4047828
v -0.02458553 -0.4063576 0.3301179
v 0.5656509 -0.6563331 -0.6830671
v 0.2877804 0.1806649 -0.05271713
v 0.2281098 0.1765646 -0.08047418
v 0.6253214 -0.6522329 -0.6553101
v 0.310065 0.1504701 0.001500174
v 0.6476061 -0.6824276 -0.6010928
v 0.2781827 0.1087177 0.0413512
v 0.6157237 -0.7241801 -0.5612417
v 0.2161413 0.08684807 0.03682713
v 0.5536823 -0.7460498 -0.5657658
v 0.1706599 0.1013294 -0.008665368
v 0.508201 -0.7315683 -0.6112581
v 0.1759862 0.141257 -0.0608693
v 0.5135272 -0.6916407 -0.6634621
v 0.2281098 0.1765646 -0.08047418
v 0.5656509 -0.6563331 -0.6830671
v 0.1759862 0.141257 -0.0608693
v 0.2281098 0.1765646 -0.08047418
v 0.2877804 0.1806649 -0.05271713
v 0.1706599 0.1013294 -0.008665368
v 0.310065 0.1504701 0.001500174
v 0.2161413 0.08684807 0.03682713
v 0.2781827 0.1087177 0.0413512
v 0.6253214 -0.6522329 -0.6553101
v 0.5656509 -0.6563331 -0.6830671
v 0.5135272 -0.6916407 -0.6634621
v 0.508201 -0.7315683 -0.6112581
v 0.6476061 -0.6824276 -0.6010928
v 0.5536823 -0.7460498 -0.5657658
v 0.6157237 -0.7241801 -0.5612417
v -0.4615899 -0.6563332 -0.7579744
v -0.2150383 0.1765647 -0.1127891
v -0.2781045 0.1806649 -0.09398212
v -0.524656 -0.6522329 -0.7391676
v -0.3080186 0.1504702 -0.04357104
v -0.55457 -0.6824278 -0.6887564
v -0.2822546 0.1087177 0.0004835129
v -0.5288064 -0.7241801 -0.6447016
v -0.2202135 0.08684807 0.005007587
v -0.4667651 -0.7460499 -0.6401776
v -0.1686135 0.1013294 -0.0334055
v -0.4151651 -0.7315685 -0.6785907
v -0.1663102 0.141257 -0.08583006
v -0.4128619 -0.6916409 -0.7310152
v -0.2150383 0.1765647 -0.1127891
v -0.4615899 -0.6563332 -0.7579744
v -0.2781045 0.1806649 -0.09398212
v -0.2150383 0.1765647 -0.1127891
v -0.1663102 0.141257 -0.08583006
v -0.3080186 0.1504702 -0.04357104
v -0.1686135 0.1013294 -0.0334055
v -0.2822546 0.1087177 0.0004835129
v -0.2202135 0.08684807 0.005007587
v -0.4128619 -0.6916409 -0.7310152
v -0.4615899 -0.6563332 -0.7579744
v -0.524656 -0.6522329 -0.7391676
v -0.55457 -0.6824278 -0.6887564
v -0.4151651 -0.7315685 -0.6785907
v -0.5288064 -0.7241801 -0.6447016
v -0.4667651 -0.7460499 -0.6401776
v -0.01882621 -0.2146149 0.2511369
v 0.182728 -0.1649362 0.2452624
v 0.3332601 -0.02921182 0.2000358
v 0.3924359 0.1561913 0.1275751
v 0.3443982 0.3415943 0.04729643
v 0.2020195 0.4773188 -0.01928971
v 0.003449682 0.5269973 -0.05434166
v -0.1981047 0.4773188 -0.04846701
v -0.3486368 0.3415944 -0.003240362
v -0.4078123 0.1561914 0.06922022
v -0.359775 -0.02921164 0.1494989
v -0.2173963 -0.1649362 0.2160849
v -0.01882621 -0.2146149 0.2511369
v 0.1608884 0.2449611 0.07393068
v 0.1838885 0.1561913 0.1123676
v 0.1555556 0.06742156 0.1470613
v 0.09271821 0.309945 0.04204979
v 0.08348183 0.002437592 0.1687155
v -0.002355471 0.3337309 0.02526709
v -0.01302103 -0.02134812 0.1715282
v -0.09885836 0.309945 0.02807971
v -0.1080951 0.002437651 0.1547455
v -0.1709322 0.2449612 0.04973399
v -0.1762651 0.06742167 0.1228645
v -0.1992651 0.1561915 0.08442767
v -0.01302103 -0.02134812 0.1715282
v -0.1080951 0.002437651 0.1547455
v -0.1762651 0.06742167 0.1228645
v -0.1992651 0.1561915 0.08442767
v -0.1709322 0.2449612 0.04973399
v -0.09885836 0.309945 0.02807971
v -0.002355471 0.3337309 0.02526709
v 0.09271821 0.309945 0.04204979
v 0.1608884 0.2449611 0.07393068
v 0.1838885 0.1561913 0.1123676
v 0.1555556 0.06742156 0.1470613
v 0.08348183 0.002437592 0.1687155
v -0.01302103 -0.02134812 0.1715282
vt 1 0.5
vt 0.8569336 0.6601563
vt 1 0.6601563
vt 0.8569336 0.5
vt 0.7143555 0.6601563
vt 0.7143555 0.5
vt 0.5712891 0.6601563
vt 0.5712891 0.5
vt 0.4284668 0.6601563
vt 0.4284668 0.5
vt 0.2856445 0.6601563
vt 0.2856445 0.5
vt 0.1428223 0.6601563
vt 0.1428223 0.5
vt 5.960464E-08 0.6601563
vt 5.960464E-08 0.5
vt 0.06234741 0.3996582
vt 0.25 0.4899902
vt 0.4377441 0.3996582
vt 0.01602173 0.1966553
vt 0.4838867 0.1966553
vt 0.145874 0.03375244
vt 0.354248 0.03375244
vt 0.9375 0.3996582
vt 0.75 0.4899902
vt 0.5625 0.3996582
vt 0.5161133 0.1966553
vt 0.9838867 0.1966553
vt 0.6459961 0.03375244
vt 0.8540039 0.03375244
vt 1 0.5
vt 0.9165039 1
vt 1 1
vt 0.9165039 0.5
vt 0.8334961 1
vt 0.8334961 0.5
vt 0.75 1
vt 0.75 0.5
vt 0.6665039 1
vt 0.6665039 0.5
vt 0.5834961 1
vt 0.5834961 0.5
vt 0.5 1
vt 0.5 0.5
vt 0.416748 1
vt 0.416748 0.5
vt 0.333252 1
vt 0.333252 0.5
vt 0.25 1
vt 0.25 0.5
vt 0.166626 1
vt 0.166626 0.5
vt 0.08331299 1
vt 0.08331299 0.5
vt 5.960464E-08 1
vt 5.960464E-08 0.5
vt 0.4577637 0.3701172
vt 0.4899902 0.25
vt 0.4577637 0.1300049
vt 0.3701172 0.04214478
vt 0.3701172 0.4577637
vt 0.25 0.01000214
vt 0.25 0.4899902
vt 0.1300049 0.04214478
vt 0.1300049 0.4577637
vt 0.04214478 0.1300049
vt 0.04214478 0.3701172
vt 0.01000214 0.25
vt 0.08331299 0.5
vt 5.960464E-08 0.5
vt 5.960464E-08 0.5
vt 0.08331299 0.5
vt 0.166626 0.5
vt 0.166626 0.5
vt 0.25 0.5
vt 0.25 0.5
vt 0.333252 0.5
vt 0.333252 0.5
vt 0.416748 0.5
vt 0.416748 0.5
vt 0.5 0.5
vt 0.5 0.5
vt 0.5834961 0.5
vt 0.5834961 0.5
vt 0.6665039 0.5
vt 0.6665039 0.5
vt 0.75 0.5
vt 0.75 0.5
vt 0.8334961 0.5
vt 0.8334961 0.5
vt 0.9165039 0.5
vt 0.9165039 0.5
vt 1 0.5
vt 1 0.5
vt 1 0.5
vt 0.8569336 1
vt 1 1
vt 0.8569336 0.5
vt 0.7143555 1
vt 0.7143555 0.5
vt 0.5712891 1
vt 0.5712891 0.5
vt 0.4284668 1
vt 0.4284668 0.5
vt 0.2856445 1
vt 0.2856445 0.5
vt 0.1428223 1
vt 0.1428223 0.5
vt 5.960464E-08 1
vt 5.960464E-08 0.5
vt 0.06234741 0.3996582
vt 0.25 0.4899902
vt 0.4377441 0.3996582
vt 0.01602173 0.1966553
vt 0.4838867 0.1966553
vt 0.145874 0.03375244
vt 0.354248 0.03375244
vt 0.9375 0.3996582
vt 0.75 0.4899902
vt 0.5625 0.3996582
vt 0.5161133 0.1966553
vt 0.9838867 0.1966553
vt 0.6459961 0.03375244
vt 0.8540039 0.03375244
vt 1 0.5
vt 1 1
vt 0.8569336 1
vt 0.8569336 0.5
vt 0.7143555 1
vt 0.7143555 0.5
vt 0.5712891 1
vt 0.5712891 0.5
vt 0.4284668 1
vt 0.4284668 0.5
vt 0.2856445 1
vt 0.2856445 0.5
vt 0.1428223 1
vt 0.1428223 0.5
vt 5.960464E-08 1
vt 5.960464E-08 0.5
vt 0.4377441 0.3996582
vt 0.25 0.4899902
vt 0.06234741 0.3996582
vt 0.4838867 0.1966553
vt 0.01602173 0.1966553
vt 0.354248 0.03375244
vt 0.145874 0.03375244
vt 0.5625 0.3996582
vt 0.75 0.4899902
vt 0.9375 0.3996582
vt 0.9838867 0.1966553
vt 0.5161133 0.1966553
vt 0.8540039 0.03375244
vt 0.6459961 0.03375244
vt 1 0.5
vt 0.9165039 0.5
vt 0.8334961 0.5
vt 0.75 0.5
vt 0.6665039 0.5
vt 0.5834961 0.5
vt 0.5 0.5
vt 0.416748 0.5
vt 0.333252 0.5
vt 0.25 0.5
vt 0.166626 0.5
vt 0.08331299 0.5
vt 5.960464E-08 0.5
vt 0.9580078 0.1300049
vt 0.9902344 0.25
vt 0.9580078 0.3701172
vt 0.8701172 0.04214478
vt 0.8701172 0.4577637
vt 0.75 0.01000214
vt 0.75 0.4899902
vt 0.6298828 0.04214478
vt 0.6298828 0.4577637
vt 0.5419922 0.1300049
vt 0.5419922 0.3701172
vt 0.5097656 0.25
vt 5.960464E-08 0.5
vt 0.08331299 0.5
vt 0.166626 0.5
vt 0.25 0.5
vt 0.333252 0.5
vt 0.416748 0.5
vt 0.5 0.5
vt 0.5834961 0.5
vt 0.6665039 0.5
vt 0.75 0.5
vt 0.8334961 0.5
vt 0.9165039 0.5
vt 1 0.5
vn 0.07580566 0.006973267 -0.9970703
vn 0.8276367 0.009483337 -0.5610352
vn 0.07971191 0.006999969 -0.996582
vn 0.828125 0.009483337 -0.5605469
vn 0.9555664 0.004859924 0.2954102
vn 0.9541016 0.004817963 0.3000488
vn 0.3649902 -0.003425598 0.9311523
vn 0.3601074 -0.003473282 0.9331055
vn -0.5019531 -0.009140015 0.8647461
vn -0.503418 -0.009140015 0.8642578
vn -0.9892578 -0.0079422 0.1444092
vn -0.9887695 -0.007957458 0.147583
vn -0.7290039 -0.000743866 -0.6845703
vn -0.7329102 -0.0007982254 -0.6801758
vn 0.07971191 0.006999969 -0.996582
vn 0.07580566 0.006973267 -0.9970703
vn -0.0147171 1 0.01341248
vn -0.0147171 1 0.01341248
vn -0.0147171 1 0.01341248
vn -0.0147171 1 0.01341248
vn -0.01470947 1 0.01341248
vn -0.01470947 1 0.01341248
vn -0.0147171 1 0.01341248
vn 0.01470947 -1 -0.01341248
vn 0.01470947 -1 -0.01341248
vn 0.01470947 -1 -0.01341248
vn 0.01470947 -1 -0.01341248
vn 0.01470947 -1 -0.01341248
vn 0.01470947 -1 -0.01341248
vn 0.01470947 -1 -0.01341248
vn -0.02775574 -0.9243164 0.3806152
vn 0.4746094 -0.800293 0.3659668
vn -0.02775574 -0.9243164 0.3806152
vn 0.4746094 -0.800293 0.3659668
vn 0.8496094 -0.4621582 0.253418
vn 0.8496094 -0.4621582 0.253418
vn 0.9975586 0 0.07275391
vn 0.9975586 0 0.07275391
vn 0.8774414 0.4621582 -0.1273193
vn 0.8774414 0.4621582 -0.1273193
vn 0.5229492 0.800293 -0.293457
vn 0.5229492 0.800293 -0.293457
vn 0.02775574 0.9243164 -0.3806152
vn 0.02775574 0.9243164 -0.3806152
vn -0.4746094 0.800293 -0.3659668
vn -0.4746094 0.800293 -0.3659668
vn -0.8496094 0.4621582 -0.253418
vn -0.8496094 0.4621582 -0.253418
vn -0.9975586 0 -0.07275391
vn -0.9975586 0 -0.07275391
vn -0.8774414 -0.4621582 0.1273193
vn -0.8774414 -0.4621582 0.1273193
vn -0.5229492 -0.800293 0.293457
vn -0.5229492 -0.800293 0.293457
vn -0.02775574 -0.9243164 0.3806152
vn -0.02775574 -0.9243164 0.3806152
vn 0.06719971 -0.3818359 -0.921875
vn 0.06719971 -0.3818359 -0.921875
vn 0.06719971 -0.3818359 -0.921875
vn 0.06719971 -0.3818359 -0.921875
vn 0.06719971 -0.3818359 -0.921875
vn 0.06719971 -0.3818359 -0.921875
vn 0.06719971 -0.3818359 -0.921875
vn 0.06719971 -0.3818359 -0.921875
vn 0.06719971 -0.3818359 -0.921875
vn 0.06719971 -0.3818359 -0.921875
vn 0.06719971 -0.3818359 -0.921875
vn 0.06719971 -0.3818359 -0.921875
vn -0.06719971 0.3818359 0.921875
vn -0.06719971 0.3818359 0.921875
vn -0.06719971 0.3818359 0.921875
vn -0.06719971 0.3818359 0.921875
vn -0.06719971 0.3818359 0.921875
vn -0.06719971 0.3818359 0.921875
vn -0.06719971 0.3818359 0.921875
vn -0.06719971 0.3818359 0.921875
vn -0.06719971 0.3818359 0.921875
vn -0.06719971 0.3818359 0.921875
vn -0.06719971 0.3818359 0.921875
vn -0.06719971 0.3818359 0.921875
vn -0.06719971 0.3818359 0.921875
vn -0.06719971 0.3818359 0.921875
vn -0.06719971 0.3818359 0.921875
vn -0.06719971 0.3818359 0.921875
vn -0.06719971 0.3818359 0.921875
vn -0.06719971 0.3818359 0.921875
vn -0.06719971 0.3818359 0.921875
vn -0.06719971 0.3818359 0.921875
vn -0.06719971 0.3818359 0.921875
vn -0.06719971 0.3818359 0.921875
vn -0.06719971 0.3818359 0.921875
vn -0.06719971 0.3818359 0.921875
vn -0.06719971 0.3818359 0.921875
vn -0.06719971 0.3818359 0.921875
vn -0.1318359 0.5454102 -0.8276367
vn 0.6533203 0.5991211 -0.4624023
vn -0.131958 0.5454102 -0.8276367
vn 0.6533203 0.5991211 -0.4624023
vn 0.9467773 0.2020264 0.2509766
vn 0.9467773 0.2020264 0.2509766
vn 0.5268555 -0.3474121 0.7753906
vn 0.5268555 -0.3474121 0.7753906
vn -0.2893066 -0.6352539 0.7158203
vn -0.2893066 -0.6352539 0.7158203
vn -0.8881836 -0.4448242 0.1173096
vn -0.8881836 -0.4448242 0.1173096
vn -0.8178711 0.08074951 -0.5698242
vn -0.8178711 0.08074951 -0.5698242
vn -0.131958 0.5454102 -0.8276367
vn -0.1318359 0.5454102 -0.8276367
vn -0.3120117 0.7695313 0.5571289
vn -0.3120117 0.7695313 0.5571289
vn -0.3120117 0.7695313 0.5571289
vn -0.3120117 0.7695313 0.5571289
vn -0.3120117 0.7695313 0.5571289
vn -0.3120117 0.7695313 0.5571289
vn -0.3120117 0.7695313 0.5571289
vn 0.3120117 -0.7695313 -0.5571289
vn 0.3120117 -0.7695313 -0.5571289
vn 0.3120117 -0.7695313 -0.5571289
vn 0.3120117 -0.7695313 -0.5571289
vn 0.3120117 -0.7695313 -0.5571289
vn 0.3120117 -0.7695313 -0.5571289
vn 0.3120117 -0.7695313 -0.5571289
vn 0.2504883 0.5454102 -0.7998047
vn 0.2504883 0.5454102 -0.7998047
vn -0.5795898 0.5991211 -0.5522461
vn -0.5795898 0.5991211 -0.5522461
vn -0.9731445 0.2020264 0.111084
vn -0.9731445 0.2020264 0.111084
vn -0.6337891 -0.3474121 0.690918
vn -0.6337891 -0.3474121 0.690918
vn 0.1824951 -0.6352539 0.7504883
vn 0.1824951 -0.6352539 0.7504883
vn 0.8613281 -0.4448242 0.244873
vn 0.8613281 -0.4448242 0.244873
vn 0.8920898 0.08074951 -0.4450684
vn 0.8920898 0.08074951 -0.4450684
vn 0.2504883 0.5454102 -0.7998047
vn 0.2504883 0.5454102 -0.7998047
vn 0.2279053 0.7695313 0.5961914
vn 0.2279053 0.7695313 0.5961914
vn 0.2279053 0.7695313 0.5961914
vn 0.2279053 0.7695313 0.5961914
vn 0.2279053 0.7695313 0.5961914
vn 0.2279053 0.7695313 0.5961914
vn 0.2279053 0.7695313 0.5961914
vn -0.2279053 -0.7695313 -0.5961914
vn -0.2279053 -0.7695313 -0.5961914
vn -0.2279053 -0.7695313 -0.5961914
vn -0.2279053 -0.7695313 -0.5961914
vn -0.2279053 -0.7695313 -0.5961914
vn -0.2279053 -0.7695313 -0.5961914
vn -0.2279053 -0.7695313 -0.5961914
vn -0.06719971 0.3818359 0.921875
vn -0.06719971 0.3818359 0.921875
vn -0.06719971 0.3818359 0.921875
vn -0.06719971 0.3818359 0.921875
vn -0.06719971 0.3818359 0.921875
vn -0.06719971 0.3818359 0.921875
vn -0.06719971 0.3818359 0.921875
vn -0.06719971 0.3818359 0.921875
vn -0.06719971 0.3818359 0.921875
vn -0.06719971 0.3818359 0.921875
vn -0.06719971 0.3818359 0.921875
vn -0.06719971 0.3818359 0.921875
vn -0.06719971 0.3818359 0.921875
vn -0.06719971 0.3818359 0.921875
vn -0.06719971 0.3818359 0.921875
vn -0.06719971 0.3818359 0.921875
vn -0.06719971 0.3818359 0.921875
vn -0.06719971 0.3818359 0.921875
vn -0.06719971 0.3818359 0.921875
vn -0.06719971 0.3818359 0.921875
vn -0.06719971 0.3818359 0.921875
vn -0.06719971 0.3818359 0.921875
vn -0.06719971 0.3818359 0.921875
vn -0.06719971 0.3818359 0.921875
vn -0.06719971 0.3818359 0.921875
vn -0.06719971 0.3818359 0.921875
vn -0.06719971 0.3818359 0.921875
vn -0.06719971 0.3818359 0.921875
vn -0.06719971 0.3818359 0.921875
vn -0.06719971 0.3818359 0.921875
vn -0.06719971 0.3818359 0.921875
vn -0.06719971 0.3818359 0.921875
vn -0.06719971 0.3818359 0.921875
vn -0.06719971 0.3818359 0.921875
vn -0.06719971 0.3818359 0.921875
vn -0.06719971 0.3818359 0.921875
vn -0.06719971 0.3818359 0.921875
vn -0.06719971 0.3818359 0.921875
g TrainingCamp_1.003_0
f 3/3/3 2/2/2 1/1/1
f 2/2/2 4/4/4 1/1/1
f 2/2/2 5/5/5 4/4/4
f 5/5/5 6/6/6 4/4/4
f 5/5/5 7/7/7 6/6/6
f 7/7/7 8/8/8 6/6/6
f 7/7/7 9/9/9 8/8/8
f 9/9/9 10/10/10 8/8/8
f 9/9/9 11/11/11 10/10/10
f 11/11/11 12/12/12 10/10/10
f 11/11/11 13/13/13 12/12/12
f 13/13/13 14/14/14 12/12/12
f 13/13/13 15/15/15 14/14/14
f 15/15/15 16/16/16 14/14/14
f 19/19/19 18/18/18 17/17/17
f 17/17/17 20/20/20 19/19/19
f 20/20/20 21/21/21 19/19/19
f 20/20/20 22/22/22 21/21/21
f 22/22/22 23/23/23 21/21/21
f 26/26/26 25/25/25 24/24/24
f 24/24/24 27/27/27 26/26/26
f 24/24/24 28/28/28 27/27/27
f 28/28/28 29/29/29 27/27/27
f 28/28/28 30/30/30 29/29/29
f 33/33/33 32/32/32 31/31/31
f 32/32/32 34/34/34 31/31/31
f 32/32/32 35/35/35 34/34/34
f 35/35/35 36/36/36 34/34/34
f 35/35/35 37/37/37 36/36/36
f 37/37/37 38/38/38 36/36/36
f 37/37/37 39/39/39 38/38/38
f 39/39/39 40/40/40 38/38/38
f 39/39/39 41/41/41 40/40/40
f 41/41/41 42/42/42 40/40/40
f 41/41/41 43/43/43 42/42/42
f 43/43/43 44/44/44 42/42/42
f 43/43/43 45/45/45 44/44/44
f 45/45/45 46/46/46 44/44/44
f 45/45/45 47/47/47 46/46/46
f 47/47/47 48/48/48 46/46/46
f 47/47/47 49/49/49 48/48/48
f 49/49/49 50/50/50 48/48/48
f 49/49/49 51/51/51 50/50/50
f 51/51/51 52/52/52 50/50/50
f 51/51/51 53/53/53 52/52/52
f 53/53/53 54/54/54 52/52/52
f 53/53/53 55/55/55 54/54/54
f 55/55/55 56/56/56 54/54/54
f 59/59/59 58/58/58 57/57/57
f 57/57/57 60/60/60 59/59/59
f 57/57/57 61/61/61 60/60/60
f 61/61/61 62/62/62 60/60/60
f 61/61/61 63/63/63 62/62/62
f 63/63/63 64/64/64 62/62/62
f 63/63/63 65/65/65 64/64/64
f 65/65/65 66/66/66 64/64/64
f 65/65/65 67/67/67 66/66/66
f 67/67/67 68/68/68 66/66/66
f 71/71/71 70/70/70 69/69/69
f 70/70/70 72/72/72 69/69/69
f 69/69/69 72/72/72 73/73/73
f 72/72/72 74/74/74 73/73/73
f 73/73/73 74/74/74 75/75/75
f 74/74/74 76/76/76 75/75/75
f 75/75/75 76/76/76 77/77/77
f 76/76/76 78/78/78 77/77/77
f 77/77/77 78/78/78 79/79/79
f 78/78/78 80/80/80 79/79/79
f 79/79/79 80/80/80 81/81/81
f 80/80/80 82/82/82 81/81/81
f 81/81/81 82/82/82 83/83/83
f 82/82/82 84/84/84 83/83/83
f 83/83/83 84/84/84 85/85/85
f 84/84/84 86/86/86 85/85/85
f 85/85/85 86/86/86 87/87/87
f 86/86/86 88/88/88 87/87/87
f 87/87/87 88/88/88 89/89/89
f 88/88/88 90/90/90 89/89/89
f 89/89/89 90/90/90 91/91/91
f 90/90/90 92/92/92 91/91/91
f 91/91/91 92/92/92 93/93/93
f 92/92/92 94/94/94 93/93/93
f 97/97/97 96/96/96 95/95/95
f 96/96/96 98/98/98 95/95/95
f 96/96/96 99/99/99 98/98/98
f 99/99/99 100/100/100 98/98/98
f 99/99/99 101/101/101 100/100/100
f 101/101/101 102/102/102 100/100/100
f 101/101/101 103/103/103 102/102/102
f 103/103/103 104/104/104 102/102/102
f 103/103/103 105/105/105 104/104/104
f 105/105/105 106/106/106 104/104/104
f 105/105/105 107/107/107 106/106/106
f 107/107/107 108/108/108 106/106/106
f 107/107/107 109/109/109 108/108/108
f 109/109/109 110/110/110 108/108/108
f 113/113/113 112/112/112 111/111/111
f 111/111/111 114/114/114 113/113/113
f 114/114/114 115/115/115 113/113/113
f 114/114/114 116/116/116 115/115/115
f 116/116/116 117/117/117 115/115/115
f 120/120/120 119/119/119 118/118/118
f 118/118/118 121/121/121 120/120/120
f 118/118/118 122/122/122 121/121/121
f 122/122/122 123/123/123 121/121/121
f 122/122/122 124/124/124 123/123/123
f 127/127/127 126/126/126 125/125/125
f 128/128/128 127/127/127 125/125/125
f 129/129/129 127/127/127 128/128/128
f 130/130/130 129/129/129 128/128/128
f 131/131/131 129/129/129 130/130/130
f 132/132/132 131/131/131 130/130/130
f 133/133/133 131/131/131 132/132/132
f 134/134/134 133/133/133 132/132/132
f 135/135/135 133/133/133 134/134/134
f 136/136/136 135/135/135 134/134/134
f 137/137/137 135/135/135 136/136/136
f 138/138/138 137/137/137 136/136/136
f 139/139/139 137/137/137 138/138/138
f 140/140/140 139/139/139 138/138/138
f 143/143/143 142/142/142 141/141/141
f 141/141/141 144/144/144 143/143/143
f 144/144/144 145/145/145 143/143/143
f 144/144/144 146/146/146 145/145/145
f 146/146/146 147/147/147 145/145/145
f 150/150/150 149/149/149 148/148/148
f 148/148/148 151/151/151 150/150/150
f 148/148/148 152/152/152 151/151/151
f 152/152/152 153/153/153 151/151/151
f 152/152/152 154/154/154 153/153/153
g TrainingCamp_1.003_1
f 156/156/156 155/155/155 94/94/94
f 92/92/92 156/156/156 94/94/94
f 157/157/157 156/156/156 92/92/92
f 90/90/90 157/157/157 92/92/92
f 158/158/158 157/157/157 90/90/90
f 88/88/88 158/158/158 90/90/90
f 159/159/159 158/158/158 88/88/88
f 86/86/86 159/159/159 88/88/88
f 160/160/160 159/159/159 86/86/86
f 84/84/84 160/160/160 86/86/86
f 161/161/161 160/160/160 84/84/84
f 82/82/82 161/161/161 84/84/84
f 162/162/162 161/161/161 82/82/82
f 80/80/80 162/162/162 82/82/82
f 163/163/163 162/162/162 80/80/80
f 78/78/78 163/163/163 80/80/80
f 164/164/164 163/163/163 78/78/78
f 76/76/76 164/164/164 78/78/78
f 165/165/165 164/164/164 76/76/76
f 74/74/74 165/165/165 76/76/76
f 166/166/166 165/165/165 74/74/74
f 72/72/72 166/166/166 74/74/74
f 167/167/167 166/166/166 72/72/72
f 70/70/70 167/167/167 72/72/72
g TrainingCamp_1.003_2
f 170/170/170 169/169/169 168/168/168
f 168/168/168 171/171/171 170/170/170
f 171/171/171 172/172/172 170/170/170
f 171/171/171 173/173/173 172/172/172
f 173/173/173 174/174/174 172/172/172
f 173/173/173 175/175/175 174/174/174
f 175/175/175 176/176/176 174/174/174
f 175/175/175 177/177/177 176/176/176
f 177/177/177 178/178/178 176/176/176
f 177/177/177 179/179/179 178/178/178
g TrainingCamp_1.003_3
f 167/167/167 180/180/180 166/166/166
f 180/180/180 181/181/181 166/166/166
f 166/166/166 181/181/181 165/165/165
f 181/181/181 182/182/182 165/165/165
f 165/165/165 182/182/182 164/164/164
f 182/182/182 183/183/183 164/164/164
f 164/164/164 183/183/183 163/163/163
f 183/183/183 184/184/184 163/163/163
f 163/163/163 184/184/184 162/162/162
f 184/184/184 185/185/185 162/162/162
f 162/162/162 185/185/185 161/161/161
f 185/185/185 186/186/186 161/161/161
f 161/161/161 186/186/186 160/160/160
f 186/186/186 187/187/187 160/160/160
f 160/160/160 187/187/187 159/159/159
f 187/187/187 188/188/188 159/159/159
f 159/159/159 188/188/188 158/158/158
f 188/188/188 189/189/189 158/158/158
f 158/158/158 189/189/189 157/157/157
f 189/189/189 190/190/190 157/157/157
f 157/157/157 190/190/190 156/156/156
f 190/190/190 191/191/191 156/156/156
f 156/156/156 191/191/191 155/155/155
f 191/191/191 192/192/192 155/155/155
