g TrainingCamp_2.008
v -0.1068337 -1.043708 -0.4053531
v -0.04180312 -0.03131455 -0.7360236
v -0.1272619 0.01113862 -0.5806713
v -0.01910281 -1.067548 -0.5633876
v 0.1223204 -0.08427434 -0.795174
v 0.1507733 -1.073377 -0.6293287
v 0.2883127 -0.1229603 -0.7304446
v 0.3233068 -1.058467 -0.5723218
v 0.378504 -0.129271 -0.5721236
v 0.4177682 -1.029796 -0.4190413
v 0.3506935 -0.1002534 -0.3942909
v 0.3899572 -1.000779 -0.2412087
v 0.2178938 -0.04948515 -0.2801565
v 0.2528875 -0.9849924 -0.1220337
v 0.04224324 -0.000721395 -0.2831248
v 0.07069564 -0.989824 -0.1172797
v -0.09406972 0.02322084 -0.4018074
v -0.07136941 -1.013013 -0.2291714
v -0.1272619 0.01113862 -0.5806713
v -0.1068337 -1.043708 -0.4053531
v -0.01934266 -0.7702877 0.6837667
v -0.4104931 0.1240986 0.6506492
v -0.2637446 0.1580957 0.7899536
v -0.169461 -0.7832357 0.5445069
v -0.4316413 0.09380894 0.4488279
v -0.1991436 -0.7602276 0.3427991
v -0.3172943 0.08139962 0.2789241
v -0.09450173 -0.7120292 0.173024
v -0.1209557 0.09267693 0.2204378
v 0.09550166 -0.6611928 0.1146217
v 0.06550479 0.1223641 0.3007351
v 0.2819622 -0.6315057 0.1949192
v 0.1548402 0.1565703 0.4822444
v 0.3776329 -0.6368584 0.3763443
v 0.1052501 0.1792899 0.6800352
v 0.3377478 -0.6747467 0.5740062
v -0.06006169 0.1798924 0.801559
v 0.18097 -0.7274419 0.695417
v -0.2637446 0.1580957 0.7899536
v -0.01934266 -0.7702877 0.6837667
v 0.09408021 0.6575388 -0.6617203
v 0.1039345 0.6572007 -0.6655456
v 0.1139429 0.6580656 -0.6622387
v 0.1194227 0.6597288 -0.653347
v 0.08899093 0.6589217 -0.652553
v 0.1178095 0.6614119 -0.6430311
v 0.09104848 0.6607022 -0.6423329
v 0.1098583 0.6623277 -0.6361179
v 0.09928966 0.6620475 -0.6358422
v 0.08899093 0.6589217 -0.652553
v 0.09408021 0.6575388 -0.6617203
v 0.1039345 0.6572007 -0.6655456
v 0.1139429 0.6580656 -0.6622387
v 0.1194227 0.6597288 -0.653347
v 0.1178095 0.6614119 -0.6430311
v 0.1098583 0.6623277 -0.6361179
v 0.09928966 0.6620475 -0.6358422
v 0.09104848 0.6607022 -0.6423329
v 0.08899093 0.6589217 -0.652553
v -0.3277361 0.9188454 0.6187867
v -0.316714 0.9217944 0.6153988
v -0.3058979 0.9235165 0.6200567
v -0.3338062 0.9160492 0.628635
v -0.3003475 0.923206 0.630581
v -0.3320844 0.9147149 0.6403362
v -0.3026617 0.9210081 0.642047
v -0.3233759 0.9154658 0.6484142
v -0.3117563 0.9179514 0.6490902
v -0.3233759 0.9154658 0.6484142
v -0.3320844 0.9147149 0.6403362
v -0.3338062 0.9160492 0.628635
v -0.3277361 0.9188454 0.6187867
v -0.316714 0.9217944 0.6153988
v -0.3058979 0.9235165 0.6200567
v -0.3003475 0.923206 0.630581
v -0.3026617 0.9210081 0.642047
v -0.3117563 0.9179514 0.6490902
v -0.3233759 0.9154658 0.6484142
vt 1 0.5
vt 0.8886719 1
vt 1 1
vt 0.8886719 0.5
vt 0.777832 1
vt 0.777832 0.5
vt 0.6665039 1
vt 0.6665039 0.5
vt 0.5556641 1
vt 0.5556641 0.5
vt 0.4443359 1
vt 0.4443359 0.5
vt 0.333252 1
vt 0.333252 0.5
vt 0.222168 1
vt 0.222168 0.5
vt 0.111084 1
vt 0.111084 0.5
vt 5.960464E-08 1
vt 5.960464E-08 0.5
vt 1 0.5
vt 0.8886719 1
vt 1 1
vt 0.8886719 0.5
vt 0.777832 1
vt 0.777832 0.5
vt 0.6665039 1
vt 0.6665039 0.5
vt 0.5556641 1
vt 0.5556641 0.5
vt 0.4443359 1
vt 0.4443359 0.5
vt 0.333252 1
vt 0.333252 0.5
vt 0.222168 1
vt 0.222168 0.5
vt 0.111084 1
vt 0.111084 0.5
vt 5.960464E-08 1
vt 5.960464E-08 0.5
vt 0.4042969 0.4338379
vt 0.4863281 0.291748
vt 0.4577637 0.1300049
vt 0.3320313 0.0244751
vt 0.25 0.4899902
vt 0.1679688 0.0244751
vt 0.09570313 0.4338379
vt 0.04214478 0.1300049
vt 0.01364899 0.291748
vt 1 1
vt 0.8886719 1
vt 0.777832 1
vt 0.6665039 1
vt 0.5556641 1
vt 0.4443359 1
vt 0.333252 1
vt 0.222168 1
vt 0.111084 1
vt 5.960464E-08 1
vt 0.4577637 0.1300049
vt 0.3320313 0.0244751
vt 0.1679688 0.0244751
vt 0.4863281 0.291748
vt 0.04214478 0.1300049
vt 0.4042969 0.4338379
vt 0.01364899 0.291748
vt 0.25 0.4899902
vt 0.09570313 0.4338379
vt 1 1
vt 0.8886719 1
vt 0.777832 1
vt 0.6665039 1
vt 0.5556641 1
vt 0.4443359 1
vt 0.333252 1
vt 0.222168 1
vt 0.111084 1
vt 5.960464E-08 1
vn -0.9882813 -0.04486084 -0.1472168
vn -0.6733398 -0.04510498 -0.737793
vn -0.9858398 0.04495239 -0.161499
vn -0.6723633 -0.1362305 -0.7275391
vn -0.04016113 -0.07550049 -0.996582
vn -0.03521729 -0.164917 -0.9858398
vn 0.6225586 -0.0226593 -0.7822266
vn 0.628418 -0.105957 -0.7705078
vn 0.9746094 0.08642578 -0.2060547
vn 0.980957 0.008590698 -0.1933594
vn 0.8720703 0.1933594 0.4492188
vn 0.878418 0.1158447 0.4638672
vn 0.359375 0.251709 0.8984375
vn 0.364502 0.1691895 0.9155273
vn -0.3383789 0.2357178 0.9111328
vn -0.3349609 0.1478271 0.9306641
vn -0.8637695 0.1535645 0.4794922
vn -0.8642578 0.06402588 0.4992676
vn -0.9858398 0.04495239 -0.161499
vn -0.9882813 -0.04486084 -0.1472168
vn -0.3510742 -0.1987305 0.9150391
vn -0.8701172 -0.1633301 0.4650879
vn -0.3874512 -0.09844971 0.9165039
vn -0.8383789 -0.2783203 0.4685059
vn -0.972168 -0.1082153 -0.2070313
vn -0.9501953 -0.2312012 -0.2088623
vn -0.6201172 0.05249023 -0.7827148
vn -0.5981445 -0.05944824 -0.7993164
vn 0.005550385 0.2407227 -0.9707031
vn 0.04147339 0.149292 -0.987793
vn 0.6040039 0.362793 -0.7094727
vn 0.6435547 0.2822266 -0.7114258
vn 0.9243164 0.3642578 -0.1143188
vn 0.953125 0.2824707 -0.109314
vn 0.7929688 0.241333 0.5595703
vn 0.8168945 0.1553955 0.5556641
vn 0.2614746 0.0569458 0.9633789
vn 0.2937012 -0.0335083 0.9555664
vn -0.3874512 -0.09844971 0.9165039
vn -0.3510742 -0.1987305 0.9150391
vn -0.03045654 0.9858398 -0.1656494
vn -0.0304718 0.9858398 -0.1656494
vn -0.0304718 0.9858398 -0.1656494
vn -0.03045654 0.9858398 -0.1656494
vn -0.03045654 0.9858398 -0.1656494
vn -0.03045654 0.9858398 -0.1656494
vn -0.03045654 0.9858398 -0.1656494
vn -0.03045654 0.9858398 -0.1656494
vn -0.03045654 0.9858398 -0.1656494
vn -0.9370117 0.2910156 -0.1939697
vn -0.5957031 0.2010498 -0.7773438
vn 0.06015015 0.1730957 -0.9829102
vn 0.6601563 0.2104492 -0.7207031
vn 0.9375 0.2883301 -0.1947021
vn 0.8500977 0.3796387 0.3652344
vn 0.425293 0.4558105 0.7817383
vn -0.2268066 0.4724121 0.8515625
vn -0.7895508 0.4033203 0.4621582
vn -0.9370117 0.2910156 -0.1939697
vn -0.2149658 0.9663086 0.1418457
vn -0.2149658 0.9663086 0.1418457
vn -0.2149658 0.9663086 0.1418457
vn -0.2149658 0.9663086 0.1418457
vn -0.2149658 0.9663086 0.1418457
vn -0.2149658 0.9663086 0.1418457
vn -0.2149658 0.9663086 0.1418457
vn -0.2149658 0.9663086 0.1418457
vn -0.2149658 0.9663086 0.1418457
vn -0.4099121 0.1359863 0.9018555
vn -0.8989258 0.09436035 0.4282227
vn -0.9526367 0.1685791 -0.2536621
vn -0.565918 0.3039551 -0.7661133
vn 0.004077911 0.4313965 -0.9023438
vn 0.5258789 0.5141602 -0.6777344
vn 0.8339844 0.5268555 -0.163208
vn 0.7568359 0.4406738 0.4824219
vn 0.2563477 0.2783203 0.9257813
vn -0.4099121 0.1359863 0.9018555
g TrainingCamp_2.008_0
f 3/3/3 2/2/2 1/1/1
f 2/2/2 4/4/4 1/1/1
f 2/2/2 5/5/5 4/4/4
f 5/5/5 6/6/6 4/4/4
f 5/5/5 7/7/7 6/6/6
f 7/7/7 8/8/8 6/6/6
f 7/7/7 9/9/9 8/8/8
f 9/9/9 10/10/10 8/8/8
f 9/9/9 11/11/11 10/10/10
f 11/11/11 12/12/12 10/10/10
f 11/11/11 13/13/13 12/12/12
f 13/13/13 14/14/14 12/12/12
f 13/13/13 15/15/15 14/14/14
f 15/15/15 16/16/16 14/14/14
f 15/15/15 17/17/17 16/16/16
f 17/17/17 18/18/18 16/16/16
f 17/17/17 19/19/19 18/18/18
f 19/19/19 20/20/20 18/18/18
f 23/23/23 22/22/22 21/21/21
f 22/22/22 24/24/24 21/21/21
f 22/22/22 25/25/25 24/24/24
f 25/25/25 26/26/26 24/24/24
f 25/25/25 27/27/27 26/26/26
f 27/27/27 28/28/28 26/26/26
f 27/27/27 29/29/29 28/28/28
f 29/29/29 30/30/30 28/28/28
f 29/29/29 31/31/31 30/30/30
f 31/31/31 32/32/32 30/30/30
f 31/31/31 33/33/33 32/32/32
f 33/33/33 34/34/34 32/32/32
f 33/33/33 35/35/35 34/34/34
f 35/35/35 36/36/36 34/34/34
f 35/35/35 37/37/37 36/36/36
f 37/37/37 38/38/38 36/36/36
f 37/37/37 39/39/39 38/38/38
f 39/39/39 40/40/40 38/38/38
g TrainingCamp_2.008_1
f 43/43/43 42/42/42 41/41/41
f 41/41/41 44/44/44 43/43/43
f 41/41/41 45/45/45 44/44/44
f 45/45/45 46/46/46 44/44/44
f 45/45/45 47/47/47 46/46/46
f 47/47/47 48/48/48 46/46/46
f 47/47/47 49/49/49 48/48/48
f 3/3/3 50/50/50 2/2/2
f 50/50/50 51/51/51 2/2/2
f 2/2/2 51/51/51 5/5/5
f 51/51/51 52/52/52 5/5/5
f 5/5/5 52/52/52 7/7/7
f 52/52/52 53/53/53 7/7/7
f 7/7/7 53/53/53 9/9/9
f 53/53/53 54/54/54 9/9/9
f 9/9/9 54/54/54 11/11/11
f 54/54/54 55/55/55 11/11/11
f 11/11/11 55/55/55 13/13/13
f 55/55/55 56/56/56 13/13/13
f 13/13/13 56/56/56 15/15/15
f 56/56/56 57/57/57 15/15/15
f 15/15/15 57/57/57 17/17/17
f 57/57/57 58/58/58 17/17/17
f 17/17/17 58/58/58 19/19/19
f 58/58/58 59/59/59 19/19/19
f 62/62/62 61/61/61 60/60/60
f 60/60/60 63/63/63 62/62/62
f 63/63/63 64/64/64 62/62/62
f 63/63/63 65/65/65 64/64/64
f 65/65/65 66/66/66 64/64/64
f 65/65/65 67/67/67 66/66/66
f 67/67/67 68/68/68 66/66/66
f 23/23/23 69/69/69 22/22/22
f 69/69/69 70/70/70 22/22/22
f 22/22/22 70/70/70 25/25/25
f 70/70/70 71/71/71 25/25/25
f 25/25/25 71/71/71 27/27/27
f 71/71/71 72/72/72 27/27/27
f 27/27/27 72/72/72 29/29/29
f 72/72/72 73/73/73 29/29/29
f 29/29/29 73/73/73 31/31/31
f 73/73/73 74/74/74 31/31/31
f 31/31/31 74/74/74 33/33/33
f 74/74/74 75/75/75 33/33/33
f 33/33/33 75/75/75 35/35/35
f 75/75/75 76/76/76 35/35/35
f 35/35/35 76/76/76 37/37/37
f 76/76/76 77/77/77 37/37/37
f 37/37/37 77/77/77 39/39/39
f 77/77/77 78/78/78 39/39/39
