g UpperLeg_left.021
v -0.1140916 0.1644116 -0.07992109
v -0.0798675 -0.08132194 -0.1140626
v -0.07986692 0.1644003 -0.1141435
v -0.1140922 -0.08131056 -0.07984018
v -0.0915915 -0.1102909 -0.1308005
v -0.1140916 0.1644642 0.07981279
v -0.1308401 -0.1102778 -0.09155452
v -0.1140922 -0.08125795 0.0798937
v -0.1308401 -0.1102175 0.09162712
v -0.07986692 0.1644754 0.1140352
v -0.0798675 -0.08124679 0.1141161
v -0.0915915 -0.1102047 0.1308731
v 0.09159118 -0.1102051 0.1308731
v 0.07986728 -0.08124715 0.1141161
v 0.07986785 0.164475 0.1140352
v 0.1140921 0.1644637 0.07981279
v 0.1140915 -0.08125851 0.0798937
v 0.1308393 -0.1102181 0.09162712
v 0.1308393 -0.1102784 -0.09155452
v 0.1140915 -0.08131108 -0.07984018
v 0.1140921 0.1644111 -0.07992109
v 0.07986785 0.1643999 -0.1141435
v 0.07986728 -0.08132229 -0.1140626
v 0.09159118 -0.1102913 -0.1308005
v -0.0915915 -0.1102909 -0.1308005
v -0.0798675 -0.08132194 -0.1140626
v -0.07986692 0.1644003 -0.1141435
v -0.07986765 -0.1444456 0.07991451
v -0.1308401 -0.1102778 -0.09155452
v -0.1308401 -0.1102175 0.09162712
v -0.0915915 -0.1102047 0.1308731
v -0.07986765 -0.1444982 -0.07981937
v -0.0915915 -0.1102909 -0.1308005
v 0.09159118 -0.1102913 -0.1308005
v 0.07986712 -0.144446 0.07991451
v 0.09159118 -0.1102051 0.1308731
v 0.1308393 -0.1102181 0.09162712
v 0.07986712 -0.1444986 -0.07981937
v 0.1308393 -0.1102784 -0.09155452
v -0.07986692 0.1644003 -0.1141435
v 0.07986785 0.1643999 -0.1141435
v 0.07986794 0.1986354 -0.07993235
v 0.1140921 0.1644111 -0.07992109
v -0.07986685 0.1986357 -0.07993235
v -0.1140916 0.1644116 -0.07992109
v -0.1140916 0.1644642 0.07981279
v 0.07986794 0.1986879 0.07980152
v 0.1140921 0.1644637 0.07981279
v 0.07986785 0.164475 0.1140352
v -0.07986685 0.1986883 0.07980152
v -0.07986692 0.1644754 0.1140352
vt 0.1453857 0.8154297
vt 0.1412354 0.7695313
vt 0.1412354 0.8154297
vt 0.1453857 0.7695313
vt 0.1412354 0.7641602
vt 0.1645508 0.8154297
vt 0.1453857 0.7641602
vt 0.1645508 0.7695313
vt 0.1645508 0.7641602
vt 0.1687012 0.8154297
vt 0.1687012 0.7695313
vt 0.1687012 0.7641602
vt 0.1879883 0.7641602
vt 0.1879883 0.7695313
vt 0.1879883 0.8154297
vt 0.1921387 0.8154297
vt 0.1921387 0.7695313
vt 0.1921387 0.7641602
vt 0.2113037 0.7641602
vt 0.2113037 0.7695313
vt 0.2113037 0.8154297
vt 0.2154541 0.8154297
vt 0.2154541 0.7695313
vt 0.2154541 0.7641602
vt 0.2347412 0.7641602
vt 0.2347412 0.7695313
vt 0.2347412 0.8154297
vt 0.2098389 0.7114258
vt 0.1654053 0.7119141
vt 0.2098389 0.7119141
vt 0.2193604 0.7114258
vt 0.1654053 0.7114258
vt 0.1558838 0.7114258
vt 0.1558838 0.7089844
vt 0.2098389 0.7089844
vt 0.2193604 0.7089844
vt 0.2098389 0.7084961
vt 0.1654053 0.7089844
vt 0.1654053 0.7084961
vt 0.2205811 0.8652344
vt 0.2205811 0.862793
vt 0.2102051 0.862793
vt 0.2102051 0.8618164
vt 0.2102051 0.8652344
vt 0.2102051 0.8657227
vt 0.1618652 0.8657227
vt 0.1618652 0.862793
vt 0.1618652 0.8618164
vt 0.1514893 0.862793
vt 0.1618652 0.8652344
vt 0.1514893 0.8652344
vn -0.980957 0.1072998 -0.161377
vn -0.1708984 0.08209229 -0.9819336
vn -0.1612549 0.1070557 -0.980957
vn -0.9819336 0.08233643 -0.1708984
vn -0.1673584 0.5429688 -0.8227539
vn -0.980957 0.1074219 0.1612549
vn -0.8227539 0.543457 -0.1674805
vn -0.9819336 0.0824585 0.1708984
vn -0.8227539 0.543457 0.1671143
vn -0.1612549 0.107666 0.980957
vn -0.1708984 0.08270264 0.9819336
vn -0.1673584 0.543457 0.8222656
vn 0.1673584 0.543457 0.8222656
vn 0.1708984 0.08270264 0.9819336
vn 0.1612549 0.107666 0.980957
vn 0.980957 0.1074219 0.1612549
vn 0.9819336 0.0824585 0.1708984
vn 0.8227539 0.543457 0.1671143
vn 0.8227539 0.543457 -0.1674805
vn 0.9819336 0.08233643 -0.1708984
vn 0.980957 0.1072998 -0.161377
vn 0.1612549 0.1070557 -0.980957
vn 0.1708984 0.08209229 -0.9819336
vn 0.1673584 0.5429688 -0.8227539
vn -0.1673584 0.5429688 -0.8227539
vn -0.1708984 0.08209229 -0.9819336
vn -0.1612549 0.1070557 -0.980957
vn -0.1486816 -0.9775391 0.1489258
vn -0.5493164 -0.8344727 -0.04602051
vn -0.5493164 -0.8339844 0.04656982
vn -0.04629517 -0.8339844 0.5498047
vn -0.1486816 -0.9775391 -0.1483154
vn -0.04629517 -0.8344727 -0.5493164
vn 0.04629517 -0.8344727 -0.5493164
vn 0.1486816 -0.9775391 0.1489258
vn 0.04629517 -0.8339844 0.5498047
vn 0.5493164 -0.8339844 0.04656982
vn 0.1486816 -0.9775391 -0.1483154
vn 0.5493164 -0.8344727 -0.04602051
vn -0.1612549 0.1070557 -0.980957
vn 0.1612549 0.1070557 -0.980957
vn 0.1551514 0.9755859 -0.1553955
vn 0.980957 0.1072998 -0.161377
vn -0.1551514 0.9755859 -0.1553955
vn -0.980957 0.1072998 -0.161377
vn -0.980957 0.1074219 0.1612549
vn 0.1551514 0.9755859 0.1547852
vn 0.980957 0.1074219 0.1612549
vn 0.1612549 0.107666 0.980957
vn -0.1551514 0.9755859 0.1547852
vn -0.1612549 0.107666 0.980957
g UpperLeg_left.021_0
f 3/3/3 2/2/2 1/1/1
f 2/2/2 4/4/4 1/1/1
f 2/2/2 5/5/5 4/4/4
f 1/1/1 4/4/4 6/6/6
f 5/5/5 7/7/7 4/4/4
f 4/4/4 8/8/8 6/6/6
f 4/4/4 7/7/7 8/8/8
f 7/7/7 9/9/9 8/8/8
f 10/10/10 6/6/6 8/8/8
f 11/11/11 8/8/8 9/9/9
f 11/11/11 10/10/10 8/8/8
f 12/12/12 11/11/11 9/9/9
f 11/11/11 12/12/12 13/13/13
f 10/10/10 11/11/11 14/14/14
f 14/14/14 11/11/11 13/13/13
f 15/15/15 10/10/10 14/14/14
f 16/16/16 15/15/15 14/14/14
f 17/17/17 14/14/14 13/13/13
f 17/17/17 16/16/16 14/14/14
f 18/18/18 17/17/17 13/13/13
f 17/17/17 18/18/18 19/19/19
f 16/16/16 17/17/17 20/20/20
f 20/20/20 17/17/17 19/19/19
f 21/21/21 16/16/16 20/20/20
f 21/21/21 20/20/20 22/22/22
f 20/20/20 19/19/19 23/23/23
f 20/20/20 23/23/23 22/22/22
f 19/19/19 24/24/24 23/23/23
f 24/24/24 25/25/25 23/23/23
f 25/25/25 26/26/26 23/23/23
f 23/23/23 26/26/26 22/22/22
f 26/26/26 27/27/27 22/22/22
f 30/30/30 29/29/29 28/28/28
f 28/28/28 31/31/31 30/30/30
f 29/29/29 32/32/32 28/28/28
f 29/29/29 33/33/33 32/32/32
f 33/33/33 34/34/34 32/32/32
f 28/28/28 35/35/35 31/31/31
f 35/35/35 28/28/28 32/32/32
f 35/35/35 36/36/36 31/31/31
f 37/37/37 36/36/36 35/35/35
f 34/34/34 38/38/38 32/32/32
f 38/38/38 35/35/35 32/32/32
f 35/35/35 38/38/38 37/37/37
f 38/38/38 34/34/34 39/39/39
f 38/38/38 39/39/39 37/37/37
f 42/42/42 41/41/41 40/40/40
f 41/41/41 42/42/42 43/43/43
f 44/44/44 42/42/42 40/40/40
f 45/45/45 44/44/44 40/40/40
f 44/44/44 45/45/45 46/46/46
f 43/43/43 42/42/42 47/47/47
f 42/42/42 44/44/44 47/47/47
f 48/48/48 43/43/43 47/47/47
f 47/47/47 49/49/49 48/48/48
f 50/50/50 44/44/44 46/46/46
f 44/44/44 50/50/50 47/47/47
f 49/49/49 47/47/47 50/50/50
f 46/46/46 51/51/51 50/50/50
f 51/51/51 49/49/49 50/50/50
