g UpperLeg_right.010
v -0.07984456 0.1149611 -0.114122
v 0.07988773 -0.159726 -0.1141426
v 0.07989024 0.1149597 -0.114122
v -0.07984706 -0.1597245 -0.1141426
v -0.1140713 -0.1597267 -0.07992016
v -0.1140688 0.1149589 -0.07989962
v -0.1140688 0.114947 0.07983425
v -0.1140713 -0.1597387 0.07981372
v -0.07984706 -0.1597416 0.1140361
v -0.07984456 0.1149441 0.1140567
v 0.07989024 0.1149427 0.1140567
v 0.07988773 -0.159743 0.1140361
v 0.1141124 -0.1597407 0.07981372
v 0.1141149 0.1149449 0.07983425
v 0.1141124 -0.1597288 -0.07992016
v 0.1141149 0.1149568 -0.07989962
v 0.07988773 -0.159726 -0.1141426
v 0.07989024 0.1149597 -0.114122
v 0.07988773 -0.159743 0.1140361
v -0.07984737 -0.1939631 0.07981116
v -0.07984706 -0.1597416 0.1140361
v -0.1140713 -0.1597387 0.07981372
v 0.07988742 -0.1939646 0.07981116
v 0.1141124 -0.1597407 0.07981372
v 0.1141124 -0.1597288 -0.07992016
v 0.07988742 -0.1939526 -0.07992271
v 0.07988773 -0.159726 -0.1141426
v -0.07984706 -0.1597245 -0.1141426
v -0.07984737 -0.1939512 -0.07992271
v -0.1140713 -0.1597267 -0.07992016
v 0.07989024 0.1149597 -0.114122
v -0.07984424 0.1491828 -0.07989707
v -0.07984456 0.1149611 -0.114122
v -0.1140688 0.1149589 -0.07989962
v 0.07989054 0.1491813 -0.07989707
v 0.1141149 0.1149568 -0.07989962
v 0.1141149 0.1149449 0.07983425
v -0.07984424 0.1491709 0.07983681
v -0.1140688 0.114947 0.07983425
v -0.07984456 0.1149441 0.1140567
v 0.07989054 0.1491694 0.07983681
v 0.07989024 0.1149427 0.1140567
v 0.1234752 0.009631933 -0.08726267
v 0.08643365 0.02464435 -0.1246618
v 0.08727355 -0.06898616 -0.1246336
v 0.1246786 -0.08736841 -0.08723442
v 0.1235007 0.009682545 0.08729873
v 0.124711 -0.08731844 0.08732697
v 0.08647013 0.02471647 0.1246979
v 0.08731996 -0.06891468 0.1247261
v -0.08722558 0.0169298 0.1247261
v -0.08638601 0.09483287 0.1246979
v -0.1234271 0.1098449 0.08729874
v -0.1246301 0.03531176 0.08732699
v -0.1246626 0.03526178 -0.08723442
v -0.1234526 0.1097944 -0.08726265
v -0.08642246 0.09476069 -0.1246618
v -0.08727196 0.01685831 -0.1246336
v 0.08727355 -0.06898616 -0.1246336
v 0.08643365 0.02464435 -0.1246618
v 0.1101838 0.009479268 -0.08125012
v 0.08020135 -0.06905786 -0.1118734
v 0.08200929 0.02460161 -0.11076
v 0.1109255 -0.08752961 -0.08236971
v 0.1102076 0.009525361 0.08129019
v 0.1109562 -0.08748271 0.08246672
v 0.08204175 0.02466435 0.1107974
v 0.08024374 -0.06899484 0.1119686
v -0.08299221 0.01686834 0.1107651
v -0.07965042 0.09473846 0.1117574
v -0.1097474 0.109636 0.08223233
v -0.1113815 0.03511229 0.08122183
v -0.1114117 0.03506585 -0.08113371
v -0.1097717 0.1095887 -0.0821998
v -0.07968329 0.0946743 -0.1117231
v -0.08303418 0.01680618 -0.1106739
v 0.08020135 -0.06905786 -0.1118734
v 0.08200929 0.02460161 -0.11076
v 0.08727355 -0.06898616 -0.1246336
v 0.08020135 -0.06905786 -0.1118734
v 0.1109255 -0.08752961 -0.08236971
v 0.1246786 -0.08736841 -0.08723442
v 0.1109562 -0.08748271 0.08246672
v 0.124711 -0.08731844 0.08732697
v 0.08024374 -0.06899484 0.1119686
v 0.08731996 -0.06891468 0.1247261
v -0.08299221 0.01686834 0.1107651
v -0.08722558 0.0169298 0.1247261
v -0.1113815 0.03511229 0.08122183
v -0.1246301 0.03531176 0.08732699
v -0.1114117 0.03506585 -0.08113371
v -0.1246626 0.03526178 -0.08723442
v -0.08303418 0.01680618 -0.1106739
v -0.08727196 0.01685831 -0.1246336
v 0.08020135 -0.06905786 -0.1118734
v 0.08727355 -0.06898616 -0.1246336
v 0.08643365 0.02464435 -0.1246618
v 0.08200929 0.02460161 -0.11076
v -0.07968329 0.0946743 -0.1117231
v -0.08642246 0.09476069 -0.1246618
v -0.1097717 0.1095887 -0.0821998
v -0.1234526 0.1097944 -0.08726265
v -0.1097474 0.109636 0.08223233
v -0.1234271 0.1098449 0.08729874
v -0.07965042 0.09473846 0.1117574
v -0.08638601 0.09483287 0.1246979
v 0.08204175 0.02466435 0.1107974
v 0.08647013 0.02471647 0.1246979
v 0.1102076 0.009525361 0.08129019
v 0.1235007 0.009682545 0.08729873
v 0.1101838 0.009479268 -0.08125012
v 0.1234752 0.009631933 -0.08726267
v 0.08200929 0.02460161 -0.11076
v 0.08643365 0.02464435 -0.1246618
vt 0.2154541 0.8154297
vt 0.2347412 0.7641602
vt 0.2347412 0.8154297
vt 0.2154541 0.7641602
vt 0.2113037 0.7641602
vt 0.2113037 0.8154297
vt 0.1921387 0.8154297
vt 0.1921387 0.7641602
vt 0.1879883 0.7641602
vt 0.1879883 0.8154297
vt 0.1687012 0.8154297
vt 0.1687012 0.7641602
vt 0.1645508 0.7641602
vt 0.1645508 0.8154297
vt 0.1453857 0.7641602
vt 0.1453857 0.8154297
vt 0.1412354 0.7641602
vt 0.1412354 0.8154297
vt 0.2193604 0.7114258
vt 0.2098389 0.7089844
vt 0.2193604 0.7089844
vt 0.2098389 0.7084961
vt 0.2098389 0.7114258
vt 0.2098389 0.7119141
vt 0.1654053 0.7119141
vt 0.1654053 0.7114258
vt 0.1558838 0.7114258
vt 0.1558838 0.7089844
vt 0.1654053 0.7089844
vt 0.1654053 0.7084961
vt 0.2205811 0.8652344
vt 0.2102051 0.862793
vt 0.2205811 0.862793
vt 0.2102051 0.8618164
vt 0.2102051 0.8652344
vt 0.2102051 0.8657227
vt 0.1618652 0.8657227
vt 0.1618652 0.862793
vt 0.1618652 0.8618164
vt 0.1514893 0.862793
vt 0.1618652 0.8652344
vt 0.1514893 0.8652344
vt 0.1453857 0.8041992
vt 0.1412354 0.8041992
vt 0.1412354 0.7895508
vt 0.1453857 0.7895508
vt 0.1645508 0.8041992
vt 0.1645508 0.7895508
vt 0.1687012 0.8041992
vt 0.1687012 0.7895508
vt 0.1879883 0.7895508
vt 0.1879883 0.8041992
vt 0.1921387 0.8041992
vt 0.1921387 0.7895508
vt 0.2113037 0.7895508
vt 0.2113037 0.8041992
vt 0.2154541 0.8041992
vt 0.2154541 0.7895508
vt 0.2347412 0.7895508
vt 0.2347412 0.8041992
vt 0.1453857 0.8041992
vt 0.1412354 0.7895508
vt 0.1412354 0.8041992
vt 0.1453857 0.7895508
vt 0.1645508 0.8041992
vt 0.1645508 0.7895508
vt 0.1687012 0.8041992
vt 0.1687012 0.7895508
vt 0.1879883 0.7895508
vt 0.1879883 0.8041992
vt 0.1921387 0.8041992
vt 0.1921387 0.7895508
vt 0.2113037 0.7895508
vt 0.2113037 0.8041992
vt 0.2154541 0.8041992
vt 0.2154541 0.7895508
vt 0.2347412 0.7895508
vt 0.2347412 0.8041992
vt 0.1412354 0.7895508
vt 0.1412354 0.7895508
vt 0.1453857 0.7895508
vt 0.1453857 0.7895508
vt 0.1645508 0.7895508
vt 0.1645508 0.7895508
vt 0.1687012 0.7895508
vt 0.1687012 0.7895508
vt 0.1879883 0.7895508
vt 0.1879883 0.7895508
vt 0.1921387 0.7895508
vt 0.1921387 0.7895508
vt 0.2113037 0.7895508
vt 0.2113037 0.7895508
vt 0.2154541 0.7895508
vt 0.2154541 0.7895508
vt 0.2347412 0.7895508
vt 0.2347412 0.7895508
vt 0.2347412 0.8041992
vt 0.2347412 0.8041992
vt 0.2154541 0.8041992
vt 0.2154541 0.8041992
vt 0.2113037 0.8041992
vt 0.2113037 0.8041992
vt 0.1921387 0.8041992
vt 0.1921387 0.8041992
vt 0.1879883 0.8041992
vt 0.1879883 0.8041992
vt 0.1687012 0.8041992
vt 0.1687012 0.8041992
vt 0.1645508 0.8041992
vt 0.1645508 0.8041992
vt 0.1453857 0.8041992
vt 0.1453857 0.8041992
vt 0.1412354 0.8041992
vt 0.1412354 0.8041992
vn -0.1625977 0.09735107 -0.9819336
vn 0.1625977 -0.09716797 -0.9819336
vn 0.1625977 0.09735107 -0.9819336
vn -0.1625977 -0.09716797 -0.9819336
vn -0.9819336 -0.097229 -0.1625977
vn -0.9819336 0.09729004 -0.1625977
vn -0.9819336 0.097229 0.1625977
vn -0.9819336 -0.097229 0.1625977
vn -0.1625977 -0.09735107 0.9819336
vn -0.1625977 0.09716797 0.9819336
vn 0.1625977 0.09716797 0.9819336
vn 0.1625977 -0.09735107 0.9819336
vn 0.9819336 -0.09729004 0.1625977
vn 0.9819336 0.097229 0.1625977
vn 0.9819336 -0.097229 -0.1625977
vn 0.9819336 0.09729004 -0.1625977
vn 0.1625977 -0.09716797 -0.9819336
vn 0.1625977 0.09735107 -0.9819336
vn 0.1625977 -0.09735107 0.9819336
vn -0.1551514 -0.9755859 0.1550293
vn -0.1625977 -0.09735107 0.9819336
vn -0.9819336 -0.097229 0.1625977
vn 0.1551514 -0.9755859 0.1550293
vn 0.9819336 -0.09729004 0.1625977
vn 0.9819336 -0.097229 -0.1625977
vn 0.1551514 -0.9755859 -0.1551514
vn 0.1625977 -0.09716797 -0.9819336
vn -0.1625977 -0.09716797 -0.9819336
vn -0.1551514 -0.9755859 -0.1551514
vn -0.9819336 -0.097229 -0.1625977
vn 0.1625977 0.09735107 -0.9819336
vn -0.1551514 0.9755859 -0.1550293
vn -0.1625977 0.09735107 -0.9819336
vn -0.9819336 0.09729004 -0.1625977
vn 0.1551514 0.9755859 -0.1550293
vn 0.9819336 0.09729004 -0.1625977
vn 0.9819336 0.097229 0.1625977
vn -0.1551514 0.9755859 0.1551514
vn -0.9819336 0.097229 0.1625977
vn -0.1625977 0.09716797 0.9819336
vn 0.1551514 0.9755859 0.1551514
vn 0.1625977 0.09716797 0.9819336
vn 0.980957 0.0118103 -0.1938477
vn 0.1342773 0.001117706 -0.9907227
vn 0.2814941 0.00271225 -0.9594727
vn 0.9902344 0.01203918 -0.1386719
vn 0.980957 0.01194 0.1934814
vn 0.9902344 0.01213074 0.1383057
vn 0.1345215 0.001773834 0.9907227
vn 0.2819824 0.003353119 0.9594727
vn -0.1047974 0.001737595 0.9946289
vn -0.2216797 0.00330162 0.9750977
vn -0.9882813 0.015625 0.1524658
vn -0.9785156 0.01535034 0.2049561
vn -0.9785156 0.01522064 -0.2045898
vn -0.9882813 0.01553345 -0.1520996
vn -0.2219238 0.002666473 -0.9750977
vn -0.1051025 0.001086235 -0.9946289
vn 0.2814941 0.00271225 -0.9594727
vn 0.1342773 0.001117706 -0.9907227
vn -0.9848633 -0.007278442 0.1745605
vn -0.2531738 -0.001814842 0.9672852
vn -0.1112061 -0.001020432 0.9936523
vn -0.9931641 -0.00743866 0.1162109
vn -0.9848633 -0.007396698 -0.1741943
vn -0.9931641 -0.007518768 -0.1159058
vn -0.1114502 -0.00167942 -0.9936523
vn -0.2536621 -0.00246048 -0.9672852
vn 0.08660889 -0.002639771 -0.9960938
vn 0.1956787 -0.004634857 -0.9804688
vn 0.9912109 -0.02145386 -0.1297607
vn 0.9824219 -0.02113342 -0.1845703
vn 0.9824219 -0.02101135 0.1843262
vn 0.9912109 -0.02137756 0.1295166
vn 0.1959229 -0.003993988 0.9804688
vn 0.08691406 -0.00198555 0.9960938
vn -0.2531738 -0.001814842 0.9672852
vn -0.1112061 -0.001020432 0.9936523
vn -0.4020996 -0.9091797 -0.1087036
vn -0.4116211 -0.90625 -0.0982666
vn -0.04553223 -0.996582 -0.06732178
vn -0.04104614 -0.9970703 -0.06207275
vn -0.04550171 -0.996582 0.06793213
vn -0.04104614 -0.9970703 0.06268311
vn -0.4116211 -0.9057617 0.09899902
vn -0.4020996 -0.9091797 0.109436
vn -0.4179688 -0.9082031 -0.01212311
vn -0.4248047 -0.9052734 0.0004665852
vn -0.07421875 -0.9960938 -0.05148315
vn -0.08111572 -0.9951172 -0.05749512
vn -0.07421875 -0.9960938 0.05209351
vn -0.08105469 -0.9951172 0.05810547
vn -0.4179688 -0.9082031 0.0128479
vn -0.4248047 -0.9052734 0.0002577305
vn -0.4116211 -0.90625 -0.0982666
vn -0.4020996 -0.9091797 -0.1087036
vn 0.3583984 0.9335938 0.0158844
vn 0.3520508 0.9355469 0.02572632
vn 0.3520508 0.9335938 -0.06781006
vn 0.3457031 0.9355469 -0.0748291
vn 0.05996704 0.9970703 -0.05130005
vn 0.05718994 0.9970703 -0.04815674
vn 0.05996704 0.9970703 0.05072021
vn 0.05718994 0.9970703 0.04754639
vn 0.3520508 0.9335938 0.06713867
vn 0.3457031 0.9355469 0.07415771
vn 0.3520508 0.9355469 -0.02642822
vn 0.3583984 0.9335938 -0.0165863
vn 0.03964233 0.9980469 -0.04589844
vn 0.0451355 0.9975586 -0.05078125
vn 0.03967285 0.9980469 0.0453186
vn 0.04516602 0.9975586 0.05020142
vn 0.3520508 0.9355469 0.02572632
vn 0.3583984 0.9335938 0.0158844
g UpperLeg_right.010_0
f 3/3/3 2/2/2 1/1/1
f 2/2/2 4/4/4 1/1/1
f 4/4/4 5/5/5 1/1/1
f 5/5/5 6/6/6 1/1/1
f 7/7/7 6/6/6 5/5/5
f 8/8/8 7/7/7 5/5/5
f 7/7/7 8/8/8 9/9/9
f 10/10/10 7/7/7 9/9/9
f 11/11/11 10/10/10 9/9/9
f 12/12/12 11/11/11 9/9/9
f 11/11/11 12/12/12 13/13/13
f 14/14/14 11/11/11 13/13/13
f 13/13/13 15/15/15 14/14/14
f 15/15/15 16/16/16 14/14/14
f 15/15/15 17/17/17 16/16/16
f 17/17/17 18/18/18 16/16/16
f 21/21/21 20/20/20 19/19/19
f 21/21/21 22/22/22 20/20/20
f 20/20/20 23/23/23 19/19/19
f 19/19/19 23/23/23 24/24/24
f 25/25/25 24/24/24 23/23/23
f 26/26/26 25/25/25 23/23/23
f 23/23/23 20/20/20 26/26/26
f 27/27/27 25/25/25 26/26/26
f 28/28/28 27/27/27 26/26/26
f 29/29/29 20/20/20 22/22/22
f 20/20/20 29/29/29 26/26/26
f 29/29/29 28/28/28 26/26/26
f 30/30/30 29/29/29 22/22/22
f 28/28/28 29/29/29 30/30/30
f 33/33/33 32/32/32 31/31/31
f 32/32/32 33/33/33 34/34/34
f 32/32/32 35/35/35 31/31/31
f 35/35/35 36/36/36 31/31/31
f 36/36/36 35/35/35 37/37/37
f 32/32/32 34/34/34 38/38/38
f 35/35/35 32/32/32 38/38/38
f 34/34/34 39/39/39 38/38/38
f 40/40/40 38/38/38 39/39/39
f 35/35/35 41/41/41 37/37/37
f 41/41/41 35/35/35 38/38/38
f 38/38/38 40/40/40 41/41/41
f 42/42/42 37/37/37 41/41/41
f 40/40/40 42/42/42 41/41/41
g UpperLeg_right.010_1
f 45/45/45 44/44/44 43/43/43
f 46/46/46 45/45/45 43/43/43
f 46/46/46 43/43/43 47/47/47
f 48/48/48 46/46/46 47/47/47
f 47/47/47 49/49/49 48/48/48
f 49/49/49 50/50/50 48/48/48
f 50/50/50 49/49/49 51/51/51
f 49/49/49 52/52/52 51/51/51
f 52/52/52 53/53/53 51/51/51
f 53/53/53 54/54/54 51/51/51
f 54/54/54 53/53/53 55/55/55
f 53/53/53 56/56/56 55/55/55
f 55/55/55 56/56/56 57/57/57
f 58/58/58 55/55/55 57/57/57
f 59/59/59 58/58/58 57/57/57
f 60/60/60 59/59/59 57/57/57
f 63/63/63 62/62/62 61/61/61
f 62/62/62 64/64/64 61/61/61
f 61/61/61 64/64/64 65/65/65
f 64/64/64 66/66/66 65/65/65
f 67/67/67 65/65/65 66/66/66
f 68/68/68 67/67/67 66/66/66
f 67/67/67 68/68/68 69/69/69
f 70/70/70 67/67/67 69/69/69
f 71/71/71 70/70/70 69/69/69
f 72/72/72 71/71/71 69/69/69
f 71/71/71 72/72/72 73/73/73
f 74/74/74 71/71/71 73/73/73
f 74/74/74 73/73/73 75/75/75
f 73/73/73 76/76/76 75/75/75
f 76/76/76 77/77/77 75/75/75
f 77/77/77 78/78/78 75/75/75
f 81/81/81 80/80/80 79/79/79
f 82/82/82 81/81/81 79/79/79
f 83/83/83 81/81/81 82/82/82
f 84/84/84 83/83/83 82/82/82
f 85/85/85 83/83/83 84/84/84
f 86/86/86 85/85/85 84/84/84
f 87/87/87 85/85/85 86/86/86
f 88/88/88 87/87/87 86/86/86
f 89/89/89 87/87/87 88/88/88
f 90/90/90 89/89/89 88/88/88
f 91/91/91 89/89/89 90/90/90
f 92/92/92 91/91/91 90/90/90
f 93/93/93 91/91/91 92/92/92
f 94/94/94 93/93/93 92/92/92
f 95/95/95 93/93/93 94/94/94
f 96/96/96 95/95/95 94/94/94
f 99/99/99 98/98/98 97/97/97
f 100/100/100 99/99/99 97/97/97
f 101/101/101 99/99/99 100/100/100
f 102/102/102 101/101/101 100/100/100
f 103/103/103 101/101/101 102/102/102
f 104/104/104 103/103/103 102/102/102
f 105/105/105 103/103/103 104/104/104
f 106/106/106 105/105/105 104/104/104
f 107/107/107 105/105/105 106/106/106
f 108/108/108 107/107/107 106/106/106
f 109/109/109 107/107/107 108/108/108
f 110/110/110 109/109/109 108/108/108
f 111/111/111 109/109/109 110/110/110
f 112/112/112 111/111/111 110/110/110
f 113/113/113 111/111/111 112/112/112
f 114/114/114 113/113/113 112/112/112
