g Base
v -0.1565153 6.765489E-08 0.1845578
v -0.1350308 -0.1260414 0.10098
v -0.1872389 3.776511E-08 0.10098
v -0.113306 -0.1043166 0.1845579
v -0.008989321 -0.1782496 0.10098
v -0.008989318 -0.1475259 0.1845579
v 0.1170522 -0.1260415 0.10098
v 0.09532732 -0.1043166 0.1845579
v 0.1692603 2.840452E-08 0.10098
v 0.1385367 5.884492E-08 0.1845578
v 0.1385367 5.884492E-08 0.1845578
v 0.1170522 0.1260416 0.1009799
v 0.1692603 2.840452E-08 0.10098
v 0.09532732 0.1043167 0.1845578
v -0.008989305 0.1782497 0.1009799
v -0.008989305 0.1475261 0.1845578
v -0.1350308 0.1260415 0.1009799
v -0.113306 0.1043167 0.1845578
v -0.1872389 3.776511E-08 0.10098
v -0.1565153 6.765489E-08 0.1845578
v -0.1872389 3.776511E-08 0.10098
v -0.1567557 -0.1477663 4.614658E-05
v -0.2179626 2.218975E-09 4.609373E-05
v -0.1350308 -0.1260414 0.10098
v -0.008989323 -0.2089733 4.616846E-05
v -0.008989321 -0.1782496 0.10098
v 0.1387771 -0.1477664 4.614658E-05
v 0.1170522 -0.1260415 0.10098
v 0.199984 -9.344103E-09 4.609373E-05
v 0.1692603 2.840452E-08 0.10098
v 0.1692603 2.840452E-08 0.10098
v 0.1387771 0.1477664 4.604088E-05
v 0.199984 -9.344103E-09 4.609373E-05
v 0.1170522 0.1260416 0.1009799
v -0.008989305 0.2089733 4.6019E-05
v -0.008989305 0.1782497 0.1009799
v -0.1567557 0.1477664 4.604088E-05
v -0.1350308 0.1260415 0.1009799
v -0.2179626 2.218975E-09 4.609373E-05
v -0.1872389 3.776511E-08 0.10098
v -0.08878516 0.07979589 0.1845578
v -0.008989305 0.1475261 0.1845578
v -0.008989304 0.1128484 0.1845578
v -0.113306 0.1043167 0.1845578
v 0.09532732 0.1043167 0.1845578
v -0.1218377 6.653627E-08 0.1845578
v 0.07080652 0.0797959 0.1845578
v -0.1565153 6.765489E-08 0.1845578
v 0.1385367 5.884492E-08 0.1845578
v -0.08878516 -0.07979577 0.1845578
v 0.103859 5.884492E-08 0.1845578
v -0.113306 -0.1043166 0.1845579
v 0.09532732 -0.1043166 0.1845579
v -0.008989318 -0.1128483 0.1845579
v 0.07080652 -0.07979577 0.1845579
v -0.008989318 -0.1475259 0.1845579
v 0.07080652 -0.07979577 0.1845579
v -0.008989318 -0.1128483 0.1845579
v -0.008989304 0.1128484 0.1845578
vt 0.4470215 0.6904297
vt 0.4494629 0.6879883
vt 0.4470215 0.6879883
vt 0.4494629 0.6904297
vt 0.4516602 0.6879883
vt 0.4516602 0.6904297
vt 0.4541016 0.6879883
vt 0.4541016 0.6904297
vt 0.456543 0.6879883
vt 0.456543 0.6904297
vt 0.4470215 0.6904297
vt 0.4494629 0.6879883
vt 0.4470215 0.6879883
vt 0.4494629 0.6904297
vt 0.4516602 0.6879883
vt 0.4516602 0.6904297
vt 0.4541016 0.6879883
vt 0.4541016 0.6904297
vt 0.456543 0.6879883
vt 0.456543 0.6904297
vt 0.3063965 0.7290039
vt 0.3085938 0.7265625
vt 0.3063965 0.7265625
vt 0.3085938 0.7290039
vt 0.3110352 0.7265625
vt 0.3110352 0.7290039
vt 0.3134766 0.7265625
vt 0.3134766 0.7290039
vt 0.315918 0.7265625
vt 0.315918 0.7290039
vt 0.3063965 0.7290039
vt 0.3085938 0.7265625
vt 0.3063965 0.7265625
vt 0.3085938 0.7290039
vt 0.3110352 0.7265625
vt 0.3110352 0.7290039
vt 0.3134766 0.7265625
vt 0.3134766 0.7290039
vt 0.315918 0.7265625
vt 0.315918 0.7290039
vt 0.4538574 0.6904297
vt 0.4516602 0.6904297
vt 0.4521484 0.6904297
vt 0.4541016 0.6904297
vt 0.4494629 0.6904297
vt 0.454834 0.6904297
vt 0.4511719 0.6904297
vt 0.456543 0.6904297
vt 0.456543 0.6904297
vt 0.4511719 0.6904297
vt 0.454834 0.6904297
vt 0.4494629 0.6904297
vt 0.4541016 0.6904297
vt 0.4521484 0.6904297
vt 0.4538574 0.6904297
vt 0.4516602 0.6904297
vt 0.4538574 0.6904297
vt 0.4521484 0.6904297
vt 0.4521484 0.6904297
vn -0.9384766 0 0.3449707
vn -0.6708984 -0.6708984 0.3161621
vn -0.9487305 0 0.3161621
vn -0.6635742 -0.6635742 0.3449707
vn 0 -0.9487305 0.3161621
vn 0 -0.9384766 0.3449707
vn 0.6708984 -0.6708984 0.3161621
vn 0.6635742 -0.6635742 0.3449707
vn 0.9487305 0 0.3161621
vn 0.9384766 0 0.3449707
vn 0.9384766 0 0.3449707
vn 0.6708984 0.6708984 0.3161621
vn 0.9487305 0 0.3161621
vn 0.6635742 0.6635742 0.3449707
vn 0 0.9487305 0.3161621
vn 0 0.9384766 0.3449707
vn -0.6708984 0.6708984 0.3161621
vn -0.6635742 0.6635742 0.3449707
vn -0.9487305 0 0.3161621
vn -0.9384766 0 0.3449707
vn -0.9487305 0 0.3161621
vn -0.6762695 -0.6762695 0.2912598
vn -0.956543 0 0.2912598
vn -0.6708984 -0.6708984 0.3161621
vn 0 -0.956543 0.2912598
vn 0 -0.9487305 0.3161621
vn 0.6762695 -0.6762695 0.2912598
vn 0.6708984 -0.6708984 0.3161621
vn 0.956543 0 0.2912598
vn 0.9487305 0 0.3161621
vn 0.9487305 0 0.3161621
vn 0.6762695 0.6762695 0.2912598
vn 0.956543 0 0.2912598
vn 0.6708984 0.6708984 0.3161621
vn 0 0.956543 0.2912598
vn 0 0.9487305 0.3161621
vn -0.6762695 0.6762695 0.2912598
vn -0.6708984 0.6708984 0.3161621
vn -0.956543 0 0.2912598
vn -0.9487305 0 0.3161621
vn 0 0 1
vn 0 0 1
vn 0 0 1
vn 0 0 1
vn 0 0 1
vn 0 0 1
vn 0 0 1
vn 0 0 1
vn 0 0 1
vn 0 0 1
vn 0 0 1
vn 0 0 1
vn 0 0 1
vn 0 0 1
vn 0 0 1
vn 0 0 1
vn 0 0 1
vn 0 0 1
vn 0 0 1
g Base_0
f 3/3/3 2/2/2 1/1/1
f 2/2/2 4/4/4 1/1/1
f 2/2/2 5/5/5 4/4/4
f 5/5/5 6/6/6 4/4/4
f 5/5/5 7/7/7 6/6/6
f 7/7/7 8/8/8 6/6/6
f 7/7/7 9/9/9 8/8/8
f 9/9/9 10/10/10 8/8/8
f 13/13/13 12/12/12 11/11/11
f 12/12/12 14/14/14 11/11/11
f 12/12/12 15/15/15 14/14/14
f 15/15/15 16/16/16 14/14/14
f 15/15/15 17/17/17 16/16/16
f 17/17/17 18/18/18 16/16/16
f 17/17/17 19/19/19 18/18/18
f 19/19/19 20/20/20 18/18/18
f 23/23/23 22/22/22 21/21/21
f 22/22/22 24/24/24 21/21/21
f 22/22/22 25/25/25 24/24/24
f 25/25/25 26/26/26 24/24/24
f 25/25/25 27/27/27 26/26/26
f 27/27/27 28/28/28 26/26/26
f 27/27/27 29/29/29 28/28/28
f 29/29/29 30/30/30 28/28/28
f 33/33/33 32/32/32 31/31/31
f 32/32/32 34/34/34 31/31/31
f 32/32/32 35/35/35 34/34/34
f 35/35/35 36/36/36 34/34/34
f 35/35/35 37/37/37 36/36/36
f 37/37/37 38/38/38 36/36/36
f 37/37/37 39/39/39 38/38/38
f 39/39/39 40/40/40 38/38/38
f 43/43/43 42/42/42 41/41/41
f 42/42/42 44/44/44 41/41/41
f 45/45/45 42/42/42 43/43/43
f 41/41/41 44/44/44 46/46/46
f 47/47/47 45/45/45 43/43/43
f 44/44/44 48/48/48 46/46/46
f 49/49/49 45/45/45 47/47/47
f 46/46/46 48/48/48 50/50/50
f 51/51/51 49/49/49 47/47/47
f 48/48/48 52/52/52 50/50/50
f 53/53/53 49/49/49 51/51/51
f 50/50/50 52/52/52 54/54/54
f 55/55/55 53/53/53 51/51/51
f 52/52/52 56/56/56 54/54/54
f 56/56/56 53/53/53 55/55/55
f 54/54/54 56/56/56 55/55/55
g Base_1
f 59/59/59 58/58/58 57/57/57
f 55/55/55 51/51/51 47/47/47
f 47/47/47 43/43/43 55/55/55
f 43/43/43 41/41/41 54/54/54
f 41/41/41 50/50/50 54/54/54
f 41/41/41 46/46/46 50/50/50
