g Box001
v -7.448828 -14.43928 0.04140998
v 6.324544 -14.87216 0
v -7.737899 -14.02415 0
v -7.832123 -13.36458 0
v -7.737899 14.02415 0
v -7.832123 13.36458 0
v -7.439157 14.53727 0.04140998
v -6.98411 14.77794 0
v -6.324544 14.87216 0
v 7.832123 13.36458 0
v 6.324544 -14.87216 0
v -7.737899 -14.02415 0
v 6.98411 -14.77794 0
v 7.452932 -14.43614 0.04140996
v 7.737899 -14.02415 0
v 7.832123 -13.36458 0
v 7.737899 14.02415 0
v 7.455228 14.49527 0
v 6.98411 14.77794 0
v 6.324544 14.87216 0
v -6.995263 -14.71142 0.04140998
v -7.448828 -14.43928 0.04140998
v -6.324544 -14.87216 0
v -6.055272 -13.69756 0.9434746
v 6.491412 -13.63176 0.9434746
v 6.030818 -13.69756 0.9434745
v 6.694907 -13.50966 0.9434746
v 6.817004 -13.30617 0.9434746
v 6.882803 -12.84558 0.9434746
v 6.030818 13.64799 0.9434745
v -6.907258 12.796 0.9434746
v -6.515866 -13.63176 0.9434745
v -6.719361 -13.50966 0.9434746
v -6.841458 -13.30617 0.9434746
v -6.907258 -12.84558 0.9434746
v -6.841458 13.25659 0.9434746
v -6.719361 13.46009 0.9434746
v -6.515866 13.58219 0.9434745
v -6.055272 13.64799 0.9434746
v 6.491412 13.58219 0.9434746
v 6.694907 13.46009 0.9434746
v 6.817004 13.25659 0.9434746
v 6.882803 12.796 0.9434746
v 6.324544 -14.87216 0
v 6.98411 -14.77794 1.508187
v 6.98411 -14.77794 0
v 6.324544 -14.87216 1.508187
v -6.324544 -14.87216 0
v -6.324544 -14.87216 1.508187
v -6.995263 -14.71142 0.04140998
v -6.98411 -14.77794 1.508187
v -7.448828 -14.43928 0.04140998
v -7.455228 -14.49527 1.508187
v -7.737899 -14.02415 0
v -7.737899 -14.02415 1.508187
v -6.324544 14.87216 0
v -6.98411 14.77794 1.508187
v -6.98411 14.77794 0
v -6.324544 14.87216 1.508187
v 6.324544 14.87216 0
v 6.324544 14.87216 1.508187
v 6.98411 14.77794 0
v 6.98411 14.77794 1.508187
v 7.455228 14.49527 0
v 7.455228 14.49527 1.508187
v 7.455228 -14.49527 1.508187
v 6.98411 -14.77794 0
v 6.98411 -14.77794 1.508187
v 7.452932 -14.43614 0.04140996
v 7.737899 -14.02415 1.508187
v 7.737899 -14.02415 0
v 7.832123 -13.36458 1.508187
v 7.737899 -14.02415 0
v 7.737899 -14.02415 1.508187
v 7.832123 -13.36458 0
v 7.832123 13.36458 1.508187
v 7.832123 13.36458 0
v 7.737899 14.02415 1.508187
v 7.737899 14.02415 0
v 7.455228 14.49527 1.508187
v 7.455228 14.49527 0
v -7.832123 -13.36458 0
v -7.737899 -14.02415 1.508187
v -7.737899 -14.02415 0
v -7.832123 -13.36458 1.508187
v -7.832123 13.36458 0
v -7.832123 13.36458 1.508187
v -7.737899 14.02415 0
v -7.737899 14.02415 1.508187
v -7.455228 14.49527 1.508187
v -6.98411 14.77794 0
v -6.98411 14.77794 1.508187
v -7.439157 14.53727 0.04140998
v -7.737899 14.02415 1.508187
v -7.737899 14.02415 0
v -6.055272 -13.69756 1.493405
v 6.030818 -13.69756 0.9434745
v 6.030818 -13.69756 1.493405
v -6.055272 -13.69756 0.9434746
v 6.030818 -13.69756 1.493405
v 6.491412 -13.63176 0.9434746
v 6.491412 -13.63176 1.493405
v 6.030818 -13.69756 0.9434745
v 6.491412 -13.63176 1.493405
v 6.694907 -13.50966 0.9434746
v 6.694907 -13.50966 1.493405
v 6.491412 -13.63176 0.9434746
v 6.694907 -13.50966 1.493405
v 6.817004 -13.30617 0.9434746
v 6.817004 -13.30617 1.493405
v 6.694907 -13.50966 0.9434746
v 6.817004 -13.30617 1.493405
v 6.882803 -12.84558 0.9434746
v 6.882803 -12.84558 1.493405
v 6.817004 -13.30617 0.9434746
v 6.882803 -12.84558 1.493405
v 6.882803 12.796 0.9434746
v 6.882803 12.796 1.493405
v 6.882803 -12.84558 0.9434746
v 6.882803 12.796 1.493405
v 6.817004 13.25659 0.9434746
v 6.817004 13.25659 1.493405
v 6.882803 12.796 0.9434746
v 6.817004 13.25659 1.493405
v 6.694907 13.46009 0.9434746
v 6.694907 13.46009 1.493405
v 6.817004 13.25659 0.9434746
v 6.694907 13.46009 1.493405
v 6.491412 13.58219 0.9434746
v 6.491412 13.58219 1.493405
v 6.694907 13.46009 0.9434746
v 6.491412 13.58219 1.493405
v 6.030818 13.64799 0.9434745
v 6.030818 13.64799 1.493405
v 6.491412 13.58219 0.9434746
v 6.030818 13.64799 1.493405
v -6.055272 13.64799 0.9434746
v -6.055272 13.64799 1.493405
v 6.030818 13.64799 0.9434745
v -6.055272 13.64799 1.493405
v -6.515866 13.58219 0.9434745
v -6.515866 13.58219 1.493405
v -6.055272 13.64799 0.9434746
v -6.515866 13.58219 1.493405
v -6.719361 13.46009 0.9434746
v -6.719361 13.46009 1.493405
v -6.515866 13.58219 0.9434745
v -6.719361 13.46009 1.493405
v -6.841458 13.25659 0.9434746
v -6.841458 13.25659 1.493405
v -6.719361 13.46009 0.9434746
v -6.841458 13.25659 1.493405
v -6.907258 12.796 0.9434746
v -6.907258 12.796 1.493405
v -6.841458 13.25659 0.9434746
v -6.907258 12.796 1.493405
v -6.907258 -12.84558 0.9434746
v -6.907258 -12.84558 1.493405
v -6.907258 12.796 0.9434746
v -6.907258 -12.84558 1.493405
v -6.841458 -13.30617 0.9434746
v -6.841458 -13.30617 1.493405
v -6.907258 -12.84558 0.9434746
v -6.841458 -13.30617 1.493405
v -6.719361 -13.50966 0.9434746
v -6.719361 -13.50966 1.493405
v -6.841458 -13.30617 0.9434746
v -6.719361 -13.50966 1.493405
v -6.515866 -13.63176 0.9434745
v -6.515866 -13.63176 1.493405
v -6.719361 -13.50966 0.9434746
v -6.515866 -13.63176 1.493405
v -6.055272 -13.69756 0.9434746
v -6.055272 -13.69756 1.493405
v -6.515866 -13.63176 0.9434745
v -22.71839 -2.136752 0.1226705
v -22.71839 1.213367 -1.967907
v -22.71839 1.213367 0.1226705
v -22.71839 -2.136752 -1.967907
v -4.782629 -2.136752 0.1226697
v -4.782629 1.213367 -1.967907
v -4.782629 -2.136752 -1.967907
v -4.782629 1.213367 0.1226697
v -22.71839 -2.136752 0.1226705
v -4.782629 -2.136752 -1.967907
v -22.71839 -2.136752 -1.967907
v -4.782629 -2.136752 0.1226697
v -22.71839 -2.136752 -1.967907
v -4.782629 1.213367 -1.967907
v -22.71839 1.213367 -1.967907
v -4.782629 -2.136752 -1.967907
v -22.71839 1.213367 -1.967907
v -4.782629 1.213367 0.1226697
v -22.71839 1.213367 0.1226705
v -4.782629 1.213367 -1.967907
v -22.71839 1.213367 0.1226705
v -4.782629 -2.136752 0.1226697
v -22.71839 -2.136752 0.1226705
v -4.782629 1.213367 0.1226697
v 6.030818 -13.69756 1.493405
v -6.324544 -14.87216 1.508187
v -6.055272 -13.69756 1.493405
v 6.324544 -14.87216 1.508187
v -6.98411 -14.77794 1.508187
v 6.491412 -13.63176 1.493405
v -6.515866 -13.63176 1.493405
v 6.98411 -14.77794 1.508187
v -7.455228 -14.49527 1.508187
v 6.694907 -13.50966 1.493405
v -6.719361 -13.50966 1.493405
v 7.455228 -14.49527 1.508187
v -7.737899 -14.02415 1.508187
v 6.817004 -13.30617 1.493405
v -6.841458 -13.30617 1.493405
v 7.737899 -14.02415 1.508187
v -7.832123 -13.36458 1.508187
v 6.882803 -12.84558 1.493405
v -6.907258 -12.84558 1.493405
v 7.832123 -13.36458 1.508187
v -7.832123 13.36458 1.508187
v 6.882803 12.796 1.493405
v -6.907258 12.796 1.493405
v 7.832123 13.36458 1.508187
v -7.737899 14.02415 1.508187
v 6.817004 13.25659 1.493405
v -6.841458 13.25659 1.493405
v 7.737899 14.02415 1.508187
v -7.455228 14.49527 1.508187
v 6.694907 13.46009 1.493405
v -6.719361 13.46009 1.493405
v 7.455228 14.49527 1.508187
v -6.98411 14.77794 1.508187
v 6.491412 13.58219 1.493405
v -6.515866 13.58219 1.493405
v 6.98411 14.77794 1.508187
v -6.324544 14.87216 1.508187
v 6.030818 13.64799 1.493405
v -6.055272 13.64799 1.493405
v 6.324544 14.87216 1.508187
vt 0.7539063 0.8320313
vt 0.8344727 0.8374023
vt 0.7504883 0.8320313
vt 0.75 0.828125
vt 0.7504883 0.6650391
vt 0.75 0.6689453
vt 0.7539063 0.6655273
vt 0.7548828 0.6606445
vt 0.7587891 0.6601563
vt 0.8432617 0.6689453
vt 0.8344727 0.8374023
vt 0.7504883 0.8320313
vt 0.8383789 0.8369141
vt 0.8393555 0.8320313
vt 0.8427734 0.8320313
vt 0.8432617 0.828125
vt 0.8427734 0.6650391
vt 0.8408203 0.6621094
vt 0.8383789 0.6606445
vt 0.8344727 0.6601563
vt 0.7563477 0.8334961
vt 0.7539063 0.8320313
vt 0.7587891 0.8374023
vt 0.7304688 0.1300049
vt 0.8701172 0.1307373
vt 0.8652344 0.1300049
vt 0.8725586 0.1320801
vt 0.8740234 0.1343994
vt 0.8745117 0.1395264
vt 0.8652344 0.4343262
vt 0.7211914 0.4248047
vt 0.7255859 0.1307373
vt 0.7231445 0.1320801
vt 0.7216797 0.1343994
vt 0.7211914 0.1395264
vt 0.7216797 0.4299316
vt 0.7231445 0.432373
vt 0.7255859 0.4335938
vt 0.7304688 0.4343262
vt 0.8701172 0.4335938
vt 0.8725586 0.432373
vt 0.8740234 0.4299316
vt 0.8745117 0.4248047
vt 0.671875 0.7587891
vt 0.6630859 0.7626953
vt 0.671875 0.7626953
vt 0.6630859 0.7587891
vt 0.671875 0.6835938
vt 0.6630859 0.6835938
vt 0.6713867 0.6811523
vt 0.6630859 0.6796875
vt 0.6713867 0.6782227
vt 0.6630859 0.6767578
vt 0.671875 0.675293
vt 0.6630859 0.675293
vt 0.6811523 0.7573242
vt 0.671875 0.7612305
vt 0.6811523 0.7612305
vt 0.671875 0.7573242
vt 0.6811523 0.6816406
vt 0.671875 0.6816406
vt 0.6811523 0.6777344
vt 0.671875 0.6777344
vt 0.6811523 0.675293
vt 0.671875 0.675293
vt 0.6748047 0.7705078
vt 0.671875 0.7612305
vt 0.671875 0.7700195
vt 0.6767578 0.7612305
vt 0.6782227 0.7705078
vt 0.6782227 0.7617188
vt 0.8442383 0.6640625
vt 0.8535156 0.6601563
vt 0.8442383 0.6601563
vt 0.8535156 0.6640625
vt 0.8442383 0.8232422
vt 0.8535156 0.8232422
vt 0.8442383 0.8271484
vt 0.8535156 0.8271484
vt 0.8442383 0.8300781
vt 0.8535156 0.8300781
vt 0.8188477 0.8388672
vt 0.8227539 0.8481445
vt 0.8227539 0.8388672
vt 0.8188477 0.8481445
vt 0.6591797 0.8388672
vt 0.6591797 0.8481445
vt 0.6552734 0.8388672
vt 0.6552734 0.8481445
vt 0.6655273 0.7719727
vt 0.6630859 0.7631836
vt 0.6630859 0.7719727
vt 0.6679688 0.7631836
vt 0.6689453 0.7719727
vt 0.6689453 0.7631836
vt 0.6811523 0.7509766
vt 0.6845703 0.6791992
vt 0.6811523 0.6791992
vt 0.6845703 0.7509766
vt 0.6811523 0.6791992
vt 0.6845703 0.6762695
vt 0.6811523 0.6762695
vt 0.6845703 0.6791992
vt 0.6811523 0.6762695
vt 0.6845703 0.675293
vt 0.6811523 0.675293
vt 0.6845703 0.6762695
vt 0.815918 0.855957
vt 0.8149414 0.8530273
vt 0.8149414 0.855957
vt 0.815918 0.8530273
vt 0.8149414 0.855957
vt 0.8120117 0.8530273
vt 0.8120117 0.855957
vt 0.8149414 0.8530273
vt 0.8120117 0.855957
vt 0.6591797 0.8530273
vt 0.6591797 0.855957
vt 0.8120117 0.8530273
vt 0.6591797 0.855957
vt 0.6567383 0.8530273
vt 0.6567383 0.855957
vt 0.6591797 0.8530273
vt 0.6567383 0.855957
vt 0.6552734 0.8530273
vt 0.6552734 0.855957
vt 0.6567383 0.8530273
vt 0.6845703 0.7548828
vt 0.6875 0.7539063
vt 0.6845703 0.7539063
vt 0.6875 0.7548828
vt 0.6845703 0.7539063
vt 0.6875 0.7509766
vt 0.6845703 0.7509766
vt 0.6875 0.7539063
vt 0.6845703 0.7509766
vt 0.6875 0.6791992
vt 0.6845703 0.6791992
vt 0.6875 0.7509766
vt 0.6845703 0.6791992
vt 0.6875 0.6762695
vt 0.6845703 0.6762695
vt 0.6875 0.6791992
vt 0.6845703 0.6762695
vt 0.6875 0.675293
vt 0.6845703 0.675293
vt 0.6875 0.6762695
vt 0.815918 0.8520508
vt 0.8149414 0.8491211
vt 0.8149414 0.8520508
vt 0.815918 0.8491211
vt 0.8149414 0.8520508
vt 0.8120117 0.8491211
vt 0.8120117 0.8520508
vt 0.8149414 0.8491211
vt 0.8120117 0.8520508
vt 0.6591797 0.8491211
vt 0.6591797 0.8520508
vt 0.8120117 0.8491211
vt 0.6591797 0.8520508
vt 0.6567383 0.8491211
vt 0.6567383 0.8520508
vt 0.6591797 0.8491211
vt 0.6567383 0.8520508
vt 0.6552734 0.8491211
vt 0.6552734 0.8520508
vt 0.6567383 0.8491211
vt 0.6811523 0.7548828
vt 0.6845703 0.7539063
vt 0.6811523 0.7539063
vt 0.6845703 0.7548828
vt 0.6811523 0.7539063
vt 0.6845703 0.7509766
vt 0.6811523 0.7509766
vt 0.6845703 0.7539063
vt 0.1571045 0.3442383
vt 0.1011353 0.3093262
vt 0.1011353 0.3442383
vt 0.1571045 0.3093262
vt 0.1011353 0.3457031
vt 0.1361084 0.4016113
vt 0.1361084 0.3457031
vt 0.1011353 0.4016113
vt 0.401123 0.2148438
vt 0.1011353 0.2498779
vt 0.401123 0.2498779
vt 0.1011353 0.2148438
vt 0.1011353 0.3083496
vt 0.401123 0.2524414
vt 0.1011353 0.2524414
vt 0.401123 0.3083496
vt 0.401123 0.1773682
vt 0.1011353 0.2122803
vt 0.401123 0.2122803
vt 0.1011353 0.1773682
vt 0.1011353 0.1740723
vt 0.401123 0.117981
vt 0.1011353 0.117981
vt 0.401123 0.1740723
vt 0.737793 0.6679688
vt 0.6645508 0.6611328
vt 0.6660156 0.6679688
vt 0.7397461 0.6611328
vt 0.6606445 0.6616211
vt 0.7407227 0.668457
vt 0.6630859 0.668457
vt 0.7436523 0.6616211
vt 0.6577148 0.6630859
vt 0.7421875 0.6689453
vt 0.6621094 0.6689453
vt 0.746582 0.6630859
vt 0.6557617 0.6660156
vt 0.7426758 0.6704102
vt 0.6611328 0.6704102
vt 0.7480469 0.6660156
vt 0.6552734 0.6699219
vt 0.7431641 0.6728516
vt 0.6611328 0.6728516
vt 0.7485352 0.6699219
vt 0.6552734 0.8291016
vt 0.7431641 0.8256836
vt 0.6611328 0.8256836
vt 0.7485352 0.8291016
vt 0.6557617 0.8330078
vt 0.7426758 0.8286133
vt 0.6611328 0.8286133
vt 0.7480469 0.8330078
vt 0.6577148 0.8359375
vt 0.7421875 0.8295898
vt 0.6621094 0.8295898
vt 0.746582 0.8359375
vt 0.6606445 0.8378906
vt 0.7407227 0.8305664
vt 0.6630859 0.8305664
vt 0.7436523 0.8378906
vt 0.6645508 0.8383789
vt 0.737793 0.8310547
vt 0.6660156 0.8310547
vt 0.7397461 0.8383789
vn -0.005672455 -0.08520508 -0.996582
vn -8.076429E-05 0 -1
vn -0.002113342 -0.03503418 -0.9995117
vn 0 1.317263E-05 -1
vn 0.1312256 -0.0004513264 -0.9912109
vn 0 0 -1
vn -0.04626465 0.002134323 -0.9990234
vn -0.03479004 0.001048088 -0.9995117
vn 0 0 -1
vn 0 -1.323223E-05 -1
vn -8.076429E-05 0 -1
vn -0.002113342 -0.03503418 -0.9995117
vn 0.03094482 -0.0009322166 -0.9995117
vn 0.04034424 -0.002038956 -0.9990234
vn -0.137085 0.0004715919 -0.9907227
vn 0 0 -1
vn 0 0 -1
vn 0 0 -1
vn 0 0 -1
vn 0 0 -1
vn -0.002923965 0.01537323 -1
vn -0.005672455 -0.08520508 -0.996582
vn 0 0.2495117 -0.9682617
vn 0 0 1
vn 0 0 1
vn 0 0 1
vn 0 0 1
vn 0 0 1
vn 0 0 1
vn 0 0 1
vn 0 0 1
vn 0 0 1
vn 0 0 1
vn 0 0 1
vn 0 0 1
vn 0 0 1
vn 0 0 1
vn 0 0 1
vn 0 0 1
vn 0 0 1
vn 0 0 1
vn 0 0 1
vn 0 0 1
vn 0.07086182 -0.9975586 0
vn 0.3344727 -0.9423828 0
vn 0.3623047 -0.9321289 -0.01289368
vn 0.07086182 -0.9975586 0
vn -0.1150513 -0.9931641 0
vn -0.0838623 -0.996582 -0.01585388
vn -0.3659668 -0.9301758 -0.02349854
vn -0.3317871 -0.9423828 -0.04022217
vn -0.6875 -0.7250977 -0.03068542
vn -0.6992188 -0.7143555 -0.02093506
vn -0.9350586 -0.3540039 -0.009735107
vn -0.9423828 -0.3344727 0
vn -0.07086182 0.9975586 0
vn -0.3344727 0.9423828 0
vn -0.3100586 0.9506836 0.007663727
vn -0.07086182 0.9975586 0
vn 0.07086182 0.9975586 0
vn 0.07086182 0.9975586 0
vn 0.3344727 0.9423828 0
vn 0.3344727 0.9423828 0
vn 0.7070313 0.7070313 0
vn 0.7070313 0.7070313 0
vn 0.7114258 -0.7021484 -0.01522064
vn 0.3623047 -0.9321289 -0.01289368
vn 0.3344727 -0.9423828 0
vn 0.7236328 -0.6899414 -0.01908875
vn 0.9399414 -0.3408203 -0.008918762
vn 0.9335938 -0.3588867 0
vn 0.9975586 -0.07086182 0
vn 0.9335938 -0.3588867 0
vn 0.9399414 -0.3408203 -0.008918762
vn 0.9975586 -0.07086182 0
vn 0.9975586 0.07086182 0
vn 0.9975586 0.07086182 0
vn 0.9423828 0.3344727 0
vn 0.9423828 0.3344727 0
vn 0.7070313 0.7070313 0
vn 0.7070313 0.7070313 0
vn -0.9975586 -0.07086182 0
vn -0.9423828 -0.3344727 0
vn -0.9350586 -0.3540039 -0.009735107
vn -0.9975586 -0.07086182 0
vn -0.9975586 0.07086182 0
vn -0.9975586 0.07086182 0
vn -0.9458008 0.3242188 0
vn -0.9428711 0.3330078 0.002056122
vn -0.7060547 0.7080078 0.004962921
vn -0.3100586 0.9506836 0.007663727
vn -0.3344727 0.9423828 0
vn -0.6870117 0.7265625 0.01132202
vn -0.9428711 0.3330078 0.002056122
vn -0.9458008 0.3242188 0
vn 0 1 0
vn 0 1 0
vn 0 1 0
vn 0 1 0
vn -0.1414795 0.9897461 0
vn -0.1414795 0.9897461 0
vn -0.1414795 0.9897461 0
vn -0.1414795 0.9897461 0
vn -0.5146484 0.8574219 0
vn -0.5146484 0.8574219 0
vn -0.5146484 0.8574219 0
vn -0.5146484 0.8574219 0
vn -0.8574219 0.5146484 0
vn -0.8574219 0.5146484 0
vn -0.8574219 0.5146484 0
vn -0.8574219 0.5146484 0
vn -0.9897461 0.1414795 0
vn -0.9897461 0.1414795 0
vn -0.9897461 0.1414795 0
vn -0.9897461 0.1414795 0
vn -1 0 0
vn -1 0 0
vn -1 0 0
vn -1 0 0
vn -0.9897461 -0.1414795 0
vn -0.9897461 -0.1414795 0
vn -0.9897461 -0.1414795 0
vn -0.9897461 -0.1414795 0
vn -0.8574219 -0.5146484 0
vn -0.8574219 -0.5146484 0
vn -0.8574219 -0.5146484 0
vn -0.8574219 -0.5146484 0
vn -0.5146484 -0.8574219 0
vn -0.5146484 -0.8574219 0
vn -0.5146484 -0.8574219 0
vn -0.5146484 -0.8574219 0
vn -0.1414795 -0.9897461 0
vn -0.1414795 -0.9897461 0
vn -0.1414795 -0.9897461 0
vn -0.1414795 -0.9897461 0
vn 0 -1 0
vn 0 -1 0
vn 0 -1 0
vn 0 -1 0
vn 0.1414795 -0.9897461 0
vn 0.1414795 -0.9897461 0
vn 0.1414795 -0.9897461 0
vn 0.1414795 -0.9897461 0
vn 0.5146484 -0.8574219 0
vn 0.5146484 -0.8574219 0
vn 0.5146484 -0.8574219 0
vn 0.5146484 -0.8574219 0
vn 0.8574219 -0.5146484 0
vn 0.8574219 -0.5146484 0
vn 0.8574219 -0.5146484 0
vn 0.8574219 -0.5146484 0
vn 0.9897461 -0.1414795 0
vn 0.9897461 -0.1414795 0
vn 0.9897461 -0.1414795 0
vn 0.9897461 -0.1414795 0
vn 1 0 0
vn 1 0 0
vn 1 0 0
vn 1 0 0
vn 0.9897461 0.1414795 0
vn 0.9897461 0.1414795 0
vn 0.9897461 0.1414795 0
vn 0.9897461 0.1414795 0
vn 0.8574219 0.5146484 0
vn 0.8574219 0.5146484 0
vn 0.8574219 0.5146484 0
vn 0.8574219 0.5146484 0
vn 0.5146484 0.8574219 0
vn 0.5146484 0.8574219 0
vn 0.5146484 0.8574219 0
vn 0.5146484 0.8574219 0
vn 0.1414795 0.9897461 0
vn 0.1414795 0.9897461 0
vn 0.1414795 0.9897461 0
vn 0.1414795 0.9897461 0
vn -1 0 0
vn -1 0 0
vn -1 0 0
vn -1 0 0
vn 1 0 0
vn 1 0 0
vn 1 0 0
vn 1 0 0
vn 0 -1 0
vn 0 -1 0
vn 0 -1 0
vn 0 -1 0
vn 0 0 -1
vn 0 0 -1
vn 0 0 -1
vn 0 0 -1
vn 0 1 0
vn 0 1 0
vn 0 1 0
vn 0 1 0
vn 0 0 1
vn 0 0 1
vn 0 0 1
vn 0 0 1
vn 0 0.01258087 1
vn 0 0.01258087 1
vn 0 0.01258087 1
vn 0 0.01258087 1
vn 0.006214142 0.01036072 1
vn -0.001735687 0.01215363 1
vn 0.006214142 0.01036072 1
vn -0.001735687 0.01215363 1
vn 0.01113892 0.00668335 1
vn -0.006149292 0.01025391 1
vn 0.01113892 0.00668335 1
vn -0.006149292 0.01025391 1
vn 0.0147934 0.002113342 1
vn -0.01093292 0.006561279 1
vn 0.0147934 0.002113342 1
vn -0.01093292 0.006561279 1
vn 0.01597595 0 1
vn -0.01444244 0.002063751 1
vn 0.01597595 0 1
vn -0.01444244 0.002063751 1
vn 0.01469421 -0.002098083 1
vn -0.01557159 0 1
vn 0.01469421 -0.002098083 1
vn -0.01557159 0 1
vn 0.01089478 -0.006534576 1
vn -0.01434326 -0.002048492 1
vn 0.01089478 -0.006534576 1
vn -0.01434326 -0.002048492 1
vn 0.006004333 -0.01000977 1
vn -0.01069641 -0.006420135 1
vn 0.006004333 -0.01000977 1
vn -0.01069641 -0.006420135 1
vn 0.001672745 -0.01170349 1
vn -0.005947113 -0.009910583 1
vn 0.001672745 -0.01170349 1
vn -0.005947113 -0.009910583 1
vn 0 -0.01207733 1
vn -0.001667976 -0.01167297 1
vn 0 -0.01207733 1
vn -0.001667976 -0.01167297 1
g Box001_0
f 3/3/3 2/2/2 1/1/1
f 6/6/6 5/5/5 4/4/4
f 5/5/5 7/7/7 4/4/4
f 7/7/7 8/8/8 4/4/4
f 8/8/8 9/9/9 4/4/4
f 9/9/9 10/10/10 4/4/4
f 10/10/10 11/11/11 4/4/4
f 4/4/4 11/11/11 12/12/12
f 13/13/13 11/11/11 10/10/10
f 14/14/14 13/13/13 10/10/10
f 15/15/15 14/14/14 10/10/10
f 16/16/16 15/15/15 10/10/10
f 17/17/17 10/10/10 9/9/9
f 18/18/18 17/17/17 9/9/9
f 19/19/19 18/18/18 9/9/9
f 20/20/20 19/19/19 9/9/9
f 22/22/22 11/11/11 21/21/21
f 21/21/21 11/11/11 23/23/23
f 26/26/26 25/25/25 24/24/24
f 25/25/25 27/27/27 24/24/24
f 27/27/27 28/28/28 24/24/24
f 28/28/28 29/29/29 24/24/24
f 29/29/29 30/30/30 24/24/24
f 30/30/30 31/31/31 24/24/24
f 24/24/24 31/31/31 32/32/32
f 32/32/32 31/31/31 33/33/33
f 33/33/33 31/31/31 34/34/34
f 34/34/34 31/31/31 35/35/35
f 36/36/36 31/31/31 30/30/30
f 37/37/37 36/36/36 30/30/30
f 38/38/38 37/37/37 30/30/30
f 39/39/39 38/38/38 30/30/30
f 40/40/40 30/30/30 29/29/29
f 41/41/41 40/40/40 29/29/29
f 42/42/42 41/41/41 29/29/29
f 43/43/43 42/42/42 29/29/29
f 46/46/46 45/45/45 44/44/44
f 47/47/47 44/44/44 45/45/45
f 44/44/44 47/47/47 48/48/48
f 49/49/49 48/48/48 47/47/47
f 48/48/48 49/49/49 50/50/50
f 51/51/51 50/50/50 49/49/49
f 50/50/50 51/51/51 52/52/52
f 53/53/53 52/52/52 51/51/51
f 52/52/52 53/53/53 54/54/54
f 55/55/55 54/54/54 53/53/53
f 58/58/58 57/57/57 56/56/56
f 59/59/59 56/56/56 57/57/57
f 56/56/56 59/59/59 60/60/60
f 61/61/61 60/60/60 59/59/59
f 60/60/60 61/61/61 62/62/62
f 63/63/63 62/62/62 61/61/61
f 62/62/62 63/63/63 64/64/64
f 65/65/65 64/64/64 63/63/63
f 68/68/68 67/67/67 66/66/66
f 69/69/69 66/66/66 67/67/67
f 66/66/66 69/69/69 70/70/70
f 71/71/71 70/70/70 69/69/69
f 74/74/74 73/73/73 72/72/72
f 75/75/75 72/72/72 73/73/73
f 72/72/72 75/75/75 76/76/76
f 77/77/77 76/76/76 75/75/75
f 76/76/76 77/77/77 78/78/78
f 79/79/79 78/78/78 77/77/77
f 78/78/78 79/79/79 80/80/80
f 81/81/81 80/80/80 79/79/79
f 84/84/84 83/83/83 82/82/82
f 85/85/85 82/82/82 83/83/83
f 82/82/82 85/85/85 86/86/86
f 87/87/87 86/86/86 85/85/85
f 86/86/86 87/87/87 88/88/88
f 89/89/89 88/88/88 87/87/87
f 92/92/92 91/91/91 90/90/90
f 93/93/93 90/90/90 91/91/91
f 90/90/90 93/93/93 94/94/94
f 95/95/95 94/94/94 93/93/93
f 98/98/98 97/97/97 96/96/96
f 99/99/99 96/96/96 97/97/97
f 102/102/102 101/101/101 100/100/100
f 103/103/103 100/100/100 101/101/101
f 106/106/106 105/105/105 104/104/104
f 107/107/107 104/104/104 105/105/105
f 110/110/110 109/109/109 108/108/108
f 111/111/111 108/108/108 109/109/109
f 114/114/114 113/113/113 112/112/112
f 115/115/115 112/112/112 113/113/113
f 118/118/118 117/117/117 116/116/116
f 119/119/119 116/116/116 117/117/117
f 122/122/122 121/121/121 120/120/120
f 123/123/123 120/120/120 121/121/121
f 126/126/126 125/125/125 124/124/124
f 127/127/127 124/124/124 125/125/125
f 130/130/130 129/129/129 128/128/128
f 131/131/131 128/128/128 129/129/129
f 134/134/134 133/133/133 132/132/132
f 135/135/135 132/132/132 133/133/133
f 138/138/138 137/137/137 136/136/136
f 139/139/139 136/136/136 137/137/137
f 142/142/142 141/141/141 140/140/140
f 143/143/143 140/140/140 141/141/141
f 146/146/146 145/145/145 144/144/144
f 147/147/147 144/144/144 145/145/145
f 150/150/150 149/149/149 148/148/148
f 151/151/151 148/148/148 149/149/149
f 154/154/154 153/153/153 152/152/152
f 155/155/155 152/152/152 153/153/153
f 158/158/158 157/157/157 156/156/156
f 159/159/159 156/156/156 157/157/157
f 162/162/162 161/161/161 160/160/160
f 163/163/163 160/160/160 161/161/161
f 166/166/166 165/165/165 164/164/164
f 167/167/167 164/164/164 165/165/165
f 170/170/170 169/169/169 168/168/168
f 171/171/171 168/168/168 169/169/169
f 174/174/174 173/173/173 172/172/172
f 175/175/175 172/172/172 173/173/173
f 178/178/178 177/177/177 176/176/176
f 179/179/179 176/176/176 177/177/177
f 182/182/182 181/181/181 180/180/180
f 183/183/183 180/180/180 181/181/181
f 186/186/186 185/185/185 184/184/184
f 187/187/187 184/184/184 185/185/185
f 190/190/190 189/189/189 188/188/188
f 191/191/191 188/188/188 189/189/189
f 194/194/194 193/193/193 192/192/192
f 195/195/195 192/192/192 193/193/193
f 198/198/198 197/197/197 196/196/196
f 199/199/199 196/196/196 197/197/197
f 202/202/202 201/201/201 200/200/200
f 203/203/203 200/200/200 201/201/201
f 201/201/201 202/202/202 204/204/204
f 200/200/200 203/203/203 205/205/205
f 206/206/206 204/204/204 202/202/202
f 207/207/207 205/205/205 203/203/203
f 204/204/204 206/206/206 208/208/208
f 205/205/205 207/207/207 209/209/209
f 210/210/210 208/208/208 206/206/206
f 211/211/211 209/209/209 207/207/207
f 208/208/208 210/210/210 212/212/212
f 209/209/209 211/211/211 213/213/213
f 214/214/214 212/212/212 210/210/210
f 215/215/215 213/213/213 211/211/211
f 212/212/212 214/214/214 216/216/216
f 213/213/213 215/215/215 217/217/217
f 218/218/218 216/216/216 214/214/214
f 219/219/219 217/217/217 215/215/215
f 216/216/216 218/218/218 220/220/220
f 217/217/217 219/219/219 221/221/221
f 222/222/222 220/220/220 218/218/218
f 223/223/223 221/221/221 219/219/219
f 220/220/220 222/222/222 224/224/224
f 221/221/221 223/223/223 225/225/225
f 226/226/226 224/224/224 222/222/222
f 227/227/227 225/225/225 223/223/223
f 224/224/224 226/226/226 228/228/228
f 225/225/225 227/227/227 229/229/229
f 230/230/230 228/228/228 226/226/226
f 231/231/231 229/229/229 227/227/227
f 228/228/228 230/230/230 232/232/232
f 229/229/229 231/231/231 233/233/233
f 234/234/234 232/232/232 230/230/230
f 235/235/235 233/233/233 231/231/231
f 232/232/232 234/234/234 236/236/236
f 233/233/233 235/235/235 237/237/237
f 238/238/238 236/236/236 234/234/234
f 239/239/239 237/237/237 235/235/235
f 236/236/236 238/238/238 239/239/239
f 237/237/237 239/239/239 238/238/238
