g Box007
v -0.07281152 -0.0936776 0
v 0.07281152 -0.0936776 0
v 0.07281152 -0.03122587 0
v -0.07281152 -0.03122587 0
v 0.07281152 0.03122587 0
v -0.07281152 0.03122587 0
v 0.07281152 0.0936776 0
v -0.07281152 0.0936776 0
v -0.07281151 -0.07240862 0.09820998
v 0.07281152 -0.03122587 0.1254922
v 0.07281151 -0.07240862 0.09820998
v -0.07281152 -0.03122587 0.1254922
v 0.07281152 0.03122587 0.1254922
v -0.07281152 0.03122587 0.1254922
v 0.07281151 0.07384021 0.1029945
v -0.07281151 0.07384021 0.1029945
v -0.07281152 -0.0936776 0
v 0.07281152 -0.0936776 0.06274609
v 0.07281152 -0.0936776 0
v -0.07281152 -0.0936776 0.06274609
v 0.07281151 -0.07240862 0.09820998
v -0.07281151 -0.07240862 0.09820998
v 0.07281152 0.03122587 0
v 0.07281152 0.0936776 0.06274609
v 0.07281152 0.0936776 0
v 0.07281152 0.03122587 0.06274609
v 0.07281151 0.07384021 0.1029945
v 0.07281152 -0.03122587 0
v 0.07281152 0.03122587 0.1254922
v 0.07281152 -0.03122587 0.06274609
v 0.07281152 -0.0936776 0
v 0.07281152 -0.03122587 0.1254922
v 0.07281152 -0.0936776 0.06274609
v 0.07281151 -0.07240862 0.09820998
v 0.07281152 0.0936776 0
v -0.07281152 0.0936776 0.06274609
v -0.07281152 0.0936776 0
v 0.07281152 0.0936776 0.06274609
v -0.07281151 0.07384021 0.1029945
v 0.07281151 0.07384021 0.1029945
v -0.06089885 -0.03122587 0.009599656
v -0.06089885 -0.08407795 0.06008814
v -0.06089885 -0.08407795 0.009599656
v -0.06089885 -0.03122587 0.06274609
v -0.06089884 -0.06529434 0.09140792
v -0.06089885 0.03122587 0.009599656
v -0.06089885 -0.02833458 0.1158925
v -0.06089885 0.03122587 0.06274609
v -0.06089885 0.08407795 0.009599656
v -0.06089885 0.02884742 0.1158925
v -0.06089885 0.08407795 0.06050887
v -0.06089884 0.06660574 0.0959585
v -0.07281152 -0.03122587 0.009599656
v -0.06089885 -0.08407795 0.009599656
v -0.07281152 -0.08407795 0.009599656
v -0.06089885 -0.03122587 0.009599656
v -0.07281152 0.03122587 0.009599656
v -0.06089885 0.03122587 0.009599656
v -0.07281152 0.08407795 0.009599656
v -0.06089885 0.08407795 0.009599656
v -0.07281152 -0.08407795 0.009599656
v -0.06089885 -0.08407795 0.009599656
v -0.06089885 -0.08407795 0.06008814
v -0.07281152 -0.08407795 0.06008814
v -0.07281152 -0.08407795 0.06008814
v -0.06089885 -0.08407795 0.06008814
v -0.06089884 -0.06529434 0.09140792
v -0.07281151 -0.06529434 0.09140792
v -0.07281151 -0.06529434 0.09140792
v -0.06089884 -0.06529434 0.09140792
v -0.06089885 -0.02833458 0.1158925
v -0.07281152 -0.02833458 0.1158925
v -0.07281152 -0.02833458 0.1158925
v -0.06089885 -0.02833458 0.1158925
v -0.06089885 0.02884742 0.1158925
v -0.07281152 0.02884742 0.1158925
v -0.07281152 0.02884742 0.1158925
v -0.06089885 0.02884742 0.1158925
v -0.06089884 0.06660574 0.0959585
v -0.07281151 0.06660574 0.0959585
v -0.07281151 0.06660574 0.0959585
v -0.06089884 0.06660574 0.0959585
v -0.06089885 0.08407795 0.06050887
v -0.07281152 0.08407795 0.06050887
v -0.07281152 0.08407795 0.06050887
v -0.06089885 0.08407795 0.06050887
v -0.06089885 0.08407795 0.009599656
v -0.07281152 0.08407795 0.009599656
v -0.07281152 -0.03122587 0
v -0.07281152 -0.03122587 0.009599656
v -0.07281152 -0.08407795 0.009599656
v -0.07281152 -0.0936776 0
v -0.07281152 0.03122587 0
v -0.07281152 -0.08407795 0.06008814
v -0.07281152 0.03122587 0.009599656
v -0.07281152 -0.0936776 0.06274609
v -0.07281152 0.0936776 0
v -0.07281151 -0.06529434 0.09140792
v -0.07281152 0.08407795 0.009599656
v -0.07281151 -0.07240862 0.09820998
v -0.07281152 0.0936776 0.06274609
v -0.07281152 -0.02833458 0.1158925
v -0.07281152 0.08407795 0.06050887
v -0.07281152 -0.03122587 0.1254922
v -0.07281151 0.07384021 0.1029945
v -0.07281152 0.02884742 0.1158925
v -0.07281151 0.06660574 0.0959585
v -0.07281152 0.03122587 0.1254922
vt 0.8735352 0.7006836
vt 0.8735352 0.7368164
vt 0.8886719 0.7368164
vt 0.8886719 0.7006836
vt 0.9042969 0.7368164
vt 0.9042969 0.7006836
vt 0.9199219 0.7368164
vt 0.9199219 0.7006836
vt 0.8837891 0.7763672
vt 0.894043 0.7402344
vt 0.8837891 0.7402344
vt 0.894043 0.7763672
vt 0.9091797 0.7402344
vt 0.9091797 0.7763672
vt 0.9199219 0.7402344
vt 0.9199219 0.7763672
vt 0.8837891 0.7763672
vt 0.9199219 0.7919922
vt 0.9199219 0.7763672
vt 0.8837891 0.7919922
vt 0.9199219 0.8007813
vt 0.8837891 0.8007813
vt 0.8193359 0.7163086
vt 0.8349609 0.7006836
vt 0.8193359 0.7006836
vt 0.8349609 0.7163086
vt 0.8452148 0.7055664
vt 0.8193359 0.7319336
vt 0.8505859 0.7163086
vt 0.8349609 0.7319336
vt 0.8193359 0.7470703
vt 0.8505859 0.7319336
vt 0.8349609 0.7470703
vt 0.84375 0.7416992
vt 0.8769531 0.7646484
vt 0.8613281 0.8007813
vt 0.8769531 0.8007813
vt 0.8613281 0.7646484
vt 0.8515625 0.8007813
vt 0.8515625 0.7646484
vt 0.2282715 0.7167969
vt 0.2731934 0.7597656
vt 0.2731934 0.7167969
vt 0.2282715 0.7617188
vt 0.2573242 0.7861328
vt 0.1751709 0.7167969
vt 0.2258301 0.8071289
vt 0.1751709 0.7617188
vt 0.130249 0.7167969
vt 0.1772461 0.8071289
vt 0.130249 0.7602539
vt 0.1451416 0.7900391
vt 0.9067383 0.7373047
vt 0.9199219 0.7402344
vt 0.9199219 0.7373047
vt 0.9067383 0.7402344
vt 0.8916016 0.7373047
vt 0.8916016 0.7402344
vt 0.878418 0.7373047
vt 0.878418 0.7402344
vt 0.8398438 0.753418
vt 0.8398438 0.7504883
vt 0.8271484 0.7504883
vt 0.8271484 0.753418
vt 0.8271484 0.753418
vt 0.8271484 0.7504883
vt 0.8193359 0.7504883
vt 0.8193359 0.753418
vt 0.8774414 0.8007813
vt 0.8803711 0.8007813
vt 0.8803711 0.7915039
vt 0.8774414 0.7915039
vt 0.8774414 0.7915039
vt 0.8803711 0.7915039
vt 0.8803711 0.7773438
vt 0.8774414 0.7773438
vt 0.8774414 0.7773438
vt 0.8803711 0.7773438
vt 0.8803711 0.7680664
vt 0.8774414 0.7680664
vt 0.8193359 0.7475586
vt 0.8193359 0.7504883
vt 0.828125 0.7504883
vt 0.828125 0.7475586
vt 0.828125 0.7475586
vt 0.828125 0.7504883
vt 0.8408203 0.7504883
vt 0.8408203 0.7475586
vt 0.8198242 0.7695313
vt 0.8222656 0.7695313
vt 0.8222656 0.7563477
vt 0.8198242 0.7539063
vt 0.8198242 0.7851563
vt 0.8349609 0.7563477
vt 0.8222656 0.7851563
vt 0.8354492 0.7539063
vt 0.8198242 0.8007813
vt 0.8427734 0.7612305
vt 0.8222656 0.7983398
vt 0.8442383 0.7592773
vt 0.8354492 0.8007813
vt 0.8486328 0.7705078
vt 0.8349609 0.7983398
vt 0.8510742 0.7695313
vt 0.8457031 0.7958984
vt 0.8486328 0.784668
vt 0.84375 0.7939453
vt 0.8510742 0.7851563
vn 0 0 -1
vn 0 0 -1
vn 0 0 -1
vn 0 0 -1
vn 0 0 -1
vn 0 0 -1
vn 0 0 -1
vn 0 0 -1
vn 0 -0.5522461 0.8334961
vn 0 -0.2883301 0.9575195
vn 0 -0.5522461 0.8334961
vn 0 -0.2883301 0.9575195
vn 0 0.2404785 0.9707031
vn 0 0.2404785 0.9707031
vn 0 0.4667969 0.8842773
vn 0 0.4667969 0.8842773
vn 0 -1 0
vn 0 -0.9638672 0.2668457
vn 0 -1 0
vn 0 -0.9638672 0.2668457
vn 0 -0.8574219 0.5141602
vn 0 -0.8574219 0.5141602
vn 1 0 0
vn 1 0 0
vn 1 0 0
vn 1 0 0
vn 1 0 0
vn 1 0 0
vn 1 0 0
vn 1 0 0
vn 1 0 0
vn 1 0 0
vn 1 0 0
vn 1 0 0
vn 0 1 0
vn 0 0.9741211 0.2269287
vn 0 1 0
vn 0 0.9741211 0.2269287
vn 0 0.8969727 0.4421387
vn 0 0.8969727 0.4421387
vn -1 0 0
vn -1 0 0
vn -1 0 0
vn -1 0 0
vn -1 0 0
vn -1 0 0
vn -1 0 0
vn -1 0 0
vn -1 0 0
vn -1 0 0
vn -1 0 0
vn -1 0 0
vn 0 0 1
vn 0 0 1
vn 0 0 1
vn 0 0 1
vn 0 0 1
vn 0 0 1
vn 0 0 1
vn 0 0 1
vn 0 1 0
vn 0 1 0
vn 0 1 0
vn 0 1 0
vn 0 0.8574219 -0.5141602
vn 0 0.8574219 -0.5141602
vn 0 0.8574219 -0.5141602
vn 0 0.8574219 -0.5141602
vn 0 0.5522461 -0.8334961
vn 0 0.5522461 -0.8334961
vn 0 0.5522461 -0.8334961
vn 0 0.5522461 -0.8334961
vn 0 0 -1
vn 0 0 -1
vn 0 0 -1
vn 0 0 -1
vn 0 -0.4667969 -0.8842773
vn 0 -0.4667969 -0.8842773
vn 0 -0.4667969 -0.8842773
vn 0 -0.4667969 -0.8842773
vn 0 -0.8969727 -0.4421387
vn 0 -0.8969727 -0.4421387
vn 0 -0.8969727 -0.4421387
vn 0 -0.8969727 -0.4421387
vn 0 -1 0
vn 0 -1 0
vn 0 -1 0
vn 0 -1 0
vn -1 0 0
vn -1 0 0
vn -1 0 0
vn -1 0 0
vn -1 0 0
vn -1 0 0
vn -1 0 0
vn -1 0 0
vn -1 0 0
vn -1 0 0
vn -1 0 0
vn -1 0 0
vn -1 0 0
vn -1 0 0
vn -1 0 0
vn -1 0 0
vn -1 0 0
vn -1 0 0
vn -1 0 0
vn -1 0 0
g Box007_0
f 3/3/3 2/2/2 1/1/1
f 4/4/4 3/3/3 1/1/1
f 5/5/5 3/3/3 4/4/4
f 6/6/6 5/5/5 4/4/4
f 7/7/7 5/5/5 6/6/6
f 8/8/8 7/7/7 6/6/6
f 11/11/11 10/10/10 9/9/9
f 10/10/10 12/12/12 9/9/9
f 10/10/10 13/13/13 12/12/12
f 13/13/13 14/14/14 12/12/12
f 13/13/13 15/15/15 14/14/14
f 15/15/15 16/16/16 14/14/14
f 19/19/19 18/18/18 17/17/17
f 18/18/18 20/20/20 17/17/17
f 18/18/18 21/21/21 20/20/20
f 21/21/21 22/22/22 20/20/20
f 25/25/25 24/24/24 23/23/23
f 24/24/24 26/26/26 23/23/23
f 24/24/24 27/27/27 26/26/26
f 23/23/23 26/26/26 28/28/28
f 27/27/27 29/29/29 26/26/26
f 26/26/26 30/30/30 28/28/28
f 26/26/26 29/29/29 30/30/30
f 28/28/28 30/30/30 31/31/31
f 29/29/29 32/32/32 30/30/30
f 30/30/30 33/33/33 31/31/31
f 30/30/30 32/32/32 33/33/33
f 32/32/32 34/34/34 33/33/33
f 37/37/37 36/36/36 35/35/35
f 36/36/36 38/38/38 35/35/35
f 36/36/36 39/39/39 38/38/38
f 39/39/39 40/40/40 38/38/38
f 43/43/43 42/42/42 41/41/41
f 42/42/42 44/44/44 41/41/41
f 42/42/42 45/45/45 44/44/44
f 41/41/41 44/44/44 46/46/46
f 45/45/45 47/47/47 44/44/44
f 44/44/44 48/48/48 46/46/46
f 44/44/44 47/47/47 48/48/48
f 46/46/46 48/48/48 49/49/49
f 47/47/47 50/50/50 48/48/48
f 48/48/48 51/51/51 49/49/49
f 48/48/48 50/50/50 51/51/51
f 50/50/50 52/52/52 51/51/51
f 55/55/55 54/54/54 53/53/53
f 54/54/54 56/56/56 53/53/53
f 53/53/53 56/56/56 57/57/57
f 56/56/56 58/58/58 57/57/57
f 57/57/57 58/58/58 59/59/59
f 58/58/58 60/60/60 59/59/59
f 63/63/63 62/62/62 61/61/61
f 64/64/64 63/63/63 61/61/61
f 67/67/67 66/66/66 65/65/65
f 68/68/68 67/67/67 65/65/65
f 71/71/71 70/70/70 69/69/69
f 72/72/72 71/71/71 69/69/69
f 75/75/75 74/74/74 73/73/73
f 76/76/76 75/75/75 73/73/73
f 79/79/79 78/78/78 77/77/77
f 80/80/80 79/79/79 77/77/77
f 83/83/83 82/82/82 81/81/81
f 84/84/84 83/83/83 81/81/81
f 87/87/87 86/86/86 85/85/85
f 88/88/88 87/87/87 85/85/85
f 91/91/91 90/90/90 89/89/89
f 92/92/92 91/91/91 89/89/89
f 89/89/89 90/90/90 93/93/93
f 94/94/94 91/91/91 92/92/92
f 90/90/90 95/95/95 93/93/93
f 96/96/96 94/94/94 92/92/92
f 93/93/93 95/95/95 97/97/97
f 98/98/98 94/94/94 96/96/96
f 95/95/95 99/99/99 97/97/97
f 100/100/100 98/98/98 96/96/96
f 97/97/97 99/99/99 101/101/101
f 102/102/102 98/98/98 100/100/100
f 99/99/99 103/103/103 101/101/101
f 104/104/104 102/102/102 100/100/100
f 101/101/101 103/103/103 105/105/105
f 106/106/106 102/102/102 104/104/104
f 103/103/103 107/107/107 105/105/105
f 108/108/108 106/106/106 104/104/104
f 105/105/105 107/107/107 108/108/108
f 107/107/107 106/106/106 108/108/108
