g Bush_E_01_LOD2
v 0.009999883 0.01615473 -0.0007527646
v 0.000392075 0.01717612 -0.0006739506
v -9.16928E-05 0.007781658 -0.00148664
v 0.002195754 0.02440821 0.005120689
v 0.009788588 0.007615027 -0.001545043
v 0.01197409 0.022246 0.004698407
v -0.000263722 9.359827E-05 -0.001690257
v 0.0139418 0.02281459 0.01394745
v 0.009912156 0.0002926376 -0.001733117
v 0.00446858 0.0256085 0.01562432
v 0.01492026 0.01654976 0.02334705
v 0.005609261 0.01852541 0.02660162
v -0.0001448249 -0.007700759 -0.001477513
v 0.01011991 -0.007155146 -0.001537623
v 0.01586393 0.007203633 0.02951639
v 0.00598842 0.007994519 0.03388439
v 0.01054474 -0.01591597 -0.0007390452
v 0.0002932815 -0.01745244 -0.0006570925
v 0.002504512 -0.02560202 0.00514559
v 0.0126828 -0.02250591 0.004722123
v 0.005224055 -0.02780648 0.01586536
v 0.01494872 -0.02408804 0.01407407
v 0.006049852 -0.001059655 0.03589622
v 0.01627041 -0.001100668 0.03128916
v 0.006345641 -0.02114324 0.02680385
v 0.01600359 -0.0188028 0.02354987
v 0.01654803 -0.009405877 0.02962392
v 0.006358304 -0.01017274 0.034029
v 0.01494872 -0.02408804 0.01407407
v 0.01954302 -0.01659624 0.004800139
v 0.0126828 -0.02250591 0.004722123
v 0.01054474 -0.01591597 -0.0007390452
v 0.02085116 -0.01764487 0.01334794
v 0.01600359 -0.0188028 0.02354987
v 0.01666778 -0.01340576 -0.0005117352
v 0.01011991 -0.007155146 -0.001537623
v 0.01782128 -0.006167596 -0.0009788107
v 0.009912156 0.0002926376 -0.001733117
v 0.02312516 -0.007382118 0.004891589
v 0.02440583 -0.008114859 0.01452325
v 0.02000211 -0.01565467 0.02091637
v 0.02126823 -0.008031019 0.02403382
v 0.01654803 -0.009405877 0.02962392
v 0.01627041 -0.001100668 0.03128916
v 0.02129559 -0.0003271883 0.02513776
v 0.01586393 0.007203633 0.02951639
v 0.01799554 0.000707405 -0.001052369
v 0.009788588 0.007615027 -0.001545043
v 0.02497145 0.0004241237 0.0151201
v 0.02049928 0.007345375 0.02409335
v 0.01492026 0.01654976 0.02334705
v 0.02371781 0.0006866633 0.005088179
v 0.01723622 0.007539731 -0.000972929
v 0.009999883 0.01615473 -0.0007527646
v 0.02244692 0.008746905 0.004960726
v 0.01569306 0.01459173 -0.0005155166
v 0.01197409 0.022246 0.004698407
v 0.01843762 0.01769367 0.004832265
v 0.0196419 0.01803855 0.01341461
v 0.0139418 0.02281459 0.01394745
v 0.02370779 0.008910751 0.01466278
v 0.01873751 0.01480366 0.02099724
v -0.01979071 -0.01583141 -0.0004571111
v -0.01918877 -0.02278518 0.00519602
v -0.008280453 -0.02560141 0.005333997
v -0.01796133 -0.02491347 0.01502093
v -0.01002349 -0.01731697 -0.000555446
v -0.00591112 -0.02801289 0.01619118
v -0.01990953 -0.007618409 -0.001261735
v -0.01013464 -0.00780774 -0.001369214
v -0.01758779 -0.01998875 0.02519402
v -0.009945337 -0.0001375347 -0.001574358
v -0.01972812 -0.0005209988 -0.001449896
v -0.01941599 0.006599412 -0.001252341
v -0.009754961 0.00749422 -0.001373115
v -0.009390338 0.01672103 -0.0005685021
v -0.01892335 0.01472547 -0.0004465213
v -0.008142501 0.02384683 0.005347343
v -0.01859781 0.02073805 0.005308609
v -0.006252267 0.02546209 0.01602204
v -0.01777991 0.02231381 0.01516313
v -0.005454039 0.01907569 0.02746112
v -0.01727304 0.01770441 0.02538891
v -0.006041078 0.008553651 0.03520421
v -0.01858257 0.008196195 0.03240997
v -0.006358709 -0.0008732356 0.03726066
v -0.01920464 -0.0008325138 0.03433856
v -0.00615193 -0.01038769 0.0353211
v -0.01901992 -0.009970918 0.03238258
v -0.01152674 -0.02113507 0.02670726
v -0.005243026 -0.02153854 0.02753945
v -0.01777991 0.02231381 0.01516313
v -0.02448485 0.01565146 0.005276035
v -0.01859781 0.02073805 0.005308609
v -0.01892335 0.01472547 -0.0004465213
v -0.02483509 0.01682707 0.01432925
v -0.01727304 0.01770441 0.02538891
v -0.0235709 0.01499358 0.02242864
v -0.02656692 0.007341578 0.02572128
v -0.01858257 0.008196195 0.03240997
v -0.03012419 0.007790768 0.01542027
v -0.0276862 -0.0007876132 0.02681955
v -0.01920464 -0.0008325138 0.03433856
v -0.01901992 -0.009970918 0.03238258
v -0.02289772 0.01256563 -0.0002153865
v -0.02913456 0.006915754 0.005191921
v -0.02486815 0.005659611 -0.0007596421
v -0.01941599 0.006599412 -0.001252341
v -0.02590473 -0.0009692977 -0.0008862166
v -0.01972812 -0.0005209988 -0.001449896
v -0.0318499 -0.0008558293 0.01583482
v -0.02712004 -0.009072415 0.02546549
v -0.02561127 -0.007504246 -0.0007816482
v -0.02995316 -0.008962522 0.005039412
v -0.01990953 -0.007618409 -0.001261735
v -0.01979071 -0.01583141 -0.0004571111
v -0.03079876 -0.00102132 0.005222257
v -0.02409917 -0.01424341 -0.0002521665
v -0.01918877 -0.02278518 0.00519602
v -0.02566644 -0.01779109 0.005044358
v -0.01796133 -0.02491347 0.01502093
v -0.02580678 -0.01908902 0.01382952
v -0.01758779 -0.01998875 0.02519402
v -0.0308443 -0.009620221 0.01510402
v -0.02437382 -0.01708962 0.02185632
v 0.0002932815 -0.01745244 -0.0006570925
v -0.01013464 -0.00780774 -0.001369214
v -0.01002349 -0.01731697 -0.000555446
v -0.008280453 -0.02560141 0.005333997
v -0.0001448249 -0.007700759 -0.001477513
v 0.002504512 -0.02560202 0.00514559
v -0.009945337 -0.0001375347 -0.001574358
v -0.00591112 -0.02801289 0.01619118
v -0.000263722 9.359827E-05 -0.001690257
v 0.005224055 -0.02780648 0.01586536
v -0.009754961 0.00749422 -0.001373115
v -9.16928E-05 0.007781658 -0.00148664
v -0.009390338 0.01672103 -0.0005685021
v 0.000392075 0.01717612 -0.0006739506
v -0.005243026 -0.02153854 0.02753945
v 0.006345641 -0.02114324 0.02680385
v 0.006358304 -0.01017274 0.034029
v -0.00615193 -0.01038769 0.0353211
v 0.006049852 -0.001059655 0.03589622
v -0.006358709 -0.0008732356 0.03726066
v 0.00598842 0.007994519 0.03388439
v -0.006041078 0.008553651 0.03520421
v -0.008142501 0.02384683 0.005347343
v 0.002195754 0.02440821 0.005120689
v 0.00446858 0.0256085 0.01562432
v -0.006252267 0.02546209 0.01602204
v 0.005609261 0.01852541 0.02660162
v -0.005454039 0.01907569 0.02746112
vt 0.7426758 0.9179688
vt 0.7426758 0.9179688
vt 0.7426758 0.9179688
vt 0.7426758 0.9179688
vt 0.7426758 0.9179688
vt 0.7426758 0.9179688
vt 0.7426758 0.9179688
vt 0.7426758 0.9179688
vt 0.7426758 0.9179688
vt 0.7426758 0.9179688
vt 0.7426758 0.9179688
vt 0.7426758 0.9179688
vt 0.7426758 0.9179688
vt 0.7426758 0.9179688
vt 0.7426758 0.9179688
vt 0.7426758 0.9179688
vt 0.7426758 0.9179688
vt 0.7426758 0.9179688
vt 0.7426758 0.9179688
vt 0.7426758 0.9179688
vt 0.7426758 0.9179688
vt 0.7426758 0.9179688
vt 0.7426758 0.9179688
vt 0.7426758 0.9179688
vt 0.7426758 0.9179688
vt 0.7426758 0.9179688
vt 0.7426758 0.9179688
vt 0.7426758 0.9179688
vt 0.5776367 0.9179688
vt 0.5776367 0.9179688
vt 0.5776367 0.9179688
vt 0.5776367 0.9179688
vt 0.5776367 0.9179688
vt 0.5776367 0.9179688
vt 0.5776367 0.9179688
vt 0.5776367 0.9179688
vt 0.5776367 0.9179688
vt 0.5776367 0.9179688
vt 0.5776367 0.9179688
vt 0.5776367 0.9179688
vt 0.5776367 0.9179688
vt 0.5776367 0.9179688
vt 0.5776367 0.9179688
vt 0.5776367 0.9179688
vt 0.5776367 0.9179688
vt 0.5776367 0.9179688
vt 0.5776367 0.9179688
vt 0.5776367 0.9179688
vt 0.5776367 0.9179688
vt 0.5776367 0.9179688
vt 0.5776367 0.9179688
vt 0.5776367 0.9179688
vt 0.5776367 0.9179688
vt 0.5776367 0.9179688
vt 0.5776367 0.9179688
vt 0.5776367 0.9179688
vt 0.5776367 0.9179688
vt 0.5776367 0.9179688
vt 0.5776367 0.9179688
vt 0.5776367 0.9179688
vt 0.5776367 0.9179688
vt 0.5776367 0.9179688
vt 0.7426758 0.9179688
vt 0.7426758 0.9179688
vt 0.7426758 0.9179688
vt 0.7426758 0.9179688
vt 0.7426758 0.9179688
vt 0.7426758 0.9179688
vt 0.7426758 0.9179688
vt 0.7426758 0.9179688
vt 0.7426758 0.9179688
vt 0.7426758 0.9179688
vt 0.7426758 0.9179688
vt 0.7426758 0.9179688
vt 0.7426758 0.9179688
vt 0.7426758 0.9179688
vt 0.7426758 0.9179688
vt 0.7426758 0.9179688
vt 0.7426758 0.9179688
vt 0.7426758 0.9179688
vt 0.7426758 0.9179688
vt 0.7426758 0.9179688
vt 0.7426758 0.9179688
vt 0.7426758 0.9179688
vt 0.7426758 0.9179688
vt 0.7426758 0.9179688
vt 0.7426758 0.9179688
vt 0.7426758 0.9179688
vt 0.7426758 0.9179688
vt 0.7426758 0.9179688
vt 0.7426758 0.9179688
vt 0.5776367 0.9179688
vt 0.5776367 0.9179688
vt 0.5776367 0.9179688
vt 0.5776367 0.9179688
vt 0.5776367 0.9179688
vt 0.5776367 0.9179688
vt 0.5776367 0.9179688
vt 0.5776367 0.9179688
vt 0.5776367 0.9179688
vt 0.5776367 0.9179688
vt 0.5776367 0.9179688
vt 0.5776367 0.9179688
vt 0.5776367 0.9179688
vt 0.5776367 0.9179688
vt 0.5776367 0.9179688
vt 0.5776367 0.9179688
vt 0.5776367 0.9179688
vt 0.5776367 0.9179688
vt 0.5776367 0.9179688
vt 0.5776367 0.9179688
vt 0.5776367 0.9179688
vt 0.5776367 0.9179688
vt 0.5776367 0.9179688
vt 0.5776367 0.9179688
vt 0.5776367 0.9179688
vt 0.5776367 0.9179688
vt 0.5776367 0.9179688
vt 0.5776367 0.9179688
vt 0.5776367 0.9179688
vt 0.5776367 0.9179688
vt 0.5776367 0.9179688
vt 0.5776367 0.9179688
vt 0.5776367 0.9179688
vt 0.5776367 0.9179688
vt 0.5776367 0.9179688
vt 0.5776367 0.9179688
vt 0.5776367 0.9179688
vt 0.5776367 0.9179688
vt 0.5776367 0.9179688
vt 0.5776367 0.9179688
vt 0.5776367 0.9179688
vt 0.5776367 0.9179688
vt 0.5776367 0.9179688
vt 0.5776367 0.9179688
vt 0.5776367 0.9179688
vt 0.5776367 0.9179688
vt 0.5776367 0.9179688
vt 0.5776367 0.9179688
vt 0.5776367 0.9179688
vt 0.5776367 0.9179688
vt 0.5776367 0.9179688
vt 0.5776367 0.9179688
vt 0.5776367 0.9179688
vt 0.5776367 0.9179688
vt 0.5776367 0.9179688
vt 0.5776367 0.9179688
vt 0.5776367 0.9179688
vt 0.5776367 0.9179688
vt 0.5776367 0.9179688
vt 0.5776367 0.9179688
vt 0.5776367 0.9179688
vt 0.5776367 0.9179688
vn 0.1281738 0.3928223 -0.9106445
vn 0.002990723 0.3903809 -0.9208984
vn -0.008514404 0.05773926 -0.9985352
vn 0.0597229 0.8798828 -0.4714355
vn 0.03573608 0.05618286 -0.9975586
vn 0.3303223 0.824707 -0.4592285
vn -0.008209229 -0.0001831055 -1
vn 0.4604492 0.875 0.1480713
vn 0.0375061 0.0008850098 -0.9995117
vn 0.1555176 0.9663086 0.2059326
vn 0.4960938 0.6425781 0.5839844
vn 0.2209473 0.7124023 0.6660156
vn -0.005889893 -0.05682373 -0.9985352
vn 0.03845215 -0.05441284 -0.9975586
vn 0.559082 0.3410645 0.7553711
vn 0.2543945 0.3891602 0.8852539
vn 0.1564941 -0.3681641 -0.9165039
vn 0.02093506 -0.3588867 -0.9331055
vn 0.100647 -0.8364258 -0.5385742
vn 0.3847656 -0.7607422 -0.5229492
vn 0.1933594 -0.9707031 0.1436768
vn 0.5336914 -0.84375 0.05621338
vn 0.2583008 0.01202393 0.9658203
vn 0.5932617 0.02194214 0.8046875
vn 0.2276611 -0.7128906 0.6635742
vn 0.5615234 -0.6289063 0.5375977
vn 0.5864258 -0.3044434 0.7504883
vn 0.2469482 -0.3669434 0.8969727
vn 0.5336914 -0.84375 0.05621338
vn 0.7319336 -0.5087891 -0.4533691
vn 0.3847656 -0.7607422 -0.5229492
vn 0.1564941 -0.3681641 -0.9165039
vn 0.8413086 -0.5405273 0.0151062
vn 0.5615234 -0.6289063 0.5375977
vn 0.432373 -0.3066406 -0.8481445
vn 0.03845215 -0.05441284 -0.9975586
vn 0.451416 -0.09228516 -0.8876953
vn 0.0375061 0.0008850098 -0.9995117
vn 0.8945313 -0.1739502 -0.4118652
vn 0.9760742 -0.2041016 0.07452393
vn 0.8105469 -0.4550781 0.3684082
vn 0.8598633 -0.2124023 0.4638672
vn 0.5864258 -0.3044434 0.7504883
vn 0.5932617 0.02194214 0.8046875
vn 0.8623047 0.04037476 0.5043945
vn 0.559082 0.3410645 0.7553711
vn 0.4492188 0.02035522 -0.8930664
vn 0.03573608 0.05618286 -0.9975586
vn 0.9921875 0.04354858 0.1154175
vn 0.815918 0.2878418 0.5009766
vn 0.4960938 0.6425781 0.5839844
vn 0.9106445 0.03970337 -0.4108887
vn 0.4465332 0.1262207 -0.8857422
vn 0.1281738 0.3928223 -0.9106445
vn 0.8852539 0.2398682 -0.3989258
vn 0.4143066 0.3500977 -0.840332
vn 0.3303223 0.824707 -0.4592285
vn 0.6992188 0.5820313 -0.4147949
vn 0.7822266 0.6152344 0.09692383
vn 0.4604492 0.875 0.1480713
vn 0.9536133 0.2807617 0.1077881
vn 0.7319336 0.5175781 0.4431152
vn -0.180542 -0.4006348 -0.8984375
vn -0.3637695 -0.8139648 -0.453125
vn -0.1063232 -0.8500977 -0.515625
vn -0.4055176 -0.9047852 0.1304932
vn -0.04934692 -0.3681641 -0.9287109
vn -0.1005249 -0.9819336 0.15979
vn -0.05075073 -0.05935669 -0.9970703
vn -0.0128479 -0.05764771 -0.9980469
vn -0.388916 -0.7084961 0.5888672
vn -0.01239014 0.0003356934 -1
vn -0.05212402 0.003234863 -0.9985352
vn -0.06213379 0.06634521 -0.9960938
vn -0.01727295 0.05950928 -0.9980469
vn -0.0748291 0.4050293 -0.9111328
vn -0.2358398 0.4311523 -0.8710938
vn -0.1433105 0.8793945 -0.4543457
vn -0.4084473 0.8198242 -0.401123
vn -0.1195068 0.9731445 0.1976318
vn -0.4248047 0.8935547 0.1464844
vn -0.06378174 0.7441406 0.6650391
vn -0.3830566 0.7192383 0.5800781
vn -0.05078125 0.409668 0.9106445
vn -0.4169922 0.3930664 0.8193359
vn -0.05886841 0.007995605 0.9980469
vn -0.4487305 0.009796143 0.8935547
vn -0.06378174 -0.3879395 0.9194336
vn -0.4284668 -0.3720703 0.8232422
vn -0.2250977 -0.7348633 0.6396484
vn -0.07330322 -0.7353516 0.6738281
vn -0.4248047 0.8935547 0.1464844
vn -0.7211914 0.6030273 -0.340332
vn -0.4084473 0.8198242 -0.401123
vn -0.2358398 0.4311523 -0.8710938
vn -0.7475586 0.6582031 0.08752441
vn -0.3830566 0.7192383 0.5800781
vn -0.671875 0.6069336 0.4243164
vn -0.7739258 0.3483887 0.5292969
vn -0.4169922 0.3930664 0.8193359
vn -0.9316406 0.3474121 0.1048584
vn -0.8188477 0.02194214 0.5737305
vn -0.4487305 0.009796143 0.8935547
vn -0.4284668 -0.3720703 0.8232422
vn -0.482666 0.3686523 -0.7944336
vn -0.8881836 0.3034668 -0.345459
vn -0.4914551 0.1696777 -0.8540039
vn -0.06213379 0.06634521 -0.9960938
vn -0.4951172 0.02877808 -0.8681641
vn -0.05212402 0.003234863 -0.9985352
vn -0.9902344 0.03842163 0.1322021
vn -0.7832031 -0.315918 0.5351563
vn -0.4914551 -0.1274414 -0.8613281
vn -0.90625 -0.2415771 -0.347168
vn -0.05075073 -0.05935669 -0.9970703
vn -0.180542 -0.4006348 -0.8984375
vn -0.9311523 0.04568481 -0.3615723
vn -0.4621582 -0.357666 -0.8115234
vn -0.3637695 -0.8139648 -0.453125
vn -0.7045898 -0.6040039 -0.3725586
vn -0.4055176 -0.9047852 0.1304932
vn -0.7495117 -0.6557617 0.09429932
vn -0.388916 -0.7084961 0.5888672
vn -0.9487305 -0.2939453 0.1172485
vn -0.6787109 -0.5917969 0.4353027
vn 0.02093506 -0.3588867 -0.9331055
vn -0.0128479 -0.05764771 -0.9980469
vn -0.04934692 -0.3681641 -0.9287109
vn -0.1063232 -0.8500977 -0.515625
vn -0.005889893 -0.05682373 -0.9985352
vn 0.100647 -0.8364258 -0.5385742
vn -0.01239014 0.0003356934 -1
vn -0.1005249 -0.9819336 0.15979
vn -0.008209229 -0.0001831055 -1
vn 0.1933594 -0.9707031 0.1436768
vn -0.01727295 0.05950928 -0.9980469
vn -0.008514404 0.05773926 -0.9985352
vn -0.0748291 0.4050293 -0.9111328
vn 0.002990723 0.3903809 -0.9208984
vn -0.07330322 -0.7353516 0.6738281
vn 0.2276611 -0.7128906 0.6635742
vn 0.2469482 -0.3669434 0.8969727
vn -0.06378174 -0.3879395 0.9194336
vn 0.2583008 0.01202393 0.9658203
vn -0.05886841 0.007995605 0.9980469
vn 0.2543945 0.3891602 0.8852539
vn -0.05078125 0.409668 0.9106445
vn -0.1433105 0.8793945 -0.4543457
vn 0.0597229 0.8798828 -0.4714355
vn 0.1555176 0.9663086 0.2059326
vn -0.1195068 0.9731445 0.1976318
vn 0.2209473 0.7124023 0.6660156
vn -0.06378174 0.7441406 0.6650391
g Bush_E_01_LOD2_0
f 3/3/3 2/2/2 1/1/1
f 1/1/1 2/2/2 4/4/4
f 5/5/5 3/3/3 1/1/1
f 6/6/6 1/1/1 4/4/4
f 7/7/7 3/3/3 5/5/5
f 6/6/6 4/4/4 8/8/8
f 9/9/9 7/7/7 5/5/5
f 4/4/4 10/10/10 8/8/8
f 8/8/8 10/10/10 11/11/11
f 10/10/10 12/12/12 11/11/11
f 13/13/13 7/7/7 9/9/9
f 14/14/14 13/13/13 9/9/9
f 15/15/15 11/11/11 12/12/12
f 16/16/16 15/15/15 12/12/12
f 14/14/14 17/17/17 13/13/13
f 17/17/17 18/18/18 13/13/13
f 18/18/18 17/17/17 19/19/19
f 17/17/17 20/20/20 19/19/19
f 19/19/19 20/20/20 21/21/21
f 20/20/20 22/22/22 21/21/21
f 15/15/15 16/16/16 23/23/23
f 24/24/24 15/15/15 23/23/23
f 21/21/21 22/22/22 25/25/25
f 22/22/22 26/26/26 25/25/25
f 27/27/27 24/24/24 23/23/23
f 26/26/26 27/27/27 25/25/25
f 28/28/28 27/27/27 23/23/23
f 27/27/27 28/28/28 25/25/25
f 31/31/31 30/30/30 29/29/29
f 30/30/30 31/31/31 32/32/32
f 30/30/30 33/33/33 29/29/29
f 29/29/29 33/33/33 34/34/34
f 35/35/35 30/30/30 32/32/32
f 35/35/35 32/32/32 36/36/36
f 37/37/37 35/35/35 36/36/36
f 36/36/36 38/38/38 37/37/37
f 30/30/30 35/35/35 39/39/39
f 35/35/35 37/37/37 39/39/39
f 33/33/33 30/30/30 40/40/40
f 30/30/30 39/39/39 40/40/40
f 33/33/33 41/41/41 34/34/34
f 33/33/33 40/40/40 41/41/41
f 41/41/41 42/42/42 34/34/34
f 40/40/40 42/42/42 41/41/41
f 42/42/42 43/43/43 34/34/34
f 43/43/43 42/42/42 44/44/44
f 42/42/42 45/45/45 44/44/44
f 42/42/42 40/40/40 45/45/45
f 44/44/44 45/45/45 46/46/46
f 38/38/38 47/47/47 37/37/37
f 47/47/47 38/38/38 48/48/48
f 40/40/40 39/39/39 49/49/49
f 40/40/40 49/49/49 45/45/45
f 45/45/45 50/50/50 46/46/46
f 45/45/45 49/49/49 50/50/50
f 46/46/46 50/50/50 51/51/51
f 39/39/39 37/37/37 52/52/52
f 37/37/37 47/47/47 52/52/52
f 39/39/39 52/52/52 49/49/49
f 53/53/53 47/47/47 48/48/48
f 48/48/48 54/54/54 53/53/53
f 55/55/55 52/52/52 47/47/47
f 52/52/52 55/55/55 49/49/49
f 53/53/53 55/55/55 47/47/47
f 54/54/54 56/56/56 53/53/53
f 54/54/54 57/57/57 56/56/56
f 53/53/53 56/56/56 58/58/58
f 57/57/57 58/58/58 56/56/56
f 55/55/55 53/53/53 58/58/58
f 58/58/58 57/57/57 59/59/59
f 55/55/55 58/58/58 59/59/59
f 57/57/57 60/60/60 59/59/59
f 55/55/55 61/61/61 49/49/49
f 61/61/61 55/55/55 59/59/59
f 49/49/49 61/61/61 50/50/50
f 61/61/61 59/59/59 50/50/50
f 59/59/59 60/60/60 62/62/62
f 59/59/59 62/62/62 50/50/50
f 60/60/60 51/51/51 62/62/62
f 50/50/50 62/62/62 51/51/51
f 65/65/65 64/64/64 63/63/63
f 64/64/64 65/65/65 66/66/66
f 67/67/67 65/65/65 63/63/63
f 65/65/65 68/68/68 66/66/66
f 63/63/63 69/69/69 67/67/67
f 69/69/69 70/70/70 67/67/67
f 71/71/71 66/66/66 68/68/68
f 70/70/70 69/69/69 72/72/72
f 69/69/69 73/73/73 72/72/72
f 73/73/73 74/74/74 72/72/72
f 74/74/74 75/75/75 72/72/72
f 75/75/75 74/74/74 76/76/76
f 74/74/74 77/77/77 76/76/76
f 76/76/76 77/77/77 78/78/78
f 77/77/77 79/79/79 78/78/78
f 78/78/78 79/79/79 80/80/80
f 79/79/79 81/81/81 80/80/80
f 80/80/80 81/81/81 82/82/82
f 81/81/81 83/83/83 82/82/82
f 84/84/84 82/82/82 83/83/83
f 85/85/85 84/84/84 83/83/83
f 86/86/86 84/84/84 85/85/85
f 87/87/87 86/86/86 85/85/85
f 88/88/88 86/86/86 87/87/87
f 89/89/89 88/88/88 87/87/87
f 88/88/88 89/89/89 90/90/90
f 90/90/90 91/91/91 88/88/88
f 89/89/89 71/71/71 90/90/90
f 91/91/91 90/90/90 71/71/71
f 68/68/68 91/91/91 71/71/71
f 94/94/94 93/93/93 92/92/92
f 93/93/93 94/94/94 95/95/95
f 93/93/93 96/96/96 92/92/92
f 92/92/92 96/96/96 97/97/97
f 96/96/96 98/98/98 97/97/97
f 97/97/97 98/98/98 99/99/99
f 100/100/100 97/97/97 99/99/99
f 96/96/96 101/101/101 98/98/98
f 101/101/101 99/99/99 98/98/98
f 96/96/96 93/93/93 101/101/101
f 99/99/99 102/102/102 100/100/100
f 99/99/99 101/101/101 102/102/102
f 102/102/102 103/103/103 100/100/100
f 104/104/104 103/103/103 102/102/102
f 105/105/105 93/93/93 95/95/95
f 93/93/93 106/106/106 101/101/101
f 106/106/106 93/93/93 105/105/105
f 107/107/107 105/105/105 95/95/95
f 107/107/107 106/106/106 105/105/105
f 108/108/108 107/107/107 95/95/95
f 109/109/109 107/107/107 108/108/108
f 107/107/107 109/109/109 106/106/106
f 110/110/110 109/109/109 108/108/108
f 101/101/101 111/111/111 102/102/102
f 101/101/101 106/106/106 111/111/111
f 112/112/112 104/104/104 102/102/102
f 102/102/102 111/111/111 112/112/112
f 113/113/113 109/109/109 110/110/110
f 113/113/113 114/114/114 109/109/109
f 115/115/115 113/113/113 110/110/110
f 115/115/115 116/116/116 113/113/113
f 109/109/109 117/117/117 106/106/106
f 106/106/106 117/117/117 111/111/111
f 114/114/114 117/117/117 109/109/109
f 117/117/117 114/114/114 111/111/111
f 116/116/116 118/118/118 113/113/113
f 114/114/114 113/113/113 118/118/118
f 116/116/116 119/119/119 118/118/118
f 119/119/119 120/120/120 118/118/118
f 120/120/120 114/114/114 118/118/118
f 119/119/119 121/121/121 120/120/120
f 121/121/121 122/122/122 120/120/120
f 120/120/120 122/122/122 114/114/114
f 121/121/121 123/123/123 122/122/122
f 114/114/114 124/124/124 111/111/111
f 122/122/122 124/124/124 114/114/114
f 111/111/111 124/124/124 112/112/112
f 124/124/124 122/122/122 112/112/112
f 123/123/123 125/125/125 122/122/122
f 122/122/122 125/125/125 112/112/112
f 125/125/125 123/123/123 104/104/104
f 112/112/112 125/125/125 104/104/104
f 128/128/128 127/127/127 126/126/126
f 128/128/128 126/126/126 129/129/129
f 127/127/127 130/130/130 126/126/126
f 126/126/126 131/131/131 129/129/129
f 130/130/130 127/127/127 132/132/132
f 129/129/129 131/131/131 133/133/133
f 134/134/134 130/130/130 132/132/132
f 131/131/131 135/135/135 133/133/133
f 132/132/132 136/136/136 134/134/134
f 136/136/136 137/137/137 134/134/134
f 137/137/137 136/136/136 138/138/138
f 139/139/139 137/137/137 138/138/138
f 133/133/133 135/135/135 140/140/140
f 135/135/135 141/141/141 140/140/140
f 141/141/141 142/142/142 140/140/140
f 142/142/142 143/143/143 140/140/140
f 143/143/143 142/142/142 144/144/144
f 145/145/145 143/143/143 144/144/144
f 144/144/144 146/146/146 145/145/145
f 146/146/146 147/147/147 145/145/145
f 138/138/138 148/148/148 139/139/139
f 148/148/148 149/149/149 139/139/139
f 149/149/149 148/148/148 150/150/150
f 148/148/148 151/151/151 150/150/150
f 147/147/147 146/146/146 152/152/152
f 150/150/150 151/151/151 152/152/152
f 153/153/153 147/147/147 152/152/152
f 151/151/151 153/153/153 152/152/152
