g Cylinder001
v 3.270618 4.738309 0
v 0.6499672 5.352967 5.55853
v 0.6939862 5.715496 0
v 3.063165 4.437761 5.55853
v 5.097991 2.675632 0
v 0.6876979 5.663707 9.794336
v 4.774629 2.505919 5.55853
v 5.757475 -1.614688E-08 0
v 3.240983 4.695374 9.794336
v 5.392282 0 5.55853
v 5.097992 -2.67563 0
v 1.616372 5.370368 12.86475
v -1.174521 5.745602 14.76257
v 1.276095 5.027303 20.47293
v 3.040381 4.601856 21.25501
v 5.051797 2.651388 9.794336
v 4.77463 -2.505917 5.55853
v 3.27062 -4.738309 0
v 3.253987 4.845615 13.38613
v 4.447262 3.93993 12.86475
v 5.705305 0 9.794336
v 3.063167 -4.437761 5.55853
v 0.6939873 -5.715497 0
v 0.6499681 -5.352967 5.55853
v 5.051798 -2.651385 9.794336
v 3.240984 -4.695374 9.794336
v 0.6876989 -5.663708 9.794336
v 2.106879 -5.555381 13.01503
v 0.7875012 -6.485653 14.76257
v 2.011855 -5.304822 19.84436
v 3.224323 -4.671236 20.73915
v 3.376615 -4.891869 17.63891
v 4.447264 -3.939929 17.04238
v 5.78494 -3.036168 14.76257
v 4.246683 -3.762231 19.84436
v 3.043196 -2.696035 19.98298
v 2.310567 -3.347433 20.57951
v 1.630479 -0.8557408 14.76257
v 5.768833 -1.421888 12.70542
v 5.508647 -1.357758 18.66033
v 5.675974 2.682209E-07 19.32291
v 3.947527 -0.9729772 18.95376
v 4.067435 1.788139E-07 19.39548
v 3.947526 0.9729779 18.95376
v 5.508646 1.357759 18.66033
v 5.944064 2.682209E-07 13.14714
v 5.768832 1.42189 12.70542
v 5.784939 3.03617 14.76257
v 4.246682 3.762232 20.47293
v 3.043195 2.696036 20.68669
v 1.630479 0.8557413 14.76257
v 2.18794 3.30118 21.20808
v -2.04163 -5.383333 0
v 0.6499681 -5.352967 5.55853
v 0.6939873 -5.715497 0
v -1.91213 -5.041872 5.55853
v -4.309533 -3.817912 0
v 0.6876989 -5.663708 9.794336
v -4.036182 -3.575744 5.55853
v -5.590174 -1.377854 0
v -2.02313 -5.334553 9.794336
v -5.235593 -1.290457 5.55853
v -5.590174 1.377854 0
v -0.7161666 -5.898161 19.08162
v 0.7875012 -6.485653 14.76257
v -0.683866 -5.632142 21.74074
v -2.012729 -5.307129 22.42125
v -4.270483 -3.783317 9.794336
v -5.235593 1.290458 5.55853
v -4.309532 3.817912 0
v -2.107795 -5.557796 19.53529
v -3.375147 -4.889743 19.08162
v -5.53952 -1.365369 9.794336
v -4.036181 3.575745 5.55853
v -2.041629 5.383332 0
v -5.53952 1.365369 9.794336
v -1.91213 5.041872 5.55853
v 0.6939862 5.715496 0
v 0.6499672 5.352967 5.55853
v -4.270483 3.783317 9.794336
v -2.023129 5.334553 9.794336
v 0.6876979 5.663707 9.794336
v -1.84466 5.802455 14.76257
v -1.174521 5.745602 14.76257
v -3.257127 4.813174 12.99986
v -3.045892 4.554353 19.68243
v -4.204272 3.735154 20.56584
v -0.6529697 1.721739 14.76257
v -4.419692 3.922501 17.47698
v -5.260921 2.761144 12.99986
v 0.221956 1.827974 14.76257
v 0.9512 3.616452 20.68669
v 1.276095 5.027303 20.47293
v 3.040381 4.601856 21.25501
v 2.18794 3.30118 21.20808
v 1.046034 1.515443 14.76257
v 3.043195 2.696036 20.68669
v 1.630479 0.8557413 14.76257
v -2.04891E-08 0 14.76257
v -1.378308 1.221074 14.76257
v -1.787893 0.440676 14.76257
v -1.787893 -0.4406758 14.76257
v -1.378308 -1.221074 14.76257
v -0.6529698 -1.721739 14.76257
v 0.2219564 -1.827974 14.76257
v 1.8414 0 14.76257
v 3.947526 0.9729779 18.95376
v 5.784939 3.03617 14.76257
v 5.508646 1.357759 18.66033
v 4.067435 1.788139E-07 19.39548
v 3.947527 -0.9729772 18.95376
v 1.630479 -0.8557408 14.76257
v 5.78494 -3.036168 14.76257
v 5.508647 -1.357758 18.66033
v 1.046035 -1.515442 14.76257
v 3.043196 -2.696035 19.98298
v 2.310567 -3.347433 20.57951
v 1.441706 -3.801465 19.98298
v 0.7875012 -6.485653 14.76257
v 3.224323 -4.671236 20.73915
v 2.011855 -5.304822 19.84436
v -3.015014 2.678066 20.41758
v -3.59997 1.88941 19.82864
v -5.023643 2.636611 19.68243
v -6.343443 1.563518 14.76257
v -1.787893 0.440676 14.76257
v -5.941481 1.788139E-07 12.90904
v -5.673509 1.192093E-07 19.3902
v -4.065668 1.192093E-07 19.58182
v -5.511042 -1.35835 20.20551
v -3.949244 -0.9734007 20.12535
v -5.771341 -1.422507 17.18475
v -5.260921 -2.761143 12.90904
v -5.023643 -2.63661 19.3902
v -4.890237 -4.332371 14.76257
v -3.222921 -4.669206 21.74074
v -2.309563 -3.345978 22.02221
v -1.378308 -1.221074 14.76257
v -1.442333 -3.803118 22.47589
v -1.787893 0.440676 14.76257
v -3.59997 1.88941 19.82864
v -1.378308 1.221074 14.76257
v -3.015014 2.678066 20.41758
v -2.191543 3.26941 19.82864
v -4.204272 3.735154 20.56584
v -0.6529697 1.721739 14.76257
v -3.045892 4.554353 19.68243
v -1.84466 5.802455 14.76257
v -1.787893 0.440676 14.76257
v -4.065668 1.192093E-07 19.58182
v -6.343443 1.563518 14.76257
v -1.787893 -0.4406758 14.76257
v -3.949244 -0.9734007 20.12535
v -3.59997 -1.88941 19.58182
v -1.378308 -1.221074 14.76257
v -5.511042 -1.35835 20.20551
v -4.890237 -4.332371 14.76257
v -5.023643 -2.63661 19.3902
v -0.6529698 -1.721739 14.76257
v -2.309563 -3.345978 22.02221
v -1.378308 -1.221074 14.76257
v -1.442333 -3.803118 22.47589
v -0.4900622 -4.036024 22.02221
v 0.2219564 -1.827974 14.76257
v -2.012729 -5.307129 22.42125
v 0.7875012 -6.485653 14.76257
v -0.683866 -5.632142 21.74074
v 2.878737 -1.614688E-08 0
v 5.757475 -1.614688E-08 0
v 5.097991 2.675632 0
v 2.548995 1.337816 0
v 3.270618 4.738309 0
v 2.548996 -1.337815 0
v 5.097992 -2.67563 0
v 4.036721E-09 -1.614688E-08 0
v 1.635309 2.369154 0
v 0.6939862 5.715496 0
v 1.63531 -2.369154 0
v 0.3469931 2.857748 0
v 0.3469936 -2.857748 0
v 3.27062 -4.738309 0
v -2.041629 5.383332 0
v 0.6939873 -5.715497 0
v -1.020814 2.691666 0
v -4.309532 3.817912 0
v -1.020815 -2.691666 0
v -2.04163 -5.383333 0
v -2.154766 1.908956 0
v -5.590174 1.377854 0
v -2.154766 -1.908956 0
v -4.309533 -3.817912 0
v -2.795087 0.688927 0
v -5.590174 -1.377854 0
v -2.795087 -0.6889268 0
vt 0.887207 0.1806641
vt 0.90625 0.3540039
vt 0.9174805 0.1806641
vt 0.8779297 0.3540039
vt 0.8227539 0.1806641
vt 0.9160156 0.486084
vt 0.8173828 0.3540039
vt 0.7392578 0.1806641
vt 0.8857422 0.486084
vt 0.7392578 0.3540039
vt 0.6557617 0.1806641
vt 0.9067383 0.581543
vt 0.918457 0.6411133
vt 0.8959961 0.8188477
vt 0.8828125 0.8432617
vt 0.8222656 0.486084
vt 0.6611328 0.3540039
vt 0.5917969 0.1806641
vt 0.890625 0.5981445
vt 0.8623047 0.581543
vt 0.7392578 0.486084
vt 0.6010742 0.3540039
vt 0.5610352 0.1806641
vt 0.5722656 0.3540039
vt 0.6567383 0.486084
vt 0.5927734 0.486084
vt 0.5629883 0.486084
vt 0.5664063 0.5864258
vt 0.5371094 0.6411133
vt 0.5742188 0.7993164
vt 0.59375 0.8271484
vt 0.5869141 0.7304688
vt 0.6166992 0.7119141
vt 0.6445313 0.6411133
vt 0.6220703 0.7993164
vt 0.6552734 0.8037109
vt 0.6352539 0.8222656
vt 0.7128906 0.6411133
vt 0.6953125 0.5766602
vt 0.6972656 0.7626953
vt 0.7392578 0.7832031
vt 0.7089844 0.7714844
vt 0.7392578 0.7851563
vt 0.7695313 0.7714844
vt 0.7817383 0.7626953
vt 0.7392578 0.590332
vt 0.7836914 0.5766602
vt 0.8339844 0.6411133
vt 0.8569336 0.8188477
vt 0.8232422 0.8256836
vt 0.7661133 0.6411133
vt 0.8422852 0.8417969
vt 0.5703125 0.1785889
vt 0.5712891 0.3522949
vt 0.5600586 0.1785889
vt 0.5810547 0.3522949
vt 0.6191406 0.1785889
vt 0.5615234 0.4848633
vt 0.6269531 0.3522949
vt 0.6958008 0.1785889
vt 0.5717773 0.4848633
vt 0.6987305 0.3522949
vt 0.7822266 0.1785889
vt 0.5541992 0.7753906
vt 0.5356445 0.6401367
vt 0.5625 0.8583984
vt 0.5727539 0.8798828
vt 0.6206055 0.4848633
vt 0.7792969 0.3522949
vt 0.8583984 0.1785889
vt 0.5649414 0.7895508
vt 0.5859375 0.7753906
vt 0.6962891 0.4848633
vt 0.8510742 0.3522949
vt 0.9077148 0.1785889
vt 0.7817383 0.4848633
vt 0.8969727 0.3522949
vt 0.9179688 0.1785889
vt 0.9067383 0.3522949
vt 0.8574219 0.4848633
vt 0.90625 0.4848633
vt 0.9165039 0.4848633
vt 0.9208984 0.6401367
vt 0.9189453 0.6401367
vt 0.8896484 0.5849609
vt 0.8818359 0.7939453
vt 0.855957 0.8217773
vt 0.7929688 0.6401367
vt 0.8618164 0.7250977
vt 0.8256836 0.5849609
vt 0.7963867 0.6401367
vt 0.8520508 0.8256836
vt 0.8964844 0.8188477
vt 0.8833008 0.8432617
vt 0.8422852 0.8417969
vt 0.7866211 0.6401367
vt 0.8232422 0.8256836
vt 0.765625 0.6401367
vt 0.7387695 0.6401367
vt 0.7773438 0.6401367
vt 0.7529297 0.6401367
vt 0.7250977 0.6401367
vt 0.7006836 0.6401367
vt 0.6850586 0.6401367
vt 0.6816406 0.6401367
vt 0.7387695 0.6401367
vt 0.7695313 0.7714844
vt 0.8339844 0.6401367
vt 0.7817383 0.762207
vt 0.7387695 0.7851563
vt 0.7084961 0.7714844
vt 0.7119141 0.6401367
vt 0.644043 0.6401367
vt 0.6962891 0.762207
vt 0.6914063 0.6401367
vt 0.6542969 0.8037109
vt 0.6342773 0.8222656
vt 0.6196289 0.8037109
vt 0.5356445 0.6401367
vt 0.5927734 0.8271484
vt 0.5727539 0.7993164
vt 0.8227539 0.8168945
vt 0.7983398 0.7988281
vt 0.8217773 0.7939453
vt 0.7880859 0.6401367
vt 0.7529297 0.6401367
vt 0.7387695 0.5820313
vt 0.7387695 0.7851563
vt 0.7387695 0.7910156
vt 0.6962891 0.8105469
vt 0.7084961 0.8081055
vt 0.6943359 0.7158203
vt 0.6523438 0.5820313
vt 0.65625 0.7851563
vt 0.6030273 0.6401367
vt 0.5927734 0.8583984
vt 0.6342773 0.8671875
vt 0.7006836 0.6401367
vt 0.6196289 0.8813477
vt 0.7529297 0.6411133
vt 0.7983398 0.7988281
vt 0.7773438 0.6411133
vt 0.8227539 0.8173828
vt 0.8413086 0.7988281
vt 0.855957 0.8217773
vt 0.7929688 0.6411133
vt 0.8813477 0.7944336
vt 0.9204102 0.6411133
vt 0.7529297 0.6411133
vt 0.7392578 0.7910156
vt 0.7880859 0.6411133
vt 0.7255859 0.6411133
vt 0.7089844 0.8081055
vt 0.6806641 0.7910156
vt 0.7011719 0.6411133
vt 0.6972656 0.8105469
vt 0.6044922 0.6411133
vt 0.6572266 0.7851563
vt 0.6855469 0.6411133
vt 0.6352539 0.8671875
vt 0.7011719 0.6411133
vt 0.6206055 0.8813477
vt 0.6137695 0.8671875
vt 0.6826172 0.6411133
vt 0.5737305 0.8798828
vt 0.5371094 0.6411133
vt 0.5639648 0.8583984
vt 0.3405762 0.512207
vt 0.4313965 0.512207
vt 0.4106445 0.4279785
vt 0.3303223 0.4702148
vt 0.3530273 0.3630371
vt 0.3303223 0.5546875
vt 0.4106445 0.5966797
vt 0.2498779 0.512207
vt 0.3015137 0.4377441
vt 0.2717285 0.3320313
vt 0.3015137 0.5869141
vt 0.2607422 0.4221191
vt 0.2607422 0.6025391
vt 0.3530273 0.6616211
vt 0.1854248 0.3425293
vt 0.2717285 0.6923828
vt 0.2176514 0.4274902
vt 0.1139526 0.3918457
vt 0.2176514 0.597168
vt 0.1854248 0.6821289
vt 0.1818848 0.4521484
vt 0.07354736 0.4689941
vt 0.1818848 0.5727539
vt 0.1139526 0.6328125
vt 0.1617432 0.4907227
vt 0.07354736 0.5556641
vt 0.1617432 0.5341797
vn 0.4399414 0.6376953 -0.6323242
vn 0.1205444 0.9926758 -0.004123688
vn 0.09338379 0.769043 -0.6323242
vn 0.5678711 0.8227539 -0.004123688
vn 0.6860352 0.3601074 -0.6323242
vn 0.1347656 0.9897461 -0.04904175
vn 0.8852539 0.4645996 -0.004123688
vn 0.7744141 0 -0.6323242
vn 0.5527344 0.8305664 -0.07019043
vn 1 0 -0.004123688
vn 0.6860352 -0.3601074 -0.6323242
vn 0.241333 0.9702148 0.01953125
vn -0.2160645 0.8413086 0.4958496
vn -0.3603516 0.7607422 0.5400391
vn 0.3239746 0.5507813 0.7695313
vn 0.8793945 0.4628906 -0.1099854
vn 0.8852539 -0.4645996 -0.004123688
vn 0.4399414 -0.6376953 -0.6323242
vn 0.4460449 0.8950195 0.009880066
vn 0.6455078 0.7607422 -0.0657959
vn 0.9951172 0 -0.09747314
vn 0.5678711 -0.8227539 -0.004123688
vn 0.09338379 -0.769043 -0.6323242
vn 0.1205444 -0.9926758 -0.004123688
vn 0.8754883 -0.4746094 -0.09185791
vn 0.5751953 -0.8144531 -0.07574463
vn 0.1066895 -0.9907227 -0.08563232
vn 0.4851074 -0.871582 -0.07098389
vn -0.01573181 -0.9990234 0.03756714
vn -0.3225098 -0.8212891 0.4709473
vn 0.3098145 -0.480957 0.8203125
vn 0.5424805 -0.8388672 0.04577637
vn 0.6567383 -0.7529297 0.03378296
vn 0.8510742 -0.5200195 0.07409668
vn 0.8691406 -0.001288414 0.494873
vn 0.1707764 0.8051758 0.5678711
vn -0.2875977 0.416748 0.8623047
vn -0.4375 0.2521973 0.8632813
vn 0.9873047 -0.1401367 -0.07366943
vn 0.5493164 -0.6513672 0.5234375
vn 0.6523438 0 0.7578125
vn -0.4968262 -0.5639648 0.659668
vn -0.4262695 0 0.9047852
vn -0.4968262 0.5639648 0.659668
vn 0.5493164 0.6513672 0.5234375
vn 1 0 -0.002462387
vn 0.9873047 0.1401367 -0.07366943
vn 0.8852539 0.4509277 0.1149292
vn 0.8696289 0.07922363 0.4870605
vn 0.1953125 -0.7851563 0.5874023
vn -0.4423828 -0.2666016 0.8564453
vn -0.2043457 -0.4458008 0.871582
vn -0.2746582 -0.7241211 -0.6323242
vn 0.1205444 -0.9926758 -0.004123688
vn 0.09338379 -0.769043 -0.6323242
vn -0.3544922 -0.9350586 -0.004123688
vn -0.5795898 -0.5136719 -0.6323242
vn 0.1066895 -0.9907227 -0.08563232
vn -0.7485352 -0.6630859 -0.004123688
vn -0.7519531 -0.1854248 -0.6323242
vn -0.3540039 -0.9335938 -0.0579834
vn -0.9707031 -0.2392578 -0.004123688
vn -0.7519531 0.1854248 -0.6323242
vn -0.1815186 -0.9819336 0.05084229
vn -0.01573181 -0.9990234 0.03756714
vn 0.4926758 -0.7211914 0.4870605
vn -0.223877 -0.590332 0.7753906
vn -0.7363281 -0.6713867 -0.08648682
vn -0.9707031 0.2392578 -0.004123688
vn -0.5795898 0.5136719 -0.6323242
vn -0.354248 -0.934082 0.04769897
vn -0.5151367 -0.8554688 0.05084229
vn -0.9672852 -0.2384033 -0.08935547
vn -0.7485352 0.6630859 -0.004123688
vn -0.2746582 0.7241211 -0.6323242
vn -0.965332 0.2385254 -0.1071167
vn -0.3544922 0.9350586 -0.004123688
vn 0.09338379 0.769043 -0.6323242
vn 0.1205444 0.9926758 -0.004123688
vn -0.7421875 0.6655273 -0.07983398
vn -0.3452148 0.9355469 -0.0748291
vn 0.1347656 0.9897461 -0.04904175
vn -0.0993042 0.9404297 0.3259277
vn -0.2160645 0.8413086 0.4958496
vn -0.5961914 0.8022461 -0.03120422
vn 0.1591797 0.8618164 0.4816895
vn -0.4255371 0.4003906 0.8115234
vn 0.3427734 -0.1428223 0.9287109
vn -0.7055664 0.706543 0.05172729
vn -0.8041992 0.5898438 -0.06945801
vn -0.3251953 -0.3381348 0.8833008
vn -0.6923828 -0.3110352 0.6508789
vn -0.3603516 0.7607422 0.5400391
vn 0.3239746 0.5507813 0.7695313
vn -0.2043457 -0.4458008 0.871582
vn -0.3466797 -0.5234375 0.7783203
vn 0.1953125 -0.7851563 0.5874023
vn -0.4423828 -0.2666016 0.8564453
vn 0 0 1
vn 0.4453125 -0.401123 0.800293
vn 0.5 -0.1278076 0.8564453
vn 0.5698242 0.1405029 0.8095703
vn 0.3874512 0.3864746 0.8369141
vn 0.2279053 0.6010742 0.7661133
vn -0.04177856 0.5532227 0.8320313
vn -0.5629883 0 0.8266602
vn -0.4968262 0.5639648 0.659668
vn 0.8852539 0.4509277 0.1149292
vn 0.5493164 0.6513672 0.5234375
vn -0.4262695 0 0.9047852
vn -0.4968262 -0.5639648 0.659668
vn -0.4375 0.2521973 0.8632813
vn 0.8510742 -0.5200195 0.07409668
vn 0.5493164 -0.6513672 0.5234375
vn -0.3405762 0.4934082 0.800293
vn 0.1707764 0.8051758 0.5678711
vn -0.2875977 0.416748 0.8623047
vn -0.8134766 0.1258545 0.5678711
vn -0.01573181 -0.9990234 0.03756714
vn 0.3098145 -0.480957 0.8203125
vn -0.3225098 -0.8212891 0.4709473
vn 0.3566895 -0.3461914 0.8676758
vn 0.01161194 -0.8203125 0.5717773
vn -0.8554688 -0.2021484 0.4763184
vn -0.965332 0.2357178 0.1113892
vn 0.5 -0.1278076 0.8564453
vn -0.987793 -0.1387939 -0.07281494
vn -0.6601563 0.5717773 0.4870605
vn 0.3864746 0.7011719 0.5996094
vn -0.581543 -0.1433105 0.8007813
vn 0.4655762 0.1147461 0.8774414
vn -0.9697266 -0.2390137 0.04766846
vn -0.9389648 -0.3361816 -0.07281494
vn -0.3188477 -0.8129883 0.4870605
vn -0.652832 -0.7563477 0.04458618
vn -0.847168 -0.2131348 0.4870605
vn -0.3322754 0.7333984 0.5927734
vn 0.3874512 0.3864746 0.8369141
vn 0.1728516 0.4558105 0.8730469
vn 0.5 -0.1278076 0.8564453
vn 0.01161194 -0.8203125 0.5717773
vn 0.4453125 -0.401123 0.800293
vn 0.3566895 -0.3461914 0.8676758
vn 0.8076172 0.01622009 0.5898438
vn -0.4255371 0.4003906 0.8115234
vn 0.3427734 -0.1428223 0.9287109
vn 0.1591797 0.8618164 0.4816895
vn -0.0993042 0.9404297 0.3259277
vn 0.5 -0.1278076 0.8564453
vn 0.3864746 0.7011719 0.5996094
vn -0.965332 0.2357178 0.1113892
vn 0.5698242 0.1405029 0.8095703
vn 0.4655762 0.1147461 0.8774414
vn 0.6679688 -0.440918 0.5996094
vn 0.3874512 0.3864746 0.8369141
vn -0.581543 -0.1433105 0.8007813
vn -0.652832 -0.7563477 0.04458618
vn -0.3188477 -0.8129883 0.4870605
vn 0.2279053 0.6010742 0.7661133
vn -0.3322754 0.7333984 0.5927734
vn 0.3874512 0.3864746 0.8369141
vn 0.1728516 0.4558105 0.8730469
vn 0.7353516 0.3288574 0.5927734
vn -0.04177856 0.5532227 0.8320313
vn -0.223877 -0.590332 0.7753906
vn -0.01573181 -0.9990234 0.03756714
vn 0.4926758 -0.7211914 0.4870605
vn 0 0 -1
vn 0.7744141 0 -0.6323242
vn 0.6860352 0.3601074 -0.6323242
vn 0 0 -1
vn 0.4399414 0.6376953 -0.6323242
vn 0 0 -1
vn 0.6860352 -0.3601074 -0.6323242
vn 0 0 -1
vn 0 0 -1
vn 0.09338379 0.769043 -0.6323242
vn 0 0 -1
vn 0 0 -1
vn 0 0 -1
vn 0.4399414 -0.6376953 -0.6323242
vn -0.2746582 0.7241211 -0.6323242
vn 0.09338379 -0.769043 -0.6323242
vn 0 0 -1
vn -0.5795898 0.5136719 -0.6323242
vn 0 0 -1
vn -0.2746582 -0.7241211 -0.6323242
vn 0 0 -1
vn -0.7519531 0.1854248 -0.6323242
vn 0 0 -1
vn -0.5795898 -0.5136719 -0.6323242
vn 0 0 -1
vn -0.7519531 -0.1854248 -0.6323242
vn 0 0 -1
g Cylinder001_0
f 3/3/3 2/2/2 1/1/1
f 2/2/2 4/4/4 1/1/1
f 1/1/1 4/4/4 5/5/5
f 2/2/2 6/6/6 4/4/4
f 4/4/4 7/7/7 5/5/5
f 5/5/5 7/7/7 8/8/8
f 6/6/6 9/9/9 4/4/4
f 4/4/4 9/9/9 7/7/7
f 7/7/7 10/10/10 8/8/8
f 8/8/8 10/10/10 11/11/11
f 6/6/6 12/12/12 9/9/9
f 13/13/13 12/12/12 6/6/6
f 14/14/14 12/12/12 13/13/13
f 12/12/12 14/14/14 15/15/15
f 7/7/7 16/16/16 10/10/10
f 9/9/9 16/16/16 7/7/7
f 10/10/10 17/17/17 11/11/11
f 11/11/11 17/17/17 18/18/18
f 9/9/9 12/12/12 19/19/19
f 19/19/19 12/12/12 15/15/15
f 19/19/19 20/20/20 9/9/9
f 9/9/9 20/20/20 16/16/16
f 20/20/20 19/19/19 15/15/15
f 16/16/16 21/21/21 10/10/10
f 10/10/10 21/21/21 17/17/17
f 17/17/17 22/22/22 18/18/18
f 18/18/18 22/22/22 23/23/23
f 22/22/22 24/24/24 23/23/23
f 17/17/17 25/25/25 22/22/22
f 21/21/21 25/25/25 17/17/17
f 22/22/22 26/26/26 24/24/24
f 25/25/25 26/26/26 22/22/22
f 26/26/26 27/27/27 24/24/24
f 26/26/26 28/28/28 27/27/27
f 27/27/27 28/28/28 29/29/29
f 29/29/29 28/28/28 30/30/30
f 30/30/30 28/28/28 31/31/31
f 32/32/32 28/28/28 26/26/26
f 28/28/28 32/32/32 31/31/31
f 26/26/26 33/33/33 32/32/32
f 25/25/25 33/33/33 26/26/26
f 32/32/32 33/33/33 31/31/31
f 34/34/34 33/33/33 25/25/25
f 33/33/33 35/35/35 31/31/31
f 35/35/35 33/33/33 34/34/34
f 35/35/35 36/36/36 31/31/31
f 34/34/34 36/36/36 35/35/35
f 36/36/36 37/37/37 31/31/31
f 38/38/38 36/36/36 34/34/34
f 25/25/25 39/39/39 34/34/34
f 34/34/34 39/39/39 40/40/40
f 40/40/40 39/39/39 41/41/41
f 42/42/42 40/40/40 41/41/41
f 43/43/43 42/42/42 41/41/41
f 44/44/44 43/43/43 41/41/41
f 21/21/21 39/39/39 25/25/25
f 45/45/45 44/44/44 41/41/41
f 46/46/46 39/39/39 21/21/21
f 39/39/39 46/46/46 41/41/41
f 47/47/47 45/45/45 41/41/41
f 46/46/46 47/47/47 41/41/41
f 21/21/21 47/47/47 46/46/46
f 16/16/16 47/47/47 21/21/21
f 45/45/45 47/47/47 48/48/48
f 48/48/48 47/47/47 16/16/16
f 16/16/16 20/20/20 48/48/48
f 48/48/48 20/20/20 49/49/49
f 49/49/49 20/20/20 15/15/15
f 49/49/49 50/50/50 48/48/48
f 50/50/50 49/49/49 15/15/15
f 48/48/48 50/50/50 51/51/51
f 52/52/52 50/50/50 15/15/15
f 55/55/55 54/54/54 53/53/53
f 54/54/54 56/56/56 53/53/53
f 53/53/53 56/56/56 57/57/57
f 54/54/54 58/58/58 56/56/56
f 56/56/56 59/59/59 57/57/57
f 57/57/57 59/59/59 60/60/60
f 58/58/58 61/61/61 56/56/56
f 56/56/56 61/61/61 59/59/59
f 59/59/59 62/62/62 60/60/60
f 60/60/60 62/62/62 63/63/63
f 58/58/58 64/64/64 61/61/61
f 65/65/65 64/64/64 58/58/58
f 66/66/66 64/64/64 65/65/65
f 64/64/64 66/66/66 67/67/67
f 59/59/59 68/68/68 62/62/62
f 61/61/61 68/68/68 59/59/59
f 62/62/62 69/69/69 63/63/63
f 63/63/63 69/69/69 70/70/70
f 61/61/61 64/64/64 71/71/71
f 71/71/71 64/64/64 67/67/67
f 71/71/71 72/72/72 61/61/61
f 61/61/61 72/72/72 68/68/68
f 72/72/72 71/71/71 67/67/67
f 62/62/62 73/73/73 69/69/69
f 68/68/68 73/73/73 62/62/62
f 69/69/69 74/74/74 70/70/70
f 70/70/70 74/74/74 75/75/75
f 73/73/73 76/76/76 69/69/69
f 69/69/69 76/76/76 74/74/74
f 74/74/74 77/77/77 75/75/75
f 75/75/75 77/77/77 78/78/78
f 77/77/77 79/79/79 78/78/78
f 74/74/74 80/80/80 77/77/77
f 76/76/76 80/80/80 74/74/74
f 77/77/77 81/81/81 79/79/79
f 80/80/80 81/81/81 77/77/77
f 81/81/81 82/82/82 79/79/79
f 81/81/81 83/83/83 82/82/82
f 83/83/83 84/84/84 82/82/82
f 81/81/81 85/85/85 83/83/83
f 80/80/80 85/85/85 81/81/81
f 83/83/83 85/85/85 86/86/86
f 86/86/86 85/85/85 87/87/87
f 83/83/83 88/88/88 84/84/84
f 89/89/89 85/85/85 80/80/80
f 85/85/85 89/89/89 87/87/87
f 80/80/80 90/90/90 89/89/89
f 76/76/76 90/90/90 80/80/80
f 89/89/89 90/90/90 87/87/87
f 88/88/88 91/91/91 84/84/84
f 91/91/91 92/92/92 84/84/84
f 84/84/84 92/92/92 93/93/93
f 93/93/93 92/92/92 94/94/94
f 92/92/92 95/95/95 94/94/94
f 95/95/95 92/92/92 96/96/96
f 96/96/96 92/92/92 91/91/91
f 96/96/96 97/97/97 95/95/95
f 98/98/98 97/97/97 96/96/96
f 91/91/91 88/88/88 99/99/99
f 96/96/96 91/91/91 99/99/99
f 98/98/98 96/96/96 99/99/99
f 88/88/88 100/100/100 99/99/99
f 100/100/100 101/101/101 99/99/99
f 101/101/101 102/102/102 99/99/99
f 102/102/102 103/103/103 99/99/99
f 103/103/103 104/104/104 99/99/99
f 104/104/104 105/105/105 99/99/99
f 106/106/106 98/98/98 99/99/99
f 106/106/106 107/107/107 98/98/98
f 98/98/98 107/107/107 108/108/108
f 108/108/108 107/107/107 109/109/109
f 110/110/110 107/107/107 106/106/106
f 106/106/106 111/111/111 110/110/110
f 112/112/112 106/106/106 99/99/99
f 112/112/112 111/111/111 106/106/106
f 113/113/113 111/111/111 112/112/112
f 114/114/114 111/111/111 113/113/113
f 115/115/115 112/112/112 99/99/99
f 105/105/105 115/115/115 99/99/99
f 115/115/115 116/116/116 112/112/112
f 117/117/117 116/116/116 115/115/115
f 105/105/105 118/118/118 115/115/115
f 115/115/115 118/118/118 117/117/117
f 119/119/119 118/118/118 105/105/105
f 117/117/117 118/118/118 120/120/120
f 121/121/121 118/118/118 119/119/119
f 118/118/118 121/121/121 120/120/120
f 123/123/123 122/122/122 87/87/87
f 124/124/124 123/123/123 87/87/87
f 90/90/90 124/124/124 87/87/87
f 125/125/125 123/123/123 124/124/124
f 124/124/124 90/90/90 125/125/125
f 126/126/126 123/123/123 125/125/125
f 125/125/125 90/90/90 76/76/76
f 76/76/76 127/127/127 125/125/125
f 73/73/73 127/127/127 76/76/76
f 125/125/125 127/127/127 128/128/128
f 128/128/128 129/129/129 125/125/125
f 129/129/129 128/128/128 130/130/130
f 128/128/128 127/127/127 130/130/130
f 131/131/131 129/129/129 130/130/130
f 132/132/132 127/127/127 73/73/73
f 127/127/127 132/132/132 130/130/130
f 73/73/73 133/133/133 132/132/132
f 132/132/132 133/133/133 130/130/130
f 133/133/133 134/134/134 130/130/130
f 68/68/68 133/133/133 73/73/73
f 134/134/134 133/133/133 135/135/135
f 135/135/135 133/133/133 68/68/68
f 68/68/68 72/72/72 135/135/135
f 135/135/135 72/72/72 136/136/136
f 136/136/136 72/72/72 67/67/67
f 136/136/136 137/137/137 135/135/135
f 137/137/137 136/136/136 67/67/67
f 135/135/135 137/137/137 138/138/138
f 139/139/139 137/137/137 67/67/67
f 142/142/142 141/141/141 140/140/140
f 143/143/143 141/141/141 142/142/142
f 142/142/142 144/144/144 143/143/143
f 143/143/143 144/144/144 145/145/145
f 146/146/146 144/144/144 142/142/142
f 144/144/144 147/147/147 145/145/145
f 148/148/148 144/144/144 146/146/146
f 147/147/147 144/144/144 148/148/148
f 151/151/151 150/150/150 149/149/149
f 149/149/149 150/150/150 152/152/152
f 152/152/152 150/150/150 153/153/153
f 153/153/153 154/154/154 152/152/152
f 152/152/152 154/154/154 155/155/155
f 154/154/154 153/153/153 156/156/156
f 155/155/155 154/154/154 157/157/157
f 158/158/158 154/154/154 156/156/156
f 157/157/157 154/154/154 158/158/158
f 161/161/161 160/160/160 159/159/159
f 159/159/159 160/160/160 162/162/162
f 162/162/162 163/163/163 159/159/159
f 159/159/159 163/163/163 164/164/164
f 163/163/163 162/162/162 165/165/165
f 164/164/164 163/163/163 166/166/166
f 167/167/167 163/163/163 165/165/165
f 166/166/166 163/163/163 167/167/167
f 170/170/170 169/169/169 168/168/168
f 171/171/171 170/170/170 168/168/168
f 172/172/172 170/170/170 171/171/171
f 168/168/168 169/169/169 173/173/173
f 169/169/169 174/174/174 173/173/173
f 171/171/171 168/168/168 175/175/175
f 168/168/168 173/173/173 175/175/175
f 176/176/176 172/172/172 171/171/171
f 176/176/176 171/171/171 175/175/175
f 177/177/177 172/172/172 176/176/176
f 173/173/173 174/174/174 178/178/178
f 173/173/173 178/178/178 175/175/175
f 179/179/179 176/176/176 175/175/175
f 179/179/179 177/177/177 176/176/176
f 178/178/178 180/180/180 175/175/175
f 174/174/174 181/181/181 178/178/178
f 178/178/178 181/181/181 180/180/180
f 182/182/182 177/177/177 179/179/179
f 181/181/181 183/183/183 180/180/180
f 184/184/184 182/182/182 179/179/179
f 184/184/184 179/179/179 175/175/175
f 185/185/185 182/182/182 184/184/184
f 180/180/180 183/183/183 186/186/186
f 180/180/180 186/186/186 175/175/175
f 183/183/183 187/187/187 186/186/186
f 188/188/188 185/185/185 184/184/184
f 188/188/188 184/184/184 175/175/175
f 189/189/189 185/185/185 188/188/188
f 186/186/186 187/187/187 190/190/190
f 186/186/186 190/190/190 175/175/175
f 187/187/187 191/191/191 190/190/190
f 192/192/192 189/189/189 188/188/188
f 192/192/192 188/188/188 175/175/175
f 193/193/193 189/189/189 192/192/192
f 190/190/190 194/194/194 175/175/175
f 190/190/190 191/191/191 194/194/194
f 194/194/194 192/192/192 175/175/175
f 194/194/194 193/193/193 192/192/192
f 191/191/191 193/193/193 194/194/194
