g Fungus_A_02_LOD2
v -0.01159748 0.009265892 0.00300212
v -0.007571802 0.01061285 0.00600424
v -0.0108683 0.008720916 0.00600424
v -0.007609349 0.01156279 0.00300212
v -0.004646425 0.008329943 0.00600424
v -0.01159967 0.005122516 0.00300212
v -0.01087268 0.005837873 0.00600424
v -0.003806785 0.009070406 0.00300212
v -0.004459757 0.005250861 0.00600424
v -0.007801586 0.00300562 0.00300212
v -0.007956277 0.004305935 0.00600424
v -0.003713451 0.00482901 0.00300212
v -0.01232665 0.00440716 -6.140563E-10
v -0.01232665 0.009810869 -6.140563E-10
v -0.007646896 0.01251273 -6.140563E-10
v -0.002967144 0.009810869 -6.140563E-10
v -0.002967144 0.00440716 -6.140563E-10
v -0.007646897 0.001705305 -6.140563E-10
v -0.0110804 0.009091345 -6.140563E-10
v -0.007646896 0.01107368 -6.140563E-10
v -0.004213396 0.009091346 -6.140563E-10
v -0.004213396 0.005126684 -6.140563E-10
v -0.007646897 0.003144353 -6.140563E-10
v -0.0110804 0.005126684 -6.140563E-10
v -0.004459757 0.005250861 0.00600424
v 0.00283409 0.0003087604 0.006062912
v 0.003016758 0.01053909 0.006062912
v -0.004646425 0.008329943 0.00600424
v -0.007956277 0.004305935 0.00600424
v -0.007332206 0.01771197 0.006062912
v -0.007571802 0.01061285 0.00600424
v -0.008692339 -0.00369644 0.006062912
v -0.01087268 0.005837873 0.00600424
v -0.01821125 0.01180179 0.006062912
v -0.0108683 0.008720916 0.00600424
v -0.01900957 0.001723019 0.006062912
v -0.007418506 0.0154496 0.009897703
v 0.0009211117 0.009844776 0.009897703
v 0.0006102268 0.001729366 0.009897703
v -0.0160333 0.01083892 0.009897703
v -0.008514558 -0.001626796 0.009897703
v -0.0168286 0.002740425 0.009897703
v -0.007756075 0.01203628 0.01170043
v -0.003321723 0.008575791 0.01170043
v -0.01275298 0.009168437 0.01170043
v -0.01275962 0.004798255 0.01170043
v -0.00833887 0.00247611 0.01170043
v -0.003038766 0.00390845 0.01170043
v 0.003424425 -0.01251218 0.00393135
v 0.0008662498 -0.01016502 0.008944203
v 0.002999981 -0.0122478 0.007862698
v 0.0008769094 -0.01039553 0.004472102
v 0.002181107 -0.007307366 0.008447043
v 0.006696336 -0.01140679 0.005829637
v 0.006200753 -0.01152633 0.01165927
v 0.001725215 -0.007146793 0.004223522
v 0.004998688 -0.008482735 0.009116028
v 0.006944855 -0.007819992 0.00471519
v 0.006316041 -0.007992546 0.009430379
v 0.00480553 -0.006989827 0.004558014
v 0.007191918 -0.01128726 8.523464E-10
v 0.003848869 -0.01277656 8.523464E-10
v 0.000887569 -0.01062604 8.523464E-10
v 0.001269323 -0.006986221 8.523464E-10
v 0.004612372 -0.00549692 8.523464E-10
v 0.007573669 -0.007647438 8.523464E-10
v 0.003960438 -0.0117128 8.523464E-10
v 0.001864595 -0.01019078 8.523464E-10
v 0.002134779 -0.007614722 8.523464E-10
v 0.004500803 -0.006560677 8.523464E-10
v 0.006326462 -0.01065876 8.523464E-10
v 0.006596644 -0.008082694 8.523464E-10
v 0.004998688 -0.008482735 0.009116028
v 0.004957478 0.002792824 0.007416639
v -0.004567767 -0.0006256084 0.005882742
v 0.002181107 -0.007307366 0.008447043
v 0.006316041 -0.007992546 0.009430379
v -0.00693337 -0.01343308 0.006878726
v 0.0008662498 -0.01016502 0.008944203
v 0.01455026 -0.004525982 0.01027894
v 0.006200753 -0.01152633 0.01165927
v 0.004731778 -0.02171198 0.009312293
v 0.002999981 -0.0122478 0.007862698
v 0.01165581 -0.016788 0.009721705
v -0.00606118 -0.01294879 0.01220975
v -0.002579839 -0.001604723 0.01258979
v 0.005418908 0.00170261 0.01277687
v 0.003067447 -0.01967554 0.01483929
v 0.01262346 -0.006917501 0.01453622
v 0.01103382 -0.01496765 0.0159039
v -0.003206294 -0.009947713 0.01631636
v -0.0004485917 -0.004402739 0.01665135
v 0.001483213 -0.01482216 0.01798548
v 0.004259569 -0.003941051 0.01709181
v 0.006309231 -0.01117661 0.01752919
v 0.008727066 -0.007947602 0.01742472
vt 0.7460938 0.4199219
vt 0.7460938 0.4199219
vt 0.7460938 0.4199219
vt 0.7460938 0.4199219
vt 0.7460938 0.4199219
vt 0.7460938 0.4199219
vt 0.7460938 0.4199219
vt 0.7460938 0.4199219
vt 0.7460938 0.4199219
vt 0.7460938 0.4199219
vt 0.7460938 0.4199219
vt 0.7460938 0.4199219
vt 0.7460938 0.4199219
vt 0.7460938 0.4199219
vt 0.7460938 0.4199219
vt 0.7460938 0.4199219
vt 0.7460938 0.4199219
vt 0.7460938 0.4199219
vt 0.7460938 0.4199219
vt 0.7460938 0.4199219
vt 0.7460938 0.4199219
vt 0.7460938 0.4199219
vt 0.7460938 0.4199219
vt 0.7460938 0.4199219
vt 0.08685303 0.4199219
vt 0.08685303 0.4199219
vt 0.08685303 0.4199219
vt 0.08685303 0.4199219
vt 0.08685303 0.4199219
vt 0.08685303 0.4199219
vt 0.08685303 0.4199219
vt 0.08685303 0.4199219
vt 0.08685303 0.4199219
vt 0.08685303 0.4199219
vt 0.08685303 0.4199219
vt 0.08685303 0.4199219
vt 0.08685303 0.4199219
vt 0.08685303 0.4199219
vt 0.08685303 0.4199219
vt 0.08685303 0.4199219
vt 0.08685303 0.4199219
vt 0.08685303 0.4199219
vt 0.08685303 0.4199219
vt 0.08685303 0.4199219
vt 0.08685303 0.4199219
vt 0.08685303 0.4199219
vt 0.08685303 0.4199219
vt 0.08685303 0.4199219
vt 0.7460938 0.4199219
vt 0.7460938 0.4199219
vt 0.7460938 0.4199219
vt 0.7460938 0.4199219
vt 0.7460938 0.4199219
vt 0.7460938 0.4199219
vt 0.7460938 0.4199219
vt 0.7460938 0.4199219
vt 0.7460938 0.4199219
vt 0.7460938 0.4199219
vt 0.7460938 0.4199219
vt 0.7460938 0.4199219
vt 0.7460938 0.4199219
vt 0.7460938 0.4199219
vt 0.7460938 0.4199219
vt 0.7460938 0.4199219
vt 0.7460938 0.4199219
vt 0.7460938 0.4199219
vt 0.7460938 0.4199219
vt 0.7460938 0.4199219
vt 0.7460938 0.4199219
vt 0.7460938 0.4199219
vt 0.7460938 0.4199219
vt 0.7460938 0.4199219
vt 0.08685303 0.4199219
vt 0.08685303 0.4199219
vt 0.08685303 0.4199219
vt 0.08685303 0.4199219
vt 0.08685303 0.4199219
vt 0.08685303 0.4199219
vt 0.08685303 0.4199219
vt 0.08685303 0.4199219
vt 0.08685303 0.4199219
vt 0.08685303 0.4199219
vt 0.08685303 0.4199219
vt 0.08685303 0.4199219
vt 0.08685303 0.4199219
vt 0.08685303 0.4199219
vt 0.08685303 0.4199219
vt 0.08685303 0.4199219
vt 0.08685303 0.4199219
vt 0.08685303 0.4199219
vt 0.08685303 0.4199219
vt 0.08685303 0.4199219
vt 0.08685303 0.4199219
vt 0.08685303 0.4199219
vt 0.08685303 0.4199219
vt 0.08685303 0.4199219
vn -0.8300781 0.4772949 0.2885742
vn 0.03616333 0.6469727 -0.7617188
vn -0.5732422 0.3234863 -0.7529297
vn 0.0244751 0.9448242 0.3261719
vn 0.6225586 0.3183594 -0.7148438
vn -0.8208008 -0.4736328 0.3193359
vn -0.5791016 -0.3212891 -0.7495117
vn 0.8334961 0.458252 0.3081055
vn 0.5068359 -0.3439941 -0.7905273
vn -0.04177856 -0.9370117 0.3474121
vn -0.0690918 -0.7260742 -0.6845703
vn 0.7998047 -0.4995117 0.3327637
vn -0.7460938 -0.4558105 -0.4853516
vn -0.746582 0.440918 -0.498291
vn 0.005554199 0.8754883 -0.4833984
vn 0.7495117 0.4455566 -0.4897461
vn 0.753418 -0.447998 -0.4816895
vn -0.002166748 -0.8803711 -0.4741211
vn 0 0 -1
vn 0 0 -1
vn 0 0 -1
vn 0 0 -1
vn 0 0 -1
vn 0 0 -1
vn 0.5068359 -0.3439941 -0.7905273
vn 0.7543945 -0.5366211 -0.3781738
vn 0.8227539 0.4008789 -0.4025879
vn 0.6225586 0.3183594 -0.7148438
vn -0.0690918 -0.7260742 -0.6845703
vn 0.04702759 0.9125977 -0.4060059
vn 0.03616333 0.6469727 -0.7617188
vn -0.06677246 -0.9018555 -0.4267578
vn -0.5791016 -0.3212891 -0.7495117
vn -0.7768555 0.4846191 -0.4016113
vn -0.5732422 0.3234863 -0.7529297
vn -0.8144531 -0.4372559 -0.3813477
vn 0.04171753 0.7294922 0.6826172
vn 0.6293945 0.3334961 0.7021484
vn 0.5532227 -0.4086914 0.7255859
vn -0.590332 0.4042969 0.6987305
vn -0.04949951 -0.7172852 0.6953125
vn -0.6083984 -0.3425293 0.7158203
vn 0.008483887 0.3059082 0.9521484
vn 0.223999 0.1412354 0.9643555
vn -0.2373047 0.1711426 0.9560547
vn -0.2208252 -0.1289063 0.9667969
vn -0.02243042 -0.2592773 0.965332
vn 0.2032471 -0.1654053 0.9648438
vn -0.1837158 -0.9824219 0.03207397
vn -0.3210449 -0.1744385 -0.9306641
vn -0.02560425 -0.6962891 -0.7177734
vn -0.953125 -0.3010254 0.03503418
vn -0.06152344 0.3825684 -0.921875
vn 0.7880859 -0.6088867 0.09014893
vn 0.390625 -0.1691895 -0.9047852
vn -0.6464844 0.7490234 0.1445313
vn 0.2380371 0.7817383 -0.5766602
vn 0.8134766 0.5532227 0.1794434
vn 0.5185547 0.1601563 -0.8398438
vn 0.1403809 0.972168 0.1881104
vn 0.6621094 -0.4707031 -0.5830078
vn -0.09057617 -0.7983398 -0.5952148
vn -0.7426758 -0.2998047 -0.5991211
vn -0.6181641 0.5488281 -0.5629883
vn 0.0970459 0.8491211 -0.5195313
vn 0.7402344 0.3825684 -0.5532227
vn 0 0 -1
vn 0 0 -1
vn 0 0 -1
vn 0 0 -1
vn 0 0 -1
vn 0 0 -1
vn 0.2380371 0.7817383 -0.5766602
vn 0.1867676 0.8320313 -0.5224609
vn -0.5908203 0.5004883 -0.6328125
vn -0.06152344 0.3825684 -0.921875
vn 0.5185547 0.1601563 -0.8398438
vn -0.7475586 -0.3369141 -0.5727539
vn -0.3210449 -0.1744385 -0.9306641
vn 0.8452148 0.3166504 -0.4309082
vn 0.390625 -0.1691895 -0.9047852
vn 0.1568604 -0.8725586 -0.4621582
vn -0.02560425 -0.6962891 -0.7177734
vn 0.7509766 -0.4675293 -0.4665527
vn -0.8696289 -0.2993164 0.392334
vn -0.6538086 0.6137695 0.442627
vn 0.1455078 0.8369141 0.527832
vn -0.1380615 -0.8007813 0.5830078
vn 0.7841797 0.2205811 0.5800781
vn 0.6416016 -0.4152832 0.6450195
vn -0.6079102 -0.001312256 0.7939453
vn -0.4072266 0.3808594 0.8300781
vn -0.2270508 -0.3139648 0.921875
vn 0.03591919 0.4262695 0.9038086
vn 0.133667 -0.08355713 0.9873047
vn 0.3046875 0.1878662 0.9335938
g Fungus_A_02_LOD2_0
f 3/3/3 2/2/2 1/1/1
f 2/2/2 4/4/4 1/1/1
f 2/2/2 5/5/5 4/4/4
f 3/3/3 1/1/1 6/6/6
f 7/7/7 3/3/3 6/6/6
f 5/5/5 8/8/8 4/4/4
f 5/5/5 9/9/9 8/8/8
f 7/7/7 6/6/6 10/10/10
f 11/11/11 7/7/7 10/10/10
f 9/9/9 11/11/11 12/12/12
f 9/9/9 12/12/12 8/8/8
f 11/11/11 10/10/10 12/12/12
f 6/6/6 1/1/1 13/13/13
f 1/1/1 4/4/4 14/14/14
f 1/1/1 14/14/14 13/13/13
f 4/4/4 8/8/8 15/15/15
f 4/4/4 15/15/15 14/14/14
f 8/8/8 12/12/12 16/16/16
f 8/8/8 16/16/16 15/15/15
f 12/12/12 10/10/10 17/17/17
f 12/12/12 17/17/17 16/16/16
f 10/10/10 6/6/6 18/18/18
f 6/6/6 13/13/13 18/18/18
f 10/10/10 18/18/18 17/17/17
f 13/13/13 14/14/14 19/19/19
f 14/14/14 15/15/15 20/20/20
f 19/19/19 14/14/14 20/20/20
f 15/15/15 16/16/16 21/21/21
f 20/20/20 15/15/15 21/21/21
f 16/16/16 17/17/17 22/22/22
f 21/21/21 16/16/16 22/22/22
f 23/23/23 20/20/20 21/21/21
f 21/21/21 22/22/22 23/23/23
f 22/22/22 17/17/17 23/23/23
f 17/17/17 18/18/18 23/23/23
f 23/23/23 19/19/19 20/20/20
f 18/18/18 13/13/13 24/24/24
f 24/24/24 13/13/13 19/19/19
f 23/23/23 24/24/24 19/19/19
f 23/23/23 18/18/18 24/24/24
f 27/27/27 26/26/26 25/25/25
f 28/28/28 27/27/27 25/25/25
f 25/25/25 26/26/26 29/29/29
f 30/30/30 27/27/27 28/28/28
f 31/31/31 30/30/30 28/28/28
f 26/26/26 32/32/32 29/29/29
f 29/29/29 32/32/32 33/33/33
f 34/34/34 30/30/30 31/31/31
f 35/35/35 34/34/34 31/31/31
f 33/33/33 36/36/36 35/35/35
f 32/32/32 36/36/36 33/33/33
f 36/36/36 34/34/34 35/35/35
f 30/30/30 37/37/37 27/27/27
f 27/27/27 38/38/38 26/26/26
f 37/37/37 38/38/38 27/27/27
f 26/26/26 39/39/39 32/32/32
f 38/38/38 39/39/39 26/26/26
f 34/34/34 40/40/40 30/30/30
f 40/40/40 37/37/37 30/30/30
f 32/32/32 41/41/41 36/36/36
f 39/39/39 41/41/41 32/32/32
f 36/36/36 42/42/42 34/34/34
f 42/42/42 40/40/40 34/34/34
f 41/41/41 42/42/42 36/36/36
f 37/37/37 43/43/43 38/38/38
f 38/38/38 44/44/44 39/39/39
f 43/43/43 44/44/44 38/38/38
f 40/40/40 45/45/45 37/37/37
f 45/45/45 43/43/43 37/37/37
f 42/42/42 46/46/46 40/40/40
f 46/46/46 45/45/45 40/40/40
f 43/43/43 45/45/45 47/47/47
f 45/45/45 46/46/46 47/47/47
f 47/47/47 46/46/46 42/42/42
f 41/41/41 47/47/47 42/42/42
f 44/44/44 43/43/43 47/47/47
f 39/39/39 48/48/48 41/41/41
f 48/48/48 47/47/47 41/41/41
f 44/44/44 48/48/48 39/39/39
f 47/47/47 48/48/48 44/44/44
f 51/51/51 50/50/50 49/49/49
f 50/50/50 52/52/52 49/49/49
f 50/50/50 53/53/53 52/52/52
f 51/51/51 49/49/49 54/54/54
f 55/55/55 51/51/51 54/54/54
f 53/53/53 56/56/56 52/52/52
f 53/53/53 57/57/57 56/56/56
f 55/55/55 54/54/54 58/58/58
f 59/59/59 55/55/55 58/58/58
f 57/57/57 59/59/59 60/60/60
f 57/57/57 60/60/60 56/56/56
f 59/59/59 58/58/58 60/60/60
f 54/54/54 49/49/49 61/61/61
f 49/49/49 52/52/52 62/62/62
f 49/49/49 62/62/62 61/61/61
f 52/52/52 56/56/56 63/63/63
f 52/52/52 63/63/63 62/62/62
f 56/56/56 60/60/60 64/64/64
f 56/56/56 64/64/64 63/63/63
f 60/60/60 58/58/58 65/65/65
f 60/60/60 65/65/65 64/64/64
f 58/58/58 54/54/54 66/66/66
f 54/54/54 61/61/61 66/66/66
f 58/58/58 66/66/66 65/65/65
f 61/61/61 62/62/62 67/67/67
f 62/62/62 63/63/63 68/68/68
f 67/67/67 62/62/62 68/68/68
f 68/68/68 63/63/63 69/69/69
f 63/63/63 64/64/64 69/69/69
f 67/67/67 68/68/68 69/69/69
f 69/69/69 64/64/64 70/70/70
f 64/64/64 65/65/65 70/70/70
f 67/67/67 69/69/69 70/70/70
f 71/71/71 61/61/61 67/67/67
f 66/66/66 61/61/61 71/71/71
f 71/71/71 67/67/67 70/70/70
f 65/65/65 66/66/66 72/72/72
f 70/70/70 65/65/65 72/72/72
f 70/70/70 72/72/72 71/71/71
f 72/72/72 66/66/66 71/71/71
f 75/75/75 74/74/74 73/73/73
f 76/76/76 75/75/75 73/73/73
f 73/73/73 74/74/74 77/77/77
f 78/78/78 75/75/75 76/76/76
f 79/79/79 78/78/78 76/76/76
f 74/74/74 80/80/80 77/77/77
f 77/77/77 80/80/80 81/81/81
f 82/82/82 78/78/78 79/79/79
f 83/83/83 82/82/82 79/79/79
f 81/81/81 84/84/84 83/83/83
f 80/80/80 84/84/84 81/81/81
f 84/84/84 82/82/82 83/83/83
f 78/78/78 85/85/85 75/75/75
f 75/75/75 86/86/86 74/74/74
f 85/85/85 86/86/86 75/75/75
f 74/74/74 87/87/87 80/80/80
f 86/86/86 87/87/87 74/74/74
f 82/82/82 88/88/88 78/78/78
f 88/88/88 85/85/85 78/78/78
f 80/80/80 89/89/89 84/84/84
f 87/87/87 89/89/89 80/80/80
f 84/84/84 90/90/90 82/82/82
f 90/90/90 88/88/88 82/82/82
f 89/89/89 90/90/90 84/84/84
f 85/85/85 91/91/91 86/86/86
f 86/86/86 92/92/92 87/87/87
f 91/91/91 92/92/92 86/86/86
f 93/93/93 91/91/91 85/85/85
f 88/88/88 93/93/93 85/85/85
f 92/92/92 91/91/91 93/93/93
f 92/92/92 94/94/94 87/87/87
f 87/87/87 94/94/94 89/89/89
f 94/94/94 92/92/92 93/93/93
f 95/95/95 93/93/93 88/88/88
f 90/90/90 95/95/95 88/88/88
f 94/94/94 93/93/93 95/95/95
f 94/94/94 96/96/96 89/89/89
f 89/89/89 96/96/96 90/90/90
f 96/96/96 95/95/95 90/90/90
f 95/95/95 96/96/96 94/94/94
