g Fungus_A_02_LOD3
v -0.01232665 0.009810869 -6.140563E-10
v -0.007571802 0.01061285 0.00600424
v -0.0108683 0.008720916 0.00600424
v -0.007646896 0.01251273 -6.140563E-10
v -0.004646425 0.008329943 0.00600424
v -0.01232665 0.00440716 -6.140563E-10
v -0.01087268 0.005837873 0.00600424
v -0.007646897 0.001705305 -6.140563E-10
v -0.007956277 0.004305935 0.00600424
v -0.002967144 0.009810869 -6.140563E-10
v -0.004459757 0.005250861 0.00600424
v -0.002967144 0.00440716 -6.140563E-10
v -0.004459757 0.005250861 0.00600424
v 0.003677126 -0.0003536249 0.006062912
v 0.003016758 0.01053909 0.006062912
v -0.004646425 0.008329943 0.00600424
v -0.007956277 0.004305935 0.00600424
v -0.008692339 -0.00369644 0.006062912
v -0.01087268 0.005837873 0.00600424
v -0.005688818 0.00319228 0.01170043
v -0.007332206 0.01861523 0.006062912
v -0.007571802 0.01061285 0.00600424
v -0.01900957 0.001723019 0.006062912
v -0.0108683 0.008720916 0.00600424
v -0.01899407 0.01192222 0.006062912
v -0.003321723 0.008575791 0.01170043
v -0.01025453 0.01060236 0.01170043
v -0.01275962 0.004798255 0.01170043
v -0.00693337 -0.01343308 0.006878726
v 0.001905489 -0.004171895 0.01687158
v -0.003206294 -0.009947713 0.01631636
v 0.003896222 -0.01299938 0.01775733
v -0.004567767 -0.0006256084 0.005882742
v 0.008727066 -0.007947602 0.01742472
v 0.004957478 0.002792824 0.007416639
v 0.01455026 -0.004525982 0.01027894
v 0.004998688 -0.008482735 0.009116028
v 0.002181107 -0.007307366 0.008447043
v 0.006316041 -0.007992546 0.009430379
v 0.0008662498 -0.01016502 0.008944203
v 0.006200753 -0.01152633 0.01165927
v 0.004731778 -0.02171198 0.009312293
v 0.002999981 -0.0122478 0.007862698
v 0.01165581 -0.016788 0.009721705
v 0.003848869 -0.01277656 8.523464E-10
v 0.0008662498 -0.01016502 0.008944203
v 0.002999981 -0.0122478 0.007862698
v 0.000887569 -0.01062604 8.523464E-10
v 0.002181107 -0.007307366 0.008447043
v 0.001269323 -0.006986221 8.523464E-10
v 0.004998688 -0.008482735 0.009116028
v 0.004612372 -0.00549692 8.523464E-10
v 0.006316041 -0.007992546 0.009430379
v 0.007191918 -0.01128726 8.523464E-10
v 0.006200753 -0.01152633 0.01165927
v 0.007573669 -0.007647438 8.523464E-10
vt 0.7460938 0.4199219
vt 0.7460938 0.4199219
vt 0.7460938 0.4199219
vt 0.7460938 0.4199219
vt 0.7460938 0.4199219
vt 0.7460938 0.4199219
vt 0.7460938 0.4199219
vt 0.7460938 0.4199219
vt 0.7460938 0.4199219
vt 0.7460938 0.4199219
vt 0.7460938 0.4199219
vt 0.7460938 0.4199219
vt 0.08685303 0.4199219
vt 0.08685303 0.4199219
vt 0.08685303 0.4199219
vt 0.08685303 0.4199219
vt 0.08685303 0.4199219
vt 0.08685303 0.4199219
vt 0.08685303 0.4199219
vt 0.08685303 0.4199219
vt 0.08685303 0.4199219
vt 0.08685303 0.4199219
vt 0.08685303 0.4199219
vt 0.08685303 0.4199219
vt 0.08685303 0.4199219
vt 0.08685303 0.4199219
vt 0.08685303 0.4199219
vt 0.08685303 0.4199219
vt 0.08685303 0.4199219
vt 0.08685303 0.4199219
vt 0.08685303 0.4199219
vt 0.08685303 0.4199219
vt 0.08685303 0.4199219
vt 0.08685303 0.4199219
vt 0.08685303 0.4199219
vt 0.08685303 0.4199219
vt 0.08685303 0.4199219
vt 0.08685303 0.4199219
vt 0.08685303 0.4199219
vt 0.08685303 0.4199219
vt 0.08685303 0.4199219
vt 0.08685303 0.4199219
vt 0.08685303 0.4199219
vt 0.08685303 0.4199219
vt 0.7460938 0.4199219
vt 0.7460938 0.4199219
vt 0.7460938 0.4199219
vt 0.7460938 0.4199219
vt 0.7460938 0.4199219
vt 0.7460938 0.4199219
vt 0.7460938 0.4199219
vt 0.7460938 0.4199219
vt 0.7460938 0.4199219
vt 0.7460938 0.4199219
vt 0.7460938 0.4199219
vt 0.7460938 0.4199219
vn -0.7460938 0.4411621 -0.498291
vn 0.02410889 0.6513672 -0.7583008
vn -0.5732422 0.3227539 -0.753418
vn 0.01907349 0.8730469 -0.4870605
vn 0.6157227 0.3212891 -0.7192383
vn -0.7436523 -0.4587402 -0.486084
vn -0.581543 -0.3193359 -0.7485352
vn -0.02471924 -0.8833008 -0.4680176
vn -0.04949951 -0.7211914 -0.690918
vn 0.7558594 0.4389648 -0.4855957
vn 0.5253906 -0.3361816 -0.7817383
vn 0.7392578 -0.4619141 -0.4899902
vn 0.5253906 -0.3361816 -0.7817383
vn 0.7954102 -0.5678711 -0.2121582
vn 0.8828125 0.4094238 -0.2307129
vn 0.6157227 0.3212891 -0.7192383
vn -0.04949951 -0.7211914 -0.690918
vn -0.1087646 -0.9501953 -0.2922363
vn -0.581543 -0.3193359 -0.7485352
vn 0.1418457 -0.3415527 0.9291992
vn 0.08618164 0.9624023 -0.2568359
vn 0.02410889 0.6513672 -0.7583008
vn -0.8530273 -0.4709473 -0.2255859
vn -0.5732422 0.3227539 -0.753418
vn -0.8422852 0.4755859 -0.2531738
vn 0.3632813 0.2116699 0.9072266
vn -0.1560059 0.3491211 0.9238281
vn -0.357666 -0.2191162 0.9077148
vn -0.8188477 -0.3669434 -0.4411621
vn -0.2302246 0.5288086 0.8168945
vn -0.6728516 -0.1040649 0.7324219
vn 0.02020264 -0.4165039 0.9086914
vn -0.5991211 0.5830078 -0.5488281
vn 0.4716797 0.1455078 0.8696289
vn 0.22229 0.8823242 -0.4152832
vn 0.9335938 0.2919922 -0.2069092
vn 0.3081055 0.7583008 -0.574707
vn -0.1616211 0.3552246 -0.9208984
vn 0.5756836 0.1229248 -0.8085938
vn -0.3200684 -0.2084961 -0.9243164
vn 0.4001465 -0.1740723 -0.8999023
vn 0.1790771 -0.9438477 -0.2775879
vn 0.01196289 -0.6992188 -0.7148438
vn 0.8222656 -0.4892578 -0.2910156
vn -0.1280518 -0.793457 -0.5947266
vn -0.3200684 -0.2084961 -0.9243164
vn 0.01196289 -0.6992188 -0.7148438
vn -0.753418 -0.2561035 -0.605957
vn -0.1616211 0.3552246 -0.9208984
vn -0.5317383 0.6171875 -0.5795898
vn 0.3081055 0.7583008 -0.574707
vn 0.1151123 0.8588867 -0.4992676
vn 0.5756836 0.1229248 -0.8085938
vn 0.6499023 -0.4714355 -0.5961914
vn 0.4001465 -0.1740723 -0.8999023
vn 0.6904297 0.447998 -0.5683594
g Fungus_A_02_LOD3_0
f 3/3/3 2/2/2 1/1/1
f 2/2/2 4/4/4 1/1/1
f 2/2/2 5/5/5 4/4/4
f 3/3/3 1/1/1 6/6/6
f 7/7/7 3/3/3 6/6/6
f 8/8/8 6/6/6 1/1/1
f 7/7/7 6/6/6 8/8/8
f 8/8/8 1/1/1 4/4/4
f 9/9/9 7/7/7 8/8/8
f 5/5/5 10/10/10 4/4/4
f 8/8/8 4/4/4 10/10/10
f 5/5/5 11/11/11 10/10/10
f 9/9/9 8/8/8 12/12/12
f 10/10/10 12/12/12 8/8/8
f 11/11/11 9/9/9 12/12/12
f 11/11/11 12/12/12 10/10/10
f 15/15/15 14/14/14 13/13/13
f 16/16/16 15/15/15 13/13/13
f 13/13/13 14/14/14 17/17/17
f 14/14/14 18/18/18 17/17/17
f 17/17/17 18/18/18 19/19/19
f 20/20/20 14/14/14 15/15/15
f 20/20/20 18/18/18 14/14/14
f 21/21/21 15/15/15 16/16/16
f 22/22/22 21/21/21 16/16/16
f 18/18/18 23/23/23 19/19/19
f 19/19/19 23/23/23 24/24/24
f 24/24/24 25/25/25 22/22/22
f 25/25/25 21/21/21 22/22/22
f 23/23/23 25/25/25 24/24/24
f 26/26/26 15/15/15 21/21/21
f 26/26/26 20/20/20 15/15/15
f 25/25/25 27/27/27 21/21/21
f 27/27/27 26/26/26 21/21/21
f 27/27/27 25/25/25 23/23/23
f 20/20/20 26/26/26 27/27/27
f 28/28/28 23/23/23 18/18/18
f 28/28/28 27/27/27 23/23/23
f 20/20/20 28/28/28 18/18/18
f 28/28/28 20/20/20 27/27/27
f 31/31/31 30/30/30 29/29/29
f 32/32/32 31/31/31 29/29/29
f 30/30/30 31/31/31 32/32/32
f 30/30/30 33/33/33 29/29/29
f 34/34/34 30/30/30 32/32/32
f 30/30/30 34/34/34 35/35/35
f 30/30/30 35/35/35 33/33/33
f 34/34/34 32/32/32 36/36/36
f 34/34/34 36/36/36 35/35/35
f 33/33/33 35/35/35 37/37/37
f 38/38/38 33/33/33 37/37/37
f 29/29/29 33/33/33 38/38/38
f 37/37/37 35/35/35 39/39/39
f 35/35/35 36/36/36 39/39/39
f 40/40/40 29/29/29 38/38/38
f 39/39/39 36/36/36 41/41/41
f 42/42/42 29/29/29 40/40/40
f 42/42/42 32/32/32 29/29/29
f 43/43/43 42/42/42 40/40/40
f 41/41/41 44/44/44 43/43/43
f 36/36/36 44/44/44 41/41/41
f 32/32/32 44/44/44 36/36/36
f 32/32/32 42/42/42 44/44/44
f 44/44/44 42/42/42 43/43/43
f 47/47/47 46/46/46 45/45/45
f 46/46/46 48/48/48 45/45/45
f 46/46/46 49/49/49 48/48/48
f 49/49/49 50/50/50 48/48/48
f 45/45/45 48/48/48 50/50/50
f 49/49/49 51/51/51 50/50/50
f 51/51/51 52/52/52 50/50/50
f 45/45/45 50/50/50 52/52/52
f 51/51/51 53/53/53 52/52/52
f 47/47/47 45/45/45 54/54/54
f 54/54/54 45/45/45 52/52/52
f 55/55/55 47/47/47 54/54/54
f 53/53/53 55/55/55 56/56/56
f 53/53/53 56/56/56 52/52/52
f 55/55/55 54/54/54 56/56/56
f 52/52/52 56/56/56 54/54/54
