g Gemstone Geode Crystal.002
v 0.06937572 1.557064 -0.3801161
v -0.1417863 1.189487 -0.6221778
v -0.09078116 1.659588 -0.8073409
v 0.1725526 2.027042 -0.977414
v 0.3499187 2.021182 -0.9490687
v 0.2437057 2.056914 -0.8740783
v 0.3695872 1.488101 0.1425118
v 0.3959273 1.251002 0.4161941
v 0.1015187 1.346411 0.3816453
v 0.06937572 1.557064 -0.3801161
v 0.4905024 1.680075 -0.5834423
v 0.5230811 1.190349 -0.324114
v 0.3499187 2.021182 -0.9490687
v 0.2886122 1.525701 -1.011311
v 0.5081221 1.574013 -0.8219897
v -0.4654696 1.800545 0.6483755
v -0.3202027 1.779018 0.780843
v -0.5271366 1.686991 0.7279441
v -0.3225296 1.779898 0.5249045
v -0.4654696 1.800545 0.6483755
v -0.424038 1.582965 0.3353514
v -0.3549193 1.499074 0.7176991
v -0.5271366 1.686991 0.7279441
v -0.3202027 1.779018 0.780843
v 0.1668893 0.8822144 0.3802169
v -0.1075112 1.289245 0.5351479
v 0.1015187 1.346411 0.3816453
v -0.07040726 1.638582 0.4399197
v -0.2507447 2.528536 0.3850941
v -0.02622611 2.040835 0.5208403
v -0.3225296 1.779898 0.5249045
v -0.4789346 2.485655 0.2966307
v -0.5954726 1.944236 0.3127836
v 0.456399 0.8853949 -0.2738598
v 0.5230811 1.190349 -0.324114
v 0.4046143 0.8127422 -0.661513
v 0.5081221 1.574013 -0.8219897
v 0.4905024 1.680075 -0.5834423
v 0.3499187 2.021182 -0.9490687
v -0.2496249 1.430351 -0.3948682
v -0.1417863 1.189487 -0.6221778
v 0.06937572 1.557064 -0.3801161
v -0.1005887 2.184229 -0.2415628
v -0.4171216 2.107919 -0.2511838
v 0.1486762 2.202628 -0.03871794
v 0.06937572 1.557064 -0.3801161
v 0.3231135 1.528835 -0.1911243
v 0.5230811 1.190349 -0.324114
v 0.1725526 2.027042 -0.977414
v -0.09078116 1.659588 -0.8073409
v -0.0002643128 1.573455 -0.986186
v -0.1417863 1.189487 -0.6221778
v -0.03251842 0.7973035 -0.7656831
v -0.218872 0.9090613 -0.4370878
v -0.2496249 1.430351 -0.3948682
v -0.4051884 0.9184195 -0.1932983
v -0.6177053 2.007171 -0.009919317
v -0.4171216 2.107919 -0.2511838
v -0.4051884 0.9184195 -0.1932983
v -0.5954726 1.944236 0.3127836
v -0.3642735 0.8553628 0.04399273
v 0.7804855 1.038582 -0.07056721
v 0.7250077 0.8954995 0.2212993
v 0.977281 1.442256 0.2877886
v 0.925283 1.44991 0.1201883
v 0.9612785 1.750223 0.2702848
v 0.8799505 1.798979 0.2187171
v 0.740833 1.575307 -0.0401793
v 0.5230811 1.190349 -0.324114
v 0.456399 0.8853949 -0.2738598
v 0.3231135 1.528835 -0.1911243
v 0.5230811 1.190349 -0.324114
v 0.3695872 1.488101 0.1425118
v 0.1486762 2.202628 -0.03871794
v 0.1743575 2.141582 0.2795758
v -0.02622611 2.040835 0.5208403
v 0.3695872 1.488101 0.1425118
v 0.1015187 1.346411 0.3816453
v 0.9612785 1.750223 0.2702848
v 0.8011562 1.826762 0.2902351
v 0.8799505 1.798979 0.2187171
v 0.8377839 1.792675 0.3891911
v 0.8279001 1.494648 0.464111
v 0.6361914 1.578103 0.4432003
v 0.8377839 1.792675 0.3891911
v 0.3959273 1.251002 0.4161941
v 0.4735025 0.8783967 0.4332717
v 0.1668893 0.8822144 0.3802169
v 0.1015187 1.346411 0.3816453
v -0.3642735 0.8553628 0.04399273
v -0.5954726 1.944236 0.3127836
v -0.424038 1.582965 0.3353514
v -0.3225296 1.779898 0.5249045
v -0.02622611 2.040835 0.5208403
v -0.07040726 1.638582 0.4399197
v 0.1015187 1.346411 0.3816453
v -0.1084121 0.9014146 0.2879689
v -0.3642735 0.8553628 0.04399273
v -0.4083758 1.220116 0.3502731
v -0.5271366 1.686991 0.7279441
v -0.3549193 1.499074 0.7176991
v -0.5271366 1.686991 0.7279441
v -0.424038 1.582965 0.3353514
v -0.4654696 1.800545 0.6483755
v -0.4083758 1.220116 0.3502731
v -0.3642735 0.8553628 0.04399273
v -0.1075112 1.289245 0.5351479
v -0.1757405 1.555773 0.7224928
v -0.07040726 1.638582 0.4399197
v -0.3202027 1.779018 0.780843
v -0.1005887 2.184229 -0.2415628
v -0.4504362 2.535705 0.1061776
v -0.4171216 2.107919 -0.2511838
v -0.2100351 2.587131 0.1347647
v 0.1486762 2.202628 -0.03871794
v -0.2507447 2.528536 0.3850941
v 0.1743575 2.141582 0.2795758
v -0.02622611 2.040835 0.5208403
v -0.2100351 2.587131 0.1347647
v 0.1486762 2.202628 -0.03871794
v -0.4504362 2.535705 0.1061776
v -0.6177053 2.007171 -0.009919317
v -0.4171216 2.107919 -0.2511838
v -0.4789346 2.485655 0.2966307
v -0.5954726 1.944236 0.3127836
v 0.5081221 1.574013 -0.8219897
v 0.2886122 1.525701 -1.011311
v 0.2382595 0.7739336 -0.8488808
v 0.4046143 0.8127422 -0.661513
v -0.0002643128 1.573455 -0.986186
v -0.03251842 0.7973035 -0.7656831
v 0.2382595 0.7739336 -0.8488808
v 0.2886122 1.525701 -1.011311
v -0.4789346 2.485655 0.2966307
v -0.4504362 2.535705 0.1061776
v -0.2100351 2.587131 0.1347647
v -0.2507447 2.528536 0.3850941
v 0.2886122 1.525701 -1.011311
v 0.3499187 2.021182 -0.9490687
v 0.1725526 2.027042 -0.977414
v -0.0002643128 1.573455 -0.986186
v 0.4905024 1.680075 -0.5834423
v 0.06937572 1.557064 -0.3801161
v 0.2437057 2.056914 -0.8740783
v 0.3499187 2.021182 -0.9490687
v 0.06937572 1.557064 -0.3801161
v -0.09078116 1.659588 -0.8073409
v 0.1725526 2.027042 -0.977414
v 0.2437057 2.056914 -0.8740783
v 0.8279001 1.494648 0.464111
v 0.977281 1.442256 0.2877886
v 0.7250077 0.8954995 0.2212993
v 0.4735025 0.8783967 0.4332717
v 0.740833 1.575307 -0.0401793
v 0.3695872 1.488101 0.1425118
v 0.5230811 1.190349 -0.324114
v 0.59223 1.719091 0.2320269
v 0.8799505 1.798979 0.2187171
v 0.8011562 1.826762 0.2902351
v 0.6361914 1.578103 0.4432003
v 0.3959273 1.251002 0.4161941
v 0.3695872 1.488101 0.1425118
v 0.59223 1.719091 0.2320269
v 0.8377839 1.792675 0.3891911
v 0.8011562 1.826762 0.2902351
v 0.8279001 1.494648 0.464111
v 0.8377839 1.792675 0.3891911
v 0.9612785 1.750223 0.2702848
v 0.977281 1.442256 0.2877886
v 0.1668893 0.8822144 0.3802169
v -0.1084121 0.9014146 0.2879689
v -0.1075112 1.289245 0.5351479
v -0.3549193 1.499074 0.7176991
v -0.1757405 1.555773 0.7224928
v -0.3202027 1.779018 0.780843
v -0.3202027 1.779018 0.780843
v -0.4654696 1.800545 0.6483755
v -0.3225296 1.779898 0.5249045
v -0.07040726 1.638582 0.4399197
v 0.7250077 0.8954995 0.2212993
v 0.7804855 1.038582 -0.07056721
v 0.456399 0.8853949 -0.2738598
v 0.4735025 0.8783967 0.4332717
vt 0.7504883 0.3942871
vt 0.7504883 0.3918457
vt 0.7504883 0.3918457
vt 0.7558594 0.395752
vt 0.7524414 0.3955078
vt 0.7504883 0.3942871
vt 0.7553711 0.3994141
vt 0.7553711 0.4020996
vt 0.7553711 0.4020996
vt 0.7504883 0.3942871
vt 0.7504883 0.3969727
vt 0.7504883 0.3969727
vt 0.7524414 0.3955078
vt 0.7504883 0.3942871
vt 0.7553711 0.3969727
vt 0.7568359 0.395752
vt 0.7563477 0.3930664
vt 0.7568359 0.3959961
vt 0.7568359 0.3942871
vt 0.7568359 0.395752
vt 0.7568359 0.3959961
vt 0.7568359 0.3942871
vt 0.7568359 0.3959961
vt 0.7563477 0.3930664
vt 0.7543945 0.3930664
vt 0.7558594 0.3928223
vt 0.7558594 0.3928223
vt 0.7563477 0.3928223
vt 0.7529297 0.3852539
vt 0.7514648 0.3867188
vt 0.7543945 0.3867188
vt 0.7553711 0.385498
vt 0.7568359 0.3867188
vt 0.7543945 0.3969727
vt 0.7553711 0.3969727
vt 0.7543945 0.3969727
vt 0.7553711 0.3969727
vt 0.7553711 0.3969727
vt 0.7524414 0.3955078
vt 0.7504883 0.3918457
vt 0.7504883 0.3918457
vt 0.7504883 0.3942871
vt 0.7514648 0.3942871
vt 0.7514648 0.3918457
vt 0.7514648 0.3969727
vt 0.7504883 0.3942871
vt 0.7504883 0.3969727
vt 0.7504883 0.3969727
vt 0.7558594 0.395752
vt 0.7607422 0.3969727
vt 0.7607422 0.3969727
vt 0.7607422 0.3969727
vt 0.7592773 0.3969727
vt 0.7592773 0.3969727
vt 0.7607422 0.3969727
vt 0.7592773 0.3942871
vt 0.7617188 0.3942871
vt 0.7617188 0.3969727
vt 0.7592773 0.3942871
vt 0.7617188 0.3918457
vt 0.7597656 0.3918457
vt 0.7548828 0.3969727
vt 0.7543945 0.3994141
vt 0.7553711 0.3994141
vt 0.7553711 0.3979492
vt 0.7553711 0.3991699
vt 0.7553711 0.3979492
vt 0.7553711 0.3974609
vt 0.7553711 0.3969727
vt 0.7543945 0.3969727
vt 0.7553711 0.3969727
vt 0.7553711 0.3969727
vt 0.7553711 0.3994141
vt 0.7568359 0.3969727
vt 0.7568359 0.3994141
vt 0.7568359 0.4020996
vt 0.7553711 0.3994141
vt 0.7553711 0.4020996
vt 0.7553711 0.3991699
vt 0.7553711 0.3994141
vt 0.7553711 0.3979492
vt 0.7553711 0.401123
vt 0.7553711 0.3918457
vt 0.7553711 0.3918457
vt 0.7553711 0.3918457
vt 0.7553711 0.3918457
vt 0.7568359 0.3918457
vt 0.7543945 0.3918457
vt 0.7553711 0.3918457
vt 0.7548828 0.3959961
vt 0.7568359 0.3969727
vt 0.7568359 0.3959961
vt 0.7568359 0.3942871
vt 0.7568359 0.3918457
vt 0.7563477 0.3928223
vt 0.7553711 0.3918457
vt 0.7553711 0.3942871
vt 0.7548828 0.3959961
vt 0.7553711 0.3959961
vt 0.7568359 0.3959961
vt 0.7568359 0.3942871
vt 0.7568359 0.3959961
vt 0.7568359 0.3959961
vt 0.7568359 0.395752
vt 0.7553711 0.3959961
vt 0.7548828 0.3959961
vt 0.7558594 0.3928223
vt 0.7563477 0.3928223
vt 0.7563477 0.3928223
vt 0.7563477 0.3930664
vt 0.7543945 0.3815918
vt 0.7558594 0.3833008
vt 0.7568359 0.3815918
vt 0.753418 0.3828125
vt 0.7514648 0.3815918
vt 0.7529297 0.3852539
vt 0.7514648 0.3842773
vt 0.7514648 0.3867188
vt 0.753418 0.3828125
vt 0.7514648 0.3815918
vt 0.7558594 0.3833008
vt 0.7568359 0.3842773
vt 0.7568359 0.3815918
vt 0.7553711 0.385498
vt 0.7568359 0.3867188
vt 0.7504883 0.3969727
vt 0.7504883 0.3942871
vt 0.7504883 0.3942871
vt 0.7495117 0.3969727
vt 0.7504883 0.3918457
vt 0.7490234 0.3918457
vt 0.7504883 0.3942871
vt 0.7504883 0.3942871
vt 0.7553711 0.385498
vt 0.7558594 0.3833008
vt 0.753418 0.3828125
vt 0.7529297 0.3852539
vt 0.7504883 0.3942871
vt 0.7524414 0.3955078
vt 0.7558594 0.395752
vt 0.7607422 0.3969727
vt 0.7553711 0.3969727
vt 0.7504883 0.3942871
vt 0.7504883 0.3942871
vt 0.7524414 0.3955078
vt 0.7504883 0.3942871
vt 0.7607422 0.3969727
vt 0.7558594 0.395752
vt 0.7504883 0.3942871
vt 0.7553711 0.4020996
vt 0.7553711 0.3994141
vt 0.7543945 0.3994141
vt 0.7543945 0.4020996
vt 0.7553711 0.3974609
vt 0.7553711 0.3994141
vt 0.7553711 0.3969727
vt 0.7553711 0.3994141
vt 0.7553711 0.3979492
vt 0.7553711 0.3994141
vt 0.7553711 0.4016113
vt 0.7553711 0.4020996
vt 0.7553711 0.3994141
vt 0.7553711 0.3994141
vt 0.7553711 0.401123
vt 0.7553711 0.3994141
vt 0.7553711 0.4020996
vt 0.7553711 0.401123
vt 0.7553711 0.3991699
vt 0.7553711 0.3994141
vt 0.7543945 0.3930664
vt 0.7553711 0.3942871
vt 0.7558594 0.3928223
vt 0.7568359 0.3942871
vt 0.7563477 0.3928223
vt 0.7563477 0.3930664
vt 0.7563477 0.3930664
vt 0.7568359 0.395752
vt 0.7568359 0.3942871
vt 0.7563477 0.3928223
vt 0.7543945 0.3994141
vt 0.7548828 0.3969727
vt 0.7543945 0.3969727
vt 0.7543945 0.4020996
vn -0.7954102 0.4587402 0.395752
vn -0.8852539 0.2504883 0.3918457
vn -0.746582 0.5380859 0.3913574
vn 0.08374023 0.9404297 -0.3295898
vn 0.08374023 0.9404297 -0.3295898
vn 0.08374023 0.9404297 -0.3295898
vn 0.1693115 0.7529297 0.6357422
vn 0.1693115 0.7529297 0.6357422
vn 0.1693115 0.7529297 0.6357422
vn 0.2614746 0.5820313 0.7700195
vn 0.2570801 0.6176758 0.7431641
vn 0.2712402 0.4643555 0.8427734
vn 0.6513672 0.01474762 -0.7587891
vn 0.6992188 -0.1708984 -0.6943359
vn 0.6977539 -0.1635742 -0.6972656
vn -0.4482422 0.6630859 0.5991211
vn -0.4482422 0.6630859 0.5991211
vn -0.4482422 0.6630859 0.5991211
vn -0.3786621 0.7358398 -0.5615234
vn -0.3786621 0.7358398 -0.5615234
vn -0.3786621 0.7358398 -0.5615234
vn 0.1016846 -0.4521484 0.8862305
vn -0.1589355 -0.1984863 0.9672852
vn -0.08325195 -0.2094727 0.9741211
vn 0.5761719 0.07861328 0.8134766
vn 0.5678711 0.1134644 0.8154297
vn 0.5683594 0.1105957 0.8154297
vn 0.5546875 0.1635742 0.815918
vn -0.425293 0.178833 0.887207
vn -0.09173584 0.1090698 0.9897461
vn -0.3630371 0.04736328 0.9306641
vn -0.4753418 0.1737061 0.8623047
vn -0.5253906 0.09832764 0.8452148
vn 0.9702148 -0.2264404 -0.0871582
vn 0.9897461 -0.1044312 -0.09741211
vn 0.9892578 -0.1113281 -0.09686279
vn 0.9956055 -0.0171814 -0.09466553
vn 0.9951172 -0.02192688 -0.09490967
vn 0.9462891 0.3149414 -0.07012939
vn -0.07006836 0.3034668 -0.9501953
vn -0.2110596 0.6191406 -0.7563477
vn -0.04840088 0.2529297 -0.9663086
vn 0.2156982 0.4265137 -0.878418
vn -0.05639648 0.3886719 -0.9194336
vn 0.5576172 0.4147949 -0.71875
vn 0.5820313 0.3496094 -0.7338867
vn 0.5756836 0.3903809 -0.7182617
vn 0.5332031 0.5629883 -0.6313477
vn -0.7807617 0.3081055 -0.543457
vn -0.8852539 0.001624107 -0.4648438
vn -0.8867188 -0.005912781 -0.4624023
vn -0.8959961 -0.06542969 -0.4389648
vn -0.8959961 -0.06494141 -0.439209
vn -0.8662109 -0.03121948 -0.4985352
vn -0.7695313 -0.0383606 -0.6376953
vn -0.7636719 -0.02783203 -0.6450195
vn -0.9555664 -0.02536011 -0.2939453
vn -0.7680664 0.03375244 -0.6391602
vn -0.9755859 -0.2116699 0.06234741
vn -0.9951172 -0.08221436 0.05838013
vn -0.9755859 -0.2116699 0.06234741
vn 0.8266602 -0.09936523 -0.5537109
vn 0.9091797 -0.4155273 -0.03097534
vn 0.956543 -0.2211914 -0.1889648
vn 0.7866211 0.08233643 -0.6118164
vn 0.7431641 0.2507324 -0.6206055
vn 0.703125 0.276123 -0.6547852
vn 0.7114258 0.1298828 -0.6904297
vn 0.6904297 -1.692772E-05 -0.7236328
vn 0.5976563 -0.2558594 -0.7597656
vn 0.9370117 0.3444824 -0.06069946
vn 0.8500977 0.5234375 -0.05450439
vn 0.9477539 0.3127441 -0.06149292
vn 0.8935547 0.4482422 0.02563477
vn 0.8701172 0.3291016 0.3674316
vn 0.6923828 0.1270752 0.7104492
vn 0.7089844 0.02549744 0.7045898
vn 0.7089844 0.02549744 0.7045898
vn 0.4411621 0.8862305 0.1419678
vn 0.4411621 0.8862305 0.1419678
vn 0.4411621 0.8862305 0.1419678
vn 0.4411621 0.8862305 0.1418457
vn -0.08306885 0.07843018 0.9936523
vn -0.07330322 0.08074951 0.9941406
vn 0.0003433228 0.2437744 0.9697266
vn -0.1347656 0.00396347 0.9907227
vn -0.1385498 0.00124073 0.9902344
vn -0.1452637 -0.006309509 0.9892578
vn -0.1452637 -0.006309509 0.9892578
vn -0.7260742 -0.3061523 0.6157227
vn -0.5253906 0.09832764 0.8452148
vn -0.7182617 -0.3017578 0.6264648
vn -0.3630371 0.04736328 0.9306641
vn -0.09173584 0.1090698 0.9897461
vn 0.07525635 -0.2045898 0.9760742
vn -0.002408981 -0.1970215 0.9804688
vn -0.5327148 -0.6020508 0.5952148
vn -0.4975586 -0.5922852 0.6337891
vn -0.5615234 -0.6088867 0.5600586
vn -0.5717773 -0.6113281 0.5473633
vn -0.5717773 -0.6113281 0.5473633
vn -0.9575195 0.08758545 -0.2746582
vn -0.9741211 -0.03027344 -0.223999
vn -0.9091797 0.2753906 -0.3117676
vn -0.9902344 -0.04812622 -0.1307373
vn -0.9951172 -0.04656982 -0.08782959
vn 0.9375 -0.004684448 0.3481445
vn 0.8867188 0.2329102 0.3989258
vn 0.9121094 0.1470947 0.3830566
vn 0.8076172 0.4123535 0.421875
vn 0.2156982 0.4265137 -0.878418
vn -0.097229 0.6494141 -0.7543945
vn -0.05639648 0.3886719 -0.9194336
vn -0.006523132 0.668457 -0.7436523
vn 0.5576172 0.4147949 -0.71875
vn 0.7133789 0.6503906 0.2609863
vn 0.8701172 0.3291016 0.3674316
vn 0.6923828 0.1270752 0.7104492
vn 0.7207031 0.6743164 0.1608887
vn 0.8935547 0.4482422 0.02563477
vn -0.9575195 0.2810059 -0.06530762
vn -0.9555664 -0.02536011 -0.2939453
vn -0.7680664 0.03375244 -0.6391602
vn -0.9667969 0.2524414 0.04376221
vn -0.9951172 -0.08221436 0.05838013
vn 0.6977539 -0.1635742 -0.6972656
vn 0.6992188 -0.1708984 -0.6943359
vn 0.706543 -0.2156982 -0.6738281
vn 0.706543 -0.2156982 -0.6738281
vn -0.142334 -0.1339111 -0.980957
vn -0.2127686 -0.2266846 -0.9506836
vn -0.2127686 -0.2266846 -0.9506836
vn -0.1427002 -0.1343994 -0.9804688
vn -0.2403564 0.9506836 0.1965332
vn -0.2403564 0.9506836 0.1965332
vn -0.2403564 0.9506836 0.1965332
vn -0.2403564 0.9506836 0.1965332
vn -0.1427002 -0.1343994 -0.9804688
vn 0.01504517 0.07092285 -0.9975586
vn 0.01504517 0.07092285 -0.9975586
vn -0.142334 -0.1339111 -0.980957
vn 0.2570801 0.6176758 0.7431641
vn 0.2614746 0.5820313 0.7700195
vn 0.24646 0.6879883 0.6826172
vn 0.24646 0.6879883 0.6826172
vn -0.7954102 0.4587402 0.395752
vn -0.746582 0.5380859 0.3913574
vn -0.6748047 0.6323242 0.3808594
vn -0.6748047 0.6323242 0.3808594
vn 0.671875 -0.2666016 0.690918
vn 0.668457 -0.2763672 0.6904297
vn 0.625 -0.3830566 0.6801758
vn 0.625 -0.3830566 0.6801758
vn -0.4223633 0.6928711 -0.5844727
vn -0.4472656 0.675293 -0.5864258
vn -0.4472656 0.675293 -0.5864258
vn -0.3886719 0.7148438 -0.5810547
vn -0.2458496 0.7924805 -0.5581055
vn -0.2458496 0.7924805 -0.5581055
vn -0.6835938 0.5336914 0.4978027
vn -0.71875 0.4938965 0.489502
vn -0.71875 0.4938965 0.489502
vn -0.668457 0.5498047 0.5009766
vn -0.5317383 0.6708984 0.5170898
vn -0.5317383 0.6708984 0.5170898
vn 0.671875 -0.2666016 0.690918
vn 0.7470703 0.107605 0.6557617
vn 0.7470703 0.107605 0.6557617
vn 0.668457 -0.2763672 0.6904297
vn -0.3049316 -0.5112305 0.8032227
vn -0.2008057 -0.5273438 0.8256836
vn 0.09887695 -0.5385742 0.8369141
vn 0.1016846 -0.4521484 0.8862305
vn 0.1380615 -0.479248 0.8666992
vn -0.08325195 -0.2094727 0.9741211
vn 0.3791504 0.925293 -0.0002658367
vn 0.3791504 0.925293 -0.0002658367
vn 0.3791504 0.925293 -0.0002658367
vn 0.3791504 0.925293 -0.0002658367
vn 0.2792969 -0.9511719 -0.1322021
vn 0.2792969 -0.9511719 -0.1322021
vn 0.2792969 -0.9511719 -0.1322021
vn 0.2792969 -0.9511719 -0.1322021
g Gemstone Geode Crystal.002_0
f 3/3/3 2/2/2 1/1/1
f 6/6/6 5/5/5 4/4/4
f 9/9/9 8/8/8 7/7/7
f 12/12/12 11/11/11 10/10/10
f 15/15/15 14/14/14 13/13/13
f 18/18/18 17/17/17 16/16/16
f 21/21/21 20/20/20 19/19/19
f 24/24/24 23/23/23 22/22/22
f 27/27/27 26/26/26 25/25/25
f 28/28/28 26/26/26 27/27/27
f 31/31/31 30/30/30 29/29/29
f 29/29/29 32/32/32 31/31/31
f 32/32/32 33/33/33 31/31/31
f 36/36/36 35/35/35 34/34/34
f 35/35/35 36/36/36 37/37/37
f 38/38/38 35/35/35 37/37/37
f 38/38/38 37/37/37 39/39/39
f 42/42/42 41/41/41 40/40/40
f 42/42/42 40/40/40 43/43/43
f 40/40/40 44/44/44 43/43/43
f 46/46/46 43/43/43 45/45/45
f 47/47/47 46/46/46 45/45/45
f 46/46/46 47/47/47 48/48/48
f 51/51/51 50/50/50 49/49/49
f 52/52/52 50/50/50 51/51/51
f 53/53/53 52/52/52 51/51/51
f 53/53/53 54/54/54 52/52/52
f 54/54/54 55/55/55 52/52/52
f 55/55/55 54/54/54 56/56/56
f 56/56/56 57/57/57 55/55/55
f 57/57/57 58/58/58 55/55/55
f 60/60/60 57/57/57 59/59/59
f 61/61/61 60/60/60 59/59/59
f 64/64/64 63/63/63 62/62/62
f 64/64/64 62/62/62 65/65/65
f 65/65/65 66/66/66 64/64/64
f 66/66/66 65/65/65 67/67/67
f 65/65/65 68/68/68 67/67/67
f 65/65/65 62/62/62 68/68/68
f 62/62/62 69/69/69 68/68/68
f 62/62/62 70/70/70 69/69/69
f 73/73/73 72/72/72 71/71/71
f 71/71/71 74/74/74 73/73/73
f 74/74/74 75/75/75 73/73/73
f 77/77/77 75/75/75 76/76/76
f 78/78/78 77/77/77 76/76/76
f 81/81/81 80/80/80 79/79/79
f 79/79/79 80/80/80 82/82/82
f 85/85/85 84/84/84 83/83/83
f 86/86/86 83/83/83 84/84/84
f 87/87/87 83/83/83 86/86/86
f 88/88/88 87/87/87 86/86/86
f 89/89/89 88/88/88 86/86/86
f 92/92/92 91/91/91 90/90/90
f 91/91/91 92/92/92 93/93/93
f 95/95/95 94/94/94 93/93/93
f 96/96/96 94/94/94 95/95/95
f 99/99/99 98/98/98 97/97/97
f 99/99/99 97/97/97 100/100/100
f 97/97/97 101/101/101 100/100/100
f 104/104/104 103/103/103 102/102/102
f 105/105/105 102/102/102 103/103/103
f 106/106/106 105/105/105 103/103/103
f 109/109/109 108/108/108 107/107/107
f 109/109/109 110/110/110 108/108/108
f 113/113/113 112/112/112 111/111/111
f 112/112/112 114/114/114 111/111/111
f 115/115/115 111/111/111 114/114/114
f 118/118/118 117/117/117 116/116/116
f 119/119/119 116/116/116 117/117/117
f 120/120/120 119/119/119 117/117/117
f 123/123/123 122/122/122 121/121/121
f 124/124/124 121/121/121 122/122/122
f 125/125/125 124/124/124 122/122/122
f 128/128/128 127/127/127 126/126/126
f 129/129/129 128/128/128 126/126/126
f 132/132/132 131/131/131 130/130/130
f 133/133/133 132/132/132 130/130/130
f 136/136/136 135/135/135 134/134/134
f 137/137/137 136/136/136 134/134/134
f 140/140/140 139/139/139 138/138/138
f 141/141/141 140/140/140 138/138/138
f 144/144/144 143/143/143 142/142/142
f 145/145/145 144/144/144 142/142/142
f 148/148/148 147/147/147 146/146/146
f 149/149/149 148/148/148 146/146/146
f 152/152/152 151/151/151 150/150/150
f 153/153/153 152/152/152 150/150/150
f 156/156/156 155/155/155 154/154/154
f 155/155/155 157/157/157 154/154/154
f 154/154/154 157/157/157 158/158/158
f 157/157/157 159/159/159 158/158/158
f 162/162/162 161/161/161 160/160/160
f 163/163/163 162/162/162 160/160/160
f 163/163/163 160/160/160 164/164/164
f 165/165/165 163/163/163 164/164/164
f 168/168/168 167/167/167 166/166/166
f 169/169/169 168/168/168 166/166/166
f 172/172/172 171/171/171 170/170/170
f 171/171/171 172/172/172 173/173/173
f 172/172/172 174/174/174 173/173/173
f 174/174/174 175/175/175 173/173/173
f 178/178/178 177/177/177 176/176/176
f 179/179/179 178/178/178 176/176/176
f 182/182/182 181/181/181 180/180/180
f 183/183/183 182/182/182 180/180/180
