g Grass_Snow.001
v -0.1524976 1.051267 -0.03310349
v -0.2338179 1.33609 -0.1632949
v -0.0560822 1.069641 -0.08533411
v -0.0560822 1.069641 -0.08533411
v -0.2338179 1.33609 -0.1632949
v -0.1305632 1.041898 -0.1469884
v -0.1305632 1.041898 -0.1469884
v -0.2338179 1.33609 -0.1632949
v -0.1524976 1.051267 -0.03310349
v 0.1070594 0.8034244 -0.1432282
v 0.2751557 1.039431 -0.1683733
v 0.1355373 0.819371 -0.04022643
v 0.1355373 0.819371 -0.04022643
v 0.2751557 1.039431 -0.1683733
v 0.196596 0.7832795 -0.0798259
v 0.196596 0.7832795 -0.0798259
v 0.2751557 1.039431 -0.1683733
v 0.1070594 0.8034244 -0.1432282
v 0.02758814 0.2342712 0.1920777
v 0.01390074 0.4810688 0.3070294
v -0.06099809 0.2442938 0.2191551
v -0.06099809 0.2442938 0.2191551
v 0.01390074 0.4810688 0.3070294
v -0.02422629 0.2221775 0.2738384
v -0.02422629 0.2221775 0.2738384
v 0.01390074 0.4810688 0.3070294
v 0.02758814 0.2342712 0.1920777
v -0.1305632 1.041898 -0.1469884
v -0.01249539 0.7188313 -0.0688393
v -0.0560822 1.069641 -0.08533411
v -0.09692942 0.7188313 -0.1259115
v -0.01249539 -0.3129267 -0.06883948
v -0.09692942 -0.3129267 -0.1259116
v -0.1068751 0.7188313 -0.009621547
v -0.1524976 1.051267 -0.03310349
v -0.0560822 1.069641 -0.08533411
v -0.01249539 0.7188313 -0.0688393
v -0.1068751 -0.3129267 -0.009621715
v -0.01249539 -0.3129267 -0.06883948
v -0.1524976 1.051267 -0.03310349
v -0.09692942 0.7188313 -0.1259115
v -0.1305632 1.041898 -0.1469884
v -0.1068751 0.7188313 -0.009621547
v -0.09692942 -0.3129267 -0.1259116
v -0.1068751 -0.3129267 -0.009621715
v 0.196596 0.7832795 -0.0798259
v 0.08405419 0.4761925 0.01532152
v 0.1355373 0.819371 -0.04022643
v 0.1662278 0.4621294 -0.03797342
v 0.07975491 -0.3129267 0.0123919
v 0.1652597 -0.3129267 -0.04306399
v 0.06490623 0.4699789 -0.09373236
v 0.1070594 0.8034244 -0.1432282
v 0.1355373 0.819371 -0.04022643
v 0.08405419 0.4761925 0.01532152
v 0.06208018 -0.3129267 -0.09761558
v 0.07975491 -0.3129267 0.0123919
v 0.1070594 0.8034244 -0.1432282
v 0.1662278 0.4621294 -0.03797342
v 0.196596 0.7832795 -0.0798259
v 0.06490623 0.4699789 -0.09373236
v 0.1652597 -0.3129267 -0.04306399
v 0.06208018 -0.3129267 -0.09761558
v -0.01194263 -0.3129268 0.2837202
v -0.0632649 -0.3129267 0.2115513
v -0.06099809 0.2442938 0.2191551
v -0.02422629 0.2221775 0.2738384
v -0.06099809 0.2442938 0.2191551
v -0.0632649 -0.3129267 0.2115513
v 0.03157871 -0.3129267 0.1921156
v 0.02758814 0.2342712 0.1920777
v 0.02758814 0.2342712 0.1920777
v 0.03157871 -0.3129267 0.1921156
v -0.01194263 -0.3129268 0.2837202
v -0.02422629 0.2221775 0.2738384
vt 0.3735352 0.7055664
vt 0.3735352 0.7055664
vt 0.3735352 0.7055664
vt 0.3735352 0.7055664
vt 0.3735352 0.7055664
vt 0.3735352 0.7055664
vt 0.3735352 0.7055664
vt 0.3735352 0.7055664
vt 0.3735352 0.7055664
vt 0.3735352 0.7055664
vt 0.3735352 0.7055664
vt 0.3735352 0.7055664
vt 0.3735352 0.7055664
vt 0.3735352 0.7055664
vt 0.3735352 0.7055664
vt 0.3735352 0.7055664
vt 0.3735352 0.7055664
vt 0.3735352 0.7055664
vt 0.3735352 0.7055664
vt 0.3735352 0.7055664
vt 0.3735352 0.7055664
vt 0.3735352 0.7055664
vt 0.3735352 0.7055664
vt 0.3735352 0.7055664
vt 0.3735352 0.7055664
vt 0.3735352 0.7055664
vt 0.3735352 0.7055664
vt 0.3735352 0.7055664
vt 0.3735352 0.7055664
vt 0.3735352 0.7055664
vt 0.3735352 0.7055664
vt 0.3735352 0.7055664
vt 0.3735352 0.7055664
vt 0.3735352 0.7055664
vt 0.3735352 0.7055664
vt 0.3735352 0.7055664
vt 0.3735352 0.7055664
vt 0.3735352 0.7055664
vt 0.3735352 0.7055664
vt 0.3735352 0.7055664
vt 0.3735352 0.7055664
vt 0.3735352 0.7055664
vt 0.3735352 0.7055664
vt 0.3735352 0.7055664
vt 0.3735352 0.7055664
vt 0.3735352 0.7055664
vt 0.3735352 0.7055664
vt 0.3735352 0.7055664
vt 0.3735352 0.7055664
vt 0.3735352 0.7055664
vt 0.3735352 0.7055664
vt 0.3735352 0.7055664
vt 0.3735352 0.7055664
vt 0.3735352 0.7055664
vt 0.3735352 0.7055664
vt 0.3735352 0.7055664
vt 0.3735352 0.7055664
vt 0.3735352 0.7055664
vt 0.3735352 0.7055664
vt 0.3735352 0.7055664
vt 0.3735352 0.7055664
vt 0.3735352 0.7055664
vt 0.3735352 0.7055664
vt 0.3735352 0.7055664
vt 0.3735352 0.7055664
vt 0.3735352 0.7055664
vt 0.3735352 0.7055664
vt 0.3735352 0.7055664
vt 0.3735352 0.7055664
vt 0.3735352 0.7055664
vt 0.3735352 0.7055664
vt 0.3735352 0.7055664
vt 0.3735352 0.7055664
vt 0.3735352 0.7055664
vt 0.3735352 0.7055664
vn 0.3493652 0.4702148 0.8105469
vn 0.3493652 0.4702148 0.8105469
vn 0.3493652 0.4702148 0.8105469
vn 0.5922852 0.1640625 -0.7890625
vn 0.5922852 0.1640625 -0.7890625
vn 0.5922852 0.1640625 -0.7890625
vn -0.9301758 -0.3347168 -0.1516113
vn -0.9301758 -0.3347168 -0.1516113
vn -0.9301758 -0.3347168 -0.1516113
vn -0.8007813 0.5844727 0.1309814
vn -0.8007813 0.5844727 0.1309814
vn -0.8007813 0.5844727 0.1309814
vn 0.5825195 0.1002197 0.8066406
vn 0.5825195 0.1002197 0.8066406
vn 0.5825195 0.1002197 0.8066406
vn 0.4626465 -0.4130859 -0.784668
vn 0.4626465 -0.4130859 -0.784668
vn 0.4626465 -0.4130859 -0.784668
vn -0.2259521 0.4008789 -0.8876953
vn -0.2259521 0.4008789 -0.8876953
vn -0.2259521 0.4008789 -0.8876953
vn -0.8198242 0.04760742 0.5708008
vn -0.8198242 0.04760742 0.5708008
vn -0.8198242 0.04760742 0.5708008
vn 0.8417969 -0.1888428 0.5053711
vn 0.8417969 -0.1888428 0.5053711
vn 0.8417969 -0.1888428 0.5053711
vn 0.5957031 0.02349854 -0.8027344
vn 0.5683594 0.005374908 -0.8227539
vn 0.5957031 0.02349854 -0.8027344
vn 0.5693359 0.006088257 -0.8222656
vn 0.5600586 1.192093E-07 -0.8286133
vn 0.5600586 1.192093E-07 -0.8286133
vn 0.5219727 0.0297699 0.8525391
vn 0.4926758 0.1148071 0.8623047
vn 0.4926758 0.1148071 0.8623047
vn 0.5229492 0.02760315 0.8520508
vn 0.53125 -1.192093E-07 0.847168
vn 0.53125 -1.192093E-07 0.847168
vn -0.9829102 -0.1278076 -0.1309814
vn -0.9946289 -0.03182983 -0.09674072
vn -0.9829102 -0.1278076 -0.1309814
vn -0.9951172 -0.03012085 -0.09613037
vn -0.996582 0 -0.08520508
vn -0.996582 0 -0.08520508
vn 0.5561523 0.05303955 0.8291016
vn 0.5473633 0.010849 0.8369141
vn 0.5561523 0.05303955 0.8291016
vn 0.5473633 0.009262085 0.8369141
vn 0.5439453 -0.006134033 0.8393555
vn 0.5439453 -0.006134033 0.8393555
vn -0.9829102 0.05258179 0.1765137
vn -0.9658203 0.1646729 0.199707
vn -0.9658203 0.1646729 0.199707
vn -0.9829102 0.05212402 0.1763916
vn -0.9863281 0.003751755 0.1656494
vn -0.9863281 0.003751755 0.1656494
vn 0.5029297 -0.1738281 -0.8466797
vn 0.484375 -0.04574585 -0.8735352
vn 0.5029297 -0.1738281 -0.8466797
vn 0.4851074 -0.05047607 -0.8730469
vn 0.4748535 0.003913879 -0.8798828
vn 0.4748535 0.003913879 -0.8798828
vn -0.8217773 -0.006347656 0.5698242
vn -0.8217773 -0.006347656 0.5698242
vn -0.8217773 -0.006347656 0.5698242
vn -0.8217773 -0.006347656 0.5698242
vn -0.2454834 0.006256104 -0.9692383
vn -0.2454834 0.006256104 -0.9692383
vn -0.2454834 0.006256104 -0.9692383
vn -0.2454834 0.006256104 -0.9692383
vn 0.8754883 0.01759338 0.482666
vn 0.8754883 0.01759338 0.482666
vn 0.8754883 0.01759338 0.482666
vn 0.8754883 0.01759338 0.482666
g Grass_Snow.001_0
f 3/3/3 2/2/2 1/1/1
f 6/6/6 5/5/5 4/4/4
f 9/9/9 8/8/8 7/7/7
f 12/12/12 11/11/11 10/10/10
f 15/15/15 14/14/14 13/13/13
f 18/18/18 17/17/17 16/16/16
f 21/21/21 20/20/20 19/19/19
f 24/24/24 23/23/23 22/22/22
f 27/27/27 26/26/26 25/25/25
f 30/30/30 29/29/29 28/28/28
f 29/29/29 31/31/31 28/28/28
f 29/29/29 32/32/32 31/31/31
f 32/32/32 33/33/33 31/31/31
f 36/36/36 35/35/35 34/34/34
f 37/37/37 36/36/36 34/34/34
f 37/37/37 34/34/34 38/38/38
f 39/39/39 37/37/37 38/38/38
f 42/42/42 41/41/41 40/40/40
f 41/41/41 43/43/43 40/40/40
f 41/41/41 44/44/44 43/43/43
f 44/44/44 45/45/45 43/43/43
f 48/48/48 47/47/47 46/46/46
f 47/47/47 49/49/49 46/46/46
f 47/47/47 50/50/50 49/49/49
f 50/50/50 51/51/51 49/49/49
f 54/54/54 53/53/53 52/52/52
f 55/55/55 54/54/54 52/52/52
f 55/55/55 52/52/52 56/56/56
f 57/57/57 55/55/55 56/56/56
f 60/60/60 59/59/59 58/58/58
f 59/59/59 61/61/61 58/58/58
f 59/59/59 62/62/62 61/61/61
f 62/62/62 63/63/63 61/61/61
f 66/66/66 65/65/65 64/64/64
f 67/67/67 66/66/66 64/64/64
f 70/70/70 69/69/69 68/68/68
f 71/71/71 70/70/70 68/68/68
f 74/74/74 73/73/73 72/72/72
f 75/75/75 74/74/74 72/72/72
