g Log_01_LOD3
v -0.03537956 0.01045528 0.00239915
v -0.03638985 0.005348425 0.01180894
v -0.03561987 0.004522997 0.007297807
v -0.03602113 0.01445051 0.004292787
v -0.03534693 0.01148359 -0.0004087001
v -0.03681876 -0.004069425 0.009312598
v -0.03589941 -0.001615089 0.005670818
v -0.03597106 0.01602826 -1.538217E-05
v -0.03548343 0.008968922 -0.005839104
v -0.03702818 -0.007927751 0.000980565
v -0.01896535 -0.007784022 0.009350962
v -0.0360359 -0.004129756 0.0002404088
v -0.01853644 0.001633829 0.0118473
v -0.01816771 0.01073591 0.004331151
v -0.03692799 -0.004769526 -0.007643166
v -0.0359706 -0.002071379 -0.005380112
v -0.0361805 0.01216994 -0.008347411
v -0.03574176 0.00335427 -0.007898331
v -0.03657687 0.00355521 -0.01150694
v -0.01811766 0.01231367 2.298176E-05
v 0.01046085 0.01568027 -0.001465636
v 0.01038329 0.01323566 0.005209516
v -0.01917477 -0.01164235 0.001018929
v -0.01907458 -0.008484121 -0.007604804
v -0.008370717 -0.01037725 0.0008970934
v -0.01872345 -0.0001593864 -0.01146858
v -0.01832709 0.008455341 -0.008309047
v -0.0009636703 -0.006363425 -0.007809039
v -0.0002161823 0.01057604 -0.008513281
v -0.0006125497 0.001961309 -0.01167281
v 0.01711566 -0.004958279 -0.007983523
v 0.01746678 0.003366456 -0.0118473
v 0.01701547 -0.008116506 0.0006402105
v 0.01786315 0.01198118 -0.008687767
v 0.03500065 -0.007957324 -0.00797491
v 0.03490045 -0.01111555 0.0006488234
v 0.03535177 0.0003674075 -0.01183868
v 0.0364551 -0.00435475 -0.005159731
v 0.03666538 0.0006307064 -0.00747364
v 0.03639511 -0.006246127 4.789233E-06
v 0.03690275 0.005789832 -0.005581481
v 0.03510987 -0.007257226 0.008980851
v 0.03652052 -0.00393548 0.004994616
v 0.03574813 0.008982134 -0.008679152
v 0.03702818 0.00810048 -0.0005916565
v 0.01722489 -0.00425818 0.008972239
v 0.03553878 0.002160625 0.0114772
v 0.03677738 0.001704613 0.006489604
v 0.01972967 0.01640066 -0.00155509
v 0.03595756 0.01284046 -0.0003471226
v 0.01965212 0.01395605 0.005120063
v 0.0369982 0.007155604 0.001988385
v 0.03590751 0.0112627 0.003961043
v 0.01765379 0.005159671 0.01146858
v -0.008161291 -0.006518922 0.009229121
v -0.000425536 0.003754524 0.01164307
v 0.02526484 0.02567769 0.001009381
v 0.02482994 0.02449431 0.005421022
v 0.01988512 0.02829502 0.001471655
v 0.01945022 0.02711163 0.005883295
v -0.00395856 -0.02513255 0.001264376
v -0.004754268 -0.02382908 0.005233096
v -0.007877994 -0.02829502 0.001186176
v -0.008673704 -0.02699154 0.005154896
v 0.0369982 0.007155604 0.001988385
v 0.03702818 0.00810048 -0.0005916565
v -0.0002265677 0.007978839 0.001257887
v -0.0002522406 0.00716971 0.003467269
v 0.03677738 0.001704613 0.006489604
v -0.0003339711 0.006000154 -0.00301507
v 0.03690275 0.005789832 -0.005581481
v -0.0004413356 0.00250184 0.007321821
v 0.03652052 -0.00393548 0.004994616
v -0.0005372425 0.001582215 -0.004635391
v 0.03666538 0.0006307064 -0.00747364
v -0.0006612917 -0.002327969 0.00604161
v 0.03639511 -0.006246127 4.789233E-06
v -0.000717311 -0.002687004 -0.002653911
v 0.0364551 -0.00435475 -0.005159731
v -0.0007686949 -0.004306654 0.001768646
v -0.03534693 0.01148359 -0.0004087001
v -0.03537956 0.01045528 0.00239915
v -0.03548343 0.008968922 -0.005839104
v -0.03561987 0.004522997 0.007297807
v -0.03574176 0.00335427 -0.007898331
v -0.03589941 -0.001615089 0.005670818
v -0.0359706 -0.002071379 -0.005380112
v -0.0360359 -0.004129756 0.0002404088
vt 0.9189453 0.4199219
vt 0.9189453 0.4199219
vt 0.9189453 0.4199219
vt 0.9189453 0.4199219
vt 0.9189453 0.4199219
vt 0.9189453 0.4199219
vt 0.9189453 0.4199219
vt 0.9189453 0.4199219
vt 0.9189453 0.4199219
vt 0.9189453 0.4199219
vt 0.9189453 0.4199219
vt 0.9189453 0.4199219
vt 0.9189453 0.4199219
vt 0.9189453 0.4199219
vt 0.9189453 0.4199219
vt 0.9189453 0.4199219
vt 0.9189453 0.4199219
vt 0.9189453 0.4199219
vt 0.9189453 0.4199219
vt 0.9189453 0.4199219
vt 0.9189453 0.4199219
vt 0.9189453 0.4199219
vt 0.9189453 0.4199219
vt 0.9189453 0.4199219
vt 0.9189453 0.4199219
vt 0.9189453 0.4199219
vt 0.9189453 0.4199219
vt 0.9189453 0.4199219
vt 0.9189453 0.4199219
vt 0.9189453 0.4199219
vt 0.9189453 0.4199219
vt 0.9189453 0.4199219
vt 0.9189453 0.4199219
vt 0.9189453 0.4199219
vt 0.9189453 0.4199219
vt 0.9189453 0.4199219
vt 0.9189453 0.4199219
vt 0.9189453 0.4199219
vt 0.9189453 0.4199219
vt 0.9189453 0.4199219
vt 0.9189453 0.4199219
vt 0.9189453 0.4199219
vt 0.9189453 0.4199219
vt 0.9189453 0.4199219
vt 0.9189453 0.4199219
vt 0.9189453 0.4199219
vt 0.9189453 0.4199219
vt 0.9189453 0.4199219
vt 0.9189453 0.4199219
vt 0.9189453 0.4199219
vt 0.9189453 0.4199219
vt 0.9189453 0.4199219
vt 0.9189453 0.4199219
vt 0.9189453 0.4199219
vt 0.9189453 0.4199219
vt 0.9189453 0.4199219
vt 0.9189453 0.4199219
vt 0.9189453 0.4199219
vt 0.9189453 0.4199219
vt 0.9189453 0.4199219
vt 0.9189453 0.4199219
vt 0.9189453 0.4199219
vt 0.9189453 0.4199219
vt 0.9189453 0.4199219
vt 0.4157715 0.2509766
vt 0.4157715 0.2509766
vt 0.4157715 0.2509766
vt 0.4157715 0.2509766
vt 0.4157715 0.2509766
vt 0.4157715 0.2509766
vt 0.4157715 0.2509766
vt 0.4157715 0.2509766
vt 0.4157715 0.2509766
vt 0.4157715 0.2509766
vt 0.4157715 0.2509766
vt 0.4157715 0.2509766
vt 0.4157715 0.2509766
vt 0.4157715 0.2509766
vt 0.4157715 0.2509766
vt 0.4157715 0.2509766
vt 0.4157715 0.2509766
vt 0.4157715 0.2509766
vt 0.4157715 0.2509766
vt 0.4157715 0.2509766
vt 0.4157715 0.2509766
vt 0.4157715 0.2509766
vt 0.4157715 0.2509766
vt 0.4157715 0.2509766
vn -0.7285156 -0.550293 -0.4082031
vn -0.6435547 0.2298584 0.7299805
vn -0.7583008 -0.112915 -0.6420898
vn -0.6357422 0.644043 0.425293
vn -0.7749023 -0.6303711 0.04360962
vn -0.7294922 -0.3984375 0.5561523
vn -0.7211914 0.4729004 -0.5063477
vn -0.5917969 0.8051758 -0.03265381
vn -0.7626953 -0.4084473 0.5009766
vn -0.7753906 -0.6303711 0.02755737
vn -0.1921387 -0.5151367 0.8354492
vn -0.6962891 0.7177734 -0.01043701
vn 0.0100708 0.1647949 0.9863281
vn 0.03948975 0.8056641 0.5908203
vn -0.7583008 -0.447998 -0.4736328
vn -0.7070313 0.5273438 0.4707031
vn -0.6279297 0.5581055 -0.5429688
vn -0.7348633 0.06433105 0.675293
vn -0.6972656 0.03302002 -0.7163086
vn 0.04504395 0.9980469 -0.0418396
vn -0.3066406 0.9072266 -0.2878418
vn -0.2253418 0.6787109 0.6987305
vn -0.3535156 -0.9130859 -0.2032471
vn -0.03637695 -0.7529297 -0.6572266
vn 0.4594727 -0.7631836 -0.4541016
vn -0.008148193 -0.08032227 -0.996582
vn 0.02288818 0.6513672 -0.7583008
vn 0.06228638 -0.7294922 -0.6811523
vn -0.08270264 0.6635742 -0.7431641
vn -0.007568359 -0.03643799 -0.9995117
vn -0.03359985 -0.7182617 -0.6948242
vn -0.005096436 -0.01159668 -1
vn -0.0395813 -0.9985352 0.03839111
vn 0.02828979 0.65625 -0.7543945
vn 0.4746094 -0.6674805 -0.5737305
vn 0.4602051 -0.887207 0.03598022
vn 0.5297852 -0.07977295 -0.8442383
vn 0.9179688 0.2753906 0.2858887
vn 0.9135742 -0.0239563 0.4057617
vn 0.9101563 0.4138184 -0.02307129
vn 0.9003906 -0.3190918 0.2961426
vn 0.4897461 -0.5869141 0.6445313
vn 0.9038086 0.2514648 -0.3466797
vn 0.597168 0.4990234 -0.628418
vn 0.8837891 -0.4675293 0.01248169
vn -0.02075195 -0.6210938 0.7836914
vn 0.5571289 0.1134644 0.8227539
vn 0.9008789 -0.1195068 -0.4172363
vn 0.3596191 0.6977539 -0.6191406
vn 0.6435547 0.7641602 -0.0458374
vn 0.2844238 0.4370117 0.8530273
vn 0.8491211 -0.4494629 -0.2766113
vn 0.637207 0.6137695 0.4658203
vn 0.01870728 0.2214355 0.9750977
vn 0.2122803 -0.4003906 0.8916016
vn -0.01809692 0.2086182 0.9780273
vn 0.7915039 0.3823242 -0.4768066
vn 0.7851563 0.1512451 0.6000977
vn -0.1799316 0.9160156 -0.3588867
vn -0.2280273 0.6640625 0.7119141
vn 0.7827148 -0.3352051 -0.5249023
vn 0.7617188 -0.2445068 0.6000977
vn -0.06750488 -0.9213867 -0.3833008
vn -0.208252 -0.7270508 0.6542969
vn 0.8491211 -0.4494629 -0.2766113
vn 0.8837891 -0.4675293 0.01248169
vn -0.04803467 -0.9985352 0.0300293
vn -0.04067993 -0.8095703 -0.5854492
vn 0.9008789 -0.1195068 -0.4172363
vn -0.03475952 -0.6801758 0.7324219
vn 0.9003906 -0.3190918 0.2961426
vn -0.01879883 -0.2075195 -0.9780273
vn 0.9038086 0.2514648 -0.3466797
vn -0.006622314 0.04577637 0.9990234
vn 0.9135742 -0.0239563 0.4057617
vn 0.01351929 0.6381836 -0.7700195
vn 0.9101563 0.4138184 -0.02307129
vn 0.01956177 0.7431641 0.6689453
vn 0.9179688 0.2753906 0.2858887
vn 0.02835083 0.9980469 -0.05276489
vn -0.7749023 -0.6303711 0.04360962
vn -0.7285156 -0.550293 -0.4082031
vn -0.7626953 -0.4084473 0.5009766
vn -0.7583008 -0.112915 -0.6420898
vn -0.7348633 0.06433105 0.675293
vn -0.7211914 0.4729004 -0.5063477
vn -0.7070313 0.5273438 0.4707031
vn -0.6962891 0.7177734 -0.01043701
g Log_01_LOD3_0
f 3/3/3 2/2/2 1/1/1
f 2/2/2 4/4/4 1/1/1
f 1/1/1 4/4/4 5/5/5
f 6/6/6 2/2/2 3/3/3
f 7/7/7 6/6/6 3/3/3
f 4/4/4 8/8/8 5/5/5
f 5/5/5 8/8/8 9/9/9
f 10/10/10 6/6/6 7/7/7
f 11/11/11 6/6/6 10/10/10
f 12/12/12 10/10/10 7/7/7
f 13/13/13 2/2/2 6/6/6
f 11/11/11 13/13/13 6/6/6
f 14/14/14 4/4/4 2/2/2
f 13/13/13 14/14/14 2/2/2
f 15/15/15 10/10/10 12/12/12
f 16/16/16 15/15/15 12/12/12
f 8/8/8 17/17/17 9/9/9
f 9/9/9 17/17/17 18/18/18
f 18/18/18 19/19/19 16/16/16
f 19/19/19 15/15/15 16/16/16
f 17/17/17 19/19/19 18/18/18
f 20/20/20 8/8/8 4/4/4
f 14/14/14 20/20/20 4/4/4
f 21/21/21 20/20/20 14/14/14
f 22/22/22 14/14/14 13/13/13
f 22/22/22 21/21/21 14/14/14
f 23/23/23 10/10/10 15/15/15
f 23/23/23 11/11/11 10/10/10
f 24/24/24 15/15/15 19/19/19
f 24/24/24 23/23/23 15/15/15
f 25/25/25 23/23/23 24/24/24
f 26/26/26 19/19/19 17/17/17
f 26/26/26 24/24/24 19/19/19
f 27/27/27 17/17/17 8/8/8
f 20/20/20 27/27/27 8/8/8
f 27/27/27 26/26/26 17/17/17
f 28/28/28 24/24/24 26/26/26
f 28/28/28 25/25/25 24/24/24
f 29/29/29 27/27/27 20/20/20
f 21/21/21 29/29/29 20/20/20
f 30/30/30 26/26/26 27/27/27
f 30/30/30 28/28/28 26/26/26
f 29/29/29 30/30/30 27/27/27
f 31/31/31 28/28/28 30/30/30
f 32/32/32 30/30/30 29/29/29
f 32/32/32 31/31/31 30/30/30
f 33/33/33 25/25/25 28/28/28
f 31/31/31 33/33/33 28/28/28
f 34/34/34 29/29/29 21/21/21
f 34/34/34 32/32/32 29/29/29
f 35/35/35 31/31/31 32/32/32
f 36/36/36 33/33/33 31/31/31
f 35/35/35 36/36/36 31/31/31
f 37/37/37 32/32/32 34/34/34
f 37/37/37 35/35/35 32/32/32
f 36/36/36 35/35/35 38/38/38
f 38/38/38 35/35/35 39/39/39
f 35/35/35 37/37/37 39/39/39
f 40/40/40 36/36/36 38/38/38
f 39/39/39 37/37/37 41/41/41
f 42/42/42 36/36/36 40/40/40
f 36/36/36 42/42/42 33/33/33
f 43/43/43 42/42/42 40/40/40
f 37/37/37 44/44/44 41/41/41
f 44/44/44 37/37/37 34/34/34
f 41/41/41 44/44/44 45/45/45
f 42/42/42 46/46/46 33/33/33
f 33/33/33 46/46/46 25/25/25
f 47/47/47 42/42/42 43/43/43
f 42/42/42 47/47/47 46/46/46
f 48/48/48 47/47/47 43/43/43
f 44/44/44 34/34/34 49/49/49
f 49/49/49 34/34/34 21/21/21
f 44/44/44 50/50/50 45/45/45
f 50/50/50 44/44/44 49/49/49
f 50/50/50 49/49/49 51/51/51
f 45/45/45 50/50/50 52/52/52
f 52/52/52 53/53/53 48/48/48
f 50/50/50 53/53/53 52/52/52
f 53/53/53 47/47/47 48/48/48
f 53/53/53 50/50/50 51/51/51
f 47/47/47 53/53/53 54/54/54
f 47/47/47 54/54/54 46/46/46
f 53/53/53 51/51/51 54/54/54
f 46/46/46 54/54/54 55/55/55
f 46/46/46 55/55/55 25/25/25
f 54/54/54 51/51/51 56/56/56
f 54/54/54 56/56/56 55/55/55
f 57/57/57 49/49/49 21/21/21
f 58/58/58 51/51/51 49/49/49
f 57/57/57 58/58/58 49/49/49
f 59/59/59 57/57/57 21/21/21
f 59/59/59 21/21/21 22/22/22
f 51/51/51 22/22/22 56/56/56
f 58/58/58 57/57/57 60/60/60
f 57/57/57 59/59/59 60/60/60
f 58/58/58 60/60/60 51/51/51
f 60/60/60 22/22/22 51/51/51
f 60/60/60 59/59/59 22/22/22
f 56/56/56 22/22/22 13/13/13
f 56/56/56 13/13/13 11/11/11
f 55/55/55 56/56/56 11/11/11
f 61/61/61 25/25/25 55/55/55
f 62/62/62 55/55/55 11/11/11
f 62/62/62 61/61/61 55/55/55
f 61/61/61 63/63/63 25/25/25
f 61/61/61 62/62/62 63/63/63
f 63/63/63 23/23/23 25/25/25
f 64/64/64 62/62/62 11/11/11
f 64/64/64 11/11/11 23/23/23
f 62/62/62 64/64/64 63/63/63
f 63/63/63 64/64/64 23/23/23
f 67/67/67 66/66/66 65/65/65
f 68/68/68 67/67/67 65/65/65
f 68/68/68 65/65/65 69/69/69
f 67/67/67 70/70/70 66/66/66
f 70/70/70 71/71/71 66/66/66
f 72/72/72 68/68/68 69/69/69
f 72/72/72 69/69/69 73/73/73
f 70/70/70 74/74/74 71/71/71
f 74/74/74 75/75/75 71/71/71
f 76/76/76 72/72/72 73/73/73
f 76/76/76 73/73/73 77/77/77
f 74/74/74 78/78/78 75/75/75
f 78/78/78 79/79/79 75/75/75
f 80/80/80 77/77/77 79/79/79
f 80/80/80 76/76/76 77/77/77
f 78/78/78 80/80/80 79/79/79
f 81/81/81 67/67/67 68/68/68
f 82/82/82 81/81/81 68/68/68
f 82/82/82 68/68/68 72/72/72
f 81/81/81 83/83/83 67/67/67
f 83/83/83 70/70/70 67/67/67
f 84/84/84 82/82/82 72/72/72
f 84/84/84 72/72/72 76/76/76
f 83/83/83 85/85/85 70/70/70
f 85/85/85 74/74/74 70/70/70
f 86/86/86 84/84/84 76/76/76
f 86/86/86 76/76/76 80/80/80
f 85/85/85 87/87/87 74/74/74
f 87/87/87 78/78/78 74/74/74
f 88/88/88 86/86/86 80/80/80
f 88/88/88 80/80/80 78/78/78
f 87/87/87 88/88/88 78/78/78
