g pb_Mesh-15293080
v 0.5248029 0.1754392 0.3700595
v 0.524803 0.1371906 -0.3700593
v 0.5248029 0.1371907 0.3700595
v 0.524803 0.1754391 -0.3700594
v 0.5248029 0.2965594 -0.3700594
v 0.5248029 0.2965595 0.3700595
v -0.5248029 0.175439 -0.3700595
v -0.524803 0.1371906 0.3700593
v -0.5248029 0.1371905 -0.3700595
v -0.524803 0.1754391 0.3700593
v -0.524803 0.2965593 0.3700593
v -0.5248029 0.2965592 -0.3700595
v 0.524803 0.1371906 -0.3700593
v 0.4353978 0.1371907 0.3700595
v 0.5248029 0.1371907 0.3700595
v 0.435398 0.1371906 -0.3700594
v -0.435398 0.1371906 0.3700593
v -0.4353979 0.1371905 -0.3700595
v -0.4353979 0.1371905 -0.3700595
v -0.524803 0.1371906 0.3700593
v -0.435398 0.1371906 0.3700593
v -0.5248029 0.1371905 -0.3700595
v -0.541409 0.2998137 0.3833569
v -0.524803 0.2965593 0.3700593
v -0.435398 0.2965593 0.3700593
v -0.524803 0.1754391 0.3700593
v -0.524803 0.1371906 0.3700593
v -0.435398 0.1371906 0.3700593
v -0.541409 0.2998137 0.3833569
v 0.4353978 0.1371907 0.3700595
v 0.5424897 0.2975916 0.382174
v 0.5424897 0.2975916 0.382174
v 0.5248029 0.1371907 0.3700595
v 0.4353978 0.1371907 0.3700595
v 0.5248029 0.1754392 0.3700595
v 0.5424897 0.2975916 0.382174
v 0.5248029 0.2965595 0.3700595
v 0.4353978 0.2965595 0.3700594
v 0.4353979 0.2965594 -0.2251761
v -0.5417259 0.2937098 -0.3823932
v -0.4353979 0.2965593 -0.2251762
v 0.5417517 0.2939828 -0.3821522
v -0.435398 0.2965593 0.3700593
v -0.5417259 0.2937098 -0.3823932
v -0.541409 0.2998137 0.3833569
v -0.4353979 0.2965593 -0.2251762
v -0.541409 0.2998137 0.3833569
v 0.5417517 0.2939828 -0.3821522
v 0.5424897 0.2975916 0.382174
v -0.5417259 0.2937098 -0.3823932
v 0.5424897 0.2975916 0.382174
v 0.4353979 0.2965594 -0.2251761
v 0.4353978 0.2965595 0.3700594
v 0.5417517 0.2939828 -0.3821522
v -0.5418397 -0.3705896 -0.2729728
v -0.4320251 -0.3705896 -0.3827874
v -0.5418397 -0.3705896 -0.3827874
v -0.4320251 -0.3705895 -0.2729728
v -0.5418397 -0.3705896 -0.2729728
v -0.4320252 0.2940672 -0.2729729
v -0.4320251 -0.3705895 -0.2729728
v -0.5418398 0.2940672 -0.2729729
v -0.4320251 -0.3705895 -0.2729728
v -0.4320252 0.2940672 -0.3827875
v -0.4320251 -0.3705896 -0.3827874
v -0.4320252 0.2940672 -0.2729729
v -0.4320251 -0.3705896 -0.3827874
v -0.5418398 0.2940672 -0.3827875
v -0.5418397 -0.3705896 -0.3827874
v -0.4320252 0.2940672 -0.3827875
v -0.5418397 -0.3705896 -0.3827874
v -0.5418398 0.2940672 -0.2729729
v -0.5418397 -0.3705896 -0.2729728
v -0.5418398 0.2940672 -0.3827875
v -0.4320253 -0.3705895 0.3827874
v -0.5418399 -0.3705895 0.2729728
v -0.5418399 -0.3705895 0.3827874
v -0.4320253 -0.3705895 0.2729728
v -0.4320253 -0.3705895 0.3827874
v -0.4320254 0.2940673 0.2729727
v -0.4320253 -0.3705895 0.2729728
v -0.4320254 0.2940673 0.3827873
v -0.4320253 -0.3705895 0.2729728
v -0.54184 0.2940673 0.2729726
v -0.5418399 -0.3705895 0.2729728
v -0.4320254 0.2940673 0.2729727
v -0.5418399 -0.3705895 0.2729728
v -0.54184 0.2940673 0.3827873
v -0.5418399 -0.3705895 0.3827874
v -0.54184 0.2940673 0.2729726
v -0.5418399 -0.3705895 0.3827874
v -0.4320254 0.2940673 0.3827873
v -0.4320253 -0.3705895 0.3827874
v -0.54184 0.2940673 0.3827873
v 0.5418401 -0.3705894 0.2729731
v 0.4320255 -0.3705894 0.3827878
v 0.5418401 -0.3705894 0.3827878
v 0.4320255 -0.3705894 0.2729731
v 0.5418401 -0.3705894 0.2729731
v 0.4320254 0.2940674 0.272973
v 0.4320255 -0.3705894 0.2729731
v 0.54184 0.2940674 0.272973
v 0.4320255 -0.3705894 0.2729731
v 0.4320254 0.2940674 0.3827876
v 0.4320255 -0.3705894 0.3827878
v 0.4320254 0.2940674 0.272973
v 0.4320255 -0.3705894 0.3827878
v 0.54184 0.2940674 0.3827877
v 0.5418401 -0.3705894 0.3827878
v 0.4320254 0.2940674 0.3827876
v 0.5418401 -0.3705894 0.3827878
v 0.54184 0.2940674 0.272973
v 0.5418401 -0.3705894 0.2729731
v 0.54184 0.2940674 0.3827877
v 0.4320255 -0.3705894 -0.3827871
v 0.5418401 -0.3705894 -0.2729725
v 0.5418401 -0.3705894 -0.3827871
v 0.4320255 -0.3705894 -0.2729725
v 0.4320255 -0.3705894 -0.3827871
v 0.4320254 0.2940674 -0.2729726
v 0.4320255 -0.3705894 -0.2729725
v 0.4320254 0.2940674 -0.3827872
v 0.4320255 -0.3705894 -0.2729725
v 0.54184 0.2940674 -0.2729726
v 0.5418401 -0.3705894 -0.2729725
v 0.4320254 0.2940674 -0.2729726
v 0.5418401 -0.3705894 -0.2729725
v 0.54184 0.2940674 -0.3827872
v 0.5418401 -0.3705894 -0.3827871
v 0.54184 0.2940674 -0.2729726
v 0.5418401 -0.3705894 -0.3827871
v 0.4320254 0.2940674 -0.3827872
v 0.4320255 -0.3705894 -0.3827871
v 0.54184 0.2940674 -0.3827872
v 0.5248029 0.2965594 -0.3700594
v 0.435398 0.1754391 -0.3700594
v 0.524803 0.1754391 -0.3700594
v 0.4353979 0.2965594 -0.3700594
v 0.435398 0.1754391 -0.3700594
v 0.524803 0.1371906 -0.3700593
v 0.435398 0.1371906 -0.3700594
v -0.4353979 0.2965592 -0.3700595
v -0.4353979 0.175439 -0.3700595
v -0.4353979 0.1371905 -0.3700595
v -0.5248029 0.2965592 -0.3700595
v -0.4353979 0.175439 -0.3700595
v -0.4353979 0.2965592 -0.3700595
v -0.5248029 0.175439 -0.3700595
v -0.5248029 0.1371905 -0.3700595
vt 0.5504587 0.6299536
vt 0.561855 0.8925424
vt 0.5619122 0.6299536
vt 0.5504014 0.8925399
vt 0.5141319 0.8925321
vt 0.5141892 0.6299536
vt 0.9248428 0.8926223
vt 0.9134468 0.6299536
vt 0.9133893 0.8926196
vt 0.9249004 0.6299536
vt 0.9611699 0.6299536
vt 0.9611124 0.8926301
vt 0.561855 0.8925424
vt 0.5886845 0.6299536
vt 0.5619122 0.6299536
vt 0.588627 0.8925481
vt 0.8866743 0.6299536
vt 0.8866169 0.8926135
vt 0.8866169 0.8926135
vt 0.9134468 0.6299536
vt 0.8866743 0.6299536
vt 0.9133893 0.8926196
vt 0.8866765 0.6184999
vt 0.9134561 0.5822299
vt 0.8866827 0.5822299
vt 0.9134493 0.6184999
vt 0.9134468 0.6299536
vt 0.8866743 0.6299536
vt 0.8866765 0.6184999
vt 0.5886845 0.6299536
vt 0.5886869 0.6184999
vt 0.5886869 0.6184999
vt 0.5619122 0.6299536
vt 0.5886845 0.6299536
vt 0.5619147 0.6184999
vt 0.5886869 0.6184999
vt 0.5619225 0.5822299
vt 0.5886946 0.5822299
vt 0.1017337 0.6669363
vt 0.3997238 0.7032055
vt 0.3997238 0.6669362
vt 0.1017337 0.7032055
vt 0.4359936 0.9459711
vt 0.3997238 0.7032055
vt 0.399724 0.9459714
vt 0.4359932 0.7032053
vt 0.1423473 0.7687359
vt 0.3623479 0.9479654
vt 0.3623479 0.7687359
vt 0.1423474 0.9479654
vt 0.1017336 0.9459714
vt 0.06546429 0.7032055
vt 0.06546406 0.9459711
vt 0.1017337 0.7032055
vt 0.5118445 0.05423174
vt 0.5645425 0.1068565
vt 0.5646155 0.05423174
vt 0.5118445 0.1068565
vt 0.5118445 0.05423174
vt 0.2149274 0.1068565
vt 0.5118445 0.1068565
vt 0.2149274 0.05423174
vt 0.5118445 0.1068565
vt 0.2149274 0.1594447
vt 0.5118445 0.1594447
vt 0.2149274 0.1068565
vt 0.5118445 0.1594447
vt 0.2149274 0.2120697
vt 0.5118445 0.2120697
vt 0.2149274 0.1594447
vt 0.5118445 0.2120697
vt 0.2149274 0.2646945
vt 0.5118445 0.2646945
vt 0.2149274 0.2120697
vt 0.5118445 0.05423174
vt 0.5645425 0.1068565
vt 0.5646155 0.05423174
vt 0.5118445 0.1068565
vt 0.5118445 0.05423174
vt 0.2149274 0.1068565
vt 0.5118445 0.1068565
vt 0.2149274 0.05423174
vt 0.5118445 0.1068565
vt 0.2149274 0.1594447
vt 0.5118445 0.1594447
vt 0.2149274 0.1068565
vt 0.5118445 0.1594447
vt 0.2149274 0.2120697
vt 0.5118445 0.2120697
vt 0.2149274 0.1594447
vt 0.5118445 0.2120697
vt 0.2149274 0.2646945
vt 0.5118445 0.2646945
vt 0.2149274 0.2120697
vt 0.5118445 0.05423174
vt 0.5645425 0.1068565
vt 0.5646155 0.05423174
vt 0.5118445 0.1068565
vt 0.5118445 0.05423174
vt 0.2149274 0.1068565
vt 0.5118445 0.1068565
vt 0.2149274 0.05423174
vt 0.5118445 0.1068565
vt 0.2149274 0.1594447
vt 0.5118445 0.1594447
vt 0.2149274 0.1068565
vt 0.5118445 0.1594447
vt 0.2149274 0.2120697
vt 0.5118445 0.2120697
vt 0.2149274 0.1594447
vt 0.5118445 0.2120697
vt 0.2149274 0.2646945
vt 0.5118445 0.2646945
vt 0.2149274 0.2120697
vt 0.5118445 0.05423174
vt 0.5645425 0.1068565
vt 0.5646155 0.05423174
vt 0.5118445 0.1068565
vt 0.5118445 0.05423174
vt 0.2149274 0.1068565
vt 0.5118445 0.1068565
vt 0.2149274 0.05423174
vt 0.5118445 0.1068565
vt 0.2149274 0.1594447
vt 0.5118445 0.1594447
vt 0.2149274 0.1068565
vt 0.5118445 0.1594447
vt 0.2149274 0.2120697
vt 0.5118445 0.2120697
vt 0.2149274 0.1594447
vt 0.5118445 0.2120697
vt 0.2149274 0.2646945
vt 0.5118445 0.2646945
vt 0.2149274 0.2120697
vt 0.5618448 0.9403035
vt 0.5886246 0.9040012
vt 0.5618525 0.9039958
vt 0.5886168 0.9403035
vt 0.5886246 0.9040012
vt 0.561855 0.8925424
vt 0.588627 0.8925481
vt 0.8866064 0.9403035
vt 0.8866144 0.9040673
vt 0.8866169 0.8926135
vt 0.9133785 0.9403035
vt 0.8866144 0.9040673
vt 0.8866064 0.9403035
vt 0.9133866 0.9040731
vt 0.9133893 0.8926196
vn 1 1.230279E-07 1.409343E-07
vn 1 1.255002E-13 1.610678E-07
vn 1 1.255002E-13 1.610678E-07
vn 1 2.460557E-07 1.610677E-07
vn 1 2.460556E-07 1.208008E-07
vn 1 0 8.053389E-08
vn -1 -1.230278E-07 -2.214682E-07
vn -1 0 -2.416016E-07
vn -1 0 -2.416016E-07
vn -1 -5.944746E-14 -2.416016E-07
vn -1 -2.460557E-07 -2.013347E-07
vn -1 -4.921112E-07 -1.610677E-07
vn 1.666702E-07 -1 1.409343E-07
vn 1.517836E-07 -1 1.308676E-07
vn 3.333404E-07 -1 1.610678E-07
vn 7.272645E-08 -1 1.258342E-07
vn 1.560616E-07 -1 1.35901E-07
vn 1.603397E-07 -1 1.409343E-07
vn 1.603397E-07 -1 1.409343E-07
vn 1.666703E-07 -1 1.409343E-07
vn 1.560616E-07 -1 1.35901E-07
vn 1.666703E-07 -1 1.409343E-07
vn -0.6661253 0.3905527 0.6354098
vn -0.4059266 0.6308009 -0.661297
vn 7.924131E-08 0.971334 -0.2377187
vn -0.6250625 -9.603237E-08 -0.7805747
vn -0.938017 -0.1223013 0.3242942
vn -2.219667E-07 -0.08149731 0.9966736
vn -0.6661253 0.3905527 0.6354098
vn 0.0002329488 -0.07701327 0.9970301
vn 0.6093118 0.4140166 0.6762613
vn 0.6093118 0.4140166 0.6762613
vn 0.9489222 -0.1264656 0.2890555
vn 0.0002329488 -0.07701327 0.9970301
vn 0.5650984 -3.21419E-07 -0.8250235
vn 0.6093118 0.4140166 0.6762613
vn 0.3862858 0.6811072 -0.6219937
vn 2.829692E-08 0.9963905 -0.08488893
vn 0.0001241976 -0.9998491 0.01735086
vn 0.0001241976 -0.9998491 0.01735086
vn 1.343937E-07 -0.9998358 0.01812169
vn 0.0002482608 -0.9998625 0.01658004
vn -0.001446775 -0.9995843 0.003989922
vn -0.001446775 -0.9995843 0.003989922
vn -0.0296831 -0.9995275 0.007979739
vn 0.02678955 -0.9996411 1.054655E-07
vn 0.0008973667 0.9999775 -0.006347175
vn 0.0008973667 0.9999775 -0.006347175
vn 0.002044936 0.9999868 -0.004723486
vn -0.0002502027 0.9999682 -0.007970863
vn -0.003796711 -0.9998969 0.002368804
vn -0.003796711 -0.9998969 0.002368804
vn 0.009637184 -0.9999535 1.516449E-07
vn -0.01723061 -0.9998403 0.004737457
vn 1.356938E-07 -1 1.356938E-07
vn 1.356938E-07 -1 1.356938E-07
vn 0 -1 0
vn 2.713875E-07 -1 2.713876E-07
vn -1.356938E-07 1.569353E-07 1
vn -1.356938E-07 1.569353E-07 1
vn -3.650596E-14 1.34516E-07 1
vn -2.713876E-07 1.793546E-07 1
vn 1 1.34516E-07 -3.650597E-14
vn 1 1.34516E-07 -3.650597E-14
vn 1 1.34516E-07 -3.650597E-14
vn 1 1.34516E-07 -3.650597E-14
vn 1.356938E-07 -1.569353E-07 -1
vn 1.356938E-07 -1.569353E-07 -1
vn 0 -1.793547E-07 -1
vn 2.713876E-07 -1.34516E-07 -1
vn -1 -8.967734E-08 0
vn -1 -8.967734E-08 0
vn -1 -8.967734E-08 0
vn -1 -8.967734E-08 0
vn 1.356938E-07 -1 1.356938E-07
vn 1.356938E-07 -1 1.356938E-07
vn 0 -1 2.713876E-07
vn 2.713876E-07 -1 0
vn 1 1.34516E-07 0
vn 1 1.34516E-07 0
vn 1 1.34516E-07 0
vn 1 1.34516E-07 0
vn 1.356939E-07 -1.569353E-07 -1
vn 1.356939E-07 -1.569353E-07 -1
vn 4.867462E-14 -1.793546E-07 -1
vn 2.713877E-07 -1.34516E-07 -1
vn -1 -8.967734E-08 2.433731E-14
vn -1 -8.967734E-08 2.433731E-14
vn -1 -8.967734E-08 2.433731E-14
vn -1 -8.967734E-08 2.433731E-14
vn -1.356938E-07 1.120967E-07 1
vn -1.356938E-07 1.120967E-07 1
vn 0 8.967734E-08 1
vn -2.713877E-07 1.34516E-07 1
vn 1.356938E-07 -1 1.356938E-07
vn 1.356938E-07 -1 1.356938E-07
vn 0 -1 0
vn 2.713876E-07 -1 2.713875E-07
vn 1.356939E-07 -1.569353E-07 -1
vn 1.356939E-07 -1.569353E-07 -1
vn 4.867462E-14 -1.793546E-07 -1
vn 2.713877E-07 -1.345159E-07 -1
vn -1 -1.34516E-07 3.650596E-14
vn -1 -1.34516E-07 3.650596E-14
vn -1 -1.34516E-07 3.650596E-14
vn -1 -1.34516E-07 3.650596E-14
vn -1.356938E-07 1.569353E-07 1
vn -1.356938E-07 1.569353E-07 1
vn 0 1.34516E-07 1
vn -2.713877E-07 1.793546E-07 1
vn 1 1.793547E-07 0
vn 1 1.793547E-07 0
vn 1 1.793547E-07 0
vn 1 1.793547E-07 0
vn 0 -1 0
vn 0 -1 0
vn 0 -1 0
vn 0 -1 0
vn -1 -1.34516E-07 0
vn -1 -1.34516E-07 0
vn -1 -1.34516E-07 0
vn -1 -1.34516E-07 0
vn -1.825299E-14 1.34516E-07 1
vn -1.825299E-14 1.34516E-07 1
vn 0 1.34516E-07 1
vn -3.650598E-14 1.34516E-07 1
vn 1 1.793547E-07 -2.433731E-14
vn 1 1.793547E-07 -2.433731E-14
vn 1 1.793547E-07 0
vn 1 1.793546E-07 -4.867462E-14
vn 0 -1.34516E-07 -1
vn 0 -1.34516E-07 -1
vn 0 -1.34516E-07 -1
vn 0 -1.34516E-07 -1
vn 0 0 -1
vn 1.229502E-07 -1.94794E-07 -1
vn 0 -3.89588E-07 -1
vn 8.556059E-08 4.210533E-14 -1
vn 1.229502E-07 -1.94794E-07 -1
vn 1.666703E-07 -3.89588E-07 -1
vn 2.351188E-07 0 -1
vn 8.556059E-08 4.210533E-14 -1
vn 1.272282E-07 -2.92191E-07 -1
vn 2.43675E-07 -5.843821E-07 -1
vn 0 0 -1
vn 1.272282E-07 -2.92191E-07 -1
vn 8.556059E-08 4.210533E-14 -1
vn 0 0 -1
vn 1.666704E-07 -3.89588E-07 -1
g pb_Mesh-15293080_0
f 3/3/3 2/2/2 1/1/1
f 4/4/4 1/1/1 2/2/2
f 4/4/4 5/5/5 1/1/1
f 6/6/6 1/1/1 5/5/5
f 9/9/9 8/8/8 7/7/7
f 10/10/10 7/7/7 8/8/8
f 10/10/10 11/11/11 7/7/7
f 12/12/12 7/7/7 11/11/11
f 15/15/15 14/14/14 13/13/13
f 16/16/16 13/13/13 14/14/14
f 14/14/14 17/17/17 16/16/16
f 18/18/18 16/16/16 17/17/17
f 21/21/21 20/20/20 19/19/19
f 22/22/22 19/19/19 20/20/20
f 25/25/25 24/24/24 23/23/23
f 26/26/26 23/23/23 24/24/24
f 26/26/26 27/27/27 23/23/23
f 28/28/28 23/23/23 27/27/27
f 28/28/28 30/30/30 29/29/29
f 31/31/31 29/29/29 30/30/30
f 34/34/34 33/33/33 32/32/32
f 35/35/35 32/32/32 33/33/33
f 35/35/35 37/37/37 36/36/36
f 38/38/38 36/36/36 37/37/37
f 41/41/41 40/40/40 39/39/39
f 42/42/42 39/39/39 40/40/40
f 45/45/45 44/44/44 43/43/43
f 46/46/46 43/43/43 44/44/44
f 49/49/49 48/48/48 47/47/47
f 50/50/50 47/47/47 48/48/48
f 53/53/53 52/52/52 51/51/51
f 54/54/54 51/51/51 52/52/52
f 57/57/57 56/56/56 55/55/55
f 58/58/58 55/55/55 56/56/56
f 61/61/61 60/60/60 59/59/59
f 62/62/62 59/59/59 60/60/60
f 65/65/65 64/64/64 63/63/63
f 66/66/66 63/63/63 64/64/64
f 69/69/69 68/68/68 67/67/67
f 70/70/70 67/67/67 68/68/68
f 73/73/73 72/72/72 71/71/71
f 74/74/74 71/71/71 72/72/72
f 77/77/77 76/76/76 75/75/75
f 78/78/78 75/75/75 76/76/76
f 81/81/81 80/80/80 79/79/79
f 82/82/82 79/79/79 80/80/80
f 85/85/85 84/84/84 83/83/83
f 86/86/86 83/83/83 84/84/84
f 89/89/89 88/88/88 87/87/87
f 90/90/90 87/87/87 88/88/88
f 93/93/93 92/92/92 91/91/91
f 94/94/94 91/91/91 92/92/92
f 97/97/97 96/96/96 95/95/95
f 98/98/98 95/95/95 96/96/96
f 101/101/101 100/100/100 99/99/99
f 102/102/102 99/99/99 100/100/100
f 105/105/105 104/104/104 103/103/103
f 106/106/106 103/103/103 104/104/104
f 109/109/109 108/108/108 107/107/107
f 110/110/110 107/107/107 108/108/108
f 113/113/113 112/112/112 111/111/111
f 114/114/114 111/111/111 112/112/112
f 117/117/117 116/116/116 115/115/115
f 118/118/118 115/115/115 116/116/116
f 121/121/121 120/120/120 119/119/119
f 122/122/122 119/119/119 120/120/120
f 125/125/125 124/124/124 123/123/123
f 126/126/126 123/123/123 124/124/124
f 129/129/129 128/128/128 127/127/127
f 130/130/130 127/127/127 128/128/128
f 133/133/133 132/132/132 131/131/131
f 134/134/134 131/131/131 132/132/132
f 137/137/137 136/136/136 135/135/135
f 138/138/138 135/135/135 136/136/136
f 137/137/137 140/140/140 139/139/139
f 141/141/141 139/139/139 140/140/140
f 138/138/138 139/139/139 142/142/142
f 143/143/143 142/142/142 139/139/139
f 141/141/141 144/144/144 139/139/139
f 143/143/143 139/139/139 144/144/144
f 147/147/147 146/146/146 145/145/145
f 148/148/148 145/145/145 146/146/146
f 144/144/144 149/149/149 143/143/143
f 148/148/148 143/143/143 149/149/149
