g Rock_A_02_LOD1
v 0.002689908 0.004239749 0.0152715
v -0.003838866 0.003695547 0.01513041
v -0.003233988 0.006559753 0.0141621
v 0.002604722 0.007330071 0.01442854
v -0.00257056 0.0087418 0.01243065
v 0.006679265 0.007181995 0.0139689
v 0.002471616 0.009619839 0.01264028
v 0.006093867 0.00958649 0.0123872
v 0.009852647 0.006825426 0.01278715
v 0.008723321 0.009033995 0.01185657
v 0.009583748 0.009818183 0.009945258
v 0.007135944 0.003943465 0.01458664
v 0.006764973 -0.001103363 0.01391494
v 0.002347426 -0.0007824333 0.01475439
v 0.01059095 0.003532603 0.01329827
v 0.006764973 -0.001103363 0.01391494
v 0.002725291 0.01106241 0.01028822
v 0.006093867 0.00958649 0.0123872
v 0.01169532 0.007109961 0.01057651
v 0.006433439 0.01098028 0.0101051
v 0.008723321 0.009033995 0.01185657
v 0.003161522 0.01175236 0.005698543
v -0.002363002 0.01003164 0.01013396
v 0.006987948 0.01163033 0.00558535
v -0.005908149 0.008717378 0.009761329
v -0.002139704 0.01060817 0.005664062
v -0.005987509 0.007645707 0.01192242
v -0.003233988 0.006559753 0.0141621
v 0.01280272 0.007307797 0.005559292
v 0.01031605 0.01026715 0.005553655
v 0.006663129 0.01008199 0.001972301
v 0.009699477 0.009127116 0.00200875
v 0.01172498 0.006443927 0.001500031
v 0.01001694 0.005718338 0.0002212971
v 0.008930408 0.007985181 0.0008350255
v 0.01284512 0.002742689 0.001183467
v 0.01418551 0.003222411 0.005622024
v 0.003109501 0.009959272 0.002034354
v 0.01280044 0.003436186 0.01108583
v 0.003041465 0.007935425 0.0007133409
v -0.001862324 0.008872557 0.002037286
v 0.006446113 0.008218458 0.000649451
v -0.005886568 0.009109852 0.005506748
v -0.008958628 0.006958195 0.009489556
v 0.01418149 -0.00293964 0.005619778
v 0.01270919 -0.002080505 0.01093662
v 0.01284439 -0.002732434 0.001183166
v 0.01083791 -0.002439725 -0.0001346722
v 0.01035266 -0.001441567 0.0128595
v 0.006051741 -0.004759466 0.01287979
v 0.002347426 -0.0007824333 0.01475439
v 0.009424035 -0.00495241 0.01203723
v 0.01171244 -0.006464715 0.001500795
v 0.01151768 -0.005885929 0.01032444
v 0.01084662 0.002413558 -0.0001346722
v 0.007073799 0.005557464 -0.0001560992
v 0.007682991 0.002309253 -0.0005402374
v 0.008930408 0.007985181 0.0008350255
v 0.007682991 0.002309253 -0.0005402374
v 0.003289047 0.005237737 -8.847117E-05
v 0.003512008 0.002038345 -0.0004771695
v -0.002333146 0.004301097 -8.720636E-05
v 0.007636286 -0.002498966 -0.0005394208
v 0.003384827 -0.002696919 -0.0004771694
v -0.001841042 0.006957103 0.000713341
v -0.006104968 0.003568942 -0.0001472872
v -0.005268478 0.006050687 0.0006589496
v -0.005268478 0.006050687 0.0006589496
v -0.005413796 0.007680009 0.001992025
v -0.008492147 0.006043239 0.002009371
v -0.007777169 0.005185339 0.0008350255
v -0.009205031 0.007071773 0.005428878
v -0.01173713 0.004229775 0.005376033
v -0.01064898 0.003529293 0.001507501
v -0.002874524 0.001268048 -0.0004771695
v 0.003289047 0.005237737 -8.847117E-05
v 0.003512008 0.002038345 -0.0004771695
v -0.009022568 0.003131599 0.0002277088
v -0.007777169 0.005185339 0.0008350255
v -0.003151613 -0.00304747 -0.0004771694
v -0.007334077 -0.003286143 -0.0005399078
v -0.006996464 0.0007074223 -0.000538913
v -0.01009965 0.0003723526 -0.0001346721
v -0.007334077 -0.003286143 -0.0005399078
v -0.01045724 -0.003503825 -0.0001346722
v -0.006827593 -0.006248283 -0.0001507849
v -0.003151613 -0.00304747 -0.0004771694
v 0.002988986 -0.006140848 -8.829236E-05
v -0.002922872 -0.006266001 -8.685648E-05
v -0.002610065 -0.009154063 0.000713341
v 0.002613039 -0.009132197 0.000713341
v -0.006216319 -0.008865916 0.0006542647
v -0.00981124 -0.006291825 0.000224328
v -0.008795095 -0.008364688 0.0008350255
v -0.01243615 -0.00386305 0.001168157
v -0.01153969 -0.006937648 0.001491634
v -0.01202343 0.0004698897 0.00117309
v -0.01379728 -0.004109629 0.005394648
v -0.0133574 0.0007961827 0.005394648
v -0.01267249 -0.007515627 0.005381981
v -0.011118 0.004422075 0.009968085
v -0.008433827 0.006540558 0.0112861
v -0.006978775 0.005512593 0.01338647
v -0.009729818 0.004571775 0.01208529
v -0.01247216 0.001346239 0.01044134
v -0.01283051 -0.003091068 0.01045074
v -0.01107168 -0.002213442 0.01268047
v -0.01078613 0.001811239 0.01268047
v -0.007894967 0.002731543 0.01420066
v -0.003838866 0.003695547 0.01513041
v -0.01188559 -0.00627578 0.009997535
v -0.009920686 -0.008772436 0.009505294
v -0.008146352 -0.00149365 0.01418293
v -0.004085099 -0.0008851303 0.01500979
v -0.008146352 -0.00149365 0.01418293
v -0.003724142 -0.004528859 0.01397624
v -0.01035421 -0.005194948 0.01209234
v -0.007515554 -0.00478408 0.01336438
v -0.004085099 -0.0008851303 0.01500979
v -0.003724142 -0.004528859 0.01397624
v 0.002010415 -0.004588877 0.01360755
v -0.009254245 -0.007418478 0.0112861
v -0.006727932 -0.007757519 0.01191621
v -0.003195242 -0.007852968 0.01232969
v 0.001919107 -0.007917812 0.0121432
v 0.005594243 -0.007825591 0.01167489
v 0.00834513 -0.007406292 0.01123158
v -0.003072665 -0.01036054 0.01012451
v -0.006798772 -0.009979248 0.009792731
v 0.00228034 -0.01037327 0.01014508
v -0.002985203 -0.01249396 0.005664059
v -0.006949902 -0.01182799 0.005515693
v 0.006140873 -0.009987886 0.009883947
v 0.005594243 -0.007825591 0.01167489
v -0.01033258 -0.0101949 0.005428879
v -0.009607236 -0.009388408 0.002001557
v -0.006464323 -0.01067841 0.00197318
v -0.008795095 -0.008364688 0.0008350255
v -0.006216319 -0.008865916 0.0006542647
v 0.002706425 -0.01248713 0.00569847
v -0.002698605 -0.01119856 0.002027918
v 0.002655457 -0.01119709 0.002028696
v 0.006777254 -0.01181353 0.005597305
v 0.006242038 -0.00879091 0.0006529104
v 0.00645258 -0.01066583 0.001973919
v 0.009401437 -0.008708144 0.00970791
v 0.00834513 -0.007406292 0.01123158
v 0.009638156 -0.00928281 0.0020078
v 0.008851252 -0.008205457 0.0008350255
v 0.0102537 -0.01010003 0.005552658
v 0.01278564 -0.007057553 0.005562272
v 0.009638156 -0.00928281 0.0020078
v 0.009981438 -0.005817314 0.0002221417
v 0.008851252 -0.008205457 0.0008350255
v 0.009981438 -0.005817314 0.0002221417
v 0.006945998 -0.005927782 -0.0001533532
v 0.007636286 -0.002498966 -0.0005394208
v 0.008851252 -0.008205457 0.0008350255
v 0.003384827 -0.002696919 -0.0004771694
v 0.006242038 -0.00879091 0.0006529104
v 0.002988986 -0.006140848 -8.829236E-05
v 0.009699477 0.009127116 0.00200875
v 0.006446113 0.008218458 0.000649451
v 0.008930408 0.007985181 0.0008350255
v -0.00981124 -0.006291825 0.000224328
v -0.009607236 -0.009388408 0.002001557
v -0.008795095 -0.008364688 0.0008350255
v -0.008492147 0.006043239 0.002009371
v -0.009022568 0.003131599 0.0002277088
v -0.007777169 0.005185339 0.0008350255
vt 0.5766602 0.7446289
vt 0.5766602 0.7446289
vt 0.5766602 0.7446289
vt 0.5766602 0.7446289
vt 0.5766602 0.7446289
vt 0.5766602 0.7446289
vt 0.5766602 0.7446289
vt 0.5766602 0.7446289
vt 0.5766602 0.7446289
vt 0.5766602 0.7446289
vt 0.5766602 0.7446289
vt 0.5766602 0.7446289
vt 0.5766602 0.7446289
vt 0.5766602 0.7446289
vt 0.5766602 0.7446289
vt 0.5766602 0.7446289
vt 0.5766602 0.7446289
vt 0.5766602 0.7446289
vt 0.5766602 0.7446289
vt 0.5766602 0.7446289
vt 0.5766602 0.7446289
vt 0.5766602 0.7446289
vt 0.5766602 0.7446289
vt 0.5766602 0.7446289
vt 0.5766602 0.7446289
vt 0.5766602 0.7446289
vt 0.5766602 0.7446289
vt 0.5766602 0.7446289
vt 0.5766602 0.7446289
vt 0.5766602 0.7446289
vt 0.5766602 0.7446289
vt 0.5766602 0.7446289
vt 0.5766602 0.7446289
vt 0.5766602 0.7446289
vt 0.5766602 0.7446289
vt 0.5766602 0.7446289
vt 0.5766602 0.7446289
vt 0.5766602 0.7446289
vt 0.5766602 0.7446289
vt 0.5766602 0.7446289
vt 0.5766602 0.7446289
vt 0.5766602 0.7446289
vt 0.5766602 0.7446289
vt 0.5766602 0.7446289
vt 0.5766602 0.7446289
vt 0.5766602 0.7446289
vt 0.5766602 0.7446289
vt 0.5766602 0.7446289
vt 0.5766602 0.7446289
vt 0.5766602 0.7446289
vt 0.5766602 0.7446289
vt 0.5766602 0.7446289
vt 0.5766602 0.7446289
vt 0.5766602 0.7446289
vt 0.5766602 0.7446289
vt 0.5766602 0.7446289
vt 0.5766602 0.7446289
vt 0.5766602 0.7446289
vt 0.5766602 0.7446289
vt 0.5766602 0.7446289
vt 0.5766602 0.7446289
vt 0.5766602 0.7446289
vt 0.5766602 0.7446289
vt 0.5766602 0.7446289
vt 0.5766602 0.7446289
vt 0.5766602 0.7446289
vt 0.5766602 0.7446289
vt 0.5766602 0.7446289
vt 0.5766602 0.7446289
vt 0.5766602 0.7446289
vt 0.5766602 0.7446289
vt 0.5766602 0.7446289
vt 0.5766602 0.7446289
vt 0.5766602 0.7446289
vt 0.5766602 0.7446289
vt 0.5766602 0.7446289
vt 0.5766602 0.7446289
vt 0.5766602 0.7446289
vt 0.5766602 0.7446289
vt 0.5766602 0.7446289
vt 0.5766602 0.7446289
vt 0.5766602 0.7446289
vt 0.5766602 0.7446289
vt 0.5766602 0.7446289
vt 0.5766602 0.7446289
vt 0.5766602 0.7446289
vt 0.5766602 0.7446289
vt 0.5766602 0.7446289
vt 0.5766602 0.7446289
vt 0.5766602 0.7446289
vt 0.5766602 0.7446289
vt 0.5766602 0.7446289
vt 0.5766602 0.7446289
vt 0.5766602 0.7446289
vt 0.5766602 0.7446289
vt 0.5766602 0.7446289
vt 0.5766602 0.7446289
vt 0.5766602 0.7446289
vt 0.5766602 0.7446289
vt 0.5766602 0.7446289
vt 0.5766602 0.7446289
vt 0.5766602 0.7446289
vt 0.5766602 0.7446289
vt 0.5766602 0.7446289
vt 0.5766602 0.7446289
vt 0.5766602 0.7446289
vt 0.5766602 0.7446289
vt 0.5766602 0.7446289
vt 0.5766602 0.7446289
vt 0.5766602 0.7446289
vt 0.5766602 0.7446289
vt 0.5766602 0.7446289
vt 0.5766602 0.7446289
vt 0.5766602 0.7446289
vt 0.5766602 0.7446289
vt 0.5766602 0.7446289
vt 0.5766602 0.7446289
vt 0.5766602 0.7446289
vt 0.5766602 0.7446289
vt 0.5766602 0.7446289
vt 0.5766602 0.7446289
vt 0.5766602 0.7446289
vt 0.5766602 0.7446289
vt 0.5766602 0.7446289
vt 0.5766602 0.7446289
vt 0.5766602 0.7446289
vt 0.5766602 0.7446289
vt 0.5766602 0.7446289
vt 0.5766602 0.7446289
vt 0.5766602 0.7446289
vt 0.5766602 0.7446289
vt 0.5766602 0.7446289
vt 0.5766602 0.7446289
vt 0.5766602 0.7446289
vt 0.5766602 0.7446289
vt 0.5766602 0.7446289
vt 0.5766602 0.7446289
vt 0.5766602 0.7446289
vt 0.5766602 0.7446289
vt 0.5766602 0.7446289
vt 0.5766602 0.7446289
vt 0.5766602 0.7446289
vt 0.5766602 0.7446289
vt 0.5766602 0.7446289
vt 0.5766602 0.7446289
vt 0.5766602 0.7446289
vt 0.5766602 0.7446289
vt 0.5766602 0.7446289
vt 0.5766602 0.7446289
vt 0.5766602 0.7446289
vt 0.5766602 0.7446289
vt 0.5766602 0.7446289
vt 0.5766602 0.7446289
vt 0.5766602 0.7446289
vt 0.5766602 0.7446289
vt 0.5766602 0.7446289
vt 0.5766602 0.7446289
vt 0.5766602 0.7446289
vt 0.5766602 0.7446289
vt 0.5766602 0.7446289
vt 0.5766602 0.7446289
vt 0.5766602 0.7446289
vt 0.5766602 0.7446289
vt 0.5766602 0.7446289
vt 0.5766602 0.7446289
vt 0.5766602 0.7446289
vt 0.5766602 0.7446289
vt 0.5766602 0.7446289
vt 0.5766602 0.7446289
vt 0.5766602 0.7446289
vn 0.06463623 0.09295654 0.9936523
vn -0.1455078 0.1569824 0.9770508
vn -0.2008057 0.4902344 0.8481445
vn 0.009674072 0.4506836 0.8925781
vn -0.2392578 0.7543945 0.6108398
vn 0.2315674 0.4040527 0.8847656
vn -0.04925537 0.7495117 0.6601563
vn 0.1761475 0.7207031 0.6704102
vn 0.5214844 0.3999023 0.7539063
vn 0.4157715 0.6572266 0.628418
vn 0.5371094 0.7700195 0.3444824
vn 0.251709 0.05459595 0.9663086
vn 0.2150879 -0.2102051 0.9536133
vn 0.09484863 -0.1905518 0.9770508
vn 0.5327148 0.07739258 0.8427734
vn 0.2150879 -0.2102051 0.9536133
vn -0.07800293 0.940918 0.3293457
vn 0.1761475 0.7207031 0.6704102
vn 0.784668 0.4606934 0.4145508
vn 0.1864014 0.921875 0.3393555
vn 0.4157715 0.6572266 0.628418
vn -0.09161377 0.9853516 -0.1446533
vn -0.2751465 0.9169922 0.2888184
vn 0.19104 0.9741211 -0.1225586
vn -0.4279785 0.8720703 0.2368164
vn -0.2744141 0.9482422 -0.1591797
vn -0.3979492 0.7392578 0.543457
vn -0.2008057 0.4902344 0.8481445
vn 0.871582 0.4870605 -0.0562439
vn 0.5795898 0.8100586 -0.08734131
vn 0.1112061 0.7807617 -0.6147461
vn 0.458252 0.6875 -0.5634766
vn 0.7001953 0.4147949 -0.5810547
vn 0.3120117 0.2773438 -0.9086914
vn 0.2398682 0.4599609 -0.8549805
vn 0.7924805 0.1369629 -0.5942383
vn 0.9873047 0.1568604 -0.02813721
vn -0.09527588 0.762207 -0.6401367
vn 0.8583984 0.1330566 0.4951172
vn -0.06744385 0.4318848 -0.8994141
vn -0.2015381 0.7475586 -0.6328125
vn 0.03598022 0.449707 -0.8925781
vn -0.4223633 0.8920898 -0.1600342
vn -0.6230469 0.7539063 0.2078857
vn 0.9848633 -0.1729736 -0.0003356934
vn 0.8144531 -0.1813965 0.5512695
vn 0.7949219 -0.140625 -0.590332
vn 0.3530273 -0.08947754 -0.9311523
vn 0.454834 -0.1939697 0.8691406
vn 0.1817627 -0.3417969 0.921875
vn 0.09484863 -0.1905518 0.9770508
vn 0.3671875 -0.3630371 0.8564453
vn 0.7114258 -0.416748 -0.5654297
vn 0.6982422 -0.440918 0.5634766
vn 0.3513184 0.08966064 -0.9321289
vn 0.04000854 0.2120361 -0.9765625
vn 0.05615234 0.06433105 -0.996582
vn 0.2398682 0.4599609 -0.8549805
vn 0.05615234 0.06433105 -0.996582
vn -0.03469849 0.2053223 -0.9780273
vn -0.01480103 0.06140137 -0.9980469
vn -0.03433228 0.2169189 -0.9755859
vn 0.06118774 -0.06222534 -0.9960938
vn -0.005310059 -0.05645752 -0.9985352
vn -0.1009521 0.4433594 -0.890625
vn -0.09698486 0.2487793 -0.9638672
vn -0.1716309 0.4775391 -0.8618164
vn -0.1716309 0.4775391 -0.8618164
vn -0.315918 0.7436523 -0.5893555
vn -0.5112305 0.6772461 -0.5288086
vn -0.314209 0.5014648 -0.8061523
vn -0.6259766 0.7670898 -0.1413574
vn -0.8300781 0.5458984 -0.1159668
vn -0.6777344 0.486084 -0.5517578
vn -0.002258301 0.06512451 -0.9980469
vn -0.03469849 0.2053223 -0.9780273
vn -0.01480103 0.06140137 -0.9980469
vn -0.3432617 0.3447266 -0.8735352
vn -0.314209 0.5014648 -0.8061523
vn 0.009918213 -0.06011963 -0.9980469
vn -0.05957031 -0.06591797 -0.9960938
vn -0.0725708 0.08392334 -0.9936523
vn -0.3654785 0.1446533 -0.9194336
vn -0.05957031 -0.06591797 -0.9960938
vn -0.3583984 -0.07714844 -0.9301758
vn -0.05484009 -0.220459 -0.9736328
vn 0.009918213 -0.06011963 -0.9980469
vn 0.0006713867 -0.1904297 -0.9819336
vn 0.007568359 -0.1967773 -0.9804688
vn -0.01043701 -0.4187012 -0.9082031
vn 0.01577759 -0.4140625 -0.9101563
vn -0.09002686 -0.447998 -0.8896484
vn -0.3137207 -0.2924805 -0.9033203
vn -0.2580566 -0.4682617 -0.8452148
vn -0.7954102 -0.1044312 -0.5966797
vn -0.6972656 -0.4291992 -0.5742188
vn -0.7792969 0.2237549 -0.5854492
vn -0.9907227 -0.126709 -0.05007935
vn -0.9638672 0.2524414 -0.08380127
vn -0.8647461 -0.5019531 -0.02050781
vn -0.8022461 0.5341797 0.2670898
vn -0.5483398 0.6889648 0.4736328
vn -0.3984375 0.4997559 0.769043
vn -0.6298828 0.5024414 0.5922852
vn -0.9008789 0.2436523 0.359375
vn -0.8920898 -0.1221313 0.4353027
vn -0.6157227 -0.1166382 0.7792969
vn -0.6645508 0.2167969 0.715332
vn -0.3823242 0.1953125 0.9033203
vn -0.1455078 0.1569824 0.9770508
vn -0.7612305 -0.4528809 0.4643555
vn -0.5200195 -0.7041016 0.4836426
vn -0.3129883 -0.128418 0.940918
vn -0.08032227 -0.1507568 0.9853516
vn -0.3129883 -0.128418 0.940918
vn -0.04269409 -0.357666 0.9326172
vn -0.5009766 -0.3881836 0.7734375
vn -0.2336426 -0.3686523 0.8999023
vn -0.08032227 -0.1507568 0.9853516
vn -0.04269409 -0.357666 0.9326172
vn 0.0958252 -0.3476563 0.9326172
vn -0.3894043 -0.5654297 0.7275391
vn -0.1981201 -0.5751953 0.793457
vn -0.04324341 -0.5517578 0.8325195
vn 0.07324219 -0.5244141 0.8481445
vn 0.1716309 -0.5087891 0.84375
vn 0.3039551 -0.4946289 0.8144531
vn -0.06622314 -0.7983398 0.5986328
vn -0.2425537 -0.7983398 0.5512695
vn 0.0657959 -0.7861328 0.6147461
vn -0.07653809 -0.9956055 0.050354
vn -0.2834473 -0.9584961 0.03198242
vn 0.2285156 -0.7714844 0.59375
vn 0.1716309 -0.5087891 0.84375
vn -0.5922852 -0.8056641 0.01000977
vn -0.4799805 -0.6928711 -0.5375977
vn -0.204834 -0.7871094 -0.5820313
vn -0.2580566 -0.4682617 -0.8452148
vn -0.09002686 -0.447998 -0.8896484
vn 0.07537842 -0.9956055 0.05593872
vn -0.04699707 -0.7919922 -0.6088867
vn 0.05151367 -0.7924805 -0.6079102
vn 0.2873535 -0.956543 0.04962158
vn 0.09887695 -0.4345703 -0.8950195
vn 0.2161865 -0.7861328 -0.5786133
vn 0.4912109 -0.671875 0.5546875
vn 0.3039551 -0.4946289 0.8144531
vn 0.503418 -0.6811523 -0.5317383
vn 0.2734375 -0.4448242 -0.8530273
vn 0.6069336 -0.793457 0.04086304
vn 0.8696289 -0.4934082 0.02215576
vn 0.503418 -0.6811523 -0.5317383
vn 0.322998 -0.2727051 -0.90625
vn 0.2734375 -0.4448242 -0.8530273
vn 0.322998 -0.2727051 -0.90625
vn 0.06311035 -0.2037354 -0.9770508
vn 0.06118774 -0.06222534 -0.9960938
vn 0.2734375 -0.4448242 -0.8530273
vn -0.005310059 -0.05645752 -0.9985352
vn 0.09887695 -0.4345703 -0.8950195
vn 0.0006713867 -0.1904297 -0.9819336
vn 0.458252 0.6875 -0.5634766
vn 0.03598022 0.449707 -0.8925781
vn 0.2398682 0.4599609 -0.8549805
vn -0.3137207 -0.2924805 -0.9033203
vn -0.4799805 -0.6928711 -0.5375977
vn -0.2580566 -0.4682617 -0.8452148
vn -0.5112305 0.6772461 -0.5288086
vn -0.3432617 0.3447266 -0.8735352
vn -0.314209 0.5014648 -0.8061523
g Rock_A_02_LOD1_0
f 3/3/3 2/2/2 1/1/1
f 4/4/4 3/3/3 1/1/1
f 3/3/3 4/4/4 5/5/5
f 6/6/6 4/4/4 1/1/1
f 4/4/4 7/7/7 5/5/5
f 4/4/4 6/6/6 7/7/7
f 6/6/6 8/8/8 7/7/7
f 6/6/6 9/9/9 8/8/8
f 9/9/9 10/10/10 8/8/8
f 11/11/11 10/10/10 9/9/9
f 12/12/12 6/6/6 1/1/1
f 9/9/9 6/6/6 12/12/12
f 13/13/13 12/12/12 1/1/1
f 14/14/14 13/13/13 1/1/1
f 15/15/15 9/9/9 12/12/12
f 15/15/15 12/12/12 16/16/16
f 7/7/7 17/17/17 5/5/5
f 7/7/7 18/18/18 17/17/17
f 19/19/19 11/11/11 9/9/9
f 19/19/19 9/9/9 15/15/15
f 18/18/18 20/20/20 17/17/17
f 20/20/20 18/18/18 21/21/21
f 11/11/11 20/20/20 21/21/21
f 17/17/17 20/20/20 22/22/22
f 17/17/17 23/23/23 5/5/5
f 17/17/17 22/22/22 23/23/23
f 24/24/24 20/20/20 11/11/11
f 20/20/20 24/24/24 22/22/22
f 23/23/23 25/25/25 5/5/5
f 22/22/22 26/26/26 23/23/23
f 25/25/25 23/23/23 26/26/26
f 25/25/25 27/27/27 5/5/5
f 28/28/28 5/5/5 27/27/27
f 19/19/19 29/29/29 11/11/11
f 30/30/30 24/24/24 11/11/11
f 29/29/29 30/30/30 11/11/11
f 24/24/24 31/31/31 22/22/22
f 30/30/30 32/32/32 24/24/24
f 32/32/32 31/31/31 24/24/24
f 32/32/32 30/30/30 33/33/33
f 30/30/30 29/29/29 33/33/33
f 32/32/32 33/33/33 34/34/34
f 35/35/35 32/32/32 34/34/34
f 36/36/36 33/33/33 29/29/29
f 34/34/34 33/33/33 36/36/36
f 29/29/29 19/19/19 37/37/37
f 37/37/37 36/36/36 29/29/29
f 31/31/31 38/38/38 22/22/22
f 22/22/22 38/38/38 26/26/26
f 19/19/19 39/39/39 37/37/37
f 39/39/39 19/19/19 15/15/15
f 38/38/38 31/31/31 40/40/40
f 38/38/38 41/41/41 26/26/26
f 38/38/38 40/40/40 41/41/41
f 31/31/31 42/42/42 40/40/40
f 26/26/26 41/41/41 43/43/43
f 43/43/43 25/25/25 26/26/26
f 25/25/25 43/43/43 44/44/44
f 25/25/25 44/44/44 27/27/27
f 45/45/45 37/37/37 39/39/39
f 46/46/46 39/39/39 15/15/15
f 46/46/46 45/45/45 39/39/39
f 45/45/45 47/47/47 37/37/37
f 47/47/47 36/36/36 37/37/37
f 47/47/47 48/48/48 36/36/36
f 49/49/49 46/46/46 15/15/15
f 49/49/49 15/15/15 16/16/16
f 16/16/16 50/50/50 49/49/49
f 50/50/50 16/16/16 51/51/51
f 49/49/49 52/52/52 46/46/46
f 50/50/50 52/52/52 49/49/49
f 53/53/53 47/47/47 45/45/45
f 47/47/47 53/53/53 48/48/48
f 46/46/46 54/54/54 45/45/45
f 52/52/52 54/54/54 46/46/46
f 48/48/48 55/55/55 36/36/36
f 55/55/55 34/34/34 36/36/36
f 56/56/56 34/34/34 55/55/55
f 57/57/57 56/56/56 55/55/55
f 34/34/34 56/56/56 58/58/58
f 56/56/56 42/42/42 58/58/58
f 59/59/59 55/55/55 48/48/48
f 56/56/56 60/60/60 42/42/42
f 60/60/60 56/56/56 59/59/59
f 60/60/60 40/40/40 42/42/42
f 61/61/61 60/60/60 59/59/59
f 60/60/60 62/62/62 40/40/40
f 61/61/61 59/59/59 63/63/63
f 63/63/63 59/59/59 48/48/48
f 64/64/64 61/61/61 63/63/63
f 62/62/62 65/65/65 40/40/40
f 40/40/40 65/65/65 41/41/41
f 62/62/62 66/66/66 65/65/65
f 65/65/65 67/67/67 41/41/41
f 66/66/66 68/68/68 65/65/65
f 67/67/67 69/69/69 41/41/41
f 41/41/41 69/69/69 43/43/43
f 70/70/70 69/69/69 67/67/67
f 71/71/71 70/70/70 67/67/67
f 72/72/72 43/43/43 69/69/69
f 70/70/70 72/72/72 69/69/69
f 43/43/43 72/72/72 44/44/44
f 72/72/72 70/70/70 73/73/73
f 72/72/72 73/73/73 44/44/44
f 70/70/70 74/74/74 73/73/73
f 66/66/66 62/62/62 75/75/75
f 62/62/62 76/76/76 75/75/75
f 76/76/76 77/77/77 75/75/75
f 66/66/66 78/78/78 68/68/68
f 78/78/78 79/79/79 68/68/68
f 80/80/80 75/75/75 77/77/77
f 64/64/64 80/80/80 77/77/77
f 80/80/80 81/81/81 75/75/75
f 81/81/81 82/82/82 75/75/75
f 82/82/82 66/66/66 75/75/75
f 78/78/78 66/66/66 82/82/82
f 83/83/83 78/78/78 82/82/82
f 74/74/74 78/78/78 83/83/83
f 83/83/83 82/82/82 84/84/84
f 85/85/85 83/83/83 84/84/84
f 84/84/84 86/86/86 85/85/85
f 86/86/86 84/84/84 87/87/87
f 64/64/64 88/88/88 87/87/87
f 88/88/88 89/89/89 87/87/87
f 89/89/89 86/86/86 87/87/87
f 90/90/90 89/89/89 88/88/88
f 91/91/91 90/90/90 88/88/88
f 92/92/92 86/86/86 89/89/89
f 90/90/90 92/92/92 89/89/89
f 86/86/86 92/92/92 93/93/93
f 86/86/86 93/93/93 85/85/85
f 92/92/92 94/94/94 93/93/93
f 85/85/85 93/93/93 95/95/95
f 83/83/83 85/85/85 95/95/95
f 93/93/93 96/96/96 95/95/95
f 97/97/97 83/83/83 95/95/95
f 97/97/97 74/74/74 83/83/83
f 97/97/97 95/95/95 98/98/98
f 74/74/74 97/97/97 99/99/99
f 99/99/99 97/97/97 98/98/98
f 73/73/73 74/74/74 99/99/99
f 95/95/95 96/96/96 100/100/100
f 98/98/98 95/95/95 100/100/100
f 101/101/101 73/73/73 99/99/99
f 73/73/73 101/101/101 44/44/44
f 44/44/44 101/101/101 102/102/102
f 44/44/44 102/102/102 27/27/27
f 103/103/103 27/27/27 102/102/102
f 103/103/103 28/28/28 27/27/27
f 101/101/101 104/104/104 102/102/102
f 104/104/104 103/103/103 102/102/102
f 105/105/105 101/101/101 99/99/99
f 104/104/104 101/101/101 105/105/105
f 99/99/99 98/98/98 106/106/106
f 105/105/105 99/99/99 106/106/106
f 105/105/105 106/106/106 107/107/107
f 108/108/108 104/104/104 105/105/105
f 103/103/103 104/104/104 108/108/108
f 108/108/108 105/105/105 107/107/107
f 28/28/28 103/103/103 109/109/109
f 109/109/109 103/103/103 108/108/108
f 109/109/109 108/108/108 107/107/107
f 110/110/110 28/28/28 109/109/109
f 111/111/111 106/106/106 98/98/98
f 106/106/106 111/111/111 107/107/107
f 100/100/100 111/111/111 98/98/98
f 111/111/111 100/100/100 112/112/112
f 110/110/110 109/109/109 113/113/113
f 114/114/114 110/110/110 113/113/113
f 115/115/115 109/109/109 107/107/107
f 114/114/114 51/51/51 110/110/110
f 51/51/51 1/1/1 110/110/110
f 114/114/114 116/116/116 51/51/51
f 111/111/111 117/117/117 107/107/107
f 111/111/111 112/112/112 117/117/117
f 118/118/118 115/115/115 107/107/107
f 117/117/117 118/118/118 107/107/107
f 115/115/115 118/118/118 119/119/119
f 118/118/118 120/120/120 119/119/119
f 116/116/116 121/121/121 51/51/51
f 121/121/121 50/50/50 51/51/51
f 117/117/117 122/122/122 118/118/118
f 112/112/112 122/122/122 117/117/117
f 120/120/120 118/118/118 123/123/123
f 122/122/122 123/123/123 118/118/118
f 123/123/123 122/122/122 112/112/112
f 124/124/124 120/120/120 123/123/123
f 125/125/125 121/121/121 116/116/116
f 124/124/124 125/125/125 116/116/116
f 126/126/126 50/50/50 121/121/121
f 125/125/125 126/126/126 121/121/121
f 50/50/50 126/126/126 52/52/52
f 126/126/126 127/127/127 52/52/52
f 124/124/124 123/123/123 128/128/128
f 124/124/124 128/128/128 125/125/125
f 129/129/129 123/123/123 112/112/112
f 123/123/123 129/129/129 128/128/128
f 128/128/128 130/130/130 125/125/125
f 128/128/128 129/129/129 131/131/131
f 128/128/128 131/131/131 130/130/130
f 129/129/129 112/112/112 132/132/132
f 129/129/129 132/132/132 131/131/131
f 130/130/130 133/133/133 125/125/125
f 133/133/133 134/134/134 125/125/125
f 112/112/112 135/135/135 132/132/132
f 100/100/100 135/135/135 112/112/112
f 135/135/135 100/100/100 96/96/96
f 136/136/136 135/135/135 96/96/96
f 132/132/132 135/135/135 136/136/136
f 137/137/137 132/132/132 136/136/136
f 131/131/131 132/132/132 137/137/137
f 137/137/137 136/136/136 138/138/138
f 139/139/139 137/137/137 138/138/138
f 137/137/137 139/139/139 90/90/90
f 131/131/131 140/140/140 130/130/130
f 133/133/133 130/130/130 140/140/140
f 141/141/141 131/131/131 137/137/137
f 141/141/141 137/137/137 90/90/90
f 131/131/131 141/141/141 140/140/140
f 141/141/141 90/90/90 142/142/142
f 141/141/141 142/142/142 140/140/140
f 90/90/90 91/91/91 142/142/142
f 143/143/143 133/133/133 140/140/140
f 140/140/140 142/142/142 143/143/143
f 91/91/91 144/144/144 142/142/142
f 144/144/144 145/145/145 142/142/142
f 142/142/142 145/145/145 143/143/143
f 133/133/133 143/143/143 146/146/146
f 133/133/133 146/146/146 134/134/134
f 146/146/146 147/147/147 134/134/134
f 148/148/148 145/145/145 144/144/144
f 149/149/149 148/148/148 144/144/144
f 150/150/150 143/143/143 145/145/145
f 148/148/148 150/150/150 145/145/145
f 143/143/143 150/150/150 146/146/146
f 150/150/150 148/148/148 151/151/151
f 150/150/150 151/151/151 146/146/146
f 148/148/148 53/53/53 151/151/151
f 146/146/146 54/54/54 147/147/147
f 151/151/151 54/54/54 146/146/146
f 54/54/54 52/52/52 147/147/147
f 54/54/54 151/151/151 45/45/45
f 151/151/151 53/53/53 45/45/45
f 153/153/153 53/53/53 152/152/152
f 154/154/154 153/153/153 152/152/152
f 53/53/53 155/155/155 48/48/48
f 155/155/155 156/156/156 48/48/48
f 156/156/156 157/157/157 48/48/48
f 155/155/155 158/158/158 156/156/156
f 157/157/157 156/156/156 159/159/159
f 158/158/158 160/160/160 156/156/156
f 156/156/156 161/161/161 159/159/159
f 161/161/161 156/156/156 160/160/160
f 91/91/91 161/161/161 160/160/160
f 164/164/164 163/163/163 162/162/162
f 163/163/163 31/31/31 162/162/162
f 167/167/167 166/166/166 165/165/165
f 166/166/166 96/96/96 165/165/165
f 170/170/170 169/169/169 168/168/168
f 169/169/169 74/74/74 168/168/168
