g Rock L Deposit Metal.017
v 0.4389845 1.965474 0.03192361
v 0.5437598 2.051224 0.009392674
v 0.6173525 2.000771 0.09527162
v 0.529054 1.903724 0.1370299
v 0.529054 1.903724 0.1370299
v 0.6515517 1.843371 0.03300602
v 0.5709101 1.711085 0.0608237
v 0.6173525 2.000771 0.09527162
v 0.6770406 1.949314 0.01520389
v 0.6624419 2.016503 0.04178333
v 0.5437598 2.051224 0.009392674
v 0.6624419 2.016503 0.04178333
v 0.6173525 2.000771 0.09527162
v 0.6297459 2.034041 -0.0117442
v 0.5377568 2.032486 -0.06963903
v 0.6148099 1.93531 -0.1194916
v 0.6613565 1.98856 -0.04989308
v 0.6624419 2.016503 0.04178333
v 0.6770406 1.949314 0.01520389
v 0.6515517 1.843371 0.03300602
v 0.6148099 1.93531 -0.1194916
v 0.5709101 1.711085 0.0608237
v 0.5259421 1.823608 -0.1258164
v 0.5259421 1.823608 -0.1258164
v 0.6148099 1.93531 -0.1194916
v 0.5377568 2.032486 -0.06963903
v 0.4316376 1.94254 -0.06480239
v 0.4316376 1.94254 -0.06480239
v 0.5377568 2.032486 -0.06963903
v 0.5437598 2.051224 0.009392674
v 0.4389845 1.965474 0.03192361
vt 0.7910156 0.4245605
vt 0.7910156 0.4248047
vt 0.7910156 0.4250488
vt 0.7915039 0.4248047
vt 0.7915039 0.4248047
vt 0.7910156 0.4250488
vt 0.7915039 0.4255371
vt 0.7910156 0.4250488
vt 0.7910156 0.4250488
vt 0.7910156 0.4250488
vt 0.7910156 0.4248047
vt 0.7910156 0.4250488
vt 0.7910156 0.4250488
vt 0.7910156 0.4250488
vt 0.7910156 0.4248047
vt 0.7910156 0.4250488
vt 0.7910156 0.4250488
vt 0.7910156 0.4250488
vt 0.7910156 0.4250488
vt 0.7910156 0.4250488
vt 0.7910156 0.4250488
vt 0.7915039 0.4255371
vt 0.7905273 0.425293
vt 0.7905273 0.425293
vt 0.7910156 0.4250488
vt 0.7910156 0.4248047
vt 0.7905273 0.4248047
vt 0.7905273 0.4248047
vt 0.7910156 0.4248047
vt 0.7910156 0.4248047
vt 0.7910156 0.4245605
vn -0.3676758 0.6293945 0.6845703
vn -0.3676758 0.6293945 0.6845703
vn -0.3676758 0.6293945 0.6845703
vn -0.3676758 0.6293945 0.6845703
vn 0.5805664 -0.1872559 0.7924805
vn 0.6020508 -0.177124 0.7783203
vn 0.5805664 -0.1872559 0.7924805
vn 0.6435547 -0.1564941 0.7490234
vn 0.7734375 -0.08050537 0.628418
vn 0.7734375 -0.08050537 0.628418
vn 0.1726074 0.9799805 0.09741211
vn 0.1876221 0.9316406 0.3112793
vn 0.1876221 0.9316406 0.3112793
vn 0.347168 0.9038086 -0.2507324
vn 0.3061523 0.7509766 -0.5849609
vn 0.3430176 0.668457 -0.6601563
vn 0.7822266 0.2288818 -0.5795898
vn 0.8925781 0.4279785 -0.1409912
vn 0.9130859 -0.2127686 -0.3481445
vn 0.7329102 -0.4899902 -0.4719238
vn 0.7543945 -0.4658203 -0.4626465
vn 0.6972656 -0.5273438 -0.4858398
vn 0.6972656 -0.5273438 -0.4858398
vn -0.2663574 0.2644043 -0.9267578
vn -0.2663574 0.2644043 -0.9267578
vn -0.2663574 0.2644043 -0.9267578
vn -0.2663574 0.2644043 -0.9267578
vn -0.6445313 0.753418 -0.1296387
vn -0.6445313 0.753418 -0.1296387
vn -0.6445313 0.753418 -0.1296387
vn -0.6445313 0.753418 -0.1296387
g Rock L Deposit Metal.017_0
f 3/3/3 2/2/2 1/1/1
f 4/4/4 3/3/3 1/1/1
f 7/7/7 6/6/6 5/5/5
f 6/6/6 8/8/8 5/5/5
f 6/6/6 9/9/9 8/8/8
f 9/9/9 10/10/10 8/8/8
f 13/13/13 12/12/12 11/11/11
f 12/12/12 14/14/14 11/11/11
f 11/11/11 14/14/14 15/15/15
f 15/15/15 14/14/14 16/16/16
f 14/14/14 17/17/17 16/16/16
f 17/17/17 14/14/14 18/18/18
f 17/17/17 18/18/18 19/19/19
f 17/17/17 19/19/19 20/20/20
f 21/21/21 17/17/17 20/20/20
f 21/21/21 20/20/20 22/22/22
f 23/23/23 21/21/21 22/22/22
f 26/26/26 25/25/25 24/24/24
f 27/27/27 26/26/26 24/24/24
f 30/30/30 29/29/29 28/28/28
f 31/31/31 30/30/30 28/28/28
