g SM_PROP_bridge_wood_Collision
v 1 0.3505538 0.9035046
v 1 -0.02368746 2.199225
v 1 0.3305685 2.199225
v 1 0.7217313 0.9035046
v 1 0.4410129 0
v 1 0.7947747 0
v 1 -0.02368746 2.199225
v -1 -0.02368746 2.199225
v -1 0.3305685 2.199225
v 1 0.3305685 2.199225
v -1 0.3505538 0.9035046
v -1 -0.02368746 2.199225
v 1 -0.02368746 2.199225
v 1 0.3505538 0.9035046
v 1 0.7217313 0.9035046
v 1 0.3305685 2.199225
v -1 0.3305685 2.199225
v -1 0.7217313 0.9035046
v -1 0.3505538 0.9035046
v -1 0.4410129 0
v -1 0.7947747 0
v -1 0.7217313 0.9035046
v -1 -0.02368746 2.199225
v -1 0.3305685 2.199225
v 1 0.7947747 0
v 1 0.7217313 0.9035046
v -1 0.7217313 0.9035046
v -1 0.7947747 0
v -1 0.4410129 0
v -1 0.3505538 0.9035046
v 1 0.3505538 0.9035046
v 1 0.4410129 0
v -0.642316 0.6896504 0
v -0.7154872 0.3096532 1.913435
v -0.8078184 1.437769 1.913435
v -0.8023881 1.749385 0
v -0.7154872 0.3096532 1.913435
v -0.9117669 0.3096532 1.912813
v -0.9117669 1.437769 1.912813
v -0.8078184 1.437769 1.913435
v -0.8023881 1.749385 0
v -0.8078184 1.437769 1.913435
v -0.9117669 1.437769 1.912813
v -0.9632665 1.749385 0
v -0.9117669 0.3096532 1.912813
v -0.9075582 0.6896504 0
v -0.9632665 1.749385 0
v -0.9117669 1.437769 1.912813
v 0.8385791 0.6896504 0.1546747
v 0.718008 0.3096532 1.765172
v 0.929877 1.385967 1.765172
v 0.9204272 1.721956 0.1546747
v 0.718008 0.3096532 1.765172
v 0.5806323 0.3096532 1.764551
v 0.729234 1.385967 1.764551
v 0.929877 1.385967 1.765172
v 0.9204272 1.721956 0.1546747
v 0.929877 1.385967 1.765172
v 0.729234 1.385967 1.764551
v 0.7357802 1.721956 0.1546747
v 0.5806323 0.3096532 1.764551
v 0.5617858 0.6896504 0.1546747
v 0.7357802 1.721956 0.1546747
v 0.729234 1.385967 1.764551
v 1 0.3505538 -0.9035046
v 1 0.3305685 -2.199225
v 1 -0.02368746 -2.199225
v 1 0.7217313 -0.9035046
v 1 0.4410129 0
v 1 0.7947747 0
v 1 -0.02368746 -2.199225
v 1 0.3305685 -2.199225
v -1 0.3305685 -2.199225
v -1 -0.02368746 -2.199225
v -1 0.3505538 -0.9035046
v 1 0.3505538 -0.9035046
v 1 -0.02368746 -2.199225
v -1 -0.02368746 -2.199225
v 1 0.7217313 -0.9035046
v -1 0.7217313 -0.9035046
v -1 0.3305685 -2.199225
v 1 0.3305685 -2.199225
v -1 0.3505538 -0.9035046
v -1 0.7947747 0
v -1 0.4410129 0
v -1 0.7217313 -0.9035046
v -1 -0.02368746 -2.199225
v -1 0.3305685 -2.199225
v 1 0.7947747 0
v -1 0.7947747 0
v -1 0.7217313 -0.9035046
v 1 0.7217313 -0.9035046
v -1 0.4410129 0
v 1 0.4410129 0
v 1 0.3505538 -0.9035046
v -1 0.3505538 -0.9035046
v -0.642316 0.6896504 0
v -0.8023881 1.749385 0
v -0.8078184 1.437769 -1.913435
v -0.7154872 0.3096532 -1.913435
v -0.7154872 0.3096532 -1.913435
v -0.8078184 1.437769 -1.913435
v -0.9117669 1.437769 -1.912813
v -0.9117669 0.3096532 -1.912813
v -0.8023881 1.749385 0
v -0.9632665 1.749385 0
v -0.9117669 1.437769 -1.912813
v -0.8078184 1.437769 -1.913435
v -0.9117669 0.3096532 -1.912813
v -0.9117669 1.437769 -1.912813
v -0.9632665 1.749385 0
v -0.9075582 0.6896504 0
v 0.8385791 0.6896504 0.1546747
v 0.9204272 1.721956 0.1546747
v 0.932429 1.290254 -1.549154
v 0.7698134 0.3102009 -1.525046
v 0.7698134 0.3102009 -1.525046
v 0.932429 1.290254 -1.549154
v 0.7323156 1.281867 -1.537224
v 0.6329572 0.3044761 -1.516691
v 0.9204272 1.721956 0.1546747
v 0.7357802 1.721956 0.1546747
v 0.7323156 1.281867 -1.537224
v 0.932429 1.290254 -1.549154
v 0.6329572 0.3044761 -1.516691
v 0.7323156 1.281867 -1.537224
v 0.7357802 1.721956 0.1546747
v 0.5617858 0.6896504 0.1546747
vt 0.375 0.6850586
vt 0.375 0.75
vt 0.625 0.75
vt 0.625 0.6850586
vt 0.375 0.625
vt 0.625 0.625
vt 0.375 0.75
vt 0.375 1
vt 0.625 1
vt 0.625 0.75
vt 0.125 0.6850586
vt 0.125 0.75
vt 0.375 0.75
vt 0.375 0.6850586
vt 0.625 0.6850586
vt 0.625 0.75
vt 0.875 0.75
vt 0.875 0.6850586
vt 0.375 0.0647583
vt 0.375 0.124939
vt 0.625 0.124939
vt 0.625 0.0647583
vt 0.375 0
vt 0.625 0
vt 0.625 0.625
vt 0.625 0.6850586
vt 0.875 0.6850586
vt 0.875 0.625
vt 0.125 0.625
vt 0.125 0.6850586
vt 0.375 0.6850586
vt 0.375 0.625
vt 0.375 0.625
vt 0.375 0.75
vt 0.625 0.75
vt 0.625 0.625
vt 0.375 0.75
vt 0.375 1
vt 0.625 1
vt 0.625 0.75
vt 0.625 0.625
vt 0.625 0.75
vt 0.875 0.75
vt 0.875 0.625
vt 0.375 0
vt 0.375 0.125
vt 0.625 0.125
vt 0.625 0
vt 0.375 0.625
vt 0.375 0.75
vt 0.625 0.75
vt 0.625 0.625
vt 0.375 0.75
vt 0.375 1
vt 0.625 1
vt 0.625 0.75
vt 0.625 0.625
vt 0.625 0.75
vt 0.875 0.75
vt 0.875 0.625
vt 0.375 0
vt 0.375 0.125
vt 0.625 0.125
vt 0.625 0
vt 0.375 0.6850586
vt 0.625 0.75
vt 0.375 0.75
vt 0.625 0.6850586
vt 0.375 0.625
vt 0.625 0.625
vt 0.375 0.75
vt 0.625 0.75
vt 0.625 1
vt 0.375 1
vt 0.125 0.6850586
vt 0.375 0.6850586
vt 0.375 0.75
vt 0.125 0.75
vt 0.625 0.6850586
vt 0.875 0.6850586
vt 0.875 0.75
vt 0.625 0.75
vt 0.375 0.0647583
vt 0.625 0.124939
vt 0.375 0.124939
vt 0.625 0.0647583
vt 0.375 0
vt 0.625 0
vt 0.625 0.625
vt 0.875 0.625
vt 0.875 0.6850586
vt 0.625 0.6850586
vt 0.125 0.625
vt 0.375 0.625
vt 0.375 0.6850586
vt 0.125 0.6850586
vt 0.375 0.625
vt 0.625 0.625
vt 0.625 0.75
vt 0.375 0.75
vt 0.375 0.75
vt 0.625 0.75
vt 0.625 1
vt 0.375 1
vt 0.625 0.625
vt 0.875 0.625
vt 0.875 0.75
vt 0.625 0.75
vt 0.375 0
vt 0.625 0
vt 0.625 0.125
vt 0.375 0.125
vt 0.375 0.625
vt 0.625 0.625
vt 0.625 0.75
vt 0.375 0.75
vt 0.375 0.75
vt 0.625 0.75
vt 0.625 1
vt 0.375 1
vt 0.625 0.625
vt 0.875 0.625
vt 0.875 0.75
vt 0.625 0.75
vt 0.375 0
vt 0.625 0
vt 0.625 0.125
vt 0.375 0.125
vn 1 0 0
vn 1 0 0
vn 1 0 0
vn 1 0 0
vn 1 0 0
vn 1 0 0
vn 0 0 1
vn 0 0 1
vn 0 0 1
vn 0 0 1
vn 0 -0.9609375 -0.2775879
vn 0 -0.9609375 -0.2775879
vn 0 -0.9609375 -0.2775879
vn 0 -0.9609375 -0.2775879
vn 0 0.9575195 0.2890625
vn 0 0.9575195 0.2890625
vn 0 0.9575195 0.2890625
vn 0 0.9575195 0.2890625
vn -1 0 0
vn -1 0 0
vn -1 0 0
vn -1 0 0
vn -1 0 0
vn -1 0 0
vn 0 0.996582 0.08056641
vn 0 0.996582 0.08056641
vn 0 0.996582 0.08056641
vn 0 0.996582 0.08056641
vn 0 -0.9951172 -0.09960938
vn 0 -0.9951172 -0.09960938
vn 0 -0.9951172 -0.09960938
vn 0 -0.9951172 -0.09960938
vn 0.9926758 0.114502 0.04107666
vn 0.9926758 0.114502 0.04107666
vn 0.9926758 0.114502 0.04107666
vn 0.9926758 0.114502 0.04107666
vn -0.004138947 -0.0001693964 1
vn -0.004138947 -0.0001693964 1
vn -0.004138947 -0.0001693964 1
vn -0.004138947 -0.0001693964 1
vn -0.0003764629 0.9868164 0.1607666
vn -0.0003764629 0.9868164 0.1607666
vn -0.0003764629 0.9868164 0.1607666
vn -0.0003764629 0.9868164 0.1607666
vn -0.9995117 -0.02545166 0.00775528
vn -0.9995117 -0.02545166 0.00775528
vn -0.9995117 -0.02545166 0.00775528
vn -0.9995117 -0.02545166 0.00775528
vn 0.9902344 -0.1379395 0.003501892
vn 0.9902344 -0.1379395 0.003501892
vn 0.9902344 -0.1379395 0.003501892
vn 0.9902344 -0.1379395 0.003501892
vn -0.003675461 0.0006155968 1
vn -0.003675461 0.0006155968 1
vn -0.003675461 0.0006155968 1
vn -0.003675461 0.0006155968 1
vn -0.0003297329 0.9790039 0.2042236
vn -0.0003297329 0.9790039 0.2042236
vn -0.0003297329 0.9790039 0.2042236
vn -0.0003297329 0.9790039 0.2042236
vn -0.987793 0.151123 0.03738403
vn -0.987793 0.151123 0.03738403
vn -0.987793 0.151123 0.03738403
vn -0.987793 0.151123 0.03738403
vn 1 0 0
vn 1 0 0
vn 1 0 0
vn 1 0 0
vn 1 0 0
vn 1 0 0
vn 0 0 -1
vn 0 0 -1
vn 0 0 -1
vn 0 0 -1
vn 0 -0.9609375 0.2775879
vn 0 -0.9609375 0.2775879
vn 0 -0.9609375 0.2775879
vn 0 -0.9609375 0.2775879
vn 0 0.9575195 -0.2890625
vn 0 0.9575195 -0.2890625
vn 0 0.9575195 -0.2890625
vn 0 0.9575195 -0.2890625
vn -1 0 0
vn -1 0 0
vn -1 0 0
vn -1 0 0
vn -1 0 0
vn -1 0 0
vn 0 0.996582 -0.08056641
vn 0 0.996582 -0.08056641
vn 0 0.996582 -0.08056641
vn 0 0.996582 -0.08056641
vn 0 -0.9951172 0.09960938
vn 0 -0.9951172 0.09960938
vn 0 -0.9951172 0.09960938
vn 0 -0.9951172 0.09960938
vn 0.9926758 0.114502 -0.04107666
vn 0.9926758 0.114502 -0.04107666
vn 0.9926758 0.114502 -0.04107666
vn 0.9926758 0.114502 -0.04107666
vn -0.004138947 -0.0001693964 -1
vn -0.004138947 -0.0001693964 -1
vn -0.004138947 -0.0001693964 -1
vn -0.004138947 -0.0001693964 -1
vn -0.0003762245 0.9868164 -0.1607666
vn -0.0003762245 0.9868164 -0.1607666
vn -0.0003762245 0.9868164 -0.1607666
vn -0.0003762245 0.9868164 -0.1607666
vn -0.9995117 -0.02545166 -0.00775528
vn -0.9995117 -0.02545166 -0.00775528
vn -0.9995117 -0.02545166 -0.00775528
vn -0.9995117 -0.02545166 -0.00775528
vn 0.9926758 -0.1204224 0.01222229
vn 0.9926758 -0.1204224 0.01222229
vn 0.9926758 -0.1204224 0.01222229
vn 0.9926758 -0.1204224 0.01222229
vn -0.05947876 -0.01480103 -0.9980469
vn -0.05947876 -0.01480103 -0.9980469
vn -0.05947876 -0.01480103 -0.9980469
vn -0.05947876 -0.01480103 -0.9980469
vn -0.02880859 0.9682617 -0.2486572
vn -0.02880859 0.9682617 -0.2486572
vn -0.02880859 0.9682617 -0.2486572
vn -0.02880859 0.9682617 -0.2486572
vn -0.9897461 0.1340332 -0.05282593
vn -0.9897461 0.1340332 -0.05282593
vn -0.9897461 0.1340332 -0.05282593
vn -0.9897461 0.1340332 -0.05282593
g SM_PROP_bridge_wood_Collision_0
f 3/3/3 2/2/2 1/1/1
f 4/4/4 3/3/3 1/1/1
f 4/4/4 1/1/1 5/5/5
f 6/6/6 4/4/4 5/5/5
f 9/9/9 8/8/8 7/7/7
f 10/10/10 9/9/9 7/7/7
f 13/13/13 12/12/12 11/11/11
f 14/14/14 13/13/13 11/11/11
f 17/17/17 16/16/16 15/15/15
f 18/18/18 17/17/17 15/15/15
f 21/21/21 20/20/20 19/19/19
f 22/22/22 21/21/21 19/19/19
f 22/22/22 19/19/19 23/23/23
f 24/24/24 22/22/22 23/23/23
f 27/27/27 26/26/26 25/25/25
f 28/28/28 27/27/27 25/25/25
f 31/31/31 30/30/30 29/29/29
f 32/32/32 31/31/31 29/29/29
f 35/35/35 34/34/34 33/33/33
f 36/36/36 35/35/35 33/33/33
f 39/39/39 38/38/38 37/37/37
f 40/40/40 39/39/39 37/37/37
f 43/43/43 42/42/42 41/41/41
f 44/44/44 43/43/43 41/41/41
f 47/47/47 46/46/46 45/45/45
f 48/48/48 47/47/47 45/45/45
f 51/51/51 50/50/50 49/49/49
f 52/52/52 51/51/51 49/49/49
f 55/55/55 54/54/54 53/53/53
f 56/56/56 55/55/55 53/53/53
f 59/59/59 58/58/58 57/57/57
f 60/60/60 59/59/59 57/57/57
f 63/63/63 62/62/62 61/61/61
f 64/64/64 63/63/63 61/61/61
f 67/67/67 66/66/66 65/65/65
f 66/66/66 68/68/68 65/65/65
f 65/65/65 68/68/68 69/69/69
f 68/68/68 70/70/70 69/69/69
f 73/73/73 72/72/72 71/71/71
f 74/74/74 73/73/73 71/71/71
f 77/77/77 76/76/76 75/75/75
f 78/78/78 77/77/77 75/75/75
f 81/81/81 80/80/80 79/79/79
f 82/82/82 81/81/81 79/79/79
f 85/85/85 84/84/84 83/83/83
f 84/84/84 86/86/86 83/83/83
f 83/83/83 86/86/86 87/87/87
f 86/86/86 88/88/88 87/87/87
f 91/91/91 90/90/90 89/89/89
f 92/92/92 91/91/91 89/89/89
f 95/95/95 94/94/94 93/93/93
f 96/96/96 95/95/95 93/93/93
f 99/99/99 98/98/98 97/97/97
f 100/100/100 99/99/99 97/97/97
f 103/103/103 102/102/102 101/101/101
f 104/104/104 103/103/103 101/101/101
f 107/107/107 106/106/106 105/105/105
f 108/108/108 107/107/107 105/105/105
f 111/111/111 110/110/110 109/109/109
f 112/112/112 111/111/111 109/109/109
f 115/115/115 114/114/114 113/113/113
f 116/116/116 115/115/115 113/113/113
f 119/119/119 118/118/118 117/117/117
f 120/120/120 119/119/119 117/117/117
f 123/123/123 122/122/122 121/121/121
f 124/124/124 123/123/123 121/121/121
f 127/127/127 126/126/126 125/125/125
f 128/128/128 127/127/127 125/125/125
