g SM_PROP_wall_wood_post_02
v 0.05756615 -0.0001519425 -0.4415289
v 0.4176361 -0.0002212452 -0.1997888
v 0.3381294 5.756364 -0.2966373
v 0.01836428 5.720219 -0.5402797
v -0.3920166 5.743102 -0.36467
v -0.3393813 7.083725E-05 -0.2533728
v -0.3643397 0.0002204822 0.1797692
v -0.3393813 7.083725E-05 -0.2533728
v -0.3920166 5.743102 -0.36467
v -0.484136 5.766727 0.05557982
v -0.1637656 5.817057 0.2988225
v -0.0003426753 0.0001508087 0.4195449
v 0.3929341 -7.311501E-05 0.228915
v 0.2471861 5.807627 0.1228336
v 0.3381294 5.756364 -0.2966373
v 0.4176361 -0.0002212452 -0.1997888
v -0.484136 5.766727 0.05557982
v 0.2471861 5.807627 0.1228336
v -0.1637656 5.817057 0.2988225
v -0.3920166 5.743102 -0.36467
v 0.3381294 5.756364 -0.2966373
v 0.01836428 5.720219 -0.5402797
vt 0.01161957 0.3522949
vt 0.01161957 0.4140625
vt 0.9863281 0.4206543
vt 0.9863281 0.3591309
vt 0.9863281 0.2856445
vt 0.01161957 0.2788086
vt 0.01161957 0.6225586
vt 0.01161957 0.6962891
vt 0.9863281 0.703125
vt 0.9863281 0.6293945
vt 0.9863281 0.5678711
vt 0.01223755 0.5610352
vt 0.01161957 0.4875488
vt 0.9863281 0.4943848
vt 0.9863281 0.4206543
vt 0.01161957 0.4140625
vt 0.5244141 0.2978516
vt 0.8232422 0.03869629
vt 0.6079102 0.05767822
vt 0.65625 0.4587402
vt 0.9892578 0.2045898
vt 0.8803711 0.451416
vn 0.1008301 -0.01603699 -0.9946289
vn 0.9204102 0.008255005 -0.3903809
vn 0.9301758 0.008987427 -0.3664551
vn 0.1021729 -0.01600647 -0.9946289
vn -0.8105469 -0.02145386 -0.5854492
vn -0.8027344 -0.02148438 -0.5957031
vn -0.9130859 -0.008262634 0.4074707
vn -0.8027344 -0.02148438 -0.5957031
vn -0.8105469 -0.02145386 -0.5854492
vn -0.9067383 -0.0079422 0.421875
vn -0.0836792 0.01867676 0.9960938
vn -0.0838623 0.0186615 0.9960938
vn 0.8027344 0.02879333 0.5957031
vn 0.7871094 0.02897644 0.6162109
vn 0.9301758 0.008987427 -0.3664551
vn 0.9204102 0.008255005 -0.3903809
vn -0.04736328 0.9946289 -0.09002686
vn -0.02558899 0.9931641 -0.1147461
vn -0.04147339 0.987793 -0.1497803
vn -0.02839661 0.9946289 -0.0980835
vn -0.006118774 0.9916992 -0.1276855
vn -0.004894257 0.9902344 -0.1405029
g SM_PROP_wall_wood_post_02_0
f 3/3/3 2/2/2 1/1/1
f 4/4/4 3/3/3 1/1/1
f 5/5/5 4/4/4 1/1/1
f 6/6/6 5/5/5 1/1/1
f 9/9/9 8/8/8 7/7/7
f 10/10/10 9/9/9 7/7/7
f 11/11/11 10/10/10 7/7/7
f 12/12/12 11/11/11 7/7/7
f 11/11/11 12/12/12 13/13/13
f 14/14/14 11/11/11 13/13/13
f 15/15/15 14/14/14 13/13/13
f 16/16/16 15/15/15 13/13/13
g SM_PROP_wall_wood_post_02_1
f 19/19/19 18/18/18 17/17/17
f 17/17/17 18/18/18 20/20/20
f 21/21/21 20/20/20 18/18/18
f 22/22/22 20/20/20 21/21/21
