g SM_PROP_fence_v03_02
v 0.9414101 0.352314 0.14184
v 0.881155 0.1156235 0.1478443
v 0.8864632 0.10289 0.2291832
v 0.9445553 0.3373222 0.1917877
v -0.1002827 0.2355614 0.1709423
v -0.9098358 0.4180298 0.1734352
v -0.8854256 0.4323807 0.2347469
v -0.1002169 0.223671 0.1247082
v 0.881155 0.1156235 0.1478443
v 0.8864632 0.10289 0.2291832
v -0.8208237 0.6584778 0.2153339
v -0.8854256 0.4323807 0.2347469
v -0.9098358 0.4180298 0.1734352
v -0.8609009 0.6617737 0.1787949
v -0.03922653 0.4510307 0.09999084
v 0.9414101 0.352314 0.14184
v 0.9445553 0.3373222 0.1917877
v -0.03686714 0.4516563 0.1297474
v -0.8208237 0.6584778 0.2153339
v -0.8609009 0.6617737 0.1787949
v 0.881155 0.1156235 0.1478443
v 0.9414101 0.352314 0.14184
v -0.03922653 0.4510307 0.09999084
v -0.1002169 0.223671 0.1247082
v -0.9098358 0.4180298 0.1734352
v -0.8609009 0.6617737 0.1787949
v -0.8854256 0.4323807 0.2347469
v -0.8208237 0.6584778 0.2153339
v -0.03686714 0.4516563 0.1297474
v -0.1002827 0.2355614 0.1709423
v -0.03686714 0.4516563 0.1297474
v 0.9445553 0.3373222 0.1917877
v 0.8864632 0.10289 0.2291832
v -0.1002827 0.2355614 0.1709423
v 0.9201918 0.9325066 0.1533566
v 0.9318104 0.7158737 0.1498947
v 0.9501076 0.7129288 0.2461777
v 0.9351711 0.924572 0.2120457
v 0.2184801 0.6324768 0.2153358
v -0.8541451 0.7190895 0.1994438
v -0.8357 0.7225876 0.2621212
v 0.2207537 0.6402435 0.1264782
v 0.9318104 0.7158737 0.1498947
v 0.9501076 0.7129288 0.2461777
v -0.8329277 0.8760223 0.244709
v -0.8357 0.7225876 0.2621212
v -0.8541451 0.7190895 0.1994438
v -0.8832902 0.8766365 0.1996574
v 0.218298 0.9099884 0.1690083
v 0.9201918 0.9325066 0.1533566
v 0.9351711 0.924572 0.2120457
v 0.224637 0.8983231 0.2235947
v -0.8329277 0.8760223 0.244709
v -0.8832902 0.8766365 0.1996574
v 0.9318104 0.7158737 0.1498947
v 0.9201918 0.9325066 0.1533566
v 0.218298 0.9099884 0.1690083
v 0.2207537 0.6402435 0.1264782
v -0.8541451 0.7190895 0.1994438
v -0.8832902 0.8766365 0.1996574
v -0.8357 0.7225876 0.2621212
v -0.8329277 0.8760223 0.244709
v 0.224637 0.8983231 0.2235947
v 0.2184801 0.6324768 0.2153358
v 0.224637 0.8983231 0.2235947
v 0.9351711 0.924572 0.2120457
v 0.9501076 0.7129288 0.2461777
v 0.2184801 0.6324768 0.2153358
v -0.7863293 -0.05495453 0.163002
v -0.8521042 -0.05255127 0.09136963
v -1.003359 1.067539 0.08709335
v -0.9132919 1.071724 0.2226219
v -0.7653265 1.098248 0.2042732
v -0.6925278 -0.0529747 0.1442738
v -0.6633787 -0.04905701 0.05366898
v -0.6925278 -0.0529747 0.1442738
v -0.7074289 1.109219 0.05039787
v -0.8220139 -0.04837418 0.000585556
v -1.003359 1.067539 0.08709335
v -0.8521042 -0.05255127 0.09136963
v -0.9454613 1.07428 -0.066782
v -0.7974958 1.096344 -0.08513069
v -0.7284803 -0.04668045 -0.01722908
v -0.6633787 -0.04905701 0.05366898
v -0.7074289 1.109219 0.05039787
v 0.802352 -0.04966736 0.108284
v 0.8210888 -0.04444122 0.01332664
v 0.7954826 1.07872 -0.06524277
v 0.7402258 1.079716 0.08724594
v 0.802352 -0.04966736 0.108284
v 0.7402258 1.079716 0.08724594
v 0.8436174 1.096218 0.1959038
v 0.8727856 -0.05408859 0.172369
v 0.9627905 -0.05382538 0.1422329
v 0.8727856 -0.05408859 0.172369
v 1.001656 1.10043 0.1516171
v 1.056446 1.09079 -0.001220703
v 0.9813347 -0.04864883 0.04824829
v 0.9118051 -0.04397583 -0.01615143
v 0.9532937 1.07872 -0.1097012
v 0.7954826 1.07872 -0.06524277
v 0.8210888 -0.04444122 0.01332664
v -0.8220139 -0.04837418 0.000585556
v -0.8521042 -0.05255127 0.09136963
v -0.7863293 -0.05495453 0.163002
v -0.6925278 -0.0529747 0.1442738
v -0.7284803 -0.04668045 -0.01722908
v -0.6633787 -0.04905701 0.05366898
v 0.9118051 -0.04397583 -0.01615143
v 0.8210888 -0.04444122 0.01332664
v 0.802352 -0.04966736 0.108284
v 0.8727856 -0.05408859 0.172369
v 0.9813347 -0.04864883 0.04824829
v 0.9627905 -0.05382538 0.1422329
v -0.9132919 1.071724 0.2226219
v -1.003359 1.067539 0.08709335
v -0.8553934 1.11335 0.06874466
v -0.7653265 1.098248 0.2042732
v -0.9454613 1.07428 -0.066782
v -0.7074289 1.109219 0.05039787
v -0.7974958 1.096344 -0.08513069
v 0.7402258 1.079716 0.08724594
v 0.7954826 1.07872 -0.06524277
v 0.9048529 1.113857 0.04788971
v 0.8436174 1.096218 0.1959038
v 0.9532937 1.07872 -0.1097012
v 1.001656 1.10043 0.1516171
v 1.056446 1.09079 -0.001220703
vt 0.8920898 0.2456055
vt 0.8920898 0.001320839
vt 0.9985352 0.001799583
vt 0.9985352 0.2460938
vt 0.4484863 0.0001920462
vt 0.0004703999 0.2460938
vt 0.0001730919 0.0001920462
vt 0.4521484 0.2460938
vt 0.8896484 0.2460938
vt 0.8891602 0.0001920462
vt 0.8916016 0.2456055
vt 0.8916016 0.000746727
vt 0.9985352 0.001225471
vt 0.9990234 0.2460938
vt 0.4599609 0.0003154278
vt 0.8935547 0.0003154278
vt 0.894043 0.2460938
vt 0.4614258 0.2460938
vt 0.0005507469 0.2460938
vt 0.0004081726 0.0003154278
vt 0.8945313 0.001693726
vt 0.8911133 0.2460938
vt 0.4711914 0.2460938
vt 0.4689941 0.001173019
vt 0.00724411 0.003303528
vt 0.003404617 0.2460938
vt 0.8989258 0.0002589226
vt 0.8901367 0.2460938
vt 0.4350586 0.2460938
vt 0.4443359 0.0002589226
vt 0.4350586 0.2460938
vt 0.0006866455 0.2460938
vt 0.0001959801 0.0002589226
vt 0.4443359 0.0002589226
vt 0.8920898 0.2456055
vt 0.8920898 0.001320839
vt 0.9985352 0.001799583
vt 0.9985352 0.2460938
vt 0.4484863 0.0001920462
vt 0.0004703999 0.2460938
vt 0.0001730919 0.0001920462
vt 0.4521484 0.2460938
vt 0.8896484 0.2460938
vt 0.8891602 0.0001920462
vt 0.8916016 0.2456055
vt 0.8916016 0.000746727
vt 0.9985352 0.001225471
vt 0.9990234 0.2460938
vt 0.4599609 0.0003154278
vt 0.8935547 0.0003154278
vt 0.894043 0.2460938
vt 0.4614258 0.2460938
vt 0.0005507469 0.2460938
vt 0.0004081726 0.0003154278
vt 0.8945313 0.001693726
vt 0.8911133 0.2460938
vt 0.4711914 0.2460938
vt 0.4689941 0.001173019
vt 0.00724411 0.003303528
vt 0.003404617 0.2460938
vt 0.8989258 0.0002589226
vt 0.8901367 0.2460938
vt 0.4350586 0.2460938
vt 0.4443359 0.0002589226
vt 0.4350586 0.2460938
vt 0.0006866455 0.2460938
vt 0.0001959801 0.0002589226
vt 0.4443359 0.0002589226
vt 0.01161957 0.6225586
vt 0.01161957 0.6962891
vt 0.9863281 0.703125
vt 0.9863281 0.6293945
vt 0.9863281 0.5678711
vt 0.01223755 0.5610352
vt 0.01161957 0.4875488
vt 0.01161957 0.5610352
vt 0.9863281 0.4943848
vt 0.01161957 0.3522949
vt 0.9863281 0.2856445
vt 0.01161957 0.2788086
vt 0.9863281 0.3591309
vt 0.9863281 0.4206543
vt 0.01161957 0.4140625
vt 0.01161957 0.4875488
vt 0.9863281 0.4943848
vt 0.01161957 0.6225586
vt 0.01161957 0.6962891
vt 0.9863281 0.703125
vt 0.9863281 0.6293945
vt 0.01161957 0.6225586
vt 0.9863281 0.6293945
vt 0.9863281 0.5678711
vt 0.01223755 0.5610352
vt 0.01161957 0.4875488
vt 0.01161957 0.5610352
vt 0.9863281 0.4943848
vt 0.9863281 0.4206543
vt 0.01161957 0.4140625
vt 0.01161957 0.3522949
vt 0.9863281 0.3591309
vt 0.9863281 0.2856445
vt 0.01161957 0.2788086
vt 0.2502441 0.01434326
vt 0.05072021 0.1265869
vt 0.05072021 0.3581543
vt 0.2462158 0.4748535
vt 0.4436035 0.1324463
vt 0.4436035 0.3615723
vt 0.2502441 0.01434326
vt 0.05072021 0.1265869
vt 0.05072021 0.3581543
vt 0.2462158 0.4748535
vt 0.4436035 0.1324463
vt 0.4436035 0.3615723
vt 0.3620605 0.4077148
vt 0.4348145 0.2370605
vt 0.2575684 0.2370605
vt 0.1359863 0.4020996
vt 0.3581543 0.08172607
vt 0.07470703 0.2409668
vt 0.1494141 0.08752441
vt 0.3937988 0.451416
vt 0.4899902 0.2254639
vt 0.2556152 0.2254639
vt 0.09454346 0.4438477
vt 0.3886719 0.01985168
vt 0.01339722 0.2305908
vt 0.1122437 0.02745056
vn 0.9609375 -0.2519531 -0.1150513
vn 0.9609375 -0.2519531 -0.1150513
vn 0.9609375 -0.2519531 -0.1150513
vn 0.9609375 -0.2519531 -0.1150513
vn -0.1693115 -0.9750977 0.1439209
vn -0.2104492 -0.9375 0.2763672
vn -0.2104492 -0.9375 0.2763672
vn -0.1660156 -0.9770508 0.1333008
vn -0.1213379 -0.9926758 -0.001573563
vn -0.1213379 -0.9926758 -0.001573563
vn -0.8261719 0.21521 0.5205078
vn -0.8261719 0.21521 0.5205078
vn -0.8261719 0.21521 0.5205078
vn -0.8261719 0.21521 0.5205078
vn 0.1727295 0.9848633 0.02357483
vn 0.09747314 0.9804688 0.1700439
vn 0.09747314 0.9804688 0.1700439
vn 0.1682129 0.9853516 0.03283691
vn 0.2391357 0.9643555 -0.1141968
vn 0.2391357 0.9643555 -0.1141968
vn 0.02537537 -0.07263184 -0.9970703
vn 0.02537537 -0.07263184 -0.9970703
vn -0.02604675 -0.04855347 -0.9985352
vn -0.03225708 -0.04562378 -0.9985352
vn -0.08325195 -0.02151489 -0.9960938
vn -0.08325195 -0.02151489 -0.9960938
vn 0.1199341 0.100647 0.987793
vn 0.1199341 0.100647 0.987793
vn 0.03662109 0.144165 0.9887695
vn 0.04644775 0.1390381 0.9892578
vn 0.03662109 0.144165 0.9887695
vn -0.03729248 0.1815186 0.9829102
vn -0.03729248 0.1815186 0.9829102
vn 0.04644775 0.1390381 0.9892578
vn 0.9775391 0.04580688 -0.206665
vn 0.9775391 0.04580688 -0.206665
vn 0.9775391 0.04580688 -0.206665
vn 0.9775391 0.04580688 -0.206665
vn 0.01324463 -0.9990234 -0.04299927
vn -0.0802002 -0.996582 -0.01951599
vn -0.0802002 -0.996582 -0.01951599
vn 0.01763916 -0.9990234 -0.0440979
vn 0.1098022 -0.9916992 -0.06689453
vn 0.1098022 -0.9916992 -0.06689453
vn -0.8413086 -0.04156494 0.5385742
vn -0.8413086 -0.04156494 0.5385742
vn -0.8413086 -0.04156494 0.5385742
vn -0.8413086 -0.04156494 0.5385742
vn -0.02622986 0.987793 0.1542969
vn -0.03057861 0.9838867 0.1760254
vn -0.03057861 0.9838867 0.1760254
vn -0.02668762 0.9873047 0.1566162
vn -0.02230835 0.9907227 0.1347656
vn -0.02230835 0.9907227 0.1347656
vn -0.001066208 0.09411621 -0.9956055
vn -0.001066208 0.09411621 -0.9956055
vn -0.02294922 0.09515381 -0.9951172
vn -0.02326965 0.09515381 -0.9951172
vn -0.0453186 0.09613037 -0.9941406
vn -0.0453186 0.09613037 -0.9941406
vn 0.0328064 0.02111816 0.9990234
vn 0.0328064 0.02111816 0.9990234
vn 0.006919861 0.03799438 0.9990234
vn 0.008338928 0.03707886 0.9995117
vn 0.006919861 0.03799438 0.9990234
vn -0.01733398 0.05377197 0.9985352
vn -0.01733398 0.05377197 0.9985352
vn 0.008338928 0.03707886 0.9995117
vn -0.3435059 -0.08587646 0.9350586
vn -0.9770508 -0.1348877 0.1661377
vn -0.980957 -0.1352539 0.1376953
vn -0.3603516 -0.08721924 0.9287109
vn 0.652832 0.002187729 0.7573242
vn 0.6494141 0.001805305 0.7607422
vn 0.9902344 0.03433228 -0.1356201
vn 0.6494141 0.001805305 0.7607422
vn 0.9882813 0.03405762 -0.1501465
vn -0.6225586 -0.1138916 -0.7744141
vn -0.980957 -0.1352539 0.1376953
vn -0.9770508 -0.1348877 0.1661377
vn -0.6088867 -0.1129761 -0.7851563
vn 0.3984375 -0.02764893 -0.9169922
vn 0.4057617 -0.0269165 -0.9135742
vn 0.9902344 0.03433228 -0.1356201
vn 0.9882813 0.03405762 -0.1501465
vn -0.9599609 -0.04534912 0.2758789
vn -0.7192383 -0.06835938 -0.6914063
vn -0.6987305 -0.06903076 -0.7119141
vn -0.9648438 -0.04574585 0.2585449
vn -0.9599609 -0.04534912 0.2758789
vn -0.9648438 -0.04574585 0.2585449
vn -0.2224121 -0.02522278 0.9746094
vn -0.2272949 -0.02528381 0.9736328
vn 0.6967773 -0.03222656 0.7163086
vn -0.2272949 -0.02528381 0.9736328
vn 0.7075195 -0.03265381 0.7060547
vn 0.9716797 -0.07110596 -0.2254639
vn 0.9736328 -0.07080078 -0.2176514
vn 0.2481689 -0.08856201 -0.9648438
vn 0.2648926 -0.08868408 -0.9599609
vn -0.6987305 -0.06903076 -0.7119141
vn -0.7192383 -0.06835938 -0.6914063
vn 0.0107193 -0.9990234 -0.04208374
vn 0.009963989 -0.9990234 -0.04266357
vn 0.01183319 -0.9990234 -0.0430603
vn 0.01072693 -0.9990234 -0.04208374
vn 0.009643555 -0.9990234 -0.04107666
vn 0.007827759 -0.9990234 -0.04067993
vn -0.01367188 -0.9985352 -0.05670166
vn -0.01360321 -0.9980469 -0.05761719
vn -0.0121994 -0.9985352 -0.05639648
vn -0.01369476 -0.9985352 -0.05670166
vn -0.01515198 -0.9980469 -0.05700684
vn -0.0165863 -0.9980469 -0.05825806
vn -0.2091064 0.9609375 0.1812744
vn -0.2907715 0.9560547 0.04193115
vn -0.1394043 0.9902344 0.01626587
vn -0.0637207 0.9863281 0.1522217
vn -0.2316895 0.9648438 -0.1241455
vn 0.02662659 0.9995117 -0.01039124
vn -0.08343506 0.9863281 -0.1403809
vn -0.2086182 0.9775391 -0.02435303
vn -0.1466064 0.9760742 -0.161377
vn -0.03610229 0.9975586 -0.05807495
vn -0.1069946 0.9916992 0.07391357
vn 0.01163483 0.9765625 -0.2142334
vn 0.07806396 0.9956055 0.05603027
vn 0.1141968 0.9873047 -0.111145
g SM_PROP_fence_v03_02_0
f 3/3/3 2/2/2 1/1/1
f 4/4/4 3/3/3 1/1/1
f 7/7/7 6/6/6 5/5/5
f 6/6/6 8/8/8 5/5/5
f 8/8/8 9/9/9 5/5/5
f 9/9/9 10/10/10 5/5/5
f 13/13/13 12/12/12 11/11/11
f 14/14/14 13/13/13 11/11/11
f 17/17/17 16/16/16 15/15/15
f 18/18/18 17/17/17 15/15/15
f 19/19/19 18/18/18 15/15/15
f 20/20/20 19/19/19 15/15/15
f 23/23/23 22/22/22 21/21/21
f 24/24/24 23/23/23 21/21/21
f 24/24/24 25/25/25 23/23/23
f 25/25/25 26/26/26 23/23/23
f 29/29/29 28/28/28 27/27/27
f 30/30/30 29/29/29 27/27/27
f 33/33/33 32/32/32 31/31/31
f 34/34/34 33/33/33 31/31/31
f 37/37/37 36/36/36 35/35/35
f 38/38/38 37/37/37 35/35/35
f 41/41/41 40/40/40 39/39/39
f 40/40/40 42/42/42 39/39/39
f 42/42/42 43/43/43 39/39/39
f 43/43/43 44/44/44 39/39/39
f 47/47/47 46/46/46 45/45/45
f 48/48/48 47/47/47 45/45/45
f 51/51/51 50/50/50 49/49/49
f 52/52/52 51/51/51 49/49/49
f 53/53/53 52/52/52 49/49/49
f 54/54/54 53/53/53 49/49/49
f 57/57/57 56/56/56 55/55/55
f 58/58/58 57/57/57 55/55/55
f 58/58/58 59/59/59 57/57/57
f 59/59/59 60/60/60 57/57/57
f 63/63/63 62/62/62 61/61/61
f 64/64/64 63/63/63 61/61/61
f 67/67/67 66/66/66 65/65/65
f 68/68/68 67/67/67 65/65/65
g SM_PROP_fence_v03_02_1
f 71/71/71 70/70/70 69/69/69
f 72/72/72 71/71/71 69/69/69
f 73/73/73 72/72/72 69/69/69
f 74/74/74 73/73/73 69/69/69
f 73/73/73 76/76/76 75/75/75
f 77/77/77 73/73/73 75/75/75
f 80/80/80 79/79/79 78/78/78
f 79/79/79 81/81/81 78/78/78
f 81/81/81 82/82/82 78/78/78
f 82/82/82 83/83/83 78/78/78
f 83/83/83 82/82/82 84/84/84
f 82/82/82 85/85/85 84/84/84
f 88/88/88 87/87/87 86/86/86
f 89/89/89 88/88/88 86/86/86
f 92/92/92 91/91/91 90/90/90
f 93/93/93 92/92/92 90/90/90
f 92/92/92 95/95/95 94/94/94
f 96/96/96 92/92/92 94/94/94
f 97/97/97 96/96/96 94/94/94
f 98/98/98 97/97/97 94/94/94
f 97/97/97 98/98/98 99/99/99
f 100/100/100 97/97/97 99/99/99
f 101/101/101 100/100/100 99/99/99
f 102/102/102 101/101/101 99/99/99
g SM_PROP_fence_v03_02_2
f 105/105/105 104/104/104 103/103/103
f 106/106/106 105/105/105 103/103/103
f 106/106/106 103/103/103 107/107/107
f 107/107/107 108/108/108 106/106/106
f 111/111/111 110/110/110 109/109/109
f 112/112/112 111/111/111 109/109/109
f 112/112/112 109/109/109 113/113/113
f 113/113/113 114/114/114 112/112/112
f 117/117/117 116/116/116 115/115/115
f 117/117/117 115/115/115 118/118/118
f 117/117/117 119/119/119 116/116/116
f 117/117/117 118/118/118 120/120/120
f 117/117/117 121/121/121 119/119/119
f 117/117/117 120/120/120 121/121/121
f 124/124/124 123/123/123 122/122/122
f 124/124/124 122/122/122 125/125/125
f 124/124/124 126/126/126 123/123/123
f 124/124/124 125/125/125 127/127/127
f 124/124/124 128/128/128 126/126/126
f 124/124/124 127/127/127 128/128/128
