g SM_PROP_fence_door_gate
v -0.8263077 -0.05495453 0.1900482
v -0.8920836 -0.05254745 0.1184158
v -1.043338 1.067539 0.1141376
v -0.9532704 1.071724 0.2496662
v -0.8053055 1.098248 0.2313194
v -0.7325072 -0.0529747 0.17132
v -0.8619928 -0.04837036 0.02763176
v -1.043338 1.067539 0.1141376
v -0.8920836 -0.05254745 0.1184158
v -0.9854402 1.074284 -0.0397377
v -0.8374748 1.096344 -0.05808449
v -0.7684593 -0.04668045 0.009815216
v -0.7033581 -0.04905701 0.08071518
v -0.7474079 1.109219 0.07744408
v -0.8053055 1.098248 0.2313194
v -0.7325072 -0.0529747 0.17132
v 0.7623739 -0.04966736 0.1353302
v 0.7811108 -0.04443741 0.04037285
v 0.7555046 1.07872 -0.03819656
v 0.7002478 1.079716 0.1142902
v 0.8036394 1.096218 0.22295
v 0.8328075 -0.05408859 0.1994152
v 0.9228125 -0.05382538 0.1692791
v 0.8328075 -0.05408859 0.1994152
v 0.9616776 1.10043 0.1786613
v 1.016468 1.09079 0.02582359
v 0.9413567 -0.04864883 0.07529449
v 0.8718271 -0.04397583 0.01089478
v 0.9133157 1.07872 -0.08265495
v 0.7555046 1.07872 -0.03819656
v 0.7811108 -0.04443741 0.04037285
v -0.8619928 -0.04837036 0.02763176
v -0.8920836 -0.05254745 0.1184158
v -0.8263077 -0.05495453 0.1900482
v -0.7325072 -0.0529747 0.17132
v -0.7684593 -0.04668045 0.009815216
v -0.7033581 -0.04905701 0.08071518
v 0.8718271 -0.04397583 0.01089478
v 0.7811108 -0.04443741 0.04037285
v 0.7623739 -0.04966736 0.1353302
v 0.8328075 -0.05408859 0.1994152
v 0.9413567 -0.04864883 0.07529449
v 0.9228125 -0.05382538 0.1692791
v -0.9532704 1.071724 0.2496662
v -1.043338 1.067539 0.1141376
v -0.8953728 1.090584 0.09579086
v -0.8053055 1.098248 0.2313194
v -0.9854402 1.074284 -0.0397377
v -0.7474079 1.109219 0.07744408
v -0.8374748 1.096344 -0.05808449
v 0.7002478 1.079716 0.1142902
v 0.7555046 1.07872 -0.03819656
v 0.8648748 1.091091 0.07493591
v 0.8036394 1.096218 0.22295
v 0.9133157 1.07872 -0.08265495
v 0.9616776 1.10043 0.1786613
v 1.016468 1.09079 0.02582359
vt 0.01161957 0.6225586
vt 0.01161957 0.6962891
vt 0.9863281 0.703125
vt 0.9863281 0.6293945
vt 0.9863281 0.5678711
vt 0.01223755 0.5610352
vt 0.01161957 0.3522949
vt 0.9863281 0.2856445
vt 0.01161957 0.2788086
vt 0.9863281 0.3591309
vt 0.9863281 0.4206543
vt 0.01161957 0.4140625
vt 0.01161957 0.4875488
vt 0.9863281 0.4943848
vt 0.9863281 0.5678711
vt 0.01161957 0.5610352
vt 0.01161957 0.6225586
vt 0.01161957 0.6962891
vt 0.9863281 0.703125
vt 0.9863281 0.6293945
vt 0.9863281 0.5678711
vt 0.01223755 0.5610352
vt 0.01161957 0.4875488
vt 0.01161957 0.5610352
vt 0.9863281 0.4943848
vt 0.9863281 0.4206543
vt 0.01161957 0.4140625
vt 0.01161957 0.3522949
vt 0.9863281 0.3591309
vt 0.9863281 0.2856445
vt 0.01161957 0.2788086
vt 0.2502441 0.01434326
vt 0.05072021 0.1265869
vt 0.05072021 0.3581543
vt 0.2462158 0.4748535
vt 0.4436035 0.1324463
vt 0.4436035 0.3615723
vt 0.2502441 0.01434326
vt 0.05072021 0.1265869
vt 0.05072021 0.3581543
vt 0.2462158 0.4748535
vt 0.4436035 0.1324463
vt 0.4436035 0.3615723
vt 0.3620605 0.4077148
vt 0.4348145 0.2370605
vt 0.2575684 0.2370605
vt 0.1359863 0.4020996
vt 0.3581543 0.08172607
vt 0.07470703 0.2409668
vt 0.1494141 0.08752441
vt 0.3937988 0.451416
vt 0.4899902 0.2254639
vt 0.2556152 0.2254639
vt 0.09454346 0.4438477
vt 0.3886719 0.01985168
vt 0.01339722 0.2305908
vt 0.1122437 0.02745056
vn -0.3435059 -0.08587646 0.9350586
vn -0.9770508 -0.1348877 0.1661377
vn -0.980957 -0.1352539 0.1376953
vn -0.3603516 -0.08721924 0.9287109
vn 0.652832 0.002187729 0.7573242
vn 0.6494141 0.001805305 0.7607422
vn -0.6225586 -0.1138916 -0.7744141
vn -0.980957 -0.1352539 0.1376953
vn -0.9770508 -0.1348877 0.1661377
vn -0.6088867 -0.1129761 -0.7851563
vn 0.3984375 -0.02764893 -0.9169922
vn 0.4057617 -0.0269165 -0.9135742
vn 0.9902344 0.03433228 -0.1356201
vn 0.9882813 0.03405762 -0.1501465
vn 0.652832 0.002187729 0.7573242
vn 0.6494141 0.001805305 0.7607422
vn -0.9599609 -0.04534912 0.2758789
vn -0.7192383 -0.06835938 -0.6914063
vn -0.6987305 -0.06903076 -0.7119141
vn -0.9648438 -0.04574585 0.2585449
vn -0.2224121 -0.02522278 0.9746094
vn -0.2272949 -0.02528381 0.9736328
vn 0.6967773 -0.03222656 0.7163086
vn -0.2272949 -0.02528381 0.9736328
vn 0.7075195 -0.03265381 0.7060547
vn 0.9716797 -0.07110596 -0.2255859
vn 0.9736328 -0.07080078 -0.2176514
vn 0.2481689 -0.08856201 -0.9648438
vn 0.2648926 -0.08868408 -0.9599609
vn -0.6987305 -0.06903076 -0.7119141
vn -0.7192383 -0.06835938 -0.6914063
vn 0.01068878 -0.9990234 -0.04208374
vn 0.009918213 -0.9990234 -0.04269409
vn 0.01182556 -0.9990234 -0.04309082
vn 0.0107193 -0.9990234 -0.04208374
vn 0.009620667 -0.9990234 -0.04107666
vn 0.007835388 -0.9990234 -0.04067993
vn -0.01368713 -0.9985352 -0.05673218
vn -0.01366425 -0.9980469 -0.05767822
vn -0.01221466 -0.9985352 -0.05639648
vn -0.01369476 -0.9985352 -0.05670166
vn -0.01515198 -0.9980469 -0.05700684
vn -0.0165863 -0.9980469 -0.05825806
vn -0.1582031 0.9853516 0.0612793
vn -0.1507568 0.9882813 0.02589417
vn -0.144165 0.9892578 0.01701355
vn -0.1474609 0.9882813 0.04211426
vn -0.1525879 0.9882813 -0.01747131
vn -0.1240845 0.9921875 0.00711441
vn -0.1387939 0.9902344 -0.01515198
vn -0.08135986 0.9951172 -0.05255127
vn -0.05108643 0.9970703 -0.05960083
vn -0.04486084 0.996582 -0.065979
vn -0.06585693 0.9960938 -0.06173706
vn -0.02505493 0.9960938 -0.08587646
vn -0.03092957 0.9975586 -0.0609436
vn -0.02363586 0.996582 -0.07910156
g SM_PROP_fence_door_gate_0
f 3/3/3 2/2/2 1/1/1
f 4/4/4 3/3/3 1/1/1
f 5/5/5 4/4/4 1/1/1
f 6/6/6 5/5/5 1/1/1
f 9/9/9 8/8/8 7/7/7
f 8/8/8 10/10/10 7/7/7
f 10/10/10 11/11/11 7/7/7
f 11/11/11 12/12/12 7/7/7
f 12/12/12 11/11/11 13/13/13
f 11/11/11 14/14/14 13/13/13
f 14/14/14 15/15/15 13/13/13
f 15/15/15 16/16/16 13/13/13
f 19/19/19 18/18/18 17/17/17
f 20/20/20 19/19/19 17/17/17
f 21/21/21 20/20/20 17/17/17
f 22/22/22 21/21/21 17/17/17
f 21/21/21 24/24/24 23/23/23
f 25/25/25 21/21/21 23/23/23
f 26/26/26 25/25/25 23/23/23
f 27/27/27 26/26/26 23/23/23
f 26/26/26 27/27/27 28/28/28
f 29/29/29 26/26/26 28/28/28
f 30/30/30 29/29/29 28/28/28
f 31/31/31 30/30/30 28/28/28
g SM_PROP_fence_door_gate_1
f 34/34/34 33/33/33 32/32/32
f 35/35/35 34/34/34 32/32/32
f 35/35/35 32/32/32 36/36/36
f 36/36/36 37/37/37 35/35/35
f 40/40/40 39/39/39 38/38/38
f 41/41/41 40/40/40 38/38/38
f 41/41/41 38/38/38 42/42/42
f 42/42/42 43/43/43 41/41/41
f 46/46/46 45/45/45 44/44/44
f 46/46/46 44/44/44 47/47/47
f 46/46/46 48/48/48 45/45/45
f 46/46/46 47/47/47 49/49/49
f 46/46/46 50/50/50 48/48/48
f 46/46/46 49/49/49 50/50/50
f 53/53/53 52/52/52 51/51/51
f 53/53/53 51/51/51 54/54/54
f 53/53/53 55/55/55 52/52/52
f 53/53/53 54/54/54 56/56/56
f 53/53/53 57/57/57 55/55/55
f 53/53/53 56/56/56 57/57/57
