g Bone
v 0.03915147 0.2146363 -0.1263353
v 0.05410823 0.2058651 -0.134145
v 0.05675277 0.2050823 -0.1262893
v 0.04141669 0.2128724 -0.1341813
v 0.03785534 0.2073416 -0.135493
v 0.05167745 0.1986163 -0.1355859
v 0.04779412 0.1883249 -0.1374328
v 0.03219557 0.2005168 -0.1366854
v 0.02966409 0.2033774 -0.1263239
v 0.0303771 0.1881629 -0.139792
v 0.01792069 0.1983055 -0.1358742
v 0.01767567 0.1879938 -0.1398099
v 0.0006805217 0.1878912 -0.1390169
v 0.0005375564 0.1974131 -0.1348977
v -0.0163279 0.1877869 -0.1399443
v 0.03521149 0.2090547 -0.1263296
v 0.03785497 0.2073606 -0.1171627
v 0.01740457 0.2002741 -0.1263209
v -0.01690082 0.1980939 -0.1360119
v -0.02901128 0.1876181 -0.1399622
v 0.0004945308 0.1988448 -0.1263198
v -0.0311874 0.1999356 -0.136867
v -0.02879285 0.2028415 -0.1263245
v -0.0464412 0.1874607 -0.1377028
v -0.01648263 0.2000677 -0.1263214
v -0.01690121 0.198114 -0.1166269
v 0.0005372071 0.1974308 -0.1177389
v 0.0179203 0.1983254 -0.1167635
v 0.03219515 0.2005383 -0.1159563
v -0.03551277 0.2044612 -0.1360165
v -0.01632846 0.1878152 -0.1126731
v 0.0006800037 0.1879175 -0.1136
v 0.01767512 0.1880218 -0.1128065
v 0.03037655 0.1881908 -0.1128242
v 0.04779366 0.188348 -0.115183
v 0.05167706 0.1986355 -0.1170511
v -0.02901183 0.1876464 -0.1126553
v 0.0541079 0.2058813 -0.1185069
v -0.03118783 0.1999574 -0.1157761
v -0.04644167 0.1874843 -0.1149151
v 0.04141638 0.2128886 -0.1184857
v 0.05675277 0.2050823 -0.1263608
v -0.03551316 0.2044813 -0.1166362
v -0.0329095 0.2063795 -0.1263283
v -0.03837737 0.2087405 -0.1172958
v -0.03837701 0.2087217 -0.1353658
v -0.04935638 0.194757 -0.1163279
v -0.05120179 0.1874286 -0.126309
v -0.04874784 0.1801603 -0.1163137
v -0.04935598 0.1947363 -0.1363052
v -0.04874744 0.1801396 -0.1362891
v -0.03590418 0.210438 -0.1263325
v -0.04004307 0.2152121 -0.1263376
v -0.05172851 0.2003683 -0.1171783
v -0.05243905 0.1933998 -0.1263152
v -0.05181667 0.18144 -0.1263028
v -0.05392629 0.1731724 -0.1262943
v -0.05132942 0.172075 -0.1176317
v -0.05132907 0.1720571 -0.1349545
v -0.05172814 0.2003493 -0.1354665
v -0.0544607 0.1990323 -0.1263211
v -0.0561455 0.2063193 -0.1263287
v -0.05362383 0.2066458 -0.1187898
v -0.0417902 0.2133239 -0.1188307
v -0.05362351 0.2066302 -0.1338681
v -0.04178989 0.2133084 -0.1338406
v 0.05675277 0.2050823 -0.1262893
v 0.05410823 0.2058651 -0.134145
v 0.05167745 0.1986163 -0.1355859
v 0.0544865 0.1972679 -0.1262882
v 0.05249272 0.1883791 -0.1263079
v 0.04779412 0.1883249 -0.1374328
v 0.05137723 0.1781057 -0.1355667
v 0.03824666 0.1691335 -0.1354544
v 0.03249925 0.1758512 -0.1366604
v 0.0303771 0.1881629 -0.139792
v 0.01822612 0.1776946 -0.1358533
v 0.01767567 0.1879938 -0.1398099
v 0.03007352 0.172966 -0.1263346
v 0.01777336 0.1757397 -0.1263544
v 0.0007963908 0.1769628 -0.1264226
v 0.03574305 0.1673915 -0.1262865
v 0.04108626 0.160593 -0.1262793
v 0.03824629 0.1691525 -0.117122
v 0.03007351 0.1729661 -0.1262501
v 0.000800271 0.1783778 -0.1348783
v 0.0006805217 0.1878912 -0.1390169
v -0.01658237 0.1774827 -0.1359909
v -0.0163279 0.1877869 -0.1399443
v -0.01610865 0.1755336 -0.126296
v -0.0283629 0.1724302 -0.126293
v -0.03081037 0.1752704 -0.1368418
v -0.03494763 0.1706692 -0.1359818
v -0.02901128 0.1876181 -0.1399622
v -0.0464412 0.1874607 -0.1377028
v -0.04874744 0.1801396 -0.1362891
v -0.05132907 0.1720571 -0.1349545
v -0.01658276 0.1775028 -0.1166052
v 0.0007963854 0.1769631 -0.1261716
v -0.03874871 0.1644935 -0.1348826
v -0.03644263 0.1628174 -0.1262832
v -0.05392629 0.1731724 -0.1262943
v -0.05132942 0.172075 -0.1176317
v -0.03236569 0.1688177 -0.1262893
v -0.03494802 0.1706893 -0.1166009
v -0.03874906 0.1645113 -0.1176873
v -0.04874784 0.1801603 -0.1163137
v -0.04644167 0.1874843 -0.1149151
v -0.03081079 0.1752923 -0.1157502
v -0.02901183 0.1876464 -0.1126553
v -0.01632846 0.1878152 -0.1126731
v 0.0006800037 0.1879175 -0.1136
v 0.0007999217 0.1783956 -0.1177188
v 0.01767512 0.1880218 -0.1128065
v 0.01822573 0.1777144 -0.1167417
v 0.01777335 0.1757398 -0.1262366
v 0.03037655 0.1881908 -0.1128242
v 0.03249883 0.1758727 -0.1159302
v 0.04779366 0.188348 -0.115183
v 0.05137685 0.1781249 -0.1170278
v 0.05167706 0.1986355 -0.1170511
v 0.0544865 0.1972679 -0.1263459
v 0.05675277 0.2050823 -0.1263608
v 0.0541079 0.2058813 -0.1185069
v 0.05406472 0.1795232 -0.1262987
v 0.05624184 0.1694775 -0.1263205
v 0.05624184 0.1694776 -0.1262559
v 0.05393323 0.1691687 -0.1190537
v 0.04276588 0.1624963 -0.1190147
v 0.05393352 0.1691537 -0.1335222
v 0.04276618 0.1624812 -0.1335478
vt 0.84375 0.2218018
vt 0.8432617 0.2225342
vt 0.84375 0.2227783
vt 0.8432617 0.2219238
vt 0.8432617 0.2214355
vt 0.8432617 0.2220459
vt 0.8427734 0.2211914
vt 0.8427734 0.2205811
vt 0.84375 0.2205811
vt 0.8427734 0.2198486
vt 0.8427734 0.2193604
vt 0.8427734 0.2188721
vt 0.8427734 0.2175293
vt 0.8432617 0.2180176
vt 0.8427734 0.2161865
vt 0.84375 0.2213135
vt 0.8447266 0.2214355
vt 0.84375 0.2194824
vt 0.8427734 0.2166748
vt 0.8427734 0.21521
vt 0.84375 0.2180176
vt 0.8427734 0.2156982
vt 0.84375 0.2159424
vt 0.8427734 0.2138672
vt 0.84375 0.2167969
vt 0.8447266 0.2166748
vt 0.8447266 0.2180176
vt 0.8447266 0.2193604
vt 0.8447266 0.2205811
vt 0.8427734 0.2155762
vt 0.8452148 0.2161865
vt 0.8452148 0.2175293
vt 0.8452148 0.2188721
vt 0.8452148 0.2198486
vt 0.8447266 0.2211914
vt 0.8447266 0.2220459
vt 0.8452148 0.21521
vt 0.8447266 0.2225342
vt 0.8447266 0.2156982
vt 0.8447266 0.2138672
vt 0.8447266 0.2219238
vt 0.84375 0.2227783
vt 0.8447266 0.2155762
vt 0.84375 0.2158203
vt 0.8447266 0.2155762
vt 0.8432617 0.2155762
vt 0.8447266 0.2139893
vt 0.84375 0.213501
vt 0.8447266 0.2132568
vt 0.8427734 0.2139893
vt 0.8427734 0.2132568
vt 0.84375 0.2158203
vt 0.84375 0.2156982
vt 0.8447266 0.2141113
vt 0.84375 0.213623
vt 0.84375 0.2131348
vt 0.84375 0.2125244
vt 0.8447266 0.2126465
vt 0.8432617 0.2126465
vt 0.8432617 0.2141113
vt 0.84375 0.2138672
vt 0.84375 0.2139893
vt 0.8447266 0.2142334
vt 0.8447266 0.2154541
vt 0.8432617 0.2142334
vt 0.8432617 0.2154541
vt 0.84375 0.2227783
vt 0.8432617 0.2225342
vt 0.8432617 0.2220459
vt 0.84375 0.222168
vt 0.84375 0.2215576
vt 0.8427734 0.2211914
vt 0.8432617 0.2209473
vt 0.8432617 0.2194824
vt 0.8427734 0.2193604
vt 0.8427734 0.2198486
vt 0.8427734 0.2183838
vt 0.8427734 0.2188721
vt 0.84375 0.2191162
vt 0.84375 0.2182617
vt 0.84375 0.217041
vt 0.84375 0.2192383
vt 0.84375 0.2192383
vt 0.8447266 0.2194824
vt 0.84375 0.2191162
vt 0.8432617 0.217041
vt 0.8427734 0.2175293
vt 0.8427734 0.2156982
vt 0.8427734 0.2161865
vt 0.84375 0.2155762
vt 0.84375 0.2144775
vt 0.8427734 0.2144775
vt 0.8427734 0.2138672
vt 0.8427734 0.21521
vt 0.8427734 0.2138672
vt 0.8427734 0.2132568
vt 0.8432617 0.2126465
vt 0.8447266 0.2156982
vt 0.84375 0.217041
vt 0.8432617 0.2132568
vt 0.84375 0.2133789
vt 0.84375 0.2125244
vt 0.8447266 0.2126465
vt 0.84375 0.2139893
vt 0.8447266 0.2138672
vt 0.8447266 0.2132568
vt 0.8447266 0.2132568
vt 0.8447266 0.2138672
vt 0.8447266 0.2144775
vt 0.8452148 0.21521
vt 0.8452148 0.2161865
vt 0.8452148 0.2175293
vt 0.8447266 0.217041
vt 0.8452148 0.2188721
vt 0.8447266 0.2183838
vt 0.84375 0.2182617
vt 0.8452148 0.2198486
vt 0.8447266 0.2193604
vt 0.8447266 0.2211914
vt 0.8447266 0.2209473
vt 0.8447266 0.2220459
vt 0.84375 0.222168
vt 0.84375 0.2227783
vt 0.8447266 0.2225342
vt 0.84375 0.2211914
vt 0.84375 0.2209473
vt 0.84375 0.2209473
vt 0.8447266 0.2207031
vt 0.8447266 0.2194824
vt 0.8432617 0.2207031
vt 0.8432617 0.2194824
vn 0.04071055 0.9991704 -0.001034549
vn 0.6091476 0.5358638 -0.5846274
vn 0.8203947 0.5310336 -0.2120278
vn 0.1500697 0.8000105 -0.580915
vn -0.2101957 0.3517666 -0.9121831
vn 0.4732606 -0.005626701 -0.8809045
vn 0.4090081 -0.003659732 -0.9125234
vn -0.124406 0.4884287 -0.8636901
vn -0.4100416 0.9120662 -0.0009532018
vn 0.01526089 -0.0003559605 -0.9998835
vn -0.1044578 0.7092082 -0.6972175
vn -0.05716567 -0.00271631 -0.9983611
vn 0.003977072 -0.0009155174 -0.9999917
vn -0.001895602 0.7521576 -0.6589805
vn 0.0627815 0.001031862 -0.9980267
vn -0.7614112 0.6482689 -0.0006866404
vn -0.2102334 0.3536561 0.9114435
vn -0.1332548 0.9910813 -0.001029507
vn 0.09491214 0.7148829 -0.6927727
vn -0.01128911 -0.001345743 -0.9999354
vn -0.00531258 0.9999853 -0.001036024
vn 0.1025218 0.5232444 -0.8459933
vn 0.3297318 0.9440741 -0.0009709251
vn -0.3911145 -0.01365365 -0.9202407
vn 0.1156702 0.9932871 -0.001025885
vn 0.09488358 0.716317 0.6912938
vn -0.001922469 0.7535211 0.6574209
vn -0.1044865 0.7106513 0.6957424
vn -0.1244418 0.4902176 0.8626708
vn 0.2099269 0.3530662 -0.9117429
vn 0.06274054 0.003099941 0.9980251
vn 0.003936167 0.001156924 0.9999917
vn -0.05720629 -0.0006473087 0.9983621
vn 0.01522014 0.001715672 0.9998827
vn 0.40897 -0.001768378 0.9125462
vn 0.4732244 -0.003801264 0.8809338
vn -0.01133035 0.0007253342 0.9999356
vn 0.6091247 0.5370745 0.5835392
vn 0.102486 0.5249947 0.8449126
vn -0.3911508 -0.01174609 0.9202516
vn 0.1500458 0.8012127 0.579262
vn 0.8203865 0.5314711 0.2109605
vn 0.2098899 0.3549559 0.9110174
vn 0.733613 0.6795672 -0.0006902391
vn 0.2418666 0.3800976 0.8927634
vn 0.2419038 0.3782467 -0.8935391
vn -0.4690157 -0.02865453 0.8827248
vn -0.9988382 -0.04819042 3.009376E-05
vn -0.4893919 -0.007607557 0.8720307
vn -0.4689818 -0.03048518 -0.8826815
vn -0.4893585 -0.009415697 -0.8720319
vn 0.7784274 0.6277343 -0.0006344147
vn -0.08924975 0.9960088 -0.001034108
vn -0.508499 -0.01603583 0.8609132
vn -0.9548883 -0.296965 0.0002887764
vn -0.9767828 0.2142319 -0.0002423132
vn -0.861304 -0.5080898 0.0005095795
vn -0.6260976 -0.514028 0.586325
vn -0.6260726 -0.5152422 -0.5852849
vn -0.5084642 -0.01782045 -0.8608987
vn -0.9592409 -0.2825894 0.0002735986
vn -0.8192647 0.5734151 -0.0006114356
vn -0.6144673 0.5431885 0.5721682
vn -0.1638489 0.8065329 0.5680301
vn -0.6144449 0.5420015 -0.5733166
vn -0.1638262 0.8053541 -0.5697067
vn 0.8203947 0.5310336 -0.2120278
vn 0.6091476 0.5358638 -0.5846274
vn 0.4732606 -0.005626701 -0.8809045
vn 0.9079915 -0.2473938 -0.3381532
vn 0.9997917 -0.02041138 4.23533E-05
vn 0.4090081 -0.003659732 -0.9125234
vn 0.4938687 -0.01743265 -0.8693616
vn -0.2021651 -0.3749018 -0.904753
vn -0.1132766 -0.4948705 -0.8615518
vn 0.01526089 -0.0003559605 -0.9998835
vn -0.09091435 -0.7120133 -0.6962554
vn -0.05716567 -0.00271631 -0.9983611
vn -0.372896 -0.879699 -0.2950902
vn -0.1120659 -0.9692093 -0.2192596
vn 0.006651032 -0.9827206 -0.1849755
vn -0.7462787 -0.6656333 0.0006742027
vn -0.05425031 -0.9985268 0.001033603
vn -0.2022012 -0.3730247 0.9055204
vn -0.3729078 -0.8790854 0.2968983
vn 0.006960606 -0.7514967 -0.6597002
vn 0.003977072 -0.0009155174 -0.9999917
vn 0.1082805 -0.7120832 -0.6936952
vn 0.0627815 0.001031862 -0.9980267
vn 0.134359 -0.9909322 0.001029896
vn 0.3538571 -0.935299 0.0009769271
vn 0.115482 -0.5244733 -0.8435589
vn 0.2228775 -0.3523387 -0.9089461
vn -0.01128911 -0.001345743 -0.9999354
vn -0.3911145 -0.01365365 -0.9202407
vn -0.4893585 -0.009415697 -0.8720319
vn -0.6260726 -0.5152422 -0.5852849
vn 0.1082518 -0.7106438 0.6951741
vn 0.006643374 -0.9823354 0.1870108
vn -0.1566945 -0.8045865 -0.572789
vn -0.05166287 -0.998664 0.001034314
vn -0.861304 -0.5080898 0.0005095795
vn -0.6260976 -0.514028 0.586325
vn 0.7661291 -0.6426864 0.000680757
vn 0.222842 -0.3504527 0.9096836
vn -0.1567192 -0.8033972 0.5744493
vn -0.4893919 -0.007607557 0.8720307
vn -0.3911508 -0.01174609 0.9202516
vn 0.1154487 -0.5227225 0.8446495
vn -0.01133035 0.0007253342 0.9999356
vn 0.06274054 0.003099941 0.9980251
vn 0.003936167 0.001156924 0.9999917
vn 0.006933488 -0.7501277 0.6612567
vn -0.05720629 -0.0006473087 0.9983621
vn -0.09094197 -0.7105688 0.6977259
vn -0.112074 -0.9687529 0.2212626
vn 0.01522014 0.001715672 0.9998827
vn -0.1133117 -0.4930831 0.8625715
vn 0.40897 -0.001768378 0.9125462
vn 0.4938316 -0.01563101 0.8694171
vn 0.4732244 -0.003801264 0.8809338
vn 0.9079774 -0.2466919 0.3387035
vn 0.8203865 0.5314711 0.2109605
vn 0.6091247 0.5370745 0.5835392
vn 0.9755769 0.2196583 -0.0002073962
vn 0.8679935 -0.4286751 0.2506488
vn 0.8680045 -0.4291922 -0.2497244
vn 0.6201186 -0.4258932 0.6588383
vn 0.07748019 -0.7433953 0.6643495
vn 0.6201451 -0.4272573 -0.6579296
vn 0.07750658 -0.7447706 -0.6628042
g Bone_0
f 3/3/3 2/2/2 1/1/1
f 2/2/2 4/4/4 1/1/1
f 5/5/5 4/4/4 2/2/2
f 1/1/1 4/4/4 5/5/5
f 6/6/6 5/5/5 2/2/2
f 6/6/6 7/7/7 5/5/5
f 7/7/7 8/8/8 5/5/5
f 5/5/5 8/8/8 9/9/9
f 10/10/10 8/8/8 7/7/7
f 11/11/11 8/8/8 10/10/10
f 9/9/9 8/8/8 11/11/11
f 12/12/12 11/11/11 10/10/10
f 11/11/11 12/12/12 13/13/13
f 14/14/14 11/11/11 13/13/13
f 13/13/13 15/15/15 14/14/14
f 16/16/16 1/1/1 5/5/5
f 16/16/16 5/5/5 9/9/9
f 1/1/1 16/16/16 17/17/17
f 17/17/17 16/16/16 9/9/9
f 18/18/18 9/9/9 11/11/11
f 18/18/18 11/11/11 14/14/14
f 15/15/15 19/19/19 14/14/14
f 15/15/15 20/20/20 19/19/19
f 21/21/21 18/18/18 14/14/14
f 14/14/14 19/19/19 21/21/21
f 20/20/20 22/22/22 19/19/19
f 19/19/19 22/22/22 23/23/23
f 24/24/24 22/22/22 20/20/20
f 19/19/19 25/25/25 21/21/21
f 25/25/25 19/19/19 23/23/23
f 25/25/25 26/26/26 21/21/21
f 26/26/26 25/25/25 23/23/23
f 18/18/18 21/21/21 27/27/27
f 26/26/26 27/27/27 21/21/21
f 9/9/9 18/18/18 28/28/28
f 28/28/28 18/18/18 27/27/27
f 29/29/29 17/17/17 9/9/9
f 29/29/29 9/9/9 28/28/28
f 30/30/30 22/22/22 24/24/24
f 23/23/23 22/22/22 30/30/30
f 26/26/26 31/31/31 27/27/27
f 31/31/31 32/32/32 27/27/27
f 28/28/28 27/27/27 32/32/32
f 33/33/33 28/28/28 32/32/32
f 28/28/28 33/33/33 34/34/34
f 29/29/29 28/28/28 34/34/34
f 29/29/29 34/34/34 35/35/35
f 29/29/29 35/35/35 17/17/17
f 35/35/35 36/36/36 17/17/17
f 37/37/37 31/31/31 26/26/26
f 17/17/17 36/36/36 38/38/38
f 39/39/39 37/37/37 26/26/26
f 39/39/39 26/26/26 23/23/23
f 39/39/39 40/40/40 37/37/37
f 41/41/41 17/17/17 38/38/38
f 41/41/41 1/1/1 17/17/17
f 41/41/41 38/38/38 1/1/1
f 38/38/38 42/42/42 1/1/1
f 39/39/39 23/23/23 43/43/43
f 39/39/39 43/43/43 40/40/40
f 23/23/23 44/44/44 43/43/43
f 43/43/43 44/44/44 45/45/45
f 44/44/44 23/23/23 30/30/30
f 44/44/44 30/30/30 46/46/46
f 43/43/43 47/47/47 40/40/40
f 43/43/43 45/45/45 47/47/47
f 40/40/40 47/47/47 48/48/48
f 40/40/40 48/48/48 49/49/49
f 46/46/46 30/30/30 50/50/50
f 50/50/50 30/30/30 24/24/24
f 50/50/50 24/24/24 48/48/48
f 48/48/48 24/24/24 51/51/51
f 52/52/52 44/44/44 46/46/46
f 44/44/44 52/52/52 45/45/45
f 52/52/52 46/46/46 53/53/53
f 45/45/45 52/52/52 53/53/53
f 45/45/45 54/54/54 47/47/47
f 47/47/47 55/55/55 48/48/48
f 47/47/47 54/54/54 55/55/55
f 55/55/55 50/50/50 48/48/48
f 48/48/48 56/56/56 49/49/49
f 56/56/56 48/48/48 51/51/51
f 49/49/49 56/56/56 57/57/57
f 56/56/56 51/51/51 57/57/57
f 58/58/58 49/49/49 57/57/57
f 51/51/51 59/59/59 57/57/57
f 60/60/60 50/50/50 55/55/55
f 60/60/60 46/46/46 50/50/50
f 54/54/54 61/61/61 55/55/55
f 61/61/61 60/60/60 55/55/55
f 62/62/62 61/61/61 54/54/54
f 61/61/61 62/62/62 60/60/60
f 63/63/63 54/54/54 45/45/45
f 63/63/63 62/62/62 54/54/54
f 64/64/64 63/63/63 45/45/45
f 64/64/64 45/45/45 53/53/53
f 64/64/64 53/53/53 63/63/63
f 53/53/53 62/62/62 63/63/63
f 62/62/62 65/65/65 60/60/60
f 60/60/60 65/65/65 46/46/46
f 62/62/62 53/53/53 65/65/65
f 65/65/65 66/66/66 46/46/46
f 53/53/53 66/66/66 65/65/65
f 46/46/46 66/66/66 53/53/53
f 69/69/69 68/68/68 67/67/67
f 70/70/70 69/69/69 67/67/67
f 70/70/70 71/71/71 69/69/69
f 71/71/71 72/72/72 69/69/69
f 73/73/73 72/72/72 71/71/71
f 73/73/73 74/74/74 72/72/72
f 74/74/74 75/75/75 72/72/72
f 75/75/75 76/76/76 72/72/72
f 76/76/76 75/75/75 77/77/77
f 78/78/78 76/76/76 77/77/77
f 79/79/79 75/75/75 74/74/74
f 77/77/77 75/75/75 79/79/79
f 80/80/80 77/77/77 79/79/79
f 77/77/77 80/80/80 81/81/81
f 82/82/82 79/79/79 74/74/74
f 82/82/82 74/74/74 83/83/83
f 84/84/84 82/82/82 83/83/83
f 85/85/85 82/82/82 84/84/84
f 78/78/78 77/77/77 86/86/86
f 86/86/86 77/77/77 81/81/81
f 87/87/87 78/78/78 86/86/86
f 86/86/86 81/81/81 88/88/88
f 86/86/86 88/88/88 87/87/87
f 88/88/88 89/89/89 87/87/87
f 81/81/81 90/90/90 88/88/88
f 90/90/90 91/91/91 88/88/88
f 88/88/88 92/92/92 89/89/89
f 91/91/91 92/92/92 88/88/88
f 93/93/93 92/92/92 91/91/91
f 92/92/92 94/94/94 89/89/89
f 95/95/95 94/94/94 92/92/92
f 95/95/95 92/92/92 93/93/93
f 96/96/96 95/95/95 93/93/93
f 96/96/96 93/93/93 97/97/97
f 91/91/91 90/90/90 98/98/98
f 90/90/90 99/99/99 98/98/98
f 93/93/93 100/100/100 97/97/97
f 97/97/97 100/100/100 101/101/101
f 101/101/101 100/100/100 93/93/93
f 102/102/102 97/97/97 101/101/101
f 103/103/103 102/102/102 101/101/101
f 104/104/104 93/93/93 91/91/91
f 104/104/104 101/101/101 93/93/93
f 105/105/105 104/104/104 91/91/91
f 101/101/101 104/104/104 105/105/105
f 106/106/106 103/103/103 101/101/101
f 106/106/106 101/101/101 105/105/105
f 106/106/106 105/105/105 103/103/103
f 105/105/105 107/107/107 103/103/103
f 108/108/108 107/107/107 105/105/105
f 109/109/109 105/105/105 91/91/91
f 109/109/109 108/108/108 105/105/105
f 109/109/109 91/91/91 98/98/98
f 110/110/110 108/108/108 109/109/109
f 110/110/110 109/109/109 111/111/111
f 109/109/109 98/98/98 111/111/111
f 111/111/111 98/98/98 112/112/112
f 98/98/98 113/113/113 112/112/112
f 114/114/114 112/112/112 113/113/113
f 99/99/99 113/113/113 98/98/98
f 115/115/115 114/114/114 113/113/113
f 115/115/115 113/113/113 99/99/99
f 116/116/116 115/115/115 99/99/99
f 117/117/117 114/114/114 115/115/115
f 115/115/115 116/116/116 85/85/85
f 118/118/118 117/117/117 115/115/115
f 118/118/118 115/115/115 85/85/85
f 117/117/117 118/118/118 119/119/119
f 118/118/118 85/85/85 84/84/84
f 118/118/118 84/84/84 119/119/119
f 84/84/84 120/120/120 119/119/119
f 119/119/119 120/120/120 71/71/71
f 119/119/119 71/71/71 121/121/121
f 71/71/71 122/122/122 121/121/121
f 121/121/121 122/122/122 123/123/123
f 124/124/124 121/121/121 123/123/123
f 120/120/120 125/125/125 71/71/71
f 125/125/125 73/73/73 71/71/71
f 126/126/126 125/125/125 120/120/120
f 125/125/125 127/127/127 73/73/73
f 128/128/128 126/126/126 120/120/120
f 128/128/128 120/120/120 84/84/84
f 83/83/83 126/126/126 128/128/128
f 129/129/129 128/128/128 84/84/84
f 129/129/129 83/83/83 128/128/128
f 129/129/129 84/84/84 83/83/83
f 127/127/127 130/130/130 73/73/73
f 127/127/127 83/83/83 130/130/130
f 73/73/73 130/130/130 74/74/74
f 83/83/83 131/131/131 130/130/130
f 74/74/74 131/131/131 83/83/83
f 130/130/130 131/131/131 74/74/74
