g Ghe
v -0.0328125 -0.2956129 -0.1078748
v -0.2479122 -0.2956129 -0.1073791
v -0.2474142 -0.2956129 0.1085211
v -0.03231438 -0.2956129 0.1080255
v -0.04374748 -0.1175866 0.1850751
v -0.3239742 -0.1175866 0.1857214
v -0.3073552 -0.1009291 0.1690253
v -0.04378601 -0.1009291 0.1684173
v -0.3239742 -0.1175866 0.1857214
v -0.3248273 -0.1175866 -0.1842248
v -0.3081316 -0.1009291 -0.1676056
v -0.3073552 -0.1009291 0.1690253
v -0.04456222 -0.1009291 -0.1682135
v -0.3081316 -0.1009291 -0.1676056
v -0.3248273 -0.1175866 -0.1842248
v -0.04460068 -0.1175866 -0.1848712
v -0.3248273 -0.1849738 -0.1842248
v -0.3248273 -0.1175866 -0.1842248
v -0.3239742 -0.1175866 0.1857214
v -0.3239742 -0.1849738 0.1857214
v 0.0446006 -0.1849738 0.1848712
v -0.3239742 -0.1849738 0.1857214
v -0.3239742 -0.1175866 0.1857214
v -0.04374748 -0.1175866 0.1850751
v -0.04374748 0.09762458 0.1850751
v 0.0446006 0.09762459 0.1848712
v -0.04379326 0.1910526 0.1652521
v 0.04455497 0.1910526 0.1650482
v -0.3073552 -0.1009291 0.1690253
v -0.3081316 -0.1009291 -0.1676056
v -0.04456222 -0.1009291 -0.1682135
v -0.04378601 -0.1009291 0.1684173
v -0.3248273 -0.1175866 -0.1842248
v -0.3248273 -0.1849738 -0.1842248
v 0.04374756 -0.1849738 -0.1850751
v -0.04460068 -0.1175866 -0.1848712
v -0.04460068 0.09762458 -0.1848712
v 0.04374756 0.09762459 -0.1850751
v 0.04379326 0.1910526 -0.1652521
v -0.04455497 0.1910526 -0.1650482
v -0.04374748 -0.1175866 0.1850751
v -0.04378601 -0.1009291 0.1684173
v -0.04374748 0.09762458 0.1850751
v -0.04460068 0.09762458 -0.1848712
v -0.04456222 -0.1009291 -0.1682135
v -0.04460068 -0.1175866 -0.1848712
v -0.04379326 0.1910526 0.1652521
v -0.04455497 0.1910526 -0.1650482
v -0.04391815 0.2594467 0.1110931
v -0.04443008 0.2594467 -0.1108887
v -0.04408874 0.2844805 0.0371112
v -0.04425949 0.2844805 -0.03690735
v -0.04391815 0.2594467 0.1110931
v 0.04455497 0.1910526 0.1650482
v -0.04379326 0.1910526 0.1652521
v 0.04443001 0.2594467 0.1108893
v -0.04408874 0.2844805 0.0371112
v 0.04425957 0.2844805 0.03690735
v 0.04408867 0.2844805 -0.0371112
v -0.04425949 0.2844805 -0.03690735
v -0.04443008 0.2594467 -0.1108887
v 0.04391815 0.2594467 -0.1110925
v -0.04455497 0.1910526 -0.1650482
v 0.04379326 0.1910526 -0.1652521
v 0.04374756 0.09762459 -0.1850751
v 0.04374756 -0.1849738 -0.1850751
v 0.0446006 -0.1849738 0.1848712
v 0.0446006 0.09762459 0.1848712
v 0.04379326 0.1910526 -0.1652521
v 0.04455497 0.1910526 0.1650482
v 0.04391815 0.2594467 -0.1110925
v 0.04443001 0.2594467 0.1108893
v 0.04425957 0.2844805 0.03690735
v 0.04408867 0.2844805 -0.0371112
v -0.0328125 -0.1849738 -0.1078748
v -0.0328125 -0.2956129 -0.1078748
v -0.03231438 -0.2956129 0.1080255
v -0.03231438 -0.1849738 0.1080255
v -0.03231438 -0.1849738 0.1080255
v -0.03231438 -0.2956129 0.1080255
v -0.2474142 -0.2956129 0.1085211
v -0.2474142 -0.1849738 0.1085211
v -0.2474142 -0.1849738 0.1085211
v -0.2474142 -0.2956129 0.1085211
v -0.2479122 -0.2956129 -0.1073791
v -0.2479122 -0.1849738 -0.1073791
v -0.2479122 -0.1849738 -0.1073791
v -0.2479122 -0.2956129 -0.1073791
v -0.0328125 -0.2956129 -0.1078748
v -0.0328125 -0.1849738 -0.1078748
v 0.04374756 -0.1849738 -0.1850751
v -0.0328125 -0.1849738 -0.1078748
v -0.03231438 -0.1849738 0.1080255
v 0.0446006 -0.1849738 0.1848712
v -0.3248273 -0.1849738 -0.1842248
v -0.2474142 -0.1849738 0.1085211
v -0.2479122 -0.1849738 -0.1073791
v -0.3239742 -0.1849738 0.1857214
vt 0.01554871 0.1060181
vt 0.01554871 0.1053467
vt 0.01678467 0.1053467
vt 0.01678467 0.1060181
vt 0.01722717 0.1068115
vt 0.01722717 0.105896
vt 0.01713562 0.1060181
vt 0.01713562 0.1069336
vt 0.01722717 0.105896
vt 0.0151062 0.105896
vt 0.01519775 0.1060181
vt 0.01713562 0.1060181
vt 0.01519775 0.1069336
vt 0.01519775 0.1060181
vt 0.0151062 0.105896
vt 0.0151062 0.1068115
vt 0.0151062 0.1055908
vt 0.0151062 0.105896
vt 0.01722717 0.105896
vt 0.01722717 0.1055908
vt 0.01722717 0.1068115
vt 0.01722717 0.1055908
vt 0.01722717 0.105896
vt 0.01722717 0.1068115
vt 0.01722717 0.1078491
vt 0.01722717 0.1081543
vt 0.01712036 0.1082764
vt 0.01712036 0.1085815
vt 0.01713562 0.1060181
vt 0.01519775 0.1060181
vt 0.01519775 0.1069336
vt 0.01713562 0.1069336
vt 0.0151062 0.105896
vt 0.0151062 0.1055908
vt 0.0151062 0.1068115
vt 0.0151062 0.1068115
vt 0.0151062 0.1078491
vt 0.0151062 0.1081543
vt 0.01522064 0.1085815
vt 0.01522064 0.1082764
vt 0.01722717 0.1068115
vt 0.01713562 0.1069336
vt 0.01722717 0.1078491
vt 0.0151062 0.1078491
vt 0.01519775 0.1069336
vt 0.0151062 0.1068115
vt 0.01712036 0.1082764
vt 0.01522064 0.1082764
vt 0.01681519 0.1085815
vt 0.01553345 0.1085815
vt 0.01638794 0.1087036
vt 0.01596069 0.1087036
vt 0.01681519 0.1085815
vt 0.01712036 0.1085815
vt 0.01712036 0.1082764
vt 0.01681519 0.1088867
vt 0.01638794 0.1087036
vt 0.01638794 0.1090088
vt 0.01596069 0.1090088
vt 0.01596069 0.1087036
vt 0.01553345 0.1085815
vt 0.01553345 0.1088867
vt 0.01522064 0.1082764
vt 0.01522064 0.1085815
vt 0.0151062 0.1081543
vt 0.0151062 0.1068115
vt 0.01722717 0.1068115
vt 0.01722717 0.1081543
vt 0.01522064 0.1085815
vt 0.01712036 0.1085815
vt 0.01553345 0.1088867
vt 0.01681519 0.1088867
vt 0.01638794 0.1090088
vt 0.01596069 0.1090088
vt 0.01554871 0.1065674
vt 0.01554871 0.1060181
vt 0.01678467 0.1060181
vt 0.01678467 0.1065674
vt 0.01678467 0.1065674
vt 0.01678467 0.1060181
vt 0.01678467 0.1053467
vt 0.01678467 0.105835
vt 0.01678467 0.105835
vt 0.01678467 0.1053467
vt 0.01554871 0.1053467
vt 0.01554871 0.105835
vt 0.01554871 0.105835
vt 0.01554871 0.1053467
vt 0.01554871 0.1060181
vt 0.01554871 0.1065674
vt 0.0151062 0.1068115
vt 0.01554871 0.1065674
vt 0.01678467 0.1065674
vt 0.01722717 0.1068115
vt 0.0151062 0.1055908
vt 0.01678467 0.105835
vt 0.01554871 0.105835
vt 0.01722717 0.1055908
vn 0 -1 0
vn 0 -1 0
vn 0 -1 0
vn 0 -1 0
vn 0.001630783 0.7070313 0.7070313
vn 0.001630783 0.7070313 0.7070313
vn 0.001630783 0.7070313 0.7070313
vn 0.001630783 0.7070313 0.7070313
vn -0.7070313 0.7070313 0.001630783
vn -0.7070313 0.7070313 0.001630783
vn -0.7070313 0.7070313 0.001630783
vn -0.7070313 0.7070313 0.001630783
vn -0.001630783 0.7070313 -0.7070313
vn -0.001630783 0.7070313 -0.7070313
vn -0.001630783 0.7070313 -0.7070313
vn -0.001630783 0.7070313 -0.7070313
vn -1 0 0.002305984
vn -1 0 0.002305984
vn -1 0 0.002305984
vn -1 0 0.002305984
vn 0.002307892 -1.788139E-07 1
vn 0.002305984 -4.768372E-07 1
vn 0.002305984 -4.768372E-07 1
vn 0.002307892 -2.384186E-07 1
vn 0.002304077 0.05780029 0.9985352
vn 0.002304077 0.05780029 0.9985352
vn 0.002256393 0.2075195 0.9780273
vn 0.002256393 0.2075195 0.9780273
vn 0 1 0
vn 0 1 0
vn 0 1 0
vn 0 1 0
vn -0.002305984 4.768372E-07 -1
vn -0.002305984 4.768372E-07 -1
vn -0.002307892 1.788139E-07 -1
vn -0.002305984 2.384186E-07 -1
vn -0.002304077 0.05780029 -0.9985352
vn -0.002304077 0.05780029 -0.9985352
vn -0.002256393 0.2075195 -0.9780273
vn -0.002256393 0.2075195 -0.9780273
vn -1 0 0.002313614
vn -1 0 0.002313614
vn -1 0 0.002313614
vn -1 0 0.002307892
vn -1 0 0.002307892
vn -1 0 0.002307892
vn -1 -3.576279E-07 0.002305984
vn -1 -3.576279E-07 0.002305984
vn -1 0 0.002305984
vn -1 0 0.002305984
vn -1 0 0.002305984
vn -1 0 0.002305984
vn 0.001358986 0.8081055 0.5893555
vn 0.00180912 0.6206055 0.7841797
vn 0.00180912 0.6206055 0.7841797
vn 0.001358986 0.8081055 0.5893555
vn 0.0003848076 0.9858398 0.166748
vn 0.0003848076 0.9858398 0.166748
vn -0.0003848076 0.9858398 -0.166748
vn -0.0003848076 0.9858398 -0.166748
vn -0.001358986 0.8081055 -0.5893555
vn -0.001358986 0.8081055 -0.5893555
vn -0.00180912 0.6206055 -0.7841797
vn -0.00180912 0.6206055 -0.7841797
vn 1 0 -0.002305984
vn 1 0 -0.002305984
vn 1 0 -0.002305984
vn 1 0 -0.002305984
vn 1 -1.788139E-07 -0.002305984
vn 1 -1.788139E-07 -0.002305984
vn 1 4.768372E-07 -0.002305984
vn 1 4.768372E-07 -0.002305984
vn 1 -1.430511E-06 -0.002305984
vn 1 -1.430511E-06 -0.002305984
vn 1 0 -0.002307892
vn 1 0 -0.002307892
vn 1 0 -0.002307892
vn 1 0 -0.002307892
vn 0.002304077 0 1
vn 0.002304077 0 1
vn 0.002304077 0 1
vn 0.002304077 0 1
vn -1 0 0.002305984
vn -1 0 0.002305984
vn -1 0 0.002305984
vn -1 0 0.002305984
vn -0.002304077 0 -1
vn -0.002304077 0 -1
vn -0.002304077 0 -1
vn -0.002304077 0 -1
vn 0 -1 0
vn 0 -1 0
vn 0 -1 0
vn 0 -1 0
vn 0 -1 0
vn 0 -1 -1.192093E-07
vn 0 -1 0
vn 0 -1 -1.192093E-07
g Ghe_0
f 3/3/3 2/2/2 1/1/1
f 4/4/4 3/3/3 1/1/1
f 7/7/7 6/6/6 5/5/5
f 8/8/8 7/7/7 5/5/5
f 11/11/11 10/10/10 9/9/9
f 12/12/12 11/11/11 9/9/9
f 15/15/15 14/14/14 13/13/13
f 16/16/16 15/15/15 13/13/13
f 19/19/19 18/18/18 17/17/17
f 20/20/20 19/19/19 17/17/17
f 23/23/23 22/22/22 21/21/21
f 24/24/24 23/23/23 21/21/21
f 24/24/24 21/21/21 25/25/25
f 21/21/21 26/26/26 25/25/25
f 25/25/25 26/26/26 27/27/27
f 26/26/26 28/28/28 27/27/27
f 31/31/31 30/30/30 29/29/29
f 32/32/32 31/31/31 29/29/29
f 35/35/35 34/34/34 33/33/33
f 36/36/36 35/35/35 33/33/33
f 35/35/35 36/36/36 37/37/37
f 38/38/38 35/35/35 37/37/37
f 39/39/39 38/38/38 37/37/37
f 40/40/40 39/39/39 37/37/37
f 43/43/43 42/42/42 41/41/41
f 42/42/42 43/43/43 44/44/44
f 45/45/45 42/42/42 44/44/44
f 44/44/44 46/46/46 45/45/45
f 43/43/43 47/47/47 44/44/44
f 47/47/47 48/48/48 44/44/44
f 47/47/47 49/49/49 48/48/48
f 49/49/49 50/50/50 48/48/48
f 49/49/49 51/51/51 50/50/50
f 51/51/51 52/52/52 50/50/50
f 55/55/55 54/54/54 53/53/53
f 54/54/54 56/56/56 53/53/53
f 53/53/53 56/56/56 57/57/57
f 56/56/56 58/58/58 57/57/57
f 58/58/58 59/59/59 57/57/57
f 59/59/59 60/60/60 57/57/57
f 60/60/60 59/59/59 61/61/61
f 59/59/59 62/62/62 61/61/61
f 61/61/61 62/62/62 63/63/63
f 62/62/62 64/64/64 63/63/63
f 67/67/67 66/66/66 65/65/65
f 68/68/68 67/67/67 65/65/65
f 68/68/68 65/65/65 69/69/69
f 70/70/70 68/68/68 69/69/69
f 70/70/70 69/69/69 71/71/71
f 72/72/72 70/70/70 71/71/71
f 72/72/72 71/71/71 73/73/73
f 71/71/71 74/74/74 73/73/73
f 77/77/77 76/76/76 75/75/75
f 78/78/78 77/77/77 75/75/75
f 81/81/81 80/80/80 79/79/79
f 82/82/82 81/81/81 79/79/79
f 85/85/85 84/84/84 83/83/83
f 86/86/86 85/85/85 83/83/83
f 89/89/89 88/88/88 87/87/87
f 90/90/90 89/89/89 87/87/87
f 93/93/93 92/92/92 91/91/91
f 94/94/94 93/93/93 91/91/91
f 91/91/91 92/92/92 95/95/95
f 96/96/96 93/93/93 94/94/94
f 92/92/92 97/97/97 95/95/95
f 98/98/98 96/96/96 94/94/94
f 95/95/95 97/97/97 98/98/98
f 97/97/97 96/96/96 98/98/98
