g L_Mong_vuot_wol
v 0.4292329 0.2319331 -0.01728158
v 0.4464072 0.2002378 -0.02192995
v 0.4210728 0.2086949 -0.01755508
v 0.4030026 0.2432061 -0.01309347
v 0.3974077 0.2111372 -0.01374646
v 0.369573 0.2447455 -0.007705925
v 0.3674907 0.2122755 -0.008924086
v 0.3297361 0.2104473 -0.002825653
v 0.298107 0.2389619 0.003846912
v 0.4288523 0.2319023 -0.02122175
v 0.4464072 0.2002378 -0.02192995
v 0.4292329 0.2319331 -0.01728158
v 0.402622 0.2431753 -0.01703365
v 0.4030026 0.2432061 -0.01309347
v 0.3691923 0.2447146 -0.0116461
v 0.369573 0.2447455 -0.007705925
v 0.298107 0.2389619 0.003846912
v 0.2977263 0.2389311 -9.326458E-05
v 0.4210118 0.20869 -0.0181859
v 0.4464072 0.2002378 -0.02192995
v 0.4288523 0.2319023 -0.02122175
v 0.3973468 0.2111323 -0.01437728
v 0.402622 0.2431753 -0.01703365
v 0.3674298 0.2122706 -0.009554903
v 0.3691923 0.2447146 -0.0116461
v 0.2977263 0.2389311 -9.326458E-05
v 0.3296752 0.2104424 -0.003456471
v 0.4210728 0.2086949 -0.01755508
v 0.4464072 0.2002378 -0.02192995
v 0.4210118 0.20869 -0.0181859
v 0.3974077 0.2111372 -0.01374646
v 0.3973468 0.2111323 -0.01437728
v 0.3674907 0.2122755 -0.008924086
v 0.3674298 0.2122706 -0.009554903
v 0.3296752 0.2104424 -0.003456471
v 0.3297361 0.2104473 -0.002825653
v 0.3296752 0.2104424 -0.003456471
v 0.2977263 0.2389311 -9.326458E-05
v 0.298107 0.2389619 0.003846912
v 0.3297361 0.2104473 -0.002825653
v 0.418317 0.2310497 0.07870948
v 0.4354947 0.1993547 0.08222633
v 0.4108774 0.2078699 0.07427087
v 0.3932041 0.2424132 0.07028056
v 0.3882537 0.2103964 0.0666143
v 0.3615619 0.2440972 0.05955667
v 0.3599802 0.2116677 0.05703019
v 0.3246604 0.2100366 0.04503116
v 0.2947792 0.2386926 0.03684991
v 0.4190974 0.2311129 0.07486912
v 0.4354947 0.1993547 0.08222633
v 0.418317 0.2310497 0.07870948
v 0.3939845 0.2424763 0.06644019
v 0.3932041 0.2424132 0.07028056
v 0.3623423 0.2441603 0.0557163
v 0.3615619 0.2440972 0.05955667
v 0.2947792 0.2386926 0.03684991
v 0.2955596 0.2387557 0.03300954
v 0.4110023 0.20788 0.07365604
v 0.4354947 0.1993547 0.08222633
v 0.4190974 0.2311129 0.07486912
v 0.3883787 0.2104065 0.06599947
v 0.3939845 0.2424763 0.06644019
v 0.3601052 0.2116778 0.05641536
v 0.3623423 0.2441603 0.0557163
v 0.2955596 0.2387557 0.03300954
v 0.3247854 0.2100467 0.04441633
v 0.4108774 0.2078699 0.07427087
v 0.4354947 0.1993547 0.08222633
v 0.4110023 0.20788 0.07365604
v 0.3882537 0.2103964 0.0666143
v 0.3883787 0.2104065 0.06599947
v 0.3599802 0.2116677 0.05703019
v 0.3601052 0.2116778 0.05641536
v 0.3247854 0.2100467 0.04441633
v 0.3246604 0.2100366 0.04503116
v 0.3247854 0.2100467 0.04441633
v 0.2955596 0.2387557 0.03300954
v 0.2947792 0.2386926 0.03684991
v 0.3246604 0.2100366 0.04503116
v 0.454291 0.233961 0.03159893
v 0.472351 0.2023374 0.03104401
v 0.4462769 0.2107347 0.02919391
v 0.4264483 0.2451035 0.02938812
v 0.4210649 0.2130517 0.02718567
v 0.3898293 0.2463848 0.02657536
v 0.3881546 0.2139477 0.02467187
v 0.3454792 0.2117214 0.02152466
v 0.3088159 0.2398285 0.02061963
v 0.4544957 0.2339775 0.02763694
v 0.472351 0.2023374 0.03104401
v 0.454291 0.233961 0.03159893
v 0.426653 0.2451201 0.02542613
v 0.4264483 0.2451035 0.02938812
v 0.390034 0.2464013 0.02261337
v 0.3898293 0.2463848 0.02657536
v 0.3088159 0.2398285 0.02061963
v 0.3090206 0.2398451 0.01665764
v 0.4463097 0.2107373 0.02855959
v 0.472351 0.2023374 0.03104401
v 0.4544957 0.2339775 0.02763694
v 0.4210977 0.2130543 0.02655136
v 0.426653 0.2451201 0.02542613
v 0.3881873 0.2139504 0.02403755
v 0.390034 0.2464013 0.02261337
v 0.3090206 0.2398451 0.01665764
v 0.3455119 0.211724 0.02089035
v 0.4462769 0.2107347 0.02919391
v 0.472351 0.2023374 0.03104401
v 0.4463097 0.2107373 0.02855959
v 0.4210649 0.2130517 0.02718567
v 0.4210977 0.2130543 0.02655136
v 0.3881546 0.2139477 0.02467187
v 0.3881873 0.2139504 0.02403755
v 0.3455119 0.211724 0.02089035
v 0.3454792 0.2117214 0.02152466
v 0.3455119 0.211724 0.02089035
v 0.3090206 0.2398451 0.01665764
v 0.3088159 0.2398285 0.02061963
v 0.3454792 0.2117214 0.02152466
vt 0.342041 0.5966797
vt 0.342041 0.5961914
vt 0.342041 0.5966797
vt 0.342041 0.597168
vt 0.342041 0.597168
vt 0.342041 0.5976563
vt 0.342041 0.5981445
vt 0.342041 0.5986328
vt 0.342041 0.5991211
vt 0.342041 0.5966797
vt 0.342041 0.5961914
vt 0.342041 0.5966797
vt 0.342041 0.597168
vt 0.342041 0.597168
vt 0.342041 0.5976563
vt 0.342041 0.5976563
vt 0.342041 0.5991211
vt 0.342041 0.5991211
vt 0.342041 0.5966797
vt 0.342041 0.5961914
vt 0.342041 0.5966797
vt 0.342041 0.597168
vt 0.342041 0.597168
vt 0.342041 0.5981445
vt 0.342041 0.5976563
vt 0.342041 0.5991211
vt 0.342041 0.5986328
vt 0.342041 0.5966797
vt 0.342041 0.5961914
vt 0.342041 0.5966797
vt 0.342041 0.597168
vt 0.342041 0.597168
vt 0.342041 0.5981445
vt 0.342041 0.5981445
vt 0.342041 0.5986328
vt 0.342041 0.5986328
vt 0.342041 0.5986328
vt 0.342041 0.5991211
vt 0.342041 0.5991211
vt 0.342041 0.5986328
vt 0.3444824 0.5981445
vt 0.3447266 0.5976563
vt 0.3442383 0.5976563
vt 0.3439941 0.5976563
vt 0.34375 0.5976563
vt 0.3432617 0.5976563
vt 0.3432617 0.5976563
vt 0.3425293 0.5976563
vt 0.3417969 0.5981445
vt 0.3444824 0.5976563
vt 0.3447266 0.5976563
vt 0.3444824 0.5981445
vt 0.3439941 0.5976563
vt 0.3439941 0.5976563
vt 0.3432617 0.5976563
vt 0.3432617 0.5976563
vt 0.3417969 0.5981445
vt 0.3417969 0.5976563
vt 0.3442383 0.5976563
vt 0.3447266 0.5976563
vt 0.3444824 0.5976563
vt 0.34375 0.5976563
vt 0.3439941 0.5976563
vt 0.3432617 0.5976563
vt 0.3432617 0.5976563
vt 0.3417969 0.5976563
vt 0.3425293 0.5976563
vt 0.3442383 0.5976563
vt 0.3447266 0.5976563
vt 0.3442383 0.5976563
vt 0.34375 0.5976563
vt 0.34375 0.5976563
vt 0.3432617 0.5976563
vt 0.3432617 0.5976563
vt 0.3425293 0.5976563
vt 0.3425293 0.5976563
vt 0.3425293 0.5976563
vt 0.3417969 0.5976563
vt 0.3417969 0.5981445
vt 0.3425293 0.5976563
vt 0.3427734 0.5961914
vt 0.3427734 0.5957031
vt 0.3427734 0.5961914
vt 0.3427734 0.5966797
vt 0.3427734 0.597168
vt 0.3427734 0.5976563
vt 0.3427734 0.5976563
vt 0.3427734 0.5986328
vt 0.3427734 0.5991211
vt 0.3427734 0.5961914
vt 0.3427734 0.5957031
vt 0.3427734 0.5961914
vt 0.3427734 0.5966797
vt 0.3427734 0.5966797
vt 0.3427734 0.5976563
vt 0.3427734 0.5976563
vt 0.3427734 0.5991211
vt 0.3427734 0.5991211
vt 0.3427734 0.5961914
vt 0.3427734 0.5957031
vt 0.3427734 0.5961914
vt 0.3427734 0.597168
vt 0.3427734 0.5966797
vt 0.3427734 0.5976563
vt 0.3427734 0.5976563
vt 0.3427734 0.5991211
vt 0.3427734 0.5986328
vt 0.3427734 0.5961914
vt 0.3427734 0.5957031
vt 0.3427734 0.5961914
vt 0.3427734 0.597168
vt 0.3427734 0.597168
vt 0.3427734 0.5976563
vt 0.3427734 0.5976563
vt 0.3427734 0.5986328
vt 0.3427734 0.5986328
vt 0.3427734 0.5986328
vt 0.3427734 0.5991211
vt 0.3427734 0.5991211
vt 0.3427734 0.5986328
vn 0.1449291 -0.05452214 0.9879386
vn 0.1490493 -0.0639532 0.9867595
vn 0.1453982 -0.0555943 0.98781
vn 0.1518214 -0.04930155 0.9871776
vn 0.1519514 -0.0492507 0.9871602
vn 0.1604123 -0.04813657 0.9858757
vn 0.1606459 -0.04819542 0.9858347
vn 0.1626588 -0.04870256 0.9854797
vn 0.1626588 -0.04870255 0.9854797
vn 0.6089976 0.7905026 -0.06502053
vn 0.8703642 0.4845027 -0.08788203
vn 0.5934801 0.8023309 -0.06361368
vn 0.2125651 0.9767407 -0.02817407
vn 0.1988146 0.9796687 -0.02686848
vn -0.03882921 0.9992375 -0.004065612
vn -0.04320421 0.9990596 -0.003641737
vn -0.08066394 0.9967414 -6.211376E-06
vn -0.08066394 0.9967414 -6.211375E-06
vn -0.1725599 -0.06316759 -0.9829715
vn -0.1687529 -0.07157071 -0.9830565
vn -0.1730288 -0.06212976 -0.9829552
vn -0.1661212 -0.05689005 -0.984463
vn -0.1663033 -0.05696072 -0.9844281
vn -0.1574686 -0.05590577 -0.9859402
vn -0.1577258 -0.05583958 -0.9859029
vn -0.1554536 -0.05642408 -0.9862304
vn -0.1554536 -0.05642407 -0.9862304
vn -0.1723386 -0.9847373 0.02432601
vn -0.3106047 -0.9498042 0.03737403
vn -0.180182 -0.9833137 0.02507055
vn -0.06315146 -0.9979073 0.01389395
vn -0.06570412 -0.997739 0.01413963
vn 0.01296906 -0.9998944 0.006558786
vn 0.009568147 -0.9999305 0.006887122
vn 0.048861 -0.9988009 0.0030881
vn 0.048861 -0.9988009 0.0030881
vn -0.6598283 -0.7481859 0.06960194
vn -0.6598283 -0.748186 0.06960194
vn -0.6598283 -0.7481859 0.06960194
vn -0.6598283 -0.748186 0.06960194
vn -0.3340698 -0.06502945 0.9403024
vn -0.3298465 -0.07434325 0.9411027
vn -0.3336235 -0.06601788 0.940392
vn -0.3279067 -0.0599722 0.9428046
vn -0.3277141 -0.05989532 0.9428765
vn -0.3197772 -0.05891883 0.9456591
vn -0.3195201 -0.05898918 0.9457416
vn -0.3175776 -0.05952052 0.9463625
vn -0.3175775 -0.05952052 0.9463625
vn 0.5784379 0.8051742 0.1307826
vn 0.8559173 0.4840661 0.1818946
vn 0.6087501 0.7815218 0.1365539
vn 0.1916984 0.9799078 0.05506769
vn 0.2187323 0.97391 0.06046204
vn -0.04481934 0.9989682 0.007318675
vn -0.03603044 0.9993092 0.009110535
vn -0.08066343 0.9967414 -2.903454E-06
vn -0.08066342 0.9967414 -2.903454E-06
vn 0.3078845 -0.05072773 -0.9500704
vn 0.3113577 -0.0589642 -0.9484617
vn 0.3074377 -0.0496722 -0.9502708
vn 0.3140171 -0.0444787 -0.9483749
vn 0.313921 -0.04451761 -0.9484049
vn 0.3222919 -0.04343431 -0.9456434
vn 0.3220794 -0.0433785 -0.9457183
vn 0.3242299 -0.04394351 -0.9449571
vn 0.3242299 -0.04394351 -0.9449571
vn -0.1812815 -0.9820035 -0.05297223
vn -0.3035105 -0.9496905 -0.07726172
vn -0.1660418 -0.9848541 -0.0499244
vn -0.06693345 -0.9973062 -0.03000246
vn -0.06198733 -0.9976554 -0.02900367
vn 0.007089467 -0.9998621 -0.01501816
vn 0.01387399 -0.9998108 -0.01364055
vn 0.04836619 -0.9988077 -0.006624604
vn 0.04836618 -0.9988077 -0.006624604
vn -0.6634036 -0.7337036 -0.1468833
vn -0.6634036 -0.7337036 -0.1468833
vn -0.6634036 -0.7337036 -0.1468833
vn -0.6634036 -0.7337036 -0.1468833
vn -0.09405479 -0.06197865 0.9936359
vn -0.09322757 -0.07066871 0.9931337
vn -0.09397142 -0.06285816 0.9935886
vn -0.08443712 -0.05688805 0.9948035
vn -0.08409765 -0.0567807 0.9948384
vn -0.0726837 -0.05583516 0.9957908
vn -0.07230282 -0.05590637 0.9958146
vn -0.0692912 -0.05646896 0.995997
vn -0.0692912 -0.05646897 0.995997
vn 0.5802835 0.8137301 0.0333828
vn 0.8677677 0.4947518 0.04690322
vn 0.5877981 0.8083035 0.03374837
vn 0.1853757 0.9825724 0.01367993
vn 0.1910115 0.9814885 0.01396673
vn -0.04566304 0.9989552 0.001811669
vn -0.04420151 0.9990208 0.001887383
vn -0.08066323 0.9967415 -4.194952E-06
vn -0.08066323 0.9967415 -4.194953E-06
vn 0.06791263 -0.05653946 -0.9960879
vn 0.07380763 -0.06550439 -0.9951189
vn 0.06723569 -0.05551034 -0.9961917
vn 0.07138862 -0.04993372 -0.9961979
vn 0.07121509 -0.05003486 -0.9962053
vn 0.07609078 -0.04869163 -0.9959114
vn 0.07600718 -0.04864288 -0.9959201
vn 0.0767749 -0.04909052 -0.9958392
vn 0.0767749 -0.04909052 -0.9958392
vn -0.1684754 -0.9856223 -0.0128295
vn -0.3052153 -0.9520797 -0.01969096
vn -0.1647424 -0.9862556 -0.01264097
vn -0.05518398 -0.9984514 -0.00704529
vn -0.05412428 -0.9985097 -0.006990198
vn 0.01726559 -0.9998455 -0.003302268
vn 0.01841555 -0.9998252 -0.003243031
vn 0.05220785 -0.9986351 -0.001499789
vn 0.05220785 -0.9986351 -0.001499789
vn -0.6075072 -0.7935554 -0.03471201
vn -0.6075072 -0.7935554 -0.03471201
vn -0.6075071 -0.7935554 -0.03471201
vn -0.6075072 -0.7935554 -0.03471201
g L_Mong_vuot_wol_0
f 3/3/3 2/2/2 1/1/1
f 3/3/3 1/1/1 4/4/4
f 5/5/5 3/3/3 4/4/4
f 5/5/5 4/4/4 6/6/6
f 7/7/7 5/5/5 6/6/6
f 7/7/7 6/6/6 8/8/8
f 6/6/6 9/9/9 8/8/8
f 12/12/12 11/11/11 10/10/10
f 12/12/12 10/10/10 13/13/13
f 14/14/14 12/12/12 13/13/13
f 14/14/14 13/13/13 15/15/15
f 16/16/16 14/14/14 15/15/15
f 16/16/16 15/15/15 17/17/17
f 15/15/15 18/18/18 17/17/17
f 21/21/21 20/20/20 19/19/19
f 21/21/21 19/19/19 22/22/22
f 23/23/23 21/21/21 22/22/22
f 23/23/23 22/22/22 24/24/24
f 25/25/25 23/23/23 24/24/24
f 25/25/25 24/24/24 26/26/26
f 24/24/24 27/27/27 26/26/26
f 30/30/30 29/29/29 28/28/28
f 30/30/30 28/28/28 31/31/31
f 32/32/32 30/30/30 31/31/31
f 32/32/32 31/31/31 33/33/33
f 34/34/34 32/32/32 33/33/33
f 34/34/34 33/33/33 35/35/35
f 33/33/33 36/36/36 35/35/35
f 39/39/39 38/38/38 37/37/37
f 40/40/40 39/39/39 37/37/37
f 43/43/43 42/42/42 41/41/41
f 43/43/43 41/41/41 44/44/44
f 45/45/45 43/43/43 44/44/44
f 45/45/45 44/44/44 46/46/46
f 47/47/47 45/45/45 46/46/46
f 47/47/47 46/46/46 48/48/48
f 46/46/46 49/49/49 48/48/48
f 52/52/52 51/51/51 50/50/50
f 52/52/52 50/50/50 53/53/53
f 54/54/54 52/52/52 53/53/53
f 54/54/54 53/53/53 55/55/55
f 56/56/56 54/54/54 55/55/55
f 56/56/56 55/55/55 57/57/57
f 55/55/55 58/58/58 57/57/57
f 61/61/61 60/60/60 59/59/59
f 61/61/61 59/59/59 62/62/62
f 63/63/63 61/61/61 62/62/62
f 63/63/63 62/62/62 64/64/64
f 65/65/65 63/63/63 64/64/64
f 65/65/65 64/64/64 66/66/66
f 64/64/64 67/67/67 66/66/66
f 70/70/70 69/69/69 68/68/68
f 70/70/70 68/68/68 71/71/71
f 72/72/72 70/70/70 71/71/71
f 72/72/72 71/71/71 73/73/73
f 74/74/74 72/72/72 73/73/73
f 74/74/74 73/73/73 75/75/75
f 73/73/73 76/76/76 75/75/75
f 79/79/79 78/78/78 77/77/77
f 80/80/80 79/79/79 77/77/77
f 83/83/83 82/82/82 81/81/81
f 83/83/83 81/81/81 84/84/84
f 85/85/85 83/83/83 84/84/84
f 85/85/85 84/84/84 86/86/86
f 87/87/87 85/85/85 86/86/86
f 87/87/87 86/86/86 88/88/88
f 86/86/86 89/89/89 88/88/88
f 92/92/92 91/91/91 90/90/90
f 92/92/92 90/90/90 93/93/93
f 94/94/94 92/92/92 93/93/93
f 94/94/94 93/93/93 95/95/95
f 96/96/96 94/94/94 95/95/95
f 96/96/96 95/95/95 97/97/97
f 95/95/95 98/98/98 97/97/97
f 101/101/101 100/100/100 99/99/99
f 101/101/101 99/99/99 102/102/102
f 103/103/103 101/101/101 102/102/102
f 103/103/103 102/102/102 104/104/104
f 105/105/105 103/103/103 104/104/104
f 105/105/105 104/104/104 106/106/106
f 104/104/104 107/107/107 106/106/106
f 110/110/110 109/109/109 108/108/108
f 110/110/110 108/108/108 111/111/111
f 112/112/112 110/110/110 111/111/111
f 112/112/112 111/111/111 113/113/113
f 114/114/114 112/112/112 113/113/113
f 114/114/114 113/113/113 115/115/115
f 113/113/113 116/116/116 115/115/115
f 119/119/119 118/118/118 117/117/117
f 120/120/120 119/119/119 117/117/117
