g Led_1
v -0.0310022 0.5231001 -0.05369797
v -0.0310022 0.1684821 -0.05369797
v -1.220703E-06 0.1684821 -0.06200485
v -0.04082641 0.156067 -0.07071457
v -0.04082641 0 -0.07071457
v -1.220703E-06 0 -0.08165451
v -0.05369751 0.1684821 -0.03100265
v -0.0310022 0.1684821 -0.05369797
v -0.0310022 0.5231001 -0.05369797
v -0.05369751 0.5231001 -0.03100265
v -0.06200561 0.1684821 1.525879E-07
v -0.06200561 0.5231001 0
v -0.05369751 0.1684821 0.03100235
v -0.05369751 0.5231001 0.03100235
v -0.0310022 0.1684821 0.05369766
v -0.02684936 0.6048533 -0.04650375
v -0.04650513 0.6048533 -0.02684921
v -1.220703E-06 0.5231001 -0.06200485
v -1.220703E-06 0.1684821 -0.06200485
v 0.0310022 0.1684821 -0.05369797
v 0.0310022 0.5231001 -0.05369797
v 0.05369751 0.5231001 -0.03100265
v -1.220703E-06 0.6048533 -0.05369797
v 0.02684936 0.6048533 -0.04650375
v 0.04650268 0.6048533 -0.02684921
v 0.06200561 0.5231001 1.525879E-07
v -0.01550171 0.6275487 -0.02684921
v -0.02684936 0.6275487 -0.01550156
v -1.220703E-06 0.6275487 -0.03100265
v -3.051758E-07 0.6358558 -1.525879E-07
v -0.0310022 0.6275487 1.525879E-07
v 0.01550171 0.6275487 -0.02684921
v 0.02684936 0.6275487 -0.01550156
v 0.0310022 0.6275487 1.525879E-07
v 0.05369751 0.6048533 1.525879E-07
v 0.04650268 0.6048533 0.02684891
v 0.05369751 0.5231001 0.03100235
v 0.02684936 0.6048533 0.04650345
v 0.0310022 0.5231001 0.05369766
v 0.02684936 0.6275487 0.01550125
v -1.220703E-06 0.5231001 0.062005
v -1.220703E-06 0.1684821 0.06200515
v -0.0310022 0.5231001 0.05369766
v -1.220703E-06 0.6048533 0.05369766
v 0.01550171 0.6275487 0.02684891
v -1.220703E-06 0.6275487 0.03100235
v -0.02684936 0.6048533 0.04650345
v -0.01550171 0.6275487 0.02684891
v -0.02684936 0.6275487 0.01550125
v -0.04650513 0.6048533 0.02684891
v -0.05369751 0.6048533 1.525879E-07
v 0.0310022 0.5231001 0.05369766
v 0.0310022 0.1684821 0.05369766
v -1.220703E-06 0.1684821 0.06200515
v 0.05369751 0.1684821 0.03100235
v 0.05369751 0.5231001 0.03100235
v 0.06200561 0.1684821 1.525879E-07
v 0.06200561 0.5231001 1.525879E-07
v 0.05369751 0.1684821 -0.03100265
v 0.05369751 0.5231001 -0.03100265
v 0.0310022 0.1684821 -0.05369797
v -0.08165405 0 1.525879E-07
v -0.07071411 0 -0.04082687
v -0.07071411 0.156067 -0.04082687
v -0.04082641 0 -0.07071457
v -0.04082641 0.156067 -0.07071457
v -0.08165405 0.156067 1.525879E-07
v -0.07071411 0 0.04082657
v -0.07071411 0.156067 0.04082657
v -0.04082641 0.156067 0.07071427
v -0.04082641 0 0.07071427
v -1.220703E-06 0.156067 0.08165421
v -1.220703E-06 0 0.08165421
v 0.04082641 0.156067 0.07071427
v 0.04082641 0 0.07071427
v -1.220703E-06 0.156067 -0.08165451
v 0.07071411 0.156067 0.04082657
v 0.07071411 0 0.04082657
v 0.08165405 0 1.525879E-07
v -1.220703E-06 0 -0.08165451
v 0.04082641 0 -0.07071457
v 0.04082641 0.156067 -0.07071457
v 0.07071411 0 -0.04082687
v 0.08165405 0.156067 1.525879E-07
v 0.07071411 0.156067 -0.04082687
v -0.05657104 0.1684821 -0.03266159
v -0.07071411 0.156067 -0.04082687
v -0.03266235 0.1684821 -0.0565715
v -0.06532349 0.1684821 1.525879E-07
v -0.08165405 0.156067 1.525879E-07
v -0.07071411 0.156067 0.04082657
v -0.05657104 0.1684821 0.03266129
v -0.04082641 0.156067 0.07071427
v -0.03266235 0.1684821 0.0565712
v -1.220703E-06 0.156067 0.08165421
v -1.220703E-06 0.1684821 0.06532302
v -1.220703E-06 0.156067 -0.08165451
v -1.220703E-06 0.1684821 -0.06532333
v 0.03265991 0.1684821 -0.0565715
v 0.04082641 0.156067 -0.07071457
v 0.05657104 0.1684821 -0.03266159
v 0.07071411 0.156067 -0.04082687
v 0.04082641 0.156067 0.07071427
v 0.03265991 0.1684821 0.0565712
v 0.05657104 0.1684821 0.03266129
v 0.07071411 0.156067 0.04082657
v 0.06532349 0.1684821 1.525879E-07
v 0.08165405 0.156067 1.525879E-07
vt 0.01722717 0.2634277
vt 0.01722717 0.2634277
vt 0.01689148 0.2629395
vt 0.01419067 0.2336426
vt 0.01419067 0.2336426
vt 0.01428223 0.2337646
vt 0.01722717 0.2641602
vt 0.01722717 0.2634277
vt 0.01722717 0.2634277
vt 0.01722717 0.2641602
vt 0.01689148 0.2646484
vt 0.01689148 0.2646484
vt 0.01629639 0.2651367
vt 0.01629639 0.2651367
vt 0.015625 0.2651367
vt 0.01705933 0.2634277
vt 0.01705933 0.2641602
vt 0.01689148 0.2629395
vt 0.01689148 0.2629395
vt 0.01629639 0.2624512
vt 0.01629639 0.2624512
vt 0.015625 0.2624512
vt 0.01676941 0.2629395
vt 0.01625061 0.2626953
vt 0.01567078 0.2626953
vt 0.01503754 0.2629395
vt 0.01660156 0.2636719
vt 0.01660156 0.263916
vt 0.01643372 0.2634277
vt 0.01596069 0.263916
vt 0.01643372 0.2641602
vt 0.01612854 0.2631836
vt 0.01579285 0.2631836
vt 0.01550293 0.2634277
vt 0.01515961 0.2629395
vt 0.01486969 0.2634277
vt 0.01470184 0.2634277
vt 0.01486969 0.2641602
vt 0.01470184 0.2641602
vt 0.01533508 0.2636719
vt 0.01503754 0.2646484
vt 0.01503754 0.2646484
vt 0.015625 0.2651367
vt 0.01515961 0.2646484
vt 0.01533508 0.263916
vt 0.01550293 0.2641602
vt 0.01567078 0.2648926
vt 0.01579285 0.2644043
vt 0.01612854 0.2644043
vt 0.01625061 0.2648926
vt 0.01676941 0.2646484
vt 0.01470184 0.2641602
vt 0.01470184 0.2641602
vt 0.01503754 0.2646484
vt 0.01470184 0.2634277
vt 0.01470184 0.2634277
vt 0.01503754 0.2629395
vt 0.01503754 0.2629395
vt 0.015625 0.2624512
vt 0.015625 0.2624512
vt 0.01629639 0.2624512
vt 0.01428223 0.2332764
vt 0.01419067 0.2333984
vt 0.01419067 0.2333984
vt 0.01419067 0.2336426
vt 0.01419067 0.2336426
vt 0.01428223 0.2332764
vt 0.01445007 0.2331543
vt 0.01445007 0.2331543
vt 0.01463318 0.2331543
vt 0.01463318 0.2331543
vt 0.01480103 0.2332764
vt 0.01480103 0.2332764
vt 0.01489258 0.2333984
vt 0.01489258 0.2333984
vt 0.01428223 0.2337646
vt 0.01489258 0.2336426
vt 0.01489258 0.2336426
vt 0.01480103 0.2337646
vt 0.01428223 0.2337646
vt 0.01445007 0.2338867
vt 0.01445007 0.2338867
vt 0.01463318 0.2338867
vt 0.01480103 0.2337646
vt 0.01463318 0.2338867
vt 0.01425934 0.2335205
vt 0.01419067 0.2333984
vt 0.01425934 0.2336426
vt 0.01433563 0.2333984
vt 0.01428223 0.2332764
vt 0.01445007 0.2331543
vt 0.01446533 0.2332764
vt 0.01463318 0.2331543
vt 0.01461792 0.2332764
vt 0.01480103 0.2332764
vt 0.01474762 0.2333984
vt 0.01428223 0.2337646
vt 0.01433563 0.2337646
vt 0.01446533 0.2338867
vt 0.01445007 0.2338867
vt 0.01461792 0.2338867
vt 0.01463318 0.2338867
vt 0.01489258 0.2333984
vt 0.01482391 0.2335205
vt 0.01482391 0.2336426
vt 0.01489258 0.2336426
vt 0.01474762 0.2337646
vt 0.01480103 0.2337646
vn -0.5 0.01876831 -0.8657227
vn -0.5 0 -0.8662109
vn 0 0 -1
vn -0.3901367 0.6235352 -0.6772461
vn -0.5 0 -0.8662109
vn 0 0 -1
vn -0.8662109 0 -0.5
vn -0.5 0 -0.8662109
vn -0.5 0.01876831 -0.8657227
vn -0.8662109 0.01855469 -0.4992676
vn -1 0 0
vn -1 0.01834106 0
vn -0.8662109 0 0.5
vn -0.8662109 0.01855469 0.4992676
vn -0.5 1.788139E-07 0.8662109
vn -0.480957 0.2536621 -0.8393555
vn -0.8374023 0.2556152 -0.4829102
vn 0.0006961823 0.01855469 -1
vn 0 0 -1
vn 0.5 0 -0.8662109
vn 0.5004883 0.01855469 -0.8657227
vn 0.8662109 0.01855469 -0.4992676
vn 0.007026672 0.2556152 -0.9667969
vn 0.487793 0.2473145 -0.8374023
vn 0.8374023 0.2556152 -0.4829102
vn 1 0.01834106 0
vn -0.2600098 0.8354492 -0.4838867
vn -0.467041 0.8354492 -0.2890625
vn 0.01686096 0.8354492 -0.5493164
vn 4.768372E-07 1 -4.768372E-07
vn -0.5629883 0.8266602 0
vn 0.2663574 0.8461914 -0.4611816
vn 0.467041 0.8354492 -0.2890625
vn 0.5493164 0.8354492 -0.01687622
vn 0.9663086 0.2578125 -0.003284454
vn 0.8374023 0.263916 0.4790039
vn 0.8662109 0.01855469 0.4992676
vn 0.4846191 0.2452393 0.8393555
vn 0.5 0.01876831 0.8657227
vn 0.4875488 0.8266602 0.2814941
vn -0.0006961823 0.01855469 1
vn -1.192093E-07 2.384186E-07 1
vn -0.5004883 0.01855469 0.8657227
vn -0.0005531311 0.2556152 0.9667969
vn 0.2663574 0.8461914 0.4611816
vn 0.01686096 0.8354492 0.5493164
vn -0.4838867 0.2556152 0.8369141
vn -0.2600098 0.8354492 0.4838867
vn -0.467041 0.8354492 0.2890625
vn -0.8374023 0.2556152 0.4829102
vn -0.9638672 0.2661133 0
vn 0.5 0.01876831 0.8657227
vn 0.5 0 0.8662109
vn -1.192093E-07 2.384186E-07 1
vn 0.8662109 0 0.5
vn 0.8662109 0.01855469 0.4992676
vn 1 0 0
vn 1 0.01834106 0
vn 0.8662109 0 -0.5
vn 0.8662109 0.01855469 -0.4992676
vn 0.5 0 -0.8662109
vn -1 0 0
vn -0.8662109 0 -0.5
vn -0.7626953 0.4726563 -0.4414063
vn -0.5 0 -0.8662109
vn -0.3901367 0.6235352 -0.6772461
vn -0.9814453 0.1906738 0
vn -0.8662109 0 0.5
vn -0.8139648 0.3391113 0.4711914
vn -0.4111328 0.5668945 0.7138672
vn -0.5 0 0.8662109
vn 0.0008502007 0.6499023 0.7602539
vn 0 0 1
vn 0.3911133 0.6225586 0.6777344
vn 0.5 0 0.8662109
vn 0 0.6489258 -0.7607422
vn 0.7626953 0.4726563 0.4414063
vn 0.8662109 0 0.5
vn 1 0 0
vn 0 0 -1
vn 0.5 0 -0.8662109
vn 0.4111328 0.5668945 -0.7138672
vn 0.8662109 0 -0.5
vn 0.9814453 0.1906738 0
vn 0.8139648 0.3391113 -0.4711914
vn -0.5170898 0.7958984 -0.314209
vn -0.7626953 0.4726563 -0.4414063
vn -0.2910156 0.7958984 -0.5307617
vn -0.6049805 0.7958984 1.192093E-07
vn -0.9814453 0.1906738 0
vn -0.8139648 0.3391113 0.4711914
vn -0.5170898 0.7958984 0.314209
vn -0.4111328 0.5668945 0.7138672
vn -0.2910156 0.7958984 0.5307617
vn 0.0008502007 0.6499023 0.7602539
vn 0.01351166 0.7958984 0.6049805
vn 0 0.6489258 -0.7607422
vn 0 0.7958984 -0.6049805
vn 0.2907715 0.7958984 -0.5307617
vn 0.4111328 0.5668945 -0.7138672
vn 0.5170898 0.7958984 -0.314209
vn 0.8139648 0.3391113 -0.4711914
vn 0.3911133 0.6225586 0.6777344
vn 0.3024902 0.7958984 0.5239258
vn 0.5170898 0.7958984 0.314209
vn 0.7626953 0.4726563 0.4414063
vn 0.6049805 0.7958984 -2.980232E-07
vn 0.9814453 0.1906738 0
g Led_1_0
f 3/3/3 2/2/2 1/1/1
f 6/6/6 5/5/5 4/4/4
f 9/9/9 8/8/8 7/7/7
f 7/7/7 10/10/10 9/9/9
f 10/10/10 7/7/7 11/11/11
f 11/11/11 12/12/12 10/10/10
f 12/12/12 11/11/11 13/13/13
f 13/13/13 14/14/14 12/12/12
f 14/14/14 13/13/13 15/15/15
f 16/16/16 9/9/9 10/10/10
f 17/17/17 10/10/10 12/12/12
f 10/10/10 17/17/17 16/16/16
f 18/18/18 9/9/9 16/16/16
f 9/9/9 18/18/18 19/19/19
f 20/20/20 19/19/19 18/18/18
f 18/18/18 21/21/21 20/20/20
f 20/20/20 21/21/21 22/22/22
f 21/21/21 18/18/18 23/23/23
f 16/16/16 23/23/23 18/18/18
f 22/22/22 21/21/21 24/24/24
f 23/23/23 24/24/24 21/21/21
f 24/24/24 25/25/25 22/22/22
f 26/26/26 22/22/22 25/25/25
f 23/23/23 16/16/16 27/27/27
f 16/16/16 17/17/17 28/28/28
f 28/28/28 27/27/27 16/16/16
f 27/27/27 29/29/29 23/23/23
f 24/24/24 23/23/23 29/29/29
f 27/27/27 28/28/28 30/30/30
f 27/27/27 30/30/30 29/29/29
f 28/28/28 31/31/31 30/30/30
f 31/31/31 28/28/28 17/17/17
f 29/29/29 30/30/30 32/32/32
f 29/29/29 32/32/32 24/24/24
f 32/32/32 30/30/30 33/33/33
f 24/24/24 32/32/32 33/33/33
f 33/33/33 25/25/25 24/24/24
f 25/25/25 33/33/33 34/34/34
f 33/33/33 30/30/30 34/34/34
f 25/25/25 35/35/35 26/26/26
f 34/34/34 35/35/35 25/25/25
f 26/26/26 35/35/35 36/36/36
f 36/36/36 37/37/37 26/26/26
f 37/37/37 36/36/36 38/38/38
f 38/38/38 39/39/39 37/37/37
f 35/35/35 34/34/34 40/40/40
f 40/40/40 36/36/36 35/35/35
f 30/30/30 40/40/40 34/34/34
f 38/38/38 36/36/36 40/40/40
f 41/41/41 39/39/39 38/38/38
f 39/39/39 41/41/41 42/42/42
f 15/15/15 42/42/42 41/41/41
f 41/41/41 43/43/43 15/15/15
f 15/15/15 43/43/43 14/14/14
f 43/43/43 41/41/41 44/44/44
f 38/38/38 44/44/44 41/41/41
f 40/40/40 45/45/45 38/38/38
f 30/30/30 45/45/45 40/40/40
f 38/38/38 45/45/45 46/46/46
f 46/46/46 44/44/44 38/38/38
f 30/30/30 46/46/46 45/45/45
f 14/14/14 43/43/43 47/47/47
f 44/44/44 47/47/47 43/43/43
f 44/44/44 46/46/46 48/48/48
f 30/30/30 48/48/48 46/46/46
f 48/48/48 47/47/47 44/44/44
f 49/49/49 48/48/48 30/30/30
f 47/47/47 48/48/48 49/49/49
f 31/31/31 49/49/49 30/30/30
f 47/47/47 50/50/50 14/14/14
f 49/49/49 50/50/50 47/47/47
f 50/50/50 49/49/49 31/31/31
f 12/12/12 14/14/14 50/50/50
f 31/31/31 51/51/51 50/50/50
f 50/50/50 51/51/51 12/12/12
f 17/17/17 51/51/51 31/31/31
f 12/12/12 51/51/51 17/17/17
f 54/54/54 53/53/53 52/52/52
f 52/52/52 53/53/53 55/55/55
f 55/55/55 56/56/56 52/52/52
f 56/56/56 55/55/55 57/57/57
f 57/57/57 58/58/58 56/56/56
f 58/58/58 57/57/57 59/59/59
f 59/59/59 60/60/60 58/58/58
f 60/60/60 59/59/59 61/61/61
f 64/64/64 63/63/63 62/62/62
f 65/65/65 63/63/63 64/64/64
f 64/64/64 66/66/66 65/65/65
f 62/62/62 67/67/67 64/64/64
f 67/67/67 62/62/62 68/68/68
f 64/64/64 67/67/67 69/69/69
f 68/68/68 69/69/69 67/67/67
f 69/69/69 70/70/70 64/64/64
f 70/70/70 69/69/69 68/68/68
f 70/70/70 66/66/66 64/64/64
f 68/68/68 71/71/71 70/70/70
f 72/72/72 70/70/70 71/71/71
f 70/70/70 72/72/72 66/66/66
f 71/71/71 73/73/73 72/72/72
f 74/74/74 72/72/72 73/73/73
f 73/73/73 75/75/75 74/74/74
f 72/72/72 76/76/76 66/66/66
f 72/72/72 74/74/74 76/76/76
f 77/77/77 74/74/74 75/75/75
f 75/75/75 78/78/78 77/77/77
f 77/77/77 78/78/78 79/79/79
f 66/66/66 76/76/76 80/80/80
f 81/81/81 80/80/80 76/76/76
f 74/74/74 82/82/82 76/76/76
f 76/76/76 82/82/82 81/81/81
f 74/74/74 77/77/77 82/82/82
f 83/83/83 81/81/81 82/82/82
f 84/84/84 79/79/79 83/83/83
f 79/79/79 84/84/84 77/77/77
f 77/77/77 85/85/85 82/82/82
f 82/82/82 85/85/85 83/83/83
f 77/77/77 84/84/84 85/85/85
f 83/83/83 85/85/85 84/84/84
f 66/66/66 87/87/87 86/86/86
f 86/86/86 88/88/88 66/66/66
f 89/89/89 86/86/86 87/87/87
f 87/87/87 90/90/90 89/89/89
f 89/89/89 90/90/90 91/91/91
f 91/91/91 92/92/92 89/89/89
f 92/92/92 91/91/91 93/93/93
f 93/93/93 94/94/94 92/92/92
f 94/94/94 93/93/93 95/95/95
f 95/95/95 96/96/96 94/94/94
f 97/97/97 66/66/66 88/88/88
f 88/88/88 98/98/98 97/97/97
f 97/97/97 98/98/98 99/99/99
f 99/99/99 100/100/100 97/97/97
f 100/100/100 99/99/99 101/101/101
f 101/101/101 102/102/102 100/100/100
f 96/96/96 95/95/95 103/103/103
f 103/103/103 104/104/104 96/96/96
f 105/105/105 104/104/104 103/103/103
f 103/103/103 106/106/106 105/105/105
f 102/102/102 101/101/101 107/107/107
f 107/107/107 105/105/105 106/106/106
f 107/107/107 108/108/108 102/102/102
f 106/106/106 108/108/108 107/107/107
