g Tail_Dog_m
v 0.02276981 0.1546882 0.3361037
v 0.03220137 0.1319184 0.3361037
v 0.02468083 0.1319184 0.3586507
v 0.01745198 0.1493703 0.3586507
v 9.320663E-13 0.1641197 0.3361037
v 0.01745198 0.1144664 0.3586507
v 0.02276981 0.1091485 0.3361037
v 0 0.1565992 0.3586507
v -0.02276981 0.1546882 0.3361037
v 9.805417E-11 0.1072376 0.3586507
v 9.320663E-13 0.09971701 0.3361037
v -0.01745198 0.1493703 0.3586507
v -0.03220137 0.1319184 0.3361037
v -0.01745198 0.1144664 0.3586507
v -0.02276981 0.1091485 0.3361037
v -0.02468082 0.1319184 0.3586507
v 0.006449115 0.1319184 0.3658624
v 0.004560213 0.1273582 0.3658624
v 0 0.1319184 0.3658624
v 0.004560211 0.1364786 0.3658624
v 3.347778E-10 0.1254693 0.3658624
v 0 0.1383675 0.3658624
v -0.00456021 0.1273582 0.3658624
v -0.00456021 0.1364786 0.3658624
v -0.006449111 0.1319184 0.3658624
v 0.03124395 0.1319184 0.2927427
v 0.03220137 0.1319184 0.3361037
v 0.02276981 0.1546882 0.3361037
v 0.02209281 0.1540112 0.2927427
v 9.320663E-13 0.1641197 0.3361037
v 0.02209281 0.1098255 0.2927427
v 0.02276981 0.1091485 0.3361037
v 2.63216E-11 0.1631623 0.2927427
v -0.02276981 0.1546882 0.3361037
v 2.63216E-11 0.1006744 0.2927427
v 9.320663E-13 0.09971701 0.3361037
v -0.02209281 0.1540112 0.2927427
v -0.03220137 0.1319184 0.3361037
v -0.02209281 0.1098255 0.2927427
v -0.02276981 0.1091485 0.3361037
v -0.03124395 0.1319184 0.2927427
v 0.03018818 0.1319184 0.2449275
v 0.02134627 0.1105721 0.2449275
v 0.02134627 0.1532646 0.2449275
v 5.43193E-11 0.1017302 0.2449275
v 5.43193E-11 0.1621065 0.2449275
v -0.02134627 0.1532646 0.2449275
v -0.02134627 0.1105721 0.2449275
v -0.03018818 0.1319184 0.2449275
v 0.02725145 0.1319184 0.1936351
v 0.01926968 0.1126487 0.1936351
v 0.01926968 0.151188 0.1936351
v 6.483394E-11 0.1046669 0.1936351
v 6.483394E-11 0.1591698 0.1936351
v -0.01926968 0.151188 0.1936351
v -0.01926968 0.1126487 0.1936351
v -0.02725145 0.1319184 0.1936351
v 0.01876448 0.1131539 0.1811562
v 0.02653698 0.1319184 0.1811562
v 0.01876448 0.1506828 0.1811562
v 6.739201E-11 0.1053814 0.1811562
v 6.739201E-11 0.1584553 0.1811562
v -0.01876448 0.1506828 0.1811562
v -0.02653698 0.1319184 0.1811562
v -0.01876448 0.1131539 0.1811562
v 0.0257796 0.1319184 0.1712184
v 0.01822893 0.1136894 0.1712184
v 0.01822892 0.1501473 0.1712184
v 7.786623E-11 0.157698 0.1712184
v 7.786623E-11 0.1061388 0.1712184
v -0.01822893 0.1501473 0.1712184
v -0.01822893 0.1136894 0.1712184
v -0.0257796 0.1319184 0.1712184
v 0.01582161 0.1160967 0.1265477
v 0.02237514 0.1319184 0.1265477
v 0.01582161 0.14774 0.1265477
v 1.24948E-10 0.1095432 0.1265477
v 1.24948E-10 0.1542935 0.1265477
v -0.01582161 0.14774 0.1265477
v -0.02237514 0.1319184 0.1265477
v -0.01582161 0.1160967 0.1265477
v 0.01374887 0.1181695 0.09122331
v 0.01944383 0.1319184 0.09122331
v 3.07758E-10 0.1319184 0.09122331
v 2.70693E-10 0.1124746 0.09122331
v 0.01374886 0.1456672 0.09122331
v -0.01374886 0.1181695 0.09122331
v 2.70693E-10 0.1513622 0.09122331
v -0.01944383 0.1319184 0.09122331
v -0.01374886 0.1456672 0.09122331
vt 0.9091797 0.2263184
vt 0.9125977 0.2227783
vt 0.9116211 0.222168
vt 0.9086914 0.2248535
vt 0.9042969 0.2263184
vt 0.9116211 0.2183838
vt 0.9125977 0.2178955
vt 0.9047852 0.2248535
vt 0.9008789 0.2227783
vt 0.9086914 0.2156982
vt 0.9091797 0.2143555
vt 0.9023438 0.222168
vt 0.9008789 0.2178955
vt 0.9047852 0.2156982
vt 0.9042969 0.2143555
vt 0.9023438 0.2183838
vt 0.9082031 0.2208252
vt 0.9082031 0.2198486
vt 0.9067383 0.2203369
vt 0.9072266 0.2215576
vt 0.9072266 0.2191162
vt 0.90625 0.2215576
vt 0.90625 0.2191162
vt 0.9057617 0.2208252
vt 0.9057617 0.2198486
vt 0.9125977 0.2226563
vt 0.9125977 0.2227783
vt 0.9091797 0.2263184
vt 0.9091797 0.2260742
vt 0.9042969 0.2263184
vt 0.9125977 0.2178955
vt 0.9125977 0.2178955
vt 0.9042969 0.2260742
vt 0.9008789 0.2227783
vt 0.9091797 0.2144775
vt 0.9091797 0.2143555
vt 0.9008789 0.2226563
vt 0.9008789 0.2178955
vt 0.9042969 0.2144775
vt 0.9042969 0.2143555
vt 0.9008789 0.2178955
vt 0.9125977 0.2226563
vt 0.9125977 0.2180176
vt 0.9091797 0.2259521
vt 0.9091797 0.2147217
vt 0.9042969 0.2259521
vt 0.9013672 0.2226563
vt 0.9042969 0.2147217
vt 0.9013672 0.2180176
vt 0.9121094 0.2224121
vt 0.9121094 0.2182617
vt 0.9086914 0.2253418
vt 0.9086914 0.21521
vt 0.9047852 0.2253418
vt 0.9018555 0.2224121
vt 0.9047852 0.21521
vt 0.9018555 0.2182617
vt 0.9116211 0.2182617
vt 0.9116211 0.22229
vt 0.9086914 0.2252197
vt 0.9086914 0.215332
vt 0.9047852 0.2252197
vt 0.9018555 0.22229
vt 0.9018555 0.2182617
vt 0.9047852 0.215332
vt 0.9116211 0.22229
vt 0.9116211 0.2183838
vt 0.9086914 0.2250977
vt 0.9047852 0.2250977
vt 0.9086914 0.2155762
vt 0.9018555 0.22229
vt 0.9047852 0.2155762
vt 0.9018555 0.2183838
vt 0.9111328 0.2186279
vt 0.9111328 0.2220459
vt 0.9086914 0.2244873
vt 0.9086914 0.2161865
vt 0.9052734 0.2244873
vt 0.902832 0.2220459
vt 0.902832 0.2186279
vt 0.9052734 0.2161865
vt 0.9106445 0.2188721
vt 0.9106445 0.2218018
vt 0.9067383 0.2203369
vt 0.9082031 0.2166748
vt 0.9082031 0.223877
vt 0.9052734 0.2166748
vt 0.9052734 0.223877
vt 0.9033203 0.2188721
vt 0.9033203 0.2218018
vn 0.7045488 0.7045488 0.08498193
vn 0.9963825 0 0.08498207
vn 0.8661076 0 0.4998577
vn 0.6124304 0.6124305 0.4998578
vn 0 0.9963825 0.08498182
vn 0.6124305 -0.6124305 0.4998578
vn 0.7045486 -0.7045489 0.08498209
vn -2.631733E-07 0.8661075 0.4998577
vn -0.7045489 0.7045487 0.08498193
vn 2.751357E-07 -0.8661074 0.4998579
vn 0 -0.9963825 0.08498216
vn -0.6124306 0.6124305 0.4998577
vn -0.9963825 0 0.0849821
vn -0.6124303 -0.6124305 0.499858
vn -0.7045487 -0.7045489 0.08498218
vn -0.8661075 0 0.4998578
vn 0.3541224 0 0.9351991
vn 0.2504034 -0.2504036 0.9351984
vn 0 0 1
vn 0.2504023 0.2504036 0.9351988
vn 8.247416E-07 -0.3541238 0.9351986
vn -8.591061E-07 0.3541239 0.9351985
vn -0.2504027 -0.2504035 0.9351987
vn -0.2504036 0.2504036 0.9351984
vn -0.3541227 0 0.9351989
vn 0.9997563 0 -0.02207488
vn 0.9963825 0 0.08498207
vn 0.7045488 0.7045488 0.08498193
vn 0.7069343 0.7069345 -0.02207499
vn 0 0.9963825 0.08498182
vn 0.7069342 -0.7069348 -0.02207485
vn 0.7045486 -0.7045489 0.08498209
vn 0 0.9997563 -0.0220751
vn -0.7045489 0.7045487 0.08498193
vn 0 -0.9997563 -0.02207485
vn 0 -0.9963825 0.08498216
vn -0.7069343 0.7069345 -0.02207505
vn -0.9963825 0 0.0849821
vn -0.7069343 -0.7069347 -0.02207484
vn -0.7045487 -0.7045489 0.08498218
vn -0.9997563 0 -0.02207489
vn 0.9992199 0 -0.03949254
vn 0.7065548 -0.7065555 -0.03949257
vn 0.7065551 0.7065551 -0.03949242
vn 0 -0.9992199 -0.03949264
vn 0 0.9992199 -0.03949231
vn -0.7065551 0.7065551 -0.03949241
vn -0.7065548 -0.7065555 -0.03949264
vn -0.9992199 -1.171573E-07 -0.03949254
vn 0.998365 0 -0.05716112
vn 0.7059504 -0.7059509 -0.05716133
vn 0.7059507 0.7059507 -0.05716085
vn 0 -0.998365 -0.05716136
vn 0 0.998365 -0.05716078
vn -0.7059507 0.7059507 -0.05716081
vn -0.7059504 -0.7059509 -0.05716128
vn -0.998365 0 -0.05716104
vn 0.7056003 -0.7056004 -0.0652388
vn 0.9978697 0 -0.06523886
vn 0.7056006 0.7056003 -0.06523845
vn 0 -0.9978697 -0.0652383
vn 0 0.9978697 -0.06523839
vn -0.7056006 0.7056003 -0.06523851
vn -0.9978697 0 -0.06523874
vn -0.7056003 -0.7056005 -0.06523856
vn 0.9971084 0 -0.07599188
vn 0.7050619 -0.7050624 -0.07599205
vn 0.7050623 0.7050621 -0.07599159
vn 0 0.9971085 -0.07599156
vn 0 -0.9971084 -0.07599188
vn -0.7050622 0.7050622 -0.07599159
vn -0.705062 -0.7050622 -0.07599193
vn -0.9971084 -1.175188E-07 -0.07599182
vn 0.7049156 -0.7049159 -0.07866143
vn 0.9969015 1.470338E-07 -0.07866122
vn 0.7049157 0.7049159 -0.07866111
vn 0 -0.9969014 -0.07866145
vn 0 0.9969015 -0.07866117
vn -0.7049158 0.7049158 -0.07866111
vn -0.9969015 0 -0.07866119
vn -0.7049156 -0.7049159 -0.0786614
vn 0.6824657 -0.682466 -0.2616882
vn 0.9651524 0 -0.2616883
vn 0 0 -1
vn 0 -0.9651524 -0.2616883
vn 0.6824658 0.682466 -0.261688
vn -0.6824657 -0.682466 -0.2616881
vn 0 0.9651526 -0.2616878
vn -0.9651524 0 -0.2616882
vn -0.6824658 0.682466 -0.261688
g Tail_Dog_m_0
f 3/3/3 2/2/2 1/1/1
f 4/4/4 3/3/3 1/1/1
f 1/1/1 5/5/5 4/4/4
f 2/2/2 3/3/3 6/6/6
f 7/7/7 2/2/2 6/6/6
f 5/5/5 8/8/8 4/4/4
f 5/5/5 9/9/9 8/8/8
f 7/7/7 6/6/6 10/10/10
f 11/11/11 7/7/7 10/10/10
f 9/9/9 12/12/12 8/8/8
f 9/9/9 13/13/13 12/12/12
f 11/11/11 10/10/10 14/14/14
f 15/15/15 11/11/11 14/14/14
f 13/13/13 15/15/15 16/16/16
f 13/13/13 16/16/16 12/12/12
f 15/15/15 14/14/14 16/16/16
f 17/17/17 3/3/3 4/4/4
f 6/6/6 3/3/3 18/18/18
f 3/3/3 17/17/17 18/18/18
f 17/17/17 19/19/19 18/18/18
f 20/20/20 17/17/17 4/4/4
f 4/4/4 8/8/8 20/20/20
f 20/20/20 19/19/19 17/17/17
f 6/6/6 18/18/18 21/21/21
f 10/10/10 6/6/6 21/21/21
f 18/18/18 19/19/19 21/21/21
f 8/8/8 22/22/22 20/20/20
f 8/8/8 12/12/12 22/22/22
f 22/22/22 19/19/19 20/20/20
f 10/10/10 21/21/21 23/23/23
f 14/14/14 10/10/10 23/23/23
f 21/21/21 19/19/19 23/23/23
f 12/12/12 24/24/24 22/22/22
f 24/24/24 19/19/19 22/22/22
f 12/12/12 16/16/16 24/24/24
f 14/14/14 23/23/23 25/25/25
f 23/23/23 19/19/19 25/25/25
f 25/25/25 19/19/19 24/24/24
f 16/16/16 25/25/25 24/24/24
f 16/16/16 14/14/14 25/25/25
f 28/28/28 27/27/27 26/26/26
f 29/29/29 28/28/28 26/26/26
f 30/30/30 28/28/28 29/29/29
f 26/26/26 27/27/27 31/31/31
f 27/27/27 32/32/32 31/31/31
f 33/33/33 30/30/30 29/29/29
f 34/34/34 30/30/30 33/33/33
f 31/31/31 32/32/32 35/35/35
f 32/32/32 36/36/36 35/35/35
f 37/37/37 34/34/34 33/33/33
f 38/38/38 34/34/34 37/37/37
f 35/35/35 36/36/36 39/39/39
f 36/36/36 40/40/40 39/39/39
f 40/40/40 38/38/38 41/41/41
f 41/41/41 38/38/38 37/37/37
f 39/39/39 40/40/40 41/41/41
f 29/29/29 26/26/26 42/42/42
f 26/26/26 31/31/31 43/43/43
f 42/42/42 26/26/26 43/43/43
f 33/33/33 29/29/29 44/44/44
f 44/44/44 29/29/29 42/42/42
f 31/31/31 35/35/35 45/45/45
f 43/43/43 31/31/31 45/45/45
f 37/37/37 33/33/33 46/46/46
f 46/46/46 33/33/33 44/44/44
f 41/41/41 37/37/37 47/47/47
f 47/47/47 37/37/37 46/46/46
f 35/35/35 39/39/39 48/48/48
f 45/45/45 35/35/35 48/48/48
f 39/39/39 41/41/41 49/49/49
f 49/49/49 41/41/41 47/47/47
f 48/48/48 39/39/39 49/49/49
f 44/44/44 42/42/42 50/50/50
f 42/42/42 43/43/43 51/51/51
f 50/50/50 42/42/42 51/51/51
f 46/46/46 44/44/44 52/52/52
f 52/52/52 44/44/44 50/50/50
f 43/43/43 45/45/45 53/53/53
f 51/51/51 43/43/43 53/53/53
f 47/47/47 46/46/46 54/54/54
f 54/54/54 46/46/46 52/52/52
f 49/49/49 47/47/47 55/55/55
f 55/55/55 47/47/47 54/54/54
f 45/45/45 48/48/48 56/56/56
f 53/53/53 45/45/45 56/56/56
f 48/48/48 49/49/49 57/57/57
f 57/57/57 49/49/49 55/55/55
f 56/56/56 48/48/48 57/57/57
f 50/50/50 51/51/51 58/58/58
f 52/52/52 50/50/50 59/59/59
f 59/59/59 50/50/50 58/58/58
f 54/54/54 52/52/52 60/60/60
f 60/60/60 52/52/52 59/59/59
f 51/51/51 53/53/53 61/61/61
f 58/58/58 51/51/51 61/61/61
f 55/55/55 54/54/54 62/62/62
f 62/62/62 54/54/54 60/60/60
f 57/57/57 55/55/55 63/63/63
f 63/63/63 55/55/55 62/62/62
f 56/56/56 57/57/57 64/64/64
f 64/64/64 57/57/57 63/63/63
f 53/53/53 56/56/56 65/65/65
f 61/61/61 53/53/53 65/65/65
f 65/65/65 56/56/56 64/64/64
f 60/60/60 59/59/59 66/66/66
f 59/59/59 58/58/58 67/67/67
f 66/66/66 59/59/59 67/67/67
f 62/62/62 60/60/60 68/68/68
f 68/68/68 60/60/60 66/66/66
f 63/63/63 62/62/62 69/69/69
f 69/69/69 62/62/62 68/68/68
f 58/58/58 61/61/61 70/70/70
f 67/67/67 58/58/58 70/70/70
f 64/64/64 63/63/63 71/71/71
f 71/71/71 63/63/63 69/69/69
f 61/61/61 65/65/65 72/72/72
f 70/70/70 61/61/61 72/72/72
f 65/65/65 64/64/64 73/73/73
f 73/73/73 64/64/64 71/71/71
f 72/72/72 65/65/65 73/73/73
f 66/66/66 67/67/67 74/74/74
f 68/68/68 66/66/66 75/75/75
f 75/75/75 66/66/66 74/74/74
f 69/69/69 68/68/68 76/76/76
f 76/76/76 68/68/68 75/75/75
f 67/67/67 70/70/70 77/77/77
f 74/74/74 67/67/67 77/77/77
f 71/71/71 69/69/69 78/78/78
f 78/78/78 69/69/69 76/76/76
f 73/73/73 71/71/71 79/79/79
f 79/79/79 71/71/71 78/78/78
f 72/72/72 73/73/73 80/80/80
f 80/80/80 73/73/73 79/79/79
f 70/70/70 72/72/72 81/81/81
f 77/77/77 70/70/70 81/81/81
f 81/81/81 72/72/72 80/80/80
f 75/75/75 74/74/74 82/82/82
f 76/76/76 75/75/75 83/83/83
f 83/83/83 75/75/75 82/82/82
f 82/82/82 84/84/84 83/83/83
f 82/82/82 74/74/74 85/85/85
f 74/74/74 77/77/77 85/85/85
f 85/85/85 84/84/84 82/82/82
f 86/86/86 76/76/76 83/83/83
f 83/83/83 84/84/84 86/86/86
f 78/78/78 76/76/76 86/86/86
f 85/85/85 77/77/77 87/87/87
f 77/77/77 81/81/81 87/87/87
f 87/87/87 84/84/84 85/85/85
f 88/88/88 78/78/78 86/86/86
f 86/86/86 84/84/84 88/88/88
f 79/79/79 78/78/78 88/88/88
f 87/87/87 81/81/81 89/89/89
f 89/89/89 84/84/84 87/87/87
f 81/81/81 80/80/80 89/89/89
f 88/88/88 84/84/84 90/90/90
f 90/90/90 79/79/79 88/88/88
f 90/90/90 84/84/84 89/89/89
f 80/80/80 79/79/79 90/90/90
f 89/89/89 80/80/80 90/90/90
