g trang_tri
v -0.01442871 -0.09597612 0.0436985
v -0.01442871 0.06824642 0.0436985
v 0.01442871 0.06824642 0.0436985
v 0.01442871 -0.09597612 0.0436985
v 0.01442871 -0.1206932 0.03346034
v -0.01442871 -0.1206932 0.03346034
v -0.01442871 0.1309314 0.00874321
v -0.01442871 0.1309314 -0.008743172
v -0.0112207 0.1309314 -0.008743172
v -0.0112207 0.1309314 0.00874321
v -0.00215271 0.1271752 -0.008743172
v -0.00215271 0.1271752 0.00874321
v -0.01442871 0.06824642 -0.04369849
v -0.01442871 -0.09597612 -0.04369849
v 0.01442871 -0.09597612 -0.04369849
v 0.01442871 0.06824642 -0.04369849
v 0.01442871 0.09296355 -0.03346031
v -0.01442871 0.09296355 -0.03346031
v -0.01442871 -0.1206932 0.03346034
v 0.01442871 -0.1206932 0.03346034
v 0.01442871 -0.1309314 0.00874321
v -0.01442871 -0.1309314 0.00874321
v -0.01442871 -0.1309314 -0.008743172
v 0.01442871 -0.1309314 -0.008743172
v 0.01442871 -0.1206932 -0.03346031
v -0.01442871 -0.1206932 -0.03346031
v -0.01442871 0.09296355 0.03346034
v 0.01442871 0.09296355 0.03346034
v 0.01442871 0.06824642 0.0436985
v -0.01442871 0.06824642 0.0436985
v -0.01442871 0.09296355 -0.03346031
v 0.01442871 0.09296355 -0.03346031
v 0.01442871 0.1032017 -0.008743172
v 0.001603393 0.1032017 -0.008743172
v -0.01442871 0.1032017 -0.008743172
v 0.01442871 0.1032017 0.00874321
v 0.001603393 0.1032017 0.00874321
v 0.01442871 0.09296355 0.03346034
v -0.01442871 0.09296355 0.03346034
v -0.01442871 0.1032017 0.00874321
v -0.01442871 -0.1206932 -0.03346031
v 0.01442871 -0.1206932 -0.03346031
v 0.01442871 -0.09597612 -0.04369849
v -0.01442871 -0.09597612 -0.04369849
v -0.01442871 -0.1206932 0.03346034
v -0.01442871 -0.1309314 0.00874321
v -0.01442871 -0.1309314 -0.008743172
v -0.01442871 -0.1206932 -0.03346031
v -0.01442871 -0.09597612 0.0436985
v -0.01442871 -0.09597612 -0.04369849
v -0.01442871 0.06824642 0.0436985
v -0.01442871 0.06824642 -0.04369849
v -0.01442871 0.09296355 0.03346034
v -0.01442871 0.09296355 -0.03346031
v -0.01442871 0.1032017 0.00874321
v -0.01442871 0.1032017 -0.008743172
v -0.01442871 0.1309314 0.00874321
v -0.01442871 0.1309314 -0.008743172
v 0.005800781 -0.08534105 -0.009461727
v 0.005800781 -0.0921911 -0.002472362
v 0.005800781 -0.0921911 0.002472324
v 0.005800781 -0.08534105 0.009461718
v 0.005800781 -0.06880346 -0.01235681
v 0.005800781 -0.06880346 0.01235682
v 0.005800781 0.04107376 -0.01235681
v 0.005800781 0.04107376 0.01235682
v 0.005800781 0.05761137 -0.009461727
v 0.005800781 0.05761137 0.009461718
v 0.005800781 0.06446148 -0.002472362
v 0.005800781 0.06446148 0.002472324
v 0.01442871 0.04379422 -0.01549443
v 0.005800781 0.05761137 -0.009461727
v 0.01442871 0.06115074 -0.01186425
v 0.005800781 0.04107376 -0.01235681
v 0.01442871 -0.07152393 -0.01549443
v 0.005800781 -0.06880346 -0.01235681
v 0.01442871 -0.0888804 -0.01186425
v 0.005800781 -0.08534105 -0.009461727
v 0.01442871 0.06115074 -0.01186425
v 0.005800781 0.05761137 -0.009461727
v 0.005800781 0.06446148 -0.002472362
v 0.01442871 0.06834006 -0.003100109
v 0.01442871 0.06834006 -0.003100109
v 0.005800781 0.06446148 -0.002472362
v 0.005800781 0.06446148 0.002472324
v 0.01442871 0.06834006 0.003100128
v 0.01442871 0.06834006 0.003100128
v 0.005800781 0.06446148 0.002472324
v 0.005800781 0.05761137 0.009461718
v 0.01442871 0.06115074 0.01186419
v 0.01442871 0.06115074 0.01186419
v 0.005800781 0.05761137 0.009461718
v 0.005800781 0.04107376 0.01235682
v 0.01442871 0.04379422 0.01549444
v 0.005800781 -0.06880346 0.01235682
v 0.01442871 -0.07152393 0.01549444
v 0.005800781 -0.08534105 0.009461718
v 0.01442871 -0.0888804 0.01186419
v 0.01442871 -0.0888804 0.01186419
v 0.005800781 -0.08534105 0.009461718
v 0.005800781 -0.0921911 0.002472324
v 0.01442871 -0.09606969 0.003100128
v 0.01442871 -0.09606969 0.003100128
v 0.005800781 -0.0921911 0.002472324
v 0.005800781 -0.0921911 -0.002472362
v 0.01442871 -0.09606969 -0.003100109
v 0.01442871 -0.09606969 -0.003100109
v 0.005800781 -0.0921911 -0.002472362
v 0.005800781 -0.08534105 -0.009461727
v 0.01442871 -0.0888804 -0.01186425
v 0.001603393 0.1032017 0.00874321
v 0.001603393 0.118107 -0.008743172
v 0.001603393 0.1032017 -0.008743172
v 0.001603393 0.118107 0.00874321
v -0.00215271 0.1271752 0.00874321
v -0.00215271 0.1271752 -0.008743172
v -0.00215271 0.1271752 0.00874321
v 0.001603393 0.118107 0.00874321
v 0.001603393 0.1032017 0.00874321
v -0.01442871 0.1032017 0.00874321
v -0.0112207 0.1309314 0.00874321
v -0.01442871 0.1309314 0.00874321
v -0.01442871 0.1032017 -0.008743172
v 0.001603393 0.1032017 -0.008743172
v 0.001603393 0.118107 -0.008743172
v -0.00215271 0.1271752 -0.008743172
v -0.0112207 0.1309314 -0.008743172
v -0.01442871 0.1309314 -0.008743172
v 0.01442871 0.06824642 -0.04369849
v 0.01442871 0.04379422 -0.01549443
v 0.01442871 0.06115074 -0.01186425
v 0.01442871 0.09296355 -0.03346031
v 0.01442871 -0.09597612 -0.04369849
v 0.01442871 0.06834006 -0.003100109
v 0.01442871 -0.07152393 -0.01549443
v 0.01442871 0.1032017 -0.008743172
v 0.01442871 -0.1206932 -0.03346031
v 0.01442871 0.06834006 0.003100128
v 0.01442871 -0.0888804 -0.01186425
v 0.01442871 0.1032017 0.00874321
v 0.01442871 -0.1309314 -0.008743172
v 0.01442871 0.06115074 0.01186419
v 0.01442871 -0.09606969 -0.003100109
v 0.01442871 0.09296355 0.03346034
v 0.01442871 -0.1309314 0.00874321
v 0.01442871 0.04379422 0.01549444
v 0.01442871 -0.09606969 0.003100128
v 0.01442871 0.06824642 0.0436985
v 0.01442871 -0.1206932 0.03346034
v 0.01442871 -0.07152393 0.01549444
v 0.01442871 -0.0888804 0.01186419
v 0.01442871 -0.09597612 0.0436985
vt 0.04678345 0.2313232
vt 0.04678345 0.2393799
vt 0.04678345 0.2390137
vt 0.04678345 0.230957
vt 0.04730225 0.2297363
vt 0.04730225 0.2301025
vt 0.04852295 0.2424316
vt 0.04940796 0.2424316
vt 0.04940796 0.2424316
vt 0.04852295 0.2424316
vt 0.04940796 0.2420654
vt 0.04852295 0.2420654
vt 0.05117798 0.2393799
vt 0.05117798 0.2313232
vt 0.05117798 0.230957
vt 0.05117798 0.2390137
vt 0.05065918 0.2402344
vt 0.05065918 0.2406006
vt 0.04730225 0.2301025
vt 0.04730225 0.2297363
vt 0.04852295 0.229248
vt 0.04852295 0.2296143
vt 0.04940796 0.2296143
vt 0.04940796 0.229248
vt 0.05065918 0.2297363
vt 0.05065918 0.2301025
vt 0.04730225 0.2406006
vt 0.04730225 0.2402344
vt 0.04678345 0.2390137
vt 0.04678345 0.2393799
vt 0.05065918 0.2406006
vt 0.05065918 0.2402344
vt 0.04940796 0.2407227
vt 0.04940796 0.2408447
vt 0.04940796 0.2410889
vt 0.04852295 0.2407227
vt 0.04852295 0.2408447
vt 0.04730225 0.2402344
vt 0.04730225 0.2406006
vt 0.04852295 0.2410889
vt 0.05065918 0.2301025
vt 0.05065918 0.2297363
vt 0.05117798 0.230957
vt 0.05117798 0.2313232
vt 0.04730225 0.2301025
vt 0.04852295 0.2296143
vt 0.04940796 0.2296143
vt 0.05065918 0.2301025
vt 0.04678345 0.2313232
vt 0.05117798 0.2313232
vt 0.04678345 0.2393799
vt 0.05117798 0.2393799
vt 0.04730225 0.2406006
vt 0.05065918 0.2406006
vt 0.04852295 0.2410889
vt 0.04940796 0.2410889
vt 0.04852295 0.2424316
vt 0.04940796 0.2424316
vt 0.04827881 0.2724609
vt 0.04873657 0.2729492
vt 0.04904175 0.2729492
vt 0.04946899 0.2724609
vt 0.0480957 0.2712402
vt 0.0496521 0.2712402
vt 0.0480957 0.2644043
vt 0.0496521 0.2644043
vt 0.04827881 0.2634277
vt 0.04946899 0.2634277
vt 0.04873657 0.2629395
vt 0.04904175 0.2629395
vt 0.04974365 0.237793
vt 0.04943848 0.2386475
vt 0.04956055 0.2386475
vt 0.04959106 0.237793
vt 0.04974365 0.2321777
vt 0.04959106 0.2324219
vt 0.04956055 0.2313232
vt 0.04943848 0.2315674
vt 0.04956055 0.2386475
vt 0.04943848 0.2386475
vt 0.04910278 0.2388916
vt 0.0491333 0.2390137
vt 0.0491333 0.2390137
vt 0.04910278 0.2388916
vt 0.04885864 0.2388916
vt 0.04882813 0.2390137
vt 0.04882813 0.2390137
vt 0.04885864 0.2388916
vt 0.04849243 0.2386475
vt 0.04837036 0.2386475
vt 0.04837036 0.2386475
vt 0.04849243 0.2386475
vt 0.04833984 0.237793
vt 0.04818726 0.237793
vt 0.04833984 0.2324219
vt 0.04818726 0.2321777
vt 0.04849243 0.2315674
vt 0.04837036 0.2313232
vt 0.04837036 0.2313232
vt 0.04849243 0.2315674
vt 0.04885864 0.2313232
vt 0.04882813 0.230957
vt 0.04882813 0.230957
vt 0.04885864 0.2313232
vt 0.04910278 0.2313232
vt 0.0491333 0.230957
vt 0.0491333 0.230957
vt 0.04910278 0.2313232
vt 0.04943848 0.2315674
vt 0.04956055 0.2313232
vt 0.04852295 0.2408447
vt 0.04940796 0.2415771
vt 0.04940796 0.2408447
vt 0.04852295 0.2415771
vt 0.04852295 0.2420654
vt 0.04940796 0.2420654
vt 0.04852295 0.2420654
vt 0.04852295 0.2415771
vt 0.04852295 0.2408447
vt 0.04852295 0.2410889
vt 0.04852295 0.2424316
vt 0.04852295 0.2424316
vt 0.04940796 0.2410889
vt 0.04940796 0.2408447
vt 0.04940796 0.2415771
vt 0.04940796 0.2420654
vt 0.04940796 0.2424316
vt 0.04940796 0.2424316
vt 0.05117798 0.2390137
vt 0.04974365 0.237793
vt 0.04956055 0.2386475
vt 0.05065918 0.2402344
vt 0.05117798 0.230957
vt 0.0491333 0.2390137
vt 0.04974365 0.2321777
vt 0.04940796 0.2407227
vt 0.05065918 0.2297363
vt 0.04882813 0.2390137
vt 0.04956055 0.2313232
vt 0.04852295 0.2407227
vt 0.04940796 0.229248
vt 0.04837036 0.2386475
vt 0.0491333 0.230957
vt 0.04730225 0.2402344
vt 0.04852295 0.229248
vt 0.04818726 0.237793
vt 0.04882813 0.230957
vt 0.04678345 0.2390137
vt 0.04730225 0.2297363
vt 0.04818726 0.2321777
vt 0.04837036 0.2313232
vt 0.04678345 0.230957
vn 0 -0.05410767 0.9985352
vn 0 0.05410767 0.9985352
vn 0 0.05410767 0.9985352
vn 0 -0.05410767 0.9985352
vn 0 -0.3825684 0.9238281
vn 0 -0.3825684 0.9238281
vn 0 1 0
vn 0 1 0
vn 0.2924805 0.9560547 0
vn 0.2924805 0.9560547 0
vn 0.3828125 0.9238281 0
vn 0.3828125 0.9238281 0
vn 0 0.05410767 -0.9985352
vn 0 -0.05410767 -0.9985352
vn 0 -0.05410767 -0.9985352
vn 0 0.05410767 -0.9985352
vn 0 0.3825684 -0.9238281
vn 0 0.3825684 -0.9238281
vn 0 -0.9238281 0.3825684
vn 0 -0.9238281 0.3825684
vn 0 -0.9716797 0.2357178
vn 0 -0.9716797 0.2357178
vn 0 -0.9716797 -0.2357178
vn 0 -0.9716797 -0.2357178
vn 0 -0.9238281 -0.3825684
vn 0 -0.9238281 -0.3825684
vn 0 0.3825684 0.9238281
vn 0 0.3825684 0.9238281
vn 0 0.05410767 0.9985352
vn 0 0.05410767 0.9985352
vn 0 0.9238281 -0.3825684
vn 0 0.9238281 -0.3825684
vn 0 0.9609375 -0.2773438
vn 0 0.9506836 -0.3095703
vn 0 0.9238281 -0.3825684
vn 0 0.9609375 0.2773438
vn 0 0.9506836 0.3095703
vn 0 0.9238281 0.3825684
vn 0 0.9238281 0.3825684
vn 0 0.9238281 0.3825684
vn 0 -0.3825684 -0.9238281
vn 0 -0.3825684 -0.9238281
vn 0 -0.05410767 -0.9985352
vn 0 -0.05410767 -0.9985352
vn -1 0 0
vn -1 0 0
vn -1 0 0
vn -1 0 0
vn -1 0 0
vn -1 0 0
vn -1 0 0
vn -1 0 0
vn -1 0 0
vn -1 0 0
vn -1 0 0
vn -1 0 0
vn -1 0 0
vn -1 0 0
vn 1 0 0
vn 1 0 0
vn 1 0 0
vn 1 0 0
vn 1 0 0
vn 1 0 0
vn 1 0 0
vn 1 0 0
vn 1 0 0
vn 1 0 0
vn 1 0 0
vn 1 0 0
vn 0.345459 -0.03125 0.9379883
vn 0.3583984 -0.1765137 0.9169922
vn 0.3583984 -0.1765137 0.9169922
vn 0.3439941 -0.01776123 0.9389648
vn 0.345459 0.03125 0.9379883
vn 0.3439941 0.01776123 0.9389648
vn 0.3583984 0.1765137 0.9169922
vn 0.3583984 0.1765137 0.9169922
vn 0.401123 -0.684082 0.609375
vn 0.401123 -0.684082 0.609375
vn 0.401123 -0.684082 0.609375
vn 0.401123 -0.684082 0.609375
vn 0.4099121 -0.9121094 0
vn 0.4099121 -0.9121094 0
vn 0.4099121 -0.9121094 0
vn 0.4099121 -0.9121094 0
vn 0.401123 -0.684082 -0.609375
vn 0.401123 -0.684082 -0.609375
vn 0.401123 -0.684082 -0.609375
vn 0.401123 -0.684082 -0.609375
vn 0.3583984 -0.1765137 -0.9169922
vn 0.3583984 -0.1765137 -0.9169922
vn 0.3439941 -0.01776123 -0.9389648
vn 0.345459 -0.03125 -0.9379883
vn 0.3439941 0.01776123 -0.9389648
vn 0.345459 0.03125 -0.9379883
vn 0.3583984 0.1765137 -0.9169922
vn 0.3583984 0.1765137 -0.9169922
vn 0.401123 0.684082 -0.609375
vn 0.401123 0.684082 -0.609375
vn 0.401123 0.684082 -0.609375
vn 0.401123 0.684082 -0.609375
vn 0.4099121 0.9121094 0
vn 0.4099121 0.9121094 0
vn 0.4099121 0.9121094 0
vn 0.4099121 0.9121094 0
vn 0.401123 0.684082 0.609375
vn 0.401123 0.684082 0.609375
vn 0.401123 0.684082 0.609375
vn 0.401123 0.684082 0.609375
vn 1 0 0
vn 0.987793 0.1547852 0
vn 1 0 0
vn 0.987793 0.1547852 0
vn 0.9238281 0.3825684 0
vn 0.9238281 0.3825684 0
vn 0 0 1
vn 0 0 1
vn 0 0 1
vn 0 0 1
vn 0 0 1
vn 0 0 1
vn 0 0 -1
vn 0 0 -1
vn 0 0 -1
vn 0 0 -1
vn 0 0 -1
vn 0 0 -1
vn 1 0 0
vn 1 0 0
vn 1 0 0
vn 1 0 0
vn 1 0 0
vn 1 0 0
vn 1 0 0
vn 1 0 0
vn 1 0 0
vn 1 0 0
vn 1 0 0
vn 1 0 0
vn 1 0 0
vn 1 0 0
vn 1 0 0
vn 1 0 0
vn 1 0 0
vn 1 0 0
vn 1 0 0
vn 1 0 0
vn 1 0 0
vn 1 0 0
vn 1 0 0
vn 1 0 0
g trang_tri_0
f 3/3/3 2/2/2 1/1/1
f 4/4/4 3/3/3 1/1/1
f 5/5/5 4/4/4 1/1/1
f 6/6/6 5/5/5 1/1/1
f 9/9/9 8/8/8 7/7/7
f 10/10/10 9/9/9 7/7/7
f 11/11/11 9/9/9 10/10/10
f 12/12/12 11/11/11 10/10/10
f 15/15/15 14/14/14 13/13/13
f 16/16/16 15/15/15 13/13/13
f 17/17/17 16/16/16 13/13/13
f 18/18/18 17/17/17 13/13/13
f 21/21/21 20/20/20 19/19/19
f 22/22/22 21/21/21 19/19/19
f 21/21/21 22/22/22 23/23/23
f 24/24/24 21/21/21 23/23/23
f 25/25/25 24/24/24 23/23/23
f 26/26/26 25/25/25 23/23/23
f 29/29/29 28/28/28 27/27/27
f 30/30/30 29/29/29 27/27/27
f 33/33/33 32/32/32 31/31/31
f 34/34/34 33/33/33 31/31/31
f 35/35/35 34/34/34 31/31/31
f 36/36/36 33/33/33 34/34/34
f 37/37/37 36/36/36 34/34/34
f 38/38/38 36/36/36 37/37/37
f 39/39/39 38/38/38 37/37/37
f 39/39/39 37/37/37 40/40/40
f 43/43/43 42/42/42 41/41/41
f 44/44/44 43/43/43 41/41/41
f 47/47/47 46/46/46 45/45/45
f 45/45/45 48/48/48 47/47/47
f 45/45/45 49/49/49 48/48/48
f 49/49/49 50/50/50 48/48/48
f 49/49/49 51/51/51 50/50/50
f 51/51/51 52/52/52 50/50/50
f 51/51/51 53/53/53 52/52/52
f 53/53/53 54/54/54 52/52/52
f 53/53/53 55/55/55 54/54/54
f 55/55/55 56/56/56 54/54/54
f 55/55/55 57/57/57 56/56/56
f 57/57/57 58/58/58 56/56/56
f 61/61/61 60/60/60 59/59/59
f 59/59/59 62/62/62 61/61/61
f 59/59/59 63/63/63 62/62/62
f 63/63/63 64/64/64 62/62/62
f 63/63/63 65/65/65 64/64/64
f 65/65/65 66/66/66 64/64/64
f 65/65/65 67/67/67 66/66/66
f 67/67/67 68/68/68 66/66/66
f 67/67/67 69/69/69 68/68/68
f 69/69/69 70/70/70 68/68/68
f 73/73/73 72/72/72 71/71/71
f 72/72/72 74/74/74 71/71/71
f 71/71/71 74/74/74 75/75/75
f 74/74/74 76/76/76 75/75/75
f 75/75/75 76/76/76 77/77/77
f 76/76/76 78/78/78 77/77/77
f 81/81/81 80/80/80 79/79/79
f 82/82/82 81/81/81 79/79/79
f 85/85/85 84/84/84 83/83/83
f 86/86/86 85/85/85 83/83/83
f 89/89/89 88/88/88 87/87/87
f 90/90/90 89/89/89 87/87/87
f 93/93/93 92/92/92 91/91/91
f 94/94/94 93/93/93 91/91/91
f 95/95/95 93/93/93 94/94/94
f 96/96/96 95/95/95 94/94/94
f 97/97/97 95/95/95 96/96/96
f 98/98/98 97/97/97 96/96/96
f 101/101/101 100/100/100 99/99/99
f 102/102/102 101/101/101 99/99/99
f 105/105/105 104/104/104 103/103/103
f 106/106/106 105/105/105 103/103/103
f 109/109/109 108/108/108 107/107/107
f 110/110/110 109/109/109 107/107/107
f 113/113/113 112/112/112 111/111/111
f 112/112/112 114/114/114 111/111/111
f 114/114/114 112/112/112 115/115/115
f 112/112/112 116/116/116 115/115/115
f 119/119/119 118/118/118 117/117/117
f 117/117/117 120/120/120 119/119/119
f 117/117/117 121/121/121 120/120/120
f 121/121/121 122/122/122 120/120/120
f 125/125/125 124/124/124 123/123/123
f 123/123/123 126/126/126 125/125/125
f 123/123/123 127/127/127 126/126/126
f 123/123/123 128/128/128 127/127/127
f 131/131/131 130/130/130 129/129/129
f 132/132/132 131/131/131 129/129/129
f 129/129/129 130/130/130 133/133/133
f 134/134/134 131/131/131 132/132/132
f 130/130/130 135/135/135 133/133/133
f 136/136/136 134/134/134 132/132/132
f 133/133/133 135/135/135 137/137/137
f 138/138/138 134/134/134 136/136/136
f 135/135/135 139/139/139 137/137/137
f 140/140/140 138/138/138 136/136/136
f 137/137/137 139/139/139 141/141/141
f 142/142/142 138/138/138 140/140/140
f 139/139/139 143/143/143 141/141/141
f 144/144/144 142/142/142 140/140/140
f 141/141/141 143/143/143 145/145/145
f 146/146/146 142/142/142 144/144/144
f 143/143/143 147/147/147 145/145/145
f 148/148/148 146/146/146 144/144/144
f 145/145/145 147/147/147 149/149/149
f 150/150/150 146/146/146 148/148/148
f 147/147/147 151/151/151 149/149/149
f 152/152/152 150/150/150 148/148/148
f 149/149/149 151/151/151 152/152/152
f 151/151/151 150/150/150 152/152/152
