g Wall_S0
v 0.09999999 -0.2474748 -0.1000002
v -0.09999999 -0.2474748 -0.1000002
v -0.09999999 -0.2474748 0.09999999
v 0.09999999 -0.2474748 0.09999999
v -0.09999999 -0.2474748 0.09999999
v -0.09999999 -0.2474748 -0.1000002
v -0.09999999 0.1426143 -0.1000002
v -0.09999999 0.1426143 0.09999999
v 0.09999999 -0.2474748 0.09999999
v -0.09999999 -0.2474748 0.09999999
v -0.09999999 0.1426143 0.09999999
v 0.09999999 0.1426143 0.09999999
v -0.09999999 0.1426143 -0.1000002
v -0.09999999 -0.2474748 -0.1000002
v 0.09999999 -0.2474748 -0.1000002
v 0.09999999 0.1426143 -0.1000002
v 0.09999999 0.1426143 0.09999999
v 0.09999999 0.1426143 -0.1000002
v 0.09999999 -0.2474748 -0.1000002
v 0.09999999 -0.2474748 0.09999999
v 0.09999999 0.2474748 -0.1000002
v -0.09999999 0.2474748 -0.1000002
v -0.09999999 0.1426143 -0.1000002
v -0.09999999 0.2474748 -0.1000002
v -0.09999999 0.2474748 0.09999999
v -0.09999999 0.1426143 0.09999999
v -0.09999999 0.2474748 0.09999999
v 0.09999999 0.2474748 0.09999999
v 0.09999999 0.1426143 -0.1000002
v 0.09999999 0.1426143 0.09999999
v 0.09999999 0.2474748 0.09999999
v 0.09999999 0.2474748 -0.1000002
v 0.09999999 0.2474748 0.09999999
v -0.09999999 0.2474748 0.09999999
v -0.09999999 0.2474748 -0.1000002
v 0.09999999 0.2474748 -0.1000002
vt 0.4648438 0
vt 0.4648438 0
vt 0.4648438 0
vt 0.4648438 0
vt 0.4648438 0
vt 0.4648438 0
vt 0.4648438 0.1970215
vt 0.4648438 0.1970215
vt 0.4648438 0
vt 0.4648438 0
vt 0.4648438 0.1970215
vt 0.4648438 0.1970215
vt 0.4648438 0.1970215
vt 0.4648438 0
vt 0.4648438 0
vt 0.4648438 0.1970215
vt 0.4648438 0.1970215
vt 0.4648438 0.1970215
vt 0.4648438 0
vt 0.4648438 0
vt 0.4648438 0.25
vt 0.4648438 0.25
vt 0.4648438 0.1970215
vt 0.4648438 0.25
vt 0.4648438 0.25
vt 0.4648438 0.1970215
vt 0.4648438 0.25
vt 0.4648438 0.25
vt 0.4648438 0.1970215
vt 0.4648438 0.1970215
vt 0.4648438 0.25
vt 0.4648438 0.25
vt 0.4648438 0.25
vt 0.4648438 0.25
vt 0.4648438 0.25
vt 0.4648438 0.25
vn 0 -1 0
vn 0 -1 0
vn 0 -1 0
vn 0 -1 0
vn -1 0 0
vn -1 0 0
vn -1 0 0
vn -1 0 0
vn 0 0 1
vn 0 0 1
vn 0 0 1
vn 0 0 1
vn 0 0 -1
vn 0 0 -1
vn 0 0 -1
vn 0 0 -1
vn 1 0 0
vn 1 0 0
vn 1 0 0
vn 1 0 0
vn 0 0 -1
vn 0 0 -1
vn -1 0 0
vn -1 0 0
vn -1 0 0
vn -1 0 0
vn 0 0 1
vn 0 0 1
vn 1 0 0
vn 1 0 0
vn 1 0 0
vn 1 0 0
vn 0 1 0
vn 0 1 0
vn 0 1 0
vn 0 1 0
g Wall_S0_0
f 3/3/3 2/2/2 1/1/1
f 4/4/4 3/3/3 1/1/1
f 7/7/7 6/6/6 5/5/5
f 8/8/8 7/7/7 5/5/5
f 11/11/11 10/10/10 9/9/9
f 12/12/12 11/11/11 9/9/9
f 15/15/15 14/14/14 13/13/13
f 16/16/16 15/15/15 13/13/13
f 19/19/19 18/18/18 17/17/17
f 20/20/20 19/19/19 17/17/17
g Wall_S0_1
f 13/13/13 22/22/22 21/21/21
f 16/16/16 13/13/13 21/21/21
f 25/25/25 24/24/24 23/23/23
f 26/26/26 25/25/25 23/23/23
f 28/28/28 27/27/27 11/11/11
f 12/12/12 28/28/28 11/11/11
f 31/31/31 30/30/30 29/29/29
f 32/32/32 31/31/31 29/29/29
g Wall_S0_2
f 35/35/35 34/34/34 33/33/33
f 36/36/36 35/35/35 33/33/33
