g Wall_S4
v 0.4118848 -0.2474748 0.2918892
v 0.2120459 -0.2474748 0.3582838
v 0.4118848 -0.2474748 0.3582838
v -0.3346692 -0.2474748 -0.3582843
v 0.2120459 -0.2474748 0.3582838
v 0.4118848 -0.2474748 0.2918892
v -0.4118848 -0.2474748 -0.1923124
v -0.4118848 -0.2474748 -0.3582843
v -0.4118848 -0.2474748 -0.1923124
v -0.4118848 0.1426143 -0.1923124
v 0.2120459 0.1426143 0.3582838
v 0.2120459 -0.2474748 0.3582838
v -0.3346692 0.1426143 -0.3582843
v -0.3346692 -0.2474748 -0.3582843
v 0.4118848 -0.2474748 0.2918892
v 0.4118848 0.1426143 0.2918892
v 0.4118848 0.1426143 0.2918892
v 0.4118848 -0.2474748 0.2918892
v 0.4118848 -0.2474748 0.3582838
v 0.4118848 0.1426143 0.3582843
v -0.4118848 -0.2474748 -0.3582843
v -0.3346692 -0.2474748 -0.3582843
v -0.3346692 0.1426143 -0.3582843
v -0.4118848 0.1426143 -0.3582843
v 0.2120459 0.1426143 0.3582838
v 0.4118848 0.1426143 0.3582843
v 0.4118848 -0.2474748 0.3582838
v 0.2120459 -0.2474748 0.3582838
v -0.4118848 -0.2474748 -0.1923124
v -0.4118848 -0.2474748 -0.3582843
v -0.4118848 0.1426143 -0.3582843
v -0.4118848 0.1426143 -0.1923124
v -0.3346692 0.2474748 -0.3582843
v 0.4118848 0.2474748 0.2918892
v 0.4118848 0.2474748 0.2918892
v 0.4118848 0.2474748 0.3582838
v -0.4118848 0.1426143 -0.1923124
v -0.4118848 0.2474748 -0.1923124
v 0.2120459 0.2474748 0.3582838
v 0.2120459 0.1426143 0.3582838
v -0.3346692 0.2474748 -0.3582843
v -0.4118848 0.2474748 -0.3582843
v 0.2120459 0.2474748 0.3582838
v 0.4118848 0.2474748 0.3582838
v 0.4118848 0.1426143 0.3582843
v 0.2120459 0.1426143 0.3582838
v -0.4118848 0.1426143 -0.1923124
v -0.4118848 0.1426143 -0.3582843
v -0.4118848 0.2474748 -0.3582843
v -0.4118848 0.2474748 -0.1923124
v 0.2120459 0.2474748 0.3582838
v 0.4118848 0.2474748 0.2918892
v 0.4118848 0.2474748 0.3582838
v -0.4118848 0.2474748 -0.1923124
v -0.3346692 0.2474748 -0.3582843
v -0.4118848 0.2474748 -0.3582843
vt 0.9423828 0.3181152
vt 0.8652344 0.5727539
vt 0.9458008 0.1756592
vt 0.9125977 0.2919922
vt 0.8652344 0.5727539
vt 0.9423828 0.3181152
vt 0.8530273 0.5727539
vt 0.6977539 0.5419922
vt 0.8530273 0.5727539
vt 0.8120117 0.847168
vt 0.8120117 0.8251953
vt 0.8652344 0.5727539
vt 0.9648438 0.001860619
vt 0.9492188 0.001860619
vt 0.9492188 0.02787781
vt 0.9648438 0.02787781
vt 0.9648438 0.02787781
vt 0.9492188 0.02787781
vt 0.9458008 0.1756592
vt 0.9648438 0.03053284
vt 0.6977539 0.5419922
vt 0.4858398 0.7885742
vt 0.4702148 0.7885742
vt 0.4702148 0.7915039
vt 0.8120117 0.8251953
vt 0.9648438 0.03053284
vt 0.9458008 0.1756592
vt 0.8652344 0.5727539
vt 0.8530273 0.5727539
vt 0.6977539 0.5419922
vt 0.4702148 0.7915039
vt 0.8120117 0.847168
vt 0.9692383 0.001860619
vt 0.9692383 0.02787781
vt 0.9692383 0.02787781
vt 0.71875 0.2025146
vt 0.8120117 0.847168
vt 0.6259766 0.6220703
vt 0.6386719 0.6000977
vt 0.8120117 0.8251953
vt 0.4660645 0.7885742
vt 0.4506836 0.5976563
vt 0.6386719 0.6000977
vt 0.71875 0.2025146
vt 0.9648438 0.03053284
vt 0.8120117 0.8251953
vt 0.8120117 0.847168
vt 0.4702148 0.7915039
vt 0.4506836 0.5976563
vt 0.6259766 0.6220703
vt 0.6386719 0.6000977
vt 0.4685059 0.3771973
vt 0.71875 0.2025146
vt 0.6259766 0.6220703
vt 0.4387207 0.4033203
vt 0.4506836 0.5976563
vn 0 -1 0
vn 0 -1 0
vn 0 -1 0
vn 0 -1 0
vn 0 -1 0
vn 0 -1 0
vn 0 -1 0
vn 0 -1 0
vn -0.6616211 0 0.75
vn -0.6616211 0 0.75
vn -0.6616211 0 0.75
vn -0.6616211 0 0.75
vn 0.6567383 0 -0.7539063
vn 0.6567383 0 -0.7539063
vn 0.6567383 0 -0.7539063
vn 0.6567383 0 -0.7539063
vn 1 0 0
vn 1 0 0
vn 1 0 0
vn 1 0 0
vn 0 0 -1
vn 0 0 -1
vn 0 0 -1
vn 0 0 -1
vn -1.549721E-06 -5.364418E-07 1
vn -1.549721E-06 -5.364418E-07 1
vn -1.549721E-06 -5.364418E-07 1
vn -1.549721E-06 -5.364418E-07 1
vn -1 0 0
vn -1 0 0
vn -1 0 0
vn -1 0 0
vn 0.6567383 0 -0.7539063
vn 0.6567383 0 -0.7539063
vn 1 0 0
vn 1 0 0
vn -0.6616211 0 0.75
vn -0.6616211 0 0.75
vn -0.6616211 0 0.75
vn -0.6616211 0 0.75
vn 0 0 -1
vn 0 0 -1
vn -1.609325E-06 2.026558E-06 1
vn -1.609325E-06 2.026558E-06 1
vn -1.609325E-06 2.026558E-06 1
vn -1.609325E-06 2.026558E-06 1
vn -1 0 0
vn -1 0 0
vn -1 0 0
vn -1 0 0
vn 0 1 0
vn 0 1 0
vn 0 1 0
vn 0 1 0
vn 0 1 0
vn 0 1 0
g Wall_S4_0
f 3/3/3 2/2/2 1/1/1
f 6/6/6 5/5/5 4/4/4
f 5/5/5 7/7/7 4/4/4
f 8/8/8 4/4/4 7/7/7
f 11/11/11 10/10/10 9/9/9
f 12/12/12 11/11/11 9/9/9
f 15/15/15 14/14/14 13/13/13
f 16/16/16 15/15/15 13/13/13
f 19/19/19 18/18/18 17/17/17
f 20/20/20 19/19/19 17/17/17
f 23/23/23 22/22/22 21/21/21
f 24/24/24 23/23/23 21/21/21
f 27/27/27 26/26/26 25/25/25
f 28/28/28 27/27/27 25/25/25
f 31/31/31 30/30/30 29/29/29
f 32/32/32 31/31/31 29/29/29
g Wall_S4_1
f 16/16/16 13/13/13 33/33/33
f 34/34/34 16/16/16 33/33/33
f 20/20/20 17/17/17 35/35/35
f 36/36/36 20/20/20 35/35/35
f 39/39/39 38/38/38 37/37/37
f 40/40/40 39/39/39 37/37/37
f 41/41/41 23/23/23 24/24/24
f 42/42/42 41/41/41 24/24/24
f 45/45/45 44/44/44 43/43/43
f 46/46/46 45/45/45 43/43/43
f 49/49/49 48/48/48 47/47/47
f 50/50/50 49/49/49 47/47/47
g Wall_S4_2
f 53/53/53 52/52/52 51/51/51
f 51/51/51 52/52/52 54/54/54
f 52/52/52 55/55/55 54/54/54
f 54/54/54 55/55/55 56/56/56
